<svg width="42" height="42" viewBox="0 0 42 42" fill="none" xmlns="http://www.w3.org/2000/svg">
<path d="M27.125 4.375C27.125 9.324 27.125 11.8002 28.6632 13.3367C30.1997 14.875 32.676 14.875 37.625 14.875M27.125 37.625C27.125 32.676 27.125 30.1997 28.6632 28.6632C30.1997 27.125 32.676 27.125 37.625 27.125M14.875 4.375C14.875 9.324 14.875 11.8002 13.3367 13.3367C11.8002 14.875 9.324 14.875 4.375 14.875M14.875 37.625C14.875 32.676 14.875 30.1997 13.3367 28.6632C11.8002 27.125 9.324 27.125 4.375 27.125M21 4.375V7.875M37.625 21H34.125M21 34.125V37.625M7.875 21H4.375M26.25 21C26.25 22.3924 25.6969 23.7277 24.7123 24.7123C23.7277 25.6969 22.3924 26.25 21 26.25C19.6076 26.25 18.2723 25.6969 17.2877 24.7123C16.3031 23.7277 15.75 22.3924 15.75 21C15.75 19.6076 16.3031 18.2723 17.2877 17.2877C18.2723 16.3031 19.6076 15.75 21 15.75C22.3924 15.75 23.7277 16.3031 24.7123 17.2877C25.6969 18.2723 26.25 19.6076 26.25 21Z" stroke="url(#paint0_linear_5077_8649)" stroke-width="2" stroke-linecap="round" stroke-linejoin="round"/>
<defs>
<linearGradient id="paint0_linear_5077_8649" x1="4.375" y1="21" x2="37.625" y2="21" gradientUnits="userSpaceOnUse">
<stop stop-color="#5254CB"/>
<stop offset="1" stop-color="#FF942F"/>
</linearGradient>
</defs>
</svg>
