<svg width="42" height="42" viewBox="0 0 42 42" fill="none" xmlns="http://www.w3.org/2000/svg">
<path d="M34.125 17.0625C35.5169 17.0608 36.8512 16.5071 37.8354 15.5229C38.8196 14.5387 39.3733 13.2044 39.375 11.8125V7.875H35.4375C34.0937 7.87712 32.8024 8.39702 31.8321 9.32662C31.1526 8.09254 30.1544 7.06333 28.9418 6.34631C27.7291 5.62928 26.3463 5.25069 24.9375 5.25H21V9.1875C21.0024 11.2753 21.8329 13.277 23.3092 14.7533C24.7855 16.2296 26.7872 17.0601 28.875 17.0625H30.1875V34.125H14.4375V27.5625H15.75C17.1419 27.5608 18.4762 27.0071 19.4604 26.0229C20.4446 25.0387 20.9983 23.7044 21 22.3125V18.375H17.0625C15.7187 18.3771 14.4274 18.897 13.4571 19.8266C12.7776 18.5925 11.7794 17.5633 10.5668 16.8463C9.3541 16.1293 7.97129 15.7507 6.5625 15.75H2.625V19.6875C2.62743 21.7753 3.4579 23.777 4.93422 25.2533C6.41054 26.7296 8.41217 27.5601 10.5 27.5625H11.8125V34.125H2.625V36.75H39.375V34.125H32.8125V17.0625H34.125ZM32.8125 13.125C32.8125 12.4288 33.0891 11.7611 33.5813 11.2688C34.0736 10.7766 34.7413 10.5 35.4375 10.5H36.75V11.8125C36.75 12.5087 36.4734 13.1764 35.9812 13.6687C35.4889 14.1609 34.8212 14.4375 34.125 14.4375H32.8125V13.125ZM14.4375 23.625C14.4375 22.9288 14.7141 22.2611 15.2063 21.7688C15.6986 21.2766 16.3663 21 17.0625 21H18.375V22.3125C18.375 23.0087 18.0984 23.6764 17.6062 24.1687C17.1139 24.6609 16.4462 24.9375 15.75 24.9375H14.4375V23.625ZM11.8125 24.9375H10.5C9.10815 24.9358 7.7738 24.3821 6.78961 23.3979C5.80542 22.4137 5.25174 21.0794 5.25 19.6875V18.375H6.5625C7.95435 18.3767 9.2887 18.9304 10.2729 19.9146C11.2571 20.8988 11.8108 22.2331 11.8125 23.625V24.9375ZM30.1875 14.4375H28.875C27.4831 14.4358 26.1488 13.8821 25.1646 12.8979C24.1804 11.9137 23.6267 10.5794 23.625 9.1875V7.875H24.9375C26.3294 7.87674 27.6637 8.43042 28.6479 9.41461C29.6321 10.3988 30.1858 11.7331 30.1875 13.125V14.4375Z" fill="url(#paint0_linear_5077_8609)"/>
<defs>
<linearGradient id="paint0_linear_5077_8609" x1="2.625" y1="21" x2="39.375" y2="21" gradientUnits="userSpaceOnUse">
<stop stop-color="#5254CB"/>
<stop offset="1" stop-color="#FF942F"/>
</linearGradient>
</defs>
</svg>
