<svg width="42" height="42" viewBox="0 0 42 42" fill="none" xmlns="http://www.w3.org/2000/svg">
<g clip-path="url(#clip0_3540_11304)">
<path d="M21.7656 0.75C22.2162 0.75 22.5625 1.0963 22.5625 1.54688V3.64746C31.5632 3.92646 38.836 10.9682 39.4219 19.8906H41.4531C41.6978 19.8906 41.9009 20.0135 42.0361 20.1758C42.1703 20.3368 42.25 20.5495 42.25 20.7656C42.25 21.2162 41.9037 21.5625 41.4531 21.5625H39.4307C39.1489 30.5661 31.9535 37.8362 23.0312 38.4219V40.4531C23.0312 40.9037 22.6849 41.25 22.2344 41.25C22.0182 41.25 21.8055 41.1703 21.6445 41.0361C21.4822 40.9009 21.3594 40.6978 21.3594 40.4531V38.4297C12.4325 38.1469 5.16455 30.9532 4.6543 22.0312H2.54688C2.0963 22.0312 1.75 21.6849 1.75 21.2344C1.75 21.0182 1.82975 20.8055 1.96387 20.6445C2.09911 20.4822 2.30223 20.3594 2.54688 20.3594H4.64746C4.92888 11.434 12.0467 4.16462 20.9688 3.6543V1.54688C20.9688 1.0963 21.3151 0.75 21.7656 0.75ZM6.25195 22.0312C6.83407 30.0558 13.3392 36.477 21.3594 36.7578V32.0176C15.9479 31.7411 11.4942 27.4372 10.9922 22.0312H6.25195ZM33.0186 21.5625C32.7437 27.0483 28.4393 31.5056 23.0312 32.0078V36.75C31.1268 36.2424 37.4796 29.6653 37.7578 21.5625H33.0186ZM22.5625 13.3438C22.5625 13.7943 22.2162 14.1406 21.7656 14.1406C21.3151 14.1406 20.9688 13.7943 20.9688 13.3438V11.667C16.4666 12.1613 12.9252 15.8493 12.5811 20.3594H14.3438C14.5813 20.3594 14.7979 20.4757 14.9502 20.6279C15.1025 20.7802 15.2188 20.9968 15.2188 21.2344V21.2656L15.2109 21.2949C15.113 21.6865 14.8011 22.0312 14.3438 22.0312H12.668C13.1624 26.5333 16.8493 30.0738 21.3594 30.418V28.6562C21.3594 28.4116 21.4822 28.2085 21.6445 28.0732C21.8055 27.9391 22.0182 27.8594 22.2344 27.8594C22.6849 27.8594 23.0312 28.2057 23.0312 28.6562V30.332C27.5408 29.8372 31.1515 26.1439 31.4238 21.5625H29.6562C29.2057 21.5625 28.8594 21.2162 28.8594 20.7656C28.8594 20.5495 28.9391 20.3368 29.0732 20.1758C29.2085 20.0135 29.4116 19.8906 29.6562 19.8906H31.332C30.8374 15.3864 27.1463 11.8459 22.5625 11.5762V13.3438ZM22 15.8281C23.6961 15.8281 25.1406 17.1857 25.1406 18.9688C25.1406 20.4302 24.1339 21.6478 22.7969 22.0488V23.5C22.7969 23.8941 22.532 24.2087 22.1641 24.2812C22.532 24.3538 22.7969 24.6684 22.7969 25.0625V25.375C22.7969 25.5911 22.7171 25.8039 22.583 25.9648C22.4478 26.1271 22.2446 26.25 22 26.25C21.7554 26.25 21.5522 26.1271 21.417 25.9648C21.2829 25.8039 21.2031 25.5911 21.2031 25.375V25.0625C21.2031 24.6684 21.468 24.3538 21.8359 24.2812C21.468 24.2087 21.2031 23.8941 21.2031 23.5V21.3125C21.2031 20.8619 21.5494 20.5156 22 20.5156C22.8065 20.5156 23.5469 19.8393 23.5469 18.9688C23.5469 18.1693 22.7994 17.4219 22 17.4219C21.2146 17.4219 20.5312 18.1548 20.5312 18.9688C20.5312 19.2063 20.415 19.4229 20.2627 19.5752C20.1104 19.7275 19.8938 19.8438 19.6562 19.8438C19.4116 19.8438 19.2085 19.7209 19.0732 19.5586C18.9391 19.3976 18.8594 19.1849 18.8594 18.9688C18.8594 17.1901 20.2213 15.8281 22 15.8281ZM20.9688 5.25098C12.9442 5.83306 6.52296 12.3392 6.24219 20.3594H10.9814C11.2579 14.9478 15.5628 10.4932 20.9688 9.99121V5.25098ZM22.5625 9.98047C28.0478 10.2532 32.432 14.4862 33.0059 19.8906H37.75C37.2401 11.9453 30.6635 5.52083 22.5625 5.24121V9.98047Z" fill="#B15252" stroke="#B15252" stroke-width="0.5"/>
</g>
<defs>
<clipPath id="clip0_3540_11304">
<rect width="42" height="42" fill="white"/>
</clipPath>
</defs>
</svg>
