<svg width="42" height="42" viewBox="0 0 42 42" fill="none" xmlns="http://www.w3.org/2000/svg">
<path fill-rule="evenodd" clip-rule="evenodd" d="M8 15.75C8 20.4716 10.5665 24.591 14.375 26.7939V28.5C14.375 31.1407 16.5156 33.2812 19.1562 33.2812H22.3438C24.9844 33.2812 27.125 31.1407 27.125 28.5V26.7939C30.9334 24.591 33.5 20.4716 33.5 15.75C33.5 8.70837 27.7917 3 20.75 3C13.7083 3 8 8.70837 8 15.75ZM20.75 6.1875C15.4688 6.1875 11.1875 10.4688 11.1875 15.75C11.1875 19.5623 13.4183 22.8565 16.6526 24.3931C17.2715 24.6871 17.6137 25.3283 17.5568 25.9729C17.5606 26.0179 17.5625 26.0635 17.5625 26.1094V28.5C17.5625 29.3802 18.276 30.0938 19.1562 30.0938H22.3438C23.224 30.0938 23.9375 29.3802 23.9375 28.5V26.1094C23.9375 26.0635 23.9394 26.0179 23.9432 25.9729C23.8863 25.3283 24.2285 24.6871 24.8474 24.3931C28.0817 22.8565 30.3125 19.5623 30.3125 15.75C30.3125 10.4688 26.0312 6.1875 20.75 6.1875Z" fill="#B15252"/>
<path d="M17.5625 36.4688C16.6823 36.4688 15.9688 37.1823 15.9688 38.0625C15.9688 38.9427 16.6823 39.6562 17.5625 39.6562H23.9375C24.8177 39.6562 25.5312 38.9427 25.5312 38.0625C25.5312 37.1823 24.8177 36.4688 23.9375 36.4688H17.5625Z" fill="#B15252"/>
</svg>
