<svg width="61" height="60" viewBox="0 0 61 60" fill="none" xmlns="http://www.w3.org/2000/svg">
<path d="M27.9788 32.1713L27.9805 55M27.9805 55H20.8431M27.9805 55H34.2258M54.6575 6.13145C53.805 14.2963 47.7469 29.355 28.9939 33.0826C28.4928 33.1822 28.0205 32.7466 27.9981 32.1285C27.6513 22.5527 32.2992 5.49326 53.7858 5.0002C54.2992 4.98841 54.7223 5.51067 54.6575 6.13145ZM6.67396 13.7491C7.45263 19.7513 12.1559 30.3511 26.1717 33.0906C26.6688 33.1878 27.1343 32.7548 27.148 32.1415C27.3049 25.1273 23.6386 13.0731 7.52798 12.6132C7.0135 12.5985 6.59361 13.1296 6.67396 13.7491Z" stroke="#556EAA" stroke-width="2" stroke-linecap="round"/>
</svg>
