<svg width="61" height="60" viewBox="0 0 61 60" fill="none" xmlns="http://www.w3.org/2000/svg">
<path d="M30.5744 38.8198L28.744 57.033C28.692 57.5507 29.1006 58 29.6235 58H30.3796C30.8808 58 31.2817 57.5858 31.2629 57.0875L30.5744 38.8198Z" fill="#556EAA"/>
<path d="M30.5744 31.3874V17.7215M30.5744 31.3874C29.9319 28.83 27.6349 23.3797 23.587 22.037M30.5744 31.3874V38.8198M30.5744 38.8198L28.744 57.033C28.692 57.5507 29.1006 58 29.6235 58H30.3796C30.8808 58 31.2817 57.5858 31.2629 57.0875L30.5744 38.8198ZM30.5744 38.8198C30.7351 36.4222 32.2129 31.1956 36.8391 29.4694M43.5887 37.9295C41.6839 37.6123 38.3679 36.1061 37.6949 32.079C37.671 31.9362 37.8159 31.8108 38.0119 31.8167C40.2532 31.8843 44.0483 33.1189 43.9636 37.705C43.9609 37.8514 43.7853 37.9623 43.5887 37.9295ZM41.0321 4.10469C41.4459 8.0989 39.364 13.2893 34.0936 14.4991C33.9014 14.5631 33.5207 14.1783 33.4918 13.8674C33.1603 10.3113 34.1415 4.0839 40.4713 3.37453C40.6735 3.35188 41.04 3.78787 41.0321 4.10469ZM28.3376 13.7436C29.4083 10.5525 29.4361 4.5111 22.0843 2.0186C21.8581 1.94188 21.6001 2.1099 21.5359 2.38641C21.531 2.40731 21.5263 2.42751 21.5197 2.44792C20.5233 5.51779 20.8577 11.9668 27.7091 14.027C27.7378 14.0356 27.7661 14.0481 27.794 14.0588C28.0019 14.1379 28.2499 14.0052 28.3376 13.7436ZM39.0924 19.6226C44.7918 21.0227 48.8112 18.0229 49.9135 14.8179C49.9213 14.7951 49.9315 14.7733 49.9401 14.7508C50.0339 14.5036 49.8399 14.0503 49.6388 13.9815C43.0484 11.7288 39.7314 16.0285 38.7281 18.8771C38.6404 19.1262 38.8764 19.5865 39.0924 19.6226ZM39.7543 25.5413C42.9216 30.4597 47.9125 31.0351 50.9287 29.4643C50.9502 29.4531 50.9726 29.4443 50.9945 29.4337C51.2334 29.3186 51.4062 28.8569 51.3078 28.6693C48.0836 22.5223 42.7033 23.371 40.0055 24.751C39.7696 24.8716 39.6225 25.3672 39.7543 25.5413ZM10.8412 14.9137C13.9472 19.6517 18.7845 20.1703 21.6933 18.626C21.7147 18.6147 21.737 18.6057 21.7587 18.5949C21.9887 18.4807 22.1517 18.0333 22.0551 17.8526C18.884 11.9247 13.6801 12.7888 11.0783 14.1464C10.8508 14.2651 10.7123 14.7462 10.8412 14.9137ZM9.65478 29.644C15.0353 31.4705 19.166 28.9124 20.5002 25.9125C20.51 25.8904 20.522 25.8697 20.5325 25.8479C20.6429 25.6169 20.4941 25.1646 20.3061 25.0816C14.1373 22.3579 10.5743 26.2296 9.3662 28.8943C9.26057 29.1273 9.44945 29.5911 9.65478 29.644ZM19.9685 39.4165C24.5158 38.0946 26.1008 34.3822 25.5678 31.6996C25.5631 31.6759 25.561 31.6519 25.5564 31.6282C25.5154 31.4195 25.2003 31.1867 25.0336 31.2196C19.5127 32.3069 18.9494 36.6487 19.4102 39.0429C19.4505 39.2523 19.803 39.4785 19.9685 39.4165Z" stroke="#556EAA" stroke-width="2" stroke-linecap="round"/>
</svg>
