<svg width="42" height="43" viewBox="0 0 42 43" fill="none" xmlns="http://www.w3.org/2000/svg">
<g clip-path="url(#clip0_6704_7080)">
<path d="M41.2618 19.9063V23.8437C41.2618 24.8733 40.4241 25.711 39.3943 25.711C38.0543 25.711 36.8861 26.3586 36.1893 27.4877C36.0808 27.6636 35.8927 27.7604 35.7001 27.7604C35.5972 27.7604 35.4931 27.7328 35.399 27.6748C35.1291 27.5082 35.0454 27.1544 35.212 26.8846C36.1228 25.409 37.6472 24.5627 39.3943 24.5627C39.7908 24.5627 40.1133 24.2401 40.1133 23.8438V19.9064C40.1133 19.51 39.7908 19.1874 39.3943 19.1874C37.3642 19.1874 35.6197 18.0204 34.8416 16.1419C34.0634 14.2633 34.4718 12.2044 35.9073 10.7689C36.1876 10.4886 36.1876 10.0323 35.9073 9.75201L33.1231 6.96779C32.8427 6.68749 32.3865 6.68741 32.1063 6.96779C30.6706 8.40334 28.612 8.81169 26.7332 8.03362C24.8547 7.25555 23.6877 5.511 23.6877 3.4808C23.6877 3.08435 23.3652 2.7618 22.9687 2.7618H19.0314C18.6349 2.7618 18.3124 3.08435 18.3124 3.4808C18.3124 5.511 17.1454 7.25555 15.2669 8.03362C13.3881 8.81161 11.3295 8.40325 9.89392 6.96779C9.61354 6.68749 9.15728 6.68741 8.87706 6.96779L6.09284 9.75201C5.81245 10.0324 5.81245 10.4886 6.09284 10.7689C7.52838 12.2044 7.93682 14.2632 7.15867 16.1419C6.38052 18.0204 4.63604 19.1874 2.60585 19.1874C2.2094 19.1874 1.88677 19.51 1.88677 19.9064V23.8438C1.88677 24.2402 2.2094 24.5627 2.60585 24.5627C4.35312 24.5627 5.87751 25.409 6.78822 26.8846C6.95474 27.1545 6.87099 27.5083 6.60118 27.6749C6.33122 27.8414 5.97742 27.7576 5.8109 27.4877C5.11412 26.3587 3.94592 25.7111 2.60585 25.7111C1.57611 25.711 0.738329 24.8733 0.738329 23.8437V19.9063C0.738329 18.8766 1.57611 18.0389 2.60585 18.0389C4.16272 18.0389 5.50065 17.1436 6.0976 15.7024C6.69454 14.261 6.38159 12.6818 5.28065 11.5809C4.55262 10.8528 4.55254 9.66801 5.28065 8.9399L8.06487 6.15568C8.79298 5.42765 9.97767 5.42757 10.7059 6.15568C11.8069 7.25654 13.3861 7.56957 14.8274 6.97255C16.2686 6.37561 17.1639 5.03759 17.1639 3.48072C17.1639 2.45098 18.0016 1.61328 19.0314 1.61328H22.9687C23.9985 1.61328 24.8362 2.45098 24.8362 3.48072C24.8362 5.03759 25.7314 6.37561 27.1727 6.97255C28.6139 7.56957 30.1933 7.25654 31.2941 6.15568C32.0223 5.42765 33.207 5.42757 33.9351 6.15568L36.7194 8.93998C37.4475 9.66809 37.4474 10.8529 36.7194 11.581C35.6185 12.6818 35.3056 14.2611 35.9025 15.7024C36.4995 17.1436 37.8375 18.039 39.3942 18.039C40.4241 18.0389 41.2618 18.8767 41.2618 19.9063ZM26.4837 28.8666C26.2343 29.0625 26.191 29.4235 26.3868 29.6729C26.5001 29.8171 26.6686 29.8925 26.8388 29.8925C26.9629 29.8925 27.0879 29.8524 27.1931 29.7698C29.6338 27.8526 31.0336 24.9751 31.0336 21.875C31.0336 16.3425 26.5326 11.8414 21 11.8414C15.4675 11.8414 10.9666 16.3424 10.9666 21.875C10.9666 24.9751 12.3663 27.8527 14.8071 29.7698C15.0565 29.9657 15.4175 29.9222 15.6134 29.6729C15.8093 29.4235 15.7659 29.0626 15.5165 28.8666C13.3547 27.1686 12.1149 24.6203 12.1149 21.875C12.1149 16.9757 16.1007 12.9899 21 12.9899C25.8992 12.9899 29.8852 16.9757 29.8852 21.875C29.8852 24.6203 28.6454 27.1686 26.4837 28.8666ZM36.2488 33.0217L34.1871 35.4367L36.2488 37.8516H40.6875C40.8913 37.8516 41.0799 37.9596 41.1829 38.1355C41.286 38.3114 41.2881 38.5286 41.1885 38.7064C40.0032 40.8223 37.7621 42.1367 35.3397 42.1367C32.7424 42.1367 30.4121 40.6584 29.2993 38.339H12.7007C11.5879 40.6584 9.25768 42.1367 6.66041 42.1367C4.23811 42.1367 1.99685 40.8223 0.811501 38.7065C0.711915 38.5287 0.714048 38.3114 0.817079 38.1356C0.920111 37.9597 1.1087 37.8517 1.31247 37.8517H5.75134L7.81295 35.4367L5.75134 33.0218H1.31255C1.10878 33.0218 0.920193 32.9138 0.817161 32.7379C0.714048 32.562 0.711997 32.3448 0.811583 32.167C1.99693 30.0511 4.23811 28.7368 6.66049 28.7368C9.25777 28.7368 11.5879 30.215 12.7008 32.5345H29.2995C30.4122 30.215 32.7426 28.7368 35.3398 28.7368C37.7622 28.7368 40.0034 30.0511 41.1887 32.1671C41.2883 32.3448 41.2861 32.5621 41.1831 32.738C41.0801 32.9139 40.8915 33.0219 40.6877 33.0219L36.2488 33.0217ZM35.984 31.8733H39.5965C38.5517 30.6275 36.9969 29.885 35.3397 29.885C33.0792 29.885 31.063 31.2361 30.2031 33.3269C30.1146 33.5421 29.9049 33.6827 29.6721 33.6827H12.328C12.0951 33.6827 11.8854 33.5421 11.7969 33.3269C10.937 31.236 8.9207 29.885 6.66041 29.885C5.0033 29.885 3.44848 30.6275 2.40365 31.8733H6.01622C6.1843 31.8733 6.34385 31.9469 6.45295 32.0747L9.00478 35.0638C9.18804 35.2786 9.18804 35.5947 9.00478 35.8095L6.45295 38.7986C6.34385 38.9264 6.1843 39 6.01622 39H2.40373C3.44848 40.2458 5.0033 40.9883 6.66041 40.9883C8.92078 40.9883 10.937 39.6372 11.7969 37.5464C11.8854 37.3312 12.0951 37.1906 12.328 37.1906H29.6721C29.905 37.1906 30.1147 37.3312 30.2032 37.5464C31.0631 39.6372 33.0793 40.9883 35.3398 40.9883C36.9969 40.9883 38.5517 40.2458 39.5965 39H35.984C35.816 39 35.6564 38.9264 35.5473 38.7986L32.9954 35.8095C32.8121 35.5947 32.8121 35.2786 32.9954 35.0638L35.5473 32.0747C35.6563 31.9469 35.816 31.8733 35.984 31.8733Z" fill="url(#paint0_linear_6704_7080)"/>
</g>
<defs>
<linearGradient id="paint0_linear_6704_7080" x1="21.0001" y1="1.61328" x2="21.0001" y2="49.1961" gradientUnits="userSpaceOnUse">
<stop stop-color="#F4853B"/>
<stop offset="1" stop-color="#3448F5"/>
</linearGradient>
<clipPath id="clip0_6704_7080">
<rect width="42" height="42" fill="white" transform="translate(0 0.875)"/>
</clipPath>
</defs>
</svg>
