<svg width="42" height="43" viewBox="0 0 42 43" fill="none" xmlns="http://www.w3.org/2000/svg">
<path d="M3.55078 7.52734H6.69043C6.7271 7.52743 6.75274 7.54095 6.7666 7.55371C6.77315 7.55977 6.77617 7.56491 6.77734 7.56738C6.77817 7.56919 6.77831 7.57022 6.77832 7.57129C6.77832 7.57244 6.7782 7.57333 6.77734 7.5752C6.77624 7.57758 6.77335 7.58263 6.7666 7.58887C6.75275 7.60167 6.72718 7.61515 6.69043 7.61523H3.55078C2.00301 7.61523 0.677734 8.79033 0.677734 10.3135V28.332H41.3223V10.3135C41.3222 8.79026 39.997 7.61523 38.4492 7.61523H35.1641C35.1271 7.61523 35.1008 7.6017 35.0869 7.58887C35.0803 7.58271 35.0772 7.57752 35.0762 7.5752C35.0754 7.57349 35.0752 7.57238 35.0752 7.57129C35.0752 7.57028 35.0754 7.56909 35.0762 7.56738C35.0773 7.56493 35.0803 7.55979 35.0869 7.55371C35.1008 7.54087 35.1271 7.52734 35.1641 7.52734H38.4492C40.1672 7.52734 41.499 8.81329 41.499 10.3135V10.3184C41.499 10.4364 41.499 13.9857 41.5 30.9092C41.4998 32.4028 40.1724 33.6943 38.4492 33.6943H24.3223V38.4844H27.6016C28.5975 38.4844 29.3408 39.2258 29.3408 40.0547C29.3407 40.8835 28.5974 41.624 27.6016 41.624H14.3984C13.4026 41.624 12.6593 40.8835 12.6592 40.0547C12.6592 39.2258 13.4025 38.4844 14.3984 38.4844H17.6777V33.6943H3.55078C1.82504 33.6943 0.50028 32.4003 0.5 30.9092L0.500977 10.3135C0.500977 8.81329 1.83279 7.52734 3.55078 7.52734ZM14.3984 38.5732C13.5746 38.5732 12.836 39.2008 12.8359 40.0547C12.8359 40.9086 13.5746 41.5361 14.3984 41.5361H27.6016C28.4255 41.5361 29.1641 40.9085 29.1641 40.0547C29.164 39.2008 28.4254 38.5732 27.6016 38.5732H14.3984ZM17.8545 38.4854H24.1455V33.6943H17.8545V38.4854ZM0.677734 30.9092C0.677911 32.4242 1.99985 33.6055 3.55273 33.6055H38.4473C40.0007 33.6055 41.3221 32.4237 41.3223 30.9092V28.4199H0.677734V30.9092Z" fill="url(#paint0_linear_6704_7232)" stroke="url(#paint1_linear_6704_7232)"/>
<path d="M27.6514 30.9688H34.5029C34.5397 30.9688 34.5652 30.9824 34.5791 30.9951C34.5859 31.0014 34.5897 31.0064 34.5908 31.0088V31.0166C34.5897 31.019 34.5859 31.024 34.5791 31.0303C34.5652 31.0431 34.5397 31.0566 34.5029 31.0566H27.6514C27.6144 31.0566 27.5881 31.0431 27.5742 31.0303C27.5675 31.024 27.5645 31.0189 27.5635 31.0166C27.5626 31.0147 27.5625 31.0138 27.5625 31.0127C27.5625 31.0116 27.5627 31.0106 27.5635 31.0088C27.5646 31.0064 27.5676 31.0012 27.5742 30.9951C27.5881 30.9823 27.6145 30.9688 27.6514 30.9688Z" fill="url(#paint2_linear_6704_7232)" stroke="url(#paint3_linear_6704_7232)"/>
<path d="M36.3662 30.9688H38.5586C38.5953 30.9688 38.6209 30.9824 38.6348 30.9951C38.6413 31.0012 38.6443 31.0063 38.6455 31.0088C38.6463 31.0106 38.6465 31.0116 38.6465 31.0127C38.6465 31.0138 38.6464 31.0147 38.6455 31.0166C38.6444 31.019 38.6415 31.024 38.6348 31.0303C38.6209 31.0431 38.5953 31.0566 38.5586 31.0566H36.3662C36.3293 31.0566 36.303 31.0431 36.2891 31.0303C36.2823 31.024 36.2794 31.0189 36.2783 31.0166C36.2775 31.0147 36.2773 31.0138 36.2773 31.0127C36.2774 31.0116 36.2775 31.0106 36.2783 31.0088C36.2795 31.0064 36.2824 31.0012 36.2891 30.9951C36.303 30.9823 36.3293 30.9688 36.3662 30.9688Z" fill="url(#paint4_linear_6704_7232)" stroke="url(#paint5_linear_6704_7232)"/>
<path d="M20.9268 0.625C21.4582 0.625014 21.9798 0.655239 22.4902 0.711914L23.6182 1.91113C24.7307 3.09439 25.6516 5.04714 26.1953 7.51367L26.2666 7.83691L26.5918 7.89746C29.1733 8.38384 31.2406 9.19778 32.54 10.1826L33.7139 11.0723L33.3242 9.65137C32.1694 5.44491 28.598 2.15044 24.0977 1.08203L22.5791 0.72168C29.2811 1.50931 34.0438 7.00796 34.0439 12.5859C34.0439 18.1395 29.2932 23.614 22.6328 24.4258L24.1162 24.0723C28.6017 23.0008 32.161 19.7167 33.3193 15.5244L33.7129 14.1025L32.5361 14.9922C31.2364 15.9757 29.1707 16.7885 26.5918 17.2744L26.2666 17.335L26.1953 17.6582C25.6544 20.1129 24.7393 22.059 23.6338 23.2441L22.5186 24.4385C22.2023 24.4744 21.882 24.5012 21.5576 24.5156L21.2119 24.5264H21.2002C21.1656 24.5279 21.1439 24.5298 21.126 24.5312C21.117 24.532 21.1134 24.5321 21.1123 24.5322C21.1025 24.5327 21.0718 24.5332 20.9268 24.5332C20.5227 24.5332 20.1229 24.5148 19.7285 24.4814L18.6064 23.3223C17.4677 22.1461 16.5223 20.1697 15.9688 17.6582L15.8975 17.335L15.5732 17.2744L15.0479 17.1689C12.4613 16.6222 10.4443 15.7416 9.26758 14.7002L8.07324 13.6436L8.4502 15.1934C9.53985 19.6705 13.3511 23.1702 18.1465 24.1602L19.6865 24.4775C13.0848 23.8992 7.95703 18.7525 7.95703 12.5791C7.95716 6.39993 13.0943 1.24804 19.7051 0.677734L18.1641 0.995117C13.3538 1.98122 9.53035 5.49174 8.44531 9.9834L8.07227 11.5312L9.26367 10.4746C10.5183 9.36235 12.7316 8.43279 15.5732 7.89746L15.8975 7.83691L15.9688 7.51367C16.5249 4.99056 17.4765 3.00789 18.6221 1.83398L19.7529 0.673828C20.1393 0.64182 20.5311 0.625 20.9268 0.625ZM25.3721 17.4736C22.6042 17.8609 19.5587 17.8608 16.792 17.4736L16.0635 17.3711L16.2363 18.0869C16.6936 19.9708 17.3768 21.5207 18.1846 22.6172C18.9823 23.7 19.9639 24.4176 21.0264 24.4424H21.042C21.0888 24.442 21.1672 24.44 21.1943 24.4395L21.2031 24.4385H21.2119C22.2584 24.382 23.2223 23.6583 24.0078 22.5781C24.8031 21.4845 25.4757 19.9491 25.9277 18.0869L26.1016 17.3711L25.3721 17.4736ZM25.7568 7.83984C22.7863 7.38057 19.3749 7.38098 16.4072 7.83984L16.0557 7.89453L15.9922 8.24512C15.4933 11.0038 15.4938 14.1703 15.9922 16.9268L16.0547 17.2773L16.4072 17.332C19.3778 17.7911 22.7886 17.7908 25.7568 17.332L26.1094 17.2773L26.1729 16.9268C26.6716 14.168 26.6713 11.0013 26.1729 8.24512L26.1094 7.89453L25.7568 7.83984ZM15.1592 8.06543C13.1145 8.48975 11.4357 9.12505 10.2549 9.87598C9.10254 10.6089 8.29698 11.5388 8.29688 12.5859C8.29688 13.6331 9.10254 14.5631 10.2549 15.2959C11.4357 16.0468 13.1145 16.6822 15.1592 17.1064L15.8711 17.2539L15.7539 16.5361C15.3368 13.9877 15.337 11.183 15.7539 8.63574L15.8711 7.91797L15.1592 8.06543ZM26.4102 8.63574C26.8273 11.1841 26.8271 13.9889 26.4102 16.5361L26.293 17.2539L27.0059 17.1064C28.7353 16.7476 30.1991 16.2382 31.3213 15.6377C32.4296 15.0446 33.2638 14.3305 33.6426 13.5283L33.6826 13.4434L33.6895 13.3496C33.7286 12.7853 33.7285 12.3866 33.6904 11.8271L33.6846 11.7334L33.6445 11.6475L33.5684 11.498C33.1614 10.7554 32.3628 10.0918 31.3232 9.53516C30.2007 8.93405 28.7357 8.42458 27.0049 8.06543L26.293 7.91797L26.4102 8.63574ZM21.082 0.727539C20.0077 0.727625 19.0129 1.44071 18.2061 2.52539C17.3889 3.62398 16.6985 5.18498 16.2373 7.08496L16.0635 7.80078L16.792 7.69824C19.5599 7.31094 22.6058 7.31114 25.3721 7.69824L26.1016 7.80078L25.9277 7.08496C25.4665 5.18481 24.7752 3.62401 23.958 2.52539C23.1511 1.44065 22.1565 0.727539 21.082 0.727539Z" fill="url(#paint6_linear_6704_7232)" stroke="url(#paint7_linear_6704_7232)"/>
<path d="M20.8711 9.11719C20.9042 9.10145 20.9473 9.10158 20.9805 9.11719L24.4473 10.7832C24.4564 10.7877 24.4675 10.7974 24.4756 10.8096C24.4836 10.8217 24.4814 10.8249 24.4814 10.8154V14.3926C24.4814 14.3934 24.4806 14.3958 24.4775 14.4004C24.4736 14.4062 24.4645 14.4162 24.4463 14.4248L20.9805 16.0566C20.9847 16.0547 20.9841 16.0548 20.9785 16.0566C20.9732 16.0584 20.9656 16.0605 20.957 16.0625C20.9484 16.0645 20.9401 16.0665 20.9336 16.0674C20.9277 16.0681 20.9251 16.0684 20.9258 16.0684C20.9246 16.0683 20.9218 16.0679 20.918 16.0674C20.9116 16.0665 20.9039 16.0645 20.8955 16.0625C20.8868 16.0605 20.8785 16.0585 20.873 16.0566C20.8675 16.0547 20.8674 16.0544 20.8721 16.0566L17.4053 14.4248H17.4062C17.3884 14.4164 17.3791 14.4065 17.375 14.4004C17.373 14.3973 17.3714 14.3946 17.3711 14.3936V10.8154L17.376 10.8086C17.3826 10.7988 17.3928 10.7887 17.4043 10.7832L20.8711 9.11719ZM23.5879 11.2607L21.2979 12.3623L21.0146 12.498V15.9248L21.7275 15.5889L24.0176 14.5107L24.3047 14.376V10.917L23.5879 11.2607ZM20.71 9.3125L18.5186 10.3652L17.5811 10.8154L18.5186 11.2666L20.71 12.3193L20.9258 12.4238L21.1426 12.3193L23.334 11.2666L24.2715 10.8154L23.334 10.3652L21.1426 9.3125L20.9258 9.20801L20.71 9.3125ZM20.8379 12.498L20.5547 12.3623L18.2646 11.2607L17.5479 10.917V14.376L17.835 14.5107L20.125 15.5889L20.8379 15.9248V12.498Z" fill="url(#paint8_linear_6704_7232)" stroke="url(#paint9_linear_6704_7232)"/>
<defs>
<linearGradient id="paint0_linear_6704_7232" x1="21" y1="7.02734" x2="21" y2="48.2385" gradientUnits="userSpaceOnUse">
<stop stop-color="#F4853B"/>
<stop offset="1" stop-color="#3448F5"/>
</linearGradient>
<linearGradient id="paint1_linear_6704_7232" x1="21" y1="7.02734" x2="21" y2="48.2385" gradientUnits="userSpaceOnUse">
<stop stop-color="#F4853B"/>
<stop offset="1" stop-color="#3448F5"/>
</linearGradient>
<linearGradient id="paint2_linear_6704_7232" x1="31.0769" y1="30.4688" x2="31.0769" y2="31.7464" gradientUnits="userSpaceOnUse">
<stop stop-color="#F4853B"/>
<stop offset="1" stop-color="#3448F5"/>
</linearGradient>
<linearGradient id="paint3_linear_6704_7232" x1="31.0769" y1="30.4688" x2="31.0769" y2="31.7464" gradientUnits="userSpaceOnUse">
<stop stop-color="#F4853B"/>
<stop offset="1" stop-color="#3448F5"/>
</linearGradient>
<linearGradient id="paint4_linear_6704_7232" x1="37.462" y1="30.4688" x2="37.462" y2="31.7464" gradientUnits="userSpaceOnUse">
<stop stop-color="#F4853B"/>
<stop offset="1" stop-color="#3448F5"/>
</linearGradient>
<linearGradient id="paint5_linear_6704_7232" x1="37.462" y1="30.4688" x2="37.462" y2="31.7464" gradientUnits="userSpaceOnUse">
<stop stop-color="#F4853B"/>
<stop offset="1" stop-color="#3448F5"/>
</linearGradient>
<linearGradient id="paint6_linear_6704_7232" x1="21.0006" y1="0.125" x2="21.0006" y2="29.3724" gradientUnits="userSpaceOnUse">
<stop stop-color="#F4853B"/>
<stop offset="1" stop-color="#3448F5"/>
</linearGradient>
<linearGradient id="paint7_linear_6704_7232" x1="21.0006" y1="0.125" x2="21.0006" y2="29.3724" gradientUnits="userSpaceOnUse">
<stop stop-color="#F4853B"/>
<stop offset="1" stop-color="#3448F5"/>
</linearGradient>
<linearGradient id="paint8_linear_6704_7232" x1="20.9262" y1="8.60547" x2="20.9262" y2="17.9552" gradientUnits="userSpaceOnUse">
<stop stop-color="#F4853B"/>
<stop offset="1" stop-color="#3448F5"/>
</linearGradient>
<linearGradient id="paint9_linear_6704_7232" x1="20.9262" y1="8.60547" x2="20.9262" y2="17.9552" gradientUnits="userSpaceOnUse">
<stop stop-color="#F4853B"/>
<stop offset="1" stop-color="#3448F5"/>
</linearGradient>
</defs>
</svg>
