<svg width="43" height="43" viewBox="0 0 43 43" fill="none" xmlns="http://www.w3.org/2000/svg">
<path d="M41.2988 18.8408L40.8691 18.7803L36.2578 18.1299C36.2331 18.1229 36.2079 18.1136 36.1846 18.1016C36.1577 18.0876 36.1377 18.0732 36.125 18.0615L36.123 18.0596V18.0439L36.1133 17.9961C35.7743 16.2987 35.0994 14.7432 34.166 13.2666C34.1145 13.1588 34.1115 13.0705 34.1572 12.9648L36.9395 9.27246L37.2002 8.92578L36.8936 8.61816L33.8799 5.59961L33.5723 5.29199L33.2246 5.55371L29.4893 8.37598L29.4619 8.39746L29.4385 8.4209L29.4229 8.42285C29.401 8.42285 29.3566 8.41402 29.3047 8.375L29.29 8.36328L29.2734 8.35352L28.9922 8.17871C27.5836 7.32562 26.1152 6.76593 24.5391 6.38672H24.54C24.4617 6.3671 24.4071 6.31491 24.3838 6.23828L23.7344 1.61816L23.6738 1.1875H18.5449L18.4844 1.61816L17.835 6.23828C17.828 6.2626 17.8194 6.28767 17.8076 6.31055C17.7937 6.33751 17.7792 6.35734 17.7676 6.37012L17.7656 6.37207H17.7412L17.6836 6.38574C16.0007 6.79026 14.4407 7.4004 12.9453 8.35352L12.9365 8.35938C12.9396 8.35731 12.9341 8.36165 12.917 8.36621C12.9002 8.37068 12.8782 8.37305 12.8535 8.37305C12.8289 8.37305 12.8068 8.37068 12.79 8.36621C12.7827 8.36426 12.7777 8.3617 12.7744 8.36035L9.05957 5.55371L8.71191 5.29199L8.4043 5.59961L5.39062 8.61816L5.08398 8.92578L5.34473 9.27246L8.16211 13.0137L8.18359 13.041L8.20801 13.0654V13.0664H8.20898C8.20956 13.0673 8.21068 13.0693 8.21191 13.0723C8.21464 13.0788 8.21784 13.09 8.21875 13.1045C8.21966 13.1191 8.21774 13.1339 8.21484 13.1455C8.21331 13.1516 8.21175 13.1554 8.21094 13.1572L8.20508 13.166C7.25435 14.6624 6.64604 16.2236 6.24219 17.9072C6.22246 17.9861 6.16991 18.0392 6.09473 18.0625L1.48145 18.7139L1.05078 18.7754V23.9092L1.48145 23.9697L6.09082 24.6201C6.11598 24.6271 6.14228 24.6362 6.16602 24.6484C6.19277 24.6623 6.21291 24.6768 6.22559 24.6885L6.22754 24.6904V24.7148L6.24121 24.7725C6.64506 26.4578 7.25351 28.0209 8.20508 29.5186L8.21094 29.5273C8.21207 29.5297 8.21487 29.536 8.21777 29.5469C8.22229 29.5639 8.22559 29.5864 8.22559 29.6113C8.22555 29.636 8.22224 29.6579 8.21777 29.6748C8.21586 29.682 8.21328 29.6871 8.21191 29.6904L5.41016 33.4121L5.14941 33.7588L5.45605 34.0654L8.46973 37.085L8.77734 37.3926L9.125 37.1299L12.8604 34.3086L12.8877 34.2871L12.9121 34.2627L12.9189 34.2617L12.9258 34.2627L12.9629 34.2998L13.0068 34.3281C14.3687 35.2147 15.8596 35.8249 17.3408 36.2295L17.3516 36.2314C17.6334 36.302 17.8478 36.558 17.8936 36.9248L17.8955 36.9316L18.4844 41.1318L18.5449 41.5625H23.6777L23.7344 41.127L24.2549 37.1504C24.2688 37.0879 24.2998 37.0377 24.333 37.0068C24.365 36.9772 24.3937 36.9688 24.418 36.9688H24.4277C24.4784 36.9822 24.5063 37.0057 24.5254 37.0312C24.5498 37.0638 24.5669 37.1128 24.5703 37.1719L23.9258 41.6904C23.9121 41.7542 23.8823 41.8056 23.8486 41.8369C23.8164 41.8668 23.787 41.875 23.7627 41.875H18.3242C18.3 41.8749 18.2712 41.8666 18.2393 41.8369C18.2054 41.8054 18.1746 41.7537 18.1611 41.6895L17.5098 36.9258L17.4648 36.5986L17.1455 36.5117L16.6201 36.3584C15.3956 35.9821 14.1908 35.4657 13.1367 34.8545L12.8516 34.6895L12.5869 34.8867L8.72168 37.7744L8.65723 37.8066C8.63595 37.8131 8.61493 37.8163 8.59668 37.8154C8.58065 37.8146 8.57185 37.8108 8.56934 37.8096L8.54785 37.7812L8.52246 37.7559L4.72266 33.9502C4.72178 33.9493 4.71315 33.9401 4.7041 33.9199C4.6952 33.9 4.6883 33.8748 4.68555 33.8486C4.6798 33.7934 4.69429 33.7619 4.70312 33.75L4.7041 33.749L7.58691 29.877L7.78711 29.6084L7.61426 29.3213C6.85759 28.0582 6.34949 26.725 5.96484 25.3125L5.87793 24.9932L5.5498 24.9482L0.792969 24.2949C0.730038 24.2813 0.679691 24.2514 0.648438 24.2178C0.618504 24.1855 0.609375 24.156 0.609375 24.1309V18.6846C0.609375 18.6595 0.618504 18.6299 0.648438 18.5977C0.679738 18.564 0.72999 18.5331 0.792969 18.5195L5.5498 17.8672L5.87793 17.8223L5.96484 17.5029C6.34728 16.0986 6.92168 14.6911 7.62402 13.4121L7.77832 13.1309L7.58691 12.873L4.7041 9.00098L4.70312 9L4.6709 8.9375C4.66422 8.91569 4.6621 8.8938 4.66309 8.875L4.66895 8.84668L4.69727 8.8252L4.72266 8.7998L8.52246 4.99414C8.57656 4.93996 8.61134 4.9352 8.62207 4.93457C8.63563 4.93382 8.66928 4.93682 8.71973 4.97461L8.72168 4.97559L12.5869 7.86328L12.8564 8.06445L13.1436 7.89062C14.4163 7.12581 15.7434 6.55866 17.125 6.24414L17.4629 6.16699L17.5098 5.82422L18.1611 1.05957C18.1747 0.995735 18.2055 0.944462 18.2393 0.913086C18.2712 0.88342 18.3 0.875103 18.3242 0.875H23.7627C23.787 0.875 23.8164 0.883164 23.8486 0.913086C23.8823 0.944435 23.9121 0.995811 23.9258 1.05957L24.5781 5.82422L24.623 6.15137L24.9414 6.23828C26.3578 6.62518 27.7526 7.13513 29.0098 7.89062L29.2969 8.06445L29.5664 7.86328L33.4316 4.97559L33.4326 4.97461C33.471 4.94578 33.5198 4.93271 33.5566 4.93457C33.5728 4.93542 33.5816 4.93927 33.584 4.94043L33.6064 4.9707L33.6338 4.99707L37.4961 8.79883V8.7998C37.5506 8.8544 37.555 8.89024 37.5557 8.90137C37.5564 8.91577 37.5534 8.94953 37.5156 9L37.5146 9.00098L34.6318 12.873L34.4316 13.1416L34.6045 13.4287C35.3675 14.7024 35.9338 16.03 36.248 17.4775L36.3223 17.8193L36.6689 17.8672L41.4521 18.5234L41.5273 18.5342L41.5918 18.5225C41.5931 18.5257 41.5954 18.5292 41.5967 18.5332C41.604 18.5561 41.6094 18.586 41.6094 18.6191V24.0654C41.6094 24.0905 41.6002 24.1201 41.5703 24.1523C41.539 24.186 41.4887 24.2159 41.4258 24.2295L36.8965 24.8779H36.8672C36.8429 24.8778 36.8142 24.8696 36.7822 24.8398C36.7478 24.8078 36.7163 24.7552 36.7031 24.6895C36.7027 24.6873 36.7016 24.6845 36.7031 24.6787C36.705 24.6719 36.7108 24.6594 36.7236 24.6436C36.7494 24.6117 36.8008 24.5738 36.8799 24.5596L40.8643 24.0361L41.2988 23.9795V18.8408Z" fill="url(#paint0_linear_6704_7095)" stroke="url(#paint1_linear_6704_7095)"/>
<path d="M21.3379 10.5234H21.4033C27.6095 10.5234 32.5664 15.5454 32.5664 21.7705C32.5664 23.3412 32.2535 24.7865 31.6865 26.1748L31.5488 26.5107L31.8262 26.7461C35.621 29.9571 39.1478 33.2281 39.6582 33.7393C41.2335 35.3172 41.2243 37.807 39.5469 39.3135L39.5273 39.333C37.9499 40.9129 35.4544 40.9031 33.9512 39.3398V39.3389L33.9443 39.333L33.6143 38.9873C32.5886 37.8905 29.8599 34.8497 27.2227 31.749L26.9629 31.4434L26.6074 31.6318C25.5357 32.2001 24.3472 32.6367 23.1055 32.8242C22.4495 32.89 21.8919 32.9512 21.2725 32.9512C18.5787 32.9512 16.0733 32.013 14 30.2529H14.001C11.5536 28.116 10.1095 24.9719 10.1094 21.7051C10.1094 15.5529 15.1899 10.5235 21.3379 10.5234ZM31.1895 27.3652C30.3736 28.8109 29.2455 30.0647 27.8701 31.0039L27.415 31.3145L27.7686 31.7373C30.7865 35.3513 33.8109 38.6451 34.2852 39.1201C35.7254 40.5626 38.008 40.5626 39.4482 39.1201C40.8811 37.6849 40.8948 35.3998 39.5137 34.0166C38.9747 33.4769 35.5566 30.3181 31.9502 27.2314L31.4883 26.8359L31.1895 27.3652ZM21.4688 10.6387C15.4956 10.6388 10.5508 15.519 10.5508 21.5078C10.5508 24.2526 11.511 26.8007 13.2988 28.7979L13.7822 29.3369L14.1152 28.6943L17.4307 22.3135C17.4826 22.2492 17.5258 22.2182 17.5576 22.2041C17.5872 22.1912 17.6283 22.1819 17.6953 22.1943L22.1816 23.4971L22.543 23.6025L22.7432 23.2842L26.3477 17.5742L27.0215 16.5059L25.7988 16.8242L24.0293 17.2832L23.999 17.291L23.9717 17.3018C23.9651 17.3014 23.9495 17.2983 23.9248 17.2832C23.9044 17.2707 23.8864 17.2539 23.874 17.2373C23.8622 17.2213 23.8596 17.211 23.8594 17.21L23.8506 17.165L23.835 17.1279C23.8348 17.1278 23.8324 17.1108 23.8535 17.0762C23.866 17.0557 23.882 17.0377 23.8984 17.0254C23.9138 17.0139 23.9241 17.0112 23.9258 17.0107L23.9355 17.0088L23.9443 17.0068L27.2207 16.2188L27.2559 16.2109L27.2871 16.1982C27.2934 16.1984 27.3088 16.2014 27.334 16.2168C27.3544 16.2293 27.3724 16.2461 27.3848 16.2627C27.3964 16.2784 27.3991 16.2885 27.3994 16.29L27.4014 16.2998L27.4043 16.3086L28.1904 19.5898L28.1982 19.625L28.2109 19.6562C28.2109 19.6623 28.2086 19.6785 28.1924 19.7051C28.1798 19.7257 28.163 19.7435 28.1465 19.7559C28.1301 19.7681 28.1196 19.7704 28.1191 19.7705L28.0742 19.7793L28.0371 19.7949C28.0414 19.7942 28.0251 19.8005 27.9873 19.7773C27.9669 19.7648 27.9489 19.748 27.9365 19.7314C27.9254 19.7164 27.9225 19.7063 27.9219 19.7041L27.9189 19.6895L27.916 19.6758L27.457 17.9043L27.1689 16.792L26.5508 17.7607L22.625 23.9219C22.6304 23.9137 22.63 23.9179 22.6152 23.9287C22.6012 23.939 22.5803 23.9503 22.5547 23.96C22.4973 23.9815 22.4539 23.9787 22.4414 23.9756L18 22.7324L17.6074 22.623L17.4209 22.9854L14.1445 29.3506L13.9639 29.7012L14.2627 29.958C16.7347 32.09 19.8956 32.9826 23.1797 32.5029L23.1846 32.502C28.4817 31.6749 32.3213 27.1262 32.3213 21.5732C32.3866 15.7986 27.7867 10.6387 21.4688 10.6387Z" fill="url(#paint2_linear_6704_7095)" stroke="url(#paint3_linear_6704_7095)"/>
<defs>
<linearGradient id="paint0_linear_6704_7095" x1="21.1094" y1="0.375" x2="21.1094" y2="49.6916" gradientUnits="userSpaceOnUse">
<stop stop-color="#F4853B"/>
<stop offset="1" stop-color="#3448F5"/>
</linearGradient>
<linearGradient id="paint1_linear_6704_7095" x1="21.1094" y1="0.375" x2="21.1094" y2="49.6916" gradientUnits="userSpaceOnUse">
<stop stop-color="#F4853B"/>
<stop offset="1" stop-color="#3448F5"/>
</linearGradient>
<linearGradient id="paint2_linear_6704_7095" x1="25.4661" y1="10.0234" x2="25.4661" y2="46.4137" gradientUnits="userSpaceOnUse">
<stop stop-color="#F4853B"/>
<stop offset="1" stop-color="#3448F5"/>
</linearGradient>
<linearGradient id="paint3_linear_6704_7095" x1="25.4661" y1="10.0234" x2="25.4661" y2="46.4137" gradientUnits="userSpaceOnUse">
<stop stop-color="#F4853B"/>
<stop offset="1" stop-color="#3448F5"/>
</linearGradient>
</defs>
</svg>
