<svg width="44" height="44" viewBox="0 0 44 44" fill="none" xmlns="http://www.w3.org/2000/svg">
<path d="M14.8391 2.37396C16.7999 1.72579 18.8961 1.375 21.0742 1.375C32.0379 1.375 40.9258 10.2629 40.9258 21.2265C40.9258 24.9951 39.8757 28.5184 38.0521 31.5198M20.1745 41.0581C9.62832 40.5877 1.22266 31.8887 1.22266 21.2265C1.22266 13.548 5.58221 6.88765 11.9611 3.5857M8.56877 5.80993L8.56936 5.80942C8.56911 5.80959 8.56902 5.80976 8.56877 5.80993ZM8.56877 5.80993C8.56877 5.8101 8.56877 7.8059 11.5329 9.22494C15.64 11.1913 17.7189 13.6982 17.2392 17.8104C16.8715 20.9619 17.7989 28.4189 21.0742 27.8376C23.5542 27.3975 23.6369 23.6178 26.9857 22.8242C30.1012 22.086 30.6338 19.6555 32.5511 19.8994C34.2031 20.1097 34.3584 22.0927 35.5419 23.087C37.0883 24.3862 39.0314 22.726 40.6776 24.3668M18.8518 13.4475C18.4948 11.2322 19.1685 8.88151 20.8728 7.17717C23.6911 4.35886 28.2768 4.35886 31.095 7.17717C33.9133 9.99548 33.9134 14.5812 31.095 17.3995C28.2767 20.2178 23.6911 20.2177 20.8727 17.3995M30.4934 11.8911C30.6058 13.1794 30.1701 14.5069 29.1863 15.4907C27.4204 17.2565 24.5472 17.2565 22.7814 15.4907C21.0156 13.7249 21.0156 10.8517 22.7814 9.08593C24.5472 7.32015 27.4204 7.32007 29.1862 9.08593M36.1679 43.375H20.6646V31.5198H43.2227V43.375H39.072M20.68 37.6331H22.7522L23.6896 35.4116L25.7566 41.2638L28.1136 33.6311L30.5611 40.4187L32.4651 35.1522L34.006 40.1037L35.6377 36.2566L37.3601 40.8593L39.3545 33.6311L40.7433 37.6331H43.2073M14.1344 35.0759C12.2834 31.3052 7.96421 32.3336 9.33533 28.8372C10.7065 25.3408 10.0259 20.8408 6.45592 22.4063C4.03167 23.4694 2.68556 25.6796 2.07221 26.9855C3.89291 33.0009 8.49102 37.8089 14.3752 39.9181C14.7051 38.4066 14.8521 36.5379 14.1344 35.0759ZM27.8135 12.2883C27.8135 13.2988 26.9943 14.1179 25.9839 14.1179C24.9734 14.1179 24.1543 13.2988 24.1543 12.2883C24.1543 11.2779 24.9734 10.4587 25.9839 10.4587C26.9943 10.4587 27.8135 11.2779 27.8135 12.2883Z" stroke="url(#paint0_linear_6704_7111)" stroke-width="1.25" stroke-miterlimit="10" stroke-linecap="round" stroke-linejoin="round"/>
<defs>
<linearGradient id="paint0_linear_6704_7111" x1="22.2227" y1="1.375" x2="22.2227" y2="50.6916" gradientUnits="userSpaceOnUse">
<stop stop-color="#F4853B"/>
<stop offset="1" stop-color="#3448F5"/>
</linearGradient>
</defs>
</svg>
