<svg width="42" height="43" viewBox="0 0 42 43" fill="none" xmlns="http://www.w3.org/2000/svg">
<mask id="path-1-inside-1_6704_7126" fill="white">
<path d="M21.0144 42.125C20.9076 42.1241 20.8032 42.0914 20.7129 42.0306C20.6225 41.9698 20.5498 41.8833 20.5028 41.7808L19.3532 39.3225C19.3131 39.2388 19.2914 39.1463 19.29 39.0521V23.3805H18.8187C18.436 23.3805 18.0691 23.218 17.7985 22.9287C17.5279 22.6394 17.3759 22.247 17.3759 21.8379V17.7448H16.3701C15.9127 17.7448 15.4741 17.5506 15.1507 17.2048C14.8274 16.8591 14.6457 16.3901 14.6457 15.9011V12.8282H14.1169C13.6295 12.8266 13.1626 12.6189 12.8179 12.2504C12.4733 11.882 12.2791 11.3827 12.2775 10.8616V8.32342H4.80525V9.14695C4.80525 9.30994 4.7447 9.46626 4.6369 9.58152C4.52911 9.69677 4.38291 9.76152 4.23046 9.76152H0.574791C0.422347 9.76152 0.276147 9.69677 0.168353 9.58152C0.0605583 9.46626 0 9.30994 0 9.14695V3.81245C0 3.64945 0.0605583 3.49313 0.168353 3.37788C0.276147 3.26262 0.422347 3.19787 0.574791 3.19787H4.20172C4.35417 3.19787 4.50037 3.26262 4.60816 3.37788C4.71596 3.49313 4.77652 3.64945 4.77652 3.81245V4.63597H12.2488V0.739574C12.2488 0.576579 12.3094 0.42026 12.4172 0.305005C12.525 0.18975 12.6712 0.125 12.8236 0.125H29.1764C29.3289 0.125 29.4751 0.18975 29.5828 0.305005C29.6906 0.42026 29.7512 0.576579 29.7512 0.739574V4.63597H37.2235V3.81245C37.2235 3.64945 37.284 3.49313 37.3918 3.37788C37.4996 3.26262 37.6458 3.19787 37.7983 3.19787H41.4252C41.5777 3.19787 41.7239 3.26262 41.8316 3.37788C41.9394 3.49313 42 3.64945 42 3.81245V9.14695C42 9.30994 41.9394 9.46626 41.8316 9.58152C41.7239 9.69677 41.5777 9.76152 41.4252 9.76152H37.827C37.6746 9.76152 37.5284 9.69677 37.4206 9.58152C37.3128 9.46626 37.2522 9.30994 37.2522 9.14695V8.32342H29.7799V10.8616C29.7792 11.1222 29.7302 11.3801 29.6357 11.6204C29.5412 11.8606 29.4031 12.0785 29.2294 12.2614C29.0557 12.4442 28.8498 12.5885 28.6237 12.6858C28.3975 12.7831 28.1556 12.8315 27.9119 12.8282H27.3716V15.9011C27.3716 16.3901 27.1899 16.8591 26.8665 17.2048C26.5431 17.5506 26.1045 17.7448 25.6472 17.7448H24.6528V21.8379C24.6528 22.247 24.5008 22.6394 24.2302 22.9287C23.9597 23.218 23.5927 23.3805 23.2101 23.3805H22.7387V39.0521C22.7373 39.1463 22.7157 39.2388 22.6755 39.3225L21.5259 41.7808C21.479 41.8833 21.4062 41.9698 21.3159 42.0306C21.2255 42.0914 21.1211 42.1241 21.0144 42.125ZM20.4396 38.9046L21.0144 40.1338L21.5892 38.9046V23.3805H20.4396V38.9046ZM22.164 22.1513H23.2101C23.2878 22.1513 23.3624 22.1183 23.4174 22.0595C23.4723 22.0008 23.5032 21.921 23.5032 21.8379V17.7448H18.5255V21.8379C18.5255 21.921 18.5564 22.0008 18.6114 22.0595C18.6664 22.1183 18.7409 22.1513 18.8187 22.1513H22.164ZM24.078 16.5157H25.6587C25.8111 16.5157 25.9573 16.4509 26.0651 16.3357C26.1729 16.2204 26.2335 16.0641 26.2335 15.9011V12.8282H15.8068V15.9011C15.8068 16.0641 15.8673 16.2204 15.9751 16.3357C16.0829 16.4509 16.2291 16.5157 16.3816 16.5157H24.078ZM26.7968 11.5991H27.9119C28.0948 11.5991 28.2702 11.5214 28.3996 11.3831C28.5289 11.2448 28.6016 11.0572 28.6016 10.8616V1.35415H13.4271V10.8616C13.4271 11.0572 13.4998 11.2448 13.6291 11.3831C13.7585 11.5214 13.9339 11.5991 14.1169 11.5991H26.7968ZM38.4018 8.52623H40.8792V4.42702H38.4018V8.52623ZM1.14958 8.52623H3.62693V4.42702H1.14958V8.52623ZM29.7512 7.09427H37.2235V5.86512H29.7512V7.09427ZM4.77652 7.09427H12.2488V5.86512H4.77652V7.09427ZM26.1875 9.44809H15.8412C15.6888 9.44809 15.5426 9.38334 15.4348 9.26809C15.327 9.15283 15.2665 8.99651 15.2665 8.83352V4.11973C15.2665 3.95674 15.327 3.80042 15.4348 3.68516C15.5426 3.56991 15.6888 3.50516 15.8412 3.50516H26.1875C26.3399 3.50516 26.4861 3.56991 26.5939 3.68516C26.7017 3.80042 26.7623 3.95674 26.7623 4.11973V8.83352C26.7623 8.99651 26.7017 9.15283 26.5939 9.26809C26.4861 9.38334 26.3399 9.44809 26.1875 9.44809ZM24.1757 8.21894H25.6127V4.73431H24.1757V8.21894ZM21.5892 8.21894H23.0261V4.73431H21.5892V8.21894ZM19.0026 8.21894H20.4396V4.73431H19.0026V8.21894ZM16.416 8.21894H17.853V4.73431H16.416V8.21894Z"/>
</mask>
<path d="M21.0144 42.125C20.9076 42.1241 20.8032 42.0914 20.7129 42.0306C20.6225 41.9698 20.5498 41.8833 20.5028 41.7808L19.3532 39.3225C19.3131 39.2388 19.2914 39.1463 19.29 39.0521V23.3805H18.8187C18.436 23.3805 18.0691 23.218 17.7985 22.9287C17.5279 22.6394 17.3759 22.247 17.3759 21.8379V17.7448H16.3701C15.9127 17.7448 15.4741 17.5506 15.1507 17.2048C14.8274 16.8591 14.6457 16.3901 14.6457 15.9011V12.8282H14.1169C13.6295 12.8266 13.1626 12.6189 12.8179 12.2504C12.4733 11.882 12.2791 11.3827 12.2775 10.8616V8.32342H4.80525V9.14695C4.80525 9.30994 4.7447 9.46626 4.6369 9.58152C4.52911 9.69677 4.38291 9.76152 4.23046 9.76152H0.574791C0.422347 9.76152 0.276147 9.69677 0.168353 9.58152C0.0605583 9.46626 0 9.30994 0 9.14695V3.81245C0 3.64945 0.0605583 3.49313 0.168353 3.37788C0.276147 3.26262 0.422347 3.19787 0.574791 3.19787H4.20172C4.35417 3.19787 4.50037 3.26262 4.60816 3.37788C4.71596 3.49313 4.77652 3.64945 4.77652 3.81245V4.63597H12.2488V0.739574C12.2488 0.576579 12.3094 0.42026 12.4172 0.305005C12.525 0.18975 12.6712 0.125 12.8236 0.125H29.1764C29.3289 0.125 29.4751 0.18975 29.5828 0.305005C29.6906 0.42026 29.7512 0.576579 29.7512 0.739574V4.63597H37.2235V3.81245C37.2235 3.64945 37.284 3.49313 37.3918 3.37788C37.4996 3.26262 37.6458 3.19787 37.7983 3.19787H41.4252C41.5777 3.19787 41.7239 3.26262 41.8316 3.37788C41.9394 3.49313 42 3.64945 42 3.81245V9.14695C42 9.30994 41.9394 9.46626 41.8316 9.58152C41.7239 9.69677 41.5777 9.76152 41.4252 9.76152H37.827C37.6746 9.76152 37.5284 9.69677 37.4206 9.58152C37.3128 9.46626 37.2522 9.30994 37.2522 9.14695V8.32342H29.7799V10.8616C29.7792 11.1222 29.7302 11.3801 29.6357 11.6204C29.5412 11.8606 29.4031 12.0785 29.2294 12.2614C29.0557 12.4442 28.8498 12.5885 28.6237 12.6858C28.3975 12.7831 28.1556 12.8315 27.9119 12.8282H27.3716V15.9011C27.3716 16.3901 27.1899 16.8591 26.8665 17.2048C26.5431 17.5506 26.1045 17.7448 25.6472 17.7448H24.6528V21.8379C24.6528 22.247 24.5008 22.6394 24.2302 22.9287C23.9597 23.218 23.5927 23.3805 23.2101 23.3805H22.7387V39.0521C22.7373 39.1463 22.7157 39.2388 22.6755 39.3225L21.5259 41.7808C21.479 41.8833 21.4062 41.9698 21.3159 42.0306C21.2255 42.0914 21.1211 42.1241 21.0144 42.125ZM20.4396 38.9046L21.0144 40.1338L21.5892 38.9046V23.3805H20.4396V38.9046ZM22.164 22.1513H23.2101C23.2878 22.1513 23.3624 22.1183 23.4174 22.0595C23.4723 22.0008 23.5032 21.921 23.5032 21.8379V17.7448H18.5255V21.8379C18.5255 21.921 18.5564 22.0008 18.6114 22.0595C18.6664 22.1183 18.7409 22.1513 18.8187 22.1513H22.164ZM24.078 16.5157H25.6587C25.8111 16.5157 25.9573 16.4509 26.0651 16.3357C26.1729 16.2204 26.2335 16.0641 26.2335 15.9011V12.8282H15.8068V15.9011C15.8068 16.0641 15.8673 16.2204 15.9751 16.3357C16.0829 16.4509 16.2291 16.5157 16.3816 16.5157H24.078ZM26.7968 11.5991H27.9119C28.0948 11.5991 28.2702 11.5214 28.3996 11.3831C28.5289 11.2448 28.6016 11.0572 28.6016 10.8616V1.35415H13.4271V10.8616C13.4271 11.0572 13.4998 11.2448 13.6291 11.3831C13.7585 11.5214 13.9339 11.5991 14.1169 11.5991H26.7968ZM38.4018 8.52623H40.8792V4.42702H38.4018V8.52623ZM1.14958 8.52623H3.62693V4.42702H1.14958V8.52623ZM29.7512 7.09427H37.2235V5.86512H29.7512V7.09427ZM4.77652 7.09427H12.2488V5.86512H4.77652V7.09427ZM26.1875 9.44809H15.8412C15.6888 9.44809 15.5426 9.38334 15.4348 9.26809C15.327 9.15283 15.2665 8.99651 15.2665 8.83352V4.11973C15.2665 3.95674 15.327 3.80042 15.4348 3.68516C15.5426 3.56991 15.6888 3.50516 15.8412 3.50516H26.1875C26.3399 3.50516 26.4861 3.56991 26.5939 3.68516C26.7017 3.80042 26.7623 3.95674 26.7623 4.11973V8.83352C26.7623 8.99651 26.7017 9.15283 26.5939 9.26809C26.4861 9.38334 26.3399 9.44809 26.1875 9.44809ZM24.1757 8.21894H25.6127V4.73431H24.1757V8.21894ZM21.5892 8.21894H23.0261V4.73431H21.5892V8.21894ZM19.0026 8.21894H20.4396V4.73431H19.0026V8.21894ZM16.416 8.21894H17.853V4.73431H16.416V8.21894Z" fill="url(#paint0_linear_6704_7126)" stroke="url(#paint1_linear_6704_7126)" stroke-width="2" mask="url(#path-1-inside-1_6704_7126)"/>
<defs>
<linearGradient id="paint0_linear_6704_7126" x1="21" y1="0.125" x2="21" y2="49.4416" gradientUnits="userSpaceOnUse">
<stop stop-color="#F4853B"/>
<stop offset="1" stop-color="#3448F5"/>
</linearGradient>
<linearGradient id="paint1_linear_6704_7126" x1="21" y1="0.125" x2="21" y2="49.4416" gradientUnits="userSpaceOnUse">
<stop stop-color="#F4853B"/>
<stop offset="1" stop-color="#3448F5"/>
</linearGradient>
</defs>
</svg>
