<svg width="43" height="43" viewBox="0 0 43 43" fill="none" xmlns="http://www.w3.org/2000/svg">
<mask id="path-1-inside-1_6704_7140" fill="white">
<path d="M39.4844 13.25C40.2062 13.25 40.7969 12.6594 40.7969 11.9375C40.7969 11.2156 40.2062 10.625 39.4844 10.625H36.7347C36.2228 8.04594 34.1884 6.01156 31.6094 5.49969V2.75C31.6094 2.02812 31.0187 1.4375 30.2969 1.4375C29.575 1.4375 28.9844 2.02812 28.9844 2.75V5.375H27.0156V2.75C27.0156 2.02812 26.425 1.4375 25.7031 1.4375C24.9813 1.4375 24.3906 2.02812 24.3906 2.75V5.375H22.4219V2.75C22.4219 2.02812 21.8312 1.4375 21.1094 1.4375C20.3875 1.4375 19.7969 2.02812 19.7969 2.75V5.375H17.8281V2.75C17.8281 2.02812 17.2375 1.4375 16.5156 1.4375C15.7937 1.4375 15.2031 2.02812 15.2031 2.75V5.375H13.2344V2.75C13.2344 2.02812 12.6438 1.4375 11.9219 1.4375C11.2 1.4375 10.6094 2.02812 10.6094 2.75V5.49969C8.03031 6.01156 5.99594 8.04594 5.48406 10.625H2.73438C2.0125 10.625 1.42188 11.2156 1.42188 11.9375C1.42188 12.6594 2.0125 13.25 2.73438 13.25H5.35938V15.2188H2.73438C2.0125 15.2188 1.42188 15.8094 1.42188 16.5312C1.42188 17.2531 2.0125 17.8438 2.73438 17.8438H5.35938V19.8125H2.73438C2.0125 19.8125 1.42188 20.4031 1.42188 21.125C1.42188 21.8469 2.0125 22.4375 2.73438 22.4375H5.35938V24.4062H2.73438C2.0125 24.4062 1.42188 24.9969 1.42188 25.7188C1.42188 26.4406 2.0125 27.0312 2.73438 27.0312H5.35938V29H2.73438C2.0125 29 1.42188 29.5906 1.42188 30.3125C1.42188 31.0344 2.0125 31.625 2.73438 31.625H5.48406C5.99594 34.2041 8.03031 36.2384 10.6094 36.7503V39.5C10.6094 40.2219 11.2 40.8125 11.9219 40.8125C12.6438 40.8125 13.2344 40.2219 13.2344 39.5V36.875H15.2031V39.5C15.2031 40.2219 15.7937 40.8125 16.5156 40.8125C17.2375 40.8125 17.8281 40.2219 17.8281 39.5V36.875H19.7969V39.5C19.7969 40.2219 20.3875 40.8125 21.1094 40.8125C21.8312 40.8125 22.4219 40.2219 22.4219 39.5V36.875H24.3906V39.5C24.3906 40.2219 24.9813 40.8125 25.7031 40.8125C26.425 40.8125 27.0156 40.2219 27.0156 39.5V36.875H28.9844V39.5C28.9844 40.2219 29.575 40.8125 30.2969 40.8125C31.0187 40.8125 31.6094 40.2219 31.6094 39.5V36.7503C34.1884 36.2384 36.2228 34.2041 36.7347 31.625H39.4844C40.2062 31.625 40.7969 31.0344 40.7969 30.3125C40.7969 29.5906 40.2062 29 39.4844 29H36.8594V27.0312H39.4844C40.2062 27.0312 40.7969 26.4406 40.7969 25.7188C40.7969 24.9969 40.2062 24.4062 39.4844 24.4062H36.8594V22.4375H39.4844C40.2062 22.4375 40.7969 21.8469 40.7969 21.125C40.7969 20.4031 40.2062 19.8125 39.4844 19.8125H36.8594V17.8438H39.4844C40.2062 17.8438 40.7969 17.2531 40.7969 16.5312C40.7969 15.8094 40.2062 15.2188 39.4844 15.2188H36.8594V13.25H39.4844ZM34.2344 30.3584C34.2344 32.5044 32.4888 34.25 30.3428 34.25H11.8759C9.73 34.25 7.98438 32.5044 7.98438 30.3584V11.8916C7.98438 9.74563 9.73 8 11.8759 8H30.3494C32.4953 8 34.2409 9.74563 34.2409 11.8916V30.3584H34.2344Z"/>
</mask>
<path d="M39.4844 13.25C40.2062 13.25 40.7969 12.6594 40.7969 11.9375C40.7969 11.2156 40.2062 10.625 39.4844 10.625H36.7347C36.2228 8.04594 34.1884 6.01156 31.6094 5.49969V2.75C31.6094 2.02812 31.0187 1.4375 30.2969 1.4375C29.575 1.4375 28.9844 2.02812 28.9844 2.75V5.375H27.0156V2.75C27.0156 2.02812 26.425 1.4375 25.7031 1.4375C24.9813 1.4375 24.3906 2.02812 24.3906 2.75V5.375H22.4219V2.75C22.4219 2.02812 21.8312 1.4375 21.1094 1.4375C20.3875 1.4375 19.7969 2.02812 19.7969 2.75V5.375H17.8281V2.75C17.8281 2.02812 17.2375 1.4375 16.5156 1.4375C15.7937 1.4375 15.2031 2.02812 15.2031 2.75V5.375H13.2344V2.75C13.2344 2.02812 12.6438 1.4375 11.9219 1.4375C11.2 1.4375 10.6094 2.02812 10.6094 2.75V5.49969C8.03031 6.01156 5.99594 8.04594 5.48406 10.625H2.73438C2.0125 10.625 1.42188 11.2156 1.42188 11.9375C1.42188 12.6594 2.0125 13.25 2.73438 13.25H5.35938V15.2188H2.73438C2.0125 15.2188 1.42188 15.8094 1.42188 16.5312C1.42188 17.2531 2.0125 17.8438 2.73438 17.8438H5.35938V19.8125H2.73438C2.0125 19.8125 1.42188 20.4031 1.42188 21.125C1.42188 21.8469 2.0125 22.4375 2.73438 22.4375H5.35938V24.4062H2.73438C2.0125 24.4062 1.42188 24.9969 1.42188 25.7188C1.42188 26.4406 2.0125 27.0312 2.73438 27.0312H5.35938V29H2.73438C2.0125 29 1.42188 29.5906 1.42188 30.3125C1.42188 31.0344 2.0125 31.625 2.73438 31.625H5.48406C5.99594 34.2041 8.03031 36.2384 10.6094 36.7503V39.5C10.6094 40.2219 11.2 40.8125 11.9219 40.8125C12.6438 40.8125 13.2344 40.2219 13.2344 39.5V36.875H15.2031V39.5C15.2031 40.2219 15.7937 40.8125 16.5156 40.8125C17.2375 40.8125 17.8281 40.2219 17.8281 39.5V36.875H19.7969V39.5C19.7969 40.2219 20.3875 40.8125 21.1094 40.8125C21.8312 40.8125 22.4219 40.2219 22.4219 39.5V36.875H24.3906V39.5C24.3906 40.2219 24.9813 40.8125 25.7031 40.8125C26.425 40.8125 27.0156 40.2219 27.0156 39.5V36.875H28.9844V39.5C28.9844 40.2219 29.575 40.8125 30.2969 40.8125C31.0187 40.8125 31.6094 40.2219 31.6094 39.5V36.7503C34.1884 36.2384 36.2228 34.2041 36.7347 31.625H39.4844C40.2062 31.625 40.7969 31.0344 40.7969 30.3125C40.7969 29.5906 40.2062 29 39.4844 29H36.8594V27.0312H39.4844C40.2062 27.0312 40.7969 26.4406 40.7969 25.7188C40.7969 24.9969 40.2062 24.4062 39.4844 24.4062H36.8594V22.4375H39.4844C40.2062 22.4375 40.7969 21.8469 40.7969 21.125C40.7969 20.4031 40.2062 19.8125 39.4844 19.8125H36.8594V17.8438H39.4844C40.2062 17.8438 40.7969 17.2531 40.7969 16.5312C40.7969 15.8094 40.2062 15.2188 39.4844 15.2188H36.8594V13.25H39.4844ZM34.2344 30.3584C34.2344 32.5044 32.4888 34.25 30.3428 34.25H11.8759C9.73 34.25 7.98438 32.5044 7.98438 30.3584V11.8916C7.98438 9.74563 9.73 8 11.8759 8H30.3494C32.4953 8 34.2409 9.74563 34.2409 11.8916V30.3584H34.2344Z" fill="url(#paint0_linear_6704_7140)" stroke="white" mask="url(#path-1-inside-1_6704_7140)"/>
<path d="M20.8808 16.5905C20.7889 16.3148 20.5986 16.1836 20.3164 16.1836H18.1114C17.8292 16.1836 17.6389 16.3214 17.547 16.5905L14.2592 25.6402C14.2527 25.6664 14.2461 25.7123 14.2461 25.7648C14.2461 25.837 14.2789 25.9092 14.338 25.9683C14.397 26.0273 14.4692 26.0602 14.5414 26.0602H16.3789C16.602 26.0602 16.7661 25.9552 16.858 25.7517L17.3633 24.3802H21.0645L21.5698 25.7517C21.6617 25.9617 21.8258 26.0602 22.0489 26.0602H23.8864C23.9586 26.0602 24.0308 26.0273 24.0898 25.9683C24.1489 25.9092 24.1817 25.837 24.1817 25.7648C24.1817 25.7058 24.1752 25.6664 24.1686 25.6402L20.8808 16.5905ZM17.9539 22.267L19.2073 18.6642L20.4608 22.267H17.9539Z" fill="url(#paint1_linear_6704_7140)"/>
<path d="M27.6256 16.1836H25.6044C25.5125 16.1836 25.4272 16.2164 25.355 16.282C25.2828 16.3477 25.25 16.433 25.25 16.538V25.7123C25.25 25.8042 25.2828 25.8895 25.355 25.9617C25.4272 26.0339 25.5059 26.0667 25.6044 26.0667H27.6256C27.7306 26.0667 27.8159 26.0339 27.8816 25.9617C27.9472 25.8895 27.98 25.8108 27.98 25.7123V16.538C27.98 16.433 27.9472 16.3477 27.8816 16.282C27.8094 16.2164 27.7241 16.1836 27.6256 16.1836Z" fill="url(#paint2_linear_6704_7140)"/>
<defs>
<linearGradient id="paint0_linear_6704_7140" x1="21.1094" y1="1.4375" x2="21.1094" y2="47.6718" gradientUnits="userSpaceOnUse">
<stop stop-color="#F4853B"/>
<stop offset="1" stop-color="#3448F5"/>
</linearGradient>
<linearGradient id="paint1_linear_6704_7140" x1="19.2139" y1="16.1836" x2="19.2139" y2="27.7807" gradientUnits="userSpaceOnUse">
<stop stop-color="#F4853B"/>
<stop offset="1" stop-color="#3448F5"/>
</linearGradient>
<linearGradient id="paint2_linear_6704_7140" x1="26.615" y1="16.1836" x2="26.615" y2="27.7884" gradientUnits="userSpaceOnUse">
<stop stop-color="#F4853B"/>
<stop offset="1" stop-color="#3448F5"/>
</linearGradient>
</defs>
</svg>
