<svg width="43" height="43" viewBox="0 0 43 43" fill="none" xmlns="http://www.w3.org/2000/svg">
<mask id="path-1-outside-1_6704_7158" maskUnits="userSpaceOnUse" x="0.535156" y="1.04688" width="41" height="41" fill="black">
<rect fill="white" x="0.535156" y="1.04688" width="41" height="41"/>
<path fill-rule="evenodd" clip-rule="evenodd" d="M23.9707 26.5825C23.5144 24.4169 21.0269 23.5664 19.4768 25.0589C19.0319 25.4912 18.7335 26.052 18.6237 26.6626C19.4529 27.0898 20.3747 27.306 21.3074 27.2921C22.2401 27.2781 23.1546 27.0344 23.9707 26.5825ZM17.819 26.1573C16.8738 25.4476 16.1741 24.4602 15.8178 23.3332C15.4616 22.2062 15.4665 20.9961 15.832 19.872C16.1975 18.748 16.9053 17.7664 17.8562 17.0645C18.8072 16.3626 19.9538 15.9755 21.1356 15.9575C22.3175 15.9395 23.4753 16.2914 24.4473 16.9639C25.4192 17.6365 26.1566 18.5961 26.5562 19.7085C26.9558 20.8208 26.9977 22.0303 26.6759 23.1676C26.3542 24.3049 25.6849 25.3132 24.7618 26.0513C24.5656 25.4114 24.206 24.8337 23.7185 24.3752C21.7087 22.4947 18.5573 23.4944 17.819 26.1573ZM21.9678 19.7863C21.3551 19.0918 20.3322 19.6058 20.3322 20.6261C20.3322 21.6463 21.3551 22.16 21.9678 21.4658C22.1626 21.2293 22.2692 20.9325 22.2692 20.6261C22.2692 20.3197 22.1626 20.0228 21.9678 19.7863ZM21.3007 18.5667C20.2233 18.5667 19.4304 19.5428 19.4304 20.6256C19.4304 22.4601 21.469 23.3881 22.6404 22.0606C23.7939 20.7534 22.9424 18.5667 21.3007 18.5667ZM1.53516 21.7344C1.53516 10.8616 10.3495 2.04688 21.2227 2.04688C32.0958 2.04688 40.9102 10.8613 40.9102 21.7344C40.9102 22.7283 40.901 23.7254 40.9084 24.7239C40.9087 24.7829 40.8973 24.8414 40.875 24.896C40.8527 24.9506 40.8198 25.0003 40.7783 25.0422C40.7367 25.0841 40.6873 25.1174 40.6329 25.1402C40.5785 25.163 40.5201 25.1749 40.4611 25.1751L36.8082 25.2015C36.4255 26.8935 35.7638 28.51 34.8502 29.9847L37.4451 32.5124C37.5305 32.5955 37.5795 32.7092 37.5812 32.8284C37.5828 32.9476 37.5371 33.0626 37.4539 33.1481L33.0036 37.6136C32.9201 37.6975 32.8069 37.7451 32.6886 37.7461C32.5702 37.747 32.4563 37.7013 32.3714 37.6187L29.7692 35.084C28.2859 36.0149 26.6592 36.695 24.9547 37.0969L24.9817 40.7031C24.9819 40.7621 24.9706 40.8206 24.9482 40.8752C24.9259 40.9298 24.893 40.9795 24.8515 41.0214C24.8099 41.0633 24.7605 41.0966 24.7061 41.1194C24.6517 41.1422 24.5933 41.154 24.5343 41.1543L18.1982 41.2007C18.1392 41.201 18.0807 41.1896 18.0261 41.1673C17.9715 41.1449 17.9218 41.112 17.8799 41.0705C17.838 41.029 17.8047 40.9796 17.7819 40.9252C17.7591 40.8708 17.7472 40.8124 17.747 40.7534L17.7201 37.1505C16.0098 36.7729 14.3732 36.1167 12.8758 35.2082L10.3126 37.7799C10.2291 37.8638 10.1159 37.9114 9.99759 37.9124C9.87925 37.9133 9.76529 37.8676 9.68045 37.7851L5.16693 33.3885C5.1246 33.3473 5.0908 33.2982 5.06745 33.244C5.0441 33.1897 5.03167 33.1315 5.03085 33.0724C5.03004 33.0134 5.04086 32.9548 5.0627 32.8999C5.08454 32.8451 5.11698 32.795 5.15815 32.7527L7.71892 30.1835C6.78313 28.7223 6.09679 27.1156 5.68799 25.4292L2.0344 25.456C1.9754 25.4562 1.91693 25.4449 1.86233 25.4225C1.80772 25.4002 1.75805 25.3673 1.71616 25.3258C1.67426 25.2842 1.64096 25.2348 1.61815 25.1804C1.59534 25.126 1.58347 25.0676 1.58323 25.0087C1.57502 23.9235 1.53516 22.8102 1.53516 21.7344ZM10.24 14.8706L5.40178 11.6013C3.54322 14.4949 2.51916 17.8453 2.44234 21.2835H8.28042C8.35597 19.0104 9.03207 16.7977 10.24 14.8706ZM31.7212 14.1525L36.5567 10.8811C34.8666 8.49005 32.6403 6.52777 30.0559 5.15134C27.4714 3.77491 24.6007 3.02255 21.6734 2.95447V8.79263C23.6463 8.85991 25.5775 9.37792 27.3192 10.307C29.0609 11.236 30.5665 12.5515 31.7212 14.1525ZM37.0599 11.6281L32.2235 14.9002C33.4196 16.8206 34.0889 19.0223 34.1638 21.2835H40.0022C39.9255 17.8562 38.9077 14.5157 37.0599 11.6281ZM17.6118 10.236L21.0489 15.0576C22.7616 15.0124 24.4242 15.6381 25.6822 16.8012C26.9402 17.9643 27.6941 19.5728 27.7832 21.2838H33.262C32.9929 13.9709 26.3057 8.59157 19.0973 9.87323C18.595 9.9625 18.0986 10.0834 17.6118 10.236ZM12.9706 11.756L11.7089 8.75908C11.4935 8.35655 11.506 7.88758 11.7015 7.452C12.0898 6.58689 13.1282 6.00628 14.0687 6.13031C14.5406 6.19257 14.9451 6.42661 15.1755 6.81806L17.0641 9.46767C18.2601 9.06254 19.509 8.83505 20.7711 8.79247V2.95447C17.8492 3.02241 14.9835 3.77213 12.4027 5.14384C9.8219 6.51555 7.59728 8.4713 5.90627 10.8551L10.7446 14.1244C11.3849 13.2452 12.1327 12.4495 12.9706 11.756ZM15.6558 18.1345L13.3358 12.6237C12.0857 13.7044 11.0717 15.0311 10.3572 16.521C9.64262 18.011 9.2428 19.6322 9.18268 21.2835H14.6616C14.7179 20.166 15.0602 19.0817 15.6558 18.1345ZM20.021 15.165L14.4007 7.27358C14.1193 6.77105 12.8798 7.02174 12.5222 7.81843C12.437 8.00825 12.4248 8.19815 12.5058 8.34343L16.2785 17.299C17.2503 16.1869 18.5689 15.4346 20.021 15.165ZM11.157 22.1852H14.6768C14.8173 23.8245 15.5677 25.3514 16.7798 26.464C17.9918 27.5766 19.5772 28.1939 21.2225 28.1939C22.8677 28.1939 24.4531 27.5766 25.6651 26.464C26.8772 25.3514 27.6276 23.8245 27.7681 22.1852H31.2875C31.17 24.7758 30.0583 27.2213 28.1836 29.013C26.3088 30.8047 23.8155 31.8045 21.2222 31.8045C18.629 31.8045 16.1357 30.8047 14.2609 29.013C12.3862 27.2213 11.2744 24.7758 11.157 22.1852ZM32.1905 22.1852H39.9906L40.0063 24.28L36.4433 24.306C36.3379 24.3064 36.236 24.3438 36.1555 24.4118C36.0749 24.4797 36.0208 24.5738 36.0026 24.6777C35.6322 26.5046 34.9179 28.2445 33.8976 29.8046C33.8379 29.8958 33.8133 30.0056 33.8284 30.1136C33.8434 30.2216 33.8972 30.3205 33.9797 30.3919L36.4923 32.8394L32.68 36.6645L30.1408 34.191C30.0642 34.1165 29.9635 34.0717 29.8569 34.0647C29.7503 34.0576 29.6447 34.0887 29.5589 34.1524C27.9903 35.1806 26.2441 35.908 24.4094 36.2972C24.3029 36.3198 24.2082 36.3802 24.1429 36.4673C24.0775 36.5543 24.0459 36.6621 24.0539 36.7706L24.08 40.2593L18.642 40.2992L18.6157 36.7819C18.6153 36.6781 18.5789 36.5776 18.5127 36.4975C18.4465 36.4175 18.3546 36.3628 18.2527 36.3429C16.4038 35.9794 14.6393 35.2727 13.0506 34.2593C12.9643 34.2043 12.8617 34.1804 12.7599 34.1917C12.6581 34.2029 12.5632 34.2487 12.491 34.3212L9.98905 36.8307L6.12029 33.0615L8.61511 30.5584C8.68844 30.4845 8.73389 30.3875 8.74373 30.2838C8.75357 30.1802 8.72719 30.0764 8.66909 29.99C7.62359 28.4417 6.88301 26.7082 6.48705 24.8824C6.46393 24.7753 6.40256 24.6803 6.31444 24.6152C6.22632 24.5501 6.11749 24.5193 6.00832 24.5287L2.47893 24.5544L2.46121 22.1852H10.2547C10.3708 25.0163 11.5772 27.6928 13.6214 29.6548C15.6656 31.6168 18.3893 32.7125 21.2227 32.7125C24.0561 32.7125 26.7798 31.6168 28.824 29.6548C30.8682 27.6928 32.0743 25.0163 32.1905 22.1852Z"/>
</mask>
<path fill-rule="evenodd" clip-rule="evenodd" d="M23.9707 26.5825C23.5144 24.4169 21.0269 23.5664 19.4768 25.0589C19.0319 25.4912 18.7335 26.052 18.6237 26.6626C19.4529 27.0898 20.3747 27.306 21.3074 27.2921C22.2401 27.2781 23.1546 27.0344 23.9707 26.5825ZM17.819 26.1573C16.8738 25.4476 16.1741 24.4602 15.8178 23.3332C15.4616 22.2062 15.4665 20.9961 15.832 19.872C16.1975 18.748 16.9053 17.7664 17.8562 17.0645C18.8072 16.3626 19.9538 15.9755 21.1356 15.9575C22.3175 15.9395 23.4753 16.2914 24.4473 16.9639C25.4192 17.6365 26.1566 18.5961 26.5562 19.7085C26.9558 20.8208 26.9977 22.0303 26.6759 23.1676C26.3542 24.3049 25.6849 25.3132 24.7618 26.0513C24.5656 25.4114 24.206 24.8337 23.7185 24.3752C21.7087 22.4947 18.5573 23.4944 17.819 26.1573ZM21.9678 19.7863C21.3551 19.0918 20.3322 19.6058 20.3322 20.6261C20.3322 21.6463 21.3551 22.16 21.9678 21.4658C22.1626 21.2293 22.2692 20.9325 22.2692 20.6261C22.2692 20.3197 22.1626 20.0228 21.9678 19.7863ZM21.3007 18.5667C20.2233 18.5667 19.4304 19.5428 19.4304 20.6256C19.4304 22.4601 21.469 23.3881 22.6404 22.0606C23.7939 20.7534 22.9424 18.5667 21.3007 18.5667ZM1.53516 21.7344C1.53516 10.8616 10.3495 2.04688 21.2227 2.04688C32.0958 2.04688 40.9102 10.8613 40.9102 21.7344C40.9102 22.7283 40.901 23.7254 40.9084 24.7239C40.9087 24.7829 40.8973 24.8414 40.875 24.896C40.8527 24.9506 40.8198 25.0003 40.7783 25.0422C40.7367 25.0841 40.6873 25.1174 40.6329 25.1402C40.5785 25.163 40.5201 25.1749 40.4611 25.1751L36.8082 25.2015C36.4255 26.8935 35.7638 28.51 34.8502 29.9847L37.4451 32.5124C37.5305 32.5955 37.5795 32.7092 37.5812 32.8284C37.5828 32.9476 37.5371 33.0626 37.4539 33.1481L33.0036 37.6136C32.9201 37.6975 32.8069 37.7451 32.6886 37.7461C32.5702 37.747 32.4563 37.7013 32.3714 37.6187L29.7692 35.084C28.2859 36.0149 26.6592 36.695 24.9547 37.0969L24.9817 40.7031C24.9819 40.7621 24.9706 40.8206 24.9482 40.8752C24.9259 40.9298 24.893 40.9795 24.8515 41.0214C24.8099 41.0633 24.7605 41.0966 24.7061 41.1194C24.6517 41.1422 24.5933 41.154 24.5343 41.1543L18.1982 41.2007C18.1392 41.201 18.0807 41.1896 18.0261 41.1673C17.9715 41.1449 17.9218 41.112 17.8799 41.0705C17.838 41.029 17.8047 40.9796 17.7819 40.9252C17.7591 40.8708 17.7472 40.8124 17.747 40.7534L17.7201 37.1505C16.0098 36.7729 14.3732 36.1167 12.8758 35.2082L10.3126 37.7799C10.2291 37.8638 10.1159 37.9114 9.99759 37.9124C9.87925 37.9133 9.76529 37.8676 9.68045 37.7851L5.16693 33.3885C5.1246 33.3473 5.0908 33.2982 5.06745 33.244C5.0441 33.1897 5.03167 33.1315 5.03085 33.0724C5.03004 33.0134 5.04086 32.9548 5.0627 32.8999C5.08454 32.8451 5.11698 32.795 5.15815 32.7527L7.71892 30.1835C6.78313 28.7223 6.09679 27.1156 5.68799 25.4292L2.0344 25.456C1.9754 25.4562 1.91693 25.4449 1.86233 25.4225C1.80772 25.4002 1.75805 25.3673 1.71616 25.3258C1.67426 25.2842 1.64096 25.2348 1.61815 25.1804C1.59534 25.126 1.58347 25.0676 1.58323 25.0087C1.57502 23.9235 1.53516 22.8102 1.53516 21.7344ZM10.24 14.8706L5.40178 11.6013C3.54322 14.4949 2.51916 17.8453 2.44234 21.2835H8.28042C8.35597 19.0104 9.03207 16.7977 10.24 14.8706ZM31.7212 14.1525L36.5567 10.8811C34.8666 8.49005 32.6403 6.52777 30.0559 5.15134C27.4714 3.77491 24.6007 3.02255 21.6734 2.95447V8.79263C23.6463 8.85991 25.5775 9.37792 27.3192 10.307C29.0609 11.236 30.5665 12.5515 31.7212 14.1525ZM37.0599 11.6281L32.2235 14.9002C33.4196 16.8206 34.0889 19.0223 34.1638 21.2835H40.0022C39.9255 17.8562 38.9077 14.5157 37.0599 11.6281ZM17.6118 10.236L21.0489 15.0576C22.7616 15.0124 24.4242 15.6381 25.6822 16.8012C26.9402 17.9643 27.6941 19.5728 27.7832 21.2838H33.262C32.9929 13.9709 26.3057 8.59157 19.0973 9.87323C18.595 9.9625 18.0986 10.0834 17.6118 10.236ZM12.9706 11.756L11.7089 8.75908C11.4935 8.35655 11.506 7.88758 11.7015 7.452C12.0898 6.58689 13.1282 6.00628 14.0687 6.13031C14.5406 6.19257 14.9451 6.42661 15.1755 6.81806L17.0641 9.46767C18.2601 9.06254 19.509 8.83505 20.7711 8.79247V2.95447C17.8492 3.02241 14.9835 3.77213 12.4027 5.14384C9.8219 6.51555 7.59728 8.4713 5.90627 10.8551L10.7446 14.1244C11.3849 13.2452 12.1327 12.4495 12.9706 11.756ZM15.6558 18.1345L13.3358 12.6237C12.0857 13.7044 11.0717 15.0311 10.3572 16.521C9.64262 18.011 9.2428 19.6322 9.18268 21.2835H14.6616C14.7179 20.166 15.0602 19.0817 15.6558 18.1345ZM20.021 15.165L14.4007 7.27358C14.1193 6.77105 12.8798 7.02174 12.5222 7.81843C12.437 8.00825 12.4248 8.19815 12.5058 8.34343L16.2785 17.299C17.2503 16.1869 18.5689 15.4346 20.021 15.165ZM11.157 22.1852H14.6768C14.8173 23.8245 15.5677 25.3514 16.7798 26.464C17.9918 27.5766 19.5772 28.1939 21.2225 28.1939C22.8677 28.1939 24.4531 27.5766 25.6651 26.464C26.8772 25.3514 27.6276 23.8245 27.7681 22.1852H31.2875C31.17 24.7758 30.0583 27.2213 28.1836 29.013C26.3088 30.8047 23.8155 31.8045 21.2222 31.8045C18.629 31.8045 16.1357 30.8047 14.2609 29.013C12.3862 27.2213 11.2744 24.7758 11.157 22.1852ZM32.1905 22.1852H39.9906L40.0063 24.28L36.4433 24.306C36.3379 24.3064 36.236 24.3438 36.1555 24.4118C36.0749 24.4797 36.0208 24.5738 36.0026 24.6777C35.6322 26.5046 34.9179 28.2445 33.8976 29.8046C33.8379 29.8958 33.8133 30.0056 33.8284 30.1136C33.8434 30.2216 33.8972 30.3205 33.9797 30.3919L36.4923 32.8394L32.68 36.6645L30.1408 34.191C30.0642 34.1165 29.9635 34.0717 29.8569 34.0647C29.7503 34.0576 29.6447 34.0887 29.5589 34.1524C27.9903 35.1806 26.2441 35.908 24.4094 36.2972C24.3029 36.3198 24.2082 36.3802 24.1429 36.4673C24.0775 36.5543 24.0459 36.6621 24.0539 36.7706L24.08 40.2593L18.642 40.2992L18.6157 36.7819C18.6153 36.6781 18.5789 36.5776 18.5127 36.4975C18.4465 36.4175 18.3546 36.3628 18.2527 36.3429C16.4038 35.9794 14.6393 35.2727 13.0506 34.2593C12.9643 34.2043 12.8617 34.1804 12.7599 34.1917C12.6581 34.2029 12.5632 34.2487 12.491 34.3212L9.98905 36.8307L6.12029 33.0615L8.61511 30.5584C8.68844 30.4845 8.73389 30.3875 8.74373 30.2838C8.75357 30.1802 8.72719 30.0764 8.66909 29.99C7.62359 28.4417 6.88301 26.7082 6.48705 24.8824C6.46393 24.7753 6.40256 24.6803 6.31444 24.6152C6.22632 24.5501 6.11749 24.5193 6.00832 24.5287L2.47893 24.5544L2.46121 22.1852H10.2547C10.3708 25.0163 11.5772 27.6928 13.6214 29.6548C15.6656 31.6168 18.3893 32.7125 21.2227 32.7125C24.0561 32.7125 26.7798 31.6168 28.824 29.6548C30.8682 27.6928 32.0743 25.0163 32.1905 22.1852Z" fill="url(#paint0_linear_6704_7158)"/>
<path fill-rule="evenodd" clip-rule="evenodd" d="M23.9707 26.5825C23.5144 24.4169 21.0269 23.5664 19.4768 25.0589C19.0319 25.4912 18.7335 26.052 18.6237 26.6626C19.4529 27.0898 20.3747 27.306 21.3074 27.2921C22.2401 27.2781 23.1546 27.0344 23.9707 26.5825ZM17.819 26.1573C16.8738 25.4476 16.1741 24.4602 15.8178 23.3332C15.4616 22.2062 15.4665 20.9961 15.832 19.872C16.1975 18.748 16.9053 17.7664 17.8562 17.0645C18.8072 16.3626 19.9538 15.9755 21.1356 15.9575C22.3175 15.9395 23.4753 16.2914 24.4473 16.9639C25.4192 17.6365 26.1566 18.5961 26.5562 19.7085C26.9558 20.8208 26.9977 22.0303 26.6759 23.1676C26.3542 24.3049 25.6849 25.3132 24.7618 26.0513C24.5656 25.4114 24.206 24.8337 23.7185 24.3752C21.7087 22.4947 18.5573 23.4944 17.819 26.1573ZM21.9678 19.7863C21.3551 19.0918 20.3322 19.6058 20.3322 20.6261C20.3322 21.6463 21.3551 22.16 21.9678 21.4658C22.1626 21.2293 22.2692 20.9325 22.2692 20.6261C22.2692 20.3197 22.1626 20.0228 21.9678 19.7863ZM21.3007 18.5667C20.2233 18.5667 19.4304 19.5428 19.4304 20.6256C19.4304 22.4601 21.469 23.3881 22.6404 22.0606C23.7939 20.7534 22.9424 18.5667 21.3007 18.5667ZM1.53516 21.7344C1.53516 10.8616 10.3495 2.04688 21.2227 2.04688C32.0958 2.04688 40.9102 10.8613 40.9102 21.7344C40.9102 22.7283 40.901 23.7254 40.9084 24.7239C40.9087 24.7829 40.8973 24.8414 40.875 24.896C40.8527 24.9506 40.8198 25.0003 40.7783 25.0422C40.7367 25.0841 40.6873 25.1174 40.6329 25.1402C40.5785 25.163 40.5201 25.1749 40.4611 25.1751L36.8082 25.2015C36.4255 26.8935 35.7638 28.51 34.8502 29.9847L37.4451 32.5124C37.5305 32.5955 37.5795 32.7092 37.5812 32.8284C37.5828 32.9476 37.5371 33.0626 37.4539 33.1481L33.0036 37.6136C32.9201 37.6975 32.8069 37.7451 32.6886 37.7461C32.5702 37.747 32.4563 37.7013 32.3714 37.6187L29.7692 35.084C28.2859 36.0149 26.6592 36.695 24.9547 37.0969L24.9817 40.7031C24.9819 40.7621 24.9706 40.8206 24.9482 40.8752C24.9259 40.9298 24.893 40.9795 24.8515 41.0214C24.8099 41.0633 24.7605 41.0966 24.7061 41.1194C24.6517 41.1422 24.5933 41.154 24.5343 41.1543L18.1982 41.2007C18.1392 41.201 18.0807 41.1896 18.0261 41.1673C17.9715 41.1449 17.9218 41.112 17.8799 41.0705C17.838 41.029 17.8047 40.9796 17.7819 40.9252C17.7591 40.8708 17.7472 40.8124 17.747 40.7534L17.7201 37.1505C16.0098 36.7729 14.3732 36.1167 12.8758 35.2082L10.3126 37.7799C10.2291 37.8638 10.1159 37.9114 9.99759 37.9124C9.87925 37.9133 9.76529 37.8676 9.68045 37.7851L5.16693 33.3885C5.1246 33.3473 5.0908 33.2982 5.06745 33.244C5.0441 33.1897 5.03167 33.1315 5.03085 33.0724C5.03004 33.0134 5.04086 32.9548 5.0627 32.8999C5.08454 32.8451 5.11698 32.795 5.15815 32.7527L7.71892 30.1835C6.78313 28.7223 6.09679 27.1156 5.68799 25.4292L2.0344 25.456C1.9754 25.4562 1.91693 25.4449 1.86233 25.4225C1.80772 25.4002 1.75805 25.3673 1.71616 25.3258C1.67426 25.2842 1.64096 25.2348 1.61815 25.1804C1.59534 25.126 1.58347 25.0676 1.58323 25.0087C1.57502 23.9235 1.53516 22.8102 1.53516 21.7344ZM10.24 14.8706L5.40178 11.6013C3.54322 14.4949 2.51916 17.8453 2.44234 21.2835H8.28042C8.35597 19.0104 9.03207 16.7977 10.24 14.8706ZM31.7212 14.1525L36.5567 10.8811C34.8666 8.49005 32.6403 6.52777 30.0559 5.15134C27.4714 3.77491 24.6007 3.02255 21.6734 2.95447V8.79263C23.6463 8.85991 25.5775 9.37792 27.3192 10.307C29.0609 11.236 30.5665 12.5515 31.7212 14.1525ZM37.0599 11.6281L32.2235 14.9002C33.4196 16.8206 34.0889 19.0223 34.1638 21.2835H40.0022C39.9255 17.8562 38.9077 14.5157 37.0599 11.6281ZM17.6118 10.236L21.0489 15.0576C22.7616 15.0124 24.4242 15.6381 25.6822 16.8012C26.9402 17.9643 27.6941 19.5728 27.7832 21.2838H33.262C32.9929 13.9709 26.3057 8.59157 19.0973 9.87323C18.595 9.9625 18.0986 10.0834 17.6118 10.236ZM12.9706 11.756L11.7089 8.75908C11.4935 8.35655 11.506 7.88758 11.7015 7.452C12.0898 6.58689 13.1282 6.00628 14.0687 6.13031C14.5406 6.19257 14.9451 6.42661 15.1755 6.81806L17.0641 9.46767C18.2601 9.06254 19.509 8.83505 20.7711 8.79247V2.95447C17.8492 3.02241 14.9835 3.77213 12.4027 5.14384C9.8219 6.51555 7.59728 8.4713 5.90627 10.8551L10.7446 14.1244C11.3849 13.2452 12.1327 12.4495 12.9706 11.756ZM15.6558 18.1345L13.3358 12.6237C12.0857 13.7044 11.0717 15.0311 10.3572 16.521C9.64262 18.011 9.2428 19.6322 9.18268 21.2835H14.6616C14.7179 20.166 15.0602 19.0817 15.6558 18.1345ZM20.021 15.165L14.4007 7.27358C14.1193 6.77105 12.8798 7.02174 12.5222 7.81843C12.437 8.00825 12.4248 8.19815 12.5058 8.34343L16.2785 17.299C17.2503 16.1869 18.5689 15.4346 20.021 15.165ZM11.157 22.1852H14.6768C14.8173 23.8245 15.5677 25.3514 16.7798 26.464C17.9918 27.5766 19.5772 28.1939 21.2225 28.1939C22.8677 28.1939 24.4531 27.5766 25.6651 26.464C26.8772 25.3514 27.6276 23.8245 27.7681 22.1852H31.2875C31.17 24.7758 30.0583 27.2213 28.1836 29.013C26.3088 30.8047 23.8155 31.8045 21.2222 31.8045C18.629 31.8045 16.1357 30.8047 14.2609 29.013C12.3862 27.2213 11.2744 24.7758 11.157 22.1852ZM32.1905 22.1852H39.9906L40.0063 24.28L36.4433 24.306C36.3379 24.3064 36.236 24.3438 36.1555 24.4118C36.0749 24.4797 36.0208 24.5738 36.0026 24.6777C35.6322 26.5046 34.9179 28.2445 33.8976 29.8046C33.8379 29.8958 33.8133 30.0056 33.8284 30.1136C33.8434 30.2216 33.8972 30.3205 33.9797 30.3919L36.4923 32.8394L32.68 36.6645L30.1408 34.191C30.0642 34.1165 29.9635 34.0717 29.8569 34.0647C29.7503 34.0576 29.6447 34.0887 29.5589 34.1524C27.9903 35.1806 26.2441 35.908 24.4094 36.2972C24.3029 36.3198 24.2082 36.3802 24.1429 36.4673C24.0775 36.5543 24.0459 36.6621 24.0539 36.7706L24.08 40.2593L18.642 40.2992L18.6157 36.7819C18.6153 36.6781 18.5789 36.5776 18.5127 36.4975C18.4465 36.4175 18.3546 36.3628 18.2527 36.3429C16.4038 35.9794 14.6393 35.2727 13.0506 34.2593C12.9643 34.2043 12.8617 34.1804 12.7599 34.1917C12.6581 34.2029 12.5632 34.2487 12.491 34.3212L9.98905 36.8307L6.12029 33.0615L8.61511 30.5584C8.68844 30.4845 8.73389 30.3875 8.74373 30.2838C8.75357 30.1802 8.72719 30.0764 8.66909 29.99C7.62359 28.4417 6.88301 26.7082 6.48705 24.8824C6.46393 24.7753 6.40256 24.6803 6.31444 24.6152C6.22632 24.5501 6.11749 24.5193 6.00832 24.5287L2.47893 24.5544L2.46121 22.1852H10.2547C10.3708 25.0163 11.5772 27.6928 13.6214 29.6548C15.6656 31.6168 18.3893 32.7125 21.2227 32.7125C24.0561 32.7125 26.7798 31.6168 28.824 29.6548C30.8682 27.6928 32.0743 25.0163 32.1905 22.1852Z" stroke="url(#paint1_linear_6704_7158)" stroke-width="0.5" mask="url(#path-1-outside-1_6704_7158)"/>
<defs>
<linearGradient id="paint0_linear_6704_7158" x1="21.2227" y1="2.04687" x2="21.2227" y2="48.0215" gradientUnits="userSpaceOnUse">
<stop stop-color="#F4853B"/>
<stop offset="1" stop-color="#3448F5"/>
</linearGradient>
<linearGradient id="paint1_linear_6704_7158" x1="21.2227" y1="2.04687" x2="21.2227" y2="48.0215" gradientUnits="userSpaceOnUse">
<stop stop-color="#F4853B"/>
<stop offset="1" stop-color="#3448F5"/>
</linearGradient>
</defs>
</svg>
