<svg width="42" height="43" viewBox="0 0 42 43" fill="none" xmlns="http://www.w3.org/2000/svg">
<path d="M35.6748 0.947266C36.682 0.753514 37.7247 0.951815 38.5977 1.50488C39.471 2.05827 40.1123 2.92807 40.3926 3.94434C40.6729 4.96077 40.5715 6.0479 40.1074 6.99023C39.6435 7.93215 38.8524 8.6594 37.8936 9.03223C36.9348 9.40494 35.8745 9.39727 34.9209 9.01074L34.5645 8.86621L34.333 9.17383L29.3223 15.8564L29.0732 16.1885L29.3545 16.4941C29.8161 16.9967 30.1508 17.609 30.3281 18.2764C30.5054 18.9437 30.519 19.6459 30.3691 20.3203C30.2192 20.9944 29.9103 21.6197 29.4697 22.1416C29.0289 22.6636 28.4695 23.0669 27.8428 23.3154C27.2165 23.5637 26.5405 23.6513 25.874 23.5703C25.2072 23.4892 24.5686 23.2411 24.0156 22.8486C23.4628 22.4561 23.0113 21.9304 22.7021 21.3164C22.3929 20.7022 22.2361 20.0189 22.2451 19.3271V19.3252C22.2522 18.6239 22.4322 17.936 22.7686 17.3262L22.9727 16.9561L22.6416 16.6934L18.4336 13.3594L18.1025 13.0977L17.7891 13.3789C17.0709 14.0219 16.156 14.3848 15.2051 14.4062C14.2542 14.4277 13.325 14.1059 12.5801 13.4961L12.1963 13.1826L11.8789 13.5635L7.86035 18.3828L7.56641 18.7354L7.89258 19.0576C8.47826 19.6374 8.88179 20.3847 9.05078 21.2031C9.21973 22.0216 9.14632 22.873 8.83887 23.6475C8.53142 24.4219 8.00466 25.0826 7.3291 25.5469C6.738 25.9531 6.05581 26.1934 5.35059 26.2461L5.04688 26.2568L5.0459 26.7109L5.00293 26.2588C4.43411 26.3141 3.85993 26.2481 3.31738 26.0635C2.77487 25.8788 2.27493 25.5798 1.85059 25.1855C1.42619 24.7911 1.08628 24.3093 0.853516 23.7715C0.620742 23.2336 0.500002 22.6514 0.5 22.0625C0.5 21.4736 0.620741 20.8914 0.853516 20.3535C1.08628 19.8157 1.42618 19.3339 1.85059 18.9395C2.27493 18.5452 2.77486 18.2462 3.31738 18.0615C3.85993 17.8769 4.4341 17.8109 5.00293 17.8662L5.02637 17.8682H5.05078C5.61489 17.8688 6.17323 17.9908 6.68848 18.2275L7.03516 18.3877L7.28027 18.0947L11.585 12.96L11.8164 12.6836L11.6279 12.377C11.2402 11.7449 11.0228 11.0177 10.999 10.2705C10.9753 9.52343 11.1454 8.78361 11.4922 8.12695C11.8389 7.47032 12.3493 6.92067 12.9697 6.5332C13.5901 6.14584 14.2993 5.93456 15.0244 5.91895C15.7496 5.9034 16.467 6.084 17.1025 6.44434C17.7382 6.80476 18.2702 7.33256 18.6436 7.97363C19.0168 8.61471 19.2178 9.34628 19.2246 10.0938C19.2314 10.8412 19.0441 11.5764 18.6826 12.2246L18.4756 12.5957L18.8086 12.8604L23.0117 16.1943L23.3428 16.4561L23.6562 16.1748C24.2725 15.6225 25.036 15.2737 25.8467 15.1729C26.6573 15.072 27.4796 15.2231 28.2061 15.6074L28.584 15.8076L28.8398 15.4648L33.749 8.89648L34.0195 8.53418L33.6875 8.22852C32.9223 7.52521 32.4403 6.55246 32.3398 5.50098C32.2395 4.44962 32.528 3.39924 33.1465 2.55664C33.7649 1.71428 34.6675 1.14112 35.6748 0.947266ZM5.04688 18.5186C4.12019 18.5186 3.2339 18.8953 2.58203 19.5615C1.93062 20.2273 1.56651 21.1275 1.56641 22.0645C1.56641 22.7634 1.76834 23.4484 2.14941 24.0312C2.53055 24.6142 3.07376 25.0701 3.71094 25.3398C4.34821 25.6096 5.05026 25.6806 5.72754 25.543C6.40481 25.4053 7.02567 25.0651 7.51172 24.5684C7.99752 24.0718 8.32745 23.4406 8.46094 22.7549C8.59441 22.0691 8.52575 21.3576 8.26367 20.7109C8.00154 20.0643 7.55679 19.51 6.98438 19.1191C6.41182 18.7282 5.73762 18.5186 5.04688 18.5186ZM26.335 15.793C25.413 15.7944 24.531 16.1687 23.8809 16.8301C23.2313 17.491 22.865 18.3852 22.8594 19.3174C22.8551 20.0175 23.0549 20.7042 23.4336 21.29C23.8124 21.8759 24.3542 22.3355 24.9912 22.6084C25.6283 22.8813 26.331 22.9549 27.0098 22.8193C27.6886 22.6837 28.3118 22.3451 28.7998 21.8486C29.2874 21.3525 29.6183 20.7207 29.7529 20.0342C29.8875 19.3475 29.8198 18.6351 29.5576 17.9873C29.2953 17.3394 28.85 16.7839 28.2764 16.3926C27.7026 16.0012 27.0269 15.7919 26.335 15.793ZM15.0996 6.65918C14.1745 6.65943 13.2895 7.03507 12.6387 7.7002C11.9884 8.36489 11.6243 9.26389 11.624 10.1992C11.623 10.8987 11.8254 11.5843 12.2061 12.168C12.5867 12.7515 13.1295 13.2081 13.7666 13.4785C14.4042 13.749 15.1073 13.8201 15.7852 13.6826C16.4628 13.5451 17.084 13.206 17.5703 12.709C18.0566 12.212 18.3862 11.5799 18.5195 10.8936C18.6528 10.2073 18.584 9.49551 18.3213 8.84863C18.0585 8.20184 17.6132 7.64733 17.04 7.25684C16.4666 6.86619 15.7909 6.65809 15.0996 6.65918ZM36.4053 1.57031C35.4833 1.57615 34.6031 1.9548 33.9561 2.61914C33.3094 3.28315 32.9467 4.17901 32.9453 5.11133C32.9443 5.81068 33.1468 6.49545 33.5273 7.0791C33.908 7.6628 34.4506 8.12016 35.0879 8.39062C35.7255 8.66112 36.4286 8.73225 37.1064 8.59473C37.7841 8.45718 38.4053 8.11713 38.8916 7.62012C39.3776 7.12328 39.7075 6.49174 39.8408 5.80566C39.9741 5.11936 39.9053 4.40762 39.6426 3.76074C39.3798 3.11389 38.9345 2.55948 38.3613 2.16895C37.7881 1.77847 37.1129 1.56939 36.4219 1.57031H36.4053Z" fill="url(#paint0_linear_6704_7174)" stroke="url(#paint1_linear_6704_7174)"/>
<path d="M34.7344 15.7305H39.5566C39.6346 15.7305 39.712 15.7625 39.7705 15.8223C39.8291 15.8824 39.8642 15.9662 39.8643 16.0557V41.2236H41.1943C41.2723 41.2236 41.3497 41.2546 41.4082 41.3145C41.4671 41.3747 41.502 41.4591 41.502 41.5488C41.5018 41.6383 41.4669 41.7221 41.4082 41.7822C41.3497 41.8421 41.2723 41.874 41.1943 41.874H1.38965C1.31167 41.874 1.23432 41.8421 1.17578 41.7822C1.11702 41.7221 1.08214 41.6384 1.08203 41.5488C1.08203 41.4591 1.11689 41.3747 1.17578 41.3145C1.23432 41.2546 1.31167 41.2236 1.38965 41.2236H2.24902V29.6553C2.2491 29.5658 2.28412 29.482 2.34277 29.4219C2.40127 29.3621 2.47872 29.3301 2.55664 29.3301H7.37109L7.42969 29.3369C7.48723 29.349 7.54182 29.3778 7.58594 29.4229C7.63039 29.4683 7.66183 29.5272 7.6748 29.5918L7.68164 29.6582V41.2236H12.9766V20.3281C12.9766 20.2384 13.0114 20.1539 13.0703 20.0938C13.1288 20.034 13.2063 20.003 13.2842 20.0029H18.1074L18.1641 20.0098C18.2206 20.023 18.2735 20.0535 18.3164 20.0986C18.3596 20.144 18.3899 20.202 18.4023 20.2656L18.4092 20.3301V41.2236H23.7002V27.3877C23.7002 27.3433 23.7082 27.2992 23.7246 27.2588C23.741 27.2186 23.7649 27.183 23.7939 27.1533C23.8232 27.1236 23.8578 27.1003 23.8945 27.085C23.9311 27.0697 23.9699 27.0623 24.0088 27.0625H28.8516C28.9295 27.0625 29.0069 27.0936 29.0654 27.1533C29.1243 27.2135 29.1592 27.298 29.1592 27.3877V41.2236H34.4277V16.0557C34.4277 15.966 34.4627 15.8824 34.5215 15.8223C34.5799 15.7626 34.6566 15.7306 34.7344 15.7305ZM2.85938 41.2236H7.08984V29.9805H2.85938V41.2236ZM24.3193 41.2236H28.5215V27.6982H24.3193V41.2236ZM35.0469 41.2236H39.249V16.3809H35.0469V41.2236ZM13.5918 41.1953H17.7939V20.625H13.5918V41.1953Z" fill="url(#paint2_linear_6704_7174)" stroke="url(#paint3_linear_6704_7174)"/>
<defs>
<linearGradient id="paint0_linear_6704_7174" x1="20.5241" y1="0.375" x2="20.5241" y2="31.3776" gradientUnits="userSpaceOnUse">
<stop stop-color="#F4853B"/>
<stop offset="1" stop-color="#3448F5"/>
</linearGradient>
<linearGradient id="paint1_linear_6704_7174" x1="20.5241" y1="0.375" x2="20.5241" y2="31.3776" gradientUnits="userSpaceOnUse">
<stop stop-color="#F4853B"/>
<stop offset="1" stop-color="#3448F5"/>
</linearGradient>
<linearGradient id="paint2_linear_6704_7174" x1="21.292" y1="15.2305" x2="21.292" y2="47.1021" gradientUnits="userSpaceOnUse">
<stop stop-color="#F4853B"/>
<stop offset="1" stop-color="#3448F5"/>
</linearGradient>
<linearGradient id="paint3_linear_6704_7174" x1="21.292" y1="15.2305" x2="21.292" y2="47.1021" gradientUnits="userSpaceOnUse">
<stop stop-color="#F4853B"/>
<stop offset="1" stop-color="#3448F5"/>
</linearGradient>
</defs>
</svg>
