<svg width="43" height="43" viewBox="0 0 43 43" fill="none" xmlns="http://www.w3.org/2000/svg">
<mask id="mask0_6704_7191" style="mask-type:luminance" maskUnits="userSpaceOnUse" x="0" y="0" width="43" height="43">
<path d="M0.109375 0.875004H42.1094V42.875H0.109375V0.875004Z" fill="white"/>
</mask>
<g mask="url(#mask0_6704_7191)">
<path d="M21.1094 41.6445C10.9128 38.7312 3.88281 29.3294 3.88281 18.7248V7.10938L21.1094 2.10547L38.3359 7.10938V18.7248C38.3359 29.3294 31.306 38.7312 21.1094 41.6445Z" stroke="url(#paint0_linear_6704_7191)" stroke-width="1.5" stroke-miterlimit="10" stroke-linecap="round" stroke-linejoin="round"/>
<path d="M21.1094 31.7188C15.6816 31.7188 11.2656 27.3028 11.2656 21.875C11.2656 16.4472 15.6816 12.0312 21.1094 12.0312C26.5371 12.0312 30.9531 16.4472 30.9531 21.875C30.9531 27.3028 26.5371 31.7188 21.1094 31.7188Z" stroke="url(#paint1_linear_6704_7191)" stroke-width="1.5" stroke-miterlimit="10" stroke-linecap="round" stroke-linejoin="round"/>
<path d="M17.418 21.875L19.8789 24.3359L24.8008 19.4141" stroke="url(#paint2_linear_6704_7191)" stroke-width="1.5" stroke-miterlimit="10" stroke-linecap="round" stroke-linejoin="round"/>
</g>
<defs>
<linearGradient id="paint0_linear_6704_7191" x1="21.1094" y1="41.6445" x2="21.1094" y2="-4.78238" gradientUnits="userSpaceOnUse">
<stop stop-color="#F4853B"/>
<stop offset="1" stop-color="#3448F5"/>
</linearGradient>
<linearGradient id="paint1_linear_6704_7191" x1="21.1094" y1="31.7188" x2="21.1094" y2="8.60161" gradientUnits="userSpaceOnUse">
<stop stop-color="#F4853B"/>
<stop offset="1" stop-color="#3448F5"/>
</linearGradient>
<linearGradient id="paint2_linear_6704_7191" x1="21.1094" y1="24.3359" x2="21.1094" y2="18.5567" gradientUnits="userSpaceOnUse">
<stop stop-color="#F4853B"/>
<stop offset="1" stop-color="#3448F5"/>
</linearGradient>
</defs>
</svg>
