<svg width="49" height="43" viewBox="0 0 49 43" fill="none" xmlns="http://www.w3.org/2000/svg">
<path d="M46.2656 1.375V35.9023H48.5078V36.3047C48.5062 37.9497 47.9992 39.5088 47.1221 40.6426C46.2471 41.7737 45.0916 42.3733 43.9238 42.375H5.30566L5.08691 42.3682C3.99479 42.2966 2.92856 41.7028 2.1084 40.6426C1.28603 39.5795 0.788623 38.1424 0.728516 36.6113L0.722656 36.3037V35.9023H3.11426V1.375H46.2656ZM3.50977 35.9023H5.0293V36.7061H1.10352L1.18945 37.2803C1.36561 38.4534 1.85453 39.5313 2.59375 40.3203C3.33539 41.1118 4.2918 41.5696 5.30469 41.5713H43.9258C44.9387 41.5696 45.8951 41.1119 46.6367 40.3203C47.3759 39.5313 47.8649 38.4534 48.041 37.2803L48.127 36.7061H34.5156L34.3828 36.8057L32.6182 38.123H16.7607L15.0352 36.8086L14.9014 36.7061H9.51758V35.9023H14.9443L16.6709 37.2178L16.8047 37.3193H32.5762L32.709 37.2207L34.4736 35.9023H45.8701V2.17871H3.50977V35.9023ZM30.0566 9.53027C31.4137 8.80373 32.8958 8.61832 34.3232 8.98535C35.754 9.3533 37.0904 10.267 38.1523 11.6396C39.215 13.0133 39.9476 14.7771 40.2451 16.7109C40.5426 18.6441 40.3894 20.6469 39.8076 22.4629C39.2255 24.2796 38.2458 25.8145 37.0078 26.8838C35.772 27.9512 34.3365 28.5059 32.8848 28.5059C30.9418 28.5026 29.0433 27.5047 27.6201 25.665C26.1947 23.8222 25.3794 21.3019 25.377 18.6543C25.377 16.6812 25.8302 14.7594 26.6709 13.1328C27.5118 11.5059 28.6957 10.259 30.0566 9.53027ZM21.0215 8.83301V28.4756H8.83691V8.83301H21.0215ZM32.8848 9.60547C30.9517 9.60833 29.1331 10.6033 27.8154 12.3066C26.5002 14.007 25.7746 16.2912 25.7725 18.6543C25.7725 20.4192 26.1767 22.1513 26.9424 23.6328C27.708 25.1141 28.8075 26.2913 30.1182 26.9932C31.4328 27.6971 32.891 27.8847 34.2998 27.5225C35.7052 27.1611 36.9743 26.2753 37.957 25.0049C38.9391 23.7353 39.5986 22.1308 39.8652 20.3984C40.1319 18.6654 39.9954 16.868 39.4707 15.2305C38.9462 13.5935 38.0523 12.1755 36.8857 11.168C35.7171 10.1586 34.3248 9.60547 32.8848 9.60547ZM9.23242 27.6719H20.626V24.2324H9.23242V27.6719ZM9.23242 23.4297H20.626V9.63672H9.23242V23.4297ZM35.376 18.6533L31.9531 21.208V16.0986L35.376 18.6533ZM17.2441 18.3203V19.124H12.6143V18.3203H17.2441ZM17.2441 13.9424V14.7461H12.6143V13.9424H17.2441Z" fill="url(#paint0_linear_6704_7215)" stroke="url(#paint1_linear_6704_7215)"/>
<defs>
<linearGradient id="paint0_linear_6704_7215" x1="24.6152" y1="0.875" x2="24.6152" y2="50.1916" gradientUnits="userSpaceOnUse">
<stop stop-color="#F4853B"/>
<stop offset="1" stop-color="#3448F5"/>
</linearGradient>
<linearGradient id="paint1_linear_6704_7215" x1="24.6152" y1="0.875" x2="24.6152" y2="50.1916" gradientUnits="userSpaceOnUse">
<stop stop-color="#F4853B"/>
<stop offset="1" stop-color="#3448F5"/>
</linearGradient>
</defs>
</svg>
