<svg width="42" height="42" viewBox="0 0 42 42" fill="none" xmlns="http://www.w3.org/2000/svg">
<path fill-rule="evenodd" clip-rule="evenodd" d="M27.3569 40.4184H13.7144C13.3719 40.4184 13.0938 40.1402 13.0938 39.7978V13.144C13.0938 12.8016 13.3719 12.5234 13.7144 12.5234H27.3676C27.71 12.5234 27.9882 12.8016 27.9882 13.144V39.7978C27.9775 40.1509 27.6993 40.4184 27.3569 40.4184ZM14.3243 39.1879H26.7363V13.7646H14.3243V39.1879Z" fill="#A276E5"/>
<path fill-rule="evenodd" clip-rule="evenodd" d="M38.5794 40.4145H30.105C29.7626 40.4145 29.4844 40.1363 29.4844 39.7939V13.1401C29.4844 12.7977 29.7626 12.5195 30.105 12.5195H38.5794C38.9218 12.5195 39.2 12.7977 39.2 13.1401V39.7939C39.2 40.147 38.9218 40.4145 38.5794 40.4145ZM30.7149 39.184H37.9588V13.7607H30.7149V39.184Z" fill="#A276E5"/>
<path fill-rule="evenodd" clip-rule="evenodd" d="M34.3425 21.8589C32.8017 21.8589 31.5391 20.6069 31.5391 19.0661C31.5391 17.5253 32.791 16.2734 34.3425 16.2734C35.894 16.2734 37.1459 17.5253 37.1459 19.0661C37.1459 20.6069 35.8833 21.8589 34.3425 21.8589ZM34.3425 17.5039C33.4758 17.5039 32.7803 18.2101 32.7803 19.0661C32.7803 19.9221 33.4865 20.6283 34.3425 20.6283C35.2092 20.6283 35.9047 19.9221 35.9047 19.0661C35.9047 18.1994 35.2092 17.5039 34.3425 17.5039Z" fill="#A276E5"/>
<path fill-rule="evenodd" clip-rule="evenodd" d="M34.3425 29.2807C32.8017 29.2807 31.5391 28.0288 31.5391 26.488C31.5391 24.9472 32.791 23.6953 34.3425 23.6953C35.894 23.6953 37.1459 24.9472 37.1459 26.488C37.1459 28.0288 35.8833 29.2807 34.3425 29.2807ZM34.3425 24.9151C33.4758 24.9151 32.7803 25.6213 32.7803 26.4773C32.7803 27.3333 33.4865 28.0395 34.3425 28.0395C35.2092 28.0395 35.9047 27.3333 35.9047 26.4773C35.9047 25.6213 35.2092 24.9151 34.3425 24.9151Z" fill="#A276E5"/>
<path fill-rule="evenodd" clip-rule="evenodd" d="M34.3425 36.7065C32.8017 36.7065 31.5391 35.4546 31.5391 33.9138C31.5391 32.373 32.791 31.1211 34.3425 31.1211C35.894 31.1211 37.1459 32.373 37.1459 33.9138C37.1352 35.4546 35.8833 36.7065 34.3425 36.7065ZM34.3425 32.3516C33.4758 32.3516 32.7803 33.0578 32.7803 33.9138C32.7803 34.7698 33.4865 35.476 34.3425 35.476C35.2092 35.476 35.9047 34.7698 35.9047 33.9138C35.9047 33.0471 35.2092 32.3516 34.3425 32.3516Z" fill="#A276E5"/>
<path fill-rule="evenodd" clip-rule="evenodd" d="M11.095 40.4145H2.6206C2.2782 40.4145 2 40.1363 2 39.7939V13.1401C2 12.7977 2.2782 12.5195 2.6206 12.5195H11.095C11.4374 12.5195 11.7156 12.7977 11.7156 13.1401V39.7939C11.7156 40.147 11.4374 40.4145 11.095 40.4145ZM3.2305 39.184H10.4744V13.7607H3.2305V39.184Z" fill="#A276E5"/>
<path fill-rule="evenodd" clip-rule="evenodd" d="M6.8581 21.8589C5.31729 21.8589 4.05469 20.6069 4.05469 19.0661C4.05469 17.5253 5.30659 16.2734 6.8581 16.2734C8.4096 16.2734 9.6615 17.5253 9.6615 19.0661C9.6615 20.6069 8.3989 21.8589 6.8581 21.8589ZM6.8581 17.5039C5.99139 17.5039 5.29589 18.2101 5.29589 19.0661C5.29589 19.9221 5.99139 20.6283 6.8581 20.6283C7.7248 20.6283 8.4203 19.9221 8.4203 19.0661C8.4203 18.1994 7.7248 17.5039 6.8581 17.5039Z" fill="#A276E5"/>
<path fill-rule="evenodd" clip-rule="evenodd" d="M6.8581 29.2807C5.31729 29.2807 4.05469 28.0288 4.05469 26.488C4.05469 24.9472 5.30659 23.6953 6.8581 23.6953C8.4096 23.6953 9.6615 24.9472 9.6615 26.488C9.6615 28.0288 8.3989 29.2807 6.8581 29.2807ZM6.8581 24.9151C5.99139 24.9151 5.29589 25.6213 5.29589 26.4773C5.29589 27.3333 6.00209 28.0395 6.8581 28.0395C7.7141 28.0395 8.4203 27.3333 8.4203 26.4773C8.4203 25.6213 7.7248 24.9151 6.8581 24.9151Z" fill="#A276E5"/>
<path fill-rule="evenodd" clip-rule="evenodd" d="M6.8581 36.7065C5.31729 36.7065 4.05469 35.4546 4.05469 33.9138C4.05469 32.373 5.30659 31.1211 6.8581 31.1211C8.4096 31.1211 9.6615 32.373 9.6615 33.9138C9.6615 35.4546 8.3989 36.7065 6.8581 36.7065ZM6.8581 32.3516C5.99139 32.3516 5.29589 33.0578 5.29589 33.9138C5.29589 34.7698 6.00209 35.476 6.8581 35.476C7.7141 35.476 8.4203 34.7698 8.4203 33.9138C8.4203 33.0471 7.7248 32.3516 6.8581 32.3516Z" fill="#A276E5"/>
<path fill-rule="evenodd" clip-rule="evenodd" d="M20.5492 36.8992C17.7351 36.8992 15.4453 34.6094 15.4453 31.7953C15.4453 28.9812 17.7351 26.6914 20.5492 26.6914C23.3633 26.6914 25.6531 28.9812 25.6531 31.7953C25.6531 34.6094 23.3633 36.8992 20.5492 36.8992ZM20.5492 27.9219C18.4092 27.9219 16.6758 29.6553 16.6758 31.7953C16.6758 33.9353 18.4092 35.6687 20.5492 35.6687C22.6892 35.6687 24.4226 33.9353 24.4226 31.7953C24.4226 29.6553 22.6785 27.9219 20.5492 27.9219Z" fill="#A276E5"/>
<path fill-rule="evenodd" clip-rule="evenodd" d="M20.539 24.4686C18.2064 24.4686 16.3125 22.5747 16.3125 20.2421C16.3125 17.9095 18.2064 16.0156 20.539 16.0156C22.8716 16.0156 24.7655 17.9095 24.7655 20.2421C24.7655 22.5747 22.8609 24.4686 20.539 24.4686ZM20.539 17.2568C18.8912 17.2568 17.543 18.5943 17.543 20.2421C17.543 21.8899 18.8912 23.2274 20.539 23.2274C22.1868 23.2274 23.535 21.8899 23.535 20.2421C23.535 18.5943 22.1868 17.2568 20.539 17.2568Z" fill="#A276E5"/>
<path fill-rule="evenodd" clip-rule="evenodd" d="M20.5447 34.5621C19.0146 34.5621 17.7734 33.3209 17.7734 31.7908C17.7734 30.2607 19.0146 29.0195 20.5447 29.0195C22.0748 29.0195 23.3161 30.2607 23.3161 31.7908C23.3161 33.3209 22.0641 34.5621 20.5447 34.5621ZM20.5447 30.25C19.6994 30.25 19.0039 30.9348 19.0039 31.7908C19.0039 32.6361 19.6994 33.3316 20.5447 33.3316C21.39 33.3316 22.0855 32.6468 22.0855 31.7908C22.0855 30.9348 21.39 30.25 20.5447 30.25Z" fill="#A276E5"/>
<path fill-rule="evenodd" clip-rule="evenodd" d="M20.5454 22.3428C19.3898 22.3428 18.4375 21.4012 18.4375 20.2456C18.4375 19.09 19.3791 18.1484 20.5454 18.1484C21.701 18.1484 22.6533 19.09 22.6533 20.2456C22.6426 21.4012 21.701 22.3428 20.5454 22.3428ZM20.5454 19.3789C20.0639 19.3789 19.6787 19.7641 19.6787 20.2456C19.6787 20.7271 20.0639 21.1123 20.5454 21.1123C21.0269 21.1123 21.4121 20.7271 21.4121 20.2456C21.4121 19.7641 21.0162 19.3789 20.5454 19.3789Z" fill="#A276E5"/>
<path fill-rule="evenodd" clip-rule="evenodd" d="M11.7448 6.09321C11.595 6.09321 11.4452 6.03971 11.3275 5.93271C11.0707 5.69731 11.06 5.31211 11.2847 5.06601C12.451 3.79271 13.8313 2.79761 15.3935 2.0914C17.0092 1.3638 18.7426 1 20.5295 1C22.3165 1 24.0499 1.3745 25.6656 2.0914C27.2278 2.79761 28.6188 3.79271 29.7744 5.06601C30.0098 5.32281 29.9884 5.70801 29.7316 5.93271C29.4748 6.16811 29.0896 6.14671 28.8649 5.88991C27.8163 4.74501 26.5644 3.83551 25.152 3.20421C23.6861 2.5515 22.1346 2.2198 20.5188 2.2198C18.9031 2.2198 17.3409 2.5515 15.8857 3.20421C14.4733 3.83551 13.2214 4.74501 12.1728 5.88991C12.0765 6.02901 11.9053 6.09321 11.7448 6.09321Z" fill="#A276E5"/>
<path fill-rule="evenodd" clip-rule="evenodd" d="M26.772 8.47073C26.6008 8.47073 26.4403 8.40653 26.3226 8.26743C25.595 7.47563 24.7283 6.85503 23.7546 6.41632C22.7488 5.96692 21.6681 5.73152 20.5553 5.73152C19.4425 5.73152 18.3618 5.96692 17.356 6.41632C16.3823 6.85503 15.5156 7.47563 14.788 8.26743C14.5526 8.52423 14.1674 8.53493 13.9213 8.31023C13.6645 8.07483 13.6538 7.68963 13.8785 7.44353C14.7131 6.52332 15.7189 5.80642 16.8424 5.30352C18.0087 4.77922 19.2606 4.51172 20.5553 4.51172C21.85 4.51172 23.0912 4.77922 24.2682 5.30352C25.4024 5.81712 26.3975 6.53402 27.2321 7.44353C27.4675 7.70033 27.4461 8.08553 27.1893 8.31023C27.0609 8.41723 26.9218 8.47073 26.772 8.47073Z" fill="#A276E5"/>
<path fill-rule="evenodd" clip-rule="evenodd" d="M16.8464 10.771C16.6966 10.771 16.5468 10.7175 16.4291 10.6105C16.1723 10.3751 16.1616 9.98987 16.3863 9.74377C16.9106 9.17667 17.5312 8.72726 18.2374 8.40626C18.965 8.07456 19.7461 7.91406 20.5486 7.91406C21.3511 7.91406 22.1322 8.08526 22.8598 8.40626C23.566 8.72726 24.1866 9.17667 24.7109 9.74377C24.9463 10.0006 24.9249 10.3858 24.6681 10.6105C24.4113 10.8459 24.0261 10.8245 23.8014 10.5677C22.9668 9.65817 21.7791 9.13387 20.5486 9.13387C19.3181 9.13387 18.1304 9.65817 17.2958 10.5677C17.1781 10.6961 17.0069 10.771 16.8464 10.771Z" fill="#A276E5"/>
</svg>
