<svg width="60" height="60" viewBox="0 0 60 60" fill="none" xmlns="http://www.w3.org/2000/svg">
<mask id="path-1-outside-1_5326_9897" maskUnits="userSpaceOnUse" x="0" y="4" width="59" height="51" fill="black">
<rect fill="white" y="4" width="59" height="51"/>
<path d="M34.1674 18.1749C32.4253 17.167 30.3958 16.899 28.4528 17.4209C26.5097 17.9428 24.8857 19.1916 23.88 20.9375C22.8742 22.6834 22.607 24.7173 23.1277 26.6647C23.6484 28.612 24.8945 30.2396 26.6366 31.2475C27.797 31.919 29.0847 32.262 30.3898 32.262C31.0438 32.262 31.7024 32.1758 32.3512 32.0016C34.2943 31.4797 35.9183 30.2309 36.9239 28.485C38.9996 24.8809 37.7633 20.2556 34.1674 18.1749ZM35.8507 27.8639C35.0105 29.3226 33.6538 30.3659 32.0302 30.8019C30.4069 31.2379 28.7114 31.0142 27.256 30.1719C25.8005 29.3298 24.7594 27.97 24.3245 26.343C23.8895 24.7161 24.1127 23.0169 24.9531 21.5583C25.7933 20.0996 27.1501 19.0563 28.7736 18.6203C29.3157 18.4748 29.8656 18.4028 30.4123 18.4028C31.5025 18.4028 32.5784 18.6894 33.5479 19.2503C36.5523 20.9888 37.5854 24.8529 35.8507 27.8639ZM57.8185 40.3495L52.7326 35.2525C53.1324 34.2823 52.894 33.081 52.0873 32.2724L49.7287 29.9087C50.4675 29.4237 50.9829 28.6374 51.1146 27.725C51.4032 25.7273 51.4012 23.698 51.1087 21.6932C50.8811 20.132 49.574 18.9998 47.9999 18.9998C47.9972 18.9998 47.9946 18.9998 47.9917 18.9998C46.4032 18.9998 44.9239 18.1448 44.1305 16.7676C43.3359 15.3885 43.3379 13.6746 44.1354 12.2948C44.9271 10.9252 44.6007 9.22061 43.3596 8.2419C41.7765 6.99334 40.0254 5.98011 38.1549 5.23016C36.6886 4.64239 35.0524 5.2114 34.2646 6.58328C33.4711 7.96534 31.991 8.82396 30.402 8.82396C28.8137 8.82396 27.3338 7.96584 26.54 6.58477C25.7537 5.21637 24.1205 4.64686 22.6564 5.23016C20.7775 5.97912 19.0229 6.9921 17.4414 8.24091C16.2014 9.22023 15.8761 10.9244 16.6678 12.2935C17.466 13.6734 17.4682 15.3878 16.6733 16.7675C15.8798 18.1449 14.401 18.9996 12.8123 18.9996C12.8078 18.9996 12.8032 18.9996 12.7986 18.9996C11.2224 18.9996 9.91513 20.1333 9.68936 21.6971C9.42233 23.5456 9.40734 25.4212 9.63794 27.2801C9.17079 27.3519 8.73387 27.5732 8.38877 27.9191L6.82016 29.4911C5.684 30.6299 5.69082 32.4425 6.21608 33.4959L1.1815 38.5414C0.9395 38.7839 0.9395 39.1771 1.1815 39.4195L7.72559 45.978C7.84665 46.0992 8.00514 46.1598 8.16375 46.1598C8.32236 46.1598 8.48084 46.0992 8.6019 45.978L13.6878 40.8809C14.6502 41.2793 15.8408 41.0447 16.6473 40.2471C16.8478 40.6029 17.1158 40.9209 17.4445 41.1801C18.7151 42.1823 20.1031 43.0348 21.5722 43.7218C21.884 44.9759 22.9415 45.9299 23.8794 46.2435V53.3791C23.8794 53.7219 24.1568 54 24.4989 54H33.7538C34.0959 54 34.3733 53.7219 34.3733 53.3791V46.1707C35.1567 45.8445 35.7509 45.1142 35.9484 44.2408C36.2802 44.3565 36.6295 44.4157 36.9813 44.4157C37.374 44.4157 37.7699 44.3421 38.1472 44.1917C39.3723 43.7035 40.5521 43.0979 41.6618 42.3898C42.7972 43.266 44.3986 43.2233 45.3634 42.7402L50.398 47.7859C50.5191 47.9071 50.6775 47.9677 50.8361 47.9677C50.9948 47.9677 51.1532 47.9071 51.2743 47.7859L57.8184 41.2274C58.0605 40.9851 58.0605 40.592 57.8185 40.3495ZM13.9346 39.6087C13.6883 39.4334 13.3516 39.4616 13.1379 39.676L8.16362 44.6611L2.4956 38.9806L7.45212 34.0132C7.69399 33.7707 7.69412 33.3776 7.45212 33.1351C7.13862 32.8208 6.80083 31.2666 7.69622 30.3694L9.26496 28.7973C9.62394 28.4376 10.1884 28.395 10.4973 28.7047L11.0197 29.2282L9.90931 30.3411C9.66731 30.5836 9.66731 30.9768 9.90931 31.2192C10.0304 31.3404 10.1889 31.401 10.3475 31.401C10.5061 31.401 10.6646 31.3404 10.7856 31.2192L12.3342 29.6672L14.7336 27.2625C15.3196 26.6752 16.2166 26.6186 16.7328 27.1362L17.0834 27.4875L16.0524 28.5208C15.8104 28.7633 15.8104 29.1565 16.0524 29.3989C16.1735 29.5201 16.332 29.5807 16.4906 29.5807C16.6492 29.5807 16.8077 29.5201 16.9287 29.3989L17.9597 28.3657L18.7877 29.1955L17.7567 30.2286C17.5147 30.4711 17.5147 30.8643 17.7567 31.1067C17.8778 31.228 18.0363 31.2886 18.1949 31.2886C18.3534 31.2886 18.512 31.228 18.6329 31.1068L19.6639 30.0736L20.492 30.9035L19.461 31.9366C19.219 32.1791 19.219 32.5723 19.461 32.8147C19.5821 32.936 19.7406 32.9966 19.8992 32.9966C20.0577 32.9966 20.2163 32.936 20.3372 32.8148L21.3682 31.7816L21.4191 31.8327C21.6603 32.0744 21.7844 32.4114 21.7682 32.7812C21.751 33.1716 21.5823 33.5463 21.2929 33.8363L15.7853 39.3561C15.2631 39.8794 14.4676 39.9878 13.9346 39.6087ZM34.7804 43.6064C34.7804 44.3461 34.2945 44.9866 33.65 45.0963C33.3521 45.1469 33.1342 45.4056 33.1342 45.7084V52.7585H25.1185V45.7336C25.1185 45.3907 24.8411 45.1127 24.4989 45.1127C24.0555 45.1127 22.7202 44.2531 22.7202 42.9839V40.7607C22.7202 40.2518 23.0893 39.8219 23.5262 39.8219H24.2651V41.3957C24.2651 41.7386 24.5426 42.0166 24.8847 42.0166C25.2268 42.0166 25.5042 41.7386 25.5042 41.3957V39.2009V35.8003C25.5042 34.9697 26.0984 34.2941 26.8288 34.2941H27.3244V35.7553C27.3244 36.0982 27.6018 36.3762 27.944 36.3762C28.2861 36.3762 28.5635 36.0982 28.5635 35.7553V34.2941H29.7345V35.7553C29.7345 36.0982 30.012 36.3762 30.3541 36.3762C30.6962 36.3762 30.9736 36.0982 30.9736 35.7553V34.2941H32.1447V35.7553C32.1447 36.0982 32.4222 36.3762 32.7643 36.3762C33.1064 36.3762 33.3839 36.0982 33.3839 35.7553V34.2941H33.4559C34.1862 34.2941 34.7804 34.9697 34.7804 35.8003V43.6064ZM37.6896 43.0382C37.1358 43.2586 36.5187 43.207 36.0195 42.9117V35.8003C36.0195 34.2851 34.8695 33.0523 33.4559 33.0523H32.7649C32.7647 33.0523 32.7646 33.0523 32.7643 33.0523C32.7641 33.0523 32.7639 33.0523 32.7637 33.0523H30.3547C30.3545 33.0523 30.3543 33.0523 30.3541 33.0523C30.3538 33.0523 30.3537 33.0523 30.3535 33.0523H27.9446C27.9443 33.0523 27.9442 33.0523 27.944 33.0523C27.9437 33.0523 27.9436 33.0523 27.9434 33.0523H26.8286C25.415 33.0523 24.265 34.2851 24.265 35.8003V38.58H23.5261C22.3984 38.58 21.4809 39.5582 21.4809 40.7607V42.2964C20.3251 41.7066 19.2277 41.0066 18.2105 40.2044C17.9146 39.9709 17.6984 39.6607 17.5809 39.3123L22.1686 34.7144C22.6777 34.2042 22.9749 33.537 23.0055 32.8356C23.0371 32.1137 22.7847 31.4456 22.2948 30.9545L17.6088 26.2582C16.609 25.2565 14.9262 25.3132 13.8571 26.3845L11.8958 28.3503L11.3733 27.8266C11.2359 27.6888 11.0807 27.5761 10.9131 27.4867C10.6471 25.6207 10.6471 23.733 10.9156 21.8751C11.0524 20.9279 11.8441 20.2414 12.7986 20.2414C12.8029 20.2413 12.8076 20.2414 12.8123 20.2414C14.8422 20.2413 16.7322 19.1489 17.7464 17.3884C18.7624 15.625 18.7598 13.434 17.7397 11.6707C17.2602 10.8416 17.4572 9.80937 18.2083 9.21638C19.6958 8.04171 21.3465 7.08872 23.1142 6.38409C24.0007 6.03078 24.99 6.37577 25.4662 7.20446C26.4804 8.96926 28.3716 10.0657 30.4019 10.0658C32.433 10.0658 34.3246 8.96876 35.3385 7.20259C35.8155 6.37179 36.8061 6.02705 37.6946 6.38309C39.455 7.08896 41.1032 8.04258 42.5932 9.21775C43.3449 9.81049 43.5425 10.8427 43.0631 11.6723C42.044 13.4355 42.0418 15.6257 43.0574 17.3884C44.0716 19.1487 45.9617 20.2416 47.9917 20.2416H47.9998C48.953 20.2416 49.7448 20.9272 49.8826 21.8727C50.1577 23.7589 50.1596 25.668 49.8882 27.547C49.7951 28.1907 49.3888 28.7305 48.8207 28.9986L46.5795 26.7525C46.0704 26.2423 45.4047 25.9445 44.7047 25.9137C43.9844 25.8819 43.3179 26.1352 42.8278 26.6262L42.3389 27.1162L40.6354 28.8235C40.6351 28.8238 40.6348 28.8239 40.6345 28.8241C40.6343 28.8244 40.6341 28.8248 40.6339 28.825L38.9307 30.5319C38.9306 30.5321 38.9305 30.5321 38.9305 30.5322C38.9305 30.5323 38.9303 30.5323 38.9302 30.5324L38.1419 31.3226C37.6518 31.8137 37.3994 32.4816 37.431 33.2037C37.4617 33.9051 37.7589 34.5723 38.2679 35.0825L40.2292 37.0481L39.7067 37.5716C38.9093 38.3708 38.9508 39.7127 39.7991 40.563L40.7379 41.5037C39.7695 42.1008 38.7478 42.6165 37.6896 43.0382ZM50.8363 46.469L45.8797 41.5016C45.7587 41.3804 45.6002 41.3198 45.4416 41.3198C45.283 41.3198 45.1245 41.3804 45.0034 41.5016C44.6901 41.8159 43.1392 42.1544 42.2438 41.257L40.6752 39.685C40.3161 39.3251 40.2738 38.7595 40.5826 38.4499L41.1051 37.9262L42.2155 39.039C42.3366 39.1603 42.4951 39.2209 42.6537 39.2209C42.8122 39.2209 42.9708 39.1603 43.0917 39.0391C43.3337 38.7966 43.3337 38.4034 43.0917 38.161L41.5435 36.6095C41.5434 36.6093 41.5434 36.6092 41.5433 36.6091L39.1438 34.2045C38.8545 33.9145 38.6857 33.5398 38.6686 33.1494C38.6524 32.7794 38.7764 32.4427 39.0177 32.2009L39.3682 31.8495L40.3991 32.8828C40.5201 33.0041 40.6786 33.0647 40.8372 33.0647C40.9957 33.0647 41.1543 33.0041 41.2753 32.8829C41.5173 32.6404 41.5173 32.2472 41.2753 32.0048L40.2443 30.9716L41.0723 30.1417L42.1033 31.175C42.2243 31.2962 42.3828 31.3568 42.5414 31.3568C42.7 31.3568 42.8585 31.2962 42.9796 31.175C43.2216 30.9324 43.2216 30.5393 42.9796 30.2969L41.9486 29.2636L42.7767 28.4338L43.8077 29.4671C43.9287 29.5884 44.0872 29.649 44.2458 29.649C44.4043 29.649 44.5629 29.5884 44.6839 29.4672C44.9259 29.2246 44.9259 28.8315 44.6839 28.5891L43.6529 27.5557L43.7038 27.5047C43.9451 27.2629 44.2828 27.1397 44.6503 27.1548C45.0399 27.172 45.4137 27.3411 45.703 27.6311L51.2107 33.1509C51.7327 33.6738 51.841 34.4711 51.4626 35.0053C51.2877 35.2523 51.3161 35.5896 51.5298 35.8039L56.5042 40.789L50.8363 46.469Z"/>
</mask>
<path d="M34.1674 18.1749C32.4253 17.167 30.3958 16.899 28.4528 17.4209C26.5097 17.9428 24.8857 19.1916 23.88 20.9375C22.8742 22.6834 22.607 24.7173 23.1277 26.6647C23.6484 28.612 24.8945 30.2396 26.6366 31.2475C27.797 31.919 29.0847 32.262 30.3898 32.262C31.0438 32.262 31.7024 32.1758 32.3512 32.0016C34.2943 31.4797 35.9183 30.2309 36.9239 28.485C38.9996 24.8809 37.7633 20.2556 34.1674 18.1749ZM35.8507 27.8639C35.0105 29.3226 33.6538 30.3659 32.0302 30.8019C30.4069 31.2379 28.7114 31.0142 27.256 30.1719C25.8005 29.3298 24.7594 27.97 24.3245 26.343C23.8895 24.7161 24.1127 23.0169 24.9531 21.5583C25.7933 20.0996 27.1501 19.0563 28.7736 18.6203C29.3157 18.4748 29.8656 18.4028 30.4123 18.4028C31.5025 18.4028 32.5784 18.6894 33.5479 19.2503C36.5523 20.9888 37.5854 24.8529 35.8507 27.8639ZM57.8185 40.3495L52.7326 35.2525C53.1324 34.2823 52.894 33.081 52.0873 32.2724L49.7287 29.9087C50.4675 29.4237 50.9829 28.6374 51.1146 27.725C51.4032 25.7273 51.4012 23.698 51.1087 21.6932C50.8811 20.132 49.574 18.9998 47.9999 18.9998C47.9972 18.9998 47.9946 18.9998 47.9917 18.9998C46.4032 18.9998 44.9239 18.1448 44.1305 16.7676C43.3359 15.3885 43.3379 13.6746 44.1354 12.2948C44.9271 10.9252 44.6007 9.22061 43.3596 8.2419C41.7765 6.99334 40.0254 5.98011 38.1549 5.23016C36.6886 4.64239 35.0524 5.2114 34.2646 6.58328C33.4711 7.96534 31.991 8.82396 30.402 8.82396C28.8137 8.82396 27.3338 7.96584 26.54 6.58477C25.7537 5.21637 24.1205 4.64686 22.6564 5.23016C20.7775 5.97912 19.0229 6.9921 17.4414 8.24091C16.2014 9.22023 15.8761 10.9244 16.6678 12.2935C17.466 13.6734 17.4682 15.3878 16.6733 16.7675C15.8798 18.1449 14.401 18.9996 12.8123 18.9996C12.8078 18.9996 12.8032 18.9996 12.7986 18.9996C11.2224 18.9996 9.91513 20.1333 9.68936 21.6971C9.42233 23.5456 9.40734 25.4212 9.63794 27.2801C9.17079 27.3519 8.73387 27.5732 8.38877 27.9191L6.82016 29.4911C5.684 30.6299 5.69082 32.4425 6.21608 33.4959L1.1815 38.5414C0.9395 38.7839 0.9395 39.1771 1.1815 39.4195L7.72559 45.978C7.84665 46.0992 8.00514 46.1598 8.16375 46.1598C8.32236 46.1598 8.48084 46.0992 8.6019 45.978L13.6878 40.8809C14.6502 41.2793 15.8408 41.0447 16.6473 40.2471C16.8478 40.6029 17.1158 40.9209 17.4445 41.1801C18.7151 42.1823 20.1031 43.0348 21.5722 43.7218C21.884 44.9759 22.9415 45.9299 23.8794 46.2435V53.3791C23.8794 53.7219 24.1568 54 24.4989 54H33.7538C34.0959 54 34.3733 53.7219 34.3733 53.3791V46.1707C35.1567 45.8445 35.7509 45.1142 35.9484 44.2408C36.2802 44.3565 36.6295 44.4157 36.9813 44.4157C37.374 44.4157 37.7699 44.3421 38.1472 44.1917C39.3723 43.7035 40.5521 43.0979 41.6618 42.3898C42.7972 43.266 44.3986 43.2233 45.3634 42.7402L50.398 47.7859C50.5191 47.9071 50.6775 47.9677 50.8361 47.9677C50.9948 47.9677 51.1532 47.9071 51.2743 47.7859L57.8184 41.2274C58.0605 40.9851 58.0605 40.592 57.8185 40.3495ZM13.9346 39.6087C13.6883 39.4334 13.3516 39.4616 13.1379 39.676L8.16362 44.6611L2.4956 38.9806L7.45212 34.0132C7.69399 33.7707 7.69412 33.3776 7.45212 33.1351C7.13862 32.8208 6.80083 31.2666 7.69622 30.3694L9.26496 28.7973C9.62394 28.4376 10.1884 28.395 10.4973 28.7047L11.0197 29.2282L9.90931 30.3411C9.66731 30.5836 9.66731 30.9768 9.90931 31.2192C10.0304 31.3404 10.1889 31.401 10.3475 31.401C10.5061 31.401 10.6646 31.3404 10.7856 31.2192L12.3342 29.6672L14.7336 27.2625C15.3196 26.6752 16.2166 26.6186 16.7328 27.1362L17.0834 27.4875L16.0524 28.5208C15.8104 28.7633 15.8104 29.1565 16.0524 29.3989C16.1735 29.5201 16.332 29.5807 16.4906 29.5807C16.6492 29.5807 16.8077 29.5201 16.9287 29.3989L17.9597 28.3657L18.7877 29.1955L17.7567 30.2286C17.5147 30.4711 17.5147 30.8643 17.7567 31.1067C17.8778 31.228 18.0363 31.2886 18.1949 31.2886C18.3534 31.2886 18.512 31.228 18.6329 31.1068L19.6639 30.0736L20.492 30.9035L19.461 31.9366C19.219 32.1791 19.219 32.5723 19.461 32.8147C19.5821 32.936 19.7406 32.9966 19.8992 32.9966C20.0577 32.9966 20.2163 32.936 20.3372 32.8148L21.3682 31.7816L21.4191 31.8327C21.6603 32.0744 21.7844 32.4114 21.7682 32.7812C21.751 33.1716 21.5823 33.5463 21.2929 33.8363L15.7853 39.3561C15.2631 39.8794 14.4676 39.9878 13.9346 39.6087ZM34.7804 43.6064C34.7804 44.3461 34.2945 44.9866 33.65 45.0963C33.3521 45.1469 33.1342 45.4056 33.1342 45.7084V52.7585H25.1185V45.7336C25.1185 45.3907 24.8411 45.1127 24.4989 45.1127C24.0555 45.1127 22.7202 44.2531 22.7202 42.9839V40.7607C22.7202 40.2518 23.0893 39.8219 23.5262 39.8219H24.2651V41.3957C24.2651 41.7386 24.5426 42.0166 24.8847 42.0166C25.2268 42.0166 25.5042 41.7386 25.5042 41.3957V39.2009V35.8003C25.5042 34.9697 26.0984 34.2941 26.8288 34.2941H27.3244V35.7553C27.3244 36.0982 27.6018 36.3762 27.944 36.3762C28.2861 36.3762 28.5635 36.0982 28.5635 35.7553V34.2941H29.7345V35.7553C29.7345 36.0982 30.012 36.3762 30.3541 36.3762C30.6962 36.3762 30.9736 36.0982 30.9736 35.7553V34.2941H32.1447V35.7553C32.1447 36.0982 32.4222 36.3762 32.7643 36.3762C33.1064 36.3762 33.3839 36.0982 33.3839 35.7553V34.2941H33.4559C34.1862 34.2941 34.7804 34.9697 34.7804 35.8003V43.6064ZM37.6896 43.0382C37.1358 43.2586 36.5187 43.207 36.0195 42.9117V35.8003C36.0195 34.2851 34.8695 33.0523 33.4559 33.0523H32.7649C32.7647 33.0523 32.7646 33.0523 32.7643 33.0523C32.7641 33.0523 32.7639 33.0523 32.7637 33.0523H30.3547C30.3545 33.0523 30.3543 33.0523 30.3541 33.0523C30.3538 33.0523 30.3537 33.0523 30.3535 33.0523H27.9446C27.9443 33.0523 27.9442 33.0523 27.944 33.0523C27.9437 33.0523 27.9436 33.0523 27.9434 33.0523H26.8286C25.415 33.0523 24.265 34.2851 24.265 35.8003V38.58H23.5261C22.3984 38.58 21.4809 39.5582 21.4809 40.7607V42.2964C20.3251 41.7066 19.2277 41.0066 18.2105 40.2044C17.9146 39.9709 17.6984 39.6607 17.5809 39.3123L22.1686 34.7144C22.6777 34.2042 22.9749 33.537 23.0055 32.8356C23.0371 32.1137 22.7847 31.4456 22.2948 30.9545L17.6088 26.2582C16.609 25.2565 14.9262 25.3132 13.8571 26.3845L11.8958 28.3503L11.3733 27.8266C11.2359 27.6888 11.0807 27.5761 10.9131 27.4867C10.6471 25.6207 10.6471 23.733 10.9156 21.8751C11.0524 20.9279 11.8441 20.2414 12.7986 20.2414C12.8029 20.2413 12.8076 20.2414 12.8123 20.2414C14.8422 20.2413 16.7322 19.1489 17.7464 17.3884C18.7624 15.625 18.7598 13.434 17.7397 11.6707C17.2602 10.8416 17.4572 9.80937 18.2083 9.21638C19.6958 8.04171 21.3465 7.08872 23.1142 6.38409C24.0007 6.03078 24.99 6.37577 25.4662 7.20446C26.4804 8.96926 28.3716 10.0657 30.4019 10.0658C32.433 10.0658 34.3246 8.96876 35.3385 7.20259C35.8155 6.37179 36.8061 6.02705 37.6946 6.38309C39.455 7.08896 41.1032 8.04258 42.5932 9.21775C43.3449 9.81049 43.5425 10.8427 43.0631 11.6723C42.044 13.4355 42.0418 15.6257 43.0574 17.3884C44.0716 19.1487 45.9617 20.2416 47.9917 20.2416H47.9998C48.953 20.2416 49.7448 20.9272 49.8826 21.8727C50.1577 23.7589 50.1596 25.668 49.8882 27.547C49.7951 28.1907 49.3888 28.7305 48.8207 28.9986L46.5795 26.7525C46.0704 26.2423 45.4047 25.9445 44.7047 25.9137C43.9844 25.8819 43.3179 26.1352 42.8278 26.6262L42.3389 27.1162L40.6354 28.8235C40.6351 28.8238 40.6348 28.8239 40.6345 28.8241C40.6343 28.8244 40.6341 28.8248 40.6339 28.825L38.9307 30.5319C38.9306 30.5321 38.9305 30.5321 38.9305 30.5322C38.9305 30.5323 38.9303 30.5323 38.9302 30.5324L38.1419 31.3226C37.6518 31.8137 37.3994 32.4816 37.431 33.2037C37.4617 33.9051 37.7589 34.5723 38.2679 35.0825L40.2292 37.0481L39.7067 37.5716C38.9093 38.3708 38.9508 39.7127 39.7991 40.563L40.7379 41.5037C39.7695 42.1008 38.7478 42.6165 37.6896 43.0382ZM50.8363 46.469L45.8797 41.5016C45.7587 41.3804 45.6002 41.3198 45.4416 41.3198C45.283 41.3198 45.1245 41.3804 45.0034 41.5016C44.6901 41.8159 43.1392 42.1544 42.2438 41.257L40.6752 39.685C40.3161 39.3251 40.2738 38.7595 40.5826 38.4499L41.1051 37.9262L42.2155 39.039C42.3366 39.1603 42.4951 39.2209 42.6537 39.2209C42.8122 39.2209 42.9708 39.1603 43.0917 39.0391C43.3337 38.7966 43.3337 38.4034 43.0917 38.161L41.5435 36.6095C41.5434 36.6093 41.5434 36.6092 41.5433 36.6091L39.1438 34.2045C38.8545 33.9145 38.6857 33.5398 38.6686 33.1494C38.6524 32.7794 38.7764 32.4427 39.0177 32.2009L39.3682 31.8495L40.3991 32.8828C40.5201 33.0041 40.6786 33.0647 40.8372 33.0647C40.9957 33.0647 41.1543 33.0041 41.2753 32.8829C41.5173 32.6404 41.5173 32.2472 41.2753 32.0048L40.2443 30.9716L41.0723 30.1417L42.1033 31.175C42.2243 31.2962 42.3828 31.3568 42.5414 31.3568C42.7 31.3568 42.8585 31.2962 42.9796 31.175C43.2216 30.9324 43.2216 30.5393 42.9796 30.2969L41.9486 29.2636L42.7767 28.4338L43.8077 29.4671C43.9287 29.5884 44.0872 29.649 44.2458 29.649C44.4043 29.649 44.5629 29.5884 44.6839 29.4672C44.9259 29.2246 44.9259 28.8315 44.6839 28.5891L43.6529 27.5557L43.7038 27.5047C43.9451 27.2629 44.2828 27.1397 44.6503 27.1548C45.0399 27.172 45.4137 27.3411 45.703 27.6311L51.2107 33.1509C51.7327 33.6738 51.841 34.4711 51.4626 35.0053C51.2877 35.2523 51.3161 35.5896 51.5298 35.8039L56.5042 40.789L50.8363 46.469Z" fill="url(#paint0_linear_5326_9897)"/>
<path d="M34.1674 18.1749C32.4253 17.167 30.3958 16.899 28.4528 17.4209C26.5097 17.9428 24.8857 19.1916 23.88 20.9375C22.8742 22.6834 22.607 24.7173 23.1277 26.6647C23.6484 28.612 24.8945 30.2396 26.6366 31.2475C27.797 31.919 29.0847 32.262 30.3898 32.262C31.0438 32.262 31.7024 32.1758 32.3512 32.0016C34.2943 31.4797 35.9183 30.2309 36.9239 28.485C38.9996 24.8809 37.7633 20.2556 34.1674 18.1749ZM35.8507 27.8639C35.0105 29.3226 33.6538 30.3659 32.0302 30.8019C30.4069 31.2379 28.7114 31.0142 27.256 30.1719C25.8005 29.3298 24.7594 27.97 24.3245 26.343C23.8895 24.7161 24.1127 23.0169 24.9531 21.5583C25.7933 20.0996 27.1501 19.0563 28.7736 18.6203C29.3157 18.4748 29.8656 18.4028 30.4123 18.4028C31.5025 18.4028 32.5784 18.6894 33.5479 19.2503C36.5523 20.9888 37.5854 24.8529 35.8507 27.8639ZM57.8185 40.3495L52.7326 35.2525C53.1324 34.2823 52.894 33.081 52.0873 32.2724L49.7287 29.9087C50.4675 29.4237 50.9829 28.6374 51.1146 27.725C51.4032 25.7273 51.4012 23.698 51.1087 21.6932C50.8811 20.132 49.574 18.9998 47.9999 18.9998C47.9972 18.9998 47.9946 18.9998 47.9917 18.9998C46.4032 18.9998 44.9239 18.1448 44.1305 16.7676C43.3359 15.3885 43.3379 13.6746 44.1354 12.2948C44.9271 10.9252 44.6007 9.22061 43.3596 8.2419C41.7765 6.99334 40.0254 5.98011 38.1549 5.23016C36.6886 4.64239 35.0524 5.2114 34.2646 6.58328C33.4711 7.96534 31.991 8.82396 30.402 8.82396C28.8137 8.82396 27.3338 7.96584 26.54 6.58477C25.7537 5.21637 24.1205 4.64686 22.6564 5.23016C20.7775 5.97912 19.0229 6.9921 17.4414 8.24091C16.2014 9.22023 15.8761 10.9244 16.6678 12.2935C17.466 13.6734 17.4682 15.3878 16.6733 16.7675C15.8798 18.1449 14.401 18.9996 12.8123 18.9996C12.8078 18.9996 12.8032 18.9996 12.7986 18.9996C11.2224 18.9996 9.91513 20.1333 9.68936 21.6971C9.42233 23.5456 9.40734 25.4212 9.63794 27.2801C9.17079 27.3519 8.73387 27.5732 8.38877 27.9191L6.82016 29.4911C5.684 30.6299 5.69082 32.4425 6.21608 33.4959L1.1815 38.5414C0.9395 38.7839 0.9395 39.1771 1.1815 39.4195L7.72559 45.978C7.84665 46.0992 8.00514 46.1598 8.16375 46.1598C8.32236 46.1598 8.48084 46.0992 8.6019 45.978L13.6878 40.8809C14.6502 41.2793 15.8408 41.0447 16.6473 40.2471C16.8478 40.6029 17.1158 40.9209 17.4445 41.1801C18.7151 42.1823 20.1031 43.0348 21.5722 43.7218C21.884 44.9759 22.9415 45.9299 23.8794 46.2435V53.3791C23.8794 53.7219 24.1568 54 24.4989 54H33.7538C34.0959 54 34.3733 53.7219 34.3733 53.3791V46.1707C35.1567 45.8445 35.7509 45.1142 35.9484 44.2408C36.2802 44.3565 36.6295 44.4157 36.9813 44.4157C37.374 44.4157 37.7699 44.3421 38.1472 44.1917C39.3723 43.7035 40.5521 43.0979 41.6618 42.3898C42.7972 43.266 44.3986 43.2233 45.3634 42.7402L50.398 47.7859C50.5191 47.9071 50.6775 47.9677 50.8361 47.9677C50.9948 47.9677 51.1532 47.9071 51.2743 47.7859L57.8184 41.2274C58.0605 40.9851 58.0605 40.592 57.8185 40.3495ZM13.9346 39.6087C13.6883 39.4334 13.3516 39.4616 13.1379 39.676L8.16362 44.6611L2.4956 38.9806L7.45212 34.0132C7.69399 33.7707 7.69412 33.3776 7.45212 33.1351C7.13862 32.8208 6.80083 31.2666 7.69622 30.3694L9.26496 28.7973C9.62394 28.4376 10.1884 28.395 10.4973 28.7047L11.0197 29.2282L9.90931 30.3411C9.66731 30.5836 9.66731 30.9768 9.90931 31.2192C10.0304 31.3404 10.1889 31.401 10.3475 31.401C10.5061 31.401 10.6646 31.3404 10.7856 31.2192L12.3342 29.6672L14.7336 27.2625C15.3196 26.6752 16.2166 26.6186 16.7328 27.1362L17.0834 27.4875L16.0524 28.5208C15.8104 28.7633 15.8104 29.1565 16.0524 29.3989C16.1735 29.5201 16.332 29.5807 16.4906 29.5807C16.6492 29.5807 16.8077 29.5201 16.9287 29.3989L17.9597 28.3657L18.7877 29.1955L17.7567 30.2286C17.5147 30.4711 17.5147 30.8643 17.7567 31.1067C17.8778 31.228 18.0363 31.2886 18.1949 31.2886C18.3534 31.2886 18.512 31.228 18.6329 31.1068L19.6639 30.0736L20.492 30.9035L19.461 31.9366C19.219 32.1791 19.219 32.5723 19.461 32.8147C19.5821 32.936 19.7406 32.9966 19.8992 32.9966C20.0577 32.9966 20.2163 32.936 20.3372 32.8148L21.3682 31.7816L21.4191 31.8327C21.6603 32.0744 21.7844 32.4114 21.7682 32.7812C21.751 33.1716 21.5823 33.5463 21.2929 33.8363L15.7853 39.3561C15.2631 39.8794 14.4676 39.9878 13.9346 39.6087ZM34.7804 43.6064C34.7804 44.3461 34.2945 44.9866 33.65 45.0963C33.3521 45.1469 33.1342 45.4056 33.1342 45.7084V52.7585H25.1185V45.7336C25.1185 45.3907 24.8411 45.1127 24.4989 45.1127C24.0555 45.1127 22.7202 44.2531 22.7202 42.9839V40.7607C22.7202 40.2518 23.0893 39.8219 23.5262 39.8219H24.2651V41.3957C24.2651 41.7386 24.5426 42.0166 24.8847 42.0166C25.2268 42.0166 25.5042 41.7386 25.5042 41.3957V39.2009V35.8003C25.5042 34.9697 26.0984 34.2941 26.8288 34.2941H27.3244V35.7553C27.3244 36.0982 27.6018 36.3762 27.944 36.3762C28.2861 36.3762 28.5635 36.0982 28.5635 35.7553V34.2941H29.7345V35.7553C29.7345 36.0982 30.012 36.3762 30.3541 36.3762C30.6962 36.3762 30.9736 36.0982 30.9736 35.7553V34.2941H32.1447V35.7553C32.1447 36.0982 32.4222 36.3762 32.7643 36.3762C33.1064 36.3762 33.3839 36.0982 33.3839 35.7553V34.2941H33.4559C34.1862 34.2941 34.7804 34.9697 34.7804 35.8003V43.6064ZM37.6896 43.0382C37.1358 43.2586 36.5187 43.207 36.0195 42.9117V35.8003C36.0195 34.2851 34.8695 33.0523 33.4559 33.0523H32.7649C32.7647 33.0523 32.7646 33.0523 32.7643 33.0523C32.7641 33.0523 32.7639 33.0523 32.7637 33.0523H30.3547C30.3545 33.0523 30.3543 33.0523 30.3541 33.0523C30.3538 33.0523 30.3537 33.0523 30.3535 33.0523H27.9446C27.9443 33.0523 27.9442 33.0523 27.944 33.0523C27.9437 33.0523 27.9436 33.0523 27.9434 33.0523H26.8286C25.415 33.0523 24.265 34.2851 24.265 35.8003V38.58H23.5261C22.3984 38.58 21.4809 39.5582 21.4809 40.7607V42.2964C20.3251 41.7066 19.2277 41.0066 18.2105 40.2044C17.9146 39.9709 17.6984 39.6607 17.5809 39.3123L22.1686 34.7144C22.6777 34.2042 22.9749 33.537 23.0055 32.8356C23.0371 32.1137 22.7847 31.4456 22.2948 30.9545L17.6088 26.2582C16.609 25.2565 14.9262 25.3132 13.8571 26.3845L11.8958 28.3503L11.3733 27.8266C11.2359 27.6888 11.0807 27.5761 10.9131 27.4867C10.6471 25.6207 10.6471 23.733 10.9156 21.8751C11.0524 20.9279 11.8441 20.2414 12.7986 20.2414C12.8029 20.2413 12.8076 20.2414 12.8123 20.2414C14.8422 20.2413 16.7322 19.1489 17.7464 17.3884C18.7624 15.625 18.7598 13.434 17.7397 11.6707C17.2602 10.8416 17.4572 9.80937 18.2083 9.21638C19.6958 8.04171 21.3465 7.08872 23.1142 6.38409C24.0007 6.03078 24.99 6.37577 25.4662 7.20446C26.4804 8.96926 28.3716 10.0657 30.4019 10.0658C32.433 10.0658 34.3246 8.96876 35.3385 7.20259C35.8155 6.37179 36.8061 6.02705 37.6946 6.38309C39.455 7.08896 41.1032 8.04258 42.5932 9.21775C43.3449 9.81049 43.5425 10.8427 43.0631 11.6723C42.044 13.4355 42.0418 15.6257 43.0574 17.3884C44.0716 19.1487 45.9617 20.2416 47.9917 20.2416H47.9998C48.953 20.2416 49.7448 20.9272 49.8826 21.8727C50.1577 23.7589 50.1596 25.668 49.8882 27.547C49.7951 28.1907 49.3888 28.7305 48.8207 28.9986L46.5795 26.7525C46.0704 26.2423 45.4047 25.9445 44.7047 25.9137C43.9844 25.8819 43.3179 26.1352 42.8278 26.6262L42.3389 27.1162L40.6354 28.8235C40.6351 28.8238 40.6348 28.8239 40.6345 28.8241C40.6343 28.8244 40.6341 28.8248 40.6339 28.825L38.9307 30.5319C38.9306 30.5321 38.9305 30.5321 38.9305 30.5322C38.9305 30.5323 38.9303 30.5323 38.9302 30.5324L38.1419 31.3226C37.6518 31.8137 37.3994 32.4816 37.431 33.2037C37.4617 33.9051 37.7589 34.5723 38.2679 35.0825L40.2292 37.0481L39.7067 37.5716C38.9093 38.3708 38.9508 39.7127 39.7991 40.563L40.7379 41.5037C39.7695 42.1008 38.7478 42.6165 37.6896 43.0382ZM50.8363 46.469L45.8797 41.5016C45.7587 41.3804 45.6002 41.3198 45.4416 41.3198C45.283 41.3198 45.1245 41.3804 45.0034 41.5016C44.6901 41.8159 43.1392 42.1544 42.2438 41.257L40.6752 39.685C40.3161 39.3251 40.2738 38.7595 40.5826 38.4499L41.1051 37.9262L42.2155 39.039C42.3366 39.1603 42.4951 39.2209 42.6537 39.2209C42.8122 39.2209 42.9708 39.1603 43.0917 39.0391C43.3337 38.7966 43.3337 38.4034 43.0917 38.161L41.5435 36.6095C41.5434 36.6093 41.5434 36.6092 41.5433 36.6091L39.1438 34.2045C38.8545 33.9145 38.6857 33.5398 38.6686 33.1494C38.6524 32.7794 38.7764 32.4427 39.0177 32.2009L39.3682 31.8495L40.3991 32.8828C40.5201 33.0041 40.6786 33.0647 40.8372 33.0647C40.9957 33.0647 41.1543 33.0041 41.2753 32.8829C41.5173 32.6404 41.5173 32.2472 41.2753 32.0048L40.2443 30.9716L41.0723 30.1417L42.1033 31.175C42.2243 31.2962 42.3828 31.3568 42.5414 31.3568C42.7 31.3568 42.8585 31.2962 42.9796 31.175C43.2216 30.9324 43.2216 30.5393 42.9796 30.2969L41.9486 29.2636L42.7767 28.4338L43.8077 29.4671C43.9287 29.5884 44.0872 29.649 44.2458 29.649C44.4043 29.649 44.5629 29.5884 44.6839 29.4672C44.9259 29.2246 44.9259 28.8315 44.6839 28.5891L43.6529 27.5557L43.7038 27.5047C43.9451 27.2629 44.2828 27.1397 44.6503 27.1548C45.0399 27.172 45.4137 27.3411 45.703 27.6311L51.2107 33.1509C51.7327 33.6738 51.841 34.4711 51.4626 35.0053C51.2877 35.2523 51.3161 35.5896 51.5298 35.8039L56.5042 40.789L50.8363 46.469Z" stroke="url(#paint1_linear_5326_9897)" mask="url(#path-1-outside-1_5326_9897)"/>
<defs>
<linearGradient id="paint0_linear_5326_9897" x1="29.5" y1="5" x2="29.5" y2="62.536" gradientUnits="userSpaceOnUse">
<stop stop-color="#F4853B"/>
<stop offset="1" stop-color="#3448F5"/>
</linearGradient>
<linearGradient id="paint1_linear_5326_9897" x1="29.5" y1="5" x2="29.5" y2="62.536" gradientUnits="userSpaceOnUse">
<stop stop-color="#F4853B"/>
<stop offset="1" stop-color="#3448F5"/>
</linearGradient>
</defs>
</svg>
