<svg width="60" height="60" viewBox="0 0 60 60" fill="none" xmlns="http://www.w3.org/2000/svg">
<path d="M15.2371 32.3215C17.1965 32.3215 18.8945 31.1836 19.7078 29.5336L25.0715 30.3855C25.4125 32.8008 27.4937 34.6652 30.0016 34.6652C32.7473 34.6652 34.982 32.4305 34.982 29.6848C34.982 29.1176 34.8859 28.5727 34.7102 28.0652L39.2219 23.1152C40.9234 24.1465 42.85 24.6633 44.7789 24.6633C47.5246 24.6633 50.2703 23.618 52.3609 21.5273C54.3859 19.5023 55.5016 16.8094 55.5016 13.9453C55.5016 11.0813 54.3859 8.38828 52.3609 6.36328C50.3359 4.33828 47.643 3.22266 44.7789 3.22266C41.9148 3.22266 39.2219 4.33828 37.1969 6.36328C35.1719 8.38828 34.0562 11.0813 34.0562 13.9453C34.0562 16.8094 35.0805 19.2703 36.9449 21.2637L32.9348 25.6629C32.1109 25.0605 31.0973 24.7043 30.0016 24.7043C28.0422 24.7043 26.3441 25.8422 25.5309 27.491L20.1672 26.6391C19.825 24.2238 17.7449 22.3594 15.2371 22.3594C12.4914 22.3594 10.2566 24.5941 10.2566 27.3398C10.2566 30.0855 12.4914 32.3203 15.2371 32.3203V32.3215ZM39.2676 8.43633C40.7395 6.96445 42.6965 6.15352 44.7777 6.15352C46.859 6.15352 48.816 6.96445 50.2879 8.43633C51.7598 9.9082 52.5707 11.8652 52.5707 13.9465C52.5707 16.0277 51.7598 17.9848 50.2879 19.4566C47.2492 22.4953 42.3051 22.4953 39.2676 19.4566C37.7957 17.9848 36.9848 16.0277 36.9848 13.9465C36.9848 11.8652 37.7957 9.9082 39.2676 8.43633ZM30.0016 27.6352C31.1324 27.6352 32.0523 28.5551 32.0523 29.6859C32.0523 30.8168 31.1324 31.7367 30.0016 31.7367C28.8707 31.7367 27.9508 30.8168 27.9508 29.6859C27.9508 28.5551 28.8707 27.6352 30.0016 27.6352ZM15.2371 25.2902C16.368 25.2902 17.2879 26.2102 17.2879 27.341C17.2879 28.4719 16.368 29.3918 15.2371 29.3918C14.1062 29.3918 13.1863 28.4719 13.1863 27.341C13.1863 26.2102 14.1062 25.2902 15.2371 25.2902ZM54.1422 53.8488H50.9195V34.1391C50.9195 30.7465 48.1598 27.9867 44.7672 27.9867C41.3746 27.9867 38.6148 30.7465 38.6148 34.1391V53.8488H36.1551V43.5152C36.1551 40.1227 33.3953 37.3629 30.0027 37.3629C26.6102 37.3629 23.8504 40.1227 23.8504 43.5152V53.8488H21.3906V41.1715C21.3906 37.7789 18.6309 35.0191 15.2383 35.0191C11.8457 35.0191 9.08594 37.7789 9.08594 41.1715V53.8488H5.86328C5.05469 53.8488 4.39844 54.5051 4.39844 55.3137C4.39844 56.1223 5.05469 56.7785 5.86328 56.7785H54.1434C54.952 56.7785 55.6082 56.1223 55.6082 55.3137C55.6082 54.5051 54.952 53.8488 54.1434 53.8488H54.1422ZM12.0145 53.8488V41.1715C12.0145 39.3949 13.4605 37.9488 15.2371 37.9488C17.0137 37.9488 18.4598 39.3949 18.4598 41.1715V53.8488H12.0145ZM26.7789 53.8488V43.5152C26.7789 41.7387 28.225 40.2926 30.0016 40.2926C31.7781 40.2926 33.2242 41.7387 33.2242 43.5152V53.8488H26.7789ZM41.5434 53.8488V34.1391C41.5434 32.3625 42.9895 30.9164 44.766 30.9164C46.5426 30.9164 47.9887 32.3625 47.9887 34.1391V53.8488H41.5434ZM40.2508 14.9742C39.6777 14.4023 39.6777 13.4754 40.2496 12.9023C40.8215 12.3305 41.7484 12.3293 42.3215 12.9012L43.6211 14.1984L47.2363 10.5879C47.8082 10.016 48.7363 10.0172 49.3082 10.5891C49.8801 11.1609 49.8789 12.0891 49.307 12.6609L44.657 17.3051C44.3711 17.591 43.9961 17.734 43.6223 17.734C43.2484 17.734 42.8734 17.591 42.5875 17.3051L40.2531 14.9742H40.2508Z" fill="url(#paint0_linear_5326_9894)"/>
<defs>
<linearGradient id="paint0_linear_5326_9894" x1="30.0033" y1="3.22266" x2="30.0033" y2="66.1082" gradientUnits="userSpaceOnUse">
<stop stop-color="#F4853B"/>
<stop offset="1" stop-color="#3448F5"/>
</linearGradient>
</defs>
</svg>
