<svg width="60" height="60" viewBox="0 0 60 60" fill="none" xmlns="http://www.w3.org/2000/svg">
<g clip-path="url(#clip0_5326_9899)">
<path d="M29.9863 24.1094C26.7501 24.1094 24.1172 26.7423 24.1172 29.9785C24.4122 37.7519 35.5605 37.751 35.8543 29.9784C35.8543 26.7423 33.2218 24.1094 29.9863 24.1094ZM29.9863 33.5007C28.0435 33.5007 26.463 31.9206 26.463 29.9785C26.6401 25.3113 33.3321 25.3113 33.5085 29.9785C33.5085 31.9207 31.9284 33.5007 29.9863 33.5007Z" fill="url(#paint0_linear_5326_9899)"/>
<path d="M43.5292 39.3611L44.8826 37.0167C45.6552 35.6792 45.438 33.9759 44.355 32.8749L42.2684 30.7532C42.2683 30.753 42.2682 30.753 42.2682 30.7529C41.8486 30.3267 41.8486 29.6332 42.2682 29.2068L44.3555 27.0855C45.4374 25.9841 45.6543 24.2808 44.8828 22.9433L43.5292 20.5987C42.7569 19.261 41.1728 18.5981 39.6778 18.9858L36.7967 19.7319C36.2183 19.8818 35.6178 19.5357 35.4584 18.9591L34.6646 16.0924C34.2536 14.6029 32.8873 13.5625 31.3418 13.5625H28.6347C27.0904 13.5625 25.7236 14.6024 25.3111 16.0915L24.517 18.9597C24.3578 19.5357 23.7576 19.8827 23.1781 19.7319L20.2981 18.986C18.8027 18.5982 17.2186 19.2611 16.4461 20.5988L15.0923 22.9438C14.3212 24.281 14.5382 25.9842 15.621 27.0866L17.7079 29.2061C18.1271 29.6327 18.1271 30.3267 17.7084 30.7528L15.6206 32.8746C14.5373 33.9756 14.3202 35.6788 15.0926 37.0164L16.4462 39.3611C17.2189 40.6992 18.8028 41.3629 20.298 40.9749L23.1776 40.228C23.7573 40.0781 24.3578 40.4249 24.5171 41.0017L25.3112 43.8699C25.7241 45.358 27.0906 46.3971 28.6347 46.3971H31.3418C32.8869 46.3971 34.2532 45.3574 34.6643 43.8693L35.4585 41.0009C35.6175 40.4248 36.2185 40.0779 36.7969 40.2276L39.6774 40.9748C41.1728 41.3629 42.7567 40.6994 43.5292 39.3611ZM33.1976 40.3759L32.4035 43.2443C32.2721 43.7197 31.8356 44.0516 31.3418 44.0516H28.6347C28.1408 44.0516 27.7037 43.7192 27.5718 43.2436L26.7779 40.3767C26.2859 38.5617 24.3589 37.4867 22.5896 37.9573L19.7088 38.7045C19.2314 38.8285 18.7247 38.6162 18.4775 38.1884L17.1239 35.8437C16.8771 35.4162 16.9464 34.8719 17.2926 34.52L19.3808 32.3978C20.691 31.0646 20.691 28.8953 19.3801 27.5614L17.2933 25.4417C16.9468 25.0891 16.8772 24.5437 17.1239 24.116L18.4773 21.7717C18.7241 21.3443 19.2302 21.1324 19.7092 21.2566L22.5892 22.0025C24.4004 22.4727 26.2791 21.3877 26.7775 19.585L27.5715 16.7175C27.7035 16.241 28.1406 15.9082 28.6345 15.9082H31.3415C31.8353 15.9082 32.2719 16.2404 32.4033 16.7172L33.1973 19.5846C33.6958 21.3878 35.5745 22.4722 37.3852 22.0026L40.2663 21.2565C40.7447 21.1323 41.2509 21.3443 41.4976 21.7714L42.8508 24.1156C43.0976 24.5437 43.0282 25.0889 42.6824 25.4409L40.5958 27.5615C39.2836 28.895 39.2836 31.0644 40.5956 32.398L42.6823 34.5199C43.0285 34.8718 43.098 35.4162 42.851 35.8438L41.4974 38.1883C41.2504 38.6161 40.7442 38.8283 40.266 38.7044L37.3846 37.957C35.574 37.4889 33.6953 38.5741 33.1976 40.3759Z" fill="url(#paint1_linear_5326_9899)"/>
<path d="M29.9878 8.77775C31.8991 8.77775 33.5291 7.5529 34.1358 5.84706L34.413 5.89655C36.8507 6.34143 39.1975 7.15318 41.3905 8.30977C41.4277 8.33545 41.4667 8.35926 41.5077 8.38108C47.746 11.6987 52.2413 17.5701 53.8408 24.4896C53.984 25.1255 54.6331 25.5156 55.2477 25.3682C55.8788 25.2223 56.2722 24.5925 56.1263 23.9612C54.3846 16.426 49.5064 10.0243 42.7327 6.37626C42.6952 6.35011 42.6558 6.32595 42.6144 6.3039C40.173 4.99906 37.5553 4.08573 34.8299 3.58831L34.3006 3.49377C33.1332 -1.63374 25.7205 -0.929419 25.5859 4.37614C25.5861 6.80308 27.5606 8.77775 29.9878 8.77775ZM29.9878 2.31995C31.1215 2.31995 32.0437 3.24231 32.0437 4.3759C31.9404 7.09982 28.0347 7.099 27.9317 4.3759C27.9318 3.24231 28.8541 2.31995 29.9878 2.31995Z" fill="url(#paint2_linear_5326_9899)"/>
<path d="M29.9859 51.221C28.0935 51.221 26.4763 52.4216 25.8556 54.1009L25.5595 54.0514C23.0813 53.5981 20.6969 52.7657 18.4704 51.5759C1.57591 42.6777 1.21501 18.1261 17.8301 8.73893L17.3027 10.3926C17.1058 11.0096 17.4465 11.6696 18.0637 11.8664C18.1821 11.9043 18.3023 11.9223 18.4204 11.9223C18.9172 11.9223 19.3785 11.6042 19.5375 11.1056L20.9099 6.80355C21.1092 6.17899 20.7373 5.49613 20.1098 5.31715L15.9971 4.00504C15.3797 3.80811 14.7201 4.14883 14.5233 4.76589C14.3264 5.38306 14.6671 6.04293 15.2841 6.23974L16.6902 6.68825C-1.54679 16.9679 -1.15199 43.8935 17.3671 53.6459C19.8087 54.9507 22.4263 55.864 25.1473 56.3606C25.1529 56.3617 25.1587 56.3627 25.1644 56.3636L25.6628 56.447C26.7727 61.6248 34.2489 60.9619 34.3879 55.6226C34.3878 53.1957 32.4131 51.221 29.9859 51.221ZM29.9859 57.6788C28.8522 57.6788 27.9299 56.7565 27.9299 55.6229C28.0332 52.899 31.939 52.8997 32.0419 55.6229C32.042 56.7565 31.1197 57.6788 29.9859 57.6788Z" fill="url(#paint3_linear_5326_9899)"/>
<path d="M55.3336 34.0603C54.699 33.9276 54.0779 34.3337 53.9451 34.9675C53.7711 35.7973 53.5545 36.6208 53.3013 37.4147C51.4663 43.1667 47.5655 48.0156 42.4138 51.0562L42.9265 49.4494C43.1233 48.8322 42.7826 48.1723 42.1655 47.9755C41.5487 47.7786 40.8885 48.1192 40.6917 48.7364L39.3192 53.0385C39.1212 53.6612 39.4912 54.3474 40.1192 54.5249L44.2319 55.837C44.8322 56.0336 45.5104 55.699 45.7058 55.0762C45.9026 54.459 45.5618 53.7991 44.9448 53.6023L43.4984 53.1409C49.197 49.8132 53.5124 44.4712 55.5362 38.1277C55.8136 37.2578 56.0507 36.3565 56.241 35.449C56.3739 34.8148 55.9677 34.193 55.3336 34.0603Z" fill="url(#paint4_linear_5326_9899)"/>
<path d="M56.7378 29.3925C56.6108 28.7674 55.9866 28.3448 55.3584 28.4718C53.8495 28.8488 54.2813 31.0025 55.8169 30.7718C56.4416 30.6472 56.8648 30.0184 56.7378 29.3925Z" fill="url(#paint5_linear_5326_9899)"/>
</g>
<defs>
<linearGradient id="paint0_linear_5326_9899" x1="29.9857" y1="24.1094" x2="29.9857" y2="37.8462" gradientUnits="userSpaceOnUse">
<stop stop-color="#F4853B"/>
<stop offset="1" stop-color="#3448F5"/>
</linearGradient>
<linearGradient id="paint1_linear_5326_9899" x1="29.9877" y1="13.5625" x2="29.9877" y2="52.1171" gradientUnits="userSpaceOnUse">
<stop stop-color="#F4853B"/>
<stop offset="1" stop-color="#3448F5"/>
</linearGradient>
<linearGradient id="paint2_linear_5326_9899" x1="40.8713" y1="0" x2="40.8713" y2="29.824" gradientUnits="userSpaceOnUse">
<stop stop-color="#F4853B"/>
<stop offset="1" stop-color="#3448F5"/>
</linearGradient>
<linearGradient id="paint3_linear_5326_9899" x1="18.815" y1="3.94922" x2="18.815" y2="69.7623" gradientUnits="userSpaceOnUse">
<stop stop-color="#F4853B"/>
<stop offset="1" stop-color="#3448F5"/>
</linearGradient>
<linearGradient id="paint4_linear_5326_9899" x1="47.7659" y1="34.0352" x2="47.7659" y2="59.701" gradientUnits="userSpaceOnUse">
<stop stop-color="#F4853B"/>
<stop offset="1" stop-color="#3448F5"/>
</linearGradient>
<linearGradient id="paint5_linear_5326_9899" x1="55.5911" y1="28.4492" x2="55.5911" y2="31.1967" gradientUnits="userSpaceOnUse">
<stop stop-color="#F4853B"/>
<stop offset="1" stop-color="#3448F5"/>
</linearGradient>
<clipPath id="clip0_5326_9899">
<rect width="60" height="60" fill="white"/>
</clipPath>
</defs>
</svg>
