<svg width="60" height="60" viewBox="0 0 60 60" fill="none" xmlns="http://www.w3.org/2000/svg">
<path d="M30.0011 53.8812C16.8339 53.8812 6.12109 43.1684 6.12109 30.0012C6.12109 28.4628 6.26922 26.9225 6.55984 25.4234C6.65828 24.9153 7.15234 24.5816 7.65859 24.6819C8.16672 24.7803 8.49859 25.2725 8.40016 25.7806C8.13203 27.1625 7.99609 28.5828 7.99609 30.0012C7.99609 42.1344 17.868 52.0062 30.0011 52.0062C38.3777 52.0062 45.918 47.3525 49.6792 39.8609C49.9117 39.3987 50.4742 39.2122 50.9373 39.4437C51.4005 39.6762 51.587 40.2397 51.3545 40.7019C47.2727 48.8309 39.0911 53.8812 30.0011 53.8812Z" fill="url(#paint0_linear_5326_9879)"/>
<path d="M52.522 35.3373C52.4629 35.3373 52.4029 35.3317 52.3429 35.3195C51.8348 35.2211 51.5029 34.7289 51.6013 34.2208C51.8695 32.8408 52.0054 31.4205 52.0054 30.0011C52.0054 17.868 42.1345 7.99609 30.0004 7.99609C21.6529 7.99609 14.1238 12.6264 10.3523 20.0814C10.1188 20.5436 9.5554 20.7273 9.09227 20.4939C8.63009 20.2605 8.4454 19.6961 8.67978 19.2339C12.772 11.1461 20.9413 6.12109 30.0004 6.12109C43.1676 6.12109 53.8804 16.8339 53.8804 30.0011C53.8804 31.5405 53.7332 33.0808 53.4417 34.578C53.3545 35.0261 52.9616 35.3373 52.522 35.3373Z" fill="url(#paint1_linear_5326_9879)"/>
<path d="M9.62436 29.3013C9.34499 29.3013 9.06843 29.1766 8.8828 28.9385L7.31436 26.9172L5.29311 28.4847C4.88436 28.8025 4.29561 28.7285 3.9778 28.3188C3.66093 27.91 3.73499 27.3213 4.14374 27.0035L6.90561 24.8613C7.31343 24.5435 7.90218 24.6175 8.22093 25.0272L10.3641 27.7891C10.6809 28.1979 10.6069 28.7866 10.1981 29.1044C10.0275 29.2375 9.82499 29.3013 9.62436 29.3013Z" fill="url(#paint2_linear_5326_9879)"/>
<path d="M52.5217 35.3358C52.2423 35.3358 51.9648 35.2111 51.7801 34.973L49.638 32.2111C49.3211 31.8023 49.3951 31.2136 49.8039 30.8958C50.2117 30.5789 50.8014 30.653 51.1192 31.0617L52.6867 33.083L54.708 31.5155C55.1158 31.1986 55.7055 31.2717 56.0233 31.6814C56.3401 32.0901 56.2661 32.6789 55.8573 32.9967L53.0955 35.1389C52.9248 35.272 52.7223 35.3358 52.5217 35.3358Z" fill="url(#paint3_linear_5326_9879)"/>
<path d="M15.3945 30.9559C14.877 30.9559 14.457 30.5556 14.457 30.0381V29.9988C14.457 21.4272 21.4302 14.4531 30.0017 14.4531C36.8277 14.4531 42.7892 18.8247 44.8367 25.3319C44.9923 25.8259 44.7177 26.3519 44.2236 26.5075C43.7314 26.6641 43.2036 26.3884 43.048 25.8944C41.248 20.1719 36.0055 16.3281 30.0017 16.3281C22.4642 16.3281 16.332 22.4603 16.332 29.9988C16.332 30.5163 15.912 30.9559 15.3945 30.9559Z" fill="url(#paint4_linear_5326_9879)"/>
<path d="M30.0916 21.749C26.6219 21.749 23.1382 21.2831 19.6638 20.3512C19.1632 20.2172 18.8669 19.7034 19.001 19.2028C19.135 18.7031 19.6497 18.4059 20.1494 18.54C26.7513 20.3109 33.386 20.3175 39.8707 18.5597C40.3722 18.4284 40.886 18.72 41.021 19.2197C41.156 19.7194 40.8607 20.234 40.361 20.37C36.9691 21.2887 33.5379 21.7481 30.0925 21.7481L30.0916 21.749Z" fill="url(#paint5_linear_5326_9879)"/>
<path d="M23.425 32.2412C22.9169 32.2412 22.4997 31.8353 22.4884 31.3244C22.4781 30.8856 22.4688 30.4469 22.4688 29.9988C22.4688 21.2819 25.7762 14.4531 29.9987 14.4531C33.6681 14.4531 36.6297 19.3891 37.3675 26.7362C37.4191 27.2519 37.0431 27.7112 36.5284 27.7628C36.0081 27.8209 35.5534 27.4384 35.5019 26.9237C34.8953 20.8834 32.53 16.3281 29.9987 16.3281C27.3241 16.3281 24.3438 21.9419 24.3438 29.9988C24.3438 30.4328 24.3531 30.8575 24.3625 31.2822C24.3747 31.7997 23.9641 32.2291 23.4466 32.2403C23.4391 32.2403 23.4325 32.2412 23.425 32.2412Z" fill="url(#paint6_linear_5326_9879)"/>
<path d="M43.9422 26.5391H16.0703C15.5528 26.5391 15.1328 26.1191 15.1328 25.6016C15.1328 25.0841 15.5528 24.6641 16.0703 24.6641H43.9422C44.4597 24.6641 44.8797 25.0841 44.8797 25.6016C44.8797 26.1191 44.4597 26.5391 43.9422 26.5391Z" fill="url(#paint7_linear_5326_9879)"/>
<path d="M29.9986 45.5372C28.7245 45.5372 27.4561 45.3806 26.228 45.0694C26.2083 45.0666 26.1886 45.0619 26.1689 45.0572C20.5711 43.6444 16.132 39.0947 14.8589 33.4659C14.7961 33.1866 14.8636 32.895 15.0427 32.6719C15.2208 32.4506 15.4899 32.3212 15.773 32.3212H15.7786C20.2974 32.3475 24.2874 33.5147 26.7708 35.4909C29.3124 31.4344 36.3314 28.5816 44.5561 28.4062C45.052 28.4175 45.4655 28.7681 45.5105 29.2584C45.532 29.5022 45.5339 29.7572 45.5339 30.0009C45.5339 33.8475 44.1174 37.5375 41.5449 40.3903C40.3683 41.715 38.9714 42.8184 37.3992 43.6678C37.3852 43.6753 37.3711 43.6828 37.3561 43.6894C37.3505 43.6922 37.3458 43.695 37.342 43.6969C35.4408 44.7178 33.3811 45.3216 31.237 45.4847C30.8114 45.5156 30.4055 45.5372 29.9986 45.5372ZM26.5786 43.2272C26.6002 43.2309 26.6208 43.2356 26.6414 43.2403C28.0786 43.6097 29.5852 43.7306 31.0749 43.6162C32.978 43.4737 34.7864 42.9422 36.472 42.0375C36.4852 42.03 36.4983 42.0234 36.5124 42.0169C37.8905 41.2725 39.1139 40.3041 40.148 39.1406C42.3436 36.705 43.5811 33.5831 43.6552 30.315C35.9264 30.6881 29.3892 33.5831 27.9192 37.3566C27.802 37.6575 27.5386 37.8769 27.2208 37.9378C26.902 37.9978 26.5767 37.8909 26.3583 37.6537C24.5864 35.7412 21.0764 34.4728 17.0142 34.2366C18.4411 38.6137 22.0805 42.0731 26.5786 43.2272Z" fill="url(#paint8_linear_5326_9879)"/>
<path d="M29.9974 45.5382C29.7855 45.5382 29.5737 45.4669 29.3984 45.3216L24.1305 40.9397C23.733 40.6088 23.6787 40.0182 24.0096 39.6197C24.3405 39.2213 24.9312 39.1679 25.3296 39.4988L29.8915 43.2938L37.6502 34.3585C37.9896 33.9676 38.5812 33.9244 38.973 34.2657C39.364 34.6051 39.4052 35.1976 39.0659 35.5885L30.7062 45.2176C30.5215 45.4313 30.2599 45.5401 29.9984 45.5401L29.9974 45.5382Z" fill="url(#paint9_linear_5326_9879)"/>
<path d="M30 48.1911C29.4825 48.1911 29.0625 47.7711 29.0625 47.2536V44.5977C29.0625 44.0802 29.4825 43.6602 30 43.6602C30.5175 43.6602 30.9375 44.0802 30.9375 44.5977V47.2536C30.9375 47.7711 30.5175 48.1911 30 48.1911Z" fill="url(#paint10_linear_5326_9879)"/>
<defs>
<linearGradient id="paint0_linear_5326_9879" x1="28.7878" y1="24.6641" x2="28.7878" y2="58.971" gradientUnits="userSpaceOnUse">
<stop stop-color="#F4853B"/>
<stop offset="1" stop-color="#3448F5"/>
</linearGradient>
<linearGradient id="paint1_linear_5326_9879" x1="31.2293" y1="6.12109" x2="31.2293" y2="40.4269" gradientUnits="userSpaceOnUse">
<stop stop-color="#F4853B"/>
<stop offset="1" stop-color="#3448F5"/>
</linearGradient>
<linearGradient id="paint2_linear_5326_9879" x1="7.17093" y1="24.6641" x2="7.17093" y2="30.1091" gradientUnits="userSpaceOnUse">
<stop stop-color="#F4853B"/>
<stop offset="1" stop-color="#3448F5"/>
</linearGradient>
<linearGradient id="paint3_linear_5326_9879" x1="52.8306" y1="30.6992" x2="52.8306" y2="36.1435" gradientUnits="userSpaceOnUse">
<stop stop-color="#F4853B"/>
<stop offset="1" stop-color="#3448F5"/>
</linearGradient>
<linearGradient id="paint4_linear_5326_9879" x1="29.6687" y1="14.4531" x2="29.6687" y2="33.8308" gradientUnits="userSpaceOnUse">
<stop stop-color="#F4853B"/>
<stop offset="1" stop-color="#3448F5"/>
</linearGradient>
<linearGradient id="paint5_linear_5326_9879" x1="30.0112" y1="18.5078" x2="30.0112" y2="22.3137" gradientUnits="userSpaceOnUse">
<stop stop-color="#F4853B"/>
<stop offset="1" stop-color="#3448F5"/>
</linearGradient>
<linearGradient id="paint6_linear_5326_9879" x1="29.9205" y1="14.4531" x2="29.9205" y2="35.34" gradientUnits="userSpaceOnUse">
<stop stop-color="#F4853B"/>
<stop offset="1" stop-color="#3448F5"/>
</linearGradient>
<linearGradient id="paint7_linear_5326_9879" x1="30.0063" y1="24.6641" x2="30.0063" y2="26.8657" gradientUnits="userSpaceOnUse">
<stop stop-color="#F4853B"/>
<stop offset="1" stop-color="#3448F5"/>
</linearGradient>
<linearGradient id="paint8_linear_5326_9879" x1="30.1849" y1="28.4062" x2="30.1849" y2="48.5215" gradientUnits="userSpaceOnUse">
<stop stop-color="#F4853B"/>
<stop offset="1" stop-color="#3448F5"/>
</linearGradient>
<linearGradient id="paint9_linear_5326_9879" x1="31.5443" y1="34.0352" x2="31.5443" y2="47.5443" gradientUnits="userSpaceOnUse">
<stop stop-color="#F4853B"/>
<stop offset="1" stop-color="#3448F5"/>
</linearGradient>
<linearGradient id="paint10_linear_5326_9879" x1="30" y1="43.6602" x2="30" y2="48.9804" gradientUnits="userSpaceOnUse">
<stop stop-color="#F4853B"/>
<stop offset="1" stop-color="#3448F5"/>
</linearGradient>
</defs>
</svg>
