<svg width="60" height="60" viewBox="0 0 60 60" fill="none" xmlns="http://www.w3.org/2000/svg">
<path d="M54.9656 42.4439C55.3679 37.8647 53.3839 34.299 50.252 30.0003C51.8435 28.073 56.461 20.5275 54.049 20.0252C53.9286 19.9994 53.8042 19.9976 53.6831 20.0198C53.562 20.0421 53.4464 20.088 53.343 20.1549C53.2396 20.2219 53.1505 20.3085 53.0806 20.4099C53.0107 20.5113 52.9615 20.6255 52.9358 20.746C52.1953 23.5774 50.8668 26.2212 49.0368 28.5052C47.7317 26.9729 46.3264 25.5289 44.8302 24.1826C44.3023 20.1985 43.037 16.3475 41.0991 12.8267C44.648 12.3354 47.4296 12.2855 50.2252 13.6663C49.9347 14.289 49.8541 14.9892 49.9957 15.6616C50.1372 16.334 50.4932 16.9422 51.0101 17.3949C51.5271 17.8477 52.177 18.1203 52.8622 18.172C53.5474 18.2236 54.2308 18.0514 54.8098 17.6813C55.3887 17.3112 55.8319 16.7632 56.0726 16.1196C56.3133 15.476 56.3387 14.7717 56.1447 14.1125C55.9508 13.4532 55.5482 12.8748 54.9973 12.4641C54.4464 12.0533 53.7771 11.8325 53.09 11.8349C52.5401 11.8383 52.0008 11.9862 51.5262 12.2639C50.4961 11.6385 49.3623 11.2025 48.1785 10.9768C45.4754 10.4892 42.7031 10.5357 40.0179 11.1136C37.3376 7.26269 33.8361 4.92188 30.0064 4.92188C26.1767 4.92188 22.6754 7.26258 19.9951 11.1134C17.9154 10.7127 10.632 9.8871 11.1131 12.0893C11.1386 12.2099 11.1876 12.3242 11.2574 12.4258C11.3272 12.5274 11.4164 12.6142 11.5198 12.6812C11.6233 12.7481 11.739 12.794 11.8602 12.8162C11.9814 12.8383 12.1058 12.8363 12.2263 12.8101C14.4384 12.414 16.7038 12.4195 18.9139 12.8265C16.976 16.3472 15.7107 20.198 15.1827 24.1821C13.6866 25.5288 12.2814 26.9731 10.9761 28.5055C8.43337 24.8909 6.61862 21.7703 6.92245 18.1811C7.68464 18.1879 8.42424 17.9225 9.00821 17.4326C9.59219 16.9428 9.9822 16.2606 10.1081 15.5089C10.234 14.7571 10.0875 13.9851 9.69499 13.3317C9.30247 12.6784 8.68969 12.1865 7.96687 11.9446C7.24405 11.7027 6.45864 11.7267 5.75192 12.0122C5.0452 12.2977 4.46357 12.8261 4.11164 13.5022C3.75971 14.1783 3.66058 14.9578 3.8321 15.7005C4.00362 16.4431 4.43451 17.1002 5.04728 17.5535C4.65998 22.1414 6.61836 25.6876 9.76086 30.0007C7.63249 32.5941 6.0886 35.616 5.23456 38.8604C5.18677 39.1015 5.23556 39.3517 5.37041 39.5572C5.50526 39.7627 5.7154 39.907 5.9556 39.9591C6.19579 40.0111 6.44683 39.9668 6.65469 39.8357C6.86254 39.7045 7.01059 39.497 7.06697 39.2578C7.81476 36.4264 9.14623 33.7826 10.9759 31.496C12.2808 33.0289 13.6863 34.4732 15.1832 35.8192C15.7112 39.8001 16.9754 43.648 18.9113 47.1664C15.3677 47.6606 12.5852 47.7038 9.78975 46.3266C10.1125 45.6416 10.1795 44.8638 9.97872 44.1338C9.7779 43.4037 9.32249 42.7696 8.69483 42.3461C8.06717 41.9226 7.30869 41.7377 6.55655 41.8247C5.8044 41.9118 5.10822 42.2651 4.59391 42.8208C4.07959 43.3765 3.78108 44.0979 3.75235 44.8545C3.72361 45.6111 3.96656 46.353 4.43725 46.9461C4.90795 47.5392 5.57532 47.9443 6.3187 48.0882C7.06208 48.232 7.8324 48.1051 8.49037 47.7304C11.8902 49.737 16.0365 49.589 19.9912 48.8783C22.6719 52.7325 26.1749 55.0755 30.0064 55.0755C33.8381 55.0755 37.3411 52.7323 40.0219 48.8779C42.7054 49.4592 45.477 49.5058 48.1785 49.0151C48.4183 48.9598 48.6268 48.8125 48.7589 48.6049C48.891 48.3973 48.9363 48.1461 48.8848 47.9055C48.8334 47.6648 48.6894 47.4541 48.4839 47.3187C48.2784 47.1833 48.0279 47.1341 47.7865 47.1818C45.5754 47.5778 43.311 47.5725 41.1018 47.1661C43.0374 43.6479 44.3015 39.8003 44.8295 35.8197C46.3263 34.4733 47.7319 33.0288 49.0369 31.4957C51.6381 35.1568 53.2512 38.0563 53.1544 41.8228C52.3979 41.805 51.6599 42.0584 51.0739 42.5373C50.488 43.0162 50.0927 43.6889 49.9595 44.4338C49.8263 45.1788 49.964 45.9468 50.3477 46.599C50.7314 47.2513 51.3358 47.7448 52.0516 47.9902C52.7674 48.2357 53.5475 48.217 54.2507 47.9374C54.9539 47.6579 55.534 47.136 55.8859 46.4661C56.2379 45.7962 56.3386 45.0225 56.1698 44.2848C56.001 43.5471 55.5739 42.8941 54.9656 42.4439ZM54.3872 15.008C54.3827 15.3491 54.244 15.6747 54.0012 15.9144C53.7584 16.154 53.4309 16.2884 53.0898 16.2884C52.7486 16.2883 52.4212 16.154 52.1784 15.9143C51.9356 15.6747 51.7969 15.349 51.7924 15.0079C51.7969 14.6668 51.9356 14.3411 52.1784 14.1015C52.4212 13.8619 52.7487 13.7275 53.0898 13.7275C53.431 13.7275 53.7584 13.8619 54.0012 14.1015C54.244 14.3412 54.3827 14.6668 54.3872 15.008ZM6.92271 13.7103C7.26373 13.7151 7.58915 13.8539 7.82862 14.0967C8.06808 14.3396 8.20232 14.6669 8.20231 15.008C8.20231 15.349 8.06805 15.6763 7.82858 15.9192C7.5891 16.162 7.26367 16.3008 6.92266 16.3056C6.58164 16.3008 6.25621 16.162 6.01675 15.9191C5.77729 15.6763 5.64305 15.349 5.64306 15.0079C5.64306 14.6669 5.77732 14.3395 6.01679 14.0967C6.25626 13.8539 6.5817 13.7151 6.92271 13.7103ZM12.168 30.0008C13.017 28.9864 13.9185 28.0056 14.8725 27.0585C14.8037 28.0237 14.7643 29.0035 14.7643 29.9987C14.7643 30.9954 14.8038 31.9766 14.8729 32.9433C13.9212 31.9994 13.0196 31.0185 12.168 30.0008ZM5.62556 44.9895C5.63015 44.6484 5.76886 44.3228 6.01168 44.0833C6.25449 43.8437 6.58187 43.7094 6.92297 43.7094C7.26407 43.7094 7.59144 43.8438 7.83425 44.0833C8.07705 44.3229 8.21575 44.6484 8.22032 44.9895C8.21573 45.3306 8.07702 45.6561 7.83421 45.8957C7.59139 46.1352 7.26401 46.2696 6.92291 46.2695C6.58182 46.2695 6.25444 46.1352 6.01164 45.8956C5.76883 45.6561 5.63014 45.3305 5.62556 44.9895ZM42.6072 22.2677C39.3957 19.6512 35.9195 17.3775 32.2352 15.4838C34.4881 14.5157 36.8234 13.7521 39.213 13.2023C40.8493 16.0102 41.997 19.0756 42.6072 22.2677ZM30.0064 6.79734C33.0442 6.79734 35.8471 8.56862 38.0944 11.5431C35.3133 12.2408 32.6052 13.2021 30.0067 14.414C27.4079 13.2023 24.6996 12.241 21.9185 11.5431C24.1658 8.56856 26.9686 6.79734 30.0064 6.79734ZM20.7999 13.2022C23.1896 13.7522 25.525 14.5158 27.778 15.4838C24.0937 17.3773 20.6174 19.6507 17.4058 22.2669C18.016 19.075 19.1637 16.0099 20.7999 13.2022ZM17.4065 37.7341C20.6176 40.3499 24.0931 42.6233 27.7765 44.5171C25.5229 45.4827 23.187 46.2436 20.7971 46.7905C19.163 43.9851 18.0165 40.9229 17.4065 37.7341ZM30.0064 53.2C26.9674 53.2 24.1636 51.4272 21.9159 48.4508C24.6978 47.7563 27.4069 46.7973 30.0061 45.5869C32.6056 46.7972 35.3149 47.7561 38.0971 48.4505C35.8493 51.4271 33.0454 53.2 30.0064 53.2ZM39.2159 46.7902C36.8257 46.2436 34.4896 45.4828 32.2359 44.5171C34.0311 43.5974 35.7774 42.5853 37.4679 41.4849C39.2454 40.3261 40.9605 39.0743 42.6061 37.7348C41.9961 40.9232 40.8498 43.9851 39.2159 46.7902ZM43.0736 34.8743C39.1381 38.3462 34.7403 41.256 30.006 43.5207C27.7836 42.4623 25.6337 41.2579 23.5705 39.9153C21.2377 38.4019 19.0211 36.7166 16.939 34.8734C16.5424 31.6368 16.5422 28.3639 16.9386 25.1272C20.8744 21.6553 25.2723 18.7453 30.0068 16.4805C34.7413 18.7454 39.139 21.6557 43.0743 25.1282C43.4706 28.3648 43.4704 31.6378 43.0736 34.8743ZM45.14 32.9433C45.2831 30.9842 45.2832 29.0174 45.1403 27.0584C48.4345 30.4855 48.4251 29.5201 45.14 32.9433ZM53.0901 46.2862C52.7492 46.2813 52.424 46.1425 52.1847 45.8998C51.9454 45.657 51.8112 45.3299 51.8113 44.989C51.8113 44.6481 51.9454 44.321 52.1847 44.0782C52.4241 43.8355 52.7493 43.6967 53.0901 43.6919C53.4307 43.6971 53.7556 43.836 53.9946 44.0787C54.2337 44.3214 54.3676 44.6484 54.3676 44.989C54.3676 45.3297 54.2336 45.6567 53.9946 45.8993C53.7556 46.142 53.4307 46.281 53.0901 46.2862Z" fill="url(#paint0_linear_5313_6496)"/>
<path d="M35.1641 24.2126V35.783C35.1688 36.0286 35.2697 36.2624 35.4451 36.4344C35.6204 36.6063 35.8562 36.7026 36.1018 36.7026C36.3474 36.7026 36.5832 36.6063 36.7585 36.4344C36.9338 36.2624 37.0347 36.0286 37.0395 35.783V24.2126C37.0347 23.967 36.9338 23.7332 36.7585 23.5612C36.5831 23.3893 36.3473 23.293 36.1018 23.293C35.8562 23.293 35.6204 23.3893 35.4451 23.5613C35.2697 23.7332 35.1688 23.9671 35.1641 24.2126Z" fill="url(#paint1_linear_5313_6496)"/>
<path d="M28.2492 23.2773H26.8032C25.7876 23.2784 24.8139 23.6823 24.0958 24.4005C23.3777 25.1186 22.9737 26.0923 22.9727 27.1079V35.7855C22.9774 36.0311 23.0784 36.2649 23.2537 36.4369C23.429 36.6088 23.6648 36.7051 23.9104 36.7051C24.156 36.7051 24.3918 36.6088 24.5671 36.4368C24.7424 36.2649 24.8433 36.031 24.8481 35.7855V30.9385H30.2043V35.7855C30.2092 36.031 30.3102 36.2647 30.4855 36.4366C30.6608 36.6084 30.8966 36.7047 31.1421 36.7047C31.3876 36.7046 31.6233 36.6084 31.7986 36.4365C31.9739 36.2647 32.0749 36.0309 32.0798 35.7855V27.1079C32.0787 26.0923 31.6748 25.1186 30.9566 24.4005C30.2385 23.6823 29.2648 23.2784 28.2492 23.2773ZM30.2043 29.063H24.8481V27.1079C24.8488 26.5896 25.055 26.0927 25.4215 25.7262C25.788 25.3597 26.2849 25.1535 26.8032 25.1528H28.2492C28.7675 25.1535 29.2644 25.3597 29.6309 25.7262C29.9974 26.0927 30.2036 26.5896 30.2043 27.1079V29.063Z" fill="url(#paint2_linear_5313_6496)"/>
<defs>
<linearGradient id="paint0_linear_5313_6496" x1="30.0119" y1="4.92187" x2="30.0119" y2="63.8124" gradientUnits="userSpaceOnUse">
<stop stop-color="#F4853B"/>
<stop offset="1" stop-color="#3448F5"/>
</linearGradient>
<linearGradient id="paint1_linear_5313_6496" x1="36.1018" y1="23.293" x2="36.1018" y2="39.0387" gradientUnits="userSpaceOnUse">
<stop stop-color="#F4853B"/>
<stop offset="1" stop-color="#3448F5"/>
</linearGradient>
<linearGradient id="paint2_linear_5313_6496" x1="27.5262" y1="23.2773" x2="27.5262" y2="39.0443" gradientUnits="userSpaceOnUse">
<stop stop-color="#F4853B"/>
<stop offset="1" stop-color="#3448F5"/>
</linearGradient>
</defs>
</svg>
