<svg width="60" height="60" viewBox="0 0 60 60" fill="none" xmlns="http://www.w3.org/2000/svg">
<path d="M37.7578 26.4619L44.0391 34.0205C44.2617 34.29 44.1914 34.665 43.8867 34.8643C43.582 35.0635 43.1484 35.0049 42.9258 34.7353L36.6445 27.1768L36.457 28.2432C36.3047 29.0283 34.957 28.8291 35.0977 28.0557L35.543 25.5479C35.6016 25.2197 35.9648 24.9971 36.3281 25.0439L39.1992 25.4424C40.0898 25.5713 39.8789 26.7549 38.9883 26.6377L37.7578 26.4619ZM17.2031 34.9697L20.0742 34.5713C20.9648 34.4424 20.7539 33.2588 19.8633 33.376L18.6328 33.54L24.9141 25.9814C25.1367 25.7119 25.0664 25.3369 24.7617 25.1377C24.457 24.9385 24.0234 24.9971 23.8008 25.2666L17.5195 32.8252L17.332 31.7588C17.1797 30.9736 15.832 31.1611 15.9727 31.9463C16.0078 32.0283 16.418 34.7002 16.5117 34.665C16.6523 34.876 16.9219 35.0049 17.2031 34.9697ZM34.5938 44.5439C33.9492 43.9932 32.9766 44.8369 33.6211 45.3994L34.5 46.1729H23.8359C23.4492 46.1729 23.1445 46.4424 23.1445 46.7822C23.1445 47.1221 23.4492 47.3916 23.8359 47.3916H34.5L33.6328 48.1533C33.3633 48.3877 33.3633 48.7744 33.6328 49.0088C33.9023 49.2432 34.3359 49.2432 34.6055 49.0088C34.6758 48.9268 36.8672 47.0869 36.8086 47.0166C36.9141 46.7939 36.8555 46.5244 36.6562 46.3604L34.5938 44.5439ZM21.1875 39.9854V49.9814C21.1875 50.1924 21.0586 50.3916 20.8477 50.5088L10.9688 55.501C10.8633 55.5596 10.7461 55.583 10.6289 55.583C10.5117 55.583 10.3945 55.5596 10.2891 55.501L0.398438 50.4971C0.1875 50.3916 0.0585938 50.1924 0.0585938 49.9697V39.9736C0.0585938 39.7627 0.1875 39.5635 0.398438 39.4463L10.2773 34.4541C10.4883 34.3486 10.7578 34.3486 10.9688 34.4541L20.8477 39.4463C21.0586 39.5635 21.1875 39.7627 21.1875 39.9854ZM9.92578 45.3291C8.48438 44.6025 2.97656 41.8135 1.42969 41.0283V49.6299L9.92578 53.9307V45.3291ZM19.1133 39.9736L10.6172 35.6728L2.12109 39.9736L10.6172 44.2744L19.1133 39.9736ZM19.8047 41.0283C18.293 41.79 12.7148 44.6143 11.3086 45.3291V53.9307L19.8047 49.6299V41.0283ZM59.9414 39.9854V49.9814C59.9414 50.1924 59.8125 50.3916 59.6016 50.5088L49.7227 55.501C49.5117 55.6064 49.2422 55.6064 49.0312 55.501L39.1523 50.5088C38.9414 50.4033 38.8125 50.2041 38.8125 49.9814V39.9854C38.8125 39.7744 38.9414 39.5752 39.1523 39.458L49.0312 34.4658C49.2422 34.3604 49.5117 34.3604 49.7227 34.4658L59.6016 39.458C59.8125 39.5635 59.9414 39.7627 59.9414 39.9854ZM48.6914 45.3291C47.25 44.6025 41.7422 41.8135 40.1953 41.0283V49.6299L48.6914 53.9307V45.3291ZM57.8789 39.9736L49.3828 35.6728L40.8867 39.9736L49.3828 44.2744L57.8789 39.9736ZM58.5703 41.0283C57.0586 41.79 51.4805 44.6143 50.0742 45.3291V53.9307L58.5703 49.6299V41.0283ZM19.1719 20.0283V10.0322C19.1719 9.82129 19.3008 9.62207 19.5117 9.50488L29.3906 4.5127C29.6016 4.40723 29.8711 4.40723 30.082 4.5127L39.9609 9.50488C40.1719 9.61035 40.3008 9.80957 40.3008 10.0322V20.0283C40.3008 20.2393 40.1719 20.4385 39.9609 20.5557L30.0937 25.5479C29.9883 25.6064 29.8711 25.6299 29.7539 25.6299C29.6367 25.6299 29.5195 25.6064 29.4141 25.5479L19.5352 20.5557C19.3125 20.4385 19.1719 20.2393 19.1719 20.0283ZM38.9297 11.0752C37.418 11.8369 31.8398 14.6611 30.4336 15.376V23.9775L38.9297 19.6768V11.0752ZM21.2461 10.0322L29.7422 14.333L38.2383 10.0322L29.7422 5.73145L21.2461 10.0322ZM20.5547 19.6768L29.0508 23.9775V15.376C27.6094 14.6494 22.1016 11.8604 20.5547 11.0752V19.6768ZM33.082 40.501C32.3906 40.501 31.7344 40.29 31.2188 39.8916L27.8672 37.3603C27.1406 36.8096 26.8125 36.001 26.8945 35.2158L25.1602 33.9033C23.2266 32.5322 24.3516 29.5908 26.8242 29.4971C27.5742 29.4502 28.3242 29.6611 28.9102 30.1064L32.2617 32.6377C32.9883 33.1885 33.3164 33.9971 33.2344 34.7822L34.9688 36.0947C36.9727 37.5361 35.6836 40.5596 33.082 40.501ZM30.8203 33.1416L28.0078 31.0088C26.5078 29.9072 24.6094 31.8408 26.0625 32.9775L27.4219 33.9971C28.1484 33.0244 29.6484 32.7197 30.8203 33.1416ZM28.4648 34.8057L29.4141 35.5205C30.1055 36.0479 31.2188 35.8955 31.6641 35.1924L30.7148 34.4775C30.0234 33.9502 28.9102 34.1025 28.4648 34.8057ZM34.0547 37.0088L32.6953 35.9893C31.957 36.9619 30.4922 37.29 29.3086 36.8682L32.1094 38.9893C33.6211 40.0791 35.5195 38.1455 34.0547 37.0088Z" fill="url(#paint0_linear_5313_6506)"/>
<defs>
<linearGradient id="paint0_linear_5313_6506" x1="30" y1="4.43359" x2="30" y2="64.4934" gradientUnits="userSpaceOnUse">
<stop stop-color="#F4853B"/>
<stop offset="1" stop-color="#3448F5"/>
</linearGradient>
</defs>
</svg>
