<svg width="60" height="54" viewBox="0 0 60 54" fill="none" xmlns="http://www.w3.org/2000/svg">
<path d="M0.878906 12.0312C0.393516 12.0312 0 12.4248 0 12.9102V41.0919C0 41.5773 0.393516 41.9708 0.878906 41.9708C1.3643 41.9708 1.75781 41.5773 1.75781 41.0919V12.9102C1.75781 12.4248 1.3643 12.0312 0.878906 12.0312Z" fill="url(#paint0_linear_5313_6455)"/>
<path d="M59.12 12.0312H42.2109C41.7255 12.0312 41.332 12.4248 41.332 12.9102C41.332 13.3957 41.7255 13.7891 42.2109 13.7891H49.7866V41.0919C49.7866 41.5773 50.1802 41.9708 50.6655 41.9708C51.1509 41.9708 51.5445 41.5773 51.5445 41.0919V13.7891H59.12C59.6054 13.7891 59.9989 13.3957 59.9989 12.9102C59.9989 12.4248 59.6054 12.0312 59.12 12.0312Z" fill="url(#paint1_linear_5313_6455)"/>
<path d="M24.3643 12.0312C16.1098 12.0312 9.39453 18.7467 9.39453 27.001C9.39453 35.2554 16.11 41.9708 24.3643 41.9708C32.6186 41.9708 39.3341 35.2554 39.3341 27.001C39.3341 18.7467 32.6186 12.0312 24.3643 12.0312ZM24.3643 40.213C17.0792 40.213 11.1523 34.2861 11.1523 27.001C11.1523 19.7159 17.0792 13.7891 24.3643 13.7891C31.6494 13.7891 37.5762 19.7159 37.5762 27.001C37.5762 34.2861 31.6494 40.213 24.3643 40.213Z" fill="url(#paint2_linear_5313_6455)"/>
<path d="M24.3645 8.27344C21.8574 8.27344 19.4204 8.76305 17.1209 9.72844C16.6734 9.91641 16.4629 10.4316 16.6508 10.8791C16.8386 11.3266 17.3538 11.5371 17.8013 11.3493C19.8842 10.4747 22.0924 10.0312 24.3645 10.0312C26.6367 10.0312 28.8448 10.4747 30.9277 11.3493C31.0388 11.3959 31.1541 11.4179 31.2676 11.4179C31.6109 11.4179 31.937 11.2154 32.0783 10.879C32.2662 10.4314 32.0558 9.91629 31.6081 9.72832C29.3086 8.76305 26.8716 8.27344 24.3645 8.27344Z" fill="url(#paint3_linear_5313_6455)"/>
<path d="M32.7223 7.95086C33.0657 7.95086 33.3918 7.74836 33.533 7.41191C33.721 6.96438 33.5105 6.44922 33.0629 6.26125C30.304 5.10297 27.3779 4.51562 24.3653 4.51562C21.3528 4.51562 18.4265 5.10297 15.6678 6.26125C15.2202 6.44922 15.0098 6.96438 15.1976 7.41191C15.3856 7.85957 15.9009 8.06981 16.3482 7.88207C18.8902 6.81473 21.5875 6.27344 24.3652 6.27344C27.1428 6.27344 29.8401 6.81461 32.3822 7.88207C32.4937 7.92871 32.609 7.95086 32.7223 7.95086Z" fill="url(#paint4_linear_5313_6455)"/>
<path d="M14.8914 4.41594C17.8945 3.155 21.0809 2.51574 24.3619 2.51574C27.6429 2.51574 30.8292 3.15512 33.8324 4.41594C33.9435 4.46258 34.0588 4.48461 34.1722 4.48461C34.5156 4.48461 34.8417 4.28211 34.9829 3.94566C35.1709 3.49812 34.9604 2.98297 34.5128 2.79512C31.2931 1.44324 27.8778 0.757812 24.3618 0.757812C20.8458 0.757812 17.4306 1.44324 14.2108 2.79512C13.7632 2.98309 13.5527 3.49824 13.7406 3.94566C13.9288 4.39332 14.444 4.60379 14.8914 4.41594Z" fill="url(#paint5_linear_5313_6455)"/>
<path d="M24.3646 45.7266C26.8717 45.7266 29.3087 45.237 31.6082 44.2716C32.0557 44.0836 32.2662 43.5685 32.0783 43.1209C31.8905 42.6734 31.3753 42.4629 30.9278 42.6508C28.8449 43.5253 26.6367 43.9688 24.3646 43.9688C22.0924 43.9688 19.8843 43.5253 17.8014 42.6508C17.3538 42.4629 16.8387 42.6734 16.6508 43.1209C16.4629 43.5685 16.6733 44.0836 17.121 44.2716C19.4204 45.237 21.8576 45.7266 24.3646 45.7266Z" fill="url(#paint6_linear_5313_6455)"/>
<path d="M15.1977 46.5897C15.0097 47.0373 15.2202 47.5524 15.6679 47.7404C18.4266 48.8987 21.3529 49.486 24.3654 49.486C27.3779 49.486 30.3041 48.8987 33.0629 47.7404C33.5105 47.5524 33.7209 47.0373 33.5331 46.5897C33.3452 46.1422 32.8301 45.9316 32.3825 46.1196C29.8404 47.1869 27.1431 47.7282 24.3655 47.7282C21.5878 47.7282 18.8905 47.187 16.3485 46.1196C15.9011 45.9317 15.3855 46.1421 15.1977 46.5897Z" fill="url(#paint7_linear_5313_6455)"/>
<path d="M33.8322 49.5844C30.8291 50.8453 27.6427 51.4845 24.3617 51.4845C21.0807 51.4845 17.8944 50.8452 14.8912 49.5844C14.4438 49.3965 13.9285 49.607 13.7407 50.0545C13.5527 50.502 13.7632 51.0172 14.2108 51.2051C17.4305 52.5569 20.8459 53.2424 24.3618 53.2424C27.8778 53.2424 31.293 52.5569 34.5129 51.2051C34.9604 51.0171 35.1709 50.5019 34.983 50.0545C34.795 49.607 34.2799 49.3966 33.8322 49.5844Z" fill="url(#paint8_linear_5313_6455)"/>
<path d="M17.6779 20.3147C20.9013 17.0914 25.964 16.629 29.7162 19.2149C30.116 19.4904 30.6633 19.3897 30.9387 18.99C31.2142 18.5903 31.1136 18.0431 30.7138 17.7675C26.2633 14.7002 20.2583 15.2485 16.435 19.0717C12.6119 22.8948 12.0633 28.8999 15.1308 33.3506C15.3013 33.5978 15.5759 33.7307 15.8553 33.7307C16.0272 33.7307 16.201 33.6803 16.3533 33.5754C16.7531 33.2999 16.8537 32.7527 16.5782 32.3529C13.9921 28.6009 14.4547 23.5381 17.6779 20.3147Z" fill="url(#paint9_linear_5313_6455)"/>
<path d="M32.3736 20.4249C31.9738 20.7004 31.8732 21.2477 32.1487 21.6474C34.7348 25.3995 34.2722 30.4623 31.0489 33.6857C27.8255 36.9091 22.7628 37.3715 19.0107 34.7855C18.6109 34.51 18.0636 34.6108 17.7882 35.0104C17.5127 35.4101 17.6133 35.9574 18.013 36.2329C19.9403 37.5612 22.1586 38.2114 24.3654 38.2114C27.2547 38.2114 30.1243 37.0962 32.2918 34.9287C36.115 31.1056 36.6634 25.1005 33.5959 20.6499C33.3206 20.25 32.7734 20.1494 32.3736 20.4249Z" fill="url(#paint10_linear_5313_6455)"/>
<defs>
<linearGradient id="paint0_linear_5313_6455" x1="0.878906" y1="12.0312" x2="0.878906" y2="47.1864" gradientUnits="userSpaceOnUse">
<stop stop-color="#F4853B"/>
<stop offset="1" stop-color="#3448F5"/>
</linearGradient>
<linearGradient id="paint1_linear_5313_6455" x1="50.6655" y1="12.0312" x2="50.6655" y2="47.1864" gradientUnits="userSpaceOnUse">
<stop stop-color="#F4853B"/>
<stop offset="1" stop-color="#3448F5"/>
</linearGradient>
<linearGradient id="paint2_linear_5313_6455" x1="24.3643" y1="12.0312" x2="24.3643" y2="47.1864" gradientUnits="userSpaceOnUse">
<stop stop-color="#F4853B"/>
<stop offset="1" stop-color="#3448F5"/>
</linearGradient>
<linearGradient id="paint3_linear_5313_6455" x1="24.3645" y1="8.27344" x2="24.3645" y2="11.9658" gradientUnits="userSpaceOnUse">
<stop stop-color="#F4853B"/>
<stop offset="1" stop-color="#3448F5"/>
</linearGradient>
<linearGradient id="paint4_linear_5313_6455" x1="24.3654" y1="4.51562" x2="24.3654" y2="8.54929" gradientUnits="userSpaceOnUse">
<stop stop-color="#F4853B"/>
<stop offset="1" stop-color="#3448F5"/>
</linearGradient>
<linearGradient id="paint5_linear_5313_6455" x1="24.3618" y1="0.757812" x2="24.3618" y2="5.13389" gradientUnits="userSpaceOnUse">
<stop stop-color="#F4853B"/>
<stop offset="1" stop-color="#3448F5"/>
</linearGradient>
<linearGradient id="paint6_linear_5313_6455" x1="24.3645" y1="42.582" x2="24.3645" y2="46.2744" gradientUnits="userSpaceOnUse">
<stop stop-color="#F4853B"/>
<stop offset="1" stop-color="#3448F5"/>
</linearGradient>
<linearGradient id="paint7_linear_5313_6455" x1="24.3654" y1="46.0508" x2="24.3654" y2="50.0844" gradientUnits="userSpaceOnUse">
<stop stop-color="#F4853B"/>
<stop offset="1" stop-color="#3448F5"/>
</linearGradient>
<linearGradient id="paint8_linear_5313_6455" x1="24.3618" y1="49.5156" x2="24.3618" y2="53.8916" gradientUnits="userSpaceOnUse">
<stop stop-color="#F4853B"/>
<stop offset="1" stop-color="#3448F5"/>
</linearGradient>
<linearGradient id="paint9_linear_5313_6455" x1="22.1232" y1="15.7891" x2="22.1232" y2="36.8562" gradientUnits="userSpaceOnUse">
<stop stop-color="#F4853B"/>
<stop offset="1" stop-color="#3448F5"/>
</linearGradient>
<linearGradient id="paint10_linear_5313_6455" x1="26.6036" y1="20.2695" x2="26.6036" y2="41.3369" gradientUnits="userSpaceOnUse">
<stop stop-color="#F4853B"/>
<stop offset="1" stop-color="#3448F5"/>
</linearGradient>
</defs>
</svg>
