<svg width="60" height="60" viewBox="0 0 60 60" fill="none" xmlns="http://www.w3.org/2000/svg">
<path d="M15.1344 34.903C15.2785 34.903 15.4223 34.8657 15.5511 34.7915L29.9514 26.4824C30.2096 26.3331 30.3767 26.0584 30.3767 25.7605V9.14225C30.3767 8.8443 30.2096 8.5696 29.9514 8.42053L15.5554 0.11124C15.2976 -0.03708 14.9777 -0.03708 14.7199 0.11124L0.372394 8.42072C0.114381 8.56941 0 8.84449 0 9.14244V25.7606C0 26.0586 0.113631 26.3339 0.371457 26.4826L14.7407 34.7917C14.8697 34.8657 14.9906 34.903 15.1344 34.903ZM15.9383 32.6267V17.9329L28.6889 10.5861V25.2799L15.9383 32.6267ZM15.1344 1.79507L27.8598 9.14263L15.1344 16.4898L2.40931 9.14263L15.1344 1.79507ZM1.68758 10.5861L14.4382 17.9329V32.6267L1.68758 25.2799V10.5861Z" fill="url(#paint0_linear_5313_6482)"/>
<path d="M59.5386 33.518L45.1228 25.2089C44.8654 25.0606 44.5358 25.0606 44.2783 25.2089L29.8701 33.518C29.6123 33.6667 29.4375 33.9418 29.4375 34.2397V50.8585C29.4375 51.1563 29.6063 51.4315 29.8643 51.5802L44.2612 59.8893C44.3901 59.9636 44.5365 60.0009 44.6803 60.0009C44.8241 60.0009 44.9691 59.9636 45.0981 59.8893L59.5376 51.5802C59.7953 51.4315 60.0015 51.1563 60.0015 50.8585V34.2397C60.0017 33.9418 59.7962 33.6667 59.5386 33.518ZM58.1266 50.3773L44.6256 58.2055L31.1253 50.3773V34.7207L44.6256 26.8925L58.1266 34.7207V50.3773Z" fill="url(#paint1_linear_5313_6482)"/>
<path d="M34.7783 35.8655C34.3796 35.6358 33.8701 35.7719 33.6399 36.1706C33.4096 36.5692 33.5593 37.0789 33.9581 37.309L43.8762 43.028V54.4659C43.8762 54.926 44.1661 55.2992 44.6262 55.2992C45.0864 55.2992 45.3763 54.926 45.3763 54.4659V43.028L55.352 37.309C55.7506 37.0789 55.9226 36.5692 55.6923 36.1706C55.4618 35.7719 54.9696 35.6358 54.5714 35.8655L44.6746 41.5849L34.7783 35.8655Z" fill="url(#paint2_linear_5313_6482)"/>
<path d="M35.3255 7.87508H49.6878C50.9433 7.87508 51.936 8.96339 51.936 10.219V22.5691L50.5559 21.1744C50.2304 20.8489 49.7101 20.8489 49.3846 21.174C49.0594 21.4995 49.0624 22.027 49.3881 22.3527L52.2062 25.1696C52.2257 25.1891 52.2471 25.2077 52.2685 25.2253C52.2743 25.23 52.2808 25.2341 52.2868 25.2386C52.3024 25.2506 52.3181 25.2626 52.3343 25.2737C52.3412 25.2782 52.3487 25.282 52.3556 25.2865C52.3716 25.2966 52.3877 25.3067 52.4046 25.3157C52.4104 25.3189 52.4166 25.3213 52.4226 25.3243C52.441 25.3335 52.4591 25.3427 52.4785 25.3506C52.4831 25.3526 52.4884 25.3541 52.4933 25.356C52.5135 25.3641 52.534 25.3718 52.5552 25.3783C52.5598 25.3798 52.5651 25.3808 52.57 25.3821C52.591 25.3881 52.6123 25.3939 52.6341 25.3982C52.6425 25.3999 52.6512 25.4006 52.6598 25.4021C52.6782 25.4051 52.6963 25.4085 52.7151 25.4104C52.7427 25.4132 52.7706 25.4145 52.7984 25.4145C52.8263 25.4145 52.8542 25.413 52.8816 25.4104C52.9017 25.4083 52.9214 25.405 52.9409 25.4016C52.948 25.4003 52.9551 25.3997 52.9622 25.3982C52.9857 25.3935 53.0084 25.3875 53.031 25.3808C53.0344 25.38 53.0376 25.3793 53.041 25.3783C53.0631 25.3716 53.0845 25.3635 53.1061 25.3551C53.11 25.3536 53.1139 25.3523 53.1179 25.3508C53.1366 25.3429 53.1546 25.3339 53.1728 25.3249C53.179 25.3217 53.1856 25.3189 53.1921 25.3155C53.2062 25.308 53.2195 25.2994 53.2332 25.2911C53.2429 25.2851 53.2531 25.2795 53.2628 25.2731C53.2705 25.2679 53.2774 25.2621 53.2849 25.2568C53.3209 25.2308 53.3556 25.2026 53.3877 25.1709L56.2056 22.3531C56.5311 22.0275 56.5311 21.5001 56.2061 21.1744C55.8806 20.8489 55.3487 20.8494 55.0233 21.174L53.6236 22.5694V10.219C53.6236 8.0444 51.8623 6.1875 49.6878 6.1875H35.3255C34.8651 6.1875 34.4922 6.57114 34.4922 7.03129C34.4922 7.49144 34.8651 7.87508 35.3255 7.87508Z" fill="url(#paint3_linear_5313_6482)"/>
<path d="M24.4898 52.1287H10.1281C8.87237 52.1287 7.87576 51.0406 7.87576 49.7846V37.4347L9.25864 38.8296C9.42121 38.9923 9.62822 39.0737 9.8416 39.0737C10.055 39.0737 10.265 38.9923 10.4278 38.8296C10.7529 38.5046 10.7514 37.9766 10.4261 37.6514L7.60781 34.8339C7.58812 34.8144 7.5673 34.7959 7.54574 34.7782C7.53693 34.7707 7.52699 34.7644 7.5178 34.7574C7.50543 34.7481 7.49305 34.7385 7.4803 34.7299C7.46868 34.722 7.45648 34.7154 7.44486 34.7083C7.43342 34.7016 7.42217 34.6942 7.41036 34.6881C7.39836 34.6815 7.38542 34.6761 7.37304 34.6701C7.36104 34.6644 7.34885 34.6582 7.33648 34.6532C7.32448 34.6483 7.31192 34.6442 7.29954 34.6397C7.28642 34.635 7.2731 34.6299 7.2596 34.6258C7.24723 34.6221 7.23447 34.6192 7.22191 34.6161C7.20804 34.6125 7.19454 34.6087 7.18066 34.6059C7.16585 34.6029 7.15085 34.6012 7.13622 34.5992C7.12422 34.5975 7.11241 34.5952 7.10022 34.5939C7.04546 34.5885 6.99034 34.5885 6.93558 34.5939C6.92358 34.595 6.91158 34.5975 6.89958 34.5992C6.88477 34.6012 6.86996 34.6031 6.85514 34.6059C6.84127 34.6087 6.82777 34.6125 6.8137 34.6161C6.80133 34.6192 6.78858 34.6221 6.77601 34.6258C6.76251 34.6299 6.7492 34.635 6.73607 34.6399C6.72389 34.6442 6.71132 34.6483 6.69914 34.6534C6.68657 34.6586 6.67438 34.6648 6.6622 34.6706C6.6502 34.6764 6.63763 34.6819 6.62563 34.6882C6.61344 34.6948 6.60182 34.7021 6.59001 34.7092C6.57838 34.7162 6.56694 34.7226 6.55569 34.7299C6.54182 34.7392 6.5285 34.7496 6.51538 34.7597C6.50694 34.7661 6.49831 34.7717 6.49025 34.7784C6.4685 34.7962 6.4475 34.815 6.42781 34.8349L3.61104 37.6518C3.2859 37.9768 3.2859 38.5048 3.61104 38.8299C3.93656 39.1555 4.46609 39.1555 4.7916 38.8299L6.18874 37.4351V49.7848C6.18874 51.9599 7.95395 53.8164 10.1287 53.8164H24.4904C24.9505 53.8164 25.3239 53.4328 25.3239 52.9727C25.3239 52.5125 24.95 52.1287 24.4898 52.1287Z" fill="url(#paint4_linear_5313_6482)"/>
<defs>
<linearGradient id="paint0_linear_5313_6482" x1="15.1884" y1="0" x2="15.1884" y2="40.9833" gradientUnits="userSpaceOnUse">
<stop stop-color="#F4853B"/>
<stop offset="1" stop-color="#3448F5"/>
</linearGradient>
<linearGradient id="paint1_linear_5313_6482" x1="44.7195" y1="25.0977" x2="44.7195" y2="66.0812" gradientUnits="userSpaceOnUse">
<stop stop-color="#F4853B"/>
<stop offset="1" stop-color="#3448F5"/>
</linearGradient>
<linearGradient id="paint2_linear_5313_6482" x1="44.6635" y1="35.7539" x2="44.6635" y2="58.704" gradientUnits="userSpaceOnUse">
<stop stop-color="#F4853B"/>
<stop offset="1" stop-color="#3448F5"/>
</linearGradient>
<linearGradient id="paint3_linear_5313_6482" x1="45.471" y1="6.1875" x2="45.471" y2="28.7639" gradientUnits="userSpaceOnUse">
<stop stop-color="#F4853B"/>
<stop offset="1" stop-color="#3448F5"/>
</linearGradient>
<linearGradient id="paint4_linear_5313_6482" x1="14.3455" y1="34.5898" x2="14.3455" y2="57.1658" gradientUnits="userSpaceOnUse">
<stop stop-color="#F4853B"/>
<stop offset="1" stop-color="#3448F5"/>
</linearGradient>
</defs>
</svg>
