<svg width="60" height="60" viewBox="0 0 60 60" fill="none" xmlns="http://www.w3.org/2000/svg">
<g clip-path="url(#clip0_5313_6445)">
<path d="M56.5496 33.8629C54.9711 33.8629 53.6375 34.927 53.2273 36.3742H47.7758V32.125H50.5449C55.7586 32.125 60.0008 27.8828 60.0008 22.6691C60.0008 22.5625 59.9973 22.4512 59.9937 22.3445C59.9762 21.8266 59.5414 21.4199 59.0234 21.4387C58.5055 21.4562 58.1 21.891 58.1176 22.409C58.1211 22.4945 58.1234 22.5836 58.1234 22.6691C58.1234 26.848 54.7238 30.2477 50.5449 30.2477H36.7566V24.8277C36.7566 23.4133 35.6059 22.2613 34.1902 22.2613H16.7914C16.9566 19.1617 19.0004 16.4652 21.9828 15.4738C22.3813 15.3414 22.6438 14.9594 22.6238 14.5398C22.618 14.4098 22.6145 14.2832 22.6145 14.152C22.6145 9.27695 26.5801 5.31133 31.4551 5.31133C34.6894 5.31133 37.6637 7.07734 39.2187 9.91914C39.3406 10.1418 39.5469 10.3059 39.7918 10.3738C40.0367 10.4418 40.298 10.4066 40.5172 10.2789C41.5684 9.66133 42.7707 9.33555 43.9953 9.33555C47.1148 9.33555 49.8465 11.4402 50.6387 14.452C50.7371 14.8246 51.0523 15.1 51.4355 15.1457C54.2562 15.4809 56.7055 17.4344 57.6758 20.1203C57.8516 20.6078 58.3895 20.8598 58.8769 20.684C59.3645 20.5082 59.6164 19.9703 59.4406 19.4828C58.3027 16.3316 55.5289 13.9902 52.2723 13.3773C51.0746 9.86289 47.7559 7.45937 43.9941 7.45937C42.7473 7.45937 41.518 7.72539 40.3906 8.23516C38.4137 5.25391 35.068 3.4375 31.4551 3.4375C25.6168 3.4375 20.8543 8.12852 20.7395 13.9398C17.3445 15.3473 15.0676 18.5863 14.9105 22.266H2.56367C1.14922 22.266 -0.00273438 23.4168 -0.00273438 24.8324V37.1336C-0.00273438 37.6516 0.416797 38.0723 0.935938 38.0723C1.45508 38.0723 1.87461 37.6527 1.87461 37.1336V24.8289C1.87461 24.4551 2.18984 24.1398 2.56367 24.1398H15.8563H15.8574H15.8598H34.1914C34.5711 24.1398 34.8805 24.4492 34.8805 24.8289V43.3703H1.87344V39.7082C1.87344 39.1902 1.45391 38.7695 0.934766 38.7695C0.415625 38.7695 -0.00390625 39.1891 -0.00390625 39.7082V47.7742C-0.00390625 49.1887 1.14687 50.3406 2.5625 50.3406H13.148L12.5035 54.6859H10.7422C10.2242 54.6859 9.80352 55.1055 9.80352 55.6246C9.80352 56.1437 10.223 56.5633 10.7422 56.5633H13.3133H23.4453H26.0129C26.5309 56.5633 26.9516 56.1437 26.9516 55.6246C26.9516 55.1055 26.532 54.6859 26.0129 54.6859H24.2539L23.607 50.3406H34.1914C35.6059 50.3406 36.7578 49.1898 36.7578 47.7742V32.1262H41.3422V40.0504C39.8949 40.4605 38.8309 41.793 38.8309 43.3691C38.8309 45.2711 40.3789 46.8191 42.2809 46.8191C44.1828 46.8191 45.7309 45.2711 45.7309 43.3691C45.7309 41.7918 44.6668 40.4605 43.2195 40.0504V32.1262H45.9008V37.3129C45.9008 37.8309 46.3203 38.2516 46.8395 38.2516H53.2309C53.641 39.6988 54.9746 40.7629 56.5531 40.7629C58.4551 40.7629 60.0031 39.2148 60.0031 37.3129C60.0031 35.4109 58.4516 33.8629 56.5496 33.8629ZM22.3555 54.6848H14.4008L15.0453 50.3395H21.7086L22.3555 54.6848ZM34.1902 48.4621H2.56367C2.18984 48.4621 1.87461 48.1469 1.87461 47.773V45.2465H34.8805V47.773C34.8805 48.1539 34.5711 48.4621 34.1902 48.4621ZM43.8523 43.368C43.8523 44.2352 43.1469 44.9406 42.2797 44.9406C41.4125 44.9406 40.707 44.2352 40.707 43.368C40.707 42.5008 41.4125 41.7953 42.2797 41.7953C43.1469 41.7953 43.8523 42.5008 43.8523 43.368ZM56.5496 38.8855C55.6801 38.8855 54.9734 38.1801 54.9734 37.3129C54.9734 36.4457 55.6812 35.7402 56.5496 35.7402C57.4168 35.7402 58.1223 36.4457 58.1223 37.3129C58.1223 38.1801 57.4168 38.8855 56.5496 38.8855Z" fill="url(#paint0_linear_5313_6445)"/>
</g>
<defs>
<linearGradient id="paint0_linear_5313_6445" x1="29.9996" y1="3.4375" x2="29.9996" y2="65.818" gradientUnits="userSpaceOnUse">
<stop stop-color="#F4853B"/>
<stop offset="1" stop-color="#3448F5"/>
</linearGradient>
<clipPath id="clip0_5313_6445">
<rect width="60" height="60" fill="white"/>
</clipPath>
</defs>
</svg>
