<svg width="42" height="42" viewBox="0 0 42 42" fill="none" xmlns="http://www.w3.org/2000/svg">
<path d="M39.3194 30.3566H2.6875C2.32656 30.3566 2.03125 30.0612 2.03125 29.7003V6.75781C2.03125 6.39687 2.32656 6.10156 2.6875 6.10156H39.3259C39.6869 6.10156 39.9822 6.39687 39.9822 6.75781V29.7003C39.9756 30.0612 39.6869 30.3566 39.3194 30.3566ZM3.34375 29.0441H38.6697V7.41406H3.34375V29.0441Z" fill="#A276E5"/>
<path d="M19.0701 24.0508C18.7092 24.0508 18.4139 23.7555 18.4139 23.3945V19.2339H14.1942C13.9382 19.2339 13.702 19.083 13.597 18.8467C13.492 18.6105 13.5314 18.3348 13.702 18.1445L18.5779 12.6583C18.7617 12.4548 19.0504 12.3827 19.2998 12.4811C19.5557 12.5795 19.7198 12.8223 19.7198 13.0914V23.3945C19.7264 23.7555 19.431 24.0508 19.0701 24.0508ZM15.651 17.928H18.4139V14.8239L15.651 17.928Z" fill="#A276E5"/>
<path d="M22.25 24.0531C21.8891 24.0531 21.5938 23.7578 21.5938 23.3969V13.0938C21.5938 12.7328 21.8891 12.4375 22.25 12.4375C22.6109 12.4375 22.9062 12.7328 22.9062 13.0938V23.3969C22.9062 23.7578 22.6109 24.0531 22.25 24.0531Z" fill="#A276E5"/>
<path d="M26.9373 24.051C26.7601 24.051 26.5829 23.9788 26.4516 23.8345L21.766 18.6829C21.5363 18.4335 21.5363 18.0529 21.766 17.797L26.4516 12.6454C26.6945 12.3763 27.1079 12.3566 27.377 12.5995C27.646 12.8423 27.6657 13.2557 27.4229 13.5248L23.1376 18.2366L27.4229 22.9485C27.6657 23.2176 27.646 23.631 27.377 23.8738C27.2523 23.9985 27.0948 24.051 26.9373 24.051Z" fill="#A276E5"/>
<path d="M26.1547 33.5344H15.8516C15.4906 33.5344 15.1953 33.2391 15.1953 32.8781V29.6953C15.1953 29.3344 15.4906 29.0391 15.8516 29.0391H26.1547C26.5156 29.0391 26.8109 29.3344 26.8109 29.6953V32.8781C26.8109 33.2391 26.5156 33.5344 26.1547 33.5344ZM16.5078 32.2219H25.4984V30.3516H16.5078V32.2219Z" fill="#A276E5"/>
<path d="M11.7534 35.8972C11.5237 35.8972 11.3072 35.7791 11.1825 35.5691C10.9987 35.2541 11.1103 34.8537 11.4253 34.67L15.5203 32.3075C15.8353 32.1237 16.2356 32.2353 16.4194 32.5503C16.6031 32.8653 16.4916 33.2656 16.1766 33.4494L12.0816 35.8119C11.9766 35.8709 11.865 35.8972 11.7534 35.8972Z" fill="#A276E5"/>
<path d="M30.2439 35.8982C30.1324 35.8982 30.0208 35.8719 29.9158 35.8129L25.8208 33.4504C25.5058 33.2666 25.4008 32.8663 25.578 32.5513C25.7618 32.2363 26.1621 32.1313 26.4771 32.3085L30.5721 34.671C30.8871 34.8547 30.9921 35.255 30.8149 35.57C30.6902 35.78 30.4671 35.8982 30.2439 35.8982Z" fill="#A276E5"/>
</svg>
