<svg width="42" height="42" viewBox="0 0 42 42" fill="none" xmlns="http://www.w3.org/2000/svg">
<path d="M2.34277 5.89551C2.50494 5.85348 2.6744 5.84804 2.83887 5.87988L2.83789 5.88086C14.837 8.17617 27.163 8.17519 39.1621 5.87988L39.165 5.87891C39.33 5.84976 39.4997 5.85862 39.6611 5.90332C39.8227 5.94809 39.9731 6.02772 40.0996 6.1377H40.0986C40.2239 6.24296 40.3252 6.37417 40.3945 6.52246C40.4644 6.67192 40.5002 6.83502 40.5 7V29.75C40.5 30.0483 40.3818 30.3349 40.1709 30.5459C39.9599 30.7569 39.6734 30.875 39.375 30.875H39.3516L39.3281 30.8711C33.6547 29.7944 27.8988 29.2116 22.125 29.1289V32.3711L28.2676 33.8818C28.5641 33.953 28.8211 34.1394 28.9805 34.3994C29.1398 34.6594 29.1893 34.972 29.1182 35.2686C29.047 35.5651 28.8606 35.8211 28.6006 35.9805C28.3406 36.1397 28.0279 36.1893 27.7314 36.1182L27.7275 36.1172L21 34.3828L14.2725 36.1172L14.2686 36.1182C14.1217 36.1534 13.9694 36.1594 13.8203 36.1357C13.6712 36.1121 13.5282 36.0594 13.3994 35.9805C13.1394 35.8211 12.953 35.5651 12.8818 35.2686C12.8466 35.1218 12.8406 34.9694 12.8643 34.8203C12.8879 34.6712 12.9407 34.5281 13.0195 34.3994C13.0984 34.2707 13.2021 34.159 13.3242 34.0703C13.4463 33.9816 13.5847 33.9171 13.7314 33.8818L19.875 32.3545V29.1289C14.5188 29.2021 9.17835 29.7174 3.9082 30.6709L2.83887 30.8711C2.67444 30.9029 2.50489 30.8975 2.34277 30.8555C2.18064 30.8134 2.02963 30.7357 1.90137 30.6279C1.7731 30.5201 1.66997 30.3849 1.60059 30.2324C1.53124 30.08 1.49699 29.9136 1.5 29.7461V7C1.4977 6.83412 1.5319 6.66961 1.60059 6.51855C1.66997 6.36599 1.77305 6.23087 1.90137 6.12305C2.02966 6.01526 2.18058 5.93757 2.34277 5.89551ZM38.25 8.34668C26.839 10.373 15.161 10.3731 3.75 8.34668V28.4023C15.1608 26.376 26.8392 26.3761 38.25 28.4023V8.34668Z" fill="#A276E5" stroke="#A276E5" stroke-width="0.5"/>
<path d="M19.25 15.75V21C19.25 21.2321 19.3422 21.4546 19.5063 21.6187C19.6704 21.7828 19.8929 21.875 20.125 21.875H21.875C22.1071 21.875 22.3296 21.7828 22.4937 21.6187C22.6578 21.4546 22.75 21.2321 22.75 21C22.75 20.7679 22.6578 20.5454 22.4937 20.3813C22.3296 20.2172 22.1071 20.125 21.875 20.125H21V19.25H21.875C22.1071 19.25 22.3296 19.1578 22.4937 18.9937C22.6578 18.8296 22.75 18.6071 22.75 18.375C22.75 18.1429 22.6578 17.9204 22.4937 17.7563C22.3296 17.5922 22.1071 17.5 21.875 17.5H21V16.625H21.875C22.1071 16.625 22.3296 16.5328 22.4937 16.3687C22.6578 16.2046 22.75 15.9821 22.75 15.75C22.75 15.5179 22.6578 15.2954 22.4937 15.1313C22.3296 14.9672 22.1071 14.875 21.875 14.875H20.125C19.8929 14.875 19.6704 14.9672 19.5063 15.1313C19.3422 15.2954 19.25 15.5179 19.25 15.75Z" fill="#A276E5"/>
<path d="M17.5 20.125H16.625V15.75C16.625 15.5179 16.5328 15.2954 16.3687 15.1313C16.2046 14.9672 15.9821 14.875 15.75 14.875C15.5179 14.875 15.2954 14.9672 15.1313 15.1313C14.9672 15.2954 14.875 15.5179 14.875 15.75V21C14.875 21.2321 14.9672 21.4546 15.1313 21.6187C15.2954 21.7828 15.5179 21.875 15.75 21.875H17.5C17.7321 21.875 17.9546 21.7828 18.1187 21.6187C18.2828 21.4546 18.375 21.2321 18.375 21C18.375 20.7679 18.2828 20.5454 18.1187 20.3813C17.9546 20.2172 17.7321 20.125 17.5 20.125Z" fill="#A276E5"/>
<path d="M24.5 21.875H25.375C26.0712 21.875 26.7389 21.5984 27.2312 21.1062C27.7234 20.6139 28 19.9462 28 19.25V17.5C28 16.8038 27.7234 16.1361 27.2312 15.6438C26.7389 15.1516 26.0712 14.875 25.375 14.875H24.5C24.2679 14.875 24.0454 14.9672 23.8813 15.1313C23.7172 15.2954 23.625 15.5179 23.625 15.75V21C23.625 21.2321 23.7172 21.4546 23.8813 21.6187C24.0454 21.7828 24.2679 21.875 24.5 21.875ZM25.375 16.625C25.6071 16.625 25.8296 16.7172 25.9937 16.8813C26.1578 17.0454 26.25 17.2679 26.25 17.5V19.25C26.25 19.4821 26.1578 19.7046 25.9937 19.8687C25.8296 20.0328 25.6071 20.125 25.375 20.125V16.625Z" fill="#A276E5"/>
</svg>
