<svg width="42" height="42" viewBox="0 0 42 42" fill="none" xmlns="http://www.w3.org/2000/svg">
<path d="M23.625 29.25H18.375C16.9253 29.25 15.75 30.4253 15.75 31.875V37.125C15.75 38.5747 16.9253 39.75 18.375 39.75H23.625C25.0747 39.75 26.25 38.5747 26.25 37.125V31.875C26.25 30.4253 25.0747 29.25 23.625 29.25Z" fill="#DED6FF"/>
<path d="M23.625 15.75H18.375C16.9253 15.75 15.75 16.9253 15.75 18.375V23.625C15.75 25.0747 16.9253 26.25 18.375 26.25H23.625C25.0747 26.25 26.25 25.0747 26.25 23.625V18.375C26.25 16.9253 25.0747 15.75 23.625 15.75Z" fill="#D1D5FC"/>
<path d="M23.625 2.25H18.375C16.9253 2.25 15.75 3.42525 15.75 4.875V10.125C15.75 11.5747 16.9253 12.75 18.375 12.75H23.625C25.0747 12.75 26.25 11.5747 26.25 10.125V4.875C26.25 3.42525 25.0747 2.25 23.625 2.25Z" fill="#A276E5"/>
<path d="M16.5 31.8746V37.1254C16.5 38.1626 17.338 39 18.3746 39H23.6254C24.6626 39 25.5 38.162 25.5 37.1254V31.8746C25.5 30.8374 24.662 30 23.6254 30H18.3746C17.3374 30 16.5 30.838 16.5 31.8746ZM15 31.8746C15 30.0109 16.5077 28.5 18.3746 28.5H23.6254C25.4891 28.5 27 30.0077 27 31.8746V37.1254C27 38.9891 25.4923 40.5 23.6254 40.5H18.3746C16.5109 40.5 15 38.9923 15 37.1254V31.8746Z" fill="#A276E5"/>
<path d="M16.5 18.3746V23.6254C16.5 24.6626 17.338 25.5 18.3746 25.5H23.6254C24.6626 25.5 25.5 24.662 25.5 23.6254V18.3746C25.5 17.3374 24.662 16.5 23.6254 16.5H18.3746C17.3374 16.5 16.5 17.338 16.5 18.3746ZM15 18.3746C15 16.5109 16.5077 15 18.3746 15H23.6254C25.4891 15 27 16.5077 27 18.3746V23.6254C27 25.4891 25.4923 27 23.6254 27H18.3746C16.5109 27 15 25.4923 15 23.6254V18.3746Z" fill="#A276E5"/>
<path d="M16.5 4.8746V10.1254C16.5 11.1626 17.338 12 18.3746 12H23.6254C24.6626 12 25.5 11.162 25.5 10.1254V4.8746C25.5 3.83741 24.662 3 23.6254 3H18.3746C17.3374 3 16.5 3.83796 16.5 4.8746ZM15 4.8746C15 3.01086 16.5077 1.5 18.3746 1.5H23.6254C25.4891 1.5 27 3.00766 27 4.8746V10.1254C27 11.9891 25.4923 13.5 23.6254 13.5H18.3746C16.5109 13.5 15 11.9923 15 10.1254V4.8746Z" fill="#A276E5"/>
</svg>
