<svg width="44" height="44" viewBox="0 0 44 44" fill="none" xmlns="http://www.w3.org/2000/svg">
<path d="M2.39844 4.56692L6.31906 1" stroke="#A276E5" stroke-miterlimit="10" stroke-linecap="round" stroke-linejoin="round"/>
<path d="M10.2408 4.56692L6.32031 1" stroke="#A276E5" stroke-miterlimit="10" stroke-linecap="round" stroke-linejoin="round"/>
<path d="M10.2344 4.56692L14.1549 1" stroke="#A276E5" stroke-miterlimit="10" stroke-linecap="round" stroke-linejoin="round"/>
<path d="M18.0769 4.56692L14.1562 1" stroke="#A276E5" stroke-miterlimit="10" stroke-linecap="round" stroke-linejoin="round"/>
<path d="M18.0781 4.56692L21.9987 1" stroke="#A276E5" stroke-miterlimit="10" stroke-linecap="round" stroke-linejoin="round"/>
<path d="M25.9205 4.56692L22 1" stroke="#A276E5" stroke-miterlimit="10" stroke-linecap="round" stroke-linejoin="round"/>
<path d="M25.9219 4.56692L29.8425 1" stroke="#A276E5" stroke-miterlimit="10" stroke-linecap="round" stroke-linejoin="round"/>
<path d="M33.7565 4.56692L29.8359 1" stroke="#A276E5" stroke-miterlimit="10" stroke-linecap="round" stroke-linejoin="round"/>
<path d="M33.7578 4.56692L37.6783 1" stroke="#A276E5" stroke-miterlimit="10" stroke-linecap="round" stroke-linejoin="round"/>
<path d="M41.6081 4.56692L37.6875 1" stroke="#A276E5" stroke-miterlimit="10" stroke-linecap="round" stroke-linejoin="round"/>
<path d="M2.39844 4.56692L6.31906 1" stroke="#A276E5" stroke-miterlimit="10" stroke-linecap="round" stroke-linejoin="round"/>
<path d="M10.2408 4.56692L6.32031 1" stroke="#A276E5" stroke-miterlimit="10" stroke-linecap="round" stroke-linejoin="round"/>
<path d="M10.2344 4.56692L14.1549 1" stroke="#A276E5" stroke-miterlimit="10" stroke-linecap="round" stroke-linejoin="round"/>
<path d="M18.0769 4.56692L14.1562 1" stroke="#A276E5" stroke-miterlimit="10" stroke-linecap="round" stroke-linejoin="round"/>
<path d="M18.0781 4.56692L21.9987 1" stroke="#A276E5" stroke-miterlimit="10" stroke-linecap="round" stroke-linejoin="round"/>
<path d="M25.9205 4.56692L22 1" stroke="#A276E5" stroke-miterlimit="10" stroke-linecap="round" stroke-linejoin="round"/>
<path d="M25.9219 4.56692L29.8425 1" stroke="#A276E5" stroke-miterlimit="10" stroke-linecap="round" stroke-linejoin="round"/>
<path d="M33.7565 4.56692L29.8359 1" stroke="#A276E5" stroke-miterlimit="10" stroke-linecap="round" stroke-linejoin="round"/>
<path d="M33.7578 4.56692L37.6783 1" stroke="#A276E5" stroke-miterlimit="10" stroke-linecap="round" stroke-linejoin="round"/>
<path d="M41.6081 4.56692L37.6875 1" stroke="#A276E5" stroke-miterlimit="10" stroke-linecap="round" stroke-linejoin="round"/>
<path d="M17.5625 25.5391H26.5086" stroke="#A276E5" stroke-width="2" stroke-miterlimit="10" stroke-linecap="round" stroke-linejoin="round"/>
<path d="M11.3594 23.4414H16.5949" stroke="#A276E5" stroke-width="2" stroke-miterlimit="10" stroke-linecap="round" stroke-linejoin="round"/>
<path d="M10.1719 20.3516H14.8113C15.1553 20.3516 15.4646 20.568 15.5938 20.8987L19.0341 29.679C19.1178 29.8919 19.1178 30.1303 19.0341 30.3432L15.6403 39.0047" stroke="#A276E5" stroke-width="2" stroke-miterlimit="10" stroke-linecap="round" stroke-linejoin="round"/>
<path d="M2.39844 21.0898H10.431" stroke="#A276E5" stroke-width="2" stroke-miterlimit="10" stroke-linecap="round" stroke-linejoin="round"/>
<path d="M11.1352 34.4805L9.5625 38.9995" stroke="#A276E5" stroke-width="2" stroke-miterlimit="10" stroke-linecap="round" stroke-linejoin="round"/>
<path d="M2.39844 38.9962V18.7859C2.39844 18.3004 2.77703 17.9062 3.24351 17.9062H8.73393C9.08971 17.9062 9.40745 18.1385 9.5283 18.486L13.0075 28.4846C13.0751 28.6782 13.0751 28.8902 13.0075 29.0837L12.0753 31.7624" stroke="#A276E5" stroke-width="2" stroke-miterlimit="10" stroke-linecap="round" stroke-linejoin="round"/>
<path d="M27.4062 23.4414H32.6643" stroke="#A276E5" stroke-width="2" stroke-miterlimit="10" stroke-linecap="round" stroke-linejoin="round"/>
<path d="M28.3628 39.0047L24.969 30.3432C24.8853 30.1303 24.8853 29.8919 24.969 29.679L28.4093 20.8987C28.5386 20.568 28.8479 20.3516 29.1918 20.3516H33.8313" stroke="#A276E5" stroke-width="2" stroke-miterlimit="10" stroke-linecap="round" stroke-linejoin="round"/>
<path d="M33.5703 21.0898H41.6029" stroke="#A276E5" stroke-width="2" stroke-miterlimit="10" stroke-linecap="round" stroke-linejoin="round"/>
<path d="M34.4378 38.9962L30.9882 29.0837C30.9206 28.8902 30.9206 28.6782 30.9882 28.4846L34.4674 18.4869C34.5882 18.1385 34.906 17.9062 35.2617 17.9062H40.7521C41.2186 17.9062 41.5972 18.3004 41.5972 18.7859V38.9962" stroke="#A276E5" stroke-width="2" stroke-miterlimit="10" stroke-linecap="round" stroke-linejoin="round"/>
<path d="M34.7008 43.0015H42.1549C42.6217 43.0015 43 42.6076 43 42.1218V39.8797C43 39.3938 42.6217 39 42.1549 39H1.84507C1.37834 39 1 39.3938 1 39.8797V42.1218C1 42.6076 1.37834 43.0015 1.84507 43.0015H31.9264" stroke="#A276E5" stroke-width="2" stroke-miterlimit="10" stroke-linecap="round" stroke-linejoin="round"/>
<path d="M20.7109 7.32184V4.57031" stroke="#A276E5" stroke-width="2" stroke-miterlimit="10" stroke-linecap="round" stroke-linejoin="round"/>
<path d="M23.2812 4.57031V7.32184" stroke="#A276E5" stroke-width="2" stroke-miterlimit="10" stroke-linecap="round" stroke-linejoin="round"/>
<path d="M41.604 1H2.39844V4.56683H41.604V1Z" stroke="#A276E5" stroke-width="2" stroke-miterlimit="10" stroke-linecap="round" stroke-linejoin="round"/>
<path d="M23.3882 13.8822H25.3616C25.8283 13.8822 26.2067 13.4883 26.2067 13.0025V8.1922C26.2067 7.70634 25.8283 7.3125 25.3616 7.3125H18.6419C18.1752 7.3125 17.7969 7.70634 17.7969 8.1922V13.0025C17.7969 13.4883 18.1752 13.8822 18.6419 13.8822H20.6138" stroke="#A276E5" stroke-width="2" stroke-miterlimit="10" stroke-linecap="round" stroke-linejoin="round"/>
<path d="M15.5859 16.1347L16.297 15.3945" stroke="#A276E5" stroke-width="2" stroke-miterlimit="10" stroke-linecap="round" stroke-linejoin="round"/>
<path d="M13.5938 13.1094H14.5993" stroke="#A276E5" stroke-width="2" stroke-miterlimit="10" stroke-linecap="round" stroke-linejoin="round"/>
<path d="M18.4922 18.203V17.1562" stroke="#A276E5" stroke-width="2" stroke-miterlimit="10" stroke-linecap="round" stroke-linejoin="round"/>
<path d="M28.4142 16.1347L27.7031 15.3945" stroke="#A276E5" stroke-width="2" stroke-miterlimit="10" stroke-linecap="round" stroke-linejoin="round"/>
<path d="M30.404 13.1094H29.3984" stroke="#A276E5" stroke-width="2" stroke-miterlimit="10" stroke-linecap="round" stroke-linejoin="round"/>
<path d="M25.5156 18.203V17.1562" stroke="#A276E5" stroke-width="2" stroke-miterlimit="10" stroke-linecap="round" stroke-linejoin="round"/>
</svg>
