<svg width="42" height="42" viewBox="0 0 42 42" fill="none" xmlns="http://www.w3.org/2000/svg">
<path d="M26.7383 18.6992L24.2734 17.4775V13.2041L26.7383 11.9756V18.6992Z" fill="#A276E5" stroke="#A276E5"/>
<path d="M15.8418 15.3457L12.6953 17.2529V13.4385L15.8418 15.3457Z" fill="white" stroke="#A276E5"/>
<path d="M22.3369 9.43359V17.9902C22.3344 18.0207 22.3291 18.0512 22.3291 18.082L22.3369 18.1738V21.2363H6.11719V9.43359H22.3369ZM12.1104 10.8154C11.8399 10.6968 11.516 10.698 11.2344 10.8564V10.8574C10.9336 11.0228 10.7373 11.343 10.7373 11.7002V18.9795C10.7373 19.3409 10.9452 19.6499 11.2227 19.8164L11.2393 19.8262L11.2568 19.835C11.3955 19.9042 11.549 19.9463 11.7129 19.9463C11.8567 19.9463 12.0427 19.9161 12.2139 19.8057L18.2227 16.1758L18.2324 16.1699L18.2412 16.1641C18.5042 15.9887 18.6973 15.6965 18.6973 15.3398C18.6972 15.034 18.5539 14.7683 18.3398 14.5918L18.2441 14.5215L18.2324 14.5146L12.2246 10.874L12.2227 10.873L12.1104 10.8154Z" fill="#A276E5" stroke="#A276E5"/>
<path d="M39.084 3.5293C39.7791 3.52235 40.3358 4.07661 40.3359 4.75684V27.1836H1.5V4.75684C1.50009 4.12179 1.97559 3.60161 2.59082 3.5293H39.084ZM5.95996 7.48926C4.9753 7.48932 4.16896 8.2956 4.16895 9.28027V21.3945C4.16915 22.3717 4.95844 23.1952 5.95996 23.1953H22.4805C23.4104 23.1953 24.1564 22.4907 24.2676 21.5898L24.2812 21.4072V19.6572L27.2861 21.1523C27.4576 21.246 27.6336 21.2539 27.7227 21.2539C27.931 21.2538 28.096 21.1809 28.2178 21.1133L28.2314 21.1055L28.2451 21.0967C28.5114 20.9255 28.6981 20.6278 28.6982 20.2783V10.3965C28.6982 10.058 28.5212 9.74589 28.2451 9.56836L28.2344 9.56152L28.2227 9.55469C27.9444 9.39573 27.6032 9.38284 27.3086 9.51172L27.2969 9.5166L27.2861 9.52148L24.2812 11.0156V9.28027C24.2812 8.29312 23.4725 7.48926 22.4805 7.48926H5.95996ZM34.7881 8.49512C34.4339 8.21897 33.9168 8.20106 33.5586 8.50684L33.4844 8.57715C33.1304 8.95016 33.1014 9.56105 33.4932 9.94336V9.94434C36.4623 12.9134 36.4622 17.7604 33.4932 20.7295L33.4844 20.7393C33.1358 21.1064 33.103 21.7036 33.4756 22.0869V22.0879L33.4775 22.0898C33.486 22.0985 33.494 22.1078 33.5029 22.1162V22.1152C33.6823 22.298 33.908 22.3681 34.1016 22.3828V22.3838C34.4247 22.4333 34.7003 22.2948 34.8867 22.0898L34.8857 22.0889C38.5976 18.359 38.593 12.2903 34.8701 8.56738L34.8613 8.55859L34.7881 8.49512ZM33.001 10.2803C32.6432 10.0014 32.132 9.993 31.7725 10.2861L31.6982 10.3535L31.6885 10.3633C31.3345 10.7365 31.3061 11.3473 31.6982 11.7295V11.7305C32.662 12.6943 33.1913 13.9744 33.1914 15.3467C33.1914 16.7113 32.6702 17.989 31.7012 18.9404L31.6953 18.9473L31.6885 18.9531C31.34 19.3202 31.3073 19.9175 31.6797 20.3008V20.3018C31.6851 20.3078 31.6918 20.3126 31.6973 20.3184C31.701 20.322 31.7042 20.3265 31.708 20.3301V20.3291C31.9114 20.5361 32.1741 20.6035 32.3818 20.6035C32.6246 20.6034 32.8695 20.5153 33.0742 20.3105C34.4215 18.9924 35.1523 17.2244 35.1523 15.3467C35.1523 13.4585 34.4212 11.6804 33.083 10.3525L33.0752 10.3447L33.001 10.2803ZM31.2051 12.0566C30.8483 11.7779 30.3449 11.7694 29.9863 12.0625L29.9121 12.1299L29.9033 12.1387C29.5404 12.5207 29.5276 13.1321 29.9121 13.5166C30.4007 14.0053 30.6679 14.6545 30.668 15.3369C30.668 16.0284 30.4014 16.6689 29.9121 17.1582L29.9033 17.167C29.5547 17.534 29.5212 18.1312 29.8936 18.5146V18.5156C29.8989 18.5216 29.9057 18.5265 29.9111 18.5322C29.9149 18.5359 29.918 18.5403 29.9219 18.5439V18.543C30.1253 18.75 30.3879 18.8174 30.5957 18.8174C30.8165 18.8173 31.0806 18.7416 31.2881 18.5146L31.2891 18.5156C32.1409 17.6638 32.6094 16.5164 32.6094 15.3174C32.6093 14.12 32.1508 12.9816 31.2861 12.1279L31.2793 12.1211L31.2051 12.0566Z" fill="white" stroke="#A276E5"/>
<path d="M40.334 29.125V29.2363C40.334 29.9229 39.7796 30.4834 39.0869 30.4834H2.74512C2.0622 30.4833 1.50781 29.9326 1.50781 29.2363V29.125H40.334Z" fill="#A276E5" stroke="#A276E5"/>
<path d="M21.8672 32.4297V36.1182H19.9453V35.7598C19.9547 35.7134 19.9648 35.6506 19.9648 35.5791C19.9648 35.5074 19.9547 35.4448 19.9453 35.3984V32.4297H21.8672Z" fill="white" stroke="#A276E5"/>
<path d="M18.0049 36.5586V36.7676C18.0051 37.4803 18.5881 38.0634 19.3008 38.0635H22.5234C23.2362 38.0635 23.8191 37.4803 23.8193 36.7676V36.5586H27.1465L28.0713 38.2666H13.7559L14.6865 36.5586H18.0049Z" fill="white" stroke="#A276E5"/>
</svg>
