<svg width="42" height="42" viewBox="0 0 42 42" fill="none" xmlns="http://www.w3.org/2000/svg">
<mask id="path-1-outside-1_5126_7958" maskUnits="userSpaceOnUse" x="1.00781" y="0.230469" width="40" height="41" fill="black">
<rect fill="white" x="1.00781" y="0.230469" width="40" height="41"/>
<path d="M34.3429 20.9737C34.3429 21.2453 34.1222 21.4659 33.8507 21.4659H23.0062C22.7346 21.4659 22.514 21.2453 22.514 20.9737C22.514 20.7022 22.7346 20.4816 23.0062 20.4816H33.8507C34.123 20.4816 34.3429 20.7022 34.3429 20.9737ZM33.8507 22.9409H26.6533C26.3818 22.9409 26.1611 23.1615 26.1611 23.433C26.1611 23.7046 26.3818 23.9252 26.6533 23.9252H33.8507C34.1222 23.9252 34.3429 23.7046 34.3429 23.433C34.3429 23.1615 34.123 22.9409 33.8507 22.9409ZM33.8507 25.4002H26.6098C26.3383 25.4002 26.1176 25.6208 26.1176 25.8923C26.1176 26.1639 26.3383 26.3845 26.6098 26.3845H33.8507C34.1222 26.3845 34.3429 26.1639 34.3429 25.8923C34.3429 25.6208 34.123 25.4002 33.8507 25.4002ZM33.8507 27.8603H28.7533C28.4818 27.8603 28.2611 28.0809 28.2611 28.3525C28.2611 28.624 28.4818 28.8446 28.7533 28.8446H33.8507C34.1222 28.8446 34.3429 28.624 34.3429 28.3525C34.3429 28.0809 34.123 27.8603 33.8507 27.8603ZM39.9907 3.20332V14.7115C39.9907 15.4695 39.5609 16.1282 38.9325 16.4587C38.9481 16.6056 38.9563 16.7532 38.9563 16.9001V27.4747C38.9563 29.7585 37.0983 31.6157 34.8154 31.6157H18.259C18.2598 31.637 18.2607 31.6575 18.2607 31.6796C18.3427 34.3555 18.3312 37.3119 17.1541 38.5342C16.9309 38.7663 16.6766 38.9246 16.3945 39.0091V40.2773C16.3945 40.5489 16.1738 40.7695 15.9023 40.7695H7.7582C7.48668 40.7695 7.26602 40.5489 7.26602 40.2773V38.5645C7.15199 38.3537 7.01992 38.1224 6.88047 37.8787C6.28492 36.837 5.6098 35.6565 5.5048 34.6508C5.42523 33.8879 5.43754 33.3277 5.44902 32.833C5.45969 32.3556 5.46871 31.9668 5.38176 31.5418C4.5032 31.3753 3.69848 30.9266 3.08734 30.2548C2.39172 29.4894 2.00781 28.5018 2.00781 27.4731V16.8993C2.00781 14.6155 3.86582 12.7583 6.14875 12.7583H17.8735V3.20332C17.8735 2.11559 18.7586 1.23047 19.8463 1.23047H38.0163C39.1056 1.23047 39.9907 2.11559 39.9907 3.20332ZM17.2771 31.7092C17.2673 31.3975 17.2591 31.1284 17.2591 30.9274V28.1892C17.2591 27.8496 16.9826 27.5732 16.643 27.5732C16.3034 27.5732 16.027 27.8496 16.027 28.1892V30.1014C16.027 30.3729 15.8063 30.5936 15.5348 30.5936C15.2632 30.5936 15.0426 30.3729 15.0426 30.1014V27.0047C15.0426 26.6651 14.7661 26.3886 14.4265 26.3886C14.0869 26.3886 13.8105 26.6651 13.8105 27.0047V30.1014C13.8105 30.3729 13.5898 30.5936 13.3183 30.5936C13.0468 30.5936 12.8261 30.3729 12.8261 30.1014V27.4132C12.8261 27.0736 12.5496 26.7971 12.21 26.7971C11.8704 26.7971 11.594 27.0736 11.594 27.4132V30.1014C11.594 30.3729 11.3733 30.5936 11.1018 30.5936C10.8303 30.5936 10.6096 30.3729 10.6096 30.1014V22.4454C10.6096 22.1058 10.3332 21.8293 9.99356 21.8293C9.65395 21.8293 9.3775 22.1058 9.3775 22.4454V33.4876C9.3775 33.7591 9.15684 33.9798 8.88531 33.9798C8.61379 33.9798 8.39312 33.7591 8.39312 33.4876V30.1014C8.39312 29.6764 8.05188 29.208 7.48012 28.8471C6.79926 28.4173 5.95105 28.2532 5.50727 28.4648C5.37438 28.528 5.25215 28.6625 5.2177 28.7839C5.19801 28.8545 5.21359 28.893 5.2341 28.9242C5.80258 29.8061 6.1307 30.4845 6.29723 31.1218C6.46129 31.7494 6.4498 32.2621 6.43586 32.856C6.4252 33.3211 6.41289 33.8477 6.48672 34.5483C6.57039 35.3481 7.21762 36.4801 7.7377 37.3907C7.90504 37.6827 8.06254 37.9583 8.19625 38.2118C8.23398 38.2823 8.25285 38.3611 8.25285 38.4415V39.7852H15.4125V38.5875C15.4125 38.3168 15.6307 38.097 15.9014 38.0953C16.1147 38.0937 16.2878 38.0166 16.4478 37.8509C17.433 36.8255 17.3239 33.2399 17.2771 31.7092ZM37.972 27.4739V27.3066C37.8883 27.2541 37.7997 27.1991 37.7078 27.1433C36.9933 26.7069 36.1041 26.1639 36.1041 25.1926V19.265C36.1041 18.2954 37.054 17.6753 37.7472 17.2216C37.8251 17.1708 37.9006 17.1216 37.972 17.074V16.8993C37.972 16.8271 37.9687 16.7549 37.9637 16.6835H30.2364C29.6294 17.2397 29.1626 17.7171 28.782 18.1068C28.1192 18.7843 27.7353 19.1773 27.3243 19.1773C27.2488 19.1773 27.1725 19.1641 27.0938 19.1371C26.568 18.9574 26.4769 18.4144 26.2727 16.6835H19.8471C18.7594 16.6835 17.8743 15.7984 17.8743 14.7107V13.7427H6.15039C4.40969 13.7427 2.99383 15.1586 2.99383 16.8993V27.4739C2.99383 28.7626 3.8043 29.9094 4.95109 30.3901C4.8059 30.1071 4.62543 29.7987 4.40477 29.4574C4.2243 29.1777 4.1759 28.843 4.26941 28.5149C4.38098 28.122 4.6927 27.7627 5.08234 27.5764C5.95844 27.1589 7.18152 27.4952 8.0043 28.0145C8.14293 28.1023 8.27254 28.195 8.39149 28.2926V22.4454C8.39149 21.5627 9.10926 20.845 9.99191 20.845C10.8746 20.845 11.5923 21.5627 11.5923 22.4454V25.9358C11.7818 25.8563 11.9902 25.8128 12.2084 25.8128C12.5431 25.8128 12.854 25.9161 13.1116 26.0925C13.4011 25.6774 13.8818 25.4051 14.4257 25.4051C15.2116 25.4051 15.8678 25.9752 16.0015 26.7233C16.1976 26.6372 16.415 26.5896 16.643 26.5896C17.5257 26.5896 18.2434 27.3074 18.2434 28.19V30.6313H34.8146C36.5553 30.6313 37.972 29.2146 37.972 27.4739ZM37.972 18.2552C37.5347 18.5546 37.0885 18.9156 37.0885 19.2659V25.1934C37.0885 25.5478 37.5183 25.8645 37.972 26.1499V18.2552ZM39.0064 3.20332C39.0064 2.65863 38.5634 2.21484 38.0179 2.21484H19.848C19.3033 2.21484 18.8595 2.65781 18.8595 3.20332V14.7115C18.8595 15.2562 19.3025 15.7 19.848 15.7H26.7115C26.9609 15.7 27.1709 15.887 27.2004 16.1347L27.2152 16.2611C27.3021 17.0026 27.3801 17.6695 27.4588 18.0338C27.6278 17.8812 27.8559 17.6474 28.079 17.4193C28.4752 17.0141 29.0182 16.4587 29.7171 15.8271C29.8074 15.7451 29.9255 15.7 30.0469 15.7H38.0187C38.5634 15.7 39.0072 15.257 39.0072 14.7115V3.20332H39.0064ZM38.7906 9.56484V11.7756C38.7906 12.0471 38.57 12.2678 38.2984 12.2678H32.9623V14.0249C32.9623 14.2964 32.7416 14.5171 32.4701 14.5171H25.3957C25.1242 14.5171 24.9036 14.2964 24.9036 14.0249V12.2678H19.5674C19.2959 12.2678 19.0752 12.0471 19.0752 11.7756V9.56484C19.0752 8.25973 20.0055 7.16707 21.2376 6.91605C20.8668 6.48539 20.6429 5.92512 20.6429 5.31398C20.6429 3.95637 21.747 2.85223 23.1046 2.85223C24.4622 2.85223 25.5664 3.95637 25.5664 5.31398C25.5664 5.92512 25.3416 6.48539 24.9716 6.91605C25.5713 7.03828 26.0996 7.35984 26.4835 7.80855C26.4753 7.72816 26.4712 7.64613 26.4712 7.56328C26.4712 6.20566 27.5753 5.10152 28.9329 5.10152C30.2905 5.10152 31.3947 6.20566 31.3947 7.56328C31.3947 7.64613 31.3906 7.72734 31.3824 7.80855C31.7663 7.35984 32.2946 7.03828 32.8942 6.91605C32.5234 6.48539 32.2995 5.92512 32.2995 5.31398C32.2995 3.95637 33.4036 2.85223 34.7612 2.85223C36.1189 2.85223 37.223 3.95637 37.223 5.31398C37.223 5.92512 36.9982 6.48539 36.6283 6.91605C37.8604 7.16789 38.7906 8.25973 38.7906 9.56484ZM33.2839 5.31398C33.2839 6.12855 33.9467 6.79137 34.7612 6.79137C35.5758 6.79137 36.2386 6.12855 36.2386 5.31398C36.2386 4.49941 35.5758 3.8366 34.7612 3.8366C33.9467 3.8366 33.2839 4.49941 33.2839 5.31398ZM27.4555 7.5641C27.4555 8.37867 28.1184 9.04148 28.9329 9.04148C29.7475 9.04148 30.4103 8.37867 30.4103 7.5641C30.4103 6.74953 29.7475 6.08672 28.9329 6.08672C28.1184 6.08672 27.4555 6.74953 27.4555 7.5641ZM21.6272 5.31398C21.6272 6.12855 22.29 6.79137 23.1046 6.79137C23.9192 6.79137 24.582 6.12855 24.582 5.31398C24.582 4.49941 23.9192 3.8366 23.1046 3.8366C22.29 3.8366 21.6272 4.49941 21.6272 5.31398ZM26.148 9.54023C26.1348 8.60426 25.3703 7.84629 24.4302 7.84629H21.7773C20.8299 7.84629 20.0588 8.61738 20.0588 9.56484V11.2834H24.9552C25.1021 10.5541 25.5426 9.92988 26.148 9.54023ZM31.9779 11.815C31.9779 10.8675 31.2068 10.0964 30.2594 10.0964H27.6065C26.659 10.0964 25.8879 10.8675 25.8879 11.815V13.5335H31.9779V11.815ZM37.8062 9.56484C37.8062 8.61738 37.0352 7.84629 36.0877 7.84629H33.4348C32.4955 7.84629 31.731 8.60426 31.7171 9.54023C32.3225 9.92988 32.7638 10.5541 32.9098 11.2834H37.8062V9.56484Z"/>
</mask>
<path d="M34.3429 20.9737C34.3429 21.2453 34.1222 21.4659 33.8507 21.4659H23.0062C22.7346 21.4659 22.514 21.2453 22.514 20.9737C22.514 20.7022 22.7346 20.4816 23.0062 20.4816H33.8507C34.123 20.4816 34.3429 20.7022 34.3429 20.9737ZM33.8507 22.9409H26.6533C26.3818 22.9409 26.1611 23.1615 26.1611 23.433C26.1611 23.7046 26.3818 23.9252 26.6533 23.9252H33.8507C34.1222 23.9252 34.3429 23.7046 34.3429 23.433C34.3429 23.1615 34.123 22.9409 33.8507 22.9409ZM33.8507 25.4002H26.6098C26.3383 25.4002 26.1176 25.6208 26.1176 25.8923C26.1176 26.1639 26.3383 26.3845 26.6098 26.3845H33.8507C34.1222 26.3845 34.3429 26.1639 34.3429 25.8923C34.3429 25.6208 34.123 25.4002 33.8507 25.4002ZM33.8507 27.8603H28.7533C28.4818 27.8603 28.2611 28.0809 28.2611 28.3525C28.2611 28.624 28.4818 28.8446 28.7533 28.8446H33.8507C34.1222 28.8446 34.3429 28.624 34.3429 28.3525C34.3429 28.0809 34.123 27.8603 33.8507 27.8603ZM39.9907 3.20332V14.7115C39.9907 15.4695 39.5609 16.1282 38.9325 16.4587C38.9481 16.6056 38.9563 16.7532 38.9563 16.9001V27.4747C38.9563 29.7585 37.0983 31.6157 34.8154 31.6157H18.259C18.2598 31.637 18.2607 31.6575 18.2607 31.6796C18.3427 34.3555 18.3312 37.3119 17.1541 38.5342C16.9309 38.7663 16.6766 38.9246 16.3945 39.0091V40.2773C16.3945 40.5489 16.1738 40.7695 15.9023 40.7695H7.7582C7.48668 40.7695 7.26602 40.5489 7.26602 40.2773V38.5645C7.15199 38.3537 7.01992 38.1224 6.88047 37.8787C6.28492 36.837 5.6098 35.6565 5.5048 34.6508C5.42523 33.8879 5.43754 33.3277 5.44902 32.833C5.45969 32.3556 5.46871 31.9668 5.38176 31.5418C4.5032 31.3753 3.69848 30.9266 3.08734 30.2548C2.39172 29.4894 2.00781 28.5018 2.00781 27.4731V16.8993C2.00781 14.6155 3.86582 12.7583 6.14875 12.7583H17.8735V3.20332C17.8735 2.11559 18.7586 1.23047 19.8463 1.23047H38.0163C39.1056 1.23047 39.9907 2.11559 39.9907 3.20332ZM17.2771 31.7092C17.2673 31.3975 17.2591 31.1284 17.2591 30.9274V28.1892C17.2591 27.8496 16.9826 27.5732 16.643 27.5732C16.3034 27.5732 16.027 27.8496 16.027 28.1892V30.1014C16.027 30.3729 15.8063 30.5936 15.5348 30.5936C15.2632 30.5936 15.0426 30.3729 15.0426 30.1014V27.0047C15.0426 26.6651 14.7661 26.3886 14.4265 26.3886C14.0869 26.3886 13.8105 26.6651 13.8105 27.0047V30.1014C13.8105 30.3729 13.5898 30.5936 13.3183 30.5936C13.0468 30.5936 12.8261 30.3729 12.8261 30.1014V27.4132C12.8261 27.0736 12.5496 26.7971 12.21 26.7971C11.8704 26.7971 11.594 27.0736 11.594 27.4132V30.1014C11.594 30.3729 11.3733 30.5936 11.1018 30.5936C10.8303 30.5936 10.6096 30.3729 10.6096 30.1014V22.4454C10.6096 22.1058 10.3332 21.8293 9.99356 21.8293C9.65395 21.8293 9.3775 22.1058 9.3775 22.4454V33.4876C9.3775 33.7591 9.15684 33.9798 8.88531 33.9798C8.61379 33.9798 8.39312 33.7591 8.39312 33.4876V30.1014C8.39312 29.6764 8.05188 29.208 7.48012 28.8471C6.79926 28.4173 5.95105 28.2532 5.50727 28.4648C5.37438 28.528 5.25215 28.6625 5.2177 28.7839C5.19801 28.8545 5.21359 28.893 5.2341 28.9242C5.80258 29.8061 6.1307 30.4845 6.29723 31.1218C6.46129 31.7494 6.4498 32.2621 6.43586 32.856C6.4252 33.3211 6.41289 33.8477 6.48672 34.5483C6.57039 35.3481 7.21762 36.4801 7.7377 37.3907C7.90504 37.6827 8.06254 37.9583 8.19625 38.2118C8.23398 38.2823 8.25285 38.3611 8.25285 38.4415V39.7852H15.4125V38.5875C15.4125 38.3168 15.6307 38.097 15.9014 38.0953C16.1147 38.0937 16.2878 38.0166 16.4478 37.8509C17.433 36.8255 17.3239 33.2399 17.2771 31.7092ZM37.972 27.4739V27.3066C37.8883 27.2541 37.7997 27.1991 37.7078 27.1433C36.9933 26.7069 36.1041 26.1639 36.1041 25.1926V19.265C36.1041 18.2954 37.054 17.6753 37.7472 17.2216C37.8251 17.1708 37.9006 17.1216 37.972 17.074V16.8993C37.972 16.8271 37.9687 16.7549 37.9637 16.6835H30.2364C29.6294 17.2397 29.1626 17.7171 28.782 18.1068C28.1192 18.7843 27.7353 19.1773 27.3243 19.1773C27.2488 19.1773 27.1725 19.1641 27.0938 19.1371C26.568 18.9574 26.4769 18.4144 26.2727 16.6835H19.8471C18.7594 16.6835 17.8743 15.7984 17.8743 14.7107V13.7427H6.15039C4.40969 13.7427 2.99383 15.1586 2.99383 16.8993V27.4739C2.99383 28.7626 3.8043 29.9094 4.95109 30.3901C4.8059 30.1071 4.62543 29.7987 4.40477 29.4574C4.2243 29.1777 4.1759 28.843 4.26941 28.5149C4.38098 28.122 4.6927 27.7627 5.08234 27.5764C5.95844 27.1589 7.18152 27.4952 8.0043 28.0145C8.14293 28.1023 8.27254 28.195 8.39149 28.2926V22.4454C8.39149 21.5627 9.10926 20.845 9.99191 20.845C10.8746 20.845 11.5923 21.5627 11.5923 22.4454V25.9358C11.7818 25.8563 11.9902 25.8128 12.2084 25.8128C12.5431 25.8128 12.854 25.9161 13.1116 26.0925C13.4011 25.6774 13.8818 25.4051 14.4257 25.4051C15.2116 25.4051 15.8678 25.9752 16.0015 26.7233C16.1976 26.6372 16.415 26.5896 16.643 26.5896C17.5257 26.5896 18.2434 27.3074 18.2434 28.19V30.6313H34.8146C36.5553 30.6313 37.972 29.2146 37.972 27.4739ZM37.972 18.2552C37.5347 18.5546 37.0885 18.9156 37.0885 19.2659V25.1934C37.0885 25.5478 37.5183 25.8645 37.972 26.1499V18.2552ZM39.0064 3.20332C39.0064 2.65863 38.5634 2.21484 38.0179 2.21484H19.848C19.3033 2.21484 18.8595 2.65781 18.8595 3.20332V14.7115C18.8595 15.2562 19.3025 15.7 19.848 15.7H26.7115C26.9609 15.7 27.1709 15.887 27.2004 16.1347L27.2152 16.2611C27.3021 17.0026 27.3801 17.6695 27.4588 18.0338C27.6278 17.8812 27.8559 17.6474 28.079 17.4193C28.4752 17.0141 29.0182 16.4587 29.7171 15.8271C29.8074 15.7451 29.9255 15.7 30.0469 15.7H38.0187C38.5634 15.7 39.0072 15.257 39.0072 14.7115V3.20332H39.0064ZM38.7906 9.56484V11.7756C38.7906 12.0471 38.57 12.2678 38.2984 12.2678H32.9623V14.0249C32.9623 14.2964 32.7416 14.5171 32.4701 14.5171H25.3957C25.1242 14.5171 24.9036 14.2964 24.9036 14.0249V12.2678H19.5674C19.2959 12.2678 19.0752 12.0471 19.0752 11.7756V9.56484C19.0752 8.25973 20.0055 7.16707 21.2376 6.91605C20.8668 6.48539 20.6429 5.92512 20.6429 5.31398C20.6429 3.95637 21.747 2.85223 23.1046 2.85223C24.4622 2.85223 25.5664 3.95637 25.5664 5.31398C25.5664 5.92512 25.3416 6.48539 24.9716 6.91605C25.5713 7.03828 26.0996 7.35984 26.4835 7.80855C26.4753 7.72816 26.4712 7.64613 26.4712 7.56328C26.4712 6.20566 27.5753 5.10152 28.9329 5.10152C30.2905 5.10152 31.3947 6.20566 31.3947 7.56328C31.3947 7.64613 31.3906 7.72734 31.3824 7.80855C31.7663 7.35984 32.2946 7.03828 32.8942 6.91605C32.5234 6.48539 32.2995 5.92512 32.2995 5.31398C32.2995 3.95637 33.4036 2.85223 34.7612 2.85223C36.1189 2.85223 37.223 3.95637 37.223 5.31398C37.223 5.92512 36.9982 6.48539 36.6283 6.91605C37.8604 7.16789 38.7906 8.25973 38.7906 9.56484ZM33.2839 5.31398C33.2839 6.12855 33.9467 6.79137 34.7612 6.79137C35.5758 6.79137 36.2386 6.12855 36.2386 5.31398C36.2386 4.49941 35.5758 3.8366 34.7612 3.8366C33.9467 3.8366 33.2839 4.49941 33.2839 5.31398ZM27.4555 7.5641C27.4555 8.37867 28.1184 9.04148 28.9329 9.04148C29.7475 9.04148 30.4103 8.37867 30.4103 7.5641C30.4103 6.74953 29.7475 6.08672 28.9329 6.08672C28.1184 6.08672 27.4555 6.74953 27.4555 7.5641ZM21.6272 5.31398C21.6272 6.12855 22.29 6.79137 23.1046 6.79137C23.9192 6.79137 24.582 6.12855 24.582 5.31398C24.582 4.49941 23.9192 3.8366 23.1046 3.8366C22.29 3.8366 21.6272 4.49941 21.6272 5.31398ZM26.148 9.54023C26.1348 8.60426 25.3703 7.84629 24.4302 7.84629H21.7773C20.8299 7.84629 20.0588 8.61738 20.0588 9.56484V11.2834H24.9552C25.1021 10.5541 25.5426 9.92988 26.148 9.54023ZM31.9779 11.815C31.9779 10.8675 31.2068 10.0964 30.2594 10.0964H27.6065C26.659 10.0964 25.8879 10.8675 25.8879 11.815V13.5335H31.9779V11.815ZM37.8062 9.56484C37.8062 8.61738 37.0352 7.84629 36.0877 7.84629H33.4348C32.4955 7.84629 31.731 8.60426 31.7171 9.54023C32.3225 9.92988 32.7638 10.5541 32.9098 11.2834H37.8062V9.56484Z" fill="#A276E5"/>
<path d="M34.3429 20.9737C34.3429 21.2453 34.1222 21.4659 33.8507 21.4659H23.0062C22.7346 21.4659 22.514 21.2453 22.514 20.9737C22.514 20.7022 22.7346 20.4816 23.0062 20.4816H33.8507C34.123 20.4816 34.3429 20.7022 34.3429 20.9737ZM33.8507 22.9409H26.6533C26.3818 22.9409 26.1611 23.1615 26.1611 23.433C26.1611 23.7046 26.3818 23.9252 26.6533 23.9252H33.8507C34.1222 23.9252 34.3429 23.7046 34.3429 23.433C34.3429 23.1615 34.123 22.9409 33.8507 22.9409ZM33.8507 25.4002H26.6098C26.3383 25.4002 26.1176 25.6208 26.1176 25.8923C26.1176 26.1639 26.3383 26.3845 26.6098 26.3845H33.8507C34.1222 26.3845 34.3429 26.1639 34.3429 25.8923C34.3429 25.6208 34.123 25.4002 33.8507 25.4002ZM33.8507 27.8603H28.7533C28.4818 27.8603 28.2611 28.0809 28.2611 28.3525C28.2611 28.624 28.4818 28.8446 28.7533 28.8446H33.8507C34.1222 28.8446 34.3429 28.624 34.3429 28.3525C34.3429 28.0809 34.123 27.8603 33.8507 27.8603ZM39.9907 3.20332V14.7115C39.9907 15.4695 39.5609 16.1282 38.9325 16.4587C38.9481 16.6056 38.9563 16.7532 38.9563 16.9001V27.4747C38.9563 29.7585 37.0983 31.6157 34.8154 31.6157H18.259C18.2598 31.637 18.2607 31.6575 18.2607 31.6796C18.3427 34.3555 18.3312 37.3119 17.1541 38.5342C16.9309 38.7663 16.6766 38.9246 16.3945 39.0091V40.2773C16.3945 40.5489 16.1738 40.7695 15.9023 40.7695H7.7582C7.48668 40.7695 7.26602 40.5489 7.26602 40.2773V38.5645C7.15199 38.3537 7.01992 38.1224 6.88047 37.8787C6.28492 36.837 5.6098 35.6565 5.5048 34.6508C5.42523 33.8879 5.43754 33.3277 5.44902 32.833C5.45969 32.3556 5.46871 31.9668 5.38176 31.5418C4.5032 31.3753 3.69848 30.9266 3.08734 30.2548C2.39172 29.4894 2.00781 28.5018 2.00781 27.4731V16.8993C2.00781 14.6155 3.86582 12.7583 6.14875 12.7583H17.8735V3.20332C17.8735 2.11559 18.7586 1.23047 19.8463 1.23047H38.0163C39.1056 1.23047 39.9907 2.11559 39.9907 3.20332ZM17.2771 31.7092C17.2673 31.3975 17.2591 31.1284 17.2591 30.9274V28.1892C17.2591 27.8496 16.9826 27.5732 16.643 27.5732C16.3034 27.5732 16.027 27.8496 16.027 28.1892V30.1014C16.027 30.3729 15.8063 30.5936 15.5348 30.5936C15.2632 30.5936 15.0426 30.3729 15.0426 30.1014V27.0047C15.0426 26.6651 14.7661 26.3886 14.4265 26.3886C14.0869 26.3886 13.8105 26.6651 13.8105 27.0047V30.1014C13.8105 30.3729 13.5898 30.5936 13.3183 30.5936C13.0468 30.5936 12.8261 30.3729 12.8261 30.1014V27.4132C12.8261 27.0736 12.5496 26.7971 12.21 26.7971C11.8704 26.7971 11.594 27.0736 11.594 27.4132V30.1014C11.594 30.3729 11.3733 30.5936 11.1018 30.5936C10.8303 30.5936 10.6096 30.3729 10.6096 30.1014V22.4454C10.6096 22.1058 10.3332 21.8293 9.99356 21.8293C9.65395 21.8293 9.3775 22.1058 9.3775 22.4454V33.4876C9.3775 33.7591 9.15684 33.9798 8.88531 33.9798C8.61379 33.9798 8.39312 33.7591 8.39312 33.4876V30.1014C8.39312 29.6764 8.05188 29.208 7.48012 28.8471C6.79926 28.4173 5.95105 28.2532 5.50727 28.4648C5.37438 28.528 5.25215 28.6625 5.2177 28.7839C5.19801 28.8545 5.21359 28.893 5.2341 28.9242C5.80258 29.8061 6.1307 30.4845 6.29723 31.1218C6.46129 31.7494 6.4498 32.2621 6.43586 32.856C6.4252 33.3211 6.41289 33.8477 6.48672 34.5483C6.57039 35.3481 7.21762 36.4801 7.7377 37.3907C7.90504 37.6827 8.06254 37.9583 8.19625 38.2118C8.23398 38.2823 8.25285 38.3611 8.25285 38.4415V39.7852H15.4125V38.5875C15.4125 38.3168 15.6307 38.097 15.9014 38.0953C16.1147 38.0937 16.2878 38.0166 16.4478 37.8509C17.433 36.8255 17.3239 33.2399 17.2771 31.7092ZM37.972 27.4739V27.3066C37.8883 27.2541 37.7997 27.1991 37.7078 27.1433C36.9933 26.7069 36.1041 26.1639 36.1041 25.1926V19.265C36.1041 18.2954 37.054 17.6753 37.7472 17.2216C37.8251 17.1708 37.9006 17.1216 37.972 17.074V16.8993C37.972 16.8271 37.9687 16.7549 37.9637 16.6835H30.2364C29.6294 17.2397 29.1626 17.7171 28.782 18.1068C28.1192 18.7843 27.7353 19.1773 27.3243 19.1773C27.2488 19.1773 27.1725 19.1641 27.0938 19.1371C26.568 18.9574 26.4769 18.4144 26.2727 16.6835H19.8471C18.7594 16.6835 17.8743 15.7984 17.8743 14.7107V13.7427H6.15039C4.40969 13.7427 2.99383 15.1586 2.99383 16.8993V27.4739C2.99383 28.7626 3.8043 29.9094 4.95109 30.3901C4.8059 30.1071 4.62543 29.7987 4.40477 29.4574C4.2243 29.1777 4.1759 28.843 4.26941 28.5149C4.38098 28.122 4.6927 27.7627 5.08234 27.5764C5.95844 27.1589 7.18152 27.4952 8.0043 28.0145C8.14293 28.1023 8.27254 28.195 8.39149 28.2926V22.4454C8.39149 21.5627 9.10926 20.845 9.99191 20.845C10.8746 20.845 11.5923 21.5627 11.5923 22.4454V25.9358C11.7818 25.8563 11.9902 25.8128 12.2084 25.8128C12.5431 25.8128 12.854 25.9161 13.1116 26.0925C13.4011 25.6774 13.8818 25.4051 14.4257 25.4051C15.2116 25.4051 15.8678 25.9752 16.0015 26.7233C16.1976 26.6372 16.415 26.5896 16.643 26.5896C17.5257 26.5896 18.2434 27.3074 18.2434 28.19V30.6313H34.8146C36.5553 30.6313 37.972 29.2146 37.972 27.4739ZM37.972 18.2552C37.5347 18.5546 37.0885 18.9156 37.0885 19.2659V25.1934C37.0885 25.5478 37.5183 25.8645 37.972 26.1499V18.2552ZM39.0064 3.20332C39.0064 2.65863 38.5634 2.21484 38.0179 2.21484H19.848C19.3033 2.21484 18.8595 2.65781 18.8595 3.20332V14.7115C18.8595 15.2562 19.3025 15.7 19.848 15.7H26.7115C26.9609 15.7 27.1709 15.887 27.2004 16.1347L27.2152 16.2611C27.3021 17.0026 27.3801 17.6695 27.4588 18.0338C27.6278 17.8812 27.8559 17.6474 28.079 17.4193C28.4752 17.0141 29.0182 16.4587 29.7171 15.8271C29.8074 15.7451 29.9255 15.7 30.0469 15.7H38.0187C38.5634 15.7 39.0072 15.257 39.0072 14.7115V3.20332H39.0064ZM38.7906 9.56484V11.7756C38.7906 12.0471 38.57 12.2678 38.2984 12.2678H32.9623V14.0249C32.9623 14.2964 32.7416 14.5171 32.4701 14.5171H25.3957C25.1242 14.5171 24.9036 14.2964 24.9036 14.0249V12.2678H19.5674C19.2959 12.2678 19.0752 12.0471 19.0752 11.7756V9.56484C19.0752 8.25973 20.0055 7.16707 21.2376 6.91605C20.8668 6.48539 20.6429 5.92512 20.6429 5.31398C20.6429 3.95637 21.747 2.85223 23.1046 2.85223C24.4622 2.85223 25.5664 3.95637 25.5664 5.31398C25.5664 5.92512 25.3416 6.48539 24.9716 6.91605C25.5713 7.03828 26.0996 7.35984 26.4835 7.80855C26.4753 7.72816 26.4712 7.64613 26.4712 7.56328C26.4712 6.20566 27.5753 5.10152 28.9329 5.10152C30.2905 5.10152 31.3947 6.20566 31.3947 7.56328C31.3947 7.64613 31.3906 7.72734 31.3824 7.80855C31.7663 7.35984 32.2946 7.03828 32.8942 6.91605C32.5234 6.48539 32.2995 5.92512 32.2995 5.31398C32.2995 3.95637 33.4036 2.85223 34.7612 2.85223C36.1189 2.85223 37.223 3.95637 37.223 5.31398C37.223 5.92512 36.9982 6.48539 36.6283 6.91605C37.8604 7.16789 38.7906 8.25973 38.7906 9.56484ZM33.2839 5.31398C33.2839 6.12855 33.9467 6.79137 34.7612 6.79137C35.5758 6.79137 36.2386 6.12855 36.2386 5.31398C36.2386 4.49941 35.5758 3.8366 34.7612 3.8366C33.9467 3.8366 33.2839 4.49941 33.2839 5.31398ZM27.4555 7.5641C27.4555 8.37867 28.1184 9.04148 28.9329 9.04148C29.7475 9.04148 30.4103 8.37867 30.4103 7.5641C30.4103 6.74953 29.7475 6.08672 28.9329 6.08672C28.1184 6.08672 27.4555 6.74953 27.4555 7.5641ZM21.6272 5.31398C21.6272 6.12855 22.29 6.79137 23.1046 6.79137C23.9192 6.79137 24.582 6.12855 24.582 5.31398C24.582 4.49941 23.9192 3.8366 23.1046 3.8366C22.29 3.8366 21.6272 4.49941 21.6272 5.31398ZM26.148 9.54023C26.1348 8.60426 25.3703 7.84629 24.4302 7.84629H21.7773C20.8299 7.84629 20.0588 8.61738 20.0588 9.56484V11.2834H24.9552C25.1021 10.5541 25.5426 9.92988 26.148 9.54023ZM31.9779 11.815C31.9779 10.8675 31.2068 10.0964 30.2594 10.0964H27.6065C26.659 10.0964 25.8879 10.8675 25.8879 11.815V13.5335H31.9779V11.815ZM37.8062 9.56484C37.8062 8.61738 37.0352 7.84629 36.0877 7.84629H33.4348C32.4955 7.84629 31.731 8.60426 31.7171 9.54023C32.3225 9.92988 32.7638 10.5541 32.9098 11.2834H37.8062V9.56484Z" stroke="#A276E5" stroke-width="0.5" mask="url(#path-1-outside-1_5126_7958)"/>
</svg>
