<svg width="60" height="60" viewBox="0 0 60 60" fill="none" xmlns="http://www.w3.org/2000/svg">
<path d="M33.0883 8.14405C33.4933 8.552 33.8139 9.03576 34.0318 9.56767C34.2497 10.0996 34.3607 10.6692 34.3583 11.244V24.714L49.1508 31.0665C49.3125 31.1311 49.4578 31.2307 49.5763 31.3582C49.6948 31.4858 49.7834 31.6381 49.8358 31.804L51.1333 35.6665C51.2022 35.8807 51.213 36.1093 51.1645 36.3289C51.116 36.5486 51.0101 36.7515 50.8575 36.9167C50.7049 37.082 50.5112 37.2038 50.2961 37.2697C50.081 37.3355 49.8523 37.3431 49.6333 37.2915L34.3833 33.4565L33.6483 46.569L36.5708 48.7565V53.1265C34.3743 52.5454 32.1801 51.9554 29.9883 51.3565C29.9883 51.3565 27.3058 52.094 23.4308 53.1265V48.7565L26.3558 46.569L25.6158 33.4565L10.3683 37.294C10.1495 37.3448 9.92114 37.3366 9.70646 37.2705C9.49177 37.2044 9.29842 37.0826 9.14606 36.9175C8.99369 36.7524 8.88773 36.55 8.83895 36.3307C8.79018 36.1114 8.80032 35.8831 8.86834 35.669L10.1658 31.804C10.2183 31.6381 10.3069 31.4858 10.4254 31.3582C10.5438 31.2307 10.6892 31.1311 10.8508 31.0665L25.6433 24.714V11.244C25.641 10.6692 25.752 10.0996 25.9699 9.56767C26.1878 9.03576 26.5084 8.552 26.9133 8.14405C27.7365 7.33333 28.8455 6.87891 30.0008 6.87891C31.1562 6.87891 32.2652 7.33333 33.0883 8.14405Z" stroke="url(#paint0_linear_6550_2992)" stroke-width="3.25" stroke-linecap="round" stroke-linejoin="round"/>
<defs>
<linearGradient id="paint0_linear_6550_2992" x1="8.80859" y1="30.0027" x2="51.1943" y2="30.0027" gradientUnits="userSpaceOnUse">
<stop stop-color="#5254CB"/>
<stop offset="1" stop-color="#FF942F"/>
</linearGradient>
</defs>
</svg>
