<svg width="60" height="60" viewBox="0 0 60 60" fill="none" xmlns="http://www.w3.org/2000/svg">
<g clip-path="url(#clip0_6550_5421)">
<path d="M1.87313 58.1252C4.00156 58.1769 6.11491 57.7551 8.06047 56.8905C10.006 56.0258 11.7352 54.7397 13.1231 53.1252C16.8731 56.8752 17.4981 58.1252 21.2481 58.1252C24.9981 58.1252 26.2481 56.8752 29.9981 53.1252C33.7481 56.8752 34.9981 58.1252 38.7481 58.1252C42.4981 58.1252 43.1231 56.8752 46.8731 53.1252C48.261 54.7397 49.9902 56.0258 51.9358 56.8905C53.8813 57.7551 55.9947 58.1769 58.1231 58.1252M57.1981 50.5002L57.8481 45.2252C57.9023 44.9687 57.899 44.7035 57.8385 44.4484C57.778 44.1934 57.6617 43.9549 57.4981 43.7502C57.3241 43.5507 57.1087 43.3914 56.8669 43.2835C56.6252 43.1756 56.3628 43.1216 56.0981 43.1252H3.74813C3.48758 43.1278 3.23036 43.184 2.99245 43.2902C2.75454 43.3964 2.54103 43.5505 2.36518 43.7427C2.18933 43.935 2.0549 44.1614 1.97025 44.4078C1.8856 44.6542 1.85254 44.9154 1.87313 45.1752C2.05265 47.113 2.50722 49.0155 3.22313 50.8252" stroke="url(#paint0_linear_6550_5421)" stroke-width="3.75" stroke-linecap="round" stroke-linejoin="round"/>
<path d="M39.375 43.125H54.375V13.125C54.375 12.1304 53.9799 11.1766 53.2766 10.4733C52.5734 9.77009 51.6196 9.375 50.625 9.375H43.125C42.1304 9.375 41.1766 9.77009 40.4734 10.4733C39.7701 11.1766 39.375 12.1304 39.375 13.125V43.125ZM39.375 43.125V21.875H9.375C8.38044 21.875 7.42661 22.2701 6.72335 22.9733C6.02009 23.6766 5.625 24.6304 5.625 25.625V43.125H39.375ZM46.875 18.125H39.375M48.75 9.375V1.875M20.625 21.875V43.125M5.625 32.5H38.725" stroke="url(#paint1_linear_6550_5421)" stroke-width="3.75" stroke-linecap="round" stroke-linejoin="round"/>
</g>
<defs>
<linearGradient id="paint0_linear_6550_5421" x1="1.86719" y1="50.6272" x2="58.1231" y2="50.6272" gradientUnits="userSpaceOnUse">
<stop stop-color="#5254CB"/>
<stop offset="1" stop-color="#FF942F"/>
</linearGradient>
<linearGradient id="paint1_linear_6550_5421" x1="5.625" y1="22.5" x2="54.375" y2="22.5" gradientUnits="userSpaceOnUse">
<stop stop-color="#5254CB"/>
<stop offset="1" stop-color="#FF942F"/>
</linearGradient>
<clipPath id="clip0_6550_5421">
<rect width="60" height="60" fill="white"/>
</clipPath>
</defs>
</svg>
