<svg width="42" height="42" viewBox="0 0 42 42" fill="none" xmlns="http://www.w3.org/2000/svg">
<path d="M21.5 6.375V9.3M21.5 9.3V12.225M21.5 9.3H24.4167M21.5 9.3H18.5833M5.94444 40.5V20.9415C5.94444 14.489 5.94444 11.2617 7.9375 9.2571C9.20528 7.98375 10.9631 7.51965 13.7222 7.35M37.0556 40.5V20.9415C37.0556 14.489 37.0556 11.2617 35.0625 9.2571C33.7947 7.98375 32.0369 7.51965 29.2778 7.35M4 40.5H39M16.6389 40.5V35.625C16.6389 33.8018 16.6389 32.8911 17.0297 32.2125C17.2857 31.7679 17.6539 31.3987 18.0972 31.142C18.7739 30.75 19.6819 30.75 21.5 30.75C23.3181 30.75 24.2261 30.75 24.9028 31.142C25.3461 31.3987 25.7143 31.7679 25.9703 32.2125C26.3611 32.8911 26.3611 33.8018 26.3611 35.625V40.5M13.7397 22.95H13.7222M21.5 22.95H21.4825M29.2797 22.95H29.2622M14.8617 2.6427C13.7222 3.7854 13.7222 5.6223 13.7222 9.3C13.7222 12.9777 13.7222 14.8146 14.8617 15.9573C16.0011 17.1 17.8328 17.1 21.5 17.1C25.1672 17.1 26.9989 17.1 28.1383 15.9573C29.2778 14.8146 29.2778 12.9777 29.2778 9.3C29.2778 5.6223 29.2778 3.7854 28.1383 2.6427C26.9989 1.5 25.1672 1.5 21.5 1.5C17.8328 1.5 16.0011 1.5 14.8617 2.6427Z" stroke="#556EAA" stroke-width="1.5" stroke-linecap="round" stroke-linejoin="round"/>
</svg>
