<svg width="42" height="42" viewBox="0 0 42 42" fill="none" xmlns="http://www.w3.org/2000/svg">
<g clip-path="url(#clip0_2586_10858)">
<path d="M38.786 39.0976H36.6987V16.8787C36.6982 16.5146 36.5533 16.1655 36.2958 15.908C36.0382 15.6505 35.6891 15.5057 35.3249 15.5054H32.1419V10.1972C32.1386 9.83822 32.0412 9.4864 31.8594 9.17684C31.6777 8.86729 31.4179 8.61083 31.106 8.43307C30.7941 8.2553 30.4411 8.16246 30.0821 8.1638C29.7231 8.16514 29.3707 8.26062 29.0602 8.44071L23.7097 11.5946V8.03886C23.7122 7.57432 23.5535 7.12328 23.2607 6.76264L19.2522 1.75836C19.0597 1.52145 18.8169 1.33045 18.5413 1.19926C18.2657 1.06807 17.9643 0.999996 17.6591 1C17.3539 1 17.0525 1.06808 16.7769 1.19928C16.5014 1.33048 16.2585 1.52149 16.0661 1.75841L12.0565 6.76332C11.7671 7.12562 11.609 7.57521 11.6079 8.03886V9.80875L7.08631 7.13751C6.77568 6.95744 6.42326 6.86201 6.06421 6.86072C5.70517 6.85944 5.35208 6.95236 5.04017 7.1302C4.72827 7.30805 4.46847 7.56459 4.28671 7.87423C4.10495 8.18387 4.00758 8.53576 4.00434 8.89479L4.00427 39.0976H2.70565C2.5185 39.0976 2.33901 39.172 2.20668 39.3043C2.07434 39.4367 2 39.6161 2 39.8033C2 39.9904 2.07434 40.1699 2.20668 40.3023C2.33901 40.4346 2.5185 40.5089 2.70565 40.5089C2.70565 40.5089 37.161 40.5226 38.7859 40.5089C38.9707 40.5053 39.1467 40.4294 39.2761 40.2974C39.4055 40.1655 39.478 39.9881 39.478 39.8033C39.478 39.6185 39.4055 39.4411 39.2761 39.3091C39.1467 39.1772 38.9707 39.1013 38.786 39.0976ZM35.2874 39.0976H27.7308L27.6948 16.9166C29.5852 16.9282 33.3952 16.9035 35.2874 16.8787L35.2874 39.0976ZM29.7769 9.6562C29.8725 9.59882 29.9817 9.56787 30.0932 9.5665C30.2047 9.56514 30.3146 9.59341 30.4116 9.64843C30.5086 9.70345 30.5892 9.78325 30.6453 9.87966C30.7014 9.97607 30.7308 10.0856 30.7306 10.1972V15.5054H27.6948C27.3306 15.5057 26.9813 15.6504 26.7237 15.9079C26.4661 16.1654 26.3212 16.5145 26.3207 16.8787V39.0976H23.7097V13.2326L29.7769 9.6562ZM13.0192 8.03886C13.0199 7.89555 13.0689 7.75666 13.1584 7.64469L17.1676 2.64042C17.2285 2.56972 17.3039 2.51299 17.3888 2.4741C17.4736 2.43521 17.5658 2.41508 17.6591 2.41508C17.7524 2.41508 17.8446 2.43521 17.9295 2.4741C18.0143 2.51299 18.0897 2.56972 18.1506 2.64042L22.1667 7.65368C22.2546 7.76259 22.3012 7.899 22.2984 8.03889V39.0976H16.106C16.106 39.0976 16.1054 15.7413 16.106 13.6317C16.1055 13.2771 16.0129 12.9288 15.8373 12.6208C15.6618 12.3127 15.4092 12.0556 15.1044 11.8744L13.0192 10.6425L13.0192 8.03886ZM14.6947 26.104L5.41556 22.0249V18.6615L14.6947 22.7407V26.104ZM5.41556 23.5659L14.6947 27.6451V31.0153L5.41556 26.9361V23.5659ZM14.6947 21.1997L5.41556 17.1205V13.7571L14.6947 17.8363V21.1997ZM5.41556 28.4772L14.6947 32.5563V35.9197L5.41556 31.8405V28.4772ZM5.73221 8.3469C5.82896 8.2902 5.9393 8.26083 6.05143 8.26193C6.16357 8.26302 6.27331 8.29453 6.36895 8.3531L14.3871 13.09C14.4814 13.1454 14.5595 13.2245 14.6135 13.3196C14.6675 13.4147 14.6955 13.5223 14.6947 13.6317V16.2953L5.41556 12.2161V8.89474C5.41411 8.78337 5.44276 8.67367 5.49849 8.57724C5.55423 8.48081 5.63498 8.40123 5.73221 8.3469ZM5.41556 33.3815L14.6947 37.4607V39.0976H5.41556V33.3815Z" fill="#556EAA"/>
<path d="M18.5123 13.2101H19.8985C20.0856 13.2101 20.2651 13.1358 20.3974 13.0034C20.5298 12.8711 20.6041 12.6916 20.6041 12.5045C20.6041 12.3173 20.5298 12.1378 20.3974 12.0055C20.2651 11.8732 20.0856 11.7988 19.8985 11.7988H18.5123C18.3276 11.8024 18.1516 11.8784 18.0222 12.0103C17.8928 12.1422 17.8203 12.3197 17.8203 12.5045C17.8203 12.6893 17.8928 12.8667 18.0222 12.9986C18.1516 13.1306 18.3276 13.2065 18.5123 13.2101Z" fill="#556EAA"/>
<path d="M18.5123 17.3351H19.8985C20.0856 17.3351 20.2651 17.2608 20.3974 17.1284C20.5298 16.9961 20.6041 16.8166 20.6041 16.6295C20.6041 16.4423 20.5298 16.2628 20.3974 16.1305C20.2651 15.9982 20.0856 15.9238 19.8985 15.9238H18.5123C18.3276 15.9274 18.1516 16.0034 18.0222 16.1353C17.8928 16.2672 17.8203 16.4447 17.8203 16.6295C17.8203 16.8143 17.8928 16.9917 18.0222 17.1236C18.1516 17.2556 18.3276 17.3315 18.5123 17.3351Z" fill="#556EAA"/>
<path d="M18.5123 21.4562H19.8985C20.0856 21.4562 20.2651 21.3819 20.3974 21.2495C20.5298 21.1172 20.6041 20.9377 20.6041 20.7506C20.6041 20.5634 20.5298 20.3839 20.3974 20.2516C20.2651 20.1193 20.0856 20.0449 19.8985 20.0449H18.5123C18.3276 20.0485 18.1516 20.1245 18.0222 20.2564C17.8928 20.3883 17.8203 20.5658 17.8203 20.7506C17.8203 20.9354 17.8928 21.1128 18.0222 21.2447C18.1516 21.3767 18.3276 21.4526 18.5123 21.4562Z" fill="#556EAA"/>
<path d="M18.5123 25.5793H19.8985C20.0856 25.5793 20.2651 25.5049 20.3974 25.3726C20.5298 25.2402 20.6041 25.0608 20.6041 24.8736C20.6041 24.6865 20.5298 24.507 20.3974 24.3746C20.2651 24.2423 20.0856 24.168 19.8985 24.168H18.5123C18.3276 24.1716 18.1516 24.2475 18.0222 24.3794C17.8928 24.5114 17.8203 24.6888 17.8203 24.8736C17.8203 25.0584 17.8928 25.2358 18.0222 25.3678C18.1516 25.4997 18.3276 25.5757 18.5123 25.5793Z" fill="#556EAA"/>
<path d="M18.5123 29.7004H19.8985C20.0856 29.7004 20.2651 29.626 20.3974 29.4937C20.5298 29.3613 20.6041 29.1819 20.6041 28.9947C20.6041 28.8076 20.5298 28.6281 20.3974 28.4957C20.2651 28.3634 20.0856 28.2891 19.8985 28.2891H18.5123C18.3276 28.2927 18.1516 28.3686 18.0222 28.5005C17.8928 28.6325 17.8203 28.8099 17.8203 28.9947C17.8203 29.1795 17.8928 29.3569 18.0222 29.4889C18.1516 29.6208 18.3276 29.6968 18.5123 29.7004Z" fill="#556EAA"/>
<path d="M29.776 19.1191C29.6833 19.1191 29.5915 19.1374 29.5059 19.1728C29.4203 19.2083 29.3425 19.2602 29.2769 19.3258C29.2114 19.3913 29.1594 19.4691 29.124 19.5547C29.0885 19.6403 29.0703 19.7321 29.0703 19.8248V21.2113C29.0703 21.3984 29.1447 21.5779 29.277 21.7102C29.4093 21.8426 29.5888 21.9169 29.776 21.9169C29.9631 21.9169 30.1426 21.8426 30.2749 21.7102C30.4073 21.5779 30.4816 21.3984 30.4816 21.2113V19.8248C30.4816 19.7321 30.4634 19.6403 30.4279 19.5547C30.3925 19.4691 30.3405 19.3913 30.275 19.3258C30.2095 19.2602 30.1317 19.2083 30.046 19.1728C29.9604 19.1374 29.8686 19.1191 29.776 19.1191Z" fill="#556EAA"/>
<path d="M29.776 22.7441C29.6833 22.7441 29.5915 22.7624 29.5059 22.7978C29.4203 22.8333 29.3425 22.8852 29.2769 22.9508C29.2114 23.0163 29.1594 23.0941 29.124 23.1797C29.0885 23.2653 29.0703 23.3571 29.0703 23.4498V24.8356C29.0703 25.0227 29.1447 25.2022 29.277 25.3346C29.4093 25.4669 29.5888 25.5412 29.776 25.5412C29.9631 25.5412 30.1426 25.4669 30.2749 25.3346C30.4073 25.2022 30.4816 25.0227 30.4816 24.8356V23.4498C30.4816 23.3571 30.4634 23.2653 30.4279 23.1797C30.3925 23.0941 30.3405 23.0163 30.275 22.9508C30.2095 22.8852 30.1317 22.8333 30.046 22.7978C29.9604 22.7624 29.8686 22.7441 29.776 22.7441Z" fill="#556EAA"/>
<path d="M33.2447 21.9169C33.3374 21.9169 33.4292 21.8987 33.5148 21.8633C33.6004 21.8278 33.6782 21.7758 33.7437 21.7103C33.8093 21.6448 33.8612 21.567 33.8967 21.4813C33.9321 21.3957 33.9504 21.304 33.9504 21.2113V19.8248C33.9504 19.6376 33.876 19.4582 33.7437 19.3258C33.6113 19.1935 33.4319 19.1191 33.2447 19.1191C33.0576 19.1191 32.8781 19.1935 32.7457 19.3258C32.6134 19.4582 32.5391 19.6376 32.5391 19.8248V21.2113C32.539 21.304 32.5573 21.3957 32.5927 21.4813C32.6282 21.567 32.6802 21.6448 32.7457 21.7103C32.8112 21.7758 32.889 21.8278 32.9746 21.8633C33.0603 21.8987 33.152 21.9169 33.2447 21.9169Z" fill="#556EAA"/>
<path d="M33.2447 25.5412C33.3374 25.5413 33.4292 25.523 33.5148 25.4876C33.6004 25.4521 33.6782 25.4001 33.7437 25.3346C33.8093 25.2691 33.8612 25.1913 33.8967 25.1057C33.9321 25.02 33.9504 24.9283 33.9504 24.8356V23.4498C33.9504 23.2626 33.876 23.0832 33.7437 22.9508C33.6113 22.8185 33.4319 22.7441 33.2447 22.7441C33.0576 22.7441 32.8781 22.8185 32.7457 22.9508C32.6134 23.0832 32.5391 23.2626 32.5391 23.4498V24.8356C32.539 24.9283 32.5573 25.02 32.5927 25.1057C32.6282 25.1913 32.6802 25.2691 32.7457 25.3346C32.8112 25.4001 32.889 25.4521 32.9746 25.4876C33.0603 25.523 33.152 25.5413 33.2447 25.5412Z" fill="#556EAA"/>
<path d="M29.776 26.6094C29.6833 26.6094 29.5915 26.6276 29.5059 26.663C29.4203 26.6985 29.3425 26.7505 29.2769 26.816C29.2114 26.8815 29.1594 26.9593 29.124 27.045C29.0885 27.1306 29.0703 27.2223 29.0703 27.315V28.7008C29.0703 28.888 29.1447 29.0675 29.277 29.1998C29.4093 29.3321 29.5888 29.4065 29.776 29.4065C29.9631 29.4065 30.1426 29.3321 30.2749 29.1998C30.4073 29.0675 30.4816 28.888 30.4816 28.7008V27.315C30.4816 27.2223 30.4634 27.1306 30.4279 27.045C30.3925 26.9593 30.3405 26.8815 30.275 26.816C30.2095 26.7505 30.1317 26.6985 30.046 26.663C29.9604 26.6276 29.8686 26.6094 29.776 26.6094Z" fill="#556EAA"/>
<path d="M29.776 30.2344C29.6833 30.2343 29.5915 30.2526 29.5059 30.288C29.4203 30.3235 29.3425 30.3755 29.2769 30.441C29.2114 30.5065 29.1594 30.5843 29.124 30.67C29.0885 30.7556 29.0703 30.8473 29.0703 30.94V32.3258C29.0703 32.513 29.1447 32.6924 29.277 32.8248C29.4093 32.9571 29.5888 33.0315 29.776 33.0315C29.9631 33.0315 30.1426 32.9571 30.2749 32.8248C30.4073 32.6924 30.4816 32.513 30.4816 32.3258V30.94C30.4816 30.8473 30.4634 30.7556 30.4279 30.67C30.3925 30.5843 30.3405 30.5065 30.275 30.441C30.2095 30.3755 30.1317 30.3235 30.046 30.288C29.9604 30.2526 29.8686 30.2344 29.776 30.2344Z" fill="#556EAA"/>
<path d="M33.2447 29.4065C33.3374 29.4065 33.4292 29.3883 33.5148 29.3528C33.6004 29.3173 33.6782 29.2654 33.7437 29.1998C33.8093 29.1343 33.8612 29.0565 33.8967 28.9709C33.9321 28.8853 33.9504 28.7935 33.9504 28.7008V27.315C33.9504 27.1279 33.876 26.9484 33.7437 26.8161C33.6113 26.6837 33.4319 26.6094 33.2447 26.6094C33.0576 26.6094 32.8781 26.6837 32.7457 26.8161C32.6134 26.9484 32.5391 27.1279 32.5391 27.315V28.7008C32.539 28.7935 32.5573 28.8853 32.5927 28.9709C32.6282 29.0565 32.6802 29.1343 32.7457 29.1998C32.8112 29.2654 32.889 29.3173 32.9746 29.3528C33.0603 29.3883 33.152 29.4065 33.2447 29.4065Z" fill="#556EAA"/>
<path d="M33.2447 33.0315C33.3374 33.0315 33.4292 33.0132 33.5148 32.9778C33.6004 32.9423 33.6782 32.8904 33.7437 32.8248C33.8093 32.7593 33.8612 32.6815 33.8967 32.5959C33.9321 32.5103 33.9504 32.4185 33.9504 32.3258V30.94C33.9504 30.7529 33.876 30.5734 33.7437 30.4411C33.6113 30.3087 33.4319 30.2344 33.2447 30.2344C33.0576 30.2344 32.8781 30.3087 32.7457 30.4411C32.6134 30.5734 32.5391 30.7529 32.5391 30.94V32.3258C32.539 32.4185 32.5573 32.5103 32.5927 32.5959C32.6282 32.6815 32.6802 32.7593 32.7457 32.8248C32.8112 32.8904 32.889 32.9423 32.9746 32.9778C33.0603 33.0132 33.152 33.0315 33.2447 33.0315Z" fill="#556EAA"/>
<path d="M29.776 34.0977C29.6833 34.0976 29.5915 34.1159 29.5059 34.1513C29.4203 34.1868 29.3425 34.2387 29.2769 34.3043C29.2114 34.3698 29.1594 34.4476 29.124 34.5332C29.0885 34.6189 29.0703 34.7106 29.0703 34.8033V36.1891C29.0703 36.3762 29.1447 36.5557 29.277 36.6881C29.4093 36.8204 29.5888 36.8947 29.776 36.8947C29.9631 36.8947 30.1426 36.8204 30.2749 36.6881C30.4073 36.5557 30.4816 36.3762 30.4816 36.1891V34.8033C30.4816 34.7106 30.4634 34.6189 30.4279 34.5332C30.3925 34.4476 30.3405 34.3698 30.275 34.3043C30.2095 34.2388 30.1317 34.1868 30.046 34.1513C29.9604 34.1159 29.8686 34.0976 29.776 34.0977Z" fill="#556EAA"/>
<path d="M33.2447 36.8948C33.3374 36.8948 33.4292 36.8766 33.5148 36.8411C33.6004 36.8057 33.6782 36.7537 33.7437 36.6882C33.8093 36.6226 33.8612 36.5448 33.8967 36.4592C33.9321 36.3736 33.9504 36.2818 33.9504 36.1891V34.8033C33.9504 34.6162 33.876 34.4367 33.7437 34.3043C33.6113 34.172 33.4319 34.0977 33.2447 34.0977C33.0576 34.0977 32.8781 34.172 32.7457 34.3043C32.6134 34.4367 32.5391 34.6162 32.5391 34.8033V36.1891C32.539 36.2818 32.5573 36.3735 32.5927 36.4592C32.6282 36.5448 32.6801 36.6226 32.7457 36.6881C32.8112 36.7537 32.889 36.8057 32.9746 36.8411C33.0603 36.8766 33.152 36.8948 33.2447 36.8948Z" fill="#556EAA"/>
<path d="M37.7209 6.74073C37.8136 6.74087 37.9054 6.72267 37.991 6.68719C38.0767 6.65171 38.1544 6.59964 38.2198 6.53398C39.2408 5.22696 35.8438 4.02143 34.8646 4.14556C33.8836 4.0213 30.4896 5.22692 31.5092 6.53399C31.5747 6.59953 31.6525 6.65152 31.7381 6.68699C31.8237 6.72246 31.9155 6.74072 32.0082 6.74072C32.1008 6.74072 32.1926 6.72246 32.2782 6.68699C32.3638 6.65152 32.4416 6.59953 32.5071 6.53399C32.8166 6.22421 33.1841 5.97847 33.5886 5.8108C33.9931 5.64313 34.4267 5.55683 34.8646 5.55683C35.3024 5.55683 35.736 5.64313 36.1405 5.8108C36.545 5.97847 36.9125 6.22421 37.222 6.53399C37.2874 6.59962 37.3652 6.65167 37.4508 6.68716C37.5365 6.72264 37.6283 6.74084 37.7209 6.74073Z" fill="#556EAA"/>
<path d="M40.2324 3.22434C38.8019 1.80453 36.8681 1.0078 34.8526 1.00781C32.837 1.00783 30.9033 1.80459 29.4727 3.22443C29.407 3.29004 29.3549 3.36798 29.3193 3.45379C29.2838 3.5396 29.2655 3.63158 29.2656 3.72445C29.2657 3.81733 29.2841 3.90928 29.3198 3.99501C29.3555 4.08075 29.4078 4.1586 29.4737 4.22409C29.5395 4.28957 29.6177 4.34141 29.7036 4.37663C29.7896 4.41185 29.8816 4.42976 29.9745 4.42932C30.0674 4.42888 30.1592 4.41011 30.2448 4.37409C30.3304 4.33806 30.4081 4.28549 30.4733 4.21939C31.6382 3.06442 33.2122 2.4164 34.8526 2.41641C36.493 2.41642 38.067 3.06447 39.2319 4.21946C39.3648 4.34744 39.5426 4.41827 39.7271 4.41677C39.9116 4.41527 40.0882 4.34156 40.2191 4.21144C40.3499 4.08132 40.4246 3.90513 40.4271 3.72062C40.4296 3.53611 40.3597 3.35796 40.2324 3.22434Z" fill="#556EAA"/>
<path d="M32.8516 9.36794C32.8573 9.89589 33.0711 10.4003 33.4465 10.7715C33.8219 11.1428 34.3286 11.3511 34.8565 11.3511C35.3845 11.3511 35.8912 11.1428 36.2666 10.7715C36.6419 10.4002 36.8557 9.89583 36.8615 9.36788C36.8557 8.83994 36.6419 8.33557 36.2665 7.96429C35.8912 7.593 35.3845 7.38476 34.8565 7.38477C34.3285 7.38477 33.8218 7.59303 33.4465 7.96433C33.0711 8.33562 32.8573 8.83999 32.8516 9.36794ZM35.4502 9.36794C35.4473 9.52345 35.3834 9.6716 35.2724 9.78054C35.1614 9.88947 35.0121 9.9505 34.8565 9.9505C34.701 9.9505 34.5517 9.88947 34.4406 9.78054C34.3296 9.6716 34.2658 9.52345 34.2629 9.36794C34.2658 9.21243 34.3296 9.06428 34.4406 8.95535C34.5517 8.84641 34.701 8.78538 34.8565 8.78538C35.0121 8.78538 35.1614 8.84641 35.2724 8.95535C35.3834 9.06428 35.4473 9.21243 35.4502 9.36794Z" fill="#556EAA"/>
</g>
<defs>
<clipPath id="clip0_2586_10858">
<rect width="42" height="42" fill="white"/>
</clipPath>
</defs>
</svg>
