<svg width="42" height="42" viewBox="0 0 42 42" fill="none" xmlns="http://www.w3.org/2000/svg">
<g clip-path="url(#clip0_2586_10967)">
<path fill-rule="evenodd" clip-rule="evenodd" d="M31.9566 26.0636C31.5972 25.5696 31.0629 25.2976 30.452 25.2976H25.5082C25.1987 25.2976 24.9477 25.5486 24.9477 25.8582V33.8329H23.4386V20.7432C23.4386 20.4336 23.1877 20.1826 22.8781 20.1826H9.2278C8.91822 20.1826 8.66726 20.4336 8.66726 20.7432V33.8329H7.07458C6.765 33.8329 6.51404 34.0839 6.51404 34.3934V38.4048C6.51404 38.7144 6.765 38.9653 7.07458 38.9653H10.1284C10.1465 40.4233 11.3376 41.6039 12.7998 41.6039C14.2619 41.6039 15.453 40.4232 15.4712 38.9653H27.3459C27.3641 40.4233 28.5551 41.6039 30.0172 41.6039C31.4794 41.6039 32.6704 40.4232 32.6886 38.9653H35.3354C35.6449 38.9653 35.8959 38.7144 35.8959 38.4048V32.3036C35.8959 31.7485 35.7372 31.2604 35.4105 30.8114L31.9565 26.0637L31.9566 26.0636ZM14.6531 21.3037H17.4528V24.5934H14.6531V21.3037ZM9.78835 21.3037H13.532V25.154C13.532 25.4635 13.783 25.7145 14.0926 25.7145H18.0133C18.3229 25.7145 18.5739 25.4635 18.5739 25.154V21.3037H22.3175V33.8329H9.78835V21.3037ZM7.63513 34.954H24.9476V37.8443H15.2398C14.8224 36.9113 13.886 36.2593 12.7997 36.2593C11.7133 36.2593 10.777 36.9113 10.3595 37.8443H7.63497V34.954H7.63513ZM12.7998 40.4828C11.9444 40.4828 11.2486 39.787 11.2486 38.9316C11.2486 38.0762 11.9444 37.3804 12.7998 37.3804C13.6552 37.3804 14.351 38.0763 14.351 38.9316C14.351 39.7869 13.6552 40.4828 12.7998 40.4828ZM30.0173 40.4828C29.162 40.4828 28.4662 39.787 28.4662 38.9316C28.4662 38.0762 29.162 37.3804 30.0173 37.3804C30.8726 37.3804 31.5685 38.0763 31.5685 38.9316C31.5685 39.7869 30.8727 40.4828 30.0173 40.4828ZM32.4574 37.8443C32.04 36.9113 31.1036 36.2593 30.0173 36.2593C28.9309 36.2593 27.9947 36.9113 27.5772 37.8443H26.0687V26.4187H30.4519C30.7017 26.4187 30.903 26.5211 31.0501 26.7232L34.5041 31.4709C34.6914 31.7284 34.7749 31.9853 34.7749 32.3036V35.7394H33.8358V36.8605H34.7749V37.8443H32.4574V37.8443ZM34.2477 32.2751C34.3433 32.0873 34.3255 31.8615 34.2015 31.691L30.8059 27.0236C30.7004 26.8786 30.5319 26.7928 30.3527 26.7928H27.0035C26.6939 26.7928 26.4429 27.0438 26.4429 27.3534V32.0208C26.4429 32.3304 26.6939 32.5814 27.0035 32.5814H33.7483C33.9591 32.5814 34.1521 32.463 34.2478 32.2751H34.2477ZM27.5639 31.4603V27.9139H30.0673L32.6472 31.4603H27.5639ZM1.54967 23.0715C1.54967 22.7619 1.80064 22.511 2.11022 22.511H6.68636C6.99595 22.511 7.24691 22.7619 7.24691 23.0715C7.24691 23.3811 6.99595 23.6321 6.68636 23.6321H2.11022C1.80064 23.6321 1.54967 23.3811 1.54967 23.0715ZM6.92596 25.716C7.23554 25.716 7.4865 25.967 7.4865 26.2766C7.4865 26.5861 7.23554 26.8371 6.92596 26.8371H3.68463C3.37505 26.8371 3.12409 26.5861 3.12409 26.2766C3.12409 25.967 3.37505 25.716 3.68463 25.716H6.92596ZM4.38604 29.7299H1.8418C1.53221 29.7299 1.28125 29.479 1.28125 29.1694C1.28125 28.8598 1.53221 28.6088 1.8418 28.6088H4.38596C4.69554 28.6088 4.94651 28.8598 4.94651 29.1694C4.94651 29.479 4.69562 29.7299 4.38604 29.7299ZM7.28927 32.4979H4.66303C4.35345 32.4979 4.10248 32.247 4.10248 31.9374C4.10248 31.6278 4.35345 31.3768 4.66303 31.3768H7.28927C7.59885 31.3768 7.84982 31.6278 7.84982 31.9374C7.84982 32.247 7.59885 32.4979 7.28927 32.4979ZM27.0035 33.1261H28.5031V34.2472H27.0035V33.1261ZM18.1214 31.6876H21.2322V32.8087H18.1214V31.6876ZM21.2322 30.0393V31.1604H18.1214V30.0393H21.2322ZM11.0077 6.6491C10.4174 6.6491 9.86234 6.87908 9.44489 7.29645C9.02737 7.7139 8.79746 8.26892 8.79746 8.85933C8.79746 9.44975 9.02737 10.0048 9.44482 10.4222C9.8758 10.8531 10.4416 11.0686 11.0077 11.0685C11.5736 11.0685 12.1397 10.853 12.5705 10.4222C12.988 10.0048 13.2179 9.44967 13.2179 8.85933C13.2179 8.269 12.988 7.7139 12.5706 7.29653C12.1531 6.87908 11.598 6.6491 11.0077 6.6491ZM11.6645 9.51622C11.3025 9.87833 10.713 9.87841 10.3508 9.51622C10.1754 9.34076 10.0788 9.1075 10.0788 8.85933C10.0788 8.61117 10.1754 8.37799 10.3508 8.20253C10.5262 8.02708 10.7595 7.93043 11.0076 7.93043C11.2557 7.93043 11.489 8.02708 11.6645 8.20253C11.84 8.37799 11.9365 8.61125 11.9365 8.85933C11.9365 9.10742 11.84 9.34076 11.6644 9.51622H11.6645ZM40.4758 18.5948C40.138 18.257 39.7521 17.9839 39.3339 17.7799C39.0515 15.8912 38.457 14.0839 37.5635 12.3964L38.1829 11.777C38.465 11.4949 38.5084 11.0499 38.2862 10.7187L37.9981 10.289L38.3462 9.44887L38.8537 9.34877C39.2449 9.27174 39.529 8.92628 39.529 8.52741V7.04116C39.529 6.64237 39.2449 6.29691 38.8537 6.21988L38.3462 6.11978L37.9981 5.27952L38.2862 4.8499C38.5084 4.5187 38.465 4.07362 38.1829 3.79159L37.1319 2.74056C36.85 2.45877 36.405 2.41529 36.0738 2.63726L35.6441 2.92546L34.804 2.57737L34.7039 2.06951C34.6265 1.67841 34.2811 1.39453 33.8825 1.39453H32.3962C31.9975 1.39453 31.6519 1.67849 31.5748 2.06975L31.4748 2.57729L30.6347 2.92538L30.2047 2.63702C29.8735 2.41513 29.4286 2.45861 29.1468 2.74048L28.0958 3.79143C27.9787 3.90858 27.9033 4.05409 27.8705 4.20768C26.1682 3.64713 24.3921 3.36309 22.5735 3.36309C19.5104 3.36309 16.5288 4.18333 13.9151 5.73933C13.1254 5.00269 12.0993 4.5979 11.0075 4.5979C9.86522 4.5979 8.79402 5.04001 7.99124 5.84287C6.75331 7.08088 6.40064 8.99194 7.11382 10.5982C7.27246 10.9555 7.53727 11.407 7.85558 11.9021C6.39568 14.453 5.62541 17.3539 5.62541 20.3112C5.62541 20.6208 5.87637 20.8718 6.18596 20.8718C6.49554 20.8718 6.7465 20.6208 6.7465 20.3112C6.7465 17.7379 7.37271 15.2118 8.56027 12.9524C8.85128 13.3726 9.15461 13.7994 9.44578 14.2089C9.84312 14.7678 10.2185 15.2958 10.4719 15.6822C10.5903 15.8627 10.7916 15.9716 11.0075 15.9716C11.2234 15.9716 11.4248 15.8628 11.5432 15.6822C11.7966 15.2958 12.172 14.7679 12.5693 14.2089C13.479 12.9293 14.51 11.4791 14.9012 10.5982C15.4785 9.298 15.3571 7.7983 14.6336 6.61739C17.0388 5.2201 19.7693 4.48411 22.5735 4.48411C24.5108 4.48411 26.3958 4.82932 28.1854 5.50879L27.9324 6.11954L27.4249 6.21964C27.0336 6.29675 26.7495 6.64213 26.7495 7.04092V8.52717C26.7495 8.92596 27.0336 9.27142 27.4248 9.34853L27.9324 9.44863L28.2805 10.2888L27.9921 10.7187C27.7702 11.05 27.8137 11.4949 28.0957 11.7767L29.1466 12.8277C29.4286 13.1096 29.8734 13.153 30.2047 12.931L30.6344 12.6428L31.4746 12.9909L31.5746 13.4984C31.6518 13.8897 31.9972 14.1737 32.3961 14.1737H33.8823C34.281 14.1737 34.6263 13.8898 34.7037 13.4985L34.8038 12.991L35.644 12.6429L36.0736 12.931C36.2467 13.0472 36.451 13.0901 36.6468 13.0649C37.3547 14.4355 37.8525 15.8891 38.133 17.4026C37.9122 17.368 37.6873 17.3496 37.4593 17.3496C36.317 17.3496 35.2458 17.7917 34.4431 18.5946C33.205 19.8326 32.8524 21.7437 33.5656 23.35C33.9567 24.2308 34.9878 25.6811 35.8974 26.9607C36.2948 27.5196 36.6701 28.0476 36.9235 28.434C37.042 28.6145 37.2433 28.7234 37.4592 28.7234C37.6751 28.7234 37.8765 28.6146 37.9948 28.434C38.2483 28.0476 38.6237 27.5195 39.0211 26.9605C39.9307 25.6809 40.9617 24.2308 41.3528 23.35C42.066 21.7437 41.7134 19.8327 40.4754 18.5947L40.4758 18.5948ZM13.7304 10.0785C13.3915 10.8418 12.3568 12.2973 11.5253 13.4668C11.3456 13.7195 11.1703 13.966 11.0077 14.1976C10.8451 13.966 10.6698 13.7195 10.4901 13.4668C9.65862 12.2973 8.62385 10.8418 8.28496 10.0785C7.78536 8.95303 8.03144 7.615 8.8974 6.74904C9.45819 6.18825 10.2076 5.87939 11.0077 5.87939C11.8078 5.87939 12.5572 6.18825 13.118 6.74904C13.984 7.615 14.2301 8.95303 13.7304 10.0785ZM36.0192 11.5448C35.8636 11.4403 35.6658 11.4207 35.4925 11.4925L34.0976 12.0704C33.9244 12.1421 33.7985 12.2958 33.7622 12.4798L33.6492 13.0529H32.6298L32.5168 12.4798C32.4806 12.2959 32.3547 12.1422 32.1814 12.0704L30.7865 11.4925C30.6131 11.4207 30.4154 11.4403 30.2598 11.5448L29.7745 11.8701L29.0536 11.1493L29.379 10.6641C29.4835 10.5084 29.5031 10.3107 29.4313 10.1374L28.8533 8.7425C28.7816 8.56921 28.6279 8.44341 28.4439 8.40713L27.8709 8.29414V7.27475L28.444 7.16176C28.6279 7.12548 28.7816 6.9996 28.8533 6.82639L29.4313 5.43151C29.503 5.25822 29.4834 5.06051 29.379 4.90476L29.0536 4.41956L29.7745 3.69878L30.2598 4.02414C30.4154 4.12864 30.6133 4.14818 30.7864 4.07643L32.1813 3.49858C32.3546 3.42683 32.4805 3.27316 32.5167 3.08914L32.6297 2.51603H33.6492L33.7621 3.08914C33.7983 3.27308 33.9242 3.42675 34.0975 3.49858L35.4924 4.07643C35.6654 4.14826 35.8634 4.12856 36.0191 4.02414L36.5043 3.69878L37.2252 4.41964L36.8998 4.90492C36.7953 5.06067 36.7757 5.25838 36.8475 5.43167L37.4255 6.82655C37.4972 6.99984 37.6509 7.12564 37.8348 7.16192L38.4079 7.27491V8.2943L37.8349 8.40729C37.6509 8.44357 37.4972 8.56945 37.4255 8.74266L36.8475 10.1375C36.7758 10.3108 36.7954 10.5085 36.8998 10.6643L37.2252 11.1496L36.5043 11.8704L36.0191 11.545L36.0192 11.5448ZM40.1822 22.8302C39.8434 23.5935 38.8087 25.0489 37.9772 26.2183C37.7975 26.4712 37.6222 26.7177 37.4595 26.9493C37.2969 26.7177 37.1216 26.4712 36.9419 26.2185C36.1104 25.049 35.0757 23.5935 34.7369 22.8302C34.2372 21.7048 34.4832 20.3668 35.3493 19.5008C35.9101 18.94 36.6594 18.6311 37.4595 18.6311C38.2596 18.6311 39.009 18.94 39.5698 19.5008C40.4358 20.3668 40.6819 21.7048 40.1822 22.8302ZM35.8966 20.0483C35.4792 20.4657 35.2493 21.0208 35.2493 21.6111C35.2493 22.2015 35.4792 22.7566 35.8966 23.1739C36.3141 23.5914 36.8692 23.8213 37.4595 23.8213C38.0498 23.8213 38.6049 23.5914 39.0225 23.1739C39.8842 22.3122 39.8842 20.9101 39.0225 20.0483C38.1608 19.1866 36.7586 19.1865 35.8968 20.0483H35.8966ZM37.4595 22.54C37.2113 22.54 36.9781 22.4434 36.8026 22.2679C36.6272 22.0925 36.5306 21.8592 36.5306 21.6111C36.5306 21.3631 36.6272 21.1297 36.8026 20.9543C36.9837 20.7732 37.2215 20.6826 37.4594 20.6826C37.6973 20.6826 37.9352 20.7732 38.1163 20.9543C38.2441 21.082 38.3258 21.2382 38.3634 21.4026C38.3505 21.5931 38.334 21.7838 38.3143 21.9735C38.2691 22.0806 38.2034 22.181 38.1164 22.268C37.9409 22.4435 37.7076 22.5401 37.4594 22.5401L37.4595 22.54ZM33.1395 4.23442C31.1821 4.23442 29.5896 5.82694 29.5896 7.78429C29.5896 9.74164 31.1821 11.3341 33.1395 11.3341C35.0968 11.3341 36.6893 9.74164 36.6893 7.78429C36.6893 5.82694 35.0968 4.23442 33.1395 4.23442ZM33.1395 10.2131C31.8001 10.2131 30.7107 9.12351 30.7107 7.78429C30.7107 6.44506 31.8001 5.35552 33.1395 5.35552C34.4788 5.35552 35.5682 6.44506 35.5682 7.78429C35.5682 9.12351 34.4788 10.2131 33.1395 10.2131ZM30.6625 38.9316C30.6625 39.2869 30.3727 39.5768 30.0173 39.5768C29.6619 39.5768 29.3721 39.287 29.3721 38.9316C29.3721 38.5762 29.6619 38.2864 30.0173 38.2864C30.3727 38.2864 30.6625 38.5762 30.6625 38.9316ZM13.445 38.9316C13.445 39.2869 13.1552 39.5768 12.7998 39.5768C12.4444 39.5768 12.1546 39.287 12.1546 38.9316C12.1546 38.5762 12.4444 38.2864 12.7998 38.2864C13.1552 38.2864 13.445 38.5762 13.445 38.9316Z" fill="#556EAA"/>
</g>
<defs>
<clipPath id="clip0_2586_10967">
<rect width="41" height="41" fill="white" transform="translate(1 1)"/>
</clipPath>
</defs>
</svg>
