<svg width="42" height="43" viewBox="0 0 42 43" fill="none" xmlns="http://www.w3.org/2000/svg">
<g clip-path="url(#clip0_2586_10925)">
<path d="M8 25.8265C8 30.5793 11.8666 34.4459 16.6193 34.4459C21.3719 34.4459 25.2385 30.5793 25.2385 25.8265C25.2385 21.0737 21.3718 17.207 16.6192 17.207C11.8665 17.207 8 21.0737 8 25.8265ZM24.0438 25.8265C24.0438 29.9206 20.7131 33.2513 16.6192 33.2513C12.5253 33.2513 9.19454 29.9206 9.19454 25.8265C9.19454 21.7324 12.5253 18.4017 16.6192 18.4017C20.7131 18.4017 24.0438 21.7324 24.0438 25.8265Z" fill="#556EAA"/>
<path d="M16.1485 20.8136C15.7975 21.2558 12.7188 25.1908 12.7188 27.1648C12.7188 29.3137 14.4672 31.0621 16.6163 31.0621C18.7654 31.0621 20.5139 29.3136 20.5139 27.1648C20.5139 25.1908 17.4351 21.2558 17.0841 20.8136C16.8575 20.5283 16.3752 20.5283 16.1485 20.8136ZM19.3192 27.1648C19.3192 28.655 18.1067 29.8675 16.6164 29.8675C15.126 29.8675 13.9135 28.655 13.9135 27.1648C13.9135 26.1308 15.4195 23.77 16.6164 22.1654C17.8133 23.7699 19.3192 26.1308 19.3192 27.1648Z" fill="#556EAA"/>
<path d="M33.3627 15.2939C33.6431 15.4678 34.0112 15.381 34.1852 15.1007C35.085 13.6474 35.5608 11.9675 35.5608 10.2429C35.5608 5.1419 31.4129 0.992188 26.3143 0.992188C21.4149 0.992188 17.3953 4.82132 17.0854 9.64394H14.9319C14.0702 9.64394 13.3692 10.3447 13.3692 11.2065V13.4693C12.2501 13.7625 11.1812 14.2059 10.181 14.7907L8.58017 13.1902C7.97084 12.5812 6.97974 12.5812 6.37041 13.1902L3.98371 15.5767C3.37356 16.1872 3.37291 17.1765 3.98388 17.7867L5.58447 19.3877C4.99918 20.3875 4.55629 21.4565 4.26286 22.5757H2.0002C1.13846 22.5757 0.4375 23.2765 0.4375 24.1382V27.5133C0.4375 28.375 1.13846 29.0762 2.0002 29.0762H4.26286C4.55604 30.195 4.99918 31.264 5.58447 32.2641L3.98388 33.8651C3.37315 34.475 3.37307 35.4648 3.98388 36.0747L6.37025 38.4613C6.98039 39.0714 7.96846 39.0735 8.58025 38.4613L10.1811 36.861C11.1813 37.4459 12.2501 37.8892 13.3693 38.1824V40.445C13.3693 41.3067 14.0703 42.0078 14.932 42.0078H18.3071C19.1688 42.0078 19.8698 41.3067 19.8698 40.445V38.1824C20.989 37.8893 22.0578 37.4459 23.058 36.861L24.6585 38.4613C25.2686 39.0714 26.2568 39.0735 26.8686 38.4613L29.2552 36.0747C29.8659 35.4648 29.866 34.4751 29.2552 33.8651L27.6543 32.2641C28.2396 31.2639 28.6827 30.1949 28.9761 29.0762H31.2388C32.1005 29.0762 32.8015 28.375 32.8015 27.5133V24.1381C32.8015 23.2764 32.1005 22.5756 31.2388 22.5756H28.9761C28.6827 21.4569 28.2396 20.3879 27.6544 19.3878C29.2334 19.1606 30.7147 18.5366 31.9939 17.5389C32.2541 17.3363 32.3006 16.9606 32.0975 16.7004C31.8952 16.4406 31.5193 16.3944 31.2593 16.597C29.8353 17.7076 28.1254 18.2945 26.3144 18.2945C21.8725 18.2945 18.2586 14.6825 18.2586 10.2428C18.2586 5.80061 21.8724 2.18681 26.3144 2.18681C30.7542 2.18681 34.3663 5.80061 34.3663 10.2428C34.3663 11.7454 33.9525 13.2075 33.1695 14.4714C32.9958 14.7519 33.0823 15.1201 33.3627 15.2939ZM26.3411 19.488C26.4721 19.8748 27.4085 20.9867 27.9231 23.3025C27.9839 23.5759 28.2262 23.7703 28.5062 23.7703H31.2387C31.4417 23.7703 31.6067 23.9352 31.6067 24.1382V27.5133C31.6067 27.7163 31.4417 27.8815 31.2387 27.8815H28.5062C28.2262 27.8815 27.9839 28.076 27.9231 28.3494C27.632 29.6591 27.1179 30.8988 26.3955 32.0336C26.2453 32.27 26.2793 32.5787 26.4773 32.7767L28.4103 34.7097C28.5541 34.8535 28.554 35.0863 28.4103 35.2301L26.0236 37.6166C25.8848 37.7558 25.6423 37.7558 25.5031 37.6166L23.5702 35.6839C23.3723 35.4855 23.0634 35.4524 22.8273 35.6022C21.6925 36.3243 20.453 36.8384 19.1427 37.1297C18.8695 37.1904 18.675 37.4326 18.675 37.7126V40.4448C18.675 40.6478 18.51 40.813 18.3069 40.813H14.9318C14.7288 40.813 14.5638 40.6477 14.5638 40.4448V37.7127C14.5638 37.4327 14.3694 37.1904 14.0961 37.1297C12.786 36.8384 11.5464 36.3244 10.4115 35.6022C10.1733 35.451 9.86478 35.4874 9.66856 35.6839L7.73525 37.6167C7.59645 37.7563 7.35413 37.7559 7.21492 37.6167L4.82839 35.2301C4.68459 35.0863 4.68467 34.8535 4.82839 34.7098L6.76129 32.7768C6.95923 32.5788 6.99327 32.27 6.84299 32.0336C6.12063 30.8985 5.60678 29.6592 5.31565 28.3494C5.25479 28.076 5.01255 27.8816 4.73249 27.8816H2.00003C1.797 27.8816 1.63196 27.7163 1.63196 27.5134V24.1381C1.63196 23.9351 1.797 23.7702 2.00003 23.7702H4.73249C5.01247 23.7702 5.25479 23.5758 5.31565 23.3024C5.60695 21.9923 6.12079 20.7529 6.84299 19.6182C6.99327 19.3818 6.95923 19.073 6.76129 18.8751L4.82839 16.942C4.68393 16.7976 4.68541 16.5647 4.82839 16.4213L7.21492 14.0347C7.35823 13.8916 7.59177 13.8916 7.73541 14.0347L9.66848 15.9678C9.86625 16.1658 10.1752 16.1992 10.4114 16.0495C11.5463 15.3274 12.7859 14.8133 14.096 14.522C14.3692 14.4613 14.5637 14.2191 14.5637 13.9391V11.2065C14.5637 11.0034 14.7287 10.8386 14.9318 10.8386H17.0851C17.3936 15.6582 21.4151 19.5013 26.3411 19.488Z" fill="#556EAA"/>
<path d="M25.1971 16.2077C25.5629 16.3753 25.9909 16.2721 26.2395 15.9553L30.8105 10.1315C31.0112 9.8756 31.052 9.53295 30.9167 9.23707C30.7816 8.94151 30.4959 8.74783 30.1708 8.73233L27.2326 8.59156L27.8457 5.21032C27.9175 4.81443 27.7102 4.42479 27.3417 4.26302C26.9737 4.10125 26.5465 4.21282 26.3036 4.53331C26.3036 4.53331 26.3036 4.53331 26.3035 4.53331L21.8162 10.4625C21.6228 10.7181 21.5863 11.0575 21.721 11.3484C21.8557 11.6393 22.1383 11.831 22.4587 11.8493L25.3505 12.0099L24.7093 15.2532C24.6311 15.6473 24.8318 16.0401 25.1971 16.2077ZM23.1417 10.6903L26.4244 6.35318L25.9902 8.7475C25.8967 9.26299 26.2795 9.74238 26.8006 9.76674L29.4774 9.89504L26.1474 14.1377L26.5958 11.8702C26.6976 11.3547 26.3206 10.8672 25.7946 10.8377L23.1417 10.6903Z" fill="#556EAA"/>
</g>
<defs>
<clipPath id="clip0_2586_10925">
<rect width="42" height="42" fill="white" transform="translate(0 0.5)"/>
</clipPath>
</defs>
</svg>
