<svg width="42" height="42" viewBox="0 0 42 42" fill="none" xmlns="http://www.w3.org/2000/svg">
<g clip-path="url(#clip0_5029_4998)">
<path d="M38.7373 -0.25C40.6744 -0.249754 42.2501 1.32582 42.25 3.2627V31.8301C42.25 33.7672 40.6735 35.3428 38.7363 35.3428H17.9805V38.7373C17.9805 40.6744 16.405 42.2499 14.4678 42.25H3.26367C1.32644 42.25 -0.25 40.6743 -0.25 38.7373V27.5293C-0.249924 25.5923 1.32646 24.0166 3.26367 24.0166H6.66211V3.2627C6.66211 1.32568 8.23852 -0.25 10.1758 -0.25H38.7373ZM3.26367 25.8291C2.32618 25.8291 1.56262 26.5921 1.5625 27.5293V38.7373C1.5625 39.6742 2.32607 40.4375 3.26367 40.4375H14.4678C15.4054 40.4375 16.168 39.6742 16.168 38.7373V27.5293C16.1678 26.5921 15.4052 25.8292 14.4678 25.8291H3.26367ZM10.1758 1.5625C9.23821 1.5625 8.47461 2.32541 8.47461 3.2627V24.0166H14.4678C15.1078 24.0166 15.7063 24.1922 16.2227 24.4922L34.3789 6.34082H31.6172C31.1164 6.3407 30.711 5.9349 30.7109 5.43457C30.7109 4.93421 31.1164 4.52844 31.6172 4.52832H36.5674C37.0751 4.52848 37.4736 4.94612 37.4736 5.43457V10.3828C37.4736 10.8831 37.0682 11.2889 36.5674 11.2891C36.0665 11.2891 35.6611 10.8832 35.6611 10.3828V7.62109L17.5049 25.7744C17.8051 26.2908 17.9814 26.8891 17.9814 27.5293V33.5303H38.7373C39.616 33.53 40.3413 32.8594 40.4287 32.0039L40.4375 31.8301V3.2627C40.4375 2.32541 39.6739 1.5625 38.7363 1.5625H10.1758Z" fill="#7595E5" stroke="#7595E5" stroke-width="0.5"/>
</g>
<defs>
<clipPath id="clip0_5029_4998">
<rect width="42" height="42" fill="white"/>
</clipPath>
</defs>
</svg>
