<svg width="42" height="42" viewBox="0 0 42 42" fill="none" xmlns="http://www.w3.org/2000/svg">
<g clip-path="url(#clip0_5029_5002)">
<mask id="path-1-outside-1_5029_5002" maskUnits="userSpaceOnUse" x="-0.675781" y="-0.673828" width="43" height="43" fill="black">
<rect fill="white" x="-0.675781" y="-0.673828" width="43" height="43"/>
<path d="M20.9975 15.8837C18.2318 15.8837 15.9818 18.1337 15.9818 20.8994C15.9818 23.6651 18.2318 25.9151 20.9975 25.9151C23.7632 25.9151 26.0132 23.6651 26.0132 20.8994C26.0132 18.1337 23.7632 15.8837 20.9975 15.8837ZM20.9975 24.9291C18.7755 24.9291 16.9678 23.1214 16.9678 20.8994C16.9678 18.6774 18.7755 16.8697 20.9975 16.8697C23.2195 16.8697 25.0272 18.6774 25.0272 20.8994C25.0272 23.1214 23.2195 24.9291 20.9975 24.9291ZM29.0017 27.1254C29.224 26.9051 29.3464 26.6107 29.3464 26.2963C29.3464 25.982 29.224 25.6876 29.0038 25.4694L28.6011 25.0653C28.9032 24.5155 29.1438 23.9342 29.3194 23.3294H29.8894C30.5356 23.3294 31.0613 22.8047 31.0613 22.1597V19.6414C31.0613 18.9952 30.5356 18.4695 29.8894 18.4695H29.3194C29.1441 17.8667 28.9034 17.2854 28.6007 16.7339L29.0017 16.3315C29.2233 16.1118 29.3457 15.8187 29.3464 15.506C29.3471 15.192 29.2252 14.8969 29.0032 14.6749L27.222 12.8938C26.7677 12.4395 26.0258 12.4387 25.5669 12.8938L25.1628 13.2978C24.6105 12.9937 24.0294 12.7526 23.4273 12.5775V12.0077C23.4273 11.3628 22.9027 10.838 22.2577 10.838H19.7395C19.0932 10.838 18.5675 11.3627 18.5675 12.0077V12.5778C17.9669 12.7529 17.3858 12.9941 16.8324 13.2982L16.4279 12.8938C15.9737 12.4395 15.2318 12.4387 14.7728 12.8938L12.9902 14.6765C12.5367 15.1339 12.5373 15.8758 12.9917 16.33L13.3962 16.7345C13.092 17.288 12.8508 17.8691 12.6758 18.4696H12.1056C11.4607 18.4696 10.936 18.9953 10.936 19.6415V22.1598C10.936 22.8047 11.4606 23.3294 12.1056 23.3294H12.6757C12.8511 23.932 13.0922 24.5132 13.3958 25.0648L12.9917 25.4689C12.5354 25.9252 12.5354 26.6677 12.9917 27.124L14.7729 28.9053C14.9942 29.1267 15.2883 29.2485 15.6013 29.2485H15.6039C15.9166 29.2478 16.2099 29.1254 16.428 28.9053L16.8324 28.5009C17.386 28.805 17.9671 29.0462 18.5676 29.2213V29.7914C18.5676 30.4376 19.0933 30.9633 19.7395 30.9633H22.2578C22.9027 30.9633 23.4274 30.4376 23.4274 29.7914V29.2213C24.03 29.0459 24.6112 28.8048 25.1628 28.5012L25.567 28.9053C25.7883 29.1267 26.0824 29.2485 26.3954 29.2485H26.398C26.7107 29.2478 27.004 29.1254 27.2221 28.9053L29.0017 27.1254ZM26.3958 28.2624C26.3669 28.2624 26.3114 28.2553 26.264 28.208L25.592 27.536C25.431 27.3751 25.1809 27.3453 24.9865 27.4638C24.312 27.8757 23.5825 28.1784 22.8183 28.3635C22.5972 28.417 22.4413 28.615 22.4413 28.8426V29.7913C22.4413 29.8921 22.3573 29.9773 22.2577 29.9773H19.7395C19.6368 29.9773 19.5534 29.8939 19.5534 29.7913V28.8426C19.5534 28.615 19.3976 28.417 19.1765 28.3635C18.416 28.1793 17.6863 27.8764 17.0077 27.4634C16.9283 27.4151 16.8397 27.3915 16.7516 27.3915C16.6241 27.3915 16.4978 27.4409 16.4028 27.536L15.7293 28.2096C15.6838 28.2555 15.6298 28.2624 15.6016 28.2625C15.5727 28.2625 15.5172 28.2553 15.4698 28.2081L13.6887 26.4269C13.618 26.3561 13.618 26.2367 13.6887 26.166L14.3607 25.4941C14.5216 25.3331 14.5515 25.0829 14.4329 24.8885C14.021 24.214 13.7183 23.4845 13.5332 22.7203C13.4797 22.4992 13.2817 22.3433 13.0541 22.3433H12.1054C12.0058 22.3433 11.9217 22.2593 11.9217 22.1597V19.6414C11.9217 19.5406 12.0058 19.4554 12.1054 19.4554H13.0541C13.2816 19.4554 13.4797 19.2997 13.5332 19.0785C13.7174 18.318 14.0202 17.5883 14.4333 16.9097C14.5514 16.7155 14.5215 16.4656 14.3607 16.3049L13.6887 15.6329C13.6184 15.5625 13.619 15.4423 13.6887 15.3719L15.4683 13.5923C15.5402 13.5212 15.6604 13.5206 15.7307 13.5909L16.4027 14.2628C16.5635 14.4235 16.8133 14.4536 17.0075 14.3353C17.686 13.9224 18.4157 13.6195 19.1763 13.4352C19.3975 13.3817 19.5533 13.1837 19.5533 12.9561V12.0074C19.5533 11.9078 19.6384 11.8238 19.7393 11.8238H22.2576C22.3572 11.8238 22.4412 11.9078 22.4412 12.0074V12.9561C22.4412 13.1837 22.597 13.3818 22.8184 13.4353C23.5812 13.6196 24.3105 13.9223 24.9863 14.3349C25.1806 14.4534 25.4308 14.4236 25.5918 14.2628L26.2623 13.5922C26.3342 13.5211 26.4544 13.5204 26.5248 13.5907L28.3059 15.3718C28.3534 15.4193 28.3604 15.4748 28.3603 15.5036C28.3603 15.5317 28.3533 15.5857 28.3052 15.6333L27.6355 16.3053C27.4753 16.4661 27.4456 16.7156 27.5636 16.9095C27.9741 17.5841 28.2761 18.3136 28.4613 19.0783C28.5148 19.2994 28.7128 19.4553 28.9404 19.4553H29.8891C29.9917 19.4553 30.0752 19.5387 30.0752 19.6412V22.1595C30.0752 22.2591 29.99 22.3432 29.8891 22.3432H28.9404C28.7129 22.3432 28.5148 22.499 28.4613 22.7201C28.2751 23.4884 27.9733 24.218 27.564 24.8884C27.4456 25.0824 27.4751 25.3322 27.6355 25.4933L28.3074 26.1673C28.3534 26.213 28.3603 26.2677 28.3603 26.2962C28.3603 26.3246 28.3534 26.3795 28.3059 26.4267L26.5233 28.2094C26.4778 28.2553 26.4239 28.2623 26.3958 28.2624ZM0.498463 7.19356C0.228334 4.82713 0.703049 3.0162 1.90948 1.811C3.11592 0.604732 4.927 0.129853 7.29262 0.39949C8.94153 0.587587 10.7929 1.12899 12.8164 2.01313L12.1581 1.22792C11.9832 1.01924 12.0105 0.708337 12.2191 0.533365C12.4279 0.358556 12.7387 0.385872 12.9136 0.594478L15.0292 3.11792C15.0624 3.15574 15.0893 3.19815 15.1094 3.24335C15.121 3.26943 15.1303 3.2965 15.1372 3.32407C15.1643 3.43268 15.1547 3.55113 15.1021 3.65908C15.0965 3.67065 15.0903 3.68197 15.0839 3.69296C15.029 3.78672 14.9472 3.85596 14.8535 3.89624C14.8212 3.91018 14.7873 3.92068 14.7523 3.92741C14.7207 3.93356 14.6891 3.93815 14.6557 3.93635L11.3615 3.98261C11.3592 3.98261 11.3568 3.98261 11.3544 3.98261C11.0854 3.98261 10.8654 3.76638 10.8616 3.49658C10.8578 3.22432 11.0753 3.00054 11.3476 2.99668L12.5605 2.97962C10.579 2.10484 8.74515 1.55728 7.18089 1.37886C5.12888 1.14474 3.58997 1.52471 2.6065 2.5081C1.62336 3.49026 1.2438 5.02892 1.47808 7.08151C1.71179 9.12794 2.57656 11.6355 3.97888 14.3329C4.10447 14.5745 4.01047 14.8721 3.76888 14.9977C3.69621 15.0354 3.61844 15.0534 3.54182 15.0534C3.36373 15.0534 3.19179 14.9566 3.10402 14.7878C1.6259 11.9446 0.749233 9.38954 0.498463 7.19356ZM41.5984 7.29446C41.4099 8.94321 40.8684 10.7942 39.9838 12.818L40.7689 12.1598C40.9775 11.985 41.2883 12.0123 41.4634 12.2208C41.6383 12.4295 41.611 12.7404 41.4024 12.9154L38.8787 15.0311C38.8416 15.0636 38.8 15.0902 38.7557 15.1102C38.7287 15.1222 38.7008 15.1319 38.6724 15.139C38.6334 15.1487 38.5934 15.1537 38.5529 15.1537C38.4797 15.1537 38.4057 15.1374 38.3359 15.1031C38.3256 15.098 38.3156 15.0926 38.3058 15.0869C38.2086 15.0307 38.1376 14.9457 38.0976 14.8485C38.0858 14.8198 38.0766 14.7898 38.0703 14.7591C38.0635 14.7258 38.0602 14.6918 38.0603 14.6575L38.0141 11.3635C38.0102 11.0912 38.2277 10.8674 38.5 10.8636H38.5071C38.7761 10.8636 38.9961 11.0798 38.9999 11.3496L39.017 12.5628C39.8922 10.5807 40.4401 8.74683 40.6189 7.18274C40.8535 5.13064 40.4739 3.59174 39.4908 2.60851C38.5077 1.62536 36.9686 1.24589 34.9161 1.48009C32.8703 1.71371 30.3623 2.57849 27.6635 3.98089C27.4219 4.10665 27.1243 4.01247 26.9987 3.77081C26.8731 3.52923 26.9672 3.23162 27.2088 3.10603C30.0535 1.62774 32.609 0.751075 34.8043 0.500388C37.1704 0.230423 38.9817 0.704892 40.1879 1.91124C41.3943 3.1176 41.8689 4.92876 41.5984 7.29446ZM41.4984 34.8061C41.7689 37.172 41.2943 38.9834 40.0879 40.1897C39.1009 41.1768 37.7087 41.674 35.9393 41.674C35.5461 41.674 35.1344 41.6495 34.7043 41.6003C33.0552 41.4118 31.2032 40.87 29.1783 39.9852L29.8369 40.7709C30.0118 40.9795 29.9845 41.2904 29.7758 41.4654C29.5674 41.6403 29.2565 41.6129 29.0813 41.4044L26.9658 38.8808C26.9319 38.8422 26.9046 38.7989 26.8844 38.7526C26.874 38.7287 26.8655 38.7041 26.859 38.679C26.83 38.5677 26.8398 38.446 26.895 38.3354C26.8992 38.327 26.9036 38.3187 26.9083 38.3106C26.9641 38.2131 27.0493 38.1408 27.1463 38.1005C27.1758 38.0882 27.2067 38.0786 27.2385 38.0722C27.2715 38.0655 27.3079 38.0618 27.3393 38.0623L30.6334 38.0161C30.9033 38.0156 31.1295 38.2298 31.1333 38.502C31.1371 38.7743 30.9196 38.9981 30.6473 39.0019L29.4349 39.019C31.4177 39.8942 33.2519 40.4421 34.8162 40.6209C36.8687 40.8555 38.4076 40.4759 39.3908 39.4928C40.3738 38.5097 40.7534 36.9705 40.5189 34.9182C40.2849 32.8721 39.4196 30.3641 38.0161 27.6656C37.8904 27.4241 37.9844 27.1265 38.226 27.0008C38.4677 26.8752 38.7652 26.9692 38.8908 27.2107C40.3702 30.0551 41.2474 32.6105 41.4984 34.8061ZM14.996 38.2278C15.1217 38.4693 15.0278 38.7669 14.7862 38.8926C11.9431 40.3719 9.38811 41.2492 7.19262 41.5003C6.7627 41.5494 6.35065 41.5739 5.95764 41.5739C4.18823 41.5739 2.7964 41.0768 1.80932 40.0897C0.602807 38.8831 0.127846 37.0719 0.397565 34.7062C0.585662 33.0568 1.12723 31.2046 2.01178 29.1799L1.226 29.8387C1.01739 30.0136 0.706494 29.9864 0.53144 29.7776C0.356549 29.569 0.383866 29.2581 0.592553 29.0831L3.11608 26.9674C3.15455 26.9337 3.19762 26.9065 3.24372 26.8864C3.26767 26.8759 3.29237 26.8674 3.31738 26.8608C3.42829 26.832 3.54937 26.8414 3.65954 26.8958C3.66938 26.9008 3.67898 26.9058 3.68841 26.9113C3.78562 26.9674 3.85682 27.0522 3.89694 27.1492C3.90908 27.1786 3.91851 27.2093 3.92491 27.2409C3.93139 27.2735 3.93467 27.3074 3.93451 27.341L3.98077 30.6351C3.98463 30.9074 3.76708 31.1312 3.49482 31.135C3.49244 31.135 3.49006 31.135 3.48768 31.135C3.2187 31.135 2.99869 30.9188 2.99492 30.649L2.97786 29.4368C2.10308 31.4192 1.55552 33.2533 1.3771 34.8178C1.14298 36.8699 1.52295 38.4091 2.50634 39.3925C3.48957 40.3756 5.02897 40.755 7.08057 40.5206C9.12659 40.2866 11.6339 39.4213 14.3311 38.0178C14.5726 37.8923 14.8703 37.9862 14.996 38.2278ZM20.9974 33.0582C18.9139 33.0582 17.2188 34.7533 17.2188 36.8368C17.2188 38.9203 18.9139 40.6154 20.9974 40.6154C23.0809 40.6154 24.776 38.9203 24.776 36.8368C24.776 34.7533 23.0809 33.0582 20.9974 33.0582ZM20.9974 39.6295C19.4575 39.6295 18.2047 38.3768 18.2047 36.8368C18.2047 35.2968 19.4574 34.0441 20.9974 34.0441C22.5374 34.0441 23.7901 35.2968 23.7901 36.8368C23.7901 38.3768 22.5374 39.6295 20.9974 39.6295ZM2.58345 17.1207C1.86543 17.1207 1.28129 17.7038 1.28129 18.4206V23.3782C1.28129 24.0949 1.86543 24.6781 2.58345 24.6781H7.53863C8.25534 24.6781 8.8385 24.095 8.8385 23.3782V18.4206C8.8385 17.7039 8.25542 17.1207 7.53863 17.1207H2.58345ZM7.85248 18.4206V23.3782C7.85248 23.5513 7.71172 23.6921 7.53863 23.6921H2.58345C2.40905 23.6921 2.2673 23.5513 2.2673 23.3782V18.4206C2.2673 18.2475 2.40913 18.1068 2.58345 18.1068H7.53863C7.71172 18.1068 7.85248 18.2475 7.85248 18.4206ZM20.9974 8.94042C23.0809 8.94042 24.776 7.24533 24.776 5.1619C24.776 3.07847 23.0809 1.38329 20.9974 1.38329C18.9139 1.38329 17.2188 3.07838 17.2188 5.1619C17.2188 7.24541 18.9139 8.94042 20.9974 8.94042ZM20.9974 2.36922C22.5373 2.36922 23.7901 3.62192 23.7901 5.1619C23.7901 6.70187 22.5374 7.95449 20.9974 7.95449C19.4574 7.95449 18.2047 6.70179 18.2047 5.1619C18.2047 3.62201 19.4574 2.36922 20.9974 2.36922ZM39.4138 24.6781C40.1305 24.6781 40.7136 24.095 40.7136 23.3782V18.4206C40.7136 17.7039 40.1305 17.1207 39.4138 17.1207H34.4586C33.7406 17.1207 33.1564 17.7038 33.1564 18.4206V23.3782C33.1564 24.0949 33.7406 24.6781 34.4586 24.6781H39.4138ZM34.1423 23.3782V18.4206C34.1423 18.2475 34.2842 18.1068 34.4585 18.1068H39.4137C39.5868 18.1068 39.7275 18.2475 39.7275 18.4206V23.3782C39.7275 23.5513 39.5868 23.6921 39.4137 23.6921H34.4585C34.2841 23.6921 34.1423 23.5513 34.1423 23.3782Z"/>
</mask>
<path d="M20.9975 15.8837C18.2318 15.8837 15.9818 18.1337 15.9818 20.8994C15.9818 23.6651 18.2318 25.9151 20.9975 25.9151C23.7632 25.9151 26.0132 23.6651 26.0132 20.8994C26.0132 18.1337 23.7632 15.8837 20.9975 15.8837ZM20.9975 24.9291C18.7755 24.9291 16.9678 23.1214 16.9678 20.8994C16.9678 18.6774 18.7755 16.8697 20.9975 16.8697C23.2195 16.8697 25.0272 18.6774 25.0272 20.8994C25.0272 23.1214 23.2195 24.9291 20.9975 24.9291ZM29.0017 27.1254C29.224 26.9051 29.3464 26.6107 29.3464 26.2963C29.3464 25.982 29.224 25.6876 29.0038 25.4694L28.6011 25.0653C28.9032 24.5155 29.1438 23.9342 29.3194 23.3294H29.8894C30.5356 23.3294 31.0613 22.8047 31.0613 22.1597V19.6414C31.0613 18.9952 30.5356 18.4695 29.8894 18.4695H29.3194C29.1441 17.8667 28.9034 17.2854 28.6007 16.7339L29.0017 16.3315C29.2233 16.1118 29.3457 15.8187 29.3464 15.506C29.3471 15.192 29.2252 14.8969 29.0032 14.6749L27.222 12.8938C26.7677 12.4395 26.0258 12.4387 25.5669 12.8938L25.1628 13.2978C24.6105 12.9937 24.0294 12.7526 23.4273 12.5775V12.0077C23.4273 11.3628 22.9027 10.838 22.2577 10.838H19.7395C19.0932 10.838 18.5675 11.3627 18.5675 12.0077V12.5778C17.9669 12.7529 17.3858 12.9941 16.8324 13.2982L16.4279 12.8938C15.9737 12.4395 15.2318 12.4387 14.7728 12.8938L12.9902 14.6765C12.5367 15.1339 12.5373 15.8758 12.9917 16.33L13.3962 16.7345C13.092 17.288 12.8508 17.8691 12.6758 18.4696H12.1056C11.4607 18.4696 10.936 18.9953 10.936 19.6415V22.1598C10.936 22.8047 11.4606 23.3294 12.1056 23.3294H12.6757C12.8511 23.932 13.0922 24.5132 13.3958 25.0648L12.9917 25.4689C12.5354 25.9252 12.5354 26.6677 12.9917 27.124L14.7729 28.9053C14.9942 29.1267 15.2883 29.2485 15.6013 29.2485H15.6039C15.9166 29.2478 16.2099 29.1254 16.428 28.9053L16.8324 28.5009C17.386 28.805 17.9671 29.0462 18.5676 29.2213V29.7914C18.5676 30.4376 19.0933 30.9633 19.7395 30.9633H22.2578C22.9027 30.9633 23.4274 30.4376 23.4274 29.7914V29.2213C24.03 29.0459 24.6112 28.8048 25.1628 28.5012L25.567 28.9053C25.7883 29.1267 26.0824 29.2485 26.3954 29.2485H26.398C26.7107 29.2478 27.004 29.1254 27.2221 28.9053L29.0017 27.1254ZM26.3958 28.2624C26.3669 28.2624 26.3114 28.2553 26.264 28.208L25.592 27.536C25.431 27.3751 25.1809 27.3453 24.9865 27.4638C24.312 27.8757 23.5825 28.1784 22.8183 28.3635C22.5972 28.417 22.4413 28.615 22.4413 28.8426V29.7913C22.4413 29.8921 22.3573 29.9773 22.2577 29.9773H19.7395C19.6368 29.9773 19.5534 29.8939 19.5534 29.7913V28.8426C19.5534 28.615 19.3976 28.417 19.1765 28.3635C18.416 28.1793 17.6863 27.8764 17.0077 27.4634C16.9283 27.4151 16.8397 27.3915 16.7516 27.3915C16.6241 27.3915 16.4978 27.4409 16.4028 27.536L15.7293 28.2096C15.6838 28.2555 15.6298 28.2624 15.6016 28.2625C15.5727 28.2625 15.5172 28.2553 15.4698 28.2081L13.6887 26.4269C13.618 26.3561 13.618 26.2367 13.6887 26.166L14.3607 25.4941C14.5216 25.3331 14.5515 25.0829 14.4329 24.8885C14.021 24.214 13.7183 23.4845 13.5332 22.7203C13.4797 22.4992 13.2817 22.3433 13.0541 22.3433H12.1054C12.0058 22.3433 11.9217 22.2593 11.9217 22.1597V19.6414C11.9217 19.5406 12.0058 19.4554 12.1054 19.4554H13.0541C13.2816 19.4554 13.4797 19.2997 13.5332 19.0785C13.7174 18.318 14.0202 17.5883 14.4333 16.9097C14.5514 16.7155 14.5215 16.4656 14.3607 16.3049L13.6887 15.6329C13.6184 15.5625 13.619 15.4423 13.6887 15.3719L15.4683 13.5923C15.5402 13.5212 15.6604 13.5206 15.7307 13.5909L16.4027 14.2628C16.5635 14.4235 16.8133 14.4536 17.0075 14.3353C17.686 13.9224 18.4157 13.6195 19.1763 13.4352C19.3975 13.3817 19.5533 13.1837 19.5533 12.9561V12.0074C19.5533 11.9078 19.6384 11.8238 19.7393 11.8238H22.2576C22.3572 11.8238 22.4412 11.9078 22.4412 12.0074V12.9561C22.4412 13.1837 22.597 13.3818 22.8184 13.4353C23.5812 13.6196 24.3105 13.9223 24.9863 14.3349C25.1806 14.4534 25.4308 14.4236 25.5918 14.2628L26.2623 13.5922C26.3342 13.5211 26.4544 13.5204 26.5248 13.5907L28.3059 15.3718C28.3534 15.4193 28.3604 15.4748 28.3603 15.5036C28.3603 15.5317 28.3533 15.5857 28.3052 15.6333L27.6355 16.3053C27.4753 16.4661 27.4456 16.7156 27.5636 16.9095C27.9741 17.5841 28.2761 18.3136 28.4613 19.0783C28.5148 19.2994 28.7128 19.4553 28.9404 19.4553H29.8891C29.9917 19.4553 30.0752 19.5387 30.0752 19.6412V22.1595C30.0752 22.2591 29.99 22.3432 29.8891 22.3432H28.9404C28.7129 22.3432 28.5148 22.499 28.4613 22.7201C28.2751 23.4884 27.9733 24.218 27.564 24.8884C27.4456 25.0824 27.4751 25.3322 27.6355 25.4933L28.3074 26.1673C28.3534 26.213 28.3603 26.2677 28.3603 26.2962C28.3603 26.3246 28.3534 26.3795 28.3059 26.4267L26.5233 28.2094C26.4778 28.2553 26.4239 28.2623 26.3958 28.2624ZM0.498463 7.19356C0.228334 4.82713 0.703049 3.0162 1.90948 1.811C3.11592 0.604732 4.927 0.129853 7.29262 0.39949C8.94153 0.587587 10.7929 1.12899 12.8164 2.01313L12.1581 1.22792C11.9832 1.01924 12.0105 0.708337 12.2191 0.533365C12.4279 0.358556 12.7387 0.385872 12.9136 0.594478L15.0292 3.11792C15.0624 3.15574 15.0893 3.19815 15.1094 3.24335C15.121 3.26943 15.1303 3.2965 15.1372 3.32407C15.1643 3.43268 15.1547 3.55113 15.1021 3.65908C15.0965 3.67065 15.0903 3.68197 15.0839 3.69296C15.029 3.78672 14.9472 3.85596 14.8535 3.89624C14.8212 3.91018 14.7873 3.92068 14.7523 3.92741C14.7207 3.93356 14.6891 3.93815 14.6557 3.93635L11.3615 3.98261C11.3592 3.98261 11.3568 3.98261 11.3544 3.98261C11.0854 3.98261 10.8654 3.76638 10.8616 3.49658C10.8578 3.22432 11.0753 3.00054 11.3476 2.99668L12.5605 2.97962C10.579 2.10484 8.74515 1.55728 7.18089 1.37886C5.12888 1.14474 3.58997 1.52471 2.6065 2.5081C1.62336 3.49026 1.2438 5.02892 1.47808 7.08151C1.71179 9.12794 2.57656 11.6355 3.97888 14.3329C4.10447 14.5745 4.01047 14.8721 3.76888 14.9977C3.69621 15.0354 3.61844 15.0534 3.54182 15.0534C3.36373 15.0534 3.19179 14.9566 3.10402 14.7878C1.6259 11.9446 0.749233 9.38954 0.498463 7.19356ZM41.5984 7.29446C41.4099 8.94321 40.8684 10.7942 39.9838 12.818L40.7689 12.1598C40.9775 11.985 41.2883 12.0123 41.4634 12.2208C41.6383 12.4295 41.611 12.7404 41.4024 12.9154L38.8787 15.0311C38.8416 15.0636 38.8 15.0902 38.7557 15.1102C38.7287 15.1222 38.7008 15.1319 38.6724 15.139C38.6334 15.1487 38.5934 15.1537 38.5529 15.1537C38.4797 15.1537 38.4057 15.1374 38.3359 15.1031C38.3256 15.098 38.3156 15.0926 38.3058 15.0869C38.2086 15.0307 38.1376 14.9457 38.0976 14.8485C38.0858 14.8198 38.0766 14.7898 38.0703 14.7591C38.0635 14.7258 38.0602 14.6918 38.0603 14.6575L38.0141 11.3635C38.0102 11.0912 38.2277 10.8674 38.5 10.8636H38.5071C38.7761 10.8636 38.9961 11.0798 38.9999 11.3496L39.017 12.5628C39.8922 10.5807 40.4401 8.74683 40.6189 7.18274C40.8535 5.13064 40.4739 3.59174 39.4908 2.60851C38.5077 1.62536 36.9686 1.24589 34.9161 1.48009C32.8703 1.71371 30.3623 2.57849 27.6635 3.98089C27.4219 4.10665 27.1243 4.01247 26.9987 3.77081C26.8731 3.52923 26.9672 3.23162 27.2088 3.10603C30.0535 1.62774 32.609 0.751075 34.8043 0.500388C37.1704 0.230423 38.9817 0.704892 40.1879 1.91124C41.3943 3.1176 41.8689 4.92876 41.5984 7.29446ZM41.4984 34.8061C41.7689 37.172 41.2943 38.9834 40.0879 40.1897C39.1009 41.1768 37.7087 41.674 35.9393 41.674C35.5461 41.674 35.1344 41.6495 34.7043 41.6003C33.0552 41.4118 31.2032 40.87 29.1783 39.9852L29.8369 40.7709C30.0118 40.9795 29.9845 41.2904 29.7758 41.4654C29.5674 41.6403 29.2565 41.6129 29.0813 41.4044L26.9658 38.8808C26.9319 38.8422 26.9046 38.7989 26.8844 38.7526C26.874 38.7287 26.8655 38.7041 26.859 38.679C26.83 38.5677 26.8398 38.446 26.895 38.3354C26.8992 38.327 26.9036 38.3187 26.9083 38.3106C26.9641 38.2131 27.0493 38.1408 27.1463 38.1005C27.1758 38.0882 27.2067 38.0786 27.2385 38.0722C27.2715 38.0655 27.3079 38.0618 27.3393 38.0623L30.6334 38.0161C30.9033 38.0156 31.1295 38.2298 31.1333 38.502C31.1371 38.7743 30.9196 38.9981 30.6473 39.0019L29.4349 39.019C31.4177 39.8942 33.2519 40.4421 34.8162 40.6209C36.8687 40.8555 38.4076 40.4759 39.3908 39.4928C40.3738 38.5097 40.7534 36.9705 40.5189 34.9182C40.2849 32.8721 39.4196 30.3641 38.0161 27.6656C37.8904 27.4241 37.9844 27.1265 38.226 27.0008C38.4677 26.8752 38.7652 26.9692 38.8908 27.2107C40.3702 30.0551 41.2474 32.6105 41.4984 34.8061ZM14.996 38.2278C15.1217 38.4693 15.0278 38.7669 14.7862 38.8926C11.9431 40.3719 9.38811 41.2492 7.19262 41.5003C6.7627 41.5494 6.35065 41.5739 5.95764 41.5739C4.18823 41.5739 2.7964 41.0768 1.80932 40.0897C0.602807 38.8831 0.127846 37.0719 0.397565 34.7062C0.585662 33.0568 1.12723 31.2046 2.01178 29.1799L1.226 29.8387C1.01739 30.0136 0.706494 29.9864 0.53144 29.7776C0.356549 29.569 0.383866 29.2581 0.592553 29.0831L3.11608 26.9674C3.15455 26.9337 3.19762 26.9065 3.24372 26.8864C3.26767 26.8759 3.29237 26.8674 3.31738 26.8608C3.42829 26.832 3.54937 26.8414 3.65954 26.8958C3.66938 26.9008 3.67898 26.9058 3.68841 26.9113C3.78562 26.9674 3.85682 27.0522 3.89694 27.1492C3.90908 27.1786 3.91851 27.2093 3.92491 27.2409C3.93139 27.2735 3.93467 27.3074 3.93451 27.341L3.98077 30.6351C3.98463 30.9074 3.76708 31.1312 3.49482 31.135C3.49244 31.135 3.49006 31.135 3.48768 31.135C3.2187 31.135 2.99869 30.9188 2.99492 30.649L2.97786 29.4368C2.10308 31.4192 1.55552 33.2533 1.3771 34.8178C1.14298 36.8699 1.52295 38.4091 2.50634 39.3925C3.48957 40.3756 5.02897 40.755 7.08057 40.5206C9.12659 40.2866 11.6339 39.4213 14.3311 38.0178C14.5726 37.8923 14.8703 37.9862 14.996 38.2278ZM20.9974 33.0582C18.9139 33.0582 17.2188 34.7533 17.2188 36.8368C17.2188 38.9203 18.9139 40.6154 20.9974 40.6154C23.0809 40.6154 24.776 38.9203 24.776 36.8368C24.776 34.7533 23.0809 33.0582 20.9974 33.0582ZM20.9974 39.6295C19.4575 39.6295 18.2047 38.3768 18.2047 36.8368C18.2047 35.2968 19.4574 34.0441 20.9974 34.0441C22.5374 34.0441 23.7901 35.2968 23.7901 36.8368C23.7901 38.3768 22.5374 39.6295 20.9974 39.6295ZM2.58345 17.1207C1.86543 17.1207 1.28129 17.7038 1.28129 18.4206V23.3782C1.28129 24.0949 1.86543 24.6781 2.58345 24.6781H7.53863C8.25534 24.6781 8.8385 24.095 8.8385 23.3782V18.4206C8.8385 17.7039 8.25542 17.1207 7.53863 17.1207H2.58345ZM7.85248 18.4206V23.3782C7.85248 23.5513 7.71172 23.6921 7.53863 23.6921H2.58345C2.40905 23.6921 2.2673 23.5513 2.2673 23.3782V18.4206C2.2673 18.2475 2.40913 18.1068 2.58345 18.1068H7.53863C7.71172 18.1068 7.85248 18.2475 7.85248 18.4206ZM20.9974 8.94042C23.0809 8.94042 24.776 7.24533 24.776 5.1619C24.776 3.07847 23.0809 1.38329 20.9974 1.38329C18.9139 1.38329 17.2188 3.07838 17.2188 5.1619C17.2188 7.24541 18.9139 8.94042 20.9974 8.94042ZM20.9974 2.36922C22.5373 2.36922 23.7901 3.62192 23.7901 5.1619C23.7901 6.70187 22.5374 7.95449 20.9974 7.95449C19.4574 7.95449 18.2047 6.70179 18.2047 5.1619C18.2047 3.62201 19.4574 2.36922 20.9974 2.36922ZM39.4138 24.6781C40.1305 24.6781 40.7136 24.095 40.7136 23.3782V18.4206C40.7136 17.7039 40.1305 17.1207 39.4138 17.1207H34.4586C33.7406 17.1207 33.1564 17.7038 33.1564 18.4206V23.3782C33.1564 24.0949 33.7406 24.6781 34.4586 24.6781H39.4138ZM34.1423 23.3782V18.4206C34.1423 18.2475 34.2842 18.1068 34.4585 18.1068H39.4137C39.5868 18.1068 39.7275 18.2475 39.7275 18.4206V23.3782C39.7275 23.5513 39.5868 23.6921 39.4137 23.6921H34.4585C34.2841 23.6921 34.1423 23.5513 34.1423 23.3782Z" fill="#7595E5"/>
<path d="M20.9975 15.8837C18.2318 15.8837 15.9818 18.1337 15.9818 20.8994C15.9818 23.6651 18.2318 25.9151 20.9975 25.9151C23.7632 25.9151 26.0132 23.6651 26.0132 20.8994C26.0132 18.1337 23.7632 15.8837 20.9975 15.8837ZM20.9975 24.9291C18.7755 24.9291 16.9678 23.1214 16.9678 20.8994C16.9678 18.6774 18.7755 16.8697 20.9975 16.8697C23.2195 16.8697 25.0272 18.6774 25.0272 20.8994C25.0272 23.1214 23.2195 24.9291 20.9975 24.9291ZM29.0017 27.1254C29.224 26.9051 29.3464 26.6107 29.3464 26.2963C29.3464 25.982 29.224 25.6876 29.0038 25.4694L28.6011 25.0653C28.9032 24.5155 29.1438 23.9342 29.3194 23.3294H29.8894C30.5356 23.3294 31.0613 22.8047 31.0613 22.1597V19.6414C31.0613 18.9952 30.5356 18.4695 29.8894 18.4695H29.3194C29.1441 17.8667 28.9034 17.2854 28.6007 16.7339L29.0017 16.3315C29.2233 16.1118 29.3457 15.8187 29.3464 15.506C29.3471 15.192 29.2252 14.8969 29.0032 14.6749L27.222 12.8938C26.7677 12.4395 26.0258 12.4387 25.5669 12.8938L25.1628 13.2978C24.6105 12.9937 24.0294 12.7526 23.4273 12.5775V12.0077C23.4273 11.3628 22.9027 10.838 22.2577 10.838H19.7395C19.0932 10.838 18.5675 11.3627 18.5675 12.0077V12.5778C17.9669 12.7529 17.3858 12.9941 16.8324 13.2982L16.4279 12.8938C15.9737 12.4395 15.2318 12.4387 14.7728 12.8938L12.9902 14.6765C12.5367 15.1339 12.5373 15.8758 12.9917 16.33L13.3962 16.7345C13.092 17.288 12.8508 17.8691 12.6758 18.4696H12.1056C11.4607 18.4696 10.936 18.9953 10.936 19.6415V22.1598C10.936 22.8047 11.4606 23.3294 12.1056 23.3294H12.6757C12.8511 23.932 13.0922 24.5132 13.3958 25.0648L12.9917 25.4689C12.5354 25.9252 12.5354 26.6677 12.9917 27.124L14.7729 28.9053C14.9942 29.1267 15.2883 29.2485 15.6013 29.2485H15.6039C15.9166 29.2478 16.2099 29.1254 16.428 28.9053L16.8324 28.5009C17.386 28.805 17.9671 29.0462 18.5676 29.2213V29.7914C18.5676 30.4376 19.0933 30.9633 19.7395 30.9633H22.2578C22.9027 30.9633 23.4274 30.4376 23.4274 29.7914V29.2213C24.03 29.0459 24.6112 28.8048 25.1628 28.5012L25.567 28.9053C25.7883 29.1267 26.0824 29.2485 26.3954 29.2485H26.398C26.7107 29.2478 27.004 29.1254 27.2221 28.9053L29.0017 27.1254ZM26.3958 28.2624C26.3669 28.2624 26.3114 28.2553 26.264 28.208L25.592 27.536C25.431 27.3751 25.1809 27.3453 24.9865 27.4638C24.312 27.8757 23.5825 28.1784 22.8183 28.3635C22.5972 28.417 22.4413 28.615 22.4413 28.8426V29.7913C22.4413 29.8921 22.3573 29.9773 22.2577 29.9773H19.7395C19.6368 29.9773 19.5534 29.8939 19.5534 29.7913V28.8426C19.5534 28.615 19.3976 28.417 19.1765 28.3635C18.416 28.1793 17.6863 27.8764 17.0077 27.4634C16.9283 27.4151 16.8397 27.3915 16.7516 27.3915C16.6241 27.3915 16.4978 27.4409 16.4028 27.536L15.7293 28.2096C15.6838 28.2555 15.6298 28.2624 15.6016 28.2625C15.5727 28.2625 15.5172 28.2553 15.4698 28.2081L13.6887 26.4269C13.618 26.3561 13.618 26.2367 13.6887 26.166L14.3607 25.4941C14.5216 25.3331 14.5515 25.0829 14.4329 24.8885C14.021 24.214 13.7183 23.4845 13.5332 22.7203C13.4797 22.4992 13.2817 22.3433 13.0541 22.3433H12.1054C12.0058 22.3433 11.9217 22.2593 11.9217 22.1597V19.6414C11.9217 19.5406 12.0058 19.4554 12.1054 19.4554H13.0541C13.2816 19.4554 13.4797 19.2997 13.5332 19.0785C13.7174 18.318 14.0202 17.5883 14.4333 16.9097C14.5514 16.7155 14.5215 16.4656 14.3607 16.3049L13.6887 15.6329C13.6184 15.5625 13.619 15.4423 13.6887 15.3719L15.4683 13.5923C15.5402 13.5212 15.6604 13.5206 15.7307 13.5909L16.4027 14.2628C16.5635 14.4235 16.8133 14.4536 17.0075 14.3353C17.686 13.9224 18.4157 13.6195 19.1763 13.4352C19.3975 13.3817 19.5533 13.1837 19.5533 12.9561V12.0074C19.5533 11.9078 19.6384 11.8238 19.7393 11.8238H22.2576C22.3572 11.8238 22.4412 11.9078 22.4412 12.0074V12.9561C22.4412 13.1837 22.597 13.3818 22.8184 13.4353C23.5812 13.6196 24.3105 13.9223 24.9863 14.3349C25.1806 14.4534 25.4308 14.4236 25.5918 14.2628L26.2623 13.5922C26.3342 13.5211 26.4544 13.5204 26.5248 13.5907L28.3059 15.3718C28.3534 15.4193 28.3604 15.4748 28.3603 15.5036C28.3603 15.5317 28.3533 15.5857 28.3052 15.6333L27.6355 16.3053C27.4753 16.4661 27.4456 16.7156 27.5636 16.9095C27.9741 17.5841 28.2761 18.3136 28.4613 19.0783C28.5148 19.2994 28.7128 19.4553 28.9404 19.4553H29.8891C29.9917 19.4553 30.0752 19.5387 30.0752 19.6412V22.1595C30.0752 22.2591 29.99 22.3432 29.8891 22.3432H28.9404C28.7129 22.3432 28.5148 22.499 28.4613 22.7201C28.2751 23.4884 27.9733 24.218 27.564 24.8884C27.4456 25.0824 27.4751 25.3322 27.6355 25.4933L28.3074 26.1673C28.3534 26.213 28.3603 26.2677 28.3603 26.2962C28.3603 26.3246 28.3534 26.3795 28.3059 26.4267L26.5233 28.2094C26.4778 28.2553 26.4239 28.2623 26.3958 28.2624ZM0.498463 7.19356C0.228334 4.82713 0.703049 3.0162 1.90948 1.811C3.11592 0.604732 4.927 0.129853 7.29262 0.39949C8.94153 0.587587 10.7929 1.12899 12.8164 2.01313L12.1581 1.22792C11.9832 1.01924 12.0105 0.708337 12.2191 0.533365C12.4279 0.358556 12.7387 0.385872 12.9136 0.594478L15.0292 3.11792C15.0624 3.15574 15.0893 3.19815 15.1094 3.24335C15.121 3.26943 15.1303 3.2965 15.1372 3.32407C15.1643 3.43268 15.1547 3.55113 15.1021 3.65908C15.0965 3.67065 15.0903 3.68197 15.0839 3.69296C15.029 3.78672 14.9472 3.85596 14.8535 3.89624C14.8212 3.91018 14.7873 3.92068 14.7523 3.92741C14.7207 3.93356 14.6891 3.93815 14.6557 3.93635L11.3615 3.98261C11.3592 3.98261 11.3568 3.98261 11.3544 3.98261C11.0854 3.98261 10.8654 3.76638 10.8616 3.49658C10.8578 3.22432 11.0753 3.00054 11.3476 2.99668L12.5605 2.97962C10.579 2.10484 8.74515 1.55728 7.18089 1.37886C5.12888 1.14474 3.58997 1.52471 2.6065 2.5081C1.62336 3.49026 1.2438 5.02892 1.47808 7.08151C1.71179 9.12794 2.57656 11.6355 3.97888 14.3329C4.10447 14.5745 4.01047 14.8721 3.76888 14.9977C3.69621 15.0354 3.61844 15.0534 3.54182 15.0534C3.36373 15.0534 3.19179 14.9566 3.10402 14.7878C1.6259 11.9446 0.749233 9.38954 0.498463 7.19356ZM41.5984 7.29446C41.4099 8.94321 40.8684 10.7942 39.9838 12.818L40.7689 12.1598C40.9775 11.985 41.2883 12.0123 41.4634 12.2208C41.6383 12.4295 41.611 12.7404 41.4024 12.9154L38.8787 15.0311C38.8416 15.0636 38.8 15.0902 38.7557 15.1102C38.7287 15.1222 38.7008 15.1319 38.6724 15.139C38.6334 15.1487 38.5934 15.1537 38.5529 15.1537C38.4797 15.1537 38.4057 15.1374 38.3359 15.1031C38.3256 15.098 38.3156 15.0926 38.3058 15.0869C38.2086 15.0307 38.1376 14.9457 38.0976 14.8485C38.0858 14.8198 38.0766 14.7898 38.0703 14.7591C38.0635 14.7258 38.0602 14.6918 38.0603 14.6575L38.0141 11.3635C38.0102 11.0912 38.2277 10.8674 38.5 10.8636H38.5071C38.7761 10.8636 38.9961 11.0798 38.9999 11.3496L39.017 12.5628C39.8922 10.5807 40.4401 8.74683 40.6189 7.18274C40.8535 5.13064 40.4739 3.59174 39.4908 2.60851C38.5077 1.62536 36.9686 1.24589 34.9161 1.48009C32.8703 1.71371 30.3623 2.57849 27.6635 3.98089C27.4219 4.10665 27.1243 4.01247 26.9987 3.77081C26.8731 3.52923 26.9672 3.23162 27.2088 3.10603C30.0535 1.62774 32.609 0.751075 34.8043 0.500388C37.1704 0.230423 38.9817 0.704892 40.1879 1.91124C41.3943 3.1176 41.8689 4.92876 41.5984 7.29446ZM41.4984 34.8061C41.7689 37.172 41.2943 38.9834 40.0879 40.1897C39.1009 41.1768 37.7087 41.674 35.9393 41.674C35.5461 41.674 35.1344 41.6495 34.7043 41.6003C33.0552 41.4118 31.2032 40.87 29.1783 39.9852L29.8369 40.7709C30.0118 40.9795 29.9845 41.2904 29.7758 41.4654C29.5674 41.6403 29.2565 41.6129 29.0813 41.4044L26.9658 38.8808C26.9319 38.8422 26.9046 38.7989 26.8844 38.7526C26.874 38.7287 26.8655 38.7041 26.859 38.679C26.83 38.5677 26.8398 38.446 26.895 38.3354C26.8992 38.327 26.9036 38.3187 26.9083 38.3106C26.9641 38.2131 27.0493 38.1408 27.1463 38.1005C27.1758 38.0882 27.2067 38.0786 27.2385 38.0722C27.2715 38.0655 27.3079 38.0618 27.3393 38.0623L30.6334 38.0161C30.9033 38.0156 31.1295 38.2298 31.1333 38.502C31.1371 38.7743 30.9196 38.9981 30.6473 39.0019L29.4349 39.019C31.4177 39.8942 33.2519 40.4421 34.8162 40.6209C36.8687 40.8555 38.4076 40.4759 39.3908 39.4928C40.3738 38.5097 40.7534 36.9705 40.5189 34.9182C40.2849 32.8721 39.4196 30.3641 38.0161 27.6656C37.8904 27.4241 37.9844 27.1265 38.226 27.0008C38.4677 26.8752 38.7652 26.9692 38.8908 27.2107C40.3702 30.0551 41.2474 32.6105 41.4984 34.8061ZM14.996 38.2278C15.1217 38.4693 15.0278 38.7669 14.7862 38.8926C11.9431 40.3719 9.38811 41.2492 7.19262 41.5003C6.7627 41.5494 6.35065 41.5739 5.95764 41.5739C4.18823 41.5739 2.7964 41.0768 1.80932 40.0897C0.602807 38.8831 0.127846 37.0719 0.397565 34.7062C0.585662 33.0568 1.12723 31.2046 2.01178 29.1799L1.226 29.8387C1.01739 30.0136 0.706494 29.9864 0.53144 29.7776C0.356549 29.569 0.383866 29.2581 0.592553 29.0831L3.11608 26.9674C3.15455 26.9337 3.19762 26.9065 3.24372 26.8864C3.26767 26.8759 3.29237 26.8674 3.31738 26.8608C3.42829 26.832 3.54937 26.8414 3.65954 26.8958C3.66938 26.9008 3.67898 26.9058 3.68841 26.9113C3.78562 26.9674 3.85682 27.0522 3.89694 27.1492C3.90908 27.1786 3.91851 27.2093 3.92491 27.2409C3.93139 27.2735 3.93467 27.3074 3.93451 27.341L3.98077 30.6351C3.98463 30.9074 3.76708 31.1312 3.49482 31.135C3.49244 31.135 3.49006 31.135 3.48768 31.135C3.2187 31.135 2.99869 30.9188 2.99492 30.649L2.97786 29.4368C2.10308 31.4192 1.55552 33.2533 1.3771 34.8178C1.14298 36.8699 1.52295 38.4091 2.50634 39.3925C3.48957 40.3756 5.02897 40.755 7.08057 40.5206C9.12659 40.2866 11.6339 39.4213 14.3311 38.0178C14.5726 37.8923 14.8703 37.9862 14.996 38.2278ZM20.9974 33.0582C18.9139 33.0582 17.2188 34.7533 17.2188 36.8368C17.2188 38.9203 18.9139 40.6154 20.9974 40.6154C23.0809 40.6154 24.776 38.9203 24.776 36.8368C24.776 34.7533 23.0809 33.0582 20.9974 33.0582ZM20.9974 39.6295C19.4575 39.6295 18.2047 38.3768 18.2047 36.8368C18.2047 35.2968 19.4574 34.0441 20.9974 34.0441C22.5374 34.0441 23.7901 35.2968 23.7901 36.8368C23.7901 38.3768 22.5374 39.6295 20.9974 39.6295ZM2.58345 17.1207C1.86543 17.1207 1.28129 17.7038 1.28129 18.4206V23.3782C1.28129 24.0949 1.86543 24.6781 2.58345 24.6781H7.53863C8.25534 24.6781 8.8385 24.095 8.8385 23.3782V18.4206C8.8385 17.7039 8.25542 17.1207 7.53863 17.1207H2.58345ZM7.85248 18.4206V23.3782C7.85248 23.5513 7.71172 23.6921 7.53863 23.6921H2.58345C2.40905 23.6921 2.2673 23.5513 2.2673 23.3782V18.4206C2.2673 18.2475 2.40913 18.1068 2.58345 18.1068H7.53863C7.71172 18.1068 7.85248 18.2475 7.85248 18.4206ZM20.9974 8.94042C23.0809 8.94042 24.776 7.24533 24.776 5.1619C24.776 3.07847 23.0809 1.38329 20.9974 1.38329C18.9139 1.38329 17.2188 3.07838 17.2188 5.1619C17.2188 7.24541 18.9139 8.94042 20.9974 8.94042ZM20.9974 2.36922C22.5373 2.36922 23.7901 3.62192 23.7901 5.1619C23.7901 6.70187 22.5374 7.95449 20.9974 7.95449C19.4574 7.95449 18.2047 6.70179 18.2047 5.1619C18.2047 3.62201 19.4574 2.36922 20.9974 2.36922ZM39.4138 24.6781C40.1305 24.6781 40.7136 24.095 40.7136 23.3782V18.4206C40.7136 17.7039 40.1305 17.1207 39.4138 17.1207H34.4586C33.7406 17.1207 33.1564 17.7038 33.1564 18.4206V23.3782C33.1564 24.0949 33.7406 24.6781 34.4586 24.6781H39.4138ZM34.1423 23.3782V18.4206C34.1423 18.2475 34.2842 18.1068 34.4585 18.1068H39.4137C39.5868 18.1068 39.7275 18.2475 39.7275 18.4206V23.3782C39.7275 23.5513 39.5868 23.6921 39.4137 23.6921H34.4585C34.2841 23.6921 34.1423 23.5513 34.1423 23.3782Z" stroke="#7595E5" mask="url(#path-1-outside-1_5029_5002)"/>
</g>
<defs>
<clipPath id="clip0_5029_5002">
<rect width="42" height="42" fill="white"/>
</clipPath>
</defs>
</svg>
