<svg width="24" height="24" viewBox="0 0 24 24" fill="none" xmlns="http://www.w3.org/2000/svg">
<g clip-path="url(#clip0_2619_9769)">
<path d="M18.5446 17.1231L18.5154 5.87088L7.26317 5.84168C7.14594 5.82581 7.02667 5.83531 6.91343 5.86954C6.80019 5.90377 6.69562 5.96193 6.60681 6.04009C6.51801 6.11824 6.44703 6.21457 6.39868 6.32254C6.35034 6.43051 6.32575 6.54761 6.3266 6.66591C6.32745 6.7842 6.3537 6.90094 6.40358 7.00821C6.45346 7.11548 6.52581 7.21078 6.61573 7.28766C6.70564 7.36454 6.81102 7.4212 6.92474 7.45381C7.03846 7.48642 7.15786 7.49421 7.27485 7.47667L15.7067 7.5117L4.53624 18.6822C4.38137 18.8371 4.29437 19.0471 4.29437 19.2661C4.29437 19.4851 4.38137 19.6952 4.53624 19.85C4.69111 20.0049 4.90115 20.0919 5.12017 20.0919C5.33918 20.0919 5.54922 20.0049 5.70409 19.85L16.8746 8.67955L16.9096 17.1114C16.9104 17.3306 16.9982 17.5404 17.1537 17.6948C17.3092 17.8492 17.5196 17.9355 17.7388 17.9348C17.9579 17.934 18.1678 17.8462 18.3222 17.6907C18.4766 17.5352 18.5629 17.3247 18.5621 17.1056L18.5446 17.1231Z" fill="#010101"/>
</g>
<defs>
<clipPath id="clip0_2619_9769">
<rect width="24" height="24" fill="white"/>
</clipPath>
</defs>
</svg>
