<svg width="25" height="24" viewBox="0 0 25 24" fill="none" xmlns="http://www.w3.org/2000/svg">
<g clip-path="url(#clip0_5029_5746)">
<path d="M12.25 24C5.63286 24 0.25 18.6171 0.25 12C0.25 5.38286 5.63286 0 12.25 0C18.8671 0 24.25 5.38286 24.25 12C24.25 18.6171 18.8671 24 12.25 24ZM12.25 1.71429C6.57571 1.71429 1.96429 6.32571 1.96429 12C1.96429 17.6743 6.57571 22.2857 12.25 22.2857C17.9243 22.2857 22.5357 17.6743 22.5357 12C22.5357 6.32571 17.9243 1.71429 12.25 1.71429Z" fill="#784FFC" fill-opacity="0.95"/>
<path d="M15.6858 16.2874C15.5316 16.2874 15.3773 16.2531 15.2401 16.1674L10.9544 13.596C10.8281 13.519 10.7238 13.4107 10.6517 13.2816C10.5796 13.1524 10.5421 13.0067 10.543 12.8588V6.00167C10.543 5.52167 10.9201 5.14453 11.4001 5.14453C11.8801 5.14453 12.2573 5.52167 12.2573 6.00167V12.3788L16.1316 14.6931C16.2911 14.7909 16.4145 14.9381 16.4829 15.1123C16.5513 15.2865 16.561 15.4783 16.5106 15.6585C16.4603 15.8388 16.3525 15.9977 16.2036 16.1112C16.0548 16.2247 15.873 16.2865 15.6858 16.2874Z" fill="#784FFC" fill-opacity="0.95"/>
</g>
<defs>
<clipPath id="clip0_5029_5746">
<rect width="24" height="24" fill="white" transform="translate(0.25)"/>
</clipPath>
</defs>
</svg>
