<svg width="60" height="60" viewBox="0 0 60 60" fill="none" xmlns="http://www.w3.org/2000/svg">
<path d="M22.2616 19.5368C26.0369 19.5368 29.0974 16.4763 29.0974 12.701C29.0974 8.92573 26.0369 5.86523 22.2616 5.86523C18.4863 5.86523 15.4258 8.92573 15.4258 12.701C15.4258 16.4763 18.4863 19.5368 22.2616 19.5368Z" stroke="#7595E5" stroke-width="2" stroke-miterlimit="10"/>
<path d="M18.5893 18.2148L5.40625 54.2363V60.0008" stroke="#7595E5" stroke-width="2" stroke-miterlimit="10"/>
<path d="M22.2578 5.86386V0" stroke="#7595E5" stroke-width="2" stroke-miterlimit="10"/>
<path d="M22.2852 25.3574V35.6606" stroke="#7595E5" stroke-width="2" stroke-miterlimit="10"/>
<path d="M26.1484 18.373L39.1501 54.2356V60" stroke="#7595E5" stroke-width="2" stroke-miterlimit="10"/>
<path d="M7.84375 30.5078H36.7256" stroke="#7595E5" stroke-width="2" stroke-miterlimit="10"/>
<path d="M50.8419 58.2235C48.774 58.2235 47.0977 56.5472 47.0977 54.4793V8.31653L50.8419 3.12109L54.5861 8.31653V54.4793C54.5861 56.5473 52.9097 58.2235 50.8419 58.2235Z" stroke="#7595E5" stroke-width="2" stroke-miterlimit="10"/>
<path d="M47.0977 48.166H54.586" stroke="#7595E5" stroke-width="2" stroke-miterlimit="10"/>
<path d="M47.0977 41.3516H54.586" stroke="#7595E5" stroke-width="2" stroke-miterlimit="10"/>
<path d="M47.0977 12.1211H54.586" stroke="#7595E5" stroke-width="2" stroke-miterlimit="10"/>
</svg>
