<svg width="60" height="60" viewBox="0 0 60 60" fill="none" xmlns="http://www.w3.org/2000/svg">
<path d="M24.6909 30.6464C25.186 30.4016 25.3889 29.8018 25.1441 29.3068C24.8993 28.8117 24.2995 28.6088 23.8044 28.8536L24.6909 30.6464ZM18.3348 32.6736L17.8916 31.7772L18.3348 32.6736ZM18.3186 36.2511L17.8673 37.1435V37.1435L18.3186 36.2511ZM23.7963 40.1424C24.2892 40.3916 24.8908 40.1942 25.14 39.7013C25.3893 39.2085 25.1919 38.6069 24.699 38.3576L23.7963 40.1424ZM36.6956 28.8536C36.2005 28.6088 35.6007 28.8117 35.3559 29.3068C35.1111 29.8018 35.314 30.4016 35.8091 30.6464L36.6956 28.8536ZM42.1652 32.6736L42.6084 31.7772L42.1652 32.6736ZM42.1814 36.2511L42.6327 37.1435V37.1435L42.1814 36.2511ZM35.801 38.3576C35.3081 38.6069 35.1107 39.2085 35.36 39.7013C35.6092 40.1942 36.2108 40.3916 36.7037 40.1424L35.801 38.3576ZM4.75 10.75H3.75V49.25H4.75H5.75V10.75H4.75ZM6.75 51.25V52.25H53.25V51.25V50.25H6.75V51.25ZM55.25 49.25H56.25V10.75H55.25H54.25V49.25H55.25ZM53.25 8.75V7.75H6.75V8.75V9.75H53.25V8.75ZM55.25 10.75H56.25C56.25 9.09315 54.9069 7.75 53.25 7.75V8.75V9.75C53.8023 9.75 54.25 10.1977 54.25 10.75H55.25ZM53.25 51.25V52.25C54.9069 52.25 56.25 50.9069 56.25 49.25H55.25H54.25C54.25 49.8023 53.8023 50.25 53.25 50.25V51.25ZM4.75 49.25H3.75C3.75 50.9069 5.09315 52.25 6.75 52.25V51.25V50.25C6.19772 50.25 5.75 49.8023 5.75 49.25H4.75ZM4.75 10.75H5.75C5.75 10.1977 6.19772 9.75 6.75 9.75V8.75V7.75C5.09314 7.75 3.75 9.09315 3.75 10.75H4.75ZM4.75 18.75V19.75H55.25V18.75V17.75H4.75V18.75ZM24.2477 29.75L23.8044 28.8536L17.8916 31.7772L18.3348 32.6736L18.7781 33.57L24.6909 30.6464L24.2477 29.75ZM18.3186 36.2511L17.8673 37.1435L23.7963 40.1424L24.2477 39.25L24.699 38.3576L18.77 35.3588L18.3186 36.2511ZM18.3348 32.6736L17.8916 31.7772C15.6758 32.8728 15.6615 36.0278 17.8673 37.1435L18.3186 36.2511L18.77 35.3588C18.0347 34.9869 18.0395 33.9352 18.7781 33.57L18.3348 32.6736ZM36.2523 29.75L35.8091 30.6464L41.7219 33.57L42.1652 32.6736L42.6084 31.7772L36.6956 28.8536L36.2523 29.75ZM42.1814 36.2511L41.73 35.3588L35.801 38.3576L36.2523 39.25L36.7037 40.1424L42.6327 37.1435L42.1814 36.2511ZM42.1652 32.6736L41.7219 33.57C42.4605 33.9352 42.4653 34.9869 41.73 35.3588L42.1814 36.2511L42.6327 37.1435C44.8385 36.0278 44.8242 32.8728 42.6084 31.7772L42.1652 32.6736Z" fill="#7595E5"/>
</svg>
