<svg width="60" height="60" viewBox="0 0 60 60" fill="none" xmlns="http://www.w3.org/2000/svg">
<mask id="path-1-outside-1_5029_5708" maskUnits="userSpaceOnUse" x="7.26953" y="0.757812" width="45" height="58" fill="black">
<rect fill="white" x="7.26953" y="0.757812" width="45" height="58"/>
<path d="M42.7719 27.8227H37.4527C37.2031 27.8227 36.9734 27.9539 36.8469 28.1695C36.7203 28.3852 36.7168 28.65 36.8387 28.868C37.0227 29.1996 37.1199 29.5758 37.1199 29.9578C37.1199 31.1977 36.1109 32.2066 34.8711 32.2066C33.6312 32.2066 32.6223 31.1977 32.6223 29.9578C32.6223 29.5758 32.7195 29.1996 32.9035 28.868C33.0242 28.65 33.0207 28.3852 32.8953 28.1695C32.7687 27.9551 32.5379 27.8227 32.2894 27.8227H26.5812V22.4883C26.9797 22.6336 27.4027 22.7098 27.8352 22.7098C29.8508 22.7098 31.4902 21.0703 31.4902 19.0547C31.4902 17.0391 29.8508 15.3996 27.8352 15.3996C27.4039 15.3996 26.9797 15.4758 26.5812 15.6211V11.0437C26.5812 10.6559 26.266 10.3406 25.8781 10.3406C16.168 10.3406 8.26953 18.2402 8.26953 27.9492C8.26953 33.5988 11.0105 38.9449 15.602 42.2496C17.0703 43.3066 17.8461 44.8219 17.8461 46.6312V51.0434C17.8461 52.6922 19.0215 54.0727 20.5789 54.3891C21.3137 56.6812 23.4266 58.241 25.8781 58.241C28.318 58.241 30.4227 56.6941 31.1668 54.4195C32.8121 54.1758 34.0789 52.7543 34.0789 51.0422V46.5059C34.0789 44.7164 34.8418 43.2117 36.2844 42.1535C40.673 38.9332 43.2957 33.975 43.4773 28.548C43.4832 28.3582 43.4129 28.173 43.2805 28.0359C43.1457 27.9 42.9629 27.8227 42.7719 27.8227ZM25.1738 11.7621V16.8445C25.1738 17.1211 25.3355 17.3719 25.5887 17.4855C25.8406 17.5992 26.1359 17.5535 26.3434 17.3707C26.7547 17.0062 27.2844 16.8059 27.834 16.8059C29.0738 16.8059 30.0828 17.8148 30.0828 19.0547C30.0828 20.2945 29.0738 21.3035 27.834 21.3035C27.2844 21.3035 26.7547 21.1031 26.3434 20.7387C26.1359 20.5559 25.8406 20.5102 25.5887 20.6238C25.3367 20.7375 25.1738 20.9883 25.1738 21.2648V27.8227H20.4652C20.5133 27.5836 20.5391 27.3398 20.5391 27.0937C20.5391 25.0781 18.8996 23.4387 16.884 23.4387C14.8684 23.4387 13.2289 25.0781 13.2289 27.0937C13.2289 27.3387 13.2535 27.5836 13.3027 27.8227H9.67578C9.74258 19.1824 16.6062 12.1301 25.1738 11.7621ZM16.4211 41.1094C12.5445 38.3191 10.1023 33.9469 9.72617 29.2289H14.3C14.5496 29.2289 14.7793 29.0977 14.9059 28.882C15.0324 28.6676 15.0359 28.4016 14.9141 28.1836C14.7301 27.852 14.6328 27.4758 14.6328 27.0937C14.6328 25.8539 15.6418 24.8449 16.8816 24.8449C18.1215 24.8449 19.1305 25.8539 19.1305 27.0937C19.1305 27.4758 19.0332 27.852 18.8492 28.1836C18.7285 28.4016 18.732 28.6664 18.8574 28.882C18.984 29.0965 19.2148 29.2289 19.4633 29.2289H25.1715V34.5633C24.773 34.418 24.35 34.3418 23.9176 34.3418C21.902 34.3418 20.2625 35.9813 20.2625 37.9969C20.2625 40.0125 21.902 41.652 23.9176 41.652C24.3488 41.652 24.773 41.5758 25.1715 41.4305V45.3035H19.1246C18.8082 43.616 17.8766 42.1559 16.4211 41.1094ZM25.877 56.8359C24.2598 56.8359 22.7973 55.8762 22.1176 54.4582H29.641C28.9672 55.8926 27.5246 56.8359 25.877 56.8359ZM30.6629 53.052H21.2598C20.1523 53.052 19.2512 52.1508 19.2512 51.0434V46.7109H32.6715V51.0434C32.6715 52.1508 31.7703 53.052 30.6629 53.052ZM35.4512 41.0215C33.9898 42.0938 33.0652 43.5855 32.7723 45.3047H26.5801V40.2082C26.5801 39.9316 26.4184 39.6809 26.1652 39.5672C25.9133 39.4535 25.618 39.4992 25.4105 39.682C24.9992 40.0465 24.4695 40.2469 23.9199 40.2469C22.6801 40.2469 21.6711 39.2379 21.6711 37.998C21.6711 36.7582 22.6801 35.7492 23.9199 35.7492C24.4695 35.7492 24.9992 35.9496 25.4105 36.3141C25.618 36.498 25.9133 36.5426 26.1652 36.4289C26.4172 36.3152 26.5801 36.0645 26.5801 35.7879V29.2301H31.2887C31.2406 29.4691 31.2148 29.7129 31.2148 29.959C31.2148 31.9746 32.8543 33.6141 34.8699 33.6141C36.8855 33.6141 38.525 31.9746 38.525 29.959C38.525 29.7141 38.5004 29.4691 38.4512 29.2301H42.0277C41.6633 33.9363 39.2926 38.202 35.4512 41.0215ZM46.775 7.12148C43.4293 3.66328 38.9352 1.75781 34.1199 1.75781C33.732 1.75781 33.4168 2.07305 33.4168 2.46094V8.26055C33.4168 8.53711 33.5785 8.78789 33.8316 8.90156C34.0848 9.01523 34.3789 8.96953 34.5863 8.78672C34.9977 8.42227 35.5262 8.22188 36.077 8.22188C37.3168 8.22188 38.3258 9.23086 38.3258 10.4707C38.3258 11.7105 37.3168 12.7195 36.077 12.7195C35.5273 12.7195 34.9977 12.5191 34.5863 12.1547C34.3789 11.9719 34.0836 11.9262 33.8316 12.0398C33.5797 12.1535 33.4168 12.4043 33.4168 12.6809V19.9418C33.4168 20.3297 33.732 20.6449 34.1199 20.6449H39.5316C39.4836 20.884 39.4578 21.1277 39.4578 21.3738C39.4578 23.3895 41.0973 25.0289 43.1129 25.0289C45.1285 25.0289 46.768 23.3895 46.768 21.3738C46.768 21.1289 46.7434 20.884 46.6941 20.6449H51.0137C51.3934 20.6449 51.7039 20.3438 51.7168 19.9652C51.8797 15.1465 50.1242 10.5855 46.775 7.12148ZM45.6969 19.2398C45.4473 19.2398 45.2176 19.3711 45.091 19.5867C44.9645 19.8012 44.9609 20.0672 45.0828 20.2852C45.2668 20.6168 45.3641 20.993 45.3641 21.375C45.3641 22.6148 44.3551 23.6238 43.1152 23.6238C41.8754 23.6238 40.8664 22.6148 40.8664 21.375C40.8664 20.993 40.9637 20.6168 41.1477 20.2852C41.2684 20.0672 41.2648 19.8023 41.1395 19.5867C41.0141 19.3711 40.7832 19.2398 40.5336 19.2398H34.8254V13.9055C35.2238 14.0508 35.6469 14.127 36.0793 14.127C38.0949 14.127 39.7344 12.4875 39.7344 10.4719C39.7344 8.45625 38.0949 6.8168 36.0793 6.8168C35.648 6.8168 35.2238 6.89297 34.8254 7.03828V3.1793C38.9891 3.35508 42.8516 5.08594 45.766 8.1C48.691 11.1234 50.2953 15.0574 50.3246 19.2398H45.6969Z"/>
</mask>
<path d="M42.7719 27.8227H37.4527C37.2031 27.8227 36.9734 27.9539 36.8469 28.1695C36.7203 28.3852 36.7168 28.65 36.8387 28.868C37.0227 29.1996 37.1199 29.5758 37.1199 29.9578C37.1199 31.1977 36.1109 32.2066 34.8711 32.2066C33.6312 32.2066 32.6223 31.1977 32.6223 29.9578C32.6223 29.5758 32.7195 29.1996 32.9035 28.868C33.0242 28.65 33.0207 28.3852 32.8953 28.1695C32.7687 27.9551 32.5379 27.8227 32.2894 27.8227H26.5812V22.4883C26.9797 22.6336 27.4027 22.7098 27.8352 22.7098C29.8508 22.7098 31.4902 21.0703 31.4902 19.0547C31.4902 17.0391 29.8508 15.3996 27.8352 15.3996C27.4039 15.3996 26.9797 15.4758 26.5812 15.6211V11.0437C26.5812 10.6559 26.266 10.3406 25.8781 10.3406C16.168 10.3406 8.26953 18.2402 8.26953 27.9492C8.26953 33.5988 11.0105 38.9449 15.602 42.2496C17.0703 43.3066 17.8461 44.8219 17.8461 46.6312V51.0434C17.8461 52.6922 19.0215 54.0727 20.5789 54.3891C21.3137 56.6812 23.4266 58.241 25.8781 58.241C28.318 58.241 30.4227 56.6941 31.1668 54.4195C32.8121 54.1758 34.0789 52.7543 34.0789 51.0422V46.5059C34.0789 44.7164 34.8418 43.2117 36.2844 42.1535C40.673 38.9332 43.2957 33.975 43.4773 28.548C43.4832 28.3582 43.4129 28.173 43.2805 28.0359C43.1457 27.9 42.9629 27.8227 42.7719 27.8227ZM25.1738 11.7621V16.8445C25.1738 17.1211 25.3355 17.3719 25.5887 17.4855C25.8406 17.5992 26.1359 17.5535 26.3434 17.3707C26.7547 17.0062 27.2844 16.8059 27.834 16.8059C29.0738 16.8059 30.0828 17.8148 30.0828 19.0547C30.0828 20.2945 29.0738 21.3035 27.834 21.3035C27.2844 21.3035 26.7547 21.1031 26.3434 20.7387C26.1359 20.5559 25.8406 20.5102 25.5887 20.6238C25.3367 20.7375 25.1738 20.9883 25.1738 21.2648V27.8227H20.4652C20.5133 27.5836 20.5391 27.3398 20.5391 27.0937C20.5391 25.0781 18.8996 23.4387 16.884 23.4387C14.8684 23.4387 13.2289 25.0781 13.2289 27.0937C13.2289 27.3387 13.2535 27.5836 13.3027 27.8227H9.67578C9.74258 19.1824 16.6062 12.1301 25.1738 11.7621ZM16.4211 41.1094C12.5445 38.3191 10.1023 33.9469 9.72617 29.2289H14.3C14.5496 29.2289 14.7793 29.0977 14.9059 28.882C15.0324 28.6676 15.0359 28.4016 14.9141 28.1836C14.7301 27.852 14.6328 27.4758 14.6328 27.0937C14.6328 25.8539 15.6418 24.8449 16.8816 24.8449C18.1215 24.8449 19.1305 25.8539 19.1305 27.0937C19.1305 27.4758 19.0332 27.852 18.8492 28.1836C18.7285 28.4016 18.732 28.6664 18.8574 28.882C18.984 29.0965 19.2148 29.2289 19.4633 29.2289H25.1715V34.5633C24.773 34.418 24.35 34.3418 23.9176 34.3418C21.902 34.3418 20.2625 35.9813 20.2625 37.9969C20.2625 40.0125 21.902 41.652 23.9176 41.652C24.3488 41.652 24.773 41.5758 25.1715 41.4305V45.3035H19.1246C18.8082 43.616 17.8766 42.1559 16.4211 41.1094ZM25.877 56.8359C24.2598 56.8359 22.7973 55.8762 22.1176 54.4582H29.641C28.9672 55.8926 27.5246 56.8359 25.877 56.8359ZM30.6629 53.052H21.2598C20.1523 53.052 19.2512 52.1508 19.2512 51.0434V46.7109H32.6715V51.0434C32.6715 52.1508 31.7703 53.052 30.6629 53.052ZM35.4512 41.0215C33.9898 42.0938 33.0652 43.5855 32.7723 45.3047H26.5801V40.2082C26.5801 39.9316 26.4184 39.6809 26.1652 39.5672C25.9133 39.4535 25.618 39.4992 25.4105 39.682C24.9992 40.0465 24.4695 40.2469 23.9199 40.2469C22.6801 40.2469 21.6711 39.2379 21.6711 37.998C21.6711 36.7582 22.6801 35.7492 23.9199 35.7492C24.4695 35.7492 24.9992 35.9496 25.4105 36.3141C25.618 36.498 25.9133 36.5426 26.1652 36.4289C26.4172 36.3152 26.5801 36.0645 26.5801 35.7879V29.2301H31.2887C31.2406 29.4691 31.2148 29.7129 31.2148 29.959C31.2148 31.9746 32.8543 33.6141 34.8699 33.6141C36.8855 33.6141 38.525 31.9746 38.525 29.959C38.525 29.7141 38.5004 29.4691 38.4512 29.2301H42.0277C41.6633 33.9363 39.2926 38.202 35.4512 41.0215ZM46.775 7.12148C43.4293 3.66328 38.9352 1.75781 34.1199 1.75781C33.732 1.75781 33.4168 2.07305 33.4168 2.46094V8.26055C33.4168 8.53711 33.5785 8.78789 33.8316 8.90156C34.0848 9.01523 34.3789 8.96953 34.5863 8.78672C34.9977 8.42227 35.5262 8.22188 36.077 8.22188C37.3168 8.22188 38.3258 9.23086 38.3258 10.4707C38.3258 11.7105 37.3168 12.7195 36.077 12.7195C35.5273 12.7195 34.9977 12.5191 34.5863 12.1547C34.3789 11.9719 34.0836 11.9262 33.8316 12.0398C33.5797 12.1535 33.4168 12.4043 33.4168 12.6809V19.9418C33.4168 20.3297 33.732 20.6449 34.1199 20.6449H39.5316C39.4836 20.884 39.4578 21.1277 39.4578 21.3738C39.4578 23.3895 41.0973 25.0289 43.1129 25.0289C45.1285 25.0289 46.768 23.3895 46.768 21.3738C46.768 21.1289 46.7434 20.884 46.6941 20.6449H51.0137C51.3934 20.6449 51.7039 20.3438 51.7168 19.9652C51.8797 15.1465 50.1242 10.5855 46.775 7.12148ZM45.6969 19.2398C45.4473 19.2398 45.2176 19.3711 45.091 19.5867C44.9645 19.8012 44.9609 20.0672 45.0828 20.2852C45.2668 20.6168 45.3641 20.993 45.3641 21.375C45.3641 22.6148 44.3551 23.6238 43.1152 23.6238C41.8754 23.6238 40.8664 22.6148 40.8664 21.375C40.8664 20.993 40.9637 20.6168 41.1477 20.2852C41.2684 20.0672 41.2648 19.8023 41.1395 19.5867C41.0141 19.3711 40.7832 19.2398 40.5336 19.2398H34.8254V13.9055C35.2238 14.0508 35.6469 14.127 36.0793 14.127C38.0949 14.127 39.7344 12.4875 39.7344 10.4719C39.7344 8.45625 38.0949 6.8168 36.0793 6.8168C35.648 6.8168 35.2238 6.89297 34.8254 7.03828V3.1793C38.9891 3.35508 42.8516 5.08594 45.766 8.1C48.691 11.1234 50.2953 15.0574 50.3246 19.2398H45.6969Z" fill="#7595E5"/>
<path d="M42.7719 27.8227H37.4527C37.2031 27.8227 36.9734 27.9539 36.8469 28.1695C36.7203 28.3852 36.7168 28.65 36.8387 28.868C37.0227 29.1996 37.1199 29.5758 37.1199 29.9578C37.1199 31.1977 36.1109 32.2066 34.8711 32.2066C33.6312 32.2066 32.6223 31.1977 32.6223 29.9578C32.6223 29.5758 32.7195 29.1996 32.9035 28.868C33.0242 28.65 33.0207 28.3852 32.8953 28.1695C32.7687 27.9551 32.5379 27.8227 32.2894 27.8227H26.5812V22.4883C26.9797 22.6336 27.4027 22.7098 27.8352 22.7098C29.8508 22.7098 31.4902 21.0703 31.4902 19.0547C31.4902 17.0391 29.8508 15.3996 27.8352 15.3996C27.4039 15.3996 26.9797 15.4758 26.5812 15.6211V11.0437C26.5812 10.6559 26.266 10.3406 25.8781 10.3406C16.168 10.3406 8.26953 18.2402 8.26953 27.9492C8.26953 33.5988 11.0105 38.9449 15.602 42.2496C17.0703 43.3066 17.8461 44.8219 17.8461 46.6312V51.0434C17.8461 52.6922 19.0215 54.0727 20.5789 54.3891C21.3137 56.6812 23.4266 58.241 25.8781 58.241C28.318 58.241 30.4227 56.6941 31.1668 54.4195C32.8121 54.1758 34.0789 52.7543 34.0789 51.0422V46.5059C34.0789 44.7164 34.8418 43.2117 36.2844 42.1535C40.673 38.9332 43.2957 33.975 43.4773 28.548C43.4832 28.3582 43.4129 28.173 43.2805 28.0359C43.1457 27.9 42.9629 27.8227 42.7719 27.8227ZM25.1738 11.7621V16.8445C25.1738 17.1211 25.3355 17.3719 25.5887 17.4855C25.8406 17.5992 26.1359 17.5535 26.3434 17.3707C26.7547 17.0062 27.2844 16.8059 27.834 16.8059C29.0738 16.8059 30.0828 17.8148 30.0828 19.0547C30.0828 20.2945 29.0738 21.3035 27.834 21.3035C27.2844 21.3035 26.7547 21.1031 26.3434 20.7387C26.1359 20.5559 25.8406 20.5102 25.5887 20.6238C25.3367 20.7375 25.1738 20.9883 25.1738 21.2648V27.8227H20.4652C20.5133 27.5836 20.5391 27.3398 20.5391 27.0937C20.5391 25.0781 18.8996 23.4387 16.884 23.4387C14.8684 23.4387 13.2289 25.0781 13.2289 27.0937C13.2289 27.3387 13.2535 27.5836 13.3027 27.8227H9.67578C9.74258 19.1824 16.6062 12.1301 25.1738 11.7621ZM16.4211 41.1094C12.5445 38.3191 10.1023 33.9469 9.72617 29.2289H14.3C14.5496 29.2289 14.7793 29.0977 14.9059 28.882C15.0324 28.6676 15.0359 28.4016 14.9141 28.1836C14.7301 27.852 14.6328 27.4758 14.6328 27.0937C14.6328 25.8539 15.6418 24.8449 16.8816 24.8449C18.1215 24.8449 19.1305 25.8539 19.1305 27.0937C19.1305 27.4758 19.0332 27.852 18.8492 28.1836C18.7285 28.4016 18.732 28.6664 18.8574 28.882C18.984 29.0965 19.2148 29.2289 19.4633 29.2289H25.1715V34.5633C24.773 34.418 24.35 34.3418 23.9176 34.3418C21.902 34.3418 20.2625 35.9813 20.2625 37.9969C20.2625 40.0125 21.902 41.652 23.9176 41.652C24.3488 41.652 24.773 41.5758 25.1715 41.4305V45.3035H19.1246C18.8082 43.616 17.8766 42.1559 16.4211 41.1094ZM25.877 56.8359C24.2598 56.8359 22.7973 55.8762 22.1176 54.4582H29.641C28.9672 55.8926 27.5246 56.8359 25.877 56.8359ZM30.6629 53.052H21.2598C20.1523 53.052 19.2512 52.1508 19.2512 51.0434V46.7109H32.6715V51.0434C32.6715 52.1508 31.7703 53.052 30.6629 53.052ZM35.4512 41.0215C33.9898 42.0938 33.0652 43.5855 32.7723 45.3047H26.5801V40.2082C26.5801 39.9316 26.4184 39.6809 26.1652 39.5672C25.9133 39.4535 25.618 39.4992 25.4105 39.682C24.9992 40.0465 24.4695 40.2469 23.9199 40.2469C22.6801 40.2469 21.6711 39.2379 21.6711 37.998C21.6711 36.7582 22.6801 35.7492 23.9199 35.7492C24.4695 35.7492 24.9992 35.9496 25.4105 36.3141C25.618 36.498 25.9133 36.5426 26.1652 36.4289C26.4172 36.3152 26.5801 36.0645 26.5801 35.7879V29.2301H31.2887C31.2406 29.4691 31.2148 29.7129 31.2148 29.959C31.2148 31.9746 32.8543 33.6141 34.8699 33.6141C36.8855 33.6141 38.525 31.9746 38.525 29.959C38.525 29.7141 38.5004 29.4691 38.4512 29.2301H42.0277C41.6633 33.9363 39.2926 38.202 35.4512 41.0215ZM46.775 7.12148C43.4293 3.66328 38.9352 1.75781 34.1199 1.75781C33.732 1.75781 33.4168 2.07305 33.4168 2.46094V8.26055C33.4168 8.53711 33.5785 8.78789 33.8316 8.90156C34.0848 9.01523 34.3789 8.96953 34.5863 8.78672C34.9977 8.42227 35.5262 8.22188 36.077 8.22188C37.3168 8.22188 38.3258 9.23086 38.3258 10.4707C38.3258 11.7105 37.3168 12.7195 36.077 12.7195C35.5273 12.7195 34.9977 12.5191 34.5863 12.1547C34.3789 11.9719 34.0836 11.9262 33.8316 12.0398C33.5797 12.1535 33.4168 12.4043 33.4168 12.6809V19.9418C33.4168 20.3297 33.732 20.6449 34.1199 20.6449H39.5316C39.4836 20.884 39.4578 21.1277 39.4578 21.3738C39.4578 23.3895 41.0973 25.0289 43.1129 25.0289C45.1285 25.0289 46.768 23.3895 46.768 21.3738C46.768 21.1289 46.7434 20.884 46.6941 20.6449H51.0137C51.3934 20.6449 51.7039 20.3438 51.7168 19.9652C51.8797 15.1465 50.1242 10.5855 46.775 7.12148ZM45.6969 19.2398C45.4473 19.2398 45.2176 19.3711 45.091 19.5867C44.9645 19.8012 44.9609 20.0672 45.0828 20.2852C45.2668 20.6168 45.3641 20.993 45.3641 21.375C45.3641 22.6148 44.3551 23.6238 43.1152 23.6238C41.8754 23.6238 40.8664 22.6148 40.8664 21.375C40.8664 20.993 40.9637 20.6168 41.1477 20.2852C41.2684 20.0672 41.2648 19.8023 41.1395 19.5867C41.0141 19.3711 40.7832 19.2398 40.5336 19.2398H34.8254V13.9055C35.2238 14.0508 35.6469 14.127 36.0793 14.127C38.0949 14.127 39.7344 12.4875 39.7344 10.4719C39.7344 8.45625 38.0949 6.8168 36.0793 6.8168C35.648 6.8168 35.2238 6.89297 34.8254 7.03828V3.1793C38.9891 3.35508 42.8516 5.08594 45.766 8.1C48.691 11.1234 50.2953 15.0574 50.3246 19.2398H45.6969Z" stroke="#7595E5" stroke-width="0.4" mask="url(#path-1-outside-1_5029_5708)"/>
</svg>
