<svg width="60" height="60" viewBox="0 0 60 60" fill="none" xmlns="http://www.w3.org/2000/svg">
<g clip-path="url(#clip0_5029_5676)">
<path d="M23.4219 49.3066V52.5415C23.4219 56.1754 26.3676 59.1211 30.0015 59.1211C33.6354 59.1211 36.5811 56.1754 36.5811 52.5415V49.3066" stroke="#7595E5" stroke-width="2" stroke-miterlimit="10" stroke-linecap="round" stroke-linejoin="round"/>
<path d="M30 6.22297V5.3457" stroke="#7595E5" stroke-width="2" stroke-miterlimit="10" stroke-linecap="round" stroke-linejoin="round"/>
<path d="M39.1641 10.0187L39.7845 9.39844" stroke="#7595E5" stroke-width="2" stroke-miterlimit="10" stroke-linecap="round" stroke-linejoin="round"/>
<path d="M20.839 10.0188L20.2188 9.39844" stroke="#7595E5" stroke-width="2" stroke-miterlimit="10" stroke-linecap="round" stroke-linejoin="round"/>
<path d="M22.4727 53.3848H37.5286" stroke="#7595E5" stroke-width="2" stroke-miterlimit="10" stroke-linecap="round" stroke-linejoin="round"/>
<path d="M30 49.3062V33.6074" stroke="#7595E5" stroke-width="2" stroke-miterlimit="10" stroke-linecap="round" stroke-linejoin="round"/>
<path d="M33.8454 29.3711C33.8454 31.4944 32.1241 33.2157 30.0008 33.2157C27.8775 33.2157 26.1562 31.4944 26.1562 29.3711" stroke="#7595E5" stroke-width="2" stroke-miterlimit="10" stroke-linecap="round" stroke-linejoin="round"/>
<path d="M19.9922 44.1719V47.2678C19.9922 48.3943 20.9054 49.3075 22.032 49.3075H37.9738C39.1003 49.3075 40.0136 48.3943 40.0136 47.2678V42.5266C40.0136 39.4292 41.2891 36.4522 43.5841 34.3721C44.7974 33.2724 45.8756 32.0268 46.7931 30.6641" stroke="#7595E5" stroke-width="2" stroke-miterlimit="10" stroke-linecap="round" stroke-linejoin="round"/>
<path d="M48.4548 27.6747C49.4274 25.5137 50.0328 23.1515 50.1888 20.667C50.219 20.1856 49.8388 19.7773 49.3564 19.7773H10.6466C10.1642 19.7773 9.78395 20.1856 9.81419 20.667C10.1548 26.0936 12.634 30.9399 16.4202 34.3716C18.2708 36.0491 19.458 38.3098 19.8486 40.7464" stroke="#7595E5" stroke-width="2" stroke-miterlimit="10" stroke-linecap="round" stroke-linejoin="round"/>
<path d="M21.8013 19.7759C21.6024 17.3564 22.4673 14.8659 24.4007 13.067C24.6179 12.8648 24.8446 12.678 25.0778 12.5039" stroke="#7595E5" stroke-width="2" stroke-miterlimit="10" stroke-linecap="round" stroke-linejoin="round"/>
<path d="M48.2199 19.7768V17.6625C48.2199 17.1666 47.9042 16.7257 47.4346 16.5661L45.126 15.7811C44.8105 15.6737 44.5565 15.4357 44.429 15.1279L43.0104 11.7032C42.8829 11.3953 42.8942 11.0474 43.0415 10.7483L44.1188 8.56078C44.3379 8.11594 44.2495 7.58098 43.8988 7.23023L41.8686 5.19996C41.5179 4.84934 40.9829 4.76086 40.538 4.97988L38.3505 6.05719C38.0515 6.20449 37.7036 6.21574 37.3956 6.08824L33.9709 4.6698C33.6631 4.5423 33.425 4.28824 33.3177 3.97277L32.5327 1.66418C32.3731 1.19473 31.9322 0.878906 31.4363 0.878906H28.565C28.069 0.878906 27.6282 1.19461 27.4686 1.66418L26.6835 3.97277C26.5762 4.28824 26.3382 4.5423 26.0303 4.6698L22.6056 6.08836C22.2978 6.21586 21.9498 6.20461 21.6508 6.0573L19.4632 4.98C19.0184 4.76086 18.4833 4.84934 18.1327 5.19996L16.1024 7.23035C15.7518 7.58098 15.6633 8.11594 15.8823 8.5609L16.9596 10.7484C17.107 11.0474 17.1182 11.3953 16.9907 11.7033L15.5721 15.128C15.4446 15.4358 15.1906 15.6739 14.8751 15.7812L12.5665 16.5662C12.0971 16.7258 11.7812 17.1667 11.7812 17.6626V19.7769" stroke="#7595E5" stroke-width="2" stroke-miterlimit="10" stroke-linecap="round" stroke-linejoin="round"/>
<path d="M28.168 11.0831C30.7446 10.5013 33.5531 11.1626 35.6015 13.0686C37.5349 14.8676 38.4 17.358 38.2009 19.7775" stroke="#7595E5" stroke-width="2" stroke-miterlimit="10" stroke-linecap="round" stroke-linejoin="round"/>
</g>
<defs>
<clipPath id="clip0_5029_5676">
<rect width="60" height="60" fill="white"/>
</clipPath>
</defs>
</svg>
