<svg width="42" height="42" viewBox="0 0 42 42" fill="none" xmlns="http://www.w3.org/2000/svg">
<path d="M10.6652 22.625C12.0368 22.625 13.2254 21.8285 13.7947 20.6735L17.5493 21.2699C17.788 22.9605 19.2448 24.2657 21.0003 24.2657C22.9223 24.2657 24.4866 22.7013 24.4866 20.7793C24.4866 20.3823 24.4194 20.0009 24.2963 19.6457L27.4545 16.1807C28.6456 16.9025 29.9942 17.2643 31.3445 17.2643C33.2664 17.2643 35.1884 16.5326 36.6519 15.0691C38.0694 13.6516 38.8503 11.7666 38.8503 9.76172C38.8503 7.75688 38.0694 5.8718 36.6519 4.4543C35.2344 3.0368 33.3493 2.25586 31.3445 2.25586C29.3396 2.25586 27.4545 3.0368 26.037 4.4543C24.6195 5.8718 23.8386 7.75688 23.8386 9.76172C23.8386 11.7666 24.5555 13.4892 25.8607 14.8846L23.0536 17.964C22.4769 17.5424 21.7673 17.293 21.0003 17.293C19.6287 17.293 18.4401 18.0895 17.8708 19.2437L14.1163 18.6473C13.8767 16.9567 12.4207 15.6516 10.6652 15.6516C8.7432 15.6516 7.17887 17.2159 7.17887 19.1379C7.17887 21.0599 8.7432 22.6242 10.6652 22.6242V22.625ZM27.4865 5.90543C28.5168 4.87512 29.8868 4.30746 31.3436 4.30746C32.8005 4.30746 34.1704 4.87512 35.2007 5.90543C36.2311 6.93574 36.7987 8.30566 36.7987 9.76254C36.7987 11.2194 36.2311 12.5893 35.2007 13.6196C33.0737 15.7467 29.6128 15.7467 27.4865 13.6196C26.4562 12.5893 25.8886 11.2194 25.8886 9.76254C25.8886 8.30566 26.4562 6.93574 27.4865 5.90543ZM21.0003 19.3446C21.7919 19.3446 22.4359 19.9886 22.4359 20.7802C22.4359 21.5718 21.7919 22.2157 21.0003 22.2157C20.2087 22.2157 19.5648 21.5718 19.5648 20.7802C19.5648 19.9886 20.2087 19.3446 21.0003 19.3446ZM10.6652 17.7032C11.4568 17.7032 12.1007 18.3471 12.1007 19.1387C12.1007 19.9303 11.4568 20.5743 10.6652 20.5743C9.87359 20.5743 9.22965 19.9303 9.22965 19.1387C9.22965 18.3471 9.87359 17.7032 10.6652 17.7032ZM37.8988 37.6942H35.6429V23.8973C35.6429 21.5225 33.7111 19.5907 31.3363 19.5907C28.9614 19.5907 27.0296 21.5225 27.0296 23.8973V37.6942H25.3078V30.4607C25.3078 28.0859 23.3759 26.154 21.0011 26.154C18.6263 26.154 16.6945 28.0859 16.6945 30.4607V37.6942H14.9727V28.82C14.9727 26.4452 13.0408 24.5134 10.666 24.5134C8.29121 24.5134 6.35937 26.4452 6.35937 28.82V37.6942H4.10352C3.5375 37.6942 3.07812 38.1536 3.07812 38.7196C3.07812 39.2856 3.5375 39.745 4.10352 39.745H37.8996C38.4656 39.745 38.925 39.2856 38.925 38.7196C38.925 38.1536 38.4656 37.6942 37.8996 37.6942H37.8988ZM8.40934 37.6942V28.82C8.40934 27.5764 9.4216 26.5642 10.6652 26.5642C11.9088 26.5642 12.9211 27.5764 12.9211 28.82V37.6942H8.40934ZM18.7445 37.6942V30.4607C18.7445 29.2171 19.7567 28.2048 21.0003 28.2048C22.2439 28.2048 23.2562 29.2171 23.2562 30.4607V37.6942H18.7445ZM29.0796 37.6942V23.8973C29.0796 22.6538 30.0918 21.6415 31.3354 21.6415C32.579 21.6415 33.5913 22.6538 33.5913 23.8973V37.6942H29.0796ZM28.1748 10.482C27.7736 10.0816 27.7736 9.43277 28.1739 9.03164C28.5743 8.63133 29.2231 8.63051 29.6243 9.03082L30.534 9.93891L33.0646 7.41152C33.465 7.01121 34.1146 7.01203 34.515 7.41234C34.9153 7.81266 34.9145 8.46234 34.5141 8.86266L31.2591 12.1136C31.059 12.3137 30.7965 12.4138 30.5348 12.4138C30.2731 12.4138 30.0106 12.3137 29.8105 12.1136L28.1764 10.482H28.1748Z" fill="#7595E5"/>
</svg>
