<svg width="60" height="60" viewBox="0 0 60 60" fill="none" xmlns="http://www.w3.org/2000/svg">
<path d="M22.7451 27.0615C23.8183 27.0151 24.8592 27.4091 25.6279 28.1426L26.8838 29.3408C27.1635 29.6077 27.1744 30.0511 26.9072 30.3311C26.6744 30.5753 26.3068 30.6141 26.0303 30.4414L25.918 30.3545L24.6611 29.1562C24.1654 28.6835 23.48 28.4213 22.8076 28.4609H22.8047C22.4162 28.4709 22.0935 28.1799 22.0762 27.792C22.0591 27.4059 22.3581 27.079 22.7441 27.0615H22.7451Z" fill="#7595E5" stroke="#7595E5" stroke-width="0.2"/>
<path d="M6.07715 20.6113C7.24398 20.6114 8.23025 21.4471 8.42188 22.5977L8.5332 23.2637C8.95839 25.8148 11.2201 27.5689 13.709 27.458L13.7109 27.457C14.094 27.4458 14.4219 27.7377 14.4395 28.126C14.4568 28.5122 14.1569 28.8391 13.7715 28.8564C10.6528 28.986 7.87155 26.8713 7.20898 23.7949L7.15137 23.4941L7.04004 22.8271C6.96209 22.3542 6.55725 22.0108 6.07715 22.0107C5.5048 22.0107 5.05628 22.4986 5.10449 23.0703L5.31543 25.543C5.40583 26.5967 5.81669 27.5782 6.50391 28.3818C7.21767 29.0794 7.97048 30.6485 10.1611 31.1641L13.6797 31.9922C13.996 32.0665 14.2197 32.3489 14.2197 32.6738V38.3809C14.2197 38.7673 13.9059 39.0809 13.5195 39.0811C13.1331 39.0811 12.8193 38.7673 12.8193 38.3809V33.2275L9.83984 32.5273C7.11667 31.8868 6.08263 29.9064 5.44629 29.2988L5.43945 29.292C4.56108 28.2652 4.03602 27.01 3.9209 25.6631L3.70996 23.1904C3.59225 21.8069 4.68277 20.6113 6.07715 20.6113Z" fill="#7595E5" stroke="#7595E5" stroke-width="0.2"/>
<path d="M29.5576 30.5195C30.0651 30.5195 30.4035 31.0427 30.1973 31.5049L29.6436 32.7461C29.4864 33.0998 29.0708 33.2552 28.7188 33.0996C28.3662 32.9419 28.2076 32.5279 28.3652 32.1748L28.4795 31.9189H20.4785C20.4318 31.9189 20.3898 31.9484 20.375 31.9941L20.376 31.9951L18.415 38.4199V38.4209C18.2982 38.7991 17.8979 38.996 17.54 38.8848C17.1704 38.7715 16.9635 38.3812 17.0752 38.0117V38.0107L19.0371 31.5859C19.2328 30.9483 19.8119 30.5195 20.4785 30.5195H29.5576Z" fill="#7595E5" stroke="#7595E5" stroke-width="0.2"/>
<path d="M30.5166 32.2891C30.8401 32.2753 31.1432 32.4915 31.2246 32.8203L31.6553 34.5557C32.1608 36.5602 30.9586 38.611 29.0068 39.1904L28.6494 39.2959C27.5641 39.6183 26.4454 39.1157 25.9502 38.1387L25.8604 37.9375C25.3523 36.6545 26.0763 35.2299 27.3926 34.873C27.7692 34.7701 28.15 34.9935 28.251 35.3652C28.3519 35.7384 28.1315 36.1225 27.7588 36.2236C27.2402 36.3647 26.9636 36.9227 27.1592 37.4189C27.3341 37.8608 27.8019 38.0876 28.251 37.9541L28.6094 37.8477C29.6455 37.5398 30.3699 36.5694 30.3701 35.4883C30.3701 35.2871 30.3459 35.087 30.2979 34.8945H30.2969L29.8672 33.1582L29.8467 33.0176C29.8326 32.692 30.0486 32.3911 30.377 32.3096L30.5166 32.2891Z" fill="#7595E5" stroke="#7595E5" stroke-width="0.2"/>
<path d="M21.8926 21.5928C21.9157 21.6002 21.9368 21.6013 21.9463 21.6016C21.9591 21.602 21.9574 21.6021 21.9551 21.6016L22.0859 21.6182C22.3893 21.6293 22.6735 21.4471 22.7725 21.1426C23.224 19.7497 22.9983 18.5899 22.7285 17.8623C22.5848 17.4742 22.34 17.1341 22.0195 16.8789C21.7556 16.6684 21.4912 16.4202 21.2793 16.2139C21.1732 16.1106 21.0813 16.0186 21.0078 15.9463C20.9378 15.8775 20.8788 15.8205 20.8457 15.7959C19.8753 15.0681 18.7688 15.0887 17.8291 15.3457C16.8902 15.6025 16.1039 16.0987 15.7529 16.3438C15.6752 16.3982 15.5979 16.4335 15.5273 16.4512C14.401 16.729 13.9971 17.7422 13.8857 18.7305C13.7746 19.7174 13.9477 20.7224 14.0195 21.0771C14.0198 21.0891 14.0195 21.0996 14.0195 21.1211C14.0196 21.1433 14.0202 21.1726 14.0283 21.2041C14.1104 21.5191 14.3943 21.7275 14.7051 21.7275C14.7091 21.7275 14.7128 21.7268 14.7158 21.7266C14.7183 21.7267 14.7208 21.7275 14.7236 21.7275C14.7738 21.7275 14.8247 21.7217 14.875 21.7109H14.876C14.8868 21.7085 14.8957 21.7052 14.9023 21.7021C14.9074 21.6999 14.9114 21.6968 14.9141 21.6953C15.4634 21.5515 16.3638 21.3033 17.291 20.9912C18.1848 20.6904 19.1093 20.327 19.7695 19.9414C20.1927 20.543 20.977 21.2949 21.8848 21.5898V21.5908L21.8887 21.5918C21.89 21.5923 21.8912 21.5933 21.8926 21.5938V21.5928ZM21.8926 21.5928C21.894 21.5932 21.8957 21.5935 21.8965 21.5938C21.8979 21.5941 21.8989 21.5946 21.8994 21.5947H21.8984C21.8978 21.5946 21.8962 21.5942 21.8945 21.5938L21.8926 21.5928ZM14.6982 21.7246H14.7002C14.6978 21.7241 14.696 21.7238 14.6953 21.7236C14.696 21.7238 14.697 21.7244 14.6982 21.7246ZM21.8682 21.582C21.871 21.5838 21.8752 21.5848 21.8799 21.5869C21.8756 21.5849 21.8719 21.5837 21.8691 21.582C21.8666 21.5805 21.8645 21.579 21.8633 21.5781L21.8613 21.5771C21.8623 21.5778 21.8649 21.58 21.8682 21.582ZM19.9697 16.8896C19.3951 16.4823 18.6828 16.5311 18.0312 16.7402C17.3798 16.9493 16.8121 17.3123 16.5537 17.4922L16.5527 17.4912C16.3912 17.6043 16.2211 17.6943 16.0439 17.7568L15.8643 17.8105C15.7192 17.8463 15.6035 17.9435 15.5117 18.0967C15.4191 18.2514 15.354 18.4579 15.3135 18.6973C15.2389 19.1382 15.251 19.6694 15.2988 20.1387C16.0689 19.9202 16.8694 19.6686 17.5713 19.4062C18.3108 19.1298 18.9332 18.8464 19.2979 18.5859C19.7697 18.2465 20.426 18.37 20.7373 18.8467L20.7949 18.9473L20.8516 19.0479C20.9921 19.2712 21.2715 19.5926 21.6113 19.8584C21.666 19.2316 21.5507 18.7125 21.416 18.3486C21.3797 18.2509 21.3476 18.1906 21.3047 18.1357C21.2601 18.0788 21.2002 18.0228 21.1006 17.9365C20.9025 17.765 20.5714 17.4924 19.9697 16.8896Z" fill="#7595E5" stroke="#7595E5" stroke-width="0.2"/>
<path d="M14.3213 21.9678C14.5601 21.6666 15.0002 21.6133 15.3037 21.8535C15.5691 22.0633 15.6423 22.4269 15.4951 22.7178L15.418 22.8369C15.294 22.9947 15.3713 23.2443 15.5791 23.2939C16.008 23.3959 16.3214 23.75 16.3555 24.1787C16.3999 24.7486 16.6512 25.3563 17.0293 25.8203C17.4081 26.2851 17.9029 26.5928 18.4277 26.5928C18.9435 26.5926 19.4388 26.2792 19.8213 25.8105C20.203 25.3428 20.46 24.735 20.5039 24.1777C20.538 23.7494 20.8508 23.3957 21.2783 23.2939L21.3496 23.2666C21.5008 23.1847 21.5439 22.981 21.4521 22.8545L21.4512 22.8535C21.2273 22.5393 21.2989 22.1018 21.6133 21.877C21.9302 21.6506 22.3666 21.7256 22.5908 22.0391C23.1993 22.8906 22.8801 24.145 21.8643 24.5674C21.7371 25.4084 21.3408 26.2529 20.7529 26.8926C20.1516 27.5469 19.3469 27.993 18.4277 27.9932C17.5091 27.9932 16.7043 27.547 16.1035 26.8926C15.5163 26.2529 15.1203 25.4083 14.9932 24.5674C13.9615 24.1379 13.6342 22.8374 14.3203 21.9688L14.3213 21.9678Z" fill="#7595E5" stroke="#7595E5" stroke-width="0.2"/>
<path d="M54.1309 9.26953C54.9616 9.26974 55.6365 9.94473 55.6367 10.7754V34.2988C55.6367 35.1297 54.9617 35.8055 54.1309 35.8057H34.8184C34.4321 35.8055 34.1191 35.4918 34.1191 35.1055C34.1194 34.7193 34.4322 34.4065 34.8184 34.4062H54.1309C54.1893 34.406 54.2363 34.3578 54.2363 34.2988V10.7754C54.2361 10.7166 54.1891 10.6692 54.1309 10.6689H24.1924C24.1334 10.6689 24.0852 10.717 24.085 10.7754V14.4492C24.0847 14.8355 23.7711 15.1484 23.3848 15.1484C22.9986 15.1482 22.6858 14.8354 22.6855 14.4492V10.7754C22.6858 9.94452 23.3615 9.26953 24.1924 9.26953H54.1309Z" fill="#7595E5" stroke="#7595E5" stroke-width="0.2"/>
<path d="M51.9395 14.4277C52.3256 14.4279 52.6385 14.7408 52.6387 15.127C52.6387 15.5133 52.3258 15.8269 51.9395 15.8271H26.4004C26.0141 15.8269 25.7012 15.5133 25.7012 15.127C25.7014 14.7408 26.0142 14.4279 26.4004 14.4277H51.9395Z" fill="#7595E5" stroke="#7595E5" stroke-width="0.2"/>
<path d="M50.9512 11.916C51.3373 11.9162 51.6502 12.2291 51.6504 12.6152C51.6504 13.0016 51.3375 13.3152 50.9512 13.3154H48.3965C48.0102 13.3152 47.6973 13.0016 47.6973 12.6152C47.6975 12.2291 48.0103 11.9162 48.3965 11.916H50.9512Z" fill="#7595E5" stroke="#7595E5" stroke-width="0.2"/>
<path d="M27.834 11.6328C28.3323 11.6329 28.7363 12.0368 28.7363 12.5352C28.7362 13.0334 28.3322 13.4374 27.834 13.4375C27.3356 13.4375 26.9318 13.0334 26.9316 12.5352C26.9316 12.0367 27.3355 11.6328 27.834 11.6328Z" fill="#7595E5" stroke="#7595E5" stroke-width="0.2"/>
<path d="M30.6973 11.6328C31.1956 11.633 31.5996 12.0368 31.5996 12.5352C31.5995 13.0333 31.1955 13.4373 30.6973 13.4375C30.199 13.4375 29.7951 13.0334 29.7949 12.5352C29.7949 12.0367 30.1989 11.6328 30.6973 11.6328Z" fill="#7595E5" stroke="#7595E5" stroke-width="0.2"/>
<path d="M19.4639 3.79297C20.3129 3.79297 21.0029 4.48346 21.0029 5.33203V11.126C21.0028 11.9745 20.3128 12.665 19.4639 12.665H16.6025L15.4111 14.7646C15.1473 15.2309 14.4798 15.2384 14.2041 14.7832L12.917 12.665H9.68945C8.84052 12.665 8.1505 11.9745 8.15039 11.126V5.33203C8.15039 4.48346 8.84046 3.79297 9.68945 3.79297H19.4639ZM9.68945 5.19238C9.61499 5.19238 9.5498 5.25757 9.5498 5.33203V11.126C9.54992 11.2004 9.61506 11.2646 9.68945 11.2646C9.78315 11.2646 13.2199 11.2627 13.3076 11.2627C13.5476 11.2627 13.7777 11.3861 13.9062 11.5977L14.7812 13.0361L15.5869 11.6162C15.7267 11.3684 15.9939 11.2358 16.2656 11.2646H19.4639C19.5383 11.2646 19.6034 11.2004 19.6035 11.126V5.33203C19.6035 5.25757 19.5383 5.19238 19.4639 5.19238H9.68945Z" fill="#7595E5" stroke="#7595E5" stroke-width="0.2"/>
<path d="M15.8545 6.08203C16.2408 6.08203 16.5545 6.39495 16.5547 6.78125C16.5547 7.16773 16.241 7.48145 15.8545 7.48145H13.4238C13.0375 7.48123 12.7246 7.1676 12.7246 6.78125C12.7248 6.39508 13.0377 6.08224 13.4238 6.08203H15.8545Z" fill="#7595E5" stroke="#7595E5" stroke-width="0.2"/>
<path d="M17.6982 8.46094C18.0846 8.46094 18.3982 8.77386 18.3984 9.16016C18.3984 9.54663 18.0847 9.86035 17.6982 9.86035H11.4512C11.0649 9.86014 10.752 9.5465 10.752 9.16016C10.7522 8.77399 11.065 8.46115 11.4512 8.46094H17.6982Z" fill="#7595E5" stroke="#7595E5" stroke-width="0.2"/>
<path d="M33.8691 39.8203C36.221 39.8205 38.1347 41.7331 38.1348 44.085C38.1348 46.4369 36.2211 48.3504 33.8691 48.3506C31.517 48.3506 29.6035 46.4371 29.6035 44.085C29.6036 41.7329 31.5171 39.8203 33.8691 39.8203ZM33.8691 41.2197C32.2893 41.2197 31.003 42.5051 31.0029 44.085C31.0029 45.6649 32.2892 46.9512 33.8691 46.9512C35.4489 46.951 36.7344 45.6648 36.7344 44.085C36.7343 42.5053 35.4488 41.2199 33.8691 41.2197Z" fill="#7595E5" stroke="#7595E5" stroke-width="0.2"/>
<path d="M34.9443 48.7988C37.8285 48.7988 40.1738 51.1446 40.1738 54.0283V55.5078C40.1738 55.8942 39.8609 56.2078 39.4746 56.208C39.0881 56.208 38.7744 55.8943 38.7744 55.5078V54.0283C38.7744 51.9167 37.0563 50.1982 34.9443 50.1982H32.79C30.6781 50.1982 28.96 51.9167 28.96 54.0283V55.5078C28.96 55.8943 28.6462 56.208 28.2598 56.208C27.8735 56.2078 27.5605 55.8942 27.5605 55.5078V54.0283C27.5605 51.1446 29.9059 48.7988 32.79 48.7988H34.9443Z" fill="#7595E5" stroke="#7595E5" stroke-width="0.2"/>
<path d="M17.7441 39.8203C20.096 39.8205 22.0097 41.7331 22.0098 44.085C22.0098 46.4369 20.0961 48.3504 17.7441 48.3506C15.392 48.3506 13.4785 46.4371 13.4785 44.085C13.4786 41.7329 15.3921 39.8203 17.7441 39.8203ZM17.7441 41.2197C16.1643 41.2197 14.878 42.5051 14.8779 44.085C14.8779 45.6649 16.1642 46.9512 17.7441 46.9512C19.3239 46.951 20.6094 45.6648 20.6094 44.085C20.6093 42.5053 19.3238 41.2199 17.7441 41.2197Z" fill="#7595E5" stroke="#7595E5" stroke-width="0.2"/>
<path d="M18.8223 48.7988C21.7064 48.7988 24.0527 51.1446 24.0527 54.0283V55.5078C24.0527 55.8942 23.7389 56.2079 23.3525 56.208C22.9661 56.208 22.6523 55.8943 22.6523 55.5078V54.0283C22.6523 51.9167 20.9342 50.1982 18.8223 50.1982H16.668C14.5568 50.1982 12.8389 51.9167 12.8389 54.0283V55.5078C12.8389 55.8943 12.5252 56.208 12.1387 56.208C11.7524 56.2078 11.4395 55.8942 11.4395 55.5078V54.0283C11.4395 51.1446 13.7846 48.7988 16.668 48.7988H18.8223Z" fill="#7595E5" stroke="#7595E5" stroke-width="0.2"/>
<path d="M49.9941 39.8203C52.346 39.8205 54.2597 41.7331 54.2598 44.085C54.2598 46.4369 52.3461 48.3504 49.9941 48.3506C47.642 48.3506 45.7285 46.4371 45.7285 44.085C45.7286 41.7329 47.6421 39.8203 49.9941 39.8203ZM49.9941 41.2197C48.4143 41.2197 47.128 42.5051 47.1279 44.085C47.1279 45.6649 48.4142 46.9512 49.9941 46.9512C51.5739 46.951 52.8594 45.6648 52.8594 44.085C52.8593 42.5053 51.5738 41.2199 49.9941 41.2197Z" fill="#7595E5" stroke="#7595E5" stroke-width="0.2"/>
<path d="M51.0693 48.7988C53.9535 48.7988 56.2988 51.1446 56.2988 54.0283V55.5078C56.2988 55.8942 55.9859 56.2078 55.5996 56.208C55.2131 56.208 54.8994 55.8943 54.8994 55.5078V54.0283C54.8994 51.9167 53.1813 50.1982 51.0693 50.1982H48.915C46.8031 50.1982 45.085 51.9167 45.085 54.0283V55.5078C45.085 55.8943 44.7712 56.208 44.3848 56.208C43.9985 56.2078 43.6855 55.8942 43.6855 55.5078V54.0283C43.6855 51.1446 46.0309 48.7988 48.915 48.7988H51.0693Z" fill="#7595E5" stroke="#7595E5" stroke-width="0.2"/>
<path d="M38.7676 18.0703C41.2487 18.0704 43.4311 18.4916 44.9971 19.1982C46.5563 19.9019 47.5371 20.9059 47.5371 22.083C47.537 23.2601 46.5562 24.2632 44.9971 24.9668C43.4311 25.6735 41.2488 26.0957 38.7676 26.0957C36.2866 26.0957 34.1041 25.6735 32.5381 24.9668C30.979 24.2632 29.9982 23.2601 29.998 22.083C29.998 20.9059 30.9789 19.9019 32.5381 19.1982C34.104 18.4916 36.2868 18.0703 38.7676 18.0703ZM38.7676 19.4697C36.6403 19.4697 34.7854 19.8269 33.4658 20.3398C32.8057 20.5964 32.2835 20.8899 31.9287 21.1943C31.5717 21.5007 31.3975 21.8055 31.3975 22.083C31.3975 22.3604 31.5719 22.6645 31.9287 22.9707C32.2835 23.2752 32.8056 23.5695 33.4658 23.8262C34.7854 24.3391 36.6404 24.6953 38.7676 24.6953C40.8951 24.6953 42.7498 24.339 44.0693 23.8262C44.7296 23.5695 45.2516 23.2752 45.6064 22.9707C45.9632 22.6645 46.1376 22.3604 46.1377 22.083C46.1377 21.8055 45.9634 21.5007 45.6064 21.1943C45.2516 20.8899 44.7295 20.5964 44.0693 20.3398C42.7498 19.8269 40.8951 19.4698 38.7676 19.4697Z" fill="#7595E5" stroke="#7595E5" stroke-width="0.2"/>
<path d="M42.8389 28.1016C43.2252 28.1016 43.5389 28.4145 43.5391 28.8008C43.5391 29.1873 43.2253 29.501 42.8389 29.501H35.2988C34.9125 29.5008 34.5996 29.1871 34.5996 28.8008C34.5998 28.4146 34.9127 28.1018 35.2988 28.1016H42.8389Z" fill="#7595E5" stroke="#7595E5" stroke-width="0.2"/>
</svg>
