<svg width="28" height="28" viewBox="0 0 28 28" fill="none" xmlns="http://www.w3.org/2000/svg">
<path d="M24.7904 13.9995H10.3762M5.28836 13.9995H3.20703M5.28836 13.9995C5.28836 13.325 5.55632 12.6781 6.03329 12.2011C6.51026 11.7242 7.15716 11.4562 7.8317 11.4562C8.50623 11.4562 9.15314 11.7242 9.63011 12.2011C10.1071 12.6781 10.375 13.325 10.375 13.9995C10.375 14.6741 10.1071 15.321 9.63011 15.798C9.15314 16.2749 8.50623 16.5429 7.8317 16.5429C7.15716 16.5429 6.51026 16.2749 6.03329 15.798C5.55632 15.321 5.28836 14.6741 5.28836 13.9995ZM24.7904 21.7077H18.0844M18.0844 21.7077C18.0844 22.3824 17.8158 23.03 17.3387 23.5071C16.8616 23.9842 16.2146 24.2522 15.5399 24.2522C14.8653 24.2522 14.2184 23.9831 13.7415 23.5061C13.2645 23.0292 12.9965 22.3822 12.9965 21.7077M18.0844 21.7077C18.0844 21.033 17.8158 20.3866 17.3387 19.9095C16.8616 19.4324 16.2146 19.1644 15.5399 19.1644C14.8653 19.1644 14.2184 19.4323 13.7415 19.9093C13.2645 20.3863 12.9965 21.0332 12.9965 21.7077M12.9965 21.7077H3.20703M24.7904 6.29138H21.1679M16.08 6.29138H3.20703M16.08 6.29138C16.08 5.61685 16.348 4.96994 16.825 4.49297C17.3019 4.016 17.9488 3.74805 18.6234 3.74805C18.9574 3.74805 19.2881 3.81383 19.5967 3.94165C19.9052 4.06946 20.1856 4.2568 20.4218 4.49297C20.6579 4.72914 20.8453 5.00952 20.9731 5.31809C21.1009 5.62666 21.1667 5.95738 21.1667 6.29138C21.1667 6.62538 21.1009 6.9561 20.9731 7.26467C20.8453 7.57324 20.6579 7.85362 20.4218 8.08979C20.1856 8.32596 19.9052 8.5133 19.5967 8.64111C19.2881 8.76893 18.9574 8.83471 18.6234 8.83471C17.9488 8.83471 17.3019 8.56676 16.825 8.08979C16.348 7.61282 16.08 6.96591 16.08 6.29138Z" stroke="#151515" stroke-width="2" stroke-miterlimit="10" stroke-linecap="round"/>
</svg>
