<svg width="60" height="60" viewBox="0 0 60 60" fill="none" xmlns="http://www.w3.org/2000/svg">
<g clip-path="url(#clip0_5029_5670)">
<path d="M-1.49012e-08 35.4545V24.5455L3.78274 23.5998C4.44498 20.8778 5.51838 18.3166 6.93623 15.9878L4.92983 12.6437L12.6437 4.92983L15.9878 6.93622C18.3166 5.51838 20.8776 4.44498 23.5998 3.78274L24.5455 0H35.4545L36.4002 3.78274C39.1222 4.44498 41.6834 5.51838 44.0122 6.93622L47.3563 4.92983L55.0702 12.6437L53.0638 15.9878C54.4817 18.3166 55.555 20.8776 56.2173 23.5998L60 24.5455V35.4545L56.2173 36.4002C55.555 39.1222 54.4816 41.6834 53.0638 44.0122L55.0702 47.3563L47.3563 55.0702L44.0122 53.0638C41.6834 54.4816 39.1224 55.555 36.4002 56.2173L35.4545 60H24.5455L23.5998 56.2173C20.8778 55.555 18.3166 54.4816 15.9878 53.0638L12.6437 55.0702L4.92983 47.3563L6.93623 44.0122C5.51838 41.6834 4.44498 39.1224 3.78274 36.4002L-1.49012e-08 35.4545Z" stroke="#7595E5" stroke-width="2" stroke-miterlimit="10"/>
<path d="M29.9977 49.5164C19.2203 49.5164 10.4836 40.7797 10.4836 30.0023C10.4836 19.225 19.2203 10.4883 29.9977 10.4883C40.775 10.4883 49.5117 19.225 49.5117 30.0023C49.5117 40.7797 40.775 49.5164 29.9977 49.5164Z" stroke="#7595E5" stroke-width="2" stroke-miterlimit="10"/>
<path d="M25.7245 49.5143V36.0085C22.6064 34.4413 20.4654 31.2156 20.4654 27.4879C20.4654 23.5486 22.8552 20.1678 26.2639 18.715V24.3985L29.9983 26.8882L33.7328 24.3985V18.7148C37.1415 20.1677 39.5312 23.5485 39.5312 27.4878C39.5312 31.2155 37.3904 34.4413 34.2722 36.0084V49.5143" stroke="#7595E5" stroke-width="2" stroke-miterlimit="10"/>
</g>
<defs>
<clipPath id="clip0_5029_5670">
<rect width="60" height="60" fill="white" transform="matrix(-1 0 0 1 60 0)"/>
</clipPath>
</defs>
</svg>
