<svg width="50" height="51" viewBox="0 0 50 51" fill="none" xmlns="http://www.w3.org/2000/svg">
<path d="M5.17233 12.6846L5.93597 12.8564C6.05051 13.2764 6.22233 13.6836 6.43869 14.0655L6.01233 14.7273C5.89142 14.9182 5.91688 15.16 6.07597 15.3191L7.12597 16.3691C7.28506 16.5282 7.53324 16.5536 7.71778 16.4327L8.39233 16.0191C8.77415 16.2355 9.18142 16.4073 9.60142 16.5218L9.77324 17.2855C9.82415 17.5018 10.0151 17.6609 10.2378 17.6609H11.7269C11.9496 17.6609 12.1469 17.5082 12.1914 17.2855L12.3632 16.5218C12.7832 16.4073 13.1905 16.2355 13.5723 16.0191L14.2341 16.4455C14.4251 16.5664 14.6732 16.5409 14.826 16.3818L15.876 15.3318C16.0351 15.1727 16.0605 14.9246 15.9396 14.74L15.5132 14.0782C15.7296 13.6964 15.9014 13.2891 16.016 12.8691L16.7796 12.6973C16.996 12.6464 17.1551 12.4555 17.1551 12.2327V10.7373C17.1551 10.5146 17.0023 10.3173 16.7796 10.2727L16.016 10.1009C15.9014 9.68092 15.7296 9.27364 15.5132 8.89183L15.9396 8.23001C16.0605 8.0391 16.0351 7.79728 15.876 7.63819L14.826 6.58819C14.6669 6.4291 14.4187 6.40364 14.2341 6.52455L13.5723 6.94455C13.1905 6.72819 12.7832 6.55637 12.3632 6.44183L12.1914 5.67819C12.1405 5.46183 11.9496 5.30273 11.7269 5.30273H10.2378C10.0151 5.30273 9.81778 5.45546 9.77324 5.67819L9.60142 6.43546C9.18142 6.55001 8.77415 6.72183 8.39233 6.93819L7.72415 6.51819C7.5396 6.39728 7.29142 6.42273 7.13233 6.58183L6.08233 7.63183C5.92324 7.79092 5.89778 8.0391 6.01869 8.22364L6.43869 8.89183C6.22233 9.27364 6.05051 9.67455 5.93597 10.1009L5.17233 10.2727C4.9496 10.3173 4.79688 10.5082 4.79688 10.7373V12.2264C4.79688 12.4427 4.9496 12.64 5.17233 12.6846ZM5.75142 11.1191L6.43233 10.9664C6.61688 10.9282 6.76324 10.7818 6.80142 10.5973C6.90324 10.0818 7.10688 9.59183 7.3996 9.14637C7.50142 8.98728 7.50142 8.79001 7.3996 8.63092L7.03051 8.0391L7.5396 7.53001L8.13142 7.90546C8.29051 8.00728 8.49415 8.00728 8.64688 7.90546C9.09233 7.60637 9.58233 7.40273 10.0978 7.30092C10.2823 7.26273 10.4223 7.12273 10.4669 6.93819L10.6196 6.25728H11.3387L11.4914 6.93819C11.5296 7.12273 11.676 7.26273 11.8605 7.30092C12.376 7.4091 12.866 7.61273 13.3114 7.90546C13.4705 8.00728 13.6678 8.00728 13.8269 7.90546L14.4187 7.53001L14.9278 8.0391L14.5523 8.63092C14.4505 8.79001 14.4505 8.99364 14.5523 9.14637C14.8451 9.59819 15.0487 10.0818 15.1569 10.5973C15.1951 10.7818 15.3351 10.9282 15.5196 10.9664L16.2005 11.1191V11.8382L15.5196 11.9909C15.3351 12.0291 15.1951 12.1755 15.1569 12.36C15.0487 12.8755 14.8451 13.3655 14.5523 13.8109C14.4505 13.97 14.4505 14.1673 14.5523 14.3264L14.9278 14.9182L14.4187 15.4273L13.8269 15.0518C13.6678 14.95 13.4641 14.95 13.3114 15.0518C12.866 15.3446 12.376 15.5482 11.8605 15.6564C11.676 15.6946 11.536 15.8346 11.4914 16.0191L11.3387 16.7H10.6196L10.4669 16.0191C10.4287 15.8346 10.2823 15.6946 10.0978 15.6564C9.58233 15.5482 9.09233 15.3446 8.64688 15.0518C8.48778 14.95 8.29051 14.95 8.13142 15.0518L7.5396 15.4273L7.03051 14.9182L7.40597 14.3264C7.50778 14.1673 7.50778 13.9636 7.40597 13.8109C7.11324 13.3655 6.9096 12.8755 6.80142 12.36C6.76324 12.1755 6.62324 12.0291 6.43869 11.9909L5.75778 11.8382V11.1191H5.75142Z" fill="#556EAA"/>
<path d="M10.9748 14.262C12.5084 14.262 13.762 13.0148 13.762 11.4748C13.762 9.93477 12.5148 8.6875 10.9748 8.6875C9.43477 8.6875 8.1875 9.93477 8.1875 11.4748C8.1875 13.0148 9.44114 14.262 10.9748 14.262ZM10.9748 9.64841C11.9866 9.64841 12.8075 10.4693 12.8075 11.4811C12.8075 12.493 11.9866 13.3139 10.9748 13.3139C9.96295 13.3139 9.14205 12.493 9.14205 11.4811C9.14205 10.4693 9.96932 9.64841 10.9748 9.64841Z" fill="#556EAA"/>
<path d="M43.456 35.772H29.7487C29.7551 35.7211 29.7678 35.6701 29.7678 35.6129V25.4183C29.7678 24.8074 29.2651 24.3047 28.6541 24.3047H16.2323C15.6214 24.3047 15.1187 24.8074 15.1187 25.4183V35.6129C15.1187 35.6701 15.1251 35.7211 15.1378 35.772H6.54688C5.5796 35.772 4.79688 36.5547 4.79688 37.522V43.9556C4.79688 44.9229 5.5796 45.7056 6.54688 45.7056H43.456C44.4232 45.7056 45.206 44.9229 45.206 43.9556V37.522C45.206 36.5547 44.4232 35.772 43.456 35.772ZM24.1996 25.2592V27.3783L22.6596 26.6147C22.5896 26.5829 22.5196 26.5638 22.4496 26.5638C22.3796 26.5638 22.3032 26.5829 22.2396 26.6147L20.6996 27.3783V25.2592H24.1996ZM16.0732 35.6129V25.4183C16.0732 25.3292 16.1432 25.2592 16.2323 25.2592H19.7323V28.142C19.7323 28.3074 19.8151 28.4601 19.9551 28.5492C20.0951 28.6383 20.2669 28.6447 20.4196 28.5747L22.4369 27.5756L24.4541 28.5747C24.5241 28.6065 24.5941 28.6256 24.6641 28.6256C24.7532 28.6256 24.836 28.6001 24.9187 28.5556C25.0587 28.4665 25.1414 28.3138 25.1414 28.1483V25.2656H28.6414C28.7305 25.2656 28.8005 25.3356 28.8005 25.4247V35.6192C28.8005 35.7083 28.7305 35.7783 28.6414 35.7783H16.2323C16.1496 35.772 16.0732 35.702 16.0732 35.6129ZM44.2514 43.9556C44.2514 44.3947 43.8951 44.7511 43.456 44.7511H6.54688C6.10778 44.7511 5.75142 44.3947 5.75142 43.9556V37.522C5.75142 37.0829 6.10778 36.7265 6.54688 36.7265H43.456C43.8951 36.7265 44.2514 37.0829 44.2514 37.522V43.9556Z" fill="#556EAA"/>
<path d="M9.7683 38.3164C8.43193 38.3164 7.34375 39.4046 7.34375 40.741C7.34375 42.0773 8.43193 43.1655 9.7683 43.1655C11.1047 43.1655 12.1928 42.0773 12.1928 40.741C12.1928 39.4046 11.0983 38.3164 9.7683 38.3164ZM9.7683 42.2046C8.96011 42.2046 8.2983 41.5491 8.2983 40.7346C8.2983 39.92 8.95375 39.2646 9.7683 39.2646C10.5828 39.2646 11.2383 39.92 11.2383 40.7346C11.2383 41.5491 10.5765 42.2046 9.7683 42.2046Z" fill="#556EAA"/>
<path d="M17.3855 38.3164C16.0491 38.3164 14.9609 39.4046 14.9609 40.741C14.9609 42.0773 16.0491 43.1655 17.3855 43.1655C18.7218 43.1655 19.81 42.0773 19.81 40.741C19.81 39.4046 18.7218 38.3164 17.3855 38.3164ZM17.3855 42.2046C16.5773 42.2046 15.9155 41.5491 15.9155 40.7346C15.9155 39.92 16.5709 39.2646 17.3855 39.2646C18.2 39.2646 18.8555 39.92 18.8555 40.7346C18.8555 41.5491 18.1937 42.2046 17.3855 42.2046Z" fill="#556EAA"/>
<path d="M25.0027 38.3164C23.6663 38.3164 22.5781 39.4046 22.5781 40.741C22.5781 42.0773 23.6663 43.1655 25.0027 43.1655C26.339 43.1655 27.4272 42.0773 27.4272 40.741C27.4272 39.4046 26.339 38.3164 25.0027 38.3164ZM25.0027 42.2046C24.1945 42.2046 23.5327 41.5491 23.5327 40.7346C23.5327 39.92 24.1881 39.2646 25.0027 39.2646C25.8172 39.2646 26.4727 39.92 26.4727 40.7346C26.4727 41.5491 25.8109 42.2046 25.0027 42.2046Z" fill="#556EAA"/>
<path d="M32.6199 38.3164C31.2835 38.3164 30.1953 39.4046 30.1953 40.741C30.1953 42.0773 31.2835 43.1655 32.6199 43.1655C33.9562 43.1655 35.0444 42.0773 35.0444 40.741C35.0444 39.4046 33.9562 38.3164 32.6199 38.3164ZM32.6199 42.2046C31.8117 42.2046 31.1499 41.5491 31.1499 40.7346C31.1499 39.92 31.8053 39.2646 32.6199 39.2646C33.4344 39.2646 34.0899 39.92 34.0899 40.7346C34.0899 41.5491 33.428 42.2046 32.6199 42.2046Z" fill="#556EAA"/>
<path d="M40.237 38.3164C38.9007 38.3164 37.8125 39.4046 37.8125 40.741C37.8125 42.0773 38.9007 43.1655 40.237 43.1655C41.5734 43.1655 42.6616 42.0773 42.6616 40.741C42.6616 39.4046 41.5734 38.3164 40.237 38.3164ZM40.237 42.2046C39.4289 42.2046 38.767 41.5491 38.767 40.7346C38.767 39.92 39.4225 39.2646 40.237 39.2646C41.0516 39.2646 41.707 39.92 41.707 40.7346C41.707 41.5491 41.0452 42.2046 40.237 42.2046Z" fill="#556EAA"/>
<path d="M35.1163 16.9284L28.829 13.072C28.6063 12.932 28.3072 13.002 28.1736 13.2311C28.0336 13.4538 28.1036 13.7466 28.3327 13.8866L35.0399 18.0038C35.1799 19.8556 36.7327 21.3256 38.6227 21.3256C39.1508 21.3256 39.6472 21.2111 40.099 21.0075V27.1484H37.1463V22.3629C37.1463 22.102 36.9299 21.8856 36.669 21.8856C36.4081 21.8856 36.1918 22.102 36.1918 22.3629V27.1484H35.6381C34.4736 27.1484 33.5254 28.0966 33.5254 29.2611V34.3456C33.5254 34.6066 33.7418 34.8229 34.0027 34.8229C34.2636 34.8229 34.4799 34.6066 34.4799 34.3456V29.2547C34.4799 28.6184 35.0018 28.0966 35.6381 28.0966H36.6627H36.669H40.5763H40.5827H41.6072C42.2436 28.0966 42.7654 28.6184 42.7654 29.2547V34.3393C42.7654 34.6002 42.9818 34.8166 43.2427 34.8166C43.5036 34.8166 43.7199 34.6002 43.7199 34.3393V29.2547C43.7199 28.0902 42.7718 27.142 41.6072 27.142H41.0536V20.3711C41.7663 19.7156 42.2181 18.7738 42.2181 17.7238C42.2181 15.7384 40.6018 14.1284 38.6227 14.1284C36.9108 14.1284 35.479 15.3247 35.1163 16.9284ZM38.6227 15.0829C40.0799 15.0829 41.2636 16.2666 41.2636 17.7238C41.2636 19.1811 40.0799 20.3647 38.6227 20.3647C37.1654 20.3647 35.9818 19.1811 35.9818 17.7238C35.9818 16.2666 37.1654 15.0829 38.6227 15.0829Z" fill="#556EAA"/>
<path d="M20.1043 18.5199H15.1406C14.1734 18.5199 13.3906 19.3026 13.3906 20.2699V23.6235C13.3906 23.8844 13.607 24.1008 13.8679 24.1008C14.1288 24.1008 14.3452 23.8844 14.3452 23.6235V20.2699C14.3452 19.8308 14.7015 19.4744 15.1406 19.4744H20.1106C20.3334 20.5626 21.2943 21.3835 22.4461 21.3835C23.5979 21.3835 24.5652 20.5626 24.7815 19.4744H29.7515C30.1906 19.4744 30.547 19.8308 30.547 20.2699V23.6235C30.547 23.8844 30.7634 24.1008 31.0243 24.1008C31.2852 24.1008 31.5015 23.8844 31.5015 23.6235V20.2699C31.5015 19.3026 30.7188 18.5199 29.7515 18.5199H24.7815C24.6988 18.0999 24.4952 17.7244 24.2215 17.419L25.9715 13.448C27.1934 13.1553 28.1224 12.118 28.2624 10.839L35.5234 14.059C35.587 14.0844 35.6506 14.0971 35.7143 14.0971C35.8988 14.0971 36.0706 13.989 36.1534 13.8108C36.2615 13.569 36.1534 13.289 35.9115 13.1808L28.1861 9.7635C27.8488 8.46532 26.6779 7.49805 25.2715 7.49805C23.6043 7.49805 22.2488 8.8535 22.2488 10.5208C22.2488 11.3099 22.5606 12.0226 23.057 12.5635L21.867 16.6935C20.9824 16.9162 20.2888 17.6226 20.1043 18.5199ZM22.4461 20.429C21.657 20.429 21.0143 19.7862 21.0143 18.9971C21.0143 18.278 21.5488 17.6862 22.2424 17.5844C22.3061 17.5717 22.3761 17.5653 22.4461 17.5653C23.2352 17.5653 23.8779 18.208 23.8779 18.9971C23.8779 19.7862 23.2352 20.429 22.4461 20.429ZM24.9024 13.5053L23.4324 16.8335C23.2543 16.7508 23.0634 16.6935 22.8661 16.6553L23.8652 13.1808C24.1834 13.3462 24.5334 13.4608 24.9024 13.5053ZM25.2652 8.45259C26.2515 8.45259 27.0788 9.15259 27.2824 10.0817C27.2824 10.1262 27.2888 10.1708 27.3015 10.2153C27.3143 10.3171 27.3334 10.419 27.3334 10.5208C27.3334 11.6599 26.4043 12.589 25.2652 12.589C24.737 12.589 24.2597 12.3853 23.8906 12.0544C23.8843 12.048 23.8843 12.048 23.8779 12.048C23.4579 11.6662 23.1906 11.1253 23.1906 10.5208C23.197 9.37532 24.1261 8.45259 25.2652 8.45259Z" fill="#556EAA"/>
</svg>
