<svg width="54" height="54" viewBox="0 0 54 54" fill="none" xmlns="http://www.w3.org/2000/svg">
<path d="M27 17.5508C28.0713 17.5508 29.1303 17.7312 30.1523 18.0859L30.3887 18.168L30.3066 18.4053L29.7266 20.0635L29.6436 20.2988L29.4082 20.2168C28.625 19.9444 27.8147 19.8027 26.9941 19.8027C23.0306 19.8027 19.8027 23.0306 19.8027 26.9941C19.8027 30.9576 23.0306 34.1855 26.9941 34.1855C30.9576 34.1855 34.1855 30.9576 34.1855 26.9941C34.1855 26.1603 34.0496 25.3509 33.7783 24.5879L33.6943 24.3525L33.9297 24.2686L35.5879 23.6768L35.8232 23.5928L35.9072 23.8271C36.2689 24.8338 36.4492 25.9 36.4492 26.9883C36.4492 32.2121 32.2125 36.4492 27 36.4492C21.7877 36.4492 17.5508 32.2123 17.5508 27C17.5508 21.7877 21.7877 17.5508 27 17.5508Z" fill="url(#paint0_linear_5116_5956)" stroke="url(#paint1_linear_5116_5956)" stroke-width="0.5"/>
<path d="M45.4424 1.35449L46.8125 7.18652L52.6455 8.55762L53.084 8.66016L52.7637 8.97852L43.9863 17.6973L43.9141 17.7695H36.2305V10.0859L36.3027 10.0137L45.0215 1.23633L45.3398 0.916016L45.4424 1.35449ZM38.4883 11.0186V15.5117H42.9805L48.5996 9.9248L45.084 9.10254L44.9326 9.06738L44.8975 8.91602L44.0742 5.39941L38.4883 11.0186Z" fill="url(#paint2_linear_5116_5956)" stroke="url(#paint3_linear_5116_5956)" stroke-width="0.5"/>
<path d="M38.3309 17.2566L27.6207 27.9668L26.0242 26.3703L36.7344 15.6601L38.3309 17.2566Z" fill="url(#paint4_linear_5116_5956)" stroke="url(#paint5_linear_5116_5956)" stroke-width="0.5"/>
<path d="M27.002 8.89648C29.0694 8.89648 31.1071 9.24744 33.0557 9.93652L33.292 10.0195L33.208 10.2549L32.6221 11.9131L32.5391 12.1484L32.3037 12.0664C30.5958 11.4663 28.8134 11.1602 27.002 11.1602C18.2631 11.1602 11.1562 18.267 11.1562 27.0059C11.1563 35.7447 18.2631 42.8516 27.002 42.8516C35.7408 42.8516 42.8477 35.7447 42.8477 27.0059C42.8477 25.1767 42.542 23.3945 41.9424 21.7051L41.8584 21.4697L42.0938 21.3857L43.752 20.7939L43.9873 20.71L44.0713 20.9453C44.7607 22.877 45.1113 24.9152 45.1113 27C45.1113 31.6848 43.3431 36.0973 40.127 39.4795L39.8115 39.8037C36.384 43.2194 31.8379 45.1035 27.002 45.1035C22.3171 45.1035 17.9046 43.3353 14.5225 40.1191L14.1982 39.8037C10.7824 36.3819 8.89844 31.8359 8.89844 27C8.89844 22.1641 10.7824 17.6181 14.1982 14.1963L14.5215 13.8809C17.8988 10.6644 22.3172 8.89648 27.002 8.89648Z" fill="url(#paint6_linear_5116_5956)" stroke="url(#paint7_linear_5116_5956)" stroke-width="0.5"/>
<path d="M27 0.910156C29.9931 0.910156 32.928 1.41322 35.7266 2.40723L35.9619 2.49023L35.8779 2.72559L35.292 4.38379L35.209 4.62012L34.9727 4.53613C32.416 3.62598 29.7316 3.16797 27 3.16797C13.8607 3.16797 3.16797 13.8607 3.16797 27C3.16797 40.1393 13.8607 50.832 27 50.832C40.1393 50.832 50.832 40.1393 50.832 27C50.832 24.2684 50.3742 21.5833 49.4697 19.0264L49.3857 18.791L49.6221 18.708L51.2803 18.1221L51.5156 18.0381L51.5986 18.2744C52.5866 21.0727 53.0898 24.007 53.0898 27C53.0898 30.5196 52.3979 33.9397 51.0371 37.1582C49.7237 40.2641 47.842 43.0564 45.4463 45.4521C43.0506 47.8479 40.2582 49.7296 37.1523 51.043H37.1514C33.939 52.3977 30.5194 53.0898 27 53.0898C23.4804 53.0898 20.0603 52.3979 16.8418 51.0371C13.7359 49.7237 10.9436 47.842 8.54785 45.4463C6.15215 43.0506 4.2704 40.2582 2.95703 37.1523V37.1514C1.60234 33.939 0.910156 30.5194 0.910156 27C0.910156 23.4804 1.60214 20.0603 2.96289 16.8418C4.27625 13.7359 6.158 10.9436 8.55371 8.54785C10.9494 6.15215 13.7418 4.2704 16.8477 2.95703H16.8486C20.061 1.60234 23.4806 0.910156 27 0.910156Z" fill="url(#paint8_linear_5116_5956)" stroke="url(#paint9_linear_5116_5956)" stroke-width="0.5"/>
<defs>
<linearGradient id="paint0_linear_5116_5956" x1="17.8008" y1="27" x2="36.1992" y2="27" gradientUnits="userSpaceOnUse">
<stop stop-color="#5254CB"/>
<stop offset="1" stop-color="#FF942F"/>
</linearGradient>
<linearGradient id="paint1_linear_5116_5956" x1="17.8008" y1="27" x2="36.1992" y2="27" gradientUnits="userSpaceOnUse">
<stop stop-color="#5254CB"/>
<stop offset="1" stop-color="#FF942F"/>
</linearGradient>
<linearGradient id="paint2_linear_5116_5956" x1="36.4805" y1="9.46582" x2="52.5879" y2="9.46582" gradientUnits="userSpaceOnUse">
<stop stop-color="#5254CB"/>
<stop offset="1" stop-color="#FF942F"/>
</linearGradient>
<linearGradient id="paint3_linear_5116_5956" x1="36.4805" y1="9.46582" x2="52.5879" y2="9.46582" gradientUnits="userSpaceOnUse">
<stop stop-color="#5254CB"/>
<stop offset="1" stop-color="#FF942F"/>
</linearGradient>
<linearGradient id="paint4_linear_5116_5956" x1="31.5562" y1="21.1919" x2="32.7989" y2="22.4347" gradientUnits="userSpaceOnUse">
<stop stop-color="#5254CB"/>
<stop offset="1" stop-color="#FF942F"/>
</linearGradient>
<linearGradient id="paint5_linear_5116_5956" x1="31.5562" y1="21.1919" x2="32.7989" y2="22.4347" gradientUnits="userSpaceOnUse">
<stop stop-color="#5254CB"/>
<stop offset="1" stop-color="#FF942F"/>
</linearGradient>
<linearGradient id="paint6_linear_5116_5956" x1="9.14844" y1="27" x2="44.8613" y2="27" gradientUnits="userSpaceOnUse">
<stop stop-color="#5254CB"/>
<stop offset="1" stop-color="#FF942F"/>
</linearGradient>
<linearGradient id="paint7_linear_5116_5956" x1="9.14844" y1="27" x2="44.8613" y2="27" gradientUnits="userSpaceOnUse">
<stop stop-color="#5254CB"/>
<stop offset="1" stop-color="#FF942F"/>
</linearGradient>
<linearGradient id="paint8_linear_5116_5956" x1="1.16016" y1="27" x2="52.8398" y2="27" gradientUnits="userSpaceOnUse">
<stop stop-color="#5254CB"/>
<stop offset="1" stop-color="#FF942F"/>
</linearGradient>
<linearGradient id="paint9_linear_5116_5956" x1="1.16016" y1="27" x2="52.8398" y2="27" gradientUnits="userSpaceOnUse">
<stop stop-color="#5254CB"/>
<stop offset="1" stop-color="#FF942F"/>
</linearGradient>
</defs>
</svg>
