<svg width="60" height="60" viewBox="0 0 60 60" fill="none" xmlns="http://www.w3.org/2000/svg">
<path d="M30.2385 38.8198L28.4081 57.033C28.3561 57.5507 28.7647 58 29.2876 58H30.0437C30.5448 58 30.9457 57.5858 30.9269 57.0875L30.2385 38.8198Z" fill="#7595E5"/>
<path d="M30.2385 31.3874V17.7215M30.2385 31.3874C29.596 28.83 27.2989 23.3797 23.251 22.037M30.2385 31.3874V38.8198M30.2385 38.8198L28.4081 57.033C28.3561 57.5507 28.7647 58 29.2876 58H30.0437C30.5448 58 30.9457 57.5858 30.9269 57.0875L30.2385 38.8198ZM30.2385 38.8198C30.3991 36.4222 31.8769 31.1956 36.5031 29.4694M43.2528 37.9295C41.348 37.6123 38.032 36.1061 37.359 32.079C37.3351 31.9362 37.48 31.8108 37.6759 31.8167C39.9172 31.8843 43.7124 33.1189 43.6276 37.705C43.6249 37.8514 43.4493 37.9623 43.2528 37.9295ZM40.6962 4.10469C41.1099 8.0989 39.028 13.2893 33.7576 14.4991C33.5655 14.5631 33.1848 14.1783 33.1558 13.8674C32.8244 10.3113 33.8055 4.0839 40.1354 3.37453C40.3375 3.35188 40.7041 3.78787 40.6962 4.10469ZM28.0017 13.7436C29.0723 10.5525 29.1002 4.5111 21.7484 2.0186C21.5221 1.94188 21.2641 2.1099 21.1999 2.38641C21.1951 2.40731 21.1904 2.42751 21.1838 2.44792C20.1873 5.51779 20.5218 11.9668 27.3732 14.027C27.4018 14.0356 27.4301 14.0481 27.4581 14.0588C27.6659 14.1379 27.9139 14.0052 28.0017 13.7436ZM38.7564 19.6226C44.4559 21.0227 48.4753 18.0229 49.5776 14.8179C49.5854 14.7951 49.5956 14.7733 49.6041 14.7508C49.6979 14.5036 49.504 14.0503 49.3028 13.9815C42.7124 11.7288 39.3954 16.0285 38.3922 18.8771C38.3045 19.1262 38.5405 19.5865 38.7564 19.6226ZM39.4183 25.5413C42.5856 30.4597 47.5766 31.0351 50.5928 29.4643C50.6143 29.4531 50.6367 29.4443 50.6585 29.4337C50.8975 29.3186 51.0702 28.8569 50.9718 28.6693C47.7477 22.5223 42.3674 23.371 39.6696 24.751C39.4337 24.8716 39.2866 25.3672 39.4183 25.5413ZM10.5053 14.9137C13.6112 19.6517 18.4486 20.1703 21.3574 18.626C21.3788 18.6147 21.4011 18.6057 21.4228 18.5949C21.6528 18.4807 21.8158 18.0333 21.7192 17.8526C18.5481 11.9247 13.3442 12.7888 10.7423 14.1464C10.5149 14.2651 10.3763 14.7462 10.5053 14.9137ZM9.31885 29.644C14.6993 31.4705 18.83 28.9124 20.1643 25.9125C20.1741 25.8904 20.1861 25.8697 20.1965 25.8479C20.3069 25.6169 20.1582 25.1646 19.9702 25.0816C13.8013 22.3579 10.2384 26.2296 9.03026 28.8943C8.92464 29.1273 9.11351 29.5911 9.31885 29.644ZM19.6326 39.4165C24.1798 38.0946 25.7648 34.3822 25.2319 31.6996C25.2272 31.6759 25.2251 31.6519 25.2204 31.6282C25.1795 31.4195 24.8643 31.1867 24.6977 31.2196C19.1768 32.3069 18.6135 36.6487 19.0743 39.0429C19.1146 39.2523 19.4671 39.4785 19.6326 39.4165Z" stroke="#7595E5" stroke-width="2" stroke-linecap="round"/>
</svg>
