<svg width="88" height="87" viewBox="0 0 88 87" fill="none" xmlns="http://www.w3.org/2000/svg">
<path d="M43.0703 46.2188C43.0703 46.7595 42.8555 47.2782 42.4731 47.6606C42.0907 48.043 41.572 48.2578 41.0312 48.2578H24.7187C24.178 48.2578 23.6593 48.043 23.2769 47.6606C22.8945 47.2782 22.6797 46.7595 22.6797 46.2188C22.6797 45.678 22.8945 45.1593 23.2769 44.7769C23.6593 44.3945 24.178 44.1797 24.7187 44.1797H41.0312C41.572 44.1797 42.0907 44.3945 42.4731 44.7769C42.8555 45.1593 43.0703 45.678 43.0703 46.2188ZM41.0312 33.3047H24.7187C24.178 33.3047 23.6593 33.5195 23.2769 33.9019C22.8945 34.2843 22.6797 34.803 22.6797 35.3438C22.6797 35.8845 22.8945 36.4032 23.2769 36.7856C23.6593 37.168 24.178 37.3828 24.7187 37.3828H41.0312C41.572 37.3828 42.0907 37.168 42.4731 36.7856C42.8555 36.4032 43.0703 35.8845 43.0703 35.3438C43.0703 34.803 42.8555 34.2843 42.4731 33.9019C42.0907 33.5195 41.572 33.3047 41.0312 33.3047ZM78.4141 54.5857V76.125C78.4149 76.4833 78.3213 76.8355 78.1426 77.1462C77.964 77.4568 77.7067 77.7149 77.3966 77.8944C77.0864 78.0739 76.7345 78.1686 76.3762 78.1688C76.0178 78.169 75.6658 78.0748 75.3555 77.8956L66.8594 73.0358L58.3633 77.8956C58.053 78.0748 57.7009 78.169 57.3426 78.1688C56.9842 78.1686 56.6323 78.0739 56.3222 77.8944C56.0121 77.7149 55.7547 77.4568 55.5761 77.1462C55.3975 76.8355 55.3039 76.4833 55.3047 76.125V67.2891H13.8437C12.5819 67.2891 11.3717 66.7878 10.4795 65.8955C9.58721 65.0033 9.08594 63.7931 9.08594 62.5312V19.0312C9.08594 17.7694 9.58721 16.5592 10.4795 15.667C11.3717 14.7747 12.5819 14.2734 13.8437 14.2734H73.6562C74.9181 14.2734 76.1283 14.7747 77.0205 15.667C77.9128 16.5592 78.4141 17.7694 78.4141 19.0312V29.6955C80.1288 31.2835 81.4969 33.2086 82.4325 35.3502C83.3681 37.4918 83.8511 39.8036 83.8511 42.1406C83.8511 44.4777 83.3681 46.7895 82.4325 48.9311C81.4969 51.0727 80.1288 52.9978 78.4141 54.5857ZM66.8594 29.2266C64.3052 29.2266 61.8084 29.984 59.6847 31.403C57.561 32.822 55.9058 34.8389 54.9283 37.1986C53.9509 39.5584 53.6952 42.155 54.1935 44.66C54.6917 47.1651 55.9217 49.4662 57.7277 51.2722C59.5338 53.0783 61.8349 54.3083 64.34 54.8065C66.845 55.3048 69.4416 55.0491 71.8014 54.0717C74.1611 53.0942 76.178 51.439 77.597 49.3153C79.016 47.1916 79.7734 44.6948 79.7734 42.1406C79.7734 38.7156 78.4128 35.4309 75.991 33.009C73.5691 30.5871 70.2844 29.2266 66.8594 29.2266ZM55.3047 63.2109V54.5857C52.3293 51.809 50.4494 48.0566 50.0068 44.011C49.5642 39.9653 50.5883 35.8952 52.8929 32.5408C55.1974 29.1865 58.6294 26.7706 62.5646 25.7327C66.4997 24.6947 70.6768 25.1036 74.3359 26.885V19.0312C74.3359 18.851 74.2643 18.6781 74.1369 18.5506C74.0094 18.4232 73.8365 18.3516 73.6562 18.3516H13.8437C13.6635 18.3516 13.4906 18.4232 13.3631 18.5506C13.2357 18.6781 13.1641 18.851 13.1641 19.0312V62.5312C13.1641 62.7115 13.2357 62.8844 13.3631 63.0119C13.4906 63.1393 13.6635 63.2109 13.8437 63.2109H55.3047ZM74.3359 57.3962C72.0092 58.5388 69.4515 59.1329 66.8594 59.1329C64.2672 59.1329 61.7095 58.5388 59.3828 57.3962V72.611L65.8398 68.9169C66.1498 68.7379 66.5014 68.6437 66.8594 68.6437C67.2173 68.6437 67.5689 68.7379 67.8789 68.9169L74.3359 72.611V57.3962Z" fill="url(#paint0_linear_5029_5760)" fill-opacity="0.8"/>
<path d="M67.75 35L69.4339 40.1824H74.8829L70.4745 43.3853L72.1584 48.5676L67.75 45.3647L63.3416 48.5676L65.0255 43.3853L60.6171 40.1824H66.0661L67.75 35Z" fill="url(#paint1_linear_5029_5760)"/>
<defs>
<linearGradient id="paint0_linear_5029_5760" x1="9.08594" y1="46.2211" x2="83.8511" y2="46.2211" gradientUnits="userSpaceOnUse">
<stop stop-color="#FE8156"/>
<stop offset="1" stop-color="#608EFF"/>
</linearGradient>
<linearGradient id="paint1_linear_5029_5760" x1="67.7501" y1="35" x2="67.7501" y2="67.1387" gradientUnits="userSpaceOnUse">
<stop stop-color="#745DF7"/>
<stop offset="0.475961" stop-color="#F3E6FF"/>
<stop offset="1" stop-color="#443791"/>
</linearGradient>
</defs>
</svg>
