<svg width="45" height="45" viewBox="0 0 45 45" fill="none" xmlns="http://www.w3.org/2000/svg">
<path d="M27.1565 34.3454L37.4318 34.2886C38.1585 34.2846 38.8539 33.992 39.3649 33.4753C39.8759 32.9586 40.1608 32.2601 40.1567 31.5334L40.0962 20.5731C40.0922 19.8464 39.7996 19.151 39.2829 18.64C38.7662 18.129 38.0677 17.8441 37.341 17.8481L27.0657 17.9049L27.0581 16.5349C27.0501 15.0815 27.6198 13.6844 28.6418 12.651C29.6639 11.6176 31.0546 11.0325 32.508 11.0245C32.8713 11.0224 33.219 10.8762 33.4745 10.6178C33.73 10.3595 33.8725 10.0102 33.8705 9.64685C33.8684 9.28349 33.7222 8.93581 33.4638 8.6803C33.2055 8.42479 32.8562 8.28237 32.4928 8.28438C30.3134 8.29869 28.2287 9.17702 26.6961 10.7266C25.1635 12.2762 24.3083 14.3706 24.318 16.55L24.4013 31.6204C24.4053 32.3471 24.6979 33.0425 25.2146 33.5535C25.7313 34.0645 26.4298 34.3494 27.1565 34.3454ZM27.0808 20.645L37.3561 20.5882L37.4167 31.5485L27.1414 31.6053L27.0808 20.645ZM7.291 34.4551L17.5663 34.3983C18.293 34.3943 18.9883 34.1018 19.4994 33.5851C20.0104 33.0684 20.2952 32.3698 20.2912 31.6431L20.2307 20.6828C20.2266 19.9561 19.9341 19.2608 19.4174 18.7497C18.9007 18.2387 18.2021 17.9539 17.4754 17.9579L7.20016 18.0147L7.19259 16.6446C7.18456 15.1912 7.75423 13.7941 8.77628 12.7607C9.79833 11.7273 11.189 11.1422 12.6425 11.1342C13.0058 11.1322 13.3535 10.9859 13.609 10.7276C13.8645 10.4692 14.0069 10.12 14.0049 9.75661C14.0029 9.39326 13.8567 9.04558 13.5983 8.79006C13.34 8.53455 12.9907 8.39214 12.6273 8.39414C10.4479 8.40845 8.36315 9.28678 6.83057 10.8364C5.29798 12.386 4.44275 14.4803 4.45252 16.6598L4.53579 31.7302C4.53981 32.4569 4.83234 33.1522 5.34904 33.6633C5.86575 34.1743 6.56429 34.4591 7.291 34.4551ZM7.2153 20.7548L17.4906 20.698L17.5511 31.6583L7.27586 31.715L7.2153 20.7548Z" fill="url(#paint0_linear_5029_5763)"/>
<defs>
<linearGradient id="paint0_linear_5029_5763" x1="40.035" y1="9.4965" x2="2.62637" y2="15.8276" gradientUnits="userSpaceOnUse">
<stop stop-color="#D3C9FF"/>
<stop offset="0.5" stop-color="#DCF0FF"/>
<stop offset="1" stop-color="#FFCFCF"/>
</linearGradient>
</defs>
</svg>
