<svg width="60" height="60" viewBox="0 0 60 60" fill="none" xmlns="http://www.w3.org/2000/svg">
<path d="M15.7895 43.0345C16.3134 43.0345 16.7368 42.677 16.7368 42.2365C16.7368 37.3964 21.4121 33.4581 27.1579 33.4581C27.6818 33.4581 28.1053 33.1006 28.1053 32.6601C28.1053 32.2196 27.6818 31.8621 27.1579 31.8621C20.3672 31.8621 14.8421 36.5162 14.8421 42.2365C14.8421 42.677 15.2656 43.0345 15.7895 43.0345Z" fill="#7595E5"/>
<path d="M48 3.84417C48 3.58429 47.8783 3.33876 47.67 3.1793C47.4617 3.01898 47.1891 2.96161 46.9354 3.02573C46.8454 3.04767 39.414 4.98913 36.8571 13.1237C34.3011 4.98913 26.8697 3.04767 26.7789 3.02573C26.5234 2.9633 26.2526 3.01983 26.0443 3.1793C25.836 3.33876 25.7143 3.58429 25.7143 3.84417C25.7143 13.7354 33.7697 18.4468 35.9734 19.5496C35.6983 24.4256 31.5934 28.3127 26.5714 28.3127C18.5366 28.3127 12 34.7471 12 42.6564C12 50.5656 18.5366 57 26.5714 57C27.996 57 29.0014 56.5697 29.5594 55.7209C30.7843 53.8571 29.3409 50.6955 27.9454 47.6378C27.3009 46.2262 26.3383 44.1186 26.4643 43.506C26.49 43.5026 26.5243 43.5001 26.5714 43.5001C30.8254 43.5001 34.2857 40.0931 34.2857 35.9064C34.2857 33.09 32.7163 30.6313 30.396 29.3202C34.4923 27.8394 37.4606 24.0628 37.686 19.5766C39.8126 18.5228 48 13.813 48 3.84417ZM32.5714 35.9064C32.5714 39.1633 29.8791 41.8126 26.5714 41.8126C25.698 41.8126 25.2549 42.21 25.0354 42.5425C24.2709 43.7051 25.1571 45.6449 26.3811 48.3297C27.4183 50.6002 28.8377 53.7111 28.1194 54.8037C27.8974 55.1412 27.3771 55.3117 26.5706 55.3117C19.4803 55.3117 13.7134 49.6341 13.7134 42.6555C13.7134 35.6769 19.4803 29.9994 26.5706 29.9994C29.8783 29.9994 32.5706 32.6487 32.5706 35.9056L32.5714 35.9064ZM27.4731 5.04312C29.8886 6.02693 35.3991 9.18422 35.9546 17.625C33.4637 16.2092 28.0209 12.3103 27.4731 5.04312ZM37.7589 17.6402C38.3091 9.18422 43.8274 6.02609 46.242 5.04228C45.7003 12.3972 40.26 16.2472 37.7589 17.6402Z" fill="#7595E5"/>
</svg>
