<svg width="61" height="60" viewBox="0 0 61 60" fill="none" xmlns="http://www.w3.org/2000/svg">
<path d="M27.6428 32.1713L27.6446 55M27.6446 55H20.5072M27.6446 55H33.8898M54.3215 6.13145C53.469 14.2963 47.411 29.355 28.6579 33.0826C28.1568 33.1822 27.6846 32.7466 27.6622 32.1285C27.3154 22.5527 31.9632 5.49326 53.4499 5.0002C53.9633 4.98841 54.3864 5.51067 54.3215 6.13145ZM6.33803 13.7491C7.11669 19.7513 11.82 30.3511 25.8358 33.0906C26.3329 33.1878 26.7983 32.7548 26.8121 32.1415C26.9689 25.1273 23.3027 13.0731 7.19205 12.6132C6.67756 12.5985 6.25767 13.1296 6.33803 13.7491Z" stroke="#7595E5" stroke-width="2" stroke-linecap="round"/>
</svg>
