<svg width="42" height="42" viewBox="0 0 42 42" fill="none" xmlns="http://www.w3.org/2000/svg">
<g clip-path="url(#clip0_5029_5007)">
<path d="M1.7402 17.3273C0.881714 17.4665 0.21762 18.1548 0.109195 19.0178C-0.0349563 20.3248 -0.0364075 21.6437 0.10498 22.9511C0.203523 23.8274 0.871693 24.5318 1.74158 24.6765L3.96895 25.0412C4.39657 26.8626 5.11844 28.6021 6.10601 30.1911L4.79496 32.0223C4.27253 32.7306 4.28517 33.7 4.82578 34.3946C5.24303 34.905 5.68703 35.3932 6.15576 35.8569C6.58559 36.2874 7.06082 36.72 7.63135 37.1994C8.32039 37.7293 9.27652 37.7404 9.97772 37.2267L11.818 35.9066C13.4054 36.894 15.1431 37.6161 16.9629 38.0443L17.3284 40.2752C17.4673 41.134 18.1557 41.7984 19.0189 41.9069C19.4179 41.9517 19.8232 41.9832 20.2312 42H20.2907C20.6555 41.9997 21.0064 41.8594 21.2707 41.608C21.5455 41.3454 21.7006 40.9815 21.6998 40.6014V34.9916C21.6956 34.242 21.1039 33.6276 20.3551 33.5952C13.6552 33.2453 8.40214 27.7109 8.40214 21.0019C8.40214 14.2929 13.6552 8.75848 20.3551 8.40868C21.1051 8.37578 21.6971 7.75951 21.6998 7.00869V1.40176C21.7009 1.02121 21.5455 0.657026 21.2699 0.394499C20.9949 0.124646 20.6195 -0.017778 20.2346 0.00177853C19.8272 0.0178799 19.4233 0.0472492 19.0089 0.0892647C18.1462 0.200454 17.4612 0.86897 17.3289 1.72863L16.9642 3.95738C15.1444 4.38597 13.4067 5.10825 11.8193 6.09589L9.97903 4.77848C9.27133 4.26096 8.30595 4.27637 7.61518 4.81628C7.10767 5.23174 6.62194 5.67304 6.15991 6.1386C5.68371 6.60408 5.23543 7.09728 4.81735 7.61556C4.28324 8.3055 4.26956 9.26543 4.78376 9.97037L6.10324 11.8128C5.1165 13.4016 4.3956 15.1409 3.96895 16.9619L1.7402 17.3273ZM5.23529 17.7179C5.64225 15.7408 6.42299 13.8596 7.5355 12.1753C7.69492 11.9331 7.6885 11.6177 7.5194 11.3822L5.92274 9.15279C5.77513 8.95799 5.77085 8.69 5.91224 8.49056C6.29591 8.01506 6.70756 7.56277 7.14492 7.13605C7.56978 6.70691 8.01598 6.2994 8.48188 5.91525C8.68243 5.76239 8.96036 5.76239 9.1609 5.91525L11.3869 7.51267C11.6227 7.68135 11.9381 7.68716 12.18 7.52739C13.8628 6.41446 15.743 5.63344 17.7191 5.22649C18.0032 5.16795 18.2217 4.94019 18.2686 4.65389L18.7089 1.95819C18.7405 1.7164 18.9262 1.5236 19.1667 1.48289C19.5369 1.4444 19.9122 1.41711 20.3 1.4017L20.2846 7.00931C12.8321 7.38994 6.98612 13.5455 6.99027 21.0077C6.99434 28.4699 12.8471 34.6191 20.3 34.9915L20.2902 40.6012C19.9142 40.5858 19.5419 40.5565 19.1744 40.5151C18.9328 40.4798 18.7435 40.2894 18.7096 40.0475L18.2686 37.3504C18.2217 37.0641 18.0032 36.8364 17.7191 36.7778C15.743 36.3705 13.8628 35.5894 12.18 34.4762C11.9379 34.3166 11.6226 34.3228 11.3869 34.4916L9.15883 36.0905C8.96879 36.2382 8.70482 36.2453 8.50711 36.1079C7.99263 35.6746 7.54669 35.268 7.14492 34.8668C6.71571 34.4427 6.30848 33.997 5.92481 33.5312C5.77382 33.3296 5.77382 33.0525 5.92481 32.8508L7.52009 30.6235C7.68898 30.3878 7.69513 30.0724 7.5355 29.8303C6.42292 28.1464 5.64218 26.2654 5.23529 24.2885C5.17683 24.0046 4.94941 23.7861 4.66338 23.739L1.96838 23.2973C1.71753 23.2558 1.52494 23.0524 1.4973 22.7996C1.3662 21.5956 1.36759 20.3808 1.50151 19.1771C1.53634 18.9353 1.72651 18.7454 1.96838 18.711L4.66262 18.2699C4.94975 18.2229 5.17773 18.0031 5.23529 17.7179Z" fill="#7595E5"/>
<path d="M39.898 18.9011C39.0113 18.9047 38.2225 19.465 37.9268 20.3011H21.6982V18.201H32.8981C34.0579 18.201 34.998 17.2609 34.998 16.1011V12.4724C35.9623 12.1315 36.5407 11.1454 36.3678 10.1374C36.1948 9.12937 35.3208 8.39251 34.298 8.39251C33.2753 8.39251 32.4012 9.12937 32.2283 10.1374C32.0553 11.1454 32.6337 12.1315 33.598 12.4724V16.1011C33.598 16.4877 33.2846 16.8011 32.898 16.8011H21.6982V14.7011H29.3981C29.7847 14.7011 30.0981 14.3877 30.0981 14.0011C30.0981 13.6145 29.7847 13.3011 29.3981 13.3011H21.6982V11.9011H25.8982C27.0579 11.9011 27.9982 10.9609 27.9982 9.80106V5.47243C28.9625 5.13154 29.5409 4.14549 29.3679 3.13746C29.1949 2.12944 28.3209 1.39258 27.2982 1.39258C26.2754 1.39258 25.4014 2.12944 25.2284 3.13746C25.0554 4.14549 25.6338 5.13154 26.5981 5.47243V9.8012C26.5981 10.1878 26.2847 10.5012 25.8981 10.5012H21.5134C21.2725 10.0536 20.7919 9.78856 20.2849 9.82366C14.3861 10.1973 9.79297 15.0905 9.79297 21.0012C9.79297 26.9118 14.3861 31.805 20.2849 32.1787H20.3668C20.845 32.1827 21.2862 31.9219 21.5134 31.5011H25.8981C26.2847 31.5011 26.5981 31.8145 26.5981 32.2011V36.5299C25.6338 36.8708 25.0554 37.8568 25.2284 38.8649C25.4014 39.8729 26.2754 40.6097 27.2982 40.6097C28.3209 40.6097 29.1949 39.8729 29.3679 38.8649C29.5409 37.8568 28.9625 36.8708 27.9982 36.5299V32.2011C27.9982 31.0413 27.058 30.1011 25.8982 30.1011H21.6982V28.7011H29.3981C29.7847 28.7011 30.0981 28.3877 30.0981 28.0012C30.0981 27.6146 29.7847 27.3011 29.3981 27.3011H21.6982V25.2012H32.8981C33.2847 25.2012 33.5981 25.5146 33.5981 25.9011V29.5299C32.6338 29.8708 32.0554 30.8568 32.2284 31.8649C32.4014 32.8729 33.2754 33.6097 34.2982 33.6097C35.3209 33.6097 36.1949 32.8729 36.3679 31.8649C36.5409 30.8568 35.9625 29.8708 34.9982 29.5299V25.9011C34.9982 24.7414 34.058 23.8012 32.8982 23.8012H21.6982V21.701H37.9268C38.2845 22.7053 39.3388 23.2811 40.3771 23.0394C41.4154 22.7977 42.107 21.8153 41.9844 20.7564C41.8617 19.6976 40.964 18.8992 39.898 18.9011ZM34.2981 9.8012C34.6847 9.8012 34.998 10.1146 34.998 10.5012C34.998 10.8879 34.6847 11.2013 34.2981 11.2013C33.9115 11.2013 33.5981 10.8879 33.5981 10.5012C33.5981 10.1146 33.9114 9.8012 34.2981 9.8012ZM27.2982 2.80127C27.6847 2.80127 27.9982 3.11466 27.9982 3.5013C27.9982 3.88794 27.6848 4.20126 27.2982 4.20126C26.9115 4.20126 26.5982 3.88787 26.5982 3.5013C26.5982 3.11473 26.9115 2.80127 27.2982 2.80127ZM27.2982 39.2009C26.9116 39.2009 26.5982 38.8875 26.5982 38.5009C26.5982 38.1142 26.9116 37.8009 27.2982 37.8009C27.6847 37.8009 27.9982 38.1142 27.9982 38.5009C27.9982 38.8875 27.6847 39.2009 27.2982 39.2009ZM34.2981 32.201C33.9115 32.201 33.5981 31.8876 33.5981 31.501C33.5981 31.1143 33.9115 30.801 34.2981 30.801C34.6847 30.801 34.998 31.1144 34.998 31.501C34.998 31.8875 34.6847 32.201 34.2981 32.201ZM11.1983 21.0011C11.2042 15.8627 15.1734 11.5992 20.2982 11.2264V30.7758C15.1734 30.403 11.2042 26.1394 11.1983 21.0011ZM39.898 21.701C39.5115 21.701 39.198 21.3877 39.198 21.001C39.198 20.6144 39.5114 20.3011 39.898 20.3011C40.2847 20.3011 40.5981 20.6145 40.5981 21.001C40.5981 21.3876 40.2846 21.701 39.898 21.701Z" fill="#7595E5"/>
</g>
<defs>
<clipPath id="clip0_5029_5007">
<rect width="42" height="42" fill="white"/>
</clipPath>
</defs>
</svg>
