<svg width="60" height="60" viewBox="0 0 60 60" fill="none" xmlns="http://www.w3.org/2000/svg">
<g clip-path="url(#clip0_5116_5946)">
<mask id="path-1-outside-1_5116_5946" maskUnits="userSpaceOnUse" x="-0.296875" y="-0.296875" width="61" height="61" fill="black">
<rect fill="white" x="-0.296875" y="-0.296875" width="61" height="61"/>
<path d="M59.2969 7.12957V19.2395C59.2969 19.5632 59.0345 19.8254 58.7109 19.8254C58.3874 19.8254 58.125 19.5632 58.125 19.2395V7.12957C58.125 4.23211 55.7678 1.875 52.8704 1.875H40.7605C40.437 1.875 40.1746 1.61273 40.1746 1.28906C40.1746 0.965391 40.437 0.703125 40.7605 0.703125H52.8704C56.4139 0.703125 59.2969 3.58605 59.2969 7.12957ZM1.28906 19.8254C1.61262 19.8254 1.875 19.5632 1.875 19.2395V7.12957C1.875 4.23211 4.23223 1.875 7.12957 1.875H19.2395C19.563 1.875 19.8254 1.61273 19.8254 1.28906C19.8254 0.965391 19.563 0.703125 19.2395 0.703125H7.12957C3.58594 0.703125 0.703125 3.58605 0.703125 7.12957V19.2395C0.703125 19.5632 0.965508 19.8254 1.28906 19.8254ZM19.2395 58.125H7.12957C4.23223 58.125 1.875 55.7679 1.875 52.8704V40.7605C1.875 40.4368 1.61262 40.1746 1.28906 40.1746C0.965508 40.1746 0.703125 40.4368 0.703125 40.7605V52.8704C0.703125 56.4139 3.58605 59.2969 7.12957 59.2969H19.2395C19.563 59.2969 19.8254 59.0346 19.8254 58.7109C19.8254 58.3873 19.563 58.125 19.2395 58.125ZM58.7111 40.1746C58.3875 40.1746 58.1251 40.4368 58.1251 40.7605V52.8704C58.1251 55.7679 55.7679 58.125 52.8705 58.125H40.7606C40.4371 58.125 40.1747 58.3873 40.1747 58.7109C40.1747 59.0346 40.4371 59.2969 40.7606 59.2969H52.8705C56.4141 59.2969 59.297 56.4139 59.297 52.8704V40.7605C59.297 40.4368 59.0346 40.1746 58.7111 40.1746ZM30 10.0591C40.9954 10.0591 49.9409 19.0045 49.9409 30C49.9409 40.9955 40.9955 49.9407 30 49.9407C19.0045 49.9407 10.0591 40.9954 10.0591 30C10.0591 19.0046 19.0046 10.0591 30 10.0591ZM30 11.231C19.6508 11.231 11.231 19.6508 11.231 30C11.231 40.3492 19.6507 48.7689 30 48.7689C40.3493 48.7689 48.769 40.3492 48.769 30C48.769 19.6508 40.3493 11.231 30 11.231ZM30 8.59441C30.3236 8.59441 30.5859 8.33215 30.5859 8.00848V1.28906C30.5859 0.965391 30.3236 0.703125 30 0.703125C29.6764 0.703125 29.4141 0.965391 29.4141 1.28906V8.00848C29.4141 8.33215 29.6764 8.59441 30 8.59441ZM1.28906 30.5859H8.00848C8.33203 30.5859 8.59441 30.3237 8.59441 30C8.59441 29.6763 8.33203 29.4141 8.00848 29.4141H1.28906C0.965508 29.4141 0.703125 29.6763 0.703125 30C0.703125 30.3237 0.965508 30.5859 1.28906 30.5859ZM30 51.4056C29.6764 51.4056 29.4141 51.6679 29.4141 51.9915V58.7109C29.4141 59.0346 29.6764 59.2969 30 59.2969C30.3236 59.2969 30.5859 59.0346 30.5859 58.7109V51.9915C30.5859 51.6679 30.3236 51.4056 30 51.4056ZM58.7109 29.4141H51.9915C51.668 29.4141 51.4056 29.6763 51.4056 30C51.4056 30.3237 51.668 30.5859 51.9915 30.5859H58.7109C59.0345 30.5859 59.2969 30.3237 59.2969 30C59.2969 29.6763 59.0345 29.4141 58.7109 29.4141ZM30 21.416C36.2363 21.416 42.0512 24.502 45.5551 29.6712C45.6896 29.8697 45.6896 30.1302 45.5551 30.3287C42.0512 35.4979 36.2363 38.5839 30 38.5839C23.7638 38.5839 17.9488 35.4979 14.4449 30.3287C14.3104 30.1302 14.3104 29.8697 14.4449 29.6712C17.9488 24.502 23.7638 21.416 30 21.416ZM27.1596 37.1803C24.3026 36.0461 22.2762 33.2561 22.2762 30C22.2762 27.9638 23.0695 26.1103 24.3618 24.729C24.4184 24.6642 24.4766 24.6002 24.5384 24.5385C24.6 24.4768 24.6638 24.4187 24.7284 24.3622C25.4296 23.7062 26.2526 23.1798 27.1595 22.8197C22.5503 23.5718 18.3938 26.1325 15.6431 30C18.3939 33.8675 22.5505 36.4283 27.1596 37.1803ZM25.4532 25.2891C25.3975 25.343 25.3426 25.3977 25.2888 25.4536C24.3417 26.488 24.3657 28.0986 25.3671 29.0999C26.3961 30.1289 28.0707 30.1287 29.1 29.0999C30.129 28.0707 30.129 26.3961 29.1 25.367C28.0986 24.3657 26.4877 24.342 25.4535 25.2891H25.4532ZM32.8405 22.8197C35.6975 23.9539 37.7238 26.7439 37.7238 30C37.7238 33.2561 35.6974 36.0461 32.8405 37.1803C37.4497 36.4282 41.6061 33.8675 44.3568 30C41.606 26.1325 37.4496 23.5718 32.8405 22.8197ZM30 23.448C29.4738 23.448 28.9627 23.5121 28.472 23.6298C29.0044 23.8119 29.5044 24.1144 29.9284 24.5385C31.4145 26.0245 31.4145 28.4425 29.9284 29.9285C29.1853 30.6716 28.2094 31.0431 27.2333 31.0431C26.2573 31.0431 25.2813 30.6716 24.5384 29.9285C24.1144 29.5045 23.8118 29.0044 23.6298 28.4719C23.512 28.9625 23.448 29.4738 23.448 30C23.448 33.6128 26.3872 36.552 30 36.552C33.6128 36.552 36.552 33.6128 36.552 30C36.552 26.3872 33.6128 23.448 30 23.448Z"/>
</mask>
<path d="M59.2969 7.12957V19.2395C59.2969 19.5632 59.0345 19.8254 58.7109 19.8254C58.3874 19.8254 58.125 19.5632 58.125 19.2395V7.12957C58.125 4.23211 55.7678 1.875 52.8704 1.875H40.7605C40.437 1.875 40.1746 1.61273 40.1746 1.28906C40.1746 0.965391 40.437 0.703125 40.7605 0.703125H52.8704C56.4139 0.703125 59.2969 3.58605 59.2969 7.12957ZM1.28906 19.8254C1.61262 19.8254 1.875 19.5632 1.875 19.2395V7.12957C1.875 4.23211 4.23223 1.875 7.12957 1.875H19.2395C19.563 1.875 19.8254 1.61273 19.8254 1.28906C19.8254 0.965391 19.563 0.703125 19.2395 0.703125H7.12957C3.58594 0.703125 0.703125 3.58605 0.703125 7.12957V19.2395C0.703125 19.5632 0.965508 19.8254 1.28906 19.8254ZM19.2395 58.125H7.12957C4.23223 58.125 1.875 55.7679 1.875 52.8704V40.7605C1.875 40.4368 1.61262 40.1746 1.28906 40.1746C0.965508 40.1746 0.703125 40.4368 0.703125 40.7605V52.8704C0.703125 56.4139 3.58605 59.2969 7.12957 59.2969H19.2395C19.563 59.2969 19.8254 59.0346 19.8254 58.7109C19.8254 58.3873 19.563 58.125 19.2395 58.125ZM58.7111 40.1746C58.3875 40.1746 58.1251 40.4368 58.1251 40.7605V52.8704C58.1251 55.7679 55.7679 58.125 52.8705 58.125H40.7606C40.4371 58.125 40.1747 58.3873 40.1747 58.7109C40.1747 59.0346 40.4371 59.2969 40.7606 59.2969H52.8705C56.4141 59.2969 59.297 56.4139 59.297 52.8704V40.7605C59.297 40.4368 59.0346 40.1746 58.7111 40.1746ZM30 10.0591C40.9954 10.0591 49.9409 19.0045 49.9409 30C49.9409 40.9955 40.9955 49.9407 30 49.9407C19.0045 49.9407 10.0591 40.9954 10.0591 30C10.0591 19.0046 19.0046 10.0591 30 10.0591ZM30 11.231C19.6508 11.231 11.231 19.6508 11.231 30C11.231 40.3492 19.6507 48.7689 30 48.7689C40.3493 48.7689 48.769 40.3492 48.769 30C48.769 19.6508 40.3493 11.231 30 11.231ZM30 8.59441C30.3236 8.59441 30.5859 8.33215 30.5859 8.00848V1.28906C30.5859 0.965391 30.3236 0.703125 30 0.703125C29.6764 0.703125 29.4141 0.965391 29.4141 1.28906V8.00848C29.4141 8.33215 29.6764 8.59441 30 8.59441ZM1.28906 30.5859H8.00848C8.33203 30.5859 8.59441 30.3237 8.59441 30C8.59441 29.6763 8.33203 29.4141 8.00848 29.4141H1.28906C0.965508 29.4141 0.703125 29.6763 0.703125 30C0.703125 30.3237 0.965508 30.5859 1.28906 30.5859ZM30 51.4056C29.6764 51.4056 29.4141 51.6679 29.4141 51.9915V58.7109C29.4141 59.0346 29.6764 59.2969 30 59.2969C30.3236 59.2969 30.5859 59.0346 30.5859 58.7109V51.9915C30.5859 51.6679 30.3236 51.4056 30 51.4056ZM58.7109 29.4141H51.9915C51.668 29.4141 51.4056 29.6763 51.4056 30C51.4056 30.3237 51.668 30.5859 51.9915 30.5859H58.7109C59.0345 30.5859 59.2969 30.3237 59.2969 30C59.2969 29.6763 59.0345 29.4141 58.7109 29.4141ZM30 21.416C36.2363 21.416 42.0512 24.502 45.5551 29.6712C45.6896 29.8697 45.6896 30.1302 45.5551 30.3287C42.0512 35.4979 36.2363 38.5839 30 38.5839C23.7638 38.5839 17.9488 35.4979 14.4449 30.3287C14.3104 30.1302 14.3104 29.8697 14.4449 29.6712C17.9488 24.502 23.7638 21.416 30 21.416ZM27.1596 37.1803C24.3026 36.0461 22.2762 33.2561 22.2762 30C22.2762 27.9638 23.0695 26.1103 24.3618 24.729C24.4184 24.6642 24.4766 24.6002 24.5384 24.5385C24.6 24.4768 24.6638 24.4187 24.7284 24.3622C25.4296 23.7062 26.2526 23.1798 27.1595 22.8197C22.5503 23.5718 18.3938 26.1325 15.6431 30C18.3939 33.8675 22.5505 36.4283 27.1596 37.1803ZM25.4532 25.2891C25.3975 25.343 25.3426 25.3977 25.2888 25.4536C24.3417 26.488 24.3657 28.0986 25.3671 29.0999C26.3961 30.1289 28.0707 30.1287 29.1 29.0999C30.129 28.0707 30.129 26.3961 29.1 25.367C28.0986 24.3657 26.4877 24.342 25.4535 25.2891H25.4532ZM32.8405 22.8197C35.6975 23.9539 37.7238 26.7439 37.7238 30C37.7238 33.2561 35.6974 36.0461 32.8405 37.1803C37.4497 36.4282 41.6061 33.8675 44.3568 30C41.606 26.1325 37.4496 23.5718 32.8405 22.8197ZM30 23.448C29.4738 23.448 28.9627 23.5121 28.472 23.6298C29.0044 23.8119 29.5044 24.1144 29.9284 24.5385C31.4145 26.0245 31.4145 28.4425 29.9284 29.9285C29.1853 30.6716 28.2094 31.0431 27.2333 31.0431C26.2573 31.0431 25.2813 30.6716 24.5384 29.9285C24.1144 29.5045 23.8118 29.0044 23.6298 28.4719C23.512 28.9625 23.448 29.4738 23.448 30C23.448 33.6128 26.3872 36.552 30 36.552C33.6128 36.552 36.552 33.6128 36.552 30C36.552 26.3872 33.6128 23.448 30 23.448Z" fill="url(#paint0_linear_5116_5946)"/>
<path d="M59.2969 7.12957V19.2395C59.2969 19.5632 59.0345 19.8254 58.7109 19.8254C58.3874 19.8254 58.125 19.5632 58.125 19.2395V7.12957C58.125 4.23211 55.7678 1.875 52.8704 1.875H40.7605C40.437 1.875 40.1746 1.61273 40.1746 1.28906C40.1746 0.965391 40.437 0.703125 40.7605 0.703125H52.8704C56.4139 0.703125 59.2969 3.58605 59.2969 7.12957ZM1.28906 19.8254C1.61262 19.8254 1.875 19.5632 1.875 19.2395V7.12957C1.875 4.23211 4.23223 1.875 7.12957 1.875H19.2395C19.563 1.875 19.8254 1.61273 19.8254 1.28906C19.8254 0.965391 19.563 0.703125 19.2395 0.703125H7.12957C3.58594 0.703125 0.703125 3.58605 0.703125 7.12957V19.2395C0.703125 19.5632 0.965508 19.8254 1.28906 19.8254ZM19.2395 58.125H7.12957C4.23223 58.125 1.875 55.7679 1.875 52.8704V40.7605C1.875 40.4368 1.61262 40.1746 1.28906 40.1746C0.965508 40.1746 0.703125 40.4368 0.703125 40.7605V52.8704C0.703125 56.4139 3.58605 59.2969 7.12957 59.2969H19.2395C19.563 59.2969 19.8254 59.0346 19.8254 58.7109C19.8254 58.3873 19.563 58.125 19.2395 58.125ZM58.7111 40.1746C58.3875 40.1746 58.1251 40.4368 58.1251 40.7605V52.8704C58.1251 55.7679 55.7679 58.125 52.8705 58.125H40.7606C40.4371 58.125 40.1747 58.3873 40.1747 58.7109C40.1747 59.0346 40.4371 59.2969 40.7606 59.2969H52.8705C56.4141 59.2969 59.297 56.4139 59.297 52.8704V40.7605C59.297 40.4368 59.0346 40.1746 58.7111 40.1746ZM30 10.0591C40.9954 10.0591 49.9409 19.0045 49.9409 30C49.9409 40.9955 40.9955 49.9407 30 49.9407C19.0045 49.9407 10.0591 40.9954 10.0591 30C10.0591 19.0046 19.0046 10.0591 30 10.0591ZM30 11.231C19.6508 11.231 11.231 19.6508 11.231 30C11.231 40.3492 19.6507 48.7689 30 48.7689C40.3493 48.7689 48.769 40.3492 48.769 30C48.769 19.6508 40.3493 11.231 30 11.231ZM30 8.59441C30.3236 8.59441 30.5859 8.33215 30.5859 8.00848V1.28906C30.5859 0.965391 30.3236 0.703125 30 0.703125C29.6764 0.703125 29.4141 0.965391 29.4141 1.28906V8.00848C29.4141 8.33215 29.6764 8.59441 30 8.59441ZM1.28906 30.5859H8.00848C8.33203 30.5859 8.59441 30.3237 8.59441 30C8.59441 29.6763 8.33203 29.4141 8.00848 29.4141H1.28906C0.965508 29.4141 0.703125 29.6763 0.703125 30C0.703125 30.3237 0.965508 30.5859 1.28906 30.5859ZM30 51.4056C29.6764 51.4056 29.4141 51.6679 29.4141 51.9915V58.7109C29.4141 59.0346 29.6764 59.2969 30 59.2969C30.3236 59.2969 30.5859 59.0346 30.5859 58.7109V51.9915C30.5859 51.6679 30.3236 51.4056 30 51.4056ZM58.7109 29.4141H51.9915C51.668 29.4141 51.4056 29.6763 51.4056 30C51.4056 30.3237 51.668 30.5859 51.9915 30.5859H58.7109C59.0345 30.5859 59.2969 30.3237 59.2969 30C59.2969 29.6763 59.0345 29.4141 58.7109 29.4141ZM30 21.416C36.2363 21.416 42.0512 24.502 45.5551 29.6712C45.6896 29.8697 45.6896 30.1302 45.5551 30.3287C42.0512 35.4979 36.2363 38.5839 30 38.5839C23.7638 38.5839 17.9488 35.4979 14.4449 30.3287C14.3104 30.1302 14.3104 29.8697 14.4449 29.6712C17.9488 24.502 23.7638 21.416 30 21.416ZM27.1596 37.1803C24.3026 36.0461 22.2762 33.2561 22.2762 30C22.2762 27.9638 23.0695 26.1103 24.3618 24.729C24.4184 24.6642 24.4766 24.6002 24.5384 24.5385C24.6 24.4768 24.6638 24.4187 24.7284 24.3622C25.4296 23.7062 26.2526 23.1798 27.1595 22.8197C22.5503 23.5718 18.3938 26.1325 15.6431 30C18.3939 33.8675 22.5505 36.4283 27.1596 37.1803ZM25.4532 25.2891C25.3975 25.343 25.3426 25.3977 25.2888 25.4536C24.3417 26.488 24.3657 28.0986 25.3671 29.0999C26.3961 30.1289 28.0707 30.1287 29.1 29.0999C30.129 28.0707 30.129 26.3961 29.1 25.367C28.0986 24.3657 26.4877 24.342 25.4535 25.2891H25.4532ZM32.8405 22.8197C35.6975 23.9539 37.7238 26.7439 37.7238 30C37.7238 33.2561 35.6974 36.0461 32.8405 37.1803C37.4497 36.4282 41.6061 33.8675 44.3568 30C41.606 26.1325 37.4496 23.5718 32.8405 22.8197ZM30 23.448C29.4738 23.448 28.9627 23.5121 28.472 23.6298C29.0044 23.8119 29.5044 24.1144 29.9284 24.5385C31.4145 26.0245 31.4145 28.4425 29.9284 29.9285C29.1853 30.6716 28.2094 31.0431 27.2333 31.0431C26.2573 31.0431 25.2813 30.6716 24.5384 29.9285C24.1144 29.5045 23.8118 29.0044 23.6298 28.4719C23.512 28.9625 23.448 29.4738 23.448 30C23.448 33.6128 26.3872 36.552 30 36.552C33.6128 36.552 36.552 33.6128 36.552 30C36.552 26.3872 33.6128 23.448 30 23.448Z" stroke="url(#paint1_linear_5116_5946)" mask="url(#path-1-outside-1_5116_5946)"/>
</g>
<defs>
<linearGradient id="paint0_linear_5116_5946" x1="0.703125" y1="30" x2="59.297" y2="30" gradientUnits="userSpaceOnUse">
<stop stop-color="#5254CB"/>
<stop offset="1" stop-color="#FF942F"/>
</linearGradient>
<linearGradient id="paint1_linear_5116_5946" x1="0.703125" y1="30" x2="59.297" y2="30" gradientUnits="userSpaceOnUse">
<stop stop-color="#5254CB"/>
<stop offset="1" stop-color="#FF942F"/>
</linearGradient>
<clipPath id="clip0_5116_5946">
<rect width="60" height="60" fill="white"/>
</clipPath>
</defs>
</svg>
