<svg width="25" height="24" viewBox="0 0 25 24" fill="none" xmlns="http://www.w3.org/2000/svg">
<path fill-rule="evenodd" clip-rule="evenodd" d="M12.497 20.969C13.6471 19.9254 14.7115 18.7911 15.68 17.577C17.72 15.014 18.961 12.487 19.045 10.24C19.0782 9.32679 18.9271 8.41626 18.6005 7.56278C18.274 6.7093 17.7788 5.9304 17.1445 5.27259C16.5102 4.61478 15.7498 4.09157 14.9088 3.7342C14.0677 3.37684 13.1633 3.19265 12.2495 3.19265C11.3357 3.19265 10.4313 3.37684 9.59022 3.7342C8.74918 4.09157 7.98881 4.61478 7.35451 5.27259C6.7202 5.9304 6.225 6.7093 5.89846 7.56278C5.57192 8.41626 5.42076 9.32679 5.454 10.24C5.539 12.487 6.781 15.014 8.82 17.577C9.78846 18.7911 10.8529 19.9254 12.003 20.969C12.1137 21.069 12.196 21.1417 12.25 21.187L12.497 20.969ZM11.512 22.134C11.512 22.134 4.25 16.018 4.25 10C4.25 7.87827 5.09285 5.84344 6.59315 4.34315C8.09344 2.84285 10.1283 2 12.25 2C14.3717 2 16.4066 2.84285 17.9069 4.34315C19.4071 5.84344 20.25 7.87827 20.25 10C20.25 16.018 12.988 22.134 12.988 22.134C12.584 22.506 11.919 22.502 11.512 22.134ZM12.25 12.8C12.9926 12.8 13.7048 12.505 14.2299 11.9799C14.755 11.4548 15.05 10.7426 15.05 10C15.05 9.25739 14.755 8.5452 14.2299 8.0201C13.7048 7.495 12.9926 7.2 12.25 7.2C11.5074 7.2 10.7952 7.495 10.2701 8.0201C9.745 8.5452 9.45 9.25739 9.45 10C9.45 10.7426 9.745 11.4548 10.2701 11.9799C10.7952 12.505 11.5074 12.8 12.25 12.8ZM12.25 14C11.1891 14 10.1717 13.5786 9.42157 12.8284C8.67143 12.0783 8.25 11.0609 8.25 10C8.25 8.93913 8.67143 7.92172 9.42157 7.17157C10.1717 6.42143 11.1891 6 12.25 6C13.3109 6 14.3283 6.42143 15.0784 7.17157C15.8286 7.92172 16.25 8.93913 16.25 10C16.25 11.0609 15.8286 12.0783 15.0784 12.8284C14.3283 13.5786 13.3109 14 12.25 14Z" fill="#BAABFC"/>
</svg>
