<svg width="60" height="60" viewBox="0 0 60 60" fill="none" xmlns="http://www.w3.org/2000/svg">
<path d="M24.3408 36.0957H36.0518C40.7011 36.0957 43.9521 38.3869 45.6592 41.5176C47.3681 44.6518 47.5315 48.6317 45.9922 52.0078L45.9277 52.1504L46.084 52.1494C47.8615 52.1402 49.3984 50.8205 49.6631 49.0703C49.861 47.7619 49.8613 46.4346 49.6641 45.126C49.5347 44.2687 49.0983 43.4851 48.4365 42.9199C48.0883 42.6221 48.0472 42.0983 48.3447 41.75C48.6424 41.4014 49.1661 41.3604 49.5146 41.6582C50.4803 42.483 51.1167 43.6266 51.3057 44.8789C51.5277 46.3521 51.5276 47.8464 51.3047 49.3193C50.9174 51.8788 48.6647 53.8096 46.0654 53.8096H44.9531L44.9229 53.8516C42.8302 56.7383 39.6453 58.0996 36.0518 58.0996H35.2012C33.6124 58.0996 32.1714 57.2325 31.4395 55.8369C30.9247 54.8553 29.4961 54.8081 28.9424 55.8574C28.2135 57.2399 26.7766 58.0996 25.1914 58.0996H24.3398C20.75 58.0995 17.5646 56.7394 15.4707 53.8516L15.4414 53.8096H14.3271C11.7279 53.8096 9.47525 51.8788 9.08789 49.3193C8.86503 47.8464 8.86486 46.3521 9.08691 44.8789C9.32712 43.2866 10.2677 41.9088 11.668 41.0986C12.0646 40.8695 12.5722 41.0047 12.8018 41.4014C13.0314 41.7982 12.8958 42.3065 12.499 42.5361C11.5387 43.0917 10.893 44.0355 10.7285 45.126C10.5313 46.4345 10.5316 47.762 10.7295 49.0703C10.9943 50.8211 12.5322 52.1412 14.3105 52.1494L14.4668 52.1504L14.4014 52.0078C12.865 48.6401 13.0232 44.6599 14.7285 41.5234C16.4318 38.3908 19.6808 36.0957 24.3408 36.0957ZM24.3398 37.7559C21.2318 37.756 18.8956 38.9226 17.3379 40.6777C15.7819 42.4311 15.0076 44.766 15.0098 47.0977C15.012 49.4294 15.7905 51.7652 17.3477 53.5186C18.9064 55.2736 21.2406 56.4393 24.3398 56.4395H25.1914C26.1569 56.4394 27.032 55.9212 27.4736 55.084C28.6547 52.8434 31.7789 52.9107 32.9092 55.0654C33.3538 55.9134 34.2329 56.4395 35.2012 56.4395H36.0518C39.1688 56.4395 41.5092 55.2739 43.0674 53.5186C44.6239 51.7651 45.3951 49.4294 45.3896 47.0977C45.3841 44.7659 44.6011 42.431 43.042 40.6777C41.4812 38.9227 39.1472 37.7559 36.0518 37.7559H24.3398Z" fill="#7595E5" stroke="#7595E5" stroke-width="0.2"/>
<path d="M19.665 50.5762C19.9942 50.2573 20.5198 50.2656 20.8389 50.5947C21.4486 51.2239 22.2209 51.6403 23.1309 51.832C23.5792 51.9267 23.8657 52.3662 23.7715 52.8145C23.6768 53.2638 23.2357 53.5504 22.7881 53.4561C21.5456 53.1941 20.4894 52.6198 19.6465 51.75C19.3276 51.4209 19.3358 50.8952 19.665 50.5762Z" fill="#7595E5" stroke="#7595E5" stroke-width="0.2"/>
<path d="M22.7871 40.7412C23.2351 40.6467 23.676 40.9335 23.7705 41.3818C23.8649 41.8305 23.5774 42.2708 23.1289 42.3652C22.2182 42.557 21.4458 42.9732 20.8359 43.6025C20.6732 43.7706 20.4562 43.8545 20.2393 43.8545C19.5582 43.8543 19.1812 43.0812 19.5576 42.5498L19.6436 42.4473C20.4867 41.5771 21.5436 41.0031 22.7871 40.7412Z" fill="#7595E5" stroke="#7595E5" stroke-width="0.2"/>
<path d="M39.5586 50.5947C39.8776 50.2657 40.4033 50.2573 40.7324 50.5762C41.0616 50.8951 41.07 51.4208 40.751 51.75C39.9079 52.6197 38.8519 53.1941 37.6094 53.4561C37.1616 53.5505 36.7207 53.2637 36.626 52.8145C36.5317 52.3661 36.8183 51.9257 37.2666 51.8311C38.1766 51.6393 38.9488 51.2238 39.5586 50.5947Z" fill="#7595E5" stroke="#7595E5" stroke-width="0.2"/>
<path d="M36.626 41.3818C36.7207 40.9334 37.1615 40.6466 37.6094 40.7412C38.8526 41.0029 39.9089 41.5771 40.752 42.4473C41.263 42.9746 40.8829 43.8545 40.1562 43.8545C39.9394 43.8544 39.7233 43.7704 39.5605 43.6025C38.9506 42.9731 38.1774 42.557 37.2666 42.3652C36.8182 42.2705 36.5315 41.8303 36.626 41.3818Z" fill="#7595E5" stroke="#7595E5" stroke-width="0.2"/>
<path d="M36.6523 8.01562L36.6025 7.9873L30.2461 4.31738L30.1963 4.28906L30.1465 4.31738L24.7207 7.4502L24.5703 7.53711L24.7207 7.62305L30.1465 10.7559L30.1963 10.7852L30.2461 10.7559L33.4248 8.92188L33.4238 8.9209C33.8208 8.6918 34.3286 8.82869 34.5576 9.22559H34.5586C34.7874 9.62246 34.6507 10.1303 34.2539 10.3594L31.0762 12.1934L31.0264 12.2227V15.9502C31.0263 16.4085 30.6546 16.7803 30.1963 16.7803C29.738 16.7802 29.3663 16.4085 29.3662 15.9502V12.2227L29.3164 12.1934L22.4951 8.25586C21.9424 7.93659 21.9435 7.13727 22.4951 6.81836L29.7812 2.61133C30.0381 2.4631 30.3545 2.46317 30.6113 2.61133L37.8975 6.81836C38.1542 6.96664 38.3125 7.24066 38.3125 7.53711V15.9502C38.3125 16.2466 38.1542 16.5207 37.8975 16.6689L30.6113 20.875C30.3539 21.0236 30.0378 21.023 29.7812 20.875L22.4951 16.6689C22.2385 16.5207 22.0801 16.2466 22.0801 15.9502V12.1768C22.0801 11.7185 22.4519 11.3468 22.9102 11.3467C23.3685 11.3467 23.7402 11.7184 23.7402 12.1768V15.4707L23.79 15.5L30.1465 19.1689L30.1963 19.1982L30.2461 19.1689L36.6025 15.5L36.6523 15.4707V8.01562Z" fill="#7595E5" stroke="#7595E5" stroke-width="0.2"/>
<path d="M39.5957 17.873C39.829 17.4787 40.3379 17.3481 40.7324 17.5811C41.963 18.308 42.5287 19.0904 42.7686 19.7637C43.0089 20.4383 42.9262 21.0158 42.8379 21.3389C42.5417 22.422 41.5766 23.3542 40.0332 24.0791C38.4915 24.8031 36.3887 25.3129 33.8516 25.5586L33.8086 25.5625L33.7822 25.5967L32.3203 27.4756C32.1567 27.6858 31.9116 27.7959 31.6641 27.7959C30.9823 27.7956 30.5836 27.0039 31.0098 26.4561L31.4658 25.8701L31.5967 25.7031L31.3848 25.709C29.2746 25.7683 26.0795 25.656 23.2773 25.0283C21.8763 24.7144 20.5784 24.273 19.5645 23.6631C18.5508 23.0532 17.8297 22.2803 17.5615 21.3066C17.4733 20.9859 17.3895 20.413 17.623 19.7441C17.8561 19.0768 18.4089 18.3013 19.6162 17.582C20.0098 17.3475 20.5192 17.4767 20.7539 17.8701C20.9886 18.2639 20.8596 18.7742 20.4658 19.0088C20.1836 19.177 19.8078 19.4334 19.5273 19.7461C19.2486 20.057 19.0462 20.445 19.1621 20.8662C19.3673 21.6109 20.0661 22.1773 21.0059 22.6094C21.9499 23.0434 23.1613 23.3532 24.4336 23.5723C26.9795 24.0105 29.7928 24.0883 31.2559 24.0518L31.4873 24.0459L31.3242 23.8809L30.8428 23.3945C30.5205 23.0687 30.5229 22.5431 30.8486 22.2207C31.1745 21.8983 31.7001 21.9017 32.0225 22.2275L33.6543 23.877L33.6875 23.9102L33.7354 23.9062C36.1998 23.6687 37.9947 23.1892 39.2119 22.6377C39.8205 22.3619 40.2875 22.0665 40.6211 21.7725C40.9534 21.4795 41.1593 21.1826 41.2363 20.9014C41.3579 20.4568 41.1161 20.0444 40.8154 19.7256C40.5115 19.4033 40.1232 19.1493 39.8887 19.0107C39.494 18.7775 39.3626 18.2677 39.5957 17.873Z" fill="#7595E5" stroke="#7595E5" stroke-width="0.2"/>
<path d="M51.4629 3.13184C51.5726 2.68683 52.0227 2.41503 52.4678 2.52441C52.9126 2.63429 53.184 3.0843 53.0742 3.5293L45.1621 35.6182C45.0688 35.996 44.7301 36.2488 44.3574 36.249C43.8188 36.249 43.4218 35.7442 43.5508 35.2207L51.4629 3.13184Z" fill="#7595E5" stroke="#7595E5" stroke-width="0.2"/>
<path d="M7.93066 2.52441C8.37598 2.41507 8.8258 2.68685 8.93555 3.13184L16.8477 35.2207C16.9765 35.7435 16.5801 36.249 16.041 36.249C15.6682 36.2489 15.3296 35.9961 15.2363 35.6182L7.32324 3.5293C7.22031 3.11192 7.45322 2.69021 7.84961 2.54883L7.93066 2.52441Z" fill="#7595E5" stroke="#7595E5" stroke-width="0.2"/>
<path d="M30.1953 30.2969C30.6537 30.2969 31.0252 30.6687 31.0254 31.127V32.9834C31.0253 33.4417 30.6536 33.8135 30.1953 33.8135C29.7372 33.8133 29.3653 33.4416 29.3652 32.9834V31.127C29.3654 30.6688 29.7372 30.297 30.1953 30.2969Z" fill="#7595E5" stroke="#7595E5" stroke-width="0.2"/>
<path d="M22.8145 28.3379C23.2703 28.2844 23.6821 28.611 23.7354 29.0664L24.2373 33.3623C24.2903 33.8175 23.9639 34.229 23.5088 34.2822C23.0548 34.3354 22.6412 34.0108 22.5879 33.5547L22.0859 29.2588C22.0328 28.8035 22.3593 28.3911 22.8145 28.3379Z" fill="#7595E5" stroke="#7595E5" stroke-width="0.2"/>
<path d="M37.583 28.3379C38.0383 28.3911 38.3647 28.8035 38.3115 29.2588L37.8096 33.5547C37.7562 34.0106 37.3429 34.3354 36.8887 34.2822C36.4333 34.229 36.1069 33.8167 36.1602 33.3613L36.6621 29.0664C36.7153 28.6112 37.1272 28.2848 37.583 28.3379Z" fill="#7595E5" stroke="#7595E5" stroke-width="0.2"/>
</svg>
