<svg width="81" height="80" viewBox="0 0 81 80" fill="none" xmlns="http://www.w3.org/2000/svg">
<rect x="3.5" y="3" width="74" height="74" rx="37" stroke="url(#paint0_linear_5116_6883)" stroke-width="6"/>
<path d="M44.8832 21.6504C43.9769 21.6504 42.9691 22.4004 42.5394 23.6855C42.0316 25.209 42.6254 26.6238 43.6254 26.9598C44.6254 27.2879 45.9535 26.5223 46.4691 24.9988C46.9769 23.4754 46.3754 22.0621 45.3754 21.7277C45.2191 21.6754 45.0551 21.6504 44.8832 21.6504ZM36.0004 25.2137C33.6957 26.9598 32.266 28.3512 30.8363 30.1559C30.2113 31.0543 31.7972 32.6715 32.9066 31.6559L36.391 28.2418L39.3363 28.7965C37.5707 32.4137 36.4144 35.3043 32.9847 37.6715C31.1957 37.7105 29.6097 37.1559 27.9988 36.6871C26.6933 36.3199 25.9004 38.8824 27.1519 39.3043C29.3597 40.1949 31.7347 40.859 34.3676 41.1637C39.2504 37.2887 42.5707 34.6324 50.8988 41.2262C52.1019 42.0074 53.3363 39.6793 52.9301 39.2809L46.8207 34.4449C46.0316 33.9215 44.2347 34.0074 42.8988 33.8277C43.8676 32.6246 44.3676 31.5855 44.8676 30.5309C46.3832 31.2184 48.6097 32.0934 49.4222 31.9605C51.3441 30.523 52.9847 29.1949 54.4691 27.7098C55.1879 26.8145 53.3207 25.116 52.6176 25.7504L48.7816 29.023C47.9535 28.5309 47.0785 28.1168 46.1566 27.741C45.2894 28.3824 44.2191 28.6402 43.1801 28.2887C42.2035 27.9605 41.5238 27.1863 41.1879 26.2332C39.5082 25.8434 37.766 25.5246 36.0004 25.2137ZM45.2972 41.8434C45.1097 41.8434 44.9144 41.8512 44.7191 41.8824C43.1254 42.109 42.1332 43.2809 42.2816 44.3199C42.4301 45.3668 43.7113 46.2105 45.3051 45.984C46.8988 45.7574 47.891 44.5934 47.7426 43.5465C47.6097 42.6324 46.6176 41.8668 45.2972 41.8434ZM30.8051 50.8277C30.7113 53.1246 32.1879 53.0621 35.6957 52.8902L32.2269 56.1793C31.5238 56.9059 33.2894 58.398 34.1566 58.0309L41.1801 52.3277C41.7582 55.8668 41.8363 55.9527 42.1097 56.9215C42.4066 57.9605 44.3519 57.609 44.1879 56.7965C43.8285 54.9449 43.4535 50.4137 42.6722 47.1793C41.5472 46.7184 41.0629 45.7184 40.891 44.523C40.8129 43.9684 40.8832 43.4371 41.0863 42.9449C37.391 43.2652 31.4613 47.5621 30.8051 50.8277ZM40.6097 48.2027L40.9301 50.359L37.4144 50.0699L40.6097 48.2027Z" fill="url(#paint1_linear_5116_6883)"/>
<defs>
<linearGradient id="paint0_linear_5116_6883" x1="9.86526" y1="-8.41443" x2="75.9626" y2="10.5757" gradientUnits="userSpaceOnUse">
<stop stop-color="#9E87FF"/>
<stop offset="0.5" stop-color="#6DBFFE"/>
<stop offset="1" stop-color="#FF8F8F"/>
</linearGradient>
<linearGradient id="paint1_linear_5116_6883" x1="27.9145" y1="13.9264" x2="56.106" y2="20.1743" gradientUnits="userSpaceOnUse">
<stop stop-color="#9E87FF"/>
<stop offset="0.5" stop-color="#6DBFFE"/>
<stop offset="1" stop-color="#FF8F8F"/>
</linearGradient>
</defs>
</svg>
