<svg width="80" height="80" viewBox="0 0 80 80" fill="none" xmlns="http://www.w3.org/2000/svg">
<rect x="3" y="3" width="74" height="74" rx="37" stroke="url(#paint0_linear_5116_5928)" stroke-width="6"/>
<path d="M47.6729 40.4941C48.6993 39.7327 49.6549 39.4754 50.4023 39.6367C51.1206 39.7918 51.7925 40.3674 52.2041 41.6162L52.2061 41.6221C52.6129 42.8135 52.7695 44.3657 52.6719 45.9014C52.5741 47.4392 52.2254 48.9041 51.6699 49.9326C49.8196 53.3462 47.2084 55.385 43.7344 56.4023C40.2398 57.4257 35.8284 57.3757 30.5381 56.375H30.5391C29.0284 56.0864 27.6194 55.1009 26.5283 53.8057C25.4374 52.5105 24.7078 50.9564 24.5166 49.6084C24.3235 48.2473 24.6386 47.3164 25.3145 46.8145C26.0107 46.2981 27.4778 45.9723 30.1777 46.7754C34.8943 48.1799 38.0495 47.7184 40.624 46.2285L40.625 46.2295C41.8912 45.4989 42.9957 44.5664 44.1055 43.5752C45.2216 42.5782 46.3392 41.5248 47.6729 40.4941ZM51.7734 30.1416C52.739 29.9399 53.6542 29.965 54.4199 30.418C55.1244 30.9337 55.4256 31.6066 55.5117 32.4043C55.601 33.2321 55.4558 34.1679 55.2686 35.1602C54.9505 36.4959 54.4224 37.9907 53.8584 39.4365C53.7775 39.292 53.6905 39.1499 53.5996 39.0137C54.1127 37.6883 54.5903 36.2951 54.877 35.0586C55.0028 34.5238 55.1678 33.751 55.1475 32.9814C55.1271 32.2129 54.9189 31.3588 54.21 30.7705L54.1904 30.7549L54.1699 30.7412L54.0205 30.6504C53.6664 30.4598 53.2682 30.4001 52.8838 30.4062C52.444 30.4134 51.9834 30.5078 51.5469 30.6318C50.7027 30.8716 49.7775 31.2823 49.2617 31.4658L49.2441 31.4717L49.2275 31.4795C46.6472 32.6188 43.6539 34.3058 40.5449 34.9707C40.5504 34.8295 40.559 34.6859 40.5713 34.54C43.486 33.8654 46.5427 32.2203 49.0576 31.1055L49.0586 31.1064C49.8485 30.7628 50.7991 30.3452 51.7734 30.1416ZM25.2549 23.207C27.2879 24.0093 29.5674 24.6298 31.6699 25.2539C33.2225 25.7162 34.6784 26.1991 35.8779 26.7207C37.0899 27.2478 37.977 27.7886 38.4551 28.3389V28.3398C38.9271 28.8925 38.9558 29.6786 38.7031 31.0996C38.5899 31.7374 38.4218 32.4879 38.2979 33.2754C33.2427 31.6329 30.8012 28.8946 27.9697 25.3096L27.0889 25.7227C28.0362 30.2171 31.6678 33.6955 36.8936 35.9023C35.3836 36.5291 33.6765 36.8137 32.1221 36.8262C31.0174 36.826 30.0086 36.6982 29.2471 36.4932C28.8744 36.3928 28.5663 36.2668 28.3418 36.1504C28.2295 36.0921 28.1419 36.0382 28.0801 35.9941C28.0118 35.9455 27.9951 35.9235 28.0029 35.9336L27.9961 35.9258L27.707 35.5479C26.518 33.8979 26.1531 32.0367 25.9697 29.9219L25.8955 28.9277C25.7797 27.1384 25.7204 25.1726 25.2549 23.207Z" stroke="url(#paint1_linear_5116_5928)"/>
<defs>
<linearGradient id="paint0_linear_5116_5928" x1="9.36526" y1="-8.41443" x2="75.4626" y2="10.5757" gradientUnits="userSpaceOnUse">
<stop stop-color="#9E87FF"/>
<stop offset="0.5" stop-color="#6DBFFE"/>
<stop offset="1" stop-color="#FF8F8F"/>
</linearGradient>
<linearGradient id="paint1_linear_5116_5928" x1="23.9609" y1="39.9997" x2="56.0383" y2="39.9997" gradientUnits="userSpaceOnUse">
<stop stop-color="#5254CB"/>
<stop offset="1" stop-color="#FF942F"/>
</linearGradient>
</defs>
</svg>
