<svg width="81" height="80" viewBox="0 0 81 80" fill="none" xmlns="http://www.w3.org/2000/svg">
<rect x="3.5" y="3" width="74" height="74" rx="37" stroke="url(#paint0_linear_5116_6514)" stroke-width="6"/>
<g clip-path="url(#clip0_5116_6514)">
<path d="M20.5 38.2444V49.3324H25.8333V46.6657C25.8799 45.266 26.4568 43.9364 27.447 42.9461C28.4373 41.9558 29.767 41.379 31.1667 41.3324C32.5664 41.379 33.896 41.9558 34.8863 42.9461C35.8766 43.9364 36.4534 45.266 36.5 46.6657V49.3324H44.5V46.6657C44.5466 45.266 45.1234 43.9364 46.1137 42.9461C47.104 41.9558 48.4336 41.379 49.8333 41.3324C51.233 41.379 52.5627 41.9558 53.553 42.9461C54.5432 43.9364 55.1201 45.266 55.1667 46.6657V49.3324H60.5V38.2444C58.2159 35.0753 55.2114 32.4944 51.7342 30.7143C48.2569 28.9342 44.4064 28.0059 40.5 28.0059C36.5936 28.0059 32.7431 28.9342 29.2658 30.7143C25.7886 32.4944 22.7841 35.0753 20.5 38.2444ZM45.8333 29.9564C47.2032 30.2826 48.5417 30.7288 49.8333 31.2897V38.6657H45.8333V29.9564ZM44.5 29.6897V38.6657H40.5V29.3484C41.844 29.3484 43.1773 29.4622 44.5 29.6897ZM29.8333 31.9377C31.1169 31.2746 32.4502 30.7359 33.8333 30.3217V38.6657H29.8333V31.9377ZM35.1667 38.6657V29.9457C36.4815 29.6425 37.8196 29.4507 39.1667 29.3724V38.6657H35.1667ZM28.5 32.6497V38.6657H21.8333C23.6476 36.2499 25.9112 34.2072 28.5 32.6497ZM51.1667 38.6657V31.999L51.0253 31.8577C54.2287 33.4675 57.0154 35.7978 59.1667 38.6657H51.1667Z" fill="url(#paint1_linear_5116_6514)"/>
</g>
<defs>
<linearGradient id="paint0_linear_5116_6514" x1="9.86526" y1="-8.41443" x2="75.9626" y2="10.5757" gradientUnits="userSpaceOnUse">
<stop stop-color="#9E87FF"/>
<stop offset="0.5" stop-color="#6DBFFE"/>
<stop offset="1" stop-color="#FF8F8F"/>
</linearGradient>
<linearGradient id="paint1_linear_5116_6514" x1="22.4796" y1="23.4851" x2="55.098" y2="41.0622" gradientUnits="userSpaceOnUse">
<stop stop-color="#9E87FF"/>
<stop offset="0.5" stop-color="#6DBFFE"/>
<stop offset="1" stop-color="#FF8F8F"/>
</linearGradient>
<clipPath id="clip0_5116_6514">
<rect width="40" height="40" fill="white" transform="translate(20.5 20)"/>
</clipPath>
</defs>
</svg>
