<svg width="81" height="80" viewBox="0 0 81 80" fill="none" xmlns="http://www.w3.org/2000/svg">
<rect x="3.5" y="3" width="74" height="74" rx="37" stroke="url(#paint0_linear_5116_7412)" stroke-width="6"/>
<path d="M35.6795 29.0807C36.6762 26.164 40.7062 26.0757 41.8878 28.8157L41.9878 29.0823L43.3328 33.0156C43.6411 33.9177 44.1392 34.7432 44.7935 35.4364C45.4479 36.1295 46.2433 36.6743 47.1262 37.034L47.4878 37.169L51.4212 38.5123C54.3378 39.509 54.4262 43.539 51.6878 44.7206L51.4212 44.8207L47.4878 46.1656C46.5855 46.4737 45.7597 46.9717 45.0662 47.6261C44.3727 48.2805 43.8276 49.076 43.4678 49.959L43.3328 50.319L41.9895 54.254C40.9928 57.1706 36.9628 57.259 35.7828 54.5206L35.6795 54.254L34.3362 50.3206C34.0281 49.4183 33.5301 48.5925 32.8757 47.899C32.2213 47.2055 31.4258 46.6605 30.5428 46.3006L30.1828 46.1656L26.2495 44.8223C23.3312 43.8256 23.2428 39.7956 25.9828 38.6156L26.2495 38.5123L30.1828 37.169C31.0849 36.8607 31.9103 36.3626 32.6035 35.7083C33.2967 35.0539 33.8415 34.2585 34.2012 33.3756L34.3362 33.0156L35.6795 29.0807ZM38.8345 30.1573L37.4912 34.0907C37.0218 35.4662 36.2583 36.7228 35.2537 37.7731C34.2492 38.8235 33.0277 39.6422 31.6745 40.1723L31.2578 40.324L27.3245 41.6673L31.2578 43.0106C32.6333 43.48 33.89 44.2435 34.9403 45.2481C35.9906 46.2526 36.8094 47.4741 37.3395 48.8273L37.4912 49.244L38.8345 53.1773L40.1778 49.244C40.6472 47.8685 41.4107 46.6118 42.4153 45.5615C43.4198 44.5112 44.6412 43.6924 45.9945 43.1623L46.4111 43.0123L50.3445 41.6673L46.4111 40.324C45.0356 39.8546 43.779 39.0911 42.7287 38.0865C41.6783 37.082 40.8596 35.8606 40.3295 34.5073L40.1795 34.0907L38.8345 30.1573ZM52.1678 23.334C52.4796 23.334 52.7852 23.4214 53.0497 23.5864C53.3143 23.7514 53.5273 23.9873 53.6645 24.2673L53.7445 24.4623L54.3278 26.1723L56.0395 26.7557C56.352 26.8618 56.6259 27.0583 56.8265 27.3203C57.0272 27.5823 57.1455 27.898 57.1666 28.2274C57.1877 28.5567 57.1105 28.8849 56.9448 29.1703C56.7792 29.4557 56.5326 29.6856 56.2361 29.8307L56.0395 29.9107L54.3295 30.494L53.7462 32.2057C53.6398 32.518 53.4431 32.7918 53.181 32.9923C52.9189 33.1928 52.6032 33.311 52.2739 33.3319C51.9446 33.3527 51.6164 33.2754 51.3311 33.1096C51.0458 32.9438 50.8161 32.6971 50.6712 32.4007L50.5912 32.2057L50.0078 30.4957L48.2962 29.9123C47.9837 29.8062 47.7098 29.6096 47.5091 29.3476C47.3084 29.0856 47.1901 28.77 47.169 28.4406C47.148 28.1113 47.2251 27.7831 47.3908 27.4977C47.5564 27.2122 47.8031 26.9824 48.0995 26.8373L48.2962 26.7573L50.0061 26.174L50.5895 24.4623C50.7019 24.133 50.9145 23.8472 51.1975 23.6448C51.4806 23.4425 51.8199 23.3338 52.1678 23.334Z" fill="url(#paint1_linear_5116_7412)"/>
<defs>
<linearGradient id="paint0_linear_5116_7412" x1="9.86526" y1="-8.41443" x2="75.9626" y2="10.5757" gradientUnits="userSpaceOnUse">
<stop stop-color="#9E87FF"/>
<stop offset="0.5" stop-color="#6DBFFE"/>
<stop offset="1" stop-color="#FF8F8F"/>
</linearGradient>
<linearGradient id="paint1_linear_5116_7412" x1="25.6341" y1="16.3014" x2="57.8833" y2="25.5673" gradientUnits="userSpaceOnUse">
<stop stop-color="#9E87FF"/>
<stop offset="0.5" stop-color="#6DBFFE"/>
<stop offset="1" stop-color="#FF8F8F"/>
</linearGradient>
</defs>
</svg>
