<svg width="81" height="80" viewBox="0 0 81 80" fill="none" xmlns="http://www.w3.org/2000/svg">
<rect x="3.5" y="3" width="74" height="74" rx="37" stroke="url(#paint0_linear_5116_7007)" stroke-width="6"/>
<path d="M56.6841 34.5174C58.7674 32.4341 57.8174 30.0008 56.6841 28.8174L51.6841 23.8174C49.5841 21.7341 47.1674 22.6841 45.9841 23.8174L43.1508 26.6674H38.8341C35.6674 26.6674 33.8341 28.3341 32.9008 30.2508L25.5008 37.6508V44.3174L24.3174 45.4841C22.2341 47.5841 23.1841 50.0008 24.3174 51.1841L29.3174 56.1841C30.2174 57.0841 31.1841 57.4174 32.1008 57.4174C33.2841 57.4174 34.3674 56.8341 35.0174 56.1841L39.5174 51.6674H45.5008C48.3341 51.6674 49.7674 49.9008 50.2841 48.1674C52.1674 47.6674 53.2008 46.2341 53.6174 44.8341C56.2008 44.1674 57.1674 41.7174 57.1674 40.0008V35.0008H56.1841L56.6841 34.5174ZM53.8341 40.0008C53.8341 40.7508 53.5174 41.6674 52.1674 41.6674H50.5008V43.3341C50.5008 44.0841 50.1841 45.0008 48.8341 45.0008H47.1674V46.6674C47.1674 47.4174 46.8508 48.3341 45.5008 48.3341H38.1508L32.6841 53.8008C32.1674 54.2841 31.8674 54.0008 31.6841 53.8174L26.7008 48.8508C26.2174 48.3341 26.5008 48.0341 26.6841 47.8508L28.8341 45.6841V39.0174L32.1674 35.6841V38.3341C32.1674 40.3508 33.5008 43.3341 37.1674 43.3341C40.8341 43.3341 42.1674 40.3508 42.1674 38.3341H53.8341V40.0008ZM54.3174 32.1508L51.4841 35.0008H38.8341V38.3341C38.8341 39.0841 38.5174 40.0008 37.1674 40.0008C35.8174 40.0008 35.5008 39.0841 35.5008 38.3341V33.3341C35.5008 32.5674 35.7841 30.0008 38.8341 30.0008H44.5174L48.3174 26.2008C48.8341 25.7174 49.1341 26.0008 49.3174 26.1841L54.3008 31.1508C54.7841 31.6674 54.5008 31.9674 54.3174 32.1508Z" fill="url(#paint1_linear_5116_7007)"/>
<defs>
<linearGradient id="paint0_linear_5116_7007" x1="9.86526" y1="-8.41443" x2="75.9626" y2="10.5757" gradientUnits="userSpaceOnUse">
<stop stop-color="#9E87FF"/>
<stop offset="0.5" stop-color="#6DBFFE"/>
<stop offset="1" stop-color="#FF8F8F"/>
</linearGradient>
<linearGradient id="paint1_linear_5116_7007" x1="24.8096" y1="15.2025" x2="58.665" y2="24.9288" gradientUnits="userSpaceOnUse">
<stop stop-color="#9E87FF"/>
<stop offset="0.5" stop-color="#6DBFFE"/>
<stop offset="1" stop-color="#FF8F8F"/>
</linearGradient>
</defs>
</svg>
