<svg width="81" height="80" viewBox="0 0 81 80" fill="none" xmlns="http://www.w3.org/2000/svg">
<rect x="3.5" y="3" width="74" height="74" rx="37" stroke="url(#paint0_linear_5116_6756)" stroke-width="6"/>
<g clip-path="url(#clip0_5116_6756)">
<path d="M32.168 39.9993L37.168 44.9993L48.8346 33.3327M53.8346 44.9993C52.168 46.666 55.918 51.2493 53.8346 53.3327C51.7513 55.416 47.168 51.666 45.5013 53.3327C43.8346 54.9993 43.0013 58.3327 40.5013 58.3327C38.0013 58.3327 37.168 54.9993 35.5013 53.3327C33.8346 51.666 29.2513 55.416 27.168 53.3327C25.0846 51.2493 28.8346 46.666 27.168 44.9993C25.5013 43.3327 22.168 42.4993 22.168 39.9993C22.168 37.4993 25.5013 36.666 27.168 34.9993C28.8346 33.3327 25.0846 28.7493 27.168 26.666C29.2513 24.5827 33.8346 28.3327 35.5013 26.666C37.168 24.9993 38.0013 21.666 40.5013 21.666C43.0013 21.666 43.8346 24.9993 45.5013 26.666C47.168 28.3327 51.7513 24.5827 53.8346 26.666C55.918 28.7493 52.168 33.3327 53.8346 34.9993C55.5013 36.666 58.8346 37.4993 58.8346 39.9993C58.8346 42.4993 55.5013 43.3327 53.8346 44.9993Z" stroke="url(#paint1_linear_5116_6756)" stroke-width="3.33333"/>
</g>
<defs>
<linearGradient id="paint0_linear_5116_6756" x1="9.86526" y1="-8.41443" x2="75.9626" y2="10.5757" gradientUnits="userSpaceOnUse">
<stop stop-color="#9E87FF"/>
<stop offset="0.5" stop-color="#6DBFFE"/>
<stop offset="1" stop-color="#FF8F8F"/>
</linearGradient>
<linearGradient id="paint1_linear_5116_6756" x1="22.168" y1="39.9993" x2="58.8346" y2="39.9993" gradientUnits="userSpaceOnUse">
<stop stop-color="#5254CB"/>
<stop offset="1" stop-color="#FF942F"/>
</linearGradient>
<clipPath id="clip0_5116_6756">
<rect width="40" height="40" fill="white" transform="translate(20.5 20)"/>
</clipPath>
</defs>
</svg>
