<svg width="80" height="80" viewBox="0 0 80 80" fill="none" xmlns="http://www.w3.org/2000/svg">
<rect x="3" y="3" width="74" height="74" rx="37" stroke="url(#paint0_linear_5116_6184)" stroke-width="6"/>
<path d="M50.7225 45.9956C50.5894 42.6175 50.23 40.3169 49.7694 38.76C50.1175 37.6281 50.2238 36.4513 50.2544 35.8313C50.2606 35.7762 50.2675 35.7212 50.2675 35.6619C50.2675 35.6444 50.2644 35.6287 50.2631 35.6119L50.2669 35.515C50.2707 35.3543 50.2427 35.1944 50.1844 35.0445C50.1262 34.8947 50.0389 34.7578 49.9275 34.6419C49.7756 34.486 49.5839 34.3749 49.3731 34.3206C48.6788 33.9525 47.6538 33.785 46.5656 33.6462C45.7757 33.5493 44.9831 33.4764 44.1887 33.4275C45.7013 32.595 47.2394 32.3519 48.5094 32.3519C50.495 32.3519 52.0081 30.3794 48.5094 30.3794C46.5338 30.3794 44.6369 31.9756 43.3488 33.38C43.0836 33.3668 42.8184 33.3553 42.5531 33.3456C44.4712 31.415 47.1038 29.6394 46.24 29.465C44.2969 29.0712 42.7337 31.4438 41.8194 33.3219C41.6144 33.3169 41.4073 33.3129 41.1981 33.31C43.3587 29.5 46.7319 26.7569 45.9612 26.0725C44.2606 24.5631 42.05 29.9269 40.87 33.3044C40.6904 33.3024 40.5108 33.3013 40.3312 33.3012C41.2469 27.8675 43.4762 21.25 42.1631 21.25C40.585 21.25 40.1588 29.0675 40.0425 33.2994H40C39.8292 33.2998 39.6592 33.3008 39.49 33.3025C38.8931 30.8519 37.8294 27.3731 36.5963 27.3806C34.915 27.3925 37.6925 30.1631 39.2006 33.3044C39.0015 33.3073 38.804 33.3106 38.6081 33.3144C36.785 30.3856 33.0388 24.91 31.6419 26.9031C31.0188 27.7919 35.3656 29.8175 38.3731 33.3187C38.104 33.325 37.8377 33.3327 37.5744 33.3419C36.2875 31.9475 34.4081 30.38 32.4513 30.38C28.9525 30.38 30.465 32.3525 32.4513 32.3525C33.6963 32.3525 35.2 32.5831 36.6856 33.3787C35.4838 33.4375 34.3763 33.5269 33.435 33.6469C32.3475 33.7856 31.3237 33.9525 30.6294 34.3206C30.3771 34.3878 30.1534 34.535 29.9919 34.7401C29.8304 34.9452 29.7398 35.1971 29.7338 35.4581C29.7225 35.9169 29.7287 37.4844 30.1894 38.9131C29.7494 40.4662 29.4081 42.725 29.2787 45.9956C25.0787 46.4662 21.25 47.3306 21.25 48.9212V52.38C21.25 53.1444 22.1356 53.74 23.5194 54.2062V55.5244C23.5194 58.7131 39.3275 58.75 40 58.75C40.6725 58.75 56.4806 58.7131 56.4806 55.525V54.2062C57.8644 53.74 58.75 53.1444 58.75 52.3806V48.9219C58.75 47.3306 54.9212 46.4662 50.7225 45.9956ZM32.5231 37.5475C32.8185 37.5954 33.1221 37.639 33.4338 37.6781C35.195 37.9013 37.5275 38.025 40 38.025C42.4725 38.025 44.805 37.9019 46.5662 37.6781C46.8779 37.639 47.1815 37.5954 47.4769 37.5475C47.7006 38.1444 47.8856 38.8775 48.0387 39.685C47.8981 39.8794 47.745 40.0506 47.5644 40.1662C46.4044 40.9062 43.4088 41.2519 40.3369 41.2519C37.1131 41.2519 33.805 40.8719 32.435 40.1662C32.2481 40.07 32.0919 39.9206 31.9481 39.7537C32.1031 38.9188 32.2931 38.1619 32.5231 37.5475ZM33.7219 36.0144C35.1744 36.1512 37.4425 36.2388 40 36.2388C42.5575 36.2388 44.8256 36.1506 46.2781 36.0144C46.4919 36.0681 46.6869 36.2063 46.865 36.415C45.2 36.6594 42.7456 36.815 40 36.815C37.2544 36.815 34.8 36.6594 33.135 36.4144C33.3131 36.2063 33.5081 36.0681 33.7219 36.0144ZM40.3369 42.4613C41.0231 42.4613 42.0938 42.4419 43.2494 42.3512C43.165 42.9363 43.0356 43.4819 42.8369 43.7325C42.4019 44.28 41.2787 44.5356 40.1262 44.5356C38.9169 44.5356 37.6769 44.2537 37.1631 43.7325C36.9288 43.4944 36.7913 42.9169 36.71 42.3006C37.9319 42.4125 39.1963 42.4613 40.3369 42.4613ZM40.1262 45.7456C40.5131 45.7456 41.0231 45.7175 41.5519 45.6213C41.6988 46.2575 41.9237 46.865 42.2688 47.1919C42.7875 47.6831 44.2094 48.2825 44.5381 48.9219C44.6831 49.2044 42.5056 49.4988 39.9994 49.4988C37.4931 49.4988 35.3156 49.2044 35.4606 48.9219C35.7887 48.2831 37.2113 47.6838 37.73 47.1919C38.0825 46.8581 38.31 46.2319 38.4563 45.5825C39.17 45.7231 39.8244 45.7456 40.1262 45.7456ZM36.2262 46.7688C35.9631 46.9306 35.6981 47.0944 35.4488 47.2706C33.9381 47.3237 32.5337 47.4031 31.2638 47.5031C31.2679 47.3435 31.2727 47.1775 31.2781 47.005C32.7781 46.8713 34.4688 46.7694 36.3244 46.7088L36.2262 46.7688ZM44.5506 47.2706C44.2971 47.095 44.038 46.9277 43.7737 46.7688L43.6756 46.7088C45.3601 46.7606 47.0429 46.8593 48.7219 47.005C48.7281 47.1775 48.7329 47.3435 48.7362 47.5031C47.3429 47.3956 45.9473 47.3181 44.5506 47.2706ZM42.7419 45.4794C42.7252 45.4114 42.7094 45.3433 42.6944 45.275C43.1063 45.0906 43.4844 44.8444 43.7631 44.4937C44.15 44.0069 44.3562 43.1238 44.4681 42.2294C45.9156 42.0506 47.3406 41.7375 48.1981 41.1912C48.2244 41.175 48.2475 41.1519 48.2731 41.1344C48.4831 42.6869 48.6037 44.3581 48.6737 45.7975C46.6997 45.6378 44.7217 45.5317 42.7419 45.4794ZM49.0769 35.6625C49.0769 35.8231 48.8181 35.9756 48.3531 36.1144C48.1898 35.9683 48.0022 35.8519 47.7987 35.7706C47.89 35.735 47.9425 35.7 47.9425 35.6625C47.9425 35.3944 45.4325 35.1713 42.0331 35.1056C42.2185 34.9106 42.4062 34.7281 42.5962 34.5581C46.3438 34.7 49.0769 35.1406 49.0769 35.6625ZM42.3656 34.55C42.1973 34.7688 42.0598 34.9533 41.9531 35.1038C41.6844 35.0988 41.4104 35.0948 41.1313 35.0919C41.24 34.9052 41.3663 34.7167 41.51 34.5263C41.8004 34.5329 42.0856 34.5408 42.3656 34.55ZM41.2875 34.5219C41.1969 34.745 41.1231 34.9381 41.0669 35.0912L40.3294 35.0863C40.4085 34.8933 40.4915 34.7021 40.5781 34.5125C40.8177 34.515 41.0542 34.5181 41.2875 34.5219ZM40.4625 34.5125C40.3931 34.7231 40.3306 34.9181 40.2769 35.0869L40.0794 35.0863C40.1002 34.8971 40.1233 34.7052 40.1488 34.5106C40.2533 34.5106 40.3579 34.5112 40.4625 34.5125ZM40 34.5094H40.0156C40.0115 34.7227 40.0085 34.9148 40.0069 35.0856H39.9994L39.8869 35.0863C39.8478 34.8941 39.8076 34.7023 39.7663 34.5106L40 34.5094ZM39.2969 34.5144C39.4135 34.6815 39.5256 34.8515 39.6331 35.0244C39.6331 35.0244 39.5244 34.8331 39.3356 34.5138L39.7013 34.5113C39.7658 34.7029 39.8229 34.8946 39.8725 35.0863C39.5758 35.0867 39.284 35.0883 38.9969 35.0912C38.8598 34.8998 38.7187 34.7112 38.5737 34.5256C38.8121 34.5198 39.0531 34.516 39.2969 34.5144ZM38.33 34.53C38.5267 34.7033 38.7212 34.8904 38.9137 35.0912C35.0425 35.1306 32.0569 35.3694 32.0569 35.6619C32.0569 35.6994 32.1094 35.7344 32.2006 35.77C31.9972 35.8513 31.8095 35.9677 31.6463 36.1137C31.1813 35.975 30.9225 35.8225 30.9225 35.6619C30.9231 35.0975 34.115 34.6287 38.33 34.53ZM31.7275 41.1375C31.7844 41.1725 31.8369 41.2131 31.8969 41.2444C32.7331 41.6756 34.0375 41.9725 35.4906 42.1656C35.6019 43.1656 35.84 44.0994 36.3219 44.5887C36.5956 44.8656 36.9406 45.0756 37.3119 45.2362C37.294 45.3208 37.2756 45.4019 37.2569 45.4794C35.6488 45.5244 33.5144 45.6156 31.3269 45.7975C31.3962 44.3594 31.5169 42.6894 31.7275 41.1375ZM29.2413 47.2194C29.2381 47.3769 29.2344 47.5331 29.2319 47.6944C26.4275 48.0075 24.6819 48.4413 24.6819 48.9219C24.6819 49.7844 30.2856 50.5 37.6087 50.63C38.2581 50.6781 39.0419 50.7075 40 50.7075C40.9581 50.7075 41.7419 50.6781 42.3906 50.63C49.7144 50.5006 55.3181 49.7838 55.3181 48.9219C55.3181 48.4413 53.5725 48.0075 50.7681 47.6944C50.7656 47.5331 50.7619 47.3769 50.7588 47.22C54.8462 47.7112 57.1825 48.4163 57.5356 48.9156C57.5244 48.9344 57.505 48.9544 57.4881 48.9738C57.4544 49.0106 57.4244 49.0462 57.3706 49.085C57.3698 49.0863 57.3685 49.0871 57.3669 49.0875C56.175 49.9369 50.1194 51.1987 40 51.1987C29.1994 51.1987 23.0275 49.7612 22.4581 48.9212C22.7969 48.4219 25.1369 47.7131 29.2413 47.2194ZM40 57.54C30.055 57.54 25.0556 56.1694 24.71 55.5244V54.5481C29.9744 55.8462 39.4494 55.8669 40 55.8669C40.5519 55.8669 50.0344 55.8456 55.2975 54.5462L55.3006 55.4688C54.9444 56.1694 49.945 57.54 40 57.54ZM40 54.6581C29.0119 54.6581 22.815 53.17 22.4406 52.38V50.3044C22.574 50.3731 22.7173 50.4392 22.8706 50.5025C22.9756 50.5469 23.09 50.5894 23.2025 50.6312C23.2413 50.645 23.2775 50.66 23.3169 50.6744C28.0613 52.3819 39.3962 52.4075 40.0006 52.4075C40.605 52.4075 51.9206 52.3819 56.6725 50.6781C56.7356 50.6556 56.7938 50.6325 56.855 50.6094C56.9463 50.5744 57.04 50.5406 57.1263 50.5044C57.2812 50.4398 57.4269 50.3725 57.5631 50.3025L57.5681 52.3363C57.185 53.17 50.9881 54.6581 40 54.6581Z" fill="url(#paint1_linear_5116_6184)"/>
<path d="M39.8789 31.1978C39.8983 31.5128 39.9039 31.6997 39.9039 31.6997C39.904 31.5321 39.8956 31.3646 39.8789 31.1978ZM37.2508 23.6816C35.1208 23.2147 39.5283 27.4928 39.8789 31.1978C39.7776 29.5122 39.2926 24.1285 37.2508 23.6816Z" fill="url(#paint2_linear_5116_6184)"/>
<defs>
<linearGradient id="paint0_linear_5116_6184" x1="9.36526" y1="-8.41443" x2="75.4626" y2="10.5757" gradientUnits="userSpaceOnUse">
<stop stop-color="#9E87FF"/>
<stop offset="0.5" stop-color="#6DBFFE"/>
<stop offset="1" stop-color="#FF8F8F"/>
</linearGradient>
<linearGradient id="paint1_linear_5116_6184" x1="23.1058" y1="13.3009" x2="59.5566" y2="23.7733" gradientUnits="userSpaceOnUse">
<stop stop-color="#9E87FF"/>
<stop offset="0.5" stop-color="#6DBFFE"/>
<stop offset="1" stop-color="#FF8F8F"/>
</linearGradient>
<linearGradient id="paint2_linear_5116_6184" x1="36.8318" y1="21.9394" x2="40.1881" y2="22.3264" gradientUnits="userSpaceOnUse">
<stop stop-color="#9E87FF"/>
<stop offset="0.5" stop-color="#6DBFFE"/>
<stop offset="1" stop-color="#FF8F8F"/>
</linearGradient>
</defs>
</svg>
