<svg width="42" height="43" viewBox="0 0 42 43" fill="none" xmlns="http://www.w3.org/2000/svg">
<path d="M21.7499 9.22811H20.2488C19.886 9.22811 19.5938 8.93438 19.5938 8.57304C19.5938 8.21184 19.8875 7.91797 20.2488 7.91797H21.7499C22.1128 7.91797 22.405 8.2117 22.405 8.57304C22.405 8.93438 22.1128 9.22811 21.7499 9.22811Z" fill="#B15252"/>
<path d="M39.1792 37.5609H2.82241C1.26668 37.5609 0 36.2959 0 34.7401V33.4012C0 33.0383 0.293733 32.7461 0.655071 32.7461H19.519C19.8818 32.7461 20.1741 33.0398 20.1741 33.4012C20.1741 33.7624 19.8803 34.0562 19.519 34.0562H1.31166V34.7385C1.31166 35.5717 1.98922 36.2492 2.82241 36.2492H39.1776C40.0108 36.2492 40.6883 35.5717 40.6883 34.7385V34.0562H22.481C22.1182 34.0562 21.8259 33.7625 21.8259 33.4012C21.8259 33.04 22.1197 32.7461 22.481 32.7461H41.3449C41.7078 32.7461 42 33.0398 42 33.4012V34.7401C42 36.2959 40.7348 37.5609 39.1792 37.5609Z" fill="#B15252"/>
<path d="M19.5181 34.0593H2.85038C2.48753 34.0593 2.19531 33.7656 2.19531 33.4042V8.25825C2.19531 6.70253 3.46034 5.4375 5.01772 5.4375H36.9804C38.5362 5.4375 39.8012 6.70253 39.8012 8.25825V29.8628C39.8012 30.2256 39.5074 30.5178 39.1461 30.5178C38.7849 30.5178 38.491 30.2241 38.491 29.8628V8.25825C38.491 7.42506 37.8135 6.7475 36.9803 6.7475H5.01772C4.18453 6.7475 3.50697 7.42506 3.50697 8.25825V32.7477H19.518C19.8808 32.7477 20.1731 33.0414 20.1731 33.4027C20.1731 33.7641 19.8793 34.0593 19.5181 34.0593Z" fill="#B15252"/>
<path d="M39.1509 34.0612H22.4832C22.1203 34.0612 21.8281 33.7675 21.8281 33.4061C21.8281 33.0449 22.1219 32.7511 22.4832 32.7511H38.4942V29.866C38.4942 29.5032 38.7879 29.2109 39.1493 29.2109C39.5106 29.2109 39.8044 29.5047 39.8044 29.866V33.406C39.8059 33.7673 39.5121 34.0612 39.1509 34.0612Z" fill="#B15252"/>
<path d="M21.004 35.538C19.8256 35.538 18.8672 34.5795 18.8672 33.4012C18.8672 33.0383 19.1609 32.7461 19.5223 32.7461C19.8836 32.7461 20.1773 33.0398 20.1773 33.4012C20.1773 33.8555 20.5465 34.2264 21.0025 34.2264C21.4568 34.2264 21.8277 33.8571 21.8277 33.4012C21.8277 33.0383 22.1214 32.7461 22.4828 32.7461C22.844 32.7461 23.1378 33.0398 23.1378 33.4012C23.1394 34.5797 22.1824 35.538 21.004 35.538Z" fill="#B15252"/>
<path d="M20.9992 29.5913C17.0033 29.5913 13.8566 27.4545 13.1326 26.3644C13.0603 26.2568 13.0234 26.13 13.0234 26.0015V20.6121C13.0234 20.2492 13.3172 19.957 13.6785 19.957C14.0398 19.957 14.3336 20.2508 14.3336 20.6121V25.78C15.0416 26.5858 17.7259 28.2797 20.9978 28.2797C24.2697 28.2797 26.9557 26.586 27.6621 25.78V20.6121C27.6621 20.2492 27.9558 19.957 28.3172 19.957C28.6784 19.957 28.9722 20.2508 28.9722 20.6121V26.0015C28.9722 26.13 28.9337 26.2568 28.8631 26.3644C28.1418 27.4545 24.9952 29.5913 20.9992 29.5913Z" fill="#B15252"/>
<path d="M20.9987 24.9791C20.8976 24.9791 20.7948 24.955 20.7017 24.9085L10.0784 19.5254C9.85851 19.4129 9.71875 19.1882 9.71875 18.941C9.71875 18.6937 9.85837 18.4673 10.0784 18.3565L20.7017 12.9734C20.8879 12.8786 21.1078 12.8786 21.2941 12.9734L31.9173 18.3565C32.1373 18.469 32.277 18.6937 32.277 18.941C32.277 19.1882 32.1374 19.4146 31.9173 19.5254L21.2941 24.9085C21.201 24.9551 21.0998 24.9791 20.9987 24.9791ZM11.8252 18.9411L20.9987 23.5888L30.1722 18.9411L20.9987 14.2934L11.8252 18.9411Z" fill="#B15252"/>
<path d="M31.6238 25.0104C31.261 25.0104 30.9688 24.7167 30.9688 24.3553V18.9402C30.9688 18.5774 31.2625 18.2852 31.6238 18.2852C31.985 18.2852 32.2789 18.5789 32.2789 18.9402V24.3553C32.2789 24.7167 31.9867 25.0104 31.6238 25.0104Z" fill="#B15252"/>
<path d="M32.7977 26.1844C32.6291 26.1844 32.4622 26.1202 32.3338 25.9918L31.6242 25.2822L30.9146 25.9918C30.6594 26.2487 30.2435 26.2487 29.9883 25.9918C29.7331 25.7365 29.7331 25.3207 29.9883 25.0654L31.1619 23.8919C31.4171 23.635 31.8329 23.635 32.0882 23.8919L33.2617 25.0654C33.517 25.3207 33.517 25.7365 33.2617 25.9918C33.1333 26.1202 32.9663 26.1844 32.7977 26.1844Z" fill="#B15252"/>
</svg>
