<svg width="42" height="43" viewBox="0 0 42 43" fill="none" xmlns="http://www.w3.org/2000/svg">
<path d="M11.4828 8.375C10.6202 8.38963 10.6204 9.67296 11.4829 9.6875C12.3454 9.67285 12.3453 8.38951 11.4828 8.375Z" fill="#B15252"/>
<path d="M8.85783 8.375C7.99524 8.38963 7.99536 9.67296 8.85786 9.6875C9.72043 9.67285 9.72029 8.38951 8.85783 8.375Z" fill="#B15252"/>
<path d="M6.23283 8.375C5.37024 8.38963 5.37036 9.67296 6.23286 9.6875C7.09543 9.67285 7.09529 8.38951 6.23283 8.375Z" fill="#B15252"/>
<path d="M36.75 14.9375H34.4531V12.9688C34.4531 11.521 33.2758 10.3438 31.8281 10.3438H29.5312V8.375C29.5312 6.92728 28.354 5.75 26.9062 5.75H5.25C3.80228 5.75 2.625 6.92728 2.625 8.375V25.4375C2.625 26.8852 3.80228 28.0625 5.25 28.0625H7.54688V30.0312C7.54688 31.479 8.72415 32.6562 10.1719 32.6562H12.4688V34.625C12.4688 36.0727 13.646 37.25 15.0938 37.25H36.75C38.1977 37.25 39.375 36.0727 39.375 34.625V17.5625C39.375 16.1148 38.1977 14.9375 36.75 14.9375ZM3.9375 25.4375V12.3119H13.2378C13.764 12.3119 14.2581 12.1074 14.6298 11.7357C14.8804 11.5293 15.2571 10.9568 15.6372 11.0007C15.6372 11.0006 25.5938 11.0006 25.5938 11.0006C25.9565 11.0006 26.25 10.7071 26.25 10.3444C26.25 9.98166 25.9565 9.68814 25.5938 9.68814H15.6372C15.1111 9.68814 14.6169 9.89258 14.2452 10.2643C13.9961 10.4791 13.6161 11.0366 13.2378 10.9994H3.93751V8.375C3.93751 7.65146 4.52646 7.0625 5.25001 7.0625H26.9063C27.6298 7.0625 28.2188 7.65146 28.2188 8.375V25.4375C28.2188 26.161 27.6298 26.75 26.9063 26.75H5.25C4.52646 26.75 3.9375 26.161 3.9375 25.4375ZM38.0625 34.625C38.0625 35.3485 37.4735 35.9375 36.75 35.9375H15.0938C14.3702 35.9375 13.7812 35.3485 13.7812 34.625V32C13.7812 31.6373 13.4877 31.3438 13.125 31.3438H10.1719C9.44833 31.3438 8.85938 30.7548 8.85938 30.0312V28.0625H26.9062C28.354 28.0625 29.5312 26.8852 29.5312 25.4375V11.6562H31.8281C32.5517 11.6562 33.1406 12.2452 33.1406 12.9688V30.0312C33.1406 30.7548 32.5517 31.3438 31.8281 31.3438H16.4062C15.5502 31.3539 15.5389 32.643 16.4063 32.6562C16.4062 32.6562 31.8281 32.6562 31.8281 32.6562C33.2758 32.6562 34.4531 31.479 34.4531 30.0312V16.25H36.75C37.4735 16.25 38.0625 16.839 38.0625 17.5625V34.625Z" fill="#B15252"/>
</svg>
