<svg width="43" height="43" viewBox="0 0 43 43" fill="none" xmlns="http://www.w3.org/2000/svg">
<path d="M21.5 13.0209H24.94C25.3095 13.0209 25.6119 12.7186 25.6119 12.3491C25.6119 11.9795 25.3095 11.6772 24.94 11.6772H22.1719V7.55859C22.1719 7.18906 21.8695 6.88672 21.5 6.88672C21.1305 6.88672 20.8281 7.18906 20.8281 7.55859V12.3491C20.8281 12.7186 21.1305 13.0209 21.5 13.0209Z" fill="#B15252"/>
<path d="M21.5 5.13125C21.8695 5.13125 22.1719 4.82891 22.1719 4.45937V4.08984C22.1719 3.72031 21.8695 3.41797 21.5 3.41797C21.1305 3.41797 20.8281 3.72031 20.8281 4.08984V4.45937C20.8281 4.82891 21.1305 5.13125 21.5 5.13125Z" fill="#B15252"/>
<path d="M29.4141 13.0195H29.7836C30.1531 13.0195 30.4555 12.7172 30.4555 12.3477C30.4555 11.9781 30.1531 11.6758 29.7836 11.6758H29.4141C29.0445 11.6758 28.7422 11.9781 28.7422 12.3477C28.7422 12.7172 29.0445 13.0195 29.4141 13.0195Z" fill="#B15252"/>
<path d="M21.5 21.2719C21.8695 21.2719 22.1719 20.9695 22.1719 20.6V20.2305C22.1719 19.8609 21.8695 19.5586 21.5 19.5586C21.1305 19.5586 20.8281 19.8609 20.8281 20.2305V20.6C20.8281 20.9695 21.1305 21.2719 21.5 21.2719Z" fill="#B15252"/>
<path d="M13.5883 11.6758H13.2188C12.8492 11.6758 12.5469 11.9781 12.5469 12.3477C12.5469 12.7172 12.8492 13.0195 13.2188 13.0195H13.5883C13.9578 13.0195 14.2602 12.7172 14.2602 12.3477C14.2602 11.9781 13.9578 11.6758 13.5883 11.6758Z" fill="#B15252"/>
<path d="M39.6036 12.2344C39.2341 12.2344 38.9317 12.5367 38.9317 12.9062V35.9919L36.6541 36.0792C27.0059 36.4555 23.0822 39.6939 23.015 39.7477C22.1483 40.4867 20.8381 40.4867 19.9445 39.7275C19.7698 39.5931 15.5908 36.442 6.33234 36.0792L4.05469 35.9919V12.9062C4.05469 12.5367 3.75234 12.2344 3.38281 12.2344C3.01328 12.2344 2.71094 12.5367 2.71094 12.9062V36.6369C2.71094 36.9997 2.99313 37.2953 3.35594 37.3088L6.27859 37.423C15.1138 37.7656 18.9636 40.6681 19.098 40.7756C19.79 41.3669 20.6366 41.6558 21.4831 41.6558C22.3297 41.6558 23.1897 41.3602 23.8952 40.7622C23.9355 40.7353 27.7383 37.7723 36.7011 37.423L39.6237 37.3088C39.9866 37.2953 40.2687 36.9997 40.2687 36.6369V12.9062C40.2687 12.5367 39.9664 12.2344 39.5969 12.2344H39.6036Z" fill="#B15252"/>
<path d="M7.21422 33.9152C16.8489 34.2914 21.0212 37.7113 21.0616 37.7448C21.1892 37.8523 21.3438 37.9061 21.4983 37.9061C21.6528 37.9061 21.8073 37.8523 21.935 37.7448C21.9753 37.7113 26.1477 34.2914 35.7823 33.9152C36.1452 33.9017 36.4273 33.6061 36.4273 33.2433V11.5216C36.4273 11.3402 36.3534 11.1655 36.2191 11.0378C36.0847 10.9102 35.91 10.8497 35.7286 10.8497C34.5797 10.8967 33.4711 10.9975 32.3961 11.1252C31.7914 5.62922 27.1353 1.33594 21.4983 1.33594C15.8612 1.33594 11.2052 5.62922 10.6005 11.1252C9.52547 10.9975 8.41016 10.8967 7.26125 10.8497C7.07984 10.8497 6.89844 10.9102 6.77078 11.0378C6.63641 11.1655 6.5625 11.3402 6.5625 11.5216V33.2433C6.5625 33.6061 6.84469 33.9017 7.2075 33.9152H7.21422ZM35.0836 32.605C28.0894 32.9812 23.9842 34.8827 22.1702 35.9644V23.3197C27.8677 22.9703 32.3961 18.2605 32.4633 12.4756C33.3098 12.3681 34.1833 12.2875 35.0836 12.2337V32.605ZM21.4983 2.68641C26.8061 2.68641 31.1195 7.02 31.1195 12.348C31.1195 17.6759 26.7994 22.0095 21.4983 22.0095C16.1972 22.0095 11.877 17.6759 11.877 12.348C11.877 7.02 16.1972 2.68641 21.4983 2.68641ZM7.91297 12.227C8.81328 12.2808 9.69344 12.3681 10.54 12.4689C10.6072 18.2537 15.1356 22.9636 20.8264 23.313V35.9577C19.0123 34.8692 14.9072 32.9745 7.91297 32.5983V12.227Z" fill="#B15252"/>
</svg>
