<svg width="42" height="43" viewBox="0 0 42 43" fill="none" xmlns="http://www.w3.org/2000/svg">
<path d="M38.5 30.25V9.25C38.4988 8.32211 38.1297 7.43257 37.4735 6.77646C36.8174 6.12034 35.9279 5.7512 35 5.75H3.5C2.57211 5.7512 1.68257 6.12034 1.02646 6.77646C0.370339 7.43257 0.00120391 8.32211 0 9.25L0 30.25C0.00120391 31.1779 0.370339 32.0674 1.02646 32.7235C1.68257 33.3797 2.57211 33.7488 3.5 33.75H35C35.9279 33.7488 36.8174 33.3797 37.4735 32.7235C38.1297 32.0674 38.4988 31.1779 38.5 30.25ZM1.75 30.25V9.25C1.75031 8.78597 1.93478 8.34103 2.26291 8.01291C2.59103 7.68479 3.03597 7.50031 3.5 7.5H35C35.464 7.50031 35.909 7.68479 36.2371 8.01291C36.5652 8.34103 36.7497 8.78597 36.75 9.25V30.25C36.7497 30.714 36.5652 31.159 36.2371 31.4871C35.909 31.8152 35.464 31.9997 35 32H3.5C3.03597 31.9997 2.59103 31.8152 2.26291 31.4871C1.93478 31.159 1.75031 30.714 1.75 30.25Z" fill="#B15252"/>
<path d="M41.125 11C41.0101 10.9999 40.8963 11.0225 40.7901 11.0665C40.6839 11.1104 40.5874 11.1749 40.5061 11.2561C40.4249 11.3374 40.3604 11.4339 40.3165 11.5401C40.2725 11.6463 40.2499 11.7601 40.25 11.875V33.75C40.2497 34.214 40.0652 34.659 39.7371 34.9871C39.409 35.3152 38.964 35.4997 38.5 35.5H6.125C5.89294 35.5 5.67038 35.5922 5.50628 35.7563C5.34219 35.9204 5.25 36.1429 5.25 36.375C5.25 36.6071 5.34219 36.8296 5.50628 36.9937C5.67038 37.1578 5.89294 37.25 6.125 37.25H38.5C39.4279 37.2488 40.3174 36.8797 40.9735 36.2235C41.6297 35.5674 41.9988 34.6779 42 33.75V11.875C42.0001 11.7601 41.9775 11.6463 41.9335 11.5401C41.8896 11.4339 41.8251 11.3374 41.7439 11.2561C41.6626 11.1749 41.5661 11.1104 41.4599 11.0665C41.3537 11.0225 41.2399 10.9999 41.125 11Z" fill="#B15252"/>
<path d="M27.554 18.9874L13.554 11.1124C13.4208 11.0375 13.2705 10.9988 13.1177 11C12.965 11.0013 12.8153 11.0425 12.6834 11.1196C12.5516 11.1967 12.4422 11.3069 12.3662 11.4394C12.2901 11.5718 12.2501 11.7218 12.25 11.8746V27.6246C12.2502 27.7774 12.2903 27.9275 12.3665 28.06C12.4426 28.1926 12.5521 28.3028 12.6841 28.3799C12.8158 28.4571 12.9655 28.4983 13.1181 28.4995C13.2708 28.5007 13.421 28.4619 13.554 28.3868L27.554 20.5118C27.6893 20.4358 27.8019 20.3251 27.8803 20.1911C27.9587 20.0572 28 19.9048 28 19.7496C28 19.5944 27.9587 19.442 27.8803 19.308C27.8019 19.1741 27.6893 19.0634 27.554 18.9874ZM14 26.1292V13.37L25.3408 19.7496L14 26.1292Z" fill="#B15252"/>
</svg>
