<svg width="42" height="43" viewBox="0 0 42 43" fill="none" xmlns="http://www.w3.org/2000/svg">
<path d="M41.6328 32.6211V34.7305C41.6328 36.6263 40.0961 38.1631 38.2002 38.1631H29.7256V40.5596H31.585C32.0188 40.5598 32.3711 40.9118 32.3711 41.3457C32.3709 41.7795 32.0187 42.1316 31.585 42.1318H10.415C9.98127 42.1316 9.62906 41.7795 9.62891 41.3457C9.62891 40.9118 9.98118 40.5598 10.415 40.5596H12.2744V38.1631H3.7998C1.90395 38.1631 0.367209 36.6263 0.367188 34.7305V32.6211H41.6328ZM13.8477 40.5596H28.1523V38.1631H13.8477V40.5596ZM1.94043 34.7305C1.94045 35.7574 2.77292 36.5898 3.7998 36.5898H38.2002C39.2271 36.5898 40.0595 35.7574 40.0596 34.7305V34.1943H1.94043V34.7305Z" fill="#B15252" stroke="#B15252" stroke-width="0.25"/>
<path d="M29.7236 12.1133V18.8574L29.6191 18.875L21.0195 20.3086L20.999 20.3125L20.9785 20.3086L12.3779 18.876L12.2734 18.8584V12.1133H29.7236ZM13.8467 17.5254L20.998 18.7168L28.1504 17.5254V13.6865H13.8467V17.5254Z" fill="#B15252" stroke="#B15252" stroke-width="0.25"/>
<path d="M21.0029 6.16016C23.5365 6.16026 25.8273 7.46272 27.167 9.47949C27.5152 10.0023 27.1509 10.71 26.5166 10.71C26.2442 10.7099 26.0027 10.5646 25.8564 10.3447C24.8001 8.75763 22.9961 7.7335 21.0029 7.7334C19.0095 7.7334 17.204 8.75749 16.1484 10.3447V10.3457C16.0022 10.5645 15.7605 10.709 15.4883 10.709C14.8542 10.7088 14.4902 10.003 14.8379 9.47949C16.1776 7.46321 18.4691 6.16016 21.0029 6.16016Z" fill="#B15252" stroke="#B15252" stroke-width="0.25"/>
<path d="M26.1572 21.5391C26.8059 21.5343 27.1836 22.3053 26.7578 22.835C25.3903 24.5378 23.3029 25.5937 21.001 25.5938C18.6989 25.5938 16.61 24.5389 15.2432 22.835C14.7904 22.2705 15.2488 21.4294 15.9775 21.5508L16.1191 21.5879C16.2095 21.6218 16.2918 21.673 16.3633 21.7363L16.4619 21.8398L16.6699 22.0869C17.7448 23.2871 19.2988 24.0205 21.001 24.0205C22.8166 24.0204 24.4622 23.1858 25.5391 21.8398C25.6591 21.6901 25.8289 21.5834 26.0234 21.5508L26.1572 21.5391Z" fill="#B15252" stroke="#B15252" stroke-width="0.25"/>
<path d="M37.0039 0.867188V27.8398C37.0037 28.2735 36.6515 28.6257 36.2178 28.626C35.7839 28.626 35.4309 28.2737 35.4307 27.8398V2.44043H6.57324V27.8398C6.57324 28.2739 6.22113 28.6259 5.78711 28.626C5.35237 28.626 5.00025 28.2745 5 27.8398V0.867188H37.0039Z" fill="#B15252" stroke="#B15252" stroke-width="0.25"/>
<path d="M40.8486 11.3398C41.2827 11.3398 41.6347 11.6919 41.6348 12.126V27.8379C41.6345 28.2718 41.2826 28.624 40.8486 28.624C40.4147 28.624 40.0627 28.2718 40.0625 27.8379V12.126C40.0625 11.6919 40.4146 11.3399 40.8486 11.3398Z" fill="#B15252" stroke="#B15252" stroke-width="0.25"/>
<path d="M1.15332 11.3398C1.58738 11.3398 1.93943 11.6919 1.93945 12.126V27.8379C1.93945 28.272 1.5874 28.624 1.15332 28.624C0.719306 28.624 0.36742 28.2725 0.367188 27.8379V12.126L0.371094 12.0459C0.411245 11.6494 0.746305 11.3399 1.15332 11.3398Z" fill="#B15252" stroke="#B15252" stroke-width="0.25"/>
</svg>
