<svg width="43" height="43" viewBox="0 0 43 43" fill="none" xmlns="http://www.w3.org/2000/svg">
<path d="M34.3119 10.339C31.367 9.44624 28.0073 10.4654 25.8459 11.7166C24.5966 12.4263 23.1987 12.834 21.7638 12.9072C20.3282 12.8385 18.9293 12.4305 17.6818 11.7166C15.5208 10.4654 12.1607 9.44435 9.21582 10.339C4.48196 11.7739 2 25.823 2 30.4224C2 32.3827 2.92216 33.16 3.69614 33.4668C6.64155 34.6351 12.0178 30.7088 14.2408 28.3471C17.0764 25.334 21.6545 25.6431 21.698 25.6488C21.7419 25.6521 21.7858 25.6521 21.8296 25.6488C21.8741 25.6446 26.4362 25.3203 29.2869 28.3471C31.2316 30.4139 35.5919 33.6793 38.6254 33.6793C39.0373 33.6855 39.4466 33.6133 39.8316 33.4668C40.6055 33.16 41.5277 32.3827 41.5277 30.4224C41.5277 25.823 39.0467 11.7739 34.3119 10.339ZM39.2209 31.9254C37.5408 32.5882 33.0162 29.8899 30.4936 27.21C27.7276 24.2713 23.7644 23.9749 22.2813 23.9749C22.0346 23.9749 21.8552 23.9834 21.7638 23.9891C21.1134 23.9508 16.2603 23.7827 13.0341 27.2081C10.5115 29.8899 5.98875 32.592 4.30681 31.9254C4.14586 31.8615 3.65685 31.6674 3.65685 30.421C3.65685 25.0746 6.5142 12.8873 9.69583 11.9235C11.7054 11.3147 14.5139 11.7961 16.8515 13.1495C18.3513 14.0093 20.0365 14.4945 21.7638 14.564C23.4911 14.495 25.1762 14.0102 26.6762 13.151C29.0133 11.7975 31.8219 11.3156 33.8319 11.9249C37.0135 12.8887 39.8708 25.076 39.8708 30.4224C39.8708 31.6689 39.3818 31.8629 39.2209 31.9254Z" fill="#B15252"/>
<path d="M15.1982 17.2552H13.7719V15.8284C13.7719 15.6087 13.6846 15.398 13.5293 15.2426C13.3739 15.0873 13.1632 15 12.9435 15H10.5969C10.3772 15.0001 10.1666 15.0874 10.0112 15.2428C9.85591 15.3981 9.76859 15.6088 9.76847 15.8284V17.2543H8.34405C8.12438 17.2544 7.91374 17.3417 7.7584 17.497C7.60307 17.6524 7.51575 17.863 7.51562 18.0827V20.4283C7.51575 20.648 7.60307 20.8586 7.7584 21.014C7.91374 21.1693 8.12438 21.2566 8.34405 21.2567H9.76989V22.6826C9.77001 22.9022 9.85733 23.1129 10.0127 23.2682C10.168 23.4236 10.3786 23.5109 10.5983 23.511H12.9435C13.1632 23.511 13.3739 23.4237 13.5293 23.2684C13.6846 23.113 13.7719 22.9023 13.7719 22.6826V21.2577H15.1982C15.4179 21.2576 15.6285 21.1702 15.7838 21.0149C15.9392 20.8596 16.0265 20.6489 16.0266 20.4293V18.0836C16.0265 17.864 15.9392 17.6533 15.7838 17.498C15.6285 17.3427 15.4179 17.2553 15.1982 17.2552ZM14.3698 19.6008H12.9435C12.7238 19.6008 12.513 19.6881 12.3577 19.8435C12.2023 19.9988 12.115 20.2095 12.115 20.4293V21.8551H11.4267V20.4293C11.4268 20.3205 11.4054 20.2127 11.3638 20.1122C11.3222 20.0116 11.2612 19.9203 11.1842 19.8433C11.1073 19.7664 11.0159 19.7054 10.9154 19.6638C10.8149 19.6222 10.7071 19.6008 10.5983 19.6008H9.17247V18.9121H10.5969C10.7057 18.9121 10.8135 18.8907 10.914 18.8491C11.0145 18.8075 11.1059 18.7465 11.1828 18.6696C11.2598 18.5926 11.3208 18.5013 11.3624 18.4007C11.404 18.3002 11.4254 18.1924 11.4253 18.0836V16.6578H12.1136V18.0836C12.1136 18.3033 12.2009 18.5141 12.3563 18.6694C12.5116 18.8248 12.7223 18.9121 12.942 18.9121H14.3698V19.6008Z" fill="#B15252"/>
<path d="M31.4672 18.1469C31.7166 18.2111 31.9801 18.1915 32.2173 18.0912C32.4544 17.9909 32.652 17.8154 32.7796 17.5918C32.9072 17.3682 32.9578 17.1088 32.9235 16.8536C32.8892 16.5984 32.772 16.3616 32.5898 16.1796C32.4077 15.9975 32.1708 15.8805 31.9156 15.8463C31.6604 15.8122 31.4011 15.8629 31.1775 15.9906C30.9539 16.1183 30.7786 16.316 30.6784 16.5532C30.5783 16.7904 30.5588 17.054 30.6232 17.3033C30.6758 17.5064 30.7818 17.6918 30.9302 17.8401C31.0787 17.9884 31.2641 18.0943 31.4672 18.1469Z" fill="#B15252"/>
<path d="M32.0518 20.3767C31.8025 20.3127 31.5391 20.3324 31.3022 20.4328C31.0652 20.5331 30.8677 20.7086 30.7402 20.9321C30.6127 21.1556 30.5621 21.4149 30.5964 21.6699C30.6306 21.925 30.7476 22.1617 30.9296 22.3437C31.1115 22.5258 31.3482 22.643 31.6032 22.6773C31.8583 22.7117 32.1175 22.6613 32.3411 22.5339C32.5647 22.4065 32.7403 22.2091 32.8407 21.9722C32.9412 21.7353 32.9611 21.4719 32.8972 21.2226C32.8449 21.0189 32.7388 20.8329 32.5901 20.6841C32.4414 20.5354 32.2555 20.4292 32.0518 20.3767Z" fill="#B15252"/>
<path d="M29.8011 18.1226C29.5518 18.0588 29.2885 18.0786 29.0515 18.1791C28.8146 18.2796 28.6173 18.4552 28.4899 18.6788C28.3625 18.9023 28.3121 19.1616 28.3464 19.4167C28.3808 19.6717 28.498 19.9084 28.68 20.0903C28.862 20.2722 29.0988 20.3893 29.3539 20.4235C29.6089 20.4577 29.8682 20.4072 30.0917 20.2797C30.3152 20.1521 30.4906 19.9547 30.591 19.7177C30.6913 19.4807 30.7111 19.2174 30.6471 18.9681C30.5946 18.7644 30.4884 18.5785 30.3396 18.4298C30.1908 18.2811 30.0049 18.175 29.8011 18.1226Z" fill="#B15252"/>
<path d="M32.8885 18.9682C32.8244 19.2176 32.8441 19.4811 32.9445 19.7182C33.0448 19.9553 33.2203 20.1529 33.4439 20.2805C33.6675 20.4081 33.9269 20.4587 34.1821 20.4245C34.4373 20.3902 34.6742 20.2731 34.8563 20.0911C35.0384 19.9091 35.1556 19.6723 35.19 19.4171C35.2244 19.162 35.1739 18.9026 35.0464 18.6789C34.9189 18.4552 34.7215 18.2796 34.4844 18.1791C34.2474 18.0786 33.9839 18.0588 33.7344 18.1227C33.5307 18.1751 33.3447 18.2812 33.196 18.4299C33.0472 18.5786 32.941 18.7645 32.8885 18.9682Z" fill="#B15252"/>
</svg>
