<svg width="46" height="46" viewBox="0 0 46 46" fill="none" xmlns="http://www.w3.org/2000/svg">
<path d="M39.0557 0.75C40.4199 0.75 41.5195 1.87097 41.5195 3.22266V9.41406C41.5193 10.7656 40.4198 11.8867 39.0557 11.8867H10.2617L4.24707 15.5742L4.24609 15.5752C3.98258 15.7355 3.63725 15.7769 3.33203 15.6182V15.6172C2.86115 15.3877 2.68006 14.8232 2.90039 14.3594L2.90137 14.3584L4.09961 11.8867H3.22168C1.85769 11.8866 0.758052 10.7655 0.757812 9.41406V3.22266C0.757887 1.87105 1.85759 0.750133 3.22168 0.75H39.0557ZM3.21289 2.63965C2.89606 2.63984 2.63875 2.90427 2.63867 3.22266V9.41406C2.6389 9.73928 2.89448 9.99688 3.21289 9.99707H5.60059C6.32569 9.99707 6.77216 10.7732 6.4248 11.3965L6.42578 11.3975L5.99609 12.2871L9.49023 10.1387C9.64165 10.0455 9.80816 9.99715 9.98535 9.99707H39.0469C39.3638 9.99707 39.6218 9.73243 39.6221 9.41406V3.22266C39.622 2.89718 39.3655 2.63965 39.0469 2.63965H3.21289Z" fill="#B15252" stroke="#B15252" stroke-width="0.5"/>
<path d="M42.7822 15.5156C44.1371 15.5156 45.246 16.636 45.2461 17.9883V24.1797C45.246 24.7552 45.1181 25.2136 44.8818 25.5723C44.6453 25.9314 44.3137 26.1701 43.9414 26.3281C43.3317 26.5869 42.5857 26.6363 41.9014 26.6465L43.1025 29.123C43.5182 29.9782 42.5358 30.8371 41.7441 30.3291V30.3281L35.749 26.6523H6.94824C5.58425 26.6522 4.48461 25.5312 4.48438 24.1797V17.9883C4.48445 16.6367 5.58415 15.5158 6.94824 15.5156H42.7822ZM6.94824 17.4053C6.63136 17.4054 6.3741 17.6699 6.37402 17.9883V24.1797C6.37426 24.5049 6.62979 24.7626 6.94824 24.7627H36.0098C36.0475 24.7627 36.0857 24.7657 36.124 24.7705V24.6611L36.5059 24.8955L39.9746 27.0293C39.936 26.9522 39.8956 26.8743 39.8574 26.7959C39.7557 26.5871 39.6574 26.3755 39.584 26.1943C39.5474 26.1041 39.5153 26.0173 39.4922 25.9404C39.4707 25.8689 39.4502 25.7843 39.4502 25.707C39.4504 25.1871 39.8746 24.7627 40.3945 24.7627H42.7822C43.0991 24.7627 43.3572 24.4981 43.3574 24.1797V17.9883C43.3574 17.6628 43.1009 17.4053 42.7822 17.4053H6.94824Z" fill="#B15252" stroke="#B15252" stroke-width="0.5"/>
<path d="M39.0479 30.2656C40.4121 30.2656 41.5116 31.3866 41.5117 32.7383V38.9297C41.5115 40.2812 40.412 41.4023 39.0479 41.4023H10.248L4.24902 45.0791L4.25 45.0801C3.46639 45.5713 2.47419 44.7357 2.89355 43.873L4.0918 41.4023H3.21387C1.84988 41.4022 0.750239 40.2812 0.75 38.9297V32.7383C0.750074 31.3867 1.84978 30.2658 3.21387 30.2656H39.0479ZM3.21387 32.1465C2.89702 32.1466 2.63978 32.4111 2.63965 32.7295V38.9209C2.63982 39.2462 2.89538 39.5038 3.21387 39.5039H5.60156C6.32678 39.5039 6.77246 40.28 6.4248 40.9033L6.42578 40.9043L5.99609 41.7949L9.49121 39.6455C9.64262 39.5524 9.80914 39.504 9.98633 39.5039H39.0479C39.3648 39.5039 39.6229 39.2393 39.623 38.9209V32.7295C39.6229 32.4041 39.3665 32.1465 39.0479 32.1465H3.21387Z" fill="#B15252" stroke="#B15252" stroke-width="0.5"/>
</svg>
