<svg width="42" height="43" viewBox="0 0 42 43" fill="none" xmlns="http://www.w3.org/2000/svg">
<path d="M18.667 32.2383C19.1586 32.2384 19.6434 32.3532 20.083 32.5732C20.4293 32.7466 20.7397 32.9823 21 33.2666C21.2603 32.9823 21.5707 32.7466 21.917 32.5732C22.3566 32.3532 22.8414 32.2384 23.333 32.2383H36.167C36.2763 32.2383 36.3844 32.26 36.4854 32.3018C36.5865 32.3436 36.6784 32.405 36.7559 32.4824C36.8333 32.5598 36.8947 32.6518 36.9365 32.7529C36.9783 32.8539 37 32.962 37 33.0713V35.7383H39.667C39.8879 35.7384 40.0997 35.8262 40.2559 35.9824C40.4121 36.1386 40.4999 36.3504 40.5 36.5713C40.5 36.7923 40.4121 37.0049 40.2559 37.1611C40.0997 37.3172 39.8878 37.4052 39.667 37.4053H23.334L23.1855 37.4121C22.8422 37.4465 22.5196 37.5987 22.2734 37.8447C21.9922 38.126 21.8334 38.5075 21.833 38.9053C21.8329 39.1262 21.7451 39.3379 21.5889 39.4941C21.4326 39.6503 21.2209 39.7383 21 39.7383C20.7791 39.7383 20.5674 39.6503 20.4111 39.4941C20.2549 39.3379 20.1671 39.1262 20.167 38.9053C20.1666 38.5075 20.0078 38.126 19.7266 37.8447C19.4804 37.5987 19.1578 37.4465 18.8145 37.4121L18.666 37.4053H2.33301C2.11219 37.4052 1.90033 37.3172 1.74414 37.1611C1.58786 37.0049 1.5 36.7923 1.5 36.5713C1.50009 36.3504 1.58794 36.1386 1.74414 35.9824C1.90034 35.8262 2.11211 35.7384 2.33301 35.7383H5V33.0713C5.00002 32.962 5.02169 32.8539 5.06348 32.7529C5.10535 32.6518 5.16675 32.5598 5.24414 32.4824C5.32153 32.405 5.41352 32.3436 5.51465 32.3018C5.61561 32.26 5.72374 32.2383 5.83301 32.2383H18.667ZM6.66699 35.7383H18.667C19.1586 35.7384 19.6434 35.8532 20.083 36.0732C20.4293 36.2466 20.7397 36.4823 21 36.7666C21.2603 36.4823 21.5707 36.2466 21.917 36.0732C22.3566 35.8532 22.8414 35.7384 23.333 35.7383H35.333V33.9053H23.334L23.1855 33.9121C22.8422 33.9465 22.5196 34.0987 22.2734 34.3447C21.9922 34.626 21.8334 35.0075 21.833 35.4053C21.8329 35.6262 21.7451 35.8379 21.5889 35.9941C21.4326 36.1503 21.2209 36.2383 21 36.2383C20.7791 36.2383 20.5674 36.1503 20.4111 35.9941C20.2549 35.8379 20.1671 35.6262 20.167 35.4053C20.1666 35.0075 20.0078 34.626 19.7266 34.3447C19.4804 34.0987 19.1578 33.9465 18.8145 33.9121L18.666 33.9053H6.66699V35.7383Z" fill="#B15252" stroke="#B15252" stroke-width="0.5"/>
<path d="M17.6836 9.62695C18.0241 9.61167 18.3631 9.68345 18.668 9.83594L26.5596 13.7822L26.6816 13.8486C26.9601 14.0131 27.1955 14.2432 27.3662 14.5195C27.5614 14.8355 27.665 15.2 27.665 15.5713C27.665 15.9424 27.5613 16.3063 27.3662 16.6221C27.1711 16.9379 26.8916 17.1932 26.5596 17.3594V17.3604L18.668 21.3057L18.667 21.3047C18.3625 21.4579 18.0242 21.5309 17.6836 21.5156C17.343 21.5004 17.0123 21.3977 16.7227 21.2178C16.4317 21.0393 16.1916 20.7893 16.0254 20.4912C15.8592 20.193 15.7722 19.857 15.7734 19.5156V11.625C15.7734 11.2842 15.8605 10.9491 16.0264 10.6514C16.1923 10.3536 16.4317 10.1031 16.7217 9.92383C17.0117 9.74456 17.343 9.64224 17.6836 9.62695ZM17.4404 19.5166C17.4405 19.5733 17.4548 19.6292 17.4824 19.6787C17.5101 19.7283 17.5503 19.77 17.5986 19.7998C17.6469 19.8296 17.7021 19.8471 17.7588 19.8496C17.8154 19.8521 17.8721 19.8398 17.9229 19.8145L25.8135 15.8691C25.8689 15.8414 25.9157 15.7988 25.9482 15.7461C25.9807 15.6936 25.998 15.633 25.998 15.5713C25.998 15.5094 25.9808 15.4482 25.9482 15.3955C25.9157 15.3428 25.8688 15.3002 25.8135 15.2725L17.9229 11.3271L17.9199 11.3262C17.8748 11.303 17.8251 11.2903 17.7744 11.29C17.7122 11.2909 17.6516 11.3091 17.5986 11.3418L17.5967 11.3428C17.5488 11.3718 17.5088 11.413 17.4814 11.4619C17.4541 11.511 17.4399 11.5668 17.4404 11.623V19.5166Z" fill="#B15252" stroke="#B15252" stroke-width="0.5"/>
<path d="M31.5 4.23828L31.7725 4.24512C33.1314 4.31382 34.421 4.88387 35.3877 5.85059C36.4187 6.88164 36.9984 8.28015 37 9.73828V21.4053C36.9984 22.8632 36.4185 24.261 35.3877 25.292C34.3566 26.323 32.9581 26.9037 31.5 26.9053H22.9033L22.8525 26.9092C22.8026 26.917 22.7548 26.9358 22.7129 26.9648C22.6574 27.0033 22.614 27.0571 22.5898 27.1201L22.5908 27.1211L21.7803 29.2812C21.7206 29.44 21.614 29.5773 21.4746 29.6738C21.3352 29.7703 21.1695 29.8213 21 29.8213C20.8305 29.8213 20.6648 29.7703 20.5254 29.6738C20.4208 29.6014 20.3352 29.5055 20.2734 29.3955L20.2197 29.2812L19.4102 27.1221L19.3887 27.0762C19.3639 27.032 19.3291 26.9939 19.2871 26.9648C19.2452 26.9358 19.1974 26.917 19.1475 26.9092L19.0967 26.9053H10.5C9.04189 26.9036 7.64335 26.323 6.6123 25.292C5.58148 24.261 5.00165 22.8632 5 21.4053V9.73828L5.00684 9.46582C5.07558 8.10685 5.6456 6.81729 6.6123 5.85059C7.64335 4.81954 9.04189 4.23992 10.5 4.23828H31.5ZM10.5 5.90527C9.48373 5.90654 8.50963 6.31068 7.79102 7.0293C7.0724 7.74792 6.66826 8.72201 6.66699 9.73828V21.4043L6.67188 21.5947C6.71991 22.5419 7.11726 23.4405 7.79102 24.1143C8.50962 24.8328 9.4838 25.237 10.5 25.2383H19.0986C19.505 25.2397 19.9013 25.3643 20.2354 25.5957C20.5277 25.7982 20.761 26.0741 20.9111 26.3945L20.9697 26.5352L20.9707 26.5361L21 26.6143L21.0293 26.5361L21.0303 26.5352C21.1741 26.155 21.4296 25.8273 21.7637 25.5957C22.0979 25.3641 22.4948 25.2395 22.9014 25.2383H31.5L31.6895 25.2334C32.6366 25.1854 33.5352 24.788 34.209 24.1143C34.9275 23.3957 35.3316 22.4214 35.333 21.4053V9.73828C35.3317 8.72202 34.9276 7.7479 34.209 7.0293C33.5352 6.35547 32.6367 5.95816 31.6895 5.91016L31.5 5.90527H10.5Z" fill="#B15252" stroke="#B15252" stroke-width="0.5"/>
</svg>
