<svg width="43" height="44" viewBox="0 0 43 44" fill="none" xmlns="http://www.w3.org/2000/svg">
<g clip-path="url(#clip0_5963_3566)">
<path d="M2.60156 4.26758V39.709C2.60156 41.7929 4.29696 43.4883 6.38086 43.4883H39.1348C39.8305 43.4883 40.3945 42.9242 40.3945 42.2285C40.3945 41.5328 39.8305 40.9688 39.1348 40.9688H37.875V35.9297H39.1348C39.8305 35.9297 40.3945 35.3657 40.3945 34.6699C40.3945 33.9742 39.8305 33.4102 39.1348 33.4102H32.8359V28.3711H34.0957C34.7914 28.3711 35.3555 27.8071 35.3555 27.1113C35.3555 26.4156 34.7914 25.8516 34.0957 25.8516H25.2773V4.26758C25.2773 2.18367 23.582 0.488281 21.498 0.488281H6.38086C4.29696 0.488281 2.60156 2.18367 2.60156 4.26758ZM35.3555 35.9297V40.9688C34.0721 40.9688 22.2732 40.9688 20.2383 40.9688C18.849 40.9688 17.7188 39.8385 17.7188 38.4492C17.7188 37.0599 18.849 35.9297 20.2383 35.9297H35.3555ZM30.3164 28.3711V33.4102C29.4856 33.4102 16.0917 33.4102 15.1992 33.4102C13.8099 33.4102 12.6797 32.2799 12.6797 30.8906C12.6797 29.5014 13.8099 28.3711 15.1992 28.3711H30.3164ZM11.4199 3.00781H16.459V4.26758C16.459 4.96221 15.8939 5.52734 15.1992 5.52734H12.6797C11.9851 5.52734 11.4199 4.96221 11.4199 4.26758V3.00781ZM12.6797 8.04688H15.1992C17.2831 8.04688 18.9785 6.35148 18.9785 4.26758V3.00781H21.498C22.1927 3.00781 22.7578 3.57294 22.7578 4.26758V25.8516H15.1992C12.4207 25.8516 10.1602 28.1121 10.1602 30.8906C10.1602 33.6692 12.4207 35.9288 15.1992 35.9288H15.8771C15.4469 36.6707 15.1992 37.5317 15.1992 38.4492C15.1992 39.3667 15.4469 40.2269 15.8771 40.9688H6.38086C5.68622 40.9688 5.12109 40.4036 5.12109 39.709V4.26758C5.12109 3.57294 5.68622 3.00781 6.38086 3.00781H8.90039V4.26758C8.90039 6.35148 10.5958 8.04688 12.6797 8.04688Z" fill="#B15252"/>
</g>
<defs>
<clipPath id="clip0_5963_3566">
<rect width="43" height="43" fill="white" transform="translate(0 0.488281)"/>
</clipPath>
</defs>
</svg>
