<svg width="42" height="42" viewBox="0 0 42 42" fill="none" xmlns="http://www.w3.org/2000/svg">
<mask id="path-1-outside-1_1_3143" maskUnits="userSpaceOnUse" x="-0.673828" y="-0.67395" width="43" height="43" fill="black">
<rect fill="white" x="-0.673828" y="-0.67395" width="43" height="43"/>
<path d="M20.9994 15.8836C18.2338 15.8836 15.9837 18.1336 15.9837 20.8993C15.9837 23.665 18.2338 25.915 20.9994 25.915C23.7651 25.915 26.0152 23.665 26.0152 20.8993C26.0152 18.1336 23.7651 15.8836 20.9994 15.8836ZM20.9994 24.929C18.7775 24.929 16.9697 23.1213 16.9697 20.8993C16.9697 18.6773 18.7775 16.8696 20.9994 16.8696C23.2214 16.8696 25.0292 18.6773 25.0292 20.8993C25.0292 23.1213 23.2214 24.929 20.9994 24.929ZM29.0036 27.1253C29.226 26.905 29.3483 26.6106 29.3483 26.2962C29.3483 25.9819 29.226 25.6875 29.0058 25.4693L28.603 25.0652C28.9051 24.5154 29.1457 23.934 29.3214 23.3292H29.8913C30.5375 23.3292 31.0633 22.8046 31.0633 22.1595V19.6413C31.0633 18.9951 30.5375 18.4694 29.8913 18.4694H29.3214C29.1461 17.8666 28.9054 17.2853 28.6027 16.7338L29.0036 16.3314C29.2253 16.1117 29.3477 15.8185 29.3483 15.5058C29.3491 15.1919 29.2272 14.8968 29.0051 14.6748L27.224 12.8936C26.7697 12.4393 26.0278 12.4386 25.5688 12.8936L25.1647 13.2977C24.6124 12.9936 24.0313 12.7525 23.4293 12.5774V12.0075C23.4293 11.3627 22.9046 10.8379 22.2597 10.8379H19.7414C19.0952 10.8379 18.5694 11.3626 18.5694 12.0075V12.5776C17.9689 12.7528 17.3878 12.994 16.8343 13.298L16.4299 12.8937C15.9756 12.4394 15.2337 12.4386 14.7748 12.8937L12.9921 14.6763C12.5387 15.1338 12.5392 15.8756 12.9937 16.3299L13.3981 16.7343C13.0939 17.2879 12.8528 17.869 12.6777 18.4695H12.1076C11.4627 18.4695 10.9379 18.9952 10.9379 19.6414V22.1596C10.9379 22.8046 11.4626 23.3293 12.1076 23.3293H12.6776C12.8531 23.9319 13.0942 24.5131 13.3978 25.0647L12.9937 25.4688C12.5374 25.925 12.5374 26.6676 12.9937 27.1239L14.7748 28.9051C14.9962 29.1265 15.2902 29.2484 15.6033 29.2484H15.6059C15.9186 29.2477 16.2119 29.1253 16.43 28.9051L16.8344 28.5007C17.3879 28.8049 17.9691 29.0461 18.5695 29.2211V29.7912C18.5695 30.4375 19.0953 30.9632 19.7415 30.9632H22.2598C22.9046 30.9632 23.4294 30.4375 23.4294 29.7912V29.2212C24.032 29.0457 24.6132 28.8047 25.1647 28.5011L25.5689 28.9051C25.7902 29.1265 26.0843 29.2484 26.3974 29.2484H26.4C26.7127 29.2477 27.0059 29.1253 27.2241 28.9051L29.0036 27.1253ZM26.3978 28.2623C26.3688 28.2623 26.3133 28.2551 26.2659 28.2079L25.5939 27.5359C25.433 27.3749 25.1829 27.3452 24.9885 27.4637C24.3139 27.8756 23.5844 28.1783 22.8202 28.3633C22.5991 28.4169 22.4433 28.6148 22.4433 28.8425V29.7912C22.4433 29.892 22.3593 29.9772 22.2597 29.9772H19.7414C19.6388 29.9772 19.5554 29.8938 19.5554 29.7912V28.8425C19.5554 28.6149 19.3996 28.4169 19.1784 28.3633C18.4179 28.1792 17.6883 27.8763 17.0096 27.4633C16.9302 27.415 16.8416 27.3914 16.7535 27.3914C16.626 27.3914 16.4998 27.4408 16.4048 27.5359L15.7312 28.2094C15.6857 28.2554 15.6317 28.2623 15.6036 28.2624C15.5746 28.2624 15.5192 28.2552 15.4718 28.208L13.6906 26.4267C13.62 26.356 13.62 26.2366 13.6906 26.1659L14.3626 25.494C14.5236 25.3329 14.5534 25.0827 14.4348 24.8884C14.0229 24.2139 13.7202 23.4844 13.5352 22.7202C13.4816 22.4991 13.2837 22.3432 13.056 22.3432H12.1073C12.0078 22.3432 11.9237 22.2591 11.9237 22.1595V19.6413C11.9237 19.5405 12.0078 19.4553 12.1073 19.4553H13.056C13.2836 19.4553 13.4816 19.2995 13.5352 19.0784C13.7193 18.3179 14.0222 17.5882 14.4352 16.9096C14.5534 16.7154 14.5234 16.4655 14.3626 16.3047L13.6906 15.6327C13.6203 15.5624 13.6209 15.4422 13.6906 15.3718L15.4702 13.5922C15.5422 13.5211 15.6623 13.5204 15.7326 13.5907L16.4046 14.2626C16.5654 14.4233 16.8153 14.4535 17.0094 14.3352C17.6879 13.9223 18.4177 13.6194 19.1783 13.4351C19.3994 13.3816 19.5552 13.1835 19.5552 12.956V12.0073C19.5552 11.9077 19.6404 11.8237 19.7413 11.8237H22.2595C22.3591 11.8237 22.4431 11.9077 22.4431 12.0073V12.956C22.4431 13.1836 22.599 13.3816 22.8204 13.4352C23.5831 13.6194 24.3124 13.9221 24.9883 14.3348C25.1826 14.4533 25.4327 14.4235 25.5938 14.2626L26.2643 13.5921C26.3362 13.521 26.4563 13.5203 26.5267 13.5906L28.3079 15.3717C28.3554 15.4192 28.3623 15.4747 28.3622 15.5035C28.3622 15.5316 28.3553 15.5856 28.3072 15.6331L27.6375 16.3051C27.4773 16.466 27.4476 16.7155 27.5656 16.9094C27.976 17.5839 28.2781 18.3135 28.4632 19.0782C28.5168 19.2993 28.7147 19.4551 28.9424 19.4551H29.8911C29.9937 19.4551 30.0771 19.5386 30.0771 19.6411V22.1594C30.0771 22.259 29.992 22.3431 29.8911 22.3431H28.9424C28.7148 22.3431 28.5168 22.4988 28.4632 22.72C28.2771 23.4883 27.9752 24.2179 27.566 24.8882C27.4475 25.0822 27.477 25.3321 27.6375 25.4931L28.3093 26.1672C28.3554 26.2129 28.3622 26.2676 28.3622 26.2961C28.3622 26.3245 28.3554 26.3794 28.3079 26.4266L26.5252 28.2093C26.4797 28.2552 26.4259 28.2622 26.3978 28.2623ZM0.500416 7.19344C0.230288 4.827 0.705002 3.01608 1.91144 1.81088C3.11787 0.60461 4.92895 0.129731 7.29457 0.399367C8.94348 0.587465 10.7948 1.12887 12.8183 2.013L12.16 1.2278C11.9851 1.01911 12.0124 0.708215 12.221 0.533242C12.4298 0.358434 12.7406 0.38575 12.9156 0.594356L15.0312 3.1178C15.0643 3.15562 15.0912 3.19803 15.1113 3.24323C15.123 3.26931 15.1322 3.29638 15.1391 3.32395C15.1663 3.43255 15.1567 3.55101 15.104 3.65896C15.0984 3.67053 15.0923 3.68185 15.0858 3.69284C15.0309 3.7866 14.9492 3.85584 14.8555 3.89611C14.8232 3.91006 14.7893 3.92056 14.7542 3.92729C14.7227 3.93344 14.6911 3.93803 14.6576 3.93623L11.3635 3.98249C11.3611 3.98249 11.3587 3.98249 11.3563 3.98249C11.0874 3.98249 10.8674 3.76626 10.8636 3.49646C10.8597 3.2242 11.0773 3.00041 11.3495 2.99656L12.5625 2.9795C10.5809 2.10472 8.7471 1.55716 7.18285 1.37874C5.13083 1.14462 3.59193 1.52459 2.60846 2.50798C1.62531 3.49014 1.24575 5.0288 1.48003 7.08139C1.71374 9.12782 2.57851 11.6354 3.98084 14.3328C4.10643 14.5744 4.01242 14.872 3.77084 14.9976C3.69816 15.0353 3.62039 15.0533 3.54378 15.0533C3.36569 15.0533 3.19375 14.9565 3.10597 14.7876C1.62785 11.9444 0.751186 9.38942 0.500416 7.19344ZM41.6004 7.29434C41.4119 8.94309 40.8704 10.794 39.9857 12.8179L40.7709 12.1597C40.9795 11.9849 41.2903 12.0122 41.4653 12.2207C41.6402 12.4294 41.6129 12.7403 41.4043 12.9153L38.8806 15.031C38.8435 15.0635 38.8019 15.0901 38.7577 15.11C38.7307 15.1221 38.7028 15.1318 38.6743 15.1389C38.6353 15.1486 38.5953 15.1536 38.5549 15.1536C38.4817 15.1536 38.4076 15.1373 38.3378 15.103C38.3276 15.0979 38.3176 15.0925 38.3077 15.0868C38.2106 15.0305 38.1395 14.9456 38.0995 14.8484C38.0877 14.8196 38.0785 14.7897 38.0723 14.7589C38.0655 14.7256 38.0621 14.6917 38.0623 14.6574L38.016 11.3633C38.0122 11.0911 38.2297 10.8673 38.502 10.8634H38.5091C38.7781 10.8634 38.9981 11.0797 39.0019 11.3495L39.0189 12.5626C39.8941 10.5806 40.4421 8.7467 40.6208 7.18261C40.8554 5.13052 40.4759 3.59161 39.4927 2.60839C38.5097 1.62524 36.9705 1.24577 34.9181 1.47997C32.8722 1.71359 30.3642 2.57836 27.6655 3.98077C27.4239 4.10652 27.1263 4.01235 27.0007 3.77069C26.8751 3.52911 26.9692 3.2315 27.2108 3.10591C30.0555 1.62762 32.611 0.750953 34.8063 0.500266C37.1723 0.230301 38.9837 0.70477 40.1898 1.91112C41.3963 3.11747 41.8708 4.92864 41.6004 7.29434ZM41.5004 34.806C41.7708 37.1719 41.2963 38.9833 40.0898 40.1896C39.1028 41.1767 37.7106 41.6739 35.9413 41.6739C35.5481 41.6739 35.1364 41.6494 34.7062 41.6002C33.0571 41.4117 31.2051 40.8699 29.1803 39.9851L29.8389 40.7708C30.0138 40.9794 29.9865 41.2903 29.7778 41.4653C29.5693 41.6402 29.2584 41.6128 29.0833 41.4042L26.9677 38.8807C26.9338 38.8421 26.9065 38.7988 26.8863 38.7525C26.8759 38.7285 26.8675 38.7039 26.8609 38.6789C26.832 38.5676 26.8418 38.4459 26.8969 38.3353C26.9012 38.3268 26.9055 38.3186 26.9102 38.3104C26.9661 38.213 27.0512 38.1407 27.1483 38.1004C27.1778 38.0881 27.2086 38.0785 27.2405 38.0721C27.2734 38.0653 27.3099 38.0617 27.3413 38.0622L30.6353 38.0159C30.9052 38.0155 31.1315 38.2296 31.1352 38.5019C31.1391 38.7742 30.9215 38.9979 30.6493 39.0018L29.4369 39.0189C31.4196 39.8941 33.2539 40.442 34.8182 40.6208C36.8707 40.8554 38.4095 40.4757 39.3927 39.4927C40.3758 38.5095 40.7554 36.9704 40.5208 34.9181C40.2869 32.8719 39.4215 30.364 38.0181 27.6655C37.8924 27.424 37.9863 27.1264 38.228 27.0007C38.4696 26.875 38.7672 26.9691 38.8928 27.2106C40.3721 30.055 41.2494 32.6103 41.5004 34.806ZM14.998 38.2277C15.1236 38.4692 15.0297 38.7668 14.7881 38.8925C11.945 40.3718 9.39006 41.2491 7.19458 41.5001C6.76465 41.5493 6.35261 41.5738 5.9596 41.5738C4.19018 41.5738 2.79836 41.0767 1.81128 40.0895C0.60476 38.883 0.129799 37.0718 0.399518 34.7061C0.587616 33.0567 1.12919 31.2045 2.01373 29.1798L1.22795 29.8386C1.01935 30.0135 0.708448 29.9862 0.533393 29.7775C0.358502 29.5689 0.385819 29.258 0.594506 29.083L3.11803 26.9673C3.15651 26.9336 3.19957 26.9064 3.24567 26.8863C3.26963 26.8758 3.29432 26.8673 3.31934 26.8607C3.43024 26.8319 3.55132 26.8413 3.66149 26.8957C3.67133 26.9006 3.68093 26.9057 3.69037 26.9111C3.78757 26.9672 3.85878 27.0521 3.89889 27.1491C3.91103 27.1785 3.92046 27.2092 3.92686 27.2407C3.93334 27.2734 3.93662 27.3073 3.93646 27.3409L3.98272 30.635C3.98658 30.9073 3.76903 31.1311 3.49677 31.1349C3.49439 31.1349 3.49201 31.1349 3.48963 31.1349C3.22065 31.1349 3.00065 30.9187 2.99687 30.6489L2.97981 29.4367C2.10503 31.4191 1.55747 33.2531 1.37905 34.8176C1.14494 36.8698 1.5249 38.409 2.5083 39.3923C3.49152 40.3755 5.03092 40.7549 7.08252 40.5204C9.12854 40.2865 11.6358 39.4211 14.3331 38.0177C14.5745 37.8922 14.8723 37.9861 14.998 38.2277ZM20.9994 33.0581C18.9159 33.0581 17.2208 34.7532 17.2208 36.8367C17.2208 38.9202 18.9159 40.6153 20.9994 40.6153C23.0829 40.6153 24.778 38.9202 24.778 36.8367C24.778 34.7532 23.0829 33.0581 20.9994 33.0581ZM20.9994 39.6293C19.4595 39.6293 18.2067 38.3766 18.2067 36.8367C18.2067 35.2967 19.4594 34.044 20.9994 34.044C22.5393 34.044 23.792 35.2967 23.792 36.8367C23.792 38.3766 22.5393 39.6293 20.9994 39.6293ZM2.5854 17.1206C1.86738 17.1206 1.28324 17.7037 1.28324 18.4205V23.378C1.28324 24.0947 1.86738 24.678 2.5854 24.678H7.54058C8.25729 24.678 8.84045 24.0948 8.84045 23.378V18.4205C8.84045 17.7038 8.25737 17.1206 7.54058 17.1206H2.5854ZM7.85443 18.4205V23.378C7.85443 23.5511 7.71367 23.692 7.54058 23.692H2.5854C2.41101 23.692 2.26926 23.5511 2.26926 23.378V18.4205C2.26926 18.2474 2.41109 18.1066 2.5854 18.1066H7.54058C7.71367 18.1066 7.85443 18.2474 7.85443 18.4205ZM20.9994 8.9403C23.0829 8.9403 24.778 7.2452 24.778 5.16177C24.778 3.07834 23.0829 1.38317 20.9994 1.38317C18.9159 1.38317 17.2208 3.07826 17.2208 5.16177C17.2208 7.24529 18.9159 8.9403 20.9994 8.9403ZM20.9994 2.3691C22.5393 2.3691 23.792 3.6218 23.792 5.16177C23.792 6.70175 22.5393 7.95436 20.9994 7.95436C19.4594 7.95436 18.2067 6.70166 18.2067 5.16177C18.2067 3.62188 19.4594 2.3691 20.9994 2.3691ZM39.4157 24.678C40.1324 24.678 40.7156 24.0948 40.7156 23.378V18.4205C40.7156 17.7038 40.1325 17.1206 39.4157 17.1206H34.4605C33.7425 17.1206 33.1584 17.7037 33.1584 18.4205V23.378C33.1584 24.0947 33.7425 24.678 34.4605 24.678H39.4157ZM34.1443 23.378V18.4205C34.1443 18.2474 34.2861 18.1066 34.4604 18.1066H39.4156C39.5887 18.1066 39.7295 18.2474 39.7295 18.4205V23.378C39.7295 23.5511 39.5887 23.692 39.4156 23.692H34.4604C34.286 23.692 34.1443 23.5511 34.1443 23.378Z"/>
</mask>
<path d="M20.9994 15.8836C18.2338 15.8836 15.9837 18.1336 15.9837 20.8993C15.9837 23.665 18.2338 25.915 20.9994 25.915C23.7651 25.915 26.0152 23.665 26.0152 20.8993C26.0152 18.1336 23.7651 15.8836 20.9994 15.8836ZM20.9994 24.929C18.7775 24.929 16.9697 23.1213 16.9697 20.8993C16.9697 18.6773 18.7775 16.8696 20.9994 16.8696C23.2214 16.8696 25.0292 18.6773 25.0292 20.8993C25.0292 23.1213 23.2214 24.929 20.9994 24.929ZM29.0036 27.1253C29.226 26.905 29.3483 26.6106 29.3483 26.2962C29.3483 25.9819 29.226 25.6875 29.0058 25.4693L28.603 25.0652C28.9051 24.5154 29.1457 23.934 29.3214 23.3292H29.8913C30.5375 23.3292 31.0633 22.8046 31.0633 22.1595V19.6413C31.0633 18.9951 30.5375 18.4694 29.8913 18.4694H29.3214C29.1461 17.8666 28.9054 17.2853 28.6027 16.7338L29.0036 16.3314C29.2253 16.1117 29.3477 15.8185 29.3483 15.5058C29.3491 15.1919 29.2272 14.8968 29.0051 14.6748L27.224 12.8936C26.7697 12.4393 26.0278 12.4386 25.5688 12.8936L25.1647 13.2977C24.6124 12.9936 24.0313 12.7525 23.4293 12.5774V12.0075C23.4293 11.3627 22.9046 10.8379 22.2597 10.8379H19.7414C19.0952 10.8379 18.5694 11.3626 18.5694 12.0075V12.5776C17.9689 12.7528 17.3878 12.994 16.8343 13.298L16.4299 12.8937C15.9756 12.4394 15.2337 12.4386 14.7748 12.8937L12.9921 14.6763C12.5387 15.1338 12.5392 15.8756 12.9937 16.3299L13.3981 16.7343C13.0939 17.2879 12.8528 17.869 12.6777 18.4695H12.1076C11.4627 18.4695 10.9379 18.9952 10.9379 19.6414V22.1596C10.9379 22.8046 11.4626 23.3293 12.1076 23.3293H12.6776C12.8531 23.9319 13.0942 24.5131 13.3978 25.0647L12.9937 25.4688C12.5374 25.925 12.5374 26.6676 12.9937 27.1239L14.7748 28.9051C14.9962 29.1265 15.2902 29.2484 15.6033 29.2484H15.6059C15.9186 29.2477 16.2119 29.1253 16.43 28.9051L16.8344 28.5007C17.3879 28.8049 17.9691 29.0461 18.5695 29.2211V29.7912C18.5695 30.4375 19.0953 30.9632 19.7415 30.9632H22.2598C22.9046 30.9632 23.4294 30.4375 23.4294 29.7912V29.2212C24.032 29.0457 24.6132 28.8047 25.1647 28.5011L25.5689 28.9051C25.7902 29.1265 26.0843 29.2484 26.3974 29.2484H26.4C26.7127 29.2477 27.0059 29.1253 27.2241 28.9051L29.0036 27.1253ZM26.3978 28.2623C26.3688 28.2623 26.3133 28.2551 26.2659 28.2079L25.5939 27.5359C25.433 27.3749 25.1829 27.3452 24.9885 27.4637C24.3139 27.8756 23.5844 28.1783 22.8202 28.3633C22.5991 28.4169 22.4433 28.6148 22.4433 28.8425V29.7912C22.4433 29.892 22.3593 29.9772 22.2597 29.9772H19.7414C19.6388 29.9772 19.5554 29.8938 19.5554 29.7912V28.8425C19.5554 28.6149 19.3996 28.4169 19.1784 28.3633C18.4179 28.1792 17.6883 27.8763 17.0096 27.4633C16.9302 27.415 16.8416 27.3914 16.7535 27.3914C16.626 27.3914 16.4998 27.4408 16.4048 27.5359L15.7312 28.2094C15.6857 28.2554 15.6317 28.2623 15.6036 28.2624C15.5746 28.2624 15.5192 28.2552 15.4718 28.208L13.6906 26.4267C13.62 26.356 13.62 26.2366 13.6906 26.1659L14.3626 25.494C14.5236 25.3329 14.5534 25.0827 14.4348 24.8884C14.0229 24.2139 13.7202 23.4844 13.5352 22.7202C13.4816 22.4991 13.2837 22.3432 13.056 22.3432H12.1073C12.0078 22.3432 11.9237 22.2591 11.9237 22.1595V19.6413C11.9237 19.5405 12.0078 19.4553 12.1073 19.4553H13.056C13.2836 19.4553 13.4816 19.2995 13.5352 19.0784C13.7193 18.3179 14.0222 17.5882 14.4352 16.9096C14.5534 16.7154 14.5234 16.4655 14.3626 16.3047L13.6906 15.6327C13.6203 15.5624 13.6209 15.4422 13.6906 15.3718L15.4702 13.5922C15.5422 13.5211 15.6623 13.5204 15.7326 13.5907L16.4046 14.2626C16.5654 14.4233 16.8153 14.4535 17.0094 14.3352C17.6879 13.9223 18.4177 13.6194 19.1783 13.4351C19.3994 13.3816 19.5552 13.1835 19.5552 12.956V12.0073C19.5552 11.9077 19.6404 11.8237 19.7413 11.8237H22.2595C22.3591 11.8237 22.4431 11.9077 22.4431 12.0073V12.956C22.4431 13.1836 22.599 13.3816 22.8204 13.4352C23.5831 13.6194 24.3124 13.9221 24.9883 14.3348C25.1826 14.4533 25.4327 14.4235 25.5938 14.2626L26.2643 13.5921C26.3362 13.521 26.4563 13.5203 26.5267 13.5906L28.3079 15.3717C28.3554 15.4192 28.3623 15.4747 28.3622 15.5035C28.3622 15.5316 28.3553 15.5856 28.3072 15.6331L27.6375 16.3051C27.4773 16.466 27.4476 16.7155 27.5656 16.9094C27.976 17.5839 28.2781 18.3135 28.4632 19.0782C28.5168 19.2993 28.7147 19.4551 28.9424 19.4551H29.8911C29.9937 19.4551 30.0771 19.5386 30.0771 19.6411V22.1594C30.0771 22.259 29.992 22.3431 29.8911 22.3431H28.9424C28.7148 22.3431 28.5168 22.4988 28.4632 22.72C28.2771 23.4883 27.9752 24.2179 27.566 24.8882C27.4475 25.0822 27.477 25.3321 27.6375 25.4931L28.3093 26.1672C28.3554 26.2129 28.3622 26.2676 28.3622 26.2961C28.3622 26.3245 28.3554 26.3794 28.3079 26.4266L26.5252 28.2093C26.4797 28.2552 26.4259 28.2622 26.3978 28.2623ZM0.500416 7.19344C0.230288 4.827 0.705002 3.01608 1.91144 1.81088C3.11787 0.60461 4.92895 0.129731 7.29457 0.399367C8.94348 0.587465 10.7948 1.12887 12.8183 2.013L12.16 1.2278C11.9851 1.01911 12.0124 0.708215 12.221 0.533242C12.4298 0.358434 12.7406 0.38575 12.9156 0.594356L15.0312 3.1178C15.0643 3.15562 15.0912 3.19803 15.1113 3.24323C15.123 3.26931 15.1322 3.29638 15.1391 3.32395C15.1663 3.43255 15.1567 3.55101 15.104 3.65896C15.0984 3.67053 15.0923 3.68185 15.0858 3.69284C15.0309 3.7866 14.9492 3.85584 14.8555 3.89611C14.8232 3.91006 14.7893 3.92056 14.7542 3.92729C14.7227 3.93344 14.6911 3.93803 14.6576 3.93623L11.3635 3.98249C11.3611 3.98249 11.3587 3.98249 11.3563 3.98249C11.0874 3.98249 10.8674 3.76626 10.8636 3.49646C10.8597 3.2242 11.0773 3.00041 11.3495 2.99656L12.5625 2.9795C10.5809 2.10472 8.7471 1.55716 7.18285 1.37874C5.13083 1.14462 3.59193 1.52459 2.60846 2.50798C1.62531 3.49014 1.24575 5.0288 1.48003 7.08139C1.71374 9.12782 2.57851 11.6354 3.98084 14.3328C4.10643 14.5744 4.01242 14.872 3.77084 14.9976C3.69816 15.0353 3.62039 15.0533 3.54378 15.0533C3.36569 15.0533 3.19375 14.9565 3.10597 14.7876C1.62785 11.9444 0.751186 9.38942 0.500416 7.19344ZM41.6004 7.29434C41.4119 8.94309 40.8704 10.794 39.9857 12.8179L40.7709 12.1597C40.9795 11.9849 41.2903 12.0122 41.4653 12.2207C41.6402 12.4294 41.6129 12.7403 41.4043 12.9153L38.8806 15.031C38.8435 15.0635 38.8019 15.0901 38.7577 15.11C38.7307 15.1221 38.7028 15.1318 38.6743 15.1389C38.6353 15.1486 38.5953 15.1536 38.5549 15.1536C38.4817 15.1536 38.4076 15.1373 38.3378 15.103C38.3276 15.0979 38.3176 15.0925 38.3077 15.0868C38.2106 15.0305 38.1395 14.9456 38.0995 14.8484C38.0877 14.8196 38.0785 14.7897 38.0723 14.7589C38.0655 14.7256 38.0621 14.6917 38.0623 14.6574L38.016 11.3633C38.0122 11.0911 38.2297 10.8673 38.502 10.8634H38.5091C38.7781 10.8634 38.9981 11.0797 39.0019 11.3495L39.0189 12.5626C39.8941 10.5806 40.4421 8.7467 40.6208 7.18261C40.8554 5.13052 40.4759 3.59161 39.4927 2.60839C38.5097 1.62524 36.9705 1.24577 34.9181 1.47997C32.8722 1.71359 30.3642 2.57836 27.6655 3.98077C27.4239 4.10652 27.1263 4.01235 27.0007 3.77069C26.8751 3.52911 26.9692 3.2315 27.2108 3.10591C30.0555 1.62762 32.611 0.750953 34.8063 0.500266C37.1723 0.230301 38.9837 0.70477 40.1898 1.91112C41.3963 3.11747 41.8708 4.92864 41.6004 7.29434ZM41.5004 34.806C41.7708 37.1719 41.2963 38.9833 40.0898 40.1896C39.1028 41.1767 37.7106 41.6739 35.9413 41.6739C35.5481 41.6739 35.1364 41.6494 34.7062 41.6002C33.0571 41.4117 31.2051 40.8699 29.1803 39.9851L29.8389 40.7708C30.0138 40.9794 29.9865 41.2903 29.7778 41.4653C29.5693 41.6402 29.2584 41.6128 29.0833 41.4042L26.9677 38.8807C26.9338 38.8421 26.9065 38.7988 26.8863 38.7525C26.8759 38.7285 26.8675 38.7039 26.8609 38.6789C26.832 38.5676 26.8418 38.4459 26.8969 38.3353C26.9012 38.3268 26.9055 38.3186 26.9102 38.3104C26.9661 38.213 27.0512 38.1407 27.1483 38.1004C27.1778 38.0881 27.2086 38.0785 27.2405 38.0721C27.2734 38.0653 27.3099 38.0617 27.3413 38.0622L30.6353 38.0159C30.9052 38.0155 31.1315 38.2296 31.1352 38.5019C31.1391 38.7742 30.9215 38.9979 30.6493 39.0018L29.4369 39.0189C31.4196 39.8941 33.2539 40.442 34.8182 40.6208C36.8707 40.8554 38.4095 40.4757 39.3927 39.4927C40.3758 38.5095 40.7554 36.9704 40.5208 34.9181C40.2869 32.8719 39.4215 30.364 38.0181 27.6655C37.8924 27.424 37.9863 27.1264 38.228 27.0007C38.4696 26.875 38.7672 26.9691 38.8928 27.2106C40.3721 30.055 41.2494 32.6103 41.5004 34.806ZM14.998 38.2277C15.1236 38.4692 15.0297 38.7668 14.7881 38.8925C11.945 40.3718 9.39006 41.2491 7.19458 41.5001C6.76465 41.5493 6.35261 41.5738 5.9596 41.5738C4.19018 41.5738 2.79836 41.0767 1.81128 40.0895C0.60476 38.883 0.129799 37.0718 0.399518 34.7061C0.587616 33.0567 1.12919 31.2045 2.01373 29.1798L1.22795 29.8386C1.01935 30.0135 0.708448 29.9862 0.533393 29.7775C0.358502 29.5689 0.385819 29.258 0.594506 29.083L3.11803 26.9673C3.15651 26.9336 3.19957 26.9064 3.24567 26.8863C3.26963 26.8758 3.29432 26.8673 3.31934 26.8607C3.43024 26.8319 3.55132 26.8413 3.66149 26.8957C3.67133 26.9006 3.68093 26.9057 3.69037 26.9111C3.78757 26.9672 3.85878 27.0521 3.89889 27.1491C3.91103 27.1785 3.92046 27.2092 3.92686 27.2407C3.93334 27.2734 3.93662 27.3073 3.93646 27.3409L3.98272 30.635C3.98658 30.9073 3.76903 31.1311 3.49677 31.1349C3.49439 31.1349 3.49201 31.1349 3.48963 31.1349C3.22065 31.1349 3.00065 30.9187 2.99687 30.6489L2.97981 29.4367C2.10503 31.4191 1.55747 33.2531 1.37905 34.8176C1.14494 36.8698 1.5249 38.409 2.5083 39.3923C3.49152 40.3755 5.03092 40.7549 7.08252 40.5204C9.12854 40.2865 11.6358 39.4211 14.3331 38.0177C14.5745 37.8922 14.8723 37.9861 14.998 38.2277ZM20.9994 33.0581C18.9159 33.0581 17.2208 34.7532 17.2208 36.8367C17.2208 38.9202 18.9159 40.6153 20.9994 40.6153C23.0829 40.6153 24.778 38.9202 24.778 36.8367C24.778 34.7532 23.0829 33.0581 20.9994 33.0581ZM20.9994 39.6293C19.4595 39.6293 18.2067 38.3766 18.2067 36.8367C18.2067 35.2967 19.4594 34.044 20.9994 34.044C22.5393 34.044 23.792 35.2967 23.792 36.8367C23.792 38.3766 22.5393 39.6293 20.9994 39.6293ZM2.5854 17.1206C1.86738 17.1206 1.28324 17.7037 1.28324 18.4205V23.378C1.28324 24.0947 1.86738 24.678 2.5854 24.678H7.54058C8.25729 24.678 8.84045 24.0948 8.84045 23.378V18.4205C8.84045 17.7038 8.25737 17.1206 7.54058 17.1206H2.5854ZM7.85443 18.4205V23.378C7.85443 23.5511 7.71367 23.692 7.54058 23.692H2.5854C2.41101 23.692 2.26926 23.5511 2.26926 23.378V18.4205C2.26926 18.2474 2.41109 18.1066 2.5854 18.1066H7.54058C7.71367 18.1066 7.85443 18.2474 7.85443 18.4205ZM20.9994 8.9403C23.0829 8.9403 24.778 7.2452 24.778 5.16177C24.778 3.07834 23.0829 1.38317 20.9994 1.38317C18.9159 1.38317 17.2208 3.07826 17.2208 5.16177C17.2208 7.24529 18.9159 8.9403 20.9994 8.9403ZM20.9994 2.3691C22.5393 2.3691 23.792 3.6218 23.792 5.16177C23.792 6.70175 22.5393 7.95436 20.9994 7.95436C19.4594 7.95436 18.2067 6.70166 18.2067 5.16177C18.2067 3.62188 19.4594 2.3691 20.9994 2.3691ZM39.4157 24.678C40.1324 24.678 40.7156 24.0948 40.7156 23.378V18.4205C40.7156 17.7038 40.1325 17.1206 39.4157 17.1206H34.4605C33.7425 17.1206 33.1584 17.7037 33.1584 18.4205V23.378C33.1584 24.0947 33.7425 24.678 34.4605 24.678H39.4157ZM34.1443 23.378V18.4205C34.1443 18.2474 34.2861 18.1066 34.4604 18.1066H39.4156C39.5887 18.1066 39.7295 18.2474 39.7295 18.4205V23.378C39.7295 23.5511 39.5887 23.692 39.4156 23.692H34.4604C34.286 23.692 34.1443 23.5511 34.1443 23.378Z" fill="#7595E5"/>
<path d="M20.9994 15.8836C18.2338 15.8836 15.9837 18.1336 15.9837 20.8993C15.9837 23.665 18.2338 25.915 20.9994 25.915C23.7651 25.915 26.0152 23.665 26.0152 20.8993C26.0152 18.1336 23.7651 15.8836 20.9994 15.8836ZM20.9994 24.929C18.7775 24.929 16.9697 23.1213 16.9697 20.8993C16.9697 18.6773 18.7775 16.8696 20.9994 16.8696C23.2214 16.8696 25.0292 18.6773 25.0292 20.8993C25.0292 23.1213 23.2214 24.929 20.9994 24.929ZM29.0036 27.1253C29.226 26.905 29.3483 26.6106 29.3483 26.2962C29.3483 25.9819 29.226 25.6875 29.0058 25.4693L28.603 25.0652C28.9051 24.5154 29.1457 23.934 29.3214 23.3292H29.8913C30.5375 23.3292 31.0633 22.8046 31.0633 22.1595V19.6413C31.0633 18.9951 30.5375 18.4694 29.8913 18.4694H29.3214C29.1461 17.8666 28.9054 17.2853 28.6027 16.7338L29.0036 16.3314C29.2253 16.1117 29.3477 15.8185 29.3483 15.5058C29.3491 15.1919 29.2272 14.8968 29.0051 14.6748L27.224 12.8936C26.7697 12.4393 26.0278 12.4386 25.5688 12.8936L25.1647 13.2977C24.6124 12.9936 24.0313 12.7525 23.4293 12.5774V12.0075C23.4293 11.3627 22.9046 10.8379 22.2597 10.8379H19.7414C19.0952 10.8379 18.5694 11.3626 18.5694 12.0075V12.5776C17.9689 12.7528 17.3878 12.994 16.8343 13.298L16.4299 12.8937C15.9756 12.4394 15.2337 12.4386 14.7748 12.8937L12.9921 14.6763C12.5387 15.1338 12.5392 15.8756 12.9937 16.3299L13.3981 16.7343C13.0939 17.2879 12.8528 17.869 12.6777 18.4695H12.1076C11.4627 18.4695 10.9379 18.9952 10.9379 19.6414V22.1596C10.9379 22.8046 11.4626 23.3293 12.1076 23.3293H12.6776C12.8531 23.9319 13.0942 24.5131 13.3978 25.0647L12.9937 25.4688C12.5374 25.925 12.5374 26.6676 12.9937 27.1239L14.7748 28.9051C14.9962 29.1265 15.2902 29.2484 15.6033 29.2484H15.6059C15.9186 29.2477 16.2119 29.1253 16.43 28.9051L16.8344 28.5007C17.3879 28.8049 17.9691 29.0461 18.5695 29.2211V29.7912C18.5695 30.4375 19.0953 30.9632 19.7415 30.9632H22.2598C22.9046 30.9632 23.4294 30.4375 23.4294 29.7912V29.2212C24.032 29.0457 24.6132 28.8047 25.1647 28.5011L25.5689 28.9051C25.7902 29.1265 26.0843 29.2484 26.3974 29.2484H26.4C26.7127 29.2477 27.0059 29.1253 27.2241 28.9051L29.0036 27.1253ZM26.3978 28.2623C26.3688 28.2623 26.3133 28.2551 26.2659 28.2079L25.5939 27.5359C25.433 27.3749 25.1829 27.3452 24.9885 27.4637C24.3139 27.8756 23.5844 28.1783 22.8202 28.3633C22.5991 28.4169 22.4433 28.6148 22.4433 28.8425V29.7912C22.4433 29.892 22.3593 29.9772 22.2597 29.9772H19.7414C19.6388 29.9772 19.5554 29.8938 19.5554 29.7912V28.8425C19.5554 28.6149 19.3996 28.4169 19.1784 28.3633C18.4179 28.1792 17.6883 27.8763 17.0096 27.4633C16.9302 27.415 16.8416 27.3914 16.7535 27.3914C16.626 27.3914 16.4998 27.4408 16.4048 27.5359L15.7312 28.2094C15.6857 28.2554 15.6317 28.2623 15.6036 28.2624C15.5746 28.2624 15.5192 28.2552 15.4718 28.208L13.6906 26.4267C13.62 26.356 13.62 26.2366 13.6906 26.1659L14.3626 25.494C14.5236 25.3329 14.5534 25.0827 14.4348 24.8884C14.0229 24.2139 13.7202 23.4844 13.5352 22.7202C13.4816 22.4991 13.2837 22.3432 13.056 22.3432H12.1073C12.0078 22.3432 11.9237 22.2591 11.9237 22.1595V19.6413C11.9237 19.5405 12.0078 19.4553 12.1073 19.4553H13.056C13.2836 19.4553 13.4816 19.2995 13.5352 19.0784C13.7193 18.3179 14.0222 17.5882 14.4352 16.9096C14.5534 16.7154 14.5234 16.4655 14.3626 16.3047L13.6906 15.6327C13.6203 15.5624 13.6209 15.4422 13.6906 15.3718L15.4702 13.5922C15.5422 13.5211 15.6623 13.5204 15.7326 13.5907L16.4046 14.2626C16.5654 14.4233 16.8153 14.4535 17.0094 14.3352C17.6879 13.9223 18.4177 13.6194 19.1783 13.4351C19.3994 13.3816 19.5552 13.1835 19.5552 12.956V12.0073C19.5552 11.9077 19.6404 11.8237 19.7413 11.8237H22.2595C22.3591 11.8237 22.4431 11.9077 22.4431 12.0073V12.956C22.4431 13.1836 22.599 13.3816 22.8204 13.4352C23.5831 13.6194 24.3124 13.9221 24.9883 14.3348C25.1826 14.4533 25.4327 14.4235 25.5938 14.2626L26.2643 13.5921C26.3362 13.521 26.4563 13.5203 26.5267 13.5906L28.3079 15.3717C28.3554 15.4192 28.3623 15.4747 28.3622 15.5035C28.3622 15.5316 28.3553 15.5856 28.3072 15.6331L27.6375 16.3051C27.4773 16.466 27.4476 16.7155 27.5656 16.9094C27.976 17.5839 28.2781 18.3135 28.4632 19.0782C28.5168 19.2993 28.7147 19.4551 28.9424 19.4551H29.8911C29.9937 19.4551 30.0771 19.5386 30.0771 19.6411V22.1594C30.0771 22.259 29.992 22.3431 29.8911 22.3431H28.9424C28.7148 22.3431 28.5168 22.4988 28.4632 22.72C28.2771 23.4883 27.9752 24.2179 27.566 24.8882C27.4475 25.0822 27.477 25.3321 27.6375 25.4931L28.3093 26.1672C28.3554 26.2129 28.3622 26.2676 28.3622 26.2961C28.3622 26.3245 28.3554 26.3794 28.3079 26.4266L26.5252 28.2093C26.4797 28.2552 26.4259 28.2622 26.3978 28.2623ZM0.500416 7.19344C0.230288 4.827 0.705002 3.01608 1.91144 1.81088C3.11787 0.60461 4.92895 0.129731 7.29457 0.399367C8.94348 0.587465 10.7948 1.12887 12.8183 2.013L12.16 1.2278C11.9851 1.01911 12.0124 0.708215 12.221 0.533242C12.4298 0.358434 12.7406 0.38575 12.9156 0.594356L15.0312 3.1178C15.0643 3.15562 15.0912 3.19803 15.1113 3.24323C15.123 3.26931 15.1322 3.29638 15.1391 3.32395C15.1663 3.43255 15.1567 3.55101 15.104 3.65896C15.0984 3.67053 15.0923 3.68185 15.0858 3.69284C15.0309 3.7866 14.9492 3.85584 14.8555 3.89611C14.8232 3.91006 14.7893 3.92056 14.7542 3.92729C14.7227 3.93344 14.6911 3.93803 14.6576 3.93623L11.3635 3.98249C11.3611 3.98249 11.3587 3.98249 11.3563 3.98249C11.0874 3.98249 10.8674 3.76626 10.8636 3.49646C10.8597 3.2242 11.0773 3.00041 11.3495 2.99656L12.5625 2.9795C10.5809 2.10472 8.7471 1.55716 7.18285 1.37874C5.13083 1.14462 3.59193 1.52459 2.60846 2.50798C1.62531 3.49014 1.24575 5.0288 1.48003 7.08139C1.71374 9.12782 2.57851 11.6354 3.98084 14.3328C4.10643 14.5744 4.01242 14.872 3.77084 14.9976C3.69816 15.0353 3.62039 15.0533 3.54378 15.0533C3.36569 15.0533 3.19375 14.9565 3.10597 14.7876C1.62785 11.9444 0.751186 9.38942 0.500416 7.19344ZM41.6004 7.29434C41.4119 8.94309 40.8704 10.794 39.9857 12.8179L40.7709 12.1597C40.9795 11.9849 41.2903 12.0122 41.4653 12.2207C41.6402 12.4294 41.6129 12.7403 41.4043 12.9153L38.8806 15.031C38.8435 15.0635 38.8019 15.0901 38.7577 15.11C38.7307 15.1221 38.7028 15.1318 38.6743 15.1389C38.6353 15.1486 38.5953 15.1536 38.5549 15.1536C38.4817 15.1536 38.4076 15.1373 38.3378 15.103C38.3276 15.0979 38.3176 15.0925 38.3077 15.0868C38.2106 15.0305 38.1395 14.9456 38.0995 14.8484C38.0877 14.8196 38.0785 14.7897 38.0723 14.7589C38.0655 14.7256 38.0621 14.6917 38.0623 14.6574L38.016 11.3633C38.0122 11.0911 38.2297 10.8673 38.502 10.8634H38.5091C38.7781 10.8634 38.9981 11.0797 39.0019 11.3495L39.0189 12.5626C39.8941 10.5806 40.4421 8.7467 40.6208 7.18261C40.8554 5.13052 40.4759 3.59161 39.4927 2.60839C38.5097 1.62524 36.9705 1.24577 34.9181 1.47997C32.8722 1.71359 30.3642 2.57836 27.6655 3.98077C27.4239 4.10652 27.1263 4.01235 27.0007 3.77069C26.8751 3.52911 26.9692 3.2315 27.2108 3.10591C30.0555 1.62762 32.611 0.750953 34.8063 0.500266C37.1723 0.230301 38.9837 0.70477 40.1898 1.91112C41.3963 3.11747 41.8708 4.92864 41.6004 7.29434ZM41.5004 34.806C41.7708 37.1719 41.2963 38.9833 40.0898 40.1896C39.1028 41.1767 37.7106 41.6739 35.9413 41.6739C35.5481 41.6739 35.1364 41.6494 34.7062 41.6002C33.0571 41.4117 31.2051 40.8699 29.1803 39.9851L29.8389 40.7708C30.0138 40.9794 29.9865 41.2903 29.7778 41.4653C29.5693 41.6402 29.2584 41.6128 29.0833 41.4042L26.9677 38.8807C26.9338 38.8421 26.9065 38.7988 26.8863 38.7525C26.8759 38.7285 26.8675 38.7039 26.8609 38.6789C26.832 38.5676 26.8418 38.4459 26.8969 38.3353C26.9012 38.3268 26.9055 38.3186 26.9102 38.3104C26.9661 38.213 27.0512 38.1407 27.1483 38.1004C27.1778 38.0881 27.2086 38.0785 27.2405 38.0721C27.2734 38.0653 27.3099 38.0617 27.3413 38.0622L30.6353 38.0159C30.9052 38.0155 31.1315 38.2296 31.1352 38.5019C31.1391 38.7742 30.9215 38.9979 30.6493 39.0018L29.4369 39.0189C31.4196 39.8941 33.2539 40.442 34.8182 40.6208C36.8707 40.8554 38.4095 40.4757 39.3927 39.4927C40.3758 38.5095 40.7554 36.9704 40.5208 34.9181C40.2869 32.8719 39.4215 30.364 38.0181 27.6655C37.8924 27.424 37.9863 27.1264 38.228 27.0007C38.4696 26.875 38.7672 26.9691 38.8928 27.2106C40.3721 30.055 41.2494 32.6103 41.5004 34.806ZM14.998 38.2277C15.1236 38.4692 15.0297 38.7668 14.7881 38.8925C11.945 40.3718 9.39006 41.2491 7.19458 41.5001C6.76465 41.5493 6.35261 41.5738 5.9596 41.5738C4.19018 41.5738 2.79836 41.0767 1.81128 40.0895C0.60476 38.883 0.129799 37.0718 0.399518 34.7061C0.587616 33.0567 1.12919 31.2045 2.01373 29.1798L1.22795 29.8386C1.01935 30.0135 0.708448 29.9862 0.533393 29.7775C0.358502 29.5689 0.385819 29.258 0.594506 29.083L3.11803 26.9673C3.15651 26.9336 3.19957 26.9064 3.24567 26.8863C3.26963 26.8758 3.29432 26.8673 3.31934 26.8607C3.43024 26.8319 3.55132 26.8413 3.66149 26.8957C3.67133 26.9006 3.68093 26.9057 3.69037 26.9111C3.78757 26.9672 3.85878 27.0521 3.89889 27.1491C3.91103 27.1785 3.92046 27.2092 3.92686 27.2407C3.93334 27.2734 3.93662 27.3073 3.93646 27.3409L3.98272 30.635C3.98658 30.9073 3.76903 31.1311 3.49677 31.1349C3.49439 31.1349 3.49201 31.1349 3.48963 31.1349C3.22065 31.1349 3.00065 30.9187 2.99687 30.6489L2.97981 29.4367C2.10503 31.4191 1.55747 33.2531 1.37905 34.8176C1.14494 36.8698 1.5249 38.409 2.5083 39.3923C3.49152 40.3755 5.03092 40.7549 7.08252 40.5204C9.12854 40.2865 11.6358 39.4211 14.3331 38.0177C14.5745 37.8922 14.8723 37.9861 14.998 38.2277ZM20.9994 33.0581C18.9159 33.0581 17.2208 34.7532 17.2208 36.8367C17.2208 38.9202 18.9159 40.6153 20.9994 40.6153C23.0829 40.6153 24.778 38.9202 24.778 36.8367C24.778 34.7532 23.0829 33.0581 20.9994 33.0581ZM20.9994 39.6293C19.4595 39.6293 18.2067 38.3766 18.2067 36.8367C18.2067 35.2967 19.4594 34.044 20.9994 34.044C22.5393 34.044 23.792 35.2967 23.792 36.8367C23.792 38.3766 22.5393 39.6293 20.9994 39.6293ZM2.5854 17.1206C1.86738 17.1206 1.28324 17.7037 1.28324 18.4205V23.378C1.28324 24.0947 1.86738 24.678 2.5854 24.678H7.54058C8.25729 24.678 8.84045 24.0948 8.84045 23.378V18.4205C8.84045 17.7038 8.25737 17.1206 7.54058 17.1206H2.5854ZM7.85443 18.4205V23.378C7.85443 23.5511 7.71367 23.692 7.54058 23.692H2.5854C2.41101 23.692 2.26926 23.5511 2.26926 23.378V18.4205C2.26926 18.2474 2.41109 18.1066 2.5854 18.1066H7.54058C7.71367 18.1066 7.85443 18.2474 7.85443 18.4205ZM20.9994 8.9403C23.0829 8.9403 24.778 7.2452 24.778 5.16177C24.778 3.07834 23.0829 1.38317 20.9994 1.38317C18.9159 1.38317 17.2208 3.07826 17.2208 5.16177C17.2208 7.24529 18.9159 8.9403 20.9994 8.9403ZM20.9994 2.3691C22.5393 2.3691 23.792 3.6218 23.792 5.16177C23.792 6.70175 22.5393 7.95436 20.9994 7.95436C19.4594 7.95436 18.2067 6.70166 18.2067 5.16177C18.2067 3.62188 19.4594 2.3691 20.9994 2.3691ZM39.4157 24.678C40.1324 24.678 40.7156 24.0948 40.7156 23.378V18.4205C40.7156 17.7038 40.1325 17.1206 39.4157 17.1206H34.4605C33.7425 17.1206 33.1584 17.7037 33.1584 18.4205V23.378C33.1584 24.0947 33.7425 24.678 34.4605 24.678H39.4157ZM34.1443 23.378V18.4205C34.1443 18.2474 34.2861 18.1066 34.4604 18.1066H39.4156C39.5887 18.1066 39.7295 18.2474 39.7295 18.4205V23.378C39.7295 23.5511 39.5887 23.692 39.4156 23.692H34.4604C34.286 23.692 34.1443 23.5511 34.1443 23.378Z" stroke="#7595E5" mask="url(#path-1-outside-1_1_3143)"/>
</svg>
