<svg width="42" height="42" viewBox="0 0 42 42" fill="none" xmlns="http://www.w3.org/2000/svg">
<path d="M10.6647 22.6242C12.0363 22.6242 13.2249 21.8277 13.7942 20.6727L17.5488 21.269C17.7875 22.9597 19.2444 24.2648 20.9998 24.2648C22.9218 24.2648 24.4862 22.7005 24.4862 20.7785C24.4862 20.3815 24.4189 20 24.2958 19.6448L27.454 16.1798C28.6451 16.9017 29.9937 17.2634 31.344 17.2634C33.266 17.2634 35.188 16.5317 36.6514 15.0683C38.0689 13.6508 38.8498 11.7657 38.8498 9.76086C38.8498 7.75602 38.0689 5.87094 36.6514 4.45344C35.2339 3.03594 33.3488 2.255 31.344 2.255C29.3391 2.255 27.454 3.03594 26.0365 4.45344C24.619 5.87094 23.8381 7.75602 23.8381 9.76086C23.8381 11.7657 24.5551 13.4884 25.8602 14.8837L23.0531 17.9632C22.4764 17.5415 21.7668 17.2922 20.9998 17.2922C19.6283 17.2922 18.4396 18.0887 17.8703 19.2429L14.1158 18.6465C13.8762 16.9558 12.4202 15.6507 10.6647 15.6507C8.74271 15.6507 7.17838 17.215 7.17838 19.137C7.17838 21.059 8.74271 22.6234 10.6647 22.6234V22.6242ZM27.486 5.90458C28.5163 4.87426 29.8863 4.30661 31.3431 4.30661C32.8 4.30661 34.1699 4.87426 35.2003 5.90458C36.2306 6.93489 36.7982 8.30481 36.7982 9.76169C36.7982 11.2186 36.2306 12.5885 35.2003 13.6188C33.0732 15.7459 29.6123 15.7459 27.486 13.6188C26.4557 12.5885 25.8881 11.2186 25.8881 9.76169C25.8881 8.30481 26.4557 6.93489 27.486 5.90458ZM20.9998 19.3438C21.7914 19.3438 22.4354 19.9877 22.4354 20.7793C22.4354 21.5709 21.7914 22.2148 20.9998 22.2148C20.2082 22.2148 19.5643 21.5709 19.5643 20.7793C19.5643 19.9877 20.2082 19.3438 20.9998 19.3438ZM10.6647 17.7023C11.4563 17.7023 12.1003 18.3463 12.1003 19.1379C12.1003 19.9295 11.4563 20.5734 10.6647 20.5734C9.8731 20.5734 9.22916 19.9295 9.22916 19.1379C9.22916 18.3463 9.8731 17.7023 10.6647 17.7023ZM37.8983 37.6933H35.6424V23.8965C35.6424 21.5217 33.7106 19.5898 31.3358 19.5898C28.961 19.5898 27.0291 21.5217 27.0291 23.8965V37.6933H25.3073V30.4598C25.3073 28.085 23.3755 26.1532 21.0006 26.1532C18.6258 26.1532 16.694 28.085 16.694 30.4598V37.6933H14.9722V28.8192C14.9722 26.4444 13.0403 24.5125 10.6655 24.5125C8.29072 24.5125 6.35889 26.4444 6.35889 28.8192V37.6933H4.10303C3.53701 37.6933 3.07764 38.1527 3.07764 38.7187C3.07764 39.2847 3.53701 39.7441 4.10303 39.7441H37.8991C38.4651 39.7441 38.9245 39.2847 38.9245 38.7187C38.9245 38.1527 38.4651 37.6933 37.8991 37.6933H37.8983ZM8.40885 37.6933V28.8192C8.40885 27.5756 9.42111 26.5633 10.6647 26.5633C11.9083 26.5633 12.9206 27.5756 12.9206 28.8192V37.6933H8.40885ZM18.744 37.6933V30.4598C18.744 29.2162 19.7562 28.204 20.9998 28.204C22.2434 28.204 23.2557 29.2162 23.2557 30.4598V37.6933H18.744ZM29.0791 37.6933V23.8965C29.0791 22.6529 30.0913 21.6406 31.3349 21.6406C32.5785 21.6406 33.5908 22.6529 33.5908 23.8965V37.6933H29.0791ZM28.1743 10.4811C27.7731 10.0808 27.7731 9.43192 28.1735 9.03079C28.5738 8.63047 29.2226 8.62965 29.6238 9.02997L30.5335 9.93805L33.0642 7.41067C33.4645 7.01036 34.1142 7.01118 34.5145 7.41149C34.9148 7.8118 34.914 8.46149 34.5137 8.8618L31.2587 12.1127C31.0585 12.3129 30.796 12.4129 30.5343 12.4129C30.2726 12.4129 30.0101 12.3129 29.81 12.1127L28.1759 10.4811H28.1743Z" fill="#7595E5"/>
</svg>
