<svg width="44" height="44" viewBox="0 0 44 44" fill="none" xmlns="http://www.w3.org/2000/svg">
<path d="M39.7373 0.75C41.6744 0.750246 43.2501 2.32582 43.25 4.2627V32.8301C43.25 34.7672 41.6735 36.3428 39.7363 36.3428H18.9805V39.7373C18.9805 41.6744 17.405 43.2499 15.4678 43.25H4.26367C2.32644 43.25 0.75 41.6743 0.75 39.7373V28.5293C0.750076 26.5923 2.32646 25.0166 4.26367 25.0166H7.66211V4.2627C7.66211 2.32568 9.23852 0.75 11.1758 0.75H39.7373ZM4.26367 26.8291C3.32618 26.8291 2.56262 27.5921 2.5625 28.5293V39.7373C2.5625 40.6742 3.32607 41.4375 4.26367 41.4375H15.4678C16.4054 41.4375 17.168 40.6742 17.168 39.7373V28.5293C17.1678 27.5921 16.4052 26.8292 15.4678 26.8291H4.26367ZM11.1758 2.5625C10.2382 2.5625 9.47461 3.32541 9.47461 4.2627V25.0166H15.4678C16.1078 25.0166 16.7063 25.1922 17.2227 25.4922L35.3789 7.34082H32.6172C32.1164 7.3407 31.711 6.9349 31.7109 6.43457C31.7109 5.93421 32.1164 5.52844 32.6172 5.52832H37.5674C38.0751 5.52848 38.4736 5.94612 38.4736 6.43457V11.3828C38.4736 11.8831 38.0682 12.2889 37.5674 12.2891C37.0665 12.2891 36.6611 11.8832 36.6611 11.3828V8.62109L18.5049 26.7744C18.8051 27.2908 18.9814 27.8891 18.9814 28.5293V34.5303H39.7373C40.616 34.53 41.3413 33.8594 41.4287 33.0039L41.4375 32.8301V4.2627C41.4375 3.32541 40.6739 2.5625 39.7363 2.5625H11.1758Z" fill="#7595E5" stroke="#7595E5" stroke-width="0.5"/>
</svg>
