<svg width="60" height="60" viewBox="0 0 60 60" fill="none" xmlns="http://www.w3.org/2000/svg">
<path d="M51.9506 18.2781L38.6194 20.9369C35.3288 21.5931 32.31 23.2731 30 25.6938C27.69 23.2731 24.6712 21.5931 21.3806 20.9369L8.04938 18.2781C7.22063 18.1131 6.36938 18.325 5.715 18.8631C5.0625 19.3994 4.6875 20.1906 4.6875 21.0363V44.5056C4.6875 45.8444 5.64 47.0031 6.95062 47.2638L21.0131 50.0688C24.2381 50.7119 27.1744 52.4538 29.28 54.9775C29.4525 55.1819 29.7375 55.3131 30 55.3131C30.2663 55.3131 30.5475 55.1819 30.72 54.9756C32.8256 52.4519 35.7619 50.71 38.9869 50.0669L53.0494 47.2619C54.3619 47.0013 55.3144 45.8425 55.3144 44.5038V21.0363C55.3144 20.1906 54.9394 19.3994 54.2869 18.8631C53.6306 18.325 52.7756 18.1113 51.9506 18.2781ZM29.0625 52.0638C26.9006 50.1363 24.2419 48.7994 21.3806 48.2294L7.31625 45.4244C6.87937 45.3363 6.5625 44.95 6.5625 44.5038V21.0363C6.5625 20.6519 6.77625 20.4175 6.90563 20.3125C7.07438 20.1738 7.28437 20.0988 7.5 20.0988C7.56188 20.0988 7.62188 20.1044 7.68375 20.1175L21.015 22.7763C24.1294 23.3969 26.9737 25.045 29.0625 27.43V52.0638ZM53.4375 44.5038C53.4375 44.9481 53.1206 45.3344 52.6838 45.4225L38.6213 48.2275C35.76 48.7975 33.1012 50.1344 30.9394 52.0619V27.43C33.03 25.045 35.8744 23.3969 38.9869 22.7763L52.3181 20.1175C52.5956 20.0613 52.8787 20.1363 53.0963 20.3125C53.2238 20.4175 53.4394 20.6519 53.4394 21.0363L53.4375 44.5038Z" fill="#B15252"/>
<path d="M37.9688 12.6562C37.9688 8.26125 34.3931 4.6875 30 4.6875C25.6069 4.6875 22.0312 8.26125 22.0312 12.6562C22.0312 17.0513 25.6069 20.625 30 20.625C34.3931 20.625 37.9688 17.0513 37.9688 12.6562ZM23.9062 12.6562C23.9062 9.29625 26.64 6.5625 30 6.5625C33.36 6.5625 36.0938 9.29625 36.0938 12.6562C36.0938 16.0162 33.36 18.75 30 18.75C26.64 18.75 23.9062 16.0162 23.9062 12.6562Z" fill="#B15252"/>
</svg>
