<svg width="60" height="60" viewBox="0 0 60 60" fill="none" xmlns="http://www.w3.org/2000/svg">
<path fill-rule="evenodd" clip-rule="evenodd" d="M37.8811 33.8358C41.6667 32.1844 44.7575 29.3135 46.6367 25.703C48.5159 22.0925 49.0698 17.9613 48.2056 13.9998C47.3414 10.0383 45.1116 6.48666 41.8889 3.93847C38.6662 1.39029 34.6459 0 30.5 0C26.3541 0 22.3338 1.39029 19.1111 3.93847C15.8884 6.48666 13.6586 10.0383 12.7944 13.9998C11.9302 17.9613 12.484 22.0925 14.3633 25.703C16.2425 29.3135 19.3333 32.1844 23.1189 33.8358C17.604 35.4032 12.7587 38.6768 9.3111 43.1647C5.86348 47.6526 3.99976 53.1124 4 58.7237C4 59.0622 4.13764 59.3868 4.38263 59.6262C4.62763 59.8655 4.95991 60 5.30638 60C5.65286 60 5.98514 59.8655 6.23014 59.6262C6.47513 59.3868 6.61277 59.0622 6.61277 58.7237C6.61277 55.659 7.23063 52.6244 8.43108 49.793C9.63152 46.9616 11.391 44.3889 13.6092 42.2218C15.8273 40.0548 18.4606 38.3358 21.3588 37.163C24.2569 35.9902 27.3631 35.3865 30.5 35.3865C33.6369 35.3865 36.7431 35.9902 39.6412 37.163C42.5394 38.3358 45.1727 40.0548 47.3908 42.2218C49.609 44.3889 51.3685 46.9616 52.5689 49.793C53.7694 52.6244 54.3872 55.659 54.3872 58.7237C54.3872 59.0622 54.5249 59.3868 54.7699 59.6262C55.0149 59.8655 55.3471 60 55.6936 60C56.0401 60 56.3724 59.8655 56.6174 59.6262C56.8624 59.3868 57 59.0622 57 58.7237C57.0002 53.1124 55.1365 47.6526 51.6889 43.1647C48.2413 38.6768 43.396 35.4032 37.8811 33.8358ZM15.0193 17.6843C15.0226 14.6914 15.9341 11.7666 17.6386 9.27976C19.3431 6.79292 21.7641 4.85569 24.5954 3.71298C27.4268 2.57027 30.5414 2.27341 33.5454 2.85992C36.5495 3.44644 39.3081 4.88999 41.4724 7.00807C43.6368 9.12616 45.1097 11.8237 45.705 14.7595C46.3003 17.6954 45.9911 20.7377 44.8167 23.502C43.6423 26.2662 41.6553 28.6281 39.107 30.2892C36.5587 31.9503 33.5634 32.8358 30.5 32.8339C26.3922 32.8322 22.4532 31.2373 19.5485 28.3995C16.6439 25.5617 15.0113 21.7134 15.0096 17.7002L15.0193 17.6843Z" fill="#B15252"/>
<path fill-rule="evenodd" clip-rule="evenodd" d="M36.0593 41.7404C35.9761 41.5853 35.8577 41.4461 35.711 41.3313C35.5644 41.2164 35.3925 41.1281 35.2055 41.0716C35.0186 41.0152 34.8204 40.9917 34.6228 41.0026C34.4251 41.0135 34.232 41.0585 34.0549 41.1351C33.8778 41.2116 33.7203 41.318 33.5918 41.4481C33.4632 41.5781 33.3663 41.7291 33.3067 41.8921C33.2471 42.0551 33.226 42.2268 33.2447 42.3969C33.2634 42.5671 33.3216 42.7322 33.4157 42.8826L37.6935 50.2658L29.9846 56.9151L22.2757 50.2658L26.5535 42.8826C26.6476 42.7322 26.7057 42.5671 26.7244 42.3969C26.7432 42.2268 26.7221 42.0551 26.6625 41.8921C26.6029 41.7291 26.5059 41.5781 26.3774 41.4481C26.2489 41.318 26.0914 41.2116 25.9143 41.1351C25.7372 41.0585 25.5441 41.0135 25.3464 41.0026C25.1487 40.9917 24.9506 41.0152 24.7636 41.0716C24.5767 41.1281 24.4048 41.2164 24.2581 41.3313C24.1115 41.4461 23.9931 41.5853 23.9099 41.7404L19.1552 49.9467C19.017 50.1861 18.9694 50.4568 19.0192 50.7207C19.0689 50.9847 19.2135 51.2284 19.4324 51.4176L28.9382 59.624C29.0756 59.7426 29.2387 59.8368 29.4182 59.901C29.5978 59.9652 29.7902 59.9983 29.9846 59.9983C30.1789 59.9983 30.3714 59.9652 30.5509 59.901C30.7305 59.8368 30.8936 59.7426 31.0309 59.624L40.5367 51.4176C40.7557 51.2284 40.9002 50.9847 40.95 50.7207C40.9997 50.4568 40.9522 50.1861 40.814 49.9467L36.0593 41.7404Z" fill="#B15252"/>
</svg>
