<svg width="60" height="60" viewBox="0 0 60 60" fill="none" xmlns="http://www.w3.org/2000/svg">
<path d="M53.625 40.8933V33.627C53.625 32.9603 53.0883 32.4208 52.425 32.4208H31.2V25.1515C36.7321 24.5479 41.0531 19.8282 41.0531 14.1106C41.0531 7.98398 36.0949 3 30 3C23.9051 3 18.9469 7.98398 18.9469 14.1106C18.9469 19.8282 23.2679 24.5479 28.8 25.1515V32.4208H7.57499C6.9117 32.4208 6.37498 32.9603 6.37498 33.627V40.8933C2.77023 41.4765 0 44.6004 0 48.3857C0 52.5839 3.39843 56 7.57499 56C11.7528 56 15.1512 52.5839 15.1512 48.3857C15.1512 44.6004 12.3808 41.4763 8.77499 40.8933V34.8332H28.8V40.8933C25.1952 41.4765 22.425 44.6004 22.425 48.3857C22.425 52.5839 25.8234 56 30 56C34.1766 56 37.575 52.5839 37.575 48.3857C37.575 44.6004 34.8048 41.4765 31.2 40.8933V34.8332H51.225V40.8933C47.6192 41.4763 44.8488 44.6004 44.8488 48.3857C44.8488 52.5839 48.2472 56 52.425 56C56.6016 56 60 52.5839 60 48.3857C60 44.6004 57.2298 41.4765 53.625 40.8933ZM12.7512 48.3857C12.7512 51.254 10.4297 53.5875 7.57499 53.5875C4.72147 53.5875 2.40001 51.254 2.40001 48.3857C2.40001 45.5173 4.72147 43.1838 7.57499 43.1838C10.4297 43.1838 12.7512 45.5173 12.7512 48.3857ZM21.3468 14.1106C21.3468 9.31389 25.2281 5.41247 30 5.41247C34.7719 5.41247 38.6532 9.31389 38.6532 14.1106C38.6532 18.9061 34.7719 22.8075 30 22.8075C25.2281 22.8075 21.3468 18.9061 21.3468 14.1106ZM35.175 48.3857C35.175 51.254 32.8535 53.5875 30 53.5875C27.1465 53.5875 24.825 51.254 24.825 48.3857C24.825 45.5173 27.1465 43.1838 30 43.1838C32.8535 43.1838 35.175 45.5173 35.175 48.3857ZM52.425 53.5875C49.5703 53.5875 47.2488 51.254 47.2488 48.3857C47.2488 45.5173 49.5703 43.1838 52.425 43.1838C55.2785 43.1838 57.6 45.5173 57.6 48.3857C57.6 51.254 55.2785 53.5875 52.425 53.5875Z" fill="#B15252"/>
</svg>
