<svg width="60" height="60" viewBox="0 0 60 60" fill="none" xmlns="http://www.w3.org/2000/svg">
<path d="M13.125 19.6211H6.58125C6.075 19.6211 5.67188 20.0242 5.67188 20.5305V25.5461C5.67188 26.0523 6.075 26.4555 6.58125 26.4555H13.125C13.6312 26.4555 14.0344 26.0523 14.0344 25.5461V20.5305C14.0344 20.0336 13.6219 19.6211 13.125 19.6211ZM12.2156 24.6367H7.49062V21.4398H12.2156V24.6367Z" fill="#A276E5"/>
<path d="M25.1406 19.6211H18.5969C18.0906 19.6211 17.6875 20.0242 17.6875 20.5305V25.5461C17.6875 26.0523 18.0906 26.4555 18.5969 26.4555H25.1406C25.6469 26.4555 26.05 26.0523 26.05 25.5461V20.5305C26.05 20.0336 25.6469 19.6211 25.1406 19.6211ZM24.2312 24.6367H19.5062V21.4398H24.2312V24.6367Z" fill="#A276E5"/>
<path d="M42.6438 26.4555H49.1875C49.6938 26.4555 50.0969 26.0523 50.0969 25.5461V20.5305C50.0969 20.0242 49.6938 19.6211 49.1875 19.6211H42.6438C42.1375 19.6211 41.7344 20.0242 41.7344 20.5305V25.5461C41.7344 26.0523 42.1469 26.4555 42.6438 26.4555ZM43.5531 21.4398H48.2781V24.6367H43.5531V21.4398Z" fill="#A276E5"/>
<path d="M13.125 28.5547H6.58125C6.075 28.5547 5.67188 28.9578 5.67188 29.4641V34.4797C5.67188 34.9859 6.075 35.3891 6.58125 35.3891H13.125C13.6312 35.3891 14.0344 34.9859 14.0344 34.4797V29.4641C14.0344 28.9578 13.6219 28.5547 13.125 28.5547ZM12.2156 33.5703H7.49062V30.3734H12.2156V33.5703Z" fill="#A276E5"/>
<path d="M25.1406 28.5547H18.5969C18.0906 28.5547 17.6875 28.9578 17.6875 29.4641V34.4797C17.6875 34.9859 18.0906 35.3891 18.5969 35.3891H25.1406C25.6469 35.3891 26.05 34.9859 26.05 34.4797V29.4641C26.05 28.9578 25.6469 28.5547 25.1406 28.5547ZM24.2312 33.5703H19.5062V30.3734H24.2312V33.5703Z" fill="#A276E5"/>
<path d="M25.1406 37.4883H18.5969C18.0906 37.4883 17.6875 37.8914 17.6875 38.3977V43.4133C17.6875 43.9195 18.0906 44.3227 18.5969 44.3227H25.1406C25.6469 44.3227 26.05 43.9195 26.05 43.4133V38.3977C26.05 37.8914 25.6469 37.4883 25.1406 37.4883ZM24.2312 42.5039H19.5062V39.307H24.2312V42.5039Z" fill="#A276E5"/>
<path d="M59.0906 40.6305H57.6281C57.3188 39.2898 56.7844 38.0055 56.0531 36.843L57.0938 35.8023C57.45 35.4461 57.45 34.8742 57.0938 34.518L55.7719 33.1961V16.4242C55.7719 16.4148 55.7719 16.4148 55.7719 16.4055V9.32734C55.7719 7.82734 54.4875 6.59922 52.9031 6.59922H49.575V5.08047C49.575 3.45859 48.2531 2.13672 46.6313 2.13672H46.3406C44.7188 2.13672 43.3969 3.45859 43.3969 5.08047V6.59922H30.975V5.08047C30.975 3.45859 29.6531 2.13672 28.0312 2.13672H27.7406C26.1187 2.13672 24.7969 3.45859 24.7969 5.08047V6.59922H12.3656V5.08047C12.3656 3.45859 11.0437 2.13672 9.42188 2.13672H9.14062C7.51875 2.13672 6.19688 3.45859 6.19688 5.08047V6.59922H2.86875C1.29375 6.59922 0 7.81797 0 9.32734V16.4055V16.4242V45.4961C0 47.1086 1.32188 48.4211 2.93438 48.4211H34.2375C34.4719 48.9555 34.7437 49.4805 35.0531 49.9773L34.0125 51.018C33.6562 51.3742 33.6562 51.9461 34.0125 52.3023L36.6562 54.9461C36.825 55.1148 37.0594 55.2086 37.3031 55.2086C37.5469 55.2086 37.7719 55.1148 37.95 54.9461L38.9906 53.9055C40.1531 54.6367 41.4469 55.1711 42.7781 55.4805V56.943C42.7781 57.4492 43.1812 57.8523 43.6875 57.8523H47.4281C47.9344 57.8523 48.3375 57.4492 48.3375 56.943V55.4805C49.6781 55.1711 50.9625 54.6367 52.125 53.9055L53.1656 54.9461C53.5219 55.3023 54.0938 55.3023 54.45 54.9461L57.0938 52.3023C57.45 51.9461 57.45 51.3742 57.0938 51.018L56.0531 49.9773C56.7844 48.8148 57.3188 47.5211 57.6281 46.1805H59.0906C59.5969 46.1805 60 45.7773 60 45.2711V41.5398C60 41.043 59.5969 40.6305 59.0906 40.6305ZM45.2156 5.08047C45.2156 4.46172 45.7219 3.95547 46.3406 3.95547H46.6313C47.25 3.95547 47.7562 4.46172 47.7562 5.08047V9.92734C47.7562 10.5461 47.25 11.0523 46.6313 11.0523H46.3406C45.7219 11.0523 45.2156 10.5461 45.2156 9.92734V5.08047ZM27.7406 3.95547H28.0312C28.65 3.95547 29.1562 4.46172 29.1562 5.08047V7.48984V7.50859V7.52734V9.93672C29.1562 10.5555 28.65 11.0617 28.0312 11.0617H27.7406C27.1219 11.0617 26.6156 10.5555 26.6156 9.93672V7.52734C26.6156 7.51797 26.6156 7.51797 26.6156 7.50859C26.6156 7.49922 26.6156 7.49922 26.6156 7.48984V5.08047C26.6156 4.46172 27.1219 3.95547 27.7406 3.95547ZM8.01562 5.08047C8.01562 4.46172 8.52188 3.95547 9.14062 3.95547H9.43125C10.05 3.95547 10.5563 4.46172 10.5563 5.08047V9.92734C10.5563 10.5461 10.05 11.0523 9.43125 11.0523H9.14062C8.52188 11.0523 8.01562 10.5461 8.01562 9.92734V5.08047ZM2.86875 8.41797H6.19688V9.93672C6.19688 11.5586 7.51875 12.8805 9.14062 12.8805H9.43125C11.0531 12.8805 12.375 11.5586 12.375 9.93672V8.41797H24.8062V9.93672C24.8062 11.5586 26.1281 12.8805 27.75 12.8805H28.0406C29.6625 12.8805 30.9844 11.5586 30.9844 9.93672V8.41797H43.4156V9.93672C43.4156 11.5586 44.7375 12.8805 46.3594 12.8805H46.65C48.2719 12.8805 49.5938 11.5586 49.5938 9.93672V8.41797H52.9219C53.5031 8.41797 53.9719 8.83047 53.9719 9.32734V15.5148H1.81875V9.32734C1.81875 8.82109 2.29688 8.41797 2.86875 8.41797ZM2.93438 46.6023C2.31563 46.6023 1.81875 46.1055 1.81875 45.4961V17.3336H53.9531V31.6398C53.6719 31.593 53.3812 31.6586 53.1656 31.8742L52.125 32.9148C50.9625 32.1836 49.6688 31.6492 48.3375 31.3398V29.8773C48.3375 29.3711 47.9344 28.968 47.4281 28.968H43.6875C43.1812 28.968 42.7781 29.3711 42.7781 29.8773V31.3398C41.4375 31.6492 40.1531 32.1836 38.9906 32.9148L37.95 31.8742C37.7812 31.7055 37.5469 31.6117 37.3031 31.6117C37.0594 31.6117 36.8344 31.7055 36.6562 31.8742L34.0125 34.518C33.6562 34.8742 33.6562 35.4461 34.0125 35.8023L35.0531 36.843C34.3219 38.0055 33.7875 39.2992 33.4781 40.6398H32.0156C31.5094 40.6398 31.1063 41.043 31.1063 41.5492V45.2805C31.1063 45.7867 31.5094 46.1898 32.0156 46.1898H33.4781C33.5062 46.3305 33.5531 46.4711 33.5906 46.6117H2.93438V46.6023ZM58.1813 44.3711H56.8781C56.4281 44.3711 56.0531 44.6992 55.9781 45.1305C55.725 46.7242 55.0875 48.2523 54.1406 49.5555C53.8781 49.9211 53.9156 50.418 54.2344 50.7273L55.1625 51.6555L53.8031 53.0148L52.8844 52.0961C52.5656 51.7773 52.0687 51.7398 51.7125 52.0023C50.4 52.9398 48.8719 53.5773 47.2781 53.8398C46.8375 53.9148 46.5187 54.2898 46.5187 54.7398V56.043H44.5969V54.7398C44.5969 54.2992 44.2781 53.9148 43.8375 53.8398C42.2437 53.5773 40.7156 52.9398 39.4125 52.0023C39.0469 51.7398 38.55 51.7773 38.2406 52.0961L37.3125 53.0242L35.9531 51.6648L36.8719 50.7461C37.1906 50.4273 37.2281 49.9398 36.9656 49.5742C36.0094 48.2336 35.3906 46.743 35.1281 45.1398C35.0531 44.6992 34.6781 44.3805 34.2281 44.3805H32.925V42.468H34.2281C34.6687 42.468 35.0531 42.1492 35.1281 41.7086C35.3906 40.0961 36.0094 38.6055 36.9656 37.2742C37.2281 36.9086 37.1813 36.4211 36.8719 36.1023L35.9531 35.1836L37.3125 33.8242L38.2406 34.7523C38.5594 35.0711 39.0563 35.1086 39.4125 34.8461C40.7156 33.8992 42.2531 33.2711 43.8375 33.0086C44.2781 32.9336 44.5969 32.5586 44.5969 32.1086V30.8055H46.5187V32.1086C46.5187 32.5492 46.8375 32.9336 47.2781 33.0086C48.8719 33.2711 50.4 33.9086 51.7125 34.8461C52.0781 35.1086 52.575 35.0617 52.8844 34.7523L53.8031 33.8336L54.2062 34.2367L54.2344 34.2648L55.1625 35.193L54.2344 36.1211C53.9156 36.4398 53.8781 36.9367 54.1406 37.293C55.0875 38.5961 55.725 40.1242 55.9781 41.718C56.0531 42.1586 56.4281 42.4773 56.8781 42.4773H58.1813V44.3711Z" fill="#A276E5"/>
<path d="M45.55 35.4258C41.1438 35.4258 37.5625 39.007 37.5625 43.4133C37.5625 47.8195 41.1438 51.4008 45.55 51.4008C49.9563 51.4008 53.5375 47.8195 53.5375 43.4133C53.5375 39.007 49.9563 35.4258 45.55 35.4258ZM45.55 49.582C42.1469 49.582 39.3812 46.8164 39.3812 43.4133C39.3812 40.0102 42.1469 37.2445 45.55 37.2445C48.9531 37.2445 51.7187 40.0102 51.7187 43.4133C51.7187 46.8164 48.9531 49.582 45.55 49.582Z" fill="#A276E5"/>
<path d="M32.8047 25.6383C33.0391 25.6383 33.2734 25.5539 33.4516 25.3758L36.8266 22.0008C37.1828 21.6445 37.1828 21.0727 36.8266 20.7164C36.4703 20.3602 35.8984 20.3602 35.5422 20.7164L32.8141 23.4445L32.2703 22.9008C31.9141 22.5445 31.3422 22.5445 30.9859 22.9008C30.6297 23.257 30.6297 23.8289 30.9859 24.1852L32.1672 25.3664C32.3359 25.5445 32.5703 25.6383 32.8047 25.6383Z" fill="#A276E5"/>
<path d="M11.4875 38.577L8.75938 41.3051L8.21563 40.7613C7.85938 40.4051 7.2875 40.4051 6.93125 40.7613C6.575 41.1176 6.575 41.6895 6.93125 42.0457L8.1125 43.227C8.29062 43.4051 8.525 43.4895 8.75938 43.4895C8.99375 43.4895 9.22812 43.4051 9.40625 43.227L12.7812 39.852C13.1375 39.4957 13.1375 38.9238 12.7812 38.5676C12.425 38.2207 11.8438 38.2207 11.4875 38.577Z" fill="#A276E5"/>
</svg>
