<svg width="60" height="60" viewBox="0 0 60 60" fill="none" xmlns="http://www.w3.org/2000/svg">
<path d="M15.2188 36.0281C14.7031 36.0281 14.2812 35.6063 14.2812 35.0906V26.0625C14.2812 25.5469 14.7031 25.125 15.2188 25.125H19.0625C20.5531 25.125 21.7625 26.2031 21.7625 27.5344V29.1C21.7625 30.4313 20.5531 31.5094 19.0625 31.5094H16.1563V35.0812C16.1563 35.6062 15.7344 36.0281 15.2188 36.0281ZM16.1563 29.6344H19.0625C19.55 29.6344 19.8875 29.3531 19.8875 29.1V27.5344C19.8875 27.2813 19.55 27 19.0625 27H16.1563V29.6344Z" fill="#A276E5"/>
<path d="M20.8117 36.0296C20.5023 36.0296 20.1929 35.8702 20.0148 35.589L17.2117 31.0796C16.9398 30.639 17.071 30.0577 17.5117 29.7859C17.9523 29.514 18.5242 29.6452 18.8054 30.0859L21.6085 34.5952C21.8804 35.0359 21.7492 35.6171 21.3085 35.889C21.1585 35.9827 20.9804 36.0296 20.8117 36.0296Z" fill="#A276E5"/>
<path d="M28.725 36.2062H24.1875C23.6719 36.2062 23.25 35.7844 23.25 35.2687V26.0625C23.25 25.5469 23.6719 25.125 24.1875 25.125H29.025C29.5406 25.125 29.9625 25.5469 29.9625 26.0625C29.9625 26.5781 29.5406 27 29.025 27H25.125V34.3406H28.7344C29.25 34.3406 29.6719 34.7625 29.6719 35.2781C29.6719 35.7938 29.25 36.2062 28.725 36.2062Z" fill="#A276E5"/>
<path d="M29.025 31.6016H24.1875C23.6719 31.6016 23.25 31.1797 23.25 30.6641C23.25 30.1484 23.6719 29.7266 24.1875 29.7266H29.025C29.5406 29.7266 29.9625 30.1484 29.9625 30.6641C29.9625 31.1797 29.5406 31.6016 29.025 31.6016Z" fill="#A276E5"/>
<path d="M37.775 36.2062C37.4656 36.2062 37.1656 36.0469 36.9875 35.775L32.7969 29.25V35.2687C32.7969 35.7844 32.375 36.2062 31.8594 36.2062C31.3438 36.2062 30.9219 35.7844 30.9219 35.2687V26.0625C30.9219 25.65 31.1938 25.2844 31.5969 25.1625C31.9906 25.05 32.4219 25.2094 32.6469 25.5563L36.8375 32.0813V26.0625C36.8375 25.5469 37.2594 25.125 37.775 25.125C38.2906 25.125 38.7125 25.5469 38.7125 26.0625V35.2781C38.7125 35.6906 38.4406 36.0563 38.0375 36.1781C37.9531 36.1969 37.8688 36.2062 37.775 36.2062Z" fill="#A276E5"/>
<path d="M46.8547 27H40.2734C39.7578 27 39.3359 26.5781 39.3359 26.0625C39.3359 25.5469 39.7578 25.125 40.2734 25.125H46.8547C47.3703 25.125 47.7922 25.5469 47.7922 26.0625C47.7922 26.5781 47.3797 27 46.8547 27Z" fill="#A276E5"/>
<path d="M43.5781 36.0281C43.0625 36.0281 42.6406 35.6063 42.6406 35.0906V26.0625C42.6406 25.5469 43.0625 25.125 43.5781 25.125C44.0938 25.125 44.5156 25.5469 44.5156 26.0625V35.0906C44.5156 35.6063 44.0938 36.0281 43.5781 36.0281Z" fill="#A276E5"/>
<path d="M35.1562 20.043C34.6406 20.043 34.2188 19.6211 34.2188 19.1055V12.918C34.2188 12.4023 34.6406 11.9805 35.1562 11.9805H37.7906C38.9719 11.9805 39.9375 12.8523 39.9375 13.9305V14.9992C39.9375 16.0773 38.9719 16.9492 37.7906 16.9492H36.0938V19.1055C36.0938 19.6305 35.6812 20.043 35.1562 20.043ZM36.0938 15.0742H37.7906C37.9594 15.0742 38.0531 14.9992 38.0625 14.9711L38.0531 13.9305C38.0625 13.9305 37.9594 13.8555 37.7812 13.8555H36.0938V15.0742Z" fill="#A276E5"/>
<path d="M39.0007 20.0437C38.6913 20.0437 38.382 19.8843 38.2038 19.6031L36.282 16.5093C36.0101 16.0687 36.1413 15.4874 36.582 15.2156C37.0226 14.9437 37.6038 15.0749 37.8757 15.5156L39.7976 18.6093C40.0695 19.0499 39.9382 19.6312 39.4976 19.9031C39.3382 20.0062 39.1695 20.0437 39.0007 20.0437Z" fill="#A276E5"/>
<path d="M22.2344 20.043C21.7188 20.043 21.2969 19.6211 21.2969 19.1055V12.918C21.2969 12.4023 21.7188 11.9805 22.2344 11.9805H25.5625C26.0781 11.9805 26.5 12.4023 26.5 12.918C26.5 13.4336 26.0781 13.8555 25.5625 13.8555H23.1719V19.1055C23.1719 19.6305 22.75 20.043 22.2344 20.043Z" fill="#A276E5"/>
<path d="M25.5625 17.2969H22.2344C21.7188 17.2969 21.2969 16.875 21.2969 16.3594C21.2969 15.8438 21.7188 15.4219 22.2344 15.4219H25.5625C26.0781 15.4219 26.5 15.8438 26.5 16.3594C26.5 16.875 26.0781 17.2969 25.5625 17.2969Z" fill="#A276E5"/>
<path d="M31.3938 20.043H28.9562C28.1219 20.043 27.4375 19.3586 27.4375 18.5242V13.4992C27.4375 12.6648 28.1219 11.9805 28.9562 11.9805H31.3938C32.2281 11.9805 32.9125 12.6648 32.9125 13.4992V18.5242C32.9125 19.368 32.2281 20.043 31.3938 20.043ZM29.3125 18.168H31.0375V13.8555H29.3125V18.168Z" fill="#A276E5"/>
<path d="M11.3094 57.4877C7.1 57.4877 3.95 57.4783 3.59375 57.4783C3.07812 57.4783 2.65625 57.0564 2.65625 56.5408C2.65625 56.0252 3.07812 55.6033 3.59375 55.6033C3.84687 55.6033 28.7375 55.6783 34.4562 55.4064C39.8187 55.1627 43.8969 51.1595 43.9438 51.122L55.2313 40.3783C55.6344 39.9377 55.5688 38.3814 54.9313 37.7252C54.7906 37.5845 54.3688 37.1439 53.2156 38.147L45.9313 43.6127C43.325 45.572 40.0906 46.6502 36.8281 46.6502H28.3438C27.8281 46.6502 27.4062 46.2283 27.4062 45.7127C27.4062 45.197 27.8281 44.7752 28.3438 44.7752H36.8281C39.6875 44.7752 42.5187 43.8283 44.8156 42.1127L52.0531 36.6845C54.3219 34.7252 55.8781 35.9908 56.3 36.422C57.5844 37.7533 57.725 40.4627 56.5812 41.7002L45.2563 52.4627C45.0875 52.6314 40.6531 57.0002 34.55 57.2814C30.7906 57.4595 19.2031 57.4877 11.3094 57.4877Z" fill="#A276E5"/>
<path d="M35.975 46.6498C35.4594 46.6498 35.0375 46.228 35.0375 45.7123C35.0375 45.2436 35.375 44.8592 35.825 44.7842C35.8906 44.5405 35.8906 43.903 35.4969 43.1623C35.1594 42.5342 34.3344 41.4655 32.5812 41.4561H26.4687C23.7594 41.3061 22.5219 42.2248 21.0875 43.2936C19.5781 44.4092 17.8719 45.6748 14.5437 45.6748C14.4969 45.6748 14.45 45.6748 14.4031 45.6748L6.5 45.6561C5.98437 45.6561 5.5625 45.2342 5.5625 44.7186C5.5625 44.203 5.98437 43.7811 6.5 43.7811L14.4125 43.7998H14.5344C17.2531 43.7998 18.575 42.8155 19.9719 41.7842C21.4812 40.6592 23.1969 39.3936 26.525 39.5811H32.5906C36.1156 39.5998 37.7469 42.5155 37.7469 44.4748C37.7281 45.9748 36.8469 46.6498 35.975 46.6498Z" fill="#A276E5"/>
<path d="M12.8312 45.6836C12.5875 45.6836 12.3531 45.5898 12.1656 45.4117C7.44062 40.668 4.84375 34.368 4.84375 27.6648C4.84375 13.7992 16.1313 2.51172 29.9969 2.51172C43.8625 2.51172 55.1406 13.7992 55.1406 27.6648C55.1406 31.4055 54.3438 34.9961 52.7594 38.343C52.5438 38.8117 51.9812 39.018 51.5125 38.793C51.0437 38.568 50.8469 38.0148 51.0625 37.5461C52.525 34.4523 53.2562 31.1336 53.2562 27.6742C53.2656 14.8305 42.8312 4.38672 29.9969 4.38672C17.1625 4.38672 6.71875 14.8305 6.71875 27.6648C6.71875 33.8617 9.12812 39.693 13.4969 44.0805C13.8625 44.4461 13.8625 45.0461 13.4969 45.4117C13.3094 45.5898 13.075 45.6836 12.8312 45.6836Z" fill="#A276E5"/>
</svg>
