<svg width="60" height="60" viewBox="0 0 60 60" fill="none" xmlns="http://www.w3.org/2000/svg">
<path fill-rule="evenodd" clip-rule="evenodd" d="M14.4823 48.6069H4.49986C4.11322 48.6069 3.79688 48.234 3.79688 47.7782V9.1178C3.79688 8.66199 4.11322 8.28906 4.49986 8.28906H14.4823C14.8689 8.28906 15.1853 8.66199 15.1853 9.1178V47.7782C15.1853 48.234 14.8689 48.6069 14.4823 48.6069ZM5.20285 46.9495H13.7793V9.94653H5.20285V46.9495Z" fill="#A276E5"/>
<path fill-rule="evenodd" clip-rule="evenodd" d="M14.4812 22.824C14.2703 22.824 14.0945 22.7411 13.9539 22.5754L4.00664 9.6886C3.72545 9.35711 3.7606 8.81843 4.04179 8.48694C4.32299 8.19688 4.77993 8.23832 5.02598 8.56981L15.0084 21.4566C15.2544 21.7881 15.2193 22.3268 14.9381 22.6168C14.7975 22.7826 14.6569 22.824 14.4812 22.824Z" fill="#A276E5"/>
<path fill-rule="evenodd" clip-rule="evenodd" d="M4.49873 35.7159C4.35814 35.7159 4.18239 35.6745 4.04179 35.5087C3.7606 35.2187 3.72545 34.68 4.00664 34.3485L13.9539 21.4617C14.2 21.1302 14.6569 21.0888 14.9381 21.4203C15.2193 21.7103 15.2544 22.249 15.0084 22.5805L5.02598 35.4673C4.88538 35.633 4.70963 35.7159 4.49873 35.7159Z" fill="#A276E5"/>
<path fill-rule="evenodd" clip-rule="evenodd" d="M14.4812 48.6065C14.2703 48.6065 14.0945 48.5237 13.9539 48.3579L4.00664 35.4711C3.72545 35.1396 3.7606 34.601 4.04179 34.3109C4.32299 33.9794 4.77993 34.0208 5.02598 34.3523L15.0084 47.2391C15.2544 47.5706 15.2193 48.1093 14.9381 48.3994C14.7975 48.5651 14.6569 48.6065 14.4812 48.6065Z" fill="#A276E5"/>
<path fill-rule="evenodd" clip-rule="evenodd" d="M4.49873 22.824C4.35814 22.824 4.18239 22.7826 4.04179 22.6168C3.7606 22.3268 3.72545 21.7881 4.00664 21.4566L13.9539 8.56981C14.2 8.23832 14.6569 8.19688 14.9381 8.48694C15.2193 8.81843 15.2544 9.35711 15.0084 9.6886L5.02598 22.5754C4.88538 22.7411 4.70963 22.824 4.49873 22.824Z" fill="#A276E5"/>
<path fill-rule="evenodd" clip-rule="evenodd" d="M14.4812 35.7159C14.2703 35.7159 14.0945 35.633 13.9539 35.4673L4.00664 22.5805C3.72545 22.249 3.7606 21.7103 4.04179 21.4203C4.32299 21.0888 4.77993 21.1302 5.02598 21.4617L15.0084 34.3485C15.2544 34.68 15.2193 35.2187 14.9381 35.5087C14.7975 35.6745 14.6569 35.7159 14.4812 35.7159Z" fill="#A276E5"/>
<path fill-rule="evenodd" clip-rule="evenodd" d="M4.49873 48.6065C4.35814 48.6065 4.18239 48.5651 4.04179 48.3994C3.7606 48.1093 3.72545 47.5706 4.00664 47.2391L13.9539 34.3523C14.2 34.0208 14.6569 33.9794 14.9381 34.3109C15.2193 34.601 15.2544 35.1396 15.0084 35.4711L5.02598 48.3579C4.88538 48.5237 4.70963 48.6065 4.49873 48.6065Z" fill="#A276E5"/>
<path fill-rule="evenodd" clip-rule="evenodd" d="M55.4628 48.6069H45.5155C45.1288 48.6069 44.8125 48.234 44.8125 47.7782V9.1178C44.8125 8.66199 45.1288 8.28906 45.5155 8.28906H55.4628C55.8494 8.28906 56.1658 8.66199 56.1658 9.1178V47.7782C56.1658 48.234 55.8494 48.6069 55.4628 48.6069ZM46.2185 46.9495H54.7598V9.94653H46.2185V46.9495Z" fill="#A276E5"/>
<path fill-rule="evenodd" clip-rule="evenodd" d="M55.4674 22.824C55.2916 22.824 55.0807 22.7411 54.9401 22.5754L44.9929 9.6886C44.7468 9.35711 44.7468 8.81843 45.028 8.48694C45.3444 8.19688 45.7661 8.23832 46.0473 8.56981L55.9946 21.4566C56.2407 21.7881 56.2407 22.3268 55.9595 22.6168C55.8189 22.7826 55.6431 22.824 55.4674 22.824Z" fill="#A276E5"/>
<path fill-rule="evenodd" clip-rule="evenodd" d="M45.5201 35.7159C45.3444 35.7159 45.1686 35.6745 45.028 35.5087C44.7468 35.2187 44.7468 34.68 44.9929 34.3485L54.9401 21.4617C55.2213 21.1302 55.6783 21.0888 55.9595 21.4203C56.2407 21.7103 56.2407 22.249 55.9946 22.5805L46.0473 35.4673C45.9067 35.633 45.6958 35.7159 45.5201 35.7159Z" fill="#A276E5"/>
<path fill-rule="evenodd" clip-rule="evenodd" d="M55.4674 48.6065C55.2916 48.6065 55.0807 48.5237 54.9401 48.3579L44.9929 35.4711C44.7468 35.1396 44.7468 34.601 45.028 34.3109C45.3444 33.9794 45.7661 34.0208 46.0473 34.3523L55.9946 47.2391C56.2407 47.5706 56.2407 48.1093 55.9595 48.3994C55.8189 48.5651 55.6431 48.6065 55.4674 48.6065Z" fill="#A276E5"/>
<path fill-rule="evenodd" clip-rule="evenodd" d="M45.5201 22.824C45.3444 22.824 45.1686 22.7826 45.028 22.6168C44.7468 22.3268 44.7468 21.7881 44.9929 21.4566L54.9401 8.56981C55.2213 8.23832 55.6783 8.19688 55.9595 8.48694C56.2407 8.81843 56.2407 9.35711 55.9946 9.6886L46.0473 22.5754C45.9067 22.7411 45.6958 22.824 45.5201 22.824Z" fill="#A276E5"/>
<path fill-rule="evenodd" clip-rule="evenodd" d="M55.4674 35.7159C55.2916 35.7159 55.0807 35.633 54.9401 35.4673L44.9929 22.5805C44.7468 22.249 44.7468 21.7103 45.028 21.4203C45.3444 21.0888 45.7661 21.1302 46.0473 21.4617L55.9946 34.3485C56.2407 34.68 56.2407 35.2187 55.9595 35.5087C55.8189 35.6745 55.6431 35.7159 55.4674 35.7159Z" fill="#A276E5"/>
<path fill-rule="evenodd" clip-rule="evenodd" d="M45.5201 48.6065C45.3444 48.6065 45.1686 48.5651 45.028 48.3994C44.7468 48.1093 44.7468 47.5706 44.9929 47.2391L54.9401 34.3523C55.2213 34.0208 55.6783 33.9794 55.9595 34.3109C56.2407 34.601 56.2407 35.1396 55.9946 35.4711L46.0473 48.3579C45.9067 48.5237 45.6958 48.6065 45.5201 48.6065Z" fill="#A276E5"/>
<path fill-rule="evenodd" clip-rule="evenodd" d="M55.4683 9.9448H4.50172C4.22052 9.9448 3.93933 9.73761 3.83388 9.36468C3.76358 9.03319 3.86903 8.66026 4.11507 8.45308L13.746 0.165747C13.8866 0.0828733 14.0272 0 14.1678 0H45.7319C45.8725 0 46.0131 0.0828733 46.1186 0.165747L55.8901 8.45308C56.1362 8.66026 56.2416 9.03319 56.1362 9.36468C56.0659 9.73761 55.7847 9.9448 55.4683 9.9448ZM6.68098 8.28733H53.2891L45.4859 1.65747H14.4138L6.68098 8.28733Z" fill="#A276E5"/>
<path fill-rule="evenodd" clip-rule="evenodd" d="M14.1639 9.9448C13.7773 9.9448 13.4609 9.57187 13.4609 9.11606V0.828733C13.4609 0.37293 13.7773 0 14.1639 0C14.5506 0 14.8669 0.37293 14.8669 0.828733V9.11606C14.8669 9.57187 14.5506 9.9448 14.1639 9.9448Z" fill="#A276E5"/>
<path fill-rule="evenodd" clip-rule="evenodd" d="M20.4921 9.9448C20.1054 9.9448 19.7891 9.57187 19.7891 9.11606V0.828733C19.7891 0.37293 20.1054 0 20.4921 0C20.8787 0 21.195 0.37293 21.195 0.828733V9.11606C21.195 9.57187 20.8787 9.9448 20.4921 9.9448Z" fill="#A276E5"/>
<path fill-rule="evenodd" clip-rule="evenodd" d="M26.7811 9.9448C26.3945 9.9448 26.0781 9.57187 26.0781 9.11606V0.828733C26.0781 0.37293 26.3945 0 26.7811 0C27.1678 0 27.4841 0.37293 27.4841 0.828733V9.11606C27.4841 9.57187 27.1678 9.9448 26.7811 9.9448Z" fill="#A276E5"/>
<path fill-rule="evenodd" clip-rule="evenodd" d="M33.1092 9.9448C32.7226 9.9448 32.4062 9.57187 32.4062 9.11606V0.828733C32.4062 0.37293 32.7226 0 33.1092 0C33.4959 0 33.8122 0.37293 33.8122 0.828733V9.11606C33.8122 9.57187 33.4959 9.9448 33.1092 9.9448Z" fill="#A276E5"/>
<path fill-rule="evenodd" clip-rule="evenodd" d="M39.4061 9.9448C39.0195 9.9448 38.7031 9.57187 38.7031 9.11606V0.828733C38.7031 0.37293 39.0195 0 39.4061 0C39.7928 0 40.1091 0.37293 40.1091 0.828733V9.11606C40.1091 9.57187 39.7928 9.9448 39.4061 9.9448Z" fill="#A276E5"/>
<path fill-rule="evenodd" clip-rule="evenodd" d="M45.7264 9.9448C45.3398 9.9448 45.0234 9.57187 45.0234 9.11606V0.828733C45.0234 0.37293 45.3398 0 45.7264 0C46.1131 0 46.4294 0.37293 46.4294 0.828733V9.11606C46.4294 9.57187 46.1131 9.9448 45.7264 9.9448Z" fill="#A276E5"/>
<path fill-rule="evenodd" clip-rule="evenodd" d="M59.297 55.5305H0.702988C0.316344 55.5305 0 55.1576 0 54.7018V47.7819C0 47.3261 0.316344 46.9531 0.702988 46.9531H20.9842C21.3708 46.9531 21.6872 47.3261 21.6872 47.7819V50.2266C21.6872 50.6824 21.3708 51.0554 20.9842 51.0554H18.1722V53.873H42.7768V51.0554H39.9649C39.5782 51.0554 39.2619 50.6824 39.2619 50.2266V47.7819C39.2619 47.3261 39.5782 46.9531 39.9649 46.9531H59.297C59.6837 46.9531 60 47.3261 60 47.7819V54.7018C60 55.1576 59.6837 55.5305 59.297 55.5305ZM44.1828 53.873H58.594V48.6106H40.6678V49.3979H43.4798C43.8664 49.3979 44.1828 49.7708 44.1828 50.2266V53.873ZM1.40598 53.873H16.7663V50.2266C16.7663 49.7708 17.0826 49.3979 17.4692 49.3979H20.2812V48.6106H1.40598V53.873Z" fill="#A276E5"/>
<path fill-rule="evenodd" clip-rule="evenodd" d="M45.5211 14.4153H14.4842C14.0976 14.4153 13.7812 14.0423 13.7812 13.5865C13.7812 13.0893 14.0976 12.7578 14.4842 12.7578H45.5211C45.9078 12.7578 46.2241 13.0893 46.2241 13.5865C46.2241 14.0423 45.9078 14.4153 45.5211 14.4153Z" fill="#A276E5"/>
<path fill-rule="evenodd" clip-rule="evenodd" d="M19.3358 18.5199C18.9492 18.5199 18.6328 18.147 18.6328 17.6911V13.5475C18.6328 13.0917 18.9492 12.7188 19.3358 12.7188C19.7224 12.7188 20.0388 13.0917 20.0388 13.5475V17.6911C20.0388 18.147 19.7224 18.5199 19.3358 18.5199Z" fill="#A276E5"/>
<path fill-rule="evenodd" clip-rule="evenodd" d="M21.2999 21.7075H17.328C16.9413 21.7075 16.625 21.3345 16.625 20.8787V19.2627C16.625 17.9367 17.5389 16.8594 18.6988 16.8594H19.9642C21.089 16.8594 22.0029 17.9367 22.0029 19.2627V20.8787C22.0029 21.3345 21.6865 21.7075 21.2999 21.7075ZM18.031 20.05H20.5969V19.2627C20.5969 18.8483 20.3157 18.5168 19.9642 18.5168H18.6988C18.3122 18.5168 18.031 18.8483 18.031 19.2627V20.05Z" fill="#A276E5"/>
<path fill-rule="evenodd" clip-rule="evenodd" d="M29.9842 18.5199C29.5976 18.5199 29.2812 18.147 29.2812 17.6911V13.5475C29.2812 13.0917 29.5976 12.7188 29.9842 12.7188C30.3709 12.7188 30.6872 13.0917 30.6872 13.5475V17.6911C30.6872 18.147 30.3709 18.5199 29.9842 18.5199Z" fill="#A276E5"/>
<path fill-rule="evenodd" clip-rule="evenodd" d="M31.9874 21.7075H28.0155C27.6288 21.7075 27.3125 21.3345 27.3125 20.8787V19.2627C27.3125 17.9367 28.2264 16.8594 29.3512 16.8594H30.6517C31.7765 16.8594 32.6904 17.9367 32.6904 19.2627V20.8787C32.6904 21.3345 32.374 21.7075 31.9874 21.7075ZM28.7185 20.05H31.2844V19.2627C31.2844 18.8483 31.0032 18.5168 30.6517 18.5168H29.3512C28.9997 18.5168 28.7185 18.8483 28.7185 19.2627V20.05Z" fill="#A276E5"/>
<path fill-rule="evenodd" clip-rule="evenodd" d="M40.6717 18.5199C40.2851 18.5199 39.9688 18.147 39.9688 17.6911V13.5475C39.9688 13.0917 40.2851 12.7188 40.6717 12.7188C41.0584 12.7188 41.3747 13.0917 41.3747 13.5475V17.6911C41.3747 18.147 41.0584 18.5199 40.6717 18.5199Z" fill="#A276E5"/>
<path fill-rule="evenodd" clip-rule="evenodd" d="M42.6358 21.7075H38.6639C38.2773 21.7075 37.9609 21.3345 37.9609 20.8787V19.2627C37.9609 17.9367 38.8748 16.8594 40.0348 16.8594H41.3001C42.4249 16.8594 43.3388 17.9367 43.3388 19.2627V20.8787C43.3388 21.3345 43.0224 21.7075 42.6358 21.7075ZM39.3669 20.05H41.9328V19.2627C41.9328 18.8483 41.6516 18.5168 41.3001 18.5168H40.0348C39.6833 18.5168 39.3669 18.8483 39.3669 19.2627V20.05Z" fill="#A276E5"/>
<path fill-rule="evenodd" clip-rule="evenodd" d="M39.9649 51.0491H20.9842C20.5976 51.0491 20.2812 50.6761 20.2812 50.2203V45.7037C20.2812 45.2479 20.5976 44.875 20.9842 44.875H39.9649C40.3515 44.875 40.6679 45.2479 40.6679 45.7037V50.2203C40.6679 50.6761 40.3515 51.0491 39.9649 51.0491ZM21.6872 49.3916H39.2619V46.5325H21.6872V49.3916Z" fill="#A276E5"/>
<path fill-rule="evenodd" clip-rule="evenodd" d="M43.4792 55.5311H17.4686C17.082 55.5311 16.7656 55.1581 16.7656 54.7023V50.2272C16.7656 49.7714 17.082 49.3984 17.4686 49.3984H43.4792C43.8658 49.3984 44.1821 49.7714 44.1821 50.2272V54.7023C44.1821 55.1581 43.8658 55.5311 43.4792 55.5311ZM18.1716 53.8736H42.7762V51.0559H18.1716V53.8736Z" fill="#A276E5"/>
<path fill-rule="evenodd" clip-rule="evenodd" d="M45.8025 59.9998H15.1171C14.7304 59.9998 14.4141 59.6269 14.4141 59.1711V54.6959C14.4141 54.2401 14.7304 53.8672 15.1171 53.8672H45.8025C46.1891 53.8672 46.5055 54.2401 46.5055 54.6959V59.1711C46.5055 59.6269 46.1891 59.9998 45.8025 59.9998ZM15.82 58.3423H45.0995V55.5247H15.82V58.3423Z" fill="#A276E5"/>
</svg>
