<svg width="60" height="60" viewBox="0 0 60 60" fill="none" xmlns="http://www.w3.org/2000/svg">
<g clip-path="url(#clip0_7292_3645)">
<path d="M10.3125 18.75C10.5611 18.75 10.7996 18.6512 10.9754 18.4754C11.1512 18.2996 11.25 18.0611 11.25 17.8125C11.25 17.5639 11.1512 17.3254 10.9754 17.1496C10.7996 16.9738 10.5611 16.875 10.3125 16.875H8.4375C8.18886 16.875 7.9504 16.9738 7.77459 17.1496C7.59877 17.3254 7.5 17.5639 7.5 17.8125V47.8125C7.5 48.0611 7.59877 48.2996 7.77459 48.4754C7.9504 48.6512 8.18886 48.75 8.4375 48.75H51.5625C51.8111 48.75 52.0496 48.6512 52.2254 48.4754C52.4012 48.2996 52.5 48.0611 52.5 47.8125V17.8125C52.5 17.5639 52.4012 17.3254 52.2254 17.1496C52.0496 16.9738 51.8111 16.875 51.5625 16.875H49.6875C49.4389 16.875 49.2004 16.9738 49.0246 17.1496C48.8488 17.3254 48.75 17.5639 48.75 17.8125C48.75 18.0611 48.8488 18.2996 49.0246 18.4754C49.2004 18.6512 49.4389 18.75 49.6875 18.75H50.625V46.875H9.375V18.75H10.3125Z" fill="#A276E5"/>
<path d="M15.9375 35.625H44.0625C44.8084 35.625 45.5238 35.3287 46.0512 34.8012C46.5787 34.2738 46.875 33.5584 46.875 32.8125V6.5625C46.875 5.81658 46.5787 5.10121 46.0512 4.57376C45.5238 4.04632 44.8084 3.75 44.0625 3.75H41.25V2.8125C41.25 2.06658 40.9537 1.35121 40.4262 0.823762C39.8988 0.296316 39.1834 0 38.4375 0C37.6916 0 36.9762 0.296316 36.4488 0.823762C35.9213 1.35121 35.625 2.06658 35.625 2.8125V3.75H24.375V2.8125C24.375 2.06658 24.0787 1.35121 23.5512 0.823762C23.0238 0.296316 22.3084 0 21.5625 0C20.8166 0 20.1012 0.296316 19.5738 0.823762C19.0463 1.35121 18.75 2.06658 18.75 2.8125V3.75H15.9375C15.1916 3.75 14.4762 4.04632 13.9488 4.57376C13.4213 5.10121 13.125 5.81658 13.125 6.5625V32.8125C13.125 33.5584 13.4213 34.2738 13.9488 34.8012C14.4762 35.3287 15.1916 35.625 15.9375 35.625ZM15.9375 5.625H18.75V6.5625C18.75 7.30842 19.0463 8.02379 19.5738 8.55124C20.1012 9.07868 20.8166 9.375 21.5625 9.375C21.8111 9.375 22.0496 9.27623 22.2254 9.10041C22.4012 8.9246 22.5 8.68614 22.5 8.4375C22.5 8.18886 22.4012 7.9504 22.2254 7.77459C22.0496 7.59877 21.8111 7.5 21.5625 7.5C21.3139 7.5 21.0754 7.40123 20.8996 7.22541C20.7238 7.0496 20.625 6.81114 20.625 6.5625V2.8125C20.625 2.56386 20.7238 2.3254 20.8996 2.14959C21.0754 1.97377 21.3139 1.875 21.5625 1.875C21.8111 1.875 22.0496 1.97377 22.2254 2.14959C22.4012 2.3254 22.5 2.56386 22.5 2.8125V4.6875C22.5 4.93614 22.5988 5.1746 22.7746 5.35041C22.9504 5.52623 23.1889 5.625 23.4375 5.625H35.625V6.5625C35.625 7.30842 35.9213 8.02379 36.4488 8.55124C36.9762 9.07868 37.6916 9.375 38.4375 9.375C38.6861 9.375 38.9246 9.27623 39.1004 9.10041C39.2762 8.9246 39.375 8.68614 39.375 8.4375C39.375 8.18886 39.2762 7.9504 39.1004 7.77459C38.9246 7.59877 38.6861 7.5 38.4375 7.5C38.1889 7.5 37.9504 7.40123 37.7746 7.22541C37.5988 7.0496 37.5 6.81114 37.5 6.5625V2.8125C37.5 2.56386 37.5988 2.3254 37.7746 2.14959C37.9504 1.97377 38.1889 1.875 38.4375 1.875C38.6861 1.875 38.9246 1.97377 39.1004 2.14959C39.2762 2.3254 39.375 2.56386 39.375 2.8125V4.6875C39.375 4.93614 39.4738 5.1746 39.6496 5.35041C39.8254 5.52623 40.0639 5.625 40.3125 5.625H44.0625C44.3111 5.625 44.5496 5.72377 44.7254 5.89959C44.9012 6.0754 45 6.31386 45 6.5625V32.8125C45 33.0611 44.9012 33.2996 44.7254 33.4754C44.5496 33.6512 44.3111 33.75 44.0625 33.75H15.9375C15.6889 33.75 15.4504 33.6512 15.2746 33.4754C15.0988 33.2996 15 33.0611 15 32.8125V13.125H42.1875C42.4361 13.125 42.6746 13.0262 42.8504 12.8504C43.0262 12.6746 43.125 12.4361 43.125 12.1875C43.125 11.9389 43.0262 11.7004 42.8504 11.5246C42.6746 11.3488 42.4361 11.25 42.1875 11.25H15V6.5625C15 6.31386 15.0988 6.0754 15.2746 5.89959C15.4504 5.72377 15.6889 5.625 15.9375 5.625Z" fill="#A276E5"/>
<path d="M23.4375 16.875H19.6875C19.4389 16.875 19.2004 16.9738 19.0246 17.1496C18.8488 17.3254 18.75 17.5639 18.75 17.8125V21.5625C18.75 21.8111 18.8488 22.0496 19.0246 22.2254C19.2004 22.4012 19.4389 22.5 19.6875 22.5H23.4375C23.6861 22.5 23.9246 22.4012 24.1004 22.2254C24.2762 22.0496 24.375 21.8111 24.375 21.5625V17.8125C24.375 17.5639 24.2762 17.3254 24.1004 17.1496C23.9246 16.9738 23.6861 16.875 23.4375 16.875ZM22.5 20.625H20.625V18.75H22.5V20.625Z" fill="#A276E5"/>
<path d="M31.875 16.875H28.125C27.8764 16.875 27.6379 16.9738 27.4621 17.1496C27.2863 17.3254 27.1875 17.5639 27.1875 17.8125V21.5625C27.1875 21.8111 27.2863 22.0496 27.4621 22.2254C27.6379 22.4012 27.8764 22.5 28.125 22.5H31.875C32.1236 22.5 32.3621 22.4012 32.5379 22.2254C32.7137 22.0496 32.8125 21.8111 32.8125 21.5625V17.8125C32.8125 17.5639 32.7137 17.3254 32.5379 17.1496C32.3621 16.9738 32.1236 16.875 31.875 16.875ZM30.9375 20.625H29.0625V18.75H30.9375V20.625Z" fill="#A276E5"/>
<path d="M40.3125 16.875H36.5625C36.3139 16.875 36.0754 16.9738 35.8996 17.1496C35.7238 17.3254 35.625 17.5639 35.625 17.8125V21.5625C35.625 21.8111 35.7238 22.0496 35.8996 22.2254C36.0754 22.4012 36.3139 22.5 36.5625 22.5H40.3125C40.5611 22.5 40.7996 22.4012 40.9754 22.2254C41.1512 22.0496 41.25 21.8111 41.25 21.5625V17.8125C41.25 17.5639 41.1512 17.3254 40.9754 17.1496C40.7996 16.9738 40.5611 16.875 40.3125 16.875ZM39.375 20.625H37.5V18.75H39.375V20.625Z" fill="#A276E5"/>
<path d="M23.4375 24.375H19.6875C19.4389 24.375 19.2004 24.4738 19.0246 24.6496C18.8488 24.8254 18.75 25.0639 18.75 25.3125V29.0625C18.75 29.3111 18.8488 29.5496 19.0246 29.7254C19.2004 29.9012 19.4389 30 19.6875 30H23.4375C23.6861 30 23.9246 29.9012 24.1004 29.7254C24.2762 29.5496 24.375 29.3111 24.375 29.0625V25.3125C24.375 25.0639 24.2762 24.8254 24.1004 24.6496C23.9246 24.4738 23.6861 24.375 23.4375 24.375ZM22.5 28.125H20.625V26.25H22.5V28.125Z" fill="#A276E5"/>
<path d="M31.875 24.375H28.125C27.8764 24.375 27.6379 24.4738 27.4621 24.6496C27.2863 24.8254 27.1875 25.0639 27.1875 25.3125V29.0625C27.1875 29.3111 27.2863 29.5496 27.4621 29.7254C27.6379 29.9012 27.8764 30 28.125 30H31.875C32.1236 30 32.3621 29.9012 32.5379 29.7254C32.7137 29.5496 32.8125 29.3111 32.8125 29.0625V25.3125C32.8125 25.0639 32.7137 24.8254 32.5379 24.6496C32.3621 24.4738 32.1236 24.375 31.875 24.375ZM30.9375 28.125H29.0625V26.25H30.9375V28.125Z" fill="#A276E5"/>
<path d="M40.3125 24.375H36.5625C36.3139 24.375 36.0754 24.4738 35.8996 24.6496C35.7238 24.8254 35.625 25.0639 35.625 25.3125V29.0625C35.625 29.3111 35.7238 29.5496 35.8996 29.7254C36.0754 29.9012 36.3139 30 36.5625 30H40.3125C40.5611 30 40.7996 29.9012 40.9754 29.7254C41.1512 29.5496 41.25 29.3111 41.25 29.0625V25.3125C41.25 25.0639 41.1512 24.8254 40.9754 24.6496C40.7996 24.4738 40.5611 24.375 40.3125 24.375ZM39.375 28.125H37.5V26.25H39.375V28.125Z" fill="#A276E5"/>
<path d="M59.0625 50.625H56.25V17.8125C56.2485 16.5698 55.7542 15.3783 54.8754 14.4996C53.9967 13.6208 52.8052 13.1265 51.5625 13.125H49.6875C49.4389 13.125 49.2004 13.2238 49.0246 13.3996C48.8488 13.5754 48.75 13.8139 48.75 14.0625C48.75 14.3111 48.8488 14.5496 49.0246 14.7254C49.2004 14.9012 49.4389 15 49.6875 15H51.5625C52.3084 15 53.0238 15.2963 53.5512 15.8238C54.0787 16.3512 54.375 17.0666 54.375 17.8125V50.625H5.625V17.8125C5.625 17.0666 5.92132 16.3512 6.44876 15.8238C6.97621 15.2963 7.69158 15 8.4375 15H10.3125C10.5611 15 10.7996 14.9012 10.9754 14.7254C11.1512 14.5496 11.25 14.3111 11.25 14.0625C11.25 13.8139 11.1512 13.5754 10.9754 13.3996C10.7996 13.2238 10.5611 13.125 10.3125 13.125H8.4375C7.19475 13.1265 6.00334 13.6208 5.12458 14.4996C4.24583 15.3783 3.75149 16.5698 3.75 17.8125V50.625H0.9375C0.68886 50.625 0.450403 50.7238 0.274587 50.8996C0.0987721 51.0754 0 51.3139 0 51.5625L0 57.1875C0 57.9334 0.296316 58.6488 0.823762 59.1762C1.35121 59.7037 2.06658 60 2.8125 60H7.5C7.74864 60 7.9871 59.9012 8.16291 59.7254C8.33873 59.5496 8.4375 59.3111 8.4375 59.0625C8.4375 58.8139 8.33873 58.5754 8.16291 58.3996C7.9871 58.2238 7.74864 58.125 7.5 58.125H2.8125C2.56386 58.125 2.3254 58.0262 2.14959 57.8504C1.97377 57.6746 1.875 57.4361 1.875 57.1875V52.5H58.125V57.1875C58.125 57.4361 58.0262 57.6746 57.8504 57.8504C57.6746 58.0262 57.4361 58.125 57.1875 58.125H11.25C11.0014 58.125 10.7629 58.2238 10.5871 58.3996C10.4113 58.5754 10.3125 58.8139 10.3125 59.0625C10.3125 59.3111 10.4113 59.5496 10.5871 59.7254C10.7629 59.9012 11.0014 60 11.25 60H57.1875C57.9334 60 58.6488 59.7037 59.1762 59.1762C59.7037 58.6488 60 57.9334 60 57.1875V51.5625C60 51.3139 59.9012 51.0754 59.7254 50.8996C59.5496 50.7238 59.3111 50.625 59.0625 50.625Z" fill="#A276E5"/>
</g>
<defs>
<clipPath id="clip0_7292_3645">
<rect width="60" height="60" fill="white"/>
</clipPath>
</defs>
</svg>
