<svg width="567" height="484" viewBox="0 0 567 484" fill="none" xmlns="http://www.w3.org/2000/svg">
<mask id="path-1-inside-1_5296_5975" fill="white">
<path d="M567 468C567 476.837 559.837 484 551 484H441C432.163 484 425 476.837 425 468V420.018C425 411.181 417.837 404.018 409 404.018H299.516C290.679 404.018 283.516 396.854 283.516 388.018V358.937C283.516 350.1 276.352 342.937 267.516 342.937H157.52C148.683 342.937 141.52 335.773 141.52 326.937V319.524C141.52 310.688 134.356 303.524 125.52 303.524H16C7.16345 303.524 0 296.361 0 287.524V194.743C0 185.907 7.16344 178.743 16 178.743H125.52C134.356 178.743 141.52 171.58 141.52 162.743V140.885C141.52 132.048 148.683 124.885 157.52 124.885H267.516C276.352 124.885 283.516 117.721 283.516 108.885V83.4863C283.516 74.6498 290.679 67.4863 299.516 67.4863H409C417.837 67.4863 425 60.3229 425 51.4863V16C425 7.16344 432.163 0 441 0H551C559.837 0 567 7.16344 567 16V468Z"/>
</mask>
<path d="M567 468C567 476.837 559.837 484 551 484H441C432.163 484 425 476.837 425 468V420.018C425 411.181 417.837 404.018 409 404.018H299.516C290.679 404.018 283.516 396.854 283.516 388.018V358.937C283.516 350.1 276.352 342.937 267.516 342.937H157.52C148.683 342.937 141.52 335.773 141.52 326.937V319.524C141.52 310.688 134.356 303.524 125.52 303.524H16C7.16345 303.524 0 296.361 0 287.524V194.743C0 185.907 7.16344 178.743 16 178.743H125.52C134.356 178.743 141.52 171.58 141.52 162.743V140.885C141.52 132.048 148.683 124.885 157.52 124.885H267.516C276.352 124.885 283.516 117.721 283.516 108.885V83.4863C283.516 74.6498 290.679 67.4863 299.516 67.4863H409C417.837 67.4863 425 60.3229 425 51.4863V16C425 7.16344 432.163 0 441 0H551C559.837 0 567 7.16344 567 16V468Z" fill="url(#paint0_linear_5296_5975)"/>
<path d="M551 484V483H441V484V485H551V484ZM425 468H426V420.018H425H424V468H425ZM409 404.018V403.018H299.516V404.018V405.018H409V404.018ZM283.516 388.018H284.516V358.937H283.516H282.516V388.018H283.516ZM267.516 342.937V341.937H157.52V342.937V343.937H267.516V342.937ZM141.52 326.937H142.52V319.524H141.52H140.52V326.937H141.52ZM125.52 303.524V302.524H16V303.524V304.524H125.52V303.524ZM0 287.524H1V194.743H0H-1V287.524H0ZM16 178.743V179.743H125.52V178.743V177.743H16V178.743ZM141.52 162.743H142.52V140.885H141.52H140.52V162.743H141.52ZM157.52 124.885V125.885H267.516V124.885V123.885H157.52V124.885ZM283.516 108.885H284.516V83.4863H283.516H282.516V108.885H283.516ZM299.516 67.4863V68.4863H409V67.4863V66.4863H299.516V67.4863ZM425 51.4863H426V16H425H424V51.4863H425ZM441 0V1H551V0V-1H441V0ZM567 16H566V468H567H568V16H567ZM551 0V1C559.284 1 566 7.71573 566 16H567H568C568 6.61116 560.389 -1 551 -1V0ZM425 16H426C426 7.71573 432.716 1 441 1V0V-1C431.611 -1 424 6.61116 424 16H425ZM409 67.4863V68.4863C418.389 68.4863 426 60.8752 426 51.4863H425H424C424 59.7706 417.284 66.4863 409 66.4863V67.4863ZM283.516 83.4863H284.516C284.516 75.2021 291.231 68.4863 299.516 68.4863V67.4863V66.4863C290.127 66.4863 282.516 74.0975 282.516 83.4863H283.516ZM267.516 124.885V125.885C276.904 125.885 284.516 118.274 284.516 108.885H283.516H282.516C282.516 117.169 275.8 123.885 267.516 123.885V124.885ZM141.52 140.885H142.52C142.52 132.6 149.235 125.885 157.52 125.885V124.885V123.885C148.131 123.885 140.52 131.496 140.52 140.885H141.52ZM125.52 178.743V179.743C134.908 179.743 142.52 172.132 142.52 162.743H141.52H140.52C140.52 171.027 133.804 177.743 125.52 177.743V178.743ZM0 194.743H1C1 186.459 7.71573 179.743 16 179.743V178.743V177.743C6.61116 177.743 -1 185.354 -1 194.743H0ZM16 303.524V302.524C7.71573 302.524 1 295.809 1 287.524H0H-1C-1 296.913 6.61116 304.524 16 304.524V303.524ZM141.52 319.524H142.52C142.52 310.136 134.908 302.524 125.52 302.524V303.524V304.524C133.804 304.524 140.52 311.24 140.52 319.524H141.52ZM157.52 342.937V341.937C149.235 341.937 142.52 335.221 142.52 326.937H141.52H140.52C140.52 336.325 148.131 343.937 157.52 343.937V342.937ZM283.516 358.937H284.516C284.516 349.548 276.904 341.937 267.516 341.937V342.937V343.937C275.8 343.937 282.516 350.652 282.516 358.937H283.516ZM299.516 404.018V403.018C291.231 403.018 284.516 396.302 284.516 388.018H283.516H282.516C282.516 397.406 290.127 405.018 299.516 405.018V404.018ZM425 420.018H426C426 410.629 418.389 403.018 409 403.018V404.018V405.018C417.284 405.018 424 411.733 424 420.018H425ZM441 484V483C432.716 483 426 476.284 426 468H425H424C424 477.389 431.611 485 441 485V484ZM551 484V485C560.389 485 568 477.389 568 468H567H566C566 476.284 559.284 483 551 483V484Z" fill="url(#paint1_linear_5296_5975)" mask="url(#path-1-inside-1_5296_5975)"/>
<rect x="291" y="399" width="324" height="130" rx="8" transform="rotate(-90 291 399)" fill="white"/>
<rect x="150" y="332" width="196" height="130" rx="8" transform="rotate(-90 150 332)" fill="white"/>
<rect x="8" y="295" width="108" height="130" rx="8" transform="rotate(-90 8 295)" fill="white"/>
<rect x="431" y="476" width="468" height="130" rx="8" transform="rotate(-90 431 476)" fill="white"/>
<path d="M33.812 252.07V250.71H37.852C38.932 250.71 39.8853 250.477 40.712 250.01C41.5386 249.53 42.1853 248.877 42.652 248.05C43.1186 247.21 43.352 246.25 43.352 245.17C43.352 244.09 43.1186 243.137 42.652 242.31C42.1853 241.484 41.5386 240.837 40.712 240.37C39.8853 239.89 38.932 239.65 37.852 239.65H33.852V238.31H37.892C38.892 238.31 39.812 238.484 40.652 238.83C41.5053 239.164 42.2453 239.644 42.872 240.27C43.512 240.884 44.0053 241.61 44.352 242.45C44.6986 243.277 44.872 244.19 44.872 245.19C44.872 246.164 44.6986 247.07 44.352 247.91C44.0053 248.75 43.5186 249.484 42.892 250.11C42.2653 250.724 41.5253 251.204 40.672 251.55C39.832 251.897 38.9186 252.07 37.932 252.07H33.812ZM32.912 252.07V238.31H34.372V252.07H32.912ZM52.2971 252.27C51.3504 252.27 50.5038 252.057 49.7571 251.63C49.0104 251.204 48.4171 250.617 47.9771 249.87C47.5504 249.124 47.3371 248.284 47.3371 247.35C47.3371 246.43 47.5504 245.604 47.9771 244.87C48.4038 244.124 48.9838 243.537 49.7171 243.11C50.4504 242.684 51.2704 242.47 52.1771 242.47C53.0304 242.47 53.7838 242.664 54.4371 243.05C55.1038 243.437 55.6238 243.977 55.9971 244.67C56.3838 245.35 56.5771 246.137 56.5771 247.03C56.5771 247.137 56.5704 247.264 56.5571 247.41C56.5438 247.544 56.5171 247.704 56.4771 247.89H48.3371V246.69H55.7171L55.2171 247.13C55.2304 246.437 55.1104 245.844 54.8571 245.35C54.6171 244.844 54.2638 244.457 53.7971 244.19C53.3438 243.91 52.7904 243.77 52.1371 243.77C51.4571 243.77 50.8638 243.917 50.3571 244.21C49.8504 244.504 49.4504 244.917 49.1571 245.45C48.8771 245.97 48.7371 246.59 48.7371 247.31C48.7371 248.03 48.8838 248.664 49.1771 249.21C49.4838 249.757 49.9038 250.184 50.4371 250.49C50.9838 250.797 51.6104 250.95 52.3171 250.95C52.8904 250.95 53.4171 250.85 53.8971 250.65C54.3771 250.437 54.7838 250.124 55.1171 249.71L56.0171 250.63C55.5771 251.15 55.0304 251.557 54.3771 251.85C53.7371 252.13 53.0438 252.27 52.2971 252.27ZM62.1988 252.27C61.6922 252.27 61.2055 252.204 60.7388 252.07C60.2722 251.924 59.8455 251.724 59.4588 251.47C59.0855 251.217 58.7588 250.917 58.4788 250.57L59.3788 249.65C59.7522 250.104 60.1722 250.444 60.6388 250.67C61.1188 250.884 61.6522 250.99 62.2388 250.99C62.8655 250.99 63.3522 250.87 63.6988 250.63C64.0588 250.39 64.2388 250.057 64.2388 249.63C64.2388 249.23 64.1122 248.917 63.8588 248.69C63.6055 248.464 63.2788 248.284 62.8788 248.15C62.4922 248.017 62.0788 247.89 61.6388 247.77C61.1988 247.637 60.7788 247.477 60.3788 247.29C59.9788 247.09 59.6522 246.817 59.3988 246.47C59.1588 246.124 59.0388 245.67 59.0388 245.11C59.0388 244.577 59.1655 244.117 59.4188 243.73C59.6855 243.33 60.0588 243.024 60.5388 242.81C61.0322 242.584 61.6122 242.47 62.2788 242.47C62.9855 242.47 63.6255 242.597 64.1988 242.85C64.7722 243.104 65.2322 243.477 65.5788 243.97L64.6788 244.87C64.3988 244.51 64.0455 244.237 63.6188 244.05C63.2055 243.85 62.7388 243.75 62.2188 243.75C61.6188 243.75 61.1588 243.87 60.8388 244.11C60.5322 244.337 60.3788 244.637 60.3788 245.01C60.3788 245.37 60.5055 245.657 60.7588 245.87C61.0122 246.07 61.3322 246.237 61.7188 246.37C62.1188 246.49 62.5388 246.617 62.9788 246.75C63.4188 246.87 63.8388 247.037 64.2388 247.25C64.6388 247.45 64.9588 247.73 65.1988 248.09C65.4522 248.437 65.5788 248.91 65.5788 249.51C65.5788 250.35 65.2722 251.024 64.6588 251.53C64.0588 252.024 63.2388 252.27 62.1988 252.27ZM72.6754 252.27C71.7554 252.27 70.9221 252.057 70.1754 251.63C69.4421 251.19 68.8554 250.597 68.4154 249.85C67.9887 249.104 67.7754 248.27 67.7754 247.35C67.7754 246.43 67.9887 245.604 68.4154 244.87C68.8554 244.124 69.4421 243.537 70.1754 243.11C70.9221 242.684 71.7554 242.47 72.6754 242.47C73.3821 242.47 74.0421 242.604 74.6554 242.87C75.2687 243.137 75.7887 243.51 76.2154 243.99L75.2954 244.93C74.9754 244.57 74.5887 244.297 74.1354 244.11C73.6821 243.91 73.1954 243.81 72.6754 243.81C72.0087 243.81 71.4154 243.964 70.8954 244.27C70.3754 244.577 69.9687 244.997 69.6754 245.53C69.3821 246.05 69.2354 246.657 69.2354 247.35C69.2354 248.03 69.3821 248.644 69.6754 249.19C69.9687 249.724 70.3754 250.144 70.8954 250.45C71.4154 250.757 72.0087 250.91 72.6754 250.91C73.2087 250.91 73.7021 250.817 74.1554 250.63C74.6087 250.43 74.9954 250.15 75.3154 249.79L76.2554 250.73C75.8154 251.224 75.2821 251.604 74.6554 251.87C74.0421 252.137 73.3821 252.27 72.6754 252.27ZM78.8196 252.07V242.67H80.2196V252.07H78.8196ZM80.2196 246.59L79.6396 246.33C79.6396 245.144 79.9263 244.204 80.4996 243.51C81.0863 242.817 81.8863 242.47 82.8996 242.47C83.3663 242.47 83.7929 242.557 84.1796 242.73C84.5663 242.89 84.9263 243.15 85.2596 243.51L84.3396 244.49C84.1129 244.237 83.8596 244.057 83.5796 243.95C83.3129 243.844 83.0063 243.79 82.6596 243.79C81.9396 243.79 81.3529 244.03 80.8996 244.51C80.4463 244.977 80.2196 245.67 80.2196 246.59ZM87.3493 252.07V242.67H88.7693V252.07H87.3493ZM88.0493 240.63C87.7826 240.63 87.556 240.537 87.3693 240.35C87.1826 240.15 87.0893 239.917 87.0893 239.65C87.0893 239.37 87.1826 239.137 87.3693 238.95C87.556 238.764 87.7826 238.67 88.0493 238.67C88.3426 238.67 88.576 238.764 88.7493 238.95C88.936 239.137 89.0293 239.37 89.0293 239.65C89.0293 239.917 88.936 240.15 88.7493 240.35C88.576 240.537 88.3426 240.63 88.0493 240.63ZM97.0671 252.27C96.3471 252.27 95.7004 252.124 95.1271 251.83C94.5538 251.537 94.0804 251.137 93.7071 250.63C93.3471 250.11 93.1271 249.51 93.0471 248.83V245.89C93.1271 245.197 93.3538 244.597 93.7271 244.09C94.1004 243.57 94.5738 243.17 95.1471 242.89C95.7338 242.61 96.3738 242.47 97.0671 242.47C97.9338 242.47 98.7138 242.69 99.4071 243.13C100.1 243.557 100.647 244.144 101.047 244.89C101.46 245.624 101.667 246.457 101.667 247.39C101.667 248.31 101.467 249.137 101.067 249.87C100.667 250.604 100.114 251.19 99.4071 251.63C98.7138 252.057 97.9338 252.27 97.0671 252.27ZM92.2071 252.07V237.91H93.6071V244.97L93.3271 247.23L93.6071 249.55V252.07H92.2071ZM96.8271 250.93C97.4938 250.93 98.0804 250.784 98.5871 250.49C99.0938 250.184 99.4871 249.764 99.7671 249.23C100.06 248.684 100.207 248.064 100.207 247.37C100.207 246.664 100.06 246.044 99.7671 245.51C99.4871 244.977 99.0938 244.557 98.5871 244.25C98.0804 243.944 97.5004 243.79 96.8471 243.79C96.1938 243.79 95.6138 243.944 95.1071 244.25C94.6138 244.557 94.2271 244.977 93.9471 245.51C93.6671 246.044 93.5271 246.664 93.5271 247.37C93.5271 248.064 93.6671 248.684 93.9471 249.23C94.2271 249.764 94.6138 250.184 95.1071 250.49C95.6004 250.784 96.1738 250.93 96.8271 250.93ZM108.846 252.27C107.9 252.27 107.053 252.057 106.306 251.63C105.56 251.204 104.966 250.617 104.526 249.87C104.1 249.124 103.886 248.284 103.886 247.35C103.886 246.43 104.1 245.604 104.526 244.87C104.953 244.124 105.533 243.537 106.266 243.11C107 242.684 107.82 242.47 108.726 242.47C109.58 242.47 110.333 242.664 110.986 243.05C111.653 243.437 112.173 243.977 112.546 244.67C112.933 245.35 113.126 246.137 113.126 247.03C113.126 247.137 113.12 247.264 113.106 247.41C113.093 247.544 113.066 247.704 113.026 247.89H104.886V246.69H112.266L111.766 247.13C111.78 246.437 111.66 245.844 111.406 245.35C111.166 244.844 110.813 244.457 110.346 244.19C109.893 243.91 109.34 243.77 108.686 243.77C108.006 243.77 107.413 243.917 106.906 244.21C106.4 244.504 106 244.917 105.706 245.45C105.426 245.97 105.286 246.59 105.286 247.31C105.286 248.03 105.433 248.664 105.726 249.21C106.033 249.757 106.453 250.184 106.986 250.49C107.533 250.797 108.16 250.95 108.866 250.95C109.44 250.95 109.966 250.85 110.446 250.65C110.926 250.437 111.333 250.124 111.666 249.71L112.566 250.63C112.126 251.15 111.58 251.557 110.926 251.85C110.286 252.13 109.593 252.27 108.846 252.27Z" fill="#010101" fill-opacity="0.88"/>
<path d="M167.126 252.07V250.71H171.166C172.246 250.71 173.2 250.477 174.026 250.01C174.853 249.53 175.5 248.877 175.966 248.05C176.433 247.21 176.666 246.25 176.666 245.17C176.666 244.09 176.433 243.137 175.966 242.31C175.5 241.484 174.853 240.837 174.026 240.37C173.2 239.89 172.246 239.65 171.166 239.65H167.166V238.31H171.206C172.206 238.31 173.126 238.484 173.966 238.83C174.82 239.164 175.56 239.644 176.186 240.27C176.826 240.884 177.32 241.61 177.666 242.45C178.013 243.277 178.186 244.19 178.186 245.19C178.186 246.164 178.013 247.07 177.666 247.91C177.32 248.75 176.833 249.484 176.206 250.11C175.58 250.724 174.84 251.204 173.986 251.55C173.146 251.897 172.233 252.07 171.246 252.07H167.126ZM166.226 252.07V238.31H167.686V252.07H166.226ZM181.272 252.07V242.67H182.692V252.07H181.272ZM181.972 240.63C181.705 240.63 181.478 240.537 181.292 240.35C181.105 240.15 181.012 239.917 181.012 239.65C181.012 239.37 181.105 239.137 181.292 238.95C181.478 238.764 181.705 238.67 181.972 238.67C182.265 238.67 182.498 238.764 182.672 238.95C182.858 239.137 182.952 239.37 182.952 239.65C182.952 239.917 182.858 240.15 182.672 240.35C182.498 240.537 182.265 240.63 181.972 240.63ZM190.209 252.27C189.316 252.27 188.516 252.057 187.809 251.63C187.103 251.19 186.543 250.604 186.129 249.87C185.729 249.137 185.529 248.31 185.529 247.39C185.529 246.457 185.729 245.624 186.129 244.89C186.543 244.144 187.103 243.557 187.809 243.13C188.516 242.69 189.309 242.47 190.189 242.47C190.909 242.47 191.549 242.617 192.109 242.91C192.683 243.19 193.143 243.59 193.489 244.11C193.849 244.617 194.069 245.21 194.149 245.89V248.83C194.069 249.51 193.849 250.11 193.489 250.63C193.143 251.15 192.683 251.557 192.109 251.85C191.549 252.13 190.916 252.27 190.209 252.27ZM190.429 250.93C191.403 250.93 192.183 250.604 192.769 249.95C193.369 249.297 193.669 248.437 193.669 247.37C193.669 246.664 193.529 246.044 193.249 245.51C192.983 244.964 192.603 244.544 192.109 244.25C191.629 243.944 191.063 243.79 190.409 243.79C189.743 243.79 189.149 243.944 188.629 244.25C188.123 244.557 187.716 244.984 187.409 245.53C187.116 246.064 186.969 246.677 186.969 247.37C186.969 248.064 187.116 248.677 187.409 249.21C187.716 249.744 188.129 250.164 188.649 250.47C189.169 250.777 189.763 250.93 190.429 250.93ZM193.589 252.07V249.55L193.869 247.23L193.589 244.97V242.67H194.989V252.07H193.589ZM202.309 256.23C201.362 256.23 200.515 256.05 199.769 255.69C199.035 255.344 198.442 254.85 197.989 254.21L198.909 253.29C199.282 253.797 199.755 254.19 200.329 254.47C200.902 254.75 201.575 254.89 202.349 254.89C203.415 254.89 204.262 254.604 204.889 254.03C205.529 253.457 205.849 252.677 205.849 251.69V249.35L206.129 247.21L205.849 245.09V242.67H207.249V251.69C207.249 252.597 207.042 253.39 206.629 254.07C206.215 254.75 205.635 255.277 204.889 255.65C204.155 256.037 203.295 256.23 202.309 256.23ZM202.409 251.97C201.542 251.97 200.762 251.764 200.069 251.35C199.375 250.937 198.829 250.37 198.429 249.65C198.029 248.93 197.829 248.117 197.829 247.21C197.829 246.304 198.022 245.497 198.409 244.79C198.809 244.07 199.355 243.504 200.049 243.09C200.742 242.677 201.522 242.47 202.389 242.47C203.122 242.47 203.775 242.61 204.349 242.89C204.935 243.17 205.402 243.57 205.749 244.09C206.109 244.597 206.329 245.197 206.409 245.89V248.55C206.329 249.23 206.109 249.83 205.749 250.35C205.389 250.857 204.922 251.257 204.349 251.55C203.775 251.83 203.129 251.97 202.409 251.97ZM202.669 250.63C203.322 250.63 203.889 250.49 204.369 250.21C204.862 249.93 205.242 249.537 205.509 249.03C205.789 248.51 205.929 247.904 205.929 247.21C205.929 246.53 205.789 245.937 205.509 245.43C205.242 244.924 204.862 244.524 204.369 244.23C203.875 243.937 203.302 243.79 202.649 243.79C201.995 243.79 201.409 243.937 200.889 244.23C200.382 244.524 199.982 244.924 199.689 245.43C199.409 245.937 199.269 246.53 199.269 247.21C199.269 247.877 199.415 248.47 199.709 248.99C200.002 249.51 200.402 249.917 200.909 250.21C201.415 250.49 202.002 250.63 202.669 250.63ZM217.509 252.07V246.55C217.509 245.724 217.263 245.057 216.769 244.55C216.289 244.03 215.649 243.77 214.849 243.77C214.303 243.77 213.823 243.89 213.409 244.13C212.996 244.37 212.669 244.697 212.429 245.11C212.189 245.524 212.069 245.997 212.069 246.53L211.429 246.17C211.429 245.464 211.596 244.83 211.929 244.27C212.263 243.71 212.709 243.27 213.269 242.95C213.843 242.63 214.496 242.47 215.229 242.47C215.949 242.47 216.589 242.644 217.149 242.99C217.709 243.337 218.143 243.804 218.449 244.39C218.769 244.977 218.929 245.617 218.929 246.31V252.07H217.509ZM210.669 252.07V242.67H212.069V252.07H210.669ZM226.408 252.27C225.501 252.27 224.675 252.05 223.928 251.61C223.195 251.17 222.608 250.577 222.168 249.83C221.741 249.084 221.528 248.25 221.528 247.33C221.528 246.424 221.741 245.604 222.168 244.87C222.608 244.137 223.195 243.557 223.928 243.13C224.675 242.69 225.501 242.47 226.408 242.47C227.328 242.47 228.155 242.684 228.888 243.11C229.621 243.537 230.201 244.124 230.628 244.87C231.068 245.604 231.288 246.424 231.288 247.33C231.288 248.264 231.068 249.104 230.628 249.85C230.201 250.584 229.621 251.17 228.888 251.61C228.155 252.05 227.328 252.27 226.408 252.27ZM226.408 250.91C227.075 250.91 227.661 250.757 228.168 250.45C228.688 250.144 229.095 249.717 229.388 249.17C229.695 248.624 229.848 248.01 229.848 247.33C229.848 246.65 229.695 246.05 229.388 245.53C229.095 244.997 228.688 244.577 228.168 244.27C227.661 243.964 227.075 243.81 226.408 243.81C225.755 243.81 225.168 243.964 224.648 244.27C224.128 244.577 223.721 244.997 223.428 245.53C223.135 246.05 222.988 246.65 222.988 247.33C222.988 248.024 223.135 248.644 223.428 249.19C223.721 249.724 224.128 250.144 224.648 250.45C225.168 250.757 225.755 250.91 226.408 250.91ZM236.995 252.27C236.489 252.27 236.002 252.204 235.535 252.07C235.069 251.924 234.642 251.724 234.255 251.47C233.882 251.217 233.555 250.917 233.275 250.57L234.175 249.65C234.549 250.104 234.969 250.444 235.435 250.67C235.915 250.884 236.449 250.99 237.035 250.99C237.662 250.99 238.149 250.87 238.495 250.63C238.855 250.39 239.035 250.057 239.035 249.63C239.035 249.23 238.909 248.917 238.655 248.69C238.402 248.464 238.075 248.284 237.675 248.15C237.289 248.017 236.875 247.89 236.435 247.77C235.995 247.637 235.575 247.477 235.175 247.29C234.775 247.09 234.449 246.817 234.195 246.47C233.955 246.124 233.835 245.67 233.835 245.11C233.835 244.577 233.962 244.117 234.215 243.73C234.482 243.33 234.855 243.024 235.335 242.81C235.829 242.584 236.409 242.47 237.075 242.47C237.782 242.47 238.422 242.597 238.995 242.85C239.569 243.104 240.029 243.477 240.375 243.97L239.475 244.87C239.195 244.51 238.842 244.237 238.415 244.05C238.002 243.85 237.535 243.75 237.015 243.75C236.415 243.75 235.955 243.87 235.635 244.11C235.329 244.337 235.175 244.637 235.175 245.01C235.175 245.37 235.302 245.657 235.555 245.87C235.809 246.07 236.129 246.237 236.515 246.37C236.915 246.49 237.335 246.617 237.775 246.75C238.215 246.87 238.635 247.037 239.035 247.25C239.435 247.45 239.755 247.73 239.995 248.09C240.249 248.437 240.375 248.91 240.375 249.51C240.375 250.35 240.069 251.024 239.455 251.53C238.855 252.024 238.035 252.27 236.995 252.27ZM247.532 252.27C246.585 252.27 245.739 252.057 244.992 251.63C244.245 251.204 243.652 250.617 243.212 249.87C242.785 249.124 242.572 248.284 242.572 247.35C242.572 246.43 242.785 245.604 243.212 244.87C243.639 244.124 244.219 243.537 244.952 243.11C245.685 242.684 246.505 242.47 247.412 242.47C248.265 242.47 249.019 242.664 249.672 243.05C250.339 243.437 250.859 243.977 251.232 244.67C251.619 245.35 251.812 246.137 251.812 247.03C251.812 247.137 251.805 247.264 251.792 247.41C251.779 247.544 251.752 247.704 251.712 247.89H243.572V246.69H250.952L250.452 247.13C250.465 246.437 250.345 245.844 250.092 245.35C249.852 244.844 249.499 244.457 249.032 244.19C248.579 243.91 248.025 243.77 247.372 243.77C246.692 243.77 246.099 243.917 245.592 244.21C245.085 244.504 244.685 244.917 244.392 245.45C244.112 245.97 243.972 246.59 243.972 247.31C243.972 248.03 244.119 248.664 244.412 249.21C244.719 249.757 245.139 250.184 245.672 250.49C246.219 250.797 246.845 250.95 247.552 250.95C248.125 250.95 248.652 250.85 249.132 250.65C249.612 250.437 250.019 250.124 250.352 249.71L251.252 250.63C250.812 251.15 250.265 251.557 249.612 251.85C248.972 252.13 248.279 252.27 247.532 252.27Z" fill="#010101" fill-opacity="0.88"/>
<path d="M327.711 246.55V245.25H331.771C332.331 245.25 332.831 245.137 333.271 244.91C333.724 244.684 334.077 244.364 334.331 243.95C334.597 243.524 334.731 243.017 334.731 242.43C334.731 241.844 334.597 241.344 334.331 240.93C334.077 240.504 333.724 240.177 333.271 239.95C332.831 239.71 332.331 239.59 331.771 239.59H327.711V238.31H331.871C332.697 238.31 333.437 238.484 334.091 238.83C334.744 239.164 335.257 239.637 335.631 240.25C336.017 240.864 336.211 241.59 336.211 242.43C336.211 243.257 336.017 243.984 335.631 244.61C335.257 245.224 334.744 245.704 334.091 246.05C333.437 246.384 332.697 246.55 331.871 246.55H327.711ZM326.771 252.07V238.31H328.231V252.07H326.771ZM339.199 252.07V242.67H340.599V252.07H339.199ZM340.599 246.59L340.019 246.33C340.019 245.144 340.305 244.204 340.879 243.51C341.465 242.817 342.265 242.47 343.279 242.47C343.745 242.47 344.172 242.557 344.559 242.73C344.945 242.89 345.305 243.15 345.639 243.51L344.719 244.49C344.492 244.237 344.239 244.057 343.959 243.95C343.692 243.844 343.385 243.79 343.039 243.79C342.319 243.79 341.732 244.03 341.279 244.51C340.825 244.977 340.599 245.67 340.599 246.59ZM351.736 252.27C350.79 252.27 349.943 252.057 349.196 251.63C348.45 251.204 347.856 250.617 347.416 249.87C346.99 249.124 346.776 248.284 346.776 247.35C346.776 246.43 346.99 245.604 347.416 244.87C347.843 244.124 348.423 243.537 349.156 243.11C349.89 242.684 350.71 242.47 351.616 242.47C352.47 242.47 353.223 242.664 353.876 243.05C354.543 243.437 355.063 243.977 355.436 244.67C355.823 245.35 356.016 246.137 356.016 247.03C356.016 247.137 356.01 247.264 355.996 247.41C355.983 247.544 355.956 247.704 355.916 247.89H347.776V246.69H355.156L354.656 247.13C354.67 246.437 354.55 245.844 354.296 245.35C354.056 244.844 353.703 244.457 353.236 244.19C352.783 243.91 352.23 243.77 351.576 243.77C350.896 243.77 350.303 243.917 349.796 244.21C349.29 244.504 348.89 244.917 348.596 245.45C348.316 245.97 348.176 246.59 348.176 247.31C348.176 248.03 348.323 248.664 348.616 249.21C348.923 249.757 349.343 250.184 349.876 250.49C350.423 250.797 351.05 250.95 351.756 250.95C352.33 250.95 352.856 250.85 353.336 250.65C353.816 250.437 354.223 250.124 354.556 249.71L355.456 250.63C355.016 251.15 354.47 251.557 353.816 251.85C353.176 252.13 352.483 252.27 351.736 252.27ZM362.758 252.27C361.891 252.27 361.111 252.057 360.418 251.63C359.725 251.204 359.171 250.624 358.758 249.89C358.358 249.144 358.158 248.31 358.158 247.39C358.158 246.457 358.358 245.624 358.758 244.89C359.171 244.144 359.725 243.557 360.418 243.13C361.111 242.69 361.891 242.47 362.758 242.47C363.465 242.47 364.105 242.61 364.678 242.89C365.251 243.17 365.725 243.57 366.098 244.09C366.485 244.597 366.711 245.197 366.778 245.89V248.83C366.698 249.51 366.471 250.11 366.098 250.63C365.738 251.137 365.271 251.537 364.698 251.83C364.125 252.124 363.478 252.27 362.758 252.27ZM362.998 250.93C363.651 250.93 364.225 250.784 364.718 250.49C365.211 250.184 365.598 249.764 365.878 249.23C366.158 248.684 366.298 248.064 366.298 247.37C366.298 246.664 366.151 246.044 365.858 245.51C365.578 244.977 365.191 244.557 364.698 244.25C364.205 243.944 363.631 243.79 362.978 243.79C362.325 243.79 361.745 243.944 361.238 244.25C360.731 244.557 360.331 244.984 360.038 245.53C359.758 246.064 359.618 246.677 359.618 247.37C359.618 248.064 359.758 248.684 360.038 249.23C360.331 249.764 360.731 250.184 361.238 250.49C361.758 250.784 362.345 250.93 362.998 250.93ZM367.618 252.07H366.218V249.55L366.498 247.23L366.218 244.97V237.91H367.618V252.07ZM371.057 252.07V242.67H372.477V252.07H371.057ZM371.757 240.63C371.49 240.63 371.264 240.537 371.077 240.35C370.89 240.15 370.797 239.917 370.797 239.65C370.797 239.37 370.89 239.137 371.077 238.95C371.264 238.764 371.49 238.67 371.757 238.67C372.05 238.67 372.284 238.764 372.457 238.95C372.644 239.137 372.737 239.37 372.737 239.65C372.737 239.917 372.644 240.15 372.457 240.35C372.284 240.537 372.05 240.63 371.757 240.63ZM380.195 252.27C379.275 252.27 378.442 252.057 377.695 251.63C376.962 251.19 376.375 250.597 375.935 249.85C375.508 249.104 375.295 248.27 375.295 247.35C375.295 246.43 375.508 245.604 375.935 244.87C376.375 244.124 376.962 243.537 377.695 243.11C378.442 242.684 379.275 242.47 380.195 242.47C380.902 242.47 381.562 242.604 382.175 242.87C382.788 243.137 383.308 243.51 383.735 243.99L382.815 244.93C382.495 244.57 382.108 244.297 381.655 244.11C381.202 243.91 380.715 243.81 380.195 243.81C379.528 243.81 378.935 243.964 378.415 244.27C377.895 244.577 377.488 244.997 377.195 245.53C376.902 246.05 376.755 246.657 376.755 247.35C376.755 248.03 376.902 248.644 377.195 249.19C377.488 249.724 377.895 250.144 378.415 250.45C378.935 250.757 379.528 250.91 380.195 250.91C380.728 250.91 381.222 250.817 381.675 250.63C382.128 250.43 382.515 250.15 382.835 249.79L383.775 250.73C383.335 251.224 382.802 251.604 382.175 251.87C381.562 252.137 380.902 252.27 380.195 252.27ZM387.721 252.07V238.71H389.121V252.07H387.721ZM385.341 243.93V242.67H391.481V243.93H385.341Z" fill="#010101" fill-opacity="0.88"/>
<path d="M453.062 216.48V215.18H457.122C457.682 215.18 458.182 215.067 458.622 214.84C459.075 214.613 459.428 214.293 459.682 213.88C459.948 213.453 460.082 212.947 460.082 212.36C460.082 211.773 459.948 211.273 459.682 210.86C459.428 210.433 459.075 210.107 458.622 209.88C458.182 209.64 457.682 209.52 457.122 209.52H453.062V208.24H457.222C458.048 208.24 458.788 208.413 459.442 208.76C460.095 209.093 460.608 209.567 460.982 210.18C461.368 210.793 461.562 211.52 461.562 212.36C461.562 213.187 461.368 213.913 460.982 214.54C460.608 215.153 460.095 215.633 459.442 215.98C458.788 216.313 458.048 216.48 457.222 216.48H453.062ZM452.122 222V208.24H453.582V222H452.122ZM464.55 222V212.6H465.95V222H464.55ZM465.95 216.52L465.37 216.26C465.37 215.073 465.656 214.133 466.23 213.44C466.816 212.747 467.616 212.4 468.63 212.4C469.096 212.4 469.523 212.487 469.91 212.66C470.296 212.82 470.656 213.08 470.99 213.44L470.07 214.42C469.843 214.167 469.59 213.987 469.31 213.88C469.043 213.773 468.736 213.72 468.39 213.72C467.67 213.72 467.083 213.96 466.63 214.44C466.176 214.907 465.95 215.6 465.95 216.52ZM477.087 222.2C476.141 222.2 475.294 221.987 474.547 221.56C473.801 221.133 473.207 220.547 472.767 219.8C472.341 219.053 472.127 218.213 472.127 217.28C472.127 216.36 472.341 215.533 472.767 214.8C473.194 214.053 473.774 213.467 474.507 213.04C475.241 212.613 476.061 212.4 476.967 212.4C477.821 212.4 478.574 212.593 479.227 212.98C479.894 213.367 480.414 213.907 480.787 214.6C481.174 215.28 481.367 216.067 481.367 216.96C481.367 217.067 481.361 217.193 481.347 217.34C481.334 217.473 481.307 217.633 481.267 217.82H473.127V216.62H480.507L480.007 217.06C480.021 216.367 479.901 215.773 479.647 215.28C479.407 214.773 479.054 214.387 478.587 214.12C478.134 213.84 477.581 213.7 476.927 213.7C476.247 213.7 475.654 213.847 475.147 214.14C474.641 214.433 474.241 214.847 473.947 215.38C473.667 215.9 473.527 216.52 473.527 217.24C473.527 217.96 473.674 218.593 473.967 219.14C474.274 219.687 474.694 220.113 475.227 220.42C475.774 220.727 476.401 220.88 477.107 220.88C477.681 220.88 478.207 220.78 478.687 220.58C479.167 220.367 479.574 220.053 479.907 219.64L480.807 220.56C480.367 221.08 479.821 221.487 479.167 221.78C478.527 222.06 477.834 222.2 477.087 222.2ZM486.989 222.2C486.482 222.2 485.996 222.133 485.529 222C485.062 221.853 484.636 221.653 484.249 221.4C483.876 221.147 483.549 220.847 483.269 220.5L484.169 219.58C484.542 220.033 484.962 220.373 485.429 220.6C485.909 220.813 486.442 220.92 487.029 220.92C487.656 220.92 488.142 220.8 488.489 220.56C488.849 220.32 489.029 219.987 489.029 219.56C489.029 219.16 488.902 218.847 488.649 218.62C488.396 218.393 488.069 218.213 487.669 218.08C487.282 217.947 486.869 217.82 486.429 217.7C485.989 217.567 485.569 217.407 485.169 217.22C484.769 217.02 484.442 216.747 484.189 216.4C483.949 216.053 483.829 215.6 483.829 215.04C483.829 214.507 483.956 214.047 484.209 213.66C484.476 213.26 484.849 212.953 485.329 212.74C485.822 212.513 486.402 212.4 487.069 212.4C487.776 212.4 488.416 212.527 488.989 212.78C489.562 213.033 490.022 213.407 490.369 213.9L489.469 214.8C489.189 214.44 488.836 214.167 488.409 213.98C487.996 213.78 487.529 213.68 487.009 213.68C486.409 213.68 485.949 213.8 485.629 214.04C485.322 214.267 485.169 214.567 485.169 214.94C485.169 215.3 485.296 215.587 485.549 215.8C485.802 216 486.122 216.167 486.509 216.3C486.909 216.42 487.329 216.547 487.769 216.68C488.209 216.8 488.629 216.967 489.029 217.18C489.429 217.38 489.749 217.66 489.989 218.02C490.242 218.367 490.369 218.84 490.369 219.44C490.369 220.28 490.062 220.953 489.449 221.46C488.849 221.953 488.029 222.2 486.989 222.2ZM497.466 222.2C496.546 222.2 495.712 221.987 494.966 221.56C494.232 221.12 493.646 220.527 493.206 219.78C492.779 219.033 492.566 218.2 492.566 217.28C492.566 216.36 492.779 215.533 493.206 214.8C493.646 214.053 494.232 213.467 494.966 213.04C495.712 212.613 496.546 212.4 497.466 212.4C498.172 212.4 498.832 212.533 499.446 212.8C500.059 213.067 500.579 213.44 501.006 213.92L500.086 214.86C499.766 214.5 499.379 214.227 498.926 214.04C498.472 213.84 497.986 213.74 497.466 213.74C496.799 213.74 496.206 213.893 495.686 214.2C495.166 214.507 494.759 214.927 494.466 215.46C494.172 215.98 494.026 216.587 494.026 217.28C494.026 217.96 494.172 218.573 494.466 219.12C494.759 219.653 495.166 220.073 495.686 220.38C496.206 220.687 496.799 220.84 497.466 220.84C497.999 220.84 498.492 220.747 498.946 220.56C499.399 220.36 499.786 220.08 500.106 219.72L501.046 220.66C500.606 221.153 500.072 221.533 499.446 221.8C498.832 222.067 498.172 222.2 497.466 222.2ZM503.61 222V212.6H505.01V222H503.61ZM505.01 216.52L504.43 216.26C504.43 215.073 504.717 214.133 505.29 213.44C505.877 212.747 506.677 212.4 507.69 212.4C508.157 212.4 508.583 212.487 508.97 212.66C509.357 212.82 509.717 213.08 510.05 213.44L509.13 214.42C508.903 214.167 508.65 213.987 508.37 213.88C508.103 213.773 507.797 213.72 507.45 213.72C506.73 213.72 506.143 213.96 505.69 214.44C505.237 214.907 505.01 215.6 505.01 216.52ZM512.14 222V212.6H513.56V222H512.14ZM512.84 210.56C512.573 210.56 512.346 210.467 512.16 210.28C511.973 210.08 511.88 209.847 511.88 209.58C511.88 209.3 511.973 209.067 512.16 208.88C512.346 208.693 512.573 208.6 512.84 208.6C513.133 208.6 513.366 208.693 513.54 208.88C513.726 209.067 513.82 209.3 513.82 209.58C513.82 209.847 513.726 210.08 513.54 210.28C513.366 210.467 513.133 210.56 512.84 210.56ZM521.857 222.2C521.137 222.2 520.491 222.053 519.917 221.76C519.344 221.467 518.871 221.067 518.497 220.56C518.137 220.04 517.917 219.44 517.837 218.76V215.82C517.917 215.127 518.144 214.527 518.517 214.02C518.891 213.5 519.364 213.1 519.937 212.82C520.524 212.54 521.164 212.4 521.857 212.4C522.724 212.4 523.504 212.62 524.197 213.06C524.891 213.487 525.437 214.073 525.837 214.82C526.251 215.553 526.457 216.387 526.457 217.32C526.457 218.24 526.257 219.067 525.857 219.8C525.457 220.533 524.904 221.12 524.197 221.56C523.504 221.987 522.724 222.2 521.857 222.2ZM516.997 222V207.84H518.397V214.9L518.117 217.16L518.397 219.48V222H516.997ZM521.617 220.86C522.284 220.86 522.871 220.713 523.377 220.42C523.884 220.113 524.277 219.693 524.557 219.16C524.851 218.613 524.997 217.993 524.997 217.3C524.997 216.593 524.851 215.973 524.557 215.44C524.277 214.907 523.884 214.487 523.377 214.18C522.871 213.873 522.291 213.72 521.637 213.72C520.984 213.72 520.404 213.873 519.897 214.18C519.404 214.487 519.017 214.907 518.737 215.44C518.457 215.973 518.317 216.593 518.317 217.3C518.317 217.993 518.457 218.613 518.737 219.16C519.017 219.693 519.404 220.113 519.897 220.42C520.391 220.713 520.964 220.86 521.617 220.86ZM533.637 222.2C532.69 222.2 531.843 221.987 531.097 221.56C530.35 221.133 529.757 220.547 529.317 219.8C528.89 219.053 528.677 218.213 528.677 217.28C528.677 216.36 528.89 215.533 529.317 214.8C529.743 214.053 530.323 213.467 531.057 213.04C531.79 212.613 532.61 212.4 533.517 212.4C534.37 212.4 535.123 212.593 535.777 212.98C536.443 213.367 536.963 213.907 537.337 214.6C537.723 215.28 537.917 216.067 537.917 216.96C537.917 217.067 537.91 217.193 537.897 217.34C537.883 217.473 537.857 217.633 537.817 217.82H529.677V216.62H537.057L536.557 217.06C536.57 216.367 536.45 215.773 536.197 215.28C535.957 214.773 535.603 214.387 535.137 214.12C534.683 213.84 534.13 213.7 533.477 213.7C532.797 213.7 532.203 213.847 531.697 214.14C531.19 214.433 530.79 214.847 530.497 215.38C530.217 215.9 530.077 216.52 530.077 217.24C530.077 217.96 530.223 218.593 530.517 219.14C530.823 219.687 531.243 220.113 531.777 220.42C532.323 220.727 532.95 220.88 533.657 220.88C534.23 220.88 534.757 220.78 535.237 220.58C535.717 220.367 536.123 220.053 536.457 219.64L537.357 220.56C536.917 221.08 536.37 221.487 535.717 221.78C535.077 222.06 534.383 222.2 533.637 222.2ZM498.936 247L492.296 240.02C491.762 239.447 491.362 238.9 491.096 238.38C490.842 237.847 490.716 237.28 490.716 236.68C490.716 235.973 490.876 235.347 491.196 234.8C491.516 234.253 491.962 233.82 492.536 233.5C493.109 233.18 493.769 233.02 494.516 233.02C495.036 233.02 495.516 233.107 495.956 233.28C496.396 233.44 496.789 233.66 497.136 233.94C497.482 234.22 497.776 234.547 498.016 234.92L496.996 235.84C496.676 235.387 496.316 235.033 495.916 234.78C495.516 234.527 495.049 234.4 494.516 234.4C493.822 234.4 493.249 234.613 492.796 235.04C492.356 235.453 492.136 236 492.136 236.68C492.136 237.173 492.242 237.613 492.456 238C492.669 238.373 493.009 238.807 493.476 239.3L500.716 247H498.936ZM493.776 247.2C492.896 247.2 492.122 247.027 491.456 246.68C490.789 246.32 490.262 245.833 489.876 245.22C489.502 244.593 489.316 243.887 489.316 243.1C489.316 242.247 489.542 241.473 489.996 240.78C490.462 240.087 491.102 239.547 491.916 239.16L492.616 240.04C492.042 240.32 491.582 240.727 491.236 241.26C490.902 241.78 490.736 242.38 490.736 243.06C490.736 243.62 490.869 244.113 491.136 244.54C491.402 244.953 491.769 245.28 492.236 245.52C492.702 245.747 493.236 245.86 493.836 245.86C494.542 245.86 495.169 245.7 495.716 245.38C496.262 245.06 496.676 244.653 496.956 244.16L497.876 245.2C497.609 245.6 497.262 245.953 496.836 246.26C496.422 246.553 495.956 246.787 495.436 246.96C494.916 247.12 494.362 247.2 493.776 247.2ZM460.712 272.2C459.738 272.2 458.832 272.02 457.992 271.66C457.165 271.287 456.438 270.78 455.812 270.14C455.185 269.487 454.692 268.733 454.332 267.88C453.985 267.013 453.812 266.087 453.812 265.1C453.812 264.1 453.985 263.173 454.332 262.32C454.678 261.467 455.165 260.72 455.792 260.08C456.418 259.44 457.145 258.94 457.972 258.58C458.798 258.22 459.698 258.04 460.672 258.04C461.645 258.04 462.545 258.22 463.372 258.58C464.212 258.94 464.945 259.44 465.572 260.08C466.198 260.72 466.685 261.473 467.032 262.34C467.378 263.193 467.552 264.12 467.552 265.12C467.552 266.107 467.378 267.033 467.032 267.9C466.685 268.753 466.198 269.5 465.572 270.14C464.958 270.78 464.238 271.287 463.412 271.66C462.585 272.02 461.685 272.2 460.712 272.2ZM460.672 270.78C461.712 270.78 462.632 270.533 463.432 270.04C464.245 269.547 464.878 268.873 465.332 268.02C465.798 267.167 466.032 266.193 466.032 265.1C466.032 264.287 465.898 263.54 465.632 262.86C465.365 262.167 464.992 261.567 464.512 261.06C464.032 260.54 463.465 260.14 462.812 259.86C462.172 259.58 461.458 259.44 460.672 259.44C459.645 259.44 458.725 259.687 457.912 260.18C457.112 260.66 456.478 261.327 456.012 262.18C455.558 263.033 455.332 264.007 455.332 265.1C455.332 265.913 455.465 266.667 455.732 267.36C455.998 268.053 456.372 268.66 456.852 269.18C457.332 269.687 457.898 270.08 458.552 270.36C459.205 270.64 459.912 270.78 460.672 270.78ZM475.51 272.2C474.79 272.2 474.144 272.053 473.57 271.76C472.997 271.467 472.524 271.067 472.15 270.56C471.79 270.04 471.57 269.44 471.49 268.76V265.82C471.57 265.127 471.797 264.527 472.17 264.02C472.544 263.5 473.017 263.1 473.59 262.82C474.177 262.54 474.817 262.4 475.51 262.4C476.377 262.4 477.157 262.62 477.85 263.06C478.544 263.487 479.09 264.073 479.49 264.82C479.904 265.553 480.11 266.387 480.11 267.32C480.11 268.24 479.91 269.067 479.51 269.8C479.11 270.533 478.557 271.12 477.85 271.56C477.157 271.987 476.377 272.2 475.51 272.2ZM470.65 275.96V262.6H472.05V265L471.77 267.28L472.05 269.58V275.96H470.65ZM475.27 270.86C475.937 270.86 476.524 270.713 477.03 270.42C477.537 270.113 477.93 269.693 478.21 269.16C478.504 268.613 478.65 267.993 478.65 267.3C478.65 266.593 478.504 265.973 478.21 265.44C477.93 264.907 477.537 264.487 477.03 264.18C476.524 263.873 475.944 263.72 475.29 263.72C474.637 263.72 474.057 263.873 473.55 264.18C473.057 264.487 472.67 264.907 472.39 265.44C472.11 265.973 471.97 266.593 471.97 267.3C471.97 267.993 472.11 268.613 472.39 269.16C472.67 269.693 473.057 270.113 473.55 270.42C474.044 270.713 474.617 270.86 475.27 270.86ZM484.078 272V258.64H485.478V272H484.078ZM481.698 263.86V262.6H487.838V263.86H481.698ZM490.366 272V262.6H491.786V272H490.366ZM491.066 260.56C490.799 260.56 490.573 260.467 490.386 260.28C490.199 260.08 490.106 259.847 490.106 259.58C490.106 259.3 490.199 259.067 490.386 258.88C490.573 258.693 490.799 258.6 491.066 258.6C491.359 258.6 491.593 258.693 491.766 258.88C491.953 259.067 492.046 259.3 492.046 259.58C492.046 259.847 491.953 260.08 491.766 260.28C491.593 260.467 491.359 260.56 491.066 260.56ZM495.224 272V262.6H496.624V272H495.224ZM501.684 272V266.24C501.684 265.467 501.451 264.853 500.984 264.4C500.517 263.933 499.931 263.7 499.224 263.7C498.744 263.7 498.304 263.807 497.904 264.02C497.517 264.22 497.204 264.507 496.964 264.88C496.737 265.253 496.624 265.7 496.624 266.22L495.984 265.96C495.984 265.24 496.144 264.613 496.464 264.08C496.784 263.547 497.211 263.133 497.744 262.84C498.291 262.547 498.904 262.4 499.584 262.4C500.251 262.4 500.844 262.547 501.364 262.84C501.897 263.133 502.317 263.547 502.624 264.08C502.944 264.613 503.104 265.247 503.104 265.98V272H501.684ZM508.164 272V266.24C508.164 265.467 507.931 264.853 507.464 264.4C506.997 263.933 506.404 263.7 505.684 263.7C505.217 263.7 504.784 263.807 504.384 264.02C503.997 264.22 503.684 264.507 503.444 264.88C503.217 265.253 503.104 265.7 503.104 266.22L502.264 265.96C502.304 265.24 502.491 264.613 502.824 264.08C503.171 263.547 503.617 263.133 504.164 262.84C504.724 262.547 505.337 262.4 506.004 262.4C506.671 262.4 507.271 262.547 507.804 262.84C508.351 263.133 508.777 263.547 509.084 264.08C509.404 264.613 509.564 265.247 509.564 265.98V272H508.164ZM512.797 272V262.6H514.217V272H512.797ZM513.497 260.56C513.23 260.56 513.003 260.467 512.817 260.28C512.63 260.08 512.537 259.847 512.537 259.58C512.537 259.3 512.63 259.067 512.817 258.88C513.003 258.693 513.23 258.6 513.497 258.6C513.79 258.6 514.023 258.693 514.197 258.88C514.383 259.067 514.477 259.3 514.477 259.58C514.477 259.847 514.383 260.08 514.197 260.28C514.023 260.467 513.79 260.56 513.497 260.56ZM516.834 271.22L522.774 263.36H524.434L518.494 271.22H516.834ZM516.834 272V271.22L518.054 270.72H524.314V272H516.834ZM517.174 263.86V262.6H524.434V263.36L523.114 263.86H517.174ZM531.247 272.2C530.3 272.2 529.453 271.987 528.707 271.56C527.96 271.133 527.367 270.547 526.927 269.8C526.5 269.053 526.287 268.213 526.287 267.28C526.287 266.36 526.5 265.533 526.927 264.8C527.353 264.053 527.933 263.467 528.667 263.04C529.4 262.613 530.22 262.4 531.127 262.4C531.98 262.4 532.733 262.593 533.387 262.98C534.053 263.367 534.573 263.907 534.947 264.6C535.333 265.28 535.527 266.067 535.527 266.96C535.527 267.067 535.52 267.193 535.507 267.34C535.493 267.473 535.467 267.633 535.427 267.82H527.287V266.62H534.667L534.167 267.06C534.18 266.367 534.06 265.773 533.807 265.28C533.567 264.773 533.213 264.387 532.747 264.12C532.293 263.84 531.74 263.7 531.087 263.7C530.407 263.7 529.813 263.847 529.307 264.14C528.8 264.433 528.4 264.847 528.107 265.38C527.827 265.9 527.687 266.52 527.687 267.24C527.687 267.96 527.833 268.593 528.127 269.14C528.433 269.687 528.853 270.113 529.387 270.42C529.933 270.727 530.56 270.88 531.267 270.88C531.84 270.88 532.367 270.78 532.847 270.58C533.327 270.367 533.733 270.053 534.067 269.64L534.967 270.56C534.527 271.08 533.98 271.487 533.327 271.78C532.687 272.06 531.993 272.2 531.247 272.2Z" fill="#010101" fill-opacity="0.88"/>
<defs>
<linearGradient id="paint0_linear_5296_5975" x1="548.5" y1="241.764" x2="-92.8414" y2="222.464" gradientUnits="userSpaceOnUse">
<stop stop-color="#FFA6A6"/>
<stop offset="1" stop-color="#F9F9F9"/>
</linearGradient>
<linearGradient id="paint1_linear_5296_5975" x1="-171.194" y1="201.264" x2="553.088" y2="324.057" gradientUnits="userSpaceOnUse">
<stop stop-color="#FFF2F2"/>
<stop offset="1" stop-color="#ECAAAA"/>
</linearGradient>
</defs>
</svg>
