<svg width="1360" height="274" viewBox="0 0 1360 274" fill="none" xmlns="http://www.w3.org/2000/svg">
<path d="M593.039 7.448H592.269L587.429 21H585.185L590.729 5.6H594.535L600.079 21H597.835L593.039 7.448ZM588.023 15.236H596.999V17.084H588.023V15.236ZM610.779 11.87L610.537 11.936V5.16H612.627V21H610.735L610.581 19.35C610.215 19.8487 609.716 20.274 609.085 20.626C608.469 20.978 607.714 21.154 606.819 21.154C605.822 21.154 604.949 20.9193 604.201 20.45C603.468 19.9807 602.889 19.3207 602.463 18.47C602.053 17.6193 601.847 16.6293 601.847 15.5C601.847 14.3707 602.053 13.3807 602.463 12.53C602.889 11.6793 603.468 11.0193 604.201 10.55C604.949 10.0807 605.822 9.846 606.819 9.846C607.773 9.846 608.579 10.044 609.239 10.44C609.914 10.8213 610.427 11.298 610.779 11.87ZM604.069 15.5C604.069 16.6293 604.363 17.5387 604.949 18.228C605.536 18.9173 606.321 19.262 607.303 19.262C607.905 19.262 608.447 19.1153 608.931 18.822C609.415 18.5287 609.804 18.1033 610.097 17.546C610.391 16.974 610.537 16.292 610.537 15.5C610.537 14.708 610.391 14.0333 610.097 13.476C609.804 12.9187 609.415 12.4933 608.931 12.2C608.447 11.892 607.905 11.738 607.303 11.738C606.335 11.738 605.551 12.0827 604.949 12.772C604.363 13.4613 604.069 14.3707 604.069 15.5ZM623.133 21L622.957 19.394C622.619 19.9513 622.179 20.384 621.637 20.692C621.109 20.9853 620.419 21.132 619.569 21.132C618.777 21.132 618.102 21.0073 617.545 20.758C616.987 20.494 616.555 20.1347 616.247 19.68C615.953 19.2107 615.807 18.668 615.807 18.052C615.807 17.128 616.151 16.3653 616.841 15.764C617.53 15.148 618.527 14.7667 619.833 14.62L622.957 14.268V13.41C622.957 12.9407 622.766 12.5447 622.385 12.222C622.003 11.8847 621.453 11.716 620.735 11.716C620.06 11.716 619.488 11.8773 619.019 12.2C618.549 12.508 618.234 12.97 618.073 13.586L616.225 12.926C616.503 11.958 617.046 11.2027 617.853 10.66C618.674 10.1173 619.664 9.846 620.823 9.846C622.201 9.846 623.25 10.1907 623.969 10.88C624.687 11.5693 625.047 12.4787 625.047 13.608V21H623.133ZM622.957 15.962L619.943 16.336C619.297 16.424 618.813 16.6073 618.491 16.886C618.168 17.15 618.007 17.502 618.007 17.942C618.007 18.3527 618.161 18.6973 618.469 18.976C618.791 19.24 619.239 19.372 619.811 19.372C620.515 19.372 621.101 19.24 621.571 18.976C622.04 18.712 622.385 18.3453 622.605 17.876C622.839 17.392 622.957 16.8347 622.957 16.204V15.962ZM630.532 19.13L630.752 19.064V25.4H628.684V10H630.576L630.73 11.65C631.082 11.1513 631.566 10.726 632.182 10.374C632.813 10.022 633.576 9.846 634.47 9.846C635.438 9.846 636.296 10.0807 637.044 10.55C637.792 11.0193 638.379 11.6793 638.804 12.53C639.244 13.366 639.464 14.356 639.464 15.5C639.464 16.6293 639.252 17.6193 638.826 18.47C638.416 19.3207 637.836 19.9807 637.088 20.45C636.34 20.9193 635.468 21.154 634.47 21.154C633.517 21.154 632.703 20.9633 632.028 20.582C631.368 20.186 630.87 19.702 630.532 19.13ZM637.22 15.5C637.22 14.3707 636.92 13.4613 636.318 12.772C635.732 12.0827 634.962 11.738 634.008 11.738C633.392 11.738 632.842 11.8847 632.358 12.178C631.874 12.4713 631.486 12.8967 631.192 13.454C630.899 14.0113 630.752 14.6933 630.752 15.5C630.752 16.292 630.899 16.9667 631.192 17.524C631.486 18.0813 631.874 18.514 632.358 18.822C632.842 19.1153 633.392 19.262 634.008 19.262C634.962 19.262 635.732 18.9173 636.318 18.228C636.92 17.5387 637.22 16.6293 637.22 15.5ZM643.326 10V6.92H645.416V10H648.166V11.848H645.416V17.26C645.416 17.9347 645.548 18.4113 645.812 18.69C646.09 18.9687 646.435 19.13 646.846 19.174C647.271 19.2033 647.711 19.1887 648.166 19.13V20.912C647.564 21.044 646.97 21.0807 646.384 21.022C645.812 20.978 645.291 20.8167 644.822 20.538C644.367 20.2593 644 19.856 643.722 19.328C643.458 18.7853 643.326 18.096 643.326 17.26V11.848H641.742V10H643.326ZM651.475 10H653.565V21H651.475V10ZM652.531 8.064C652.135 8.064 651.805 7.932 651.541 7.668C651.277 7.404 651.145 7.08133 651.145 6.7C651.145 6.304 651.277 5.974 651.541 5.71C651.805 5.43133 652.135 5.292 652.531 5.292C652.912 5.292 653.235 5.43133 653.499 5.71C653.778 5.974 653.917 6.304 653.917 6.7C653.917 7.08133 653.778 7.404 653.499 7.668C653.235 7.932 652.912 8.064 652.531 8.064ZM658.88 10L662.048 18.778L665.238 10H667.438L663.148 21H660.904L656.636 10H658.88ZM674.964 21.154C673.908 21.154 672.969 20.912 672.148 20.428C671.341 19.9293 670.703 19.2473 670.234 18.382C669.779 17.5167 669.552 16.5267 669.552 15.412C669.552 14.3413 669.779 13.388 670.234 12.552C670.688 11.716 671.312 11.056 672.104 10.572C672.91 10.088 673.82 9.846 674.832 9.846C675.858 9.846 676.768 10.0733 677.56 10.528C678.352 10.968 678.968 11.5913 679.408 12.398C679.848 13.19 680.06 14.1067 680.046 15.148C680.046 15.324 680.038 15.5073 680.024 15.698C680.009 15.874 679.987 16.072 679.958 16.292H671.818C671.862 16.8787 672.023 17.3993 672.302 17.854C672.595 18.294 672.962 18.6387 673.402 18.888C673.856 19.1373 674.37 19.262 674.942 19.262C675.675 19.262 676.313 19.1227 676.856 18.844C677.398 18.5507 677.78 18.162 678 17.678L679.804 18.316C679.364 19.2107 678.718 19.9073 677.868 20.406C677.032 20.9047 676.064 21.154 674.964 21.154ZM677.78 14.51C677.78 13.982 677.648 13.5053 677.384 13.08C677.12 12.6547 676.76 12.3247 676.306 12.09C675.866 11.8407 675.367 11.716 674.81 11.716C674.311 11.716 673.849 11.8407 673.424 12.09C673.013 12.3247 672.661 12.6547 672.368 13.08C672.089 13.4907 671.913 13.9673 671.84 14.51H677.78ZM689.368 13.3C689.368 12.1413 689.566 11.0853 689.962 10.132C690.358 9.164 690.908 8.33533 691.612 7.646C692.316 6.942 693.13 6.39933 694.054 6.018C694.993 5.63667 696.005 5.446 697.09 5.446C698.63 5.446 700.001 5.80533 701.204 6.524C702.421 7.24267 703.345 8.27667 703.976 9.626L702.216 10.264C701.864 9.57467 701.417 9.01733 700.874 8.592C700.331 8.16667 699.737 7.85133 699.092 7.646C698.447 7.44067 697.794 7.338 697.134 7.338C696.093 7.338 695.147 7.58 694.296 8.064C693.46 8.548 692.8 9.23733 692.316 10.132C691.847 11.0267 691.612 12.0827 691.612 13.3C691.612 14.5027 691.847 15.5513 692.316 16.446C692.8 17.3407 693.46 18.0373 694.296 18.536C695.147 19.02 696.093 19.262 697.134 19.262C697.809 19.262 698.476 19.152 699.136 18.932C699.796 18.712 700.412 18.36 700.984 17.876C701.556 17.3773 702.025 16.732 702.392 15.94L704.152 16.556C703.492 18.1107 702.546 19.2693 701.314 20.032C700.082 20.78 698.674 21.154 697.09 21.154C696.005 21.154 694.993 20.9633 694.054 20.582C693.13 20.2007 692.316 19.658 691.612 18.954C690.908 18.25 690.358 17.4213 689.962 16.468C689.566 15.5 689.368 14.444 689.368 13.3ZM712.351 21.154C711.309 21.154 710.371 20.9267 709.535 20.472C708.713 20.0027 708.068 19.35 707.599 18.514C707.129 17.6633 706.895 16.666 706.895 15.522C706.895 14.3633 707.137 13.3587 707.621 12.508C708.105 11.6573 708.765 11.0047 709.601 10.55C710.437 10.0807 711.375 9.846 712.417 9.846C713.458 9.846 714.397 10.0807 715.233 10.55C716.083 11.0047 716.751 11.6573 717.235 12.508C717.719 13.344 717.961 14.334 717.961 15.478C717.961 16.6367 717.711 17.6413 717.213 18.492C716.729 19.3427 716.061 20.0027 715.211 20.472C714.36 20.9267 713.407 21.154 712.351 21.154ZM712.329 19.262C712.915 19.262 713.465 19.13 713.979 18.866C714.492 18.5873 714.91 18.1693 715.233 17.612C715.57 17.0547 715.739 16.3433 715.739 15.478C715.739 14.6273 715.577 13.9307 715.255 13.388C714.947 12.8307 714.536 12.42 714.023 12.156C713.509 11.8773 712.959 11.738 712.373 11.738C711.801 11.738 711.265 11.8773 710.767 12.156C710.283 12.42 709.887 12.8307 709.579 13.388C709.271 13.9453 709.117 14.6567 709.117 15.522C709.117 16.3727 709.263 17.0767 709.557 17.634C709.865 18.1767 710.261 18.5873 710.745 18.866C711.229 19.13 711.757 19.262 712.329 19.262ZM721.148 10H723.04L723.172 11.276C723.524 10.8213 723.971 10.4693 724.514 10.22C725.057 9.97067 725.658 9.846 726.318 9.846C727.169 9.846 727.902 10.0293 728.518 10.396C729.149 10.748 729.633 11.276 729.97 11.98C730.322 12.684 730.498 13.564 730.498 14.62V21H728.43V14.884C728.43 13.8573 728.21 13.08 727.77 12.552C727.345 12.0093 726.721 11.738 725.9 11.738C725.049 11.738 724.389 12.0167 723.92 12.574C723.451 13.1167 723.216 13.9233 723.216 14.994V21H721.148V10ZM734.844 10V6.92H736.934V10H739.684V11.848H736.934V17.26C736.934 17.9347 737.066 18.4113 737.33 18.69C737.609 18.9687 737.953 19.13 738.364 19.174C738.789 19.2033 739.229 19.1887 739.684 19.13V20.912C739.083 21.044 738.489 21.0807 737.902 21.022C737.33 20.978 736.809 20.8167 736.34 20.538C735.885 20.2593 735.519 19.856 735.24 19.328C734.976 18.7853 734.844 18.096 734.844 17.26V11.848H733.26V10H734.844ZM747.437 21.154C746.381 21.154 745.443 20.912 744.621 20.428C743.815 19.9293 743.177 19.2473 742.707 18.382C742.253 17.5167 742.025 16.5267 742.025 15.412C742.025 14.3413 742.253 13.388 742.707 12.552C743.162 11.716 743.785 11.056 744.577 10.572C745.384 10.088 746.293 9.846 747.305 9.846C748.332 9.846 749.241 10.0733 750.033 10.528C750.825 10.968 751.441 11.5913 751.881 12.398C752.321 13.19 752.534 14.1067 752.519 15.148C752.519 15.324 752.512 15.5073 752.497 15.698C752.483 15.874 752.461 16.072 752.431 16.292H744.291C744.335 16.8787 744.497 17.3993 744.775 17.854C745.069 18.294 745.435 18.6387 745.875 18.888C746.33 19.1373 746.843 19.262 747.415 19.262C748.149 19.262 748.787 19.1227 749.329 18.844C749.872 18.5507 750.253 18.162 750.473 17.678L752.277 18.316C751.837 19.2107 751.192 19.9073 750.341 20.406C749.505 20.9047 748.537 21.154 747.437 21.154ZM750.253 14.51C750.253 13.982 750.121 13.5053 749.857 13.08C749.593 12.6547 749.234 12.3247 748.779 12.09C748.339 11.8407 747.841 11.716 747.283 11.716C746.785 11.716 746.323 11.8407 745.897 12.09C745.487 12.3247 745.135 12.6547 744.841 13.08C744.563 13.4907 744.387 13.9673 744.313 14.51H750.253ZM755.72 10H757.612L757.744 11.276C758.096 10.8213 758.543 10.4693 759.086 10.22C759.628 9.97067 760.23 9.846 760.89 9.846C761.74 9.846 762.474 10.0293 763.09 10.396C763.72 10.748 764.204 11.276 764.542 11.98C764.894 12.684 765.07 13.564 765.07 14.62V21H763.002V14.884C763.002 13.8573 762.782 13.08 762.342 12.552C761.916 12.0093 761.293 11.738 760.472 11.738C759.621 11.738 758.961 12.0167 758.492 12.574C758.022 13.1167 757.788 13.9233 757.788 14.994V21H755.72V10ZM769.416 10V6.92H771.506V10H774.256V11.848H771.506V17.26C771.506 17.9347 771.638 18.4113 771.902 18.69C772.18 18.9687 772.525 19.13 772.936 19.174C773.361 19.2033 773.801 19.1887 774.256 19.13V20.912C773.654 21.044 773.06 21.0807 772.474 21.022C771.902 20.978 771.381 20.8167 770.912 20.538C770.457 20.2593 770.09 19.856 769.812 19.328C769.548 18.7853 769.416 18.096 769.416 17.26V11.848H767.832V10H769.416Z" fill="#010101" fill-opacity="0.8"/>
<rect x="630" y="42" width="100" height="100" rx="50" fill="#FFF1F1"/>
<rect x="633" y="45" width="94" height="94" rx="47" stroke="url(#paint0_linear_5518_7275)" stroke-opacity="0.5" stroke-width="6"/>
<path d="M680.413 76.9238C680.646 76.9239 680.872 77.0137 681.041 77.1777C681.21 77.3424 681.308 77.5694 681.309 77.8086C681.309 78.048 681.211 78.2746 681.041 78.4395C680.872 78.6037 680.646 78.6942 680.413 78.6943H666.151L665.959 78.6992C665.002 78.7466 664.096 79.1367 663.419 79.7949C662.697 80.4965 662.293 81.4448 662.292 82.4307V103.993C662.293 104.979 662.697 105.927 663.419 106.629C664.141 107.331 665.124 107.728 666.151 107.729H688.336L688.527 107.725C689.485 107.677 690.39 107.287 691.067 106.629C691.789 105.928 692.193 104.98 692.194 103.994V90.1318C692.194 89.8925 692.292 89.6658 692.462 89.501L692.527 89.4424C692.687 89.315 692.887 89.2461 693.091 89.2461L693.178 89.251C693.351 89.2677 693.516 89.3333 693.653 89.4424L693.719 89.501L693.779 89.5654C693.912 89.7225 693.986 89.9224 693.986 90.1318V103.995C693.984 105.459 693.386 106.86 692.325 107.891C691.265 108.921 689.83 109.498 688.337 109.5H666.149C664.656 109.498 663.222 108.921 662.162 107.891C661.102 106.86 660.502 105.459 660.5 103.995V82.4297L660.507 82.1553C660.578 80.7912 661.168 79.4996 662.162 78.5332C663.222 77.503 664.656 76.9257 666.149 76.9238H680.413ZM692.908 74.5C693.473 74.5 694.021 74.685 694.466 75.0234L694.65 75.1777L694.66 75.1865H694.659L695.778 76.2773L695.779 76.2783C696.009 76.5036 696.191 76.7717 696.315 77.0674C696.439 77.362 696.502 77.6781 696.5 77.9971L696.487 78.2363C696.463 78.4735 696.403 78.7064 696.309 78.9268C696.183 79.2201 695.998 79.4845 695.768 79.707L683.315 91.8174L683.311 91.8232C683.046 92.0732 682.729 92.2636 682.384 92.3838L682.381 92.3848L677.544 94.0361C677.543 94.0366 677.541 94.0376 677.54 94.0381L677.538 94.0391L677.537 94.0381C677.442 94.0713 677.342 94.0881 677.241 94.0869V94.0879C677.011 94.0854 676.788 93.9959 676.619 93.835L676.611 93.8271C676.494 93.7098 676.411 93.5618 676.373 93.3984C676.336 93.2349 676.345 93.0641 676.401 92.9062L676.402 92.9033L678.107 88.1963C678.231 87.8496 678.433 87.5359 678.699 87.2793L691.157 75.1865L691.166 75.1777C691.638 74.7413 692.262 74.5 692.908 74.5ZM692.886 76.251C692.794 76.251 692.703 76.2688 692.619 76.3027C692.535 76.3366 692.46 76.3861 692.397 76.4473L692.396 76.4482L679.94 88.5557L679.935 88.5605C679.864 88.6269 679.812 88.7075 679.781 88.7949L679.78 88.7979L678.701 91.7861L681.781 90.7334C681.882 90.6989 681.973 90.6436 682.047 90.5723L694.498 78.4697L694.499 78.4688C694.628 78.3447 694.698 78.1795 694.699 78.0098C694.701 77.8399 694.632 77.6737 694.506 77.5479L694.359 77.4004V77.3906L693.378 76.4512L693.375 76.4473C693.312 76.3859 693.236 76.3367 693.152 76.3027C693.068 76.2688 692.978 76.251 692.886 76.251Z" fill="#B15252" stroke="#B15252"/>
<path d="M294.98 223.926C295.699 223.926 296.285 223.816 296.74 223.596C297.209 223.361 297.554 223.039 297.774 222.628C297.994 222.217 298.104 221.741 298.104 221.198C298.104 220.333 297.855 219.658 297.356 219.174C296.857 218.69 296.065 218.448 294.98 218.448H291.438V223.926H294.98ZM300.304 221.198C300.304 221.755 300.209 222.313 300.018 222.87C299.827 223.413 299.519 223.904 299.094 224.344C298.669 224.784 298.111 225.136 297.422 225.4C296.747 225.649 295.933 225.774 294.98 225.774H291.438V232H289.238V216.6H294.98C296.183 216.6 297.173 216.813 297.95 217.238C298.742 217.649 299.329 218.206 299.71 218.91C300.106 219.599 300.304 220.362 300.304 221.198ZM308.204 232.154C307.148 232.154 306.209 231.912 305.388 231.428C304.581 230.929 303.943 230.247 303.474 229.382C303.019 228.517 302.792 227.527 302.792 226.412C302.792 225.341 303.019 224.388 303.474 223.552C303.928 222.716 304.552 222.056 305.344 221.572C306.15 221.088 307.06 220.846 308.072 220.846C309.098 220.846 310.008 221.073 310.8 221.528C311.592 221.968 312.208 222.591 312.648 223.398C313.088 224.19 313.3 225.107 313.286 226.148C313.286 226.324 313.278 226.507 313.264 226.698C313.249 226.874 313.227 227.072 313.198 227.292H305.058C305.102 227.879 305.263 228.399 305.542 228.854C305.835 229.294 306.202 229.639 306.642 229.888C307.096 230.137 307.61 230.262 308.182 230.262C308.915 230.262 309.553 230.123 310.096 229.844C310.638 229.551 311.02 229.162 311.24 228.678L313.044 229.316C312.604 230.211 311.958 230.907 311.108 231.406C310.272 231.905 309.304 232.154 308.204 232.154ZM311.02 225.51C311.02 224.982 310.888 224.505 310.624 224.08C310.36 223.655 310 223.325 309.546 223.09C309.106 222.841 308.607 222.716 308.05 222.716C307.551 222.716 307.089 222.841 306.664 223.09C306.253 223.325 305.901 223.655 305.608 224.08C305.329 224.491 305.153 224.967 305.08 225.51H311.02ZM316.486 221H318.378L318.51 222.474C318.818 222.093 319.17 221.777 319.566 221.528C319.977 221.264 320.417 221.081 320.886 220.978C321.37 220.875 321.869 220.883 322.382 221V222.958C321.898 222.841 321.429 222.826 320.974 222.914C320.519 223.002 320.109 223.193 319.742 223.486C319.39 223.765 319.104 224.139 318.884 224.608C318.664 225.077 318.554 225.642 318.554 226.302V232H316.486V221ZM326.37 228.524C326.473 228.964 326.649 229.309 326.898 229.558C327.148 229.807 327.441 229.991 327.778 230.108C328.13 230.211 328.497 230.262 328.878 230.262C329.538 230.262 330.052 230.13 330.418 229.866C330.785 229.602 330.968 229.272 330.968 228.876C330.968 228.539 330.851 228.275 330.616 228.084C330.396 227.879 330.096 227.717 329.714 227.6C329.348 227.483 328.952 227.373 328.526 227.27C328.145 227.167 327.727 227.05 327.272 226.918C326.832 226.786 326.414 226.61 326.018 226.39C325.637 226.155 325.322 225.862 325.072 225.51C324.823 225.143 324.698 224.681 324.698 224.124C324.698 223.464 324.874 222.892 325.226 222.408C325.593 221.909 326.092 221.528 326.722 221.264C327.368 220.985 328.094 220.846 328.9 220.846C329.839 220.846 330.66 221.051 331.364 221.462C332.083 221.858 332.604 222.459 332.926 223.266L331.056 223.882C330.954 223.603 330.785 223.376 330.55 223.2C330.316 223.024 330.044 222.907 329.736 222.848C329.443 222.775 329.15 222.738 328.856 222.738C328.299 222.738 327.837 222.848 327.47 223.068C327.104 223.288 326.92 223.611 326.92 224.036C326.92 224.271 326.979 224.469 327.096 224.63C327.214 224.777 327.375 224.901 327.58 225.004C327.8 225.092 328.057 225.173 328.35 225.246C328.644 225.319 328.959 225.4 329.296 225.488C329.736 225.62 330.184 225.767 330.638 225.928C331.093 226.075 331.511 226.265 331.892 226.5C332.274 226.735 332.582 227.043 332.816 227.424C333.051 227.805 333.176 228.275 333.19 228.832C333.19 229.477 333.007 230.049 332.64 230.548C332.288 231.047 331.782 231.443 331.122 231.736C330.477 232.015 329.707 232.154 328.812 232.154C327.727 232.154 326.803 231.912 326.04 231.428C325.278 230.944 324.764 230.196 324.5 229.184L326.37 228.524ZM341.187 232.154C340.145 232.154 339.207 231.927 338.371 231.472C337.549 231.003 336.904 230.35 336.435 229.514C335.965 228.663 335.731 227.666 335.731 226.522C335.731 225.363 335.973 224.359 336.457 223.508C336.941 222.657 337.601 222.005 338.437 221.55C339.273 221.081 340.211 220.846 341.253 220.846C342.294 220.846 343.233 221.081 344.069 221.55C344.919 222.005 345.587 222.657 346.071 223.508C346.555 224.344 346.797 225.334 346.797 226.478C346.797 227.637 346.547 228.641 346.049 229.492C345.565 230.343 344.897 231.003 344.047 231.472C343.196 231.927 342.243 232.154 341.187 232.154ZM341.165 230.262C341.751 230.262 342.301 230.13 342.815 229.866C343.328 229.587 343.746 229.169 344.069 228.612C344.406 228.055 344.575 227.343 344.575 226.478C344.575 225.627 344.413 224.931 344.091 224.388C343.783 223.831 343.372 223.42 342.859 223.156C342.345 222.877 341.795 222.738 341.209 222.738C340.637 222.738 340.101 222.877 339.603 223.156C339.119 223.42 338.723 223.831 338.415 224.388C338.107 224.945 337.953 225.657 337.953 226.522C337.953 227.373 338.099 228.077 338.393 228.634C338.701 229.177 339.097 229.587 339.581 229.866C340.065 230.13 340.593 230.262 341.165 230.262ZM349.984 221H351.876L352.008 222.276C352.36 221.821 352.807 221.469 353.35 221.22C353.892 220.971 354.494 220.846 355.154 220.846C356.004 220.846 356.738 221.029 357.354 221.396C357.984 221.748 358.468 222.276 358.806 222.98C359.158 223.684 359.334 224.564 359.334 225.62V232H357.266V225.884C357.266 224.857 357.046 224.08 356.606 223.552C356.18 223.009 355.557 222.738 354.736 222.738C353.885 222.738 353.225 223.017 352.756 223.574C352.286 224.117 352.052 224.923 352.052 225.994V232H349.984V221ZM369.686 232L369.51 230.394C369.172 230.951 368.732 231.384 368.19 231.692C367.662 231.985 366.972 232.132 366.122 232.132C365.33 232.132 364.655 232.007 364.098 231.758C363.54 231.494 363.108 231.135 362.8 230.68C362.506 230.211 362.36 229.668 362.36 229.052C362.36 228.128 362.704 227.365 363.394 226.764C364.083 226.148 365.08 225.767 366.386 225.62L369.51 225.268V224.41C369.51 223.941 369.319 223.545 368.938 223.222C368.556 222.885 368.006 222.716 367.288 222.716C366.613 222.716 366.041 222.877 365.572 223.2C365.102 223.508 364.787 223.97 364.626 224.586L362.778 223.926C363.056 222.958 363.599 222.203 364.406 221.66C365.227 221.117 366.217 220.846 367.376 220.846C368.754 220.846 369.803 221.191 370.522 221.88C371.24 222.569 371.6 223.479 371.6 224.608V232H369.686ZM369.51 226.962L366.496 227.336C365.85 227.424 365.366 227.607 365.044 227.886C364.721 228.15 364.56 228.502 364.56 228.942C364.56 229.353 364.714 229.697 365.022 229.976C365.344 230.24 365.792 230.372 366.364 230.372C367.068 230.372 367.654 230.24 368.124 229.976C368.593 229.712 368.938 229.345 369.158 228.876C369.392 228.392 369.51 227.835 369.51 227.204V226.962ZM375.237 216.16H377.305V232H375.237V216.16ZM381.448 221H383.538V232H381.448V221ZM382.504 219.064C382.108 219.064 381.778 218.932 381.514 218.668C381.25 218.404 381.118 218.081 381.118 217.7C381.118 217.304 381.25 216.974 381.514 216.71C381.778 216.431 382.108 216.292 382.504 216.292C382.885 216.292 383.208 216.431 383.472 216.71C383.751 216.974 383.89 217.304 383.89 217.7C383.89 218.081 383.751 218.404 383.472 218.668C383.208 218.932 382.885 219.064 382.504 219.064ZM395.541 222.694L389.711 230.152H395.563V232H387.115V230.306L392.967 222.848H387.137V221H395.541V222.694ZM403.604 232.154C402.548 232.154 401.61 231.912 400.788 231.428C399.982 230.929 399.344 230.247 398.874 229.382C398.42 228.517 398.192 227.527 398.192 226.412C398.192 225.341 398.42 224.388 398.874 223.552C399.329 222.716 399.952 222.056 400.744 221.572C401.551 221.088 402.46 220.846 403.472 220.846C404.499 220.846 405.408 221.073 406.2 221.528C406.992 221.968 407.608 222.591 408.048 223.398C408.488 224.19 408.701 225.107 408.686 226.148C408.686 226.324 408.679 226.507 408.664 226.698C408.65 226.874 408.628 227.072 408.598 227.292H400.458C400.502 227.879 400.664 228.399 400.942 228.854C401.236 229.294 401.602 229.639 402.042 229.888C402.497 230.137 403.01 230.262 403.582 230.262C404.316 230.262 404.954 230.123 405.496 229.844C406.039 229.551 406.42 229.162 406.64 228.678L408.444 229.316C408.004 230.211 407.359 230.907 406.508 231.406C405.672 231.905 404.704 232.154 403.604 232.154ZM406.42 225.51C406.42 224.982 406.288 224.505 406.024 224.08C405.76 223.655 405.401 223.325 404.946 223.09C404.506 222.841 404.008 222.716 403.45 222.716C402.952 222.716 402.49 222.841 402.064 223.09C401.654 223.325 401.302 223.655 401.008 224.08C400.73 224.491 400.554 224.967 400.48 225.51H406.42ZM420.181 222.87L419.939 222.936V216.16H422.029V232H420.137L419.983 230.35C419.616 230.849 419.118 231.274 418.487 231.626C417.871 231.978 417.116 232.154 416.221 232.154C415.224 232.154 414.351 231.919 413.603 231.45C412.87 230.981 412.29 230.321 411.865 229.47C411.454 228.619 411.249 227.629 411.249 226.5C411.249 225.371 411.454 224.381 411.865 223.53C412.29 222.679 412.87 222.019 413.603 221.55C414.351 221.081 415.224 220.846 416.221 220.846C417.174 220.846 417.981 221.044 418.641 221.44C419.316 221.821 419.829 222.298 420.181 222.87ZM413.471 226.5C413.471 227.629 413.764 228.539 414.351 229.228C414.938 229.917 415.722 230.262 416.705 230.262C417.306 230.262 417.849 230.115 418.333 229.822C418.817 229.529 419.206 229.103 419.499 228.546C419.792 227.974 419.939 227.292 419.939 226.5C419.939 225.708 419.792 225.033 419.499 224.476C419.206 223.919 418.817 223.493 418.333 223.2C417.849 222.892 417.306 222.738 416.705 222.738C415.737 222.738 414.952 223.083 414.351 223.772C413.764 224.461 413.471 225.371 413.471 226.5ZM435.004 216.6V230.152H442.044V232H432.804V216.6H435.004ZM449.643 232.154C448.587 232.154 447.648 231.912 446.827 231.428C446.02 230.929 445.382 230.247 444.913 229.382C444.458 228.517 444.231 227.527 444.231 226.412C444.231 225.341 444.458 224.388 444.913 223.552C445.368 222.716 445.991 222.056 446.783 221.572C447.59 221.088 448.499 220.846 449.511 220.846C450.538 220.846 451.447 221.073 452.239 221.528C453.031 221.968 453.647 222.591 454.087 223.398C454.527 224.19 454.74 225.107 454.725 226.148C454.725 226.324 454.718 226.507 454.703 226.698C454.688 226.874 454.666 227.072 454.637 227.292H446.497C446.541 227.879 446.702 228.399 446.981 228.854C447.274 229.294 447.641 229.639 448.081 229.888C448.536 230.137 449.049 230.262 449.621 230.262C450.354 230.262 450.992 230.123 451.535 229.844C452.078 229.551 452.459 229.162 452.679 228.678L454.483 229.316C454.043 230.211 453.398 230.907 452.547 231.406C451.711 231.905 450.743 232.154 449.643 232.154ZM452.459 225.51C452.459 224.982 452.327 224.505 452.063 224.08C451.799 223.655 451.44 223.325 450.985 223.09C450.545 222.841 450.046 222.716 449.489 222.716C448.99 222.716 448.528 222.841 448.103 223.09C447.692 223.325 447.34 223.655 447.047 224.08C446.768 224.491 446.592 224.967 446.519 225.51H452.459ZM464.635 232L464.459 230.394C464.122 230.951 463.682 231.384 463.139 231.692C462.611 231.985 461.922 232.132 461.071 232.132C460.279 232.132 459.605 232.007 459.047 231.758C458.49 231.494 458.057 231.135 457.749 230.68C457.456 230.211 457.309 229.668 457.309 229.052C457.309 228.128 457.654 227.365 458.343 226.764C459.033 226.148 460.03 225.767 461.335 225.62L464.459 225.268V224.41C464.459 223.941 464.269 223.545 463.887 223.222C463.506 222.885 462.956 222.716 462.237 222.716C461.563 222.716 460.991 222.877 460.521 223.2C460.052 223.508 459.737 223.97 459.575 224.586L457.727 223.926C458.006 222.958 458.549 222.203 459.355 221.66C460.177 221.117 461.167 220.846 462.325 220.846C463.704 220.846 464.753 221.191 465.471 221.88C466.19 222.569 466.549 223.479 466.549 224.608V232H464.635ZM464.459 226.962L461.445 227.336C460.8 227.424 460.316 227.607 459.993 227.886C459.671 228.15 459.509 228.502 459.509 228.942C459.509 229.353 459.663 229.697 459.971 229.976C460.294 230.24 460.741 230.372 461.313 230.372C462.017 230.372 462.604 230.24 463.073 229.976C463.543 229.712 463.887 229.345 464.107 228.876C464.342 228.392 464.459 227.835 464.459 227.204V226.962ZM470.187 221H472.079L472.211 222.474C472.519 222.093 472.871 221.777 473.267 221.528C473.678 221.264 474.118 221.081 474.587 220.978C475.071 220.875 475.57 220.883 476.083 221V222.958C475.599 222.841 475.13 222.826 474.675 222.914C474.22 223.002 473.81 223.193 473.443 223.486C473.091 223.765 472.805 224.139 472.585 224.608C472.365 225.077 472.255 225.642 472.255 226.302V232H470.187V221ZM478.839 221H480.731L480.863 222.276C481.215 221.821 481.662 221.469 482.205 221.22C482.748 220.971 483.349 220.846 484.009 220.846C484.86 220.846 485.593 221.029 486.209 221.396C486.84 221.748 487.324 222.276 487.661 222.98C488.013 223.684 488.189 224.564 488.189 225.62V232H486.121V225.884C486.121 224.857 485.901 224.08 485.461 223.552C485.036 223.009 484.412 222.738 483.591 222.738C482.74 222.738 482.08 223.017 481.611 223.574C481.142 224.117 480.907 224.923 480.907 225.994V232H478.839V221ZM492.161 221H494.251V232H492.161V221ZM493.217 219.064C492.821 219.064 492.491 218.932 492.227 218.668C491.963 218.404 491.831 218.081 491.831 217.7C491.831 217.304 491.963 216.974 492.227 216.71C492.491 216.431 492.821 216.292 493.217 216.292C493.599 216.292 493.921 216.431 494.185 216.71C494.464 216.974 494.603 217.304 494.603 217.7C494.603 218.081 494.464 218.404 494.185 218.668C493.921 218.932 493.599 219.064 493.217 219.064ZM498.378 221H500.27L500.402 222.276C500.754 221.821 501.201 221.469 501.744 221.22C502.287 220.971 502.888 220.846 503.548 220.846C504.399 220.846 505.132 221.029 505.748 221.396C506.379 221.748 506.863 222.276 507.2 222.98C507.552 223.684 507.728 224.564 507.728 225.62V232H505.66V225.884C505.66 224.857 505.44 224.08 505 223.552C504.575 223.009 503.951 222.738 503.13 222.738C502.279 222.738 501.619 223.017 501.15 223.574C500.681 224.117 500.446 224.923 500.446 225.994V232H498.378V221ZM519.62 221H521.512V230.196C521.512 231.487 521.204 232.594 520.588 233.518C519.972 234.442 519.085 235.153 517.926 235.652C516.782 236.151 515.396 236.4 513.768 236.4L513.438 234.574C515.403 234.53 516.892 234.134 517.904 233.386C518.916 232.653 519.422 231.589 519.422 230.196V230.086L519.664 230.108C519.312 230.665 518.806 231.149 518.146 231.56C517.501 231.956 516.694 232.154 515.726 232.154C514.743 232.154 513.871 231.919 513.108 231.45C512.36 230.981 511.773 230.321 511.348 229.47C510.937 228.619 510.732 227.629 510.732 226.5C510.732 225.371 510.937 224.381 511.348 223.53C511.773 222.679 512.36 222.019 513.108 221.55C513.871 221.081 514.743 220.846 515.726 220.846C516.327 220.846 516.863 220.927 517.332 221.088C517.816 221.249 518.234 221.469 518.586 221.748C518.938 222.012 519.231 222.313 519.466 222.65L519.62 221ZM512.954 226.5C512.954 227.629 513.247 228.539 513.834 229.228C514.435 229.917 515.235 230.262 516.232 230.262C516.819 230.262 517.354 230.115 517.838 229.822C518.322 229.514 518.703 229.081 518.982 228.524C519.275 227.952 519.422 227.277 519.422 226.5C519.422 225.708 519.275 225.033 518.982 224.476C518.703 223.919 518.315 223.493 517.816 223.2C517.332 222.892 516.804 222.738 516.232 222.738C515.235 222.738 514.435 223.083 513.834 223.772C513.247 224.461 512.954 225.371 512.954 226.5Z" fill="#010101" fill-opacity="0.8"/>
<rect x="539.5" y="174" width="100" height="100" rx="50" fill="#FFF1F1"/>
<rect x="542.5" y="177" width="94" height="94" rx="47" stroke="url(#paint1_linear_5518_7275)" stroke-opacity="0.5" stroke-width="6"/>
<path d="M603.719 205.084C604.02 205.084 604.309 205.204 604.522 205.417C604.736 205.63 604.855 205.919 604.855 206.221C604.855 206.522 604.736 206.811 604.522 207.024C604.309 207.237 604.02 207.357 603.719 207.357H577.645C577.002 207.357 576.386 207.612 575.932 208.066C575.477 208.521 575.223 209.137 575.223 209.779C575.223 210.421 575.478 211.037 575.932 211.491C576.386 211.945 577.002 212.201 577.645 212.201H604.909C605.059 212.197 605.208 212.221 605.348 212.274C605.491 212.329 605.622 212.411 605.732 212.518C605.843 212.624 605.93 212.751 605.99 212.892C606.05 213.032 606.081 213.184 606.081 213.337V239.413C606.079 239.877 605.985 240.336 605.806 240.764C605.626 241.191 605.364 241.58 605.033 241.905C604.703 242.231 604.311 242.488 603.881 242.662C603.452 242.835 602.992 242.921 602.529 242.916V242.917H576.466V242.916C576.002 242.922 575.542 242.838 575.112 242.665C574.681 242.492 574.289 242.235 573.958 241.909C573.627 241.583 573.365 241.194 573.186 240.766C573.006 240.337 572.914 239.877 572.914 239.412V209.778C572.916 209.159 573.04 208.547 573.278 207.976C573.517 207.404 573.866 206.885 574.306 206.449C574.745 206.013 575.267 205.668 575.84 205.434C576.413 205.2 577.026 205.082 577.645 205.085V205.084H603.719ZM575.234 239.412C575.234 239.739 575.364 240.052 575.595 240.283C575.826 240.514 576.139 240.645 576.466 240.645H602.528C602.691 240.644 602.852 240.611 603.002 240.548C603.151 240.485 603.287 240.393 603.4 240.276L603.403 240.272C603.517 240.16 603.608 240.026 603.669 239.879C603.73 239.732 603.762 239.574 603.761 239.414V214.474H577.644C576.792 214.473 575.96 214.24 575.234 213.805V239.412Z" fill="#B15252" stroke="#B15252" stroke-width="0.5"/>
<path d="M593.12 219.305L593.232 219.311C593.493 219.336 593.737 219.451 593.924 219.638C594.137 219.851 594.257 220.14 594.257 220.441C594.257 220.743 594.137 221.032 593.924 221.245C593.711 221.458 593.421 221.578 593.12 221.578H586.004C585.702 221.578 585.413 221.458 585.2 221.245C584.987 221.032 584.867 220.743 584.867 220.441C584.867 220.14 584.987 219.851 585.2 219.638C585.413 219.425 585.702 219.305 586.004 219.305H593.12Z" fill="#B15252" stroke="#B15252" stroke-width="0.5"/>
<rect x="716.5" y="174" width="100" height="100" rx="50" fill="#FFF1F1"/>
<rect x="719.5" y="177" width="94" height="94" rx="47" stroke="url(#paint2_linear_5518_7275)" stroke-opacity="0.5" stroke-width="6"/>
<path d="M766.5 205.666C768.163 205.666 769.765 206.288 770.993 207.409C772.165 208.479 772.912 209.93 773.109 211.499H773.5C774.03 211.499 774.539 211.71 774.914 212.085C775.289 212.46 775.5 212.969 775.5 213.499C775.5 214.029 775.289 214.538 774.914 214.913C774.539 215.288 774.03 215.499 773.5 215.499H773.169C773.202 216.477 773.537 217.423 774.132 218.205C774.755 218.848 775.531 219.32 776.389 219.577L776.397 219.58C777.695 220.019 778.888 220.719 779.903 221.638L779.908 221.643C780.649 222.349 781.271 223.17 781.751 224.074L783.635 225.952L784.632 225.114C784.714 225.044 784.809 224.991 784.912 224.957C785.016 224.923 785.125 224.909 785.234 224.918C785.343 224.927 785.45 224.957 785.547 225.007C785.643 225.056 785.729 225.124 785.799 225.207L785.85 225.271C785.897 225.339 785.934 225.413 785.96 225.492C785.994 225.597 786.006 225.708 785.997 225.817C785.988 225.927 785.956 226.034 785.905 226.132C785.854 226.229 785.784 226.316 785.699 226.386L784.153 227.689C784.151 227.693 784.15 227.696 784.148 227.698L784.128 227.719L784.12 227.726L767.034 242.134L767.033 242.133C766.885 242.261 766.696 242.333 766.5 242.333C766.303 242.333 766.113 242.261 765.965 242.133L748.88 227.726L748.871 227.719L748.864 227.711L748.852 227.698C748.85 227.697 748.849 227.694 748.847 227.691L747.3 226.385C747.216 226.315 747.147 226.229 747.096 226.133C747.045 226.036 747.013 225.929 747.003 225.82C746.993 225.711 747.005 225.601 747.038 225.497C747.071 225.393 747.125 225.296 747.195 225.212C747.266 225.128 747.352 225.059 747.449 225.009C747.546 224.959 747.653 224.929 747.762 224.92C747.871 224.911 747.981 224.923 748.085 224.957C748.188 224.99 748.284 225.044 748.366 225.114H748.367L749.364 225.952L751.354 223.963L751.355 223.961C751.504 223.815 751.702 223.729 751.91 223.722C752.118 223.714 752.321 223.785 752.479 223.919L756.381 227.209C756.589 224.767 757.674 222.476 759.445 220.766C761.338 218.938 763.866 217.916 766.497 217.915C769.128 217.914 771.656 218.935 773.55 220.761C775.322 222.47 776.408 224.761 776.617 227.203L779.988 224.36C779.645 223.809 779.232 223.303 778.759 222.857V222.856C777.907 222.086 776.903 221.5 775.812 221.139V221.138C774.689 220.792 773.676 220.159 772.874 219.299L772.858 219.281C771.899 218.042 771.415 216.5 771.494 214.935L771.497 214.794C771.499 214.749 771.5 214.708 771.5 214.666V212.333C771.5 211.007 770.973 209.735 770.035 208.797C769.098 207.859 767.826 207.333 766.5 207.333C765.174 207.333 763.902 207.859 762.964 208.797C762.026 209.735 761.5 211.007 761.5 212.333V214.667C761.499 214.887 761.411 215.099 761.255 215.255C761.099 215.411 760.887 215.498 760.667 215.499H759.5C758.97 215.499 758.461 215.288 758.086 214.913C757.711 214.538 757.5 214.029 757.5 213.499C757.5 212.969 757.711 212.46 758.086 212.085C758.461 211.71 758.97 211.499 759.5 211.499H759.89C760.087 209.93 760.834 208.479 762.006 207.409C763.234 206.288 764.837 205.666 766.5 205.666ZM767.034 237.467L767.033 237.466C766.885 237.594 766.696 237.666 766.5 237.666C766.303 237.666 766.113 237.595 765.965 237.466V237.467L751.994 225.686L750.646 227.034L766.5 240.407L782.354 227.034L781.004 225.686L767.034 237.467ZM766.5 219.583C764.246 219.583 762.083 220.478 760.489 222.072C758.895 223.666 758 225.829 758 228.083V228.572L766.5 235.74L775 228.572V228.083C775 225.829 774.104 223.666 772.51 222.072C770.916 220.478 768.754 219.583 766.5 219.583ZM759.5 213.166C759.412 213.166 759.326 213.201 759.264 213.264C759.201 213.326 759.166 213.411 759.166 213.499C759.166 213.587 759.201 213.673 759.264 213.735C759.326 213.798 759.412 213.833 759.5 213.833H759.833V213.166H759.5ZM773.166 213.833H773.5C773.588 213.833 773.673 213.798 773.735 213.735C773.798 213.673 773.833 213.587 773.833 213.499C773.833 213.411 773.798 213.326 773.735 213.264C773.673 213.201 773.588 213.166 773.5 213.166H773.166V213.833Z" fill="#B15252" stroke="#B15252" stroke-width="0.5"/>
<path d="M765.543 207.511C766.497 207.321 767.485 207.418 768.384 207.79C769.282 208.162 770.051 208.793 770.591 209.602C771.131 210.41 771.419 211.361 771.419 212.333L771.413 212.577C771.351 213.792 770.841 214.944 769.978 215.808C769.114 216.672 767.961 217.181 766.747 217.243L766.503 217.249C765.531 217.249 764.58 216.961 763.771 216.421C762.963 215.881 762.332 215.112 761.96 214.214C761.588 213.316 761.491 212.327 761.681 211.373C761.87 210.419 762.339 209.544 763.026 208.856C763.714 208.169 764.589 207.701 765.543 207.511ZM767.137 209.146C766.506 209.02 765.853 209.084 765.259 209.33C764.665 209.576 764.158 209.993 763.801 210.527C763.444 211.062 763.253 211.69 763.253 212.333C763.254 213.195 763.596 214.021 764.205 214.63C764.814 215.239 765.641 215.582 766.503 215.583C767.146 215.583 767.774 215.392 768.309 215.035C768.843 214.678 769.259 214.17 769.505 213.576C769.751 212.982 769.816 212.329 769.69 211.698C769.565 211.068 769.255 210.489 768.801 210.034C768.346 209.58 767.767 209.271 767.137 209.146Z" fill="#B15252" stroke="#B15252" stroke-width="0.5"/>
<path d="M840.39 223.926C841.108 223.926 841.695 223.816 842.15 223.596C842.619 223.361 842.964 223.039 843.184 222.628C843.404 222.217 843.514 221.741 843.514 221.198C843.514 220.333 843.264 219.658 842.766 219.174C842.267 218.69 841.475 218.448 840.39 218.448H836.848V223.926H840.39ZM845.714 221.198C845.714 221.755 845.618 222.313 845.428 222.87C845.237 223.413 844.929 223.904 844.504 224.344C844.078 224.784 843.521 225.136 842.832 225.4C842.157 225.649 841.343 225.774 840.39 225.774H836.848V232H834.648V216.6H840.39C841.592 216.6 842.582 216.813 843.36 217.238C844.152 217.649 844.738 218.206 845.12 218.91C845.516 219.599 845.714 220.362 845.714 221.198ZM848.839 221H850.731L850.863 222.474C851.171 222.093 851.523 221.777 851.919 221.528C852.33 221.264 852.77 221.081 853.239 220.978C853.723 220.875 854.222 220.883 854.735 221V222.958C854.251 222.841 853.782 222.826 853.327 222.914C852.872 223.002 852.462 223.193 852.095 223.486C851.743 223.765 851.457 224.139 851.237 224.608C851.017 225.077 850.907 225.642 850.907 226.302V232H848.839V221ZM862.309 232.154C861.268 232.154 860.329 231.927 859.493 231.472C858.672 231.003 858.027 230.35 857.557 229.514C857.088 228.663 856.853 227.666 856.853 226.522C856.853 225.363 857.095 224.359 857.579 223.508C858.063 222.657 858.723 222.005 859.559 221.55C860.395 221.081 861.334 220.846 862.375 220.846C863.417 220.846 864.355 221.081 865.191 221.55C866.042 222.005 866.709 222.657 867.193 223.508C867.677 224.344 867.919 225.334 867.919 226.478C867.919 227.637 867.67 228.641 867.171 229.492C866.687 230.343 866.02 231.003 865.169 231.472C864.319 231.927 863.365 232.154 862.309 232.154ZM862.287 230.262C862.874 230.262 863.424 230.13 863.937 229.866C864.451 229.587 864.869 229.169 865.191 228.612C865.529 228.055 865.697 227.343 865.697 226.478C865.697 225.627 865.536 224.931 865.213 224.388C864.905 223.831 864.495 223.42 863.981 223.156C863.468 222.877 862.918 222.738 862.331 222.738C861.759 222.738 861.224 222.877 860.725 223.156C860.241 223.42 859.845 223.831 859.537 224.388C859.229 224.945 859.075 225.657 859.075 226.522C859.075 227.373 859.222 228.077 859.515 228.634C859.823 229.177 860.219 229.587 860.703 229.866C861.187 230.13 861.715 230.262 862.287 230.262ZM877.816 232L877.64 230.394C877.303 230.951 876.863 231.384 876.32 231.692C875.792 231.985 875.103 232.132 874.252 232.132C873.46 232.132 872.786 232.007 872.228 231.758C871.671 231.494 871.238 231.135 870.93 230.68C870.637 230.211 870.49 229.668 870.49 229.052C870.49 228.128 870.835 227.365 871.524 226.764C872.214 226.148 873.211 225.767 874.516 225.62L877.64 225.268V224.41C877.64 223.941 877.45 223.545 877.068 223.222C876.687 222.885 876.137 222.716 875.418 222.716C874.744 222.716 874.172 222.877 873.702 223.2C873.233 223.508 872.918 223.97 872.756 224.586L870.908 223.926C871.187 222.958 871.73 222.203 872.536 221.66C873.358 221.117 874.348 220.846 875.506 220.846C876.885 220.846 877.934 221.191 878.652 221.88C879.371 222.569 879.73 223.479 879.73 224.608V232H877.816ZM877.64 226.962L874.626 227.336C873.981 227.424 873.497 227.607 873.174 227.886C872.852 228.15 872.69 228.502 872.69 228.942C872.69 229.353 872.844 229.697 873.152 229.976C873.475 230.24 873.922 230.372 874.494 230.372C875.198 230.372 875.785 230.24 876.254 229.976C876.724 229.712 877.068 229.345 877.288 228.876C877.523 228.392 877.64 227.835 877.64 227.204V226.962ZM888.076 232.154C887.02 232.154 886.089 231.919 885.282 231.45C884.475 230.966 883.845 230.306 883.39 229.47C882.95 228.634 882.73 227.659 882.73 226.544C882.73 225.415 882.957 224.425 883.412 223.574C883.867 222.723 884.497 222.056 885.304 221.572C886.111 221.088 887.049 220.846 888.12 220.846C889.249 220.846 890.239 221.11 891.09 221.638C891.955 222.166 892.579 222.877 892.96 223.772L891.09 224.432C890.87 223.919 890.496 223.508 889.968 223.2C889.455 222.892 888.868 222.738 888.208 222.738C887.533 222.738 886.954 222.899 886.47 223.222C885.986 223.53 885.612 223.97 885.348 224.542C885.084 225.099 884.952 225.759 884.952 226.522C884.952 227.666 885.245 228.575 885.832 229.25C886.419 229.925 887.211 230.262 888.208 230.262C888.868 230.262 889.455 230.115 889.968 229.822C890.496 229.529 890.892 229.125 891.156 228.612L893.004 229.272C892.593 230.152 891.948 230.856 891.068 231.384C890.188 231.897 889.191 232.154 888.076 232.154ZM896.892 221V217.92H898.982V221H901.732V222.848H898.982V228.26C898.982 228.935 899.114 229.411 899.378 229.69C899.657 229.969 900.001 230.13 900.412 230.174C900.837 230.203 901.277 230.189 901.732 230.13V231.912C901.131 232.044 900.537 232.081 899.95 232.022C899.378 231.978 898.857 231.817 898.388 231.538C897.933 231.259 897.567 230.856 897.288 230.328C897.024 229.785 896.892 229.096 896.892 228.26V222.848H895.308V221H896.892ZM905.041 221H907.131V232H905.041V221ZM906.097 219.064C905.701 219.064 905.371 218.932 905.107 218.668C904.843 218.404 904.711 218.081 904.711 217.7C904.711 217.304 904.843 216.974 905.107 216.71C905.371 216.431 905.701 216.292 906.097 216.292C906.479 216.292 906.801 216.431 907.065 216.71C907.344 216.974 907.483 217.304 907.483 217.7C907.483 218.081 907.344 218.404 907.065 218.668C906.801 218.932 906.479 219.064 906.097 219.064ZM912.446 221L915.614 229.778L918.804 221H921.004L916.714 232H914.47L910.202 221H912.446ZM928.53 232.154C927.474 232.154 926.535 231.912 925.714 231.428C924.907 230.929 924.269 230.247 923.8 229.382C923.345 228.517 923.118 227.527 923.118 226.412C923.118 225.341 923.345 224.388 923.8 223.552C924.255 222.716 924.878 222.056 925.67 221.572C926.477 221.088 927.386 220.846 928.398 220.846C929.425 220.846 930.334 221.073 931.126 221.528C931.918 221.968 932.534 222.591 932.974 223.398C933.414 224.19 933.627 225.107 933.612 226.148C933.612 226.324 933.605 226.507 933.59 226.698C933.575 226.874 933.553 227.072 933.524 227.292H925.384C925.428 227.879 925.589 228.399 925.868 228.854C926.161 229.294 926.528 229.639 926.968 229.888C927.423 230.137 927.936 230.262 928.508 230.262C929.241 230.262 929.879 230.123 930.422 229.844C930.965 229.551 931.346 229.162 931.566 228.678L933.37 229.316C932.93 230.211 932.285 230.907 931.434 231.406C930.598 231.905 929.63 232.154 928.53 232.154ZM931.346 225.51C931.346 224.982 931.214 224.505 930.95 224.08C930.686 223.655 930.327 223.325 929.872 223.09C929.432 222.841 928.933 222.716 928.376 222.716C927.877 222.716 927.415 222.841 926.99 223.09C926.579 223.325 926.227 223.655 925.934 224.08C925.655 224.491 925.479 224.967 925.406 225.51H931.346ZM945.112 227.93C945.2 228.341 945.376 228.722 945.64 229.074C945.919 229.426 946.293 229.712 946.762 229.932C947.232 230.152 947.811 230.262 948.5 230.262C949.527 230.262 950.282 230.027 950.766 229.558C951.265 229.074 951.514 228.509 951.514 227.864C951.514 227.336 951.36 226.903 951.052 226.566C950.759 226.214 950.348 225.921 949.82 225.686C949.307 225.437 948.713 225.217 948.038 225.026C947.452 224.85 946.872 224.667 946.3 224.476C945.743 224.271 945.237 224.021 944.782 223.728C944.328 223.42 943.968 223.031 943.704 222.562C943.44 222.078 943.308 221.477 943.308 220.758C943.308 219.863 943.521 219.093 943.946 218.448C944.372 217.803 944.966 217.311 945.728 216.974C946.506 216.622 947.4 216.446 948.412 216.446C949.263 216.446 950.026 216.571 950.7 216.82C951.375 217.055 951.94 217.399 952.394 217.854C952.864 218.294 953.208 218.829 953.428 219.46L951.426 220.186C951.338 219.863 951.155 219.563 950.876 219.284C950.598 218.991 950.246 218.756 949.82 218.58C949.395 218.404 948.918 218.316 948.39 218.316C947.848 218.301 947.356 218.389 946.916 218.58C946.491 218.756 946.146 219.013 945.882 219.35C945.633 219.687 945.508 220.091 945.508 220.56C945.508 221.073 945.655 221.477 945.948 221.77C946.242 222.063 946.63 222.305 947.114 222.496C947.613 222.687 948.156 222.87 948.742 223.046C949.358 223.237 949.96 223.442 950.546 223.662C951.133 223.882 951.661 224.161 952.13 224.498C952.614 224.835 953.003 225.261 953.296 225.774C953.59 226.273 953.736 226.903 953.736 227.666C953.736 228.487 953.546 229.235 953.164 229.91C952.783 230.585 952.204 231.127 951.426 231.538C950.664 231.949 949.703 232.154 948.544 232.154C947.591 232.154 946.733 232.007 945.97 231.714C945.208 231.421 944.577 231.017 944.078 230.504C943.594 229.976 943.272 229.367 943.11 228.678L945.112 227.93ZM966.213 232H964.321L964.167 230.702C963.815 231.171 963.368 231.531 962.825 231.78C962.297 232.029 961.703 232.154 961.043 232.154C960.193 232.154 959.452 231.978 958.821 231.626C958.191 231.259 957.699 230.731 957.347 230.042C957.01 229.338 956.841 228.465 956.841 227.424V221H958.931V227.16C958.931 228.172 959.137 228.942 959.547 229.47C959.973 229.998 960.611 230.262 961.461 230.262C962.297 230.262 962.95 229.991 963.419 229.448C963.903 228.905 964.145 228.099 964.145 227.028V221H966.213V232ZM971.857 230.13L972.077 230.064V236.4H970.009V221H971.901L972.055 222.65C972.407 222.151 972.891 221.726 973.507 221.374C974.138 221.022 974.901 220.846 975.795 220.846C976.763 220.846 977.621 221.081 978.369 221.55C979.117 222.019 979.704 222.679 980.129 223.53C980.569 224.366 980.789 225.356 980.789 226.5C980.789 227.629 980.577 228.619 980.151 229.47C979.741 230.321 979.161 230.981 978.413 231.45C977.665 231.919 976.793 232.154 975.795 232.154C974.842 232.154 974.028 231.963 973.353 231.582C972.693 231.186 972.195 230.702 971.857 230.13ZM978.545 226.5C978.545 225.371 978.245 224.461 977.643 223.772C977.057 223.083 976.287 222.738 975.333 222.738C974.717 222.738 974.167 222.885 973.683 223.178C973.199 223.471 972.811 223.897 972.517 224.454C972.224 225.011 972.077 225.693 972.077 226.5C972.077 227.292 972.224 227.967 972.517 228.524C972.811 229.081 973.199 229.514 973.683 229.822C974.167 230.115 974.717 230.262 975.333 230.262C976.287 230.262 977.057 229.917 977.643 229.228C978.245 228.539 978.545 227.629 978.545 226.5ZM985.795 230.13L986.015 230.064V236.4H983.947V221H985.839L985.993 222.65C986.345 222.151 986.829 221.726 987.445 221.374C988.075 221.022 988.838 220.846 989.733 220.846C990.701 220.846 991.559 221.081 992.307 221.55C993.055 222.019 993.641 222.679 994.067 223.53C994.507 224.366 994.727 225.356 994.727 226.5C994.727 227.629 994.514 228.619 994.089 229.47C993.678 230.321 993.099 230.981 992.351 231.45C991.603 231.919 990.73 232.154 989.733 232.154C988.779 232.154 987.965 231.963 987.291 231.582C986.631 231.186 986.132 230.702 985.795 230.13ZM992.483 226.5C992.483 225.371 992.182 224.461 991.581 223.772C990.994 223.083 990.224 222.738 989.271 222.738C988.655 222.738 988.105 222.885 987.621 223.178C987.137 223.471 986.748 223.897 986.455 224.454C986.161 225.011 986.015 225.693 986.015 226.5C986.015 227.292 986.161 227.967 986.455 228.524C986.748 229.081 987.137 229.514 987.621 229.822C988.105 230.115 988.655 230.262 989.271 230.262C990.224 230.262 990.994 229.917 991.581 229.228C992.182 228.539 992.483 227.629 992.483 226.5ZM1002.7 232.154C1001.66 232.154 1000.72 231.927 999.886 231.472C999.065 231.003 998.419 230.35 997.95 229.514C997.481 228.663 997.246 227.666 997.246 226.522C997.246 225.363 997.488 224.359 997.972 223.508C998.456 222.657 999.116 222.005 999.952 221.55C1000.79 221.081 1001.73 220.846 1002.77 220.846C1003.81 220.846 1004.75 221.081 1005.58 221.55C1006.43 222.005 1007.1 222.657 1007.59 223.508C1008.07 224.344 1008.31 225.334 1008.31 226.478C1008.31 227.637 1008.06 228.641 1007.56 229.492C1007.08 230.343 1006.41 231.003 1005.56 231.472C1004.71 231.927 1003.76 232.154 1002.7 232.154ZM1002.68 230.262C1003.27 230.262 1003.82 230.13 1004.33 229.866C1004.84 229.587 1005.26 229.169 1005.58 228.612C1005.92 228.055 1006.09 227.343 1006.09 226.478C1006.09 225.627 1005.93 224.931 1005.61 224.388C1005.3 223.831 1004.89 223.42 1004.37 223.156C1003.86 222.877 1003.31 222.738 1002.72 222.738C1002.15 222.738 1001.62 222.877 1001.12 223.156C1000.63 223.42 1000.24 223.831 999.93 224.388C999.622 224.945 999.468 225.657 999.468 226.522C999.468 227.373 999.615 228.077 999.908 228.634C1000.22 229.177 1000.61 229.587 1001.1 229.866C1001.58 230.13 1002.11 230.262 1002.68 230.262ZM1011.5 221H1013.39L1013.52 222.474C1013.83 222.093 1014.18 221.777 1014.58 221.528C1014.99 221.264 1015.43 221.081 1015.9 220.978C1016.38 220.875 1016.88 220.883 1017.39 221V222.958C1016.91 222.841 1016.44 222.826 1015.99 222.914C1015.53 223.002 1015.12 223.193 1014.75 223.486C1014.4 223.765 1014.12 224.139 1013.9 224.608C1013.68 225.077 1013.57 225.642 1013.57 226.302V232H1011.5V221ZM1020.86 221V217.92H1022.95V221H1025.7V222.848H1022.95V228.26C1022.95 228.935 1023.08 229.411 1023.34 229.69C1023.62 229.969 1023.96 230.13 1024.38 230.174C1024.8 230.203 1025.24 230.189 1025.7 230.13V231.912C1025.09 232.044 1024.5 232.081 1023.91 232.022C1023.34 231.978 1022.82 231.817 1022.35 231.538C1021.9 231.259 1021.53 230.856 1021.25 230.328C1020.99 229.785 1020.86 229.096 1020.86 228.26V222.848H1019.27V221H1020.86Z" fill="#010101" fill-opacity="0.8"/>
<defs>
<linearGradient id="paint0_linear_5518_7275" x1="680" y1="12" x2="671" y2="133" gradientUnits="userSpaceOnUse">
<stop stop-color="#B15252"/>
<stop offset="1" stop-color="#F0B8B8"/>
</linearGradient>
<linearGradient id="paint1_linear_5518_7275" x1="589.5" y1="144" x2="580.5" y2="265" gradientUnits="userSpaceOnUse">
<stop stop-color="#B15252"/>
<stop offset="1" stop-color="#F0B8B8"/>
</linearGradient>
<linearGradient id="paint2_linear_5518_7275" x1="766.5" y1="144" x2="757.5" y2="265" gradientUnits="userSpaceOnUse">
<stop stop-color="#B15252"/>
<stop offset="1" stop-color="#F0B8B8"/>
</linearGradient>
</defs>
</svg>
