<svg width="737" height="269" viewBox="0 0 737 269" fill="none" xmlns="http://www.w3.org/2000/svg">
<path d="M304.039 2.44816H303.269L298.429 16.0002H296.185L301.729 0.600156H305.535L311.079 16.0002H308.835L304.039 2.44816ZM299.023 10.2362H307.999V12.0842H299.023V10.2362ZM321.779 6.87016L321.537 6.93616V0.160156H323.627V16.0002H321.735L321.581 14.3502C321.215 14.8489 320.716 15.2742 320.085 15.6262C319.469 15.9782 318.714 16.1542 317.819 16.1542C316.822 16.1542 315.949 15.9195 315.201 15.4502C314.468 14.9809 313.889 14.3209 313.463 13.4702C313.053 12.6195 312.847 11.6295 312.847 10.5002C312.847 9.37086 313.053 8.38086 313.463 7.53016C313.889 6.67946 314.468 6.01946 315.201 5.55016C315.949 5.08086 316.822 4.84616 317.819 4.84616C318.773 4.84616 319.579 5.04416 320.239 5.44016C320.914 5.82146 321.427 6.29816 321.779 6.87016ZM315.069 10.5002C315.069 11.6295 315.363 12.5389 315.949 13.2282C316.536 13.9175 317.321 14.2622 318.303 14.2622C318.905 14.2622 319.447 14.1155 319.931 13.8222C320.415 13.5289 320.804 13.1035 321.097 12.5462C321.391 11.9742 321.537 11.2922 321.537 10.5002C321.537 9.70816 321.391 9.03346 321.097 8.47616C320.804 7.91886 320.415 7.49346 319.931 7.20016C319.447 6.89216 318.905 6.73816 318.303 6.73816C317.335 6.73816 316.551 7.08286 315.949 7.77216C315.363 8.46146 315.069 9.37086 315.069 10.5002ZM334.133 16.0002L333.957 14.3942C333.619 14.9515 333.179 15.3842 332.637 15.6922C332.109 15.9855 331.419 16.1322 330.569 16.1322C329.777 16.1322 329.102 16.0075 328.545 15.7582C327.987 15.4942 327.555 15.1349 327.247 14.6802C326.953 14.2109 326.807 13.6682 326.807 13.0522C326.807 12.1282 327.151 11.3655 327.841 10.7642C328.53 10.1482 329.527 9.76686 330.833 9.62016L333.957 9.26816V8.41016C333.957 7.94086 333.766 7.54486 333.385 7.22216C333.003 6.88486 332.453 6.71616 331.735 6.71616C331.06 6.71616 330.488 6.87746 330.019 7.20016C329.549 7.50816 329.234 7.97016 329.073 8.58616L327.225 7.92616C327.503 6.95816 328.046 6.20286 328.853 5.66016C329.674 5.11746 330.664 4.84616 331.823 4.84616C333.201 4.84616 334.25 5.19086 334.969 5.88016C335.687 6.56946 336.047 7.47886 336.047 8.60816V16.0002H334.133ZM333.957 10.9622L330.943 11.3362C330.297 11.4242 329.813 11.6075 329.491 11.8862C329.168 12.1502 329.007 12.5022 329.007 12.9422C329.007 13.3529 329.161 13.6975 329.469 13.9762C329.791 14.2402 330.239 14.3722 330.811 14.3722C331.515 14.3722 332.101 14.2402 332.571 13.9762C333.04 13.7122 333.385 13.3455 333.605 12.8762C333.839 12.3922 333.957 11.8349 333.957 11.2042V10.9622ZM341.532 14.1302L341.752 14.0642V20.4002H339.684V5.00016H341.576L341.73 6.65016C342.082 6.15146 342.566 5.72616 343.182 5.37416C343.813 5.02216 344.576 4.84616 345.47 4.84616C346.438 4.84616 347.296 5.08086 348.044 5.55016C348.792 6.01946 349.379 6.67946 349.804 7.53016C350.244 8.36616 350.464 9.35616 350.464 10.5002C350.464 11.6295 350.252 12.6195 349.826 13.4702C349.416 14.3209 348.836 14.9809 348.088 15.4502C347.34 15.9195 346.468 16.1542 345.47 16.1542C344.517 16.1542 343.703 15.9635 343.028 15.5822C342.368 15.1862 341.87 14.7022 341.532 14.1302ZM348.22 10.5002C348.22 9.37086 347.92 8.46146 347.318 7.77216C346.732 7.08286 345.962 6.73816 345.008 6.73816C344.392 6.73816 343.842 6.88486 343.358 7.17816C342.874 7.47146 342.486 7.89686 342.192 8.45416C341.899 9.01146 341.752 9.69346 341.752 10.5002C341.752 11.2922 341.899 11.9669 342.192 12.5242C342.486 13.0815 342.874 13.5142 343.358 13.8222C343.842 14.1155 344.392 14.2622 345.008 14.2622C345.962 14.2622 346.732 13.9175 347.318 13.2282C347.92 12.5389 348.22 11.6295 348.22 10.5002ZM354.326 5.00016V1.92016H356.416V5.00016H359.166V6.84816H356.416V12.2602C356.416 12.9349 356.548 13.4115 356.812 13.6902C357.09 13.9689 357.435 14.1302 357.846 14.1742C358.271 14.2035 358.711 14.1889 359.166 14.1302V15.9122C358.564 16.0442 357.97 16.0809 357.384 16.0222C356.812 15.9782 356.291 15.8169 355.822 15.5382C355.367 15.2595 355 14.8562 354.722 14.3282C354.458 13.7855 354.326 13.0962 354.326 12.2602V6.84816H352.742V5.00016H354.326ZM362.475 5.00016H364.565V16.0002H362.475V5.00016ZM363.531 3.06416C363.135 3.06416 362.805 2.93216 362.541 2.66816C362.277 2.40416 362.145 2.08149 362.145 1.70016C362.145 1.30416 362.277 0.974156 362.541 0.710156C362.805 0.431486 363.135 0.292156 363.531 0.292156C363.912 0.292156 364.235 0.431486 364.499 0.710156C364.778 0.974156 364.917 1.30416 364.917 1.70016C364.917 2.08149 364.778 2.40416 364.499 2.66816C364.235 2.93216 363.912 3.06416 363.531 3.06416ZM369.88 5.00016L373.048 13.7782L376.238 5.00016H378.438L374.148 16.0002H371.904L367.636 5.00016H369.88ZM385.964 16.1542C384.908 16.1542 383.969 15.9122 383.148 15.4282C382.341 14.9295 381.703 14.2475 381.234 13.3822C380.779 12.5169 380.552 11.5269 380.552 10.4122C380.552 9.34146 380.779 8.38816 381.234 7.55216C381.688 6.71616 382.312 6.05616 383.104 5.57216C383.91 5.08816 384.82 4.84616 385.832 4.84616C386.858 4.84616 387.768 5.07346 388.56 5.52816C389.352 5.96816 389.968 6.59146 390.408 7.39816C390.848 8.19016 391.06 9.10686 391.046 10.1482C391.046 10.3242 391.038 10.5075 391.024 10.6982C391.009 10.8742 390.987 11.0722 390.958 11.2922H382.818C382.862 11.8789 383.023 12.3995 383.302 12.8542C383.595 13.2942 383.962 13.6389 384.402 13.8882C384.856 14.1375 385.37 14.2622 385.942 14.2622C386.675 14.2622 387.313 14.1229 387.856 13.8442C388.398 13.5509 388.78 13.1622 389 12.6782L390.804 13.3162C390.364 14.2109 389.718 14.9075 388.868 15.4062C388.032 15.9049 387.064 16.1542 385.964 16.1542ZM388.78 9.51016C388.78 8.98216 388.648 8.50546 388.384 8.08016C388.12 7.65486 387.76 7.32486 387.306 7.09016C386.866 6.84086 386.367 6.71616 385.81 6.71616C385.311 6.71616 384.849 6.84086 384.424 7.09016C384.013 7.32486 383.661 7.65486 383.368 8.08016C383.089 8.49086 382.913 8.96746 382.84 9.51016H388.78ZM400.368 8.30016C400.368 7.14146 400.566 6.08546 400.962 5.13216C401.358 4.16416 401.908 3.33549 402.612 2.64616C403.316 1.94216 404.13 1.39949 405.054 1.01816C405.993 0.636827 407.005 0.446157 408.09 0.446157C409.63 0.446157 411.001 0.805487 412.204 1.52416C413.421 2.24283 414.345 3.27683 414.976 4.62616L413.216 5.26416C412.864 4.57483 412.417 4.01749 411.874 3.59216C411.331 3.16683 410.737 2.85149 410.092 2.64616C409.447 2.44083 408.794 2.33816 408.134 2.33816C407.093 2.33816 406.147 2.58016 405.296 3.06416C404.46 3.54816 403.8 4.23749 403.316 5.13216C402.847 6.02686 402.612 7.08286 402.612 8.30016C402.612 9.50286 402.847 10.5515 403.316 11.4462C403.8 12.3409 404.46 13.0375 405.296 13.5362C406.147 14.0202 407.093 14.2622 408.134 14.2622C408.809 14.2622 409.476 14.1522 410.136 13.9322C410.796 13.7122 411.412 13.3602 411.984 12.8762C412.556 12.3775 413.025 11.7322 413.392 10.9402L415.152 11.5562C414.492 13.1109 413.546 14.2695 412.314 15.0322C411.082 15.7802 409.674 16.1542 408.09 16.1542C407.005 16.1542 405.993 15.9635 405.054 15.5822C404.13 15.2009 403.316 14.6582 402.612 13.9542C401.908 13.2502 401.358 12.4215 400.962 11.4682C400.566 10.5002 400.368 9.44416 400.368 8.30016ZM423.351 16.1542C422.309 16.1542 421.371 15.9269 420.535 15.4722C419.713 15.0029 419.068 14.3502 418.599 13.5142C418.129 12.6635 417.895 11.6662 417.895 10.5222C417.895 9.36346 418.137 8.35886 418.621 7.50816C419.105 6.65746 419.765 6.00486 420.601 5.55016C421.437 5.08086 422.375 4.84616 423.417 4.84616C424.458 4.84616 425.397 5.08086 426.233 5.55016C427.083 6.00486 427.751 6.65746 428.235 7.50816C428.719 8.34416 428.961 9.33416 428.961 10.4782C428.961 11.6369 428.711 12.6415 428.213 13.4922C427.729 14.3429 427.061 15.0029 426.211 15.4722C425.36 15.9269 424.407 16.1542 423.351 16.1542ZM423.329 14.2622C423.915 14.2622 424.465 14.1302 424.979 13.8662C425.492 13.5875 425.91 13.1695 426.233 12.6122C426.57 12.0549 426.739 11.3435 426.739 10.4782C426.739 9.62746 426.577 8.93086 426.255 8.38816C425.947 7.83086 425.536 7.42016 425.023 7.15616C424.509 6.87746 423.959 6.73816 423.373 6.73816C422.801 6.73816 422.265 6.87746 421.767 7.15616C421.283 7.42016 420.887 7.83086 420.579 8.38816C420.271 8.94546 420.117 9.65686 420.117 10.5222C420.117 11.3729 420.263 12.0769 420.557 12.6342C420.865 13.1769 421.261 13.5875 421.745 13.8662C422.229 14.1302 422.757 14.2622 423.329 14.2622ZM432.148 5.00016H434.04L434.172 6.27616C434.524 5.82146 434.971 5.46946 435.514 5.22016C436.057 4.97083 436.658 4.84616 437.318 4.84616C438.169 4.84616 438.902 5.02946 439.518 5.39616C440.149 5.74816 440.633 6.27616 440.97 6.98016C441.322 7.68416 441.498 8.56416 441.498 9.62016V16.0002H439.43V9.88416C439.43 8.85746 439.21 8.08016 438.77 7.55216C438.345 7.00946 437.721 6.73816 436.9 6.73816C436.049 6.73816 435.389 7.01686 434.92 7.57416C434.451 8.11686 434.216 8.92346 434.216 9.99416V16.0002H432.148V5.00016ZM445.844 5.00016V1.92016H447.934V5.00016H450.684V6.84816H447.934V12.2602C447.934 12.9349 448.066 13.4115 448.33 13.6902C448.609 13.9689 448.953 14.1302 449.364 14.1742C449.789 14.2035 450.229 14.1889 450.684 14.1302V15.9122C450.083 16.0442 449.489 16.0809 448.902 16.0222C448.33 15.9782 447.809 15.8169 447.34 15.5382C446.885 15.2595 446.519 14.8562 446.24 14.3282C445.976 13.7855 445.844 13.0962 445.844 12.2602V6.84816H444.26V5.00016H445.844ZM458.437 16.1542C457.381 16.1542 456.443 15.9122 455.621 15.4282C454.815 14.9295 454.177 14.2475 453.707 13.3822C453.253 12.5169 453.025 11.5269 453.025 10.4122C453.025 9.34146 453.253 8.38816 453.707 7.55216C454.162 6.71616 454.785 6.05616 455.577 5.57216C456.384 5.08816 457.293 4.84616 458.305 4.84616C459.332 4.84616 460.241 5.07346 461.033 5.52816C461.825 5.96816 462.441 6.59146 462.881 7.39816C463.321 8.19016 463.534 9.10686 463.519 10.1482C463.519 10.3242 463.512 10.5075 463.497 10.6982C463.483 10.8742 463.461 11.0722 463.431 11.2922H455.291C455.335 11.8789 455.497 12.3995 455.775 12.8542C456.069 13.2942 456.435 13.6389 456.875 13.8882C457.33 14.1375 457.843 14.2622 458.415 14.2622C459.149 14.2622 459.787 14.1229 460.329 13.8442C460.872 13.5509 461.253 13.1622 461.473 12.6782L463.277 13.3162C462.837 14.2109 462.192 14.9075 461.341 15.4062C460.505 15.9049 459.537 16.1542 458.437 16.1542ZM461.253 9.51016C461.253 8.98216 461.121 8.50546 460.857 8.08016C460.593 7.65486 460.234 7.32486 459.779 7.09016C459.339 6.84086 458.841 6.71616 458.283 6.71616C457.785 6.71616 457.323 6.84086 456.897 7.09016C456.487 7.32486 456.135 7.65486 455.841 8.08016C455.563 8.49086 455.387 8.96746 455.313 9.51016H461.253ZM466.72 5.00016H468.612L468.744 6.27616C469.096 5.82146 469.543 5.46946 470.086 5.22016C470.628 4.97083 471.23 4.84616 471.89 4.84616C472.74 4.84616 473.474 5.02946 474.09 5.39616C474.72 5.74816 475.204 6.27616 475.542 6.98016C475.894 7.68416 476.07 8.56416 476.07 9.62016V16.0002H474.002V9.88416C474.002 8.85746 473.782 8.08016 473.342 7.55216C472.916 7.00946 472.293 6.73816 471.472 6.73816C470.621 6.73816 469.961 7.01686 469.492 7.57416C469.022 8.11686 468.788 8.92346 468.788 9.99416V16.0002H466.72V5.00016ZM480.416 5.00016V1.92016H482.506V5.00016H485.256V6.84816H482.506V12.2602C482.506 12.9349 482.638 13.4115 482.902 13.6902C483.18 13.9689 483.525 14.1302 483.936 14.1742C484.361 14.2035 484.801 14.1889 485.256 14.1302V15.9122C484.654 16.0442 484.06 16.0809 483.474 16.0222C482.902 15.9782 482.381 15.8169 481.912 15.5382C481.457 15.2595 481.09 14.8562 480.812 14.3282C480.548 13.7855 480.416 13.0962 480.416 12.2602V6.84816H478.832V5.00016H480.416Z" fill="#010101" fill-opacity="0.8"/>
<path d="M441 87C441 59.3858 418.614 37 391 37C363.386 37 341 59.3858 341 87C341 114.614 363.386 137 391 137C418.614 137 441 114.614 441 87Z" fill="#FFF1F1"/>
<path d="M438 87C438 61.0426 416.957 40 391 40C365.043 40 344 61.0426 344 87C344 112.957 365.043 134 391 134C416.957 134 438 112.957 438 87Z" stroke="url(#paint0_linear_738_3904)" stroke-opacity="0.5" stroke-width="6"/>
<path d="M391.413 71.9238C391.646 71.9239 391.872 72.0137 392.041 72.1777C392.21 72.3424 392.308 72.5694 392.309 72.8086C392.309 73.048 392.211 73.2746 392.041 73.4395C391.872 73.6037 391.646 73.6942 391.413 73.6943H377.151L376.959 73.6992C376.002 73.7466 375.096 74.1367 374.419 74.7949C373.697 75.4965 373.293 76.4448 373.292 77.4307V98.993C373.293 99.979 373.697 100.927 374.419 101.629C375.141 102.331 376.124 102.728 377.151 102.729H399.336L399.527 102.725C400.485 102.677 401.39 102.287 402.067 101.629C402.789 100.928 403.193 99.98 403.194 98.994V85.1318C403.194 84.8925 403.292 84.6658 403.462 84.501L403.527 84.4424C403.687 84.315 403.887 84.2461 404.091 84.2461L404.178 84.251C404.351 84.2677 404.516 84.3333 404.653 84.4424L404.719 84.501L404.779 84.5654C404.912 84.7225 404.986 84.9224 404.986 85.1318V98.995C404.984 100.459 404.386 101.86 403.325 102.891C402.265 103.921 400.83 104.498 399.337 104.5H377.149C375.656 104.498 374.222 103.921 373.162 102.891C372.102 101.86 371.502 100.459 371.5 98.995V77.4297L371.507 77.1553C371.578 75.7912 372.168 74.4996 373.162 73.5332C374.222 72.503 375.656 71.9257 377.149 71.9238H391.413ZM403.908 69.5C404.473 69.5 405.021 69.685 405.466 70.0234L405.65 70.1777L405.66 70.1865L406.778 71.2773L406.779 71.2783C407.009 71.5036 407.191 71.7717 407.315 72.0674C407.439 72.362 407.502 72.6781 407.5 72.9971L407.487 73.2363C407.463 73.4735 407.403 73.7064 407.309 73.9268C407.183 74.2201 406.998 74.4845 406.768 74.707L394.315 86.8174L394.311 86.8232C394.046 87.0732 393.729 87.2636 393.384 87.3838L393.381 87.3848L388.544 89.0361C388.543 89.0366 388.541 89.0376 388.54 89.0381L388.538 89.0391L388.537 89.0381C388.442 89.0713 388.342 89.0881 388.241 89.0869C388.011 89.0844 387.788 88.9959 387.619 88.835L387.611 88.8271C387.494 88.7098 387.411 88.5618 387.373 88.3984C387.336 88.2349 387.345 88.0641 387.401 87.9062L387.402 87.9033L389.107 83.1963C389.231 82.8496 389.433 82.5359 389.699 82.2793L402.157 70.1865L402.166 70.1777C402.638 69.7413 403.262 69.5 403.908 69.5ZM403.886 71.251C403.794 71.251 403.703 71.2688 403.619 71.3027C403.535 71.3366 403.46 71.3861 403.397 71.4473L403.396 71.4482L390.94 83.5557L390.935 83.5605C390.864 83.6269 390.812 83.7075 390.781 83.7949L390.78 83.7979L389.701 86.7861L392.781 85.7334C392.882 85.6989 392.973 85.6436 393.047 85.5723L405.498 73.4697L405.499 73.4688C405.628 73.3447 405.698 73.1795 405.699 73.0098C405.701 72.8399 405.632 72.6737 405.506 72.5479L405.359 72.4004V72.3906L404.378 71.4512L404.375 71.4473C404.312 71.3859 404.236 71.3367 404.152 71.3027C404.068 71.2688 403.978 71.251 403.886 71.251Z" fill="#B15252" stroke="#B15252"/>
<path d="M5.98029 218.926C6.69929 218.926 7.28526 218.816 7.74026 218.596C8.20926 218.361 8.55426 218.039 8.77426 217.628C8.99426 217.217 9.10428 216.741 9.10428 216.198C9.10428 215.333 8.85526 214.658 8.35626 214.174C7.85726 213.69 7.06529 213.448 5.98029 213.448H2.43826V218.926H5.98029ZM11.3043 216.198C11.3043 216.755 11.2093 217.313 11.0183 217.87C10.8273 218.413 10.5193 218.904 10.0943 219.344C9.66927 219.784 9.11127 220.136 8.42227 220.4C7.74727 220.649 6.93329 220.774 5.98029 220.774H2.43826V227H0.238281V211.6H5.98029C7.18329 211.6 8.17329 211.813 8.95029 212.238C9.74229 212.649 10.3293 213.206 10.7103 213.91C11.1063 214.599 11.3043 215.362 11.3043 216.198ZM19.2043 227.154C18.1483 227.154 17.2093 226.912 16.3883 226.428C15.5813 225.929 14.9433 225.247 14.4743 224.382C14.0193 223.517 13.7923 222.527 13.7923 221.412C13.7923 220.341 14.0193 219.388 14.4743 218.552C14.9283 217.716 15.5523 217.056 16.3443 216.572C17.1503 216.088 18.0603 215.846 19.0723 215.846C20.0983 215.846 21.0083 216.073 21.8003 216.528C22.5923 216.968 23.2083 217.591 23.6483 218.398C24.0883 219.19 24.3003 220.107 24.2863 221.148C24.2863 221.324 24.2783 221.507 24.2643 221.698C24.2493 221.874 24.2273 222.072 24.1983 222.292H16.0583C16.1023 222.879 16.2633 223.399 16.5423 223.854C16.8353 224.294 17.2023 224.639 17.6423 224.888C18.0963 225.137 18.6103 225.262 19.1823 225.262C19.9153 225.262 20.5533 225.123 21.0963 224.844C21.6383 224.551 22.0203 224.162 22.2403 223.678L24.0443 224.316C23.6043 225.211 22.9583 225.907 22.1083 226.406C21.2723 226.905 20.3043 227.154 19.2043 227.154ZM22.0203 220.51C22.0203 219.982 21.8883 219.505 21.6243 219.08C21.3603 218.655 21.0003 218.325 20.5463 218.09C20.1063 217.841 19.6073 217.716 19.0503 217.716C18.5513 217.716 18.0893 217.841 17.6643 218.09C17.2533 218.325 16.9013 218.655 16.6083 219.08C16.3293 219.491 16.1533 219.967 16.0803 220.51H22.0203ZM27.4863 216H29.3783L29.5103 217.474C29.8183 217.093 30.1703 216.777 30.5663 216.528C30.9773 216.264 31.4173 216.081 31.8863 215.978C32.3703 215.875 32.8693 215.883 33.3823 216V217.958C32.8983 217.841 32.4293 217.826 31.9743 217.914C31.5193 218.002 31.1093 218.193 30.7423 218.486C30.3903 218.765 30.1043 219.139 29.8843 219.608C29.6643 220.077 29.5543 220.642 29.5543 221.302V227H27.4863V216ZM37.3703 223.524C37.4733 223.964 37.6493 224.309 37.8983 224.558C38.1483 224.807 38.4413 224.991 38.7783 225.108C39.1303 225.211 39.4973 225.262 39.8783 225.262C40.5383 225.262 41.0523 225.13 41.4183 224.866C41.7853 224.602 41.9683 224.272 41.9683 223.876C41.9683 223.539 41.8513 223.275 41.6163 223.084C41.3963 222.879 41.0963 222.717 40.7143 222.6C40.3483 222.483 39.9523 222.373 39.5263 222.27C39.1453 222.167 38.7273 222.05 38.2723 221.918C37.8323 221.786 37.4143 221.61 37.0183 221.39C36.6373 221.155 36.3223 220.862 36.0723 220.51C35.8233 220.143 35.6983 219.681 35.6983 219.124C35.6983 218.464 35.8743 217.892 36.2263 217.408C36.5933 216.909 37.0923 216.528 37.7223 216.264C38.3683 215.985 39.0943 215.846 39.9003 215.846C40.8393 215.846 41.6603 216.051 42.3643 216.462C43.0833 216.858 43.6043 217.459 43.9263 218.266L42.0563 218.882C41.9543 218.603 41.7853 218.376 41.5503 218.2C41.3163 218.024 41.0443 217.907 40.7363 217.848C40.4433 217.775 40.1503 217.738 39.8563 217.738C39.2993 217.738 38.8373 217.848 38.4703 218.068C38.1043 218.288 37.9203 218.611 37.9203 219.036C37.9203 219.271 37.9793 219.469 38.0963 219.63C38.2143 219.777 38.3753 219.901 38.5803 220.004C38.8003 220.092 39.0573 220.173 39.3503 220.246C39.6443 220.319 39.9593 220.4 40.2963 220.488C40.7363 220.62 41.1843 220.767 41.6383 220.928C42.0933 221.075 42.5113 221.265 42.8923 221.5C43.2743 221.735 43.5823 222.043 43.8163 222.424C44.0513 222.805 44.1763 223.275 44.1903 223.832C44.1903 224.477 44.0073 225.049 43.6403 225.548C43.2883 226.047 42.7823 226.443 42.1223 226.736C41.4773 227.015 40.7073 227.154 39.8123 227.154C38.7273 227.154 37.8033 226.912 37.0403 226.428C36.2783 225.944 35.7643 225.196 35.5003 224.184L37.3703 223.524ZM52.1873 227.154C51.1453 227.154 50.2073 226.927 49.3713 226.472C48.5493 226.003 47.9043 225.35 47.4353 224.514C46.9653 223.663 46.7313 222.666 46.7313 221.522C46.7313 220.363 46.9733 219.359 47.4573 218.508C47.9413 217.657 48.6013 217.005 49.4373 216.55C50.2733 216.081 51.2113 215.846 52.2533 215.846C53.2943 215.846 54.2333 216.081 55.0693 216.55C55.9193 217.005 56.5873 217.657 57.0713 218.508C57.5553 219.344 57.7973 220.334 57.7973 221.478C57.7973 222.637 57.5473 223.641 57.0493 224.492C56.5653 225.343 55.8973 226.003 55.0473 226.472C54.1963 226.927 53.2433 227.154 52.1873 227.154ZM52.1653 225.262C52.7513 225.262 53.3013 225.13 53.8153 224.866C54.3283 224.587 54.7463 224.169 55.0693 223.612C55.4063 223.055 55.5753 222.343 55.5753 221.478C55.5753 220.627 55.4133 219.931 55.0913 219.388C54.7833 218.831 54.3723 218.42 53.8593 218.156C53.3453 217.877 52.7953 217.738 52.2093 217.738C51.6373 217.738 51.1013 217.877 50.6033 218.156C50.1193 218.42 49.7233 218.831 49.4153 219.388C49.1073 219.945 48.9533 220.657 48.9533 221.522C48.9533 222.373 49.0993 223.077 49.3933 223.634C49.7013 224.177 50.0973 224.587 50.5813 224.866C51.0653 225.13 51.5933 225.262 52.1653 225.262ZM60.9843 216H62.8763L63.0083 217.276C63.3603 216.821 63.8073 216.469 64.3503 216.22C64.8923 215.971 65.4943 215.846 66.1543 215.846C67.0043 215.846 67.7383 216.029 68.3543 216.396C68.9843 216.748 69.4683 217.276 69.8063 217.98C70.1583 218.684 70.3343 219.564 70.3343 220.62V227H68.2663V220.884C68.2663 219.857 68.0463 219.08 67.6063 218.552C67.1803 218.009 66.5573 217.738 65.7363 217.738C64.8853 217.738 64.2253 218.017 63.7563 218.574C63.2863 219.117 63.0523 219.923 63.0523 220.994V227H60.9843V216ZM80.6863 227L80.5103 225.394C80.1723 225.951 79.7323 226.384 79.1903 226.692C78.6623 226.985 77.9723 227.132 77.1223 227.132C76.3303 227.132 75.6553 227.007 75.0983 226.758C74.5403 226.494 74.1083 226.135 73.8003 225.68C73.5063 225.211 73.3603 224.668 73.3603 224.052C73.3603 223.128 73.7043 222.365 74.3943 221.764C75.0833 221.148 76.0803 220.767 77.3863 220.62L80.5103 220.268V219.41C80.5103 218.941 80.3193 218.545 79.9383 218.222C79.5563 217.885 79.0063 217.716 78.2883 217.716C77.6133 217.716 77.0413 217.877 76.5723 218.2C76.1023 218.508 75.7873 218.97 75.6263 219.586L73.7783 218.926C74.0563 217.958 74.5993 217.203 75.4063 216.66C76.2273 216.117 77.2173 215.846 78.3763 215.846C79.7543 215.846 80.8033 216.191 81.5223 216.88C82.2403 217.569 82.6003 218.479 82.6003 219.608V227H80.6863ZM80.5103 221.962L77.4963 222.336C76.8503 222.424 76.3663 222.607 76.0443 222.886C75.7213 223.15 75.5603 223.502 75.5603 223.942C75.5603 224.353 75.7143 224.697 76.0223 224.976C76.3443 225.24 76.7923 225.372 77.3643 225.372C78.0683 225.372 78.6543 225.24 79.1243 224.976C79.5933 224.712 79.9383 224.345 80.1583 223.876C80.3923 223.392 80.5103 222.835 80.5103 222.204V221.962ZM86.2373 211.16H88.3053V227H86.2373V211.16ZM92.4483 216H94.5383V227H92.4483V216ZM93.5043 214.064C93.1083 214.064 92.7783 213.932 92.5143 213.668C92.2503 213.404 92.1183 213.081 92.1183 212.7C92.1183 212.304 92.2503 211.974 92.5143 211.71C92.7783 211.431 93.1083 211.292 93.5043 211.292C93.8853 211.292 94.2083 211.431 94.4723 211.71C94.7513 211.974 94.8903 212.304 94.8903 212.7C94.8903 213.081 94.7513 213.404 94.4723 213.668C94.2083 213.932 93.8853 214.064 93.5043 214.064ZM106.541 217.694L100.711 225.152H106.563V227H98.1153V225.306L103.967 217.848H98.1373V216H106.541V217.694ZM114.604 227.154C113.548 227.154 112.61 226.912 111.788 226.428C110.982 225.929 110.344 225.247 109.874 224.382C109.42 223.517 109.192 222.527 109.192 221.412C109.192 220.341 109.42 219.388 109.874 218.552C110.329 217.716 110.952 217.056 111.744 216.572C112.551 216.088 113.46 215.846 114.472 215.846C115.499 215.846 116.408 216.073 117.2 216.528C117.992 216.968 118.608 217.591 119.048 218.398C119.488 219.19 119.701 220.107 119.686 221.148C119.686 221.324 119.679 221.507 119.664 221.698C119.65 221.874 119.628 222.072 119.598 222.292H111.458C111.502 222.879 111.664 223.399 111.942 223.854C112.236 224.294 112.602 224.639 113.042 224.888C113.497 225.137 114.01 225.262 114.582 225.262C115.316 225.262 115.954 225.123 116.496 224.844C117.039 224.551 117.42 224.162 117.64 223.678L119.444 224.316C119.004 225.211 118.359 225.907 117.508 226.406C116.672 226.905 115.704 227.154 114.604 227.154ZM117.42 220.51C117.42 219.982 117.288 219.505 117.024 219.08C116.76 218.655 116.401 218.325 115.946 218.09C115.506 217.841 115.008 217.716 114.45 217.716C113.952 217.716 113.49 217.841 113.064 218.09C112.654 218.325 112.302 218.655 112.008 219.08C111.73 219.491 111.554 219.967 111.48 220.51H117.42ZM131.181 217.87L130.939 217.936V211.16H133.029V227H131.137L130.983 225.35C130.616 225.849 130.118 226.274 129.487 226.626C128.871 226.978 128.116 227.154 127.221 227.154C126.224 227.154 125.351 226.919 124.603 226.45C123.87 225.981 123.29 225.321 122.865 224.47C122.454 223.619 122.249 222.629 122.249 221.5C122.249 220.371 122.454 219.381 122.865 218.53C123.29 217.679 123.87 217.019 124.603 216.55C125.351 216.081 126.224 215.846 127.221 215.846C128.174 215.846 128.981 216.044 129.641 216.44C130.316 216.821 130.829 217.298 131.181 217.87ZM124.471 221.5C124.471 222.629 124.764 223.539 125.351 224.228C125.938 224.917 126.722 225.262 127.705 225.262C128.306 225.262 128.849 225.115 129.333 224.822C129.817 224.529 130.206 224.103 130.499 223.546C130.792 222.974 130.939 222.292 130.939 221.5C130.939 220.708 130.792 220.033 130.499 219.476C130.206 218.919 129.817 218.493 129.333 218.2C128.849 217.892 128.306 217.738 127.705 217.738C126.737 217.738 125.952 218.083 125.351 218.772C124.764 219.461 124.471 220.371 124.471 221.5ZM146.004 211.6V225.152H153.044V227H143.804V211.6H146.004ZM160.643 227.154C159.587 227.154 158.648 226.912 157.827 226.428C157.02 225.929 156.382 225.247 155.913 224.382C155.458 223.517 155.231 222.527 155.231 221.412C155.231 220.341 155.458 219.388 155.913 218.552C156.368 217.716 156.991 217.056 157.783 216.572C158.59 216.088 159.499 215.846 160.511 215.846C161.538 215.846 162.447 216.073 163.239 216.528C164.031 216.968 164.647 217.591 165.087 218.398C165.527 219.19 165.74 220.107 165.725 221.148C165.725 221.324 165.718 221.507 165.703 221.698C165.688 221.874 165.666 222.072 165.637 222.292H157.497C157.541 222.879 157.702 223.399 157.981 223.854C158.274 224.294 158.641 224.639 159.081 224.888C159.536 225.137 160.049 225.262 160.621 225.262C161.354 225.262 161.992 225.123 162.535 224.844C163.078 224.551 163.459 224.162 163.679 223.678L165.483 224.316C165.043 225.211 164.398 225.907 163.547 226.406C162.711 226.905 161.743 227.154 160.643 227.154ZM163.459 220.51C163.459 219.982 163.327 219.505 163.063 219.08C162.799 218.655 162.44 218.325 161.985 218.09C161.545 217.841 161.046 217.716 160.489 217.716C159.99 217.716 159.528 217.841 159.103 218.09C158.692 218.325 158.34 218.655 158.047 219.08C157.768 219.491 157.592 219.967 157.519 220.51H163.459ZM175.635 227L175.459 225.394C175.122 225.951 174.682 226.384 174.139 226.692C173.611 226.985 172.922 227.132 172.071 227.132C171.279 227.132 170.605 227.007 170.047 226.758C169.49 226.494 169.057 226.135 168.749 225.68C168.456 225.211 168.309 224.668 168.309 224.052C168.309 223.128 168.654 222.365 169.343 221.764C170.033 221.148 171.03 220.767 172.335 220.62L175.459 220.268V219.41C175.459 218.941 175.269 218.545 174.887 218.222C174.506 217.885 173.956 217.716 173.237 217.716C172.563 217.716 171.991 217.877 171.521 218.2C171.052 218.508 170.737 218.97 170.575 219.586L168.727 218.926C169.006 217.958 169.549 217.203 170.355 216.66C171.177 216.117 172.167 215.846 173.325 215.846C174.704 215.846 175.753 216.191 176.471 216.88C177.19 217.569 177.549 218.479 177.549 219.608V227H175.635ZM175.459 221.962L172.445 222.336C171.8 222.424 171.316 222.607 170.993 222.886C170.671 223.15 170.509 223.502 170.509 223.942C170.509 224.353 170.663 224.697 170.971 224.976C171.294 225.24 171.741 225.372 172.313 225.372C173.017 225.372 173.604 225.24 174.073 224.976C174.543 224.712 174.887 224.345 175.107 223.876C175.342 223.392 175.459 222.835 175.459 222.204V221.962ZM181.187 216H183.079L183.211 217.474C183.519 217.093 183.871 216.777 184.267 216.528C184.678 216.264 185.118 216.081 185.587 215.978C186.071 215.875 186.57 215.883 187.083 216V217.958C186.599 217.841 186.13 217.826 185.675 217.914C185.22 218.002 184.81 218.193 184.443 218.486C184.091 218.765 183.805 219.139 183.585 219.608C183.365 220.077 183.255 220.642 183.255 221.302V227H181.187V216ZM189.839 216H191.731L191.863 217.276C192.215 216.821 192.662 216.469 193.205 216.22C193.748 215.971 194.349 215.846 195.009 215.846C195.86 215.846 196.593 216.029 197.209 216.396C197.84 216.748 198.324 217.276 198.661 217.98C199.013 218.684 199.189 219.564 199.189 220.62V227H197.121V220.884C197.121 219.857 196.901 219.08 196.461 218.552C196.036 218.009 195.412 217.738 194.591 217.738C193.74 217.738 193.08 218.017 192.611 218.574C192.142 219.117 191.907 219.923 191.907 220.994V227H189.839V216ZM203.161 216H205.251V227H203.161V216ZM204.217 214.064C203.821 214.064 203.491 213.932 203.227 213.668C202.963 213.404 202.831 213.081 202.831 212.7C202.831 212.304 202.963 211.974 203.227 211.71C203.491 211.431 203.821 211.292 204.217 211.292C204.599 211.292 204.921 211.431 205.185 211.71C205.464 211.974 205.603 212.304 205.603 212.7C205.603 213.081 205.464 213.404 205.185 213.668C204.921 213.932 204.599 214.064 204.217 214.064ZM209.378 216H211.27L211.402 217.276C211.754 216.821 212.201 216.469 212.744 216.22C213.287 215.971 213.888 215.846 214.548 215.846C215.399 215.846 216.132 216.029 216.748 216.396C217.379 216.748 217.863 217.276 218.2 217.98C218.552 218.684 218.728 219.564 218.728 220.62V227H216.66V220.884C216.66 219.857 216.44 219.08 216 218.552C215.575 218.009 214.951 217.738 214.13 217.738C213.279 217.738 212.619 218.017 212.15 218.574C211.681 219.117 211.446 219.923 211.446 220.994V227H209.378V216ZM230.62 216H232.512V225.196C232.512 226.487 232.204 227.594 231.588 228.518C230.972 229.442 230.085 230.153 228.926 230.652C227.782 231.151 226.396 231.4 224.768 231.4L224.438 229.574C226.403 229.53 227.892 229.134 228.904 228.386C229.916 227.653 230.422 226.589 230.422 225.196V225.086L230.664 225.108C230.312 225.665 229.806 226.149 229.146 226.56C228.501 226.956 227.694 227.154 226.726 227.154C225.743 227.154 224.871 226.919 224.108 226.45C223.36 225.981 222.773 225.321 222.348 224.47C221.937 223.619 221.732 222.629 221.732 221.5C221.732 220.371 221.937 219.381 222.348 218.53C222.773 217.679 223.36 217.019 224.108 216.55C224.871 216.081 225.743 215.846 226.726 215.846C227.327 215.846 227.863 215.927 228.332 216.088C228.816 216.249 229.234 216.469 229.586 216.748C229.938 217.012 230.231 217.313 230.466 217.65L230.62 216ZM223.954 221.5C223.954 222.629 224.247 223.539 224.834 224.228C225.435 224.917 226.235 225.262 227.232 225.262C227.819 225.262 228.354 225.115 228.838 224.822C229.322 224.514 229.703 224.081 229.982 223.524C230.275 222.952 230.422 222.277 230.422 221.5C230.422 220.708 230.275 220.033 229.982 219.476C229.703 218.919 229.315 218.493 228.816 218.2C228.332 217.892 227.804 217.738 227.232 217.738C226.235 217.738 225.435 218.083 224.834 218.772C224.247 219.461 223.954 220.371 223.954 221.5Z" fill="#010101" fill-opacity="0.8"/>
<path d="M350.5 219C350.5 191.386 328.114 169 300.5 169C272.886 169 250.5 191.386 250.5 219C250.5 246.614 272.886 269 300.5 269C328.114 269 350.5 246.614 350.5 219Z" fill="#FFF1F1"/>
<path d="M347.5 219C347.5 193.043 326.457 172 300.5 172C274.543 172 253.5 193.043 253.5 219C253.5 244.957 274.543 266 300.5 266C326.457 266 347.5 244.957 347.5 219Z" stroke="url(#paint1_linear_738_3904)" stroke-opacity="0.5" stroke-width="6"/>
<path d="M314.719 200.084C315.02 200.084 315.309 200.204 315.522 200.417C315.736 200.63 315.855 200.919 315.855 201.221C315.855 201.522 315.736 201.811 315.522 202.024C315.309 202.237 315.02 202.357 314.719 202.357H288.645C288.002 202.357 287.386 202.612 286.932 203.066C286.477 203.521 286.223 204.137 286.223 204.779C286.223 205.421 286.478 206.037 286.932 206.491C287.386 206.945 288.002 207.201 288.645 207.201H315.909C316.059 207.197 316.208 207.221 316.348 207.274C316.491 207.329 316.622 207.411 316.732 207.518C316.843 207.624 316.93 207.751 316.99 207.892C317.05 208.032 317.081 208.184 317.081 208.337V234.413C317.079 234.877 316.985 235.336 316.806 235.764C316.626 236.191 316.364 236.58 316.033 236.905C315.703 237.231 315.311 237.488 314.881 237.662C314.452 237.835 313.992 237.921 313.529 237.916V237.917H287.466V237.916C287.002 237.922 286.542 237.838 286.112 237.665C285.681 237.492 285.289 237.235 284.958 236.909C284.627 236.583 284.365 236.194 284.186 235.766C284.006 235.337 283.914 234.877 283.914 234.412V204.778C283.916 204.159 284.04 203.547 284.278 202.976C284.517 202.404 284.866 201.885 285.306 201.449C285.745 201.013 286.267 200.668 286.84 200.434C287.413 200.2 288.026 200.082 288.645 200.085V200.084H314.719ZM286.234 234.412C286.234 234.739 286.364 235.052 286.595 235.283C286.826 235.514 287.139 235.645 287.466 235.645H313.528C313.691 235.644 313.852 235.611 314.002 235.548C314.151 235.485 314.287 235.393 314.4 235.276L314.403 235.272C314.517 235.16 314.608 235.026 314.669 234.879C314.73 234.732 314.762 234.574 314.761 234.414V209.474H288.644C287.792 209.473 286.96 209.24 286.234 208.805V234.412Z" fill="#B15252" stroke="#B15252" stroke-width="0.5"/>
<path d="M304.12 214.305L304.232 214.311C304.493 214.336 304.737 214.451 304.924 214.638C305.137 214.851 305.257 215.14 305.257 215.441C305.257 215.743 305.137 216.032 304.924 216.245C304.711 216.458 304.421 216.578 304.12 216.578H297.004C296.702 216.578 296.413 216.458 296.2 216.245C295.987 216.032 295.867 215.743 295.867 215.441C295.867 215.14 295.987 214.851 296.2 214.638C296.413 214.425 296.702 214.305 297.004 214.305H304.12Z" fill="#B15252" stroke="#B15252" stroke-width="0.5"/>
<path d="M527.5 219C527.5 191.386 505.114 169 477.5 169C449.886 169 427.5 191.386 427.5 219C427.5 246.614 449.886 269 477.5 269C505.114 269 527.5 246.614 527.5 219Z" fill="#FFF1F1"/>
<path d="M524.5 219C524.5 193.043 503.457 172 477.5 172C451.543 172 430.5 193.043 430.5 219C430.5 244.957 451.543 266 477.5 266C503.457 266 524.5 244.957 524.5 219Z" stroke="url(#paint2_linear_738_3904)" stroke-opacity="0.5" stroke-width="6"/>
<path d="M477.5 200.666C479.163 200.666 480.765 201.288 481.993 202.409C483.165 203.479 483.912 204.93 484.109 206.499H484.5C485.03 206.499 485.539 206.71 485.914 207.085C486.289 207.46 486.5 207.969 486.5 208.499C486.5 209.029 486.289 209.538 485.914 209.913C485.539 210.288 485.03 210.499 484.5 210.499H484.169C484.202 211.477 484.537 212.423 485.132 213.205C485.755 213.848 486.531 214.32 487.389 214.577L487.397 214.58C488.695 215.019 489.888 215.719 490.903 216.638L490.908 216.643C491.649 217.349 492.271 218.17 492.751 219.074L494.635 220.952L495.632 220.114C495.714 220.044 495.809 219.991 495.912 219.957C496.016 219.923 496.125 219.909 496.234 219.918C496.343 219.927 496.45 219.957 496.547 220.007C496.643 220.056 496.729 220.124 496.799 220.207L496.85 220.271C496.897 220.339 496.934 220.413 496.96 220.492C496.994 220.597 497.006 220.708 496.997 220.817C496.988 220.927 496.956 221.034 496.905 221.132C496.854 221.229 496.784 221.316 496.699 221.386L495.153 222.689C495.151 222.693 495.15 222.696 495.148 222.698L495.128 222.719L495.12 222.726L478.034 237.134L478.033 237.133C477.885 237.261 477.696 237.333 477.5 237.333C477.303 237.333 477.113 237.261 476.965 237.133L459.88 222.726L459.871 222.719L459.864 222.711L459.852 222.698C459.85 222.697 459.849 222.694 459.847 222.691L458.3 221.385C458.216 221.315 458.147 221.229 458.096 221.133C458.045 221.036 458.013 220.929 458.003 220.82C457.993 220.711 458.005 220.601 458.038 220.497C458.071 220.393 458.125 220.296 458.195 220.212C458.266 220.128 458.352 220.059 458.449 220.009C458.546 219.959 458.653 219.929 458.762 219.92C458.871 219.911 458.981 219.923 459.085 219.957C459.188 219.99 459.284 220.044 459.366 220.114L460.364 220.952L462.354 218.963L462.355 218.961C462.504 218.815 462.702 218.729 462.91 218.722C463.118 218.714 463.321 218.785 463.479 218.919L467.381 222.209C467.589 219.767 468.674 217.476 470.445 215.766C472.338 213.938 474.866 212.916 477.497 212.915C480.128 212.914 482.656 213.935 484.55 215.761C486.322 217.47 487.408 219.761 487.617 222.203L490.988 219.36C490.645 218.809 490.232 218.303 489.759 217.857C488.907 217.087 487.903 216.5 486.812 216.139V216.138C485.689 215.792 484.676 215.159 483.874 214.299L483.858 214.281C482.899 213.042 482.415 211.5 482.494 209.935L482.497 209.794C482.499 209.749 482.5 209.708 482.5 209.666V207.333C482.5 206.007 481.973 204.735 481.035 203.797C480.098 202.859 478.826 202.333 477.5 202.333C476.174 202.333 474.902 202.859 473.964 203.797C473.026 204.735 472.5 206.007 472.5 207.333V209.667C472.499 209.887 472.411 210.099 472.255 210.255C472.099 210.411 471.887 210.498 471.667 210.499H470.5C469.97 210.499 469.461 210.288 469.086 209.913C468.711 209.538 468.5 209.029 468.5 208.499C468.5 207.969 468.711 207.46 469.086 207.085C469.461 206.71 469.97 206.499 470.5 206.499H470.89C471.087 204.93 471.834 203.479 473.006 202.409C474.234 201.288 475.837 200.666 477.5 200.666ZM478.034 232.467L478.033 232.466C477.885 232.594 477.696 232.666 477.5 232.666C477.303 232.666 477.113 232.595 476.965 232.466L462.994 220.686L461.646 222.034L477.5 235.407L493.354 222.034L492.004 220.686L478.034 232.467ZM477.5 214.583C475.246 214.583 473.083 215.478 471.489 217.072C469.895 218.666 469 220.829 469 223.083V223.572L477.5 230.74L486 223.572V223.083C486 220.829 485.104 218.666 483.51 217.072C481.916 215.478 479.754 214.583 477.5 214.583ZM470.5 208.166C470.412 208.166 470.326 208.201 470.264 208.264C470.201 208.326 470.166 208.411 470.166 208.499C470.166 208.587 470.201 208.673 470.264 208.735C470.326 208.798 470.412 208.833 470.5 208.833H470.833V208.166H470.5ZM484.166 208.833H484.5C484.588 208.833 484.673 208.798 484.735 208.735C484.798 208.673 484.833 208.587 484.833 208.499C484.833 208.411 484.798 208.326 484.735 208.264C484.673 208.201 484.588 208.166 484.5 208.166H484.166V208.833Z" fill="#B15252" stroke="#B15252" stroke-width="0.5"/>
<path d="M476.543 202.511C477.497 202.321 478.485 202.418 479.384 202.79C480.282 203.162 481.051 203.793 481.591 204.602C482.131 205.41 482.419 206.361 482.419 207.333L482.413 207.577C482.351 208.792 481.841 209.944 480.978 210.808C480.114 211.672 478.961 212.181 477.747 212.243L477.503 212.249C476.531 212.249 475.58 211.961 474.771 211.421C473.963 210.881 473.332 210.112 472.96 209.214C472.588 208.316 472.491 207.327 472.681 206.373C472.87 205.419 473.339 204.544 474.026 203.856C474.714 203.169 475.589 202.701 476.543 202.511ZM478.137 204.146C477.506 204.02 476.853 204.084 476.259 204.33C475.665 204.576 475.158 204.993 474.801 205.527C474.444 206.062 474.253 206.69 474.253 207.333C474.254 208.195 474.596 209.021 475.205 209.63C475.814 210.239 476.641 210.582 477.503 210.583C478.146 210.583 478.774 210.392 479.309 210.035C479.843 209.678 480.259 209.17 480.505 208.576C480.751 207.982 480.816 207.329 480.69 206.698C480.565 206.068 480.255 205.489 479.801 205.034C479.346 204.58 478.767 204.271 478.137 204.146Z" fill="#B15252" stroke="#B15252" stroke-width="0.5"/>
<path d="M551.39 218.927C552.108 218.927 552.695 218.817 553.15 218.597C553.619 218.362 553.964 218.04 554.184 217.629C554.404 217.218 554.514 216.742 554.514 216.199C554.514 215.334 554.264 214.659 553.766 214.175C553.267 213.691 552.475 213.449 551.39 213.449H547.848V218.927H551.39ZM556.714 216.199C556.714 216.756 556.618 217.314 556.428 217.871C556.237 218.414 555.929 218.905 555.504 219.345C555.078 219.785 554.521 220.137 553.832 220.401C553.157 220.65 552.343 220.775 551.39 220.775H547.848V227.001H545.648V211.601H551.39C552.592 211.601 553.582 211.814 554.36 212.239C555.152 212.65 555.738 213.207 556.12 213.911C556.516 214.6 556.714 215.363 556.714 216.199ZM559.839 216.001H561.731L561.863 217.475C562.171 217.094 562.523 216.778 562.919 216.529C563.33 216.265 563.77 216.082 564.239 215.979C564.723 215.876 565.222 215.884 565.735 216.001V217.959C565.251 217.842 564.782 217.827 564.327 217.915C563.872 218.003 563.462 218.194 563.095 218.487C562.743 218.766 562.457 219.14 562.237 219.609C562.017 220.078 561.907 220.643 561.907 221.303V227.001H559.839V216.001ZM573.309 227.155C572.268 227.155 571.329 226.928 570.493 226.473C569.672 226.004 569.027 225.351 568.557 224.515C568.088 223.664 567.853 222.667 567.853 221.523C567.853 220.364 568.095 219.36 568.579 218.509C569.063 217.658 569.723 217.006 570.559 216.551C571.395 216.082 572.334 215.847 573.375 215.847C574.417 215.847 575.355 216.082 576.191 216.551C577.042 217.006 577.709 217.658 578.193 218.509C578.677 219.345 578.919 220.335 578.919 221.479C578.919 222.638 578.67 223.642 578.171 224.493C577.687 225.344 577.02 226.004 576.169 226.473C575.319 226.928 574.365 227.155 573.309 227.155ZM573.287 225.263C573.874 225.263 574.424 225.131 574.937 224.867C575.451 224.588 575.869 224.17 576.191 223.613C576.529 223.056 576.697 222.344 576.697 221.479C576.697 220.628 576.536 219.932 576.213 219.389C575.905 218.832 575.495 218.421 574.981 218.157C574.468 217.878 573.918 217.739 573.331 217.739C572.759 217.739 572.224 217.878 571.725 218.157C571.241 218.421 570.845 218.832 570.537 219.389C570.229 219.946 570.075 220.658 570.075 221.523C570.075 222.374 570.222 223.078 570.515 223.635C570.823 224.178 571.219 224.588 571.703 224.867C572.187 225.131 572.715 225.263 573.287 225.263ZM588.816 227.001L588.64 225.395C588.303 225.952 587.863 226.385 587.32 226.693C586.792 226.986 586.103 227.133 585.252 227.133C584.46 227.133 583.786 227.008 583.228 226.759C582.671 226.495 582.238 226.136 581.93 225.681C581.637 225.212 581.49 224.669 581.49 224.053C581.49 223.129 581.835 222.366 582.524 221.765C583.214 221.149 584.211 220.768 585.516 220.621L588.64 220.269V219.411C588.64 218.942 588.45 218.546 588.068 218.223C587.687 217.886 587.137 217.717 586.418 217.717C585.744 217.717 585.172 217.878 584.702 218.201C584.233 218.509 583.918 218.971 583.756 219.587L581.908 218.927C582.187 217.959 582.73 217.204 583.536 216.661C584.358 216.118 585.348 215.847 586.506 215.847C587.885 215.847 588.934 216.192 589.652 216.881C590.371 217.57 590.73 218.48 590.73 219.609V227.001H588.816ZM588.64 221.963L585.626 222.337C584.981 222.425 584.497 222.608 584.174 222.887C583.852 223.151 583.69 223.503 583.69 223.943C583.69 224.354 583.844 224.698 584.152 224.977C584.475 225.241 584.922 225.373 585.494 225.373C586.198 225.373 586.785 225.241 587.254 224.977C587.724 224.713 588.068 224.346 588.288 223.877C588.523 223.393 588.64 222.836 588.64 222.205V221.963ZM599.076 227.155C598.02 227.155 597.089 226.92 596.282 226.451C595.475 225.967 594.845 225.307 594.39 224.471C593.95 223.635 593.73 222.66 593.73 221.545C593.73 220.416 593.957 219.426 594.412 218.575C594.867 217.724 595.497 217.057 596.304 216.573C597.111 216.089 598.049 215.847 599.12 215.847C600.249 215.847 601.239 216.111 602.09 216.639C602.955 217.167 603.579 217.878 603.96 218.773L602.09 219.433C601.87 218.92 601.496 218.509 600.968 218.201C600.455 217.893 599.868 217.739 599.208 217.739C598.533 217.739 597.954 217.9 597.47 218.223C596.986 218.531 596.612 218.971 596.348 219.543C596.084 220.1 595.952 220.76 595.952 221.523C595.952 222.667 596.245 223.576 596.832 224.251C597.419 224.926 598.211 225.263 599.208 225.263C599.868 225.263 600.455 225.116 600.968 224.823C601.496 224.53 601.892 224.126 602.156 223.613L604.004 224.273C603.593 225.153 602.948 225.857 602.068 226.385C601.188 226.898 600.191 227.155 599.076 227.155ZM607.892 216.001V212.921H609.982V216.001H612.732V217.849H609.982V223.261C609.982 223.936 610.114 224.412 610.378 224.691C610.657 224.97 611.001 225.131 611.412 225.175C611.837 225.204 612.277 225.19 612.732 225.131V226.913C612.131 227.045 611.537 227.082 610.95 227.023C610.378 226.979 609.857 226.818 609.388 226.539C608.933 226.26 608.567 225.857 608.288 225.329C608.024 224.786 607.892 224.097 607.892 223.261V217.849H606.308V216.001H607.892ZM616.041 216.001H618.131V227.001H616.041V216.001ZM617.097 214.065C616.701 214.065 616.371 213.933 616.107 213.669C615.843 213.405 615.711 213.082 615.711 212.701C615.711 212.305 615.843 211.975 616.107 211.711C616.371 211.432 616.701 211.293 617.097 211.293C617.479 211.293 617.801 211.432 618.065 211.711C618.344 211.975 618.483 212.305 618.483 212.701C618.483 213.082 618.344 213.405 618.065 213.669C617.801 213.933 617.479 214.065 617.097 214.065ZM623.446 216.001L626.614 224.779L629.804 216.001H632.004L627.714 227.001H625.47L621.202 216.001H623.446ZM639.53 227.155C638.474 227.155 637.535 226.913 636.714 226.429C635.907 225.93 635.269 225.248 634.8 224.383C634.345 223.518 634.118 222.528 634.118 221.413C634.118 220.342 634.345 219.389 634.8 218.553C635.255 217.717 635.878 217.057 636.67 216.573C637.477 216.089 638.386 215.847 639.398 215.847C640.425 215.847 641.334 216.074 642.126 216.529C642.918 216.969 643.534 217.592 643.974 218.399C644.414 219.191 644.627 220.108 644.612 221.149C644.612 221.325 644.605 221.508 644.59 221.699C644.575 221.875 644.553 222.073 644.524 222.293H636.384C636.428 222.88 636.589 223.4 636.868 223.855C637.161 224.295 637.528 224.64 637.968 224.889C638.423 225.138 638.936 225.263 639.508 225.263C640.241 225.263 640.879 225.124 641.422 224.845C641.965 224.552 642.346 224.163 642.566 223.679L644.37 224.317C643.93 225.212 643.285 225.908 642.434 226.407C641.598 226.906 640.63 227.155 639.53 227.155ZM642.346 220.511C642.346 219.983 642.214 219.506 641.95 219.081C641.686 218.656 641.327 218.326 640.872 218.091C640.432 217.842 639.933 217.717 639.376 217.717C638.877 217.717 638.415 217.842 637.99 218.091C637.579 218.326 637.227 218.656 636.934 219.081C636.655 219.492 636.479 219.968 636.406 220.511H642.346ZM656.112 222.931C656.2 223.342 656.376 223.723 656.64 224.075C656.919 224.427 657.293 224.713 657.762 224.933C658.232 225.153 658.811 225.263 659.5 225.263C660.527 225.263 661.282 225.028 661.766 224.559C662.265 224.075 662.514 223.51 662.514 222.865C662.514 222.337 662.36 221.904 662.052 221.567C661.759 221.215 661.348 220.922 660.82 220.687C660.307 220.438 659.713 220.218 659.038 220.027C658.452 219.851 657.872 219.668 657.3 219.477C656.743 219.272 656.237 219.022 655.782 218.729C655.328 218.421 654.968 218.032 654.704 217.563C654.44 217.079 654.308 216.478 654.308 215.759C654.308 214.864 654.521 214.094 654.946 213.449C655.372 212.804 655.966 212.312 656.728 211.975C657.506 211.623 658.4 211.447 659.412 211.447C660.263 211.447 661.026 211.572 661.7 211.821C662.375 212.056 662.94 212.4 663.394 212.855C663.864 213.295 664.208 213.83 664.428 214.461L662.426 215.187C662.338 214.864 662.155 214.564 661.876 214.285C661.598 213.992 661.246 213.757 660.82 213.581C660.395 213.405 659.918 213.317 659.39 213.317C658.848 213.302 658.356 213.39 657.916 213.581C657.491 213.757 657.146 214.014 656.882 214.351C656.633 214.688 656.508 215.092 656.508 215.561C656.508 216.074 656.655 216.478 656.948 216.771C657.242 217.064 657.63 217.306 658.114 217.497C658.613 217.688 659.156 217.871 659.742 218.047C660.358 218.238 660.96 218.443 661.546 218.663C662.133 218.883 662.661 219.162 663.13 219.499C663.614 219.836 664.003 220.262 664.296 220.775C664.59 221.274 664.736 221.904 664.736 222.667C664.736 223.488 664.546 224.236 664.164 224.911C663.783 225.586 663.204 226.128 662.426 226.539C661.664 226.95 660.703 227.155 659.544 227.155C658.591 227.155 657.733 227.008 656.97 226.715C656.208 226.422 655.577 226.018 655.078 225.505C654.594 224.977 654.272 224.368 654.11 223.679L656.112 222.931ZM677.213 227.001H675.321L675.167 225.703C674.815 226.172 674.368 226.532 673.825 226.781C673.297 227.03 672.703 227.155 672.043 227.155C671.193 227.155 670.452 226.979 669.821 226.627C669.191 226.26 668.699 225.732 668.347 225.043C668.01 224.339 667.841 223.466 667.841 222.425V216.001H669.931V222.161C669.931 223.173 670.137 223.943 670.547 224.471C670.973 224.999 671.611 225.263 672.461 225.263C673.297 225.263 673.95 224.992 674.419 224.449C674.903 223.906 675.145 223.1 675.145 222.029V216.001H677.213V227.001ZM682.857 225.131L683.077 225.065V231.401H681.009V216.001H682.901L683.055 217.651C683.407 217.152 683.891 216.727 684.507 216.375C685.138 216.023 685.901 215.847 686.795 215.847C687.763 215.847 688.621 216.082 689.369 216.551C690.117 217.02 690.704 217.68 691.129 218.531C691.569 219.367 691.789 220.357 691.789 221.501C691.789 222.63 691.577 223.62 691.151 224.471C690.741 225.322 690.161 225.982 689.413 226.451C688.665 226.92 687.793 227.155 686.795 227.155C685.842 227.155 685.028 226.964 684.353 226.583C683.693 226.187 683.195 225.703 682.857 225.131ZM689.545 221.501C689.545 220.372 689.245 219.462 688.643 218.773C688.057 218.084 687.287 217.739 686.333 217.739C685.717 217.739 685.167 217.886 684.683 218.179C684.199 218.472 683.811 218.898 683.517 219.455C683.224 220.012 683.077 220.694 683.077 221.501C683.077 222.293 683.224 222.968 683.517 223.525C683.811 224.082 684.199 224.515 684.683 224.823C685.167 225.116 685.717 225.263 686.333 225.263C687.287 225.263 688.057 224.918 688.643 224.229C689.245 223.54 689.545 222.63 689.545 221.501ZM696.795 225.131L697.015 225.065V231.401H694.947V216.001H696.839L696.993 217.651C697.345 217.152 697.829 216.727 698.445 216.375C699.075 216.023 699.838 215.847 700.733 215.847C701.701 215.847 702.559 216.082 703.307 216.551C704.055 217.02 704.641 217.68 705.067 218.531C705.507 219.367 705.727 220.357 705.727 221.501C705.727 222.63 705.514 223.62 705.089 224.471C704.678 225.322 704.099 225.982 703.351 226.451C702.603 226.92 701.73 227.155 700.733 227.155C699.779 227.155 698.965 226.964 698.291 226.583C697.631 226.187 697.132 225.703 696.795 225.131ZM703.483 221.501C703.483 220.372 703.182 219.462 702.581 218.773C701.994 218.084 701.224 217.739 700.271 217.739C699.655 217.739 699.105 217.886 698.621 218.179C698.137 218.472 697.748 218.898 697.455 219.455C697.161 220.012 697.015 220.694 697.015 221.501C697.015 222.293 697.161 222.968 697.455 223.525C697.748 224.082 698.137 224.515 698.621 224.823C699.105 225.116 699.655 225.263 700.271 225.263C701.224 225.263 701.994 224.918 702.581 224.229C703.182 223.54 703.483 222.63 703.483 221.501ZM713.7 227.155C712.66 227.155 711.72 226.928 710.886 226.473C710.065 226.004 709.419 225.351 708.95 224.515C708.481 223.664 708.246 222.667 708.246 221.523C708.246 220.364 708.488 219.36 708.972 218.509C709.456 217.658 710.116 217.006 710.952 216.551C711.79 216.082 712.73 215.847 713.77 215.847C714.81 215.847 715.75 216.082 716.58 216.551C717.43 217.006 718.1 217.658 718.59 218.509C719.07 219.345 719.31 220.335 719.31 221.479C719.31 222.638 719.06 223.642 718.56 224.493C718.08 225.344 717.41 226.004 716.56 226.473C715.71 226.928 714.76 227.155 713.7 227.155ZM713.68 225.263C714.27 225.263 714.82 225.131 715.33 224.867C715.84 224.588 716.26 224.17 716.58 223.613C716.92 223.056 717.09 222.344 717.09 221.479C717.09 220.628 716.93 219.932 716.61 219.389C716.3 218.832 715.89 218.421 715.37 218.157C714.86 217.878 714.31 217.739 713.72 217.739C713.15 217.739 712.62 217.878 712.12 218.157C711.63 218.421 711.24 218.832 710.93 219.389C710.622 219.946 710.468 220.658 710.468 221.523C710.468 222.374 710.615 223.078 710.908 223.635C711.22 224.178 711.61 224.588 712.1 224.867C712.58 225.131 713.11 225.263 713.68 225.263ZM722.5 216.001H724.39L724.52 217.475C724.83 217.094 725.18 216.778 725.58 216.529C725.99 216.265 726.43 216.082 726.9 215.979C727.38 215.876 727.88 215.884 728.39 216.001V217.959C727.91 217.842 727.44 217.827 726.99 217.915C726.53 218.003 726.12 218.194 725.75 218.487C725.4 218.766 725.12 219.14 724.9 219.609C724.68 220.078 724.57 220.643 724.57 221.303V227.001H722.5V216.001ZM731.86 216.001V212.921H733.95V216.001H736.7V217.849H733.95V223.261C733.95 223.936 734.08 224.412 734.34 224.691C734.62 224.97 734.96 225.131 735.38 225.175C735.8 225.204 736.24 225.19 736.7 225.131V226.913C736.09 227.045 735.5 227.082 734.91 227.023C734.34 226.979 733.82 226.818 733.35 226.539C732.9 226.26 732.53 225.857 732.25 225.329C731.99 224.786 731.86 224.097 731.86 223.261V217.849H730.27V216.001H731.86Z" fill="#010101" fill-opacity="0.8"/>
<defs>
<linearGradient id="paint0_linear_738_3904" x1="391" y1="7" x2="382" y2="128" gradientUnits="userSpaceOnUse">
<stop stop-color="#B15252"/>
<stop offset="1" stop-color="#F0B8B8"/>
</linearGradient>
<linearGradient id="paint1_linear_738_3904" x1="300.5" y1="139" x2="291.5" y2="260" gradientUnits="userSpaceOnUse">
<stop stop-color="#B15252"/>
<stop offset="1" stop-color="#F0B8B8"/>
</linearGradient>
<linearGradient id="paint2_linear_738_3904" x1="477.5" y1="139" x2="468.5" y2="260" gradientUnits="userSpaceOnUse">
<stop stop-color="#B15252"/>
<stop offset="1" stop-color="#F0B8B8"/>
</linearGradient>
</defs>
</svg>
