<svg width="42" height="42" viewBox="0 0 42 42" fill="none" xmlns="http://www.w3.org/2000/svg">
<path d="M10.6652 22.6231C12.0368 22.6231 13.2254 21.8266 13.7947 20.6716L17.5493 21.2679C17.788 22.9586 19.2448 24.2637 21.0003 24.2637C22.9223 24.2637 24.4866 22.6994 24.4866 20.7774C24.4866 20.3804 24.4194 19.9989 24.2963 19.6437L27.4545 16.1787C28.6456 16.9006 29.9942 17.2623 31.3445 17.2623C33.2664 17.2623 35.1884 16.5306 36.6519 15.0672C38.0694 13.6497 38.8503 11.7646 38.8503 9.75977C38.8503 7.75492 38.0694 5.86984 36.6519 4.45234C35.2344 3.03484 33.3493 2.25391 31.3445 2.25391C29.3396 2.25391 27.4545 3.03484 26.037 4.45234C24.6195 5.86984 23.8386 7.75492 23.8386 9.75977C23.8386 11.7646 24.5555 13.4873 25.8607 14.8826L23.0536 17.9621C22.4769 17.5404 21.7673 17.2911 21.0003 17.2911C19.6287 17.2911 18.4401 18.0876 17.8708 19.2418L14.1163 18.6454C13.8767 16.9547 12.4207 15.6496 10.6652 15.6496C8.7432 15.6496 7.17887 17.2139 7.17887 19.1359C7.17887 21.0579 8.7432 22.6223 10.6652 22.6223V22.6231ZM27.4865 5.90348C28.5168 4.87316 29.8868 4.30551 31.3436 4.30551C32.8005 4.30551 34.1704 4.87316 35.2007 5.90348C36.2311 6.93379 36.7987 8.30371 36.7987 9.76059C36.7987 11.2175 36.2311 12.5874 35.2007 13.6177C33.0737 15.7448 29.6128 15.7448 27.4865 13.6177C26.4562 12.5874 25.8886 11.2175 25.8886 9.76059C25.8886 8.30371 26.4562 6.93379 27.4865 5.90348ZM21.0003 19.3427C21.7919 19.3427 22.4359 19.9866 22.4359 20.7782C22.4359 21.5698 21.7919 22.2138 21.0003 22.2138C20.2087 22.2138 19.5648 21.5698 19.5648 20.7782C19.5648 19.9866 20.2087 19.3427 21.0003 19.3427ZM10.6652 17.7012C11.4568 17.7012 12.1007 18.3452 12.1007 19.1368C12.1007 19.9284 11.4568 20.5723 10.6652 20.5723C9.87359 20.5723 9.22965 19.9284 9.22965 19.1368C9.22965 18.3452 9.87359 17.7012 10.6652 17.7012ZM37.8988 37.6922H35.6429V23.8954C35.6429 21.5206 33.7111 19.5888 31.3363 19.5888C28.9614 19.5888 27.0296 21.5206 27.0296 23.8954V37.6922H25.3078V30.4587C25.3078 28.0839 23.3759 26.1521 21.0011 26.1521C18.6263 26.1521 16.6945 28.0839 16.6945 30.4587V37.6922H14.9727V28.8181C14.9727 26.4433 13.0408 24.5114 10.666 24.5114C8.29121 24.5114 6.35937 26.4433 6.35937 28.8181V37.6922H4.10352C3.5375 37.6922 3.07812 38.1516 3.07812 38.7176C3.07812 39.2836 3.5375 39.743 4.10352 39.743H37.8996C38.4656 39.743 38.925 39.2836 38.925 38.7176C38.925 38.1516 38.4656 37.6922 37.8996 37.6922H37.8988ZM8.40934 37.6922V28.8181C8.40934 27.5745 9.4216 26.5622 10.6652 26.5622C11.9088 26.5622 12.9211 27.5745 12.9211 28.8181V37.6922H8.40934ZM18.7445 37.6922V30.4587C18.7445 29.2151 19.7567 28.2029 21.0003 28.2029C22.2439 28.2029 23.2562 29.2151 23.2562 30.4587V37.6922H18.7445ZM29.0796 37.6922V23.8954C29.0796 22.6518 30.0918 21.6395 31.3354 21.6395C32.579 21.6395 33.5913 22.6518 33.5913 23.8954V37.6922H29.0796ZM28.1748 10.48C27.7736 10.0797 27.7736 9.43082 28.1739 9.02969C28.5743 8.62938 29.2231 8.62856 29.6243 9.02887L30.534 9.93695L33.0646 7.40957C33.465 7.00926 34.1146 7.01008 34.515 7.41039C34.9153 7.8107 34.9145 8.46039 34.5141 8.8607L31.2591 12.1116C31.059 12.3118 30.7965 12.4118 30.5348 12.4118C30.2731 12.4118 30.0106 12.3118 29.8105 12.1116L28.1764 10.48H28.1748Z" fill="#B15252"/>
</svg>
