<svg width="42" height="42" viewBox="0 0 42 42" fill="none" xmlns="http://www.w3.org/2000/svg">
<path d="M21 2.66797C22.6628 2.66803 24.2653 3.28989 25.4932 4.41113C26.6646 5.48091 27.4122 6.9319 27.6094 8.50098H28C28.5303 8.50104 29.039 8.7119 29.4141 9.08691C29.7891 9.46193 29.9999 9.97063 30 10.501C30 11.0313 29.789 11.54 29.4141 11.915C29.039 12.2901 28.5303 12.5009 28 12.501H27.6689C27.7018 13.4792 28.0368 14.4252 28.6318 15.207C29.2545 15.8497 30.0313 16.3223 30.8887 16.5791L30.8975 16.582C32.1947 17.0206 33.3881 17.7208 34.4033 18.6396L34.4082 18.6445C35.1494 19.3507 35.7711 20.1721 36.251 21.0762L38.1348 22.9541L39.1318 22.1162C39.2139 22.0458 39.3094 21.9928 39.4121 21.959C39.5159 21.9249 39.6254 21.9114 39.7344 21.9199C39.8434 21.9285 39.9496 21.9588 40.0469 22.0088C40.1432 22.0583 40.2287 22.1264 40.2988 22.209L40.3496 22.2734C40.397 22.3409 40.4344 22.4154 40.46 22.4941C40.4939 22.5989 40.5064 22.7096 40.4971 22.8193C40.4877 22.9291 40.4565 23.0362 40.4053 23.1338C40.3541 23.2312 40.2841 23.3177 40.1992 23.3877L38.6533 24.6914C38.6507 24.6946 38.65 24.6984 38.6484 24.7002L38.6279 24.7207L38.6201 24.7275L21.5342 39.1357L21.5332 39.1348C21.3848 39.2629 21.1961 39.3349 21 39.335C20.8034 39.335 20.6134 39.2634 20.4648 39.1348L3.37988 24.7275L3.37109 24.7207L3.36426 24.7129L3.35156 24.7002C3.3502 24.6987 3.34883 24.6959 3.34668 24.6934L1.7998 23.3867C1.71581 23.317 1.64656 23.2313 1.5957 23.1348C1.54475 23.0379 1.51271 22.9313 1.50293 22.8223C1.49318 22.7133 1.50522 22.6034 1.53809 22.499C1.57099 22.3946 1.62479 22.2976 1.69531 22.2139C1.76582 22.1302 1.85197 22.0609 1.94922 22.0107C2.04641 21.9606 2.15271 21.9308 2.26172 21.9219C2.37079 21.913 2.48083 21.9253 2.58496 21.959C2.68812 21.9924 2.78357 22.0461 2.86621 22.1162H2.86719L3.86426 22.9541L5.85449 20.9648L5.85547 20.9629C6.0038 20.8166 6.20194 20.7314 6.41016 20.7236C6.61791 20.7159 6.82088 20.7865 6.97949 20.9209L10.8809 24.2109C11.0888 21.769 12.1742 19.4779 13.9453 17.7676C15.8378 15.9402 18.3663 14.9178 20.9971 14.917C23.6277 14.9163 26.1563 15.9365 28.0498 17.7627C29.8222 19.472 30.9078 21.763 31.1172 24.2051L34.4883 21.3623C34.1453 20.8105 33.7323 20.3051 33.2588 19.8594V19.8584C32.4068 19.0875 31.4031 18.5024 30.3125 18.1406V18.1396C29.1889 17.7942 28.1756 17.1607 27.374 16.3008L27.3584 16.2832C26.3988 15.0437 25.9154 13.5018 25.9941 11.9365L25.9971 11.7959C25.9985 11.7511 26 11.7099 26 11.668V9.33496C26 8.00888 25.4728 6.73651 24.5352 5.79883C23.5975 4.8613 22.3259 4.33503 21 4.33496C19.6739 4.33496 18.4015 4.86115 17.4639 5.79883C16.5262 6.7365 16 8.00892 16 9.33496V11.6689C15.9993 11.8894 15.9108 12.1009 15.7549 12.2568C15.5989 12.4127 15.3875 12.5003 15.167 12.501H14C13.4696 12.501 12.961 12.2901 12.5859 11.915C12.2109 11.54 12 11.0314 12 10.501C12.0001 9.97063 12.2109 9.46193 12.5859 9.08691C12.961 8.71199 13.4697 8.50098 14 8.50098H14.3896C14.5868 6.93192 15.3345 5.48092 16.5059 4.41113C17.7338 3.28975 19.3371 2.66797 21 2.66797ZM21.5342 34.4688L21.5332 34.4678C21.3848 34.596 21.1962 34.6679 21 34.668C20.8033 34.668 20.6135 34.5965 20.4648 34.4678V34.4688L6.49414 22.6875L5.14551 24.0361L21 37.4092L36.8535 24.0361L35.5039 22.6875L21.5342 34.4688ZM21 16.585C18.7457 16.585 16.5833 17.4802 14.9893 19.0742C13.3953 20.6683 12.5 22.8307 12.5 25.085V25.5742L21 32.7422L29.5 25.5742V25.085C29.5 22.8306 28.6038 20.6683 27.0098 19.0742C25.4158 17.4803 23.2542 16.585 21 16.585ZM14 10.168C13.9116 10.168 13.8262 10.2031 13.7637 10.2656C13.7014 10.3281 13.6661 10.4128 13.666 10.501C13.666 10.5894 13.7012 10.6748 13.7637 10.7373C13.8262 10.7998 13.9116 10.835 14 10.835H14.333V10.168H14ZM27.666 10.835H28C28.0882 10.8349 28.1729 10.7996 28.2354 10.7373C28.2979 10.6748 28.333 10.5894 28.333 10.501C28.3329 10.4127 28.2978 10.3281 28.2354 10.2656C28.1729 10.2032 28.0883 10.168 28 10.168H27.666V10.835Z" fill="#B15252" stroke="#B15252" stroke-width="0.5"/>
<path d="M20.043 4.5127C20.9966 4.32301 21.9855 4.41999 22.8838 4.79199C23.7822 5.16412 24.5506 5.79497 25.0908 6.60352C25.6309 7.41198 25.9189 8.36268 25.9189 9.33496L25.9131 9.5791C25.8512 10.7935 25.3415 11.9457 24.4775 12.8096C23.6136 13.6735 22.4615 14.1833 21.2471 14.2451L21.0029 14.251C20.0307 14.251 19.0799 13.9629 18.2715 13.4229C17.4629 12.8826 16.8321 12.1142 16.46 11.2158C16.088 10.3175 15.991 9.32861 16.1807 8.375C16.3704 7.42144 16.8389 6.54589 17.5264 5.8584C18.2139 5.1709 19.0894 4.70247 20.043 4.5127ZM21.6367 6.14746C21.0063 6.02206 20.3526 6.08605 19.7588 6.33203C19.165 6.57802 18.6579 6.99487 18.3008 7.5293C17.9437 8.06376 17.7529 8.69217 17.7529 9.33496C17.7537 10.1965 18.0959 11.0226 18.7051 11.6318C19.3145 12.2412 20.1411 12.5843 21.0029 12.585C21.6456 12.5849 22.2742 12.3942 22.8086 12.0371C23.343 11.68 23.7589 11.1719 24.0049 10.5781C24.2508 9.98429 24.3158 9.3306 24.1904 8.7002C24.065 8.06989 23.7552 7.49057 23.3008 7.03613C22.8463 6.58174 22.267 6.27287 21.6367 6.14746Z" fill="#B15252" stroke="#B15252" stroke-width="0.5"/>
</svg>
