<svg width="42" height="42" viewBox="0 0 42 42" fill="none" xmlns="http://www.w3.org/2000/svg">
<path d="M20.9844 30.9912C17.7349 31.0012 15.0937 33.6478 15.0938 36.8994V36.9033C15.0923 36.9869 15.0938 37.2353 15.0947 37.4873C15.0951 37.5999 15.0937 37.7141 15.0938 37.8125H26.9102L26.9121 37.7881C27.2636 34.1785 24.6594 30.9797 20.9844 30.9912ZM33.2695 25.9951C29.6678 26.1169 29.6674 31.3287 33.2695 31.4512C36.8711 31.3292 36.8718 26.1174 33.2695 25.9951ZM11.4639 28.7227C11.3411 25.1216 6.13111 25.121 6.00781 28.7227C6.12873 32.3257 11.3424 32.3263 11.4639 28.7227ZM20.9961 21.9062C18.9942 21.9098 17.3663 23.5402 17.3662 25.543C17.365 27.5541 19.0118 29.1898 21.0205 29.1787C25.8196 28.9786 25.803 22.0784 20.9961 21.9062ZM13.2764 28.7236C13.2764 30.108 12.6512 31.3454 11.6729 32.1777C12.5284 32.626 13.2679 33.2629 13.8389 34.0332C14.5705 32.2112 15.9761 30.7336 17.7471 29.9062C13.6504 26.8982 15.6748 20.1256 21.001 20.0938H21.0039L21.2578 20.1006C26.389 20.338 28.2859 26.9409 24.2656 29.9004C26.0115 30.7069 27.4628 32.2429 28.1699 34.0293C28.7394 33.2628 29.4764 32.6286 30.3281 32.1816C27.1951 29.5818 28.9881 24.178 33.2686 24.1826C37.5452 24.1726 39.3406 29.5764 36.2168 32.1758C38.6489 33.4165 39.857 36.0721 39.627 38.7402C39.6192 39.0157 39.5091 39.2395 39.334 39.3926C39.1594 39.545 38.9346 39.615 38.7188 39.6143C38.503 39.6135 38.2789 39.5422 38.1055 39.3896C37.9276 39.2331 37.8173 39.0031 37.8154 38.7207V38.707L37.8164 38.6934C38.1073 35.8027 36.2298 33.2931 33.2676 33.2666C30.7623 33.2677 28.7237 35.307 28.7236 37.8125H35.4453L35.5488 37.8193C35.785 37.8467 35.9783 37.9513 36.1152 38.1074C36.2679 38.2817 36.3383 38.5062 36.3369 38.7217C36.3355 38.9369 36.2627 39.1594 36.1104 39.332C35.9541 39.5089 35.7254 39.6203 35.4443 39.625H35.4404V39.375L35.4395 39.625H6.56543C6.56543 39.5382 6.5654 39.4513 6.56543 39.375L6.56152 39.625C6.27693 39.6206 6.04615 39.5093 5.88965 39.3301C5.73712 39.1552 5.6672 38.9304 5.66895 38.7148C5.67073 38.4993 5.74408 38.2762 5.89648 38.1035C6.05276 37.9265 6.28145 37.8153 6.5625 37.8125H13.2871C13.2776 35.328 11.2522 33.2574 8.73633 33.2646H8.73535C6.22953 33.2649 4.19066 35.3037 4.19043 37.8096V38.7246C4.18403 39.0067 4.07263 39.2361 3.89551 39.3926C3.72254 39.5453 3.50021 39.6162 3.28516 39.6162C3.06996 39.6161 2.84702 39.5452 2.67383 39.3926C2.49666 39.2364 2.38521 39.0073 2.37793 38.7256L2.37891 38.7246C2.15343 35.9711 3.41552 33.4039 5.79688 32.1758C4.81972 31.3434 4.19531 30.107 4.19531 28.7236V28.7139C4.42299 22.7038 13.0536 22.7165 13.2764 28.7148V28.7236Z" fill="#B15252" stroke="#B15252" stroke-width="0.5"/>
<path d="M18.7539 10.2227C19.0825 7.51036 23.1971 7.60032 23.2734 10.4941V10.5068C23.195 13.4934 18.8137 13.4946 18.7344 10.5078V10.4941L18.7539 10.2227ZM21.46 10.5C21.4442 9.90568 20.5627 9.90529 20.5469 10.5C20.5612 11.0962 21.4455 11.0967 21.46 10.5Z" fill="#B15252" stroke="#B15252" stroke-width="0.5"/>
<path d="M20.998 2.375C21.4989 2.375 21.9043 2.78045 21.9043 3.28125V3.75781C23.8282 4.01467 25.5634 5.0734 26.6602 6.71484L26.6621 6.71777C26.8163 6.95577 26.8515 7.20917 26.79 7.43848C26.73 7.66211 26.5829 7.84554 26.4033 7.96484C26.2238 8.08399 25.9983 8.14863 25.7695 8.11816C25.5349 8.08683 25.3148 7.95746 25.1553 7.72461L25.1543 7.72266C24.3948 6.58636 23.2198 5.8246 21.9043 5.58301V5.90625C21.9043 6.40705 21.4988 6.8125 20.998 6.8125C20.4973 6.81247 20.0918 6.40703 20.0918 5.90625V5.58008C18.1062 5.92509 16.4273 7.59581 16.085 9.59375H16.4082C16.6906 9.5986 16.9207 9.71012 17.0771 9.8877C17.2297 10.0609 17.3014 10.2837 17.3018 10.499C17.3021 10.7145 17.2308 10.9376 17.0781 11.1113C16.9217 11.2893 16.6921 11.4009 16.4092 11.4062H13.7793V11.1562L13.7754 11.4062C13.4921 11.4018 13.2619 11.2907 13.1055 11.1123C12.9529 10.9383 12.8823 10.7145 12.8828 10.499C12.8834 10.2835 12.955 10.06 13.1074 9.88672C13.2639 9.70898 13.494 9.59756 13.7764 9.59375H14.2637C14.399 8.5677 14.7527 7.58407 15.3369 6.71387L15.5576 6.40137C16.6584 4.93869 18.2928 3.99799 20.0918 3.75781V3.28125C20.0918 2.78047 20.4973 2.37503 20.998 2.375Z" fill="#B15252" stroke="#B15252" stroke-width="0.5"/>
<path d="M28.2256 9.59375L28.3291 9.60059C28.5651 9.62728 28.7586 9.7316 28.8955 9.8877C29.048 10.0617 29.1186 10.2855 29.1182 10.501C29.1176 10.7165 29.046 10.94 28.8936 11.1133C28.7371 11.291 28.507 11.4024 28.2246 11.4062H27.7373C27.602 12.432 27.248 13.4151 26.6641 14.2852C25.5679 15.9257 23.8331 16.9843 21.9092 17.2412V17.7188C21.9092 18.2195 21.5037 18.625 21.0029 18.625C20.5021 18.625 20.0967 18.2195 20.0967 17.7188V17.2412C18.1728 16.9843 16.4376 15.9266 15.3408 14.2852C15.0619 13.869 15.1744 13.3063 15.5898 13.0283L15.6699 12.9805C16.0772 12.7633 16.5871 12.889 16.8467 13.2773C17.6062 14.4136 18.7813 15.1744 20.0967 15.416V15.0938C20.0967 14.5929 20.5021 14.1875 21.0029 14.1875C21.5037 14.1875 21.9092 14.593 21.9092 15.0938V15.4189C23.8947 15.0739 25.5737 13.4041 25.916 11.4062H25.5928C25.3104 11.4014 25.0803 11.2899 24.9238 11.1123C24.7713 10.9391 24.6995 10.7163 24.6992 10.501C24.6989 10.2855 24.7702 10.0624 24.9229 9.88867C25.0793 9.71071 25.3089 9.59909 25.5918 9.59375H28.2256Z" fill="#B15252" stroke="#B15252" stroke-width="0.5"/>
</svg>
