<svg width="32" height="32" viewBox="0 0 32 32" fill="none" xmlns="http://www.w3.org/2000/svg">
<path d="M27.9545 1L20.469 4.875L13.5315 1.875L4.0455 2.5L1 29.125L10.8075 28.2915L21.693 31L31 27.625L27.9545 1ZM27.126 2.5545L29.917 26.954L21.885 29.8665L21.8405 28.9295L28.926 26.2545L26.505 3.958L20.7825 6.672L20.7435 5.859L20.929 5.7635L27.126 2.5545ZM21.3075 17.7245C21.4185 17.4885 21.5275 17.157 21.5795 16.692C21.5795 16.692 22.1305 16.719 22.8085 18.1965C22.8085 18.1965 23.1045 18.167 22.957 17.2025C22.957 17.2025 24.0155 16.776 23.4445 14.9005C23.4445 14.9005 24.3325 16.1235 24.0375 14.5335C24.0375 14.5335 25.0115 13.3395 23.848 12.5455C23.848 12.5455 23.888 11.665 24.5875 11.778C24.5875 11.778 25.2865 9.96 24.9495 12.1185C24.9495 12.1185 24.9695 12.5455 25.414 13.027C25.414 13.027 25.6055 12.3175 25.266 11.5525C25.266 11.5525 25.9655 10.2435 25.9015 9.109C25.9015 9.109 23.6355 9.9495 21.114 9.6985C21.114 9.6985 21.237 9.2295 20.8925 8.966L20.822 7.4835L20.882 7.455L25.874 5.088L28.118 25.7585L21.8035 28.143L21.3075 17.7245ZM20.3885 8.9275C20.128 9.299 19.405 10.4415 19.8445 11.1255C19.8445 11.1255 19.6315 12.607 19.3345 10.446C19.3345 10.446 18.849 11.7215 18.192 11.437C18.192 11.437 18.0115 12.728 17.598 11.863C17.598 11.863 17.9365 12.0055 18.011 11.608C18.011 11.608 17.0565 10.5855 16.486 12.1315C16.486 12.1315 16.02 12.317 16.2005 13.042C16.2005 13.042 16.5275 12.444 16.6975 13.3545C16.6975 13.3545 16.878 13.2125 16.9535 12.047C16.9535 12.047 17.4065 11.821 17.0565 12.742C17.0565 12.742 18.0945 12.7585 16.486 13.679C16.486 13.679 16.397 13.664 16.327 13.311C16.327 13.311 16.0835 14.161 15.5845 14.4625C15.5845 14.4625 15.7015 14.802 15.3315 14.958C15.3315 14.958 15.131 15.484 15.608 15.484C15.608 15.484 16.0205 14.22 16.8045 15.2145C16.8045 15.2145 16.954 15.158 16.7205 14.6605C16.7205 14.6605 17.1325 14.8185 17.292 15.47C17.292 15.47 17.5465 15.426 17.587 14.8595C17.587 14.8595 17.9065 14.1355 18.426 14.988C18.426 14.988 17.7365 14.7885 17.5575 15.484C17.5575 15.484 17.8835 15.3415 18.0865 15.541C18.0865 15.541 18.107 15.8655 17.899 15.991C17.989 16.16 18.0865 16.322 18.2225 16.459C18.2603 16.4943 18.2848 16.5416 18.2918 16.5929C18.2988 16.6442 18.2879 16.6963 18.261 16.7405C18.628 17.3685 19.306 18.2045 19.7805 16.87C19.7805 16.87 19.1455 17.2305 18.933 16.236C18.933 16.236 20.2145 16.399 20.8055 17.6845L21.303 28.1585L11.337 25.3635L11.4865 23.885C11.6935 24.4155 11.936 24.631 11.936 24.631C11.6545 22.3235 13.3195 20.845 13.3195 20.845C13.643 19.261 12.8205 18.55 12.058 18.23L12.4495 14.356C12.6065 14.1605 12.699 14.03 12.699 14.03C12.6425 13.8355 12.5875 13.665 12.535 13.509L12.9145 9.75C13.2335 10.1385 13.27 10.4915 13.1805 10.8125C12.77 12.289 13.298 12.7415 13.298 12.7415C13.6185 11.4945 14.7185 11.2955 14.7185 11.2955C14.6555 10.1295 15.3325 8.804 15.3325 8.804C14.596 7.5385 13.5425 8.392 12.9905 8.996L13.0335 8.5715C13.1465 8.426 13.2645 8.2675 13.392 8.0865C13.392 8.0865 13.2865 8.014 13.095 7.961L13.431 4.6335L20.273 7.4695L20.321 7.4895L20.3885 8.9275ZM12.5975 7.91C12.2565 7.926 11.82 8.0435 11.3065 8.3985C11.3065 8.3985 11.0625 10.6395 12.4635 9.235L12.307 10.7855C12.124 10.1735 11.69 9.9605 11.69 9.9605C11.265 10.2175 11.3075 10.5575 11.3075 10.5575C11.693 10.6155 11.9285 11.0795 12.067 11.5145C11.989 11.634 11.8555 11.7705 11.625 11.793C11.625 11.793 11.8935 12.1965 12.1535 12.3095L12.125 12.5875C11.52 11.681 11.258 13.5025 11.258 13.5025C9.7625 11.836 11.655 11.002 11.655 11.002C10.4965 10.5125 9.96 9.1095 9.96 9.1095C9.9035 9.981 9.564 9.9425 9.564 9.9425C6.909 8.3905 6.431 10.89 6.431 10.89C6.8525 12.214 5.949 12.3655 5.949 12.3655C6.824 12.5165 7.2755 11.305 7.2755 11.305C9.0845 12.214 8.124 15.4705 8.124 15.4705C8.8295 15.8855 9.0275 17.25 9.0275 17.25C9.519 17.399 10.0225 17.7 10.3755 17.9385C10.4438 17.8768 10.5148 17.8187 10.5885 17.764C9.7635 17.181 9.762 16.237 9.762 16.237C10.5105 16.237 11.3065 15.592 11.881 14.999L11.571 18.0705C11.4314 18.0357 11.29 18.0085 11.1475 17.989C11.0141 18.0528 10.8889 18.1324 10.7745 18.226L10.8355 18.2735C10.0035 19.872 11.1285 20.513 11.315 20.6055L10.8375 25.3305L4.2195 25.848L6.427 4.941L12.936 4.558L12.5975 7.91ZM11.2605 26.1215L21.34 28.9485L21.385 29.893L11.137 27.343L11.2605 26.1215ZM20.243 5.867L20.281 6.662L13.51 3.8555L13.597 2.9925L20.072 5.793L20.243 5.867ZM4.9445 3.443L13.103 2.9055L13.0125 3.8025L5.748 4.2295L3.3795 26.6665L10.762 26.088L10.639 27.302L2.1325 28.0255L4.9445 3.443Z" fill="url(#paint0_linear_5116_6020)"/>
<path d="M16.0313 18.308C16.0313 18.308 17.0923 18.5065 16.6678 20.551C16.6678 20.551 16.8373 22.1445 17.7678 21.999C17.7678 21.999 18.0218 19.6995 19.2083 17.938C19.2083 17.938 18.7273 18.417 18.1818 16.8285C18.0993 16.8885 17.9873 16.9025 17.8938 16.8095C17.6588 16.575 17.5168 16.2795 17.3638 15.9825C17.3422 15.9397 17.3334 15.8917 17.3383 15.844C16.5663 15.556 15.0028 15.267 14.7813 17.5405C14.7818 17.5405 15.0773 19.1055 16.0313 18.308ZM15.5453 12.997C15.6183 14.021 15.7553 14.332 15.9348 13.9065C16.1153 13.4845 15.5453 12.997 15.5453 12.997ZM15.2248 13.9635C15.2248 13.9635 15.5233 13.9195 15.4378 13.544C15.4378 13.544 15.2248 13.566 15.2248 13.9635ZM15.1098 11.905C15.1098 11.905 14.3573 11.905 14.6233 12.2895C14.8878 12.673 15.1098 11.905 15.1098 11.905ZM18.8703 21.2335C18.8703 21.2335 19.1003 20.7645 19.0928 20.0415C19.0933 20.0415 18.3613 20.8775 18.8703 21.2335ZM23.6133 18.2945C23.6133 18.2945 23.0833 18.778 23.1803 19.2185C23.2758 19.6605 23.7408 19.1315 23.6133 18.2945ZM25.7328 19.858C25.9653 19.451 24.4593 18.947 24.4593 18.947C24.7568 19.388 25.5218 20.221 25.7328 19.858ZM24.0483 19.945C24.4018 19.34 22.9783 19.6295 22.9783 19.6295C22.9783 19.6295 23.9108 20.184 24.0483 19.945ZM24.6078 20.071C24.6078 20.071 24.3228 20.7085 23.2638 20.977C23.2638 20.977 23.4873 21.4895 23.2638 22.456C23.2638 22.456 24.3328 21.092 24.9488 23.065C24.9488 23.065 25.4773 23.352 25.8478 21.5655C25.8478 21.5655 25.4033 20.922 25.2553 20.007C25.2558 20.0065 25.1088 21.179 24.6078 20.071ZM24.8168 14.2545C24.8843 14.198 24.9368 14.1775 24.9368 14.1775C24.4183 13.339 24.6078 14.5475 24.6078 14.5475C24.6413 14.468 24.6808 14.407 24.7213 14.3555C24.7488 14.7135 24.6628 15.247 24.1038 15.754C24.1033 15.754 25.3023 15.302 24.8168 14.2545ZM15.6663 7.97702C15.9278 7.36402 15.1058 6.66602 15.1058 6.66602C15.2113 8.13952 15.4068 8.58952 15.6663 7.97702ZM14.6443 8.05752C14.6443 8.05752 15.0698 7.99452 14.9493 7.45552C14.9493 7.45552 14.6443 7.48602 14.6443 8.05752Z" fill="url(#paint1_linear_5116_6020)"/>
<defs>
<linearGradient id="paint0_linear_5116_6020" x1="1" y1="16" x2="31" y2="16" gradientUnits="userSpaceOnUse">
<stop stop-color="#5254CB"/>
<stop offset="1" stop-color="#FF942F"/>
</linearGradient>
<linearGradient id="paint1_linear_5116_6020" x1="14.5664" y1="14.874" x2="25.8478" y2="14.874" gradientUnits="userSpaceOnUse">
<stop stop-color="#5254CB"/>
<stop offset="1" stop-color="#FF942F"/>
</linearGradient>
</defs>
</svg>
