<svg width="32" height="32" viewBox="0 0 32 32" fill="none" xmlns="http://www.w3.org/2000/svg">
<path d="M6.85605 18.666C5.8556 17.0277 5.32813 15.1444 5.33205 13.2247C5.33205 7.39268 10.1081 2.66602 15.9987 2.66602C21.8894 2.66602 26.6654 7.39268 26.6654 13.2247C26.6693 15.1444 26.1418 17.0277 25.1414 18.666M19.9987 25.3327L19.8254 26.1953C19.6387 27.138 19.5441 27.6087 19.3321 27.982C19.0054 28.5574 18.4764 28.9908 17.8481 29.198C17.4414 29.3327 16.9587 29.3327 15.9987 29.3327C15.0387 29.3327 14.5561 29.3327 14.1494 29.1993C13.5208 28.9918 12.9918 28.5579 12.6654 27.982C12.4534 27.6087 12.3587 27.138 12.1721 26.1953L11.9987 25.3327M9.84272 22.7967C9.72005 22.4287 9.65872 22.2433 9.66539 22.094C9.67293 21.9396 9.72505 21.7907 9.81544 21.6653C9.90583 21.5399 10.0306 21.4433 10.1747 21.3873C10.3134 21.3327 10.5081 21.3327 10.8947 21.3327H21.1027C21.4907 21.3327 21.6841 21.3327 21.8227 21.386C21.967 21.4421 22.0919 21.5388 22.1824 21.6645C22.2728 21.7902 22.3248 21.9394 22.3321 22.094C22.3387 22.2433 22.2774 22.4273 22.1547 22.7967C21.9281 23.478 21.8147 23.8193 21.6401 24.0953C21.2747 24.6722 20.7021 25.0869 20.0401 25.254C19.7227 25.3327 19.3654 25.3327 18.6494 25.3327H13.3481C12.6321 25.3327 12.2734 25.3327 11.9574 25.2527C11.2956 25.0859 10.723 24.6717 10.3574 24.0953C10.1827 23.8193 10.0694 23.478 9.84272 22.7967Z" stroke="url(#paint0_linear_5116_5979)" stroke-linecap="round" stroke-linejoin="round"/>
<path d="M11 13L14 16V21.3333M21 13L18 16V21.3333M11 14C11.2652 14 11.5196 13.8946 11.7071 13.7071C11.8946 13.5196 12 13.2652 12 13C12 12.7348 11.8946 12.4804 11.7071 12.2929C11.5196 12.1054 11.2652 12 11 12C10.7348 12 10.4804 12.1054 10.2929 12.2929C10.1054 12.4804 10 12.7348 10 13C10 13.2652 10.1054 13.5196 10.2929 13.7071C10.4804 13.8946 10.7348 14 11 14ZM21 14C20.7348 14 20.4804 13.8946 20.2929 13.7071C20.1054 13.5196 20 13.2652 20 13C20 12.7348 20.1054 12.4804 20.2929 12.2929C20.4804 12.1054 20.7348 12 21 12C21.2652 12 21.5196 12.1054 21.7071 12.2929C21.8946 12.4804 22 12.7348 22 13C22 13.2652 21.8946 13.5196 21.7071 13.7071C21.5196 13.8946 21.2652 14 21 14Z" stroke="url(#paint1_linear_5116_5979)" stroke-linecap="round" stroke-linejoin="round"/>
<defs>
<linearGradient id="paint0_linear_5116_5979" x1="5.33203" y1="15.9993" x2="26.6654" y2="15.9993" gradientUnits="userSpaceOnUse">
<stop stop-color="#5254CB"/>
<stop offset="1" stop-color="#FF942F"/>
</linearGradient>
<linearGradient id="paint1_linear_5116_5979" x1="10" y1="16.6667" x2="22" y2="16.6667" gradientUnits="userSpaceOnUse">
<stop stop-color="#5254CB"/>
<stop offset="1" stop-color="#FF942F"/>
</linearGradient>
</defs>
</svg>
