<svg width="32" height="32" viewBox="0 0 32 32" fill="none" xmlns="http://www.w3.org/2000/svg">
<path fill-rule="evenodd" clip-rule="evenodd" d="M14.4008 0.800782C14.5724 0.800511 14.7395 0.855423 14.8775 0.957412C15.0155 1.0594 15.1171 1.20306 15.1672 1.36718L18.252 11.5L27.476 14.8712C27.6281 14.9269 27.7597 15.0275 27.8534 15.1596C27.9471 15.2918 27.9984 15.4493 28.0007 15.6112C28.003 15.7732 27.956 15.932 27.866 16.0667C27.776 16.2014 27.6473 16.3056 27.4968 16.3656L18.3336 20.0056L15.1672 30.6296C15.1178 30.7945 15.0166 30.9391 14.8785 31.0419C14.7405 31.1446 14.5729 31.2002 14.4008 31.2002C14.2286 31.2002 14.0611 31.1446 13.923 31.0419C13.785 30.9391 13.6837 30.7945 13.6344 30.6296L10.468 20.0056L1.30478 16.3656C1.15429 16.3056 1.02554 16.2014 0.935555 16.0667C0.845574 15.932 0.798604 15.7732 0.800859 15.6112C0.803113 15.4493 0.854485 15.2918 0.94818 15.1596C1.04187 15.0275 1.17348 14.9269 1.32558 14.8712L10.5496 11.5L13.636 1.36718C13.686 1.20332 13.7873 1.05985 13.925 0.957889C14.0627 0.855925 14.2295 0.800854 14.4008 0.800782ZM14.4008 4.34638L11.964 12.3464C11.9279 12.4649 11.8647 12.5735 11.7794 12.6634C11.6942 12.7534 11.5892 12.8223 11.4728 12.8648L3.84558 15.6552L11.42 18.6632C11.5322 18.708 11.6328 18.7776 11.7143 18.8668C11.7958 18.956 11.856 19.0626 11.8904 19.1784L14.4024 27.6008L16.9112 19.1784C16.9456 19.0626 17.0058 18.956 17.0873 18.8668C17.1687 18.7776 17.2694 18.708 17.3816 18.6632L24.956 15.6552L17.3288 12.868C17.2123 12.8255 17.1074 12.7566 17.0221 12.6666C16.9369 12.5767 16.8737 12.4681 16.8376 12.3496L14.4008 4.34638Z" fill="url(#paint0_linear_5116_6010)"/>
<path d="M26.7998 30.5922C26.6398 30.5922 26.4958 30.4642 26.4798 30.3042C26.1918 27.3922 25.9678 26.4642 23.2958 26.2082C23.1358 26.1922 23.0078 26.0482 23.0078 25.8882C23.0078 25.7282 23.1358 25.5842 23.2958 25.5682C26.0318 25.3122 26.1918 24.6082 26.4798 21.6962C26.4798 21.5362 26.6398 21.4082 26.7998 21.4082C26.9598 21.4082 27.1038 21.5362 27.1198 21.6962C27.4078 24.6082 27.5838 25.3122 30.3038 25.5682C30.4638 25.5842 30.5918 25.7282 30.5918 25.8882C30.5918 26.0482 30.4638 26.1922 30.3038 26.2082C27.6158 26.4642 27.4078 27.3922 27.1198 30.3202C27.1198 30.4802 26.9758 30.6082 26.7998 30.6082V30.5922Z" fill="url(#paint1_linear_5116_6010)"/>
<defs>
<linearGradient id="paint0_linear_5116_6010" x1="0.800781" y1="16.0005" x2="28.0008" y2="16.0005" gradientUnits="userSpaceOnUse">
<stop stop-color="#5254CB"/>
<stop offset="1" stop-color="#FF942F"/>
</linearGradient>
<linearGradient id="paint1_linear_5116_6010" x1="23.0078" y1="26.0082" x2="30.5918" y2="26.0082" gradientUnits="userSpaceOnUse">
<stop stop-color="#5254CB"/>
<stop offset="1" stop-color="#FF942F"/>
</linearGradient>
</defs>
</svg>
