<svg width="60" height="60" viewBox="0 0 60 60" fill="none" xmlns="http://www.w3.org/2000/svg">
<path d="M30 20.5508C31.0713 20.5508 32.1303 20.7312 33.1523 21.0859L33.3887 21.168L33.3066 21.4053L32.7266 23.0635L32.6436 23.2988L32.4082 23.2168C31.625 22.9444 30.8147 22.8027 29.9941 22.8027C26.0306 22.8027 22.8027 26.0306 22.8027 29.9941C22.8027 33.9576 26.0306 37.1855 29.9941 37.1855C33.9576 37.1855 37.1855 33.9576 37.1855 29.9941C37.1855 29.1603 37.0496 28.3509 36.7783 27.5879L36.6943 27.3525L36.9297 27.2686L38.5879 26.6768L38.8232 26.5928L38.9072 26.8271C39.2689 27.8338 39.4492 28.9 39.4492 29.9883C39.4492 35.2121 35.2125 39.4492 30 39.4492C24.7877 39.4492 20.5508 35.2123 20.5508 30C20.5508 24.7877 24.7877 20.5508 30 20.5508Z" fill="url(#paint0_linear_5116_5955)" stroke="url(#paint1_linear_5116_5955)" stroke-width="0.5"/>
<path d="M48.4424 4.35449L49.8125 10.1865L55.6455 11.5576L56.084 11.6602L55.7637 11.9785L46.9863 20.6973L46.9141 20.7695H39.2305V13.0859L39.3027 13.0137L48.0215 4.23633L48.3398 3.91602L48.4424 4.35449ZM41.4883 14.0186V18.5117H45.9805L51.5996 12.9248L48.084 12.1025L47.9326 12.0674L47.8975 11.916L47.0742 8.39941L41.4883 14.0186Z" fill="url(#paint2_linear_5116_5955)" stroke="url(#paint3_linear_5116_5955)" stroke-width="0.5"/>
<path d="M41.3309 20.2566L30.6207 30.9668L29.0242 29.3703L39.7344 18.6601L41.3309 20.2566Z" fill="url(#paint4_linear_5116_5955)" stroke="url(#paint5_linear_5116_5955)" stroke-width="0.5"/>
<path d="M30.002 11.8965C32.0694 11.8965 34.1071 12.2474 36.0557 12.9365L36.292 13.0195L36.208 13.2549L35.6221 14.9131L35.5391 15.1484L35.3037 15.0664C33.5958 14.4663 31.8134 14.1602 30.002 14.1602C21.2631 14.1602 14.1562 21.267 14.1562 30.0059C14.1563 38.7447 21.2631 45.8516 30.002 45.8516C38.7408 45.8516 45.8477 38.7447 45.8477 30.0059C45.8477 28.1767 45.542 26.3945 44.9424 24.7051L44.8584 24.4697L45.0938 24.3857L46.752 23.7939L46.9873 23.71L47.0713 23.9453C47.7607 25.877 48.1113 27.9152 48.1113 30C48.1113 34.6848 46.3431 39.0973 43.127 42.4795L42.8115 42.8037C39.384 46.2194 34.8379 48.1035 30.002 48.1035C25.3171 48.1035 20.9046 46.3353 17.5225 43.1191L17.1982 42.8037C13.7824 39.3819 11.8984 34.8359 11.8984 30C11.8984 25.1641 13.7824 20.6181 17.1982 17.1963L17.5215 16.8809C20.8988 13.6644 25.3172 11.8965 30.002 11.8965Z" fill="url(#paint6_linear_5116_5955)" stroke="url(#paint7_linear_5116_5955)" stroke-width="0.5"/>
<path d="M30 3.91016C32.9931 3.91016 35.928 4.41322 38.7266 5.40723L38.9619 5.49023L38.8779 5.72559L38.292 7.38379L38.209 7.62012L37.9727 7.53613C35.416 6.62598 32.7316 6.16797 30 6.16797C16.8607 6.16797 6.16797 16.8607 6.16797 30C6.16797 43.1393 16.8607 53.832 30 53.832C43.1393 53.832 53.832 43.1393 53.832 30C53.832 27.2684 53.3742 24.5833 52.4697 22.0264L52.3857 21.791L52.6221 21.708L54.2803 21.1221L54.5156 21.0381L54.5986 21.2744C55.5866 24.0727 56.0898 27.007 56.0898 30C56.0898 33.5196 55.3979 36.9397 54.0371 40.1582C52.7237 43.2641 50.842 46.0564 48.4463 48.4521C46.0506 50.8479 43.2582 52.7296 40.1523 54.043H40.1514C36.939 55.3977 33.5194 56.0898 30 56.0898C26.4804 56.0898 23.0603 55.3979 19.8418 54.0371C16.7359 52.7237 13.9436 50.842 11.5479 48.4463C9.15215 46.0506 7.2704 43.2582 5.95703 40.1523V40.1514C4.60234 36.939 3.91016 33.5194 3.91016 30C3.91016 26.4804 4.60214 23.0603 5.96289 19.8418C7.27625 16.7359 9.158 13.9436 11.5537 11.5479C13.9494 9.15215 16.7418 7.2704 19.8477 5.95703H19.8486C23.061 4.60234 26.4806 3.91016 30 3.91016Z" fill="url(#paint8_linear_5116_5955)" stroke="url(#paint9_linear_5116_5955)" stroke-width="0.5"/>
<defs>
<linearGradient id="paint0_linear_5116_5955" x1="20.8008" y1="30" x2="39.1992" y2="30" gradientUnits="userSpaceOnUse">
<stop stop-color="#5254CB"/>
<stop offset="1" stop-color="#FF942F"/>
</linearGradient>
<linearGradient id="paint1_linear_5116_5955" x1="20.8008" y1="30" x2="39.1992" y2="30" gradientUnits="userSpaceOnUse">
<stop stop-color="#5254CB"/>
<stop offset="1" stop-color="#FF942F"/>
</linearGradient>
<linearGradient id="paint2_linear_5116_5955" x1="39.4805" y1="12.4658" x2="55.5879" y2="12.4658" gradientUnits="userSpaceOnUse">
<stop stop-color="#5254CB"/>
<stop offset="1" stop-color="#FF942F"/>
</linearGradient>
<linearGradient id="paint3_linear_5116_5955" x1="39.4805" y1="12.4658" x2="55.5879" y2="12.4658" gradientUnits="userSpaceOnUse">
<stop stop-color="#5254CB"/>
<stop offset="1" stop-color="#FF942F"/>
</linearGradient>
<linearGradient id="paint4_linear_5116_5955" x1="34.5562" y1="24.1919" x2="35.7989" y2="25.4347" gradientUnits="userSpaceOnUse">
<stop stop-color="#5254CB"/>
<stop offset="1" stop-color="#FF942F"/>
</linearGradient>
<linearGradient id="paint5_linear_5116_5955" x1="34.5562" y1="24.1919" x2="35.7989" y2="25.4347" gradientUnits="userSpaceOnUse">
<stop stop-color="#5254CB"/>
<stop offset="1" stop-color="#FF942F"/>
</linearGradient>
<linearGradient id="paint6_linear_5116_5955" x1="12.1484" y1="30" x2="47.8613" y2="30" gradientUnits="userSpaceOnUse">
<stop stop-color="#5254CB"/>
<stop offset="1" stop-color="#FF942F"/>
</linearGradient>
<linearGradient id="paint7_linear_5116_5955" x1="12.1484" y1="30" x2="47.8613" y2="30" gradientUnits="userSpaceOnUse">
<stop stop-color="#5254CB"/>
<stop offset="1" stop-color="#FF942F"/>
</linearGradient>
<linearGradient id="paint8_linear_5116_5955" x1="4.16016" y1="30" x2="55.8398" y2="30" gradientUnits="userSpaceOnUse">
<stop stop-color="#5254CB"/>
<stop offset="1" stop-color="#FF942F"/>
</linearGradient>
<linearGradient id="paint9_linear_5116_5955" x1="4.16016" y1="30" x2="55.8398" y2="30" gradientUnits="userSpaceOnUse">
<stop stop-color="#5254CB"/>
<stop offset="1" stop-color="#FF942F"/>
</linearGradient>
</defs>
</svg>
