<svg width="60" height="60" viewBox="0 0 60 60" fill="none" xmlns="http://www.w3.org/2000/svg">
<g clip-path="url(#clip0_5116_5971)">
<mask id="path-1-outside-1_5116_5971" maskUnits="userSpaceOnUse" x="-0.53125" y="0.0742188" width="61" height="60" fill="black">
<rect fill="white" x="-0.53125" y="0.0742188" width="61" height="60"/>
<path d="M52.5026 30.0009C53.3725 28.9803 54.1752 27.9577 54.9025 26.9393C57.9299 22.7005 59.5303 18.736 59.5304 15.4746C59.5304 12.9588 58.5544 10.8876 56.7077 9.48523C56.7077 9.48523 56.7077 9.48523 56.7076 9.48523C53.4366 7.00227 47.6885 6.74047 40.4893 8.73477C37.6463 3.7843 33.9506 1.07422 30.0004 1.07422C26.0501 1.07422 22.3521 3.7843 19.5086 8.73477C12.3097 6.74047 6.56262 7.00238 3.29309 9.48523C1.44574 10.8874 0.469102 12.9582 0.46875 15.4738C0.468281 18.735 2.06836 22.6994 5.09613 26.9388C5.82352 27.9573 6.62625 28.9801 7.49637 30.0009C6.6266 31.0214 5.8241 32.0439 5.09684 33.0621C2.0693 37.3012 0.468867 41.266 0.46875 44.5277C0.46875 47.0443 1.44527 49.1163 3.29297 50.5196C5.11277 51.9015 7.69898 52.5956 10.8768 52.5956C13.4086 52.5956 16.3168 52.1536 19.5094 51.2687C22.3529 56.218 26.0493 58.9273 30.0004 58.9273C33.9514 58.9273 37.6454 56.218 40.4885 51.2687C43.6816 52.1537 46.5895 52.5956 49.122 52.5956C52.2996 52.5956 54.8872 51.9014 56.7075 50.5197C56.7075 50.5197 56.7077 50.5196 56.7079 50.5195C58.5548 49.1158 59.5309 47.0436 59.5304 44.5266C59.5297 41.2647 57.9292 37.3 54.9016 33.0615C54.1745 32.0435 53.3721 31.0211 52.5025 30.0008L52.5026 30.0009ZM55.8579 10.6044C57.3626 11.747 58.1255 13.3856 58.1254 15.4746C58.1252 19.2433 55.7194 24.031 51.5678 28.9339C49.625 26.7755 47.3863 24.6364 44.9122 22.5767C44.259 17.8884 42.9865 13.5763 41.1735 10.0043C44.0999 9.21758 46.7842 8.82477 49.1098 8.82477C51.9754 8.82477 54.2973 9.41996 55.8578 10.6044H55.8579ZM39.7965 49.6058C37.1092 48.7925 34.3384 47.7018 31.5598 46.3731C35.2062 44.4475 38.8249 42.1425 42.251 39.5411C42.6009 39.2755 42.9466 39.0079 43.2888 38.7389C42.5932 42.7925 41.4098 46.5036 39.7965 49.6058ZM41.4013 38.422C37.7507 41.1938 33.881 43.6223 29.9987 45.6014C26.1165 43.6223 22.2468 41.1938 18.5961 38.4221C17.8448 37.8515 17.1138 37.2738 16.4031 36.6908C16.1266 34.5294 15.9838 32.2877 15.9838 30.0027C15.9838 27.7176 16.1266 25.4735 16.4033 23.311C17.1139 22.7281 17.845 22.1504 18.596 21.5799C22.2465 18.8082 26.1163 16.38 29.9986 14.4011C33.8809 16.38 37.7507 18.8082 41.4012 21.5799C42.1523 22.1503 42.8832 22.7278 43.594 23.3107C43.8707 25.4734 44.0135 27.7163 44.0135 30.0027C44.0135 32.289 43.8707 34.5295 43.5942 36.691C42.8835 37.2739 42.1525 37.8515 41.4012 38.422H41.4013ZM20.2014 49.6058C18.5879 46.5037 17.4045 42.7926 16.7087 38.7388C17.0508 39.0078 17.3966 39.2755 17.7464 39.5411C21.1725 42.1425 24.7912 44.4475 28.4378 46.3731C25.6593 47.7018 22.8886 48.7925 20.2014 49.6058ZM14.8411 35.3717C12.8084 33.6042 10.971 31.7994 9.36082 30.0011C10.9711 28.2027 12.8085 26.3976 14.8413 24.6301C14.6682 26.3838 14.5787 28.1803 14.5787 30.0027C14.5787 31.825 14.6681 33.6191 14.8411 35.3717ZM20.2009 10.3975C22.8884 11.2106 25.659 12.3009 28.4375 13.6295C24.791 15.5547 21.1724 17.8596 17.7464 20.4609C17.3967 20.7264 17.0511 20.994 16.7091 21.2629C17.4048 17.2097 18.5879 13.4993 20.2009 10.3975ZM39.7971 10.3975C41.4098 13.4993 42.5929 17.2096 43.2885 21.2628C42.9464 20.9939 42.6008 20.7263 42.251 20.4608C38.825 17.8596 35.2065 15.5547 31.56 13.6295C34.3386 12.3009 37.1095 11.2105 39.797 10.3975H39.7971ZM45.1562 24.6294C47.1896 26.397 49.0275 28.2023 50.6381 30.001C49.0275 31.7996 47.1898 33.6046 45.1564 35.3723C45.3294 33.6195 45.4188 31.824 45.4188 30.0027C45.4188 28.1813 45.3293 26.3833 45.1562 24.6294ZM30.0004 2.47941C33.35 2.47941 36.5469 4.83383 39.0996 9.14234C36.1275 10.0611 33.0618 11.3067 29.9987 12.8292C26.9359 11.3067 23.8703 10.0611 20.8983 9.14234C23.4514 4.83371 26.6493 2.47941 30.0004 2.47941ZM1.87395 15.4739C1.87418 13.3852 2.63754 11.747 4.14281 10.6044C5.70281 9.41973 8.02336 8.82477 10.8888 8.82477C13.2138 8.82477 15.8984 9.2177 18.8243 10.0043C17.0111 13.5763 15.7384 17.8885 15.0852 22.5772C12.6117 24.6369 10.3734 26.7757 8.43105 28.9339C4.2791 24.0302 1.87336 19.2423 1.87383 15.4739H1.87395ZM4.14293 49.4007C2.6373 48.2572 1.87395 46.6176 1.87395 44.5278C1.87406 40.7592 4.2798 35.9714 8.43117 31.068C10.3734 33.226 12.6115 35.3647 15.0848 37.4243C15.738 42.1135 17.0111 46.4266 18.8249 49.9991C12.2924 51.7562 6.96832 51.5464 4.14281 49.4006L4.14293 49.4007ZM30.0005 57.5224C26.6497 57.5224 23.4521 55.1684 20.899 50.8609C23.8707 49.9419 26.9361 48.6959 29.9988 47.1733C33.0616 48.6961 36.1272 49.9419 39.099 50.861C36.5464 55.1686 33.3498 57.5225 30.0004 57.5225L30.0005 57.5224ZM55.8578 49.4008C53.0305 51.5464 47.7054 51.7561 41.1729 49.9992C42.9865 46.4266 44.2594 42.1138 44.9126 37.4248C47.3865 35.3653 49.625 33.2264 51.5678 31.0681C55.7188 35.9707 58.1246 40.7582 58.1254 44.5272C58.1258 46.6174 57.3629 48.2572 55.8578 49.4009V49.4008ZM41.9954 27.862C42.0034 27.8472 42.0123 27.8332 42.0192 27.8177C42.0246 27.8056 42.0279 27.793 42.0326 27.7808C42.0374 27.768 42.0423 27.7555 42.0464 27.7426C42.0572 27.7085 42.0655 27.6739 42.0709 27.6391C42.0716 27.6343 42.0732 27.6296 42.0738 27.6247C42.0792 27.5846 42.0803 27.5443 42.0788 27.5042C42.0783 27.493 42.0769 27.482 42.0759 27.4707C42.0734 27.4405 42.0688 27.4107 42.0623 27.3812C42.0598 27.3693 42.0574 27.3576 42.0543 27.3458C42.0438 27.3077 42.0312 27.2703 42.0144 27.2343C42.013 27.2314 42.0114 27.2286 42.01 27.2257C41.9933 27.1911 41.9729 27.1582 41.9504 27.1263C41.9432 27.116 41.9352 27.1063 41.9272 27.0963C41.9183 27.085 41.9107 27.0732 41.9011 27.0624L37.1973 21.8105C37.0641 21.6617 36.8738 21.5768 36.6739 21.5768H23.3235C23.1237 21.5768 22.9334 21.6618 22.8001 21.8105L18.0963 27.0624C18.0867 27.0731 18.0792 27.0849 18.0704 27.0961C18.0623 27.1061 18.0543 27.1161 18.0469 27.1265C18.0246 27.158 18.0045 27.1907 17.9879 27.225C17.9862 27.2285 17.9843 27.232 17.9827 27.2356C17.9661 27.2711 17.9536 27.308 17.9434 27.3455C17.9401 27.3575 17.9378 27.3693 17.9352 27.3814C17.9287 27.4108 17.9243 27.4404 17.9217 27.4704C17.9208 27.4817 17.9193 27.493 17.9189 27.5043C17.9174 27.5444 17.9184 27.5845 17.9238 27.6246C17.9245 27.6297 17.9262 27.6348 17.927 27.64C17.9324 27.6745 17.9406 27.7087 17.9512 27.7425C17.9554 27.7556 17.9604 27.7682 17.9653 27.7811C17.97 27.7933 17.9732 27.8057 17.9786 27.8178C17.9855 27.8332 17.9944 27.8471 18.0022 27.8619C18.0081 27.8728 18.0132 27.8838 18.0198 27.8945C18.0416 27.9304 18.066 27.9643 18.0934 27.9955C18.0947 27.9969 18.0954 27.9985 18.0967 27.9999L29.4773 40.7094C29.4804 40.7128 29.4839 40.7157 29.4871 40.7191C29.492 40.7244 29.4966 40.7301 29.5016 40.7353C29.5018 40.7355 29.5022 40.7357 29.5024 40.736C29.5079 40.7415 29.514 40.7465 29.5198 40.7519C29.5259 40.7577 29.5321 40.7634 29.5383 40.7689C29.5502 40.7793 29.5625 40.7892 29.5752 40.7989C29.5774 40.8007 29.5795 40.8027 29.5819 40.8043C29.5835 40.8055 29.5849 40.807 29.5866 40.8082C29.5891 40.81 29.5918 40.8116 29.5944 40.8134C29.6073 40.8226 29.6207 40.8311 29.6343 40.8393C29.6413 40.8437 29.6482 40.8481 29.6555 40.8522C29.6621 40.856 29.6687 40.8596 29.6755 40.8631C29.6798 40.8654 29.6842 40.8672 29.6886 40.8693C29.6909 40.8705 29.6932 40.8716 29.6955 40.8726C29.7041 40.8767 29.7124 40.8811 29.721 40.8848C29.7333 40.8902 29.7461 40.8948 29.7588 40.8995C29.7647 40.9016 29.7704 40.9041 29.7763 40.9062C29.7783 40.907 29.7802 40.9079 29.782 40.9085C29.7845 40.9093 29.7871 40.9098 29.7896 40.9106C29.7922 40.9114 29.7947 40.9126 29.7974 40.9134C29.8023 40.9149 29.8072 40.9153 29.8121 40.9167C29.8328 40.9224 29.8536 40.9273 29.8748 40.9312C29.8814 40.9324 29.8879 40.934 29.8944 40.9351C29.8999 40.9359 29.9055 40.9362 29.9111 40.9371C29.9372 40.9405 29.9637 40.9425 29.9903 40.9429C29.9917 40.9429 29.9931 40.9433 29.9945 40.9433C29.9964 40.9433 29.9982 40.9437 30.0002 40.9437H30.0005H30.0007C30.0026 40.9437 30.0045 40.9433 30.0064 40.9433C30.0079 40.9433 30.0093 40.943 30.0105 40.9429C30.0373 40.9426 30.0636 40.9405 30.0899 40.9371C30.0955 40.9364 30.1011 40.936 30.1068 40.9351C30.1133 40.934 30.1198 40.9324 30.1263 40.9312C30.1474 40.9273 30.1683 40.9224 30.1888 40.9167C30.1938 40.9153 30.1987 40.9148 30.2038 40.9133C30.2065 40.9125 30.2089 40.9113 30.2116 40.9105C30.2141 40.9098 30.2166 40.9093 30.2189 40.9085C30.2209 40.9078 30.2229 40.9068 30.2249 40.9061C30.2306 40.9043 30.236 40.9017 30.2418 40.8996C30.2548 40.8948 30.2678 40.8901 30.2804 40.8847C30.2889 40.8811 30.297 40.8768 30.3052 40.8728C30.3077 40.8716 30.3103 40.8704 30.3129 40.8691C30.317 40.867 30.3213 40.8652 30.3254 40.8631C30.3323 40.8595 30.3391 40.8557 30.3459 40.8519C30.3528 40.848 30.3594 40.8437 30.3662 40.8396C30.3802 40.831 30.394 40.8223 30.4071 40.813C30.4096 40.8112 30.4121 40.8098 30.4145 40.808C30.4161 40.8069 30.4177 40.8054 30.4193 40.8041C30.4213 40.8025 30.4232 40.8008 30.4252 40.7993C30.4382 40.7893 30.4509 40.7791 30.4632 40.7683C30.4692 40.763 30.475 40.7577 30.4807 40.7523C30.4868 40.7465 30.4932 40.7413 30.4991 40.7354H30.4992C30.5046 40.73 30.5093 40.724 30.5145 40.7185C30.5174 40.7154 30.5207 40.7125 30.5236 40.7093L41.9009 27.9998C41.902 27.9985 41.9027 27.9969 41.9039 27.9956C41.9314 27.9644 41.9558 27.9304 41.9777 27.8943C41.9841 27.8838 41.9892 27.873 41.995 27.8622L41.9954 27.862ZM32.0275 22.9817L32.9496 26.8285H27.0479L27.9701 22.9817H32.0275ZM32.8943 28.2336L30.0001 37.8123L27.1035 28.2336H32.8943ZM25.6355 28.2336L28.4113 37.4125L20.192 28.2336H25.6355ZM34.3622 28.2336H39.8059L31.5887 37.4129L34.3622 28.2336ZM39.8053 26.8285H34.3945L33.4724 22.9817H36.3601L39.8053 26.8285ZM23.6374 22.9817H26.5252L25.603 26.8285H20.1922L23.6374 22.9817Z"/>
</mask>
<path d="M52.5026 30.0009C53.3725 28.9803 54.1752 27.9577 54.9025 26.9393C57.9299 22.7005 59.5303 18.736 59.5304 15.4746C59.5304 12.9588 58.5544 10.8876 56.7077 9.48523C56.7077 9.48523 56.7077 9.48523 56.7076 9.48523C53.4366 7.00227 47.6885 6.74047 40.4893 8.73477C37.6463 3.7843 33.9506 1.07422 30.0004 1.07422C26.0501 1.07422 22.3521 3.7843 19.5086 8.73477C12.3097 6.74047 6.56262 7.00238 3.29309 9.48523C1.44574 10.8874 0.469102 12.9582 0.46875 15.4738C0.468281 18.735 2.06836 22.6994 5.09613 26.9388C5.82352 27.9573 6.62625 28.9801 7.49637 30.0009C6.6266 31.0214 5.8241 32.0439 5.09684 33.0621C2.0693 37.3012 0.468867 41.266 0.46875 44.5277C0.46875 47.0443 1.44527 49.1163 3.29297 50.5196C5.11277 51.9015 7.69898 52.5956 10.8768 52.5956C13.4086 52.5956 16.3168 52.1536 19.5094 51.2687C22.3529 56.218 26.0493 58.9273 30.0004 58.9273C33.9514 58.9273 37.6454 56.218 40.4885 51.2687C43.6816 52.1537 46.5895 52.5956 49.122 52.5956C52.2996 52.5956 54.8872 51.9014 56.7075 50.5197C56.7075 50.5197 56.7077 50.5196 56.7079 50.5195C58.5548 49.1158 59.5309 47.0436 59.5304 44.5266C59.5297 41.2647 57.9292 37.3 54.9016 33.0615C54.1745 32.0435 53.3721 31.0211 52.5025 30.0008L52.5026 30.0009ZM55.8579 10.6044C57.3626 11.747 58.1255 13.3856 58.1254 15.4746C58.1252 19.2433 55.7194 24.031 51.5678 28.9339C49.625 26.7755 47.3863 24.6364 44.9122 22.5767C44.259 17.8884 42.9865 13.5763 41.1735 10.0043C44.0999 9.21758 46.7842 8.82477 49.1098 8.82477C51.9754 8.82477 54.2973 9.41996 55.8578 10.6044H55.8579ZM39.7965 49.6058C37.1092 48.7925 34.3384 47.7018 31.5598 46.3731C35.2062 44.4475 38.8249 42.1425 42.251 39.5411C42.6009 39.2755 42.9466 39.0079 43.2888 38.7389C42.5932 42.7925 41.4098 46.5036 39.7965 49.6058ZM41.4013 38.422C37.7507 41.1938 33.881 43.6223 29.9987 45.6014C26.1165 43.6223 22.2468 41.1938 18.5961 38.4221C17.8448 37.8515 17.1138 37.2738 16.4031 36.6908C16.1266 34.5294 15.9838 32.2877 15.9838 30.0027C15.9838 27.7176 16.1266 25.4735 16.4033 23.311C17.1139 22.7281 17.845 22.1504 18.596 21.5799C22.2465 18.8082 26.1163 16.38 29.9986 14.4011C33.8809 16.38 37.7507 18.8082 41.4012 21.5799C42.1523 22.1503 42.8832 22.7278 43.594 23.3107C43.8707 25.4734 44.0135 27.7163 44.0135 30.0027C44.0135 32.289 43.8707 34.5295 43.5942 36.691C42.8835 37.2739 42.1525 37.8515 41.4012 38.422H41.4013ZM20.2014 49.6058C18.5879 46.5037 17.4045 42.7926 16.7087 38.7388C17.0508 39.0078 17.3966 39.2755 17.7464 39.5411C21.1725 42.1425 24.7912 44.4475 28.4378 46.3731C25.6593 47.7018 22.8886 48.7925 20.2014 49.6058ZM14.8411 35.3717C12.8084 33.6042 10.971 31.7994 9.36082 30.0011C10.9711 28.2027 12.8085 26.3976 14.8413 24.6301C14.6682 26.3838 14.5787 28.1803 14.5787 30.0027C14.5787 31.825 14.6681 33.6191 14.8411 35.3717ZM20.2009 10.3975C22.8884 11.2106 25.659 12.3009 28.4375 13.6295C24.791 15.5547 21.1724 17.8596 17.7464 20.4609C17.3967 20.7264 17.0511 20.994 16.7091 21.2629C17.4048 17.2097 18.5879 13.4993 20.2009 10.3975ZM39.7971 10.3975C41.4098 13.4993 42.5929 17.2096 43.2885 21.2628C42.9464 20.9939 42.6008 20.7263 42.251 20.4608C38.825 17.8596 35.2065 15.5547 31.56 13.6295C34.3386 12.3009 37.1095 11.2105 39.797 10.3975H39.7971ZM45.1562 24.6294C47.1896 26.397 49.0275 28.2023 50.6381 30.001C49.0275 31.7996 47.1898 33.6046 45.1564 35.3723C45.3294 33.6195 45.4188 31.824 45.4188 30.0027C45.4188 28.1813 45.3293 26.3833 45.1562 24.6294ZM30.0004 2.47941C33.35 2.47941 36.5469 4.83383 39.0996 9.14234C36.1275 10.0611 33.0618 11.3067 29.9987 12.8292C26.9359 11.3067 23.8703 10.0611 20.8983 9.14234C23.4514 4.83371 26.6493 2.47941 30.0004 2.47941ZM1.87395 15.4739C1.87418 13.3852 2.63754 11.747 4.14281 10.6044C5.70281 9.41973 8.02336 8.82477 10.8888 8.82477C13.2138 8.82477 15.8984 9.2177 18.8243 10.0043C17.0111 13.5763 15.7384 17.8885 15.0852 22.5772C12.6117 24.6369 10.3734 26.7757 8.43105 28.9339C4.2791 24.0302 1.87336 19.2423 1.87383 15.4739H1.87395ZM4.14293 49.4007C2.6373 48.2572 1.87395 46.6176 1.87395 44.5278C1.87406 40.7592 4.2798 35.9714 8.43117 31.068C10.3734 33.226 12.6115 35.3647 15.0848 37.4243C15.738 42.1135 17.0111 46.4266 18.8249 49.9991C12.2924 51.7562 6.96832 51.5464 4.14281 49.4006L4.14293 49.4007ZM30.0005 57.5224C26.6497 57.5224 23.4521 55.1684 20.899 50.8609C23.8707 49.9419 26.9361 48.6959 29.9988 47.1733C33.0616 48.6961 36.1272 49.9419 39.099 50.861C36.5464 55.1686 33.3498 57.5225 30.0004 57.5225L30.0005 57.5224ZM55.8578 49.4008C53.0305 51.5464 47.7054 51.7561 41.1729 49.9992C42.9865 46.4266 44.2594 42.1138 44.9126 37.4248C47.3865 35.3653 49.625 33.2264 51.5678 31.0681C55.7188 35.9707 58.1246 40.7582 58.1254 44.5272C58.1258 46.6174 57.3629 48.2572 55.8578 49.4009V49.4008ZM41.9954 27.862C42.0034 27.8472 42.0123 27.8332 42.0192 27.8177C42.0246 27.8056 42.0279 27.793 42.0326 27.7808C42.0374 27.768 42.0423 27.7555 42.0464 27.7426C42.0572 27.7085 42.0655 27.6739 42.0709 27.6391C42.0716 27.6343 42.0732 27.6296 42.0738 27.6247C42.0792 27.5846 42.0803 27.5443 42.0788 27.5042C42.0783 27.493 42.0769 27.482 42.0759 27.4707C42.0734 27.4405 42.0688 27.4107 42.0623 27.3812C42.0598 27.3693 42.0574 27.3576 42.0543 27.3458C42.0438 27.3077 42.0312 27.2703 42.0144 27.2343C42.013 27.2314 42.0114 27.2286 42.01 27.2257C41.9933 27.1911 41.9729 27.1582 41.9504 27.1263C41.9432 27.116 41.9352 27.1063 41.9272 27.0963C41.9183 27.085 41.9107 27.0732 41.9011 27.0624L37.1973 21.8105C37.0641 21.6617 36.8738 21.5768 36.6739 21.5768H23.3235C23.1237 21.5768 22.9334 21.6618 22.8001 21.8105L18.0963 27.0624C18.0867 27.0731 18.0792 27.0849 18.0704 27.0961C18.0623 27.1061 18.0543 27.1161 18.0469 27.1265C18.0246 27.158 18.0045 27.1907 17.9879 27.225C17.9862 27.2285 17.9843 27.232 17.9827 27.2356C17.9661 27.2711 17.9536 27.308 17.9434 27.3455C17.9401 27.3575 17.9378 27.3693 17.9352 27.3814C17.9287 27.4108 17.9243 27.4404 17.9217 27.4704C17.9208 27.4817 17.9193 27.493 17.9189 27.5043C17.9174 27.5444 17.9184 27.5845 17.9238 27.6246C17.9245 27.6297 17.9262 27.6348 17.927 27.64C17.9324 27.6745 17.9406 27.7087 17.9512 27.7425C17.9554 27.7556 17.9604 27.7682 17.9653 27.7811C17.97 27.7933 17.9732 27.8057 17.9786 27.8178C17.9855 27.8332 17.9944 27.8471 18.0022 27.8619C18.0081 27.8728 18.0132 27.8838 18.0198 27.8945C18.0416 27.9304 18.066 27.9643 18.0934 27.9955C18.0947 27.9969 18.0954 27.9985 18.0967 27.9999L29.4773 40.7094C29.4804 40.7128 29.4839 40.7157 29.4871 40.7191C29.492 40.7244 29.4966 40.7301 29.5016 40.7353C29.5018 40.7355 29.5022 40.7357 29.5024 40.736C29.5079 40.7415 29.514 40.7465 29.5198 40.7519C29.5259 40.7577 29.5321 40.7634 29.5383 40.7689C29.5502 40.7793 29.5625 40.7892 29.5752 40.7989C29.5774 40.8007 29.5795 40.8027 29.5819 40.8043C29.5835 40.8055 29.5849 40.807 29.5866 40.8082C29.5891 40.81 29.5918 40.8116 29.5944 40.8134C29.6073 40.8226 29.6207 40.8311 29.6343 40.8393C29.6413 40.8437 29.6482 40.8481 29.6555 40.8522C29.6621 40.856 29.6687 40.8596 29.6755 40.8631C29.6798 40.8654 29.6842 40.8672 29.6886 40.8693C29.6909 40.8705 29.6932 40.8716 29.6955 40.8726C29.7041 40.8767 29.7124 40.8811 29.721 40.8848C29.7333 40.8902 29.7461 40.8948 29.7588 40.8995C29.7647 40.9016 29.7704 40.9041 29.7763 40.9062C29.7783 40.907 29.7802 40.9079 29.782 40.9085C29.7845 40.9093 29.7871 40.9098 29.7896 40.9106C29.7922 40.9114 29.7947 40.9126 29.7974 40.9134C29.8023 40.9149 29.8072 40.9153 29.8121 40.9167C29.8328 40.9224 29.8536 40.9273 29.8748 40.9312C29.8814 40.9324 29.8879 40.934 29.8944 40.9351C29.8999 40.9359 29.9055 40.9362 29.9111 40.9371C29.9372 40.9405 29.9637 40.9425 29.9903 40.9429C29.9917 40.9429 29.9931 40.9433 29.9945 40.9433C29.9964 40.9433 29.9982 40.9437 30.0002 40.9437H30.0005H30.0007C30.0026 40.9437 30.0045 40.9433 30.0064 40.9433C30.0079 40.9433 30.0093 40.943 30.0105 40.9429C30.0373 40.9426 30.0636 40.9405 30.0899 40.9371C30.0955 40.9364 30.1011 40.936 30.1068 40.9351C30.1133 40.934 30.1198 40.9324 30.1263 40.9312C30.1474 40.9273 30.1683 40.9224 30.1888 40.9167C30.1938 40.9153 30.1987 40.9148 30.2038 40.9133C30.2065 40.9125 30.2089 40.9113 30.2116 40.9105C30.2141 40.9098 30.2166 40.9093 30.2189 40.9085C30.2209 40.9078 30.2229 40.9068 30.2249 40.9061C30.2306 40.9043 30.236 40.9017 30.2418 40.8996C30.2548 40.8948 30.2678 40.8901 30.2804 40.8847C30.2889 40.8811 30.297 40.8768 30.3052 40.8728C30.3077 40.8716 30.3103 40.8704 30.3129 40.8691C30.317 40.867 30.3213 40.8652 30.3254 40.8631C30.3323 40.8595 30.3391 40.8557 30.3459 40.8519C30.3528 40.848 30.3594 40.8437 30.3662 40.8396C30.3802 40.831 30.394 40.8223 30.4071 40.813C30.4096 40.8112 30.4121 40.8098 30.4145 40.808C30.4161 40.8069 30.4177 40.8054 30.4193 40.8041C30.4213 40.8025 30.4232 40.8008 30.4252 40.7993C30.4382 40.7893 30.4509 40.7791 30.4632 40.7683C30.4692 40.763 30.475 40.7577 30.4807 40.7523C30.4868 40.7465 30.4932 40.7413 30.4991 40.7354H30.4992C30.5046 40.73 30.5093 40.724 30.5145 40.7185C30.5174 40.7154 30.5207 40.7125 30.5236 40.7093L41.9009 27.9998C41.902 27.9985 41.9027 27.9969 41.9039 27.9956C41.9314 27.9644 41.9558 27.9304 41.9777 27.8943C41.9841 27.8838 41.9892 27.873 41.995 27.8622L41.9954 27.862ZM32.0275 22.9817L32.9496 26.8285H27.0479L27.9701 22.9817H32.0275ZM32.8943 28.2336L30.0001 37.8123L27.1035 28.2336H32.8943ZM25.6355 28.2336L28.4113 37.4125L20.192 28.2336H25.6355ZM34.3622 28.2336H39.8059L31.5887 37.4129L34.3622 28.2336ZM39.8053 26.8285H34.3945L33.4724 22.9817H36.3601L39.8053 26.8285ZM23.6374 22.9817H26.5252L25.603 26.8285H20.1922L23.6374 22.9817Z" fill="url(#paint0_linear_5116_5971)"/>
<path d="M52.5026 30.0009C53.3725 28.9803 54.1752 27.9577 54.9025 26.9393C57.9299 22.7005 59.5303 18.736 59.5304 15.4746C59.5304 12.9588 58.5544 10.8876 56.7077 9.48523C56.7077 9.48523 56.7077 9.48523 56.7076 9.48523C53.4366 7.00227 47.6885 6.74047 40.4893 8.73477C37.6463 3.7843 33.9506 1.07422 30.0004 1.07422C26.0501 1.07422 22.3521 3.7843 19.5086 8.73477C12.3097 6.74047 6.56262 7.00238 3.29309 9.48523C1.44574 10.8874 0.469102 12.9582 0.46875 15.4738C0.468281 18.735 2.06836 22.6994 5.09613 26.9388C5.82352 27.9573 6.62625 28.9801 7.49637 30.0009C6.6266 31.0214 5.8241 32.0439 5.09684 33.0621C2.0693 37.3012 0.468867 41.266 0.46875 44.5277C0.46875 47.0443 1.44527 49.1163 3.29297 50.5196C5.11277 51.9015 7.69898 52.5956 10.8768 52.5956C13.4086 52.5956 16.3168 52.1536 19.5094 51.2687C22.3529 56.218 26.0493 58.9273 30.0004 58.9273C33.9514 58.9273 37.6454 56.218 40.4885 51.2687C43.6816 52.1537 46.5895 52.5956 49.122 52.5956C52.2996 52.5956 54.8872 51.9014 56.7075 50.5197C56.7075 50.5197 56.7077 50.5196 56.7079 50.5195C58.5548 49.1158 59.5309 47.0436 59.5304 44.5266C59.5297 41.2647 57.9292 37.3 54.9016 33.0615C54.1745 32.0435 53.3721 31.0211 52.5025 30.0008L52.5026 30.0009ZM55.8579 10.6044C57.3626 11.747 58.1255 13.3856 58.1254 15.4746C58.1252 19.2433 55.7194 24.031 51.5678 28.9339C49.625 26.7755 47.3863 24.6364 44.9122 22.5767C44.259 17.8884 42.9865 13.5763 41.1735 10.0043C44.0999 9.21758 46.7842 8.82477 49.1098 8.82477C51.9754 8.82477 54.2973 9.41996 55.8578 10.6044H55.8579ZM39.7965 49.6058C37.1092 48.7925 34.3384 47.7018 31.5598 46.3731C35.2062 44.4475 38.8249 42.1425 42.251 39.5411C42.6009 39.2755 42.9466 39.0079 43.2888 38.7389C42.5932 42.7925 41.4098 46.5036 39.7965 49.6058ZM41.4013 38.422C37.7507 41.1938 33.881 43.6223 29.9987 45.6014C26.1165 43.6223 22.2468 41.1938 18.5961 38.4221C17.8448 37.8515 17.1138 37.2738 16.4031 36.6908C16.1266 34.5294 15.9838 32.2877 15.9838 30.0027C15.9838 27.7176 16.1266 25.4735 16.4033 23.311C17.1139 22.7281 17.845 22.1504 18.596 21.5799C22.2465 18.8082 26.1163 16.38 29.9986 14.4011C33.8809 16.38 37.7507 18.8082 41.4012 21.5799C42.1523 22.1503 42.8832 22.7278 43.594 23.3107C43.8707 25.4734 44.0135 27.7163 44.0135 30.0027C44.0135 32.289 43.8707 34.5295 43.5942 36.691C42.8835 37.2739 42.1525 37.8515 41.4012 38.422H41.4013ZM20.2014 49.6058C18.5879 46.5037 17.4045 42.7926 16.7087 38.7388C17.0508 39.0078 17.3966 39.2755 17.7464 39.5411C21.1725 42.1425 24.7912 44.4475 28.4378 46.3731C25.6593 47.7018 22.8886 48.7925 20.2014 49.6058ZM14.8411 35.3717C12.8084 33.6042 10.971 31.7994 9.36082 30.0011C10.9711 28.2027 12.8085 26.3976 14.8413 24.6301C14.6682 26.3838 14.5787 28.1803 14.5787 30.0027C14.5787 31.825 14.6681 33.6191 14.8411 35.3717ZM20.2009 10.3975C22.8884 11.2106 25.659 12.3009 28.4375 13.6295C24.791 15.5547 21.1724 17.8596 17.7464 20.4609C17.3967 20.7264 17.0511 20.994 16.7091 21.2629C17.4048 17.2097 18.5879 13.4993 20.2009 10.3975ZM39.7971 10.3975C41.4098 13.4993 42.5929 17.2096 43.2885 21.2628C42.9464 20.9939 42.6008 20.7263 42.251 20.4608C38.825 17.8596 35.2065 15.5547 31.56 13.6295C34.3386 12.3009 37.1095 11.2105 39.797 10.3975H39.7971ZM45.1562 24.6294C47.1896 26.397 49.0275 28.2023 50.6381 30.001C49.0275 31.7996 47.1898 33.6046 45.1564 35.3723C45.3294 33.6195 45.4188 31.824 45.4188 30.0027C45.4188 28.1813 45.3293 26.3833 45.1562 24.6294ZM30.0004 2.47941C33.35 2.47941 36.5469 4.83383 39.0996 9.14234C36.1275 10.0611 33.0618 11.3067 29.9987 12.8292C26.9359 11.3067 23.8703 10.0611 20.8983 9.14234C23.4514 4.83371 26.6493 2.47941 30.0004 2.47941ZM1.87395 15.4739C1.87418 13.3852 2.63754 11.747 4.14281 10.6044C5.70281 9.41973 8.02336 8.82477 10.8888 8.82477C13.2138 8.82477 15.8984 9.2177 18.8243 10.0043C17.0111 13.5763 15.7384 17.8885 15.0852 22.5772C12.6117 24.6369 10.3734 26.7757 8.43105 28.9339C4.2791 24.0302 1.87336 19.2423 1.87383 15.4739H1.87395ZM4.14293 49.4007C2.6373 48.2572 1.87395 46.6176 1.87395 44.5278C1.87406 40.7592 4.2798 35.9714 8.43117 31.068C10.3734 33.226 12.6115 35.3647 15.0848 37.4243C15.738 42.1135 17.0111 46.4266 18.8249 49.9991C12.2924 51.7562 6.96832 51.5464 4.14281 49.4006L4.14293 49.4007ZM30.0005 57.5224C26.6497 57.5224 23.4521 55.1684 20.899 50.8609C23.8707 49.9419 26.9361 48.6959 29.9988 47.1733C33.0616 48.6961 36.1272 49.9419 39.099 50.861C36.5464 55.1686 33.3498 57.5225 30.0004 57.5225L30.0005 57.5224ZM55.8578 49.4008C53.0305 51.5464 47.7054 51.7561 41.1729 49.9992C42.9865 46.4266 44.2594 42.1138 44.9126 37.4248C47.3865 35.3653 49.625 33.2264 51.5678 31.0681C55.7188 35.9707 58.1246 40.7582 58.1254 44.5272C58.1258 46.6174 57.3629 48.2572 55.8578 49.4009V49.4008ZM41.9954 27.862C42.0034 27.8472 42.0123 27.8332 42.0192 27.8177C42.0246 27.8056 42.0279 27.793 42.0326 27.7808C42.0374 27.768 42.0423 27.7555 42.0464 27.7426C42.0572 27.7085 42.0655 27.6739 42.0709 27.6391C42.0716 27.6343 42.0732 27.6296 42.0738 27.6247C42.0792 27.5846 42.0803 27.5443 42.0788 27.5042C42.0783 27.493 42.0769 27.482 42.0759 27.4707C42.0734 27.4405 42.0688 27.4107 42.0623 27.3812C42.0598 27.3693 42.0574 27.3576 42.0543 27.3458C42.0438 27.3077 42.0312 27.2703 42.0144 27.2343C42.013 27.2314 42.0114 27.2286 42.01 27.2257C41.9933 27.1911 41.9729 27.1582 41.9504 27.1263C41.9432 27.116 41.9352 27.1063 41.9272 27.0963C41.9183 27.085 41.9107 27.0732 41.9011 27.0624L37.1973 21.8105C37.0641 21.6617 36.8738 21.5768 36.6739 21.5768H23.3235C23.1237 21.5768 22.9334 21.6618 22.8001 21.8105L18.0963 27.0624C18.0867 27.0731 18.0792 27.0849 18.0704 27.0961C18.0623 27.1061 18.0543 27.1161 18.0469 27.1265C18.0246 27.158 18.0045 27.1907 17.9879 27.225C17.9862 27.2285 17.9843 27.232 17.9827 27.2356C17.9661 27.2711 17.9536 27.308 17.9434 27.3455C17.9401 27.3575 17.9378 27.3693 17.9352 27.3814C17.9287 27.4108 17.9243 27.4404 17.9217 27.4704C17.9208 27.4817 17.9193 27.493 17.9189 27.5043C17.9174 27.5444 17.9184 27.5845 17.9238 27.6246C17.9245 27.6297 17.9262 27.6348 17.927 27.64C17.9324 27.6745 17.9406 27.7087 17.9512 27.7425C17.9554 27.7556 17.9604 27.7682 17.9653 27.7811C17.97 27.7933 17.9732 27.8057 17.9786 27.8178C17.9855 27.8332 17.9944 27.8471 18.0022 27.8619C18.0081 27.8728 18.0132 27.8838 18.0198 27.8945C18.0416 27.9304 18.066 27.9643 18.0934 27.9955C18.0947 27.9969 18.0954 27.9985 18.0967 27.9999L29.4773 40.7094C29.4804 40.7128 29.4839 40.7157 29.4871 40.7191C29.492 40.7244 29.4966 40.7301 29.5016 40.7353C29.5018 40.7355 29.5022 40.7357 29.5024 40.736C29.5079 40.7415 29.514 40.7465 29.5198 40.7519C29.5259 40.7577 29.5321 40.7634 29.5383 40.7689C29.5502 40.7793 29.5625 40.7892 29.5752 40.7989C29.5774 40.8007 29.5795 40.8027 29.5819 40.8043C29.5835 40.8055 29.5849 40.807 29.5866 40.8082C29.5891 40.81 29.5918 40.8116 29.5944 40.8134C29.6073 40.8226 29.6207 40.8311 29.6343 40.8393C29.6413 40.8437 29.6482 40.8481 29.6555 40.8522C29.6621 40.856 29.6687 40.8596 29.6755 40.8631C29.6798 40.8654 29.6842 40.8672 29.6886 40.8693C29.6909 40.8705 29.6932 40.8716 29.6955 40.8726C29.7041 40.8767 29.7124 40.8811 29.721 40.8848C29.7333 40.8902 29.7461 40.8948 29.7588 40.8995C29.7647 40.9016 29.7704 40.9041 29.7763 40.9062C29.7783 40.907 29.7802 40.9079 29.782 40.9085C29.7845 40.9093 29.7871 40.9098 29.7896 40.9106C29.7922 40.9114 29.7947 40.9126 29.7974 40.9134C29.8023 40.9149 29.8072 40.9153 29.8121 40.9167C29.8328 40.9224 29.8536 40.9273 29.8748 40.9312C29.8814 40.9324 29.8879 40.934 29.8944 40.9351C29.8999 40.9359 29.9055 40.9362 29.9111 40.9371C29.9372 40.9405 29.9637 40.9425 29.9903 40.9429C29.9917 40.9429 29.9931 40.9433 29.9945 40.9433C29.9964 40.9433 29.9982 40.9437 30.0002 40.9437H30.0005H30.0007C30.0026 40.9437 30.0045 40.9433 30.0064 40.9433C30.0079 40.9433 30.0093 40.943 30.0105 40.9429C30.0373 40.9426 30.0636 40.9405 30.0899 40.9371C30.0955 40.9364 30.1011 40.936 30.1068 40.9351C30.1133 40.934 30.1198 40.9324 30.1263 40.9312C30.1474 40.9273 30.1683 40.9224 30.1888 40.9167C30.1938 40.9153 30.1987 40.9148 30.2038 40.9133C30.2065 40.9125 30.2089 40.9113 30.2116 40.9105C30.2141 40.9098 30.2166 40.9093 30.2189 40.9085C30.2209 40.9078 30.2229 40.9068 30.2249 40.9061C30.2306 40.9043 30.236 40.9017 30.2418 40.8996C30.2548 40.8948 30.2678 40.8901 30.2804 40.8847C30.2889 40.8811 30.297 40.8768 30.3052 40.8728C30.3077 40.8716 30.3103 40.8704 30.3129 40.8691C30.317 40.867 30.3213 40.8652 30.3254 40.8631C30.3323 40.8595 30.3391 40.8557 30.3459 40.8519C30.3528 40.848 30.3594 40.8437 30.3662 40.8396C30.3802 40.831 30.394 40.8223 30.4071 40.813C30.4096 40.8112 30.4121 40.8098 30.4145 40.808C30.4161 40.8069 30.4177 40.8054 30.4193 40.8041C30.4213 40.8025 30.4232 40.8008 30.4252 40.7993C30.4382 40.7893 30.4509 40.7791 30.4632 40.7683C30.4692 40.763 30.475 40.7577 30.4807 40.7523C30.4868 40.7465 30.4932 40.7413 30.4991 40.7354H30.4992C30.5046 40.73 30.5093 40.724 30.5145 40.7185C30.5174 40.7154 30.5207 40.7125 30.5236 40.7093L41.9009 27.9998C41.902 27.9985 41.9027 27.9969 41.9039 27.9956C41.9314 27.9644 41.9558 27.9304 41.9777 27.8943C41.9841 27.8838 41.9892 27.873 41.995 27.8622L41.9954 27.862ZM32.0275 22.9817L32.9496 26.8285H27.0479L27.9701 22.9817H32.0275ZM32.8943 28.2336L30.0001 37.8123L27.1035 28.2336H32.8943ZM25.6355 28.2336L28.4113 37.4125L20.192 28.2336H25.6355ZM34.3622 28.2336H39.8059L31.5887 37.4129L34.3622 28.2336ZM39.8053 26.8285H34.3945L33.4724 22.9817H36.3601L39.8053 26.8285ZM23.6374 22.9817H26.5252L25.603 26.8285H20.1922L23.6374 22.9817Z" stroke="url(#paint1_linear_5116_5971)" mask="url(#path-1-outside-1_5116_5971)"/>
</g>
<defs>
<linearGradient id="paint0_linear_5116_5971" x1="0.46875" y1="30.0008" x2="59.5304" y2="30.0008" gradientUnits="userSpaceOnUse">
<stop stop-color="#5254CB"/>
<stop offset="1" stop-color="#FF942F"/>
</linearGradient>
<linearGradient id="paint1_linear_5116_5971" x1="0.46875" y1="30.0008" x2="59.5304" y2="30.0008" gradientUnits="userSpaceOnUse">
<stop stop-color="#5254CB"/>
<stop offset="1" stop-color="#FF942F"/>
</linearGradient>
<clipPath id="clip0_5116_5971">
<rect width="60" height="60" fill="white"/>
</clipPath>
</defs>
</svg>
