<svg width="352" height="425" viewBox="0 0 352 425" fill="none" xmlns="http://www.w3.org/2000/svg">
<rect x="13" width="326" height="82" rx="10" fill="white"/>
<rect x="13.5" y="0.5" width="325" height="81" rx="9.5" stroke="black" stroke-opacity="0.2"/>
<path d="M49.4443 19.125C53.7417 19.133 57.8617 20.8441 60.9004 23.8828C63.9388 26.9215 65.6493 31.0407 65.6572 35.3379V58.9688C65.656 60.0044 65.244 60.9972 64.5117 61.7295C63.7794 62.4618 62.7866 62.8738 61.751 62.875H37.8672C36.8316 62.8738 35.8387 62.4618 35.1064 61.7295C34.3741 60.9972 33.9622 60.0044 33.9609 58.9688V23.0312C33.9622 21.9956 34.3741 21.0028 35.1064 20.2705C35.8387 19.5382 36.8316 19.1262 37.8672 19.125H49.4443ZM37.8672 20.6875C37.2458 20.6882 36.6503 20.9356 36.2109 21.375C35.7715 21.8144 35.5241 22.4099 35.5234 23.0312V58.9688C35.5241 59.5901 35.7715 60.1856 36.2109 60.625C36.6503 61.0644 37.2458 61.3118 37.8672 61.3125H61.751C62.3724 61.3118 62.9678 61.0644 63.4072 60.625C63.8466 60.1856 64.094 59.5901 64.0947 58.9688V35.3379C64.0978 33.4128 63.7209 31.5056 62.9854 29.7266H58.958C57.9224 29.7253 56.9296 29.3133 56.1973 28.5811C55.465 27.8488 55.053 26.8559 55.0518 25.8203V21.7939C53.274 21.0599 51.3687 20.6843 49.4453 20.6875H37.8672ZM56.6143 25.8203C56.615 26.4417 56.8624 27.0372 57.3018 27.4766C57.7411 27.9159 58.3367 28.1634 58.958 28.1641H62.2109C60.9008 25.8157 58.9629 23.8781 56.6143 22.5684V25.8203Z" fill="#B15252"/>
<path d="M49.4443 19.125C53.7417 19.133 57.8617 20.8441 60.9004 23.8828C63.9388 26.9215 65.6493 31.0407 65.6572 35.3379V58.9688C65.656 60.0044 65.244 60.9972 64.5117 61.7295C63.7794 62.4618 62.7866 62.8738 61.751 62.875H37.8672C36.8316 62.8738 35.8387 62.4618 35.1064 61.7295C34.3741 60.9972 33.9622 60.0044 33.9609 58.9688V23.0312C33.9622 21.9956 34.3741 21.0028 35.1064 20.2705C35.8387 19.5382 36.8316 19.1262 37.8672 19.125H49.4443ZM37.8672 20.6875C37.2458 20.6882 36.6503 20.9356 36.2109 21.375C35.7715 21.8144 35.5241 22.4099 35.5234 23.0312V58.9688C35.5241 59.5901 35.7715 60.1856 36.2109 60.625C36.6503 61.0644 37.2458 61.3118 37.8672 61.3125H61.751C62.3724 61.3118 62.9678 61.0644 63.4072 60.625C63.8466 60.1856 64.094 59.5901 64.0947 58.9688V35.3379C64.0978 33.4128 63.7209 31.5056 62.9854 29.7266H58.958C57.9224 29.7253 56.9296 29.3133 56.1973 28.5811C55.465 27.8488 55.053 26.8559 55.0518 25.8203V21.7939C53.274 21.0599 51.3687 20.6843 49.4453 20.6875H37.8672ZM56.6143 25.8203C56.615 26.4417 56.8624 27.0372 57.3018 27.4766C57.7411 27.9159 58.3367 28.1634 58.958 28.1641H62.2109C60.9008 25.8157 58.9629 23.8781 56.6143 22.5684V25.8203Z" stroke="#B15252"/>
<path d="M60.7422 33.1875C60.9467 33.1916 61.142 33.2758 61.2852 33.4219C61.4282 33.5679 61.5078 33.7643 61.5078 33.9688C61.5078 34.1732 61.4282 34.3696 61.2852 34.5156C61.142 34.6617 60.9467 34.7459 60.7422 34.75H38.8672C38.6628 34.7459 38.4683 34.6616 38.3252 34.5156C38.182 34.3696 38.1016 34.1733 38.1016 33.9688C38.1016 33.7642 38.182 33.5679 38.3252 33.4219C38.4683 33.2759 38.6628 33.1916 38.8672 33.1875H60.7422Z" fill="#B15252"/>
<path d="M60.7422 33.1875C60.9467 33.1916 61.142 33.2758 61.2852 33.4219C61.4282 33.5679 61.5078 33.7643 61.5078 33.9688C61.5078 34.1732 61.4282 34.3696 61.2852 34.5156C61.142 34.6617 60.9467 34.7459 60.7422 34.75H38.8672C38.6628 34.7459 38.4683 34.6616 38.3252 34.5156C38.182 34.3696 38.1016 34.1733 38.1016 33.9688C38.1016 33.7642 38.182 33.5679 38.3252 33.4219C38.4683 33.2759 38.6628 33.1916 38.8672 33.1875H60.7422Z" stroke="#B15252"/>
<path d="M60.7422 40.4785C60.9467 40.4826 61.142 40.5668 61.2852 40.7129C61.4282 40.8589 61.5078 41.0554 61.5078 41.2598C61.5078 41.4642 61.4282 41.6606 61.2852 41.8066C61.142 41.9527 60.9467 42.0369 60.7422 42.041H38.8672C38.6628 42.0369 38.4683 41.9526 38.3252 41.8066C38.182 41.6606 38.1016 41.4643 38.1016 41.2598C38.1016 41.0552 38.182 40.859 38.3252 40.7129C38.4683 40.5669 38.6628 40.4826 38.8672 40.4785H60.7422Z" fill="#B15252"/>
<path d="M60.7422 40.4785C60.9467 40.4826 61.142 40.5668 61.2852 40.7129C61.4282 40.8589 61.5078 41.0554 61.5078 41.2598C61.5078 41.4642 61.4282 41.6606 61.2852 41.8066C61.142 41.9527 60.9467 42.0369 60.7422 42.041H38.8672C38.6628 42.0369 38.4683 41.9526 38.3252 41.8066C38.182 41.6606 38.1016 41.4643 38.1016 41.2598C38.1016 41.0552 38.182 40.859 38.3252 40.7129C38.4683 40.5669 38.6628 40.4826 38.8672 40.4785H60.7422Z" stroke="#B15252"/>
<path d="M60.7422 47.7715C60.9467 47.7756 61.142 47.8598 61.2852 48.0059C61.4282 48.1519 61.5078 48.3483 61.5078 48.5527C61.5078 48.7571 61.4282 48.9536 61.2852 49.0996C61.142 49.2457 60.9467 49.3299 60.7422 49.334H38.8672C38.6628 49.3299 38.4683 49.2456 38.3252 49.0996C38.182 48.9535 38.1016 48.7573 38.1016 48.5527C38.1016 48.3482 38.182 48.1519 38.3252 48.0059C38.4683 47.8599 38.6628 47.7756 38.8672 47.7715H60.7422Z" fill="#B15252"/>
<path d="M60.7422 47.7715C60.9467 47.7756 61.142 47.8598 61.2852 48.0059C61.4282 48.1519 61.5078 48.3483 61.5078 48.5527C61.5078 48.7571 61.4282 48.9536 61.2852 49.0996C61.142 49.2457 60.9467 49.3299 60.7422 49.334H38.8672C38.6628 49.3299 38.4683 49.2456 38.3252 49.0996C38.182 48.9535 38.1016 48.7573 38.1016 48.5527C38.1016 48.3482 38.182 48.1519 38.3252 48.0059C38.4683 47.8599 38.6628 47.7756 38.8672 47.7715H60.7422Z" stroke="#B15252"/>
<path d="M60.7422 55.0625C60.9467 55.0666 61.142 55.1508 61.2852 55.2969C61.4282 55.4429 61.5078 55.6393 61.5078 55.8438C61.5078 56.0482 61.4282 56.2446 61.2852 56.3906C61.142 56.5367 60.9467 56.6209 60.7422 56.625H38.8672C38.6628 56.6209 38.4683 56.5366 38.3252 56.3906C38.182 56.2446 38.1016 56.0483 38.1016 55.8438C38.1016 55.6392 38.182 55.4429 38.3252 55.2969C38.4683 55.1509 38.6628 55.0666 38.8672 55.0625H60.7422Z" fill="#B15252"/>
<path d="M60.7422 55.0625C60.9467 55.0666 61.142 55.1508 61.2852 55.2969C61.4282 55.4429 61.5078 55.6393 61.5078 55.8438C61.5078 56.0482 61.4282 56.2446 61.2852 56.3906C61.142 56.5367 60.9467 56.6209 60.7422 56.625H38.8672C38.6628 56.6209 38.4683 56.5366 38.3252 56.3906C38.182 56.2446 38.1016 56.0483 38.1016 55.8438C38.1016 55.6392 38.182 55.4429 38.3252 55.2969C38.4683 55.1509 38.6628 55.0666 38.8672 55.0625H60.7422Z" stroke="#B15252"/>
<path d="M70.8945 24.5957C71.7215 24.5957 72.5153 24.9236 73.1006 25.5078C73.6858 26.0921 74.0152 26.885 74.0166 27.7119C73.9438 28.1435 74.1454 52.8584 73.9619 53.3174L71.6221 59.2549C71.5645 59.4007 71.4646 59.5261 71.335 59.6143C71.2054 59.7024 71.0522 59.75 70.8955 59.75C70.7388 59.75 70.5857 59.7024 70.4561 59.6143C70.3264 59.526 70.2255 59.4008 70.168 59.2549L67.8271 53.3174C67.7913 53.2261 67.7734 53.1283 67.7734 53.0303V27.7129C67.7747 26.8859 68.1043 26.0932 68.6895 25.5088C69.2746 24.9245 70.0676 24.5959 70.8945 24.5957ZM69.3359 30.6094V52.8828L70.8955 56.8379L72.4541 52.8828V30.6094H69.3359ZM70.8945 26.1572C70.4819 26.1574 70.0861 26.3209 69.7939 26.6123C69.5017 26.9039 69.3369 27.3 69.3359 27.7129V29.0469H72.4541V27.7129C72.4532 27.3 72.2884 26.9039 71.9961 26.6123C71.7038 26.3207 71.3074 26.1572 70.8945 26.1572Z" fill="#B15252"/>
<path d="M70.8945 24.5957C71.7215 24.5957 72.5153 24.9236 73.1006 25.5078C73.6858 26.0921 74.0152 26.885 74.0166 27.7119C73.9438 28.1435 74.1454 52.8584 73.9619 53.3174L71.6221 59.2549C71.5645 59.4007 71.4646 59.5261 71.335 59.6143C71.2054 59.7024 71.0522 59.75 70.8955 59.75C70.7388 59.75 70.5857 59.7024 70.4561 59.6143C70.3264 59.526 70.2255 59.4008 70.168 59.2549L67.8271 53.3174C67.7913 53.2261 67.7734 53.1283 67.7734 53.0303V27.7129C67.7747 26.8859 68.1043 26.0932 68.6895 25.5088C69.2746 24.9245 70.0676 24.5959 70.8945 24.5957ZM69.3359 30.6094V52.8828L70.8955 56.8379L72.4541 52.8828V30.6094H69.3359ZM70.8945 26.1572C70.4819 26.1574 70.0861 26.3209 69.7939 26.6123C69.5017 26.9039 69.3369 27.3 69.3359 27.7129V29.0469H72.4541V27.7129C72.4532 27.3 72.2884 26.9039 71.9961 26.6123C71.7038 26.3207 71.3074 26.1572 70.8945 26.1572Z" stroke="#B15252"/>
<path d="M97 36.2C96.0133 36.2 95.0933 36.02 94.24 35.66C93.4 35.3 92.6667 34.7933 92.04 34.14C91.4133 33.4867 90.9267 32.7333 90.58 31.88C90.2467 31.0133 90.08 30.0867 90.08 29.1C90.08 28.1133 90.2467 27.1933 90.58 26.34C90.9267 25.4733 91.4067 24.72 92.02 24.08C92.6467 23.44 93.38 22.94 94.22 22.58C95.06 22.22 95.9667 22.04 96.94 22.04C97.9933 22.04 98.9333 22.2267 99.76 22.6C100.6 22.9733 101.333 23.4867 101.96 24.14L100.96 25.14C100.48 24.6067 99.9 24.1933 99.22 23.9C98.54 23.5933 97.78 23.44 96.94 23.44C96.1667 23.44 95.4533 23.58 94.8 23.86C94.16 24.14 93.5933 24.54 93.1 25.06C92.62 25.5667 92.2467 26.1667 91.98 26.86C91.7267 27.54 91.6 28.2867 91.6 29.1C91.6 29.9133 91.7333 30.6667 92 31.36C92.2667 32.0533 92.64 32.66 93.12 33.18C93.6 33.6867 94.1667 34.08 94.82 34.36C95.4733 34.64 96.1867 34.78 96.96 34.78C97.84 34.78 98.62 34.6267 99.3 34.32C99.9933 34.0133 100.58 33.5933 101.06 33.06L102.06 34.08C101.447 34.7333 100.713 35.2533 99.86 35.64C99.0067 36.0133 98.0533 36.2 97 36.2ZM108.776 36.2C107.869 36.2 107.043 35.98 106.296 35.54C105.563 35.1 104.976 34.5067 104.536 33.76C104.109 33.0133 103.896 32.18 103.896 31.26C103.896 30.3533 104.109 29.5333 104.536 28.8C104.976 28.0667 105.563 27.4867 106.296 27.06C107.043 26.62 107.869 26.4 108.776 26.4C109.696 26.4 110.523 26.6133 111.256 27.04C111.989 27.4667 112.569 28.0533 112.996 28.8C113.436 29.5333 113.656 30.3533 113.656 31.26C113.656 32.1933 113.436 33.0333 112.996 33.78C112.569 34.5133 111.989 35.1 111.256 35.54C110.523 35.98 109.696 36.2 108.776 36.2ZM108.776 34.84C109.443 34.84 110.029 34.6867 110.536 34.38C111.056 34.0733 111.463 33.6467 111.756 33.1C112.063 32.5533 112.216 31.94 112.216 31.26C112.216 30.58 112.063 29.98 111.756 29.46C111.463 28.9267 111.056 28.5067 110.536 28.2C110.029 27.8933 109.443 27.74 108.776 27.74C108.123 27.74 107.536 27.8933 107.016 28.2C106.496 28.5067 106.089 28.9267 105.796 29.46C105.503 29.98 105.356 30.58 105.356 31.26C105.356 31.9533 105.503 32.5733 105.796 33.12C106.089 33.6533 106.496 34.0733 107.016 34.38C107.536 34.6867 108.123 34.84 108.776 34.84ZM123.323 36V30.48C123.323 29.6533 123.077 28.9867 122.583 28.48C122.103 27.96 121.463 27.7 120.663 27.7C120.117 27.7 119.637 27.82 119.223 28.06C118.81 28.3 118.483 28.6267 118.243 29.04C118.003 29.4533 117.883 29.9267 117.883 30.46L117.243 30.1C117.243 29.3933 117.41 28.76 117.743 28.2C118.077 27.64 118.523 27.2 119.083 26.88C119.657 26.56 120.31 26.4 121.043 26.4C121.763 26.4 122.403 26.5733 122.963 26.92C123.523 27.2667 123.957 27.7333 124.263 28.32C124.583 28.9067 124.743 29.5467 124.743 30.24V36H123.323ZM116.483 36V26.6H117.883V36H116.483ZM129.305 36V22.64H130.705V36H129.305ZM126.925 27.86V26.6H133.065V27.86H126.925ZM139.601 36.2C138.655 36.2 137.808 35.9867 137.061 35.56C136.315 35.1333 135.721 34.5467 135.281 33.8C134.855 33.0533 134.641 32.2133 134.641 31.28C134.641 30.36 134.855 29.5333 135.281 28.8C135.708 28.0533 136.288 27.4667 137.021 27.04C137.755 26.6133 138.575 26.4 139.481 26.4C140.335 26.4 141.088 26.5933 141.741 26.98C142.408 27.3667 142.928 27.9067 143.301 28.6C143.688 29.28 143.881 30.0667 143.881 30.96C143.881 31.0667 143.875 31.1933 143.861 31.34C143.848 31.4733 143.821 31.6333 143.781 31.82H135.641V30.62H143.021L142.521 31.06C142.535 30.3667 142.415 29.7733 142.161 29.28C141.921 28.7733 141.568 28.3867 141.101 28.12C140.648 27.84 140.095 27.7 139.441 27.7C138.761 27.7 138.168 27.8467 137.661 28.14C137.155 28.4333 136.755 28.8467 136.461 29.38C136.181 29.9 136.041 30.52 136.041 31.24C136.041 31.96 136.188 32.5933 136.481 33.14C136.788 33.6867 137.208 34.1133 137.741 34.42C138.288 34.7267 138.915 34.88 139.621 34.88C140.195 34.88 140.721 34.78 141.201 34.58C141.681 34.3667 142.088 34.0533 142.421 33.64L143.321 34.56C142.881 35.08 142.335 35.4867 141.681 35.78C141.041 36.06 140.348 36.2 139.601 36.2ZM153.463 36V30.48C153.463 29.6533 153.216 28.9867 152.723 28.48C152.243 27.96 151.603 27.7 150.803 27.7C150.256 27.7 149.776 27.82 149.363 28.06C148.95 28.3 148.623 28.6267 148.383 29.04C148.143 29.4533 148.023 29.9267 148.023 30.46L147.383 30.1C147.383 29.3933 147.55 28.76 147.883 28.2C148.216 27.64 148.663 27.2 149.223 26.88C149.796 26.56 150.45 26.4 151.183 26.4C151.903 26.4 152.543 26.5733 153.103 26.92C153.663 27.2667 154.096 27.7333 154.403 28.32C154.723 28.9067 154.883 29.5467 154.883 30.24V36H153.463ZM146.623 36V26.6H148.023V36H146.623ZM159.445 36V22.64H160.845V36H159.445ZM157.065 27.86V26.6H163.205V27.86H157.065ZM171.87 36V34.64H175.91C176.99 34.64 177.943 34.4067 178.77 33.94C179.597 33.46 180.243 32.8067 180.71 31.98C181.177 31.14 181.41 30.18 181.41 29.1C181.41 28.02 181.177 27.0667 180.71 26.24C180.243 25.4133 179.597 24.7667 178.77 24.3C177.943 23.82 176.99 23.58 175.91 23.58H171.91V22.24H175.95C176.95 22.24 177.87 22.4133 178.71 22.76C179.563 23.0933 180.303 23.5733 180.93 24.2C181.57 24.8133 182.063 25.54 182.41 26.38C182.757 27.2067 182.93 28.12 182.93 29.12C182.93 30.0933 182.757 31 182.41 31.84C182.063 32.68 181.577 33.4133 180.95 34.04C180.323 34.6533 179.583 35.1333 178.73 35.48C177.89 35.8267 176.977 36 175.99 36H171.87ZM170.97 36V22.24H172.43V36H170.97ZM190.355 36.2C189.409 36.2 188.562 35.9867 187.815 35.56C187.069 35.1333 186.475 34.5467 186.035 33.8C185.609 33.0533 185.395 32.2133 185.395 31.28C185.395 30.36 185.609 29.5333 186.035 28.8C186.462 28.0533 187.042 27.4667 187.775 27.04C188.509 26.6133 189.329 26.4 190.235 26.4C191.089 26.4 191.842 26.5933 192.495 26.98C193.162 27.3667 193.682 27.9067 194.055 28.6C194.442 29.28 194.635 30.0667 194.635 30.96C194.635 31.0667 194.629 31.1933 194.615 31.34C194.602 31.4733 194.575 31.6333 194.535 31.82H186.395V30.62H193.775L193.275 31.06C193.289 30.3667 193.169 29.7733 192.915 29.28C192.675 28.7733 192.322 28.3867 191.855 28.12C191.402 27.84 190.849 27.7 190.195 27.7C189.515 27.7 188.922 27.8467 188.415 28.14C187.909 28.4333 187.509 28.8467 187.215 29.38C186.935 29.9 186.795 30.52 186.795 31.24C186.795 31.96 186.942 32.5933 187.235 33.14C187.542 33.6867 187.962 34.1133 188.495 34.42C189.042 34.7267 189.669 34.88 190.375 34.88C190.949 34.88 191.475 34.78 191.955 34.58C192.435 34.3667 192.842 34.0533 193.175 33.64L194.075 34.56C193.635 35.08 193.089 35.4867 192.435 35.78C191.795 36.06 191.102 36.2 190.355 36.2ZM200.257 36.2C199.75 36.2 199.264 36.1333 198.797 36C198.33 35.8533 197.904 35.6533 197.517 35.4C197.144 35.1467 196.817 34.8467 196.537 34.5L197.437 33.58C197.81 34.0333 198.23 34.3733 198.697 34.6C199.177 34.8133 199.71 34.92 200.297 34.92C200.924 34.92 201.41 34.8 201.757 34.56C202.117 34.32 202.297 33.9867 202.297 33.56C202.297 33.16 202.17 32.8467 201.917 32.62C201.664 32.3933 201.337 32.2133 200.937 32.08C200.55 31.9467 200.137 31.82 199.697 31.7C199.257 31.5667 198.837 31.4067 198.437 31.22C198.037 31.02 197.71 30.7467 197.457 30.4C197.217 30.0533 197.097 29.6 197.097 29.04C197.097 28.5067 197.224 28.0467 197.477 27.66C197.744 27.26 198.117 26.9533 198.597 26.74C199.09 26.5133 199.67 26.4 200.337 26.4C201.044 26.4 201.684 26.5267 202.257 26.78C202.83 27.0333 203.29 27.4067 203.637 27.9L202.737 28.8C202.457 28.44 202.104 28.1667 201.677 27.98C201.264 27.78 200.797 27.68 200.277 27.68C199.677 27.68 199.217 27.8 198.897 28.04C198.59 28.2667 198.437 28.5667 198.437 28.94C198.437 29.3 198.564 29.5867 198.817 29.8C199.07 30 199.39 30.1667 199.777 30.3C200.177 30.42 200.597 30.5467 201.037 30.68C201.477 30.8 201.897 30.9667 202.297 31.18C202.697 31.38 203.017 31.66 203.257 32.02C203.51 32.3667 203.637 32.84 203.637 33.44C203.637 34.28 203.33 34.9533 202.717 35.46C202.117 35.9533 201.297 36.2 200.257 36.2ZM206.454 36V26.6H207.874V36H206.454ZM207.154 24.56C206.887 24.56 206.66 24.4667 206.474 24.28C206.287 24.08 206.194 23.8467 206.194 23.58C206.194 23.3 206.287 23.0667 206.474 22.88C206.66 22.6933 206.887 22.6 207.154 22.6C207.447 22.6 207.68 22.6933 207.854 22.88C208.04 23.0667 208.134 23.3 208.134 23.58C208.134 23.8467 208.04 24.08 207.854 24.28C207.68 24.4667 207.447 24.56 207.154 24.56ZM215.191 40.16C214.245 40.16 213.398 39.98 212.651 39.62C211.918 39.2733 211.325 38.78 210.871 38.14L211.791 37.22C212.165 37.7267 212.638 38.12 213.211 38.4C213.785 38.68 214.458 38.82 215.231 38.82C216.298 38.82 217.145 38.5333 217.771 37.96C218.411 37.3867 218.731 36.6067 218.731 35.62V33.28L219.011 31.14L218.731 29.02V26.6H220.131V35.62C220.131 36.5267 219.925 37.32 219.511 38C219.098 38.68 218.518 39.2067 217.771 39.58C217.038 39.9667 216.178 40.16 215.191 40.16ZM215.291 35.9C214.425 35.9 213.645 35.6933 212.951 35.28C212.258 34.8667 211.711 34.3 211.311 33.58C210.911 32.86 210.711 32.0467 210.711 31.14C210.711 30.2333 210.905 29.4267 211.291 28.72C211.691 28 212.238 27.4333 212.931 27.02C213.625 26.6067 214.405 26.4 215.271 26.4C216.005 26.4 216.658 26.54 217.231 26.82C217.818 27.1 218.285 27.5 218.631 28.02C218.991 28.5267 219.211 29.1267 219.291 29.82V32.48C219.211 33.16 218.991 33.76 218.631 34.28C218.271 34.7867 217.805 35.1867 217.231 35.48C216.658 35.76 216.011 35.9 215.291 35.9ZM215.551 34.56C216.205 34.56 216.771 34.42 217.251 34.14C217.745 33.86 218.125 33.4667 218.391 32.96C218.671 32.44 218.811 31.8333 218.811 31.14C218.811 30.46 218.671 29.8667 218.391 29.36C218.125 28.8533 217.745 28.4533 217.251 28.16C216.758 27.8667 216.185 27.72 215.531 27.72C214.878 27.72 214.291 27.8667 213.771 28.16C213.265 28.4533 212.865 28.8533 212.571 29.36C212.291 29.8667 212.151 30.46 212.151 31.14C212.151 31.8067 212.298 32.4 212.591 32.92C212.885 33.44 213.285 33.8467 213.791 34.14C214.298 34.42 214.885 34.56 215.551 34.56ZM230.392 36V30.48C230.392 29.6533 230.145 28.9867 229.652 28.48C229.172 27.96 228.532 27.7 227.732 27.7C227.185 27.7 226.705 27.82 226.292 28.06C225.879 28.3 225.552 28.6267 225.312 29.04C225.072 29.4533 224.952 29.9267 224.952 30.46L224.312 30.1C224.312 29.3933 224.479 28.76 224.812 28.2C225.145 27.64 225.592 27.2 226.152 26.88C226.725 26.56 227.379 26.4 228.112 26.4C228.832 26.4 229.472 26.5733 230.032 26.92C230.592 27.2667 231.025 27.7333 231.332 28.32C231.652 28.9067 231.812 29.5467 231.812 30.24V36H230.392ZM223.552 36V26.6H224.952V36H223.552ZM249.428 36L242.788 29.02C242.254 28.4467 241.854 27.9 241.588 27.38C241.334 26.8467 241.208 26.28 241.208 25.68C241.208 24.9733 241.368 24.3467 241.688 23.8C242.008 23.2533 242.454 22.82 243.028 22.5C243.601 22.18 244.261 22.02 245.008 22.02C245.528 22.02 246.008 22.1067 246.448 22.28C246.888 22.44 247.281 22.66 247.628 22.94C247.974 23.22 248.268 23.5467 248.508 23.92L247.488 24.84C247.168 24.3867 246.808 24.0333 246.408 23.78C246.008 23.5267 245.541 23.4 245.008 23.4C244.314 23.4 243.741 23.6133 243.288 24.04C242.848 24.4533 242.628 25 242.628 25.68C242.628 26.1733 242.734 26.6133 242.948 27C243.161 27.3733 243.501 27.8067 243.968 28.3L251.208 36H249.428ZM244.268 36.2C243.388 36.2 242.614 36.0267 241.948 35.68C241.281 35.32 240.754 34.8333 240.368 34.22C239.994 33.5933 239.808 32.8867 239.808 32.1C239.808 31.2467 240.034 30.4733 240.488 29.78C240.954 29.0867 241.594 28.5467 242.408 28.16L243.108 29.04C242.534 29.32 242.074 29.7267 241.728 30.26C241.394 30.78 241.228 31.38 241.228 32.06C241.228 32.62 241.361 33.1133 241.628 33.54C241.894 33.9533 242.261 34.28 242.728 34.52C243.194 34.7467 243.728 34.86 244.328 34.86C245.034 34.86 245.661 34.7 246.208 34.38C246.754 34.06 247.168 33.6533 247.448 33.16L248.368 34.2C248.101 34.6 247.754 34.9533 247.328 35.26C246.914 35.5533 246.448 35.7867 245.928 35.96C245.408 36.12 244.854 36.2 244.268 36.2ZM91.66 61V59.64H95.7C96.78 59.64 97.7333 59.4067 98.56 58.94C99.3867 58.46 100.033 57.8067 100.5 56.98C100.967 56.14 101.2 55.18 101.2 54.1C101.2 53.02 100.967 52.0667 100.5 51.24C100.033 50.4133 99.3867 49.7667 98.56 49.3C97.7333 48.82 96.78 48.58 95.7 48.58H91.7V47.24H95.74C96.74 47.24 97.66 47.4133 98.5 47.76C99.3533 48.0933 100.093 48.5733 100.72 49.2C101.36 49.8133 101.853 50.54 102.2 51.38C102.547 52.2067 102.72 53.12 102.72 54.12C102.72 55.0933 102.547 56 102.2 56.84C101.853 57.68 101.367 58.4133 100.74 59.04C100.113 59.6533 99.3733 60.1333 98.52 60.48C97.68 60.8267 96.7667 61 95.78 61H91.66ZM90.76 61V47.24H92.22V61H90.76ZM110.145 61.2C109.198 61.2 108.352 60.9867 107.605 60.56C106.858 60.1333 106.265 59.5467 105.825 58.8C105.398 58.0533 105.185 57.2133 105.185 56.28C105.185 55.36 105.398 54.5333 105.825 53.8C106.252 53.0533 106.832 52.4667 107.565 52.04C108.298 51.6133 109.118 51.4 110.025 51.4C110.878 51.4 111.632 51.5933 112.285 51.98C112.952 52.3667 113.472 52.9067 113.845 53.6C114.232 54.28 114.425 55.0667 114.425 55.96C114.425 56.0667 114.418 56.1933 114.405 56.34C114.392 56.4733 114.365 56.6333 114.325 56.82H106.185V55.62H113.565L113.065 56.06C113.078 55.3667 112.958 54.7733 112.705 54.28C112.465 53.7733 112.112 53.3867 111.645 53.12C111.192 52.84 110.638 52.7 109.985 52.7C109.305 52.7 108.712 52.8467 108.205 53.14C107.698 53.4333 107.298 53.8467 107.005 54.38C106.725 54.9 106.585 55.52 106.585 56.24C106.585 56.96 106.732 57.5933 107.025 58.14C107.332 58.6867 107.752 59.1133 108.285 59.42C108.832 59.7267 109.458 59.88 110.165 59.88C110.738 59.88 111.265 59.78 111.745 59.58C112.225 59.3667 112.632 59.0533 112.965 58.64L113.865 59.56C113.425 60.08 112.878 60.4867 112.225 60.78C111.585 61.06 110.892 61.2 110.145 61.2ZM120.291 61L115.951 51.6H117.511L121.171 59.82H120.291L123.971 51.6H125.491L121.111 61H120.291ZM131.775 61.2C130.828 61.2 129.982 60.9867 129.235 60.56C128.488 60.1333 127.895 59.5467 127.455 58.8C127.028 58.0533 126.815 57.2133 126.815 56.28C126.815 55.36 127.028 54.5333 127.455 53.8C127.882 53.0533 128.462 52.4667 129.195 52.04C129.928 51.6133 130.748 51.4 131.655 51.4C132.508 51.4 133.262 51.5933 133.915 51.98C134.582 52.3667 135.102 52.9067 135.475 53.6C135.862 54.28 136.055 55.0667 136.055 55.96C136.055 56.0667 136.048 56.1933 136.035 56.34C136.022 56.4733 135.995 56.6333 135.955 56.82H127.815V55.62H135.195L134.695 56.06C134.708 55.3667 134.588 54.7733 134.335 54.28C134.095 53.7733 133.742 53.3867 133.275 53.12C132.822 52.84 132.268 52.7 131.615 52.7C130.935 52.7 130.342 52.8467 129.835 53.14C129.328 53.4333 128.928 53.8467 128.635 54.38C128.355 54.9 128.215 55.52 128.215 56.24C128.215 56.96 128.362 57.5933 128.655 58.14C128.962 58.6867 129.382 59.1133 129.915 59.42C130.462 59.7267 131.088 59.88 131.795 59.88C132.368 59.88 132.895 59.78 133.375 59.58C133.855 59.3667 134.262 59.0533 134.595 58.64L135.495 59.56C135.055 60.08 134.508 60.4867 133.855 60.78C133.215 61.06 132.522 61.2 131.775 61.2ZM138.797 61V46.84H140.197V61H138.797ZM147.895 61.2C146.988 61.2 146.162 60.98 145.415 60.54C144.682 60.1 144.095 59.5067 143.655 58.76C143.228 58.0133 143.015 57.18 143.015 56.26C143.015 55.3533 143.228 54.5333 143.655 53.8C144.095 53.0667 144.682 52.4867 145.415 52.06C146.162 51.62 146.988 51.4 147.895 51.4C148.815 51.4 149.642 51.6133 150.375 52.04C151.108 52.4667 151.688 53.0533 152.115 53.8C152.555 54.5333 152.775 55.3533 152.775 56.26C152.775 57.1933 152.555 58.0333 152.115 58.78C151.688 59.5133 151.108 60.1 150.375 60.54C149.642 60.98 148.815 61.2 147.895 61.2ZM147.895 59.84C148.562 59.84 149.148 59.6867 149.655 59.38C150.175 59.0733 150.582 58.6467 150.875 58.1C151.182 57.5533 151.335 56.94 151.335 56.26C151.335 55.58 151.182 54.98 150.875 54.46C150.582 53.9267 150.175 53.5067 149.655 53.2C149.148 52.8933 148.562 52.74 147.895 52.74C147.242 52.74 146.655 52.8933 146.135 53.2C145.615 53.5067 145.208 53.9267 144.915 54.46C144.622 54.98 144.475 55.58 144.475 56.26C144.475 56.9533 144.622 57.5733 144.915 58.12C145.208 58.6533 145.615 59.0733 146.135 59.38C146.655 59.6867 147.242 59.84 147.895 59.84ZM160.462 61.2C159.742 61.2 159.095 61.0533 158.522 60.76C157.949 60.4667 157.475 60.0667 157.102 59.56C156.742 59.04 156.522 58.44 156.442 57.76V54.82C156.522 54.1267 156.749 53.5267 157.122 53.02C157.495 52.5 157.969 52.1 158.542 51.82C159.129 51.54 159.769 51.4 160.462 51.4C161.329 51.4 162.109 51.62 162.802 52.06C163.495 52.4867 164.042 53.0733 164.442 53.82C164.855 54.5533 165.062 55.3867 165.062 56.32C165.062 57.24 164.862 58.0667 164.462 58.8C164.062 59.5333 163.509 60.12 162.802 60.56C162.109 60.9867 161.329 61.2 160.462 61.2ZM155.602 64.96V51.6H157.002V54L156.722 56.28L157.002 58.58V64.96H155.602ZM160.222 59.86C160.889 59.86 161.475 59.7133 161.982 59.42C162.489 59.1133 162.882 58.6933 163.162 58.16C163.455 57.6133 163.602 56.9933 163.602 56.3C163.602 55.5933 163.455 54.9733 163.162 54.44C162.882 53.9067 162.489 53.4867 161.982 53.18C161.475 52.8733 160.895 52.72 160.242 52.72C159.589 52.72 159.009 52.8733 158.502 53.18C158.009 53.4867 157.622 53.9067 157.342 54.44C157.062 54.9733 156.922 55.5933 156.922 56.3C156.922 56.9933 157.062 57.6133 157.342 58.16C157.622 58.6933 158.009 59.1133 158.502 59.42C158.995 59.7133 159.569 59.86 160.222 59.86ZM167.901 61V51.6H169.301V61H167.901ZM174.361 61V55.24C174.361 54.4667 174.128 53.8533 173.661 53.4C173.195 52.9333 172.608 52.7 171.901 52.7C171.421 52.7 170.981 52.8067 170.581 53.02C170.195 53.22 169.881 53.5067 169.641 53.88C169.415 54.2533 169.301 54.7 169.301 55.22L168.661 54.96C168.661 54.24 168.821 53.6133 169.141 53.08C169.461 52.5467 169.888 52.1333 170.421 51.84C170.968 51.5467 171.581 51.4 172.261 51.4C172.928 51.4 173.521 51.5467 174.041 51.84C174.575 52.1333 174.995 52.5467 175.301 53.08C175.621 53.6133 175.781 54.2467 175.781 54.98V61H174.361ZM180.841 61V55.24C180.841 54.4667 180.608 53.8533 180.141 53.4C179.675 52.9333 179.081 52.7 178.361 52.7C177.895 52.7 177.461 52.8067 177.061 53.02C176.675 53.22 176.361 53.5067 176.121 53.88C175.895 54.2533 175.781 54.7 175.781 55.22L174.941 54.96C174.981 54.24 175.168 53.6133 175.501 53.08C175.848 52.5467 176.295 52.1333 176.841 51.84C177.401 51.5467 178.015 51.4 178.681 51.4C179.348 51.4 179.948 51.5467 180.481 51.84C181.028 52.1333 181.455 52.5467 181.761 53.08C182.081 53.6133 182.241 54.2467 182.241 54.98V61H180.841ZM189.814 61.2C188.867 61.2 188.021 60.9867 187.274 60.56C186.527 60.1333 185.934 59.5467 185.494 58.8C185.067 58.0533 184.854 57.2133 184.854 56.28C184.854 55.36 185.067 54.5333 185.494 53.8C185.921 53.0533 186.501 52.4667 187.234 52.04C187.967 51.6133 188.787 51.4 189.694 51.4C190.547 51.4 191.301 51.5933 191.954 51.98C192.621 52.3667 193.141 52.9067 193.514 53.6C193.901 54.28 194.094 55.0667 194.094 55.96C194.094 56.0667 194.087 56.1933 194.074 56.34C194.061 56.4733 194.034 56.6333 193.994 56.82H185.854V55.62H193.234L192.734 56.06C192.747 55.3667 192.627 54.7733 192.374 54.28C192.134 53.7733 191.781 53.3867 191.314 53.12C190.861 52.84 190.307 52.7 189.654 52.7C188.974 52.7 188.381 52.8467 187.874 53.14C187.367 53.4333 186.967 53.8467 186.674 54.38C186.394 54.9 186.254 55.52 186.254 56.24C186.254 56.96 186.401 57.5933 186.694 58.14C187.001 58.6867 187.421 59.1133 187.954 59.42C188.501 59.7267 189.127 59.88 189.834 59.88C190.407 59.88 190.934 59.78 191.414 59.58C191.894 59.3667 192.301 59.0533 192.634 58.64L193.534 59.56C193.094 60.08 192.547 60.4867 191.894 60.78C191.254 61.06 190.561 61.2 189.814 61.2ZM203.676 61V55.48C203.676 54.6533 203.429 53.9867 202.936 53.48C202.456 52.96 201.816 52.7 201.016 52.7C200.469 52.7 199.989 52.82 199.576 53.06C199.162 53.3 198.836 53.6267 198.596 54.04C198.356 54.4533 198.236 54.9267 198.236 55.46L197.596 55.1C197.596 54.3933 197.762 53.76 198.096 53.2C198.429 52.64 198.876 52.2 199.436 51.88C200.009 51.56 200.662 51.4 201.396 51.4C202.116 51.4 202.756 51.5733 203.316 51.92C203.876 52.2667 204.309 52.7333 204.616 53.32C204.936 53.9067 205.096 54.5467 205.096 55.24V61H203.676ZM196.836 61V51.6H198.236V61H196.836ZM209.657 61V47.64H211.057V61H209.657ZM207.277 52.86V51.6H213.417V52.86H207.277Z" fill="#010101" fill-opacity="0.8"/>
<path d="M175.646 114.854C175.842 115.049 176.158 115.049 176.354 114.854L179.536 111.672C179.731 111.476 179.731 111.16 179.536 110.964C179.34 110.769 179.024 110.769 178.828 110.964L176 113.793L173.172 110.964C172.976 110.769 172.66 110.769 172.464 110.964C172.269 111.16 172.269 111.476 172.464 111.672L175.646 114.854ZM176 82H175.5V114.5H176H176.5V82H176Z" fill="black" fill-opacity="0.2"/>
<rect y="114.5" width="352" height="196" rx="10" fill="white"/>
<rect x="0.5" y="115" width="351" height="195" rx="9.5" stroke="black" stroke-opacity="0.2"/>
<rect x="24" y="130.5" width="304" height="82" rx="10" fill="white"/>
<rect x="24.5" y="131" width="303" height="81" rx="9.5" stroke="black" stroke-opacity="0.2"/>
<path d="M87.7578 164.232C89.127 164.232 90.2861 165.242 90.2861 166.537V180.785C90.2861 182.08 89.127 183.09 87.7578 183.09H65.3564C63.9873 183.09 62.8281 182.08 62.8281 180.785V166.537L62.8418 166.298C62.9741 165.12 64.0728 164.232 65.3564 164.232H87.7578ZM65.3564 165.373C64.6051 165.373 64.0381 165.919 64.0381 166.537V180.785C64.0381 181.403 64.6051 181.949 65.3564 181.949H87.7578C88.5092 181.949 89.0762 181.403 89.0762 180.785V166.537C89.0762 165.919 88.5092 165.373 87.7578 165.373H65.3564Z" fill="#B15252" stroke="#B15252" stroke-width="0.5"/>
<path d="M73.2666 169.029C73.7359 168.795 74.2837 168.798 74.749 169.032H74.7588L74.8164 169.064L80.8555 172.452C81.3098 172.707 81.5947 173.158 81.5947 173.664C81.5947 174.17 81.3099 174.621 80.8555 174.876L74.8164 178.264C74.5661 178.404 74.2874 178.475 74.0088 178.475C73.755 178.475 73.5007 178.416 73.2666 178.299C72.7732 178.051 72.4609 177.587 72.4609 177.052V170.276C72.4609 169.741 72.7723 169.277 73.2656 169.029H73.2666ZM74.0088 169.995C73.9496 169.995 73.8901 170.009 73.835 170.036C73.7216 170.093 73.6709 170.185 73.6709 170.276V177.052C73.6709 177.143 73.7215 177.235 73.835 177.292L73.9248 177.323C74.0167 177.344 74.1132 177.331 74.1963 177.284L80.2354 173.896C80.3403 173.838 80.3848 173.752 80.3848 173.664C80.3847 173.575 80.3402 173.49 80.2354 173.432L74.1963 170.044L74.1934 170.042C74.136 170.011 74.0724 169.995 74.0088 169.995Z" fill="#B15252" stroke="#B15252" stroke-width="0.5"/>
<path d="M79.7988 151.93C82.473 151.93 84.6934 153.898 84.6934 156.369V162.83C84.6934 163.169 84.3971 163.4 84.0879 163.4C83.7788 163.4 83.4834 163.168 83.4834 162.83V159.14H57.7773V188.346H79.7988C81.855 188.346 83.4833 186.842 83.4834 185.047V184.308C83.4834 183.969 83.7788 183.738 84.0879 183.737C84.3971 183.737 84.6934 183.969 84.6934 184.308V185.047C84.6932 187.518 82.4729 189.485 79.7988 189.485H48.0039C45.3298 189.485 43.1095 187.518 43.1094 185.047V156.369L43.1162 156.139C43.249 153.776 45.4133 151.93 48.0039 151.93H79.7988ZM44.3193 185.047C44.3195 186.842 45.9477 188.346 48.0039 188.346H56.5674V159.14H44.3193V185.047ZM48.0039 153.07C45.9476 153.07 44.3193 154.574 44.3193 156.369V157.999H83.4834V156.369C83.4834 154.574 81.8551 153.07 79.7988 153.07H48.0039Z" fill="#B15252" stroke="#B15252" stroke-width="0.5"/>
<path d="M49.7148 153.428C50.9372 153.428 51.9766 154.33 51.9766 155.492C51.9765 156.654 50.9372 157.557 49.7148 157.557C48.4924 157.557 47.4532 156.654 47.4531 155.492C47.4531 154.33 48.4924 153.428 49.7148 153.428ZM49.7148 154.568C49.1103 154.568 48.6631 155.007 48.6631 155.492C48.6631 155.978 49.1103 156.416 49.7148 156.416C50.3193 156.416 50.7666 155.978 50.7666 155.492C50.7666 155.007 50.3193 154.568 49.7148 154.568Z" fill="#B15252" stroke="#B15252" stroke-width="0.5"/>
<path d="M53.0225 163.357C53.3317 163.357 53.6279 163.589 53.6279 163.928C53.6279 164.266 53.3317 164.498 53.0225 164.498H47.8711C47.5619 164.498 47.2657 164.266 47.2656 163.928C47.2656 163.589 47.5618 163.357 47.8711 163.357H53.0225Z" fill="#B15252" stroke="#B15252" stroke-width="0.5"/>
<path d="M53.0225 173.172C53.3317 173.172 53.6279 173.404 53.6279 173.742C53.6279 174.081 53.3317 174.312 53.0225 174.312H47.8711C47.5619 174.312 47.2657 174.081 47.2656 173.742C47.2656 173.404 47.5618 173.172 47.8711 173.172H53.0225Z" fill="#B15252" stroke="#B15252" stroke-width="0.5"/>
<path d="M53.0225 182.988C53.3317 182.988 53.6279 183.22 53.6279 183.559C53.6279 183.897 53.3317 184.129 53.0225 184.129H47.8711C47.5619 184.129 47.2657 183.897 47.2656 183.559C47.2656 183.22 47.5618 182.988 47.8711 182.988H53.0225Z" fill="#B15252" stroke="#B15252" stroke-width="0.5"/>
<path d="M102.76 166.5V152.74H104.22V166.5H102.76ZM103.72 166.5V165.16H111.3V166.5H103.72ZM117.946 166.7C116.999 166.7 116.153 166.487 115.406 166.06C114.659 165.633 114.066 165.047 113.626 164.3C113.199 163.553 112.986 162.713 112.986 161.78C112.986 160.86 113.199 160.033 113.626 159.3C114.053 158.553 114.633 157.967 115.366 157.54C116.099 157.113 116.919 156.9 117.826 156.9C118.679 156.9 119.433 157.093 120.086 157.48C120.753 157.867 121.273 158.407 121.646 159.1C122.033 159.78 122.226 160.567 122.226 161.46C122.226 161.567 122.219 161.693 122.206 161.84C122.193 161.973 122.166 162.133 122.126 162.32H113.986V161.12H121.366L120.866 161.56C120.879 160.867 120.759 160.273 120.506 159.78C120.266 159.273 119.913 158.887 119.446 158.62C118.993 158.34 118.439 158.2 117.786 158.2C117.106 158.2 116.513 158.347 116.006 158.64C115.499 158.933 115.099 159.347 114.806 159.88C114.526 160.4 114.386 161.02 114.386 161.74C114.386 162.46 114.533 163.093 114.826 163.64C115.133 164.187 115.553 164.613 116.086 164.92C116.633 165.227 117.259 165.38 117.966 165.38C118.539 165.38 119.066 165.28 119.546 165.08C120.026 164.867 120.433 164.553 120.766 164.14L121.666 165.06C121.226 165.58 120.679 165.987 120.026 166.28C119.386 166.56 118.693 166.7 117.946 166.7ZM129.048 166.7C128.154 166.7 127.354 166.487 126.648 166.06C125.941 165.62 125.381 165.033 124.968 164.3C124.568 163.567 124.368 162.74 124.368 161.82C124.368 160.887 124.568 160.053 124.968 159.32C125.381 158.573 125.941 157.987 126.648 157.56C127.354 157.12 128.148 156.9 129.028 156.9C129.748 156.9 130.388 157.047 130.948 157.34C131.521 157.62 131.981 158.02 132.328 158.54C132.688 159.047 132.908 159.64 132.988 160.32V163.26C132.908 163.94 132.688 164.54 132.328 165.06C131.981 165.58 131.521 165.987 130.948 166.28C130.388 166.56 129.754 166.7 129.048 166.7ZM129.268 165.36C130.241 165.36 131.021 165.033 131.608 164.38C132.208 163.727 132.508 162.867 132.508 161.8C132.508 161.093 132.368 160.473 132.088 159.94C131.821 159.393 131.441 158.973 130.948 158.68C130.468 158.373 129.901 158.22 129.248 158.22C128.581 158.22 127.988 158.373 127.468 158.68C126.961 158.987 126.554 159.413 126.248 159.96C125.954 160.493 125.808 161.107 125.808 161.8C125.808 162.493 125.954 163.107 126.248 163.64C126.554 164.173 126.968 164.593 127.488 164.9C128.008 165.207 128.601 165.36 129.268 165.36ZM132.428 166.5V163.98L132.708 161.66L132.428 159.4V157.1H133.828V166.5H132.428ZM137.267 166.5V157.1H138.667V166.5H137.267ZM138.667 161.02L138.087 160.76C138.087 159.573 138.374 158.633 138.947 157.94C139.534 157.247 140.334 156.9 141.347 156.9C141.814 156.9 142.24 156.987 142.627 157.16C143.014 157.32 143.374 157.58 143.707 157.94L142.787 158.92C142.56 158.667 142.307 158.487 142.027 158.38C141.76 158.273 141.454 158.22 141.107 158.22C140.387 158.22 139.8 158.46 139.347 158.94C138.894 159.407 138.667 160.1 138.667 161.02ZM152.715 166.5V160.98C152.715 160.153 152.468 159.487 151.975 158.98C151.495 158.46 150.855 158.2 150.055 158.2C149.508 158.2 149.028 158.32 148.615 158.56C148.201 158.8 147.875 159.127 147.635 159.54C147.395 159.953 147.275 160.427 147.275 160.96L146.635 160.6C146.635 159.893 146.801 159.26 147.135 158.7C147.468 158.14 147.915 157.7 148.475 157.38C149.048 157.06 149.701 156.9 150.435 156.9C151.155 156.9 151.795 157.073 152.355 157.42C152.915 157.767 153.348 158.233 153.655 158.82C153.975 159.407 154.135 160.047 154.135 160.74V166.5H152.715ZM145.875 166.5V157.1H147.275V166.5H145.875ZM157.354 166.5V157.1H158.774V166.5H157.354ZM158.054 155.06C157.787 155.06 157.56 154.967 157.374 154.78C157.187 154.58 157.094 154.347 157.094 154.08C157.094 153.8 157.187 153.567 157.374 153.38C157.56 153.193 157.787 153.1 158.054 153.1C158.347 153.1 158.58 153.193 158.754 153.38C158.94 153.567 159.034 153.8 159.034 154.08C159.034 154.347 158.94 154.58 158.754 154.78C158.58 154.967 158.347 155.06 158.054 155.06ZM169.051 166.5V160.98C169.051 160.153 168.805 159.487 168.311 158.98C167.831 158.46 167.191 158.2 166.391 158.2C165.845 158.2 165.365 158.32 164.951 158.56C164.538 158.8 164.211 159.127 163.971 159.54C163.731 159.953 163.611 160.427 163.611 160.96L162.971 160.6C162.971 159.893 163.138 159.26 163.471 158.7C163.805 158.14 164.251 157.7 164.811 157.38C165.385 157.06 166.038 156.9 166.771 156.9C167.491 156.9 168.131 157.073 168.691 157.42C169.251 157.767 169.685 158.233 169.991 158.82C170.311 159.407 170.471 160.047 170.471 160.74V166.5H169.051ZM162.211 166.5V157.1H163.611V166.5H162.211ZM177.57 170.66C176.624 170.66 175.777 170.48 175.03 170.12C174.297 169.773 173.704 169.28 173.25 168.64L174.17 167.72C174.544 168.227 175.017 168.62 175.59 168.9C176.164 169.18 176.837 169.32 177.61 169.32C178.677 169.32 179.524 169.033 180.15 168.46C180.79 167.887 181.11 167.107 181.11 166.12V163.78L181.39 161.64L181.11 159.52V157.1H182.51V166.12C182.51 167.027 182.304 167.82 181.89 168.5C181.477 169.18 180.897 169.707 180.15 170.08C179.417 170.467 178.557 170.66 177.57 170.66ZM177.67 166.4C176.804 166.4 176.024 166.193 175.33 165.78C174.637 165.367 174.09 164.8 173.69 164.08C173.29 163.36 173.09 162.547 173.09 161.64C173.09 160.733 173.284 159.927 173.67 159.22C174.07 158.5 174.617 157.933 175.31 157.52C176.004 157.107 176.784 156.9 177.65 156.9C178.384 156.9 179.037 157.04 179.61 157.32C180.197 157.6 180.664 158 181.01 158.52C181.37 159.027 181.59 159.627 181.67 160.32V162.98C181.59 163.66 181.37 164.26 181.01 164.78C180.65 165.287 180.184 165.687 179.61 165.98C179.037 166.26 178.39 166.4 177.67 166.4ZM177.93 165.06C178.584 165.06 179.15 164.92 179.63 164.64C180.124 164.36 180.504 163.967 180.77 163.46C181.05 162.94 181.19 162.333 181.19 161.64C181.19 160.96 181.05 160.367 180.77 159.86C180.504 159.353 180.124 158.953 179.63 158.66C179.137 158.367 178.564 158.22 177.91 158.22C177.257 158.22 176.67 158.367 176.15 158.66C175.644 158.953 175.244 159.353 174.95 159.86C174.67 160.367 174.53 160.96 174.53 161.64C174.53 162.307 174.677 162.9 174.97 163.42C175.264 163.94 175.664 164.347 176.17 164.64C176.677 164.92 177.264 165.06 177.93 165.06ZM102.76 191.5V177.74H103.8L109.74 187.48H109L114.94 177.74H115.98V191.5H114.5V180.3L114.84 180.38L109.88 188.52H108.84L103.88 180.38L104.22 180.3V191.5H102.76ZM123.819 191.7C122.925 191.7 122.125 191.487 121.419 191.06C120.712 190.62 120.152 190.033 119.739 189.3C119.339 188.567 119.139 187.74 119.139 186.82C119.139 185.887 119.339 185.053 119.739 184.32C120.152 183.573 120.712 182.987 121.419 182.56C122.125 182.12 122.919 181.9 123.799 181.9C124.519 181.9 125.159 182.047 125.719 182.34C126.292 182.62 126.752 183.02 127.099 183.54C127.459 184.047 127.679 184.64 127.759 185.32V188.26C127.679 188.94 127.459 189.54 127.099 190.06C126.752 190.58 126.292 190.987 125.719 191.28C125.159 191.56 124.525 191.7 123.819 191.7ZM124.039 190.36C125.012 190.36 125.792 190.033 126.379 189.38C126.979 188.727 127.279 187.867 127.279 186.8C127.279 186.093 127.139 185.473 126.859 184.94C126.592 184.393 126.212 183.973 125.719 183.68C125.239 183.373 124.672 183.22 124.019 183.22C123.352 183.22 122.759 183.373 122.239 183.68C121.732 183.987 121.325 184.413 121.019 184.96C120.725 185.493 120.579 186.107 120.579 186.8C120.579 187.493 120.725 188.107 121.019 188.64C121.325 189.173 121.739 189.593 122.259 189.9C122.779 190.207 123.372 190.36 124.039 190.36ZM127.199 191.5V188.98L127.479 186.66L127.199 184.4V182.1H128.599V191.5H127.199ZM138.878 191.5V185.98C138.878 185.153 138.631 184.487 138.138 183.98C137.658 183.46 137.018 183.2 136.218 183.2C135.671 183.2 135.191 183.32 134.778 183.56C134.365 183.8 134.038 184.127 133.798 184.54C133.558 184.953 133.438 185.427 133.438 185.96L132.798 185.6C132.798 184.893 132.965 184.26 133.298 183.7C133.631 183.14 134.078 182.7 134.638 182.38C135.211 182.06 135.865 181.9 136.598 181.9C137.318 181.9 137.958 182.073 138.518 182.42C139.078 182.767 139.511 183.233 139.818 183.82C140.138 184.407 140.298 185.047 140.298 185.74V191.5H138.878ZM132.038 191.5V182.1H133.438V191.5H132.038ZM147.597 191.7C146.704 191.7 145.904 191.487 145.197 191.06C144.49 190.62 143.93 190.033 143.517 189.3C143.117 188.567 142.917 187.74 142.917 186.82C142.917 185.887 143.117 185.053 143.517 184.32C143.93 183.573 144.49 182.987 145.197 182.56C145.904 182.12 146.697 181.9 147.577 181.9C148.297 181.9 148.937 182.047 149.497 182.34C150.07 182.62 150.53 183.02 150.877 183.54C151.237 184.047 151.457 184.64 151.537 185.32V188.26C151.457 188.94 151.237 189.54 150.877 190.06C150.53 190.58 150.07 190.987 149.497 191.28C148.937 191.56 148.304 191.7 147.597 191.7ZM147.817 190.36C148.79 190.36 149.57 190.033 150.157 189.38C150.757 188.727 151.057 187.867 151.057 186.8C151.057 186.093 150.917 185.473 150.637 184.94C150.37 184.393 149.99 183.973 149.497 183.68C149.017 183.373 148.45 183.22 147.797 183.22C147.13 183.22 146.537 183.373 146.017 183.68C145.51 183.987 145.104 184.413 144.797 184.96C144.504 185.493 144.357 186.107 144.357 186.8C144.357 187.493 144.504 188.107 144.797 188.64C145.104 189.173 145.517 189.593 146.037 189.9C146.557 190.207 147.15 190.36 147.817 190.36ZM150.977 191.5V188.98L151.257 186.66L150.977 184.4V182.1H152.377V191.5H150.977ZM159.696 195.66C158.749 195.66 157.903 195.48 157.156 195.12C156.423 194.773 155.829 194.28 155.376 193.64L156.296 192.72C156.669 193.227 157.143 193.62 157.716 193.9C158.289 194.18 158.963 194.32 159.736 194.32C160.803 194.32 161.649 194.033 162.276 193.46C162.916 192.887 163.236 192.107 163.236 191.12V188.78L163.516 186.64L163.236 184.52V182.1H164.636V191.12C164.636 192.027 164.429 192.82 164.016 193.5C163.603 194.18 163.023 194.707 162.276 195.08C161.543 195.467 160.683 195.66 159.696 195.66ZM159.796 191.4C158.929 191.4 158.149 191.193 157.456 190.78C156.763 190.367 156.216 189.8 155.816 189.08C155.416 188.36 155.216 187.547 155.216 186.64C155.216 185.733 155.409 184.927 155.796 184.22C156.196 183.5 156.743 182.933 157.436 182.52C158.129 182.107 158.909 181.9 159.776 181.9C160.509 181.9 161.163 182.04 161.736 182.32C162.323 182.6 162.789 183 163.136 183.52C163.496 184.027 163.716 184.627 163.796 185.32V187.98C163.716 188.66 163.496 189.26 163.136 189.78C162.776 190.287 162.309 190.687 161.736 190.98C161.163 191.26 160.516 191.4 159.796 191.4ZM160.056 190.06C160.709 190.06 161.276 189.92 161.756 189.64C162.249 189.36 162.629 188.967 162.896 188.46C163.176 187.94 163.316 187.333 163.316 186.64C163.316 185.96 163.176 185.367 162.896 184.86C162.629 184.353 162.249 183.953 161.756 183.66C161.263 183.367 160.689 183.22 160.036 183.22C159.383 183.22 158.796 183.367 158.276 183.66C157.769 183.953 157.369 184.353 157.076 184.86C156.796 185.367 156.656 185.96 156.656 186.64C156.656 187.307 156.803 187.9 157.096 188.42C157.389 188.94 157.789 189.347 158.296 189.64C158.803 189.92 159.389 190.06 160.056 190.06ZM172.397 191.7C171.45 191.7 170.603 191.487 169.857 191.06C169.11 190.633 168.517 190.047 168.077 189.3C167.65 188.553 167.437 187.713 167.437 186.78C167.437 185.86 167.65 185.033 168.077 184.3C168.503 183.553 169.083 182.967 169.817 182.54C170.55 182.113 171.37 181.9 172.277 181.9C173.13 181.9 173.883 182.093 174.537 182.48C175.203 182.867 175.723 183.407 176.097 184.1C176.483 184.78 176.677 185.567 176.677 186.46C176.677 186.567 176.67 186.693 176.657 186.84C176.643 186.973 176.617 187.133 176.577 187.32H168.437V186.12H175.817L175.317 186.56C175.33 185.867 175.21 185.273 174.957 184.78C174.717 184.273 174.363 183.887 173.897 183.62C173.443 183.34 172.89 183.2 172.237 183.2C171.557 183.2 170.963 183.347 170.457 183.64C169.95 183.933 169.55 184.347 169.257 184.88C168.977 185.4 168.837 186.02 168.837 186.74C168.837 187.46 168.983 188.093 169.277 188.64C169.583 189.187 170.003 189.613 170.537 189.92C171.083 190.227 171.71 190.38 172.417 190.38C172.99 190.38 173.517 190.28 173.997 190.08C174.477 189.867 174.883 189.553 175.217 189.14L176.117 190.06C175.677 190.58 175.13 190.987 174.477 191.28C173.837 191.56 173.143 191.7 172.397 191.7ZM179.418 191.5V182.1H180.818V191.5H179.418ZM185.878 191.5V185.74C185.878 184.967 185.645 184.353 185.178 183.9C184.712 183.433 184.125 183.2 183.418 183.2C182.938 183.2 182.498 183.307 182.098 183.52C181.712 183.72 181.398 184.007 181.158 184.38C180.932 184.753 180.818 185.2 180.818 185.72L180.178 185.46C180.178 184.74 180.338 184.113 180.658 183.58C180.978 183.047 181.405 182.633 181.938 182.34C182.485 182.047 183.098 181.9 183.778 181.9C184.445 181.9 185.038 182.047 185.558 182.34C186.092 182.633 186.512 183.047 186.818 183.58C187.138 184.113 187.298 184.747 187.298 185.48V191.5H185.878ZM192.358 191.5V185.74C192.358 184.967 192.125 184.353 191.658 183.9C191.192 183.433 190.598 183.2 189.878 183.2C189.412 183.2 188.978 183.307 188.578 183.52C188.192 183.72 187.878 184.007 187.638 184.38C187.412 184.753 187.298 185.2 187.298 185.72L186.458 185.46C186.498 184.74 186.685 184.113 187.018 183.58C187.365 183.047 187.812 182.633 188.358 182.34C188.918 182.047 189.532 181.9 190.198 181.9C190.865 181.9 191.465 182.047 191.998 182.34C192.545 182.633 192.972 183.047 193.278 183.58C193.598 184.113 193.758 184.747 193.758 185.48V191.5H192.358ZM201.331 191.7C200.384 191.7 199.538 191.487 198.791 191.06C198.044 190.633 197.451 190.047 197.011 189.3C196.584 188.553 196.371 187.713 196.371 186.78C196.371 185.86 196.584 185.033 197.011 184.3C197.438 183.553 198.018 182.967 198.751 182.54C199.484 182.113 200.304 181.9 201.211 181.9C202.064 181.9 202.818 182.093 203.471 182.48C204.138 182.867 204.658 183.407 205.031 184.1C205.418 184.78 205.611 185.567 205.611 186.46C205.611 186.567 205.604 186.693 205.591 186.84C205.578 186.973 205.551 187.133 205.511 187.32H197.371V186.12H204.751L204.251 186.56C204.264 185.867 204.144 185.273 203.891 184.78C203.651 184.273 203.298 183.887 202.831 183.62C202.378 183.34 201.824 183.2 201.171 183.2C200.491 183.2 199.898 183.347 199.391 183.64C198.884 183.933 198.484 184.347 198.191 184.88C197.911 185.4 197.771 186.02 197.771 186.74C197.771 187.46 197.918 188.093 198.211 188.64C198.518 189.187 198.938 189.613 199.471 189.92C200.018 190.227 200.644 190.38 201.351 190.38C201.924 190.38 202.451 190.28 202.931 190.08C203.411 189.867 203.818 189.553 204.151 189.14L205.051 190.06C204.611 190.58 204.064 190.987 203.411 191.28C202.771 191.56 202.078 191.7 201.331 191.7ZM215.193 191.5V185.98C215.193 185.153 214.946 184.487 214.453 183.98C213.973 183.46 213.333 183.2 212.533 183.2C211.986 183.2 211.506 183.32 211.093 183.56C210.679 183.8 210.353 184.127 210.113 184.54C209.873 184.953 209.753 185.427 209.753 185.96L209.113 185.6C209.113 184.893 209.279 184.26 209.613 183.7C209.946 183.14 210.393 182.7 210.953 182.38C211.526 182.06 212.179 181.9 212.913 181.9C213.633 181.9 214.273 182.073 214.833 182.42C215.393 182.767 215.826 183.233 216.133 183.82C216.453 184.407 216.613 185.047 216.613 185.74V191.5H215.193ZM208.353 191.5V182.1H209.753V191.5H208.353ZM221.175 191.5V178.14H222.575V191.5H221.175ZM218.795 183.36V182.1H224.935V183.36H218.795ZM236.5 191.7C235.433 191.7 234.513 191.5 233.74 191.1C232.967 190.687 232.287 190.113 231.7 189.38L232.72 188.38C233.187 189.033 233.727 189.52 234.34 189.84C234.967 190.16 235.707 190.32 236.56 190.32C237.44 190.32 238.153 190.12 238.7 189.72C239.247 189.32 239.52 188.767 239.52 188.06C239.52 187.513 239.393 187.067 239.14 186.72C238.887 186.36 238.553 186.073 238.14 185.86C237.74 185.633 237.293 185.433 236.8 185.26C236.307 185.087 235.813 184.907 235.32 184.72C234.84 184.52 234.393 184.273 233.98 183.98C233.567 183.687 233.233 183.313 232.98 182.86C232.74 182.407 232.62 181.827 232.62 181.12C232.62 180.373 232.8 179.733 233.16 179.2C233.52 178.667 234.013 178.26 234.64 177.98C235.267 177.687 235.98 177.54 236.78 177.54C237.673 177.54 238.467 177.713 239.16 178.06C239.867 178.407 240.453 178.873 240.92 179.46L239.92 180.46C239.493 179.953 239.027 179.567 238.52 179.3C238.013 179.033 237.42 178.9 236.74 178.9C235.94 178.9 235.3 179.087 234.82 179.46C234.34 179.833 234.1 180.353 234.1 181.02C234.1 181.54 234.22 181.96 234.46 182.28C234.713 182.6 235.047 182.867 235.46 183.08C235.873 183.293 236.32 183.487 236.8 183.66C237.293 183.82 237.787 184 238.28 184.2C238.773 184.4 239.22 184.653 239.62 184.96C240.033 185.267 240.367 185.66 240.62 186.14C240.873 186.607 241 187.207 241 187.94C241 189.127 240.593 190.053 239.78 190.72C238.98 191.373 237.887 191.7 236.5 191.7ZM246.744 191.54L242.624 182.1H244.164L247.484 189.98H246.904L250.404 182.1H251.964L247.544 191.54H246.744ZM244.184 195.46L246.764 190.12L247.544 191.54L245.724 195.46H244.184ZM256.928 191.7C256.421 191.7 255.935 191.633 255.468 191.5C255.001 191.353 254.575 191.153 254.188 190.9C253.815 190.647 253.488 190.347 253.208 190L254.108 189.08C254.481 189.533 254.901 189.873 255.368 190.1C255.848 190.313 256.381 190.42 256.968 190.42C257.595 190.42 258.081 190.3 258.428 190.06C258.788 189.82 258.968 189.487 258.968 189.06C258.968 188.66 258.841 188.347 258.588 188.12C258.335 187.893 258.008 187.713 257.608 187.58C257.221 187.447 256.808 187.32 256.368 187.2C255.928 187.067 255.508 186.907 255.108 186.72C254.708 186.52 254.381 186.247 254.128 185.9C253.888 185.553 253.768 185.1 253.768 184.54C253.768 184.007 253.895 183.547 254.148 183.16C254.415 182.76 254.788 182.453 255.268 182.24C255.761 182.013 256.341 181.9 257.008 181.9C257.715 181.9 258.355 182.027 258.928 182.28C259.501 182.533 259.961 182.907 260.308 183.4L259.408 184.3C259.128 183.94 258.775 183.667 258.348 183.48C257.935 183.28 257.468 183.18 256.948 183.18C256.348 183.18 255.888 183.3 255.568 183.54C255.261 183.767 255.108 184.067 255.108 184.44C255.108 184.8 255.235 185.087 255.488 185.3C255.741 185.5 256.061 185.667 256.448 185.8C256.848 185.92 257.268 186.047 257.708 186.18C258.148 186.3 258.568 186.467 258.968 186.68C259.368 186.88 259.688 187.16 259.928 187.52C260.181 187.867 260.308 188.34 260.308 188.94C260.308 189.78 260.001 190.453 259.388 190.96C258.788 191.453 257.968 191.7 256.928 191.7ZM264.585 191.5V178.14H265.985V191.5H264.585ZM262.205 183.36V182.1H268.345V183.36H262.205ZM274.881 191.7C273.934 191.7 273.088 191.487 272.341 191.06C271.594 190.633 271.001 190.047 270.561 189.3C270.134 188.553 269.921 187.713 269.921 186.78C269.921 185.86 270.134 185.033 270.561 184.3C270.988 183.553 271.568 182.967 272.301 182.54C273.034 182.113 273.854 181.9 274.761 181.9C275.614 181.9 276.368 182.093 277.021 182.48C277.688 182.867 278.208 183.407 278.581 184.1C278.968 184.78 279.161 185.567 279.161 186.46C279.161 186.567 279.154 186.693 279.141 186.84C279.128 186.973 279.101 187.133 279.061 187.32H270.921V186.12H278.301L277.801 186.56C277.814 185.867 277.694 185.273 277.441 184.78C277.201 184.273 276.848 183.887 276.381 183.62C275.928 183.34 275.374 183.2 274.721 183.2C274.041 183.2 273.448 183.347 272.941 183.64C272.434 183.933 272.034 184.347 271.741 184.88C271.461 185.4 271.321 186.02 271.321 186.74C271.321 187.46 271.468 188.093 271.761 188.64C272.068 189.187 272.488 189.613 273.021 189.92C273.568 190.227 274.194 190.38 274.901 190.38C275.474 190.38 276.001 190.28 276.481 190.08C276.961 189.867 277.368 189.553 277.701 189.14L278.601 190.06C278.161 190.58 277.614 190.987 276.961 191.28C276.321 191.56 275.628 191.7 274.881 191.7ZM281.903 191.5V182.1H283.303V191.5H281.903ZM288.363 191.5V185.74C288.363 184.967 288.129 184.353 287.663 183.9C287.196 183.433 286.609 183.2 285.903 183.2C285.423 183.2 284.983 183.307 284.583 183.52C284.196 183.72 283.883 184.007 283.643 184.38C283.416 184.753 283.303 185.2 283.303 185.72L282.663 185.46C282.663 184.74 282.823 184.113 283.143 183.58C283.463 183.047 283.889 182.633 284.423 182.34C284.969 182.047 285.583 181.9 286.263 181.9C286.929 181.9 287.523 182.047 288.043 182.34C288.576 182.633 288.996 183.047 289.303 183.58C289.623 184.113 289.783 184.747 289.783 185.48V191.5H288.363ZM294.843 191.5V185.74C294.843 184.967 294.609 184.353 294.143 183.9C293.676 183.433 293.083 183.2 292.363 183.2C291.896 183.2 291.463 183.307 291.063 183.52C290.676 183.72 290.363 184.007 290.123 184.38C289.896 184.753 289.783 185.2 289.783 185.72L288.943 185.46C288.983 184.74 289.169 184.113 289.503 183.58C289.849 183.047 290.296 182.633 290.843 182.34C291.403 182.047 292.016 181.9 292.683 181.9C293.349 181.9 293.949 182.047 294.483 182.34C295.029 182.633 295.456 183.047 295.763 183.58C296.083 184.113 296.243 184.747 296.243 185.48V191.5H294.843Z" fill="#010101" fill-opacity="0.8"/>
<g filter="url(#filter0_d_6452_11496)">
<g clip-path="url(#clip0_6452_11496)">
<rect x="65" y="236.5" width="58" height="58" rx="29" fill="white"/>
<path d="M-14.3862 280.255C67.4106 244.27 58.3075 325.155 122.625 221.07C172.587 140.216 252.287 86.8825 360.022 150.946C363.959 151.321 535.201 290.163 516.03 342.082C480.923 437.161 -160.122 614.25 -165.377 589.836C-170.632 565.423 -112.427 392.649 -80.1477 335.607C-64.6566 308.231 -32.4353 288.195 -14.3862 280.255Z" fill="url(#paint0_radial_6452_11496)"/>
<path d="M73.776 273V259.24H75.236V273H73.776ZM82.796 273V259.24H84.256V273H82.796ZM74.736 266.56V265.22H83.196V266.56H74.736ZM89.3199 266.84V265.6H93.3199C94.2266 265.6 94.9199 265.373 95.3999 264.92C95.8799 264.453 96.1199 263.833 96.1199 263.06C96.1199 262.313 95.8799 261.707 95.3999 261.24C94.9199 260.76 94.2266 260.52 93.3199 260.52H89.3199V259.24H93.3199C94.2133 259.24 94.9799 259.407 95.6199 259.74C96.2599 260.06 96.7466 260.507 97.0799 261.08C97.4266 261.653 97.5999 262.307 97.5999 263.04C97.5999 263.8 97.4266 264.467 97.0799 265.04C96.7466 265.613 96.2599 266.06 95.6199 266.38C94.9799 266.687 94.2133 266.84 93.3199 266.84H89.3199ZM88.3799 273V259.24H89.8399V273H88.3799ZM96.6999 273L91.5399 266.64L92.9599 266.18L98.5799 273H96.6999ZM101.363 273V259.24H102.823V273H101.363ZM110.47 273.2C109.403 273.2 108.483 273 107.71 272.6C106.936 272.187 106.256 271.613 105.67 270.88L106.69 269.88C107.156 270.533 107.696 271.02 108.31 271.34C108.936 271.66 109.676 271.82 110.53 271.82C111.41 271.82 112.123 271.62 112.67 271.22C113.216 270.82 113.49 270.267 113.49 269.56C113.49 269.013 113.363 268.567 113.11 268.22C112.856 267.86 112.523 267.573 112.11 267.36C111.71 267.133 111.263 266.933 110.77 266.76C110.276 266.587 109.783 266.407 109.29 266.22C108.81 266.02 108.363 265.773 107.95 265.48C107.536 265.187 107.203 264.813 106.95 264.36C106.71 263.907 106.59 263.327 106.59 262.62C106.59 261.873 106.77 261.233 107.13 260.7C107.49 260.167 107.983 259.76 108.61 259.48C109.236 259.187 109.95 259.04 110.75 259.04C111.643 259.04 112.436 259.213 113.13 259.56C113.836 259.907 114.423 260.373 114.89 260.96L113.89 261.96C113.463 261.453 112.996 261.067 112.49 260.8C111.983 260.533 111.39 260.4 110.71 260.4C109.91 260.4 109.27 260.587 108.79 260.96C108.31 261.333 108.07 261.853 108.07 262.52C108.07 263.04 108.19 263.46 108.43 263.78C108.683 264.1 109.016 264.367 109.43 264.58C109.843 264.793 110.29 264.987 110.77 265.16C111.263 265.32 111.756 265.5 112.25 265.7C112.743 265.9 113.19 266.153 113.59 266.46C114.003 266.767 114.336 267.16 114.59 267.64C114.843 268.107 114.97 268.707 114.97 269.44C114.97 270.627 114.563 271.553 113.75 272.22C112.95 272.873 111.856 273.2 110.47 273.2Z" fill="black"/>
</g>
<rect x="65.25" y="236.75" width="57.5" height="57.5" rx="28.75" stroke="black" stroke-opacity="0.2" stroke-width="0.5"/>
</g>
<g filter="url(#filter1_d_6452_11496)">
<g clip-path="url(#clip1_6452_11496)">
<rect x="147" y="236.5" width="58" height="58" rx="29" fill="white"/>
<path d="M67.6138 280.255C149.411 244.27 140.307 325.155 204.625 221.07C254.587 140.216 334.287 86.8825 442.022 150.946C445.959 151.321 617.201 290.163 598.03 342.082C562.923 437.161 -78.1215 614.25 -83.3766 589.836C-88.6316 565.423 -30.4271 392.649 1.85232 335.607C17.3434 308.231 49.5647 288.195 67.6138 280.255Z" fill="url(#paint1_radial_6452_11496)"/>
<path d="M158.996 273V259.24H160.456V273H158.996ZM159.956 273V271.66H168.056V273H159.956ZM159.956 266.6V265.3H167.416V266.6H159.956ZM159.956 260.58V259.24H167.936V260.58H159.956ZM172.313 266.84V265.6H176.313C177.22 265.6 177.913 265.373 178.393 264.92C178.873 264.453 179.113 263.833 179.113 263.06C179.113 262.313 178.873 261.707 178.393 261.24C177.913 260.76 177.22 260.52 176.313 260.52H172.313V259.24H176.313C177.207 259.24 177.973 259.407 178.613 259.74C179.253 260.06 179.74 260.507 180.073 261.08C180.42 261.653 180.593 262.307 180.593 263.04C180.593 263.8 180.42 264.467 180.073 265.04C179.74 265.613 179.253 266.06 178.613 266.38C177.973 266.687 177.207 266.84 176.313 266.84H172.313ZM171.373 273V259.24H172.833V273H171.373ZM179.693 273L174.533 266.64L175.953 266.18L181.573 273H179.693ZM185.296 267.48V266.18H189.356C189.916 266.18 190.416 266.067 190.856 265.84C191.309 265.613 191.663 265.293 191.916 264.88C192.183 264.453 192.316 263.947 192.316 263.36C192.316 262.773 192.183 262.273 191.916 261.86C191.663 261.433 191.309 261.107 190.856 260.88C190.416 260.64 189.916 260.52 189.356 260.52H185.296V259.24H189.456C190.283 259.24 191.023 259.413 191.676 259.76C192.329 260.093 192.843 260.567 193.216 261.18C193.603 261.793 193.796 262.52 193.796 263.36C193.796 264.187 193.603 264.913 193.216 265.54C192.843 266.153 192.329 266.633 191.676 266.98C191.023 267.313 190.283 267.48 189.456 267.48H185.296ZM184.356 273V259.24H185.816V273H184.356Z" fill="black"/>
</g>
<rect x="147.25" y="236.75" width="57.5" height="57.5" rx="28.75" stroke="black" stroke-opacity="0.2" stroke-width="0.5"/>
</g>
<g filter="url(#filter2_d_6452_11496)">
<g clip-path="url(#clip2_6452_11496)">
<rect x="229" y="236.5" width="58" height="58" rx="29" fill="white"/>
<path d="M149.614 280.255C231.411 244.27 222.307 325.155 286.625 221.07C336.587 140.216 416.287 86.8825 524.022 150.946C527.959 151.321 699.201 290.163 680.03 342.082C644.923 437.161 3.87846 614.25 -1.37657 589.836C-6.63159 565.423 51.5729 392.649 83.8523 335.607C99.3434 308.231 131.565 288.195 149.614 280.255Z" fill="url(#paint2_radial_6452_11496)"/>
<path d="M244.416 273.2C243.429 273.2 242.509 273.02 241.656 272.66C240.816 272.3 240.082 271.793 239.456 271.14C238.829 270.487 238.342 269.733 237.996 268.88C237.662 268.013 237.496 267.087 237.496 266.1C237.496 265.113 237.662 264.193 237.996 263.34C238.342 262.473 238.822 261.72 239.436 261.08C240.062 260.44 240.796 259.94 241.636 259.58C242.476 259.22 243.382 259.04 244.356 259.04C245.409 259.04 246.349 259.227 247.176 259.6C248.016 259.973 248.749 260.487 249.376 261.14L248.376 262.14C247.896 261.607 247.316 261.193 246.636 260.9C245.956 260.593 245.196 260.44 244.356 260.44C243.582 260.44 242.869 260.58 242.216 260.86C241.576 261.14 241.009 261.54 240.516 262.06C240.036 262.567 239.662 263.167 239.396 263.86C239.142 264.54 239.016 265.287 239.016 266.1C239.016 266.913 239.149 267.667 239.416 268.36C239.682 269.053 240.056 269.66 240.536 270.18C241.016 270.687 241.582 271.08 242.236 271.36C242.889 271.64 243.602 271.78 244.376 271.78C245.256 271.78 246.036 271.627 246.716 271.32C247.409 271.013 247.996 270.593 248.476 270.06L249.476 271.08C248.862 271.733 248.129 272.253 247.276 272.64C246.422 273.013 245.469 273.2 244.416 273.2ZM253.583 266.84V265.6H257.583C258.489 265.6 259.183 265.373 259.663 264.92C260.143 264.453 260.383 263.833 260.383 263.06C260.383 262.313 260.143 261.707 259.663 261.24C259.183 260.76 258.489 260.52 257.583 260.52H253.583V259.24H257.583C258.476 259.24 259.243 259.407 259.883 259.74C260.523 260.06 261.009 260.507 261.343 261.08C261.689 261.653 261.863 262.307 261.863 263.04C261.863 263.8 261.689 264.467 261.343 265.04C261.009 265.613 260.523 266.06 259.883 266.38C259.243 266.687 258.476 266.84 257.583 266.84H253.583ZM252.643 273V259.24H254.103V273H252.643ZM260.963 273L255.803 266.64L257.223 266.18L262.843 273H260.963ZM265.626 273V259.24H266.666L272.606 268.98H271.866L277.806 259.24H278.846V273H277.366V261.8L277.706 261.88L272.746 270.02H271.706L266.746 261.88L267.086 261.8V273H265.626Z" fill="black"/>
</g>
<rect x="229.25" y="236.75" width="57.5" height="57.5" rx="28.75" stroke="black" stroke-opacity="0.2" stroke-width="0.5"/>
</g>
<path d="M175.646 343.354C175.842 343.549 176.158 343.549 176.354 343.354L179.536 340.172C179.731 339.976 179.731 339.66 179.536 339.464C179.34 339.269 179.024 339.269 178.828 339.464L176 342.293L173.172 339.464C172.976 339.269 172.66 339.269 172.464 339.464C172.269 339.66 172.269 339.976 172.464 340.172L175.646 343.354ZM176 310.5H175.5V343H176H176.5V310.5H176Z" fill="black" fill-opacity="0.2"/>
<rect x="16.5" y="343" width="319" height="82" rx="10" fill="white"/>
<rect x="17" y="343.5" width="318" height="81" rx="9.5" stroke="black" stroke-opacity="0.2"/>
<path d="M75.5 368.4C75.5012 367.875 75.3816 367.356 75.1505 366.886C74.9194 366.415 74.5832 366.005 74.1684 365.688C73.7536 365.371 73.2715 365.155 72.7601 365.058C72.2488 364.961 71.7221 364.986 71.2216 365.129C70.7212 365.273 70.2607 365.532 69.8764 365.887C69.4921 366.241 69.1945 366.68 69.0071 367.17C68.8197 367.66 68.7476 368.188 68.7965 368.711C68.8454 369.234 69.0139 369.738 69.2888 370.184L61.9758 377.162C61.5706 376.876 61.1077 376.683 60.6202 376.598C60.1327 376.513 59.6326 376.538 59.1557 376.671C58.6789 376.804 58.2369 377.041 57.8615 377.367C57.4861 377.692 57.1865 378.097 56.9841 378.553L51.3137 377.277C51.3137 377.257 51.3137 377.24 51.3137 377.22C51.3141 376.691 51.1919 376.169 50.9569 375.696C50.7219 375.223 50.3806 374.812 49.9602 374.496C49.5399 374.18 49.0522 373.968 48.5361 373.876C48.02 373.785 47.4898 373.816 46.988 373.969C46.4861 374.121 46.0265 374.389 45.6459 374.753C45.2653 375.117 44.9741 375.565 44.7958 376.063C44.6175 376.56 44.5569 377.093 44.6189 377.619C44.681 378.144 44.8638 378.648 45.153 379.089L37.7123 386.602C37.2991 386.326 36.8306 386.146 36.3402 386.075C35.8499 386.003 35.35 386.042 34.8762 386.188C34.4025 386.334 33.9667 386.585 33.6 386.921C33.2334 387.258 32.945 387.672 32.7555 388.134C32.566 388.596 32.4801 389.095 32.5039 389.595C32.5277 390.095 32.6607 390.583 32.8934 391.025C33.126 391.466 33.4525 391.85 33.8495 392.15C34.2465 392.449 34.7041 392.656 35.1896 392.756V401.643H33.1741C32.9959 401.643 32.825 401.715 32.699 401.842C32.573 401.969 32.5022 402.142 32.5022 402.322C32.5022 402.502 32.573 402.674 32.699 402.801C32.825 402.929 32.9959 403 33.1741 403H74.8282C75.0063 403 75.1772 402.929 75.3032 402.801C75.4292 402.674 75.5 402.502 75.5 402.322C75.5 402.142 75.4292 401.969 75.3032 401.842C75.1772 401.715 75.0063 401.643 74.8282 401.643H72.8126V371.725C73.5714 371.568 74.2533 371.152 74.743 370.546C75.2327 369.94 75.5001 369.182 75.5 368.4ZM72.1408 366.365C72.5394 366.365 72.9291 366.484 73.2606 366.708C73.592 366.932 73.8503 367.249 74.0029 367.621C74.1554 367.993 74.1954 368.402 74.1176 368.797C74.0398 369.192 73.8479 369.555 73.566 369.839C73.2841 370.124 72.925 370.318 72.534 370.396C72.143 370.475 71.7378 370.435 71.3695 370.281C71.0012 370.127 70.6864 369.866 70.4649 369.531C70.2435 369.196 70.1253 368.803 70.1253 368.4C70.1253 367.86 70.3376 367.343 70.7156 366.961C71.0936 366.579 71.6062 366.365 72.1408 366.365ZM60.0477 377.898C60.4463 377.898 60.836 378.018 61.1674 378.241C61.4989 378.465 61.7572 378.783 61.9098 379.155C62.0623 379.527 62.1022 379.936 62.0245 380.331C61.9467 380.725 61.7547 381.088 61.4729 381.373C61.191 381.657 60.8318 381.851 60.4409 381.93C60.0499 382.008 59.6446 381.968 59.2764 381.814C58.9081 381.66 58.5933 381.399 58.3718 381.064C58.1504 380.73 58.0321 380.336 58.0321 379.933C58.0321 379.394 58.2445 378.876 58.6225 378.494C59.0005 378.113 59.5131 377.898 60.0477 377.898ZM56.6885 379.876V379.933C56.6883 380.715 56.9557 381.474 57.4454 382.079C57.9351 382.685 58.6171 383.101 59.3758 383.258V401.643H48.6264V380.544C49.149 380.436 49.6385 380.203 50.0544 379.866C50.4703 379.528 50.8007 379.096 51.0181 378.604L56.6885 379.876ZM47.9545 375.185C48.3532 375.185 48.7429 375.304 49.0743 375.528C49.4058 375.751 49.6641 376.069 49.8166 376.441C49.9692 376.813 50.0091 377.222 49.9313 377.617C49.8536 378.012 49.6616 378.374 49.3797 378.659C49.0979 378.944 48.7387 379.137 48.3477 379.216C47.9568 379.294 47.5515 379.254 47.1832 379.1C46.8149 378.946 46.5002 378.685 46.2787 378.351C46.0572 378.016 45.939 377.622 45.939 377.22C45.939 376.68 46.1514 376.162 46.5294 375.781C46.9073 375.399 47.42 375.185 47.9545 375.185ZM33.8459 389.431C33.8459 389.029 33.9641 388.635 34.1856 388.301C34.407 387.966 34.7218 387.705 35.0901 387.551C35.4584 387.397 35.8637 387.357 36.2546 387.435C36.6456 387.514 37.0047 387.708 37.2866 387.992C37.5685 388.277 37.7604 388.64 37.8382 389.034C37.916 389.429 37.8761 389.838 37.7235 390.21C37.571 390.582 37.3126 390.9 36.9812 391.124C36.6497 391.347 36.26 391.467 35.8614 391.467C35.3269 391.467 34.8142 391.252 34.4362 390.871C34.0582 390.489 33.8459 389.971 33.8459 389.431ZM36.5333 392.756C37.0716 392.645 37.5746 392.402 37.9984 392.049C38.4222 391.696 38.7537 391.243 38.9639 390.73C39.1741 390.218 39.2566 389.661 39.2042 389.108C39.1517 388.556 38.9659 388.025 38.663 387.562L46.1036 380.049C46.4614 380.289 46.8618 380.457 47.2827 380.544V401.643H36.5333V392.756ZM60.7195 401.643V383.258C61.2493 383.148 61.7449 382.91 62.1643 382.566C62.5837 382.221 62.9145 381.779 63.1286 381.277C63.3426 380.776 63.4335 380.23 63.3937 379.685C63.3538 379.14 63.1843 378.614 62.8996 378.149L70.2126 371.175C70.5893 371.444 71.0171 371.631 71.4689 371.725V401.643H60.7195Z" fill="#B15252"/>
<path d="M87.26 379V365.24H88.72V379H87.26ZM88.22 379V377.66H95.8V379H88.22ZM102.446 379.2C101.499 379.2 100.653 378.987 99.9059 378.56C99.1593 378.133 98.5659 377.547 98.1259 376.8C97.6993 376.053 97.4859 375.213 97.4859 374.28C97.4859 373.36 97.6993 372.533 98.1259 371.8C98.5526 371.053 99.1326 370.467 99.8659 370.04C100.599 369.613 101.419 369.4 102.326 369.4C103.179 369.4 103.933 369.593 104.586 369.98C105.253 370.367 105.773 370.907 106.146 371.6C106.533 372.28 106.726 373.067 106.726 373.96C106.726 374.067 106.719 374.193 106.706 374.34C106.693 374.473 106.666 374.633 106.626 374.82H98.4859V373.62H105.866L105.366 374.06C105.379 373.367 105.259 372.773 105.006 372.28C104.766 371.773 104.413 371.387 103.946 371.12C103.493 370.84 102.939 370.7 102.286 370.7C101.606 370.7 101.013 370.847 100.506 371.14C99.9993 371.433 99.5993 371.847 99.3059 372.38C99.0259 372.9 98.8859 373.52 98.8859 374.24C98.8859 374.96 99.0326 375.593 99.3259 376.14C99.6326 376.687 100.053 377.113 100.586 377.42C101.133 377.727 101.759 377.88 102.466 377.88C103.039 377.88 103.566 377.78 104.046 377.58C104.526 377.367 104.933 377.053 105.266 376.64L106.166 377.56C105.726 378.08 105.179 378.487 104.526 378.78C103.886 379.06 103.193 379.2 102.446 379.2ZM113.548 379.2C112.654 379.2 111.854 378.987 111.148 378.56C110.441 378.12 109.881 377.533 109.468 376.8C109.068 376.067 108.868 375.24 108.868 374.32C108.868 373.387 109.068 372.553 109.468 371.82C109.881 371.073 110.441 370.487 111.148 370.06C111.854 369.62 112.648 369.4 113.528 369.4C114.248 369.4 114.888 369.547 115.448 369.84C116.021 370.12 116.481 370.52 116.828 371.04C117.188 371.547 117.408 372.14 117.488 372.82V375.76C117.408 376.44 117.188 377.04 116.828 377.56C116.481 378.08 116.021 378.487 115.448 378.78C114.888 379.06 114.254 379.2 113.548 379.2ZM113.768 377.86C114.741 377.86 115.521 377.533 116.108 376.88C116.708 376.227 117.008 375.367 117.008 374.3C117.008 373.593 116.868 372.973 116.588 372.44C116.321 371.893 115.941 371.473 115.448 371.18C114.968 370.873 114.401 370.72 113.748 370.72C113.081 370.72 112.488 370.873 111.968 371.18C111.461 371.487 111.054 371.913 110.748 372.46C110.454 372.993 110.308 373.607 110.308 374.3C110.308 374.993 110.454 375.607 110.748 376.14C111.054 376.673 111.468 377.093 111.988 377.4C112.508 377.707 113.101 377.86 113.768 377.86ZM116.928 379V376.48L117.208 374.16L116.928 371.9V369.6H118.328V379H116.928ZM121.767 379V369.6H123.167V379H121.767ZM123.167 373.52L122.587 373.26C122.587 372.073 122.874 371.133 123.447 370.44C124.034 369.747 124.834 369.4 125.847 369.4C126.314 369.4 126.74 369.487 127.127 369.66C127.514 369.82 127.874 370.08 128.207 370.44L127.287 371.42C127.06 371.167 126.807 370.987 126.527 370.88C126.26 370.773 125.954 370.72 125.607 370.72C124.887 370.72 124.3 370.96 123.847 371.44C123.394 371.907 123.167 372.6 123.167 373.52ZM137.215 379V373.48C137.215 372.653 136.968 371.987 136.475 371.48C135.995 370.96 135.355 370.7 134.555 370.7C134.008 370.7 133.528 370.82 133.115 371.06C132.701 371.3 132.375 371.627 132.135 372.04C131.895 372.453 131.775 372.927 131.775 373.46L131.135 373.1C131.135 372.393 131.301 371.76 131.635 371.2C131.968 370.64 132.415 370.2 132.975 369.88C133.548 369.56 134.201 369.4 134.935 369.4C135.655 369.4 136.295 369.573 136.855 369.92C137.415 370.267 137.848 370.733 138.155 371.32C138.475 371.907 138.635 372.547 138.635 373.24V379H137.215ZM130.375 379V369.6H131.775V379H130.375ZM141.854 379V369.6H143.274V379H141.854ZM142.554 367.56C142.287 367.56 142.06 367.467 141.874 367.28C141.687 367.08 141.594 366.847 141.594 366.58C141.594 366.3 141.687 366.067 141.874 365.88C142.06 365.693 142.287 365.6 142.554 365.6C142.847 365.6 143.08 365.693 143.254 365.88C143.44 366.067 143.534 366.3 143.534 366.58C143.534 366.847 143.44 367.08 143.254 367.28C143.08 367.467 142.847 367.56 142.554 367.56ZM153.551 379V373.48C153.551 372.653 153.305 371.987 152.811 371.48C152.331 370.96 151.691 370.7 150.891 370.7C150.345 370.7 149.865 370.82 149.451 371.06C149.038 371.3 148.711 371.627 148.471 372.04C148.231 372.453 148.111 372.927 148.111 373.46L147.471 373.1C147.471 372.393 147.638 371.76 147.971 371.2C148.305 370.64 148.751 370.2 149.311 369.88C149.885 369.56 150.538 369.4 151.271 369.4C151.991 369.4 152.631 369.573 153.191 369.92C153.751 370.267 154.185 370.733 154.491 371.32C154.811 371.907 154.971 372.547 154.971 373.24V379H153.551ZM146.711 379V369.6H148.111V379H146.711ZM162.07 383.16C161.124 383.16 160.277 382.98 159.53 382.62C158.797 382.273 158.204 381.78 157.75 381.14L158.67 380.22C159.044 380.727 159.517 381.12 160.09 381.4C160.664 381.68 161.337 381.82 162.11 381.82C163.177 381.82 164.024 381.533 164.65 380.96C165.29 380.387 165.61 379.607 165.61 378.62V376.28L165.89 374.14L165.61 372.02V369.6H167.01V378.62C167.01 379.527 166.804 380.32 166.39 381C165.977 381.68 165.397 382.207 164.65 382.58C163.917 382.967 163.057 383.16 162.07 383.16ZM162.17 378.9C161.304 378.9 160.524 378.693 159.83 378.28C159.137 377.867 158.59 377.3 158.19 376.58C157.79 375.86 157.59 375.047 157.59 374.14C157.59 373.233 157.784 372.427 158.17 371.72C158.57 371 159.117 370.433 159.81 370.02C160.504 369.607 161.284 369.4 162.15 369.4C162.884 369.4 163.537 369.54 164.11 369.82C164.697 370.1 165.164 370.5 165.51 371.02C165.87 371.527 166.09 372.127 166.17 372.82V375.48C166.09 376.16 165.87 376.76 165.51 377.28C165.15 377.787 164.684 378.187 164.11 378.48C163.537 378.76 162.89 378.9 162.17 378.9ZM162.43 377.56C163.084 377.56 163.65 377.42 164.13 377.14C164.624 376.86 165.004 376.467 165.27 375.96C165.55 375.44 165.69 374.833 165.69 374.14C165.69 373.46 165.55 372.867 165.27 372.36C165.004 371.853 164.624 371.453 164.13 371.16C163.637 370.867 163.064 370.72 162.41 370.72C161.757 370.72 161.17 370.867 160.65 371.16C160.144 371.453 159.744 371.853 159.45 372.36C159.17 372.867 159.03 373.46 159.03 374.14C159.03 374.807 159.177 375.4 159.47 375.92C159.764 376.44 160.164 376.847 160.67 377.14C161.177 377.42 161.764 377.56 162.43 377.56ZM174.081 379L179.721 365.24H180.821L186.401 379H184.821L179.961 366.84H180.541L175.641 379H174.081ZM176.661 375.42V374.12H183.861V375.42H176.661ZM196.01 379V373.48C196.01 372.653 195.763 371.987 195.27 371.48C194.79 370.96 194.15 370.7 193.35 370.7C192.803 370.7 192.323 370.82 191.91 371.06C191.497 371.3 191.17 371.627 190.93 372.04C190.69 372.453 190.57 372.927 190.57 373.46L189.93 373.1C189.93 372.393 190.097 371.76 190.43 371.2C190.763 370.64 191.21 370.2 191.77 369.88C192.343 369.56 192.997 369.4 193.73 369.4C194.45 369.4 195.09 369.573 195.65 369.92C196.21 370.267 196.643 370.733 196.95 371.32C197.27 371.907 197.43 372.547 197.43 373.24V379H196.01ZM189.17 379V369.6H190.57V379H189.17ZM204.729 379.2C203.836 379.2 203.036 378.987 202.329 378.56C201.622 378.12 201.062 377.533 200.649 376.8C200.249 376.067 200.049 375.24 200.049 374.32C200.049 373.387 200.249 372.553 200.649 371.82C201.062 371.073 201.622 370.487 202.329 370.06C203.036 369.62 203.829 369.4 204.709 369.4C205.429 369.4 206.069 369.547 206.629 369.84C207.202 370.12 207.662 370.52 208.009 371.04C208.369 371.547 208.589 372.14 208.669 372.82V375.76C208.589 376.44 208.369 377.04 208.009 377.56C207.662 378.08 207.202 378.487 206.629 378.78C206.069 379.06 205.436 379.2 204.729 379.2ZM204.949 377.86C205.922 377.86 206.702 377.533 207.289 376.88C207.889 376.227 208.189 375.367 208.189 374.3C208.189 373.593 208.049 372.973 207.769 372.44C207.502 371.893 207.122 371.473 206.629 371.18C206.149 370.873 205.582 370.72 204.929 370.72C204.262 370.72 203.669 370.873 203.149 371.18C202.642 371.487 202.236 371.913 201.929 372.46C201.636 372.993 201.489 373.607 201.489 374.3C201.489 374.993 201.636 375.607 201.929 376.14C202.236 376.673 202.649 377.093 203.169 377.4C203.689 377.707 204.282 377.86 204.949 377.86ZM208.109 379V376.48L208.389 374.16L208.109 371.9V369.6H209.509V379H208.109ZM212.948 379V364.84H214.348V379H212.948ZM220.926 379.04L216.806 369.6H218.346L221.666 377.48H221.086L224.586 369.6H226.146L221.726 379.04H220.926ZM218.366 382.96L220.946 377.62L221.726 379.04L219.906 382.96H218.366ZM229.885 379V365.64H231.285V379H229.885ZM227.505 370.86V369.6H233.645V370.86H227.505ZM236.174 379V369.6H237.594V379H236.174ZM236.874 367.56C236.607 367.56 236.381 367.467 236.194 367.28C236.007 367.08 235.914 366.847 235.914 366.58C235.914 366.3 236.007 366.067 236.194 365.88C236.381 365.693 236.607 365.6 236.874 365.6C237.167 365.6 237.401 365.693 237.574 365.88C237.761 366.067 237.854 366.3 237.854 366.58C237.854 366.847 237.761 367.08 237.574 367.28C237.401 367.467 237.167 367.56 236.874 367.56ZM245.312 379.2C244.392 379.2 243.558 378.987 242.812 378.56C242.078 378.12 241.492 377.527 241.052 376.78C240.625 376.033 240.412 375.2 240.412 374.28C240.412 373.36 240.625 372.533 241.052 371.8C241.492 371.053 242.078 370.467 242.812 370.04C243.558 369.613 244.392 369.4 245.312 369.4C246.018 369.4 246.678 369.533 247.292 369.8C247.905 370.067 248.425 370.44 248.852 370.92L247.932 371.86C247.612 371.5 247.225 371.227 246.772 371.04C246.318 370.84 245.832 370.74 245.312 370.74C244.645 370.74 244.052 370.893 243.532 371.2C243.012 371.507 242.605 371.927 242.312 372.46C242.018 372.98 241.872 373.587 241.872 374.28C241.872 374.96 242.018 375.573 242.312 376.12C242.605 376.653 243.012 377.073 243.532 377.38C244.052 377.687 244.645 377.84 245.312 377.84C245.845 377.84 246.338 377.747 246.792 377.56C247.245 377.36 247.632 377.08 247.952 376.72L248.892 377.66C248.452 378.153 247.918 378.533 247.292 378.8C246.678 379.067 246.018 379.2 245.312 379.2ZM254.336 379.2C253.829 379.2 253.343 379.133 252.876 379C252.409 378.853 251.983 378.653 251.596 378.4C251.223 378.147 250.896 377.847 250.616 377.5L251.516 376.58C251.889 377.033 252.309 377.373 252.776 377.6C253.256 377.813 253.789 377.92 254.376 377.92C255.003 377.92 255.489 377.8 255.836 377.56C256.196 377.32 256.376 376.987 256.376 376.56C256.376 376.16 256.249 375.847 255.996 375.62C255.743 375.393 255.416 375.213 255.016 375.08C254.629 374.947 254.216 374.82 253.776 374.7C253.336 374.567 252.916 374.407 252.516 374.22C252.116 374.02 251.789 373.747 251.536 373.4C251.296 373.053 251.176 372.6 251.176 372.04C251.176 371.507 251.303 371.047 251.556 370.66C251.823 370.26 252.196 369.953 252.676 369.74C253.169 369.513 253.749 369.4 254.416 369.4C255.123 369.4 255.763 369.527 256.336 369.78C256.909 370.033 257.369 370.407 257.716 370.9L256.816 371.8C256.536 371.44 256.183 371.167 255.756 370.98C255.343 370.78 254.876 370.68 254.356 370.68C253.756 370.68 253.296 370.8 252.976 371.04C252.669 371.267 252.516 371.567 252.516 371.94C252.516 372.3 252.643 372.587 252.896 372.8C253.149 373 253.469 373.167 253.856 373.3C254.256 373.42 254.676 373.547 255.116 373.68C255.556 373.8 255.976 373.967 256.376 374.18C256.776 374.38 257.096 374.66 257.336 375.02C257.589 375.367 257.716 375.84 257.716 376.44C257.716 377.28 257.409 377.953 256.796 378.46C256.196 378.953 255.376 379.2 254.336 379.2ZM274.929 379L268.289 372.02C267.756 371.447 267.356 370.9 267.089 370.38C266.836 369.847 266.709 369.28 266.709 368.68C266.709 367.973 266.869 367.347 267.189 366.8C267.509 366.253 267.956 365.82 268.529 365.5C269.103 365.18 269.763 365.02 270.509 365.02C271.029 365.02 271.509 365.107 271.949 365.28C272.389 365.44 272.783 365.66 273.129 365.94C273.476 366.22 273.769 366.547 274.009 366.92L272.989 367.84C272.669 367.387 272.309 367.033 271.909 366.78C271.509 366.527 271.043 366.4 270.509 366.4C269.816 366.4 269.243 366.613 268.789 367.04C268.349 367.453 268.129 368 268.129 368.68C268.129 369.173 268.236 369.613 268.449 370C268.663 370.373 269.003 370.807 269.469 371.3L276.709 379H274.929ZM269.769 379.2C268.889 379.2 268.116 379.027 267.449 378.68C266.783 378.32 266.256 377.833 265.869 377.22C265.496 376.593 265.309 375.887 265.309 375.1C265.309 374.247 265.536 373.473 265.989 372.78C266.456 372.087 267.096 371.547 267.909 371.16L268.609 372.04C268.036 372.32 267.576 372.727 267.229 373.26C266.896 373.78 266.729 374.38 266.729 375.06C266.729 375.62 266.863 376.113 267.129 376.54C267.396 376.953 267.763 377.28 268.229 377.52C268.696 377.747 269.229 377.86 269.829 377.86C270.536 377.86 271.163 377.7 271.709 377.38C272.256 377.06 272.669 376.653 272.949 376.16L273.869 377.2C273.603 377.6 273.256 377.953 272.829 378.26C272.416 378.553 271.949 378.787 271.429 378.96C270.909 379.12 270.356 379.2 269.769 379.2ZM93.46 404.2C92.4867 404.2 91.58 404.02 90.74 403.66C89.9133 403.287 89.1867 402.78 88.56 402.14C87.9333 401.487 87.44 400.733 87.08 399.88C86.7333 399.013 86.56 398.087 86.56 397.1C86.56 396.1 86.7333 395.173 87.08 394.32C87.4267 393.467 87.9133 392.72 88.54 392.08C89.1667 391.44 89.8933 390.94 90.72 390.58C91.5467 390.22 92.4467 390.04 93.42 390.04C94.3933 390.04 95.2933 390.22 96.12 390.58C96.96 390.94 97.6933 391.44 98.32 392.08C98.9467 392.72 99.4333 393.473 99.78 394.34C100.127 395.193 100.3 396.12 100.3 397.12C100.3 398.107 100.127 399.033 99.78 399.9C99.4333 400.753 98.9467 401.5 98.32 402.14C97.7067 402.78 96.9867 403.287 96.16 403.66C95.3333 404.02 94.4333 404.2 93.46 404.2ZM93.42 402.78C94.46 402.78 95.38 402.533 96.18 402.04C96.9933 401.547 97.6267 400.873 98.08 400.02C98.5467 399.167 98.78 398.193 98.78 397.1C98.78 396.287 98.6467 395.54 98.38 394.86C98.1133 394.167 97.74 393.567 97.26 393.06C96.78 392.54 96.2133 392.14 95.56 391.86C94.92 391.58 94.2067 391.44 93.42 391.44C92.3933 391.44 91.4733 391.687 90.66 392.18C89.86 392.66 89.2267 393.327 88.76 394.18C88.3067 395.033 88.08 396.007 88.08 397.1C88.08 397.913 88.2133 398.667 88.48 399.36C88.7467 400.053 89.12 400.66 89.6 401.18C90.08 401.687 90.6467 402.08 91.3 402.36C91.9533 402.64 92.66 402.78 93.42 402.78ZM108.259 404.2C107.539 404.2 106.892 404.053 106.319 403.76C105.746 403.467 105.272 403.067 104.899 402.56C104.539 402.04 104.319 401.44 104.239 400.76V397.82C104.319 397.127 104.546 396.527 104.919 396.02C105.292 395.5 105.766 395.1 106.339 394.82C106.926 394.54 107.566 394.4 108.259 394.4C109.126 394.4 109.906 394.62 110.599 395.06C111.292 395.487 111.839 396.073 112.239 396.82C112.652 397.553 112.859 398.387 112.859 399.32C112.859 400.24 112.659 401.067 112.259 401.8C111.859 402.533 111.306 403.12 110.599 403.56C109.906 403.987 109.126 404.2 108.259 404.2ZM103.399 407.96V394.6H104.799V397L104.519 399.28L104.799 401.58V407.96H103.399ZM108.019 402.86C108.686 402.86 109.272 402.713 109.779 402.42C110.286 402.113 110.679 401.693 110.959 401.16C111.252 400.613 111.399 399.993 111.399 399.3C111.399 398.593 111.252 397.973 110.959 397.44C110.679 396.907 110.286 396.487 109.779 396.18C109.272 395.873 108.692 395.72 108.039 395.72C107.386 395.72 106.806 395.873 106.299 396.18C105.806 396.487 105.419 396.907 105.139 397.44C104.859 397.973 104.719 398.593 104.719 399.3C104.719 399.993 104.859 400.613 105.139 401.16C105.419 401.693 105.806 402.113 106.299 402.42C106.792 402.713 107.366 402.86 108.019 402.86ZM116.826 404V390.64H118.226V404H116.826ZM114.446 395.86V394.6H120.586V395.86H114.446ZM123.115 404V394.6H124.535V404H123.115ZM123.815 392.56C123.548 392.56 123.321 392.467 123.135 392.28C122.948 392.08 122.855 391.847 122.855 391.58C122.855 391.3 122.948 391.067 123.135 390.88C123.321 390.693 123.548 390.6 123.815 390.6C124.108 390.6 124.341 390.693 124.515 390.88C124.701 391.067 124.795 391.3 124.795 391.58C124.795 391.847 124.701 392.08 124.515 392.28C124.341 392.467 124.108 392.56 123.815 392.56ZM127.972 404V394.6H129.372V404H127.972ZM134.432 404V398.24C134.432 397.467 134.199 396.853 133.732 396.4C133.266 395.933 132.679 395.7 131.972 395.7C131.492 395.7 131.052 395.807 130.652 396.02C130.266 396.22 129.952 396.507 129.712 396.88C129.486 397.253 129.372 397.7 129.372 398.22L128.732 397.96C128.732 397.24 128.892 396.613 129.212 396.08C129.532 395.547 129.959 395.133 130.492 394.84C131.039 394.547 131.652 394.4 132.332 394.4C132.999 394.4 133.592 394.547 134.112 394.84C134.646 395.133 135.066 395.547 135.372 396.08C135.692 396.613 135.852 397.247 135.852 397.98V404H134.432ZM140.912 404V398.24C140.912 397.467 140.679 396.853 140.212 396.4C139.746 395.933 139.152 395.7 138.432 395.7C137.966 395.7 137.532 395.807 137.132 396.02C136.746 396.22 136.432 396.507 136.192 396.88C135.966 397.253 135.852 397.7 135.852 398.22L135.012 397.96C135.052 397.24 135.239 396.613 135.572 396.08C135.919 395.547 136.366 395.133 136.912 394.84C137.472 394.547 138.086 394.4 138.752 394.4C139.419 394.4 140.019 394.547 140.552 394.84C141.099 395.133 141.526 395.547 141.832 396.08C142.152 396.613 142.312 397.247 142.312 397.98V404H140.912ZM145.545 404V394.6H146.965V404H145.545ZM146.245 392.56C145.978 392.56 145.752 392.467 145.565 392.28C145.378 392.08 145.285 391.847 145.285 391.58C145.285 391.3 145.378 391.067 145.565 390.88C145.752 390.693 145.978 390.6 146.245 390.6C146.538 390.6 146.772 390.693 146.945 390.88C147.132 391.067 147.225 391.3 147.225 391.58C147.225 391.847 147.132 392.08 146.945 392.28C146.772 392.467 146.538 392.56 146.245 392.56ZM149.583 403.22L155.523 395.36H157.183L151.243 403.22H149.583ZM149.583 404V403.22L150.803 402.72H157.063V404H149.583ZM149.923 395.86V394.6H157.183V395.36L155.863 395.86H149.923ZM163.735 404.2C162.842 404.2 162.042 403.987 161.335 403.56C160.628 403.12 160.068 402.533 159.655 401.8C159.255 401.067 159.055 400.24 159.055 399.32C159.055 398.387 159.255 397.553 159.655 396.82C160.068 396.073 160.628 395.487 161.335 395.06C162.042 394.62 162.835 394.4 163.715 394.4C164.435 394.4 165.075 394.547 165.635 394.84C166.208 395.12 166.668 395.52 167.015 396.04C167.375 396.547 167.595 397.14 167.675 397.82V400.76C167.595 401.44 167.375 402.04 167.015 402.56C166.668 403.08 166.208 403.487 165.635 403.78C165.075 404.06 164.442 404.2 163.735 404.2ZM163.955 402.86C164.928 402.86 165.708 402.533 166.295 401.88C166.895 401.227 167.195 400.367 167.195 399.3C167.195 398.593 167.055 397.973 166.775 397.44C166.508 396.893 166.128 396.473 165.635 396.18C165.155 395.873 164.588 395.72 163.935 395.72C163.268 395.72 162.675 395.873 162.155 396.18C161.648 396.487 161.242 396.913 160.935 397.46C160.642 397.993 160.495 398.607 160.495 399.3C160.495 399.993 160.642 400.607 160.935 401.14C161.242 401.673 161.655 402.093 162.175 402.4C162.695 402.707 163.288 402.86 163.955 402.86ZM167.115 404V401.48L167.395 399.16L167.115 396.9V394.6H168.515V404H167.115ZM173.336 404V390.64H174.736V404H173.336ZM170.956 395.86V394.6H177.096V395.86H170.956ZM179.625 404V394.6H181.045V404H179.625ZM180.325 392.56C180.058 392.56 179.831 392.467 179.645 392.28C179.458 392.08 179.365 391.847 179.365 391.58C179.365 391.3 179.458 391.067 179.645 390.88C179.831 390.693 180.058 390.6 180.325 390.6C180.618 390.6 180.851 390.693 181.025 390.88C181.211 391.067 181.305 391.3 181.305 391.58C181.305 391.847 181.211 392.08 181.025 392.28C180.851 392.467 180.618 392.56 180.325 392.56ZM188.743 404.2C187.836 404.2 187.009 403.98 186.263 403.54C185.529 403.1 184.943 402.507 184.503 401.76C184.076 401.013 183.863 400.18 183.863 399.26C183.863 398.353 184.076 397.533 184.503 396.8C184.943 396.067 185.529 395.487 186.263 395.06C187.009 394.62 187.836 394.4 188.743 394.4C189.663 394.4 190.489 394.613 191.223 395.04C191.956 395.467 192.536 396.053 192.963 396.8C193.403 397.533 193.622 398.353 193.622 399.26C193.622 400.193 193.403 401.033 192.963 401.78C192.536 402.513 191.956 403.1 191.223 403.54C190.489 403.98 189.663 404.2 188.743 404.2ZM188.743 402.84C189.409 402.84 189.996 402.687 190.503 402.38C191.023 402.073 191.429 401.647 191.723 401.1C192.029 400.553 192.183 399.94 192.183 399.26C192.183 398.58 192.029 397.98 191.723 397.46C191.429 396.927 191.023 396.507 190.503 396.2C189.996 395.893 189.409 395.74 188.743 395.74C188.089 395.74 187.503 395.893 186.983 396.2C186.463 396.507 186.056 396.927 185.763 397.46C185.469 397.98 185.323 398.58 185.323 399.26C185.323 399.953 185.469 400.573 185.763 401.12C186.056 401.653 186.463 402.073 186.983 402.38C187.503 402.687 188.089 402.84 188.743 402.84ZM203.29 404V398.48C203.29 397.653 203.043 396.987 202.55 396.48C202.07 395.96 201.43 395.7 200.63 395.7C200.083 395.7 199.603 395.82 199.19 396.06C198.776 396.3 198.45 396.627 198.21 397.04C197.97 397.453 197.85 397.927 197.85 398.46L197.21 398.1C197.21 397.393 197.376 396.76 197.71 396.2C198.043 395.64 198.49 395.2 199.05 394.88C199.623 394.56 200.276 394.4 201.01 394.4C201.73 394.4 202.37 394.573 202.93 394.92C203.49 395.267 203.923 395.733 204.23 396.32C204.55 396.907 204.71 397.547 204.71 398.24V404H203.29ZM196.45 404V394.6H197.85V404H196.45Z" fill="#010101" fill-opacity="0.8"/>
<defs>
<filter id="filter0_d_6452_11496" x="55" y="233.5" width="78" height="78" filterUnits="userSpaceOnUse" color-interpolation-filters="sRGB">
<feFlood flood-opacity="0" result="BackgroundImageFix"/>
<feColorMatrix in="SourceAlpha" type="matrix" values="0 0 0 0 0 0 0 0 0 0 0 0 0 0 0 0 0 0 127 0" result="hardAlpha"/>
<feOffset dy="7"/>
<feGaussianBlur stdDeviation="5"/>
<feComposite in2="hardAlpha" operator="out"/>
<feColorMatrix type="matrix" values="0 0 0 0 0 0 0 0 0 0 0 0 0 0 0 0 0 0 0.1 0"/>
<feBlend mode="normal" in2="BackgroundImageFix" result="effect1_dropShadow_6452_11496"/>
<feBlend mode="normal" in="SourceGraphic" in2="effect1_dropShadow_6452_11496" result="shape"/>
</filter>
<filter id="filter1_d_6452_11496" x="137" y="233.5" width="78" height="78" filterUnits="userSpaceOnUse" color-interpolation-filters="sRGB">
<feFlood flood-opacity="0" result="BackgroundImageFix"/>
<feColorMatrix in="SourceAlpha" type="matrix" values="0 0 0 0 0 0 0 0 0 0 0 0 0 0 0 0 0 0 127 0" result="hardAlpha"/>
<feOffset dy="7"/>
<feGaussianBlur stdDeviation="5"/>
<feComposite in2="hardAlpha" operator="out"/>
<feColorMatrix type="matrix" values="0 0 0 0 0 0 0 0 0 0 0 0 0 0 0 0 0 0 0.1 0"/>
<feBlend mode="normal" in2="BackgroundImageFix" result="effect1_dropShadow_6452_11496"/>
<feBlend mode="normal" in="SourceGraphic" in2="effect1_dropShadow_6452_11496" result="shape"/>
</filter>
<filter id="filter2_d_6452_11496" x="219" y="233.5" width="78" height="78" filterUnits="userSpaceOnUse" color-interpolation-filters="sRGB">
<feFlood flood-opacity="0" result="BackgroundImageFix"/>
<feColorMatrix in="SourceAlpha" type="matrix" values="0 0 0 0 0 0 0 0 0 0 0 0 0 0 0 0 0 0 127 0" result="hardAlpha"/>
<feOffset dy="7"/>
<feGaussianBlur stdDeviation="5"/>
<feComposite in2="hardAlpha" operator="out"/>
<feColorMatrix type="matrix" values="0 0 0 0 0 0 0 0 0 0 0 0 0 0 0 0 0 0 0.1 0"/>
<feBlend mode="normal" in2="BackgroundImageFix" result="effect1_dropShadow_6452_11496"/>
<feBlend mode="normal" in="SourceGraphic" in2="effect1_dropShadow_6452_11496" result="shape"/>
</filter>
<radialGradient id="paint0_radial_6452_11496" cx="0" cy="0" r="1" gradientUnits="userSpaceOnUse" gradientTransform="translate(286.805 209.779) rotate(154.058) scale(636.23 1077.4)">
<stop stop-color="#FFD1C1"/>
<stop offset="0.5" stop-color="white"/>
<stop offset="1" stop-color="white" stop-opacity="0"/>
</radialGradient>
<radialGradient id="paint1_radial_6452_11496" cx="0" cy="0" r="1" gradientUnits="userSpaceOnUse" gradientTransform="translate(368.805 209.779) rotate(154.058) scale(636.23 1077.4)">
<stop stop-color="#FFD1C1"/>
<stop offset="0.5" stop-color="white"/>
<stop offset="1" stop-color="white" stop-opacity="0"/>
</radialGradient>
<radialGradient id="paint2_radial_6452_11496" cx="0" cy="0" r="1" gradientUnits="userSpaceOnUse" gradientTransform="translate(450.805 209.779) rotate(154.058) scale(636.23 1077.4)">
<stop stop-color="#FFD1C1"/>
<stop offset="0.5" stop-color="white"/>
<stop offset="1" stop-color="white" stop-opacity="0"/>
</radialGradient>
<clipPath id="clip0_6452_11496">
<rect x="65" y="236.5" width="58" height="58" rx="29" fill="white"/>
</clipPath>
<clipPath id="clip1_6452_11496">
<rect x="147" y="236.5" width="58" height="58" rx="29" fill="white"/>
</clipPath>
<clipPath id="clip2_6452_11496">
<rect x="229" y="236.5" width="58" height="58" rx="29" fill="white"/>
</clipPath>
</defs>
</svg>
