<svg width="1062" height="198" viewBox="0 0 1062 198" fill="none" xmlns="http://www.w3.org/2000/svg">
<rect y="57.5" width="326" height="82" rx="10" fill="white"/>
<rect x="0.5" y="58" width="325" height="81" rx="9.5" stroke="black" stroke-opacity="0.2"/>
<path d="M36.4443 76.625C40.7417 76.633 44.8617 78.3441 47.9004 81.3828C50.9388 84.4215 52.6493 88.5407 52.6572 92.8379V116.469C52.656 117.504 52.244 118.497 51.5117 119.229C50.7794 119.962 49.7866 120.374 48.751 120.375H24.8672C23.8316 120.374 22.8387 119.962 22.1064 119.229C21.3741 118.497 20.9622 117.504 20.9609 116.469V80.5312C20.9622 79.4956 21.3741 78.5028 22.1064 77.7705C22.8387 77.0382 23.8316 76.6262 24.8672 76.625H36.4443ZM24.8672 78.1875C24.2458 78.1882 23.6503 78.4356 23.2109 78.875C22.7715 79.3144 22.5241 79.9099 22.5234 80.5312V116.469C22.5241 117.09 22.7715 117.686 23.2109 118.125C23.6503 118.564 24.2458 118.812 24.8672 118.812H48.751C49.3724 118.812 49.9678 118.564 50.4072 118.125C50.8466 117.686 51.094 117.09 51.0947 116.469V92.8379C51.0978 90.9128 50.7209 89.0056 49.9854 87.2266H45.958C44.9224 87.2253 43.9296 86.8133 43.1973 86.0811C42.465 85.3488 42.053 84.3559 42.0518 83.3203V79.2939C40.274 78.5599 38.3687 78.1843 36.4453 78.1875H24.8672ZM43.6143 83.3203C43.615 83.9417 43.8624 84.5372 44.3018 84.9766C44.7411 85.4159 45.3367 85.6634 45.958 85.6641H49.2109C47.9008 83.3157 45.9629 81.3781 43.6143 80.0684V83.3203Z" fill="#B15252"/>
<path d="M36.4443 76.625C40.7417 76.633 44.8617 78.3441 47.9004 81.3828C50.9388 84.4215 52.6493 88.5407 52.6572 92.8379V116.469C52.656 117.504 52.244 118.497 51.5117 119.229C50.7794 119.962 49.7866 120.374 48.751 120.375H24.8672C23.8316 120.374 22.8387 119.962 22.1064 119.229C21.3741 118.497 20.9622 117.504 20.9609 116.469V80.5312C20.9622 79.4956 21.3741 78.5028 22.1064 77.7705C22.8387 77.0382 23.8316 76.6262 24.8672 76.625H36.4443ZM24.8672 78.1875C24.2458 78.1882 23.6503 78.4356 23.2109 78.875C22.7715 79.3144 22.5241 79.9099 22.5234 80.5312V116.469C22.5241 117.09 22.7715 117.686 23.2109 118.125C23.6503 118.564 24.2458 118.812 24.8672 118.812H48.751C49.3724 118.812 49.9678 118.564 50.4072 118.125C50.8466 117.686 51.094 117.09 51.0947 116.469V92.8379C51.0978 90.9128 50.7209 89.0056 49.9854 87.2266H45.958C44.9224 87.2253 43.9296 86.8133 43.1973 86.0811C42.465 85.3488 42.053 84.3559 42.0518 83.3203V79.2939C40.274 78.5599 38.3687 78.1843 36.4453 78.1875H24.8672ZM43.6143 83.3203C43.615 83.9417 43.8624 84.5372 44.3018 84.9766C44.7411 85.4159 45.3367 85.6634 45.958 85.6641H49.2109C47.9008 83.3157 45.9629 81.3781 43.6143 80.0684V83.3203Z" stroke="#B15252"/>
<path d="M47.7422 90.6875C47.9467 90.6916 48.142 90.7758 48.2852 90.9219C48.4282 91.0679 48.5078 91.2643 48.5078 91.4688C48.5078 91.6732 48.4282 91.8696 48.2852 92.0156C48.142 92.1617 47.9467 92.2459 47.7422 92.25H25.8672C25.6628 92.2459 25.4683 92.1616 25.3252 92.0156C25.182 91.8696 25.1016 91.6733 25.1016 91.4688C25.1016 91.2642 25.182 91.0679 25.3252 90.9219C25.4683 90.7759 25.6628 90.6916 25.8672 90.6875H47.7422Z" fill="#B15252"/>
<path d="M47.7422 90.6875C47.9467 90.6916 48.142 90.7758 48.2852 90.9219C48.4282 91.0679 48.5078 91.2643 48.5078 91.4688C48.5078 91.6732 48.4282 91.8696 48.2852 92.0156C48.142 92.1617 47.9467 92.2459 47.7422 92.25H25.8672C25.6628 92.2459 25.4683 92.1616 25.3252 92.0156C25.182 91.8696 25.1016 91.6733 25.1016 91.4688C25.1016 91.2642 25.182 91.0679 25.3252 90.9219C25.4683 90.7759 25.6628 90.6916 25.8672 90.6875H47.7422Z" stroke="#B15252"/>
<path d="M47.7422 97.9785C47.9467 97.9826 48.142 98.0668 48.2852 98.2129C48.4282 98.3589 48.5078 98.5554 48.5078 98.7598C48.5078 98.9642 48.4282 99.1606 48.2852 99.3066C48.142 99.4527 47.9467 99.5369 47.7422 99.541H25.8672C25.6628 99.5369 25.4683 99.4526 25.3252 99.3066C25.182 99.1606 25.1016 98.9643 25.1016 98.7598C25.1016 98.5552 25.182 98.359 25.3252 98.2129C25.4683 98.0669 25.6628 97.9826 25.8672 97.9785H47.7422Z" fill="#B15252"/>
<path d="M47.7422 97.9785C47.9467 97.9826 48.142 98.0668 48.2852 98.2129C48.4282 98.3589 48.5078 98.5554 48.5078 98.7598C48.5078 98.9642 48.4282 99.1606 48.2852 99.3066C48.142 99.4527 47.9467 99.5369 47.7422 99.541H25.8672C25.6628 99.5369 25.4683 99.4526 25.3252 99.3066C25.182 99.1606 25.1016 98.9643 25.1016 98.7598C25.1016 98.5552 25.182 98.359 25.3252 98.2129C25.4683 98.0669 25.6628 97.9826 25.8672 97.9785H47.7422Z" stroke="#B15252"/>
<path d="M47.7422 105.271C47.9467 105.276 48.142 105.36 48.2852 105.506C48.4282 105.652 48.5078 105.848 48.5078 106.053C48.5078 106.257 48.4282 106.454 48.2852 106.6C48.142 106.746 47.9467 106.83 47.7422 106.834H25.8672C25.6628 106.83 25.4683 106.746 25.3252 106.6C25.182 106.454 25.1016 106.257 25.1016 106.053C25.1016 105.848 25.182 105.652 25.3252 105.506C25.4683 105.36 25.6628 105.276 25.8672 105.271H47.7422Z" fill="#B15252"/>
<path d="M47.7422 105.271C47.9467 105.276 48.142 105.36 48.2852 105.506C48.4282 105.652 48.5078 105.848 48.5078 106.053C48.5078 106.257 48.4282 106.454 48.2852 106.6C48.142 106.746 47.9467 106.83 47.7422 106.834H25.8672C25.6628 106.83 25.4683 106.746 25.3252 106.6C25.182 106.454 25.1016 106.257 25.1016 106.053C25.1016 105.848 25.182 105.652 25.3252 105.506C25.4683 105.36 25.6628 105.276 25.8672 105.271H47.7422Z" stroke="#B15252"/>
<path d="M47.7422 112.562C47.9467 112.567 48.142 112.651 48.2852 112.797C48.4282 112.943 48.5078 113.139 48.5078 113.344C48.5078 113.548 48.4282 113.745 48.2852 113.891C48.142 114.037 47.9467 114.121 47.7422 114.125H25.8672C25.6628 114.121 25.4683 114.037 25.3252 113.891C25.182 113.745 25.1016 113.548 25.1016 113.344C25.1016 113.139 25.182 112.943 25.3252 112.797C25.4683 112.651 25.6628 112.567 25.8672 112.562H47.7422Z" fill="#B15252"/>
<path d="M47.7422 112.562C47.9467 112.567 48.142 112.651 48.2852 112.797C48.4282 112.943 48.5078 113.139 48.5078 113.344C48.5078 113.548 48.4282 113.745 48.2852 113.891C48.142 114.037 47.9467 114.121 47.7422 114.125H25.8672C25.6628 114.121 25.4683 114.037 25.3252 113.891C25.182 113.745 25.1016 113.548 25.1016 113.344C25.1016 113.139 25.182 112.943 25.3252 112.797C25.4683 112.651 25.6628 112.567 25.8672 112.562H47.7422Z" stroke="#B15252"/>
<path d="M57.8945 82.0957C58.7215 82.0957 59.5153 82.4236 60.1006 83.0078C60.6858 83.5921 61.0152 84.385 61.0166 85.2119C60.9438 85.6435 61.1454 110.358 60.9619 110.817L58.6221 116.755C58.5645 116.901 58.4646 117.026 58.335 117.114C58.2054 117.202 58.0522 117.25 57.8955 117.25C57.7388 117.25 57.5857 117.202 57.4561 117.114C57.3264 117.026 57.2255 116.901 57.168 116.755L54.8271 110.817C54.7913 110.726 54.7734 110.628 54.7734 110.53V85.2129C54.7747 84.3859 55.1043 83.5932 55.6895 83.0088C56.2746 82.4245 57.0676 82.0959 57.8945 82.0957ZM56.3359 88.1094V110.383L57.8955 114.338L59.4541 110.383V88.1094H56.3359ZM57.8945 83.6572C57.4819 83.6574 57.0861 83.8209 56.7939 84.1123C56.5017 84.4039 56.3369 84.8 56.3359 85.2129V86.5469H59.4541V85.2129C59.4532 84.8 59.2884 84.4039 58.9961 84.1123C58.7038 83.8207 58.3074 83.6572 57.8945 83.6572Z" fill="#B15252"/>
<path d="M57.8945 82.0957C58.7215 82.0957 59.5153 82.4236 60.1006 83.0078C60.6858 83.5921 61.0152 84.385 61.0166 85.2119C60.9438 85.6435 61.1454 110.358 60.9619 110.817L58.6221 116.755C58.5645 116.901 58.4646 117.026 58.335 117.114C58.2054 117.202 58.0522 117.25 57.8955 117.25C57.7388 117.25 57.5857 117.202 57.4561 117.114C57.3264 117.026 57.2255 116.901 57.168 116.755L54.8271 110.817C54.7913 110.726 54.7734 110.628 54.7734 110.53V85.2129C54.7747 84.3859 55.1043 83.5932 55.6895 83.0088C56.2746 82.4245 57.0676 82.0959 57.8945 82.0957ZM56.3359 88.1094V110.383L57.8955 114.338L59.4541 110.383V88.1094H56.3359ZM57.8945 83.6572C57.4819 83.6574 57.0861 83.8209 56.7939 84.1123C56.5017 84.4039 56.3369 84.8 56.3359 85.2129V86.5469H59.4541V85.2129C59.4532 84.8 59.2884 84.4039 58.9961 84.1123C58.7038 83.8207 58.3074 83.6572 57.8945 83.6572Z" stroke="#B15252"/>
<path d="M84 93.7C83.0133 93.7 82.0933 93.52 81.24 93.16C80.4 92.8 79.6667 92.2933 79.04 91.64C78.4133 90.9867 77.9267 90.2333 77.58 89.38C77.2467 88.5133 77.08 87.5867 77.08 86.6C77.08 85.6133 77.2467 84.6933 77.58 83.84C77.9267 82.9733 78.4067 82.22 79.02 81.58C79.6467 80.94 80.38 80.44 81.22 80.08C82.06 79.72 82.9667 79.54 83.94 79.54C84.9933 79.54 85.9333 79.7267 86.76 80.1C87.6 80.4733 88.3333 80.9867 88.96 81.64L87.96 82.64C87.48 82.1067 86.9 81.6933 86.22 81.4C85.54 81.0933 84.78 80.94 83.94 80.94C83.1667 80.94 82.4533 81.08 81.8 81.36C81.16 81.64 80.5933 82.04 80.1 82.56C79.62 83.0667 79.2467 83.6667 78.98 84.36C78.7267 85.04 78.6 85.7867 78.6 86.6C78.6 87.4133 78.7333 88.1667 79 88.86C79.2667 89.5533 79.64 90.16 80.12 90.68C80.6 91.1867 81.1667 91.58 81.82 91.86C82.4733 92.14 83.1867 92.28 83.96 92.28C84.84 92.28 85.62 92.1267 86.3 91.82C86.9933 91.5133 87.58 91.0933 88.06 90.56L89.06 91.58C88.4467 92.2333 87.7133 92.7533 86.86 93.14C86.0067 93.5133 85.0533 93.7 84 93.7ZM95.7761 93.7C94.8694 93.7 94.0428 93.48 93.2961 93.04C92.5628 92.6 91.9761 92.0067 91.5361 91.26C91.1094 90.5133 90.8961 89.68 90.8961 88.76C90.8961 87.8533 91.1094 87.0333 91.5361 86.3C91.9761 85.5667 92.5628 84.9867 93.2961 84.56C94.0428 84.12 94.8694 83.9 95.7761 83.9C96.6961 83.9 97.5228 84.1133 98.2561 84.54C98.9894 84.9667 99.5694 85.5533 99.9961 86.3C100.436 87.0333 100.656 87.8533 100.656 88.76C100.656 89.6933 100.436 90.5333 99.9961 91.28C99.5694 92.0133 98.9894 92.6 98.2561 93.04C97.5228 93.48 96.6961 93.7 95.7761 93.7ZM95.7761 92.34C96.4428 92.34 97.0294 92.1867 97.5361 91.88C98.0561 91.5733 98.4628 91.1467 98.7561 90.6C99.0628 90.0533 99.2161 89.44 99.2161 88.76C99.2161 88.08 99.0628 87.48 98.7561 86.96C98.4628 86.4267 98.0561 86.0067 97.5361 85.7C97.0294 85.3933 96.4428 85.24 95.7761 85.24C95.1228 85.24 94.5361 85.3933 94.0161 85.7C93.4961 86.0067 93.0894 86.4267 92.7961 86.96C92.5028 87.48 92.3561 88.08 92.3561 88.76C92.3561 89.4533 92.5028 90.0733 92.7961 90.62C93.0894 91.1533 93.4961 91.5733 94.0161 91.88C94.5361 92.1867 95.1228 92.34 95.7761 92.34ZM110.323 93.5V87.98C110.323 87.1533 110.077 86.4867 109.583 85.98C109.103 85.46 108.463 85.2 107.663 85.2C107.117 85.2 106.637 85.32 106.223 85.56C105.81 85.8 105.483 86.1267 105.243 86.54C105.003 86.9533 104.883 87.4267 104.883 87.96L104.243 87.6C104.243 86.8933 104.41 86.26 104.743 85.7C105.077 85.14 105.523 84.7 106.083 84.38C106.657 84.06 107.31 83.9 108.043 83.9C108.763 83.9 109.403 84.0733 109.963 84.42C110.523 84.7667 110.957 85.2333 111.263 85.82C111.583 86.4067 111.743 87.0467 111.743 87.74V93.5H110.323ZM103.483 93.5V84.1H104.883V93.5H103.483ZM116.305 93.5V80.14H117.705V93.5H116.305ZM113.925 85.36V84.1H120.065V85.36H113.925ZM126.601 93.7C125.655 93.7 124.808 93.4867 124.061 93.06C123.315 92.6333 122.721 92.0467 122.281 91.3C121.855 90.5533 121.641 89.7133 121.641 88.78C121.641 87.86 121.855 87.0333 122.281 86.3C122.708 85.5533 123.288 84.9667 124.021 84.54C124.755 84.1133 125.575 83.9 126.481 83.9C127.335 83.9 128.088 84.0933 128.741 84.48C129.408 84.8667 129.928 85.4067 130.301 86.1C130.688 86.78 130.881 87.5667 130.881 88.46C130.881 88.5667 130.875 88.6933 130.861 88.84C130.848 88.9733 130.821 89.1333 130.781 89.32H122.641V88.12H130.021L129.521 88.56C129.535 87.8667 129.415 87.2733 129.161 86.78C128.921 86.2733 128.568 85.8867 128.101 85.62C127.648 85.34 127.095 85.2 126.441 85.2C125.761 85.2 125.168 85.3467 124.661 85.64C124.155 85.9333 123.755 86.3467 123.461 86.88C123.181 87.4 123.041 88.02 123.041 88.74C123.041 89.46 123.188 90.0933 123.481 90.64C123.788 91.1867 124.208 91.6133 124.741 91.92C125.288 92.2267 125.915 92.38 126.621 92.38C127.195 92.38 127.721 92.28 128.201 92.08C128.681 91.8667 129.088 91.5533 129.421 91.14L130.321 92.06C129.881 92.58 129.335 92.9867 128.681 93.28C128.041 93.56 127.348 93.7 126.601 93.7ZM140.463 93.5V87.98C140.463 87.1533 140.216 86.4867 139.723 85.98C139.243 85.46 138.603 85.2 137.803 85.2C137.256 85.2 136.776 85.32 136.363 85.56C135.95 85.8 135.623 86.1267 135.383 86.54C135.143 86.9533 135.023 87.4267 135.023 87.96L134.383 87.6C134.383 86.8933 134.55 86.26 134.883 85.7C135.216 85.14 135.663 84.7 136.223 84.38C136.796 84.06 137.45 83.9 138.183 83.9C138.903 83.9 139.543 84.0733 140.103 84.42C140.663 84.7667 141.096 85.2333 141.403 85.82C141.723 86.4067 141.883 87.0467 141.883 87.74V93.5H140.463ZM133.623 93.5V84.1H135.023V93.5H133.623ZM146.445 93.5V80.14H147.845V93.5H146.445ZM144.065 85.36V84.1H150.205V85.36H144.065ZM158.87 93.5V92.14H162.91C163.99 92.14 164.943 91.9067 165.77 91.44C166.597 90.96 167.243 90.3067 167.71 89.48C168.177 88.64 168.41 87.68 168.41 86.6C168.41 85.52 168.177 84.5667 167.71 83.74C167.243 82.9133 166.597 82.2667 165.77 81.8C164.943 81.32 163.99 81.08 162.91 81.08H158.91V79.74H162.95C163.95 79.74 164.87 79.9133 165.71 80.26C166.563 80.5933 167.303 81.0733 167.93 81.7C168.57 82.3133 169.063 83.04 169.41 83.88C169.757 84.7067 169.93 85.62 169.93 86.62C169.93 87.5933 169.757 88.5 169.41 89.34C169.063 90.18 168.577 90.9133 167.95 91.54C167.323 92.1533 166.583 92.6333 165.73 92.98C164.89 93.3267 163.977 93.5 162.99 93.5H158.87ZM157.97 93.5V79.74H159.43V93.5H157.97ZM177.355 93.7C176.409 93.7 175.562 93.4867 174.815 93.06C174.069 92.6333 173.475 92.0467 173.035 91.3C172.609 90.5533 172.395 89.7133 172.395 88.78C172.395 87.86 172.609 87.0333 173.035 86.3C173.462 85.5533 174.042 84.9667 174.775 84.54C175.509 84.1133 176.329 83.9 177.235 83.9C178.089 83.9 178.842 84.0933 179.495 84.48C180.162 84.8667 180.682 85.4067 181.055 86.1C181.442 86.78 181.635 87.5667 181.635 88.46C181.635 88.5667 181.629 88.6933 181.615 88.84C181.602 88.9733 181.575 89.1333 181.535 89.32H173.395V88.12H180.775L180.275 88.56C180.289 87.8667 180.169 87.2733 179.915 86.78C179.675 86.2733 179.322 85.8867 178.855 85.62C178.402 85.34 177.849 85.2 177.195 85.2C176.515 85.2 175.922 85.3467 175.415 85.64C174.909 85.9333 174.509 86.3467 174.215 86.88C173.935 87.4 173.795 88.02 173.795 88.74C173.795 89.46 173.942 90.0933 174.235 90.64C174.542 91.1867 174.962 91.6133 175.495 91.92C176.042 92.2267 176.669 92.38 177.375 92.38C177.949 92.38 178.475 92.28 178.955 92.08C179.435 91.8667 179.842 91.5533 180.175 91.14L181.075 92.06C180.635 92.58 180.089 92.9867 179.435 93.28C178.795 93.56 178.102 93.7 177.355 93.7ZM187.257 93.7C186.75 93.7 186.264 93.6333 185.797 93.5C185.33 93.3533 184.904 93.1533 184.517 92.9C184.144 92.6467 183.817 92.3467 183.537 92L184.437 91.08C184.81 91.5333 185.23 91.8733 185.697 92.1C186.177 92.3133 186.71 92.42 187.297 92.42C187.924 92.42 188.41 92.3 188.757 92.06C189.117 91.82 189.297 91.4867 189.297 91.06C189.297 90.66 189.17 90.3467 188.917 90.12C188.664 89.8933 188.337 89.7133 187.937 89.58C187.55 89.4467 187.137 89.32 186.697 89.2C186.257 89.0667 185.837 88.9067 185.437 88.72C185.037 88.52 184.71 88.2467 184.457 87.9C184.217 87.5533 184.097 87.1 184.097 86.54C184.097 86.0067 184.224 85.5467 184.477 85.16C184.744 84.76 185.117 84.4533 185.597 84.24C186.09 84.0133 186.67 83.9 187.337 83.9C188.044 83.9 188.684 84.0267 189.257 84.28C189.83 84.5333 190.29 84.9067 190.637 85.4L189.737 86.3C189.457 85.94 189.104 85.6667 188.677 85.48C188.264 85.28 187.797 85.18 187.277 85.18C186.677 85.18 186.217 85.3 185.897 85.54C185.59 85.7667 185.437 86.0667 185.437 86.44C185.437 86.8 185.564 87.0867 185.817 87.3C186.07 87.5 186.39 87.6667 186.777 87.8C187.177 87.92 187.597 88.0467 188.037 88.18C188.477 88.3 188.897 88.4667 189.297 88.68C189.697 88.88 190.017 89.16 190.257 89.52C190.51 89.8667 190.637 90.34 190.637 90.94C190.637 91.78 190.33 92.4533 189.717 92.96C189.117 93.4533 188.297 93.7 187.257 93.7ZM193.454 93.5V84.1H194.874V93.5H193.454ZM194.154 82.06C193.887 82.06 193.66 81.9667 193.474 81.78C193.287 81.58 193.194 81.3467 193.194 81.08C193.194 80.8 193.287 80.5667 193.474 80.38C193.66 80.1933 193.887 80.1 194.154 80.1C194.447 80.1 194.68 80.1933 194.854 80.38C195.04 80.5667 195.134 80.8 195.134 81.08C195.134 81.3467 195.04 81.58 194.854 81.78C194.68 81.9667 194.447 82.06 194.154 82.06ZM202.191 97.66C201.245 97.66 200.398 97.48 199.651 97.12C198.918 96.7733 198.325 96.28 197.871 95.64L198.791 94.72C199.165 95.2267 199.638 95.62 200.211 95.9C200.785 96.18 201.458 96.32 202.231 96.32C203.298 96.32 204.145 96.0333 204.771 95.46C205.411 94.8867 205.731 94.1067 205.731 93.12V90.78L206.011 88.64L205.731 86.52V84.1H207.131V93.12C207.131 94.0267 206.925 94.82 206.511 95.5C206.098 96.18 205.518 96.7067 204.771 97.08C204.038 97.4667 203.178 97.66 202.191 97.66ZM202.291 93.4C201.425 93.4 200.645 93.1933 199.951 92.78C199.258 92.3667 198.711 91.8 198.311 91.08C197.911 90.36 197.711 89.5467 197.711 88.64C197.711 87.7333 197.905 86.9267 198.291 86.22C198.691 85.5 199.238 84.9333 199.931 84.52C200.625 84.1067 201.405 83.9 202.271 83.9C203.005 83.9 203.658 84.04 204.231 84.32C204.818 84.6 205.285 85 205.631 85.52C205.991 86.0267 206.211 86.6267 206.291 87.32V89.98C206.211 90.66 205.991 91.26 205.631 91.78C205.271 92.2867 204.805 92.6867 204.231 92.98C203.658 93.26 203.011 93.4 202.291 93.4ZM202.551 92.06C203.205 92.06 203.771 91.92 204.251 91.64C204.745 91.36 205.125 90.9667 205.391 90.46C205.671 89.94 205.811 89.3333 205.811 88.64C205.811 87.96 205.671 87.3667 205.391 86.86C205.125 86.3533 204.745 85.9533 204.251 85.66C203.758 85.3667 203.185 85.22 202.531 85.22C201.878 85.22 201.291 85.3667 200.771 85.66C200.265 85.9533 199.865 86.3533 199.571 86.86C199.291 87.3667 199.151 87.96 199.151 88.64C199.151 89.3067 199.298 89.9 199.591 90.42C199.885 90.94 200.285 91.3467 200.791 91.64C201.298 91.92 201.885 92.06 202.551 92.06ZM217.392 93.5V87.98C217.392 87.1533 217.145 86.4867 216.652 85.98C216.172 85.46 215.532 85.2 214.732 85.2C214.185 85.2 213.705 85.32 213.292 85.56C212.879 85.8 212.552 86.1267 212.312 86.54C212.072 86.9533 211.952 87.4267 211.952 87.96L211.312 87.6C211.312 86.8933 211.479 86.26 211.812 85.7C212.145 85.14 212.592 84.7 213.152 84.38C213.725 84.06 214.379 83.9 215.112 83.9C215.832 83.9 216.472 84.0733 217.032 84.42C217.592 84.7667 218.025 85.2333 218.332 85.82C218.652 86.4067 218.812 87.0467 218.812 87.74V93.5H217.392ZM210.552 93.5V84.1H211.952V93.5H210.552ZM236.428 93.5L229.788 86.52C229.254 85.9467 228.854 85.4 228.588 84.88C228.334 84.3467 228.208 83.78 228.208 83.18C228.208 82.4733 228.368 81.8467 228.688 81.3C229.008 80.7533 229.454 80.32 230.028 80C230.601 79.68 231.261 79.52 232.008 79.52C232.528 79.52 233.008 79.6067 233.448 79.78C233.888 79.94 234.281 80.16 234.628 80.44C234.974 80.72 235.268 81.0467 235.508 81.42L234.488 82.34C234.168 81.8867 233.808 81.5333 233.408 81.28C233.008 81.0267 232.541 80.9 232.008 80.9C231.314 80.9 230.741 81.1133 230.288 81.54C229.848 81.9533 229.628 82.5 229.628 83.18C229.628 83.6733 229.734 84.1133 229.948 84.5C230.161 84.8733 230.501 85.3067 230.968 85.8L238.208 93.5H236.428ZM231.268 93.7C230.388 93.7 229.614 93.5267 228.948 93.18C228.281 92.82 227.754 92.3333 227.368 91.72C226.994 91.0933 226.808 90.3867 226.808 89.6C226.808 88.7467 227.034 87.9733 227.488 87.28C227.954 86.5867 228.594 86.0467 229.408 85.66L230.108 86.54C229.534 86.82 229.074 87.2267 228.728 87.76C228.394 88.28 228.228 88.88 228.228 89.56C228.228 90.12 228.361 90.6133 228.628 91.04C228.894 91.4533 229.261 91.78 229.728 92.02C230.194 92.2467 230.728 92.36 231.328 92.36C232.034 92.36 232.661 92.2 233.208 91.88C233.754 91.56 234.168 91.1533 234.448 90.66L235.368 91.7C235.101 92.1 234.754 92.4533 234.328 92.76C233.914 93.0533 233.448 93.2867 232.928 93.46C232.408 93.62 231.854 93.7 231.268 93.7ZM78.66 118.5V117.14H82.7C83.78 117.14 84.7333 116.907 85.56 116.44C86.3867 115.96 87.0333 115.307 87.5 114.48C87.9667 113.64 88.2 112.68 88.2 111.6C88.2 110.52 87.9667 109.567 87.5 108.74C87.0333 107.913 86.3867 107.267 85.56 106.8C84.7333 106.32 83.78 106.08 82.7 106.08H78.7V104.74H82.74C83.74 104.74 84.66 104.913 85.5 105.26C86.3533 105.593 87.0933 106.073 87.72 106.7C88.36 107.313 88.8533 108.04 89.2 108.88C89.5467 109.707 89.72 110.62 89.72 111.62C89.72 112.593 89.5467 113.5 89.2 114.34C88.8533 115.18 88.3667 115.913 87.74 116.54C87.1133 117.153 86.3733 117.633 85.52 117.98C84.68 118.327 83.7667 118.5 82.78 118.5H78.66ZM77.76 118.5V104.74H79.22V118.5H77.76ZM97.1452 118.7C96.1985 118.7 95.3518 118.487 94.6052 118.06C93.8585 117.633 93.2652 117.047 92.8252 116.3C92.3985 115.553 92.1852 114.713 92.1852 113.78C92.1852 112.86 92.3985 112.033 92.8252 111.3C93.2518 110.553 93.8318 109.967 94.5652 109.54C95.2985 109.113 96.1185 108.9 97.0252 108.9C97.8785 108.9 98.6318 109.093 99.2852 109.48C99.9518 109.867 100.472 110.407 100.845 111.1C101.232 111.78 101.425 112.567 101.425 113.46C101.425 113.567 101.418 113.693 101.405 113.84C101.392 113.973 101.365 114.133 101.325 114.32H93.1852V113.12H100.565L100.065 113.56C100.078 112.867 99.9585 112.273 99.7052 111.78C99.4652 111.273 99.1118 110.887 98.6452 110.62C98.1918 110.34 97.6385 110.2 96.9852 110.2C96.3052 110.2 95.7118 110.347 95.2052 110.64C94.6985 110.933 94.2985 111.347 94.0052 111.88C93.7252 112.4 93.5852 113.02 93.5852 113.74C93.5852 114.46 93.7318 115.093 94.0252 115.64C94.3318 116.187 94.7518 116.613 95.2852 116.92C95.8318 117.227 96.4585 117.38 97.1652 117.38C97.7385 117.38 98.2652 117.28 98.7452 117.08C99.2252 116.867 99.6318 116.553 99.9652 116.14L100.865 117.06C100.425 117.58 99.8785 117.987 99.2252 118.28C98.5852 118.56 97.8918 118.7 97.1452 118.7ZM107.291 118.5L102.951 109.1H104.511L108.171 117.32H107.291L110.971 109.1H112.491L108.111 118.5H107.291ZM118.775 118.7C117.828 118.7 116.982 118.487 116.235 118.06C115.488 117.633 114.895 117.047 114.455 116.3C114.028 115.553 113.815 114.713 113.815 113.78C113.815 112.86 114.028 112.033 114.455 111.3C114.882 110.553 115.462 109.967 116.195 109.54C116.928 109.113 117.748 108.9 118.655 108.9C119.508 108.9 120.262 109.093 120.915 109.48C121.582 109.867 122.102 110.407 122.475 111.1C122.862 111.78 123.055 112.567 123.055 113.46C123.055 113.567 123.048 113.693 123.035 113.84C123.022 113.973 122.995 114.133 122.955 114.32H114.815V113.12H122.195L121.695 113.56C121.708 112.867 121.588 112.273 121.335 111.78C121.095 111.273 120.742 110.887 120.275 110.62C119.822 110.34 119.268 110.2 118.615 110.2C117.935 110.2 117.342 110.347 116.835 110.64C116.328 110.933 115.928 111.347 115.635 111.88C115.355 112.4 115.215 113.02 115.215 113.74C115.215 114.46 115.362 115.093 115.655 115.64C115.962 116.187 116.382 116.613 116.915 116.92C117.462 117.227 118.088 117.38 118.795 117.38C119.368 117.38 119.895 117.28 120.375 117.08C120.855 116.867 121.262 116.553 121.595 116.14L122.495 117.06C122.055 117.58 121.508 117.987 120.855 118.28C120.215 118.56 119.522 118.7 118.775 118.7ZM125.797 118.5V104.34H127.197V118.5H125.797ZM134.895 118.7C133.988 118.7 133.162 118.48 132.415 118.04C131.682 117.6 131.095 117.007 130.655 116.26C130.228 115.513 130.015 114.68 130.015 113.76C130.015 112.853 130.228 112.033 130.655 111.3C131.095 110.567 131.682 109.987 132.415 109.56C133.162 109.12 133.988 108.9 134.895 108.9C135.815 108.9 136.642 109.113 137.375 109.54C138.108 109.967 138.688 110.553 139.115 111.3C139.555 112.033 139.775 112.853 139.775 113.76C139.775 114.693 139.555 115.533 139.115 116.28C138.688 117.013 138.108 117.6 137.375 118.04C136.642 118.48 135.815 118.7 134.895 118.7ZM134.895 117.34C135.562 117.34 136.148 117.187 136.655 116.88C137.175 116.573 137.582 116.147 137.875 115.6C138.182 115.053 138.335 114.44 138.335 113.76C138.335 113.08 138.182 112.48 137.875 111.96C137.582 111.427 137.175 111.007 136.655 110.7C136.148 110.393 135.562 110.24 134.895 110.24C134.242 110.24 133.655 110.393 133.135 110.7C132.615 111.007 132.208 111.427 131.915 111.96C131.622 112.48 131.475 113.08 131.475 113.76C131.475 114.453 131.622 115.073 131.915 115.62C132.208 116.153 132.615 116.573 133.135 116.88C133.655 117.187 134.242 117.34 134.895 117.34ZM147.462 118.7C146.742 118.7 146.095 118.553 145.522 118.26C144.949 117.967 144.475 117.567 144.102 117.06C143.742 116.54 143.522 115.94 143.442 115.26V112.32C143.522 111.627 143.749 111.027 144.122 110.52C144.495 110 144.969 109.6 145.542 109.32C146.129 109.04 146.769 108.9 147.462 108.9C148.329 108.9 149.109 109.12 149.802 109.56C150.495 109.987 151.042 110.573 151.442 111.32C151.855 112.053 152.062 112.887 152.062 113.82C152.062 114.74 151.862 115.567 151.462 116.3C151.062 117.033 150.509 117.62 149.802 118.06C149.109 118.487 148.329 118.7 147.462 118.7ZM142.602 122.46V109.1H144.002V111.5L143.722 113.78L144.002 116.08V122.46H142.602ZM147.222 117.36C147.889 117.36 148.475 117.213 148.982 116.92C149.489 116.613 149.882 116.193 150.162 115.66C150.455 115.113 150.602 114.493 150.602 113.8C150.602 113.093 150.455 112.473 150.162 111.94C149.882 111.407 149.489 110.987 148.982 110.68C148.475 110.373 147.895 110.22 147.242 110.22C146.589 110.22 146.009 110.373 145.502 110.68C145.009 110.987 144.622 111.407 144.342 111.94C144.062 112.473 143.922 113.093 143.922 113.8C143.922 114.493 144.062 115.113 144.342 115.66C144.622 116.193 145.009 116.613 145.502 116.92C145.995 117.213 146.569 117.36 147.222 117.36ZM154.901 118.5V109.1H156.301V118.5H154.901ZM161.361 118.5V112.74C161.361 111.967 161.128 111.353 160.661 110.9C160.195 110.433 159.608 110.2 158.901 110.2C158.421 110.2 157.981 110.307 157.581 110.52C157.195 110.72 156.881 111.007 156.641 111.38C156.415 111.753 156.301 112.2 156.301 112.72L155.661 112.46C155.661 111.74 155.821 111.113 156.141 110.58C156.461 110.047 156.888 109.633 157.421 109.34C157.968 109.047 158.581 108.9 159.261 108.9C159.928 108.9 160.521 109.047 161.041 109.34C161.575 109.633 161.995 110.047 162.301 110.58C162.621 111.113 162.781 111.747 162.781 112.48V118.5H161.361ZM167.841 118.5V112.74C167.841 111.967 167.608 111.353 167.141 110.9C166.675 110.433 166.081 110.2 165.361 110.2C164.895 110.2 164.461 110.307 164.061 110.52C163.675 110.72 163.361 111.007 163.121 111.38C162.895 111.753 162.781 112.2 162.781 112.72L161.941 112.46C161.981 111.74 162.168 111.113 162.501 110.58C162.848 110.047 163.295 109.633 163.841 109.34C164.401 109.047 165.015 108.9 165.681 108.9C166.348 108.9 166.948 109.047 167.481 109.34C168.028 109.633 168.455 110.047 168.761 110.58C169.081 111.113 169.241 111.747 169.241 112.48V118.5H167.841ZM176.814 118.7C175.867 118.7 175.021 118.487 174.274 118.06C173.527 117.633 172.934 117.047 172.494 116.3C172.067 115.553 171.854 114.713 171.854 113.78C171.854 112.86 172.067 112.033 172.494 111.3C172.921 110.553 173.501 109.967 174.234 109.54C174.967 109.113 175.787 108.9 176.694 108.9C177.547 108.9 178.301 109.093 178.954 109.48C179.621 109.867 180.141 110.407 180.514 111.1C180.901 111.78 181.094 112.567 181.094 113.46C181.094 113.567 181.087 113.693 181.074 113.84C181.061 113.973 181.034 114.133 180.994 114.32H172.854V113.12H180.234L179.734 113.56C179.747 112.867 179.627 112.273 179.374 111.78C179.134 111.273 178.781 110.887 178.314 110.62C177.861 110.34 177.307 110.2 176.654 110.2C175.974 110.2 175.381 110.347 174.874 110.64C174.367 110.933 173.967 111.347 173.674 111.88C173.394 112.4 173.254 113.02 173.254 113.74C173.254 114.46 173.401 115.093 173.694 115.64C174.001 116.187 174.421 116.613 174.954 116.92C175.501 117.227 176.127 117.38 176.834 117.38C177.407 117.38 177.934 117.28 178.414 117.08C178.894 116.867 179.301 116.553 179.634 116.14L180.534 117.06C180.094 117.58 179.547 117.987 178.894 118.28C178.254 118.56 177.561 118.7 176.814 118.7ZM190.676 118.5V112.98C190.676 112.153 190.429 111.487 189.936 110.98C189.456 110.46 188.816 110.2 188.016 110.2C187.469 110.2 186.989 110.32 186.576 110.56C186.162 110.8 185.836 111.127 185.596 111.54C185.356 111.953 185.236 112.427 185.236 112.96L184.596 112.6C184.596 111.893 184.762 111.26 185.096 110.7C185.429 110.14 185.876 109.7 186.436 109.38C187.009 109.06 187.662 108.9 188.396 108.9C189.116 108.9 189.756 109.073 190.316 109.42C190.876 109.767 191.309 110.233 191.616 110.82C191.936 111.407 192.096 112.047 192.096 112.74V118.5H190.676ZM183.836 118.5V109.1H185.236V118.5H183.836ZM196.657 118.5V105.14H198.057V118.5H196.657ZM194.277 110.36V109.1H200.417V110.36H194.277Z" fill="#010101" fill-opacity="0.8"/>
<path d="M358.854 98.8536C359.049 98.6583 359.049 98.3417 358.854 98.1464L355.672 94.9645C355.476 94.7692 355.16 94.7692 354.964 94.9645C354.769 95.1597 354.769 95.4763 354.964 95.6716L357.793 98.5L354.964 101.328C354.769 101.524 354.769 101.84 354.964 102.036C355.16 102.231 355.476 102.231 355.672 102.036L358.854 98.8536ZM326 98.5V99H358.5V98.5V98H326V98.5Z" fill="black" fill-opacity="0.2"/>
<rect x="358.5" y="0.5" width="352" height="196" rx="10" fill="white"/>
<rect x="359" y="1" width="351" height="195" rx="9.5" stroke="black" stroke-opacity="0.2"/>
<rect x="382.5" y="16.5" width="304" height="82" rx="10" fill="white"/>
<rect x="383" y="17" width="303" height="81" rx="9.5" stroke="black" stroke-opacity="0.2"/>
<g clip-path="url(#clip0_3489_9002)">
<path d="M446.258 50.2324C447.627 50.2324 448.786 51.2424 448.786 52.5371V66.7852C448.786 68.0798 447.627 69.0898 446.258 69.0898H423.856C422.487 69.0898 421.328 68.0798 421.328 66.7852V52.5371L421.342 52.2979C421.474 51.1201 422.573 50.2324 423.856 50.2324H446.258ZM423.856 51.373C423.105 51.373 422.538 51.919 422.538 52.5371V66.7852C422.538 67.4033 423.105 67.9492 423.856 67.9492H446.258C447.009 67.9492 447.576 67.4033 447.576 66.7852V52.5371C447.576 51.919 447.009 51.3731 446.258 51.373H423.856Z" fill="#B15252" stroke="#B15252" stroke-width="0.5"/>
<path d="M431.767 55.0293C432.236 54.7947 432.784 54.7981 433.249 55.0322H433.259L433.316 55.0645L439.355 58.4521C439.81 58.7072 440.095 59.158 440.095 59.6641C440.095 60.17 439.81 60.6209 439.355 60.876L433.316 64.2637C433.066 64.4043 432.787 64.4746 432.509 64.4746C432.255 64.4745 432.001 64.416 431.767 64.2988C431.273 64.0514 430.961 63.5872 430.961 63.0518V56.2764C430.961 55.7412 431.272 55.2768 431.766 55.0293H431.767ZM432.509 55.9951C432.45 55.9951 432.39 56.0085 432.335 56.0361C432.222 56.093 432.171 56.1852 432.171 56.2764V63.0518C432.171 63.1429 432.222 63.2351 432.335 63.292L432.425 63.3232C432.517 63.3437 432.613 63.3307 432.696 63.2842L438.735 59.8965C438.84 59.8376 438.885 59.7522 438.885 59.6641C438.885 59.5755 438.84 59.4904 438.735 59.4316L432.696 56.0439L432.693 56.042C432.636 56.0106 432.572 55.9951 432.509 55.9951Z" fill="#B15252" stroke="#B15252" stroke-width="0.5"/>
<path d="M438.299 37.9297C440.973 37.9297 443.193 39.8975 443.193 42.3691V48.8301C443.193 49.1685 442.897 49.4004 442.588 49.4004C442.279 49.4002 441.983 49.1684 441.983 48.8301V45.1396H416.277V74.3457H438.299C440.355 74.3457 441.983 72.8418 441.983 71.0469V70.3076C441.983 69.9693 442.279 69.7375 442.588 69.7373C442.897 69.7373 443.193 69.9692 443.193 70.3076V71.0469C443.193 73.5184 440.973 75.4853 438.299 75.4854H406.504C403.83 75.4854 401.61 73.5184 401.609 71.0469V42.3691L401.616 42.1387C401.749 39.7762 403.913 37.9297 406.504 37.9297H438.299ZM402.819 71.0469C402.819 72.8418 404.448 74.3457 406.504 74.3457H415.067V45.1396H402.819V71.0469ZM406.504 39.0703C404.448 39.0703 402.819 40.5741 402.819 42.3691V43.999H441.983V42.3691C441.983 40.5741 440.355 39.0703 438.299 39.0703H406.504Z" fill="#B15252" stroke="#B15252" stroke-width="0.5"/>
<path d="M408.215 39.4277C409.437 39.4278 410.477 40.3301 410.477 41.4922C410.477 42.6542 409.437 43.5566 408.215 43.5566C406.992 43.5566 405.953 42.6542 405.953 41.4922C405.953 40.3301 406.992 39.4277 408.215 39.4277ZM408.215 40.5684C407.61 40.5684 407.163 41.0066 407.163 41.4922C407.163 41.9777 407.61 42.416 408.215 42.416C408.819 42.416 409.267 41.9777 409.267 41.4922C409.267 41.0067 408.819 40.5684 408.215 40.5684Z" fill="#B15252" stroke="#B15252" stroke-width="0.5"/>
<path d="M411.522 49.3574C411.832 49.3574 412.128 49.5893 412.128 49.9277C412.128 50.2661 411.832 50.498 411.522 50.498H406.371C406.062 50.498 405.766 50.2661 405.766 49.9277C405.766 49.5893 406.062 49.3574 406.371 49.3574H411.522Z" fill="#B15252" stroke="#B15252" stroke-width="0.5"/>
<path d="M411.522 59.1719C411.832 59.1719 412.128 59.4037 412.128 59.7422C412.128 60.0806 411.832 60.3125 411.522 60.3125H406.371C406.062 60.3125 405.766 60.0806 405.766 59.7422C405.766 59.4037 406.062 59.1719 406.371 59.1719H411.522Z" fill="#B15252" stroke="#B15252" stroke-width="0.5"/>
<path d="M411.522 68.9883C411.832 68.9883 412.128 69.2201 412.128 69.5586C412.128 69.897 411.832 70.1289 411.522 70.1289H406.371C406.062 70.1289 405.766 69.897 405.766 69.5586C405.766 69.2201 406.062 68.9883 406.371 68.9883H411.522Z" fill="#B15252" stroke="#B15252" stroke-width="0.5"/>
</g>
<path d="M461.26 52.5V38.74H462.72V52.5H461.26ZM462.22 52.5V51.16H469.8V52.5H462.22ZM476.446 52.7C475.499 52.7 474.653 52.4867 473.906 52.06C473.159 51.6333 472.566 51.0467 472.126 50.3C471.699 49.5533 471.486 48.7133 471.486 47.78C471.486 46.86 471.699 46.0333 472.126 45.3C472.553 44.5533 473.133 43.9667 473.866 43.54C474.599 43.1133 475.419 42.9 476.326 42.9C477.179 42.9 477.933 43.0933 478.586 43.48C479.253 43.8667 479.773 44.4067 480.146 45.1C480.533 45.78 480.726 46.5667 480.726 47.46C480.726 47.5667 480.719 47.6933 480.706 47.84C480.693 47.9733 480.666 48.1333 480.626 48.32H472.486V47.12H479.866L479.366 47.56C479.379 46.8667 479.259 46.2733 479.006 45.78C478.766 45.2733 478.413 44.8867 477.946 44.62C477.493 44.34 476.939 44.2 476.286 44.2C475.606 44.2 475.013 44.3467 474.506 44.64C473.999 44.9333 473.599 45.3467 473.306 45.88C473.026 46.4 472.886 47.02 472.886 47.74C472.886 48.46 473.033 49.0933 473.326 49.64C473.633 50.1867 474.053 50.6133 474.586 50.92C475.133 51.2267 475.759 51.38 476.466 51.38C477.039 51.38 477.566 51.28 478.046 51.08C478.526 50.8667 478.933 50.5533 479.266 50.14L480.166 51.06C479.726 51.58 479.179 51.9867 478.526 52.28C477.886 52.56 477.193 52.7 476.446 52.7ZM487.548 52.7C486.654 52.7 485.854 52.4867 485.148 52.06C484.441 51.62 483.881 51.0333 483.468 50.3C483.068 49.5667 482.868 48.74 482.868 47.82C482.868 46.8867 483.068 46.0533 483.468 45.32C483.881 44.5733 484.441 43.9867 485.148 43.56C485.854 43.12 486.648 42.9 487.528 42.9C488.248 42.9 488.888 43.0467 489.448 43.34C490.021 43.62 490.481 44.02 490.828 44.54C491.188 45.0467 491.408 45.64 491.488 46.32V49.26C491.408 49.94 491.188 50.54 490.828 51.06C490.481 51.58 490.021 51.9867 489.448 52.28C488.888 52.56 488.254 52.7 487.548 52.7ZM487.768 51.36C488.741 51.36 489.521 51.0333 490.108 50.38C490.708 49.7267 491.008 48.8667 491.008 47.8C491.008 47.0933 490.868 46.4733 490.588 45.94C490.321 45.3933 489.941 44.9733 489.448 44.68C488.968 44.3733 488.401 44.22 487.748 44.22C487.081 44.22 486.488 44.3733 485.968 44.68C485.461 44.9867 485.054 45.4133 484.748 45.96C484.454 46.4933 484.308 47.1067 484.308 47.8C484.308 48.4933 484.454 49.1067 484.748 49.64C485.054 50.1733 485.468 50.5933 485.988 50.9C486.508 51.2067 487.101 51.36 487.768 51.36ZM490.928 52.5V49.98L491.208 47.66L490.928 45.4V43.1H492.328V52.5H490.928ZM495.767 52.5V43.1H497.167V52.5H495.767ZM497.167 47.02L496.587 46.76C496.587 45.5733 496.874 44.6333 497.447 43.94C498.034 43.2467 498.834 42.9 499.847 42.9C500.314 42.9 500.74 42.9867 501.127 43.16C501.514 43.32 501.874 43.58 502.207 43.94L501.287 44.92C501.06 44.6667 500.807 44.4867 500.527 44.38C500.26 44.2733 499.954 44.22 499.607 44.22C498.887 44.22 498.3 44.46 497.847 44.94C497.394 45.4067 497.167 46.1 497.167 47.02ZM511.215 52.5V46.98C511.215 46.1533 510.968 45.4867 510.475 44.98C509.995 44.46 509.355 44.2 508.555 44.2C508.008 44.2 507.528 44.32 507.115 44.56C506.701 44.8 506.375 45.1267 506.135 45.54C505.895 45.9533 505.775 46.4267 505.775 46.96L505.135 46.6C505.135 45.8933 505.301 45.26 505.635 44.7C505.968 44.14 506.415 43.7 506.975 43.38C507.548 43.06 508.201 42.9 508.935 42.9C509.655 42.9 510.295 43.0733 510.855 43.42C511.415 43.7667 511.848 44.2333 512.155 44.82C512.475 45.4067 512.635 46.0467 512.635 46.74V52.5H511.215ZM504.375 52.5V43.1H505.775V52.5H504.375ZM515.854 52.5V43.1H517.274V52.5H515.854ZM516.554 41.06C516.287 41.06 516.06 40.9667 515.874 40.78C515.687 40.58 515.594 40.3467 515.594 40.08C515.594 39.8 515.687 39.5667 515.874 39.38C516.06 39.1933 516.287 39.1 516.554 39.1C516.847 39.1 517.08 39.1933 517.254 39.38C517.44 39.5667 517.534 39.8 517.534 40.08C517.534 40.3467 517.44 40.58 517.254 40.78C517.08 40.9667 516.847 41.06 516.554 41.06ZM527.551 52.5V46.98C527.551 46.1533 527.305 45.4867 526.811 44.98C526.331 44.46 525.691 44.2 524.891 44.2C524.345 44.2 523.865 44.32 523.451 44.56C523.038 44.8 522.711 45.1267 522.471 45.54C522.231 45.9533 522.111 46.4267 522.111 46.96L521.471 46.6C521.471 45.8933 521.638 45.26 521.971 44.7C522.305 44.14 522.751 43.7 523.311 43.38C523.885 43.06 524.538 42.9 525.271 42.9C525.991 42.9 526.631 43.0733 527.191 43.42C527.751 43.7667 528.185 44.2333 528.491 44.82C528.811 45.4067 528.971 46.0467 528.971 46.74V52.5H527.551ZM520.711 52.5V43.1H522.111V52.5H520.711ZM536.07 56.66C535.124 56.66 534.277 56.48 533.53 56.12C532.797 55.7733 532.204 55.28 531.75 54.64L532.67 53.72C533.044 54.2267 533.517 54.62 534.09 54.9C534.664 55.18 535.337 55.32 536.11 55.32C537.177 55.32 538.024 55.0333 538.65 54.46C539.29 53.8867 539.61 53.1067 539.61 52.12V49.78L539.89 47.64L539.61 45.52V43.1H541.01V52.12C541.01 53.0267 540.804 53.82 540.39 54.5C539.977 55.18 539.397 55.7067 538.65 56.08C537.917 56.4667 537.057 56.66 536.07 56.66ZM536.17 52.4C535.304 52.4 534.524 52.1933 533.83 51.78C533.137 51.3667 532.59 50.8 532.19 50.08C531.79 49.36 531.59 48.5467 531.59 47.64C531.59 46.7333 531.784 45.9267 532.17 45.22C532.57 44.5 533.117 43.9333 533.81 43.52C534.504 43.1067 535.284 42.9 536.15 42.9C536.884 42.9 537.537 43.04 538.11 43.32C538.697 43.6 539.164 44 539.51 44.52C539.87 45.0267 540.09 45.6267 540.17 46.32V48.98C540.09 49.66 539.87 50.26 539.51 50.78C539.15 51.2867 538.684 51.6867 538.11 51.98C537.537 52.26 536.89 52.4 536.17 52.4ZM536.43 51.06C537.084 51.06 537.65 50.92 538.13 50.64C538.624 50.36 539.004 49.9667 539.27 49.46C539.55 48.94 539.69 48.3333 539.69 47.64C539.69 46.96 539.55 46.3667 539.27 45.86C539.004 45.3533 538.624 44.9533 538.13 44.66C537.637 44.3667 537.064 44.22 536.41 44.22C535.757 44.22 535.17 44.3667 534.65 44.66C534.144 44.9533 533.744 45.3533 533.45 45.86C533.17 46.3667 533.03 46.96 533.03 47.64C533.03 48.3067 533.177 48.9 533.47 49.42C533.764 49.94 534.164 50.3467 534.67 50.64C535.177 50.92 535.764 51.06 536.43 51.06ZM461.26 77.5V63.74H462.3L468.24 73.48H467.5L473.44 63.74H474.48V77.5H473V66.3L473.34 66.38L468.38 74.52H467.34L462.38 66.38L462.72 66.3V77.5H461.26ZM482.319 77.7C481.425 77.7 480.625 77.4867 479.919 77.06C479.212 76.62 478.652 76.0333 478.239 75.3C477.839 74.5667 477.639 73.74 477.639 72.82C477.639 71.8867 477.839 71.0533 478.239 70.32C478.652 69.5733 479.212 68.9867 479.919 68.56C480.625 68.12 481.419 67.9 482.299 67.9C483.019 67.9 483.659 68.0467 484.219 68.34C484.792 68.62 485.252 69.02 485.599 69.54C485.959 70.0467 486.179 70.64 486.259 71.32V74.26C486.179 74.94 485.959 75.54 485.599 76.06C485.252 76.58 484.792 76.9867 484.219 77.28C483.659 77.56 483.025 77.7 482.319 77.7ZM482.539 76.36C483.512 76.36 484.292 76.0333 484.879 75.38C485.479 74.7267 485.779 73.8667 485.779 72.8C485.779 72.0933 485.639 71.4733 485.359 70.94C485.092 70.3933 484.712 69.9733 484.219 69.68C483.739 69.3733 483.172 69.22 482.519 69.22C481.852 69.22 481.259 69.3733 480.739 69.68C480.232 69.9867 479.825 70.4133 479.519 70.96C479.225 71.4933 479.079 72.1067 479.079 72.8C479.079 73.4933 479.225 74.1067 479.519 74.64C479.825 75.1733 480.239 75.5933 480.759 75.9C481.279 76.2067 481.872 76.36 482.539 76.36ZM485.699 77.5V74.98L485.979 72.66L485.699 70.4V68.1H487.099V77.5H485.699ZM497.378 77.5V71.98C497.378 71.1533 497.131 70.4867 496.638 69.98C496.158 69.46 495.518 69.2 494.718 69.2C494.171 69.2 493.691 69.32 493.278 69.56C492.865 69.8 492.538 70.1267 492.298 70.54C492.058 70.9533 491.938 71.4267 491.938 71.96L491.298 71.6C491.298 70.8933 491.465 70.26 491.798 69.7C492.131 69.14 492.578 68.7 493.138 68.38C493.711 68.06 494.365 67.9 495.098 67.9C495.818 67.9 496.458 68.0733 497.018 68.42C497.578 68.7667 498.011 69.2333 498.318 69.82C498.638 70.4067 498.798 71.0467 498.798 71.74V77.5H497.378ZM490.538 77.5V68.1H491.938V77.5H490.538ZM506.097 77.7C505.204 77.7 504.404 77.4867 503.697 77.06C502.99 76.62 502.43 76.0333 502.017 75.3C501.617 74.5667 501.417 73.74 501.417 72.82C501.417 71.8867 501.617 71.0533 502.017 70.32C502.43 69.5733 502.99 68.9867 503.697 68.56C504.404 68.12 505.197 67.9 506.077 67.9C506.797 67.9 507.437 68.0467 507.997 68.34C508.57 68.62 509.03 69.02 509.377 69.54C509.737 70.0467 509.957 70.64 510.037 71.32V74.26C509.957 74.94 509.737 75.54 509.377 76.06C509.03 76.58 508.57 76.9867 507.997 77.28C507.437 77.56 506.804 77.7 506.097 77.7ZM506.317 76.36C507.29 76.36 508.07 76.0333 508.657 75.38C509.257 74.7267 509.557 73.8667 509.557 72.8C509.557 72.0933 509.417 71.4733 509.137 70.94C508.87 70.3933 508.49 69.9733 507.997 69.68C507.517 69.3733 506.95 69.22 506.297 69.22C505.63 69.22 505.037 69.3733 504.517 69.68C504.01 69.9867 503.604 70.4133 503.297 70.96C503.004 71.4933 502.857 72.1067 502.857 72.8C502.857 73.4933 503.004 74.1067 503.297 74.64C503.604 75.1733 504.017 75.5933 504.537 75.9C505.057 76.2067 505.65 76.36 506.317 76.36ZM509.477 77.5V74.98L509.757 72.66L509.477 70.4V68.1H510.877V77.5H509.477ZM518.196 81.66C517.249 81.66 516.403 81.48 515.656 81.12C514.923 80.7733 514.329 80.28 513.876 79.64L514.796 78.72C515.169 79.2267 515.643 79.62 516.216 79.9C516.789 80.18 517.463 80.32 518.236 80.32C519.303 80.32 520.149 80.0333 520.776 79.46C521.416 78.8867 521.736 78.1067 521.736 77.12V74.78L522.016 72.64L521.736 70.52V68.1H523.136V77.12C523.136 78.0267 522.929 78.82 522.516 79.5C522.103 80.18 521.523 80.7067 520.776 81.08C520.043 81.4667 519.183 81.66 518.196 81.66ZM518.296 77.4C517.429 77.4 516.649 77.1933 515.956 76.78C515.263 76.3667 514.716 75.8 514.316 75.08C513.916 74.36 513.716 73.5467 513.716 72.64C513.716 71.7333 513.909 70.9267 514.296 70.22C514.696 69.5 515.243 68.9333 515.936 68.52C516.629 68.1067 517.409 67.9 518.276 67.9C519.009 67.9 519.663 68.04 520.236 68.32C520.823 68.6 521.289 69 521.636 69.52C521.996 70.0267 522.216 70.6267 522.296 71.32V73.98C522.216 74.66 521.996 75.26 521.636 75.78C521.276 76.2867 520.809 76.6867 520.236 76.98C519.663 77.26 519.016 77.4 518.296 77.4ZM518.556 76.06C519.209 76.06 519.776 75.92 520.256 75.64C520.749 75.36 521.129 74.9667 521.396 74.46C521.676 73.94 521.816 73.3333 521.816 72.64C521.816 71.96 521.676 71.3667 521.396 70.86C521.129 70.3533 520.749 69.9533 520.256 69.66C519.763 69.3667 519.189 69.22 518.536 69.22C517.883 69.22 517.296 69.3667 516.776 69.66C516.269 69.9533 515.869 70.3533 515.576 70.86C515.296 71.3667 515.156 71.96 515.156 72.64C515.156 73.3067 515.303 73.9 515.596 74.42C515.889 74.94 516.289 75.3467 516.796 75.64C517.303 75.92 517.889 76.06 518.556 76.06ZM530.897 77.7C529.95 77.7 529.103 77.4867 528.357 77.06C527.61 76.6333 527.017 76.0467 526.577 75.3C526.15 74.5533 525.937 73.7133 525.937 72.78C525.937 71.86 526.15 71.0333 526.577 70.3C527.003 69.5533 527.583 68.9667 528.317 68.54C529.05 68.1133 529.87 67.9 530.777 67.9C531.63 67.9 532.383 68.0933 533.037 68.48C533.703 68.8667 534.223 69.4067 534.597 70.1C534.983 70.78 535.177 71.5667 535.177 72.46C535.177 72.5667 535.17 72.6933 535.157 72.84C535.143 72.9733 535.117 73.1333 535.077 73.32H526.937V72.12H534.317L533.817 72.56C533.83 71.8667 533.71 71.2733 533.457 70.78C533.217 70.2733 532.863 69.8867 532.397 69.62C531.943 69.34 531.39 69.2 530.737 69.2C530.057 69.2 529.463 69.3467 528.957 69.64C528.45 69.9333 528.05 70.3467 527.757 70.88C527.477 71.4 527.337 72.02 527.337 72.74C527.337 73.46 527.483 74.0933 527.777 74.64C528.083 75.1867 528.503 75.6133 529.037 75.92C529.583 76.2267 530.21 76.38 530.917 76.38C531.49 76.38 532.017 76.28 532.497 76.08C532.977 75.8667 533.383 75.5533 533.717 75.14L534.617 76.06C534.177 76.58 533.63 76.9867 532.977 77.28C532.337 77.56 531.643 77.7 530.897 77.7ZM537.918 77.5V68.1H539.318V77.5H537.918ZM544.378 77.5V71.74C544.378 70.9667 544.145 70.3533 543.678 69.9C543.212 69.4333 542.625 69.2 541.918 69.2C541.438 69.2 540.998 69.3067 540.598 69.52C540.212 69.72 539.898 70.0067 539.658 70.38C539.432 70.7533 539.318 71.2 539.318 71.72L538.678 71.46C538.678 70.74 538.838 70.1133 539.158 69.58C539.478 69.0467 539.905 68.6333 540.438 68.34C540.985 68.0467 541.598 67.9 542.278 67.9C542.945 67.9 543.538 68.0467 544.058 68.34C544.592 68.6333 545.012 69.0467 545.318 69.58C545.638 70.1133 545.798 70.7467 545.798 71.48V77.5H544.378ZM550.858 77.5V71.74C550.858 70.9667 550.625 70.3533 550.158 69.9C549.692 69.4333 549.098 69.2 548.378 69.2C547.912 69.2 547.478 69.3067 547.078 69.52C546.692 69.72 546.378 70.0067 546.138 70.38C545.912 70.7533 545.798 71.2 545.798 71.72L544.958 71.46C544.998 70.74 545.185 70.1133 545.518 69.58C545.865 69.0467 546.312 68.6333 546.858 68.34C547.418 68.0467 548.032 67.9 548.698 67.9C549.365 67.9 549.965 68.0467 550.498 68.34C551.045 68.6333 551.472 69.0467 551.778 69.58C552.098 70.1133 552.258 70.7467 552.258 71.48V77.5H550.858ZM559.831 77.7C558.884 77.7 558.038 77.4867 557.291 77.06C556.544 76.6333 555.951 76.0467 555.511 75.3C555.084 74.5533 554.871 73.7133 554.871 72.78C554.871 71.86 555.084 71.0333 555.511 70.3C555.938 69.5533 556.518 68.9667 557.251 68.54C557.984 68.1133 558.804 67.9 559.711 67.9C560.564 67.9 561.318 68.0933 561.971 68.48C562.638 68.8667 563.158 69.4067 563.531 70.1C563.918 70.78 564.111 71.5667 564.111 72.46C564.111 72.5667 564.104 72.6933 564.091 72.84C564.078 72.9733 564.051 73.1333 564.011 73.32H555.871V72.12H563.251L562.751 72.56C562.764 71.8667 562.644 71.2733 562.391 70.78C562.151 70.2733 561.798 69.8867 561.331 69.62C560.878 69.34 560.324 69.2 559.671 69.2C558.991 69.2 558.398 69.3467 557.891 69.64C557.384 69.9333 556.984 70.3467 556.691 70.88C556.411 71.4 556.271 72.02 556.271 72.74C556.271 73.46 556.418 74.0933 556.711 74.64C557.018 75.1867 557.438 75.6133 557.971 75.92C558.518 76.2267 559.144 76.38 559.851 76.38C560.424 76.38 560.951 76.28 561.431 76.08C561.911 75.8667 562.318 75.5533 562.651 75.14L563.551 76.06C563.111 76.58 562.564 76.9867 561.911 77.28C561.271 77.56 560.578 77.7 559.831 77.7ZM573.693 77.5V71.98C573.693 71.1533 573.446 70.4867 572.953 69.98C572.473 69.46 571.833 69.2 571.033 69.2C570.486 69.2 570.006 69.32 569.593 69.56C569.179 69.8 568.853 70.1267 568.613 70.54C568.373 70.9533 568.253 71.4267 568.253 71.96L567.613 71.6C567.613 70.8933 567.779 70.26 568.113 69.7C568.446 69.14 568.893 68.7 569.453 68.38C570.026 68.06 570.679 67.9 571.413 67.9C572.133 67.9 572.773 68.0733 573.333 68.42C573.893 68.7667 574.326 69.2333 574.633 69.82C574.953 70.4067 575.113 71.0467 575.113 71.74V77.5H573.693ZM566.853 77.5V68.1H568.253V77.5H566.853ZM579.675 77.5V64.14H581.075V77.5H579.675ZM577.295 69.36V68.1H583.435V69.36H577.295ZM595 77.7C593.933 77.7 593.013 77.5 592.24 77.1C591.467 76.6867 590.787 76.1133 590.2 75.38L591.22 74.38C591.687 75.0333 592.227 75.52 592.84 75.84C593.467 76.16 594.207 76.32 595.06 76.32C595.94 76.32 596.653 76.12 597.2 75.72C597.747 75.32 598.02 74.7667 598.02 74.06C598.02 73.5133 597.893 73.0667 597.64 72.72C597.387 72.36 597.053 72.0733 596.64 71.86C596.24 71.6333 595.793 71.4333 595.3 71.26C594.807 71.0867 594.313 70.9067 593.82 70.72C593.34 70.52 592.893 70.2733 592.48 69.98C592.067 69.6867 591.733 69.3133 591.48 68.86C591.24 68.4067 591.12 67.8267 591.12 67.12C591.12 66.3733 591.3 65.7333 591.66 65.2C592.02 64.6667 592.513 64.26 593.14 63.98C593.767 63.6867 594.48 63.54 595.28 63.54C596.173 63.54 596.967 63.7133 597.66 64.06C598.367 64.4067 598.953 64.8733 599.42 65.46L598.42 66.46C597.993 65.9533 597.527 65.5667 597.02 65.3C596.513 65.0333 595.92 64.9 595.24 64.9C594.44 64.9 593.8 65.0867 593.32 65.46C592.84 65.8333 592.6 66.3533 592.6 67.02C592.6 67.54 592.72 67.96 592.96 68.28C593.213 68.6 593.547 68.8667 593.96 69.08C594.373 69.2933 594.82 69.4867 595.3 69.66C595.793 69.82 596.287 70 596.78 70.2C597.273 70.4 597.72 70.6533 598.12 70.96C598.533 71.2667 598.867 71.66 599.12 72.14C599.373 72.6067 599.5 73.2067 599.5 73.94C599.5 75.1267 599.093 76.0533 598.28 76.72C597.48 77.3733 596.387 77.7 595 77.7ZM605.244 77.54L601.124 68.1H602.664L605.984 75.98H605.404L608.904 68.1H610.464L606.044 77.54H605.244ZM602.684 81.46L605.264 76.12L606.044 77.54L604.224 81.46H602.684ZM615.428 77.7C614.921 77.7 614.435 77.6333 613.968 77.5C613.501 77.3533 613.075 77.1533 612.688 76.9C612.315 76.6467 611.988 76.3467 611.708 76L612.608 75.08C612.981 75.5333 613.401 75.8733 613.868 76.1C614.348 76.3133 614.881 76.42 615.468 76.42C616.095 76.42 616.581 76.3 616.928 76.06C617.288 75.82 617.468 75.4867 617.468 75.06C617.468 74.66 617.341 74.3467 617.088 74.12C616.835 73.8933 616.508 73.7133 616.108 73.58C615.721 73.4467 615.308 73.32 614.868 73.2C614.428 73.0667 614.008 72.9067 613.608 72.72C613.208 72.52 612.881 72.2467 612.628 71.9C612.388 71.5533 612.268 71.1 612.268 70.54C612.268 70.0067 612.395 69.5467 612.648 69.16C612.915 68.76 613.288 68.4533 613.768 68.24C614.261 68.0133 614.841 67.9 615.508 67.9C616.215 67.9 616.855 68.0267 617.428 68.28C618.001 68.5333 618.461 68.9067 618.808 69.4L617.908 70.3C617.628 69.94 617.275 69.6667 616.848 69.48C616.435 69.28 615.968 69.18 615.448 69.18C614.848 69.18 614.388 69.3 614.068 69.54C613.761 69.7667 613.608 70.0667 613.608 70.44C613.608 70.8 613.735 71.0867 613.988 71.3C614.241 71.5 614.561 71.6667 614.948 71.8C615.348 71.92 615.768 72.0467 616.208 72.18C616.648 72.3 617.068 72.4667 617.468 72.68C617.868 72.88 618.188 73.16 618.428 73.52C618.681 73.8667 618.808 74.34 618.808 74.94C618.808 75.78 618.501 76.4533 617.888 76.96C617.288 77.4533 616.468 77.7 615.428 77.7ZM623.085 77.5V64.14H624.485V77.5H623.085ZM620.705 69.36V68.1H626.845V69.36H620.705ZM633.381 77.7C632.434 77.7 631.588 77.4867 630.841 77.06C630.094 76.6333 629.501 76.0467 629.061 75.3C628.634 74.5533 628.421 73.7133 628.421 72.78C628.421 71.86 628.634 71.0333 629.061 70.3C629.488 69.5533 630.068 68.9667 630.801 68.54C631.534 68.1133 632.354 67.9 633.261 67.9C634.114 67.9 634.868 68.0933 635.521 68.48C636.188 68.8667 636.708 69.4067 637.081 70.1C637.468 70.78 637.661 71.5667 637.661 72.46C637.661 72.5667 637.654 72.6933 637.641 72.84C637.628 72.9733 637.601 73.1333 637.561 73.32H629.421V72.12H636.801L636.301 72.56C636.314 71.8667 636.194 71.2733 635.941 70.78C635.701 70.2733 635.348 69.8867 634.881 69.62C634.428 69.34 633.874 69.2 633.221 69.2C632.541 69.2 631.948 69.3467 631.441 69.64C630.934 69.9333 630.534 70.3467 630.241 70.88C629.961 71.4 629.821 72.02 629.821 72.74C629.821 73.46 629.968 74.0933 630.261 74.64C630.568 75.1867 630.988 75.6133 631.521 75.92C632.068 76.2267 632.694 76.38 633.401 76.38C633.974 76.38 634.501 76.28 634.981 76.08C635.461 75.8667 635.868 75.5533 636.201 75.14L637.101 76.06C636.661 76.58 636.114 76.9867 635.461 77.28C634.821 77.56 634.128 77.7 633.381 77.7ZM640.403 77.5V68.1H641.803V77.5H640.403ZM646.863 77.5V71.74C646.863 70.9667 646.629 70.3533 646.163 69.9C645.696 69.4333 645.109 69.2 644.403 69.2C643.923 69.2 643.483 69.3067 643.083 69.52C642.696 69.72 642.383 70.0067 642.143 70.38C641.916 70.7533 641.803 71.2 641.803 71.72L641.163 71.46C641.163 70.74 641.323 70.1133 641.643 69.58C641.963 69.0467 642.389 68.6333 642.923 68.34C643.469 68.0467 644.083 67.9 644.763 67.9C645.429 67.9 646.023 68.0467 646.543 68.34C647.076 68.6333 647.496 69.0467 647.803 69.58C648.123 70.1133 648.283 70.7467 648.283 71.48V77.5H646.863ZM653.343 77.5V71.74C653.343 70.9667 653.109 70.3533 652.643 69.9C652.176 69.4333 651.583 69.2 650.863 69.2C650.396 69.2 649.963 69.3067 649.563 69.52C649.176 69.72 648.863 70.0067 648.623 70.38C648.396 70.7533 648.283 71.2 648.283 71.72L647.443 71.46C647.483 70.74 647.669 70.1133 648.003 69.58C648.349 69.0467 648.796 68.6333 649.343 68.34C649.903 68.0467 650.516 67.9 651.183 67.9C651.849 67.9 652.449 68.0467 652.983 68.34C653.529 68.6333 653.956 69.0467 654.263 69.58C654.583 70.1133 654.743 70.7467 654.743 71.48V77.5H653.343Z" fill="#010101" fill-opacity="0.8"/>
<g filter="url(#filter0_d_3489_9002)">
<g clip-path="url(#clip1_3489_9002)">
<rect x="423.5" y="122.5" width="58" height="58" rx="29" fill="white"/>
<path d="M344.114 166.255C425.911 130.27 416.807 211.155 481.125 107.07C531.087 26.2161 610.787 -27.1175 718.522 36.9459C722.459 37.3215 893.701 176.163 874.53 228.082C839.423 323.161 198.378 500.25 193.123 475.836C187.868 451.423 246.073 278.649 278.352 221.607C293.843 194.231 326.065 174.195 344.114 166.255Z" fill="url(#paint0_radial_3489_9002)"/>
<path d="M432.276 159V145.24H433.736V159H432.276ZM441.296 159V145.24H442.756V159H441.296ZM433.236 152.56V151.22H441.696V152.56H433.236ZM447.82 152.84V151.6H451.82C452.727 151.6 453.42 151.373 453.9 150.92C454.38 150.453 454.62 149.833 454.62 149.06C454.62 148.313 454.38 147.707 453.9 147.24C453.42 146.76 452.727 146.52 451.82 146.52H447.82V145.24H451.82C452.713 145.24 453.48 145.407 454.12 145.74C454.76 146.06 455.247 146.507 455.58 147.08C455.927 147.653 456.1 148.307 456.1 149.04C456.1 149.8 455.927 150.467 455.58 151.04C455.247 151.613 454.76 152.06 454.12 152.38C453.48 152.687 452.713 152.84 451.82 152.84H447.82ZM446.88 159V145.24H448.34V159H446.88ZM455.2 159L450.04 152.64L451.46 152.18L457.08 159H455.2ZM459.863 159V145.24H461.323V159H459.863ZM468.97 159.2C467.903 159.2 466.983 159 466.21 158.6C465.436 158.187 464.756 157.613 464.17 156.88L465.19 155.88C465.656 156.533 466.196 157.02 466.81 157.34C467.436 157.66 468.176 157.82 469.03 157.82C469.91 157.82 470.623 157.62 471.17 157.22C471.716 156.82 471.99 156.267 471.99 155.56C471.99 155.013 471.863 154.567 471.61 154.22C471.356 153.86 471.023 153.573 470.61 153.36C470.21 153.133 469.763 152.933 469.27 152.76C468.776 152.587 468.283 152.407 467.79 152.22C467.31 152.02 466.863 151.773 466.45 151.48C466.036 151.187 465.703 150.813 465.45 150.36C465.21 149.907 465.09 149.327 465.09 148.62C465.09 147.873 465.27 147.233 465.63 146.7C465.99 146.167 466.483 145.76 467.11 145.48C467.736 145.187 468.45 145.04 469.25 145.04C470.143 145.04 470.936 145.213 471.63 145.56C472.336 145.907 472.923 146.373 473.39 146.96L472.39 147.96C471.963 147.453 471.496 147.067 470.99 146.8C470.483 146.533 469.89 146.4 469.21 146.4C468.41 146.4 467.77 146.587 467.29 146.96C466.81 147.333 466.57 147.853 466.57 148.52C466.57 149.04 466.69 149.46 466.93 149.78C467.183 150.1 467.516 150.367 467.93 150.58C468.343 150.793 468.79 150.987 469.27 151.16C469.763 151.32 470.256 151.5 470.75 151.7C471.243 151.9 471.69 152.153 472.09 152.46C472.503 152.767 472.836 153.16 473.09 153.64C473.343 154.107 473.47 154.707 473.47 155.44C473.47 156.627 473.063 157.553 472.25 158.22C471.45 158.873 470.356 159.2 468.97 159.2Z" fill="black"/>
</g>
<rect x="423.75" y="122.75" width="57.5" height="57.5" rx="28.75" stroke="black" stroke-opacity="0.2" stroke-width="0.5"/>
</g>
<g filter="url(#filter1_d_3489_9002)">
<g clip-path="url(#clip2_3489_9002)">
<rect x="505.5" y="122.5" width="58" height="58" rx="29" fill="white"/>
<path d="M426.114 166.255C507.911 130.27 498.807 211.155 563.125 107.07C613.087 26.2161 692.787 -27.1175 800.522 36.9459C804.459 37.3215 975.701 176.163 956.53 228.082C921.423 323.161 280.378 500.25 275.123 475.836C269.868 451.423 328.073 278.649 360.352 221.607C375.843 194.231 408.065 174.195 426.114 166.255Z" fill="url(#paint1_radial_3489_9002)"/>
<path d="M517.496 159V145.24H518.956V159H517.496ZM518.456 159V157.66H526.556V159H518.456ZM518.456 152.6V151.3H525.916V152.6H518.456ZM518.456 146.58V145.24H526.436V146.58H518.456ZM530.813 152.84V151.6H534.813C535.72 151.6 536.413 151.373 536.893 150.92C537.373 150.453 537.613 149.833 537.613 149.06C537.613 148.313 537.373 147.707 536.893 147.24C536.413 146.76 535.72 146.52 534.813 146.52H530.813V145.24H534.813C535.707 145.24 536.473 145.407 537.113 145.74C537.753 146.06 538.24 146.507 538.573 147.08C538.92 147.653 539.093 148.307 539.093 149.04C539.093 149.8 538.92 150.467 538.573 151.04C538.24 151.613 537.753 152.06 537.113 152.38C536.473 152.687 535.707 152.84 534.813 152.84H530.813ZM529.873 159V145.24H531.333V159H529.873ZM538.193 159L533.033 152.64L534.453 152.18L540.073 159H538.193ZM543.796 153.48V152.18H547.856C548.416 152.18 548.916 152.067 549.356 151.84C549.809 151.613 550.163 151.293 550.416 150.88C550.683 150.453 550.816 149.947 550.816 149.36C550.816 148.773 550.683 148.273 550.416 147.86C550.163 147.433 549.809 147.107 549.356 146.88C548.916 146.64 548.416 146.52 547.856 146.52H543.796V145.24H547.956C548.783 145.24 549.523 145.413 550.176 145.76C550.829 146.093 551.343 146.567 551.716 147.18C552.103 147.793 552.296 148.52 552.296 149.36C552.296 150.187 552.103 150.913 551.716 151.54C551.343 152.153 550.829 152.633 550.176 152.98C549.523 153.313 548.783 153.48 547.956 153.48H543.796ZM542.856 159V145.24H544.316V159H542.856Z" fill="black"/>
</g>
<rect x="505.75" y="122.75" width="57.5" height="57.5" rx="28.75" stroke="black" stroke-opacity="0.2" stroke-width="0.5"/>
</g>
<g filter="url(#filter2_d_3489_9002)">
<g clip-path="url(#clip3_3489_9002)">
<rect x="587.5" y="122.5" width="58" height="58" rx="29" fill="white"/>
<path d="M508.114 166.255C589.911 130.27 580.807 211.155 645.125 107.07C695.087 26.2161 774.787 -27.1175 882.522 36.9459C886.459 37.3215 1057.7 176.163 1038.53 228.082C1003.42 323.161 362.378 500.25 357.123 475.836C351.868 451.423 410.073 278.649 442.352 221.607C457.843 194.231 490.065 174.195 508.114 166.255Z" fill="url(#paint2_radial_3489_9002)"/>
<path d="M602.916 159.2C601.929 159.2 601.009 159.02 600.156 158.66C599.316 158.3 598.582 157.793 597.956 157.14C597.329 156.487 596.842 155.733 596.496 154.88C596.162 154.013 595.996 153.087 595.996 152.1C595.996 151.113 596.162 150.193 596.496 149.34C596.842 148.473 597.322 147.72 597.936 147.08C598.562 146.44 599.296 145.94 600.136 145.58C600.976 145.22 601.882 145.04 602.856 145.04C603.909 145.04 604.849 145.227 605.676 145.6C606.516 145.973 607.249 146.487 607.876 147.14L606.876 148.14C606.396 147.607 605.816 147.193 605.136 146.9C604.456 146.593 603.696 146.44 602.856 146.44C602.082 146.44 601.369 146.58 600.716 146.86C600.076 147.14 599.509 147.54 599.016 148.06C598.536 148.567 598.162 149.167 597.896 149.86C597.642 150.54 597.516 151.287 597.516 152.1C597.516 152.913 597.649 153.667 597.916 154.36C598.182 155.053 598.556 155.66 599.036 156.18C599.516 156.687 600.082 157.08 600.736 157.36C601.389 157.64 602.102 157.78 602.876 157.78C603.756 157.78 604.536 157.627 605.216 157.32C605.909 157.013 606.496 156.593 606.976 156.06L607.976 157.08C607.362 157.733 606.629 158.253 605.776 158.64C604.922 159.013 603.969 159.2 602.916 159.2ZM612.083 152.84V151.6H616.083C616.989 151.6 617.683 151.373 618.163 150.92C618.643 150.453 618.883 149.833 618.883 149.06C618.883 148.313 618.643 147.707 618.163 147.24C617.683 146.76 616.989 146.52 616.083 146.52H612.083V145.24H616.083C616.976 145.24 617.743 145.407 618.383 145.74C619.023 146.06 619.509 146.507 619.843 147.08C620.189 147.653 620.363 148.307 620.363 149.04C620.363 149.8 620.189 150.467 619.843 151.04C619.509 151.613 619.023 152.06 618.383 152.38C617.743 152.687 616.976 152.84 616.083 152.84H612.083ZM611.143 159V145.24H612.603V159H611.143ZM619.463 159L614.303 152.64L615.723 152.18L621.343 159H619.463ZM624.126 159V145.24H625.166L631.106 154.98H630.366L636.306 145.24H637.346V159H635.866V147.8L636.206 147.88L631.246 156.02H630.206L625.246 147.88L625.586 147.8V159H624.126Z" fill="black"/>
</g>
<rect x="587.75" y="122.75" width="57.5" height="57.5" rx="28.75" stroke="black" stroke-opacity="0.2" stroke-width="0.5"/>
</g>
<path d="M743.354 98.8536C743.549 98.6583 743.549 98.3417 743.354 98.1464L740.172 94.9645C739.976 94.7692 739.66 94.7692 739.464 94.9645C739.269 95.1597 739.269 95.4763 739.464 95.6716L742.293 98.5L739.464 101.328C739.269 101.524 739.269 101.84 739.464 102.036C739.66 102.231 739.976 102.231 740.172 102.036L743.354 98.8536ZM710.5 98.5V99H743V98.5V98H710.5V98.5Z" fill="black" fill-opacity="0.2"/>
<rect x="743" y="57.5" width="319" height="82" rx="10" fill="white"/>
<rect x="743.5" y="58" width="318" height="81" rx="9.5" stroke="black" stroke-opacity="0.2"/>
<path d="M802 82.9002C802.001 82.3748 801.882 81.8563 801.651 81.3856C801.419 80.9149 801.083 80.5048 800.668 80.1876C800.254 79.8705 799.772 79.655 799.26 79.5582C798.749 79.4613 798.222 79.4857 797.722 79.6295C797.221 79.7732 796.761 80.0324 796.376 80.3866C795.992 80.7407 795.694 81.1802 795.507 81.6703C795.32 82.1605 795.248 82.6878 795.296 83.2109C795.345 83.734 795.514 84.2384 795.789 84.6845L788.476 91.6621C788.071 91.3756 787.608 91.183 787.12 91.0981C786.633 91.0132 786.133 91.038 785.656 91.1709C785.179 91.3038 784.737 91.5414 784.362 91.8667C783.986 92.192 783.686 92.5971 783.484 93.0529L777.814 91.7774C777.814 91.7571 777.814 91.7401 777.814 91.7198C777.814 91.1906 777.692 90.6687 777.457 90.1958C777.222 89.7229 776.881 89.312 776.46 88.9961C776.04 88.6801 775.552 88.4679 775.036 88.3763C774.52 88.2847 773.99 88.3163 773.488 88.4685C772.986 88.6208 772.527 88.8895 772.146 89.2531C771.765 89.6168 771.474 90.0653 771.296 90.5629C771.118 91.0604 771.057 91.5932 771.119 92.1186C771.181 92.6441 771.364 93.1475 771.653 93.5888L764.212 101.102C763.799 100.826 763.331 100.646 762.84 100.575C762.35 100.503 761.85 100.542 761.376 100.688C760.903 100.834 760.467 101.085 760.1 101.421C759.733 101.758 759.445 102.172 759.255 102.634C759.066 103.096 758.98 103.595 759.004 104.095C759.028 104.595 759.161 105.083 759.393 105.525C759.626 105.966 759.953 106.35 760.349 106.65C760.746 106.949 761.204 107.156 761.69 107.256V116.143H759.674C759.496 116.143 759.325 116.215 759.199 116.342C759.073 116.469 759.002 116.642 759.002 116.822C759.002 117.002 759.073 117.174 759.199 117.301C759.325 117.429 759.496 117.5 759.674 117.5H801.328C801.506 117.5 801.677 117.429 801.803 117.301C801.929 117.174 802 117.002 802 116.822C802 116.642 801.929 116.469 801.803 116.342C801.677 116.215 801.506 116.143 801.328 116.143H799.313V86.2245C800.071 86.0681 800.753 85.6518 801.243 85.046C801.733 84.4403 802 83.6822 802 82.9002ZM798.641 80.865C799.039 80.865 799.429 80.9843 799.761 81.208C800.092 81.4316 800.35 81.7495 800.503 82.1214C800.655 82.4933 800.695 82.9025 800.618 83.2973C800.54 83.6921 800.348 84.0548 800.066 84.3394C799.784 84.624 799.425 84.8179 799.034 84.8964C798.643 84.9749 798.238 84.9346 797.869 84.7806C797.501 84.6265 797.186 84.3657 796.965 84.031C796.743 83.6963 796.625 83.3028 796.625 82.9002C796.625 82.3604 796.838 81.8428 797.216 81.4611C797.594 81.0794 798.106 80.865 798.641 80.865ZM786.548 92.3982C786.946 92.3982 787.336 92.5176 787.667 92.7412C787.999 92.9649 788.257 93.2827 788.41 93.6546C788.562 94.0265 788.602 94.4358 788.524 94.8306C788.447 95.2254 788.255 95.588 787.973 95.8727C787.691 96.1573 787.332 96.3511 786.941 96.4297C786.55 96.5082 786.145 96.4679 785.776 96.3138C785.408 96.1598 785.093 95.8989 784.872 95.5642C784.65 95.2295 784.532 94.836 784.532 94.4335C784.532 93.8937 784.744 93.376 785.122 92.9943C785.5 92.6126 786.013 92.3982 786.548 92.3982ZM783.188 94.3758V94.4335C783.188 95.2155 783.456 95.9735 783.945 96.5793C784.435 97.1851 785.117 97.6014 785.876 97.7578V116.143H775.126V95.0441C775.649 94.9357 776.139 94.7032 776.554 94.3658C776.97 94.0283 777.301 93.5957 777.518 93.1038L783.188 94.3758ZM774.455 89.6845C774.853 89.6845 775.243 89.8039 775.574 90.0275C775.906 90.2511 776.164 90.569 776.317 90.9409C776.469 91.3128 776.509 91.722 776.431 92.1168C776.354 92.5117 776.162 92.8743 775.88 93.1589C775.598 93.4436 775.239 93.6374 774.848 93.716C774.457 93.7945 774.052 93.7542 773.683 93.6001C773.315 93.4461 773 93.1852 772.779 92.8505C772.557 92.5158 772.439 92.1223 772.439 91.7198C772.439 91.18 772.651 90.6623 773.029 90.2806C773.407 89.8989 773.92 89.6845 774.455 89.6845ZM760.346 103.931C760.346 103.529 760.464 103.135 760.686 102.801C760.907 102.466 761.222 102.205 761.59 102.051C761.958 101.897 762.364 101.857 762.755 101.935C763.146 102.014 763.505 102.208 763.787 102.492C764.068 102.777 764.26 103.14 764.338 103.534C764.416 103.929 764.376 104.338 764.224 104.71C764.071 105.082 763.813 105.4 763.481 105.624C763.15 105.847 762.76 105.967 762.361 105.967C761.827 105.967 761.314 105.752 760.936 105.371C760.558 104.989 760.346 104.471 760.346 103.931ZM763.033 107.256C763.572 107.145 764.075 106.902 764.498 106.549C764.922 106.196 765.254 105.743 765.464 105.23C765.674 104.718 765.757 104.161 765.704 103.608C765.652 103.056 765.466 102.525 765.163 102.062L772.604 94.5488C772.961 94.789 773.362 94.9571 773.783 95.0441V116.143H763.033V107.256ZM787.22 116.143V97.7578C787.749 97.6479 788.245 97.4105 788.664 97.0657C789.084 96.7209 789.415 96.279 789.629 95.7775C789.843 95.276 789.934 94.7297 789.894 94.185C789.854 93.6404 789.684 93.1135 789.4 92.6492L796.713 85.675C797.089 85.9438 797.517 86.1309 797.969 86.2245V116.143H787.22Z" fill="#B15252"/>
<path d="M813.76 93.5V79.74H815.22V93.5H813.76ZM814.72 93.5V92.16H822.3V93.5H814.72ZM828.946 93.7C827.999 93.7 827.153 93.4867 826.406 93.06C825.659 92.6333 825.066 92.0467 824.626 91.3C824.199 90.5533 823.986 89.7133 823.986 88.78C823.986 87.86 824.199 87.0333 824.626 86.3C825.053 85.5533 825.633 84.9667 826.366 84.54C827.099 84.1133 827.919 83.9 828.826 83.9C829.679 83.9 830.433 84.0933 831.086 84.48C831.753 84.8667 832.273 85.4067 832.646 86.1C833.033 86.78 833.226 87.5667 833.226 88.46C833.226 88.5667 833.219 88.6933 833.206 88.84C833.193 88.9733 833.166 89.1333 833.126 89.32H824.986V88.12H832.366L831.866 88.56C831.879 87.8667 831.759 87.2733 831.506 86.78C831.266 86.2733 830.913 85.8867 830.446 85.62C829.993 85.34 829.439 85.2 828.786 85.2C828.106 85.2 827.513 85.3467 827.006 85.64C826.499 85.9333 826.099 86.3467 825.806 86.88C825.526 87.4 825.386 88.02 825.386 88.74C825.386 89.46 825.533 90.0933 825.826 90.64C826.133 91.1867 826.553 91.6133 827.086 91.92C827.633 92.2267 828.259 92.38 828.966 92.38C829.539 92.38 830.066 92.28 830.546 92.08C831.026 91.8667 831.433 91.5533 831.766 91.14L832.666 92.06C832.226 92.58 831.679 92.9867 831.026 93.28C830.386 93.56 829.693 93.7 828.946 93.7ZM840.048 93.7C839.154 93.7 838.354 93.4867 837.648 93.06C836.941 92.62 836.381 92.0333 835.968 91.3C835.568 90.5667 835.368 89.74 835.368 88.82C835.368 87.8867 835.568 87.0533 835.968 86.32C836.381 85.5733 836.941 84.9867 837.648 84.56C838.354 84.12 839.148 83.9 840.028 83.9C840.748 83.9 841.388 84.0467 841.948 84.34C842.521 84.62 842.981 85.02 843.328 85.54C843.688 86.0467 843.908 86.64 843.988 87.32V90.26C843.908 90.94 843.688 91.54 843.328 92.06C842.981 92.58 842.521 92.9867 841.948 93.28C841.388 93.56 840.754 93.7 840.048 93.7ZM840.268 92.36C841.241 92.36 842.021 92.0333 842.608 91.38C843.208 90.7267 843.508 89.8667 843.508 88.8C843.508 88.0933 843.368 87.4733 843.088 86.94C842.821 86.3933 842.441 85.9733 841.948 85.68C841.468 85.3733 840.901 85.22 840.248 85.22C839.581 85.22 838.988 85.3733 838.468 85.68C837.961 85.9867 837.554 86.4133 837.248 86.96C836.954 87.4933 836.808 88.1067 836.808 88.8C836.808 89.4933 836.954 90.1067 837.248 90.64C837.554 91.1733 837.968 91.5933 838.488 91.9C839.008 92.2067 839.601 92.36 840.268 92.36ZM843.428 93.5V90.98L843.708 88.66L843.428 86.4V84.1H844.828V93.5H843.428ZM848.267 93.5V84.1H849.667V93.5H848.267ZM849.667 88.02L849.087 87.76C849.087 86.5733 849.374 85.6333 849.947 84.94C850.534 84.2467 851.334 83.9 852.347 83.9C852.814 83.9 853.24 83.9867 853.627 84.16C854.014 84.32 854.374 84.58 854.707 84.94L853.787 85.92C853.56 85.6667 853.307 85.4867 853.027 85.38C852.76 85.2733 852.454 85.22 852.107 85.22C851.387 85.22 850.8 85.46 850.347 85.94C849.894 86.4067 849.667 87.1 849.667 88.02ZM863.715 93.5V87.98C863.715 87.1533 863.468 86.4867 862.975 85.98C862.495 85.46 861.855 85.2 861.055 85.2C860.508 85.2 860.028 85.32 859.615 85.56C859.201 85.8 858.875 86.1267 858.635 86.54C858.395 86.9533 858.275 87.4267 858.275 87.96L857.635 87.6C857.635 86.8933 857.801 86.26 858.135 85.7C858.468 85.14 858.915 84.7 859.475 84.38C860.048 84.06 860.701 83.9 861.435 83.9C862.155 83.9 862.795 84.0733 863.355 84.42C863.915 84.7667 864.348 85.2333 864.655 85.82C864.975 86.4067 865.135 87.0467 865.135 87.74V93.5H863.715ZM856.875 93.5V84.1H858.275V93.5H856.875ZM868.354 93.5V84.1H869.774V93.5H868.354ZM869.054 82.06C868.787 82.06 868.56 81.9667 868.374 81.78C868.187 81.58 868.094 81.3467 868.094 81.08C868.094 80.8 868.187 80.5667 868.374 80.38C868.56 80.1933 868.787 80.1 869.054 80.1C869.347 80.1 869.58 80.1933 869.754 80.38C869.94 80.5667 870.034 80.8 870.034 81.08C870.034 81.3467 869.94 81.58 869.754 81.78C869.58 81.9667 869.347 82.06 869.054 82.06ZM880.051 93.5V87.98C880.051 87.1533 879.805 86.4867 879.311 85.98C878.831 85.46 878.191 85.2 877.391 85.2C876.845 85.2 876.365 85.32 875.951 85.56C875.538 85.8 875.211 86.1267 874.971 86.54C874.731 86.9533 874.611 87.4267 874.611 87.96L873.971 87.6C873.971 86.8933 874.138 86.26 874.471 85.7C874.805 85.14 875.251 84.7 875.811 84.38C876.385 84.06 877.038 83.9 877.771 83.9C878.491 83.9 879.131 84.0733 879.691 84.42C880.251 84.7667 880.685 85.2333 880.991 85.82C881.311 86.4067 881.471 87.0467 881.471 87.74V93.5H880.051ZM873.211 93.5V84.1H874.611V93.5H873.211ZM888.57 97.66C887.624 97.66 886.777 97.48 886.03 97.12C885.297 96.7733 884.704 96.28 884.25 95.64L885.17 94.72C885.544 95.2267 886.017 95.62 886.59 95.9C887.164 96.18 887.837 96.32 888.61 96.32C889.677 96.32 890.524 96.0333 891.15 95.46C891.79 94.8867 892.11 94.1067 892.11 93.12V90.78L892.39 88.64L892.11 86.52V84.1H893.51V93.12C893.51 94.0267 893.304 94.82 892.89 95.5C892.477 96.18 891.897 96.7067 891.15 97.08C890.417 97.4667 889.557 97.66 888.57 97.66ZM888.67 93.4C887.804 93.4 887.024 93.1933 886.33 92.78C885.637 92.3667 885.09 91.8 884.69 91.08C884.29 90.36 884.09 89.5467 884.09 88.64C884.09 87.7333 884.284 86.9267 884.67 86.22C885.07 85.5 885.617 84.9333 886.31 84.52C887.004 84.1067 887.784 83.9 888.65 83.9C889.384 83.9 890.037 84.04 890.61 84.32C891.197 84.6 891.664 85 892.01 85.52C892.37 86.0267 892.59 86.6267 892.67 87.32V89.98C892.59 90.66 892.37 91.26 892.01 91.78C891.65 92.2867 891.184 92.6867 890.61 92.98C890.037 93.26 889.39 93.4 888.67 93.4ZM888.93 92.06C889.584 92.06 890.15 91.92 890.63 91.64C891.124 91.36 891.504 90.9667 891.77 90.46C892.05 89.94 892.19 89.3333 892.19 88.64C892.19 87.96 892.05 87.3667 891.77 86.86C891.504 86.3533 891.124 85.9533 890.63 85.66C890.137 85.3667 889.564 85.22 888.91 85.22C888.257 85.22 887.67 85.3667 887.15 85.66C886.644 85.9533 886.244 86.3533 885.95 86.86C885.67 87.3667 885.53 87.96 885.53 88.64C885.53 89.3067 885.677 89.9 885.97 90.42C886.264 90.94 886.664 91.3467 887.17 91.64C887.677 91.92 888.264 92.06 888.93 92.06ZM900.581 93.5L906.221 79.74H907.321L912.901 93.5H911.321L906.461 81.34H907.041L902.141 93.5H900.581ZM903.161 89.92V88.62H910.361V89.92H903.161ZM922.51 93.5V87.98C922.51 87.1533 922.263 86.4867 921.77 85.98C921.29 85.46 920.65 85.2 919.85 85.2C919.303 85.2 918.823 85.32 918.41 85.56C917.997 85.8 917.67 86.1267 917.43 86.54C917.19 86.9533 917.07 87.4267 917.07 87.96L916.43 87.6C916.43 86.8933 916.597 86.26 916.93 85.7C917.263 85.14 917.71 84.7 918.27 84.38C918.843 84.06 919.497 83.9 920.23 83.9C920.95 83.9 921.59 84.0733 922.15 84.42C922.71 84.7667 923.143 85.2333 923.45 85.82C923.77 86.4067 923.93 87.0467 923.93 87.74V93.5H922.51ZM915.67 93.5V84.1H917.07V93.5H915.67ZM931.229 93.7C930.336 93.7 929.536 93.4867 928.829 93.06C928.122 92.62 927.562 92.0333 927.149 91.3C926.749 90.5667 926.549 89.74 926.549 88.82C926.549 87.8867 926.749 87.0533 927.149 86.32C927.562 85.5733 928.122 84.9867 928.829 84.56C929.536 84.12 930.329 83.9 931.209 83.9C931.929 83.9 932.569 84.0467 933.129 84.34C933.702 84.62 934.162 85.02 934.509 85.54C934.869 86.0467 935.089 86.64 935.169 87.32V90.26C935.089 90.94 934.869 91.54 934.509 92.06C934.162 92.58 933.702 92.9867 933.129 93.28C932.569 93.56 931.936 93.7 931.229 93.7ZM931.449 92.36C932.422 92.36 933.202 92.0333 933.789 91.38C934.389 90.7267 934.689 89.8667 934.689 88.8C934.689 88.0933 934.549 87.4733 934.269 86.94C934.002 86.3933 933.622 85.9733 933.129 85.68C932.649 85.3733 932.082 85.22 931.429 85.22C930.762 85.22 930.169 85.3733 929.649 85.68C929.142 85.9867 928.736 86.4133 928.429 86.96C928.136 87.4933 927.989 88.1067 927.989 88.8C927.989 89.4933 928.136 90.1067 928.429 90.64C928.736 91.1733 929.149 91.5933 929.669 91.9C930.189 92.2067 930.782 92.36 931.449 92.36ZM934.609 93.5V90.98L934.889 88.66L934.609 86.4V84.1H936.009V93.5H934.609ZM939.448 93.5V79.34H940.848V93.5H939.448ZM947.426 93.54L943.306 84.1H944.846L948.166 91.98H947.586L951.086 84.1H952.646L948.226 93.54H947.426ZM944.866 97.46L947.446 92.12L948.226 93.54L946.406 97.46H944.866ZM956.385 93.5V80.14H957.785V93.5H956.385ZM954.005 85.36V84.1H960.145V85.36H954.005ZM962.674 93.5V84.1H964.094V93.5H962.674ZM963.374 82.06C963.107 82.06 962.881 81.9667 962.694 81.78C962.507 81.58 962.414 81.3467 962.414 81.08C962.414 80.8 962.507 80.5667 962.694 80.38C962.881 80.1933 963.107 80.1 963.374 80.1C963.667 80.1 963.901 80.1933 964.074 80.38C964.261 80.5667 964.354 80.8 964.354 81.08C964.354 81.3467 964.261 81.58 964.074 81.78C963.901 81.9667 963.667 82.06 963.374 82.06ZM971.812 93.7C970.892 93.7 970.058 93.4867 969.312 93.06C968.578 92.62 967.992 92.0267 967.552 91.28C967.125 90.5333 966.912 89.7 966.912 88.78C966.912 87.86 967.125 87.0333 967.552 86.3C967.992 85.5533 968.578 84.9667 969.312 84.54C970.058 84.1133 970.892 83.9 971.812 83.9C972.518 83.9 973.178 84.0333 973.792 84.3C974.405 84.5667 974.925 84.94 975.352 85.42L974.432 86.36C974.112 86 973.725 85.7267 973.272 85.54C972.818 85.34 972.332 85.24 971.812 85.24C971.145 85.24 970.552 85.3933 970.032 85.7C969.512 86.0067 969.105 86.4267 968.812 86.96C968.518 87.48 968.372 88.0867 968.372 88.78C968.372 89.46 968.518 90.0733 968.812 90.62C969.105 91.1533 969.512 91.5733 970.032 91.88C970.552 92.1867 971.145 92.34 971.812 92.34C972.345 92.34 972.838 92.2467 973.292 92.06C973.745 91.86 974.132 91.58 974.452 91.22L975.392 92.16C974.952 92.6533 974.418 93.0333 973.792 93.3C973.178 93.5667 972.518 93.7 971.812 93.7ZM980.836 93.7C980.329 93.7 979.843 93.6333 979.376 93.5C978.909 93.3533 978.483 93.1533 978.096 92.9C977.723 92.6467 977.396 92.3467 977.116 92L978.016 91.08C978.389 91.5333 978.809 91.8733 979.276 92.1C979.756 92.3133 980.289 92.42 980.876 92.42C981.503 92.42 981.989 92.3 982.336 92.06C982.696 91.82 982.876 91.4867 982.876 91.06C982.876 90.66 982.749 90.3467 982.496 90.12C982.243 89.8933 981.916 89.7133 981.516 89.58C981.129 89.4467 980.716 89.32 980.276 89.2C979.836 89.0667 979.416 88.9067 979.016 88.72C978.616 88.52 978.289 88.2467 978.036 87.9C977.796 87.5533 977.676 87.1 977.676 86.54C977.676 86.0067 977.803 85.5467 978.056 85.16C978.323 84.76 978.696 84.4533 979.176 84.24C979.669 84.0133 980.249 83.9 980.916 83.9C981.623 83.9 982.263 84.0267 982.836 84.28C983.409 84.5333 983.869 84.9067 984.216 85.4L983.316 86.3C983.036 85.94 982.683 85.6667 982.256 85.48C981.843 85.28 981.376 85.18 980.856 85.18C980.256 85.18 979.796 85.3 979.476 85.54C979.169 85.7667 979.016 86.0667 979.016 86.44C979.016 86.8 979.143 87.0867 979.396 87.3C979.649 87.5 979.969 87.6667 980.356 87.8C980.756 87.92 981.176 88.0467 981.616 88.18C982.056 88.3 982.476 88.4667 982.876 88.68C983.276 88.88 983.596 89.16 983.836 89.52C984.089 89.8667 984.216 90.34 984.216 90.94C984.216 91.78 983.909 92.4533 983.296 92.96C982.696 93.4533 981.876 93.7 980.836 93.7ZM1001.43 93.5L994.789 86.52C994.256 85.9467 993.856 85.4 993.589 84.88C993.336 84.3467 993.209 83.78 993.209 83.18C993.209 82.4733 993.369 81.8467 993.689 81.3C994.009 80.7533 994.456 80.32 995.029 80C995.603 79.68 996.263 79.52 997.009 79.52C997.529 79.52 998.009 79.6067 998.449 79.78C998.889 79.94 999.283 80.16 999.629 80.44C999.976 80.72 1000.27 81.0467 1000.51 81.42L999.489 82.34C999.169 81.8867 998.809 81.5333 998.409 81.28C998.009 81.0267 997.543 80.9 997.009 80.9C996.316 80.9 995.743 81.1133 995.289 81.54C994.849 81.9533 994.629 82.5 994.629 83.18C994.629 83.6733 994.736 84.1133 994.949 84.5C995.163 84.8733 995.503 85.3067 995.969 85.8L1003.21 93.5H1001.43ZM996.269 93.7C995.389 93.7 994.616 93.5267 993.949 93.18C993.283 92.82 992.756 92.3333 992.369 91.72C991.996 91.0933 991.809 90.3867 991.809 89.6C991.809 88.7467 992.036 87.9733 992.489 87.28C992.956 86.5867 993.596 86.0467 994.409 85.66L995.109 86.54C994.536 86.82 994.076 87.2267 993.729 87.76C993.396 88.28 993.229 88.88 993.229 89.56C993.229 90.12 993.363 90.6133 993.629 91.04C993.896 91.4533 994.263 91.78 994.729 92.02C995.196 92.2467 995.729 92.36 996.329 92.36C997.036 92.36 997.663 92.2 998.209 91.88C998.756 91.56 999.169 91.1533 999.449 90.66L1000.37 91.7C1000.1 92.1 999.756 92.4533 999.329 92.76C998.916 93.0533 998.449 93.2867 997.929 93.46C997.409 93.62 996.856 93.7 996.269 93.7ZM819.96 118.7C818.987 118.7 818.08 118.52 817.24 118.16C816.413 117.787 815.687 117.28 815.06 116.64C814.433 115.987 813.94 115.233 813.58 114.38C813.233 113.513 813.06 112.587 813.06 111.6C813.06 110.6 813.233 109.673 813.58 108.82C813.927 107.967 814.413 107.22 815.04 106.58C815.667 105.94 816.393 105.44 817.22 105.08C818.047 104.72 818.947 104.54 819.92 104.54C820.893 104.54 821.793 104.72 822.62 105.08C823.46 105.44 824.193 105.94 824.82 106.58C825.447 107.22 825.933 107.973 826.28 108.84C826.627 109.693 826.8 110.62 826.8 111.62C826.8 112.607 826.627 113.533 826.28 114.4C825.933 115.253 825.447 116 824.82 116.64C824.207 117.28 823.487 117.787 822.66 118.16C821.833 118.52 820.933 118.7 819.96 118.7ZM819.92 117.28C820.96 117.28 821.88 117.033 822.68 116.54C823.493 116.047 824.127 115.373 824.58 114.52C825.047 113.667 825.28 112.693 825.28 111.6C825.28 110.787 825.147 110.04 824.88 109.36C824.613 108.667 824.24 108.067 823.76 107.56C823.28 107.04 822.713 106.64 822.06 106.36C821.42 106.08 820.707 105.94 819.92 105.94C818.893 105.94 817.973 106.187 817.16 106.68C816.36 107.16 815.727 107.827 815.26 108.68C814.807 109.533 814.58 110.507 814.58 111.6C814.58 112.413 814.713 113.167 814.98 113.86C815.247 114.553 815.62 115.16 816.1 115.68C816.58 116.187 817.147 116.58 817.8 116.86C818.453 117.14 819.16 117.28 819.92 117.28ZM834.759 118.7C834.039 118.7 833.392 118.553 832.819 118.26C832.246 117.967 831.772 117.567 831.399 117.06C831.039 116.54 830.819 115.94 830.739 115.26V112.32C830.819 111.627 831.046 111.027 831.419 110.52C831.792 110 832.266 109.6 832.839 109.32C833.426 109.04 834.066 108.9 834.759 108.9C835.626 108.9 836.406 109.12 837.099 109.56C837.792 109.987 838.339 110.573 838.739 111.32C839.152 112.053 839.359 112.887 839.359 113.82C839.359 114.74 839.159 115.567 838.759 116.3C838.359 117.033 837.806 117.62 837.099 118.06C836.406 118.487 835.626 118.7 834.759 118.7ZM829.899 122.46V109.1H831.299V111.5L831.019 113.78L831.299 116.08V122.46H829.899ZM834.519 117.36C835.186 117.36 835.772 117.213 836.279 116.92C836.786 116.613 837.179 116.193 837.459 115.66C837.752 115.113 837.899 114.493 837.899 113.8C837.899 113.093 837.752 112.473 837.459 111.94C837.179 111.407 836.786 110.987 836.279 110.68C835.772 110.373 835.192 110.22 834.539 110.22C833.886 110.22 833.306 110.373 832.799 110.68C832.306 110.987 831.919 111.407 831.639 111.94C831.359 112.473 831.219 113.093 831.219 113.8C831.219 114.493 831.359 115.113 831.639 115.66C831.919 116.193 832.306 116.613 832.799 116.92C833.292 117.213 833.866 117.36 834.519 117.36ZM843.326 118.5V105.14H844.726V118.5H843.326ZM840.946 110.36V109.1H847.086V110.36H840.946ZM849.615 118.5V109.1H851.035V118.5H849.615ZM850.315 107.06C850.048 107.06 849.821 106.967 849.635 106.78C849.448 106.58 849.355 106.347 849.355 106.08C849.355 105.8 849.448 105.567 849.635 105.38C849.821 105.193 850.048 105.1 850.315 105.1C850.608 105.1 850.841 105.193 851.015 105.38C851.201 105.567 851.295 105.8 851.295 106.08C851.295 106.347 851.201 106.58 851.015 106.78C850.841 106.967 850.608 107.06 850.315 107.06ZM854.472 118.5V109.1H855.872V118.5H854.472ZM860.932 118.5V112.74C860.932 111.967 860.699 111.353 860.232 110.9C859.766 110.433 859.179 110.2 858.472 110.2C857.992 110.2 857.552 110.307 857.152 110.52C856.766 110.72 856.452 111.007 856.212 111.38C855.986 111.753 855.872 112.2 855.872 112.72L855.232 112.46C855.232 111.74 855.392 111.113 855.712 110.58C856.032 110.047 856.459 109.633 856.992 109.34C857.539 109.047 858.152 108.9 858.832 108.9C859.499 108.9 860.092 109.047 860.612 109.34C861.146 109.633 861.566 110.047 861.872 110.58C862.192 111.113 862.352 111.747 862.352 112.48V118.5H860.932ZM867.412 118.5V112.74C867.412 111.967 867.179 111.353 866.712 110.9C866.246 110.433 865.652 110.2 864.932 110.2C864.466 110.2 864.032 110.307 863.632 110.52C863.246 110.72 862.932 111.007 862.692 111.38C862.466 111.753 862.352 112.2 862.352 112.72L861.512 112.46C861.552 111.74 861.739 111.113 862.072 110.58C862.419 110.047 862.866 109.633 863.412 109.34C863.972 109.047 864.586 108.9 865.252 108.9C865.919 108.9 866.519 109.047 867.052 109.34C867.599 109.633 868.026 110.047 868.332 110.58C868.652 111.113 868.812 111.747 868.812 112.48V118.5H867.412ZM872.045 118.5V109.1H873.465V118.5H872.045ZM872.745 107.06C872.478 107.06 872.252 106.967 872.065 106.78C871.878 106.58 871.785 106.347 871.785 106.08C871.785 105.8 871.878 105.567 872.065 105.38C872.252 105.193 872.478 105.1 872.745 105.1C873.038 105.1 873.272 105.193 873.445 105.38C873.632 105.567 873.725 105.8 873.725 106.08C873.725 106.347 873.632 106.58 873.445 106.78C873.272 106.967 873.038 107.06 872.745 107.06ZM876.083 117.72L882.023 109.86H883.683L877.743 117.72H876.083ZM876.083 118.5V117.72L877.303 117.22H883.563V118.5H876.083ZM876.423 110.36V109.1H883.683V109.86L882.363 110.36H876.423ZM890.235 118.7C889.342 118.7 888.542 118.487 887.835 118.06C887.128 117.62 886.568 117.033 886.155 116.3C885.755 115.567 885.555 114.74 885.555 113.82C885.555 112.887 885.755 112.053 886.155 111.32C886.568 110.573 887.128 109.987 887.835 109.56C888.542 109.12 889.335 108.9 890.215 108.9C890.935 108.9 891.575 109.047 892.135 109.34C892.708 109.62 893.168 110.02 893.515 110.54C893.875 111.047 894.095 111.64 894.175 112.32V115.26C894.095 115.94 893.875 116.54 893.515 117.06C893.168 117.58 892.708 117.987 892.135 118.28C891.575 118.56 890.942 118.7 890.235 118.7ZM890.455 117.36C891.428 117.36 892.208 117.033 892.795 116.38C893.395 115.727 893.695 114.867 893.695 113.8C893.695 113.093 893.555 112.473 893.275 111.94C893.008 111.393 892.628 110.973 892.135 110.68C891.655 110.373 891.088 110.22 890.435 110.22C889.768 110.22 889.175 110.373 888.655 110.68C888.148 110.987 887.742 111.413 887.435 111.96C887.142 112.493 886.995 113.107 886.995 113.8C886.995 114.493 887.142 115.107 887.435 115.64C887.742 116.173 888.155 116.593 888.675 116.9C889.195 117.207 889.788 117.36 890.455 117.36ZM893.615 118.5V115.98L893.895 113.66L893.615 111.4V109.1H895.015V118.5H893.615ZM899.836 118.5V105.14H901.236V118.5H899.836ZM897.456 110.36V109.1H903.596V110.36H897.456ZM906.125 118.5V109.1H907.545V118.5H906.125ZM906.825 107.06C906.558 107.06 906.331 106.967 906.145 106.78C905.958 106.58 905.865 106.347 905.865 106.08C905.865 105.8 905.958 105.567 906.145 105.38C906.331 105.193 906.558 105.1 906.825 105.1C907.118 105.1 907.351 105.193 907.525 105.38C907.711 105.567 907.805 105.8 907.805 106.08C907.805 106.347 907.711 106.58 907.525 106.78C907.351 106.967 907.118 107.06 906.825 107.06ZM915.243 118.7C914.336 118.7 913.509 118.48 912.763 118.04C912.029 117.6 911.443 117.007 911.003 116.26C910.576 115.513 910.363 114.68 910.363 113.76C910.363 112.853 910.576 112.033 911.003 111.3C911.443 110.567 912.029 109.987 912.763 109.56C913.509 109.12 914.336 108.9 915.243 108.9C916.163 108.9 916.989 109.113 917.723 109.54C918.456 109.967 919.036 110.553 919.463 111.3C919.903 112.033 920.122 112.853 920.122 113.76C920.122 114.693 919.903 115.533 919.463 116.28C919.036 117.013 918.456 117.6 917.723 118.04C916.989 118.48 916.163 118.7 915.243 118.7ZM915.243 117.34C915.909 117.34 916.496 117.187 917.003 116.88C917.523 116.573 917.929 116.147 918.223 115.6C918.529 115.053 918.683 114.44 918.683 113.76C918.683 113.08 918.529 112.48 918.223 111.96C917.929 111.427 917.523 111.007 917.003 110.7C916.496 110.393 915.909 110.24 915.243 110.24C914.589 110.24 914.003 110.393 913.483 110.7C912.963 111.007 912.556 111.427 912.263 111.96C911.969 112.48 911.823 113.08 911.823 113.76C911.823 114.453 911.969 115.073 912.263 115.62C912.556 116.153 912.963 116.573 913.483 116.88C914.003 117.187 914.589 117.34 915.243 117.34ZM929.79 118.5V112.98C929.79 112.153 929.543 111.487 929.05 110.98C928.57 110.46 927.93 110.2 927.13 110.2C926.583 110.2 926.103 110.32 925.69 110.56C925.276 110.8 924.95 111.127 924.71 111.54C924.47 111.953 924.35 112.427 924.35 112.96L923.71 112.6C923.71 111.893 923.876 111.26 924.21 110.7C924.543 110.14 924.99 109.7 925.55 109.38C926.123 109.06 926.776 108.9 927.51 108.9C928.23 108.9 928.87 109.073 929.43 109.42C929.99 109.767 930.423 110.233 930.73 110.82C931.05 111.407 931.21 112.047 931.21 112.74V118.5H929.79ZM922.95 118.5V109.1H924.35V118.5H922.95Z" fill="#010101" fill-opacity="0.8"/>
<defs>
<filter id="filter0_d_3489_9002" x="413.5" y="119.5" width="78" height="78" filterUnits="userSpaceOnUse" color-interpolation-filters="sRGB">
<feFlood flood-opacity="0" result="BackgroundImageFix"/>
<feColorMatrix in="SourceAlpha" type="matrix" values="0 0 0 0 0 0 0 0 0 0 0 0 0 0 0 0 0 0 127 0" result="hardAlpha"/>
<feOffset dy="7"/>
<feGaussianBlur stdDeviation="5"/>
<feComposite in2="hardAlpha" operator="out"/>
<feColorMatrix type="matrix" values="0 0 0 0 0 0 0 0 0 0 0 0 0 0 0 0 0 0 0.1 0"/>
<feBlend mode="normal" in2="BackgroundImageFix" result="effect1_dropShadow_3489_9002"/>
<feBlend mode="normal" in="SourceGraphic" in2="effect1_dropShadow_3489_9002" result="shape"/>
</filter>
<filter id="filter1_d_3489_9002" x="495.5" y="119.5" width="78" height="78" filterUnits="userSpaceOnUse" color-interpolation-filters="sRGB">
<feFlood flood-opacity="0" result="BackgroundImageFix"/>
<feColorMatrix in="SourceAlpha" type="matrix" values="0 0 0 0 0 0 0 0 0 0 0 0 0 0 0 0 0 0 127 0" result="hardAlpha"/>
<feOffset dy="7"/>
<feGaussianBlur stdDeviation="5"/>
<feComposite in2="hardAlpha" operator="out"/>
<feColorMatrix type="matrix" values="0 0 0 0 0 0 0 0 0 0 0 0 0 0 0 0 0 0 0.1 0"/>
<feBlend mode="normal" in2="BackgroundImageFix" result="effect1_dropShadow_3489_9002"/>
<feBlend mode="normal" in="SourceGraphic" in2="effect1_dropShadow_3489_9002" result="shape"/>
</filter>
<filter id="filter2_d_3489_9002" x="577.5" y="119.5" width="78" height="78" filterUnits="userSpaceOnUse" color-interpolation-filters="sRGB">
<feFlood flood-opacity="0" result="BackgroundImageFix"/>
<feColorMatrix in="SourceAlpha" type="matrix" values="0 0 0 0 0 0 0 0 0 0 0 0 0 0 0 0 0 0 127 0" result="hardAlpha"/>
<feOffset dy="7"/>
<feGaussianBlur stdDeviation="5"/>
<feComposite in2="hardAlpha" operator="out"/>
<feColorMatrix type="matrix" values="0 0 0 0 0 0 0 0 0 0 0 0 0 0 0 0 0 0 0.1 0"/>
<feBlend mode="normal" in2="BackgroundImageFix" result="effect1_dropShadow_3489_9002"/>
<feBlend mode="normal" in="SourceGraphic" in2="effect1_dropShadow_3489_9002" result="shape"/>
</filter>
<radialGradient id="paint0_radial_3489_9002" cx="0" cy="0" r="1" gradientUnits="userSpaceOnUse" gradientTransform="translate(645.305 95.7789) rotate(154.058) scale(636.23 1077.4)">
<stop stop-color="#FFD1C1"/>
<stop offset="0.5" stop-color="white"/>
<stop offset="1" stop-color="white" stop-opacity="0"/>
</radialGradient>
<radialGradient id="paint1_radial_3489_9002" cx="0" cy="0" r="1" gradientUnits="userSpaceOnUse" gradientTransform="translate(727.305 95.7789) rotate(154.058) scale(636.23 1077.4)">
<stop stop-color="#FFD1C1"/>
<stop offset="0.5" stop-color="white"/>
<stop offset="1" stop-color="white" stop-opacity="0"/>
</radialGradient>
<radialGradient id="paint2_radial_3489_9002" cx="0" cy="0" r="1" gradientUnits="userSpaceOnUse" gradientTransform="translate(809.305 95.7789) rotate(154.058) scale(636.23 1077.4)">
<stop stop-color="#FFD1C1"/>
<stop offset="0.5" stop-color="white"/>
<stop offset="1" stop-color="white" stop-opacity="0"/>
</radialGradient>
<clipPath id="clip0_3489_9002">
<rect width="51" height="46" fill="white" transform="translate(398.5 34.5)"/>
</clipPath>
<clipPath id="clip1_3489_9002">
<rect x="423.5" y="122.5" width="58" height="58" rx="29" fill="white"/>
</clipPath>
<clipPath id="clip2_3489_9002">
<rect x="505.5" y="122.5" width="58" height="58" rx="29" fill="white"/>
</clipPath>
<clipPath id="clip3_3489_9002">
<rect x="587.5" y="122.5" width="58" height="58" rx="29" fill="white"/>
</clipPath>
</defs>
</svg>
