<svg width="249" height="248" viewBox="0 0 249 248" fill="none" xmlns="http://www.w3.org/2000/svg">
<path d="M107.325 107.381C112.285 112.816 115.035 119.908 115.035 127.266V247.502C110.939 247.192 106.898 246.683 102.923 245.984V137.582C102.923 129.941 100.054 122.578 94.8848 116.95L28.957 45.1748C32.3583 41.0569 36.0218 37.1638 39.9199 33.5186L107.325 107.381ZM212.8 37.1484C215.883 40.2831 218.801 43.581 221.539 47.0283L157.314 116.95C152.145 122.578 149.277 129.941 149.276 137.582V245.379C145.446 246.157 141.552 246.757 137.603 247.172V127.665C137.603 120.073 140.53 112.772 145.775 107.283L212.8 37.1484ZM73.6016 124.037C78.7541 129.51 81.6239 136.742 81.624 144.259V240.235C75.852 238.106 70.283 235.557 64.9521 232.629V151.755C64.9521 143.967 61.9725 136.473 56.625 130.812L8.66895 80.0371C10.863 74.2596 13.4791 68.69 16.4756 63.3633L73.6016 124.037ZM233.701 65.5107C235.914 69.6329 237.9 73.8943 239.643 78.2793L193.017 124.361C187.219 130.091 183.956 137.904 183.956 146.055V230.526C183.956 231.234 184.027 231.915 184.158 232.567C179.785 234.976 175.251 237.127 170.575 239.002V144.259C170.575 136.742 173.445 129.51 178.598 124.037L233.701 65.5107ZM245.883 99.2559C247.504 107.252 248.357 115.527 248.357 124.001C248.357 162.167 231.093 196.3 203.949 219.021V152.604C203.949 144.655 207.158 137.042 212.848 131.49L245.883 99.2559ZM36.7314 138.384C41.9837 143.874 44.915 151.179 44.915 158.777V218.909C17.8482 196.189 0.64066 162.105 0.640625 124.001C0.640625 116.699 1.27429 109.545 2.48633 102.59L36.7314 138.384ZM137.603 0.829102C159.997 3.18397 180.613 11.5067 197.832 24.1777L140.227 89.2979C139.312 90.3322 137.603 89.6855 137.603 88.3047V0.829102ZM115.035 88.1826C115.035 89.5747 113.303 90.2165 112.396 89.1602L54.5547 21.7705C72.0161 9.80075 92.698 2.1877 115.035 0.5V88.1826Z" fill="url(#paint0_linear_2193_10662)"/>
<defs>
<linearGradient id="paint0_linear_2193_10662" x1="208.474" y1="19.0254" x2="238.602" y2="184.062" gradientUnits="userSpaceOnUse">
<stop stop-color="#9E87FF"/>
<stop offset="0.5" stop-color="#6DBFFE"/>
<stop offset="1" stop-color="#FF8F8F"/>
</linearGradient>
</defs>
</svg>
