<svg width="83" height="21" viewBox="0 0 83 21" fill="none" xmlns="http://www.w3.org/2000/svg">
<path d="M25.8438 4.125H27.3401V9.91875H27.976L33.3816 4.125H35.3081L29.2854 10.575L35.3643 17.25H33.3816L27.9573 11.2313H27.3401V17.25H25.8438V4.125Z" fill="black"/>
<path d="M43.2841 17.25L43.1719 15.5625C42.91 16.1375 42.5234 16.5875 42.0122 16.9125C41.5009 17.225 40.8525 17.3812 40.0669 17.3812C39.3936 17.3812 38.82 17.275 38.3461 17.0625C37.8723 16.85 37.5044 16.55 37.2426 16.1625C36.9932 15.7625 36.8685 15.2937 36.8685 14.7562C36.8685 13.9687 37.1615 13.325 37.7476 12.825C38.3337 12.3125 39.1816 12 40.2914 11.8875L43.1719 11.5688V10.8187C43.1719 10.2937 42.9786 9.875 42.592 9.5625C42.2055 9.2375 41.6817 9.075 41.0209 9.075C40.3724 9.075 39.83 9.225 39.3936 9.525C38.9696 9.825 38.6766 10.2562 38.5145 10.8187L37.2426 10.3688C37.492 9.54375 37.9471 8.9 38.608 8.4375C39.2814 7.975 40.0981 7.74375 41.0583 7.74375C42.1681 7.74375 43.0285 8.03125 43.6395 8.60625C44.2629 9.16875 44.5747 9.9375 44.5747 10.9125V17.25H43.2841ZM43.1719 12.7688L40.2727 13.1062C39.6492 13.1812 39.1754 13.3563 38.8512 13.6313C38.5269 13.8938 38.3648 14.2438 38.3648 14.6813C38.3648 15.1188 38.5207 15.4687 38.8325 15.7312C39.1567 15.9937 39.618 16.125 40.2166 16.125C40.9024 16.125 41.4635 15.9875 41.9 15.7125C42.3364 15.4375 42.6544 15.0687 42.8539 14.6062C43.0659 14.1312 43.1719 13.6188 43.1719 13.0688V12.7688Z" fill="black"/>
<path d="M47.6856 7.875H48.9762L49.051 9.24375C49.3004 8.90625 49.5997 8.61875 49.9488 8.38125C50.3104 8.14375 50.7032 7.98125 51.1272 7.89375C51.5636 7.79375 52.025 7.7875 52.5113 7.875V9.28125C51.9876 9.18125 51.5138 9.18125 51.0898 9.28125C50.6783 9.38125 50.3229 9.56875 50.0236 9.84375C49.7244 10.1187 49.4937 10.4688 49.3316 10.8938C49.1695 11.3063 49.0884 11.7875 49.0884 12.3375V17.25H47.6856V7.875Z" fill="black"/>
<path d="M60.6543 17.25L60.5421 15.5625C60.2802 16.1375 59.8936 16.5875 59.3824 16.9125C58.8711 17.225 58.2227 17.3812 57.4371 17.3812C56.7638 17.3812 56.1902 17.275 55.7163 17.0625C55.2425 16.85 54.8746 16.55 54.6128 16.1625C54.3634 15.7625 54.2387 15.2937 54.2387 14.7562C54.2387 13.9687 54.5317 13.325 55.1178 12.825C55.7039 12.3125 56.5518 12 57.6616 11.8875L60.5421 11.5688V10.8187C60.5421 10.2937 60.3488 9.875 59.9622 9.5625C59.5757 9.2375 59.0519 9.075 58.3911 9.075C57.7426 9.075 57.2002 9.225 56.7638 9.525C56.3398 9.825 56.0468 10.2562 55.8847 10.8187L54.6128 10.3688C54.8622 9.54375 55.3173 8.9 55.9782 8.4375C56.6516 7.975 57.4683 7.74375 58.4285 7.74375C59.5383 7.74375 60.3987 8.03125 61.0097 8.60625C61.6331 9.16875 61.9449 9.9375 61.9449 10.9125V17.25H60.6543ZM60.5421 12.7688L57.6429 13.1062C57.0194 13.1812 56.5456 13.3563 56.2214 13.6313C55.8971 13.8938 55.735 14.2438 55.735 14.6813C55.735 15.1188 55.8909 15.4687 56.2027 15.7312C56.5269 15.9937 56.9882 16.125 57.5868 16.125C58.2726 16.125 58.8337 15.9875 59.2702 15.7125C59.7066 15.4375 60.0246 15.0687 60.2241 14.6062C60.4361 14.1312 60.5421 13.6188 60.5421 13.0688V12.7688Z" fill="black"/>
<path d="M65.0558 7.875H66.3464L66.4212 9.20625C66.7205 8.74375 67.1133 8.3875 67.5996 8.1375C68.0859 7.875 68.6533 7.74375 69.3017 7.74375C70.0124 7.74375 70.6359 7.9 71.1721 8.2125C71.7083 8.5125 72.126 8.96875 72.4253 9.58125C72.7246 10.1812 72.8742 10.9375 72.8742 11.85V17.25H71.4714V12.0188C71.4714 11.0438 71.2594 10.3063 70.8354 9.80625C70.4239 9.29375 69.8254 9.0375 69.0398 9.0375C68.2293 9.0375 67.5933 9.30625 67.132 9.84375C66.6831 10.3812 66.4586 11.175 66.4586 12.225V17.25H65.0558V7.875Z" fill="black"/>
<path d="M76.1751 17.0063V7.875H77.5779V17.025C77.5779 17.8375 77.4158 18.5375 77.0916 19.125C76.7799 19.7125 76.3559 20.1625 75.8197 20.475C75.296 20.8 74.7224 20.975 74.0989 21L73.8932 19.7063C74.6164 19.6438 75.1775 19.375 75.5765 18.9C75.9756 18.4375 76.1751 17.8063 76.1751 17.0063ZM76.8858 6C77.1602 6 77.3909 5.90625 77.5779 5.71875C77.765 5.53125 77.8585 5.3 77.8585 5.025C77.8585 4.7375 77.765 4.5 77.5779 4.3125C77.3909 4.125 77.1602 4.03125 76.8858 4.03125C76.6115 4.03125 76.3746 4.125 76.1751 4.3125C75.988 4.5 75.8945 4.7375 75.8945 5.025C75.8945 5.3 75.988 5.53125 76.1751 5.71875C76.3746 5.90625 76.6115 6 76.8858 6Z" fill="black"/>
<path d="M81.3183 7.875H82.7025V17.25H81.3183V7.875ZM82.0291 6C81.7423 6 81.5054 5.90625 81.3183 5.71875C81.1313 5.53125 81.0378 5.3 81.0378 5.025C81.0378 4.7375 81.1313 4.5 81.3183 4.3125C81.5054 4.125 81.7423 4.03125 82.0291 4.03125C82.291 4.03125 82.5154 4.125 82.7025 4.3125C82.902 4.5 83.0017 4.7375 83.0017 5.025C83.0017 5.3 82.902 5.53125 82.7025 5.71875C82.5154 5.90625 82.291 6 82.0291 6Z" fill="black"/>
<path d="M8.16177 8.32666C9.07417 9.29632 9.58594 10.5772 9.59389 11.9106L9.64807 21C9.24017 20.9671 8.83887 20.911 8.44546 20.8327L8.48101 12.6949C8.48689 11.3457 7.97641 10.0456 7.05486 9.06285L2.26919 3.95973C2.53915 3.61831 2.82967 3.29398 3.13906 2.98883L8.16177 8.32666ZM17.8943 3.02226C18.2058 3.33229 18.498 3.66179 18.7691 4.00877L14.0297 9.06285C13.1082 10.0456 12.5977 11.3457 12.6036 12.6949L12.639 20.8155C12.2391 20.8985 11.8309 20.9589 11.4158 20.9949V11.9449C11.4158 10.591 11.9355 9.28914 12.8669 8.30951L17.8943 3.02226ZM5.40637 9.76338C6.34146 10.7436 6.86345 12.0481 6.86345 13.4049V20.3854C6.37909 20.206 5.91153 19.9919 5.46379 19.7459V13.8219C5.46378 12.7608 5.05556 11.7408 4.32424 10.9743L0.577466 7.04732C0.770056 6.49034 1.00779 5.95455 1.28652 5.44446L5.40637 9.76338ZM19.7439 5.50104C20.0202 6.01403 20.2553 6.55256 20.4448 7.1123L16.7602 10.9743C16.0289 11.7408 15.6206 12.7609 15.6206 13.8219V19.6989C15.1733 19.9501 14.7058 20.1693 14.2211 20.3536V13.4049C14.2211 12.0481 14.743 10.7436 15.6781 9.76338L19.7439 5.50104ZM2.35105 11.2404C3.33562 12.2281 3.88879 13.5679 3.88879 14.9647V18.6844C1.51633 16.7531 0 13.8047 0 10.5008C1.0184e-06 9.9876 0.0366389 9.48302 0.107324 8.98947L2.35105 11.2404ZM20.9029 9.0637C20.9668 9.53358 21 10.0133 21 10.5008C21 13.7653 19.5196 16.6829 17.1956 18.615V14.9647C17.1956 13.5679 17.7488 12.2281 18.7334 11.2404L20.9029 9.0637ZM11.4158 0.00651498C13.3227 0.171818 15.0839 0.848537 16.5623 1.89912L12.0314 7.20162C11.6374 7.69176 11.4158 7.6596 11.4158 6.97308V0.00651498ZM9.66345 6.97325C9.66345 7.64684 9.45005 7.69172 9.04788 7.20179L4.48608 1.865C5.97506 0.819484 7.74687 0.15155 9.66345 0V6.97325Z" fill="black"/>
</svg>

