<svg width="90" height="24" viewBox="0 0 90 24" fill="none" xmlns="http://www.w3.org/2000/svg">
<path d="M9.49458 9.5357C10.4833 10.6227 11.0314 12.0412 11.0314 13.5127V24C10.6698 23.971 10.3127 23.926 9.96084 23.8656V14.5217C9.96082 12.9934 9.38892 11.5206 8.3584 10.3951L2.77641 4.29851C3.08565 3.92615 3.4171 3.573 3.76831 3.24067L9.49458 9.5357ZM20.5906 3.5942C20.8643 3.87576 21.1243 4.17089 21.3697 4.47819L15.9525 10.3951C14.922 11.5206 14.35 12.9934 14.35 14.5217V23.8078C14.0117 23.8752 13.6683 23.9284 13.3203 23.9666V13.5926C13.3203 12.0741 13.9041 10.614 14.9498 9.51618L20.5906 3.5942ZM6.19564 11.1482C7.22281 12.2427 7.79476 13.6893 7.79478 15.1926V23.2788C7.27261 23.0826 6.76763 22.8514 6.28286 22.5874V15.5089C6.28282 14.2177 5.79057 12.9752 4.90684 12.0365L0.798597 7.67299C1.00036 7.14764 1.23772 6.64005 1.50783 6.15322L6.19564 11.1482ZM22.6059 6.36319C22.8013 6.73259 22.9781 7.11342 23.1352 7.50442L19.142 11.4639C18.2255 12.3726 17.7097 13.6116 17.7097 14.9043V22.3542C17.7097 22.432 17.718 22.507 17.7334 22.5784C17.3404 22.7932 16.9341 22.9866 16.5161 23.157V15.1926C16.5161 13.6894 17.0881 12.2427 18.1152 11.1482L22.6059 6.36319ZM23.7721 9.65524C23.9215 10.4137 24 11.1978 24 12.0002C24 15.6856 22.3493 18.9842 19.7492 21.1926V16.0799C19.7492 14.4901 20.3888 12.9674 21.5232 11.857L23.7721 9.65524ZM2.60761 12.5391C3.65465 13.6371 4.23903 15.0981 4.23907 16.6177V21.1822C1.64587 18.9739 2.49621e-05 15.68 0 12.0002C0 11.3121 0.0577045 10.6375 0.168208 9.98103L2.60761 12.5391ZM13.3203 0.033399C15.4522 0.26748 17.4162 1.06175 19.0629 2.26644L13.8434 8.18608C13.661 8.39294 13.3203 8.26346 13.3203 7.98723V0.033399ZM11.0314 7.96303C11.0314 8.24142 10.6863 8.3697 10.5056 8.15854L5.26584 2.03421C6.93507 0.896727 8.90512 0.170384 11.0314 0V7.96303Z" fill="black"/>
<path d="M41.432 18.5L34.664 12.038L41.288 6.116H43.052L35.996 12.398V11.642L43.232 18.5H41.432ZM33.584 18.5V6.116H34.898V18.5H33.584ZM48.1909 18.68C47.3869 18.68 46.6669 18.488 46.0309 18.104C45.3949 17.708 44.8909 17.18 44.5189 16.52C44.1589 15.86 43.9789 15.116 43.9789 14.288C43.9789 13.448 44.1589 12.698 44.5189 12.038C44.8909 11.366 45.3949 10.838 46.0309 10.454C46.6669 10.058 47.3809 9.86 48.1729 9.86C48.8209 9.86 49.3969 9.992 49.9009 10.256C50.4169 10.508 50.8309 10.868 51.1429 11.336C51.4669 11.792 51.6649 12.326 51.7369 12.938V15.584C51.6649 16.196 51.4669 16.736 51.1429 17.204C50.8309 17.672 50.4169 18.038 49.9009 18.302C49.3969 18.554 48.8269 18.68 48.1909 18.68ZM48.3889 17.474C49.2649 17.474 49.9669 17.18 50.4949 16.592C51.0349 16.004 51.3049 15.23 51.3049 14.27C51.3049 13.634 51.1789 13.076 50.9269 12.596C50.6869 12.104 50.3449 11.726 49.9009 11.462C49.4689 11.186 48.9589 11.048 48.3709 11.048C47.7709 11.048 47.2369 11.186 46.7689 11.462C46.3129 11.738 45.9469 12.122 45.6709 12.614C45.4069 13.094 45.2749 13.646 45.2749 14.27C45.2749 14.894 45.4069 15.446 45.6709 15.926C45.9469 16.406 46.3189 16.784 46.7869 17.06C47.2549 17.336 47.7889 17.474 48.3889 17.474ZM51.2329 18.5V16.232L51.4849 14.144L51.2329 12.11V10.04H52.4929V18.5H51.2329ZM55.4082 18.5V10.04H56.6682V18.5H55.4082ZM56.6682 13.568L56.1462 13.334C56.1462 12.266 56.4042 11.42 56.9202 10.796C57.4482 10.172 58.1682 9.86 59.0802 9.86C59.5002 9.86 59.8842 9.938 60.2322 10.094C60.5802 10.238 60.9042 10.472 61.2042 10.796L60.3762 11.678C60.1722 11.45 59.9442 11.288 59.6922 11.192C59.4522 11.096 59.1762 11.048 58.8642 11.048C58.2162 11.048 57.6882 11.264 57.2802 11.696C56.8722 12.116 56.6682 12.74 56.6682 13.568ZM66.278 18.68C65.474 18.68 64.754 18.488 64.118 18.104C63.482 17.708 62.978 17.18 62.606 16.52C62.246 15.86 62.066 15.116 62.066 14.288C62.066 13.448 62.246 12.698 62.606 12.038C62.978 11.366 63.482 10.838 64.118 10.454C64.754 10.058 65.468 9.86 66.26 9.86C66.908 9.86 67.484 9.992 67.988 10.256C68.504 10.508 68.918 10.868 69.23 11.336C69.554 11.792 69.752 12.326 69.824 12.938V15.584C69.752 16.196 69.554 16.736 69.23 17.204C68.918 17.672 68.504 18.038 67.988 18.302C67.484 18.554 66.914 18.68 66.278 18.68ZM66.476 17.474C67.352 17.474 68.054 17.18 68.582 16.592C69.122 16.004 69.392 15.23 69.392 14.27C69.392 13.634 69.266 13.076 69.014 12.596C68.774 12.104 68.432 11.726 67.988 11.462C67.556 11.186 67.046 11.048 66.458 11.048C65.858 11.048 65.324 11.186 64.856 11.462C64.4 11.738 64.034 12.122 63.758 12.614C63.494 13.094 63.362 13.646 63.362 14.27C63.362 14.894 63.494 15.446 63.758 15.926C64.034 16.406 64.406 16.784 64.874 17.06C65.342 17.336 65.876 17.474 66.476 17.474ZM69.32 18.5V16.232L69.572 14.144L69.32 12.11V10.04H70.58V18.5H69.32ZM79.6513 18.5V13.532C79.6513 12.788 79.4293 12.188 78.9853 11.732C78.5533 11.264 77.9773 11.03 77.2573 11.03C76.7653 11.03 76.3333 11.138 75.9613 11.354C75.5893 11.57 75.2953 11.864 75.0793 12.236C74.8633 12.608 74.7553 13.034 74.7553 13.514L74.1793 13.19C74.1793 12.554 74.3293 11.984 74.6293 11.48C74.9293 10.976 75.3313 10.58 75.8353 10.292C76.3513 10.004 76.9393 9.86 77.5993 9.86C78.2473 9.86 78.8233 10.016 79.3273 10.328C79.8313 10.64 80.2213 11.06 80.4973 11.588C80.7853 12.116 80.9293 12.692 80.9293 13.316V18.5H79.6513ZM73.4953 18.5V10.04H74.7553V18.5H73.4953ZM82.3324 22.244C81.8404 22.244 81.4144 22.16 81.0544 21.992C80.6944 21.824 80.3764 21.584 80.1004 21.272L80.9284 20.444C81.1084 20.66 81.3124 20.816 81.5404 20.912C81.7564 21.008 82.0024 21.056 82.2784 21.056C82.6864 21.056 83.0344 20.936 83.3224 20.696C83.6104 20.456 83.7544 20.078 83.7544 19.562V10.04H85.0144V19.544C85.0144 20.132 84.8884 20.624 84.6364 21.02C84.3964 21.428 84.0724 21.734 83.6644 21.938C83.2564 22.142 82.8124 22.244 82.3324 22.244ZM84.3844 8.204C84.1444 8.204 83.9404 8.12 83.7724 7.952C83.6044 7.772 83.5204 7.562 83.5204 7.322C83.5204 7.07 83.6044 6.86 83.7724 6.692C83.9404 6.524 84.1444 6.44 84.3844 6.44C84.6484 6.44 84.8584 6.524 85.0144 6.692C85.1824 6.86 85.2664 7.07 85.2664 7.322C85.2664 7.562 85.1824 7.772 85.0144 7.952C84.8584 8.12 84.6484 8.204 84.3844 8.204ZM87.9263 18.5V10.04H89.2043V18.5H87.9263ZM88.5563 8.204C88.3163 8.204 88.1123 8.12 87.9443 7.952C87.7763 7.772 87.6923 7.562 87.6923 7.322C87.6923 7.07 87.7763 6.86 87.9443 6.692C88.1123 6.524 88.3163 6.44 88.5563 6.44C88.8203 6.44 89.0303 6.524 89.1863 6.692C89.3543 6.86 89.4383 7.07 89.4383 7.322C89.4383 7.562 89.3543 7.772 89.1863 7.952C89.0303 8.12 88.8203 8.204 88.5563 8.204Z" fill="black"/>
</svg>
