<svg width="24" height="24" viewBox="0 0 24 24" fill="none" xmlns="http://www.w3.org/2000/svg">
<path d="M9.49458 9.5357C10.4833 10.6227 11.0314 12.0412 11.0314 13.5127V24C10.6698 23.971 10.3127 23.926 9.96084 23.8656V14.5217C9.96082 12.9934 9.38892 11.5206 8.3584 10.3951L2.77641 4.29851C3.08565 3.92615 3.4171 3.573 3.76831 3.24067L9.49458 9.5357ZM20.5906 3.5942C20.8643 3.87576 21.1243 4.17089 21.3697 4.47819L15.9525 10.3951C14.922 11.5206 14.35 12.9934 14.35 14.5217V23.8078C14.0117 23.8752 13.6683 23.9284 13.3203 23.9666V13.5926C13.3203 12.0741 13.9041 10.614 14.9498 9.51618L20.5906 3.5942ZM6.19564 11.1482C7.22281 12.2427 7.79476 13.6893 7.79478 15.1926V23.2788C7.27261 23.0826 6.76763 22.8514 6.28286 22.5874V15.5089C6.28282 14.2177 5.79057 12.9752 4.90684 12.0365L0.798597 7.67299C1.00036 7.14764 1.23772 6.64005 1.50783 6.15322L6.19564 11.1482ZM22.6059 6.36319C22.8013 6.73259 22.9781 7.11342 23.1352 7.50442L19.142 11.4639C18.2255 12.3726 17.7097 13.6116 17.7097 14.9043V22.3542C17.7097 22.432 17.718 22.507 17.7334 22.5784C17.3404 22.7932 16.9341 22.9866 16.5161 23.157V15.1926C16.5161 13.6894 17.0881 12.2427 18.1152 11.1482L22.6059 6.36319ZM23.7721 9.65524C23.9215 10.4137 24 11.1978 24 12.0002C24 15.6856 22.3493 18.9842 19.7492 21.1926V16.0799C19.7492 14.4901 20.3888 12.9674 21.5232 11.857L23.7721 9.65524ZM2.60761 12.5391C3.65465 13.6371 4.23903 15.0981 4.23907 16.6177V21.1822C1.64587 18.9739 2.49621e-05 15.68 0 12.0002C0 11.3121 0.0577045 10.6375 0.168208 9.98103L2.60761 12.5391ZM13.3203 0.033399C15.4522 0.26748 17.4162 1.06175 19.0629 2.26644L13.8434 8.18608C13.661 8.39294 13.3203 8.26346 13.3203 7.98723V0.033399ZM11.0314 7.96303C11.0314 8.24142 10.6863 8.3697 10.5056 8.15854L5.26584 2.03421C6.93507 0.896727 8.90512 0.170384 11.0314 0V7.96303Z" fill="black"/>
</svg>
