<svg width="437" height="437" viewBox="0 0 437 437" fill="none" xmlns="http://www.w3.org/2000/svg">
<path d="M297.674 336.718L294.763 323.538L295.769 322.841L307.07 330.209L305.56 331.255L296.096 324.958L296.614 324.599L299.154 335.693L297.674 336.718ZM298.062 333.011L297.222 331.798L302.622 328.057L303.463 329.27L298.062 333.011ZM308.561 329.07L300.855 319.238L302.187 318.195L309.893 328.027L308.561 329.07ZM315.046 323.758L306.797 314.378L308.067 313.261L316.317 322.641L315.046 323.758ZM318.473 320.631L309.694 311.744L310.539 310.909L312.276 311.951L319.676 319.442L318.473 320.631ZM324.619 314.559L311.966 312.662L310.539 310.909L323.192 312.781L324.619 314.559ZM324.619 314.559L322.958 313.595L315.482 306.027L316.685 304.838L325.464 313.724L324.619 314.559ZM327.467 311.567L317.953 303.471L318.723 302.567L320.544 303.454L328.564 310.278L327.467 311.567ZM333.067 304.986L320.297 304.189L318.723 302.567L331.491 303.338L333.067 304.986ZM333.067 304.986L331.328 304.169L323.226 297.275L324.322 295.986L333.836 304.082L333.067 304.986ZM339.073 297.216C338.56 297.941 337.95 298.524 337.242 298.964C336.524 299.397 335.759 299.679 334.946 299.81C334.124 299.933 333.301 299.902 332.477 299.717C331.66 299.521 330.889 299.167 330.164 298.654C329.429 298.134 328.838 297.525 328.391 296.827C327.941 296.112 327.639 295.355 327.485 294.555C327.337 293.745 327.35 292.938 327.522 292.134C327.7 291.32 328.046 290.55 328.559 289.825C329.072 289.1 329.679 288.522 330.38 288.092C331.088 287.652 331.848 287.367 332.661 287.236C333.473 287.105 334.292 287.133 335.116 287.319C335.939 287.505 336.719 287.857 337.454 288.377C338.179 288.89 338.766 289.503 339.216 290.218C339.666 290.933 339.964 291.696 340.112 292.505C340.266 293.305 340.259 294.116 340.09 294.937C339.918 295.741 339.579 296.501 339.073 297.216ZM337.73 296.31C338.249 295.576 338.536 294.816 338.591 294.032C338.643 293.231 338.49 292.461 338.131 291.722C337.762 290.976 337.195 290.333 336.431 289.792C335.863 289.39 335.277 289.116 334.676 288.97C334.064 288.816 333.464 288.781 332.875 288.865C332.287 288.949 331.741 289.15 331.236 289.469C330.721 289.781 330.27 290.212 329.882 290.76C329.369 291.485 329.082 292.245 329.02 293.039C328.965 293.823 329.117 294.585 329.476 295.324C329.842 296.053 330.408 296.688 331.172 297.228C331.74 297.63 332.332 297.916 332.946 298.086C333.558 298.24 334.154 298.279 334.736 298.206C335.314 298.115 335.861 297.914 336.375 297.601C336.897 297.28 337.348 296.849 337.73 296.31ZM345.459 287.082L332.157 285.043L333.09 283.461L344.285 285.282L343.946 285.855L336.96 276.904L337.884 275.338L346.081 286.028L345.459 287.082ZM348.31 282.17L339.379 272.05L339.922 270.953L353.378 271.925L352.563 273.571L341.233 272.645L341.513 272.081L349.108 280.557L348.31 282.17ZM346.854 278.739L345.531 278.085L348.444 272.196L349.767 272.85L346.854 278.739ZM354.601 268.638L343.353 264.093L343.987 262.525L355.235 267.069L354.601 268.638ZM342.863 268.477L341.428 267.897L345.237 258.468L346.673 259.048L342.863 268.477ZM357.499 261.254L345.679 257.209L346.227 255.608L358.046 259.653L357.499 261.254ZM360.577 251.394C360.344 252.251 359.97 253.007 359.456 253.663C358.93 254.316 358.308 254.844 357.589 255.245C356.859 255.643 356.075 255.897 355.238 256.004C354.403 256.101 353.557 256.032 352.701 255.799C351.832 255.563 351.068 255.194 350.409 254.691C349.741 254.174 349.198 253.566 348.779 252.867C348.362 252.157 348.097 251.395 347.983 250.58C347.872 249.754 347.933 248.913 348.166 248.056C348.399 247.199 348.771 246.448 349.282 245.804C349.796 245.148 350.413 244.619 351.131 244.218C351.85 243.816 352.628 243.561 353.466 243.453C354.303 243.345 355.156 243.41 356.025 243.646C356.882 243.879 357.644 244.254 358.311 244.771C358.979 245.289 359.521 245.902 359.937 246.613C360.357 247.311 360.628 248.075 360.75 248.904C360.865 249.719 360.807 250.549 360.577 251.394ZM359.004 251.004C359.24 250.135 359.25 249.323 359.032 248.568C358.807 247.797 358.398 247.127 357.808 246.556C357.205 245.981 356.452 245.572 355.549 245.326C354.878 245.143 354.234 245.086 353.618 245.155C352.991 245.221 352.415 245.394 351.892 245.674C351.368 245.955 350.923 246.331 350.558 246.804C350.182 247.274 349.905 247.833 349.729 248.481C349.496 249.338 349.487 250.15 349.701 250.917C349.918 251.673 350.322 252.336 350.913 252.907C351.507 253.466 352.256 253.869 353.159 254.115C353.83 254.297 354.484 254.363 355.12 254.312C355.747 254.246 356.321 254.079 356.842 253.811C357.354 253.527 357.798 253.15 358.175 252.681C358.555 252.2 358.831 251.641 359.004 251.004ZM362.526 243.022L350.22 240.873L350.424 239.702L352.444 239.543L362.817 241.355L362.526 243.022ZM364.012 234.511L352.604 240.302L350.424 239.702L361.818 233.89L364.012 234.511ZM364.012 234.511L362.099 234.688L351.62 232.858L351.911 231.191L364.217 233.34L364.012 234.511Z" fill="black"/>
<path d="M233.045 241.444V341.614C264.71 335.316 304.446 324.925 330.523 277.693C356.599 230.461 351.011 186.062 336.731 158.982L242.633 223.279C236.633 227.379 233.045 234.177 233.045 241.444Z" fill="url(#paint0_linear_487_2572)" stroke="white" stroke-opacity="0.2" stroke-width="2"/>
<path d="M212.76 241.381V341.551C181.095 335.254 141.359 324.863 115.282 277.63C89.2053 230.398 94.7932 186 109.073 158.92L203.171 223.217C209.171 227.316 212.76 234.114 212.76 241.381Z" fill="url(#paint1_linear_487_2572)" stroke="white" stroke-opacity="0.2" stroke-width="2"/>
<path d="M326.423 141.038L235.224 203.137C227.755 208.223 217.924 208.135 210.474 202.916L172.493 176.308L122.154 141.041C141.576 114.904 170.059 88.4552 222.833 88.4552C275.608 88.4552 306.245 119.625 326.423 141.038Z" fill="url(#paint2_linear_487_2572)" stroke="white" stroke-opacity="0.2" stroke-width="2"/>
<path d="M76.0327 219.751L88.5057 219.062L88.599 220.751L76.126 221.44L76.0327 219.751ZM76.3852 224.376L88.786 222.869L88.9293 224.048L80.9371 230.351L80.8394 229.546L90.1083 233.751L90.2516 234.93L77.8508 236.437L77.6467 234.758L87.0992 233.609L87.0397 234.015L79.7281 230.697L79.5848 229.518L85.889 224.545L86.0418 224.907L76.5893 226.056L76.3852 224.376ZM78.3547 239.332L90.5362 236.564L90.7994 237.723L83.4941 244.81L83.3146 244.02L92.9651 247.254L93.2283 248.412L81.0468 251.18L80.6719 249.53L89.9572 247.42L89.9397 247.831L82.3268 245.278L82.0636 244.119L87.8259 238.528L88.0149 238.872L78.7296 240.982L78.3547 239.332ZM81.8221 254.015L93.7182 250.204L94.2345 251.815L82.3384 255.627L81.8221 254.015ZM82.1736 255.113L83.6478 254.64L85.8339 261.462L84.3597 261.935L82.1736 255.113ZM87.556 253.388L88.9616 252.937L90.9665 259.194L89.5609 259.644L87.556 253.388ZM92.5956 251.773L94.0698 251.301L96.2284 258.037L94.7542 258.51L92.5956 251.773ZM90.6278 263.113L91.9472 262.583L93.2089 265.723C93.4818 266.402 93.8647 266.856 94.3575 267.085C94.8503 267.313 95.3918 267.309 95.982 267.072C96.5387 266.848 96.927 266.479 97.1468 265.964C97.3711 265.46 97.3467 264.868 97.0738 264.189L95.8054 261.032L97.175 260.482L98.4635 263.689C98.7588 264.424 98.8713 265.122 98.801 265.784C98.7419 266.442 98.5255 267.014 98.1519 267.5C97.7828 267.997 97.2809 268.374 96.6462 268.629C95.9893 268.893 95.3554 268.973 94.7447 268.869C94.1384 268.776 93.5865 268.513 93.0889 268.079C92.6024 267.641 92.2116 267.055 91.9163 266.32L90.6278 263.113ZM85.1609 264.087L96.7522 259.43L97.383 261L85.7918 265.657L85.1609 264.087ZM87.8454 270.768L91.3485 264.472L92.4636 265.751L88.644 272.756L87.8454 270.768ZM90.6041 277.178C90.1737 276.294 89.9682 275.459 89.9874 274.676C90.0067 273.893 90.2058 273.109 90.5847 272.324L92.1246 272.856C91.8014 273.453 91.6232 274.047 91.5899 274.637C91.5674 275.222 91.7215 275.854 92.0522 276.534C92.3776 277.203 92.7831 277.666 93.2687 277.924C93.7595 278.192 94.2585 278.203 94.7657 277.956C95.1866 277.752 95.4793 277.489 95.6438 277.169C95.8083 276.849 95.8901 276.482 95.8892 276.069C95.9044 275.661 95.8823 275.232 95.8228 274.78C95.7741 274.323 95.7308 273.864 95.6929 273.402C95.6658 272.935 95.6869 272.484 95.756 272.05C95.8359 271.611 96.0149 271.197 96.2928 270.808C96.576 270.43 97.0036 270.102 97.5755 269.824C98.2122 269.514 98.8252 269.403 99.4147 269.49C100.02 269.582 100.57 269.835 101.065 270.249C101.575 270.667 101.993 271.211 102.319 271.88C102.676 272.614 102.85 273.343 102.842 274.068C102.845 274.787 102.704 275.443 102.418 276.035L100.879 275.503C101.104 274.98 101.22 274.477 101.225 273.994C101.236 273.522 101.12 273.037 100.879 272.541C100.585 271.937 100.216 271.522 99.7733 271.297C99.3411 271.067 98.8876 271.067 98.4128 271.298C98.0351 271.482 97.7748 271.729 97.6319 272.039C97.505 272.354 97.4393 272.713 97.4349 273.115C97.4305 273.518 97.4527 273.947 97.5014 274.404C97.5661 274.866 97.612 275.331 97.6391 275.798C97.6662 276.265 97.6344 276.721 97.5437 277.166C97.4529 277.61 97.2552 278.027 96.9504 278.415C96.6617 278.809 96.2205 279.15 95.627 279.439C94.6342 279.922 93.6893 279.955 92.7922 279.537C91.9004 279.13 91.171 278.344 90.6041 277.178ZM93.6782 282.918L104.625 276.9L105.44 278.383L94.4934 284.401L93.6782 282.918ZM98.1486 290.409L106.094 279.547L107.066 281.105L100.288 290.198L99.9348 289.633L111.099 287.563L112.062 289.105L98.797 291.447L98.1486 290.409ZM102.644 297.384L112.678 289.944L113.686 291.303L103.651 298.743L102.644 297.384ZM103.33 298.31L104.573 297.388L108.84 303.142L107.597 304.064L103.33 298.31ZM107.87 294.943L109.055 294.064L112.969 299.342L111.783 300.221L107.87 294.943ZM112.121 291.791L113.364 290.869L117.578 296.552L116.334 297.474L112.121 291.791ZM113.498 310.951L122.497 302.815L123.632 304.07L114.633 312.206L113.498 310.951ZM118.767 300.46L119.916 299.422L126.736 306.966L125.588 308.004L118.767 300.46ZM118.899 316.76L127.512 307.712L128.737 308.878L120.124 317.926L118.899 316.76ZM119.733 317.554L120.801 316.433L125.99 321.372L124.922 322.493L119.733 317.554ZM123.63 313.46L124.648 312.391L129.407 316.921L128.389 317.99L123.63 313.46ZM127.279 309.627L128.346 308.506L133.47 313.383L132.403 314.504L127.279 309.627ZM130.759 327.526C130.06 326.959 129.515 326.307 129.124 325.571C128.74 324.826 128.51 324.043 128.434 323.224C128.367 322.412 128.459 321.605 128.709 320.803C128.959 320.001 129.364 319.255 129.924 318.566C130.492 317.868 131.142 317.314 131.877 316.906C132.611 316.497 133.378 316.248 134.179 316.156C134.997 316.064 135.802 316.13 136.592 316.355C137.4 316.579 138.153 316.975 138.852 317.543C139.615 318.163 140.18 318.839 140.545 319.569C140.91 320.299 141.135 321.069 141.219 321.879L139.573 322.049C139.545 321.455 139.388 320.878 139.1 320.319C138.821 319.768 138.398 319.261 137.83 318.8C137.318 318.383 136.772 318.094 136.192 317.932C135.62 317.761 135.039 317.714 134.45 317.792C133.861 317.87 133.293 318.065 132.745 318.377C132.206 318.697 131.718 319.127 131.279 319.667C130.84 320.207 130.518 320.774 130.315 321.366C130.121 321.966 130.046 322.563 130.09 323.155C130.134 323.748 130.295 324.311 130.572 324.846C130.856 325.371 131.255 325.842 131.767 326.258C132.372 326.75 132.977 327.08 133.583 327.248C134.197 327.406 134.797 327.438 135.385 327.343L135.566 328.975C134.74 329.077 133.919 329.013 133.102 328.782C132.294 328.558 131.513 328.139 130.759 327.526ZM136.161 331.522L143.178 321.187L144.577 322.137L137.561 332.473L136.161 331.522ZM142.833 336.052L149.849 325.716L151.249 326.667L144.233 337.002L142.833 336.052ZM140.309 327.463L141.178 326.183L147.24 330.298L146.37 331.578L140.309 327.463Z" fill="black"/>
<path d="M149.646 96.5289C148.865 96.9759 148.06 97.2495 147.233 97.3498C146.399 97.4396 145.587 97.3724 144.795 97.1482C144.013 96.9179 143.293 96.5418 142.635 96.0198C141.977 95.4978 141.427 94.8514 140.986 94.0807C140.539 93.2996 140.257 92.493 140.141 91.6611C140.024 90.8291 140.068 90.0231 140.271 89.2431C140.479 88.4466 140.83 87.7201 141.326 87.0633C141.825 86.3903 142.466 85.8302 143.247 85.3832C144.101 84.8945 144.934 84.6111 145.747 84.5332C146.559 84.4553 147.359 84.5233 148.145 84.7371L147.71 86.3337C147.146 86.145 146.552 86.0844 145.926 86.1518C145.312 86.2132 144.687 86.4257 144.051 86.7892C143.479 87.1171 143.012 87.5222 142.652 88.0047C142.287 88.4767 142.034 89.0016 141.894 89.5792C141.755 90.1567 141.732 90.7573 141.826 91.3809C141.931 91.9986 142.156 92.6094 142.502 93.2135C142.847 93.8176 143.26 94.3211 143.739 94.7242C144.229 95.1213 144.759 95.406 145.327 95.5783C145.896 95.7506 146.48 95.8038 147.078 95.7379C147.67 95.6616 148.253 95.4596 148.826 95.1318C149.503 94.7444 150.028 94.2982 150.403 93.7934C150.772 93.2782 151.018 92.7296 151.141 92.1475L152.729 92.5662C152.527 93.3731 152.171 94.116 151.661 94.7951C151.161 95.4682 150.489 96.0461 149.646 96.5289ZM154.168 87.739L153.566 86.4508L156.631 85.0175C157.294 84.7074 157.727 84.3 157.928 83.7953C158.129 83.2906 158.095 82.7502 157.825 82.174C157.571 81.6305 157.181 81.2633 156.655 81.0723C156.139 80.8762 155.55 80.9332 154.886 81.2433L151.805 82.6843L151.18 81.3472L154.31 79.8833C155.028 79.5479 155.719 79.3969 156.384 79.4305C157.043 79.4532 157.626 79.6376 158.133 79.9837C158.65 80.3248 159.053 80.8051 159.343 81.4247C159.643 82.0661 159.758 82.6945 159.688 83.3101C159.629 83.9205 159.397 84.4861 158.991 85.007C158.58 85.5169 158.016 85.9396 157.299 86.2751L154.168 87.739ZM155.444 93.1436L150.152 81.8276L151.685 81.1109L156.976 92.4269L155.444 93.1436ZM161.966 90.0938L155.486 86.9442L156.7 85.7601L163.906 89.1865L161.966 90.0938ZM165.533 88.5526L161.136 76.8599L162.72 76.2643L167.116 87.957L165.533 88.5526ZM166.611 88.1471L166.066 86.6981L172.772 84.1767L173.316 85.6256L166.611 88.1471ZM164.622 82.8567L164.102 81.4752L170.252 79.1628L170.771 80.5443L164.622 82.8567ZM162.759 77.9034L162.214 76.4544L168.835 73.9646L169.38 75.4136L162.759 77.9034ZM174.622 85.1804L176.041 71.7577L177.216 71.4158L185.597 81.9877L183.834 82.5005L176.855 73.5266L177.46 73.3506L176.35 84.6776L174.622 85.1804ZM176.166 81.7881L175.753 80.3709L182.062 78.5357L182.474 79.9529L176.166 81.7881ZM189.05 81.3743L186.586 69.4952L188.242 69.1515L190.707 81.0306L189.05 81.3743ZM182.668 71.5214L182.353 70.0056L192.311 67.9397L192.626 69.4555L182.668 71.5214ZM196.835 79.8491L195.032 67.488L196.706 67.2437L198.509 79.6049L196.835 79.8491ZM205.507 78.9126L199.444 66.8988L201.274 66.7404L206.292 76.9115L205.628 76.969L208.859 66.0837L210.671 65.9269L206.727 78.807L205.507 78.9126ZM213.784 78.3195L213.747 65.8275L215.439 65.8225L215.476 78.3144L213.784 78.3195ZM214.936 78.316L214.932 76.768L222.096 76.7467L222.1 78.2947L214.936 78.316ZM214.919 72.664L214.915 71.188L221.485 71.1685L221.489 72.6445L214.919 72.664ZM214.904 67.3721L214.899 65.8241L221.973 65.803L221.978 67.351L214.904 67.3721ZM228.131 78.6155L229.334 66.1815L231.018 66.3443L229.816 78.7783L228.131 78.6155ZM229.278 78.7263L229.427 77.1855L236.092 77.8299L235.943 79.3707L229.278 78.7263ZM238 79.6782L240.11 67.3657L241.777 67.6514L239.668 79.964L238 79.6782ZM239.136 79.8728L239.397 78.347L246.458 79.5568L246.197 81.0826L239.136 79.8728ZM240.09 74.302L240.339 72.8472L246.815 73.9567L246.566 75.4115L240.09 74.302ZM240.984 69.086L241.245 67.5602L248.218 68.7548L247.956 70.2806L240.984 69.086ZM247.548 81.3599L255.599 70.5264L256.784 70.83L258.621 84.1952L256.842 83.7397L255.4 72.4636L256.01 72.6199L249.292 81.8064L247.548 81.3599ZM250.603 79.225L250.969 77.7951L257.334 79.4248L256.967 80.8547L250.603 79.225ZM263.261 80.0193L263.729 78.6764L266.924 79.7893C267.616 80.0301 268.209 80.0399 268.706 79.8189C269.202 79.5978 269.555 79.187 269.764 78.5863C269.961 78.0197 269.938 77.4843 269.694 76.9801C269.462 76.4798 269 76.1093 268.309 75.8686L265.096 74.7497L265.582 73.3558L268.845 74.4924C269.593 74.7529 270.194 75.1272 270.646 75.6152C271.103 76.0919 271.392 76.6309 271.513 77.2321C271.645 77.8373 271.599 78.4629 271.374 79.1088C271.141 79.7774 270.785 80.3078 270.305 80.6998C269.837 81.0959 269.276 81.3388 268.622 81.4287C267.972 81.5073 267.273 81.4164 266.525 81.1559L263.261 80.0193ZM260.402 84.7799L264.511 72.9828L266.109 73.5393L262 85.3364L260.402 84.7799ZM267.202 87.1479L264.759 80.3695L266.456 80.3694L269.224 87.8524L267.202 87.1479ZM270.828 88.5423L275.914 77.1324L276.999 77.6161L276.661 79.6133L272.374 89.2311L270.828 88.5423ZM278.72 92.0598L275.886 79.5832L276.999 77.6161L279.857 90.0835L278.72 92.0598ZM278.72 92.0598L279.014 90.1612L283.345 80.4447L284.891 81.1336L279.805 92.5434L278.72 92.0598ZM282.455 93.827L288.252 82.7616L289.751 83.5468L283.954 94.6123L282.455 93.827ZM286.521 96.0595L292.987 85.3711L294.004 85.9861L293.419 87.9257L287.969 96.9353L286.521 96.0595ZM293.914 100.532L292.654 87.7994L294.004 85.9861L295.288 98.7122L293.914 100.532ZM293.914 100.532L294.442 98.6845L299.949 89.5824L301.396 90.4582L294.93 101.147L293.914 100.532ZM301.798 106.309C301.095 105.786 300.533 105.165 300.11 104.447C299.704 103.726 299.446 102.957 299.335 102.142C299.234 101.333 299.287 100.519 299.493 99.7003C299.699 98.8812 300.07 98.1107 300.608 97.3889C301.146 96.667 301.774 96.0949 302.492 95.6724C303.218 95.2404 303.987 94.9605 304.801 94.833C305.614 94.7054 306.425 94.741 307.235 94.9399C308.054 95.1459 308.829 95.5213 309.56 96.066C310.359 96.6609 310.981 97.3631 311.425 98.1728C311.87 98.9825 312.103 99.8445 312.125 100.759L310.488 100.998C310.514 100.3 310.357 99.6369 310.017 99.0092C309.683 98.372 309.209 97.824 308.593 97.3653C307.861 96.8206 307.09 96.5004 306.278 96.4048C305.476 96.3163 304.702 96.4425 303.954 96.7835C303.216 97.1316 302.567 97.681 302.008 98.4317C301.442 99.192 301.103 99.9792 300.99 100.793C300.878 101.607 300.969 102.378 301.265 103.107C301.56 103.836 302.054 104.458 302.747 104.974C303.45 105.497 304.156 105.814 304.867 105.924C305.588 106.042 306.281 105.945 306.947 105.633C307.62 105.311 308.24 104.771 308.806 104.01L309.188 105.215L304.857 101.99L305.782 100.748L310.69 104.403L310.54 104.605C309.673 105.77 308.738 106.593 307.737 107.074C306.752 107.552 305.747 107.717 304.722 107.567C303.706 107.424 302.731 107.004 301.798 106.309Z" fill="black"/>
<defs>
<linearGradient id="paint0_linear_487_2572" x1="291.043" y1="97.5332" x2="290.903" y2="341.614" gradientUnits="userSpaceOnUse">
<stop stop-color="#FFFDFD"/>
<stop offset="1" stop-color="#AAC3E5"/>
</linearGradient>
<linearGradient id="paint1_linear_487_2572" x1="97.043" y1="95.0332" x2="154.901" y2="341.551" gradientUnits="userSpaceOnUse">
<stop stop-color="white"/>
<stop offset="1" stop-color="#A08CFA"/>
</linearGradient>
<linearGradient id="paint2_linear_487_2572" x1="194.543" y1="239.033" x2="251.496" y2="88.3876" gradientUnits="userSpaceOnUse">
<stop stop-color="#FFF2F2"/>
<stop offset="1" stop-color="#ECAAAA"/>
</linearGradient>
</defs>
</svg>
