<svg width="1217" height="484" viewBox="0 0 1217 484" fill="none" xmlns="http://www.w3.org/2000/svg">
<path d="M545.291 341L15.0002 482.999" stroke="url(#paint0_linear_756_4083)"/>
<path d="M550.615 341L208.607 482.999" stroke="url(#paint1_linear_756_4083)"/>
<path d="M555.936 341L309.214 482.999" stroke="url(#paint2_linear_756_4083)"/>
<path d="M561.26 341L373.364 482.999" stroke="url(#paint3_linear_756_4083)"/>
<path d="M566.584 341L419.552 482.999" stroke="url(#paint4_linear_756_4083)"/>
<path d="M571.908 341L455.641 482.999" stroke="url(#paint5_linear_756_4083)"/>
<path d="M577.229 341L485.554 482.999" stroke="url(#paint6_linear_756_4083)"/>
<path d="M582.553 341L511.497 482.999" stroke="url(#paint7_linear_756_4083)"/>
<path d="M587.877 341L534.81 482.999" stroke="url(#paint8_linear_756_4083)"/>
<path d="M593.195 341L556.374 482.999" stroke="url(#paint9_linear_756_4083)"/>
<path d="M598.521 341L576.838 482.999" stroke="url(#paint10_linear_756_4083)"/>
<path d="M603.846 341L596.684 482.999" stroke="url(#paint11_linear_756_4083)"/>
<path d="M609.164 341L616.326 482.999" stroke="url(#paint12_linear_756_4083)"/>
<path d="M614.488 341L636.171 482.999" stroke="url(#paint13_linear_756_4083)"/>
<path d="M619.812 341L656.634 482.999" stroke="url(#paint14_linear_756_4083)"/>
<path d="M625.137 341L678.204 482.999" stroke="url(#paint15_linear_756_4083)"/>
<path d="M630.457 341L701.512 482.999" stroke="url(#paint16_linear_756_4083)"/>
<path d="M635.781 341L727.455 482.999" stroke="url(#paint17_linear_756_4083)"/>
<path d="M641.105 341L757.373 482.999" stroke="url(#paint18_linear_756_4083)"/>
<path d="M646.43 341L793.462 482.999" stroke="url(#paint19_linear_756_4083)"/>
<path d="M651.75 341L839.646 482.999" stroke="url(#paint20_linear_756_4083)"/>
<path d="M657.072 341L903.794 482.999" stroke="url(#paint21_linear_756_4083)"/>
<path d="M662.398 341L1004.41 482.999" stroke="url(#paint22_linear_756_4083)"/>
<path d="M667.717 341L1198.01 482.999" stroke="url(#paint23_linear_756_4083)"/>
<path d="M545.291 341H667.717" stroke="url(#paint24_linear_756_4083)"/>
<path d="M545.291 341H667.717" stroke="url(#paint25_linear_756_4083)"/>
<path d="M545.291 341H667.717" stroke="url(#paint26_linear_756_4083)"/>
<path d="M545.291 341H667.717" stroke="url(#paint27_linear_756_4083)"/>
<path d="M545.291 341H667.717" stroke="url(#paint28_linear_756_4083)"/>
<path d="M545.291 341H667.717" stroke="url(#paint29_linear_756_4083)"/>
<path d="M545.291 341H667.717" stroke="url(#paint30_linear_756_4083)"/>
<path d="M545.291 341H667.717" stroke="url(#paint31_linear_756_4083)"/>
<path d="M545.291 341H667.717" stroke="url(#paint32_linear_756_4083)"/>
<path d="M545.291 341H667.717" stroke="url(#paint33_linear_756_4083)"/>
<path d="M545.291 341H667.717" stroke="url(#paint34_linear_756_4083)"/>
<path d="M545.291 341H667.718" stroke="url(#paint35_linear_756_4083)"/>
<path d="M545.291 341H667.718" stroke="url(#paint36_linear_756_4083)"/>
<path d="M545.291 341H667.718" stroke="url(#paint37_linear_756_4083)"/>
<path d="M545.291 341H667.718" stroke="url(#paint38_linear_756_4083)"/>
<path d="M545.291 341H667.718" stroke="url(#paint39_linear_756_4083)"/>
<path d="M545.291 341H667.719" stroke="url(#paint40_linear_756_4083)"/>
<path d="M545.291 341H667.72" stroke="url(#paint41_linear_756_4083)"/>
<path d="M545.291 341H667.721" stroke="url(#paint42_linear_756_4083)"/>
<path d="M545.291 341H667.723" stroke="url(#paint43_linear_756_4083)"/>
<path d="M545.287 341.004H667.722" stroke="url(#paint44_linear_756_4083)"/>
<path d="M545.283 341.004H667.723" stroke="url(#paint45_linear_756_4083)"/>
<path d="M545.283 341.004H667.729" stroke="url(#paint46_linear_756_4083)"/>
<path d="M545.275 341.004H667.731" stroke="url(#paint47_linear_756_4083)"/>
<path d="M545.271 341.004H667.74" stroke="url(#paint48_linear_756_4083)"/>
<path d="M545.26 341.008H667.746" stroke="url(#paint49_linear_756_4083)"/>
<path d="M545.252 341.012H667.762" stroke="url(#paint50_linear_756_4083)"/>
<path d="M545.232 341.016H667.775" stroke="url(#paint51_linear_756_4083)"/>
<path d="M545.211 341.02H667.797" stroke="url(#paint52_linear_756_4083)"/>
<path d="M545.184 341.031H667.827" stroke="url(#paint53_linear_756_4083)"/>
<path d="M545.148 341.039H667.866" stroke="url(#paint54_linear_756_4083)"/>
<path d="M545.1 341.051H667.913" stroke="url(#paint55_linear_756_4083)"/>
<path d="M545.035 341.066H667.972" stroke="url(#paint56_linear_756_4083)"/>
<path d="M544.955 341.09H668.049" stroke="url(#paint57_linear_756_4083)"/>
<path d="M544.859 341.117H668.151" stroke="url(#paint58_linear_756_4083)"/>
<path d="M544.736 341.148H668.276" stroke="url(#paint59_linear_756_4083)"/>
<path d="M544.582 341.191H668.431" stroke="url(#paint60_linear_756_4083)"/>
<path d="M544.389 341.242H668.62" stroke="url(#paint61_linear_756_4083)"/>
<path d="M544.152 341.305H668.855" stroke="url(#paint62_linear_756_4083)"/>
<path d="M543.865 341.383H669.145" stroke="url(#paint63_linear_756_4083)"/>
<path d="M543.514 341.477H669.496" stroke="url(#paint64_linear_756_4083)"/>
<path d="M543.086 341.59H669.921" stroke="url(#paint65_linear_756_4083)"/>
<path d="M542.572 341.727H670.435" stroke="url(#paint66_linear_756_4083)"/>
<path d="M541.957 341.895H671.055" stroke="url(#paint67_linear_756_4083)"/>
<path d="M541.217 342.09H671.792" stroke="url(#paint68_linear_756_4083)"/>
<path d="M540.338 342.324H672.673" stroke="url(#paint69_linear_756_4083)"/>
<path d="M539.293 342.605H673.716" stroke="url(#paint70_linear_756_4083)"/>
<path d="M538.059 342.938H674.95" stroke="url(#paint71_linear_756_4083)"/>
<path d="M536.604 343.324H676.403" stroke="url(#paint72_linear_756_4083)"/>
<path d="M534.898 343.785H678.111" stroke="url(#paint73_linear_756_4083)"/>
<path d="M532.902 344.316H680.109" stroke="url(#paint74_linear_756_4083)"/>
<path d="M530.57 344.941H682.436" stroke="url(#paint75_linear_756_4083)"/>
<path d="M527.861 345.668H685.146" stroke="url(#paint76_linear_756_4083)"/>
<path d="M524.723 346.508H688.29" stroke="url(#paint77_linear_756_4083)"/>
<path d="M521.088 347.48H691.92" stroke="url(#paint78_linear_756_4083)"/>
<path d="M516.898 348.602H696.109" stroke="url(#paint79_linear_756_4083)"/>
<path d="M512.082 349.891H700.93" stroke="url(#paint80_linear_756_4083)"/>
<path d="M506.553 351.371H706.459" stroke="url(#paint81_linear_756_4083)"/>
<path d="M500.223 353.066H712.785" stroke="url(#paint82_linear_756_4083)"/>
<path d="M492.998 355.004H720.014" stroke="url(#paint83_linear_756_4083)"/>
<path d="M484.762 357.207H728.245" stroke="url(#paint84_linear_756_4083)"/>
<path d="M475.404 359.715H737.61" stroke="url(#paint85_linear_756_4083)"/>
<path d="M464.779 362.559H748.227" stroke="url(#paint86_linear_756_4083)"/>
<path d="M452.756 365.781H760.254" stroke="url(#paint87_linear_756_4083)"/>
<path d="M439.17 369.418H773.844" stroke="url(#paint88_linear_756_4083)"/>
<path d="M423.844 373.52H789.167" stroke="url(#paint89_linear_756_4083)"/>
<path d="M406.59 378.141H806.417" stroke="url(#paint90_linear_756_4083)"/>
<path d="M387.207 383.332H825.808" stroke="url(#paint91_linear_756_4083)"/>
<path d="M365.455 389.156H847.551" stroke="url(#paint92_linear_756_4083)"/>
<path d="M341.104 395.676H871.908" stroke="url(#paint93_linear_756_4083)"/>
<path d="M313.871 402.969H899.135" stroke="url(#paint94_linear_756_4083)"/>
<path d="M283.477 411.105H929.532" stroke="url(#paint95_linear_756_4083)"/>
<path d="M249.604 420.176H963.413" stroke="url(#paint96_linear_756_4083)"/>
<path d="M211.9 430.273H1001.11" stroke="url(#paint97_linear_756_4083)"/>
<path d="M170.006 441.492H1043" stroke="url(#paint98_linear_756_4083)"/>
<path d="M123.52 453.941H1089.49" stroke="url(#paint99_linear_756_4083)"/>
<path d="M72.0078 467.734H1141.01" stroke="url(#paint100_linear_756_4083)"/>
<path d="M15 483H1198.01" stroke="url(#paint101_linear_756_4083)"/>
<g filter="url(#filter0_fg_756_4083)">
<path d="M734 377.5C734 382.747 671.32 387 594 387C516.68 387 454 382.747 454 377.5C454 372.253 516.68 368 594 368C671.32 368 734 372.253 734 377.5Z" fill="url(#paint102_linear_756_4083)" fill-opacity="0.7"/>
</g>
<path d="M25.66 372.8H33.34V440H25.66V372.8ZM48.892 392H55.516L55.9 398.816C57.436 396.448 59.452 394.624 61.948 393.344C64.444 392 67.356 391.328 70.684 391.328C74.332 391.328 77.532 392.128 80.284 393.728C83.036 395.264 85.18 397.6 86.716 400.736C88.252 403.808 89.02 407.68 89.02 412.352V440H81.82V413.216C81.82 408.224 80.732 404.448 78.556 401.888C76.444 399.264 73.372 397.952 69.34 397.952C65.18 397.952 61.916 399.328 59.548 402.08C57.244 404.832 56.092 408.896 56.092 414.272V440H48.892V392ZM102.986 392H109.61L109.994 398.816C111.53 396.448 113.546 394.624 116.042 393.344C118.538 392 121.45 391.328 124.778 391.328C128.426 391.328 131.626 392.128 134.378 393.728C137.13 395.264 139.274 397.6 140.81 400.736C142.346 403.808 143.114 407.68 143.114 412.352V440H135.914V413.216C135.914 408.224 134.826 404.448 132.65 401.888C130.538 399.264 127.466 397.952 123.434 397.952C119.274 397.952 116.01 399.328 113.642 402.08C111.338 404.832 110.186 408.896 110.186 414.272V440H102.986V392ZM177.816 440.672C173.272 440.672 169.208 439.68 165.624 437.696C162.04 435.712 159.224 432.896 157.176 429.248C155.128 425.536 154.104 421.152 154.104 416.096C154.104 410.976 155.128 406.56 157.176 402.848C159.288 399.136 162.136 396.288 165.72 394.304C169.368 392.32 173.464 391.328 178.008 391.328C182.552 391.328 186.616 392.32 190.2 394.304C193.848 396.288 196.696 399.136 198.744 402.848C200.856 406.496 201.912 410.848 201.912 415.904C201.912 421.024 200.856 425.44 198.744 429.152C196.632 432.864 193.752 435.712 190.104 437.696C186.456 439.68 182.36 440.672 177.816 440.672ZM177.72 433.856C180.536 433.856 183.192 433.248 185.688 432.032C188.184 430.752 190.2 428.8 191.736 426.176C193.336 423.488 194.136 420.096 194.136 416C194.136 411.84 193.368 408.448 191.832 405.824C190.296 403.2 188.28 401.28 185.784 400.064C183.352 398.784 180.728 398.144 177.911 398.144C175.095 398.144 172.472 398.784 170.04 400.064C167.608 401.28 165.624 403.232 164.088 405.92C162.616 408.544 161.88 411.904 161.88 416C161.88 420.16 162.616 423.552 164.088 426.176C165.56 428.8 167.48 430.752 169.848 432.032C172.28 433.248 174.904 433.856 177.72 433.856ZM216.489 392L231.656 431.936L246.921 392H254.505L235.305 440H227.817L208.809 392H216.489ZM294.378 440L293.802 431.36C292.458 434.304 290.474 436.608 287.85 438.272C285.226 439.872 281.898 440.672 277.866 440.672C274.41 440.672 271.466 440.128 269.034 439.04C266.602 437.952 264.714 436.416 263.37 434.432C262.09 432.384 261.45 429.984 261.45 427.232C261.45 423.2 262.954 419.904 265.962 417.344C268.97 414.72 273.322 413.12 279.018 412.544L293.802 410.912V407.072C293.802 404.384 292.81 402.24 290.826 400.64C288.842 398.976 286.154 398.144 282.762 398.144C279.434 398.144 276.65 398.912 274.41 400.448C272.234 401.984 270.73 404.192 269.898 407.072L263.37 404.768C264.65 400.544 266.986 397.248 270.378 394.88C273.834 392.512 278.026 391.328 282.954 391.328C288.65 391.328 293.066 392.8 296.202 395.744C299.402 398.624 301.002 402.56 301.002 407.552V440H294.378ZM293.802 417.056L278.922 418.784C275.722 419.168 273.29 420.064 271.626 421.472C269.962 422.816 269.13 424.608 269.13 426.848C269.13 429.088 269.93 430.88 271.53 432.224C273.194 433.568 275.562 434.24 278.634 434.24C282.154 434.24 285.034 433.536 287.274 432.128C289.514 430.72 291.146 428.832 292.17 426.464C293.258 424.032 293.802 421.408 293.802 418.592V417.056ZM318.12 392V378.56H325.32V392H338.088V398.72H325.32V424.544C325.32 427.488 325.928 429.632 327.144 430.976C328.424 432.32 330.024 433.12 331.944 433.376C333.928 433.632 335.976 433.632 338.088 433.376V439.616C335.592 440.192 333.128 440.352 330.696 440.096C328.328 439.84 326.184 439.136 324.264 437.984C322.408 436.768 320.904 435.072 319.752 432.896C318.664 430.72 318.12 427.936 318.12 424.544V398.72H310.92V392H318.12ZM368.958 440.672C364.478 440.672 360.478 439.584 356.958 437.408C353.502 435.232 350.782 432.256 348.798 428.48C346.814 424.704 345.822 420.384 345.822 415.52C345.822 410.848 346.814 406.688 348.798 403.04C350.782 399.392 353.502 396.544 356.958 394.496C360.414 392.384 364.35 391.328 368.766 391.328C373.118 391.328 376.99 392.288 380.382 394.208C383.838 396.128 386.526 398.784 388.446 402.176C390.366 405.568 391.262 409.44 391.134 413.792C391.134 414.496 391.102 415.232 391.038 416C390.974 416.768 390.91 417.6 390.846 418.496H353.694C353.822 421.504 354.558 424.16 355.902 426.464C357.246 428.768 359.006 430.592 361.182 431.936C363.422 433.216 365.95 433.856 368.766 433.856C372.478 433.856 375.614 433.152 378.174 431.744C380.798 430.336 382.686 428.32 383.838 425.696L390.078 428.192C388.158 432.224 385.374 435.328 381.726 437.504C378.078 439.616 373.822 440.672 368.958 440.672ZM383.262 412.256C383.326 409.504 382.718 407.072 381.438 404.96C380.222 402.848 378.494 401.184 376.254 399.968C374.014 398.752 371.422 398.144 368.478 398.144C365.918 398.144 363.582 398.752 361.47 399.968C359.358 401.184 357.598 402.88 356.19 405.056C354.846 407.168 354.046 409.568 353.79 412.256H383.262ZM406.922 440.48C405.45 440.48 404.202 439.968 403.178 438.944C402.218 437.92 401.738 436.672 401.738 435.2C401.738 433.728 402.218 432.48 403.178 431.456C404.202 430.432 405.45 429.92 406.922 429.92C408.33 429.92 409.546 430.432 410.57 431.456C411.594 432.48 412.106 433.728 412.106 435.2C412.106 436.672 411.594 437.92 410.57 438.944C409.546 439.968 408.33 440.48 406.922 440.48ZM448.524 372.8C455.948 372.8 462.284 374.176 467.531 376.928C472.844 379.616 476.908 383.488 479.724 388.544C482.604 393.6 484.044 399.616 484.044 406.592C484.044 413.504 482.604 419.456 479.724 424.448C476.908 429.44 472.844 433.28 467.531 435.968C462.284 438.656 455.948 440 448.524 440H426.348V372.8H448.524ZM448.524 433.28C457.676 433.28 464.588 430.944 469.26 426.272C473.932 421.6 476.268 415.04 476.268 406.592C476.268 398.08 473.932 391.456 469.26 386.72C464.588 381.92 457.676 379.52 448.524 379.52H434.028V433.28H448.524ZM515.677 440.672C511.197 440.672 507.197 439.584 503.677 437.408C500.221 435.232 497.501 432.256 495.517 428.48C493.533 424.704 492.541 420.384 492.541 415.52C492.541 410.848 493.533 406.688 495.517 403.04C497.501 399.392 500.221 396.544 503.677 394.496C507.133 392.384 511.069 391.328 515.485 391.328C519.837 391.328 523.709 392.288 527.101 394.208C530.557 396.128 533.245 398.784 535.165 402.176C537.085 405.568 537.981 409.44 537.853 413.792C537.853 414.496 537.821 415.232 537.757 416C537.693 416.768 537.629 417.6 537.565 418.496H500.413C500.541 421.504 501.277 424.16 502.621 426.464C503.965 428.768 505.725 430.592 507.901 431.936C510.141 433.216 512.669 433.856 515.485 433.856C519.197 433.856 522.333 433.152 524.893 431.744C527.517 430.336 529.405 428.32 530.557 425.696L536.797 428.192C534.877 432.224 532.093 435.328 528.445 437.504C524.797 439.616 520.541 440.672 515.677 440.672ZM529.981 412.256C530.045 409.504 529.437 407.072 528.157 404.96C526.941 402.848 525.213 401.184 522.973 399.968C520.733 398.752 518.141 398.144 515.197 398.144C512.637 398.144 510.301 398.752 508.189 399.968C506.077 401.184 504.317 402.88 502.909 405.056C501.565 407.168 500.765 409.568 500.509 412.256H529.981ZM553.641 425.312C554.025 427.232 554.729 428.832 555.753 430.112C556.777 431.328 558.089 432.256 559.689 432.896C561.353 433.536 563.273 433.856 565.449 433.856C568.841 433.856 571.401 433.216 573.129 431.936C574.921 430.592 575.817 428.928 575.817 426.944C575.817 425.28 575.273 423.936 574.185 422.912C573.161 421.888 571.785 421.056 570.057 420.416C568.329 419.712 566.409 419.104 564.297 418.592C562.633 418.208 560.841 417.76 558.921 417.248C557.001 416.672 555.177 415.904 553.449 414.944C551.721 413.984 550.313 412.736 549.225 411.2C548.137 409.664 547.593 407.648 547.593 405.152C547.593 402.4 548.329 400 549.801 397.952C551.337 395.84 553.417 394.208 556.041 393.056C558.729 391.904 561.801 391.328 565.257 391.328C569.225 391.328 572.745 392.192 575.817 393.92C578.953 395.648 581.129 398.336 582.345 401.984L575.625 404.288C575.177 402.624 574.345 401.344 573.129 400.448C571.977 399.552 570.665 398.944 569.193 398.624C567.785 398.304 566.377 398.144 564.969 398.144C562.089 398.144 559.753 398.72 557.961 399.872C556.233 400.96 555.369 402.624 555.369 404.864C555.369 406.08 555.657 407.104 556.233 407.936C556.809 408.704 557.609 409.344 558.633 409.856C559.657 410.368 560.873 410.816 562.281 411.2C563.689 411.52 565.225 411.904 566.889 412.352C568.745 412.8 570.633 413.376 572.553 414.08C574.473 414.72 576.265 415.584 577.929 416.672C579.593 417.696 580.937 419.04 581.961 420.704C583.049 422.304 583.593 424.32 583.593 426.752C583.593 429.568 582.825 432.032 581.289 434.144C579.753 436.192 577.609 437.792 574.857 438.944C572.169 440.096 569.033 440.672 565.449 440.672C560.521 440.672 556.425 439.584 553.161 437.408C549.961 435.168 547.817 431.904 546.729 427.616L553.641 425.312ZM596.707 392H603.811V440H596.707V392ZM600.355 382.4C598.883 382.4 597.667 381.92 596.707 380.96C595.747 380 595.267 378.816 595.267 377.408C595.267 375.936 595.747 374.72 596.707 373.76C597.667 372.8 598.883 372.32 600.355 372.32C601.699 372.32 602.851 372.8 603.811 373.76C604.835 374.72 605.347 375.936 605.347 377.408C605.347 378.816 604.835 380 603.811 380.96C602.851 381.92 601.699 382.4 600.355 382.4ZM656.881 392H663.505V431.168C663.505 437.056 662.193 442.08 659.569 446.24C656.945 450.464 653.137 453.664 648.145 455.84C643.153 458.08 637.073 459.2 629.905 459.2L628.753 452.576C637.777 452.448 644.625 450.56 649.297 446.912C653.969 443.328 656.305 438.08 656.305 431.168V430.112L657.073 430.304C655.601 433.12 653.393 435.552 650.449 437.6C647.505 439.584 643.697 440.608 639.025 440.672C634.609 440.672 630.737 439.68 627.409 437.696C624.145 435.648 621.585 432.768 619.729 429.056C617.937 425.344 617.041 420.992 617.041 416C617.041 411.008 617.937 406.688 619.729 403.04C621.585 399.328 624.145 396.448 627.409 394.4C630.737 392.352 634.609 391.328 639.025 391.328C641.905 391.328 644.465 391.776 646.705 392.672C648.945 393.504 650.865 394.656 652.465 396.128C654.065 397.536 655.377 399.136 656.401 400.928L656.881 392ZM624.817 416C624.817 421.504 626.225 425.888 629.041 429.152C631.921 432.352 635.793 433.952 640.657 433.952C643.601 433.952 646.257 433.248 648.625 431.84C650.993 430.432 652.849 428.384 654.193 425.696C655.601 423.008 656.305 419.776 656.305 416C656.305 412.224 655.601 409.024 654.193 406.4C652.849 403.712 650.993 401.664 648.625 400.256C646.257 398.784 643.601 398.048 640.657 398.048C635.857 398.048 632.017 399.68 629.137 402.944C626.257 406.208 624.817 410.56 624.817 416ZM678.236 392H684.86L685.244 398.816C686.78 396.448 688.796 394.624 691.292 393.344C693.788 392 696.7 391.328 700.028 391.328C703.676 391.328 706.876 392.128 709.628 393.728C712.38 395.264 714.524 397.6 716.06 400.736C717.596 403.808 718.364 407.68 718.364 412.352V440H711.164V413.216C711.164 408.224 710.076 404.448 707.9 401.888C705.788 399.264 702.716 397.952 698.684 397.952C694.524 397.952 691.26 399.328 688.892 402.08C686.588 404.832 685.436 408.896 685.436 414.272V440H678.236V392ZM736.266 440.48C734.794 440.48 733.546 439.968 732.522 438.944C731.562 437.92 731.082 436.672 731.082 435.2C731.082 433.728 731.562 432.48 732.522 431.456C733.546 430.432 734.794 429.92 736.266 429.92C737.674 429.92 738.89 430.432 739.914 431.456C740.938 432.48 741.45 433.728 741.45 435.2C741.45 436.672 740.938 437.92 739.914 438.944C738.89 439.968 737.674 440.48 736.266 440.48ZM751.659 372.8H802.059V379.52H780.747V440H773.067V379.52H751.659V372.8ZM813.517 392H820.141L820.525 399.008C821.805 397.28 823.341 395.808 825.133 394.592C826.989 393.376 829.005 392.544 831.181 392.096C833.421 391.584 835.789 391.552 838.285 392V399.2C835.597 398.688 833.165 398.688 830.989 399.2C828.877 399.712 827.053 400.672 825.517 402.08C823.981 403.488 822.797 405.28 821.965 407.456C821.133 409.568 820.717 412.032 820.717 414.848V440H813.517V392ZM878.159 440L877.583 431.36C876.239 434.304 874.255 436.608 871.631 438.272C869.007 439.872 865.679 440.672 861.647 440.672C858.191 440.672 855.247 440.128 852.815 439.04C850.383 437.952 848.495 436.416 847.151 434.432C845.871 432.384 845.231 429.984 845.231 427.232C845.231 423.2 846.735 419.904 849.743 417.344C852.751 414.72 857.103 413.12 862.799 412.544L877.583 410.912V407.072C877.583 404.384 876.591 402.24 874.607 400.64C872.623 398.976 869.935 398.144 866.543 398.144C863.215 398.144 860.431 398.912 858.191 400.448C856.015 401.984 854.511 404.192 853.679 407.072L847.151 404.768C848.431 400.544 850.767 397.248 854.159 394.88C857.615 392.512 861.807 391.328 866.735 391.328C872.431 391.328 876.847 392.8 879.983 395.744C883.183 398.624 884.783 402.56 884.783 407.552V440H878.159ZM877.583 417.056L862.703 418.784C859.503 419.168 857.071 420.064 855.407 421.472C853.743 422.816 852.911 424.608 852.911 426.848C852.911 429.088 853.711 430.88 855.311 432.224C856.975 433.568 859.343 434.24 862.415 434.24C865.935 434.24 868.815 433.536 871.055 432.128C873.295 430.72 874.927 428.832 875.951 426.464C877.039 424.032 877.583 421.408 877.583 418.592V417.056ZM898.83 392H905.454L905.838 398.816C907.374 396.448 909.39 394.624 911.886 393.344C914.382 392 917.294 391.328 920.622 391.328C924.27 391.328 927.47 392.128 930.222 393.728C932.974 395.264 935.118 397.6 936.654 400.736C938.19 403.808 938.958 407.68 938.958 412.352V440H931.758V413.216C931.758 408.224 930.67 404.448 928.494 401.888C926.382 399.264 923.31 397.952 919.278 397.952C915.118 397.952 911.854 399.328 909.486 402.08C907.182 404.832 906.03 408.896 906.03 414.272V440H898.83V392ZM956.859 425.312C957.243 427.232 957.947 428.832 958.971 430.112C959.995 431.328 961.307 432.256 962.907 432.896C964.571 433.536 966.491 433.856 968.667 433.856C972.059 433.856 974.619 433.216 976.347 431.936C978.139 430.592 979.035 428.928 979.035 426.944C979.035 425.28 978.491 423.936 977.403 422.912C976.379 421.888 975.003 421.056 973.275 420.416C971.547 419.712 969.627 419.104 967.515 418.592C965.851 418.208 964.059 417.76 962.139 417.248C960.219 416.672 958.395 415.904 956.667 414.944C954.939 413.984 953.531 412.736 952.443 411.2C951.355 409.664 950.811 407.648 950.811 405.152C950.811 402.4 951.547 400 953.019 397.952C954.555 395.84 956.635 394.208 959.259 393.056C961.947 391.904 965.019 391.328 968.475 391.328C972.443 391.328 975.963 392.192 979.035 393.92C982.171 395.648 984.347 398.336 985.563 401.984L978.843 404.288C978.395 402.624 977.563 401.344 976.347 400.448C975.195 399.552 973.883 398.944 972.411 398.624C971.003 398.304 969.595 398.144 968.187 398.144C965.307 398.144 962.971 398.72 961.179 399.872C959.451 400.96 958.587 402.624 958.587 404.864C958.587 406.08 958.875 407.104 959.451 407.936C960.027 408.704 960.827 409.344 961.851 409.856C962.875 410.368 964.091 410.816 965.499 411.2C966.907 411.52 968.443 411.904 970.107 412.352C971.963 412.8 973.851 413.376 975.771 414.08C977.691 414.72 979.483 415.584 981.147 416.672C982.811 417.696 984.155 419.04 985.179 420.704C986.267 422.304 986.811 424.32 986.811 426.752C986.811 429.568 986.043 432.032 984.507 434.144C982.971 436.192 980.827 437.792 978.075 438.944C975.387 440.096 972.251 440.672 968.667 440.672C963.739 440.672 959.643 439.584 956.379 437.408C953.179 435.168 951.035 431.904 949.947 427.616L956.859 425.312ZM1001.08 386.336C1001.08 382.816 1001.65 379.84 1002.81 377.408C1003.96 374.976 1005.78 373.216 1008.28 372.128C1010.84 370.976 1014.23 370.56 1018.45 370.88V377.312C1014.61 376.992 1011.96 377.632 1010.49 379.232C1009.01 380.768 1008.28 383.136 1008.28 386.336V392H1018.84V398.72H1008.28V440H1001.08V398.72H994.358V392H1001.08V386.336ZM1050.35 440.672C1045.8 440.672 1041.74 439.68 1038.15 437.696C1034.57 435.712 1031.75 432.896 1029.71 429.248C1027.66 425.536 1026.63 421.152 1026.63 416.096C1026.63 410.976 1027.66 406.56 1029.71 402.848C1031.82 399.136 1034.67 396.288 1038.25 394.304C1041.9 392.32 1045.99 391.328 1050.54 391.328C1055.08 391.328 1059.15 392.32 1062.73 394.304C1066.38 396.288 1069.23 399.136 1071.27 402.848C1073.39 406.496 1074.44 410.848 1074.44 415.904C1074.44 421.024 1073.39 425.44 1071.27 429.152C1069.16 432.864 1066.28 435.712 1062.63 437.696C1058.99 439.68 1054.89 440.672 1050.35 440.672ZM1050.25 433.856C1053.07 433.856 1055.72 433.248 1058.22 432.032C1060.71 430.752 1062.73 428.8 1064.27 426.176C1065.87 423.488 1066.67 420.096 1066.67 416C1066.67 411.84 1065.9 408.448 1064.36 405.824C1062.83 403.2 1060.81 401.28 1058.31 400.064C1055.88 398.784 1053.26 398.144 1050.44 398.144C1047.63 398.144 1045 398.784 1042.57 400.064C1040.14 401.28 1038.15 403.232 1036.62 405.92C1035.15 408.544 1034.41 411.904 1034.41 416C1034.41 420.16 1035.15 423.552 1036.62 426.176C1038.09 428.8 1040.01 430.752 1042.38 432.032C1044.81 433.248 1047.43 433.856 1050.25 433.856ZM1086.24 392H1092.86L1093.24 399.008C1094.52 397.28 1096.06 395.808 1097.85 394.592C1099.71 393.376 1101.72 392.544 1103.9 392.096C1106.14 391.584 1108.51 391.552 1111 392V399.2C1108.32 398.688 1105.88 398.688 1103.71 399.2C1101.6 399.712 1099.77 400.672 1098.24 402.08C1096.7 403.488 1095.52 405.28 1094.68 407.456C1093.85 409.568 1093.44 412.032 1093.44 414.848V440H1086.24V392ZM1120.83 392H1127.45L1127.93 398.912C1129.34 396.608 1131.23 394.784 1133.6 393.44C1136.03 392.032 1138.91 391.328 1142.24 391.328C1145.63 391.328 1148.7 392.16 1151.45 393.824C1154.27 395.424 1156.45 397.824 1157.98 401.024C1159.45 397.76 1161.69 395.328 1164.7 393.728C1167.71 392.128 1171.04 391.328 1174.69 391.328C1178.27 391.328 1181.44 392.128 1184.19 393.728C1186.94 395.264 1189.09 397.6 1190.62 400.736C1192.16 403.808 1192.93 407.68 1192.93 412.352V440H1185.73V413.216C1185.73 408.224 1184.64 404.448 1182.46 401.888C1180.35 399.264 1177.31 397.952 1173.34 397.952C1169.31 397.952 1166.11 399.36 1163.74 402.176C1161.37 404.928 1160.19 409.024 1160.19 414.464V440H1152.99V413.216C1152.99 408.224 1151.97 404.448 1149.92 401.888C1147.87 399.264 1144.86 397.952 1140.89 397.952C1136.86 397.952 1133.69 399.36 1131.39 402.176C1129.15 404.928 1128.03 409.024 1128.03 414.464V440H1120.83V392Z" fill="black"/>
<path d="M582.741 136.006C587.701 141.441 590.45 148.534 590.45 155.892V309.483C585.231 309.093 580.085 308.444 575.022 307.551V168.804C575.022 161.162 572.154 153.799 566.984 148.172L482.396 56.0811C486.707 50.8523 491.356 45.9115 496.306 41.29L582.741 136.006ZM712.723 45.8369C716.649 49.8217 720.361 54.0175 723.841 58.4062L641.389 148.172C636.22 153.799 633.351 161.163 633.351 168.804V306.788C628.47 307.783 623.507 308.548 618.472 309.073V156.29C618.472 148.698 621.399 141.398 626.645 135.909L712.723 45.8369ZM540.568 156.893C545.721 162.365 548.591 169.599 548.591 177.115V300.418C541.268 297.723 534.206 294.491 527.45 290.771V186.496C527.45 178.708 524.47 171.215 519.123 165.554L457.01 99.791C459.785 92.4641 463.1 85.4031 466.904 78.6543L540.568 156.893ZM738.935 81.3438C741.753 86.5849 744.28 92.0063 746.492 97.5869L685.861 157.511C680.064 163.24 676.801 171.053 676.801 179.204V288.205C676.801 289.068 676.886 289.901 677.044 290.697C671.489 293.763 665.726 296.497 659.782 298.875V177.115C659.782 169.599 662.652 162.365 667.805 156.893L738.935 81.3438ZM754.23 123.593C756.281 133.656 757.359 144.073 757.359 154.741C757.359 202.617 735.676 245.427 701.597 273.893V187.381C701.597 179.432 704.805 171.818 710.495 166.267L754.23 123.593ZM494.415 174.873C499.667 180.363 502.598 187.668 502.599 195.266V273.757C468.613 245.291 447 202.541 447 154.741C447 145.538 447.803 136.521 449.34 127.758L494.415 174.873ZM618.472 0.40918C646.622 3.34633 672.534 13.8094 694.16 29.751L621.096 112.348C620.181 113.381 618.472 112.734 618.472 111.354V0.40918ZM590.45 111.232C590.45 112.624 588.719 113.265 587.812 112.209L514.443 26.7305C536.376 11.6698 562.371 2.09842 590.45 0V111.232Z" fill="url(#paint103_linear_756_4083)"/>
<defs>
<filter id="filter0_fg_756_4083" x="447" y="361" width="294" height="33" filterUnits="userSpaceOnUse" color-interpolation-filters="sRGB">
<feFlood flood-opacity="0" result="BackgroundImageFix"/>
<feBlend mode="normal" in="SourceGraphic" in2="BackgroundImageFix" result="shape"/>
<feGaussianBlur stdDeviation="3.5" result="effect1_foregroundBlur_756_4083"/>
<feTurbulence type="fractalNoise" baseFrequency="0.040650404989719391 0.040650404989719391" numOctaves="3" seed="5853" />
<feDisplacementMap in="effect1_foregroundBlur_756_4083" scale="8" xChannelSelector="R" yChannelSelector="G" result="displacedImage" width="100%" height="100%" />
<feMerge result="effect2_texture_756_4083">
<feMergeNode in="displacedImage"/>
</feMerge>
</filter>
<linearGradient id="paint0_linear_756_4083" x1="280.146" y1="412" x2="280.404" y2="412.964" gradientUnits="userSpaceOnUse">
<stop stop-color="#E5E5E5"/>
<stop offset="1" stop-color="#D3CAFD"/>
</linearGradient>
<linearGradient id="paint1_linear_756_4083" x1="379.611" y1="412" x2="379.993" y2="412.919" gradientUnits="userSpaceOnUse">
<stop stop-color="#E5E5E5"/>
<stop offset="1" stop-color="#D3CAFD"/>
</linearGradient>
<linearGradient id="paint2_linear_756_4083" x1="432.575" y1="411.999" x2="433.07" y2="412.86" gradientUnits="userSpaceOnUse">
<stop stop-color="#E5E5E5"/>
<stop offset="1" stop-color="#D3CAFD"/>
</linearGradient>
<linearGradient id="paint3_linear_756_4083" x1="467.312" y1="411.999" x2="467.909" y2="412.79" gradientUnits="userSpaceOnUse">
<stop stop-color="#E5E5E5"/>
<stop offset="1" stop-color="#D3CAFD"/>
</linearGradient>
<linearGradient id="paint4_linear_756_4083" x1="493.068" y1="411.999" x2="493.755" y2="412.711" gradientUnits="userSpaceOnUse">
<stop stop-color="#E5E5E5"/>
<stop offset="1" stop-color="#D3CAFD"/>
</linearGradient>
<linearGradient id="paint5_linear_756_4083" x1="513.775" y1="411.999" x2="514.54" y2="412.626" gradientUnits="userSpaceOnUse">
<stop stop-color="#E5E5E5"/>
<stop offset="1" stop-color="#D3CAFD"/>
</linearGradient>
<linearGradient id="paint6_linear_756_4083" x1="531.391" y1="411.999" x2="532.223" y2="412.536" gradientUnits="userSpaceOnUse">
<stop stop-color="#E5E5E5"/>
<stop offset="1" stop-color="#D3CAFD"/>
</linearGradient>
<linearGradient id="paint7_linear_756_4083" x1="547.025" y1="411.999" x2="547.912" y2="412.443" gradientUnits="userSpaceOnUse">
<stop stop-color="#E5E5E5"/>
<stop offset="1" stop-color="#D3CAFD"/>
</linearGradient>
<linearGradient id="paint8_linear_756_4083" x1="561.343" y1="412" x2="562.275" y2="412.348" gradientUnits="userSpaceOnUse">
<stop stop-color="#E5E5E5"/>
<stop offset="1" stop-color="#D3CAFD"/>
</linearGradient>
<linearGradient id="paint9_linear_756_4083" x1="574.785" y1="412" x2="575.75" y2="412.25" gradientUnits="userSpaceOnUse">
<stop stop-color="#E5E5E5"/>
<stop offset="1" stop-color="#D3CAFD"/>
</linearGradient>
<linearGradient id="paint10_linear_756_4083" x1="587.68" y1="412" x2="588.667" y2="412.15" gradientUnits="userSpaceOnUse">
<stop stop-color="#E5E5E5"/>
<stop offset="1" stop-color="#D3CAFD"/>
</linearGradient>
<linearGradient id="paint11_linear_756_4083" x1="600.265" y1="412" x2="601.263" y2="412.05" gradientUnits="userSpaceOnUse">
<stop stop-color="#E5E5E5"/>
<stop offset="1" stop-color="#D3CAFD"/>
</linearGradient>
<linearGradient id="paint12_linear_756_4083" x1="612.745" y1="412" x2="613.743" y2="411.949" gradientUnits="userSpaceOnUse">
<stop stop-color="#E5E5E5"/>
<stop offset="1" stop-color="#D3CAFD"/>
</linearGradient>
<linearGradient id="paint13_linear_756_4083" x1="625.33" y1="412" x2="626.317" y2="411.849" gradientUnits="userSpaceOnUse">
<stop stop-color="#E5E5E5"/>
<stop offset="1" stop-color="#D3CAFD"/>
</linearGradient>
<linearGradient id="paint14_linear_756_4083" x1="638.223" y1="412" x2="639.188" y2="411.749" gradientUnits="userSpaceOnUse">
<stop stop-color="#E5E5E5"/>
<stop offset="1" stop-color="#D3CAFD"/>
</linearGradient>
<linearGradient id="paint15_linear_756_4083" x1="651.67" y1="412" x2="652.602" y2="411.651" gradientUnits="userSpaceOnUse">
<stop stop-color="#E5E5E5"/>
<stop offset="1" stop-color="#D3CAFD"/>
</linearGradient>
<linearGradient id="paint16_linear_756_4083" x1="665.985" y1="411.999" x2="666.872" y2="411.556" gradientUnits="userSpaceOnUse">
<stop stop-color="#E5E5E5"/>
<stop offset="1" stop-color="#D3CAFD"/>
</linearGradient>
<linearGradient id="paint17_linear_756_4083" x1="681.618" y1="411.999" x2="682.45" y2="411.462" gradientUnits="userSpaceOnUse">
<stop stop-color="#E5E5E5"/>
<stop offset="1" stop-color="#D3CAFD"/>
</linearGradient>
<linearGradient id="paint18_linear_756_4083" x1="699.239" y1="411.999" x2="700.004" y2="411.373" gradientUnits="userSpaceOnUse">
<stop stop-color="#E5E5E5"/>
<stop offset="1" stop-color="#D3CAFD"/>
</linearGradient>
<linearGradient id="paint19_linear_756_4083" x1="719.946" y1="411.999" x2="720.633" y2="411.288" gradientUnits="userSpaceOnUse">
<stop stop-color="#E5E5E5"/>
<stop offset="1" stop-color="#D3CAFD"/>
</linearGradient>
<linearGradient id="paint20_linear_756_4083" x1="745.698" y1="411.999" x2="746.295" y2="411.209" gradientUnits="userSpaceOnUse">
<stop stop-color="#E5E5E5"/>
<stop offset="1" stop-color="#D3CAFD"/>
</linearGradient>
<linearGradient id="paint21_linear_756_4083" x1="780.433" y1="411.999" x2="780.928" y2="411.139" gradientUnits="userSpaceOnUse">
<stop stop-color="#E5E5E5"/>
<stop offset="1" stop-color="#D3CAFD"/>
</linearGradient>
<linearGradient id="paint22_linear_756_4083" x1="833.402" y1="412" x2="833.784" y2="411.08" gradientUnits="userSpaceOnUse">
<stop stop-color="#E5E5E5"/>
<stop offset="1" stop-color="#D3CAFD"/>
</linearGradient>
<linearGradient id="paint23_linear_756_4083" x1="932.862" y1="412" x2="933.12" y2="411.036" gradientUnits="userSpaceOnUse">
<stop stop-color="#E5E5E5"/>
<stop offset="1" stop-color="#D3CAFD"/>
</linearGradient>
<linearGradient id="paint24_linear_756_4083" x1="545.291" y1="341.5" x2="667.717" y2="341.5" gradientUnits="userSpaceOnUse">
<stop stop-color="#E5E5E5"/>
<stop offset="1" stop-color="#D3CAFD"/>
</linearGradient>
<linearGradient id="paint25_linear_756_4083" x1="545.291" y1="341.5" x2="667.717" y2="341.5" gradientUnits="userSpaceOnUse">
<stop stop-color="#E5E5E5"/>
<stop offset="1" stop-color="#D3CAFD"/>
</linearGradient>
<linearGradient id="paint26_linear_756_4083" x1="545.291" y1="341.5" x2="667.717" y2="341.5" gradientUnits="userSpaceOnUse">
<stop stop-color="#E5E5E5"/>
<stop offset="1" stop-color="#D3CAFD"/>
</linearGradient>
<linearGradient id="paint27_linear_756_4083" x1="545.291" y1="341.5" x2="667.717" y2="341.5" gradientUnits="userSpaceOnUse">
<stop stop-color="#E5E5E5"/>
<stop offset="1" stop-color="#D3CAFD"/>
</linearGradient>
<linearGradient id="paint28_linear_756_4083" x1="545.291" y1="341.5" x2="667.717" y2="341.5" gradientUnits="userSpaceOnUse">
<stop stop-color="#E5E5E5"/>
<stop offset="1" stop-color="#D3CAFD"/>
</linearGradient>
<linearGradient id="paint29_linear_756_4083" x1="545.291" y1="341.5" x2="667.717" y2="341.5" gradientUnits="userSpaceOnUse">
<stop stop-color="#E5E5E5"/>
<stop offset="1" stop-color="#D3CAFD"/>
</linearGradient>
<linearGradient id="paint30_linear_756_4083" x1="545.291" y1="341.5" x2="667.717" y2="341.5" gradientUnits="userSpaceOnUse">
<stop stop-color="#E5E5E5"/>
<stop offset="1" stop-color="#D3CAFD"/>
</linearGradient>
<linearGradient id="paint31_linear_756_4083" x1="545.291" y1="341.5" x2="667.717" y2="341.5" gradientUnits="userSpaceOnUse">
<stop stop-color="#E5E5E5"/>
<stop offset="1" stop-color="#D3CAFD"/>
</linearGradient>
<linearGradient id="paint32_linear_756_4083" x1="545.291" y1="341.5" x2="667.717" y2="341.5" gradientUnits="userSpaceOnUse">
<stop stop-color="#E5E5E5"/>
<stop offset="1" stop-color="#D3CAFD"/>
</linearGradient>
<linearGradient id="paint33_linear_756_4083" x1="545.291" y1="341.5" x2="667.717" y2="341.5" gradientUnits="userSpaceOnUse">
<stop stop-color="#E5E5E5"/>
<stop offset="1" stop-color="#D3CAFD"/>
</linearGradient>
<linearGradient id="paint34_linear_756_4083" x1="545.291" y1="341.5" x2="667.717" y2="341.5" gradientUnits="userSpaceOnUse">
<stop stop-color="#E5E5E5"/>
<stop offset="1" stop-color="#D3CAFD"/>
</linearGradient>
<linearGradient id="paint35_linear_756_4083" x1="545.291" y1="341.5" x2="667.718" y2="341.5" gradientUnits="userSpaceOnUse">
<stop stop-color="#E5E5E5"/>
<stop offset="1" stop-color="#D3CAFD"/>
</linearGradient>
<linearGradient id="paint36_linear_756_4083" x1="545.291" y1="341.5" x2="667.718" y2="341.5" gradientUnits="userSpaceOnUse">
<stop stop-color="#E5E5E5"/>
<stop offset="1" stop-color="#D3CAFD"/>
</linearGradient>
<linearGradient id="paint37_linear_756_4083" x1="545.291" y1="341.5" x2="667.718" y2="341.5" gradientUnits="userSpaceOnUse">
<stop stop-color="#E5E5E5"/>
<stop offset="1" stop-color="#D3CAFD"/>
</linearGradient>
<linearGradient id="paint38_linear_756_4083" x1="545.291" y1="341.5" x2="667.718" y2="341.5" gradientUnits="userSpaceOnUse">
<stop stop-color="#E5E5E5"/>
<stop offset="1" stop-color="#D3CAFD"/>
</linearGradient>
<linearGradient id="paint39_linear_756_4083" x1="545.291" y1="341.5" x2="667.718" y2="341.5" gradientUnits="userSpaceOnUse">
<stop stop-color="#E5E5E5"/>
<stop offset="1" stop-color="#D3CAFD"/>
</linearGradient>
<linearGradient id="paint40_linear_756_4083" x1="545.291" y1="341.5" x2="667.719" y2="341.5" gradientUnits="userSpaceOnUse">
<stop stop-color="#E5E5E5"/>
<stop offset="1" stop-color="#D3CAFD"/>
</linearGradient>
<linearGradient id="paint41_linear_756_4083" x1="545.291" y1="341.5" x2="667.72" y2="341.5" gradientUnits="userSpaceOnUse">
<stop stop-color="#E5E5E5"/>
<stop offset="1" stop-color="#D3CAFD"/>
</linearGradient>
<linearGradient id="paint42_linear_756_4083" x1="545.291" y1="341.5" x2="667.721" y2="341.5" gradientUnits="userSpaceOnUse">
<stop stop-color="#E5E5E5"/>
<stop offset="1" stop-color="#D3CAFD"/>
</linearGradient>
<linearGradient id="paint43_linear_756_4083" x1="545.291" y1="341.5" x2="667.723" y2="341.5" gradientUnits="userSpaceOnUse">
<stop stop-color="#E5E5E5"/>
<stop offset="1" stop-color="#D3CAFD"/>
</linearGradient>
<linearGradient id="paint44_linear_756_4083" x1="545.287" y1="341.504" x2="667.722" y2="341.504" gradientUnits="userSpaceOnUse">
<stop stop-color="#E5E5E5"/>
<stop offset="1" stop-color="#D3CAFD"/>
</linearGradient>
<linearGradient id="paint45_linear_756_4083" x1="545.283" y1="341.504" x2="667.723" y2="341.504" gradientUnits="userSpaceOnUse">
<stop stop-color="#E5E5E5"/>
<stop offset="1" stop-color="#D3CAFD"/>
</linearGradient>
<linearGradient id="paint46_linear_756_4083" x1="545.283" y1="341.504" x2="667.729" y2="341.504" gradientUnits="userSpaceOnUse">
<stop stop-color="#E5E5E5"/>
<stop offset="1" stop-color="#D3CAFD"/>
</linearGradient>
<linearGradient id="paint47_linear_756_4083" x1="545.275" y1="341.504" x2="667.731" y2="341.504" gradientUnits="userSpaceOnUse">
<stop stop-color="#E5E5E5"/>
<stop offset="1" stop-color="#D3CAFD"/>
</linearGradient>
<linearGradient id="paint48_linear_756_4083" x1="545.271" y1="341.504" x2="667.74" y2="341.504" gradientUnits="userSpaceOnUse">
<stop stop-color="#E5E5E5"/>
<stop offset="1" stop-color="#D3CAFD"/>
</linearGradient>
<linearGradient id="paint49_linear_756_4083" x1="545.26" y1="341.508" x2="667.746" y2="341.508" gradientUnits="userSpaceOnUse">
<stop stop-color="#E5E5E5"/>
<stop offset="1" stop-color="#D3CAFD"/>
</linearGradient>
<linearGradient id="paint50_linear_756_4083" x1="545.252" y1="341.512" x2="667.762" y2="341.512" gradientUnits="userSpaceOnUse">
<stop stop-color="#E5E5E5"/>
<stop offset="1" stop-color="#D3CAFD"/>
</linearGradient>
<linearGradient id="paint51_linear_756_4083" x1="545.232" y1="341.516" x2="667.775" y2="341.516" gradientUnits="userSpaceOnUse">
<stop stop-color="#E5E5E5"/>
<stop offset="1" stop-color="#D3CAFD"/>
</linearGradient>
<linearGradient id="paint52_linear_756_4083" x1="545.211" y1="341.52" x2="667.797" y2="341.52" gradientUnits="userSpaceOnUse">
<stop stop-color="#E5E5E5"/>
<stop offset="1" stop-color="#D3CAFD"/>
</linearGradient>
<linearGradient id="paint53_linear_756_4083" x1="545.184" y1="341.531" x2="667.827" y2="341.531" gradientUnits="userSpaceOnUse">
<stop stop-color="#E5E5E5"/>
<stop offset="1" stop-color="#D3CAFD"/>
</linearGradient>
<linearGradient id="paint54_linear_756_4083" x1="545.148" y1="341.539" x2="667.866" y2="341.539" gradientUnits="userSpaceOnUse">
<stop stop-color="#E5E5E5"/>
<stop offset="1" stop-color="#D3CAFD"/>
</linearGradient>
<linearGradient id="paint55_linear_756_4083" x1="545.1" y1="341.551" x2="667.913" y2="341.551" gradientUnits="userSpaceOnUse">
<stop stop-color="#E5E5E5"/>
<stop offset="1" stop-color="#D3CAFD"/>
</linearGradient>
<linearGradient id="paint56_linear_756_4083" x1="545.035" y1="341.566" x2="667.972" y2="341.566" gradientUnits="userSpaceOnUse">
<stop stop-color="#E5E5E5"/>
<stop offset="1" stop-color="#D3CAFD"/>
</linearGradient>
<linearGradient id="paint57_linear_756_4083" x1="544.955" y1="341.59" x2="668.049" y2="341.59" gradientUnits="userSpaceOnUse">
<stop stop-color="#E5E5E5"/>
<stop offset="1" stop-color="#D3CAFD"/>
</linearGradient>
<linearGradient id="paint58_linear_756_4083" x1="544.859" y1="341.617" x2="668.151" y2="341.617" gradientUnits="userSpaceOnUse">
<stop stop-color="#E5E5E5"/>
<stop offset="1" stop-color="#D3CAFD"/>
</linearGradient>
<linearGradient id="paint59_linear_756_4083" x1="544.736" y1="341.648" x2="668.276" y2="341.648" gradientUnits="userSpaceOnUse">
<stop stop-color="#E5E5E5"/>
<stop offset="1" stop-color="#D3CAFD"/>
</linearGradient>
<linearGradient id="paint60_linear_756_4083" x1="544.582" y1="341.691" x2="668.431" y2="341.691" gradientUnits="userSpaceOnUse">
<stop stop-color="#E5E5E5"/>
<stop offset="1" stop-color="#D3CAFD"/>
</linearGradient>
<linearGradient id="paint61_linear_756_4083" x1="544.389" y1="341.742" x2="668.62" y2="341.742" gradientUnits="userSpaceOnUse">
<stop stop-color="#E5E5E5"/>
<stop offset="1" stop-color="#D3CAFD"/>
</linearGradient>
<linearGradient id="paint62_linear_756_4083" x1="544.152" y1="341.805" x2="668.855" y2="341.805" gradientUnits="userSpaceOnUse">
<stop stop-color="#E5E5E5"/>
<stop offset="1" stop-color="#D3CAFD"/>
</linearGradient>
<linearGradient id="paint63_linear_756_4083" x1="543.865" y1="341.883" x2="669.145" y2="341.883" gradientUnits="userSpaceOnUse">
<stop stop-color="#E5E5E5"/>
<stop offset="1" stop-color="#D3CAFD"/>
</linearGradient>
<linearGradient id="paint64_linear_756_4083" x1="543.514" y1="341.977" x2="669.496" y2="341.977" gradientUnits="userSpaceOnUse">
<stop stop-color="#E5E5E5"/>
<stop offset="1" stop-color="#D3CAFD"/>
</linearGradient>
<linearGradient id="paint65_linear_756_4083" x1="543.086" y1="342.09" x2="669.921" y2="342.09" gradientUnits="userSpaceOnUse">
<stop stop-color="#E5E5E5"/>
<stop offset="1" stop-color="#D3CAFD"/>
</linearGradient>
<linearGradient id="paint66_linear_756_4083" x1="542.572" y1="342.227" x2="670.435" y2="342.227" gradientUnits="userSpaceOnUse">
<stop stop-color="#E5E5E5"/>
<stop offset="1" stop-color="#D3CAFD"/>
</linearGradient>
<linearGradient id="paint67_linear_756_4083" x1="541.957" y1="342.395" x2="671.055" y2="342.395" gradientUnits="userSpaceOnUse">
<stop stop-color="#E5E5E5"/>
<stop offset="1" stop-color="#D3CAFD"/>
</linearGradient>
<linearGradient id="paint68_linear_756_4083" x1="541.217" y1="342.59" x2="671.792" y2="342.59" gradientUnits="userSpaceOnUse">
<stop stop-color="#E5E5E5"/>
<stop offset="1" stop-color="#D3CAFD"/>
</linearGradient>
<linearGradient id="paint69_linear_756_4083" x1="540.338" y1="342.824" x2="672.673" y2="342.824" gradientUnits="userSpaceOnUse">
<stop stop-color="#E5E5E5"/>
<stop offset="1" stop-color="#D3CAFD"/>
</linearGradient>
<linearGradient id="paint70_linear_756_4083" x1="539.293" y1="343.105" x2="673.716" y2="343.105" gradientUnits="userSpaceOnUse">
<stop stop-color="#E5E5E5"/>
<stop offset="1" stop-color="#D3CAFD"/>
</linearGradient>
<linearGradient id="paint71_linear_756_4083" x1="538.059" y1="343.438" x2="674.95" y2="343.438" gradientUnits="userSpaceOnUse">
<stop stop-color="#E5E5E5"/>
<stop offset="1" stop-color="#D3CAFD"/>
</linearGradient>
<linearGradient id="paint72_linear_756_4083" x1="536.604" y1="343.824" x2="676.403" y2="343.824" gradientUnits="userSpaceOnUse">
<stop stop-color="#E5E5E5"/>
<stop offset="1" stop-color="#D3CAFD"/>
</linearGradient>
<linearGradient id="paint73_linear_756_4083" x1="534.898" y1="344.285" x2="678.111" y2="344.285" gradientUnits="userSpaceOnUse">
<stop stop-color="#E5E5E5"/>
<stop offset="1" stop-color="#D3CAFD"/>
</linearGradient>
<linearGradient id="paint74_linear_756_4083" x1="532.902" y1="344.816" x2="680.109" y2="344.816" gradientUnits="userSpaceOnUse">
<stop stop-color="#E5E5E5"/>
<stop offset="1" stop-color="#D3CAFD"/>
</linearGradient>
<linearGradient id="paint75_linear_756_4083" x1="530.57" y1="345.441" x2="682.436" y2="345.441" gradientUnits="userSpaceOnUse">
<stop stop-color="#E5E5E5"/>
<stop offset="1" stop-color="#D3CAFD"/>
</linearGradient>
<linearGradient id="paint76_linear_756_4083" x1="527.861" y1="346.168" x2="685.146" y2="346.168" gradientUnits="userSpaceOnUse">
<stop stop-color="#E5E5E5"/>
<stop offset="1" stop-color="#D3CAFD"/>
</linearGradient>
<linearGradient id="paint77_linear_756_4083" x1="524.723" y1="347.008" x2="688.29" y2="347.008" gradientUnits="userSpaceOnUse">
<stop stop-color="#E5E5E5"/>
<stop offset="1" stop-color="#D3CAFD"/>
</linearGradient>
<linearGradient id="paint78_linear_756_4083" x1="521.088" y1="347.98" x2="691.92" y2="347.98" gradientUnits="userSpaceOnUse">
<stop stop-color="#E5E5E5"/>
<stop offset="1" stop-color="#D3CAFD"/>
</linearGradient>
<linearGradient id="paint79_linear_756_4083" x1="516.898" y1="349.102" x2="696.109" y2="349.102" gradientUnits="userSpaceOnUse">
<stop stop-color="#E5E5E5"/>
<stop offset="1" stop-color="#D3CAFD"/>
</linearGradient>
<linearGradient id="paint80_linear_756_4083" x1="512.082" y1="350.391" x2="700.93" y2="350.391" gradientUnits="userSpaceOnUse">
<stop stop-color="#E5E5E5"/>
<stop offset="1" stop-color="#D3CAFD"/>
</linearGradient>
<linearGradient id="paint81_linear_756_4083" x1="506.553" y1="351.871" x2="706.459" y2="351.871" gradientUnits="userSpaceOnUse">
<stop stop-color="#E5E5E5"/>
<stop offset="1" stop-color="#D3CAFD"/>
</linearGradient>
<linearGradient id="paint82_linear_756_4083" x1="500.223" y1="353.566" x2="712.785" y2="353.566" gradientUnits="userSpaceOnUse">
<stop stop-color="#E5E5E5"/>
<stop offset="1" stop-color="#D3CAFD"/>
</linearGradient>
<linearGradient id="paint83_linear_756_4083" x1="492.998" y1="355.504" x2="720.014" y2="355.504" gradientUnits="userSpaceOnUse">
<stop stop-color="#E5E5E5"/>
<stop offset="1" stop-color="#D3CAFD"/>
</linearGradient>
<linearGradient id="paint84_linear_756_4083" x1="484.762" y1="357.707" x2="728.245" y2="357.707" gradientUnits="userSpaceOnUse">
<stop stop-color="#E5E5E5"/>
<stop offset="1" stop-color="#D3CAFD"/>
</linearGradient>
<linearGradient id="paint85_linear_756_4083" x1="475.404" y1="360.215" x2="737.61" y2="360.215" gradientUnits="userSpaceOnUse">
<stop stop-color="#E5E5E5"/>
<stop offset="1" stop-color="#D3CAFD"/>
</linearGradient>
<linearGradient id="paint86_linear_756_4083" x1="464.779" y1="363.059" x2="748.227" y2="363.059" gradientUnits="userSpaceOnUse">
<stop stop-color="#E5E5E5"/>
<stop offset="1" stop-color="#D3CAFD"/>
</linearGradient>
<linearGradient id="paint87_linear_756_4083" x1="452.756" y1="366.281" x2="760.254" y2="366.281" gradientUnits="userSpaceOnUse">
<stop stop-color="#E5E5E5"/>
<stop offset="1" stop-color="#D3CAFD"/>
</linearGradient>
<linearGradient id="paint88_linear_756_4083" x1="439.17" y1="369.918" x2="773.844" y2="369.918" gradientUnits="userSpaceOnUse">
<stop stop-color="#E5E5E5"/>
<stop offset="1" stop-color="#D3CAFD"/>
</linearGradient>
<linearGradient id="paint89_linear_756_4083" x1="423.844" y1="374.02" x2="789.167" y2="374.02" gradientUnits="userSpaceOnUse">
<stop stop-color="#E5E5E5"/>
<stop offset="1" stop-color="#D3CAFD"/>
</linearGradient>
<linearGradient id="paint90_linear_756_4083" x1="406.59" y1="378.641" x2="806.417" y2="378.641" gradientUnits="userSpaceOnUse">
<stop stop-color="#E5E5E5"/>
<stop offset="1" stop-color="#D3CAFD"/>
</linearGradient>
<linearGradient id="paint91_linear_756_4083" x1="387.207" y1="383.832" x2="825.808" y2="383.832" gradientUnits="userSpaceOnUse">
<stop stop-color="#E5E5E5"/>
<stop offset="1" stop-color="#D3CAFD"/>
</linearGradient>
<linearGradient id="paint92_linear_756_4083" x1="365.455" y1="389.656" x2="847.551" y2="389.656" gradientUnits="userSpaceOnUse">
<stop stop-color="#E5E5E5"/>
<stop offset="1" stop-color="#D3CAFD"/>
</linearGradient>
<linearGradient id="paint93_linear_756_4083" x1="341.104" y1="396.176" x2="871.908" y2="396.176" gradientUnits="userSpaceOnUse">
<stop stop-color="#E5E5E5"/>
<stop offset="1" stop-color="#D3CAFD"/>
</linearGradient>
<linearGradient id="paint94_linear_756_4083" x1="313.871" y1="403.469" x2="899.135" y2="403.469" gradientUnits="userSpaceOnUse">
<stop stop-color="#E5E5E5"/>
<stop offset="1" stop-color="#D3CAFD"/>
</linearGradient>
<linearGradient id="paint95_linear_756_4083" x1="283.477" y1="411.605" x2="929.532" y2="411.605" gradientUnits="userSpaceOnUse">
<stop stop-color="#E5E5E5"/>
<stop offset="1" stop-color="#D3CAFD"/>
</linearGradient>
<linearGradient id="paint96_linear_756_4083" x1="249.604" y1="420.676" x2="963.413" y2="420.676" gradientUnits="userSpaceOnUse">
<stop stop-color="#E5E5E5"/>
<stop offset="1" stop-color="#D3CAFD"/>
</linearGradient>
<linearGradient id="paint97_linear_756_4083" x1="211.9" y1="430.773" x2="1001.11" y2="430.773" gradientUnits="userSpaceOnUse">
<stop stop-color="#E5E5E5"/>
<stop offset="1" stop-color="#D3CAFD"/>
</linearGradient>
<linearGradient id="paint98_linear_756_4083" x1="170.006" y1="441.992" x2="1043" y2="441.992" gradientUnits="userSpaceOnUse">
<stop stop-color="#E5E5E5"/>
<stop offset="1" stop-color="#D3CAFD"/>
</linearGradient>
<linearGradient id="paint99_linear_756_4083" x1="123.52" y1="454.441" x2="1089.49" y2="454.441" gradientUnits="userSpaceOnUse">
<stop stop-color="#E5E5E5"/>
<stop offset="1" stop-color="#D3CAFD"/>
</linearGradient>
<linearGradient id="paint100_linear_756_4083" x1="72.0078" y1="468.234" x2="1141.01" y2="468.234" gradientUnits="userSpaceOnUse">
<stop stop-color="#E5E5E5"/>
<stop offset="1" stop-color="#D3CAFD"/>
</linearGradient>
<linearGradient id="paint101_linear_756_4083" x1="15" y1="483.5" x2="1198.01" y2="483.5" gradientUnits="userSpaceOnUse">
<stop stop-color="#E5E5E5"/>
<stop offset="1" stop-color="#D3CAFD"/>
</linearGradient>
<linearGradient id="paint102_linear_756_4083" x1="716" y1="378" x2="500.5" y2="378" gradientUnits="userSpaceOnUse">
<stop offset="0.339343" stop-color="#C6BAFC"/>
<stop offset="0.654298" stop-color="#D0DCEF"/>
<stop offset="1" stop-color="#F2BFBF"/>
</linearGradient>
<linearGradient id="paint103_linear_756_4083" x1="707.39" y1="23.2116" x2="745.141" y2="229.994" gradientUnits="userSpaceOnUse">
<stop stop-color="#9E87FF"/>
<stop offset="0.5" stop-color="#6DBFFE"/>
<stop offset="1" stop-color="#FF8F8F"/>
</linearGradient>
</defs>
</svg>
