<svg width="312" height="155" viewBox="0 0 312 155" fill="none" xmlns="http://www.w3.org/2000/svg">
<path d="M67.02 11.652H54.86V0.899994H79.82V90.5H67.02V11.652ZM117.766 43.396C113.329 41.604 109.83 39.0867 107.27 35.844C104.71 32.516 103.43 28.3773 103.43 23.428C103.43 19.076 104.582 15.1507 106.886 11.652C109.19 8.15333 112.561 5.33733 116.998 3.20399C121.521 1.07066 127.195 0.0039978 134.022 0.0039978C140.763 0.0039978 146.395 1.07066 150.918 3.20399C155.441 5.33733 158.811 8.196 161.03 11.78C163.334 15.2787 164.486 19.1613 164.486 23.428C164.486 28.1213 163.163 32.2173 160.518 35.716C157.873 39.1293 154.417 41.6893 150.15 43.396C155.27 45.0173 159.323 47.7053 162.31 51.46C165.382 55.2147 166.918 59.8227 166.918 65.284C166.918 70.66 165.51 75.3107 162.694 79.236C159.878 83.076 155.995 86.0627 151.046 88.196C146.182 90.3293 140.507 91.396 134.022 91.396C127.537 91.396 121.819 90.3293 116.87 88.196C111.921 86.0627 108.038 83.076 105.222 79.236C102.491 75.3107 101.126 70.66 101.126 65.284C101.126 59.8227 102.619 55.2147 105.606 51.46C108.678 47.62 112.731 44.932 117.766 43.396ZM151.43 24.836C151.43 19.972 149.894 16.4733 146.822 14.34C143.835 12.1213 139.569 11.012 134.022 11.012C128.561 11.012 124.251 12.0787 121.094 14.212C118.022 16.3453 116.486 19.9293 116.486 24.964C116.486 29.316 118.065 32.772 121.222 35.332C124.379 37.8067 128.646 39.044 134.022 39.044C139.398 39.044 143.622 37.8067 146.694 35.332C149.851 32.772 151.43 29.2733 151.43 24.836ZM134.022 49.028C130.182 49.028 126.726 49.5827 123.654 50.692C120.667 51.8013 118.321 53.508 116.614 55.812C114.907 58.116 114.054 61.1453 114.054 64.9C114.054 69.8493 115.761 73.6893 119.174 76.42C122.673 79.0653 127.622 80.388 134.022 80.388C140.337 80.388 145.243 79.0227 148.742 76.292C152.241 73.5613 153.99 69.764 153.99 64.9C153.99 61.316 153.137 58.372 151.43 56.068C149.723 53.6787 147.377 51.9293 144.39 50.82C141.403 49.6253 137.947 49.028 134.022 49.028ZM224.125 13.06V78.34H212.349V13.06H224.125ZM185.597 40.324H250.877V51.076H185.597V40.324Z" fill="url(#paint0_linear_5316_6232)"/>
<path d="M17.7064 141.11L9.54645 127.82H15.0064L21.2764 138.56H17.7664L24.0364 127.82H29.3764L21.1564 141.11H17.7064ZM17.1364 149V138.95H21.8464V149H17.1364ZM31.9597 149V127.82H36.6697V149H31.9597ZM35.5597 149V144.92H47.1697V149H35.5597ZM35.5597 140.15V136.22H46.1197V140.15H35.5597ZM35.5597 131.87V127.82H47.0197V131.87H35.5597ZM49.7268 149L58.1268 127.82H62.3868L70.6968 149H65.7168L59.3568 131.42H61.0668L54.6168 149H49.7268ZM54.4968 145.16V141.32H66.0468V145.16H54.4968ZM77.4379 140.27V136.79H81.9079C82.8479 136.79 83.5679 136.55 84.0679 136.07C84.5879 135.59 84.8479 134.94 84.8479 134.12C84.8479 133.36 84.5979 132.73 84.0979 132.23C83.5979 131.73 82.8779 131.48 81.9379 131.48H77.4379V127.82H82.4779C83.8779 127.82 85.1079 128.09 86.1679 128.63C87.2279 129.15 88.0579 129.88 88.6579 130.82C89.2579 131.76 89.5579 132.84 89.5579 134.06C89.5579 135.3 89.2579 136.39 88.6579 137.33C88.0579 138.25 87.2179 138.97 86.1379 139.49C85.0579 140.01 83.7879 140.27 82.3279 140.27H77.4379ZM73.8379 149V127.82H78.5479V149H73.8379ZM85.3579 149L78.7579 139.88L83.0779 138.71L90.9379 149H85.3579ZM99.7307 149.33C97.9907 149.33 96.4907 149.05 95.2307 148.49C93.9907 147.91 92.8507 147.04 91.8107 145.88L94.8707 142.85C95.5507 143.63 96.3007 144.24 97.1207 144.68C97.9607 145.1 98.9307 145.31 100.031 145.31C101.031 145.31 101.801 145.13 102.341 144.77C102.901 144.41 103.181 143.91 103.181 143.27C103.181 142.69 103.001 142.22 102.641 141.86C102.281 141.5 101.801 141.19 101.201 140.93C100.621 140.67 99.9707 140.42 99.2507 140.18C98.5507 139.94 97.8507 139.67 97.1507 139.37C96.4507 139.05 95.8007 138.66 95.2007 138.2C94.6207 137.72 94.1507 137.13 93.7907 136.43C93.4307 135.71 93.2507 134.81 93.2507 133.73C93.2507 132.43 93.5607 131.31 94.1807 130.37C94.8207 129.43 95.7007 128.72 96.8207 128.24C97.9407 127.74 99.2307 127.49 100.691 127.49C102.171 127.49 103.521 127.75 104.741 128.27C105.981 128.79 107.001 129.5 107.801 130.4L104.741 133.43C104.101 132.77 103.451 132.28 102.791 131.96C102.151 131.64 101.421 131.48 100.601 131.48C99.7807 131.48 99.1307 131.64 98.6507 131.96C98.1707 132.26 97.9307 132.7 97.9307 133.28C97.9307 133.82 98.1107 134.26 98.4707 134.6C98.8307 134.92 99.3007 135.2 99.8807 135.44C100.481 135.68 101.131 135.92 101.831 136.16C102.551 136.4 103.261 136.68 103.961 137C104.661 137.32 105.301 137.73 105.881 138.23C106.481 138.71 106.961 139.33 107.321 140.09C107.681 140.83 107.861 141.75 107.861 142.85C107.861 144.87 107.141 146.46 105.701 147.62C104.261 148.76 102.271 149.33 99.7307 149.33ZM118.374 149V127.82H123.084V149H118.374ZM128.063 149V127.82H131.363L132.773 132.05V149H128.063ZM142.673 149L130.193 133.01L131.363 127.82L143.843 143.81L142.673 149ZM142.673 149L141.413 144.77V127.82H146.123V149H142.673ZM161.324 149V145.34H166.304C167.224 145.34 167.944 145.07 168.464 144.53C168.984 143.99 169.244 143.33 169.244 142.55C169.244 142.01 169.124 141.53 168.884 141.11C168.644 140.69 168.304 140.36 167.864 140.12C167.444 139.88 166.924 139.76 166.304 139.76H161.324V136.19H165.914C166.694 136.19 167.324 136 167.804 135.62C168.284 135.22 168.524 134.62 168.524 133.82C168.524 133.04 168.284 132.46 167.804 132.08C167.324 131.68 166.694 131.48 165.914 131.48H161.324V127.82H166.814C168.174 127.82 169.324 128.07 170.264 128.57C171.224 129.07 171.954 129.74 172.454 130.58C172.954 131.42 173.204 132.35 173.204 133.37C173.204 134.67 172.784 135.77 171.944 136.67C171.104 137.57 169.864 138.19 168.224 138.53L168.344 136.94C170.124 137.28 171.494 137.97 172.454 139.01C173.434 140.05 173.924 141.33 173.924 142.85C173.924 144.01 173.634 145.06 173.054 146C172.494 146.92 171.674 147.65 170.594 148.19C169.534 148.73 168.254 149 166.754 149H161.324ZM157.724 149V127.82H162.374V149H157.724ZM186.363 149.33C184.623 149.33 183.083 148.96 181.743 148.22C180.423 147.48 179.383 146.46 178.623 145.16C177.883 143.84 177.513 142.34 177.513 140.66V127.82H182.253V140.93C182.253 141.77 182.433 142.5 182.793 143.12C183.153 143.74 183.643 144.22 184.263 144.56C184.903 144.88 185.603 145.04 186.363 145.04C187.163 145.04 187.863 144.88 188.463 144.56C189.063 144.22 189.533 143.75 189.873 143.15C190.233 142.53 190.413 141.8 190.413 140.96V127.82H195.153V140.69C195.153 142.37 194.783 143.86 194.043 145.16C193.303 146.46 192.273 147.48 190.953 148.22C189.633 148.96 188.103 149.33 186.363 149.33ZM205.933 149.33C204.193 149.33 202.693 149.05 201.433 148.49C200.193 147.91 199.053 147.04 198.013 145.88L201.073 142.85C201.753 143.63 202.503 144.24 203.323 144.68C204.163 145.1 205.133 145.31 206.233 145.31C207.233 145.31 208.003 145.13 208.543 144.77C209.103 144.41 209.383 143.91 209.383 143.27C209.383 142.69 209.203 142.22 208.843 141.86C208.483 141.5 208.003 141.19 207.403 140.93C206.823 140.67 206.173 140.42 205.453 140.18C204.753 139.94 204.053 139.67 203.353 139.37C202.653 139.05 202.003 138.66 201.403 138.2C200.823 137.72 200.353 137.13 199.993 136.43C199.633 135.71 199.453 134.81 199.453 133.73C199.453 132.43 199.763 131.31 200.383 130.37C201.023 129.43 201.903 128.72 203.023 128.24C204.143 127.74 205.433 127.49 206.893 127.49C208.373 127.49 209.723 127.75 210.943 128.27C212.183 128.79 213.203 129.5 214.003 130.4L210.943 133.43C210.303 132.77 209.653 132.28 208.993 131.96C208.353 131.64 207.623 131.48 206.803 131.48C205.983 131.48 205.333 131.64 204.853 131.96C204.373 132.26 204.133 132.7 204.133 133.28C204.133 133.82 204.313 134.26 204.673 134.6C205.033 134.92 205.503 135.2 206.083 135.44C206.683 135.68 207.333 135.92 208.033 136.16C208.753 136.4 209.463 136.68 210.163 137C210.863 137.32 211.503 137.73 212.083 138.23C212.683 138.71 213.163 139.33 213.523 140.09C213.883 140.83 214.063 141.75 214.063 142.85C214.063 144.87 213.343 146.46 211.903 147.62C210.463 148.76 208.473 149.33 205.933 149.33ZM217.963 149V127.82H222.673V149H217.963ZM227.652 149V127.82H230.952L232.362 132.05V149H227.652ZM242.262 149L229.782 133.01L230.952 127.82L243.432 143.81L242.262 149ZM242.262 149L241.002 144.77V127.82H245.712V149H242.262ZM250.701 149V127.82H255.411V149H250.701ZM254.301 149V144.92H265.911V149H254.301ZM254.301 140.15V136.22H264.861V140.15H254.301ZM254.301 131.87V127.82H265.761V131.87H254.301ZM275.89 149.33C274.15 149.33 272.65 149.05 271.39 148.49C270.15 147.91 269.01 147.04 267.97 145.88L271.03 142.85C271.71 143.63 272.46 144.24 273.28 144.68C274.12 145.1 275.09 145.31 276.19 145.31C277.19 145.31 277.96 145.13 278.5 144.77C279.06 144.41 279.34 143.91 279.34 143.27C279.34 142.69 279.16 142.22 278.8 141.86C278.44 141.5 277.96 141.19 277.36 140.93C276.78 140.67 276.13 140.42 275.41 140.18C274.71 139.94 274.01 139.67 273.31 139.37C272.61 139.05 271.96 138.66 271.36 138.2C270.78 137.72 270.31 137.13 269.95 136.43C269.59 135.71 269.41 134.81 269.41 133.73C269.41 132.43 269.72 131.31 270.34 130.37C270.98 129.43 271.86 128.72 272.98 128.24C274.1 127.74 275.39 127.49 276.85 127.49C278.33 127.49 279.68 127.75 280.9 128.27C282.14 128.79 283.16 129.5 283.96 130.4L280.9 133.43C280.26 132.77 279.61 132.28 278.95 131.96C278.31 131.64 277.58 131.48 276.76 131.48C275.94 131.48 275.29 131.64 274.81 131.96C274.33 132.26 274.09 132.7 274.09 133.28C274.09 133.82 274.27 134.26 274.63 134.6C274.99 134.92 275.46 135.2 276.04 135.44C276.64 135.68 277.29 135.92 277.99 136.16C278.71 136.4 279.42 136.68 280.12 137C280.82 137.32 281.46 137.73 282.04 138.23C282.64 138.71 283.12 139.33 283.48 140.09C283.84 140.83 284.02 141.75 284.02 142.85C284.02 144.87 283.3 146.46 281.86 147.62C280.42 148.76 278.43 149.33 275.89 149.33ZM293.753 149.33C292.013 149.33 290.513 149.05 289.253 148.49C288.013 147.91 286.873 147.04 285.833 145.88L288.893 142.85C289.573 143.63 290.323 144.24 291.143 144.68C291.983 145.1 292.953 145.31 294.053 145.31C295.053 145.31 295.823 145.13 296.363 144.77C296.923 144.41 297.203 143.91 297.203 143.27C297.203 142.69 297.023 142.22 296.663 141.86C296.303 141.5 295.823 141.19 295.223 140.93C294.643 140.67 293.993 140.42 293.273 140.18C292.573 139.94 291.873 139.67 291.173 139.37C290.473 139.05 289.823 138.66 289.223 138.2C288.643 137.72 288.173 137.13 287.813 136.43C287.453 135.71 287.273 134.81 287.273 133.73C287.273 132.43 287.583 131.31 288.203 130.37C288.843 129.43 289.723 128.72 290.843 128.24C291.963 127.74 293.253 127.49 294.713 127.49C296.193 127.49 297.543 127.75 298.763 128.27C300.003 128.79 301.023 129.5 301.823 130.4L298.763 133.43C298.123 132.77 297.473 132.28 296.813 131.96C296.173 131.64 295.443 131.48 294.623 131.48C293.803 131.48 293.153 131.64 292.673 131.96C292.193 132.26 291.953 132.7 291.953 133.28C291.953 133.82 292.133 134.26 292.493 134.6C292.853 134.92 293.323 135.2 293.903 135.44C294.503 135.68 295.153 135.92 295.853 136.16C296.573 136.4 297.283 136.68 297.983 137C298.683 137.32 299.323 137.73 299.903 138.23C300.503 138.71 300.983 139.33 301.343 140.09C301.703 140.83 301.883 141.75 301.883 142.85C301.883 144.87 301.163 146.46 299.723 147.62C298.283 148.76 296.293 149.33 293.753 149.33Z" fill="url(#paint1_linear_5316_6232)"/>
<defs>
<linearGradient id="paint0_linear_5316_6232" x1="52.3825" y1="-32.8174" x2="184.107" y2="40.3545" gradientUnits="userSpaceOnUse">
<stop stop-color="#9E87FF"/>
<stop offset="0.5" stop-color="#6DBFFE"/>
<stop offset="1" stop-color="#FF8F8F"/>
</linearGradient>
<linearGradient id="paint1_linear_5316_6232" x1="15.4406" y1="112.581" x2="50.9315" y2="177.546" gradientUnits="userSpaceOnUse">
<stop stop-color="#9E87FF"/>
<stop offset="0.5" stop-color="#6DBFFE"/>
<stop offset="1" stop-color="#FF8F8F"/>
</linearGradient>
</defs>
</svg>
