<svg width="43" height="43" viewBox="0 0 43 43" fill="none" xmlns="http://www.w3.org/2000/svg">
<path d="M37.4202 11.289V6.44142C37.4202 6.07869 37.1264 5.78517 36.7639 5.78517H31.3339C30.9714 5.78517 30.6776 6.07869 30.6776 6.44142C30.6135 8.60315 27.4738 8.58175 27.4178 6.44138C27.4178 6.07869 27.124 5.78517 26.7616 5.78517H16.484C15.7966 2.77867 11.4402 2.76037 10.7466 5.78526C10.7466 5.78517 5.89904 5.78517 5.89904 5.78517C5.53663 5.78517 5.24279 6.07869 5.24279 6.44142V11.8715C5.24279 12.2342 5.53663 12.5278 5.89904 12.5278C6.79786 12.5278 7.5291 13.259 7.5291 14.1581C7.5291 15.0566 6.79786 15.7879 5.89904 15.7879C5.53663 15.7879 5.24279 16.0814 5.24279 16.4441V26.7217C2.23169 27.411 2.22101 31.766 5.24288 32.4594C5.24279 32.4594 5.24279 37.307 5.24279 37.307C5.26114 38.1639 6.5365 38.1759 6.55529 37.3069V31.8769C6.55529 31.5142 6.26146 31.2206 5.89904 31.2206C5.00023 31.2206 4.26899 30.4894 4.26899 29.5903C4.26899 28.6918 5.00023 27.9605 5.89904 27.9605C6.26146 27.9605 6.55529 27.667 6.55529 27.3043V22.5304H11.4877C11.3881 23.5838 12.0598 24.269 13.1159 24.171C13.2995 24.828 13.5619 25.4592 13.9003 26.0571C13.2402 26.5705 13.0496 27.5168 13.6751 28.1387C13.675 28.1387 15.067 29.5307 15.067 29.5307C15.6778 30.1352 16.6493 29.958 17.1485 29.305C17.7461 29.6435 18.3777 29.9062 19.0346 30.0895C18.9302 30.9178 19.4672 31.7206 20.3471 31.7179C20.3471 31.7179 20.6752 31.7179 20.6752 31.7179V36.6507H16.484C15.7901 33.6288 11.4376 33.637 10.7466 36.6508C10.7466 36.6507 9.18029 36.6507 9.18029 36.6507C8.32573 36.6573 8.31282 37.9519 9.18032 37.9632C9.18029 37.9632 11.3291 37.9632 11.3291 37.9632C11.6915 37.9632 11.9854 37.6697 11.9854 37.307C11.9854 36.4078 12.7166 35.6766 13.6151 35.6766C14.5139 35.6766 15.2452 36.4078 15.2452 37.307C15.2452 37.6697 15.539 37.9632 15.9014 37.9632H26.179C26.478 39.2706 27.6508 40.2492 29.0479 40.2492C30.4446 40.2492 31.6174 39.2706 31.9164 37.9632H36.7639C37.1263 37.9632 37.4202 37.6697 37.4202 37.307V31.8769C37.4202 31.5142 37.1263 31.2206 36.7639 31.2206C35.8651 31.2206 35.1339 30.4894 35.1339 29.5903C35.1339 28.6918 35.8651 27.9605 36.7639 27.9605C37.1263 27.9605 37.4202 27.667 37.4202 27.3043V17.0267C40.4259 16.3426 40.4456 11.9811 37.4202 11.289ZM6.5553 21.2179V17.0267C9.57642 16.331 9.56936 11.9821 6.55522 11.289C6.5553 11.289 6.5553 7.09767 6.5553 7.09767H11.3291C11.6915 7.09767 11.9854 6.80415 11.9854 6.44142C12.0404 4.29642 15.1883 4.28955 15.2452 6.44147C15.2452 6.80416 15.539 7.09767 15.9014 7.09767H20.6752V12.0304C19.6194 11.9304 18.937 12.6046 19.0346 13.6589C18.3777 13.8422 17.7462 14.1049 17.1485 14.4433C16.6584 13.7934 15.6677 13.6132 15.067 14.2178C15.067 14.2177 13.675 15.6097 13.675 15.6097C13.051 16.2215 13.2419 17.1873 13.9003 17.6912C13.5619 18.2892 13.2995 18.9204 13.1159 19.5773C12.2865 19.4724 11.4856 20.011 11.4878 20.8899C11.4877 20.8898 11.4877 21.2179 11.4877 21.2179L6.5553 21.2179ZM19.8271 28.9334C18.967 28.7507 18.1525 28.4123 17.4065 27.9272C17.2969 27.8554 17.1726 27.8208 17.0489 27.8208C16.6598 27.7845 16.2528 28.3846 15.995 28.6027C15.995 28.6027 14.6033 27.2107 14.6033 27.2107C14.9461 26.836 15.666 26.3818 15.2785 25.7995C14.793 25.0529 14.4547 24.2384 14.272 23.3783C14.2079 23.0752 13.94 22.8586 13.6302 22.8586H12.8002V20.8898C13.3124 20.8655 14.1286 21.0587 14.272 20.3701C14.4547 19.51 14.793 18.6955 15.2785 17.9489C15.4474 17.6893 15.4115 17.3464 15.1926 17.1273L14.603 16.5377L15.995 15.1457L16.5846 15.7353C16.8034 15.9545 17.1466 15.9917 17.4065 15.8212C18.1525 15.336 18.967 14.9977 19.8271 14.815C20.1302 14.7503 20.3471 14.4831 20.3471 14.1729V13.3429H22.3159C22.3401 13.8561 22.147 14.6706 22.836 14.815C23.696 14.9977 24.5105 15.336 25.2565 15.8212C25.5161 15.991 25.8589 15.9545 26.0784 15.7353L26.668 15.1457L28.0597 16.5377L27.4704 17.1273C27.2515 17.3464 27.2156 17.6893 27.3845 17.9489C27.87 18.6955 28.2084 19.51 28.391 20.3701C28.5321 21.0603 29.3603 20.8649 29.8628 20.8898C29.8627 20.8898 29.8627 22.8586 29.8627 22.8586C29.3504 22.8829 28.5345 22.6896 28.391 23.3783C28.2083 24.2384 27.87 25.0529 27.3845 25.7995C27.2156 26.0591 27.2515 26.4019 27.4704 26.6211L28.06 27.2107L26.668 28.6027L26.0784 28.0131C25.8599 27.7939 25.5167 27.7567 25.2565 27.9272C24.5105 28.4123 23.696 28.7507 22.8359 28.9334C22.1454 29.0755 22.3408 29.9022 22.3159 30.4054C22.3159 30.4054 20.3471 30.4054 20.3471 30.4054C20.3229 29.8926 20.516 29.0777 19.8271 28.9334ZM33.8214 29.5903C33.8214 30.9874 34.8 32.1601 36.1077 32.4594V36.6507H31.3339C30.9715 36.6507 30.6776 36.9442 30.6776 37.307C30.6226 39.452 27.4747 39.4588 27.4178 37.3069C27.4178 36.9442 27.124 36.6507 26.7616 36.6507H21.9878V31.7179C23.0436 31.818 23.726 31.1438 23.6284 30.0895C24.2853 29.9062 24.9169 29.6434 25.5145 29.3051L25.7397 29.5307C26.2348 30.0267 27.0997 30.0267 27.596 29.5307L28.988 28.1387C29.4997 27.6273 29.4997 26.7941 28.9883 26.2827L28.7627 26.0571C29.1011 25.4592 29.3635 24.828 29.5471 24.1711C30.3765 24.276 31.1774 23.7374 31.1752 22.8585C31.1753 22.8586 31.1753 22.5304 31.1753 22.5304H36.1077V26.7217C34.8 27.021 33.8214 28.1932 33.8214 29.5903ZM36.7639 15.7879C36.4015 15.7879 36.1077 16.0814 36.1077 16.4441V21.2179H31.1752C31.2753 20.1626 30.6015 19.4798 29.5471 19.5773C29.3635 18.9204 29.1011 18.2892 28.7627 17.6912C29.4238 17.1766 29.6127 16.2324 28.9879 15.6097C28.988 15.6097 27.596 14.2177 27.596 14.2177C26.9869 13.6119 26.0121 13.7918 25.5145 14.4434C24.9168 14.1049 24.2853 13.8422 23.6284 13.6589V13.3429C23.6264 12.4505 22.827 11.9281 21.9877 12.0305C21.9877 12.0304 21.9877 7.09766 21.9877 7.09766H26.179C26.478 8.40568 27.6508 9.38429 29.0479 9.38429C30.4447 9.38429 31.6175 8.40568 31.9164 7.09766H36.1077V11.8715C36.1077 12.2342 36.4015 12.5277 36.7639 12.5277C38.9089 12.5825 38.9168 15.731 36.7639 15.7879Z" fill="url(#paint0_linear_6704_9789)"/>
<path d="M26.582 21.8751C26.5401 21.0996 26.4087 19.0047 25.2513 19.409C24.9219 19.5603 24.778 19.9499 24.9295 20.2793C26.115 22.7829 24.1159 25.8776 21.332 25.8125C19.1608 25.8126 17.3945 24.0463 17.3945 21.8751C17.3301 19.0913 20.4238 17.0915 22.9282 18.2779C23.2556 18.4285 23.6472 18.2856 23.7984 17.9562C24.202 16.7957 22.1092 16.67 21.3321 16.625C18.4372 16.6251 16.082 18.9803 16.082 21.8751C16.3704 28.8395 26.2944 28.8383 26.582 21.8751Z" fill="url(#paint1_linear_6704_9789)"/>
<defs>
<linearGradient id="paint0_linear_6704_9789" x1="21.3312" y1="3.52344" x2="21.3312" y2="46.647" gradientUnits="userSpaceOnUse">
<stop stop-color="#F4853B"/>
<stop offset="1" stop-color="#3448F5"/>
</linearGradient>
<linearGradient id="paint1_linear_6704_9789" x1="21.332" y1="16.625" x2="21.332" y2="28.9224" gradientUnits="userSpaceOnUse">
<stop stop-color="#F4853B"/>
<stop offset="1" stop-color="#3448F5"/>
</linearGradient>
</defs>
</svg>
