<svg width="43" height="43" viewBox="0 0 43 43" fill="none" xmlns="http://www.w3.org/2000/svg">
<g clip-path="url(#clip0_6704_9693)">
<path d="M6.76999 34.3238C6.01531 34.3238 5.22124 34.2582 4.35499 34.1007C4.17781 34.0679 4.02687 33.9629 3.92843 33.812C3.82999 33.661 3.79718 33.4773 3.83656 33.3066L8.23999 14.4395C8.27937 14.2623 8.39749 14.1048 8.56156 14.0129C8.72562 13.921 8.91593 13.9079 9.09312 13.9604C9.65093 14.1507 10.2744 14.2163 11.0094 14.1638C11.3637 14.131 11.6853 14.4132 11.7116 14.7741C11.7378 15.1351 11.4622 15.4501 11.1012 15.4763C10.4778 15.5223 9.90687 15.496 9.37531 15.391L5.28687 32.9195C7.57718 33.2148 9.36874 32.7816 11.2456 32.3223C12.7025 31.9679 14.2053 31.6004 15.9509 31.6004C18.2872 31.6004 19.7834 31.9876 20.6759 32.3485V22.8723C20.6759 22.5113 20.9712 22.216 21.3322 22.216C21.6931 22.216 21.9884 22.5113 21.9884 22.8723V33.4576C21.9884 33.7201 21.8375 33.9498 21.6012 34.0548C21.365 34.1598 21.0894 34.1138 20.8925 33.9432C20.8925 33.9432 19.6194 32.9063 15.9575 32.9063C14.3694 32.9063 13.0109 33.241 11.5672 33.5888C10.0841 33.9498 8.56812 34.3238 6.78968 34.3238H6.76999Z" fill="url(#paint0_linear_6704_9693)"/>
<path d="M35.8655 34.3247C34.087 34.3247 32.5711 33.9572 31.088 33.5897C29.6442 33.2354 28.2792 32.9072 26.6911 32.9072C23.0227 32.9072 21.7561 33.9376 21.743 33.9507C21.5461 34.1147 21.2705 34.1541 21.0408 34.0491C20.8111 33.9441 20.6602 33.7144 20.6602 33.4585V22.8732C20.6602 22.5122 20.9555 22.2169 21.3164 22.2169C21.6773 22.2169 21.9727 22.5122 21.9727 22.8732V32.3494C22.8652 31.9819 24.3548 31.6013 26.6911 31.6013C28.4367 31.6013 29.9395 31.9688 31.3964 32.3232C33.2798 32.7826 35.0648 33.2157 37.3552 32.9204L34.8023 21.9872C34.717 21.6329 34.9402 21.2785 35.2945 21.1997C35.6489 21.121 36.0033 21.3376 36.082 21.6919L38.7923 33.3141C38.8317 33.4913 38.7989 33.6751 38.7005 33.8194C38.602 33.9638 38.4445 34.0754 38.2739 34.1082C37.4142 34.2657 36.6136 34.3313 35.8589 34.3313L35.8655 34.3247Z" fill="url(#paint1_linear_6704_9693)"/>
<path d="M21.3181 37.5333C19.8415 37.5333 18.634 37.0148 18.2074 36.8048H1.63056C1.43369 36.8048 1.24337 36.713 1.11869 36.5555C0.994 36.398 0.948062 36.1945 0.994 35.9977L5.39744 16.7039C5.4565 16.4545 5.65337 16.2577 5.90931 16.2052L8.33744 15.7261C8.69181 15.6473 9.03962 15.8836 9.10525 16.2445C9.17744 16.5989 8.94775 16.9467 8.58681 17.0123L6.57869 17.4127L2.45087 35.4923H18.3649C18.4765 35.4923 18.5881 35.5186 18.6865 35.5777C18.6931 35.5777 19.8612 36.2208 21.3181 36.2208C22.7749 36.2208 23.9365 35.5842 23.9496 35.5777C24.0481 35.5252 24.1596 35.4923 24.2712 35.4923H40.1852L36.9762 21.4289C36.8974 21.0745 37.114 20.7202 37.4684 20.6414C37.8228 20.5627 38.1706 20.7792 38.2559 21.1336L41.6487 35.9977C41.6946 36.1945 41.6487 36.398 41.524 36.5555C41.3993 36.713 41.209 36.8048 41.0121 36.8048H24.4352C24.0087 37.0148 22.8012 37.5333 21.3246 37.5333H21.3181Z" fill="url(#paint2_linear_6704_9693)"/>
<path d="M16.0153 23.5217C15.8906 23.5217 15.7659 23.4889 15.6609 23.4167C15.4247 23.2658 15.3131 22.977 15.3788 22.708L16.4025 18.6195C13.4625 16.677 11.7891 13.9667 11.7891 11.1252C11.7825 5.41578 18.4894 0.769531 26.7319 0.769531C34.9744 0.769531 41.6813 5.41578 41.6813 11.1252C41.6813 16.8345 34.9744 21.4808 26.7319 21.4808C24.4416 21.4808 22.1644 21.1133 20.1234 20.4177L16.4288 23.3773C16.3106 23.4758 16.1663 23.5217 16.0219 23.5217H16.0153ZM26.7319 2.08203C19.2113 2.08203 13.095 6.13766 13.095 11.1252C13.095 13.6255 14.6963 16.047 17.4919 17.7598C17.7347 17.9108 17.8528 18.1995 17.7872 18.4752L17.1244 21.133L19.5853 19.1642C19.7625 19.0198 20.0053 18.9805 20.2219 19.0592C22.2103 19.7811 24.4613 20.1617 26.7319 20.1617C34.2525 20.1617 40.3688 16.1061 40.3688 11.1186C40.3688 6.13109 34.2525 2.08203 26.7319 2.08203Z" fill="url(#paint3_linear_6704_9693)"/>
<path d="M19.3781 13.6508C17.9869 13.6508 16.8516 12.5155 16.8516 11.1242C16.8516 9.73297 17.9869 8.59766 19.3781 8.59766C20.7694 8.59766 21.9047 9.73297 21.9047 11.1242C21.9047 12.5155 20.7694 13.6508 19.3781 13.6508ZM19.3781 9.91016C18.7088 9.91016 18.1641 10.4548 18.1641 11.1242C18.1641 11.7936 18.7088 12.3383 19.3781 12.3383C20.0475 12.3383 20.5922 11.7936 20.5922 11.1242C20.5922 10.4548 20.0475 9.91016 19.3781 9.91016Z" fill="url(#paint4_linear_6704_9693)"/>
<path d="M26.7336 13.6508C25.3423 13.6508 24.207 12.5155 24.207 11.1242C24.207 9.73297 25.3423 8.59766 26.7336 8.59766C28.1248 8.59766 29.2602 9.73297 29.2602 11.1242C29.2602 12.5155 28.1248 13.6508 26.7336 13.6508ZM26.7336 9.91016C26.0642 9.91016 25.5195 10.4548 25.5195 11.1242C25.5195 11.7936 26.0642 12.3383 26.7336 12.3383C27.403 12.3383 27.9477 11.7936 27.9477 11.1242C27.9477 10.4548 27.403 9.91016 26.7336 9.91016Z" fill="url(#paint5_linear_6704_9693)"/>
<path d="M34.0891 13.6508C32.6978 13.6508 31.5625 12.5155 31.5625 11.1242C31.5625 9.73297 32.6978 8.59766 34.0891 8.59766C35.4803 8.59766 36.6156 9.73297 36.6156 11.1242C36.6156 12.5155 35.4803 13.6508 34.0891 13.6508ZM34.0891 9.91016C33.4197 9.91016 32.875 10.4548 32.875 11.1242C32.875 11.7936 33.4197 12.3383 34.0891 12.3383C34.7584 12.3383 35.3031 11.7936 35.3031 11.1242C35.3031 10.4548 34.7584 9.91016 34.0891 9.91016Z" fill="url(#paint6_linear_6704_9693)"/>
</g>
<defs>
<linearGradient id="paint0_linear_6704_9693" x1="12.9044" y1="13.9297" x2="12.9044" y2="37.8766" gradientUnits="userSpaceOnUse">
<stop stop-color="#F4853B"/>
<stop offset="1" stop-color="#3448F5"/>
</linearGradient>
<linearGradient id="paint1_linear_6704_9693" x1="29.7344" y1="21.1836" x2="29.7344" y2="36.6217" gradientUnits="userSpaceOnUse">
<stop stop-color="#F4853B"/>
<stop offset="1" stop-color="#3448F5"/>
</linearGradient>
<linearGradient id="paint2_linear_6704_9693" x1="21.3213" y1="15.7109" x2="21.3213" y2="41.3348" gradientUnits="userSpaceOnUse">
<stop stop-color="#F4853B"/>
<stop offset="1" stop-color="#3448F5"/>
</linearGradient>
<linearGradient id="paint3_linear_6704_9693" x1="26.7352" y1="0.769531" x2="26.7352" y2="27.4852" gradientUnits="userSpaceOnUse">
<stop stop-color="#F4853B"/>
<stop offset="1" stop-color="#3448F5"/>
</linearGradient>
<linearGradient id="paint4_linear_6704_9693" x1="19.3781" y1="8.59766" x2="19.3781" y2="14.5311" gradientUnits="userSpaceOnUse">
<stop stop-color="#F4853B"/>
<stop offset="1" stop-color="#3448F5"/>
</linearGradient>
<linearGradient id="paint5_linear_6704_9693" x1="26.7336" y1="8.59766" x2="26.7336" y2="14.5311" gradientUnits="userSpaceOnUse">
<stop stop-color="#F4853B"/>
<stop offset="1" stop-color="#3448F5"/>
</linearGradient>
<linearGradient id="paint6_linear_6704_9693" x1="34.0891" y1="8.59766" x2="34.0891" y2="14.5311" gradientUnits="userSpaceOnUse">
<stop stop-color="#F4853B"/>
<stop offset="1" stop-color="#3448F5"/>
</linearGradient>
<clipPath id="clip0_6704_9693">
<rect width="42" height="42" fill="white" transform="translate(0.332031 0.125)"/>
</clipPath>
</defs>
</svg>
