<svg width="43" height="43" viewBox="0 0 43 43" fill="none" xmlns="http://www.w3.org/2000/svg">
<g clip-path="url(#clip0_6704_9715)">
<path d="M41.0699 20.3037C41.0535 20.2381 41.0207 20.1807 40.9796 20.1233L38.0593 16.0709C37.4441 15.2178 36.3285 14.9471 35.4015 15.3654C35.4179 14.176 35.2867 12.9291 34.9832 11.5674C34.7125 10.3369 34.3187 9.2377 33.8019 8.30255C32.3007 5.57911 29.8644 3.29864 26.9605 1.8795C24.7703 0.813095 22.2929 0.206064 19.8074 0.132236C17.248 0.0584079 14.7296 0.550595 12.523 1.55958C7.46988 3.87286 5.06637 7.14591 4.97613 11.8463C4.97613 12.0104 4.96793 12.1744 4.96793 12.3303C4.94332 14.0858 4.92691 15.144 3.86051 16.6779C3.5898 17.0717 3.23707 17.4983 2.86793 17.9494C2.75308 18.0889 2.63824 18.2365 2.5234 18.376C0.759725 20.5498 0.349568 21.2717 0.513631 21.9033C0.653084 22.4037 1.10426 22.5678 1.49801 22.7236C1.56363 22.7483 1.62105 22.7729 1.69488 22.7975C1.85894 22.8631 2.02301 22.9123 2.18707 22.9533C2.56441 23.06 2.7941 23.1338 2.88433 23.2979C2.96637 23.4373 3.0484 23.8311 2.73668 24.8236C2.67105 25.0369 2.69566 25.2584 2.8023 25.4553C3.02379 25.8654 3.55699 26.0541 4.15582 26.2264C3.74566 26.4725 3.38472 26.7678 3.3191 27.2108C3.29449 27.383 3.30269 27.7111 3.63902 28.0229C3.8359 28.2033 3.90972 28.2854 3.99176 28.4576C4.18043 28.876 4.03277 29.5897 3.87691 30.2869C3.66363 31.2959 3.41754 32.4443 4.04918 33.3467C4.49215 33.9701 5.26324 34.3475 6.42808 34.5033C7.66676 34.6674 9.04488 34.4541 10.2589 34.2654C11.6043 34.0604 12.9988 33.8389 13.4089 34.3229C13.6304 34.5854 14.1554 36.0619 14.4671 37.2022C14.7871 38.3588 15.025 39.3596 14.9183 40.7131C14.8937 40.9838 15.066 41.2381 15.3285 41.3119C17.207 41.8533 19.0199 42.1322 20.7589 42.124C21.8336 42.124 22.8836 42.0174 23.8925 41.8123C26.3535 41.3037 28.6914 40.1553 30.8488 38.3998C31.0211 38.2604 31.1031 38.0225 31.0457 37.8092C31.0129 37.6779 30.939 37.5139 30.816 37.2432C30.5699 36.7018 30.1515 35.7994 29.8808 34.7248C29.5855 33.56 29.4543 32.2475 29.5281 31.0252C29.5363 30.9268 29.5445 30.8201 29.5527 30.7217L30.1761 31.1811C30.2007 31.1975 30.2171 31.2139 30.2418 31.2221C31.5543 32.0998 33.0718 32.5346 34.5894 32.5346C36.1972 32.5346 37.8132 32.0424 39.175 31.0662C42.5957 28.5807 43.4324 23.7983 41.0699 20.3037ZM28.757 35.0037C29.0523 36.1768 29.4953 37.1365 29.7578 37.719C29.766 37.7354 29.7742 37.7518 29.7824 37.7682C25.7711 40.8772 21.2757 41.7139 16.075 40.3193C16.116 39.015 15.8617 37.9897 15.5582 36.8904C15.5253 36.7838 14.8117 34.2244 14.2621 33.5764C13.4418 32.6084 11.875 32.8463 10.0621 33.1334C8.87262 33.3221 7.63394 33.5108 6.55933 33.3631C5.74722 33.2565 5.21402 33.0268 4.96793 32.6822C4.6234 32.19 4.79566 31.3861 4.98433 30.5248C5.17301 29.6471 5.36988 28.7447 5.01715 27.9736C4.87769 27.6783 4.73004 27.4979 4.54957 27.3174C4.71363 27.2025 4.97613 27.0631 5.12379 26.9893C5.58316 26.7514 6.01793 26.5217 5.9523 26.0295C5.88668 25.5209 5.38629 25.3815 4.68902 25.1846C4.46754 25.119 4.0984 25.0205 3.88512 24.9221C4.15582 23.9541 4.15582 23.2568 3.87691 22.7401C3.54879 22.133 2.93355 21.9608 2.48238 21.8377C2.34293 21.7967 2.21168 21.7639 2.10504 21.7229C2.03121 21.69 1.95738 21.6654 1.89176 21.6408C1.81793 21.608 1.71949 21.5752 1.64566 21.5424C1.77691 21.1979 2.35933 20.3775 3.40113 19.0979C3.51597 18.9584 3.63082 18.819 3.74566 18.6795C4.1148 18.2283 4.50035 17.7608 4.79566 17.3342C6.05894 15.5131 6.07535 14.1924 6.10816 12.3549C6.10816 12.199 6.11637 12.035 6.11637 11.8709C6.1984 7.59708 8.32301 4.74239 12.9988 2.60138C17.0757 0.739267 22.2355 0.854111 26.4519 2.9131C29.1507 4.2338 31.4066 6.342 32.7929 8.86036C33.2523 9.69708 33.6132 10.6897 33.8593 11.8135C34.1793 13.2983 34.3023 14.6272 34.2285 15.874C34.2203 15.9725 34.2121 16.0791 34.2039 16.1775L33.8921 15.751C33.5558 15.2834 33.0554 14.9717 32.4812 14.8815C32.1203 14.824 31.7593 14.8568 31.423 14.9717C31.6199 13.6592 31.5461 12.3139 31.1933 10.9932C29.7988 5.80059 24.4421 2.70802 19.2414 4.09435C16.723 4.767 14.623 6.38302 13.3187 8.63888C12.0144 10.8947 11.6699 13.5279 12.3425 16.0381C13.5074 20.394 17.4613 23.2733 21.7679 23.2733C22.0058 23.2733 22.2437 23.265 22.4816 23.2486C21.9648 24.1838 22.2109 25.3897 23.105 26.0377L28.4453 29.9424C28.3961 30.2787 28.3714 30.6233 28.3468 30.9678C28.2976 32.3131 28.4289 33.7076 28.757 35.0037ZM29.7496 15.4147C29.5527 15.144 29.2984 14.9225 29.0195 14.7748C29.2 13.733 29.1507 12.6502 28.88 11.6166C27.83 7.70372 23.7941 5.37403 19.8894 6.42403C15.9765 7.47403 13.6468 11.5018 14.6968 15.4147C15.2054 17.3096 16.4195 18.8928 18.1175 19.8772C19.2496 20.5334 20.5046 20.8615 21.7761 20.8615C22.416 20.8615 23.0558 20.7795 23.6875 20.6072C23.8351 20.5662 23.9828 20.5252 24.1386 20.4678L24.9097 21.5342C24.6226 21.649 24.3273 21.7475 24.0238 21.8295C19.4382 23.06 14.7132 20.3283 13.4828 15.7428C12.8839 13.5197 13.1957 11.2065 14.3441 9.2131C15.4925 7.21974 17.3464 5.8006 19.5695 5.20177C24.155 3.9713 28.88 6.70294 30.1105 11.2885C30.5207 12.8143 30.5043 14.3729 30.0777 15.8658L29.7496 15.4147ZM26.05 15.7264L25.9679 15.6115C26.4847 14.5861 26.5996 13.4131 26.3043 12.3057C25.6398 9.81192 23.0722 8.32716 20.5785 8.99981C18.0929 9.67247 16.6082 12.24 17.2726 14.7256C17.5761 15.8658 18.2898 16.8338 19.2906 17.4654C20.0453 17.9412 20.9066 18.1955 21.7925 18.1955C22.014 18.1955 22.2437 18.1791 22.4652 18.1463L23.4332 19.4916C23.425 19.4916 23.4086 19.4998 23.4004 19.4998C21.8007 19.9264 20.1355 19.7049 18.7 18.8846C17.2644 18.0561 16.239 16.719 15.8125 15.1275C14.9265 11.8299 16.8953 8.4256 20.1929 7.53966C23.4906 6.65372 26.8949 8.62247 27.7808 11.9201C28.0105 12.7733 28.0515 13.6674 27.9121 14.5287C27.5019 14.5451 27.1 14.6764 26.739 14.9307C26.4355 15.1358 26.2058 15.4065 26.05 15.7264ZM21.1281 12.5846C20.6605 12.9209 20.3488 13.4213 20.2586 13.9955C20.1683 14.5697 20.2996 15.144 20.6359 15.6115L21.6695 17.0389C20.1601 16.9815 18.7902 15.9397 18.3882 14.4303C17.8878 12.5518 19.0035 10.6158 20.882 10.1072C22.7605 9.60684 24.6964 10.7225 25.205 12.601C25.3773 13.2244 25.3609 13.8807 25.1804 14.5041L24.1468 13.0768C23.4496 12.1088 22.0961 11.8873 21.1281 12.5846ZM38.4859 30.1229C36.2218 31.7553 33.1457 31.7963 30.8324 30.2377C30.8242 30.2295 30.8078 30.2213 30.7996 30.2213L23.8023 25.1108C23.3511 24.7826 23.2527 24.1428 23.5808 23.6916C23.9089 23.2404 24.5488 23.142 25 23.4701L27.789 25.5127C28.0187 25.6768 28.3304 25.6522 28.5355 25.4553C28.7324 25.2584 28.7652 24.9385 28.5929 24.7088L21.5546 14.9389C21.3988 14.7174 21.3332 14.4549 21.3742 14.1842C21.4152 13.9135 21.5629 13.6838 21.7843 13.5279C22.2355 13.1998 22.8754 13.3065 23.2035 13.7576L26.2222 17.9494L29.2984 22.215C29.4132 22.3709 29.5855 22.4529 29.766 22.4529C29.8808 22.4529 29.9957 22.4201 30.1023 22.3463C30.3566 22.1576 30.4222 21.8049 30.2336 21.5424L27.1574 17.2768C27.0015 17.0553 26.9359 16.7928 26.9851 16.5221C27.0261 16.2514 27.1738 16.0217 27.3953 15.8658C27.6414 15.6854 27.9367 15.6361 28.2074 15.7018H28.2156C28.2238 15.7018 28.232 15.7018 28.2402 15.71C28.4617 15.7674 28.6668 15.8986 28.8144 16.0955L29.7578 17.408C29.766 17.4244 29.7824 17.4408 29.7906 17.4572L30.3812 18.2858L32.9406 21.8377C33.0554 21.9936 33.2277 22.0756 33.4082 22.0756C33.523 22.0756 33.6379 22.0428 33.7445 21.969C33.9988 21.7803 34.0562 21.4275 33.8757 21.165L31.3164 17.6131C30.9882 17.1619 31.0949 16.5221 31.5461 16.194C31.9972 15.8658 32.6371 15.9725 32.9652 16.4236L34.5402 18.6139L36.3941 21.1815C36.5089 21.3373 36.6812 21.4193 36.8617 21.4193C36.9765 21.4193 37.0996 21.3865 37.198 21.3127C37.4523 21.124 37.5097 20.7713 37.3293 20.5088L35.4753 17.9412C35.1472 17.49 35.2539 16.8502 35.705 16.5221C36.1644 16.194 36.7961 16.3006 37.1242 16.7518L39.9379 20.6565C39.9543 20.7139 39.9871 20.7713 40.0199 20.8287C42.1527 23.7983 41.4636 27.9736 38.4859 30.1229Z" fill="url(#paint0_linear_6704_9715)"/>
</g>
<defs>
<linearGradient id="paint0_linear_6704_9715" x1="21.4458" y1="0.125" x2="21.4458" y2="49.4406" gradientUnits="userSpaceOnUse">
<stop stop-color="#F4853B"/>
<stop offset="1" stop-color="#3448F5"/>
</linearGradient>
<clipPath id="clip0_6704_9715">
<rect width="42" height="42" fill="white" transform="translate(0.441406 0.125)"/>
</clipPath>
</defs>
</svg>
