<svg width="33" height="33" viewBox="0 0 33 33" fill="none" xmlns="http://www.w3.org/2000/svg">
<mask id="path-1-outside-1_6704_9730" maskUnits="userSpaceOnUse" x="1.58203" y="1.19922" width="30" height="30" fill="black">
<rect fill="white" x="1.58203" y="1.19922" width="30" height="30"/>
<path d="M12.6877 14.609C12.5111 14.6169 12.3744 14.7663 12.3823 14.943C12.3902 15.1198 12.5369 15.2532 12.7161 15.2486C13.0902 15.2265 13.4698 15.3723 13.7444 15.6342L14.4144 16.2732C14.543 16.3953 14.7453 16.39 14.8669 16.2623C14.989 16.1344 14.984 15.9319 14.8561 15.8098L14.1861 15.1709C13.7865 14.7896 13.2456 14.5848 12.6877 14.609Z"/>
<path d="M2.58648 12.4871L2.69898 13.8059C2.7594 14.5132 3.03523 15.1719 3.49648 15.7111C3.85025 16.0489 4.38162 17.0823 5.81523 17.4194L7.44523 17.803V20.5936C7.44523 20.7703 7.58856 20.9136 7.76523 20.9136C7.9419 20.9136 8.08523 20.7703 8.08523 20.5936V17.5496C8.08523 17.4011 7.98315 17.2721 7.83856 17.2382L5.9619 16.7965C4.7708 16.5162 4.34993 15.651 3.98315 15.2953C3.6094 14.8582 3.38565 14.3244 3.33648 13.7513L3.22398 12.4326C3.19547 12.0964 3.45948 11.8094 3.79606 11.8094C4.07815 11.8094 4.31648 12.0111 4.36231 12.2892L4.42148 12.6451C4.70544 14.3452 6.20676 15.5307 7.89731 15.4605C8.07356 15.4526 8.21065 15.3032 8.20273 15.1267C8.19481 14.9496 8.04523 14.8157 7.86898 14.8209C6.51512 14.8813 5.28445 13.9277 5.05315 12.5398L4.99398 12.1842C4.89606 11.5963 4.39231 11.1694 3.79606 11.1694C3.08376 11.1694 2.52634 11.7802 2.58648 12.4871Z"/>
<path d="M15.8927 17.7278C16.054 17.799 16.2436 17.7273 16.3152 17.5659L16.6106 16.9038C16.705 16.6925 16.5505 16.4534 16.3186 16.4534H11.4761C11.144 16.4534 10.8556 16.6667 10.7581 16.9844L9.7119 20.4113C9.66065 20.5805 9.75565 20.7592 9.92481 20.8109C10.0881 20.8616 10.271 20.7714 10.3244 20.5984L11.3702 17.1717C11.3848 17.1248 11.4273 17.0934 11.4761 17.0934H15.8252L15.7311 17.3051C15.659 17.4665 15.7315 17.6557 15.8927 17.7278Z"/>
<path d="M15.8194 21.0298L16.0102 20.9732C17.0243 20.6721 17.6487 19.6064 17.3861 18.5655L17.1565 17.64C17.114 17.4682 16.9386 17.3638 16.769 17.4065C16.5973 17.449 16.4927 17.6226 16.5356 17.7942L16.7652 18.7205C16.7919 18.8273 16.8056 18.9382 16.8056 19.0498C16.8056 19.6503 16.4036 20.1888 15.8281 20.3596L15.6373 20.4163C15.3711 20.4955 15.0936 20.3605 14.9902 20.0992C14.8743 19.8051 15.0382 19.4743 15.3456 19.3907C15.5161 19.3444 15.6169 19.1688 15.5706 18.9982C15.5244 18.828 15.3502 18.7261 15.1781 18.7732C14.5067 18.9552 14.1373 19.6822 14.3965 20.3367C14.6193 20.902 15.2288 21.2053 15.8194 21.0298Z"/>
<path d="M8.08856 11.4186C8.12606 11.5626 8.25565 11.6578 8.39773 11.6578C8.39963 11.6578 8.40156 11.6571 8.40346 11.657C8.40494 11.6571 8.40624 11.6578 8.40773 11.6578C8.43065 11.6578 8.45398 11.6553 8.47731 11.6503C8.48252 11.6491 8.48627 11.6454 8.49135 11.644C9.07518 11.4913 10.4162 11.1124 11.114 10.6888C11.3279 11.0099 11.7548 11.4295 12.2458 11.588C12.2459 11.588 12.2472 11.5885 12.2473 11.5886C12.2568 11.5916 12.2663 11.5897 12.2759 11.5918C12.4366 11.6276 12.5984 11.541 12.6498 11.3828C12.8861 10.654 12.7677 10.048 12.6269 9.66818C12.5536 9.47005 12.4286 9.29672 12.2652 9.16672C11.9794 8.93879 11.6969 8.63189 11.6411 8.59047C10.6419 7.84068 9.3569 8.62505 8.9869 8.88339C8.94106 8.91547 8.8944 8.93755 8.8494 8.9488C7.71479 9.22831 8.00984 10.9868 8.0851 11.3566C8.0863 11.3773 8.08312 11.3977 8.08856 11.4186ZM9.00315 9.57005C9.12523 9.53984 9.24315 9.48526 9.35315 9.40818C9.63231 9.2138 10.5848 8.62151 11.2394 9.08943C11.8834 9.73514 11.9446 9.66915 12.0269 9.89047C12.1076 10.1085 12.1772 10.4275 12.1251 10.8134C11.874 10.6379 11.6673 10.3912 11.5977 10.2521C11.4632 9.98433 11.1206 9.90434 10.8781 10.0788C10.4769 10.3654 9.52843 10.692 8.6676 10.9333C8.60476 10.3986 8.62416 9.66336 9.00315 9.57005Z"/>
<path d="M8.59856 13.189C8.72106 14.0842 9.4394 14.9994 10.3827 14.9994C11.3269 14.9994 12.0461 14.0842 12.1686 13.1888C12.6993 12.9885 12.8705 12.3431 12.5598 11.9084C12.4573 11.7651 12.2581 11.7309 12.1131 11.8344C11.9694 11.9371 11.9365 12.1371 12.039 12.2809C12.1164 12.3873 12.065 12.5629 11.9156 12.5984C11.709 12.6476 11.5594 12.818 11.5431 13.0223C11.4944 13.6407 10.9769 14.3594 10.3827 14.3594C9.77981 14.3594 9.27356 13.6536 9.2244 13.0226C9.20815 12.818 9.05856 12.6476 8.85106 12.5984C8.70057 12.5624 8.64674 12.3832 8.73606 12.2698C8.84606 12.1311 8.82231 11.9298 8.68356 11.8203C8.54481 11.7105 8.34356 11.7348 8.2344 11.8728C7.88381 12.3163 8.05964 12.9856 8.59856 13.189Z"/>
<path d="M30.174 18.4157V5.86984C30.174 5.45609 29.8377 5.11964 29.424 5.11964H13.4569C13.0431 5.11964 12.7065 5.45609 12.7065 5.86984V7.8288C12.7065 8.00547 12.8498 8.1488 13.0265 8.1488C13.2031 8.1488 13.3465 8.00547 13.3465 7.8288V5.86984C13.3465 5.80901 13.3961 5.75964 13.4569 5.75964H29.424C29.4848 5.75964 29.534 5.80901 29.534 5.86984V18.4157C29.534 18.4765 29.4848 18.5259 29.424 18.5259H19.1244C18.9477 18.5259 18.8044 18.6692 18.8044 18.8459C18.8044 19.0226 18.9477 19.1659 19.1244 19.1659H29.424C29.8377 19.1659 30.174 18.8294 30.174 18.4157Z"/>
<path d="M14.3152 8.19109C14.3152 8.36776 14.4586 8.51109 14.6352 8.51109H28.2556C28.4323 8.51109 28.5756 8.36776 28.5756 8.19109C28.5756 8.01443 28.4323 7.87109 28.2556 7.87109H14.6352C14.4586 7.87109 14.3152 8.01443 14.3152 8.19109Z"/>
<path d="M27.7281 7.17109C27.9048 7.17109 28.0481 7.02776 28.0481 6.85109C28.0481 6.67443 27.9048 6.53109 27.7281 6.53109H26.3661C26.1894 6.53109 26.0461 6.67443 26.0461 6.85109C26.0461 7.02776 26.1894 7.17109 26.3661 7.17109H27.7281Z"/>
<path d="M15.8266 6.80888C15.8266 6.5725 15.635 6.38089 15.3987 6.38089C15.1623 6.38089 14.9707 6.5725 14.9707 6.80888C14.9707 7.04523 15.1623 7.23685 15.3987 7.23685C15.635 7.23685 15.8266 7.04523 15.8266 6.80888Z"/>
<path d="M17.3542 6.80888C17.3542 6.5725 17.1626 6.38089 16.9262 6.38089C16.6899 6.38089 16.4983 6.5725 16.4983 6.80888C16.4983 7.04523 16.6899 7.23685 16.9262 7.23685C17.1626 7.23685 17.3542 7.04523 17.3542 6.80888Z"/>
<path d="M8.72773 7.9713L9.37815 6.82443H10.9356C11.359 6.82443 11.7031 6.48005 11.7031 6.05693V2.96672C11.7031 2.54359 11.359 2.19922 10.9356 2.19922H5.72231C5.29898 2.19922 4.95481 2.54359 4.95481 2.96672V6.05693C4.95481 6.48005 5.29898 6.82443 5.72231 6.82443H7.47398L8.17606 7.97984C8.30208 8.18791 8.60721 8.18446 8.72773 7.9713ZM7.92606 6.33609C7.86754 6.23976 7.76237 6.18339 7.65231 6.18339C7.6082 6.18339 5.7664 6.1844 5.72231 6.18443C5.65315 6.18443 5.59481 6.12609 5.59481 6.05693V2.96672C5.59481 2.89755 5.65315 2.83922 5.72231 2.83922H10.9356C11.0048 2.83922 11.0631 2.89755 11.0631 2.96672V6.05693C11.0631 6.12609 11.0048 6.18443 10.9356 6.18443H9.22981C9.10398 6.1688 8.9794 6.22943 8.9144 6.34464L8.43981 7.18151L7.92606 6.33609Z"/>
<path d="M7.71356 4.06005H9.00981C9.18648 4.06005 9.32981 3.91672 9.32981 3.74005C9.32981 3.56339 9.18648 3.42005 9.00981 3.42005H7.71356C7.5369 3.42005 7.39356 3.56339 7.39356 3.74005C7.39356 3.91672 7.5369 4.06005 7.71356 4.06005Z"/>
<path d="M10.3148 5.00901C10.3148 4.83234 10.1715 4.68901 9.99481 4.68901H6.66315C6.48648 4.68901 6.34315 4.83234 6.34315 5.00901C6.34315 5.18568 6.48648 5.32901 6.66315 5.32901H9.99481C10.1715 5.32901 10.3148 5.18568 10.3148 5.00901Z"/>
<path d="M18.6181 21.4142C17.3931 21.4142 16.3965 22.4107 16.3965 23.6357C16.3965 24.8607 17.3931 25.8573 18.6181 25.8573C19.8431 25.8573 20.8398 24.8607 20.8398 23.6357C20.8398 22.4107 19.8431 21.4142 18.6181 21.4142ZM18.6181 25.2173C17.7461 25.2173 17.0365 24.5078 17.0365 23.6357C17.0365 22.7636 17.7461 22.0542 18.6181 22.0542C19.4902 22.0542 20.1998 22.7636 20.1998 23.6357C20.1998 24.5078 19.4902 25.2173 18.6181 25.2173Z"/>
<path d="M21.6086 30.0476C21.7852 30.0476 21.9286 29.9042 21.9286 29.7276V28.9382C21.9286 27.4296 20.7015 26.2023 19.1927 26.2023H18.0436C16.5348 26.2023 15.3077 27.4296 15.3077 28.9382V29.7276C15.3077 29.9042 15.4511 30.0476 15.6277 30.0476C15.8044 30.0476 15.9477 29.9042 15.9477 29.7276V28.9382C15.9477 27.7826 16.8877 26.8423 18.0436 26.8423H19.1927C20.3486 26.8423 21.2886 27.7826 21.2886 28.9382V29.7276C21.2886 29.9042 21.4319 30.0476 21.6086 30.0476Z"/>
<path d="M10.0181 25.8573C11.2431 25.8573 12.2398 24.8607 12.2398 23.6357C12.2398 22.4107 11.2431 21.4142 10.0181 21.4142C8.79315 21.4142 7.79648 22.4107 7.79648 23.6357C7.79648 24.8607 8.79315 25.8573 10.0181 25.8573ZM10.0181 22.0542C10.8902 22.0542 11.5998 22.7636 11.5998 23.6357C11.5998 24.5078 10.8902 25.2173 10.0181 25.2173C9.14606 25.2173 8.43648 24.5078 8.43648 23.6357C8.43648 22.7636 9.14606 22.0542 10.0181 22.0542Z"/>
<path d="M6.70815 28.9382V29.7276C6.70815 29.9042 6.85148 30.0476 7.02814 30.0476C7.20481 30.0476 7.34815 29.9042 7.34815 29.7276V28.9382C7.34815 27.7826 8.28815 26.8423 9.44356 26.8423H10.5927C11.7486 26.8423 12.6886 27.7826 12.6886 28.9382V29.7276C12.6886 29.9042 12.8319 30.0476 13.0086 30.0476C13.1852 30.0476 13.3286 29.9042 13.3286 29.7276V28.9382C13.3286 27.4296 12.1015 26.2023 10.5927 26.2023H9.44356C7.93523 26.2023 6.70815 27.4296 6.70815 28.9382Z"/>
<path d="M27.2181 21.4142C25.9931 21.4142 24.9965 22.4107 24.9965 23.6357C24.9965 24.8607 25.9931 25.8573 27.2181 25.8573C28.4431 25.8573 29.4398 24.8607 29.4398 23.6357C29.4398 22.4107 28.4431 21.4142 27.2181 21.4142ZM27.2181 25.2173C26.3461 25.2173 25.6365 24.5078 25.6365 23.6357C25.6365 22.7636 26.3461 22.0542 27.2181 22.0542C28.0902 22.0542 28.7998 22.7636 28.7998 23.6357C28.7998 24.5078 28.0902 25.2173 27.2181 25.2173Z"/>
<path d="M27.7927 26.2023H26.6436C25.1348 26.2023 23.9077 27.4296 23.9077 28.9382V29.7276C23.9077 29.9042 24.0511 30.0476 24.2277 30.0476C24.4044 30.0476 24.5477 29.9042 24.5477 29.7276V28.9382C24.5477 27.7826 25.4877 26.8423 26.6436 26.8423H27.7927C28.9486 26.8423 29.8886 27.7826 29.8886 28.9382V29.7276C29.8886 29.9042 30.0319 30.0476 30.2086 30.0476C30.3852 30.0476 30.5286 29.9042 30.5286 29.7276V28.9382C30.5286 27.4296 29.3015 26.2023 27.7927 26.2023Z"/>
<path d="M25.854 11.9003C25.854 10.7105 23.8661 9.81339 21.2298 9.81339C18.594 9.81339 16.6061 10.7105 16.6061 11.9003C16.6061 13.0901 18.594 13.9871 21.2298 13.9871C23.8661 13.9871 25.854 13.0901 25.854 11.9003ZM21.2298 13.3471C18.9498 13.3471 17.2461 12.5832 17.2461 11.9003C17.2461 11.2173 18.9498 10.4534 21.2298 10.4534C23.5102 10.4534 25.214 11.2173 25.214 11.9003C25.214 12.5832 23.5102 13.3471 21.2298 13.3471Z"/>
<path d="M19.3802 15.1642C19.2036 15.1642 19.0602 15.3076 19.0602 15.4842C19.0602 15.6609 19.2036 15.8042 19.3802 15.8042H23.4015C23.5781 15.8042 23.7215 15.6609 23.7215 15.4842C23.7215 15.3076 23.5781 15.1642 23.4015 15.1642H19.3802Z"/>
</mask>
<path d="M12.6877 14.609C12.5111 14.6169 12.3744 14.7663 12.3823 14.943C12.3902 15.1198 12.5369 15.2532 12.7161 15.2486C13.0902 15.2265 13.4698 15.3723 13.7444 15.6342L14.4144 16.2732C14.543 16.3953 14.7453 16.39 14.8669 16.2623C14.989 16.1344 14.984 15.9319 14.8561 15.8098L14.1861 15.1709C13.7865 14.7896 13.2456 14.5848 12.6877 14.609Z" fill="url(#paint0_linear_6704_9730)"/>
<path d="M2.58648 12.4871L2.69898 13.8059C2.7594 14.5132 3.03523 15.1719 3.49648 15.7111C3.85025 16.0489 4.38162 17.0823 5.81523 17.4194L7.44523 17.803V20.5936C7.44523 20.7703 7.58856 20.9136 7.76523 20.9136C7.9419 20.9136 8.08523 20.7703 8.08523 20.5936V17.5496C8.08523 17.4011 7.98315 17.2721 7.83856 17.2382L5.9619 16.7965C4.7708 16.5162 4.34993 15.651 3.98315 15.2953C3.6094 14.8582 3.38565 14.3244 3.33648 13.7513L3.22398 12.4326C3.19547 12.0964 3.45948 11.8094 3.79606 11.8094C4.07815 11.8094 4.31648 12.0111 4.36231 12.2892L4.42148 12.6451C4.70544 14.3452 6.20676 15.5307 7.89731 15.4605C8.07356 15.4526 8.21065 15.3032 8.20273 15.1267C8.19481 14.9496 8.04523 14.8157 7.86898 14.8209C6.51512 14.8813 5.28445 13.9277 5.05315 12.5398L4.99398 12.1842C4.89606 11.5963 4.39231 11.1694 3.79606 11.1694C3.08376 11.1694 2.52634 11.7802 2.58648 12.4871Z" fill="url(#paint1_linear_6704_9730)"/>
<path d="M15.8927 17.7278C16.054 17.799 16.2436 17.7273 16.3152 17.5659L16.6106 16.9038C16.705 16.6925 16.5505 16.4534 16.3186 16.4534H11.4761C11.144 16.4534 10.8556 16.6667 10.7581 16.9844L9.7119 20.4113C9.66065 20.5805 9.75565 20.7592 9.92481 20.8109C10.0881 20.8616 10.271 20.7714 10.3244 20.5984L11.3702 17.1717C11.3848 17.1248 11.4273 17.0934 11.4761 17.0934H15.8252L15.7311 17.3051C15.659 17.4665 15.7315 17.6557 15.8927 17.7278Z" fill="url(#paint2_linear_6704_9730)"/>
<path d="M15.8194 21.0298L16.0102 20.9732C17.0243 20.6721 17.6487 19.6064 17.3861 18.5655L17.1565 17.64C17.114 17.4682 16.9386 17.3638 16.769 17.4065C16.5973 17.449 16.4927 17.6226 16.5356 17.7942L16.7652 18.7205C16.7919 18.8273 16.8056 18.9382 16.8056 19.0498C16.8056 19.6503 16.4036 20.1888 15.8281 20.3596L15.6373 20.4163C15.3711 20.4955 15.0936 20.3605 14.9902 20.0992C14.8743 19.8051 15.0382 19.4743 15.3456 19.3907C15.5161 19.3444 15.6169 19.1688 15.5706 18.9982C15.5244 18.828 15.3502 18.7261 15.1781 18.7732C14.5067 18.9552 14.1373 19.6822 14.3965 20.3367C14.6193 20.902 15.2288 21.2053 15.8194 21.0298Z" fill="url(#paint3_linear_6704_9730)"/>
<path d="M8.08856 11.4186C8.12606 11.5626 8.25565 11.6578 8.39773 11.6578C8.39963 11.6578 8.40156 11.6571 8.40346 11.657C8.40494 11.6571 8.40624 11.6578 8.40773 11.6578C8.43065 11.6578 8.45398 11.6553 8.47731 11.6503C8.48252 11.6491 8.48627 11.6454 8.49135 11.644C9.07518 11.4913 10.4162 11.1124 11.114 10.6888C11.3279 11.0099 11.7548 11.4295 12.2458 11.588C12.2459 11.588 12.2472 11.5885 12.2473 11.5886C12.2568 11.5916 12.2663 11.5897 12.2759 11.5918C12.4366 11.6276 12.5984 11.541 12.6498 11.3828C12.8861 10.654 12.7677 10.048 12.6269 9.66818C12.5536 9.47005 12.4286 9.29672 12.2652 9.16672C11.9794 8.93879 11.6969 8.63189 11.6411 8.59047C10.6419 7.84068 9.3569 8.62505 8.9869 8.88339C8.94106 8.91547 8.8944 8.93755 8.8494 8.9488C7.71479 9.22831 8.00984 10.9868 8.0851 11.3566C8.0863 11.3773 8.08312 11.3977 8.08856 11.4186ZM9.00315 9.57005C9.12523 9.53984 9.24315 9.48526 9.35315 9.40818C9.63231 9.2138 10.5848 8.62151 11.2394 9.08943C11.8834 9.73514 11.9446 9.66915 12.0269 9.89047C12.1076 10.1085 12.1772 10.4275 12.1251 10.8134C11.874 10.6379 11.6673 10.3912 11.5977 10.2521C11.4632 9.98433 11.1206 9.90434 10.8781 10.0788C10.4769 10.3654 9.52843 10.692 8.6676 10.9333C8.60476 10.3986 8.62416 9.66336 9.00315 9.57005Z" fill="url(#paint4_linear_6704_9730)"/>
<path d="M8.59856 13.189C8.72106 14.0842 9.4394 14.9994 10.3827 14.9994C11.3269 14.9994 12.0461 14.0842 12.1686 13.1888C12.6993 12.9885 12.8705 12.3431 12.5598 11.9084C12.4573 11.7651 12.2581 11.7309 12.1131 11.8344C11.9694 11.9371 11.9365 12.1371 12.039 12.2809C12.1164 12.3873 12.065 12.5629 11.9156 12.5984C11.709 12.6476 11.5594 12.818 11.5431 13.0223C11.4944 13.6407 10.9769 14.3594 10.3827 14.3594C9.77981 14.3594 9.27356 13.6536 9.2244 13.0226C9.20815 12.818 9.05856 12.6476 8.85106 12.5984C8.70057 12.5624 8.64674 12.3832 8.73606 12.2698C8.84606 12.1311 8.82231 11.9298 8.68356 11.8203C8.54481 11.7105 8.34356 11.7348 8.2344 11.8728C7.88381 12.3163 8.05964 12.9856 8.59856 13.189Z" fill="url(#paint5_linear_6704_9730)"/>
<path d="M30.174 18.4157V5.86984C30.174 5.45609 29.8377 5.11964 29.424 5.11964H13.4569C13.0431 5.11964 12.7065 5.45609 12.7065 5.86984V7.8288C12.7065 8.00547 12.8498 8.1488 13.0265 8.1488C13.2031 8.1488 13.3465 8.00547 13.3465 7.8288V5.86984C13.3465 5.80901 13.3961 5.75964 13.4569 5.75964H29.424C29.4848 5.75964 29.534 5.80901 29.534 5.86984V18.4157C29.534 18.4765 29.4848 18.5259 29.424 18.5259H19.1244C18.9477 18.5259 18.8044 18.6692 18.8044 18.8459C18.8044 19.0226 18.9477 19.1659 19.1244 19.1659H29.424C29.8377 19.1659 30.174 18.8294 30.174 18.4157Z" fill="url(#paint6_linear_6704_9730)"/>
<path d="M14.3152 8.19109C14.3152 8.36776 14.4586 8.51109 14.6352 8.51109H28.2556C28.4323 8.51109 28.5756 8.36776 28.5756 8.19109C28.5756 8.01443 28.4323 7.87109 28.2556 7.87109H14.6352C14.4586 7.87109 14.3152 8.01443 14.3152 8.19109Z" fill="url(#paint7_linear_6704_9730)"/>
<path d="M27.7281 7.17109C27.9048 7.17109 28.0481 7.02776 28.0481 6.85109C28.0481 6.67443 27.9048 6.53109 27.7281 6.53109H26.3661C26.1894 6.53109 26.0461 6.67443 26.0461 6.85109C26.0461 7.02776 26.1894 7.17109 26.3661 7.17109H27.7281Z" fill="url(#paint8_linear_6704_9730)"/>
<path d="M15.8266 6.80888C15.8266 6.5725 15.635 6.38089 15.3987 6.38089C15.1623 6.38089 14.9707 6.5725 14.9707 6.80888C14.9707 7.04523 15.1623 7.23685 15.3987 7.23685C15.635 7.23685 15.8266 7.04523 15.8266 6.80888Z" fill="url(#paint9_linear_6704_9730)"/>
<path d="M17.3542 6.80888C17.3542 6.5725 17.1626 6.38089 16.9262 6.38089C16.6899 6.38089 16.4983 6.5725 16.4983 6.80888C16.4983 7.04523 16.6899 7.23685 16.9262 7.23685C17.1626 7.23685 17.3542 7.04523 17.3542 6.80888Z" fill="url(#paint10_linear_6704_9730)"/>
<path d="M8.72773 7.9713L9.37815 6.82443H10.9356C11.359 6.82443 11.7031 6.48005 11.7031 6.05693V2.96672C11.7031 2.54359 11.359 2.19922 10.9356 2.19922H5.72231C5.29898 2.19922 4.95481 2.54359 4.95481 2.96672V6.05693C4.95481 6.48005 5.29898 6.82443 5.72231 6.82443H7.47398L8.17606 7.97984C8.30208 8.18791 8.60721 8.18446 8.72773 7.9713ZM7.92606 6.33609C7.86754 6.23976 7.76237 6.18339 7.65231 6.18339C7.6082 6.18339 5.7664 6.1844 5.72231 6.18443C5.65315 6.18443 5.59481 6.12609 5.59481 6.05693V2.96672C5.59481 2.89755 5.65315 2.83922 5.72231 2.83922H10.9356C11.0048 2.83922 11.0631 2.89755 11.0631 2.96672V6.05693C11.0631 6.12609 11.0048 6.18443 10.9356 6.18443H9.22981C9.10398 6.1688 8.9794 6.22943 8.9144 6.34464L8.43981 7.18151L7.92606 6.33609Z" fill="url(#paint11_linear_6704_9730)"/>
<path d="M7.71356 4.06005H9.00981C9.18648 4.06005 9.32981 3.91672 9.32981 3.74005C9.32981 3.56339 9.18648 3.42005 9.00981 3.42005H7.71356C7.5369 3.42005 7.39356 3.56339 7.39356 3.74005C7.39356 3.91672 7.5369 4.06005 7.71356 4.06005Z" fill="url(#paint12_linear_6704_9730)"/>
<path d="M10.3148 5.00901C10.3148 4.83234 10.1715 4.68901 9.99481 4.68901H6.66315C6.48648 4.68901 6.34315 4.83234 6.34315 5.00901C6.34315 5.18568 6.48648 5.32901 6.66315 5.32901H9.99481C10.1715 5.32901 10.3148 5.18568 10.3148 5.00901Z" fill="url(#paint13_linear_6704_9730)"/>
<path d="M18.6181 21.4142C17.3931 21.4142 16.3965 22.4107 16.3965 23.6357C16.3965 24.8607 17.3931 25.8573 18.6181 25.8573C19.8431 25.8573 20.8398 24.8607 20.8398 23.6357C20.8398 22.4107 19.8431 21.4142 18.6181 21.4142ZM18.6181 25.2173C17.7461 25.2173 17.0365 24.5078 17.0365 23.6357C17.0365 22.7636 17.7461 22.0542 18.6181 22.0542C19.4902 22.0542 20.1998 22.7636 20.1998 23.6357C20.1998 24.5078 19.4902 25.2173 18.6181 25.2173Z" fill="url(#paint14_linear_6704_9730)"/>
<path d="M21.6086 30.0476C21.7852 30.0476 21.9286 29.9042 21.9286 29.7276V28.9382C21.9286 27.4296 20.7015 26.2023 19.1927 26.2023H18.0436C16.5348 26.2023 15.3077 27.4296 15.3077 28.9382V29.7276C15.3077 29.9042 15.4511 30.0476 15.6277 30.0476C15.8044 30.0476 15.9477 29.9042 15.9477 29.7276V28.9382C15.9477 27.7826 16.8877 26.8423 18.0436 26.8423H19.1927C20.3486 26.8423 21.2886 27.7826 21.2886 28.9382V29.7276C21.2886 29.9042 21.4319 30.0476 21.6086 30.0476Z" fill="url(#paint15_linear_6704_9730)"/>
<path d="M10.0181 25.8573C11.2431 25.8573 12.2398 24.8607 12.2398 23.6357C12.2398 22.4107 11.2431 21.4142 10.0181 21.4142C8.79315 21.4142 7.79648 22.4107 7.79648 23.6357C7.79648 24.8607 8.79315 25.8573 10.0181 25.8573ZM10.0181 22.0542C10.8902 22.0542 11.5998 22.7636 11.5998 23.6357C11.5998 24.5078 10.8902 25.2173 10.0181 25.2173C9.14606 25.2173 8.43648 24.5078 8.43648 23.6357C8.43648 22.7636 9.14606 22.0542 10.0181 22.0542Z" fill="url(#paint16_linear_6704_9730)"/>
<path d="M6.70815 28.9382V29.7276C6.70815 29.9042 6.85148 30.0476 7.02814 30.0476C7.20481 30.0476 7.34815 29.9042 7.34815 29.7276V28.9382C7.34815 27.7826 8.28815 26.8423 9.44356 26.8423H10.5927C11.7486 26.8423 12.6886 27.7826 12.6886 28.9382V29.7276C12.6886 29.9042 12.8319 30.0476 13.0086 30.0476C13.1852 30.0476 13.3286 29.9042 13.3286 29.7276V28.9382C13.3286 27.4296 12.1015 26.2023 10.5927 26.2023H9.44356C7.93523 26.2023 6.70815 27.4296 6.70815 28.9382Z" fill="url(#paint17_linear_6704_9730)"/>
<path d="M27.2181 21.4142C25.9931 21.4142 24.9965 22.4107 24.9965 23.6357C24.9965 24.8607 25.9931 25.8573 27.2181 25.8573C28.4431 25.8573 29.4398 24.8607 29.4398 23.6357C29.4398 22.4107 28.4431 21.4142 27.2181 21.4142ZM27.2181 25.2173C26.3461 25.2173 25.6365 24.5078 25.6365 23.6357C25.6365 22.7636 26.3461 22.0542 27.2181 22.0542C28.0902 22.0542 28.7998 22.7636 28.7998 23.6357C28.7998 24.5078 28.0902 25.2173 27.2181 25.2173Z" fill="url(#paint18_linear_6704_9730)"/>
<path d="M27.7927 26.2023H26.6436C25.1348 26.2023 23.9077 27.4296 23.9077 28.9382V29.7276C23.9077 29.9042 24.0511 30.0476 24.2277 30.0476C24.4044 30.0476 24.5477 29.9042 24.5477 29.7276V28.9382C24.5477 27.7826 25.4877 26.8423 26.6436 26.8423H27.7927C28.9486 26.8423 29.8886 27.7826 29.8886 28.9382V29.7276C29.8886 29.9042 30.0319 30.0476 30.2086 30.0476C30.3852 30.0476 30.5286 29.9042 30.5286 29.7276V28.9382C30.5286 27.4296 29.3015 26.2023 27.7927 26.2023Z" fill="url(#paint19_linear_6704_9730)"/>
<path d="M25.854 11.9003C25.854 10.7105 23.8661 9.81339 21.2298 9.81339C18.594 9.81339 16.6061 10.7105 16.6061 11.9003C16.6061 13.0901 18.594 13.9871 21.2298 13.9871C23.8661 13.9871 25.854 13.0901 25.854 11.9003ZM21.2298 13.3471C18.9498 13.3471 17.2461 12.5832 17.2461 11.9003C17.2461 11.2173 18.9498 10.4534 21.2298 10.4534C23.5102 10.4534 25.214 11.2173 25.214 11.9003C25.214 12.5832 23.5102 13.3471 21.2298 13.3471Z" fill="url(#paint20_linear_6704_9730)"/>
<path d="M19.3802 15.1642C19.2036 15.1642 19.0602 15.3076 19.0602 15.4842C19.0602 15.6609 19.2036 15.8042 19.3802 15.8042H23.4015C23.5781 15.8042 23.7215 15.6609 23.7215 15.4842C23.7215 15.3076 23.5781 15.1642 23.4015 15.1642H19.3802Z" fill="url(#paint21_linear_6704_9730)"/>
<path d="M12.2458 11.588L12.2171 11.6838L12.2171 11.6838L12.2458 11.588ZM12.2458 11.588L12.2171 11.6838C12.2171 11.6838 12.2171 11.6838 12.2171 11.6838C12.2171 11.6838 12.2172 11.6838 12.2172 11.6838C12.2172 11.6838 12.2172 11.6838 12.2172 11.6838C12.2172 11.6838 12.2172 11.6838 12.2172 11.6838C12.2172 11.6838 12.2172 11.6838 12.2172 11.6838C12.2172 11.6838 12.2173 11.6838 12.2173 11.6838C12.2174 11.6839 12.2177 11.684 12.218 11.6841C12.3417 11.6166 12.275 11.4924 12.2748 11.4923C12.2748 11.4923 12.2747 11.4923 12.2747 11.4923C12.2747 11.4923 12.2747 11.4922 12.2747 11.4922C12.2746 11.4922 12.2746 11.4922 12.2746 11.4922C12.2746 11.4922 12.2746 11.4922 12.2746 11.4922C12.2746 11.4922 12.2746 11.4922 12.2746 11.4922C12.2746 11.4922 12.2746 11.4922 12.2745 11.4922C12.2745 11.4922 12.2745 11.4922 12.2745 11.4922C12.2745 11.4922 12.2745 11.4922 12.2744 11.4922C12.2744 11.4922 12.2744 11.4922 12.2744 11.4922C12.2744 11.4922 12.2744 11.4922 12.2744 11.4922C12.2744 11.4922 12.2744 11.4922 12.2744 11.4922C12.2743 11.4922 12.2743 11.4921 12.2742 11.4921C12.274 11.4921 12.15 11.5591 12.216 11.6835C12.2164 11.6836 12.2168 11.6837 12.2168 11.6837C12.2169 11.6837 12.2169 11.6837 12.2169 11.6837C12.2169 11.6837 12.2169 11.6837 12.2169 11.6837C12.217 11.6837 12.217 11.6837 12.217 11.6837C12.217 11.6837 12.217 11.6838 12.217 11.6838C12.217 11.6838 12.217 11.6838 12.217 11.6838C12.217 11.6838 12.217 11.6838 12.2171 11.6838L12.2458 11.588L12.2745 11.4922C12.2745 11.4922 12.2745 11.4922 12.2745 11.4922C12.2745 11.4922 12.2745 11.4922 12.2745 11.4922C12.2745 11.4922 12.2745 11.4922 12.2745 11.4922C12.2745 11.4922 12.2745 11.4922 12.2745 11.4922C12.2745 11.4922 12.2745 11.4922 12.2745 11.4922C12.2746 11.4922 12.2746 11.4922 12.2746 11.4922C12.2747 11.4923 12.2751 11.4924 12.2754 11.4925C12.3415 11.6169 12.2174 11.6839 12.2172 11.6838C12.2172 11.6838 12.2171 11.6838 12.2171 11.6838C12.2171 11.6838 12.217 11.6838 12.217 11.6838C12.217 11.6838 12.217 11.6838 12.217 11.6838C12.217 11.6838 12.217 11.6838 12.217 11.6838C12.217 11.6838 12.217 11.6838 12.217 11.6838C12.217 11.6838 12.217 11.6838 12.217 11.6838C12.217 11.6838 12.2171 11.6838 12.2171 11.6838C12.2171 11.6838 12.2171 11.6838 12.2171 11.6838C12.2171 11.6838 12.2171 11.6838 12.2171 11.6838C12.2171 11.6838 12.2171 11.6838 12.2171 11.6838C12.2171 11.6838 12.2171 11.6838 12.2171 11.6838C12.2171 11.6838 12.2171 11.6838 12.2171 11.6838C12.2171 11.6838 12.2171 11.6838 12.217 11.6838C12.217 11.6838 12.217 11.6837 12.2169 11.6837C12.2167 11.6837 12.1501 11.5594 12.2737 11.492C12.274 11.4921 12.2744 11.4922 12.2745 11.4922C12.2745 11.4922 12.2745 11.4922 12.2745 11.4922C12.2745 11.4922 12.2746 11.4922 12.2746 11.4922C12.2746 11.4922 12.2746 11.4922 12.2746 11.4922C12.2746 11.4922 12.2746 11.4922 12.2746 11.4922C12.2746 11.4922 12.2746 11.4922 12.2746 11.4922C12.2746 11.4922 12.2746 11.4922 12.2745 11.4922L12.2458 11.588ZM12.6877 14.609L12.6791 14.4092L12.6788 14.4092L12.6877 14.609ZM12.3823 14.943L12.5821 14.934V14.934L12.3823 14.943ZM12.7161 15.2486L12.7212 15.4486L12.7278 15.4482L12.7161 15.2486ZM13.7444 15.6342L13.6064 15.7789L13.6064 15.779L13.7444 15.6342ZM14.4144 16.2732L14.2764 16.4179L14.2767 16.4182L14.4144 16.2732ZM14.8669 16.2623L14.7222 16.1243L14.7221 16.1244L14.8669 16.2623ZM14.8561 15.8098L14.9941 15.6652L14.9941 15.6651L14.8561 15.8098ZM14.1861 15.1709L14.048 15.3156L14.048 15.3156L14.1861 15.1709ZM2.58648 12.4871L2.3872 12.5041L2.3872 12.5041L2.58648 12.4871ZM2.69898 13.8059L2.4997 13.8229L2.4997 13.8229L2.69898 13.8059ZM3.49648 15.7111L3.3445 15.8411L3.35107 15.8488L3.35837 15.8558L3.49648 15.7111ZM5.81523 17.4194L5.86104 17.2247L5.86101 17.2247L5.81523 17.4194ZM7.44523 17.803H7.64523V17.6446L7.49104 17.6083L7.44523 17.803ZM7.83856 17.2382L7.79275 17.4329L7.79283 17.4329L7.83856 17.2382ZM5.9619 16.7965L5.91608 16.9912L5.91608 16.9912L5.9619 16.7965ZM3.98315 15.2953L3.83114 15.4252L3.8372 15.4323L3.84389 15.4388L3.98315 15.2953ZM3.33648 13.7513L3.1372 13.7683L3.13721 13.7684L3.33648 13.7513ZM3.22398 12.4326L3.02469 12.4495L3.0247 12.4496L3.22398 12.4326ZM4.36231 12.2892L4.16497 12.3217L4.16502 12.322L4.36231 12.2892ZM4.42148 12.6451L4.22419 12.6779L4.22421 12.678L4.42148 12.6451ZM7.89731 15.4605L7.90561 15.6603L7.90629 15.6603L7.89731 15.4605ZM8.20273 15.1267L8.00293 15.1357L8.00293 15.1357L8.20273 15.1267ZM7.86898 14.8209L7.86307 14.621L7.86006 14.6211L7.86898 14.8209ZM5.05315 12.5398L4.85586 12.5727L4.85587 12.5727L5.05315 12.5398ZM4.99398 12.1842L5.19127 12.1514L5.19126 12.1514L4.99398 12.1842ZM3.79606 11.1694V10.9694V11.1694ZM15.8927 17.7278L15.8111 17.9103L15.8119 17.9107L15.8927 17.7278ZM16.3152 17.5659L16.1326 17.4844L16.1324 17.4847L16.3152 17.5659ZM16.6106 16.9038L16.428 16.8223L16.428 16.8223L16.6106 16.9038ZM10.7581 16.9844L10.5669 16.9258L10.5669 16.926L10.7581 16.9844ZM9.7119 20.4113L9.52061 20.3529L9.52049 20.3533L9.7119 20.4113ZM9.92481 20.8109L9.98418 20.6199L9.98323 20.6196L9.92481 20.8109ZM10.3244 20.5984L10.5155 20.6574L10.5157 20.6568L10.3244 20.5984ZM11.3702 17.1717L11.1793 17.1123L11.1789 17.1133L11.3702 17.1717ZM15.8252 17.0934L16.008 17.1747L16.1331 16.8934H15.8252V17.0934ZM15.7311 17.3051L15.9137 17.3866L15.9138 17.3863L15.7311 17.3051ZM15.8194 21.0298L15.7625 20.8381L15.7624 20.8381L15.8194 21.0298ZM16.0102 20.9732L15.9533 20.7814L15.9533 20.7815L16.0102 20.9732ZM17.3861 18.5655L17.1919 18.6136L17.1921 18.6144L17.3861 18.5655ZM17.1565 17.64L16.9623 17.6881L16.9624 17.6882L17.1565 17.64ZM16.769 17.4065L16.817 17.6006L16.8178 17.6005L16.769 17.4065ZM16.5356 17.7942L16.7298 17.7461L16.7297 17.7457L16.5356 17.7942ZM16.7652 18.7205L16.5711 18.7686L16.5712 18.7689L16.7652 18.7205ZM15.8281 20.3596L15.7712 20.1679L15.7712 20.1679L15.8281 20.3596ZM15.6373 20.4163L15.5804 20.2246L15.5803 20.2246L15.6373 20.4163ZM14.9902 20.0992L14.8042 20.1726L14.8042 20.1728L14.9902 20.0992ZM15.3456 19.3907L15.2933 19.1977L15.2932 19.1977L15.3456 19.3907ZM15.5706 18.9982L15.7637 18.9459L15.7636 18.9457L15.5706 18.9982ZM15.1781 18.7732L15.2305 18.9662L15.2309 18.9661L15.1781 18.7732ZM14.3965 20.3367L14.5825 20.2634L14.5824 20.2631L14.3965 20.3367ZM8.08856 11.4186L7.89501 11.469L7.89502 11.469L8.08856 11.4186ZM8.40346 11.657L8.40697 11.457L8.40072 11.4571L8.40346 11.657ZM8.47731 11.6503L8.51922 11.8458L8.52028 11.8456L8.47731 11.6503ZM8.49135 11.644L8.44073 11.4505L8.43797 11.4513L8.49135 11.644ZM11.114 10.6888L11.2804 10.5779L11.1741 10.4183L11.0102 10.5178L11.114 10.6888ZM12.2458 11.588L12.3203 11.4019L12.3073 11.3977L12.2458 11.588ZM12.2473 11.5886L12.1728 11.7747L12.1863 11.779L12.2473 11.5886ZM12.2759 11.5918L12.3194 11.3966L12.319 11.3965L12.2759 11.5918ZM12.6498 11.3828L12.84 11.4446L12.8401 11.4444L12.6498 11.3828ZM12.6269 9.66818L12.4393 9.7376L12.4394 9.73771L12.6269 9.66818ZM12.2652 9.16672L12.1405 9.32308L12.1407 9.3232L12.2652 9.16672ZM11.6411 8.59047L11.521 8.75044L11.5219 8.75109L11.6411 8.59047ZM8.9869 8.88339L8.8724 8.7194L8.8722 8.71954L8.9869 8.88339ZM8.8494 8.9488L8.89723 9.143L8.8979 9.14283L8.8494 8.9488ZM8.0851 11.3566L8.28477 11.3451L8.28394 11.3307L8.28108 11.3167L8.0851 11.3566ZM9.00315 9.57005L9.05096 9.76425L9.05119 9.7642L9.00315 9.57005ZM9.35315 9.40818L9.23886 9.24404L9.23837 9.24439L9.35315 9.40818ZM11.2394 9.08943L11.381 8.94819L11.3692 8.9364L11.3557 8.92672L11.2394 9.08943ZM12.0269 9.89047L12.2145 9.82105L12.2144 9.82078L12.0269 9.89047ZM12.1251 10.8134L12.0106 10.9774L12.2795 11.1652L12.3233 10.8402L12.1251 10.8134ZM11.5977 10.2521L11.7766 10.1627L11.7764 10.1623L11.5977 10.2521ZM10.8781 10.0788L10.9944 10.2415L10.995 10.2411L10.8781 10.0788ZM8.6676 10.9333L8.46897 10.9566L8.49628 11.189L8.72158 11.1258L8.6676 10.9333ZM8.59856 13.189L8.79672 13.1619L8.78057 13.0439L8.66918 13.0019L8.59856 13.189ZM12.1686 13.1888L12.0979 13.0017L11.9865 13.0437L11.9704 13.1617L12.1686 13.1888ZM12.5598 11.9084L12.7225 11.7921L12.7225 11.792L12.5598 11.9084ZM12.1131 11.8344L11.9969 11.6717L11.9969 11.6717L12.1131 11.8344ZM12.039 12.2809L11.8761 12.397L11.8772 12.3985L12.039 12.2809ZM11.9156 12.5984L11.8694 12.4038L11.8694 12.4038L11.9156 12.5984ZM11.5431 13.0223L11.3438 13.0065L11.3438 13.0066L11.5431 13.0223ZM9.2244 13.0226L9.42379 13.007L9.42377 13.0067L9.2244 13.0226ZM8.85106 12.5984L8.8046 12.7929L8.80495 12.793L8.85106 12.5984ZM8.73606 12.2698L8.57934 12.1456L8.57899 12.146L8.73606 12.2698ZM8.68356 11.8203L8.55946 11.9771L8.5596 11.9772L8.68356 11.8203ZM8.2344 11.8728L8.07758 11.7486L8.07749 11.7487L8.2344 11.8728ZM8.72773 7.9713L8.55376 7.87264L8.55363 7.87287L8.72773 7.9713ZM9.37815 6.82443V6.62443H9.26165L9.20418 6.72576L9.37815 6.82443ZM7.47398 6.82443L7.6449 6.72057L7.58648 6.62443H7.47398V6.82443ZM8.17606 7.97984L8.34713 7.87623L8.34698 7.87599L8.17606 7.97984ZM7.92606 6.33609L7.75513 6.43993L7.75515 6.43996L7.92606 6.33609ZM5.72231 6.18443V6.38443H5.72242L5.72231 6.18443ZM9.22981 6.18443L9.20517 6.3829L9.21744 6.38443H9.22981V6.18443ZM8.9144 6.34464L9.08837 6.44329L9.08858 6.44291L8.9144 6.34464ZM8.43981 7.18151L8.2689 7.28537L8.44577 7.57644L8.61379 7.28017L8.43981 7.18151ZM12.6877 14.609L12.6788 14.4092C12.3919 14.4221 12.1696 14.6648 12.1825 14.9519L12.3823 14.943L12.5821 14.934C12.5791 14.8678 12.6303 14.8118 12.6967 14.8088L12.6877 14.609ZM12.3823 14.943L12.1825 14.9519C12.1955 15.2413 12.4368 15.4558 12.7212 15.4485L12.7161 15.2486L12.7109 15.0487C12.637 15.0506 12.585 14.9984 12.5821 14.934L12.3823 14.943ZM12.7161 15.2486L12.7278 15.4482C13.0439 15.4296 13.3699 15.5534 13.6064 15.7789L13.7444 15.6342L13.8824 15.4895C13.5697 15.1913 13.1366 15.0234 12.7043 15.0489L12.7161 15.2486ZM13.7444 15.6342L13.6064 15.779L14.2764 16.4179L14.4144 16.2732L14.5524 16.1284L13.8824 15.4895L13.7444 15.6342ZM14.4144 16.2732L14.2767 16.4182C14.4852 16.6162 14.8139 16.6079 15.0117 16.4003L14.8669 16.2623L14.7221 16.1244C14.6767 16.1721 14.6008 16.1744 14.5521 16.1282L14.4144 16.2732ZM14.8669 16.2623L15.0116 16.4004C15.2101 16.1924 15.2017 15.8633 14.9941 15.6652L14.8561 15.8098L14.718 15.9545C14.7662 16.0006 14.7678 16.0765 14.7222 16.1243L14.8669 16.2623ZM14.8561 15.8098L14.9941 15.6651L14.3241 15.0262L14.1861 15.1709L14.048 15.3156L14.718 15.9546L14.8561 15.8098ZM14.1861 15.1709L14.3241 15.0262C13.8852 14.6074 13.2914 14.3827 12.6791 14.4092L12.6877 14.609L12.6964 14.8088C13.1998 14.787 13.6877 14.9718 14.048 15.3156L14.1861 15.1709ZM2.58648 12.4871L2.3872 12.5041L2.4997 13.8229L2.69898 13.8059L2.89826 13.7889L2.78576 12.4701L2.58648 12.4871ZM2.69898 13.8059L2.4997 13.8229C2.56368 14.5719 2.85606 15.2702 3.3445 15.8411L3.49648 15.7111L3.64845 15.5811C3.2144 15.0737 2.95511 14.4545 2.89825 13.7889L2.69898 13.8059ZM3.49648 15.7111L3.35837 15.8558C3.65821 16.142 4.26521 17.2604 5.76944 17.6141L5.81523 17.4194L5.86101 17.2247C4.49802 16.9042 4.0423 15.9557 3.63459 15.5664L3.49648 15.7111ZM5.81523 17.4194L5.76942 17.6141L7.39942 17.9977L7.44523 17.803L7.49104 17.6083L5.86104 17.2247L5.81523 17.4194ZM7.44523 17.803H7.24523V20.5936H7.44523H7.64523V17.803H7.44523ZM7.44523 20.5936H7.24523C7.24523 20.8807 7.47811 21.1136 7.76523 21.1136V20.9136V20.7136C7.69902 20.7136 7.64523 20.6598 7.64523 20.5936H7.44523ZM7.76523 20.9136V21.1136C8.05235 21.1136 8.28523 20.8807 8.28523 20.5936H8.08523H7.88523C7.88523 20.6598 7.83144 20.7136 7.76523 20.7136V20.9136ZM8.08523 20.5936H8.28523V17.5496H8.08523H7.88523V20.5936H8.08523ZM8.08523 17.5496H8.28523C8.28523 17.3084 8.11935 17.0987 7.88429 17.0435L7.83856 17.2382L7.79283 17.4329C7.84694 17.4456 7.88523 17.4938 7.88523 17.5496H8.08523ZM7.83856 17.2382L7.88438 17.0435L6.00771 16.6018L5.9619 16.7965L5.91608 16.9912L7.79275 17.4329L7.83856 17.2382ZM5.9619 16.7965L6.00772 16.6018C4.88829 16.3384 4.54524 15.5619 4.1224 15.1517L3.98315 15.2953L3.84389 15.4388C4.15463 15.7402 4.65331 16.694 5.91608 16.9912L5.9619 16.7965ZM3.98315 15.2953L4.13515 15.1653C3.78853 14.7599 3.58134 14.2656 3.53575 13.7342L3.33648 13.7513L3.13721 13.7684C3.18995 14.3832 3.43027 14.9564 3.83114 15.4252L3.98315 15.2953ZM3.33648 13.7513L3.53576 13.7343L3.42326 12.4156L3.22398 12.4326L3.0247 12.4496L3.1372 13.7683L3.33648 13.7513ZM3.22398 12.4326L3.42326 12.4156C3.40465 12.1962 3.57663 12.0094 3.79606 12.0094V11.8094V11.6094C3.34233 11.6094 2.98628 11.9967 3.02469 12.4495L3.22398 12.4326ZM3.79606 11.8094V12.0094C3.98059 12.0094 4.13512 12.1406 4.16497 12.3217L4.36231 12.2892L4.55965 12.2567C4.49784 11.8816 4.1757 11.6094 3.79606 11.6094V11.8094ZM4.36231 12.2892L4.16502 12.322L4.22419 12.6779L4.42148 12.6451L4.61877 12.6122L4.5596 12.2564L4.36231 12.2892ZM4.42148 12.6451L4.22421 12.678C4.52507 14.4793 6.11597 15.7346 7.90561 15.6603L7.89731 15.4605L7.88901 15.2606C6.29755 15.3267 4.8858 14.2111 4.61875 12.6121L4.42148 12.6451ZM7.89731 15.4605L7.90629 15.6603C8.1925 15.6474 8.41541 15.4049 8.40253 15.1178L8.20273 15.1267L8.00293 15.1357C8.00588 15.2014 7.95462 15.2577 7.88834 15.2607L7.89731 15.4605ZM8.20273 15.1267L8.40253 15.1178C8.38957 14.8278 8.14478 14.6126 7.86307 14.621L7.86898 14.8209L7.87489 15.0208C7.94568 15.0187 8.00006 15.0715 8.00293 15.1357L8.20273 15.1267ZM7.86898 14.8209L7.86006 14.6211C6.60505 14.6771 5.46474 13.7929 5.25042 12.507L5.05315 12.5398L4.85587 12.5727C5.10416 14.0625 6.42518 15.0856 7.8779 15.0207L7.86898 14.8209ZM5.05315 12.5398L5.25043 12.507L5.19127 12.1514L4.99398 12.1842L4.79669 12.217L4.85586 12.5727L5.05315 12.5398ZM4.99398 12.1842L5.19126 12.1514C5.07728 11.467 4.49009 10.9694 3.79606 10.9694V11.1694V11.3694C4.29454 11.3694 4.71484 11.7256 4.7967 12.2171L4.99398 12.1842ZM3.79606 11.1694V10.9694C2.96613 10.9694 2.31717 11.681 2.3872 12.5041L2.58648 12.4871L2.78576 12.4702C2.73551 11.8795 3.2014 11.3694 3.79606 11.3694V11.1694ZM15.8927 17.7278L15.8119 17.9107C16.0727 18.0259 16.381 17.9107 16.498 17.647L16.3152 17.5659L16.1324 17.4847C16.1061 17.544 16.0353 17.5721 15.9736 17.5448L15.8927 17.7278ZM16.3152 17.5659L16.4979 17.6474L16.7933 16.9853L16.6106 16.9038L16.428 16.8223L16.1326 17.4844L16.3152 17.5659ZM16.6106 16.9038L16.7933 16.9853C16.9465 16.6421 16.6957 16.2534 16.3186 16.2534V16.4534V16.6534C16.4052 16.6534 16.4634 16.7429 16.428 16.8223L16.6106 16.9038ZM16.3186 16.4534V16.2534H11.4761V16.4534V16.6534H16.3186V16.4534ZM11.4761 16.4534V16.2534C11.056 16.2534 10.6902 16.5242 10.5669 16.9258L10.7581 16.9844L10.9493 17.0431C11.0211 16.8093 11.232 16.6534 11.4761 16.6534V16.4534ZM10.7581 16.9844L10.5669 16.926L9.52061 20.3529L9.7119 20.4113L9.90318 20.4697L10.9494 17.0428L10.7581 16.9844ZM9.7119 20.4113L9.52049 20.3533C9.43736 20.6277 9.59145 20.9182 9.86639 21.0022L9.92481 20.8109L9.98323 20.6196C9.91985 20.6003 9.88394 20.5332 9.90331 20.4693L9.7119 20.4113ZM9.92481 20.8109L9.86545 21.0019C10.1323 21.0848 10.4288 20.9382 10.5155 20.6574L10.3244 20.5984L10.1333 20.5394C10.1131 20.6047 10.0439 20.6385 9.98418 20.6199L9.92481 20.8109ZM10.3244 20.5984L10.5157 20.6568L11.5615 17.2301L11.3702 17.1717L11.1789 17.1133L10.1331 20.54L10.3244 20.5984ZM11.3702 17.1717L11.5612 17.2311C11.55 17.2671 11.5157 17.2934 11.4761 17.2934V17.0934V16.8934C11.3389 16.8934 11.2196 16.9826 11.1793 17.1123L11.3702 17.1717ZM11.4761 17.0934V17.2934H15.8252V17.0934V16.8934H11.4761V17.0934ZM15.8252 17.0934L15.6425 17.0121L15.5483 17.2238L15.7311 17.3051L15.9138 17.3863L16.008 17.1747L15.8252 17.0934ZM15.7311 17.3051L15.5484 17.2235C15.4313 17.4859 15.5491 17.7932 15.8111 17.9103L15.8927 17.7278L15.9743 17.5452C15.9138 17.5181 15.8867 17.4471 15.9137 17.3866L15.7311 17.3051ZM15.8194 21.0298L15.8763 21.2216L16.0672 21.1649L16.0102 20.9732L15.9533 20.7815L15.7625 20.8381L15.8194 21.0298ZM16.0102 20.9732L16.0671 21.1649C17.1823 20.8339 17.8693 19.6632 17.58 18.5165L17.3861 18.5655L17.1921 18.6144C17.4281 19.5496 16.8664 20.5104 15.9533 20.7814L16.0102 20.9732ZM17.3861 18.5655L17.5802 18.5173L17.3506 17.5919L17.1565 17.64L16.9624 17.6882L17.1919 18.6136L17.3861 18.5655ZM17.1565 17.64L17.3506 17.592C17.2815 17.3125 16.9971 17.1428 16.7201 17.2126L16.769 17.4065L16.8178 17.6005C16.88 17.5848 16.9464 17.6238 16.9623 17.6881L17.1565 17.64ZM16.769 17.4065L16.7209 17.2124C16.442 17.2814 16.2718 17.5636 16.3416 17.8427L16.5356 17.7942L16.7297 17.7457C16.7136 17.6815 16.7526 17.6166 16.817 17.6006L16.769 17.4065ZM16.5356 17.7942L16.3415 17.8423L16.5711 18.7686L16.7652 18.7205L16.9594 18.6723L16.7298 17.7461L16.5356 17.7942ZM16.7652 18.7205L16.5712 18.7689C16.5939 18.86 16.6056 18.9545 16.6056 19.0498H16.8056H17.0056C17.0056 18.9218 16.9899 18.7947 16.9593 18.672L16.7652 18.7205ZM16.8056 19.0498H16.6056C16.6056 19.5617 16.2618 20.0223 15.7712 20.1679L15.8281 20.3596L15.8851 20.5514C16.5453 20.3553 17.0056 19.7388 17.0056 19.0498H16.8056ZM15.8281 20.3596L15.7712 20.1679L15.5804 20.2246L15.6373 20.4163L15.6942 20.608L15.8851 20.5514L15.8281 20.3596ZM15.6373 20.4163L15.5803 20.2246C15.4142 20.274 15.2417 20.1912 15.1762 20.0257L14.9902 20.0992L14.8042 20.1728C14.9454 20.5297 15.3279 20.7169 15.6943 20.608L15.6373 20.4163ZM14.9902 20.0992L15.1763 20.0259C15.1038 19.842 15.2062 19.6358 15.3981 19.5837L15.3456 19.3907L15.2932 19.1977C14.8701 19.3127 14.6448 19.7682 14.8042 20.1726L14.9902 20.0992ZM15.3456 19.3907L15.398 19.5837C15.675 19.5085 15.8388 19.2231 15.7637 18.9459L15.5706 18.9982L15.3776 19.0505C15.395 19.1145 15.3572 19.1803 15.2933 19.1977L15.3456 19.3907ZM15.5706 18.9982L15.7636 18.9457C15.6888 18.6703 15.4056 18.5036 15.1254 18.5803L15.1781 18.7732L15.2309 18.9661C15.2949 18.9486 15.36 18.9857 15.3776 19.0506L15.5706 18.9982ZM15.1781 18.7732L15.1258 18.5801C14.3397 18.7932 13.9072 19.6444 14.2105 20.4104L14.3965 20.3367L14.5824 20.2631C14.3673 19.7199 14.6738 19.1171 15.2305 18.9662L15.1781 18.7732ZM14.3965 20.3367L14.2104 20.4101C14.4709 21.071 15.1854 21.4268 15.8763 21.2216L15.8194 21.0298L15.7624 20.8381C15.2722 20.9837 14.7677 20.733 14.5825 20.2634L14.3965 20.3367ZM8.08856 11.4186L7.89502 11.469C7.95604 11.7033 8.1669 11.8578 8.39773 11.8578V11.6578V11.4578C8.34439 11.4578 8.29608 11.4218 8.2821 11.3682L8.08856 11.4186ZM8.39773 11.6578V11.8578C8.41028 11.8578 8.42045 11.8566 8.42668 11.8557C8.42987 11.8553 8.4325 11.8549 8.43421 11.8546C8.43583 11.8543 8.4372 11.854 8.43739 11.854C8.43795 11.8539 8.43716 11.854 8.4363 11.8542C8.43529 11.8544 8.43335 11.8547 8.43087 11.8551C8.42608 11.8558 8.41731 11.8569 8.4062 11.857L8.40346 11.657L8.40072 11.4571C8.38865 11.4572 8.37894 11.4584 8.37319 11.4592C8.37023 11.4597 8.36781 11.4601 8.36632 11.4604C8.36556 11.4605 8.36493 11.4606 8.36453 11.4607C8.36417 11.4607 8.3638 11.4608 8.3638 11.4608C8.36284 11.461 8.36679 11.4602 8.37164 11.4596C8.37691 11.4588 8.38613 11.4578 8.39773 11.4578V11.6578ZM8.40346 11.657L8.39995 11.857C8.38511 11.8567 8.37322 11.8548 8.36595 11.8534C8.36232 11.8527 8.35945 11.852 8.35785 11.8516C8.35645 11.8513 8.35518 11.8509 8.35579 11.8511C8.35588 11.8511 8.35764 11.8516 8.35975 11.8521C8.362 11.8526 8.3655 11.8534 8.3698 11.8542C8.37841 11.8558 8.39158 11.8578 8.40773 11.8578V11.6578V11.4578C8.42313 11.4578 8.43559 11.4596 8.44349 11.4611C8.44744 11.4618 8.45058 11.4625 8.45249 11.463C8.45425 11.4634 8.45565 11.4638 8.4554 11.4637C8.45537 11.4637 8.45541 11.4637 8.45534 11.4637C8.45531 11.4637 8.45525 11.4637 8.45519 11.4637C8.45506 11.4636 8.45485 11.4636 8.4546 11.4635C8.45411 11.4634 8.45329 11.4632 8.45229 11.4629C8.45034 11.4625 8.44712 11.4617 8.44313 11.4609C8.43516 11.4593 8.42255 11.4573 8.40696 11.4571L8.40346 11.657ZM8.40773 11.6578V11.8578C8.44517 11.8578 8.48255 11.8537 8.51922 11.8458L8.47731 11.6503L8.43541 11.4547C8.42541 11.4568 8.41612 11.4578 8.40773 11.4578V11.6578ZM8.47731 11.6503L8.52028 11.8456C8.53866 11.8415 8.55338 11.8358 8.56357 11.8312C8.57299 11.8269 8.58049 11.8226 8.58163 11.822C8.58303 11.8212 8.58216 11.8217 8.58157 11.822C8.58065 11.8225 8.57845 11.8237 8.57549 11.8252C8.56954 11.8281 8.55887 11.8329 8.54472 11.8368L8.49135 11.644L8.43797 11.4513C8.42129 11.4559 8.40824 11.4617 8.40001 11.4657C8.3959 11.4677 8.39257 11.4695 8.39053 11.4706C8.38949 11.4712 8.38862 11.4717 8.38808 11.472C8.38781 11.4721 8.38757 11.4722 8.38742 11.4723C8.38724 11.4724 8.38719 11.4725 8.38713 11.4725C8.38682 11.4727 8.38801 11.472 8.3897 11.4711C8.3915 11.4702 8.39452 11.4686 8.39841 11.4668C8.40627 11.4633 8.41856 11.4584 8.43434 11.4549L8.47731 11.6503ZM8.49135 11.644L8.54196 11.8375C8.83626 11.7605 9.3223 11.6263 9.82374 11.4576C10.3216 11.29 10.8489 11.0837 11.2178 10.8598L11.114 10.6888L11.0102 10.5178C10.6813 10.7175 10.1892 10.9125 9.69614 11.0785C9.20666 11.2432 8.73027 11.3748 8.44074 11.4505L8.49135 11.644ZM11.114 10.6888L10.9475 10.7997C11.1773 11.1446 11.6369 11.6016 12.1843 11.7783L12.2458 11.588L12.3073 11.3977C11.8727 11.2574 11.4785 10.8753 11.2804 10.5779L11.114 10.6888ZM12.2458 11.588L12.1715 11.7737C12.172 11.7739 12.1728 11.7742 12.1729 11.7742C12.1735 11.7745 12.1733 11.7744 12.173 11.7743L12.2473 11.5886L12.3216 11.4029C12.3211 11.4027 12.3203 11.4024 12.3203 11.4024C12.3196 11.4021 12.3198 11.4022 12.3201 11.4023L12.2458 11.588ZM12.2473 11.5886L12.1863 11.779C12.2039 11.7847 12.2195 11.7874 12.2314 11.7887C12.2425 11.79 12.2519 11.7903 12.2553 11.7904C12.261 11.7906 12.2576 11.7905 12.2554 11.7904C12.2517 11.7901 12.2434 11.7894 12.2327 11.7871L12.2759 11.5918L12.319 11.3965C12.3035 11.3931 12.2904 11.3918 12.282 11.3913C12.2778 11.391 12.2742 11.3908 12.272 11.3908C12.2708 11.3907 12.2698 11.3907 12.2692 11.3907C12.2684 11.3906 12.2681 11.3906 12.2679 11.3906C12.2665 11.3906 12.2711 11.3907 12.2775 11.3914C12.2846 11.3922 12.2955 11.394 12.3084 11.3981L12.2473 11.5886ZM12.2759 11.5918L12.2324 11.787C12.4886 11.8441 12.7551 11.7058 12.84 11.4446L12.6498 11.3828L12.4596 11.3209C12.4416 11.3762 12.3845 11.4111 12.3194 11.3966L12.2759 11.5918ZM12.6498 11.3828L12.8401 11.4444C13.0935 10.6628 12.9667 10.0094 12.8144 9.59864L12.6269 9.66818L12.4394 9.73771C12.5687 10.0865 12.6787 10.6453 12.4596 11.3211L12.6498 11.3828ZM12.6269 9.66818L12.8145 9.59875C12.7286 9.36685 12.582 9.16325 12.3898 9.01023L12.2652 9.16672L12.1407 9.3232C12.2751 9.43018 12.3785 9.57326 12.4393 9.7376L12.6269 9.66818ZM12.2652 9.16672L12.3899 9.01036C12.2549 8.90269 12.1185 8.77453 12.0065 8.66538C11.95 8.61042 11.9025 8.56301 11.8622 8.52333C11.8286 8.49031 11.7883 8.45064 11.7602 8.42985L11.6411 8.59047L11.5219 8.75109C11.5218 8.75101 11.5377 8.76523 11.5817 8.80854C11.619 8.84517 11.6705 8.8965 11.7274 8.95192C11.842 9.06357 11.9897 9.20281 12.1405 9.32308L12.2652 9.16672ZM11.6411 8.59047L11.7611 8.4305C11.1938 8.0048 10.5511 8.02217 10.0253 8.16596C9.50104 8.30933 9.06554 8.58455 8.8724 8.7194L8.9869 8.88339L9.10139 9.04737C9.27825 8.92389 9.67025 8.67775 10.1308 8.5518C10.5898 8.42627 11.0891 8.42634 11.521 8.75044L11.6411 8.59047ZM8.9869 8.88339L8.8722 8.71954C8.84277 8.74014 8.81821 8.75044 8.80089 8.75477L8.8494 8.9488L8.8979 9.14283C8.97058 9.12466 9.03936 9.09079 9.10159 9.04723L8.9869 8.88339ZM8.8494 8.9488L8.80156 8.75461C8.10754 8.92557 7.8762 9.55132 7.8148 10.0964C7.75257 10.6489 7.85031 11.2057 7.88912 11.3964L8.0851 11.3566L8.28108 11.3167C8.24463 11.1376 8.15721 10.6303 8.21229 10.1412C8.2682 9.64477 8.45664 9.25153 8.89723 9.143L8.8494 8.9488ZM8.0851 11.3566L7.88543 11.3681C7.88535 11.3667 7.88542 11.3667 7.88539 11.3704C7.88538 11.3715 7.88522 11.3818 7.88524 11.3882C7.8853 11.4045 7.88601 11.4344 7.89501 11.469L8.08856 11.4186L8.28211 11.3682C8.28567 11.3819 8.28525 11.3912 8.28524 11.3868C8.28523 11.3859 8.28524 11.3846 8.28527 11.3823C8.28529 11.3805 8.28535 11.3769 8.28537 11.3738C8.28543 11.3672 8.28545 11.3568 8.28477 11.3451L8.0851 11.3566ZM9.00315 9.57005L9.05119 9.7642C9.19885 9.72766 9.33918 9.66218 9.46792 9.57197L9.35315 9.40818L9.23837 9.24439C9.14711 9.30834 9.05161 9.35203 8.95511 9.37591L9.00315 9.57005ZM9.35315 9.40818L9.46743 9.57231C9.60048 9.47967 9.88943 9.29588 10.2166 9.19088C10.548 9.08453 10.8721 9.07272 11.1231 9.25213L11.2394 9.08943L11.3557 8.92672C10.9521 8.63822 10.4727 8.68859 10.0944 8.81001C9.71187 8.93277 9.38498 9.14231 9.23886 9.24404L9.35315 9.40818ZM11.2394 9.08943L11.0978 9.23066C11.4256 9.55933 11.607 9.70863 11.7129 9.80028C11.7666 9.84678 11.7882 9.86802 11.8021 9.88589C11.8127 9.89944 11.8232 9.91657 11.8394 9.96016L12.0269 9.89047L12.2144 9.82078C12.1894 9.75371 12.1614 9.69609 12.1173 9.63959C12.0765 9.58741 12.0271 9.5433 11.9747 9.49792C11.8684 9.4058 11.6972 9.26524 11.381 8.94819L11.2394 9.08943ZM12.0269 9.89047L11.8393 9.95989C11.9111 10.1538 11.9738 10.4395 11.9269 10.7867L12.1251 10.8134L12.3233 10.8402C12.3806 10.4156 12.3041 10.0633 12.2145 9.82105L12.0269 9.89047ZM12.1251 10.8134L12.2397 10.6495C12.0099 10.4889 11.8283 10.2661 11.7766 10.1627L11.5977 10.2521L11.4188 10.3416C11.5062 10.5164 11.7381 10.787 12.0106 10.9774L12.1251 10.8134ZM11.5977 10.2521L11.7764 10.1623C11.5854 9.78221 11.1014 9.67173 10.7613 9.91647L10.8781 10.0788L10.995 10.2411C11.1397 10.137 11.3409 10.1865 11.419 10.3419L11.5977 10.2521ZM10.8781 10.0788L10.7619 9.91607C10.5843 10.0429 10.2684 10.1887 9.87519 10.3357C9.4871 10.4808 9.04043 10.621 8.61362 10.7407L8.6676 10.9333L8.72158 11.1258C9.1556 11.0042 9.61359 10.8605 10.0153 10.7104C10.4118 10.5621 10.7707 10.4013 10.9944 10.2415L10.8781 10.0788ZM8.6676 10.9333L8.86623 10.9099C8.83588 10.6517 8.82699 10.3554 8.86689 10.1195C8.88689 10.0013 8.91713 9.91085 8.95359 9.84997C8.98826 9.79207 9.02133 9.77155 9.05096 9.76425L9.00315 9.57005L8.95533 9.37585C8.79547 9.41521 8.684 9.52158 8.6104 9.64448C8.53859 9.76441 8.49686 9.90872 8.47249 10.0528C8.42365 10.3415 8.43648 10.6802 8.46897 10.9566L8.6676 10.9333ZM8.59856 13.189L8.40041 13.2161C8.46716 13.7039 8.69499 14.1943 9.03551 14.5652C9.37689 14.937 9.84263 15.1994 10.3827 15.1994V14.9994V14.7994C9.9795 14.7994 9.6144 14.6042 9.33016 14.2947C9.04505 13.9841 8.85247 13.5693 8.79672 13.1619L8.59856 13.189ZM10.3827 14.9994V15.1994C10.9232 15.1994 11.3893 14.9371 11.731 14.5652C12.0719 14.1943 12.3 13.7039 12.3667 13.2159L12.1686 13.1888L11.9704 13.1617C11.9147 13.5692 11.7219 13.984 11.4365 14.2946C11.152 14.6042 10.7864 14.7994 10.3827 14.7994V14.9994ZM12.1686 13.1888L12.2392 13.3759C12.8971 13.1276 13.1069 12.3298 12.7225 11.7921L12.5598 11.9084L12.3971 12.0247C12.6341 12.3563 12.5015 12.8494 12.0979 13.0017L12.1686 13.1888ZM12.5598 11.9084L12.7225 11.792C12.556 11.5592 12.2321 11.5038 11.9969 11.6717L12.1131 11.8344L12.2294 11.9972C12.2842 11.958 12.3586 11.9709 12.3971 12.0247L12.5598 11.9084ZM12.1131 11.8344L11.9969 11.6717C11.7629 11.8389 11.7098 12.1638 11.8761 12.397L12.039 12.2809L12.2018 12.1648C12.1631 12.1105 12.1759 12.0354 12.2294 11.9972L12.1131 11.8344ZM12.039 12.2809L11.8772 12.3985C11.8748 12.3951 11.8746 12.3929 11.8747 12.3936C11.8748 12.3945 11.8748 12.3968 11.8738 12.3994C11.8729 12.4019 11.8719 12.4029 11.8719 12.403C11.8718 12.403 11.8719 12.403 11.8719 12.403C11.8719 12.403 11.8719 12.403 11.8719 12.403C11.8718 12.403 11.8711 12.4034 11.8694 12.4038L11.9156 12.5984L11.9619 12.793C12.2565 12.7229 12.3582 12.3797 12.2007 12.1632L12.039 12.2809ZM11.9156 12.5984L11.8694 12.4038C11.5823 12.4721 11.3672 12.7116 11.3438 13.0065L11.5431 13.0223L11.7425 13.0382C11.7516 12.9243 11.8356 12.823 11.9619 12.793L11.9156 12.5984ZM11.5431 13.0223L11.3438 13.0066C11.3229 13.2711 11.1993 13.5675 11.0125 13.7963C10.8241 14.0272 10.5975 14.1594 10.3827 14.1594V14.3594V14.5594C10.7621 14.5594 11.0914 14.3323 11.3224 14.0492C11.5552 13.7641 11.7146 13.3919 11.7425 13.0381L11.5431 13.0223ZM10.3827 14.3594V14.1594C10.162 14.1594 9.93628 14.0287 9.75095 13.8013C9.56682 13.5753 9.445 13.2792 9.42379 13.007L9.2244 13.0226L9.025 13.0381C9.05296 13.3969 9.20885 13.7692 9.44086 14.054C9.67168 14.3372 10.0006 14.5594 10.3827 14.5594V14.3594ZM9.2244 13.0226L9.42377 13.0067C9.40032 12.7115 9.18505 12.472 8.89717 12.4038L8.85106 12.5984L8.80495 12.793C8.93208 12.8231 9.01597 12.9245 9.02502 13.0384L9.2244 13.0226ZM8.85106 12.5984L8.89752 12.4039C8.89578 12.4034 8.89508 12.403 8.89501 12.403C8.89494 12.403 8.89493 12.403 8.89495 12.403C8.89497 12.403 8.89498 12.403 8.89497 12.403C8.89496 12.403 8.89412 12.4021 8.89342 12.4C8.89268 12.3978 8.89263 12.3958 8.89282 12.3946C8.89295 12.3938 8.89306 12.3937 8.89313 12.3937L8.73606 12.2698L8.57899 12.146C8.40341 12.3688 8.50564 12.7215 8.8046 12.7929L8.85106 12.5984ZM8.73606 12.2698L8.89279 12.3941C9.07164 12.1685 9.03288 11.8413 8.80752 11.6633L8.68356 11.8203L8.5596 11.9772C8.61175 12.0184 8.62048 12.0937 8.57934 12.1456L8.73606 12.2698ZM8.68356 11.8203L8.80767 11.6634C8.58179 11.4847 8.25488 11.5246 8.07758 11.7486L8.2344 11.8728L8.39121 11.9969C8.43224 11.9451 8.50783 11.9362 8.55946 11.9771L8.68356 11.8203ZM8.2344 11.8728L8.07749 11.7487C7.64437 12.2967 7.86028 13.1242 8.52795 13.3761L8.59856 13.189L8.66918 13.0019C8.259 12.8471 8.12325 12.3359 8.3913 11.9968L8.2344 11.8728ZM30.174 18.4157H30.374V5.86984H30.174H29.974V18.4157H30.174ZM30.174 5.86984H30.374C30.374 5.34571 29.9483 4.91964 29.424 4.91964V5.11964V5.31964C29.7272 5.31964 29.974 5.56648 29.974 5.86984H30.174ZM29.424 5.11964V4.91964H13.4569V5.11964V5.31964H29.424V5.11964ZM13.4569 5.11964V4.91964C12.9328 4.91964 12.5065 5.34556 12.5065 5.86984H12.7065H12.9065C12.9065 5.56662 13.1535 5.31964 13.4569 5.31964V5.11964ZM12.7065 5.86984H12.5065V7.8288H12.7065H12.9065V5.86984H12.7065ZM12.7065 7.8288H12.5065C12.5065 8.11593 12.7394 8.3488 13.0265 8.3488V8.1488V7.9488C12.9603 7.9488 12.9065 7.89501 12.9065 7.8288H12.7065ZM13.0265 8.1488V8.3488C13.3136 8.3488 13.5465 8.11593 13.5465 7.8288H13.3465H13.1465C13.1465 7.89501 13.0927 7.9488 13.0265 7.9488V8.1488ZM13.3465 7.8288H13.5465V5.86984H13.3465H13.1465V7.8288H13.3465ZM13.3465 5.86984H13.5465C13.5465 5.91996 13.506 5.95964 13.4569 5.95964V5.75964V5.55964C13.2861 5.55964 13.1465 5.69806 13.1465 5.86984H13.3465ZM13.4569 5.75964V5.95964H29.424V5.75964V5.55964H13.4569V5.75964ZM29.424 5.75964V5.95964C29.3739 5.95964 29.334 5.91897 29.334 5.86984H29.534H29.734C29.734 5.69905 29.5958 5.55964 29.424 5.55964V5.75964ZM29.534 5.86984H29.334V18.4157H29.534H29.734V5.86984H29.534ZM29.534 18.4157H29.334C29.334 18.3666 29.3739 18.3259 29.424 18.3259V18.5259V18.7259C29.5958 18.7259 29.734 18.5865 29.734 18.4157H29.534ZM29.424 18.5259V18.3259H19.1244V18.5259V18.7259H29.424V18.5259ZM19.1244 18.5259V18.3259C18.8373 18.3259 18.6044 18.5588 18.6044 18.8459H18.8044H19.0044C19.0044 18.7797 19.0582 18.7259 19.1244 18.7259V18.5259ZM18.8044 18.8459H18.6044C18.6044 19.133 18.8373 19.3659 19.1244 19.3659V19.1659V18.9659C19.0582 18.9659 19.0044 18.9121 19.0044 18.8459H18.8044ZM19.1244 19.1659V19.3659H29.424V19.1659V18.9659H19.1244V19.1659ZM29.424 19.1659V19.3659C29.9483 19.3659 30.374 18.9398 30.374 18.4157H30.174H29.974C29.974 18.719 29.7272 18.9659 29.424 18.9659V19.1659ZM14.3152 8.19109H14.1152C14.1152 8.47822 14.3481 8.71109 14.6352 8.71109V8.51109V8.31109C14.569 8.31109 14.5152 8.2573 14.5152 8.19109H14.3152ZM14.6352 8.51109V8.71109H28.2556V8.51109V8.31109H14.6352V8.51109ZM28.2556 8.51109V8.71109C28.5428 8.71109 28.7756 8.47822 28.7756 8.19109H28.5756H28.3756C28.3756 8.2573 28.3219 8.31109 28.2556 8.31109V8.51109ZM28.5756 8.19109H28.7756C28.7756 7.90397 28.5428 7.67109 28.2556 7.67109V7.87109V8.07109C28.3219 8.07109 28.3756 8.12488 28.3756 8.19109H28.5756ZM28.2556 7.87109V7.67109H14.6352V7.87109V8.07109H28.2556V7.87109ZM14.6352 7.87109V7.67109C14.3481 7.67109 14.1152 7.90397 14.1152 8.19109H14.3152H14.5152C14.5152 8.12488 14.569 8.07109 14.6352 8.07109V7.87109ZM27.7281 7.17109V7.37109C28.0153 7.37109 28.2481 7.13822 28.2481 6.85109H28.0481H27.8481C27.8481 6.9173 27.7944 6.97109 27.7281 6.97109V7.17109ZM28.0481 6.85109H28.2481C28.2481 6.56397 28.0153 6.33109 27.7281 6.33109V6.53109V6.73109C27.7944 6.73109 27.8481 6.78488 27.8481 6.85109H28.0481ZM27.7281 6.53109V6.33109H26.3661V6.53109V6.73109H27.7281V6.53109ZM26.3661 6.53109V6.33109C26.0789 6.33109 25.8461 6.56397 25.8461 6.85109H26.0461H26.2461C26.2461 6.78488 26.2999 6.73109 26.3661 6.73109V6.53109ZM26.0461 6.85109H25.8461C25.8461 7.13822 26.0789 7.37109 26.3661 7.37109V7.17109V6.97109C26.2999 6.97109 26.2461 6.9173 26.2461 6.85109H26.0461ZM26.3661 7.17109V7.37109H27.7281V7.17109V6.97109H26.3661V7.17109ZM15.8266 6.80888H16.0266C16.0266 6.46205 15.7455 6.18089 15.3987 6.18089V6.38089V6.58089C15.5246 6.58089 15.6266 6.68295 15.6266 6.80888H15.8266ZM15.3987 6.38089V6.18089C15.0518 6.18089 14.7707 6.46204 14.7707 6.80888H14.9707H15.1707C15.1707 6.68296 15.2727 6.58089 15.3987 6.58089V6.38089ZM14.9707 6.80888H14.7707C14.7707 7.1557 15.0518 7.43685 15.3987 7.43685V7.23685V7.03685C15.2727 7.03685 15.1707 6.93477 15.1707 6.80888H14.9707ZM15.3987 7.23685V7.43685C15.7455 7.43685 16.0266 7.15569 16.0266 6.80888H15.8266H15.6266C15.6266 6.93478 15.5246 7.03685 15.3987 7.03685V7.23685ZM17.3542 6.80888H17.5542C17.5542 6.46207 17.2731 6.18089 16.9262 6.18089V6.38089V6.58089C17.0521 6.58089 17.1542 6.68293 17.1542 6.80888H17.3542ZM16.9262 6.38089V6.18089C16.5794 6.18089 16.2983 6.46205 16.2983 6.80888H16.4983H16.6982C16.6982 6.68295 16.8003 6.58089 16.9262 6.58089V6.38089ZM16.4983 6.80888H16.2983C16.2983 7.15569 16.5794 7.43685 16.9262 7.43685V7.23685V7.03685C16.8003 7.03685 16.6982 6.93478 16.6982 6.80888H16.4983ZM16.9262 7.23685V7.43685C17.2731 7.43685 17.5542 7.15568 17.5542 6.80888H17.3542H17.1542C17.1542 6.93479 17.0522 7.03685 16.9262 7.03685V7.23685ZM8.72773 7.9713L8.9017 8.06996L9.55212 6.92309L9.37815 6.82443L9.20418 6.72576L8.55376 7.87264L8.72773 7.9713ZM9.37815 6.82443V7.02443H10.9356V6.82443V6.62443H9.37815V6.82443ZM10.9356 6.82443V7.02443C11.4695 7.02443 11.9031 6.59047 11.9031 6.05693H11.7031H11.5031C11.5031 6.36963 11.2485 6.62443 10.9356 6.62443V6.82443ZM11.7031 6.05693H11.9031V2.96672H11.7031H11.5031V6.05693H11.7031ZM11.7031 2.96672H11.9031C11.9031 2.43317 11.4695 1.99922 10.9356 1.99922V2.19922V2.39922C11.2485 2.39922 11.5031 2.65402 11.5031 2.96672H11.7031ZM10.9356 2.19922V1.99922H5.72231V2.19922V2.39922H10.9356V2.19922ZM5.72231 2.19922V1.99922C5.18849 1.99922 4.75481 2.43317 4.75481 2.96672H4.95481H5.15481C5.15481 2.65402 5.40947 2.39922 5.72231 2.39922V2.19922ZM4.95481 2.96672H4.75481V6.05693H4.95481H5.15481V2.96672H4.95481ZM4.95481 6.05693H4.75481C4.75481 6.59047 5.18849 7.02443 5.72231 7.02443V6.82443V6.62443C5.40947 6.62443 5.15481 6.36963 5.15481 6.05693H4.95481ZM5.72231 6.82443V7.02443H7.47398V6.82443V6.62443H5.72231V6.82443ZM7.47398 6.82443L7.30306 6.92829L8.00514 8.0837L8.17606 7.97984L8.34698 7.87599L7.6449 6.72057L7.47398 6.82443ZM8.17606 7.97984L8.00499 8.08345C8.20994 8.42185 8.7058 8.41645 8.90183 8.06974L8.72773 7.9713L8.55363 7.87287C8.50862 7.95247 8.39421 7.95397 8.34713 7.87623L8.17606 7.97984ZM7.92606 6.33609L8.09699 6.23226C8.0009 6.07407 7.82969 5.98339 7.65231 5.98339V6.18339V6.38339C7.69505 6.38339 7.73418 6.40544 7.75513 6.43993L7.92606 6.33609ZM7.65231 6.18339V5.98339C7.60813 5.98339 5.76621 5.9844 5.7222 5.98443L5.72231 6.18443L5.72242 6.38443C5.76658 6.3844 7.60828 6.38339 7.65231 6.38339V6.18339ZM5.72231 6.18443V5.98443C5.74482 5.98443 5.76273 5.99388 5.77405 6.00519C5.78536 6.01651 5.79481 6.03442 5.79481 6.05693H5.59481H5.39481C5.39481 6.23655 5.54269 6.38443 5.72231 6.38443V6.18443ZM5.59481 6.05693H5.79481V2.96672H5.59481H5.39481V6.05693H5.59481ZM5.59481 2.96672H5.79481C5.79481 2.98922 5.78536 3.00713 5.77405 3.01845C5.76273 3.02977 5.74482 3.03922 5.72231 3.03922V2.83922V2.63922C5.54269 2.63922 5.39481 2.7871 5.39481 2.96672H5.59481ZM5.72231 2.83922V3.03922H10.9356V2.83922V2.63922H5.72231V2.83922ZM10.9356 2.83922V3.03922C10.9131 3.03922 10.8952 3.02977 10.8839 3.01845C10.8726 3.00713 10.8631 2.98922 10.8631 2.96672H11.0631H11.2631C11.2631 2.7871 11.1153 2.63922 10.9356 2.63922V2.83922ZM11.0631 2.96672H10.8631V6.05693H11.0631H11.2631V2.96672H11.0631ZM11.0631 6.05693H10.8631C10.8631 6.03442 10.8726 6.01651 10.8839 6.00519C10.8952 5.99388 10.9131 5.98443 10.9356 5.98443V6.18443V6.38443C11.1153 6.38443 11.2631 6.23655 11.2631 6.05693H11.0631ZM10.9356 6.18443V5.98443H9.22981V6.18443V6.38443H10.9356V6.18443ZM9.22981 6.18443L9.25446 5.98595C9.04868 5.9604 8.8453 6.06008 8.74021 6.24636L8.9144 6.34464L9.08858 6.44291C9.11349 6.39877 9.15928 6.3772 9.20517 6.3829L9.22981 6.18443ZM8.9144 6.34464L8.74042 6.24598L8.26584 7.08285L8.43981 7.18151L8.61379 7.28017L9.08837 6.44329L8.9144 6.34464ZM8.43981 7.18151L8.61073 7.07765L8.09698 6.23223L7.92606 6.33609L7.75515 6.43996L8.2689 7.28537L8.43981 7.18151ZM7.71356 4.06005V4.26005H9.00981V4.06005V3.86005H7.71356V4.06005ZM9.00981 4.06005V4.26005C9.29694 4.26005 9.52981 4.02718 9.52981 3.74005H9.32981H9.12981C9.12981 3.80626 9.07602 3.86005 9.00981 3.86005V4.06005ZM9.32981 3.74005H9.52981C9.52981 3.45293 9.29694 3.22005 9.00981 3.22005V3.42005V3.62005C9.07602 3.62005 9.12981 3.67384 9.12981 3.74005H9.32981ZM9.00981 3.42005V3.22005H7.71356V3.42005V3.62005H9.00981V3.42005ZM7.71356 3.42005V3.22005C7.42644 3.22005 7.19356 3.45293 7.19356 3.74005H7.39356H7.59356C7.59356 3.67384 7.64735 3.62005 7.71356 3.62005V3.42005ZM7.39356 3.74005H7.19356C7.19356 4.02718 7.42644 4.26005 7.71356 4.26005V4.06005V3.86005C7.64735 3.86005 7.59356 3.80626 7.59356 3.74005H7.39356ZM10.3148 5.00901H10.5148C10.5148 4.72189 10.2819 4.48901 9.99481 4.48901V4.68901V4.88901C10.061 4.88901 10.1148 4.9428 10.1148 5.00901H10.3148ZM9.99481 4.68901V4.48901H6.66315V4.68901V4.88901H9.99481V4.68901ZM6.66315 4.68901V4.48901C6.37602 4.48901 6.14315 4.72189 6.14315 5.00901H6.34315H6.54315C6.54315 4.9428 6.59694 4.88901 6.66315 4.88901V4.68901ZM6.34315 5.00901H6.14315C6.14315 5.29613 6.37602 5.52901 6.66315 5.52901V5.32901V5.12901C6.59694 5.12901 6.54315 5.07522 6.54315 5.00901H6.34315ZM6.66315 5.32901V5.52901H9.99481V5.32901V5.12901H6.66315V5.32901ZM9.99481 5.32901V5.52901C10.2819 5.52901 10.5148 5.29613 10.5148 5.00901H10.3148H10.1148C10.1148 5.07522 10.061 5.12901 9.99481 5.12901V5.32901ZM18.6181 21.4142V21.2142C17.2827 21.2142 16.1965 22.3002 16.1965 23.6357H16.3965H16.5965C16.5965 22.5212 17.5036 21.6142 18.6181 21.6142V21.4142ZM16.3965 23.6357H16.1965C16.1965 24.9711 17.2827 26.0573 18.6181 26.0573V25.8573V25.6573C17.5036 25.6573 16.5965 24.7502 16.5965 23.6357H16.3965ZM18.6181 25.8573V26.0573C19.9536 26.0573 21.0398 24.9711 21.0398 23.6357H20.8398H20.6398C20.6398 24.7502 19.7327 25.6573 18.6181 25.6573V25.8573ZM20.8398 23.6357H21.0398C21.0398 22.3002 19.9536 21.2142 18.6181 21.2142V21.4142V21.6142C19.7327 21.6142 20.6398 22.5212 20.6398 23.6357H20.8398ZM18.6181 25.2173V25.0173C17.8565 25.0173 17.2365 24.3973 17.2365 23.6357H17.0365H16.8365C16.8365 24.6182 17.6356 25.4173 18.6181 25.4173V25.2173ZM17.0365 23.6357H17.2365C17.2365 22.8741 17.8565 22.2542 18.6181 22.2542V22.0542V21.8542C17.6356 21.8542 16.8365 22.6531 16.8365 23.6357H17.0365ZM18.6181 22.0542V22.2542C19.3798 22.2542 19.9998 22.8741 19.9998 23.6357H20.1998H20.3998C20.3998 22.6531 19.6007 21.8542 18.6181 21.8542V22.0542ZM20.1998 23.6357H19.9998C19.9998 24.3973 19.3798 25.0173 18.6181 25.0173V25.2173V25.4173C19.6007 25.4173 20.3998 24.6182 20.3998 23.6357H20.1998ZM21.6086 30.0476V30.2476C21.8957 30.2476 22.1286 30.0147 22.1286 29.7276H21.9286H21.7286C21.7286 29.7938 21.6748 29.8475 21.6086 29.8475V30.0476ZM21.9286 29.7276H22.1286V28.9382H21.9286H21.7286V29.7276H21.9286ZM21.9286 28.9382H22.1286C22.1286 27.3192 20.8119 26.0023 19.1927 26.0023V26.2023V26.4023C20.591 26.4023 21.7286 27.5401 21.7286 28.9382H21.9286ZM19.1927 26.2023V26.0023H18.0436V26.2023V26.4023H19.1927V26.2023ZM18.0436 26.2023V26.0023C16.4243 26.0023 15.1077 27.3192 15.1077 28.9382H15.3077H15.5077C15.5077 27.5401 16.6453 26.4023 18.0436 26.4023V26.2023ZM15.3077 28.9382H15.1077V29.7276H15.3077H15.5077V28.9382H15.3077ZM15.3077 29.7276H15.1077C15.1077 30.0147 15.3406 30.2476 15.6277 30.2476V30.0476V29.8475C15.5615 29.8475 15.5077 29.7938 15.5077 29.7276H15.3077ZM15.6277 30.0476V30.2476C15.9149 30.2476 16.1477 30.0147 16.1477 29.7276H15.9477H15.7477C15.7477 29.7938 15.6939 29.8475 15.6277 29.8475V30.0476ZM15.9477 29.7276H16.1477V28.9382H15.9477H15.7477V29.7276H15.9477ZM15.9477 28.9382H16.1477C16.1477 27.893 16.9982 27.0423 18.0436 27.0423V26.8423V26.6423C16.7773 26.6423 15.7477 27.6721 15.7477 28.9382H15.9477ZM18.0436 26.8423V27.0423H19.1927V26.8423V26.6423H18.0436V26.8423ZM19.1927 26.8423V27.0423C20.2381 27.0423 21.0886 27.893 21.0886 28.9382H21.2886H21.4886C21.4886 27.6721 20.459 26.6423 19.1927 26.6423V26.8423ZM21.2886 28.9382H21.0886V29.7276H21.2886H21.4886V28.9382H21.2886ZM21.2886 29.7276H21.0886C21.0886 30.0147 21.3214 30.2476 21.6086 30.2476V30.0476V29.8475C21.5424 29.8475 21.4886 29.7938 21.4886 29.7276H21.2886ZM10.0181 25.8573V26.0573C11.3536 26.0573 12.4398 24.9711 12.4398 23.6357H12.2398H12.0398C12.0398 24.7502 11.1327 25.6573 10.0181 25.6573V25.8573ZM12.2398 23.6357H12.4398C12.4398 22.3002 11.3536 21.2142 10.0181 21.2142V21.4142V21.6142C11.1327 21.6142 12.0398 22.5212 12.0398 23.6357H12.2398ZM10.0181 21.4142V21.2142C8.68271 21.2142 7.59648 22.3002 7.59648 23.6357H7.79648H7.99648C7.99648 22.5212 8.90358 21.6142 10.0181 21.6142V21.4142ZM7.79648 23.6357H7.59648C7.59648 24.9711 8.68269 26.0573 10.0181 26.0573V25.8573V25.6573C8.9036 25.6573 7.99648 24.7502 7.99648 23.6357H7.79648ZM10.0181 22.0542V22.2542C10.7798 22.2542 11.3998 22.8741 11.3998 23.6357H11.5998H11.7998C11.7998 22.6531 11.0007 21.8542 10.0181 21.8542V22.0542ZM11.5998 23.6357H11.3998C11.3998 24.3973 10.7798 25.0173 10.0181 25.0173V25.2173V25.4173C11.0007 25.4173 11.7998 24.6182 11.7998 23.6357H11.5998ZM10.0181 25.2173V25.0173C9.25652 25.0173 8.63648 24.3973 8.63648 23.6357H8.43648H8.23648C8.23648 24.6182 9.03561 25.4173 10.0181 25.4173V25.2173ZM8.43648 23.6357H8.63648C8.63648 22.8741 9.25649 22.2542 10.0181 22.2542V22.0542V21.8542C9.03564 21.8542 8.23648 22.6531 8.23648 23.6357H8.43648ZM6.70815 28.9382H6.50815V29.7276H6.70815H6.90814V28.9382H6.70815ZM6.70815 29.7276H6.50815C6.50815 30.0147 6.74102 30.2476 7.02814 30.2476V30.0476V29.8475C6.96194 29.8475 6.90814 29.7938 6.90814 29.7276H6.70815ZM7.02814 30.0476V30.2476C7.31527 30.2476 7.54814 30.0147 7.54814 29.7276H7.34815H7.14815C7.14815 29.7938 7.09436 29.8475 7.02814 29.8475V30.0476ZM7.34815 29.7276H7.54814V28.9382H7.34815H7.14815V29.7276H7.34815ZM7.34815 28.9382H7.54814C7.54814 27.893 8.39864 27.0423 9.44356 27.0423V26.8423V26.6423C8.17765 26.6423 7.14815 27.6721 7.14815 28.9382H7.34815ZM9.44356 26.8423V27.0423H10.5927V26.8423V26.6423H9.44356V26.8423ZM10.5927 26.8423V27.0423C11.6381 27.0423 12.4886 27.893 12.4886 28.9382H12.6886H12.8886C12.8886 27.6721 11.859 26.6423 10.5927 26.6423V26.8423ZM12.6886 28.9382H12.4886V29.7276H12.6886H12.8886V28.9382H12.6886ZM12.6886 29.7276H12.4886C12.4886 30.0147 12.7214 30.2476 13.0086 30.2476V30.0476V29.8475C12.9424 29.8475 12.8886 29.7938 12.8886 29.7276H12.6886ZM13.0086 30.0476V30.2476C13.2957 30.2476 13.5286 30.0147 13.5286 29.7276H13.3286H13.1286C13.1286 29.7938 13.0748 29.8475 13.0086 29.8475V30.0476ZM13.3286 29.7276H13.5286V28.9382H13.3286H13.1286V29.7276H13.3286ZM13.3286 28.9382H13.5286C13.5286 27.3192 12.2119 26.0023 10.5927 26.0023V26.2023V26.4023C11.991 26.4023 13.1286 27.5401 13.1286 28.9382H13.3286ZM10.5927 26.2023V26.0023H9.44356V26.2023V26.4023H10.5927V26.2023ZM9.44356 26.2023V26.0023C7.82474 26.0023 6.50815 27.3192 6.50815 28.9382H6.70815H6.90814C6.90814 27.5401 8.04572 26.4023 9.44356 26.4023V26.2023ZM27.2181 21.4142V21.2142C25.8827 21.2142 24.7965 22.3002 24.7965 23.6357H24.9965H25.1965C25.1965 22.5212 26.1036 21.6142 27.2181 21.6142V21.4142ZM24.9965 23.6357H24.7965C24.7965 24.9711 25.8827 26.0573 27.2181 26.0573V25.8573V25.6573C26.1036 25.6573 25.1965 24.7502 25.1965 23.6357H24.9965ZM27.2181 25.8573V26.0573C28.5536 26.0573 29.6398 24.9711 29.6398 23.6357H29.4398H29.2398C29.2398 24.7502 28.3327 25.6573 27.2181 25.6573V25.8573ZM29.4398 23.6357H29.6398C29.6398 22.3002 28.5536 21.2142 27.2181 21.2142V21.4142V21.6142C28.3327 21.6142 29.2398 22.5212 29.2398 23.6357H29.4398ZM27.2181 25.2173V25.0173C26.4565 25.0173 25.8365 24.3973 25.8365 23.6357H25.6365H25.4365C25.4365 24.6182 26.2356 25.4173 27.2181 25.4173V25.2173ZM25.6365 23.6357H25.8365C25.8365 22.8741 26.4565 22.2542 27.2181 22.2542V22.0542V21.8542C26.2356 21.8542 25.4365 22.6531 25.4365 23.6357H25.6365ZM27.2181 22.0542V22.2542C27.9798 22.2542 28.5998 22.8741 28.5998 23.6357H28.7998H28.9998C28.9998 22.6531 28.2007 21.8542 27.2181 21.8542V22.0542ZM28.7998 23.6357H28.5998C28.5998 24.3973 27.9798 25.0173 27.2181 25.0173V25.2173V25.4173C28.2007 25.4173 28.9998 24.6182 28.9998 23.6357H28.7998ZM27.7927 26.2023V26.0023H26.6436V26.2023V26.4023H27.7927V26.2023ZM26.6436 26.2023V26.0023C25.0243 26.0023 23.7077 27.3192 23.7077 28.9382H23.9077H24.1077C24.1077 27.5401 25.2453 26.4023 26.6436 26.4023V26.2023ZM23.9077 28.9382H23.7077V29.7276H23.9077H24.1077V28.9382H23.9077ZM23.9077 29.7276H23.7077C23.7077 30.0147 23.9406 30.2476 24.2277 30.2476V30.0476V29.8475C24.1615 29.8475 24.1077 29.7938 24.1077 29.7276H23.9077ZM24.2277 30.0476V30.2476C24.5148 30.2476 24.7477 30.0147 24.7477 29.7276H24.5477H24.3477C24.3477 29.7938 24.2939 29.8475 24.2277 29.8475V30.0476ZM24.5477 29.7276H24.7477V28.9382H24.5477H24.3477V29.7276H24.5477ZM24.5477 28.9382H24.7477C24.7477 27.893 25.5982 27.0423 26.6436 27.0423V26.8423V26.6423C25.3773 26.6423 24.3477 27.6721 24.3477 28.9382H24.5477ZM26.6436 26.8423V27.0423H27.7927V26.8423V26.6423H26.6436V26.8423ZM27.7927 26.8423V27.0423C28.8381 27.0423 29.6886 27.893 29.6886 28.9382H29.8886H30.0886C30.0886 27.6721 29.059 26.6423 27.7927 26.6423V26.8423ZM29.8886 28.9382H29.6886V29.7276H29.8886H30.0886V28.9382H29.8886ZM29.8886 29.7276H29.6886C29.6886 30.0147 29.9214 30.2476 30.2086 30.2476V30.0476V29.8475C30.1423 29.8475 30.0886 29.7938 30.0886 29.7276H29.8886ZM30.2086 30.0476V30.2476C30.4957 30.2476 30.7286 30.0147 30.7286 29.7276H30.5286H30.3286C30.3286 29.7938 30.2748 29.8475 30.2086 29.8475V30.0476ZM30.5286 29.7276H30.7286V28.9382H30.5286H30.3286V29.7276H30.5286ZM30.5286 28.9382H30.7286C30.7286 27.3192 29.4119 26.0023 27.7927 26.0023V26.2023V26.4023C29.191 26.4023 30.3286 27.5401 30.3286 28.9382H30.5286ZM25.854 11.9003H26.054C26.054 11.1819 25.4583 10.61 24.6128 10.2284C23.7535 9.84059 22.5677 9.61339 21.2298 9.61339V9.81339V10.0134C22.5282 10.0134 23.6544 10.2347 24.4482 10.5929C25.2557 10.9573 25.654 11.4288 25.654 11.9003H25.854ZM21.2298 9.81339V9.61339C19.8922 9.61339 18.7064 9.84059 17.8472 10.2284C17.0017 10.61 16.4061 11.1819 16.4061 11.9003H16.6061H16.8061C16.8061 11.4288 17.2044 10.9573 18.0118 10.5929C18.8055 10.2347 19.9316 10.0134 21.2298 10.0134V9.81339ZM16.6061 11.9003H16.4061C16.4061 12.6186 17.0017 13.1906 17.8472 13.5722C18.7064 13.9599 19.8922 14.1871 21.2298 14.1871V13.9871V13.7871C19.9316 13.7871 18.8055 13.5658 18.0118 13.2076C17.2044 12.8432 16.8061 12.3717 16.8061 11.9003H16.6061ZM21.2298 13.9871V14.1871C22.5677 14.1871 23.7535 13.9599 24.6128 13.5722C25.4583 13.1906 26.054 12.6186 26.054 11.9003H25.854H25.654C25.654 12.3717 25.2557 12.8432 24.4482 13.2076C23.6544 13.5658 22.5282 13.7871 21.2298 13.7871V13.9871ZM21.2298 13.3471V13.1471C20.1102 13.1471 19.1394 12.9593 18.4554 12.6934C18.1125 12.5601 17.8506 12.4107 17.6781 12.2627C17.5014 12.111 17.4461 11.9857 17.4461 11.9003H17.2461H17.0461C17.0461 12.1563 17.2036 12.3826 17.4176 12.5662C17.6359 12.7535 17.9424 12.9231 18.3105 13.0662C19.0483 13.353 20.0695 13.5471 21.2298 13.5471V13.3471ZM17.2461 11.9003H17.4461C17.4461 11.8148 17.5014 11.6895 17.6781 11.5379C17.8506 11.3899 18.1125 11.2404 18.4554 11.1071C19.1394 10.8412 20.1102 10.6534 21.2298 10.6534V10.4534V10.2534C20.0695 10.2534 19.0483 10.4475 18.3105 10.7343C17.9424 10.8774 17.6359 11.047 17.4176 11.2343C17.2036 11.418 17.0461 11.6443 17.0461 11.9003H17.2461ZM21.2298 10.4534V10.6534C22.3497 10.6534 23.3205 10.8412 24.0046 11.1071C24.3475 11.2404 24.6094 11.3899 24.7819 11.5379C24.9586 11.6895 25.014 11.8148 25.014 11.9003H25.214H25.414C25.414 11.6443 25.2564 11.418 25.0424 11.2343C24.8241 11.047 24.5176 10.8774 24.1495 10.7343C23.4116 10.4475 22.3904 10.2534 21.2298 10.2534V10.4534ZM25.214 11.9003H25.014C25.014 11.9857 24.9586 12.111 24.7819 12.2627C24.6094 12.4107 24.3475 12.5601 24.0046 12.6934C23.3205 12.9593 22.3497 13.1471 21.2298 13.1471V13.3471V13.5471C22.3904 13.5471 23.4116 13.353 24.1495 13.0662C24.5176 12.9231 24.8241 12.7535 25.0424 12.5662C25.2564 12.3826 25.414 12.1563 25.414 11.9003H25.214ZM19.3802 15.1642V14.9642C19.0931 14.9642 18.8602 15.1971 18.8602 15.4842H19.0602H19.2602C19.2602 15.418 19.314 15.3642 19.3802 15.3642V15.1642ZM19.0602 15.4842H18.8602C18.8602 15.7713 19.0931 16.0042 19.3802 16.0042V15.8042V15.6042C19.314 15.6042 19.2602 15.5504 19.2602 15.4842H19.0602ZM19.3802 15.8042V16.0042H23.4015V15.8042V15.6042H19.3802V15.8042ZM23.4015 15.8042V16.0042C23.6886 16.0042 23.9215 15.7713 23.9215 15.4842H23.7215H23.5215C23.5215 15.5504 23.4677 15.6042 23.4015 15.6042V15.8042ZM23.7215 15.4842H23.9215C23.9215 15.1971 23.6886 14.9642 23.4015 14.9642V15.1642V15.3642C23.4677 15.3642 23.5215 15.418 23.5215 15.4842H23.7215ZM23.4015 15.1642V14.9642H19.3802V15.1642V15.3642H23.4015V15.1642Z" fill="url(#paint22_linear_6704_9730)" mask="url(#path-1-outside-1_6704_9730)"/>
<defs>
<linearGradient id="paint0_linear_6704_9730" x1="16.5553" y1="2.19922" x2="16.5553" y2="34.8988" gradientUnits="userSpaceOnUse">
<stop stop-color="#F4853B"/>
<stop offset="1" stop-color="#3448F5"/>
</linearGradient>
<linearGradient id="paint1_linear_6704_9730" x1="16.5553" y1="2.19922" x2="16.5553" y2="34.8988" gradientUnits="userSpaceOnUse">
<stop stop-color="#F4853B"/>
<stop offset="1" stop-color="#3448F5"/>
</linearGradient>
<linearGradient id="paint2_linear_6704_9730" x1="16.5553" y1="2.19922" x2="16.5553" y2="34.8988" gradientUnits="userSpaceOnUse">
<stop stop-color="#F4853B"/>
<stop offset="1" stop-color="#3448F5"/>
</linearGradient>
<linearGradient id="paint3_linear_6704_9730" x1="16.5553" y1="2.19922" x2="16.5553" y2="34.8988" gradientUnits="userSpaceOnUse">
<stop stop-color="#F4853B"/>
<stop offset="1" stop-color="#3448F5"/>
</linearGradient>
<linearGradient id="paint4_linear_6704_9730" x1="16.5553" y1="2.19922" x2="16.5553" y2="34.8988" gradientUnits="userSpaceOnUse">
<stop stop-color="#F4853B"/>
<stop offset="1" stop-color="#3448F5"/>
</linearGradient>
<linearGradient id="paint5_linear_6704_9730" x1="16.5553" y1="2.19922" x2="16.5553" y2="34.8988" gradientUnits="userSpaceOnUse">
<stop stop-color="#F4853B"/>
<stop offset="1" stop-color="#3448F5"/>
</linearGradient>
<linearGradient id="paint6_linear_6704_9730" x1="16.5553" y1="2.19922" x2="16.5553" y2="34.8988" gradientUnits="userSpaceOnUse">
<stop stop-color="#F4853B"/>
<stop offset="1" stop-color="#3448F5"/>
</linearGradient>
<linearGradient id="paint7_linear_6704_9730" x1="16.5553" y1="2.19922" x2="16.5553" y2="34.8988" gradientUnits="userSpaceOnUse">
<stop stop-color="#F4853B"/>
<stop offset="1" stop-color="#3448F5"/>
</linearGradient>
<linearGradient id="paint8_linear_6704_9730" x1="16.5553" y1="2.19922" x2="16.5553" y2="34.8988" gradientUnits="userSpaceOnUse">
<stop stop-color="#F4853B"/>
<stop offset="1" stop-color="#3448F5"/>
</linearGradient>
<linearGradient id="paint9_linear_6704_9730" x1="16.5553" y1="2.19922" x2="16.5553" y2="34.8988" gradientUnits="userSpaceOnUse">
<stop stop-color="#F4853B"/>
<stop offset="1" stop-color="#3448F5"/>
</linearGradient>
<linearGradient id="paint10_linear_6704_9730" x1="16.5553" y1="2.19922" x2="16.5553" y2="34.8988" gradientUnits="userSpaceOnUse">
<stop stop-color="#F4853B"/>
<stop offset="1" stop-color="#3448F5"/>
</linearGradient>
<linearGradient id="paint11_linear_6704_9730" x1="16.5553" y1="2.19922" x2="16.5553" y2="34.8988" gradientUnits="userSpaceOnUse">
<stop stop-color="#F4853B"/>
<stop offset="1" stop-color="#3448F5"/>
</linearGradient>
<linearGradient id="paint12_linear_6704_9730" x1="16.5553" y1="2.19922" x2="16.5553" y2="34.8988" gradientUnits="userSpaceOnUse">
<stop stop-color="#F4853B"/>
<stop offset="1" stop-color="#3448F5"/>
</linearGradient>
<linearGradient id="paint13_linear_6704_9730" x1="16.5553" y1="2.19922" x2="16.5553" y2="34.8988" gradientUnits="userSpaceOnUse">
<stop stop-color="#F4853B"/>
<stop offset="1" stop-color="#3448F5"/>
</linearGradient>
<linearGradient id="paint14_linear_6704_9730" x1="16.5553" y1="2.19922" x2="16.5553" y2="34.8988" gradientUnits="userSpaceOnUse">
<stop stop-color="#F4853B"/>
<stop offset="1" stop-color="#3448F5"/>
</linearGradient>
<linearGradient id="paint15_linear_6704_9730" x1="16.5553" y1="2.19922" x2="16.5553" y2="34.8988" gradientUnits="userSpaceOnUse">
<stop stop-color="#F4853B"/>
<stop offset="1" stop-color="#3448F5"/>
</linearGradient>
<linearGradient id="paint16_linear_6704_9730" x1="16.5553" y1="2.19922" x2="16.5553" y2="34.8988" gradientUnits="userSpaceOnUse">
<stop stop-color="#F4853B"/>
<stop offset="1" stop-color="#3448F5"/>
</linearGradient>
<linearGradient id="paint17_linear_6704_9730" x1="16.5553" y1="2.19922" x2="16.5553" y2="34.8988" gradientUnits="userSpaceOnUse">
<stop stop-color="#F4853B"/>
<stop offset="1" stop-color="#3448F5"/>
</linearGradient>
<linearGradient id="paint18_linear_6704_9730" x1="16.5553" y1="2.19922" x2="16.5553" y2="34.8988" gradientUnits="userSpaceOnUse">
<stop stop-color="#F4853B"/>
<stop offset="1" stop-color="#3448F5"/>
</linearGradient>
<linearGradient id="paint19_linear_6704_9730" x1="16.5553" y1="2.19922" x2="16.5553" y2="34.8988" gradientUnits="userSpaceOnUse">
<stop stop-color="#F4853B"/>
<stop offset="1" stop-color="#3448F5"/>
</linearGradient>
<linearGradient id="paint20_linear_6704_9730" x1="16.5553" y1="2.19922" x2="16.5553" y2="34.8988" gradientUnits="userSpaceOnUse">
<stop stop-color="#F4853B"/>
<stop offset="1" stop-color="#3448F5"/>
</linearGradient>
<linearGradient id="paint21_linear_6704_9730" x1="16.5553" y1="2.19922" x2="16.5553" y2="34.8988" gradientUnits="userSpaceOnUse">
<stop stop-color="#F4853B"/>
<stop offset="1" stop-color="#3448F5"/>
</linearGradient>
<linearGradient id="paint22_linear_6704_9730" x1="16.5553" y1="2.19922" x2="16.5553" y2="34.8988" gradientUnits="userSpaceOnUse">
<stop stop-color="#F4853B"/>
<stop offset="1" stop-color="#3448F5"/>
</linearGradient>
</defs>
</svg>
