<svg width="43" height="43" viewBox="0 0 43 43" fill="none" xmlns="http://www.w3.org/2000/svg">
<path d="M16.8633 29.349H6.4878C5.01461 29.349 3.82031 28.157 3.82031 26.6867V12.6896C3.82031 11.2193 5.01461 10.0273 6.4878 10.0273H20.5122C21.9854 10.0273 23.1797 11.2193 23.1797 12.6896V15.7808" stroke="url(#paint0_linear_6704_9746)" stroke-width="1.5" stroke-miterlimit="10" stroke-linecap="round" stroke-linejoin="round"/>
<path d="M14.1562 7.75353V5.40448C14.1562 3.93415 15.3505 2.74219 16.8237 2.74219H30.8481C32.3213 2.74219 33.5156 3.93415 33.5156 5.40448V15.7822" stroke="url(#paint1_linear_6704_9746)" stroke-width="1.5" stroke-miterlimit="10" stroke-linecap="round" stroke-linejoin="round"/>
<path d="M35.852 18.0508H21.8276C20.3544 18.0508 19.1602 19.2427 19.1602 20.7131V34.7101C19.1602 36.1805 20.3544 37.3724 21.8276 37.3724H23.5898V40.8929L27.6094 37.3724H35.852C37.3252 37.3724 38.5195 36.1805 38.5195 34.7101V20.7131C38.5195 19.2427 37.3252 18.0508 35.852 18.0508Z" stroke="url(#paint2_linear_6704_9746)" stroke-width="1.5" stroke-miterlimit="10" stroke-linecap="round" stroke-linejoin="round"/>
<path d="M7.53125 15.9453H19.415" stroke="url(#paint3_linear_6704_9746)" stroke-width="1.5" stroke-miterlimit="10" stroke-linecap="round" stroke-linejoin="round"/>
<path d="M13.4727 13.6641V15.9449" stroke="url(#paint4_linear_6704_9746)" stroke-width="1.5" stroke-miterlimit="10" stroke-linecap="round" stroke-linejoin="round"/>
<path d="M16.903 16.1719C16.903 16.1719 15.9888 22.5583 8.06641 25.5994" stroke="url(#paint5_linear_6704_9746)" stroke-width="1.5" stroke-miterlimit="10" stroke-linecap="round" stroke-linejoin="round"/>
<path d="M10.9609 19.3672C12.1798 21.344 14.7698 24.081 18.731 25.6015" stroke="url(#paint6_linear_6704_9746)" stroke-width="1.5" stroke-miterlimit="10" stroke-linecap="round" stroke-linejoin="round"/>
<path d="M24.625 32.8742L28.8318 22.5391L33.0386 32.8742" stroke="url(#paint7_linear_6704_9746)" stroke-width="1.5" stroke-miterlimit="10" stroke-linecap="round" stroke-linejoin="round"/>
<path d="M25.9922 29.5156H31.5676" stroke="url(#paint8_linear_6704_9746)" stroke-width="1.5" stroke-miterlimit="10" stroke-linecap="round" stroke-linejoin="round"/>
<path d="M19.1602 6.91797H26.3789C27.4662 6.91797 28.3477 7.79768 28.3477 8.88288V14.9414" stroke="url(#paint9_linear_6704_9746)" stroke-width="1.5" stroke-miterlimit="10" stroke-linecap="round" stroke-linejoin="round"/>
<defs>
<linearGradient id="paint0_linear_6704_9746" x1="13.5" y1="10.0273" x2="13.5" y2="32.7149" gradientUnits="userSpaceOnUse">
<stop stop-color="#F4853B"/>
<stop offset="1" stop-color="#3448F5"/>
</linearGradient>
<linearGradient id="paint1_linear_6704_9746" x1="23.8359" y1="2.74219" x2="23.8359" y2="18.0538" gradientUnits="userSpaceOnUse">
<stop stop-color="#F4853B"/>
<stop offset="1" stop-color="#3448F5"/>
</linearGradient>
<linearGradient id="paint2_linear_6704_9746" x1="28.8398" y1="18.0508" x2="28.8398" y2="44.8721" gradientUnits="userSpaceOnUse">
<stop stop-color="#F4853B"/>
<stop offset="1" stop-color="#3448F5"/>
</linearGradient>
<linearGradient id="paint3_linear_6704_9746" x1="13.4731" y1="15.9453" x2="13.4731" y2="17.1195" gradientUnits="userSpaceOnUse">
<stop stop-color="#F4853B"/>
<stop offset="1" stop-color="#3448F5"/>
</linearGradient>
<linearGradient id="paint4_linear_6704_9746" x1="13.9727" y1="13.6641" x2="13.9727" y2="16.3423" gradientUnits="userSpaceOnUse">
<stop stop-color="#F4853B"/>
<stop offset="1" stop-color="#3448F5"/>
</linearGradient>
<linearGradient id="paint5_linear_6704_9746" x1="12.4847" y1="16.1719" x2="12.4847" y2="27.2418" gradientUnits="userSpaceOnUse">
<stop stop-color="#F4853B"/>
<stop offset="1" stop-color="#3448F5"/>
</linearGradient>
<linearGradient id="paint6_linear_6704_9746" x1="14.846" y1="19.3672" x2="14.846" y2="26.6876" gradientUnits="userSpaceOnUse">
<stop stop-color="#F4853B"/>
<stop offset="1" stop-color="#3448F5"/>
</linearGradient>
<linearGradient id="paint7_linear_6704_9746" x1="28.8318" y1="22.5391" x2="28.8318" y2="34.6746" gradientUnits="userSpaceOnUse">
<stop stop-color="#F4853B"/>
<stop offset="1" stop-color="#3448F5"/>
</linearGradient>
<linearGradient id="paint8_linear_6704_9746" x1="28.7799" y1="29.5156" x2="28.7799" y2="30.6898" gradientUnits="userSpaceOnUse">
<stop stop-color="#F4853B"/>
<stop offset="1" stop-color="#3448F5"/>
</linearGradient>
<linearGradient id="paint9_linear_6704_9746" x1="23.7539" y1="6.91797" x2="23.7539" y2="16.3391" gradientUnits="userSpaceOnUse">
<stop stop-color="#F4853B"/>
<stop offset="1" stop-color="#3448F5"/>
</linearGradient>
</defs>
</svg>
