<svg width="43" height="43" viewBox="0 0 43 43" fill="none" xmlns="http://www.w3.org/2000/svg">
<path d="M38.4521 17.2169C37.8687 17.2169 37.3594 16.8462 37.1553 16.2733C36.9689 15.7483 36.7543 15.2278 36.5155 14.7265C36.2543 14.1752 36.3514 13.5524 36.7642 13.1403C37.2702 12.635 37.5477 11.963 37.5477 11.2477C37.5477 10.5324 37.2695 9.86037 36.7642 9.35506L33.9613 6.55222C33.4554 6.04625 32.7834 5.768 32.0687 5.76866C31.3534 5.76866 30.6821 6.04691 30.1761 6.55222C29.764 6.96434 29.1412 7.06278 28.5899 6.80094C28.0892 6.56403 27.5688 6.34878 27.0438 6.16109C26.4702 5.957 26.0995 5.44775 26.0995 4.86369C26.0995 3.38778 24.8992 2.1875 23.4233 2.1875H19.4602C17.9843 2.1875 16.784 3.38844 16.784 4.865C16.784 5.43922 16.4047 5.96028 15.8403 6.16175C15.3147 6.34878 14.7949 6.56403 14.2935 6.80159C13.7423 7.06278 13.1195 6.965 12.7074 6.55288C12.2014 6.04691 11.5301 5.76931 10.8147 5.76931C10.0994 5.76931 9.42809 6.04756 8.92213 6.55288L6.11928 9.35572C5.61331 9.86103 5.33572 10.533 5.33572 11.2483C5.33572 11.9637 5.61397 12.6357 6.11928 13.141C6.53206 13.5531 6.62919 14.1759 6.368 14.7271C6.12978 15.2292 5.91519 15.7496 5.72816 16.2733C5.52406 16.8468 5.01481 17.2176 4.43009 17.2176C2.95419 17.2176 1.75391 18.4185 1.75391 19.8944V23.8575C1.75391 25.3334 2.95484 26.5344 4.43141 26.5344C5.01481 26.5344 5.52406 26.9052 5.72816 27.4781C5.91191 27.9958 6.1265 28.5163 6.368 29.0255C6.62919 29.5761 6.53206 30.1989 6.11928 30.6117C5.07584 31.6551 5.07584 33.3528 6.11928 34.3963L8.92213 37.1991C9.42809 37.7051 10.0994 37.9827 10.8147 37.9827C11.5301 37.9827 12.2014 37.7044 12.7074 37.1991C13.1195 36.787 13.7423 36.6885 14.2935 36.9504C14.7942 37.1873 15.3147 37.4025 15.8397 37.5902C16.4132 37.7943 16.784 38.3036 16.784 38.8876C16.784 40.3635 17.9843 41.5638 19.4602 41.5638H23.4233C24.8992 41.5638 26.0995 40.3629 26.0995 38.8863C26.0995 38.3121 26.4788 37.791 27.0432 37.5896C27.5688 37.4025 28.0886 37.1873 28.5899 36.9497C29.1392 36.6892 29.7633 36.7857 30.1761 37.1984C30.6821 37.7044 31.3534 37.982 32.0687 37.982C32.784 37.982 33.4554 37.7038 33.9613 37.1984L36.7642 34.3956C37.8076 33.3522 37.8076 31.6544 36.7642 30.6103C36.3514 30.1982 36.2543 29.5754 36.5161 29.0235C36.7563 28.5156 36.9709 27.9952 37.1553 27.4781C37.3594 26.9045 37.8687 26.5337 38.4534 26.5337C39.9293 26.5337 41.1296 25.3328 41.1296 23.8569V19.8938C41.1296 18.4179 39.9286 17.2169 38.4521 17.2169ZM39.8171 23.8569C39.8171 24.6089 39.2041 25.2212 38.4521 25.2212C37.324 25.2212 36.3055 25.951 35.9189 27.0384C35.7496 27.5148 35.5514 27.9939 35.3309 28.4611C34.8355 29.5039 35.0396 30.7409 35.8369 31.5383C36.0948 31.7962 36.2359 32.1388 36.2359 32.5023C36.2359 32.8659 36.0942 33.2091 35.8369 33.467L33.0341 36.2698C32.5189 36.785 31.6205 36.7857 31.1053 36.2698C30.3067 35.4732 29.0723 35.2704 28.0288 35.7639C27.5675 35.9831 27.0878 36.1813 26.6048 36.3532C25.518 36.7397 24.7876 37.7582 24.7876 38.887C24.7876 39.639 24.1753 40.2507 23.4239 40.2507H19.4608C18.7088 40.2507 18.0972 39.6384 18.0972 38.8857C18.0972 37.7569 17.3667 36.7391 16.28 36.3532C15.7963 36.1806 15.3166 35.9824 14.8559 35.7639C14.4766 35.5841 14.0711 35.4961 13.6708 35.4961C12.9712 35.4961 12.2867 35.7632 11.7788 36.2698C11.2636 36.785 10.3652 36.785 9.85006 36.2698L7.04722 33.467C6.78931 33.2091 6.64822 32.8665 6.64822 32.5023C6.64822 32.1381 6.78997 31.7955 7.04722 31.5383C7.84522 30.7403 8.04866 29.5039 7.55384 28.4618C7.33203 27.9932 7.13384 27.5142 6.96519 27.0371C6.578 25.9503 5.5595 25.2206 4.43075 25.2206C3.67869 25.2206 3.06706 24.6083 3.06706 23.8562V19.8931C3.06706 19.1411 3.68 18.5288 4.43206 18.5288C5.56016 18.5288 6.57866 17.799 6.96519 16.7116C7.13712 16.2286 7.334 15.7496 7.55319 15.2882C8.04866 14.2454 7.84456 13.0084 7.04722 12.2117C6.78931 11.9538 6.64822 11.6112 6.64822 11.247C6.64822 10.8828 6.78997 10.5402 7.04722 10.2823L9.85006 7.4795C10.108 7.22159 10.4499 7.0805 10.8147 7.0805C11.1796 7.0805 11.5215 7.22225 11.7794 7.48016C12.5787 8.2775 13.8151 8.48028 14.8559 7.98613C15.3173 7.76694 15.797 7.56875 16.28 7.39681C17.3667 7.01028 18.0972 5.99178 18.0972 4.86303C18.0972 4.11097 18.7094 3.49934 19.4608 3.49934H23.4239C24.176 3.49934 24.7876 4.11163 24.7876 4.86434C24.7876 5.99309 25.518 7.01094 26.6048 7.39681C27.0884 7.56941 27.5682 7.76759 28.0288 7.98613C29.0723 8.48094 30.308 8.27684 31.1053 7.4795C31.6205 6.96434 32.5189 6.96434 33.0341 7.4795L35.8369 10.2823C36.0948 10.5402 36.2359 10.8828 36.2359 11.247C36.2359 11.6112 36.0942 11.9538 35.8369 12.2111C35.0389 13.0084 34.8355 14.2454 35.3309 15.2882C35.5501 15.7496 35.7477 16.2286 35.9189 16.7123C36.3061 17.799 37.3246 18.5288 38.4534 18.5288C39.2054 18.5288 39.8171 19.1411 39.8171 19.8931V23.8569Z" fill="url(#paint0_linear_6704_9773)"/>
<path d="M30.6885 17.6103L25.111 16.8018L22.6146 11.7447C22.3928 11.2945 21.9439 11.0156 21.4419 11.0156C20.9399 11.0156 20.491 11.2952 20.2692 11.7447L17.7761 16.7998L12.1953 17.6103C11.6985 17.6825 11.2936 18.0237 11.1388 18.5008C10.9845 18.9779 11.1112 19.4917 11.4702 19.8415L15.5074 23.7744L14.5539 29.3329C14.4692 29.8277 14.6687 30.3179 15.075 30.6126C15.4805 30.9072 16.0088 30.9446 16.4531 30.7117L21.4399 28.0873L26.432 30.7117C26.625 30.8134 26.8336 30.8633 27.0423 30.8633C27.312 30.8633 27.5805 30.7786 27.8095 30.6126C28.2157 30.3179 28.4152 29.8277 28.3306 29.3322L27.3764 23.7777L31.4143 19.8415C31.7732 19.4911 31.8999 18.9779 31.7457 18.5008C31.5908 18.0237 31.1846 17.6825 30.6885 17.6103ZM26.4596 22.8386C26.1518 23.1385 26.0107 23.571 26.0836 23.9963L27.043 29.5501L22.0515 26.9258C21.6709 26.7243 21.2148 26.7249 20.8342 26.9258L15.848 29.554L16.8022 23.9949C16.8737 23.571 16.7333 23.1379 16.4255 22.838L12.385 18.9083L17.9664 18.0972C18.393 18.0349 18.7611 17.7671 18.9508 17.3812L21.4373 12.3209L21.4393 12.3242L23.935 17.3812C24.1253 17.7671 24.4935 18.0349 24.9207 18.0979L30.4988 18.9018L26.4609 22.8386H26.4596Z" fill="url(#paint1_linear_6704_9773)"/>
<defs>
<linearGradient id="paint0_linear_6704_9773" x1="21.4417" y1="2.1875" x2="21.4417" y2="48.4233" gradientUnits="userSpaceOnUse">
<stop stop-color="#F4853B"/>
<stop offset="1" stop-color="#3448F5"/>
</linearGradient>
<linearGradient id="paint1_linear_6704_9773" x1="21.4422" y1="11.0156" x2="21.4422" y2="34.3208" gradientUnits="userSpaceOnUse">
<stop stop-color="#F4853B"/>
<stop offset="1" stop-color="#3448F5"/>
</linearGradient>
</defs>
</svg>
