<svg width="43" height="43" viewBox="0 0 43 43" fill="none" xmlns="http://www.w3.org/2000/svg">
<g clip-path="url(#clip0_6704_9805)">
<path d="M41.3348 18.8792L37.0003 17.2009C36.6853 16.1541 36.2653 15.1402 35.7477 14.1788L37.6278 9.92551C37.7238 9.70813 37.6762 9.45465 37.5089 9.2873L34.0299 5.80836C33.8626 5.64102 33.6083 5.59344 33.3917 5.68941L29.1359 7.56957C28.1762 7.05195 27.1623 6.63195 26.1131 6.31695L24.4347 1.97996C24.3494 1.75848 24.1361 1.61328 23.8991 1.61328H18.9813C18.7442 1.61328 18.5309 1.7593 18.4456 1.97996L16.7673 6.31695C15.7205 6.63195 14.7066 7.05195 13.7452 7.56957L9.49191 5.68941C9.27453 5.59344 9.02106 5.64102 8.85371 5.80836L5.37477 9.2873C5.20742 9.45465 5.15984 9.70895 5.25582 9.92551L7.13598 14.1788C6.61836 15.1402 6.19836 16.1541 5.88336 17.2009L1.54637 18.8792C1.32488 18.9645 1.17969 19.1778 1.17969 19.4149V24.3327C1.17969 24.5697 1.3257 24.783 1.54637 24.8683L5.88336 26.5467C6.19836 27.595 6.61836 28.6098 7.13598 29.5695L5.25582 33.8253C5.15984 34.0419 5.20742 34.2962 5.37477 34.4635L8.85371 37.9425C9.02106 38.1098 9.27535 38.1574 9.49191 38.0614L13.7452 36.1813C14.7066 36.6989 15.7205 37.1189 16.7673 37.4339L18.4456 41.7684C18.5309 41.9899 18.7442 42.1351 18.9813 42.1351H23.8991C24.1361 42.1351 24.3494 41.9891 24.4347 41.7684L26.1131 37.4339C27.1582 37.1197 28.1721 36.6989 29.1359 36.1788L33.3917 38.0614C33.6091 38.1574 33.8626 38.1098 34.0299 37.9425L37.5089 34.4635C37.6762 34.2962 37.7238 34.0419 37.6278 33.8253L35.7477 29.5695C36.2653 28.6098 36.6853 27.5959 37.0003 26.5467L41.3348 24.8683C41.5563 24.783 41.7015 24.5697 41.7015 24.3327V19.4149C41.7015 19.1778 41.5555 18.9645 41.3348 18.8792ZM40.553 23.9397L36.3202 25.5787C36.1513 25.6443 36.0233 25.7846 35.9749 25.9593C35.6509 27.1119 35.1907 28.2226 34.6066 29.2603C34.518 29.4178 34.5082 29.6089 34.582 29.7738L36.4179 33.9295L33.4959 36.8514L29.3402 35.0131C29.1745 34.9401 28.9842 34.9491 28.8259 35.0377C27.7824 35.6251 26.6717 36.0861 25.5249 36.4085C25.351 36.4577 25.2099 36.5857 25.1443 36.7538L23.5053 40.9866H19.3742L17.7352 36.7538C17.6696 36.5857 17.5293 36.4569 17.3554 36.4085C16.2045 36.0845 15.0938 35.6243 14.0537 35.0402C13.8962 34.9516 13.7059 34.9426 13.5402 35.0156L9.38691 36.8514L6.46496 33.9295L8.30082 29.7738C8.37383 29.6081 8.3648 29.4178 8.27621 29.2603C7.69215 28.2226 7.23195 27.1119 6.90793 25.9593C6.85871 25.7854 6.73074 25.6443 6.56258 25.5787L2.32813 23.9397V19.8086L6.56258 18.1697C6.73156 18.1048 6.85953 17.9638 6.90793 17.7898C7.23195 16.6389 7.69215 15.5282 8.27621 14.4881C8.3648 14.3306 8.37383 14.1403 8.30082 13.9746L6.46496 9.82133L9.38691 6.89937L13.5402 8.73524C13.7059 8.80824 13.8962 8.79922 14.0537 8.71063C15.0938 8.12656 16.2045 7.66555 17.3554 7.34234C17.5293 7.29313 17.6704 7.16516 17.7352 6.99699L19.3742 2.76254H23.5053L25.1443 6.99699C25.2099 7.16598 25.3502 7.29395 25.5249 7.34234C26.6775 7.66637 27.7882 8.12656 28.8259 8.71063C28.9834 8.79922 29.1745 8.80906 29.3394 8.73524L33.4951 6.89937L36.417 9.82133L34.5812 13.9746C34.5082 14.1403 34.5172 14.3306 34.6058 14.4881C35.1898 15.5282 35.6509 16.6389 35.9741 17.7898C36.0233 17.9638 36.1513 18.1048 36.3194 18.1697L40.5522 19.8086V23.9397H40.553ZM33.8609 19.2549H32.2129C31.7355 17.2813 30.7282 15.4848 29.2787 14.0361C27.8292 12.5874 26.0335 11.5793 24.0598 11.1018V9.45383C24.0598 9.17164 23.8548 8.93129 23.5767 8.88699C22.8655 8.77297 22.1477 8.71473 21.4414 8.71473C20.7351 8.71473 20.0149 8.77297 19.3037 8.88699C19.0256 8.93211 18.8205 9.17246 18.8205 9.45383V11.1018C16.8468 11.5793 15.0504 12.5866 13.6017 14.0361C12.153 15.4856 11.1448 17.2813 10.6674 19.2549H9.01941C8.73723 19.2549 8.49688 19.46 8.45258 19.7381C8.33855 20.4493 8.28031 21.1687 8.28031 21.8758C8.28031 22.5829 8.33855 23.2999 8.45258 24.0111C8.4977 24.2892 8.73805 24.4943 9.01941 24.4943H10.6674C11.1448 26.4679 12.1522 28.2644 13.6017 29.7131C15.0512 31.1618 16.8468 32.1699 18.8205 32.6473V34.2954C18.8205 34.5767 19.0239 34.8162 19.302 34.8622C20.0091 34.9787 20.7286 35.0369 21.4414 35.0369C22.1543 35.0369 22.8712 34.9779 23.5783 34.8622C23.8556 34.8162 24.0598 34.5767 24.0598 34.2954V32.6473C26.0335 32.1699 27.83 31.1626 29.2787 29.7131C30.7273 28.2636 31.7355 26.4679 32.2129 24.4943H33.8609C34.1423 24.4943 34.3818 24.2908 34.4278 24.0127C34.5443 23.3064 34.6025 22.587 34.6025 21.8758C34.6025 21.1646 34.5434 20.4427 34.4278 19.7364C34.3818 19.4592 34.1423 19.2549 33.8609 19.2549ZM19.9698 15.5693V9.95258C20.9517 9.83363 21.927 9.83363 22.9114 9.95258V15.5693C22.9114 15.8867 23.1682 16.1435 23.4856 16.1435H24.1452L21.4414 18.8472L18.7377 16.1435H19.3947C19.7122 16.1435 19.9689 15.8867 19.9689 15.5693H19.9698ZM9.42875 21.8758C9.42875 21.3894 9.4591 20.8955 9.51816 20.4042H15.1348C15.4523 20.4042 15.7091 20.1474 15.7091 19.83V19.1704L18.4128 21.8758L15.7091 24.5796V23.92C15.7091 23.6026 15.4523 23.3458 15.1348 23.3458H9.51816C9.45828 22.8545 9.42875 22.3614 9.42875 21.8766V21.8758ZM22.9106 28.1824V33.7982C21.932 33.9188 20.9459 33.9188 19.9689 33.7982V28.1824C19.9689 27.8649 19.7122 27.6082 19.3947 27.6082H18.7368L21.4406 24.9028L24.1443 27.6082H23.484C23.1665 27.6082 22.9098 27.8649 22.9098 28.1824H22.9106ZM24.059 31.462V28.7566H25.5307C25.7628 28.7566 25.972 28.6163 26.0614 28.4022C26.15 28.1873 26.1016 27.9404 25.9367 27.7763L21.8466 23.6838C21.7392 23.5763 21.5932 23.5156 21.4406 23.5156C21.288 23.5156 21.142 23.5763 21.0345 23.6838L16.9445 27.7763C16.7804 27.9404 16.7312 28.1873 16.8198 28.4022C16.9084 28.6171 17.1184 28.7566 17.3505 28.7566H18.8205V31.462C15.4154 30.54 12.7748 27.8994 11.8528 24.4943H14.5606V25.9659C14.5606 26.198 14.7009 26.4072 14.915 26.4966C14.9864 26.5262 15.061 26.5401 15.1348 26.5401C15.2841 26.5401 15.431 26.4819 15.5409 26.372L19.631 22.2819C19.8549 22.0579 19.8549 21.6937 19.631 21.4698L15.5409 17.3772C15.3768 17.2132 15.1299 17.1639 14.915 17.2525C14.7001 17.3411 14.5606 17.5511 14.5606 17.7833V19.2549H11.8528C12.7748 15.8498 15.4154 13.2092 18.8205 12.2872V14.995H17.3505C17.1184 14.995 16.9092 15.1353 16.8198 15.3494C16.7304 15.5635 16.7804 15.8113 16.9445 15.9753L21.0345 20.0654C21.1469 20.1778 21.2938 20.2336 21.4406 20.2336C21.5874 20.2336 21.7343 20.1778 21.8466 20.0654L25.9367 15.9753C26.1008 15.8113 26.15 15.5643 26.0614 15.3494C25.9728 15.1345 25.7628 14.995 25.5307 14.995H24.059V12.2872C27.4641 13.2092 30.1047 15.8498 31.0268 19.2549H28.3214V17.7833C28.3214 17.5511 28.1811 17.342 27.967 17.2525C27.7521 17.1639 27.5052 17.2132 27.3411 17.3772L23.2486 21.4698C23.1411 21.5772 23.0804 21.7232 23.0804 21.8758C23.0804 22.0284 23.1411 22.1744 23.2486 22.2819L27.3411 26.372C27.451 26.4819 27.5979 26.5401 27.7472 26.5401C27.821 26.5401 27.8956 26.5262 27.967 26.4966C28.1819 26.408 28.3214 26.198 28.3214 25.9659V24.4943H31.0268C30.1047 27.8994 27.4641 30.54 24.059 31.462ZM33.3622 23.3458H27.7463C27.4289 23.3458 27.1721 23.6026 27.1721 23.92V24.5804L24.4667 21.8758L27.1721 19.1696V19.8291C27.1721 20.1466 27.4289 20.4034 27.7463 20.4034H33.3622C33.4221 20.8923 33.4524 21.3853 33.4524 21.875C33.4524 22.3647 33.4221 22.8561 33.3622 23.3442V23.3458Z" fill="url(#paint0_linear_6704_9805)"/>
</g>
<defs>
<linearGradient id="paint0_linear_6704_9805" x1="21.4406" y1="1.61328" x2="21.4406" y2="49.1941" gradientUnits="userSpaceOnUse">
<stop stop-color="#F4853B"/>
<stop offset="1" stop-color="#3448F5"/>
</linearGradient>
<clipPath id="clip0_6704_9805">
<rect width="42" height="42" fill="white" transform="translate(0.441406 0.875)"/>
</clipPath>
</defs>
</svg>
