<svg width="43" height="43" viewBox="0 0 43 43" fill="none" xmlns="http://www.w3.org/2000/svg">
<path fill-rule="evenodd" clip-rule="evenodd" d="M21.5543 22.0469C21.7421 22.0469 21.925 22.1063 22.0769 22.2166C22.2288 22.3269 22.342 22.4825 22.4001 22.661C22.4583 22.8395 22.4584 23.0318 22.4006 23.2105C22.3428 23.3891 22.23 23.5448 22.0782 23.6554V24.3445C22.0791 24.4139 22.0662 24.4827 22.0403 24.547C22.0143 24.6114 21.9759 24.6699 21.9271 24.7193C21.8784 24.7686 21.8203 24.8078 21.7563 24.8346C21.6923 24.8613 21.6236 24.8751 21.5543 24.8751C21.4849 24.8751 21.4162 24.8613 21.3522 24.8346C21.2882 24.8078 21.2302 24.7686 21.1814 24.7193C21.1327 24.6699 21.0942 24.6114 21.0683 24.547C21.0423 24.4827 21.0294 24.4139 21.0303 24.3445V23.6554C20.8786 23.5448 20.7657 23.3891 20.7079 23.2105C20.6501 23.0318 20.6503 22.8395 20.7084 22.661C20.7666 22.4824 20.8797 22.3269 21.0317 22.2166C21.1836 22.1063 21.3666 22.0469 21.5543 22.0469ZM18.5892 19.0861H18.2037C17.6319 19.0874 17.0839 19.3152 16.6796 19.7195C16.2753 20.1238 16.0476 20.6717 16.0462 21.2435V25.2646C16.0476 25.8364 16.2753 26.3844 16.6796 26.7887C17.0839 27.193 17.6319 27.4207 18.2037 27.4221H24.9056C25.4774 27.4207 26.0253 27.193 26.4296 26.7887C26.8339 26.3844 27.0617 25.8364 27.063 25.2646V21.2435C27.0617 20.6717 26.8339 20.1238 26.4296 19.7195C26.0253 19.3152 25.4774 19.0874 24.9056 19.0861H24.5201V18.2406C24.5201 16.8073 23.3999 15.5781 21.9695 15.5781H21.1397C19.7095 15.5781 18.5892 16.8072 18.5892 18.2406V19.0861ZM23.4715 19.0861H19.6372V18.2406C19.6372 17.3771 20.2892 16.626 21.1397 16.626H21.9688C22.8194 16.626 23.4715 17.3772 23.4715 18.2406V19.0861ZM24.9051 20.134H18.2032C17.9092 20.1352 17.6277 20.2525 17.4198 20.4604C17.212 20.6682 17.0947 20.9498 17.0935 21.2437V25.2649C17.0947 25.5588 17.212 25.8404 17.4198 26.0482C17.6277 26.2561 17.9092 26.3734 18.2032 26.3746H24.9051C25.1991 26.3734 25.4806 26.2561 25.6884 26.0482C25.8963 25.8404 26.0136 25.5588 26.0148 25.2649V21.2437C26.0136 20.9498 25.8963 20.6682 25.6884 20.4604C25.4806 20.2525 25.1991 20.1352 24.9051 20.134ZM21.4117 35.4136C21.501 35.4391 21.5955 35.4401 21.6853 35.4167C28.2221 33.712 32.6818 27.7146 32.6818 21.1167V14.018H32.6794C32.6793 13.9047 32.6424 13.7944 32.5741 13.704C32.5059 13.6135 32.41 13.5477 32.3011 13.5165L21.7053 10.463C21.6095 10.4339 21.5073 10.4331 21.411 10.4608L10.8559 13.5026C10.7354 13.5248 10.6265 13.5886 10.5482 13.6827C10.4698 13.7769 10.4269 13.8955 10.4269 14.018V21.1167C10.4269 27.7134 14.8716 33.6921 21.4117 35.4136ZM14.3512 29.5301C16.1568 31.8895 18.6876 33.5902 21.5543 34.3705C24.421 33.5902 26.9518 31.8895 28.7573 29.5301C30.6143 27.1178 31.6252 24.161 31.6338 21.1167V14.4098L21.5543 11.505L11.4748 14.4098V21.1167C11.4834 24.161 12.4943 27.1178 14.3512 29.5301ZM36.952 6.47736C37.2963 6.82185 37.5375 7.25571 37.6484 7.72999C37.7593 8.20428 37.7355 8.70011 37.5796 9.16157C37.4237 9.62302 37.1419 10.0317 36.7661 10.3416C36.3903 10.6514 35.9354 10.8501 35.4527 10.9152C34.97 10.9803 34.4787 10.9092 34.0342 10.7099C33.5898 10.5106 33.2099 10.1911 32.9373 9.78745C32.6648 9.38376 32.5105 8.91194 32.4918 8.42522C32.4731 7.93851 32.5908 7.45625 32.8316 7.03287C30.0391 4.91193 26.7053 3.62107 23.2126 3.30837C19.7199 2.99566 16.2098 3.67378 13.0849 5.26493C12.9618 5.32643 12.8195 5.33684 12.6888 5.29389C12.5581 5.25094 12.4496 5.15812 12.387 5.03561C12.3244 4.91311 12.3127 4.77084 12.3545 4.63976C12.3963 4.50867 12.4881 4.39939 12.61 4.33568C15.9205 2.64774 19.6411 1.93124 23.3416 2.269C27.0422 2.60677 30.5716 3.98501 33.5218 6.24439C34.025 5.86185 34.6499 5.67466 35.2806 5.71749C35.9113 5.76033 36.5051 6.03028 36.952 6.47736ZM36.2112 7.21826C35.2282 6.2352 33.5382 6.93353 33.5382 8.32568C33.5382 9.71783 35.228 10.4157 36.2112 9.4331C36.5048 9.13944 36.6697 8.74118 36.6697 8.32593C36.6697 7.91067 36.5048 7.51242 36.2112 7.21875V7.21826ZM6.15705 6.47736C6.50154 6.13302 6.9354 5.8918 7.40968 5.78091C7.88397 5.67002 8.37981 5.69387 8.84126 5.84976C9.30271 6.00566 9.71142 6.28741 10.0213 6.66322C10.3311 7.03903 10.5298 7.49395 10.5949 7.97666C10.66 8.45936 10.5889 8.95066 10.3896 9.39511C10.1903 9.83956 9.87083 10.2195 9.46714 10.492C9.06345 10.7646 8.59163 10.9189 8.10492 10.9375C7.6182 10.9562 7.13595 10.8385 6.71256 10.5977C4.59172 13.3902 3.30091 16.7239 2.98821 20.2165C2.67551 23.7091 3.35357 27.2191 4.94462 30.3439C4.97654 30.405 4.99604 30.4718 5.00199 30.5405C5.00795 30.6091 5.00024 30.6783 4.97932 30.744C4.95839 30.8096 4.92467 30.8705 4.88009 30.9231C4.83551 30.9756 4.78096 31.0188 4.71959 31.0502C4.65822 31.0816 4.59124 31.1005 4.52253 31.1058C4.45382 31.1111 4.38473 31.1028 4.31925 31.0813C4.25378 31.0598 4.19321 31.0255 4.14105 30.9805C4.0889 30.9354 4.04618 30.8805 4.01537 30.8188C2.32743 27.5084 1.61092 23.7878 1.94869 20.0872C2.28646 16.3867 3.6647 12.8573 5.92408 9.90716C5.54165 9.40393 5.35453 8.77917 5.39736 8.14857C5.4402 7.51797 5.71008 6.92425 6.15705 6.47736ZM6.89795 7.21818C5.91489 8.20116 6.61322 9.89117 8.00537 9.89117C9.39753 9.89117 10.0954 8.20132 9.1128 7.21818C8.81913 6.92459 8.42088 6.75965 8.00562 6.75965C7.59036 6.75965 7.19211 6.92459 6.89844 7.21818H6.89795ZM6.15705 37.2724C5.81272 36.9279 5.57151 36.494 5.46062 36.0197C5.34973 35.5455 5.37358 35.0496 5.52948 34.5882C5.68537 34.1267 5.96711 33.718 6.34292 33.4082C6.71872 33.0983 7.17363 32.8997 7.65633 32.8346C8.13903 32.7695 8.63031 32.8406 9.07476 33.0398C9.51921 33.2391 9.89914 33.5586 10.1717 33.9622C10.4442 34.3659 10.5986 34.8377 10.6173 35.3244C10.6359 35.8111 10.5183 36.2934 10.2775 36.7168C13.07 38.8377 16.4038 40.1285 19.8965 40.4411C23.3892 40.7538 26.8992 40.0756 30.024 38.4843C30.1471 38.4228 30.2895 38.4124 30.4202 38.4553C30.5509 38.4983 30.6593 38.5911 30.7219 38.7136C30.7845 38.8361 30.7962 38.9784 30.7545 39.1095C30.7127 39.2406 30.6209 39.3498 30.4989 39.4136C27.1884 41.1016 23.4678 41.8182 19.7672 41.4804C16.0665 41.1426 12.5371 39.7643 9.58694 37.5049C9.08375 37.8873 8.45901 38.0746 7.8284 38.0318C7.19778 37.9891 6.60402 37.7193 6.15705 37.2724ZM6.89787 36.5315C7.88093 37.5145 9.57086 36.816 9.57086 35.424C9.57086 34.0321 7.88102 33.3339 6.89787 34.3166C6.75243 34.4621 6.63707 34.6347 6.55835 34.8247C6.47964 35.0147 6.43913 35.2184 6.43913 35.424C6.43913 35.6297 6.47964 35.8334 6.55835 36.0234C6.63707 36.2134 6.75243 36.386 6.89787 36.5315ZM36.9524 37.2724C36.6079 37.6167 36.174 37.8579 35.6998 37.9688C35.2255 38.0797 34.7296 38.0558 34.2682 37.8999C33.8068 37.744 33.3981 37.4622 33.0882 37.0864C32.7784 36.7106 32.5797 36.2557 32.5146 35.773C32.4495 35.2903 32.5206 34.799 32.7199 34.3546C32.9192 33.9101 33.2387 33.5302 33.6423 33.2577C34.046 32.9851 34.5178 32.8308 35.0045 32.8121C35.4912 32.7935 35.9735 32.9112 36.3969 33.1519C38.5177 30.3593 39.8084 27.0255 40.121 23.5328C40.4335 20.0401 39.7553 16.53 38.164 13.4052C38.1318 13.3441 38.1121 13.2772 38.1059 13.2084C38.0998 13.1396 38.1074 13.0703 38.1283 13.0045C38.1491 12.9386 38.1828 12.8776 38.2275 12.8249C38.2721 12.7722 38.3268 12.7288 38.3883 12.6974C38.4498 12.666 38.5169 12.6471 38.5858 12.6418C38.6546 12.6365 38.7239 12.645 38.7894 12.6666C38.855 12.6883 38.9156 12.7228 38.9678 12.7681C39.0199 12.8134 39.0626 12.8685 39.0933 12.9304C40.7812 16.2409 41.4977 19.9614 41.1599 23.662C40.8222 27.3625 39.4439 30.8919 37.1845 33.842C37.5672 34.3452 37.7544 34.9701 37.7117 35.6008C37.6689 36.2315 37.399 36.8254 36.952 37.2724H36.9524ZM36.2115 36.5315C37.1946 35.5484 36.4961 33.8585 35.1041 33.8585C33.712 33.8585 33.0139 35.5483 33.9966 36.5315C34.2903 36.8251 34.6886 36.99 35.1039 36.99C35.5191 36.99 35.9174 36.8251 36.2111 36.5315H36.2115Z" fill="url(#paint0_linear_6704_9820)"/>
<defs>
<linearGradient id="paint0_linear_6704_9820" x1="21.5543" y1="2.1875" x2="21.5543" y2="48.4211" gradientUnits="userSpaceOnUse">
<stop stop-color="#F4853B"/>
<stop offset="1" stop-color="#3448F5"/>
</linearGradient>
</defs>
</svg>
