<svg width="43" height="43" viewBox="0 0 43 43" fill="none" xmlns="http://www.w3.org/2000/svg">
<path d="M16.8633 29.099H6.4878C5.01461 29.099 3.82031 27.907 3.82031 26.4367V12.4396C3.82031 10.9693 5.01461 9.77734 6.4878 9.77734H20.5122C21.9854 9.77734 23.1797 10.9693 23.1797 12.4396V15.5308" stroke="url(#paint0_linear_6704_9835)" stroke-width="1.5" stroke-miterlimit="10" stroke-linecap="round" stroke-linejoin="round"/>
<path d="M14.1562 7.50353V5.15448C14.1562 3.68415 15.3505 2.49219 16.8237 2.49219H30.8481C32.3213 2.49219 33.5156 3.68415 33.5156 5.15448V15.5322" stroke="url(#paint1_linear_6704_9835)" stroke-width="1.5" stroke-miterlimit="10" stroke-linecap="round" stroke-linejoin="round"/>
<path d="M35.852 17.8008H21.8276C20.3544 17.8008 19.1602 18.9927 19.1602 20.4631V34.4601C19.1602 35.9305 20.3544 37.1224 21.8276 37.1224H23.5898V40.6429L27.6094 37.1224H35.852C37.3252 37.1224 38.5195 35.9305 38.5195 34.4601V20.4631C38.5195 18.9927 37.3252 17.8008 35.852 17.8008Z" stroke="url(#paint2_linear_6704_9835)" stroke-width="1.5" stroke-miterlimit="10" stroke-linecap="round" stroke-linejoin="round"/>
<path d="M7.53125 15.6953H19.415" stroke="url(#paint3_linear_6704_9835)" stroke-width="1.5" stroke-miterlimit="10" stroke-linecap="round" stroke-linejoin="round"/>
<path d="M13.4727 13.4141V15.6949" stroke="url(#paint4_linear_6704_9835)" stroke-width="1.5" stroke-miterlimit="10" stroke-linecap="round" stroke-linejoin="round"/>
<path d="M16.903 15.9219C16.903 15.9219 15.9888 22.3083 8.06641 25.3494" stroke="url(#paint5_linear_6704_9835)" stroke-width="1.5" stroke-miterlimit="10" stroke-linecap="round" stroke-linejoin="round"/>
<path d="M10.9609 19.1172C12.1798 21.094 14.7698 23.831 18.731 25.3515" stroke="url(#paint6_linear_6704_9835)" stroke-width="1.5" stroke-miterlimit="10" stroke-linecap="round" stroke-linejoin="round"/>
<path d="M24.625 32.6242L28.8318 22.2891L33.0386 32.6242" stroke="url(#paint7_linear_6704_9835)" stroke-width="1.5" stroke-miterlimit="10" stroke-linecap="round" stroke-linejoin="round"/>
<path d="M25.9922 29.2656H31.5676" stroke="url(#paint8_linear_6704_9835)" stroke-width="1.5" stroke-miterlimit="10" stroke-linecap="round" stroke-linejoin="round"/>
<path d="M19.1602 6.66797H26.3789C27.4662 6.66797 28.3477 7.54768 28.3477 8.63288V14.6914" stroke="url(#paint9_linear_6704_9835)" stroke-width="1.5" stroke-miterlimit="10" stroke-linecap="round" stroke-linejoin="round"/>
<defs>
<linearGradient id="paint0_linear_6704_9835" x1="13.5" y1="9.77734" x2="13.5" y2="32.4649" gradientUnits="userSpaceOnUse">
<stop stop-color="#F4853B"/>
<stop offset="1" stop-color="#3448F5"/>
</linearGradient>
<linearGradient id="paint1_linear_6704_9835" x1="23.8359" y1="2.49219" x2="23.8359" y2="17.8038" gradientUnits="userSpaceOnUse">
<stop stop-color="#F4853B"/>
<stop offset="1" stop-color="#3448F5"/>
</linearGradient>
<linearGradient id="paint2_linear_6704_9835" x1="28.8398" y1="17.8008" x2="28.8398" y2="44.6221" gradientUnits="userSpaceOnUse">
<stop stop-color="#F4853B"/>
<stop offset="1" stop-color="#3448F5"/>
</linearGradient>
<linearGradient id="paint3_linear_6704_9835" x1="13.4731" y1="15.6953" x2="13.4731" y2="16.8695" gradientUnits="userSpaceOnUse">
<stop stop-color="#F4853B"/>
<stop offset="1" stop-color="#3448F5"/>
</linearGradient>
<linearGradient id="paint4_linear_6704_9835" x1="13.9727" y1="13.4141" x2="13.9727" y2="16.0923" gradientUnits="userSpaceOnUse">
<stop stop-color="#F4853B"/>
<stop offset="1" stop-color="#3448F5"/>
</linearGradient>
<linearGradient id="paint5_linear_6704_9835" x1="12.4847" y1="15.9219" x2="12.4847" y2="26.9918" gradientUnits="userSpaceOnUse">
<stop stop-color="#F4853B"/>
<stop offset="1" stop-color="#3448F5"/>
</linearGradient>
<linearGradient id="paint6_linear_6704_9835" x1="14.846" y1="19.1172" x2="14.846" y2="26.4376" gradientUnits="userSpaceOnUse">
<stop stop-color="#F4853B"/>
<stop offset="1" stop-color="#3448F5"/>
</linearGradient>
<linearGradient id="paint7_linear_6704_9835" x1="28.8318" y1="22.2891" x2="28.8318" y2="34.4246" gradientUnits="userSpaceOnUse">
<stop stop-color="#F4853B"/>
<stop offset="1" stop-color="#3448F5"/>
</linearGradient>
<linearGradient id="paint8_linear_6704_9835" x1="28.7799" y1="29.2656" x2="28.7799" y2="30.4398" gradientUnits="userSpaceOnUse">
<stop stop-color="#F4853B"/>
<stop offset="1" stop-color="#3448F5"/>
</linearGradient>
<linearGradient id="paint9_linear_6704_9835" x1="23.7539" y1="6.66797" x2="23.7539" y2="16.0891" gradientUnits="userSpaceOnUse">
<stop stop-color="#F4853B"/>
<stop offset="1" stop-color="#3448F5"/>
</linearGradient>
</defs>
</svg>
