<svg width="61" height="61" viewBox="0 0 61 61" fill="none" xmlns="http://www.w3.org/2000/svg">
<path d="M44.3809 23.4672C43.9661 23.279 43.4903 23.4955 43.3186 23.9513L41.5022 28.7759L39.6858 23.9513C39.5142 23.4957 39.0386 23.2786 38.6236 23.4672C38.2085 23.6556 38.011 24.1778 38.1827 24.6335L40.7095 31.3449C40.9935 32.0993 42.0211 32.0726 42.295 31.3449L44.8218 24.6335C44.9934 24.1778 44.796 23.6556 44.3809 23.4672ZM49.9416 28.5727C52.2569 27.2367 51.3717 23.3995 48.7835 23.3995H46.7272C46.2781 23.3995 45.9139 23.7992 45.9139 24.2924V31.0683C45.9139 31.5616 46.278 31.9612 46.7272 31.9612C47.1763 31.9612 47.5404 31.5614 47.5404 31.0683V28.8863H48.1809L49.7903 31.5606C50.0378 31.972 50.5424 32.0853 50.9171 31.8133C51.2918 31.5415 51.3949 30.9876 51.1472 30.576L49.9416 28.5727ZM48.7835 27.1006H47.5404V25.1854H48.7835C49.2644 25.1854 49.6556 25.615 49.6556 26.143C49.6556 26.6709 49.2644 27.1006 48.7835 27.1006ZM8.44944 31.2004C8.00033 31.2004 7.63627 31.6002 7.63627 32.0934V33.495C7.63627 33.9883 8.00033 34.388 8.44944 34.388C8.89855 34.388 9.26272 33.9883 9.26272 33.495V32.0934C9.26272 31.6002 8.89855 31.2004 8.44944 31.2004ZM12.4485 21.6106C9.66004 21.6106 7.63616 23.8329 7.63616 26.8948V29.0567C7.63616 29.5499 8.00022 29.9497 8.44933 29.9497C8.89844 29.9497 9.26261 29.5499 9.26261 29.0567V26.8948C9.26261 25.1535 10.2477 23.3966 12.4485 23.3966C12.8977 23.3966 13.2618 22.9969 13.2618 22.5036C13.2618 22.0104 12.8977 21.6106 12.4485 21.6106ZM56.8456 26.3666H56.0249C55.9735 21.9201 52.6652 18.3197 48.6036 18.3197H35.8771V17.4211C35.8771 16.1744 34.9535 15.1602 33.8182 15.1602H26.8481C25.7128 15.1602 24.7892 16.1744 24.7892 17.4211V18.3197H12.0627C8.00123 18.3197 4.69286 21.9202 4.64141 26.3666H3.82065C2.68538 26.3666 1.76172 27.3808 1.76172 28.6275V36.2809C1.76172 37.5275 2.68538 38.5417 3.82076 38.5417H4.64152C4.69286 42.9882 8.00123 46.5887 12.0628 46.5887H24.4028C26.0997 46.5887 27.4801 45.0729 27.4801 43.2098C27.4801 42.2677 28.178 41.5014 29.0359 41.5014H31.6305C32.4884 41.5014 33.1863 42.2678 33.1863 43.2098C33.1863 45.0729 34.5667 46.5887 36.2636 46.5887H48.6036C52.6652 46.5887 55.9735 42.9882 56.0249 38.5417H56.8456C57.9809 38.5417 58.9046 37.5275 58.9046 36.2809V28.6275C58.9046 27.3808 57.9809 26.3666 56.8456 26.3666ZM4.63906 36.7557H3.82076C3.58225 36.7557 3.38817 36.5427 3.38817 36.2808V28.6274C3.38817 28.3655 3.58225 28.1524 3.82076 28.1524H4.63906V36.7557ZM26.4156 17.4211C26.4156 17.1592 26.6097 16.9461 26.8481 16.9461H33.8182C34.0567 16.9461 34.2507 17.1592 34.2507 17.4211V18.3197H26.4156V17.4211ZM54.3866 38.4373C54.3866 41.9386 51.7923 44.7873 48.6036 44.7873H36.2636C35.4714 44.7873 34.8269 44.0795 34.8269 43.2097C34.8269 41.2743 33.393 39.6998 31.6304 39.6998H29.0358C27.2733 39.6998 25.8393 41.2743 25.8393 43.2097C25.8393 44.0795 25.1949 44.7873 24.4026 44.7873H12.0627C8.87399 44.7873 6.27969 41.9386 6.27969 38.4373V26.471C6.27969 22.9697 8.87399 20.121 12.0627 20.121H48.6036C51.7923 20.121 54.3866 22.9697 54.3866 26.471V38.4373ZM57.2781 36.2809C57.2781 36.5428 57.084 36.7558 56.8456 36.7558H56.0273V28.1526H56.8456C57.0841 28.1526 57.2781 28.3657 57.2781 28.6276V36.2809Z" fill="url(#paint0_linear_6704_9633)"/>
<defs>
<linearGradient id="paint0_linear_6704_9633" x1="30.3331" y1="15.1602" x2="30.3331" y2="52.0637" gradientUnits="userSpaceOnUse">
<stop stop-color="#F4853B"/>
<stop offset="1" stop-color="#3448F5"/>
</linearGradient>
</defs>
</svg>
