<svg width="35" height="42" viewBox="0 0 35 42" fill="none" xmlns="http://www.w3.org/2000/svg">
<path d="M25.976 26.806L34.1525 8.47926C34.3645 8.0038 34.1703 7.44566 33.7083 7.20515C30.7391 5.6587 27.57 4.54668 24.2888 3.90027C24.253 3.89338 24.2182 3.89338 24.1828 3.89043L17.9592 0.642977C17.6741 0.494008 17.3338 0.494008 17.0487 0.642977L10.836 3.88452C10.8117 3.88748 10.7877 3.88649 10.7631 3.89141C7.46548 4.53716 4.28135 5.6518 1.29935 7.20515C0.837682 7.44566 0.643104 8.0038 0.855073 8.47926L9.03129 26.8057C3.39673 27.8337 3.39443 29.4947 3.39443 30.0627V37.2814C3.39443 41.1083 16.0597 41.2189 17.5038 41.2189C18.9479 41.2189 31.6132 41.1083 31.6132 37.2814V30.0627C31.6132 29.4953 31.6102 27.8344 25.976 26.806ZM10.9413 7.07718L16.5194 9.98732V16.9544L10.9413 14.0443V7.07718ZM18.4882 9.98732L24.0663 7.07685V14.0439L18.4882 16.9541V9.98732ZM17.5038 2.62616L22.9228 5.45329L17.5038 8.28041L12.0848 5.45329L17.5038 2.62616ZM9.85849 28.6599L10.3704 29.8074C10.5334 30.1736 10.8931 30.3911 11.2698 30.3911C11.4036 30.3911 11.5398 30.3636 11.6704 30.3055C12.1669 30.084 12.3897 29.5019 12.1682 29.0054L3.03546 8.53504C4.94121 7.60907 6.92867 6.87046 8.97256 6.32545V14.6408C8.97256 15.0076 9.17632 15.344 9.50149 15.5136L17.0484 19.4511C17.1911 19.5256 17.3473 19.5627 17.5038 19.5627C17.6603 19.5627 17.8165 19.5256 17.9592 19.4511L25.5061 15.5136C25.8313 15.344 26.0351 15.0076 26.0351 14.6408V6.32512C28.0786 6.8698 30.0661 7.60907 31.9722 8.53504L22.8394 29.0054C22.6176 29.5019 22.8408 30.084 23.3372 30.3055C23.4675 30.3636 23.6036 30.3911 23.7379 30.3911C24.1145 30.3911 24.4742 30.1736 24.6372 29.8074L25.1491 28.6599C28.036 29.1416 29.2408 29.77 29.5759 30.0679C28.8034 30.8272 24.4604 32.0314 17.5038 32.0314C10.5469 32.0314 6.20384 30.8272 5.43209 30.0682C5.7671 29.7696 6.97132 29.1413 9.85849 28.6599ZM27.3476 38.2156V37.6095C27.3476 37.0658 26.9069 36.6252 26.3632 36.6252C25.8195 36.6252 25.3788 37.0658 25.3788 37.6095V38.6408C23.3746 38.9926 20.7194 39.2502 17.5038 39.2502C14.2882 39.2502 11.633 38.9926 9.62881 38.6408V37.6095C9.62881 37.0658 9.18814 36.6252 8.64443 36.6252C8.10073 36.6252 7.66006 37.0658 7.66006 37.6095V38.2156C6.35773 37.8694 5.5699 37.498 5.36318 37.2073V32.2762C8.98043 33.9368 16.4174 34.0002 17.5038 34.0002C18.5902 34.0002 26.0272 33.9368 29.6444 32.2762V37.2073C29.4377 37.498 28.6499 37.8694 27.3476 38.2156Z" fill="url(#paint0_linear_6704_9650)"/>
<path d="M22.3352 35.4303C20.8183 35.571 19.1928 35.6426 17.5042 35.6426C15.8157 35.6426 14.1902 35.571 12.6733 35.4303C12.1348 35.3794 11.6525 35.7777 11.6019 36.3195C11.5517 36.8606 11.9497 37.3403 12.4911 37.3908C14.0684 37.5368 15.755 37.6113 17.5042 37.6113C19.2535 37.6113 20.94 37.5368 22.517 37.3905C23.0584 37.3403 23.4564 36.8606 23.4062 36.3192C23.356 35.7774 22.8681 35.3787 22.3352 35.4303Z" fill="url(#paint1_linear_6704_9650)"/>
<path d="M3.947 22.0756L2.30637 18.7943C2.0629 18.3081 1.4713 18.1109 0.98567 18.3543C0.499717 18.5975 0.302514 19.1888 0.545327 19.675L2.18595 22.9563C2.35855 23.3011 2.7057 23.5003 3.06697 23.5003C3.21495 23.5003 3.36523 23.4668 3.50665 23.3963C3.99261 23.1532 4.18981 22.5619 3.947 22.0756Z" fill="url(#paint2_linear_6704_9650)"/>
<path d="M34.0223 18.354C33.5367 18.1112 32.9451 18.3078 32.7016 18.7941L31.061 22.0753C30.8182 22.5616 31.0151 23.1529 31.5014 23.396C31.6428 23.4666 31.7931 23.5 31.941 23.5C32.302 23.5 32.6495 23.3009 32.8224 22.9557L34.463 19.6744C34.7055 19.1885 34.5083 18.5972 34.0223 18.354Z" fill="url(#paint3_linear_6704_9650)"/>
<defs>
<linearGradient id="paint0_linear_6704_9650" x1="17.5038" y1="0.53125" x2="17.5038" y2="48.3069" gradientUnits="userSpaceOnUse">
<stop stop-color="#F4853B"/>
<stop offset="1" stop-color="#3448F5"/>
</linearGradient>
<linearGradient id="paint1_linear_6704_9650" x1="17.5041" y1="35.4258" x2="17.5041" y2="37.992" gradientUnits="userSpaceOnUse">
<stop stop-color="#F4853B"/>
<stop offset="1" stop-color="#3448F5"/>
</linearGradient>
<linearGradient id="paint2_linear_6704_9650" x1="2.24616" y1="18.25" x2="2.24616" y2="24.4149" gradientUnits="userSpaceOnUse">
<stop stop-color="#F4853B"/>
<stop offset="1" stop-color="#3448F5"/>
</linearGradient>
<linearGradient id="paint3_linear_6704_9650" x1="32.7619" y1="18.25" x2="32.7619" y2="24.4146" gradientUnits="userSpaceOnUse">
<stop stop-color="#F4853B"/>
<stop offset="1" stop-color="#3448F5"/>
</linearGradient>
</defs>
</svg>
