<svg width="60" height="60" viewBox="0 0 60 60" fill="none" xmlns="http://www.w3.org/2000/svg">
<path fill-rule="evenodd" clip-rule="evenodd" d="M47.1704 18.0432C47.1489 18.0608 47.1264 18.08 47.1063 18.0996L44.2871 20.7522C44.1458 20.8849 44.0383 21.0495 43.9735 21.2321C43.9086 21.4148 43.8883 21.6103 43.9143 21.8024L47.1662 45.9785L43.7711 49.3741L37.2916 29.7141C37.2275 29.5194 37.1152 29.3441 36.9653 29.2043C36.8155 29.0645 36.6327 28.9648 36.4341 28.9144C36.2354 28.8639 36.0273 28.8644 35.8289 28.9157C35.6304 28.9671 35.4482 29.0676 35.2989 29.2081L21.6993 42.003C21.5694 42.1255 21.468 42.2749 21.4022 42.4408C21.3364 42.6067 21.3078 42.7851 21.3184 42.9632L21.8416 51.7454L20.0449 52.8839L17.6655 44.6901C17.6084 44.4928 17.5022 44.3133 17.3569 44.1682L15.8314 42.6427C15.6863 42.4975 15.5068 42.3913 15.3097 42.3342L7.11541 39.9552L8.25378 38.1576L17.0368 38.6808C17.215 38.6916 17.3933 38.6631 17.5592 38.5972C17.7251 38.5312 17.8744 38.4296 17.9965 38.2995L30.7917 24.6995C30.9322 24.5502 31.0327 24.368 31.0841 24.1695C31.1354 23.9711 31.1358 23.7629 31.0853 23.5642C31.0348 23.3656 30.9351 23.1828 30.7952 23.033C30.6554 22.8831 30.4801 22.7709 30.2854 22.7068L10.6256 16.2279L14.0207 12.8322L38.1968 16.0857C38.3888 16.1114 38.5842 16.0911 38.7668 16.0262C38.9493 15.9614 39.1138 15.854 39.2465 15.7129L41.8995 12.8928C41.9199 12.8717 41.9383 12.8507 41.9561 12.8281C47.7368 5.74552 50.8986 5.88496 52.9968 7.00233C54.1139 9.10046 54.254 12.2618 47.1704 18.0432ZM50.9098 4H50.809C46.6065 4.01381 42.8101 7.93262 40.0954 11.2536L37.9012 13.5862L29.8862 12.5076L30.6711 11.7233C30.8993 11.4944 31.0275 11.1844 31.0275 10.8613C31.0275 10.5381 30.8993 10.2281 30.6711 9.99927L27.4618 6.79098C27.2333 6.56244 26.9233 6.43405 26.6001 6.43405C26.2769 6.43405 25.9669 6.56244 25.7384 6.79098L21.1919 11.338L13.7485 10.3367C13.5626 10.3115 13.3733 10.3296 13.1956 10.3896C13.0178 10.4496 12.8563 10.5499 12.7237 10.6827L7.50255 15.9047C7.35542 16.0519 7.24843 16.2343 7.19176 16.4345C7.13508 16.6347 7.13063 16.8461 7.17881 17.0486C7.22699 17.251 7.3262 17.4377 7.467 17.591C7.60779 17.7442 7.78548 17.8588 7.98313 17.9239L27.7059 24.4238L16.6123 36.214L7.68129 35.6822C7.46395 35.6692 7.2471 35.7148 7.05332 35.8141C6.85953 35.9133 6.69588 36.0627 6.57938 36.2466L4.18838 40.0213C4.08752 40.1811 4.02514 40.362 4.00617 40.55C3.98719 40.738 4.01214 40.9278 4.07904 41.1044C4.14594 41.2811 4.25297 41.4398 4.39168 41.5681C4.5304 41.6963 4.697 41.7906 4.87837 41.8434L14.3292 44.5875L15.4121 45.6702L18.1561 55.1208C18.2086 55.3024 18.3027 55.4692 18.4309 55.6081C18.559 55.7469 18.7178 55.8541 18.8945 55.921C19.0712 55.988 19.2611 56.0129 19.4491 55.9937C19.6371 55.9746 19.8181 55.912 19.9777 55.8108L23.753 53.42C23.937 53.3035 24.0865 53.1399 24.1858 52.9461C24.2852 52.7523 24.3308 52.5354 24.3179 52.318L23.7855 43.3877L35.5764 32.2947L42.0749 52.0177C42.1402 52.2154 42.255 52.393 42.4084 52.5338C42.5617 52.6745 42.7485 52.7737 42.951 52.8219C43.1535 52.87 43.365 52.8656 43.5653 52.809C43.7656 52.7523 43.948 52.6454 44.0953 52.4983L49.3161 47.2767C49.4488 47.1442 49.5492 46.9827 49.6092 46.805C49.6693 46.6273 49.6876 46.4382 49.6625 46.2523L48.6611 38.8079L53.208 34.2613C53.3213 34.1482 53.4111 34.0138 53.4724 33.8659C53.5337 33.718 53.5652 33.5594 53.5652 33.3993C53.5652 33.2392 53.5337 33.0807 53.4724 32.9328C53.4111 32.7849 53.3213 32.6505 53.208 32.5373L49.9998 29.3292C49.7712 29.1006 49.4613 28.9722 49.1381 28.9722C48.8148 28.9722 48.5049 29.1006 48.2763 29.3292L47.4911 30.1135L46.4139 22.0981L48.7454 19.9044C53.0202 16.4101 58.2859 11.1242 54.9396 5.48563C54.8352 5.31027 54.6886 5.16384 54.5131 5.05968C53.2903 4.33373 52.0846 4.01361 50.9098 4ZM49.1373 31.9143L47.9007 33.1514L48.2519 35.7694L50.6226 33.3991L49.1373 31.9143ZM26.6008 9.3764L24.2303 11.7467L26.8478 12.0989L28.0854 10.8613L26.6008 9.3764Z" fill="url(#paint0_linear_6678_10626)"/>
<defs>
<linearGradient id="paint0_linear_6678_10626" x1="30" y1="4" x2="30" y2="65.0586" gradientUnits="userSpaceOnUse">
<stop stop-color="#F4853B"/>
<stop offset="1" stop-color="#3448F5"/>
</linearGradient>
</defs>
</svg>
