<svg width="60" height="60" viewBox="0 0 60 60" fill="none" xmlns="http://www.w3.org/2000/svg">
<path d="M58.541 40.5109H49.2V32.6547H50.4855C50.85 32.6547 51.1816 32.4437 51.3352 32.1121L54.4078 25.498C54.5426 25.2074 54.5203 24.8687 54.348 24.5992C54.1758 24.3297 53.8781 24.1668 53.5582 24.1668H46.4531V19.4863C46.4531 18.9684 46.0336 18.55 45.5168 18.55C45 18.55 44.5805 18.9695 44.5805 19.4863V24.1668H37.4754C37.1555 24.1668 36.8578 24.3297 36.6855 24.5992C36.5133 24.8687 36.491 25.2074 36.6258 25.498L39.6984 32.1121C39.852 32.4426 40.1836 32.6547 40.548 32.6547H41.8336V40.5109H32.9062V34.8391C34.1379 34.5543 35.059 33.4504 35.059 32.1332C35.059 30.6016 33.8133 29.3559 32.2816 29.3559H2.77734C1.2457 29.3559 0 30.6016 0 32.1332C0 33.4492 0.921094 34.5543 2.15273 34.8391V53.7391C2.15273 54.7844 3.00469 55.6363 4.05234 55.6363H58.541C59.3449 55.6363 59.9988 54.9824 59.9988 54.1785V41.9723C60 41.1672 59.3449 40.5109 58.541 40.5109ZM38.9426 26.0406H52.091L49.8891 30.7809H41.1445L38.9426 26.0406ZM43.7062 32.6547H47.3273V40.5109H43.7062V32.6547ZM25.6887 53.7625V34.9105H31.0336V53.7391C31.0336 53.7484 31.023 53.7625 31.0066 53.7625H25.6887ZM16.5926 34.9105V53.7625H11.2477V34.9105H16.5926ZM18.4664 34.9105H23.8148V53.7625H18.4664V34.9105ZM1.87383 32.1332C1.87383 31.6351 2.2793 31.2297 2.77734 31.2297H32.2816C32.7797 31.2297 33.1852 31.6351 33.1852 32.1332C33.1852 32.6312 32.7797 33.0367 32.2816 33.0367H2.77734C2.2793 33.0367 1.87383 32.6312 1.87383 32.1332ZM4.02656 53.7391V34.9105H9.375V53.7625H4.05352C4.03945 53.7625 4.02656 53.7473 4.02656 53.7391ZM47.9742 53.7625H43.0582V48.6836H47.9742V53.7625ZM58.1262 53.7625H49.848V48.0121C49.848 47.3488 49.309 46.8098 48.6457 46.8098H42.3902C41.7258 46.8098 41.1844 47.3488 41.1844 48.0121V53.7625H32.9051C32.9051 53.7543 32.9062 53.7473 32.9062 53.7391V42.3848H58.1262V53.7625ZM9.52266 22.9773C9.69375 23.2656 10.002 23.4367 10.3277 23.4367C10.3957 23.4367 10.4637 23.4297 10.5316 23.4144L31.1496 18.8172C32.0285 18.6226 32.7504 18.0976 33.1852 17.3406C33.6164 16.5871 33.7031 15.7047 33.4301 14.8551C32.8863 13.1676 31.0324 12.1082 29.2945 12.4949L23.7398 13.7348L14.5488 4.9914C13.9477 4.42421 13.118 4.22851 12.3293 4.4664L10.6687 4.96796C10.3934 5.05116 10.1707 5.25624 10.0664 5.5246C9.96211 5.79296 9.98672 6.09413 10.1344 6.34257L15.5977 15.5488L12.866 16.1582L10.6922 14.5574C9.46172 13.6504 7.97461 13.3961 6.50859 13.8402L5.61445 14.1098C5.33906 14.193 5.11641 14.398 5.01211 14.6664C4.90781 14.9348 4.93242 15.2359 5.07891 15.4844L9.52266 22.9773ZM9.58008 16.0656L12.0984 17.9195C12.3164 18.0801 12.593 18.1387 12.8578 18.0789L17.2664 17.0957C17.5594 17.0301 17.8031 16.8285 17.9227 16.5531C18.0422 16.2777 18.0211 15.9613 17.8687 15.7035L12.3574 6.41523L12.8742 6.25937C13.0219 6.21484 13.1508 6.2453 13.2621 6.35077L22.8129 15.4363C23.0391 15.6519 23.3578 15.7398 23.6625 15.6719L29.7035 14.323C30.5074 14.1449 31.398 14.6512 31.6488 15.4293V15.4305C31.759 15.7715 31.7273 16.1195 31.5621 16.409C31.3934 16.7031 31.1039 16.9094 30.7465 16.9879L10.7871 21.4375L7.30547 15.5664C8.11641 15.393 8.89687 15.5629 9.58008 16.0656ZM42.8461 29.35H42.6703C42.1523 29.35 41.734 28.9305 41.734 28.4137C41.734 27.8969 42.1535 27.4773 42.6703 27.4773H42.8461C43.3641 27.4773 43.7824 27.8969 43.7824 28.4137C43.7824 28.9305 43.3629 29.35 42.8461 29.35ZM44.4926 28.4125C44.4926 27.8945 44.9121 27.4762 45.4289 27.4762H45.6047C46.1227 27.4762 46.541 27.8957 46.541 28.4125C46.541 28.9293 46.1215 29.3488 45.6047 29.3488H45.4289C44.9121 29.35 44.4926 28.9305 44.4926 28.4125ZM47.2535 28.4125C47.2535 27.8945 47.673 27.4762 48.1898 27.4762H48.3656C48.8836 27.4762 49.3019 27.8957 49.3019 28.4125C49.3019 28.9293 48.8824 29.3488 48.3656 29.3488H48.1898C47.673 29.35 47.2535 28.9305 47.2535 28.4125Z" fill="url(#paint0_linear_6678_10640)"/>
<defs>
<linearGradient id="paint0_linear_6678_10640" x1="29.9994" y1="4.36719" x2="29.9994" y2="64.5676" gradientUnits="userSpaceOnUse">
<stop stop-color="#F4853B"/>
<stop offset="1" stop-color="#3448F5"/>
</linearGradient>
</defs>
</svg>
