<svg width="60" height="60" viewBox="0 0 60 60" fill="none" xmlns="http://www.w3.org/2000/svg">
<path d="M55.3035 32.4592C53.1745 30.4857 50.5821 29.2563 47.8739 28.9106V28.1907C47.8739 27.1207 47.0034 26.2502 45.9333 26.2502C44.4804 26.2502 43.5725 25.3077 43.2071 24.4256C42.8417 23.5436 42.8173 22.235 43.8447 21.2075C44.6012 20.4511 44.6012 19.2199 43.8447 18.4631L41.4329 16.0513C40.8092 15.428 39.8638 15.3197 39.127 15.724V8.5493H47.3262C47.6824 9.77461 48.8145 10.673 50.153 10.673C51.7764 10.673 53.0971 9.35227 53.0971 7.72898C53.0971 6.1057 51.7764 4.785 50.153 4.785C48.8144 4.785 47.6824 5.68336 47.3262 6.90867H38.3067C37.8536 6.90867 37.4864 7.27594 37.4864 7.72898V16.789C36.7632 17.0142 36.0308 16.9209 35.4705 16.6889C34.5884 16.3235 33.646 15.4155 33.646 13.9627C33.646 12.8926 32.7755 12.022 31.7055 12.022H30.8206V6.82547C32.0459 6.46934 32.9443 5.33731 32.9443 3.99867C32.9442 2.37527 31.6235 1.05469 30.0002 1.05469C28.3768 1.05469 27.0561 2.37539 27.0561 3.99867C27.0561 5.33731 27.9546 6.46934 29.1799 6.82547V12.0221H28.2949C27.2248 12.0221 26.3544 12.8927 26.3544 13.9628C26.3544 15.4155 25.4119 16.3236 24.5299 16.689C23.9696 16.9211 23.2373 17.0143 22.5141 16.7891V7.72898C22.5141 7.27594 22.1469 6.90867 21.6938 6.90867H12.6742C12.3181 5.68336 11.186 4.785 9.84733 4.785C8.22404 4.785 6.90334 6.1057 6.90334 7.72898C6.90334 9.35227 8.22404 10.673 9.84733 10.673C11.186 10.673 12.318 9.77461 12.6742 8.5493H20.8735V15.724C20.1365 15.3196 19.191 15.4277 18.5675 16.0513L16.1556 18.4631C15.3991 19.2198 15.3991 20.451 16.1556 21.2075C16.8696 21.9214 17.0747 22.7612 17.0124 23.5071L12.1819 18.8317C12.029 18.6836 11.8244 18.6008 11.6115 18.6008H1.87506C1.58233 18.6008 1.31186 18.7568 1.16514 19.01C1.01842 19.2633 1.01783 19.5756 1.16361 19.8294L6.31799 28.8096H1.87506C1.42201 28.8096 1.05475 29.1769 1.05475 29.6299V36.5549C1.05475 36.7823 1.1492 36.9996 1.31561 37.1548L3.39463 39.0938L1.25748 41.5389C1.04572 41.7811 0.995216 42.1249 1.12822 42.4179C1.26123 42.7109 1.55326 42.8989 1.87518 42.8989H7.47498L9.24861 44.5529C9.62408 44.9031 10.0939 45.0882 10.6074 45.0882H20.7367L12.3996 57.6718C12.2327 57.9237 12.2178 58.2469 12.3606 58.513C12.5036 58.7791 12.7812 58.9452 13.0833 58.9452H22.3163C22.5322 58.9452 22.7392 58.8601 22.8929 58.7084L25.8739 55.7631H35.913C36.366 55.7631 36.7333 55.3958 36.7333 54.9428V49.1468C36.7333 48.6937 36.366 48.3265 35.913 48.3265H33.401L36.6787 45.0881H51.8957C55.8488 45.0881 58.9454 42.5875 58.9454 39.3953C58.9454 37.1989 57.5499 34.5411 55.3035 32.4592ZM50.1529 6.42562C50.8716 6.42562 51.4564 7.01027 51.4564 7.72898C51.4564 8.4477 50.8717 9.03234 50.1529 9.03234C49.4342 9.03234 48.8496 8.4477 48.8496 7.72898C48.8496 7.01027 49.4342 6.42562 50.1529 6.42562ZM28.6967 3.99867C28.6967 3.27996 29.2814 2.69531 30.0002 2.69531C30.7189 2.69531 31.3035 3.27996 31.3035 3.99867C31.3035 4.71738 30.7189 5.30203 30.0002 5.30203C29.2814 5.30203 28.6967 4.71727 28.6967 3.99867ZM9.84721 9.03234C9.1285 9.03234 8.54385 8.4477 8.54385 7.72898C8.54385 7.01027 9.1285 6.42562 9.84721 6.42562C10.5659 6.42562 11.1507 7.01027 11.1507 7.72898C11.1507 8.4477 10.566 9.03234 9.84721 9.03234ZM55.1579 34.6707H48.5421V30.6866C50.5939 31.1196 52.5445 32.1389 54.1883 33.6625C54.5353 33.9839 54.8594 34.3222 55.1579 34.6707ZM17.3157 20.0474C17.1987 19.9305 17.1987 19.7401 17.3157 19.6233L19.7274 17.2116C19.8444 17.0946 20.0348 17.0946 20.1516 17.2116C21.4893 18.5493 23.4074 18.9295 25.1578 18.2048C26.9078 17.4798 27.995 15.8544 27.995 13.9629C27.995 13.7975 28.1295 13.6629 28.2949 13.6629H31.7054C31.8707 13.6629 32.0053 13.7974 32.0053 13.9629C32.0053 15.8545 33.0924 17.4799 34.8425 18.2048C36.5927 18.9299 38.5109 18.5491 39.8486 17.2116C39.9657 17.0946 40.1561 17.0947 40.2728 17.2116L42.6844 19.6232C42.8014 19.7401 42.8015 19.9305 42.6846 20.0474C41.3469 21.385 40.9664 23.3032 41.6913 25.0534C42.4162 26.8037 44.0417 27.8909 45.9333 27.8909C46.0987 27.8909 46.2332 28.0253 46.2332 28.1907V28.8097H39.9679C39.7192 26.495 38.6825 24.3526 36.9956 22.7102C35.1128 20.877 32.6283 19.8674 30.0001 19.8674C27.3718 19.8674 24.8874 20.877 23.0047 22.7102C21.8108 23.8726 20.9428 25.2858 20.4483 26.8328L18.3917 24.8421C19.0013 23.1668 18.6079 21.3396 17.3157 20.0474ZM22.4907 28.8096L21.796 28.1372C22.5967 24.3188 25.9482 21.5079 29.9999 21.5079C34.2865 21.5079 37.7915 24.6527 38.3192 28.8096H22.4907ZM3.29174 20.2414H11.2794L16.8353 25.6192C16.8366 25.6205 16.8379 25.6216 16.8393 25.6229L20.0411 28.722C20.0377 28.7511 20.0354 28.7804 20.0323 28.8096H8.20963L3.29174 20.2414ZM8.10721 36.1949H19.3389L11.3726 41.2584H3.68151L8.10721 36.1949ZM21.9794 57.3047H14.6108L27.2947 38.1605H41.3563L21.9794 57.3047ZM35.0927 49.9673V54.1227H27.5344L31.7403 49.9673H35.0927ZM51.8957 43.4477H38.3392L43.9305 37.9236C44.1672 37.6898 44.2392 37.3362 44.1127 37.0284C43.9863 36.7207 43.6866 36.5197 43.3539 36.5197H26.8542C26.579 36.5197 26.3222 36.6577 26.1704 36.887L21.8237 43.4476H10.6073C10.5064 43.4476 10.4413 43.422 10.3675 43.3531L9.88049 42.8988H11.6115C11.7673 42.8988 11.92 42.8544 12.0515 42.7707L22.5987 36.0666C22.9066 35.8709 23.0483 35.4954 22.9463 35.1452C22.8444 34.795 22.5235 34.554 22.1587 34.554H7.73467C7.49795 34.554 7.27283 34.6562 7.11697 34.8346L4.47475 37.8577L2.69537 36.1983V30.4502H46.2987C46.4999 30.4502 46.7009 30.4566 46.9014 30.4678V35.4911C46.9014 35.9441 47.2687 36.3114 47.7217 36.3114H56.3282C56.9503 37.3849 57.3047 38.4659 57.3047 39.3955C57.3047 41.6679 54.9288 43.4477 51.8957 43.4477ZM45.3802 33.5998C45.3802 34.0528 45.013 34.4201 44.5599 34.4201H41.4714C41.0184 34.4201 40.6511 34.0528 40.6511 33.5998C40.6511 33.1467 41.0184 32.7795 41.4714 32.7795H44.5599C45.013 32.7795 45.3802 33.1467 45.3802 33.5998ZM37.1372 33.5998C37.1372 34.0528 36.77 34.4201 36.3169 34.4201H33.2285C32.7754 34.4201 32.4081 34.0528 32.4081 33.5998C32.4081 33.1467 32.7754 32.7795 33.2285 32.7795H36.3169C36.77 32.7795 37.1372 33.1467 37.1372 33.5998ZM28.8943 33.5998C28.8943 34.0528 28.527 34.4201 28.074 34.4201H24.9855C24.5324 34.4201 24.1652 34.0528 24.1652 33.5998C24.1652 33.1467 24.5324 32.7795 24.9855 32.7795H28.074C28.527 32.7795 28.8943 33.1467 28.8943 33.5998Z" fill="url(#paint0_linear_6678_10653)"/>
<defs>
<linearGradient id="paint0_linear_6678_10653" x1="30" y1="1.05469" x2="30" y2="69.0299" gradientUnits="userSpaceOnUse">
<stop stop-color="#F4853B"/>
<stop offset="1" stop-color="#3448F5"/>
</linearGradient>
</defs>
</svg>
