<svg width="406" height="460" viewBox="0 0 406 460" fill="none" xmlns="http://www.w3.org/2000/svg">
<g clip-path="url(#clip0_5326_10159)" filter="url(#filter0_d_5326_10159)">
<g clip-path="url(#clip1_5326_10159)" filter="url(#filter1_d_5326_10159)">
<path d="M363.99 243.869C272.674 239.128 314.698 321.188 211.485 237.083C131.309 171.751 34.7607 147.755 -39.3213 259.713C-42.8433 261.72 -145.254 478.929 -105.83 526.157C-33.6349 612.645 638.534 538.527 633.325 510.49C628.116 482.452 502.147 323.005 448.355 275.7C422.541 252.998 384.14 244.915 363.99 243.869Z" fill="url(#paint0_radial_5326_10159)"/>
<path d="M599.188 52.6323C508.253 62.2265 562.591 136.707 447.497 69.7739C358.093 17.7804 258.98 9.17452 203.314 131.339C200.149 133.872 132.957 364.421 179.281 404.905C264.111 479.041 916.425 300.743 906.896 273.864C897.368 246.986 748.018 109.195 687.493 70.882C658.446 52.4953 619.254 50.5152 599.188 52.6323Z" fill="url(#paint1_radial_5326_10159)"/>
</g>
</g>
<defs>
<filter id="filter0_d_5326_10159" x="0.664062" y="0" width="404.664" height="460" filterUnits="userSpaceOnUse" color-interpolation-filters="sRGB">
<feFlood flood-opacity="0" result="BackgroundImageFix"/>
<feColorMatrix in="SourceAlpha" type="matrix" values="0 0 0 0 0 0 0 0 0 0 0 0 0 0 0 0 0 0 127 0" result="hardAlpha"/>
<feOffset dy="7"/>
<feGaussianBlur stdDeviation="5"/>
<feComposite in2="hardAlpha" operator="out"/>
<feColorMatrix type="matrix" values="0 0 0 0 0 0 0 0 0 0 0 0 0 0 0 0 0 0 0.1 0"/>
<feBlend mode="normal" in2="BackgroundImageFix" result="effect1_dropShadow_5326_10159"/>
<feBlend mode="normal" in="SourceGraphic" in2="effect1_dropShadow_5326_10159" result="shape"/>
</filter>
<filter id="filter1_d_5326_10159" x="0.664062" y="-2" width="404.664" height="462" filterUnits="userSpaceOnUse" color-interpolation-filters="sRGB">
<feFlood flood-opacity="0" result="BackgroundImageFix"/>
<feColorMatrix in="SourceAlpha" type="matrix" values="0 0 0 0 0 0 0 0 0 0 0 0 0 0 0 0 0 0 127 0" result="hardAlpha"/>
<feOffset dy="7"/>
<feGaussianBlur stdDeviation="5"/>
<feComposite in2="hardAlpha" operator="out"/>
<feColorMatrix type="matrix" values="0 0 0 0 0 0 0 0 0 0 0 0 0 0 0 0 0 0 0.1 0"/>
<feBlend mode="normal" in2="BackgroundImageFix" result="effect1_dropShadow_5326_10159"/>
<feBlend mode="normal" in="SourceGraphic" in2="effect1_dropShadow_5326_10159" result="shape"/>
</filter>
<radialGradient id="paint0_radial_5326_10159" cx="0" cy="0" r="1" gradientUnits="userSpaceOnUse" gradientTransform="translate(106.81 118.771) rotate(57.9417) scale(395.162 612.61)">
<stop stop-color="#CEDCFF"/>
<stop offset="0.5" stop-color="white"/>
<stop offset="1" stop-color="white" stop-opacity="0"/>
</radialGradient>
<radialGradient id="paint1_radial_5326_10159" cx="0" cy="0" r="1" gradientUnits="userSpaceOnUse" gradientTransform="translate(325.612 -30.7176) rotate(48.9467) scale(395.162 612.61)">
<stop stop-color="#CEDCFF"/>
<stop offset="0.5" stop-color="white"/>
<stop offset="1" stop-color="white" stop-opacity="0"/>
</radialGradient>
<clipPath id="clip0_5326_10159">
<rect width="384.667" height="440" fill="white" transform="translate(10.6641 3)"/>
</clipPath>
<clipPath id="clip1_5326_10159">
<rect width="384.667" height="440" fill="white" transform="translate(10.6641 3)"/>
</clipPath>
</defs>
</svg>
