<svg width="385" height="495" viewBox="0 0 385 495" fill="none" xmlns="http://www.w3.org/2000/svg">
<g clip-path="url(#clip0_5326_10173)">
<path d="M569.98 -44.651C485.977 -8.52991 559.952 46.4938 430.19 16.6896C329.391 -6.46225 232.182 14.7012 215.234 147.876C212.963 151.234 217.139 391.338 273.382 416.269C376.376 461.925 946.51 98.2594 929.441 75.414C912.373 52.5686 728.888 -34.7523 659.725 -53.3999C626.533 -62.349 588.516 -52.6215 569.98 -44.651Z" fill="url(#paint0_radial_5326_10173)"/>
<path d="M355.497 194.496C264.832 206.372 321.024 279.464 204.285 215.444C113.603 165.713 14.3047 159.601 -38.2743 283.125C-41.3746 285.737 -102.751 517.902 -55.4254 557.209C31.2406 629.19 678.869 434.556 668.668 407.925C658.467 381.295 505.702 247.301 444.232 210.521C414.733 192.87 375.504 191.875 355.497 194.496Z" fill="url(#paint1_radial_5326_10173)"/>
<path d="M511.239 132.89C428.451 171.716 504.171 224.312 373.511 198.731C272.014 178.859 175.543 203.163 162.921 336.818C160.76 340.247 172.718 580.09 229.739 603.184C334.16 645.476 892.204 263.518 874.403 241.238C856.603 218.958 670.384 137.632 600.653 121.236C567.188 113.368 529.506 124.323 511.239 132.89Z" fill="url(#paint2_radial_5326_10173)"/>
</g>
<defs>
<radialGradient id="paint0_radial_5326_10173" cx="0" cy="0" r="1" gradientUnits="userSpaceOnUse" gradientTransform="translate(283.992 -43.1509) rotate(31.7019) scale(395.162 612.61)">
<stop stop-color="#CEDCFF"/>
<stop offset="0.5" stop-color="white"/>
<stop offset="1" stop-color="white" stop-opacity="0"/>
</radialGradient>
<radialGradient id="paint1_radial_5326_10173" cx="0" cy="0" r="1" gradientUnits="userSpaceOnUse" gradientTransform="translate(79.9129 118.047) rotate(47.5068) scale(395.162 612.61)">
<stop stop-color="#CEDCFF"/>
<stop offset="0.5" stop-color="white"/>
<stop offset="1" stop-color="white" stop-opacity="0"/>
</radialGradient>
<radialGradient id="paint2_radial_5326_10173" cx="0" cy="0" r="1" gradientUnits="userSpaceOnUse" gradientTransform="translate(225.45 143.662) rotate(29.844) scale(395.162 612.61)">
<stop stop-color="#CEDCFF"/>
<stop offset="0.5" stop-color="white"/>
<stop offset="1" stop-color="white" stop-opacity="0"/>
</radialGradient>
<clipPath id="clip0_5326_10173">
<rect width="384.667" height="495" fill="white" transform="translate(0.335938)"/>
</clipPath>
</defs>
</svg>
