<svg width="42" height="42" viewBox="0 0 42 42" fill="none" xmlns="http://www.w3.org/2000/svg">
<path d="M35.2227 2.08203C35.524 2.08203 35.8132 2.20197 36.0264 2.41504C36.2395 2.6282 36.3594 2.91729 36.3594 3.21875C36.3594 3.52021 36.2395 3.80929 36.0264 4.02246C35.8132 4.23553 35.524 4.35547 35.2227 4.35547H9.14844C8.50622 4.35547 7.88969 4.61037 7.43555 5.06445C6.9814 5.5186 6.72656 6.13508 6.72656 6.77734C6.72663 7.41946 6.98154 8.03518 7.43555 8.48926C7.8897 8.94341 8.50617 9.19922 9.14844 9.19922H36.4131C36.5627 9.19462 36.7116 9.21929 36.8516 9.27246C36.9947 9.32687 37.126 9.40947 37.2363 9.51562C37.3465 9.62168 37.4343 9.74892 37.4941 9.88965C37.554 10.0304 37.585 10.1821 37.585 10.335V36.4111C37.5833 36.875 37.4894 37.3341 37.3096 37.7617C37.1298 38.1894 36.8675 38.5776 36.5371 38.9033C36.2067 39.229 35.815 39.4864 35.3848 39.6602C34.9555 39.8335 34.4961 39.9186 34.0332 39.9141V39.915H7.96973V39.9141C7.50641 39.9202 7.0462 39.8358 6.61621 39.6631C6.18527 39.4899 5.79264 39.2333 5.46191 38.9072C5.13116 38.5811 4.86873 38.1921 4.68945 37.7637C4.51018 37.3351 4.41792 36.8747 4.41797 36.4102V6.77637C4.41959 6.15733 4.54349 5.54478 4.78223 4.97363C5.02102 4.40241 5.37006 3.88334 5.80957 3.44727C6.24905 3.01126 6.77073 2.66592 7.34375 2.43164C7.91644 2.19756 8.52977 2.07988 9.14844 2.08301V2.08203H35.2227ZM6.73828 36.4102C6.73828 36.7368 6.8677 37.0503 7.09863 37.2812C7.32962 37.5122 7.64307 37.6426 7.96973 37.6426H34.0322C34.1947 37.6424 34.3562 37.6091 34.5059 37.5459C34.6553 37.4827 34.791 37.3906 34.9043 37.2744L34.9072 37.2705C35.0211 37.1584 35.1115 37.0245 35.1729 36.877C35.2341 36.7296 35.2654 36.5716 35.2646 36.4121V11.4717H9.14746C8.29559 11.4709 7.4638 11.2377 6.73828 10.8027V36.4102Z" fill="url(#paint0_linear_6687_6513)" stroke="url(#paint1_linear_6687_6513)" stroke-width="0.5"/>
<path d="M24.6162 16.3047L24.7285 16.3105C24.9888 16.3363 25.2333 16.4512 25.4199 16.6377C25.6331 16.8509 25.7529 17.1399 25.7529 17.4414C25.7529 17.7429 25.6331 18.032 25.4199 18.2451C25.2068 18.4581 24.9176 18.5781 24.6162 18.5781H17.5C17.1986 18.5781 16.9095 18.4583 16.6963 18.2451C16.4831 18.032 16.3633 17.7429 16.3633 17.4414C16.3633 17.1399 16.4831 16.8509 16.6963 16.6377C16.9095 16.4245 17.1985 16.3047 17.5 16.3047H24.6162Z" fill="url(#paint2_linear_6687_6513)" stroke="url(#paint3_linear_6687_6513)" stroke-width="0.5"/>
<defs>
<linearGradient id="paint0_linear_6687_6513" x1="21.0013" y1="2.33203" x2="21.0013" y2="46.1694" gradientUnits="userSpaceOnUse">
<stop stop-color="#F4853B"/>
<stop offset="1" stop-color="#3448F5"/>
</linearGradient>
<linearGradient id="paint1_linear_6687_6513" x1="21.0013" y1="2.33203" x2="21.0013" y2="46.1694" gradientUnits="userSpaceOnUse">
<stop stop-color="#F4853B"/>
<stop offset="1" stop-color="#3448F5"/>
</linearGradient>
<linearGradient id="paint2_linear_6687_6513" x1="21.0583" y1="16.5547" x2="21.0583" y2="18.6369" gradientUnits="userSpaceOnUse">
<stop stop-color="#F4853B"/>
<stop offset="1" stop-color="#3448F5"/>
</linearGradient>
<linearGradient id="paint3_linear_6687_6513" x1="21.0583" y1="16.5547" x2="21.0583" y2="18.6369" gradientUnits="userSpaceOnUse">
<stop stop-color="#F4853B"/>
<stop offset="1" stop-color="#3448F5"/>
</linearGradient>
</defs>
</svg>
