<svg width="43" height="42" viewBox="0 0 43 42" fill="none" xmlns="http://www.w3.org/2000/svg">
<path d="M33.8456 10.0968C30.9692 9.22475 27.6877 10.2202 25.5765 11.4423C24.3563 12.1355 22.9909 12.5338 21.5894 12.6052C20.1871 12.5381 18.8208 12.1396 17.6023 11.4423C15.4916 10.2202 12.2096 9.2229 9.33316 10.0968C4.7094 11.4983 2.28516 25.2207 2.28516 29.7131C2.28516 31.6278 3.18587 32.387 3.94185 32.6867C6.81876 33.8278 12.07 29.9929 14.2413 27.6861C17.0109 24.743 21.4826 25.045 21.5251 25.0505C21.5679 25.0537 21.6109 25.0537 21.6536 25.0505C21.6971 25.0464 26.153 24.7296 28.9375 27.6861C30.8369 29.7048 35.0959 32.8943 38.0588 32.8943C38.4611 32.9002 38.8609 32.8298 39.2369 32.6867C39.9929 32.387 40.8936 31.6278 40.8936 29.7131C40.8936 25.2207 38.4703 11.4983 33.8456 10.0968ZM38.6404 31.1812C36.9995 31.8285 32.5801 29.1929 30.1161 26.5754C27.4144 23.705 23.5434 23.4155 22.0948 23.4155C21.8539 23.4155 21.6786 23.4239 21.5894 23.4294C20.9541 23.392 16.2138 23.2278 13.0627 26.5736C10.5987 29.1929 6.18114 31.8322 4.53832 31.1812C4.38111 31.1187 3.90347 30.9292 3.90347 29.7117C3.90347 24.4896 6.69438 12.5858 9.80201 11.6444C11.7648 11.0497 14.5081 11.52 16.7913 12.8419C18.2562 13.6817 19.9022 14.1556 21.5894 14.2235C23.2765 14.1561 24.9224 13.6826 26.3875 12.8433C28.6702 11.5214 31.4135 11.0507 33.3767 11.6458C36.4844 12.5871 39.2753 24.491 39.2753 29.7131C39.2753 30.9306 38.7976 31.1201 38.6404 31.1812Z" fill="url(#paint0_linear_6687_6534)"/>
<path d="M15.1758 16.8512H13.7826V15.4576C13.7826 15.243 13.6974 15.0372 13.5456 14.8854C13.3939 14.7337 13.1881 14.6484 12.9735 14.6484H10.6815C10.4669 14.6486 10.2612 14.7338 10.1095 14.8856C9.95774 15.0373 9.87245 15.243 9.87233 15.4576V16.8503H8.48103C8.26647 16.8504 8.06073 16.9357 7.90901 17.0874C7.75729 17.2391 7.672 17.4449 7.67188 17.6594V19.9505C7.672 20.1651 7.75729 20.3708 7.90901 20.5225C8.06073 20.6743 8.26647 20.7595 8.48103 20.7597H9.87371V22.1523C9.87384 22.3669 9.95913 22.5727 10.1108 22.7244C10.2626 22.8761 10.4683 22.9614 10.6829 22.9615H12.9735C13.1881 22.9615 13.3939 22.8763 13.5456 22.7245C13.6974 22.5728 13.7826 22.367 13.7826 22.1523V20.7606H15.1758C15.3904 20.7605 15.5961 20.6752 15.7478 20.5235C15.8995 20.3717 15.9848 20.166 15.9849 19.9514V17.6604C15.9848 17.4458 15.8995 17.2401 15.7478 17.0883C15.5961 16.9366 15.3904 16.8513 15.1758 16.8512ZM14.3666 19.1423H12.9735C12.7589 19.1423 12.5531 19.2275 12.4013 19.3793C12.2496 19.531 12.1643 19.7368 12.1643 19.9514V21.3441H11.492V19.9514C11.4921 19.8452 11.4712 19.7399 11.4306 19.6417C11.3899 19.5435 11.3303 19.4543 11.2552 19.3791C11.18 19.304 11.0908 19.2444 10.9926 19.2037C10.8944 19.1631 10.7891 19.1422 10.6829 19.1423H9.29019V18.4695H10.6815C10.7878 18.4696 10.893 18.4487 10.9912 18.408C11.0894 18.3674 11.1786 18.3078 11.2538 18.2327C11.3289 18.1575 11.3885 18.0683 11.4292 17.9701C11.4698 17.8719 11.4907 17.7666 11.4906 17.6604V16.2677H12.1629V17.6604C12.1629 17.875 12.2482 18.0808 12.3999 18.2325C12.5517 18.3843 12.7575 18.4695 12.9721 18.4695H14.3666V19.1423Z" fill="url(#paint1_linear_6687_6534)"/>
<path d="M31.0678 17.722C31.3114 17.7847 31.5688 17.7656 31.8004 17.6677C32.032 17.5697 32.225 17.3983 32.3497 17.1799C32.4743 16.9614 32.5237 16.7081 32.4902 16.4588C32.4567 16.2096 32.3422 15.9783 32.1643 15.8005C31.9865 15.6227 31.7551 15.5083 31.5058 15.475C31.2565 15.4416 31.0032 15.4911 30.7848 15.6159C30.5665 15.7407 30.3952 15.9338 30.2974 16.1655C30.1995 16.3971 30.1806 16.6546 30.2434 16.8981C30.2948 17.0965 30.3984 17.2775 30.5433 17.4224C30.6883 17.5673 30.8694 17.6707 31.0678 17.722Z" fill="url(#paint2_linear_6687_6534)"/>
<path d="M31.6388 19.9032C31.3953 19.8407 31.1381 19.8599 30.9066 19.958C30.6751 20.056 30.4823 20.2273 30.3577 20.4457C30.2332 20.664 30.1838 20.9172 30.2172 21.1663C30.2506 21.4155 30.365 21.6467 30.5427 21.8245C30.7204 22.0023 30.9515 22.1168 31.2007 22.1503C31.4498 22.1839 31.703 22.1346 31.9214 22.0102C32.1398 21.8858 32.3113 21.693 32.4094 21.4616C32.5075 21.2302 32.5269 20.973 32.4646 20.7295C32.4134 20.5304 32.3098 20.3488 32.1646 20.2035C32.0193 20.0582 31.8378 19.9545 31.6388 19.9032Z" fill="url(#paint3_linear_6687_6534)"/>
<path d="M29.435 17.6999C29.1915 17.6376 28.9343 17.6569 28.7029 17.7551C28.4715 17.8532 28.2787 18.0247 28.1543 18.2431C28.0298 18.4615 27.9806 18.7147 28.0142 18.9638C28.0477 19.2129 28.1622 19.4441 28.34 19.6218C28.5178 19.7995 28.749 19.9139 28.9982 19.9473C29.2473 19.9807 29.5005 19.9313 29.7188 19.8068C29.9372 19.6822 30.1085 19.4894 30.2065 19.2579C30.3045 19.0264 30.3238 18.7692 30.2613 18.5257C30.21 18.3267 30.1063 18.1452 29.961 17.9999C29.8157 17.8547 29.634 17.7511 29.435 17.6999Z" fill="url(#paint4_linear_6687_6534)"/>
<path d="M32.4501 18.5258C32.3876 18.7694 32.4068 19.0268 32.5048 19.2583C32.6028 19.4899 32.7742 19.6829 32.9926 19.8076C33.2111 19.9322 33.4644 19.9816 33.7137 19.9482C33.9629 19.9148 34.1943 19.8004 34.3722 19.6226C34.55 19.4448 34.6646 19.2135 34.6981 18.9643C34.7317 18.7151 34.6824 18.4617 34.5579 18.2432C34.4334 18.0247 34.2405 17.8532 34.0089 17.755C33.7774 17.6569 33.52 17.6375 33.2764 17.7C33.0774 17.7511 32.8958 17.8547 32.7504 18C32.6051 18.1452 32.5014 18.3268 32.4501 18.5258Z" fill="url(#paint5_linear_6687_6534)"/>
<defs>
<linearGradient id="paint0_linear_6687_6534" x1="21.5894" y1="9.76562" x2="21.5894" y2="36.9238" gradientUnits="userSpaceOnUse">
<stop stop-color="#F4853B"/>
<stop offset="1" stop-color="#3448F5"/>
</linearGradient>
<linearGradient id="paint1_linear_6687_6534" x1="11.8284" y1="14.6484" x2="11.8284" y2="24.4097" gradientUnits="userSpaceOnUse">
<stop stop-color="#F4853B"/>
<stop offset="1" stop-color="#3448F5"/>
</linearGradient>
<linearGradient id="paint2_linear_6687_6534" x1="31.3537" y1="15.4648" x2="31.3537" y2="18.1578" gradientUnits="userSpaceOnUse">
<stop stop-color="#F4853B"/>
<stop offset="1" stop-color="#3448F5"/>
</linearGradient>
<linearGradient id="paint3_linear_6687_6534" x1="31.3537" y1="19.8672" x2="31.3537" y2="22.5601" gradientUnits="userSpaceOnUse">
<stop stop-color="#F4853B"/>
<stop offset="1" stop-color="#3448F5"/>
</linearGradient>
<linearGradient id="paint4_linear_6687_6534" x1="29.1506" y1="17.6641" x2="29.1506" y2="20.357" gradientUnits="userSpaceOnUse">
<stop stop-color="#F4853B"/>
<stop offset="1" stop-color="#3448F5"/>
</linearGradient>
<linearGradient id="paint5_linear_6687_6534" x1="33.5612" y1="17.6641" x2="33.5612" y2="20.3581" gradientUnits="userSpaceOnUse">
<stop stop-color="#F4853B"/>
<stop offset="1" stop-color="#3448F5"/>
</linearGradient>
</defs>
</svg>
