<svg width="43" height="42" viewBox="0 0 43 42" fill="none" xmlns="http://www.w3.org/2000/svg">
<path d="M36.2162 28.2696C36.2162 27.4944 36.2162 26.7233 36.2162 25.9481C36.2162 24.1967 36.2162 22.4495 36.2162 20.6981C36.2162 18.8278 36.2162 16.9616 36.2162 15.0913C36.2162 13.9592 36.2162 12.8272 36.2162 11.6952C36.2162 11.6296 36.2162 11.5598 36.2162 11.4942C36.1957 10.678 35.5682 10.034 34.7479 9.99714C34.0219 9.96842 33.2877 9.99714 32.5576 9.99714C32.4715 9.99714 32.3854 9.99714 32.2992 9.99714C31.967 9.99714 31.684 10.2801 31.684 10.6124V14.7467V21.3626V22.876C31.8891 22.671 32.0941 22.4659 32.2992 22.2608C30.9826 22.2608 29.666 22.2608 28.3494 22.2608C26.7826 22.2608 25.2158 22.2608 23.649 22.2608C23.0994 22.2608 22.5867 22.4044 22.1479 22.7448C21.7377 23.0647 21.4465 23.5487 21.1389 23.9589H22.2012C21.951 23.6266 21.7213 23.2575 21.4342 22.9581C21.0035 22.4987 20.3883 22.2649 19.7648 22.2608C19.248 22.2567 18.7354 22.2608 18.2186 22.2608C16.3195 22.2608 14.4246 22.2608 12.5256 22.2608C12.0293 22.2608 11.533 22.2608 11.0408 22.2608L11.6561 22.876C11.6561 21.4979 11.6561 20.1198 11.6561 18.7417C11.6561 16.535 11.6561 14.3325 11.6561 12.1258C11.6561 11.6214 11.6561 11.1169 11.6561 10.6124C11.6561 10.2801 11.373 9.99714 11.0408 9.99714C10.3107 9.99714 9.58066 9.99714 8.85469 9.99714C8.76035 9.99714 8.66191 9.99303 8.56758 9.99714C8.0918 10.0217 7.67754 10.2514 7.40273 10.637C7.20586 10.9077 7.13203 11.2317 7.13203 11.5557C7.12793 12.5401 7.13203 13.5245 7.13203 14.5048V19.9803V25.4108C7.13203 26.346 7.10742 27.2893 7.13203 28.2245V28.2655C7.13203 28.5977 7.41504 28.8807 7.74727 28.8807H10.5199H17.1768H25.2281H32.1844C33.3082 28.8807 34.4361 28.9094 35.5559 28.8807H35.601C35.9209 28.8848 36.2285 28.6018 36.2162 28.2696C36.1998 27.9374 35.9455 27.6544 35.601 27.6544C34.6781 27.6544 33.7512 27.6544 32.8283 27.6544C30.6094 27.6544 28.3904 27.6544 26.1715 27.6544C23.4891 27.6544 20.8025 27.6544 18.1201 27.6544C15.8027 27.6544 13.4812 27.6544 11.1639 27.6544C10.4051 27.6544 9.64219 27.6544 8.8834 27.6544C8.52246 27.6544 8.15332 27.638 7.79238 27.6544C7.77598 27.6544 7.76367 27.6544 7.74727 27.6544L8.3625 28.2696C8.3625 27.519 8.3625 26.7725 8.3625 26.0219C8.3625 24.3157 8.3625 22.6094 8.3625 20.9032C8.3625 19.0452 8.3625 17.1913 8.3625 15.3333C8.3625 14.1561 8.3625 12.979 8.3625 11.7977C8.3625 11.7034 8.3666 11.6091 8.3625 11.5147C8.3625 11.5065 8.3625 11.5024 8.3625 11.4942V11.4901C8.3625 11.4819 8.3707 11.5311 8.3625 11.4614C8.3666 11.4163 8.3625 11.4245 8.3543 11.4901C8.3584 11.4655 8.3666 11.4368 8.3748 11.4122C8.38711 11.326 8.32969 11.4901 8.3707 11.4122C8.38711 11.3794 8.40352 11.3507 8.42402 11.3219C8.47324 11.244 8.32559 11.4081 8.44043 11.3055C8.46094 11.2891 8.52656 11.2358 8.43633 11.3014C8.46504 11.2809 8.49375 11.2645 8.52656 11.2481C8.55117 11.244 8.625 11.1866 8.52656 11.2481C8.56348 11.2399 8.59629 11.2276 8.6291 11.2235C8.51836 11.2481 8.59629 11.2276 8.6291 11.2317C9.35098 11.2645 10.0811 11.2317 10.8029 11.2317H11.0449C10.8398 11.0266 10.6348 10.8215 10.4297 10.6165V14.7508V21.3667V22.8801C10.4297 23.2124 10.7127 23.4954 11.0449 23.4954H14.8758H19.6254H19.7936C19.8592 23.4954 19.9248 23.4954 19.9904 23.5077C19.8838 23.4913 20.0109 23.5159 20.0396 23.5241C20.0889 23.5364 20.1381 23.5528 20.1873 23.5651C20.3637 23.6184 20.1381 23.5364 20.2365 23.5856C20.2898 23.6143 20.3432 23.643 20.3965 23.6758C20.417 23.6882 20.5154 23.7661 20.4416 23.7046C20.4826 23.7374 20.5195 23.7743 20.5523 23.8071C20.5811 23.8358 20.6426 23.8809 20.6549 23.9219C20.6549 23.926 20.5729 23.8112 20.6098 23.8645C20.6631 23.9424 20.7205 24.0122 20.7779 24.0901C20.901 24.2542 21.024 24.4182 21.1471 24.5864C21.4424 24.9801 21.9141 24.976 22.2094 24.5864C22.3119 24.4469 22.4186 24.3075 22.5211 24.1721C22.5826 24.0942 22.64 24.0122 22.7016 23.9342C22.718 23.9096 22.7385 23.885 22.7549 23.8604C22.6441 24.0245 22.7795 23.8399 22.8246 23.7907C23.0133 23.602 23.2676 23.4995 23.5465 23.4954H23.6285H25.2896H30.8678H32.3074C32.6397 23.4954 32.9227 23.2124 32.9227 22.8801C32.9227 21.502 32.9227 20.1239 32.9227 18.7458C32.9227 16.5391 32.9227 14.3366 32.9227 12.1299C32.9227 11.6255 32.9227 11.121 32.9227 10.6165C32.7176 10.8215 32.5125 11.0266 32.3074 11.2317H34.4689H34.7232C34.7314 11.2317 34.8258 11.2358 34.752 11.2276C34.674 11.2194 34.7848 11.2358 34.8012 11.244C34.8914 11.2686 34.6904 11.1661 34.8258 11.2522C34.8545 11.2686 34.8873 11.285 34.916 11.3055C34.8012 11.2235 34.9939 11.4204 34.916 11.3055C34.9365 11.3342 34.9529 11.363 34.9693 11.3958C34.998 11.4491 35.0021 11.4573 34.9816 11.4204C34.9652 11.3794 34.9652 11.3876 34.9857 11.4491C35.0063 11.4491 34.9939 11.5475 34.9898 11.445C34.9816 11.2563 34.9939 11.4819 34.9898 11.5024V11.5065V11.5311V11.6337V14.7467V20.1977V25.501C34.9898 26.4116 34.9652 27.3262 34.9898 28.2368V28.2778C34.9898 28.5977 35.2729 28.9094 35.6051 28.893C35.9332 28.8684 36.2162 28.6141 36.2162 28.2696Z" fill="url(#paint0_linear_6687_6561)"/>
<path d="M35.0695 28.5759C36.0169 29.8966 36.9603 31.2214 37.9078 32.5421C37.9775 32.6406 38.0472 32.739 38.1169 32.8374C38.1292 32.8579 38.1456 32.8744 38.158 32.8908C38.158 32.8949 38.1621 32.8949 38.1621 32.899C38.1621 32.899 38.2441 33.0466 38.2072 32.9605C38.1908 32.9195 38.1908 32.9236 38.2113 32.981C38.2277 33.0507 38.2277 33.0425 38.2154 32.9605V33.0548C38.2113 32.9154 38.2318 33.0056 38.2072 33.0507C38.1662 33.1286 38.2974 32.94 38.2072 33.0548C38.1374 33.141 38.2113 33.0589 38.2236 33.0466C38.199 33.0712 38.0923 33.1615 38.2113 33.0753C38.1867 33.0917 38.158 33.1081 38.1292 33.1245C38.24 33.0548 38.1662 33.1245 38.1169 33.1245C38.0185 33.1204 38.2728 33.1327 38.1005 33.1245C38.0923 33.1245 38.08 33.1245 38.0718 33.1245C37.8626 33.1286 37.6535 33.1245 37.4443 33.1245C36.3369 33.1245 35.2335 33.1245 34.1261 33.1245C32.3624 33.1245 30.5947 33.1245 28.831 33.1245C26.7023 33.1245 24.5777 33.1245 22.449 33.1245C20.2956 33.1245 18.1464 33.1245 15.9931 33.1245C14.1146 33.1245 12.2361 33.1245 10.3576 33.1245C9.05737 33.1245 7.76127 33.1245 6.46108 33.1245C6.12885 33.1245 5.79662 33.1245 5.4644 33.1245C5.39467 33.1245 5.32905 33.1245 5.25932 33.1245C5.23471 33.1245 5.206 33.1245 5.18139 33.1245C5.2019 33.1245 5.31264 33.1369 5.19369 33.1204C5.03784 33.0958 5.27573 33.1369 5.18549 33.1163C5.13627 33.1081 5.09116 33.022 5.17729 33.1163C5.15678 33.0917 5.13217 33.0712 5.11166 33.0507C5.206 33.1615 5.12397 33.0507 5.10756 33.0179C5.11576 33.0343 5.16088 33.141 5.12397 33.0343C5.07475 32.8949 5.14037 33.1286 5.12397 33.0384C5.12397 33.0138 5.12397 32.9933 5.12397 32.9687C5.11166 33.0548 5.11166 33.0589 5.12807 32.9892C5.13627 32.94 5.17729 32.9236 5.11987 32.9974C5.06655 33.0671 5.22651 32.8333 5.17319 32.9072C5.17319 32.9031 5.17729 32.9031 5.17729 32.899C5.19369 32.8743 5.2142 32.8497 5.23061 32.8251C5.30444 32.7226 5.37416 32.6201 5.44799 32.5216C5.70229 32.1648 5.95659 31.8079 6.21498 31.4511C6.7892 30.6472 7.36752 29.8392 7.94174 29.0353C8.04838 28.8835 8.15502 28.7359 8.26166 28.5841C8.45444 28.3134 8.31088 27.8992 8.04018 27.7433C7.73256 27.5628 7.39213 27.6941 7.19936 27.9648C6.23959 29.3101 5.27573 30.6513 4.31596 31.9966C4.10268 32.2919 3.91401 32.5585 3.8894 32.9482C3.84018 33.7234 4.47592 34.3427 5.23471 34.3632C5.41108 34.3673 5.58744 34.3632 5.76381 34.3632H9.02455H14.3894H20.8412H27.4529H33.1581H37.0177H37.9365H38.0923C38.9331 34.3386 39.5648 33.5962 39.4089 32.7595C39.3515 32.4437 39.1628 32.2099 38.9824 31.9597C38.7322 31.6111 38.482 31.2583 38.2318 30.9097C37.6412 30.0853 37.0546 29.2609 36.464 28.4365C36.3533 28.2806 36.2384 28.1206 36.1277 27.9648C35.9349 27.6941 35.5904 27.5669 35.2869 27.7433C35.0244 27.891 34.8767 28.3052 35.0695 28.5759Z" fill="url(#paint1_linear_6687_6561)"/>
<path d="M19.7993 8.875C19.8281 8.875 20.0536 8.90371 19.9429 8.8832C20.0044 8.89551 20.0618 8.90781 20.1193 8.92832C20.1562 8.94063 20.1972 8.95293 20.2341 8.96934C20.189 8.94883 20.1849 8.94883 20.2259 8.96934C20.2874 9.00215 20.349 9.03906 20.4105 9.07598C20.513 9.1416 20.3982 9.04727 20.4761 9.1293C20.5253 9.17852 20.6197 9.24414 20.6443 9.30977C20.6156 9.22773 20.5745 9.21953 20.6402 9.30566C20.8042 9.52715 20.9724 9.74863 21.1365 9.97012C21.1077 9.86758 21.079 9.76504 21.0544 9.6584V11.1145V14.609V18.8131V22.4676C21.0544 23.0582 21.0216 23.657 21.0544 24.2477V24.2723C21.4359 24.1697 21.8173 24.0672 22.2029 23.9605C21.9527 23.6283 21.723 23.2592 21.4359 22.9598C21.0052 22.5004 20.39 22.2666 19.7665 22.2625C19.2497 22.2584 18.737 22.2625 18.2202 22.2625C16.3212 22.2625 14.4263 22.2625 12.5273 22.2625C12.031 22.2625 11.5347 22.2625 11.0425 22.2625L11.6577 22.8777C11.6577 22.3938 11.6577 21.9098 11.6577 21.4217C11.6577 20.2568 11.6577 19.092 11.6577 17.9271C11.6577 16.5244 11.6577 15.1258 11.6577 13.723C11.6577 12.5049 11.6577 11.2867 11.6577 10.0686C11.6577 9.47793 11.6947 8.8791 11.6577 8.28848C11.6577 8.28027 11.6577 8.27207 11.6577 8.26387C11.4527 8.46895 11.2476 8.67402 11.0425 8.8791H13.9915H18.7206C19.0775 8.875 19.4384 8.875 19.7993 8.875C20.1193 8.875 20.431 8.59199 20.4146 8.25977C20.3982 7.92754 20.1439 7.64453 19.7993 7.64453C18.815 7.64453 17.8306 7.64453 16.8503 7.64453C15.2753 7.64453 13.6962 7.64453 12.1212 7.64453C11.7603 7.64453 11.3993 7.64453 11.0384 7.64453C10.7062 7.64453 10.4232 7.92754 10.4232 8.25977V9.71582V13.2104V17.4145V21.0689C10.4232 21.6596 10.4027 22.2584 10.4232 22.849V22.8736C10.4232 23.2059 10.7062 23.4889 11.0384 23.4889H14.8693H19.6189H19.787C19.8527 23.4889 19.9183 23.4889 19.9839 23.5012C19.8773 23.4848 20.0044 23.5094 20.0331 23.5176C20.0824 23.5299 20.1316 23.5463 20.1808 23.5586C20.3572 23.6119 20.1316 23.5299 20.23 23.5791C20.2833 23.6078 20.3367 23.6365 20.39 23.6693C20.4105 23.6816 20.5089 23.7596 20.4351 23.698C20.4761 23.7309 20.513 23.7678 20.5458 23.8006C20.5745 23.8293 20.6361 23.8744 20.6484 23.9154C20.6484 23.9195 20.5663 23.8047 20.6033 23.858C20.6566 23.9359 20.714 24.0057 20.7714 24.0836C20.8945 24.2477 21.0175 24.4117 21.1406 24.5799C21.3087 24.8014 21.5507 24.9408 21.8337 24.8629C22.0921 24.7932 22.2849 24.5389 22.2849 24.2682C22.2849 23.6693 22.2849 23.0746 22.2849 22.4758C22.2849 21.0936 22.2849 19.7072 22.2849 18.325C22.2849 16.7623 22.2849 15.1955 22.2849 13.6328C22.2849 12.5131 22.2849 11.3934 22.2849 10.2777C22.2849 10.0768 22.2972 9.86758 22.2849 9.6666C22.2685 9.35898 22.0552 9.1498 21.8788 8.91602C21.5835 8.52227 21.3005 8.13262 20.8493 7.90703C20.5171 7.74297 20.1726 7.65684 19.7993 7.64863C19.4794 7.64453 19.1677 7.93574 19.1841 8.26387C19.2005 8.59609 19.4548 8.8668 19.7993 8.875Z" fill="url(#paint2_linear_6687_6561)"/>
<path d="M31.6907 8.26159V9.71764V13.2122V17.4163V21.0708C31.6907 21.6614 31.6538 22.2602 31.6907 22.8508V22.8755L32.3059 22.2602C30.9893 22.2602 29.6727 22.2602 28.3561 22.2602C26.7893 22.2602 25.2225 22.2602 23.6557 22.2602C23.1061 22.2602 22.5934 22.4038 22.1546 22.7442C21.7444 23.0641 21.4532 23.5481 21.1456 23.9583C21.527 24.0608 21.9085 24.1633 22.294 24.27C22.294 23.786 22.294 23.302 22.294 22.8139C22.294 21.6491 22.294 20.4842 22.294 19.3194C22.294 17.9167 22.294 16.518 22.294 15.1153C22.294 13.8971 22.294 12.679 22.294 11.4608C22.294 10.8702 22.3309 10.2714 22.294 9.68073C22.294 9.67253 22.294 9.66432 22.294 9.65612C22.2653 9.75866 22.2366 9.8612 22.212 9.96784C22.3145 9.82839 22.4212 9.68893 22.5237 9.55358C22.5852 9.47565 22.6426 9.39362 22.7042 9.31569C22.7206 9.29108 22.7411 9.26647 22.7575 9.24186C22.6467 9.40592 22.7821 9.22135 22.8272 9.17214C23.0159 8.98346 23.2702 8.88503 23.5491 8.87682H23.6311H25.2923H30.8704H32.31C32.6299 8.87682 32.9417 8.59382 32.9253 8.26159C32.9089 7.92936 32.6546 7.64635 32.31 7.64635C30.5833 7.64635 28.8606 7.64635 27.1339 7.64635C26.1372 7.64635 25.1405 7.64635 24.1397 7.64635C23.9469 7.64635 23.7501 7.64225 23.5573 7.64635C23.1594 7.65046 22.7657 7.74889 22.4212 7.94577C22.0643 8.14674 21.8223 8.44206 21.5844 8.76198C21.3671 9.04909 21.0717 9.32799 21.0635 9.70944C21.0594 9.88171 21.0635 10.0581 21.0635 10.2344V12.5764V19.5942C21.0635 21.1282 21.0348 22.6663 21.0635 24.2003V24.2741C21.0635 24.5325 21.2522 24.8073 21.5147 24.8688C21.8018 24.9344 22.0397 24.8155 22.2079 24.5858C22.3104 24.4464 22.4171 24.3069 22.5196 24.1715C22.5811 24.0936 22.6385 24.0116 22.7001 23.9337C22.7165 23.909 22.737 23.8844 22.7534 23.8598C22.6426 24.0239 22.778 23.8393 22.8231 23.7901C23.0118 23.6014 23.2661 23.4989 23.545 23.4948H23.627H25.2882H30.8663H32.3059C32.6381 23.4948 32.9212 23.2118 32.9212 22.8796C32.9212 22.3956 32.9212 21.9116 32.9212 21.4235C32.9212 20.2587 32.9212 19.0938 32.9212 17.929C32.9212 16.5262 32.9212 15.1276 32.9212 13.7249C32.9212 12.5067 32.9212 11.2885 32.9212 10.0704C32.9212 9.47975 32.9417 8.88092 32.9212 8.2903C32.9212 8.2821 32.9212 8.27389 32.9212 8.26569C32.9212 7.94577 32.6381 7.63405 32.3059 7.65046C31.9696 7.65866 31.6907 7.91706 31.6907 8.26159Z" fill="url(#paint3_linear_6687_6561)"/>
<path d="M13.4791 12.6406H18.5364H19.2623C19.5823 12.6406 19.894 12.3576 19.8776 12.0254C19.8612 11.6932 19.6069 11.4102 19.2623 11.4102C17.5766 11.4102 15.8909 11.4102 14.2051 11.4102C13.9631 11.4102 13.7211 11.4102 13.4791 11.4102C13.1592 11.4102 12.8475 11.6932 12.8639 12.0254C12.8803 12.3576 13.1346 12.6406 13.4791 12.6406Z" fill="url(#paint4_linear_6687_6561)"/>
<path d="M13.4791 16.2031H18.5364H19.2623C19.5823 16.2031 19.894 15.9201 19.8776 15.5879C19.8612 15.2557 19.6069 14.9727 19.2623 14.9727C17.5766 14.9727 15.8909 14.9727 14.2051 14.9727C13.9631 14.9727 13.7211 14.9727 13.4791 14.9727C13.1592 14.9727 12.8475 15.2557 12.8639 15.5879C12.8803 15.9242 13.1346 16.2031 13.4791 16.2031Z" fill="url(#paint5_linear_6687_6561)"/>
<path d="M13.4791 19.7656H18.5364H19.2623C19.5823 19.7656 19.894 19.4826 19.8776 19.1504C19.8612 18.8182 19.6069 18.5352 19.2623 18.5352C17.5766 18.5352 15.8909 18.5352 14.2051 18.5352C13.9631 18.5352 13.7211 18.5352 13.4791 18.5352C13.1592 18.5352 12.8475 18.8182 12.8639 19.1504C12.8803 19.4826 13.1346 19.7656 13.4791 19.7656Z" fill="url(#paint6_linear_6687_6561)"/>
<path d="M24.1159 16.2031H29.1731H29.8991C30.219 16.2031 30.5307 15.9201 30.5143 15.5879C30.4979 15.2557 30.2436 14.9727 29.8991 14.9727C28.2133 14.9727 26.5276 14.9727 24.8418 14.9727C24.5998 14.9727 24.3578 14.9727 24.1159 14.9727C23.7959 14.9727 23.4842 15.2557 23.5006 15.5879C23.5129 15.9242 23.7713 16.2031 24.1159 16.2031Z" fill="url(#paint7_linear_6687_6561)"/>
<path d="M24.1159 19.7656H27.4586C27.7786 19.7656 28.0903 19.4826 28.0739 19.1504C28.0575 18.8182 27.8032 18.5352 27.4586 18.5352C26.343 18.5352 25.2315 18.5352 24.1159 18.5352C23.7959 18.5352 23.4842 18.8182 23.5006 19.1504C23.5129 19.4826 23.7713 19.7656 24.1159 19.7656Z" fill="url(#paint8_linear_6687_6561)"/>
<path d="M24.1159 12.6406H29.1731H29.8991C30.219 12.6406 30.5307 12.3576 30.5143 12.0254C30.4979 11.6932 30.2436 11.4102 29.8991 11.4102C28.2133 11.4102 26.5276 11.4102 24.8418 11.4102C24.5998 11.4102 24.3578 11.4102 24.1159 11.4102C23.7959 11.4102 23.4842 11.6932 23.5006 12.0254C23.5129 12.3576 23.7713 12.6406 24.1159 12.6406Z" fill="url(#paint9_linear_6687_6561)"/>
<defs>
<linearGradient id="paint0_linear_6687_6561" x1="21.6688" y1="9.98437" x2="21.6688" y2="32.1877" gradientUnits="userSpaceOnUse">
<stop stop-color="#F4853B"/>
<stop offset="1" stop-color="#3448F5"/>
</linearGradient>
<linearGradient id="paint1_linear_6687_6561" x1="21.6597" y1="27.6602" x2="21.6597" y2="35.5331" gradientUnits="userSpaceOnUse">
<stop stop-color="#F4853B"/>
<stop offset="1" stop-color="#3448F5"/>
</linearGradient>
<linearGradient id="paint2_linear_6687_6561" x1="16.3522" y1="7.64453" x2="16.3522" y2="27.888" gradientUnits="userSpaceOnUse">
<stop stop-color="#F4853B"/>
<stop offset="1" stop-color="#3448F5"/>
</linearGradient>
<linearGradient id="paint3_linear_6687_6561" x1="26.9905" y1="7.64453" x2="26.9905" y2="27.8904" gradientUnits="userSpaceOnUse">
<stop stop-color="#F4853B"/>
<stop offset="1" stop-color="#3448F5"/>
</linearGradient>
<linearGradient id="paint4_linear_6687_6561" x1="16.3707" y1="11.4102" x2="16.3707" y2="12.855" gradientUnits="userSpaceOnUse">
<stop stop-color="#F4853B"/>
<stop offset="1" stop-color="#3448F5"/>
</linearGradient>
<linearGradient id="paint5_linear_6687_6561" x1="16.3707" y1="14.9727" x2="16.3707" y2="16.4175" gradientUnits="userSpaceOnUse">
<stop stop-color="#F4853B"/>
<stop offset="1" stop-color="#3448F5"/>
</linearGradient>
<linearGradient id="paint6_linear_6687_6561" x1="16.3707" y1="18.5352" x2="16.3707" y2="19.98" gradientUnits="userSpaceOnUse">
<stop stop-color="#F4853B"/>
<stop offset="1" stop-color="#3448F5"/>
</linearGradient>
<linearGradient id="paint7_linear_6687_6561" x1="27.0075" y1="14.9727" x2="27.0075" y2="16.4175" gradientUnits="userSpaceOnUse">
<stop stop-color="#F4853B"/>
<stop offset="1" stop-color="#3448F5"/>
</linearGradient>
<linearGradient id="paint8_linear_6687_6561" x1="25.7872" y1="18.5352" x2="25.7872" y2="19.98" gradientUnits="userSpaceOnUse">
<stop stop-color="#F4853B"/>
<stop offset="1" stop-color="#3448F5"/>
</linearGradient>
<linearGradient id="paint9_linear_6687_6561" x1="27.0075" y1="11.4102" x2="27.0075" y2="12.855" gradientUnits="userSpaceOnUse">
<stop stop-color="#F4853B"/>
<stop offset="1" stop-color="#3448F5"/>
</linearGradient>
</defs>
</svg>
