<svg width="61" height="60" viewBox="0 0 61 60" fill="none" xmlns="http://www.w3.org/2000/svg">
<path d="M44.3809 22.5922C43.9661 22.404 43.4903 22.6205 43.3186 23.0763L41.5022 27.9009L39.6858 23.0763C39.5142 22.6207 39.0386 22.4036 38.6236 22.5922C38.2085 22.7806 38.011 23.3028 38.1827 23.7585L40.7095 30.4699C40.9935 31.2243 42.0211 31.1976 42.295 30.4699L44.8218 23.7585C44.9934 23.3028 44.796 22.7806 44.3809 22.5922ZM49.9416 27.6977C52.2569 26.3617 51.3717 22.5245 48.7835 22.5245H46.7272C46.2781 22.5245 45.9139 22.9242 45.9139 23.4174V30.1933C45.9139 30.6866 46.278 31.0862 46.7272 31.0862C47.1763 31.0862 47.5404 30.6864 47.5404 30.1933V28.0113H48.1809L49.7903 30.6856C50.0378 31.097 50.5424 31.2103 50.9171 30.9383C51.2918 30.6665 51.3949 30.1126 51.1472 29.701L49.9416 27.6977ZM48.7835 26.2256H47.5404V24.3104H48.7835C49.2644 24.3104 49.6556 24.74 49.6556 25.268C49.6556 25.7959 49.2644 26.2256 48.7835 26.2256ZM8.44944 30.3254C8.00033 30.3254 7.63627 30.7252 7.63627 31.2184V32.62C7.63627 33.1133 8.00033 33.513 8.44944 33.513C8.89855 33.513 9.26272 33.1133 9.26272 32.62V31.2184C9.26272 30.7252 8.89855 30.3254 8.44944 30.3254ZM12.4485 20.7356C9.66004 20.7356 7.63616 22.9579 7.63616 26.0198V28.1817C7.63616 28.6749 8.00022 29.0747 8.44933 29.0747C8.89844 29.0747 9.26261 28.6749 9.26261 28.1817V26.0198C9.26261 24.2785 10.2477 22.5216 12.4485 22.5216C12.8977 22.5216 13.2618 22.1219 13.2618 21.6286C13.2618 21.1354 12.8977 20.7356 12.4485 20.7356ZM56.8456 25.4916H56.0249C55.9735 21.0451 52.6652 17.4447 48.6036 17.4447H35.8771V16.5461C35.8771 15.2994 34.9535 14.2852 33.8182 14.2852H26.8481C25.7128 14.2852 24.7892 15.2994 24.7892 16.5461V17.4447H12.0627C8.00123 17.4447 4.69286 21.0452 4.64141 25.4916H3.82065C2.68538 25.4916 1.76172 26.5058 1.76172 27.7525V35.4059C1.76172 36.6525 2.68538 37.6667 3.82076 37.6667H4.64152C4.69286 42.1132 8.00123 45.7137 12.0628 45.7137H24.4028C26.0997 45.7137 27.4801 44.1979 27.4801 42.3348C27.4801 41.3927 28.178 40.6264 29.0359 40.6264H31.6305C32.4884 40.6264 33.1863 41.3928 33.1863 42.3348C33.1863 44.1979 34.5667 45.7137 36.2636 45.7137H48.6036C52.6652 45.7137 55.9735 42.1132 56.0249 37.6667H56.8456C57.9809 37.6667 58.9046 36.6525 58.9046 35.4059V27.7525C58.9046 26.5058 57.9809 25.4916 56.8456 25.4916ZM4.63906 35.8807H3.82076C3.58225 35.8807 3.38817 35.6677 3.38817 35.4058V27.7524C3.38817 27.4905 3.58225 27.2774 3.82076 27.2774H4.63906V35.8807ZM26.4156 16.5461C26.4156 16.2842 26.6097 16.0711 26.8481 16.0711H33.8182C34.0567 16.0711 34.2507 16.2842 34.2507 16.5461V17.4447H26.4156V16.5461ZM54.3866 37.5623C54.3866 41.0636 51.7923 43.9123 48.6036 43.9123H36.2636C35.4714 43.9123 34.8269 43.2045 34.8269 42.3347C34.8269 40.3993 33.393 38.8248 31.6304 38.8248H29.0358C27.2733 38.8248 25.8393 40.3993 25.8393 42.3347C25.8393 43.2045 25.1949 43.9123 24.4026 43.9123H12.0627C8.87399 43.9123 6.27969 41.0636 6.27969 37.5623V25.596C6.27969 22.0947 8.87399 19.246 12.0627 19.246H48.6036C51.7923 19.246 54.3866 22.0947 54.3866 25.596V37.5623ZM57.2781 35.4059C57.2781 35.6678 57.084 35.8808 56.8456 35.8808H56.0273V27.2776H56.8456C57.0841 27.2776 57.2781 27.4907 57.2781 27.7526V35.4059Z" fill="url(#paint0_linear_6687_6291)"/>
<defs>
<linearGradient id="paint0_linear_6687_6291" x1="30.3331" y1="14.2852" x2="30.3331" y2="51.1887" gradientUnits="userSpaceOnUse">
<stop stop-color="#F4853B"/>
<stop offset="1" stop-color="#3448F5"/>
</linearGradient>
</defs>
</svg>
