<svg width="61" height="60" viewBox="0 0 61 60" fill="none" xmlns="http://www.w3.org/2000/svg">
<path d="M52.1062 43.5777C52.4375 43.5777 52.7063 43.309 52.7063 42.9777V19.1074C52.7063 17.5059 51.4031 16.2031 49.8016 16.2031H41.4828C41.1516 16.2031 40.8828 16.4719 40.8828 16.8031C40.8828 17.1344 41.1516 17.4031 41.4828 17.4031H49.8016C50.7414 17.4031 51.5063 18.1676 51.5063 19.1074V42.9777C51.5063 43.309 51.775 43.5777 52.1062 43.5777Z" fill="url(#paint0_linear_6687_6312)"/>
<path d="M8.63281 22.1039V42.9742C8.63281 43.3055 8.90156 43.5742 9.23281 43.5742C9.56406 43.5742 9.83281 43.3055 9.83281 42.9742V22.1039C9.83281 21.7727 9.56406 21.5039 9.23281 21.5039C8.90156 21.5039 8.63281 21.7727 8.63281 22.1039Z" fill="url(#paint1_linear_6687_6312)"/>
<path d="M55.4336 44.9648H5.90469C5.11328 44.9648 4.46875 45.609 4.46875 46.4004V47.2426C4.46875 49.7637 6.52031 51.8145 9.04141 51.8145H52.2969C54.818 51.8145 56.8688 49.7637 56.8688 47.2426V46.4004C56.8688 45.609 56.225 44.9648 55.4336 44.9648ZM55.6688 47.2426C55.6688 49.102 54.1562 50.6145 52.2969 50.6145H9.04141C7.18203 50.6145 5.66875 49.102 5.66875 47.2426V46.4004C5.66875 45.8961 3.40797 46.2751 55.4336 46.1648C55.5633 46.1648 55.6688 46.2703 55.6688 46.4004V47.2426Z" fill="url(#paint2_linear_6687_6312)"/>
<path d="M36.8095 22.5795C37.2147 22.6062 37.7118 22.2934 37.8173 21.7682C38.0994 20.3613 38.2736 19.5764 38.2938 19.3799C38.3165 18.9807 38.079 18.5889 37.8118 18.2502C37.886 17.4151 37.9188 14.9799 36.1454 13.1049C33.4058 10.2098 28.2179 10.9121 26.5204 13.1784C25.4711 14.5771 25.3508 16.6842 25.1415 17.9346C24.634 17.9841 24.1407 18.5113 24.2657 19.1436L24.736 21.4623C24.8672 21.8914 25.1998 22.1828 25.6532 22.2065C26.0689 22.9238 26.6337 24.9192 27.9353 26.0256C29.2633 27.157 31.9881 27.636 33.8962 26.5272C35.6463 25.5096 36.1238 23.8511 36.8095 22.5795ZM28.7134 25.1119C27.1618 23.7939 27.0621 21.0579 25.8642 21.0037L25.4985 19.208C26.1892 19.2034 26.2813 18.51 26.422 17.4631C26.829 14.408 27.3332 12.9188 30.4485 12.4682C30.5681 12.4463 33.4118 11.9616 35.2735 13.9299C36.9282 15.6784 36.6259 18.126 36.6056 18.2784C36.5931 18.328 36.586 18.3803 36.586 18.4315H36.5946C36.6206 18.8714 36.9589 18.9796 37.0892 19.3295L36.6837 21.3213C35.4708 21.1175 35.4365 24.2445 33.2931 25.4897C31.7897 26.3639 29.6201 25.8839 28.7134 25.1119Z" fill="url(#paint3_linear_6687_6312)"/>
<path d="M33.1223 29.9002C33.7204 29.1785 33.222 28.3946 32.2168 28.3904C30.0497 28.3826 30.079 28.3823 29.8793 28.44C29.1421 28.6558 28.9309 29.3365 29.4372 29.9287C29.7126 30.2668 29.8832 30.4873 30.102 30.6888C30.1043 30.6994 30.1075 30.7384 30.0864 30.8658C30.0272 31.2302 30.3081 31.5623 30.6793 31.5623C30.9653 31.5623 31.2176 31.3572 31.2692 31.0674C31.3504 31.3545 31.6325 31.5396 31.9364 31.497C32.2637 31.4474 32.4895 31.1416 32.4395 30.8138C32.4309 30.7556 32.4278 30.7216 32.4223 30.7146C32.6544 30.5021 32.8314 30.2693 33.1223 29.9002ZM31.2637 30.3912C31.1604 29.9886 30.9414 29.8658 30.7098 29.5892C31.0848 29.5884 31.4606 29.5888 31.8356 29.5892C31.5808 29.8939 31.3655 29.9943 31.2637 30.3912Z" fill="url(#paint4_linear_6687_6312)"/>
<path d="M35.1094 17.624C35.3391 17.865 35.718 17.8736 35.9578 17.647C36.1985 17.4193 36.2086 17.0392 35.9813 16.799C35.5049 16.2975 34.8171 15.6473 34.7188 15.4892C34.3824 14.9205 33.5919 14.8436 33.1524 15.3197C31.9188 16.6599 30.3664 16.8381 29.3321 16.7763C29.3836 16.6963 29.7402 16.4432 29.6758 15.8974C29.6422 15.6092 29.4844 15.3525 29.2422 15.1931C28.7962 14.8991 28.77 14.6237 28.3039 14.4799C27.5599 14.1511 27.05 15.3144 27.9117 15.6127C28.0696 15.7802 28.2242 15.9244 28.3735 16.0435L28.1641 16.2654C27.612 16.8503 27.9517 17.8149 28.7453 17.9232C29.0133 17.9599 29.3344 17.9877 29.6914 17.9877C30.8899 17.9877 32.4946 17.674 33.85 16.3256C34.1126 16.6398 34.6495 17.1379 35.1094 17.624Z" fill="url(#paint5_linear_6687_6312)"/>
<path d="M31.268 31.4766C30.9367 31.4766 30.668 31.7453 30.668 32.077L30.6688 34.3395C30.6688 34.6707 30.9375 34.9391 31.2688 34.9391C31.6 34.9391 31.8687 34.6703 31.8687 34.3387L31.868 32.0762C31.868 31.7449 31.5992 31.4766 31.268 31.4766Z" fill="url(#paint6_linear_6687_6312)"/>
<path d="M18.707 22.9152C19.1205 23.2548 19.7497 22.9171 19.682 22.3777L19.3273 19.4883H20.9539C21.7953 19.4883 22.4805 18.8031 22.4805 17.9613V9.71445C22.4805 8.87266 21.7953 8.1875 20.9539 8.1875H6.40625C5.56406 8.1875 4.87891 8.87266 4.87891 9.71445V17.9613C4.87891 18.8031 5.56406 19.4883 6.40625 19.4883H14.5133L18.707 22.9152ZM6.07891 17.9613V9.71445C6.07891 9.53398 6.22578 9.3875 6.40625 9.3875H20.9539C21.1336 9.3875 21.2805 9.53398 21.2805 9.71445V17.9613C21.2805 18.1418 21.1336 18.2883 20.9539 18.2883H18.6492C18.2896 18.2883 18.0096 18.6038 18.0539 18.9613L18.3094 21.0402L15.107 18.4238C15 18.3359 14.8656 18.2883 14.7273 18.2883H6.40625C6.22578 18.2883 6.07891 18.1418 6.07891 17.9613Z" fill="url(#paint7_linear_6687_6312)"/>
<path d="M11.4633 12.5477H15.2523C15.5836 12.5477 15.8523 12.2789 15.8523 11.9477C15.8523 11.6164 15.5836 11.3477 15.2523 11.3477H11.4633C11.132 11.3477 10.8633 11.6164 10.8633 11.9477C10.8633 12.2789 11.132 12.5477 11.4633 12.5477Z" fill="url(#paint8_linear_6687_6312)"/>
<path d="M17.8797 15.0883C17.8797 14.757 17.6109 14.4883 17.2797 14.4883H9.43594C9.10469 14.4883 8.83594 14.757 8.83594 15.0883C8.83594 15.4195 9.10469 15.6883 9.43594 15.6883H17.2797C17.6109 15.6883 17.8797 15.4195 17.8797 15.0883Z" fill="url(#paint9_linear_6687_6312)"/>
<path d="M30.6674 49.5341C31.2993 49.5341 31.8114 49.0219 31.8114 48.3901C31.8114 47.7583 31.2993 47.2461 30.6674 47.2461C30.0356 47.2461 29.5234 47.7583 29.5234 48.3901C29.5234 49.0219 30.0356 49.5341 30.6674 49.5341Z" fill="url(#paint10_linear_6687_6312)"/>
<path d="M36.972 28.95L41.6119 30.991C42.7322 31.484 43.6213 32.4238 44.0525 33.5691L45.3017 36.8902C45.3924 37.1309 45.6205 37.2789 45.8634 37.2789C45.9338 37.2789 46.0049 37.2668 46.0744 37.2406C46.3845 37.1238 46.5416 36.7777 46.4252 36.4676L45.1759 33.1465C44.6314 31.7012 43.5088 30.5152 42.0947 29.8926L37.4549 27.8516C37.1556 27.7188 36.7986 27.8551 36.6642 28.1594C36.5306 28.4625 36.6689 28.8164 36.972 28.95Z" fill="url(#paint11_linear_6687_6312)"/>
<path d="M16.854 37.2401C17.1599 37.3553 17.5086 37.2034 17.6267 36.8897L18.8759 33.5686C19.3072 32.4233 20.1962 31.4835 21.3165 30.9905L25.9564 28.9495C26.2595 28.8159 26.3978 28.462 26.2642 28.1589C26.1298 27.8546 25.7728 27.7194 25.4736 27.8511L20.8337 29.8921C19.4197 30.5147 18.297 31.7007 17.7525 33.146L16.5033 36.4671C16.3869 36.7772 16.5439 37.1233 16.854 37.2401Z" fill="url(#paint12_linear_6687_6312)"/>
<defs>
<linearGradient id="paint0_linear_6687_6312" x1="49.0507" y1="9.49764" x2="46.4458" y2="45.4095" gradientUnits="userSpaceOnUse">
<stop stop-color="#F4853B"/>
<stop offset="1" stop-color="#3448F5"/>
</linearGradient>
<linearGradient id="paint1_linear_6687_6312" x1="9.4618" y1="16.0977" x2="-3.12898" y2="37.9484" gradientUnits="userSpaceOnUse">
<stop stop-color="#F4853B"/>
<stop offset="1" stop-color="#3448F5"/>
</linearGradient>
<linearGradient id="paint2_linear_6687_6312" x1="40.668" y1="43.287" x2="40.631" y2="52.3199" gradientUnits="userSpaceOnUse">
<stop stop-color="#F4853B"/>
<stop offset="1" stop-color="#3448F5"/>
</linearGradient>
<linearGradient id="paint3_linear_6687_6312" x1="33.9517" y1="7.2858" x2="33.2035" y2="28.3071" gradientUnits="userSpaceOnUse">
<stop stop-color="#F4853B"/>
<stop offset="1" stop-color="#3448F5"/>
</linearGradient>
<linearGradient id="paint4_linear_6687_6312" x1="32.0757" y1="27.6089" x2="31.977" y2="31.7944" gradientUnits="userSpaceOnUse">
<stop stop-color="#F4853B"/>
<stop offset="1" stop-color="#3448F5"/>
</linearGradient>
<linearGradient id="paint5_linear_6687_6312" x1="33.4603" y1="13.5484" x2="33.3998" y2="18.2501" gradientUnits="userSpaceOnUse">
<stop stop-color="#F4853B"/>
<stop offset="1" stop-color="#3448F5"/>
</linearGradient>
<linearGradient id="paint6_linear_6687_6312" x1="31.4975" y1="30.6284" x2="31.0883" y2="35.1577" gradientUnits="userSpaceOnUse">
<stop stop-color="#F4853B"/>
<stop offset="1" stop-color="#3448F5"/>
</linearGradient>
<linearGradient id="paint7_linear_6687_6312" x1="17.0385" y1="4.54649" x2="16.5202" y2="24.1352" gradientUnits="userSpaceOnUse">
<stop stop-color="#F4853B"/>
<stop offset="1" stop-color="#3448F5"/>
</linearGradient>
<linearGradient id="paint8_linear_6687_6312" x1="14.3098" y1="11.0537" x2="14.2979" y2="12.6361" gradientUnits="userSpaceOnUse">
<stop stop-color="#F4853B"/>
<stop offset="1" stop-color="#3448F5"/>
</linearGradient>
<linearGradient id="paint9_linear_6687_6312" x1="15.0836" y1="14.1943" x2="15.077" y2="15.7768" gradientUnits="userSpaceOnUse">
<stop stop-color="#F4853B"/>
<stop offset="1" stop-color="#3448F5"/>
</linearGradient>
<linearGradient id="paint10_linear_6687_6312" x1="31.104" y1="46.6856" x2="31.0096" y2="49.7" gradientUnits="userSpaceOnUse">
<stop stop-color="#F4853B"/>
<stop offset="1" stop-color="#3448F5"/>
</linearGradient>
<linearGradient id="paint11_linear_6687_6312" x1="43.4181" y1="25.4791" x2="43.0416" y2="37.9672" gradientUnits="userSpaceOnUse">
<stop stop-color="#F4853B"/>
<stop offset="1" stop-color="#3448F5"/>
</linearGradient>
<linearGradient id="paint12_linear_6687_6312" x1="23.2697" y1="25.4792" x2="22.8932" y2="37.9668" gradientUnits="userSpaceOnUse">
<stop stop-color="#F4853B"/>
<stop offset="1" stop-color="#3448F5"/>
</linearGradient>
</defs>
</svg>
