<svg width="42" height="42" viewBox="0 0 42 42" fill="none" xmlns="http://www.w3.org/2000/svg">
<path d="M13.7274 25.8477C13.8987 25.9192 14.0915 25.9197 14.2631 25.8491C14.4348 25.7785 14.5715 25.6425 14.6429 25.4712L15.63 23.1017H19.3638L20.3508 25.4712C20.4996 25.828 20.9096 25.9966 21.2664 25.8478C21.6232 25.699 21.7918 25.289 21.643 24.9322L18.143 16.5322C18.0343 16.2715 17.7795 16.1016 17.4969 16.1016C17.2144 16.1016 16.9596 16.2715 16.8509 16.5322L13.3509 24.9322C13.2794 25.1036 13.2789 25.2963 13.3495 25.468C13.4201 25.6397 13.556 25.7763 13.7274 25.8477ZM17.4969 18.6216L18.78 21.7017H16.2137L17.4969 18.6216Z" fill="url(#paint0_linear_6687_6349)"/>
<path fill-rule="evenodd" clip-rule="evenodd" d="M23.0985 24.5016C22.7118 24.5016 22.3984 24.815 22.3984 25.2016C22.3984 25.5882 22.7118 25.9016 23.0985 25.9016H27.2985C27.6851 25.9016 27.9985 25.5882 27.9985 25.2016C27.9985 24.815 27.6851 24.5016 27.2985 24.5016H25.8984V17.5016H27.2985C27.6851 17.5016 27.9985 17.1882 27.9985 16.8016C27.9985 16.415 27.6851 16.1016 27.2985 16.1016H23.0985C22.7118 16.1016 22.3984 16.415 22.3984 16.8016C22.3984 17.1882 22.7118 17.5016 23.0985 17.5016H24.4985V24.5016H23.0985Z" fill="url(#paint1_linear_6687_6349)"/>
<path d="M0.69646 30.8C0.69646 32.3464 1.95009 33.6 3.49644 33.6C3.84717 33.5987 4.19446 33.5307 4.51983 33.3998C6.17462 34.6668 8.50986 35.3276 11.3798 35.3276C11.8124 35.3276 12.2619 35.3073 12.7175 35.2779C14.7503 39.4317 17.6833 42 20.9964 42C24.3095 42 27.2425 39.4317 29.276 35.28C29.7324 35.3094 30.1811 35.3297 30.6137 35.3297C33.4837 35.3297 35.8189 34.6688 37.4737 33.4019C37.799 33.532 38.146 33.5992 38.4964 33.6C39.7322 33.5965 40.8196 32.7831 41.1721 31.5985C41.5245 30.414 41.0588 29.1385 40.0259 28.4599C40.1238 26.2059 39.2523 23.648 37.4786 21C39.2523 18.3526 40.1239 15.7948 40.0259 13.5401C41.236 12.7591 41.6541 11.1861 40.9915 9.9073C40.3288 8.62853 38.8025 8.06313 37.4667 8.60152C35.5648 7.14625 32.7564 6.50155 29.2766 6.72835C27.2454 2.57112 24.311 0 20.9965 0C17.6819 0 14.7476 2.57112 12.7141 6.72842C9.23577 6.503 6.42877 7.14838 4.52404 8.60159C3.18905 8.06754 1.66667 8.63377 1.0051 9.9104C0.343526 11.187 0.758739 12.7574 1.96483 13.5401C1.86825 15.7934 2.74042 18.3512 4.51425 21C2.74042 23.6481 1.86825 26.2059 1.96697 28.4599C1.17526 28.9752 0.697356 29.8554 0.69646 30.8ZM2.09649 30.8C2.09649 30.0268 2.72327 29.4 3.49651 29.4C4.26976 29.4 4.89654 30.0268 4.89654 30.8C4.89654 31.5732 4.26976 32.2 3.49651 32.2C3.12518 32.2 2.76908 32.0525 2.50653 31.79C2.24398 31.5274 2.09649 31.1713 2.09649 30.8ZM13.5828 8.20402C15.4463 8.42716 17.2823 8.83927 19.0624 9.43395C17.8095 9.99314 16.5859 10.616 15.3965 11.3002C14.203 11.989 13.0468 12.7407 11.9329 13.552C12.2999 11.718 12.8527 9.92604 13.5828 8.20402ZM30.0594 13.552C28.9458 12.7406 27.7899 11.9889 26.5964 11.3002C25.4088 10.6168 24.1874 9.99397 22.9368 9.43395C24.7151 8.83955 26.5492 8.4275 28.4109 8.20402C29.1405 9.92611 29.6928 11.718 30.0594 13.552ZM28.4102 33.7961C26.5466 33.5729 24.7107 33.1608 22.9306 32.5661C24.1835 32.0069 25.4071 31.3841 26.5964 30.6999C27.79 30.0111 28.9461 29.2594 30.0601 28.448C29.6931 30.2821 29.1403 32.074 28.4102 33.7961ZM25.8965 12.5132C27.4751 13.4217 28.9842 14.4458 30.4115 15.5771C30.6689 17.3733 30.7976 19.1856 30.7965 21C30.7978 22.8145 30.6693 24.6268 30.4122 26.4229C28.9846 27.5542 27.4752 28.5784 25.8965 29.4869C24.3228 30.3971 22.6852 31.192 20.9965 31.8654C19.3077 31.1917 17.6701 30.3962 16.0965 29.4854C14.5179 28.5769 13.0088 27.5528 11.5815 26.4215C11.0691 22.8244 11.0691 19.1728 11.5815 15.5757C13.0089 14.4449 14.518 13.4213 16.0965 12.5131C17.6715 11.6023 19.3106 10.8068 21.0007 10.1331C22.688 10.8072 24.3242 11.6026 25.8965 12.5132ZM31.9865 16.9001C33.3827 18.1361 34.6507 19.5097 35.7714 21C34.6523 22.4901 33.3858 23.8637 31.9915 25.0999C32.1289 23.7377 32.1974 22.3693 32.1965 21C32.197 19.6308 32.128 18.2624 31.9901 16.9001H31.9865ZM10.0065 25.0999C8.60996 23.8643 7.34186 22.4907 6.22154 21C7.34069 19.51 8.60706 18.1364 10.0015 16.9001C9.72615 19.6265 9.72615 22.3736 10.0015 25.0999H10.0065ZM15.4007 30.6999C16.5883 31.3832 17.8097 32.0061 19.0603 32.5661C17.282 33.1605 15.4479 33.5726 13.5862 33.7961C12.8564 32.074 12.3038 30.2821 11.937 28.448C13.0495 29.2594 14.2043 30.0111 15.3965 30.6999H15.4007ZM20.9965 40.6C18.3673 40.6 15.9782 38.5147 14.2163 35.1324C16.5362 34.8035 18.811 34.2106 20.9965 33.3655C23.1828 34.2111 25.4586 34.8038 27.7795 35.1324C26.0141 38.5147 23.6257 40.6 20.9965 40.6ZM38.4965 32.2C37.7233 32.2 37.0965 31.5732 37.0965 30.8C37.0965 30.0268 37.7233 29.4 38.4965 29.4C39.2698 29.4 39.8965 30.0268 39.8965 30.8C39.8965 31.5732 39.2697 32.2 38.4965 32.2ZM38.6435 28.0147C38.5938 28.0147 38.5469 28 38.4965 28C36.95 28 35.6965 29.2537 35.6965 30.8C35.6991 31.426 35.9135 32.0326 36.3048 32.5213C34.7802 33.5272 32.5549 34.0053 29.8893 33.9052C30.7572 31.737 31.3723 29.476 31.7226 27.167C33.5331 25.7091 35.1716 24.0496 36.6065 22.2208C37.7884 23.9368 38.4916 25.9367 38.6435 28.0147ZM39.8965 11.2C39.8965 11.9732 39.2697 12.6 38.4965 12.6C37.7232 12.6 37.0964 11.9732 37.0964 11.2C37.0964 10.4268 37.7232 9.79997 38.4965 9.79997C39.2697 9.79997 39.8965 10.4268 39.8965 11.2ZM36.3048 9.47873C35.9136 9.96738 35.6992 10.574 35.6965 11.2C35.6965 12.7464 36.9501 14 38.4965 14C38.5469 14 38.5937 13.9881 38.6435 13.9853C38.4917 16.0634 37.7886 18.0634 36.6065 19.7792C35.1714 17.9503 33.5326 16.2908 31.7219 14.833C31.3711 12.5239 30.7553 10.2629 29.8865 8.09482C32.5542 7.99403 34.7809 8.47001 36.3048 9.47873ZM20.9965 1.40003C23.6257 1.40003 26.0148 3.48532 27.7767 6.86772C25.4579 7.19688 23.1843 7.78963 21 8.63452C18.8137 7.78901 16.5379 7.19626 14.217 6.86772C15.9789 3.48532 18.3673 1.40003 20.9965 1.40003ZM3.49644 9.80004C4.26962 9.80004 4.89647 10.4268 4.89647 11.2001C4.89647 11.9733 4.26969 12.6001 3.49644 12.6001C2.7232 12.6001 2.09642 11.9733 2.09642 11.2001C2.09642 10.4268 2.72327 9.80004 3.49644 9.80004ZM3.3495 13.9853C3.39917 13.9853 3.44608 14 3.49651 14C5.04293 14 6.29649 12.7463 6.29649 11.2C6.29387 10.574 6.07948 9.96731 5.68818 9.47873C7.21207 8.47283 9.43735 7.99541 12.1037 8.09482C11.2358 10.263 10.6206 12.524 10.2704 14.833C8.46005 16.2908 6.82152 17.95 5.3865 19.7785C4.20417 18.063 3.50099 16.0632 3.3495 13.9853ZM5.3865 22.2215C6.82221 24.0498 8.46115 25.709 10.2718 27.167C10.6224 29.4763 11.2381 31.7376 12.1065 33.9059C9.44231 34.0067 7.21558 33.5272 5.691 32.5213C6.08127 32.0323 6.29463 31.4256 6.29649 30.8C6.29649 29.2536 5.04286 28 3.49651 28C3.44608 28 3.39924 28.0126 3.3495 28.0147C3.50126 25.9368 4.20438 23.9371 5.3865 22.2215Z" fill="url(#paint2_linear_6687_6349)"/>
<defs>
<linearGradient id="paint0_linear_6687_6349" x1="17.497" y1="16.1016" x2="17.497" y2="27.6092" gradientUnits="userSpaceOnUse">
<stop stop-color="#F4853B"/>
<stop offset="1" stop-color="#3448F5"/>
</linearGradient>
<linearGradient id="paint1_linear_6687_6349" x1="25.1985" y1="16.1016" x2="25.1985" y2="27.6088" gradientUnits="userSpaceOnUse">
<stop stop-color="#F4853B"/>
<stop offset="1" stop-color="#3448F5"/>
</linearGradient>
<linearGradient id="paint2_linear_6687_6349" x1="20.9982" y1="0" x2="20.9982" y2="49.3166" gradientUnits="userSpaceOnUse">
<stop stop-color="#F4853B"/>
<stop offset="1" stop-color="#3448F5"/>
</linearGradient>
</defs>
</svg>
