<svg width="43" height="42" viewBox="0 0 43 42" fill="none" xmlns="http://www.w3.org/2000/svg">
<g opacity="0.7" clip-path="url(#clip0_6687_6373)">
<g clip-path="url(#clip1_6687_6373)">
<mask id="path-1-outside-1_6687_6373" maskUnits="userSpaceOnUse" x="0.46875" y="0.8125" width="42" height="40" fill="black">
<rect fill="white" x="0.46875" y="0.8125" width="42" height="40"/>
<path fill-rule="evenodd" clip-rule="evenodd" d="M10.429 35.894L10.4607 36.0121C10.4411 35.9759 10.4255 35.9375 10.4142 35.8977C10.3935 35.8246 10.3876 35.7481 10.397 35.6727C10.4064 35.5973 10.4308 35.5245 10.4688 35.4588C10.5068 35.393 10.5576 35.3355 10.6182 35.2897C10.6789 35.2439 10.7481 35.2108 10.8218 35.1923C10.8508 35.1849 10.8804 35.18 10.9101 35.1773L10.8303 35.1987C10.7583 35.218 10.6908 35.2513 10.6317 35.2967C10.5725 35.3421 10.5229 35.3987 10.4857 35.4632C10.4484 35.5278 10.4242 35.5991 10.4145 35.673C10.4048 35.7469 10.4097 35.822 10.429 35.894Z"/>
<path d="M19.9176 30.0242C17.9869 30.0242 16.0995 29.4517 14.4941 28.379C12.8887 27.3063 11.6375 25.7817 10.8986 23.9978C10.1597 22.214 9.96638 20.2512 10.3431 18.3575C10.7197 16.4639 11.6495 14.7244 13.0147 13.3591C14.38 11.9939 16.1195 11.0641 18.0131 10.6874C19.9068 10.3108 21.8697 10.5041 23.6535 11.243C25.4373 11.9818 26.9619 13.2331 28.0346 14.8385C29.1073 16.4438 29.6798 18.3313 29.6798 20.262C29.6765 22.8501 28.6469 25.3312 26.8169 27.1613C24.9868 28.9913 22.5057 30.0209 19.9176 30.0242ZM19.9176 11.635C18.2114 11.635 16.5434 12.141 15.1247 13.0889C13.706 14.0369 12.6003 15.3842 11.9473 16.9606C11.2943 18.537 11.1235 20.2716 11.4564 21.9451C11.7893 23.6186 12.6109 25.1558 13.8174 26.3623C15.0239 27.5688 16.5611 28.3904 18.2346 28.7233C19.9081 29.0562 21.6427 28.8853 23.2191 28.2324C24.7954 27.5794 26.1428 26.4737 27.0908 25.055C28.0387 23.6362 28.5447 21.9683 28.5447 20.262C28.5418 17.9749 27.632 15.7822 26.0147 14.165C24.3975 12.5477 22.2048 11.6379 19.9176 11.635Z"/>
<path fill-rule="evenodd" clip-rule="evenodd" d="M19.9598 16.0205C19.9303 16.0198 19.9007 16.0199 19.8711 16.0206C19.8856 16.0217 19.9002 16.0223 19.9148 16.0223C19.9299 16.0223 19.9449 16.0217 19.9598 16.0205Z"/>
<path fill-rule="evenodd" clip-rule="evenodd" d="M37.9141 20.8174C37.9141 20.8174 37.9142 20.8174 37.9141 20.8174V20.8174Z"/>
<path d="M35.389 12.501C36.3833 14.4817 36.9864 16.6306 37.1704 18.8303L35.3674 17.0269C35.3146 16.9742 35.252 16.9324 35.1831 16.9039C35.1142 16.8754 35.0403 16.8608 34.9657 16.8609C34.8911 16.8609 34.8173 16.8756 34.7484 16.9042C34.6796 16.9328 34.617 16.9747 34.5643 17.0275C34.5116 17.0802 34.4698 17.1429 34.4413 17.2118C34.4128 17.2807 34.3982 17.3546 34.3982 17.4291C34.3983 17.5037 34.413 17.5775 34.4416 17.6464C34.4702 17.7153 34.5121 17.7779 34.5649 17.8306L37.3962 20.6626C37.5026 20.769 37.6478 20.8296 37.7983 20.8296L37.808 20.8295C37.8412 20.8289 37.874 20.8254 37.9062 20.819C37.9088 20.8185 37.9115 20.818 37.9141 20.8174C37.9165 20.8169 37.9189 20.8164 37.9213 20.8158C37.9534 20.8086 37.985 20.7986 38.0156 20.7858C38.065 20.7653 38.1118 20.7383 38.1539 20.7044C38.1699 20.6916 38.1851 20.678 38.1996 20.6634L41.0323 17.8294C41.0865 17.7771 41.1297 17.7145 41.1595 17.6452C41.1892 17.576 41.2049 17.5015 41.2055 17.4261C41.2062 17.3508 41.1918 17.276 41.1633 17.2063C41.1348 17.1365 41.0926 17.0732 41.0393 17.0199C40.986 16.9666 40.9227 16.9244 40.8529 16.8959C40.7832 16.8674 40.7084 16.853 40.6331 16.8536C40.5577 16.8543 40.4832 16.87 40.414 16.8997C40.3447 16.9294 40.2821 16.9727 40.2297 17.0269L38.3176 18.9391C38.1425 16.5245 37.4939 14.1634 36.4041 11.9921C35.1158 9.42559 33.2466 7.19497 30.945 5.47759C28.6435 3.76022 25.973 2.60346 23.1459 2.09927C20.3188 1.59508 17.4131 1.75736 14.6597 2.57322C14.5188 2.61881 14.4013 2.71766 14.3323 2.84867C14.2633 2.97968 14.2482 3.13247 14.2903 3.27445C14.3323 3.41643 14.4282 3.53634 14.5575 3.60861C14.6867 3.68087 14.8391 3.69976 14.9821 3.66125C17.5661 2.89579 20.2931 2.74365 22.9462 3.21691C25.5994 3.69017 28.1055 4.77579 30.2656 6.38747C32.4256 7.99916 34.1798 10.0925 35.389 12.501Z"/>
<path d="M11.8638 36.864C14.369 38.0786 17.1221 38.7129 19.9176 38.712C24.0153 38.7158 27.9973 37.354 31.2346 34.8418C34.4718 32.3296 36.7796 28.8103 37.7932 24.84C37.8258 24.6959 37.801 24.5446 37.7238 24.4185C37.6467 24.2924 37.5234 24.2013 37.3802 24.1647C37.2369 24.1281 37.0851 24.1489 36.9569 24.2225C36.8287 24.2962 36.7343 24.4169 36.6938 24.5591C36.0297 27.1474 34.7759 29.5469 33.0303 31.5701C31.2848 33.5933 29.0949 35.1853 26.6319 36.2215C24.1689 37.2578 21.4995 37.7102 18.8326 37.5434C16.6409 37.4063 14.4997 36.8541 12.5215 35.9206L14.9929 35.2583C15.1376 35.2188 15.2609 35.1236 15.3357 34.9935C15.4105 34.8634 15.4307 34.709 15.3919 34.564C15.3531 34.419 15.2584 34.2953 15.1287 34.2199C14.9989 34.1446 14.8446 34.1236 14.6994 34.1618L10.9101 35.1773L10.8303 35.1987C10.7583 35.218 10.6908 35.2513 10.6317 35.2967C10.5725 35.3421 10.5229 35.3987 10.4857 35.4632C10.4484 35.5278 10.4242 35.5991 10.4145 35.673C10.4048 35.7469 10.4097 35.822 10.429 35.894L10.4607 36.0121L11.4654 39.7631C11.4978 39.8838 11.5691 39.9904 11.6682 40.0664C11.7673 40.1425 11.8888 40.1837 12.0137 40.1837C12.0633 40.1836 12.1127 40.1771 12.1607 40.1644C12.2327 40.1451 12.3002 40.1118 12.3593 40.0664C12.4185 40.021 12.4681 39.9644 12.5053 39.8998C12.5426 39.8353 12.5668 39.764 12.5765 39.6901C12.5862 39.6162 12.5813 39.5411 12.562 39.4691L11.8638 36.864Z"/>
<path d="M6.96064 4.28898L9.57136 4.9885C7.26979 6.55413 5.34581 8.62206 3.94864 11.0427C2.33046 13.8463 1.47545 17.025 1.46886 20.262C1.46047 22.7282 1.95044 25.1706 2.90937 27.4427C3.86829 29.7148 5.2764 31.7697 7.04918 33.4841C7.15554 33.5875 7.29814 33.6451 7.44648 33.6447C7.55956 33.645 7.66845 33.6105 7.76239 33.5475C7.85633 33.4846 7.92932 33.395 7.97201 33.2903C8.0147 33.1856 8.02514 33.0705 8.00199 32.9598C7.97883 32.8491 7.92315 32.7479 7.84207 32.6691C6.17824 31.0605 4.85659 29.1323 3.95647 27.0003C3.05635 24.8682 2.59632 22.5763 2.60399 20.262C2.61031 17.2241 3.41275 14.2409 4.93132 11.6098C6.21098 9.39262 7.9615 7.49069 10.0528 6.03448L9.3921 8.49976C9.36955 8.58386 9.36665 8.67202 9.38363 8.75743C9.4006 8.84283 9.437 8.92318 9.49001 8.99226C9.54301 9.06134 9.6112 9.1173 9.68929 9.15581C9.76739 9.19431 9.8533 9.21434 9.94037 9.21433C10.0653 9.21434 10.1868 9.17313 10.2859 9.0971C10.385 9.02106 10.4563 8.91443 10.4886 8.79376L11.525 4.92465C11.5443 4.85265 11.5493 4.77755 11.5396 4.70364C11.5298 4.62973 11.5057 4.55846 11.4684 4.4939C11.4311 4.42933 11.3815 4.37274 11.3224 4.32736C11.2633 4.28197 11.1958 4.24868 11.1237 4.22938L7.25464 3.19243C7.10923 3.15345 6.95429 3.17382 6.8239 3.24908C6.69351 3.32433 6.59836 3.44829 6.55937 3.59371C6.52038 3.73912 6.54076 3.89406 6.61601 4.02445C6.69126 4.15483 6.81523 4.24999 6.96064 4.28898Z"/>
<path d="M18.2663 20.3287C18.7551 20.6553 19.3298 20.8296 19.9176 20.8296C20.2809 20.8296 20.636 20.9373 20.9381 21.1391C21.2402 21.3408 21.4757 21.6276 21.6148 21.9632C21.7539 22.2988 21.7904 22.6681 21.7197 23.0244C21.649 23.3807 21.4743 23.7081 21.2175 23.9651C20.9608 24.2221 20.6337 24.3973 20.2775 24.4685C19.9212 24.5396 19.5519 24.5035 19.2161 24.3648C18.8804 24.2261 18.5933 23.991 18.3912 23.6892C18.189 23.3873 18.0809 23.0324 18.0804 22.6691C18.0804 22.5186 18.0206 22.3742 17.9142 22.2678C17.8077 22.1613 17.6634 22.1015 17.5129 22.1015C17.3623 22.1015 17.218 22.1613 17.1115 22.2678C17.0051 22.3742 16.9453 22.5186 16.9453 22.6691C16.946 23.4572 17.2594 24.2129 17.8167 24.7702C18.2375 25.1912 18.7715 25.473 19.3472 25.5862V26.062C19.3472 26.2125 19.407 26.3569 19.5135 26.4633C19.6199 26.5698 19.7643 26.6296 19.9148 26.6296C20.0653 26.6296 20.2097 26.5698 20.3161 26.4633C20.4226 26.3569 20.4824 26.2125 20.4824 26.062V25.5796C21.052 25.4604 21.5788 25.1749 21.9932 24.7547C22.5419 24.1984 22.8495 23.4485 22.8495 22.6671C22.8495 21.8857 22.5419 21.1358 21.9932 20.5795C21.4491 20.0278 20.7113 19.7105 19.937 19.6948C19.9306 19.6946 19.9241 19.6945 19.9176 19.6945C19.5543 19.6945 19.1991 19.5867 18.8969 19.3848C18.5948 19.183 18.3593 18.896 18.2203 18.5603C18.0812 18.2246 18.0448 17.8552 18.1157 17.4988C18.1866 17.1424 18.3616 16.8151 18.6185 16.5581C18.8755 16.3012 19.2028 16.1262 19.5592 16.0553C19.6625 16.0348 19.7668 16.0233 19.8711 16.0206C19.9007 16.0199 19.9303 16.0198 19.9598 16.0205C20.1857 16.0257 20.4098 16.0725 20.6207 16.1599C20.9564 16.2989 21.2434 16.5344 21.4452 16.8365C21.6471 17.1387 21.7549 17.4939 21.7549 17.8572C21.7549 18.0078 21.8147 18.1521 21.9211 18.2586C22.0275 18.365 22.1719 18.4248 22.3224 18.4248C22.473 18.4248 22.6173 18.365 22.7238 18.2586C22.8302 18.1521 22.89 18.0078 22.89 17.8572C22.89 17.2694 22.7157 16.6947 22.3891 16.2059C22.0625 15.7171 21.5982 15.3361 21.0551 15.1112C20.8696 15.0343 20.6776 14.9768 20.4824 14.939V14.4643C20.4824 14.3138 20.4226 14.1694 20.3161 14.063C20.2097 13.9566 20.0653 13.8968 19.9148 13.8968C19.7643 13.8968 19.6199 13.9566 19.5135 14.063C19.407 14.1694 19.3472 14.3138 19.3472 14.4643V14.9401L19.3378 14.942C18.7612 15.0567 18.2316 15.3398 17.8159 15.7555C17.4002 16.1712 17.1171 16.7008 17.0024 17.2774C16.8877 17.854 16.9466 18.4516 17.1715 18.9947C17.3965 19.5378 17.7775 20.0021 18.2663 20.3287Z"/>
</mask>
<path fill-rule="evenodd" clip-rule="evenodd" d="M10.429 35.894L10.4607 36.0121C10.4411 35.9759 10.4255 35.9375 10.4142 35.8977C10.3935 35.8246 10.3876 35.7481 10.397 35.6727C10.4064 35.5973 10.4308 35.5245 10.4688 35.4588C10.5068 35.393 10.5576 35.3355 10.6182 35.2897C10.6789 35.2439 10.7481 35.2108 10.8218 35.1923C10.8508 35.1849 10.8804 35.18 10.9101 35.1773L10.8303 35.1987C10.7583 35.218 10.6908 35.2513 10.6317 35.2967C10.5725 35.3421 10.5229 35.3987 10.4857 35.4632C10.4484 35.5278 10.4242 35.5991 10.4145 35.673C10.4048 35.7469 10.4097 35.822 10.429 35.894Z" fill="url(#paint0_linear_6687_6373)"/>
<path d="M19.9176 30.0242C17.9869 30.0242 16.0995 29.4517 14.4941 28.379C12.8887 27.3063 11.6375 25.7817 10.8986 23.9978C10.1597 22.214 9.96638 20.2512 10.3431 18.3575C10.7197 16.4639 11.6495 14.7244 13.0147 13.3591C14.38 11.9939 16.1195 11.0641 18.0131 10.6874C19.9068 10.3108 21.8697 10.5041 23.6535 11.243C25.4373 11.9818 26.9619 13.2331 28.0346 14.8385C29.1073 16.4438 29.6798 18.3313 29.6798 20.262C29.6765 22.8501 28.6469 25.3312 26.8169 27.1613C24.9868 28.9913 22.5057 30.0209 19.9176 30.0242ZM19.9176 11.635C18.2114 11.635 16.5434 12.141 15.1247 13.0889C13.706 14.0369 12.6003 15.3842 11.9473 16.9606C11.2943 18.537 11.1235 20.2716 11.4564 21.9451C11.7893 23.6186 12.6109 25.1558 13.8174 26.3623C15.0239 27.5688 16.5611 28.3904 18.2346 28.7233C19.9081 29.0562 21.6427 28.8853 23.2191 28.2324C24.7954 27.5794 26.1428 26.4737 27.0908 25.055C28.0387 23.6362 28.5447 21.9683 28.5447 20.262C28.5418 17.9749 27.632 15.7822 26.0147 14.165C24.3975 12.5477 22.2048 11.6379 19.9176 11.635Z" fill="url(#paint1_linear_6687_6373)"/>
<path fill-rule="evenodd" clip-rule="evenodd" d="M19.9598 16.0205C19.9303 16.0198 19.9007 16.0199 19.8711 16.0206C19.8856 16.0217 19.9002 16.0223 19.9148 16.0223C19.9299 16.0223 19.9449 16.0217 19.9598 16.0205Z" fill="url(#paint2_linear_6687_6373)"/>
<path fill-rule="evenodd" clip-rule="evenodd" d="M37.9141 20.8174C37.9141 20.8174 37.9142 20.8174 37.9141 20.8174V20.8174Z" fill="url(#paint3_linear_6687_6373)"/>
<path d="M35.389 12.501C36.3833 14.4817 36.9864 16.6306 37.1704 18.8303L35.3674 17.0269C35.3146 16.9742 35.252 16.9324 35.1831 16.9039C35.1142 16.8754 35.0403 16.8608 34.9657 16.8609C34.8911 16.8609 34.8173 16.8756 34.7484 16.9042C34.6796 16.9328 34.617 16.9747 34.5643 17.0275C34.5116 17.0802 34.4698 17.1429 34.4413 17.2118C34.4128 17.2807 34.3982 17.3546 34.3982 17.4291C34.3983 17.5037 34.413 17.5775 34.4416 17.6464C34.4702 17.7153 34.5121 17.7779 34.5649 17.8306L37.3962 20.6626C37.5026 20.769 37.6478 20.8296 37.7983 20.8296L37.808 20.8295C37.8412 20.8289 37.874 20.8254 37.9062 20.819C37.9088 20.8185 37.9115 20.818 37.9141 20.8174C37.9165 20.8169 37.9189 20.8164 37.9213 20.8158C37.9534 20.8086 37.985 20.7986 38.0156 20.7858C38.065 20.7653 38.1118 20.7383 38.1539 20.7044C38.1699 20.6916 38.1851 20.678 38.1996 20.6634L41.0323 17.8294C41.0865 17.7771 41.1297 17.7145 41.1595 17.6452C41.1892 17.576 41.2049 17.5015 41.2055 17.4261C41.2062 17.3508 41.1918 17.276 41.1633 17.2063C41.1348 17.1365 41.0926 17.0732 41.0393 17.0199C40.986 16.9666 40.9227 16.9244 40.8529 16.8959C40.7832 16.8674 40.7084 16.853 40.6331 16.8536C40.5577 16.8543 40.4832 16.87 40.414 16.8997C40.3447 16.9294 40.2821 16.9727 40.2297 17.0269L38.3176 18.9391C38.1425 16.5245 37.4939 14.1634 36.4041 11.9921C35.1158 9.42559 33.2466 7.19497 30.945 5.47759C28.6435 3.76022 25.973 2.60346 23.1459 2.09927C20.3188 1.59508 17.4131 1.75736 14.6597 2.57322C14.5188 2.61881 14.4013 2.71766 14.3323 2.84867C14.2633 2.97968 14.2482 3.13247 14.2903 3.27445C14.3323 3.41643 14.4282 3.53634 14.5575 3.60861C14.6867 3.68087 14.8391 3.69976 14.9821 3.66125C17.5661 2.89579 20.2931 2.74365 22.9462 3.21691C25.5994 3.69017 28.1055 4.77579 30.2656 6.38747C32.4256 7.99916 34.1798 10.0925 35.389 12.501Z" fill="url(#paint4_linear_6687_6373)"/>
<path d="M11.8638 36.864C14.369 38.0786 17.1221 38.7129 19.9176 38.712C24.0153 38.7158 27.9973 37.354 31.2346 34.8418C34.4718 32.3296 36.7796 28.8103 37.7932 24.84C37.8258 24.6959 37.801 24.5446 37.7238 24.4185C37.6467 24.2924 37.5234 24.2013 37.3802 24.1647C37.2369 24.1281 37.0851 24.1489 36.9569 24.2225C36.8287 24.2962 36.7343 24.4169 36.6938 24.5591C36.0297 27.1474 34.7759 29.5469 33.0303 31.5701C31.2848 33.5933 29.0949 35.1853 26.6319 36.2215C24.1689 37.2578 21.4995 37.7102 18.8326 37.5434C16.6409 37.4063 14.4997 36.8541 12.5215 35.9206L14.9929 35.2583C15.1376 35.2188 15.2609 35.1236 15.3357 34.9935C15.4105 34.8634 15.4307 34.709 15.3919 34.564C15.3531 34.419 15.2584 34.2953 15.1287 34.2199C14.9989 34.1446 14.8446 34.1236 14.6994 34.1618L10.9101 35.1773L10.8303 35.1987C10.7583 35.218 10.6908 35.2513 10.6317 35.2967C10.5725 35.3421 10.5229 35.3987 10.4857 35.4632C10.4484 35.5278 10.4242 35.5991 10.4145 35.673C10.4048 35.7469 10.4097 35.822 10.429 35.894L10.4607 36.0121L11.4654 39.7631C11.4978 39.8838 11.5691 39.9904 11.6682 40.0664C11.7673 40.1425 11.8888 40.1837 12.0137 40.1837C12.0633 40.1836 12.1127 40.1771 12.1607 40.1644C12.2327 40.1451 12.3002 40.1118 12.3593 40.0664C12.4185 40.021 12.4681 39.9644 12.5053 39.8998C12.5426 39.8353 12.5668 39.764 12.5765 39.6901C12.5862 39.6162 12.5813 39.5411 12.562 39.4691L11.8638 36.864Z" fill="url(#paint5_linear_6687_6373)"/>
<path d="M6.96064 4.28898L9.57136 4.9885C7.26979 6.55413 5.34581 8.62206 3.94864 11.0427C2.33046 13.8463 1.47545 17.025 1.46886 20.262C1.46047 22.7282 1.95044 25.1706 2.90937 27.4427C3.86829 29.7148 5.2764 31.7697 7.04918 33.4841C7.15554 33.5875 7.29814 33.6451 7.44648 33.6447C7.55956 33.645 7.66845 33.6105 7.76239 33.5475C7.85633 33.4846 7.92932 33.395 7.97201 33.2903C8.0147 33.1856 8.02514 33.0705 8.00199 32.9598C7.97883 32.8491 7.92315 32.7479 7.84207 32.6691C6.17824 31.0605 4.85659 29.1323 3.95647 27.0003C3.05635 24.8682 2.59632 22.5763 2.60399 20.262C2.61031 17.2241 3.41275 14.2409 4.93132 11.6098C6.21098 9.39262 7.9615 7.49069 10.0528 6.03448L9.3921 8.49976C9.36955 8.58386 9.36665 8.67202 9.38363 8.75743C9.4006 8.84283 9.437 8.92318 9.49001 8.99226C9.54301 9.06134 9.6112 9.1173 9.68929 9.15581C9.76739 9.19431 9.8533 9.21434 9.94037 9.21433C10.0653 9.21434 10.1868 9.17313 10.2859 9.0971C10.385 9.02106 10.4563 8.91443 10.4886 8.79376L11.525 4.92465C11.5443 4.85265 11.5493 4.77755 11.5396 4.70364C11.5298 4.62973 11.5057 4.55846 11.4684 4.4939C11.4311 4.42933 11.3815 4.37274 11.3224 4.32736C11.2633 4.28197 11.1958 4.24868 11.1237 4.22938L7.25464 3.19243C7.10923 3.15345 6.95429 3.17382 6.8239 3.24908C6.69351 3.32433 6.59836 3.44829 6.55937 3.59371C6.52038 3.73912 6.54076 3.89406 6.61601 4.02445C6.69126 4.15483 6.81523 4.24999 6.96064 4.28898Z" fill="url(#paint6_linear_6687_6373)"/>
<path d="M18.2663 20.3287C18.7551 20.6553 19.3298 20.8296 19.9176 20.8296C20.2809 20.8296 20.636 20.9373 20.9381 21.1391C21.2402 21.3408 21.4757 21.6276 21.6148 21.9632C21.7539 22.2988 21.7904 22.6681 21.7197 23.0244C21.649 23.3807 21.4743 23.7081 21.2175 23.9651C20.9608 24.2221 20.6337 24.3973 20.2775 24.4685C19.9212 24.5396 19.5519 24.5035 19.2161 24.3648C18.8804 24.2261 18.5933 23.991 18.3912 23.6892C18.189 23.3873 18.0809 23.0324 18.0804 22.6691C18.0804 22.5186 18.0206 22.3742 17.9142 22.2678C17.8077 22.1613 17.6634 22.1015 17.5129 22.1015C17.3623 22.1015 17.218 22.1613 17.1115 22.2678C17.0051 22.3742 16.9453 22.5186 16.9453 22.6691C16.946 23.4572 17.2594 24.2129 17.8167 24.7702C18.2375 25.1912 18.7715 25.473 19.3472 25.5862V26.062C19.3472 26.2125 19.407 26.3569 19.5135 26.4633C19.6199 26.5698 19.7643 26.6296 19.9148 26.6296C20.0653 26.6296 20.2097 26.5698 20.3161 26.4633C20.4226 26.3569 20.4824 26.2125 20.4824 26.062V25.5796C21.052 25.4604 21.5788 25.1749 21.9932 24.7547C22.5419 24.1984 22.8495 23.4485 22.8495 22.6671C22.8495 21.8857 22.5419 21.1358 21.9932 20.5795C21.4491 20.0278 20.7113 19.7105 19.937 19.6948C19.9306 19.6946 19.9241 19.6945 19.9176 19.6945C19.5543 19.6945 19.1991 19.5867 18.8969 19.3848C18.5948 19.183 18.3593 18.896 18.2203 18.5603C18.0812 18.2246 18.0448 17.8552 18.1157 17.4988C18.1866 17.1424 18.3616 16.8151 18.6185 16.5581C18.8755 16.3012 19.2028 16.1262 19.5592 16.0553C19.6625 16.0348 19.7668 16.0233 19.8711 16.0206C19.9007 16.0199 19.9303 16.0198 19.9598 16.0205C20.1857 16.0257 20.4098 16.0725 20.6207 16.1599C20.9564 16.2989 21.2434 16.5344 21.4452 16.8365C21.6471 17.1387 21.7549 17.4939 21.7549 17.8572C21.7549 18.0078 21.8147 18.1521 21.9211 18.2586C22.0275 18.365 22.1719 18.4248 22.3224 18.4248C22.473 18.4248 22.6173 18.365 22.7238 18.2586C22.8302 18.1521 22.89 18.0078 22.89 17.8572C22.89 17.2694 22.7157 16.6947 22.3891 16.2059C22.0625 15.7171 21.5982 15.3361 21.0551 15.1112C20.8696 15.0343 20.6776 14.9768 20.4824 14.939V14.4643C20.4824 14.3138 20.4226 14.1694 20.3161 14.063C20.2097 13.9566 20.0653 13.8968 19.9148 13.8968C19.7643 13.8968 19.6199 13.9566 19.5135 14.063C19.407 14.1694 19.3472 14.3138 19.3472 14.4643V14.9401L19.3378 14.942C18.7612 15.0567 18.2316 15.3398 17.8159 15.7555C17.4002 16.1712 17.1171 16.7008 17.0024 17.2774C16.8877 17.854 16.9466 18.4516 17.1715 18.9947C17.3965 19.5378 17.7775 20.0021 18.2663 20.3287Z" fill="url(#paint7_linear_6687_6373)"/>
<path d="M10.429 35.894L10.6705 35.8293L10.6705 35.8292L10.429 35.894ZM10.8303 35.1987L10.895 35.4402H10.895L10.8303 35.1987ZM10.429 35.894L10.1876 35.9587L10.2192 36.0768L10.4607 36.0121L10.7022 35.9474L10.6705 35.8293L10.429 35.894ZM10.9101 35.1773L10.8454 34.9358L10.7656 34.9572L10.8303 35.1987L10.895 35.4402L10.9748 35.4188L10.9101 35.1773ZM10.8303 35.1987L10.7656 34.9572C10.6619 34.985 10.5646 35.033 10.4795 35.0984L10.6317 35.2967L10.7839 35.495C10.817 35.4696 10.8547 35.451 10.895 35.4402L10.8303 35.1987ZM10.6317 35.2967L10.4795 35.0984C10.3943 35.1637 10.3228 35.2452 10.2691 35.3383L10.4857 35.4632L10.7022 35.5882C10.723 35.5521 10.7508 35.5204 10.7839 35.495L10.6317 35.2967ZM10.4857 35.4632L10.2691 35.3383C10.2155 35.4313 10.1806 35.5339 10.1666 35.6404L10.4145 35.673L10.6624 35.7055C10.6678 35.6642 10.6813 35.6243 10.7022 35.5882L10.4857 35.4632ZM10.4145 35.673L10.1666 35.6404C10.1526 35.7469 10.1598 35.855 10.1876 35.9587L10.429 35.894L10.6705 35.8292C10.6597 35.7889 10.6569 35.7469 10.6624 35.7055L10.4145 35.673ZM19.9598 16.0205L19.9655 15.7706C19.932 15.7698 19.8984 15.7698 19.8648 15.7707L19.8711 16.0206L19.8775 16.2705C19.903 16.2699 19.9285 16.2699 19.954 16.2704L19.9598 16.0205ZM10.4607 36.0121L10.9437 35.8827L10.9285 35.8262L10.9008 35.7747L10.4607 36.0121ZM10.4142 35.8977L10.8952 35.7611L10.8952 35.7611L10.4142 35.8977ZM10.8218 35.1923L10.9437 35.6771H10.9437L10.8218 35.1923ZM10.9101 35.1773L10.9543 35.6754L10.9976 35.6715L11.0396 35.6603L10.9101 35.1773ZM19.9176 30.0242V30.5242H19.9183L19.9176 30.0242ZM29.6798 20.262L30.1798 20.2627V20.262H29.6798ZM19.9176 11.635L19.9183 11.135H19.9176V11.635ZM28.5447 20.262H29.0447L29.0447 20.2614L28.5447 20.262ZM19.9598 16.0205L19.9713 15.5206L19.9457 15.5201L19.9202 15.5221L19.9598 16.0205ZM19.8711 16.0206L19.9096 15.5221L19.8841 15.5201L19.8585 15.5208L19.8711 16.0206ZM35.389 12.501L35.8358 12.2767L35.389 12.501ZM37.1704 18.8303L36.8168 19.1838L37.7825 20.1498L37.6687 18.7886L37.1704 18.8303ZM35.3674 17.0269L35.721 16.6734L35.7207 16.6731L35.3674 17.0269ZM34.5649 17.8306L34.9185 17.4771L34.9182 17.4768L34.5649 17.8306ZM37.3962 20.6626L37.0426 21.0161L37.0426 21.0161L37.3962 20.6626ZM37.7983 20.8296V21.3296L37.8027 21.3296L37.7983 20.8296ZM37.808 20.8295L37.8124 21.3295L37.8168 21.3294L37.808 20.8295ZM37.9062 20.819L37.8096 20.3284L37.8095 20.3285L37.9062 20.819ZM37.9213 20.8158L37.8118 20.328L37.8113 20.3281L37.9213 20.8158ZM38.0156 20.7858L37.824 20.324L37.8231 20.3244L38.0156 20.7858ZM38.1539 20.7044L37.8416 20.3139L37.8406 20.3147L38.1539 20.7044ZM38.1996 20.6634L37.846 20.3099L37.845 20.3109L38.1996 20.6634ZM41.0323 17.8294L40.6849 17.4697L40.6787 17.476L41.0323 17.8294ZM40.2297 17.0269L40.5834 17.3805L40.5894 17.3743L40.2297 17.0269ZM38.3176 18.9391L37.8189 18.9752L37.8979 20.0658L38.6711 19.2926L38.3176 18.9391ZM36.4041 11.9921L35.9572 12.2164L36.4041 11.9921ZM14.6597 2.57322L14.5176 2.09367L14.5057 2.09751L14.6597 2.57322ZM14.2903 3.27445L13.8109 3.4165L14.2903 3.27445ZM14.9821 3.66125L15.1122 4.14419L15.1241 4.14065L14.9821 3.66125ZM11.8638 36.864L12.082 36.4141L11.0977 35.9369L11.3809 36.9935L11.8638 36.864ZM19.9176 38.712L19.9181 38.212H19.9175L19.9176 38.712ZM37.7932 24.84L38.2778 24.9638L38.2808 24.9505L37.7932 24.84ZM36.9569 24.2225L37.206 24.656L37.206 24.656L36.9569 24.2225ZM36.6938 24.5591L36.2128 24.422L36.2095 24.4348L36.6938 24.5591ZM18.8326 37.5434L18.8638 37.0443L18.8326 37.5434ZM12.5215 35.9206L12.392 35.4376L11.0745 35.7907L12.3081 36.3728L12.5215 35.9206ZM14.9929 35.2583L15.1223 35.7413L15.1244 35.7407L14.9929 35.2583ZM14.6994 34.1618L14.5724 33.6782L14.57 33.6788L14.6994 34.1618ZM11.4654 39.7631L10.9825 39.8925L10.9825 39.8926L11.4654 39.7631ZM12.0137 40.1837L12.0138 40.6837H12.0143L12.0137 40.1837ZM12.1607 40.1644L12.2892 40.6476L12.2901 40.6473L12.1607 40.1644ZM12.562 39.4691L12.079 39.5985L12.079 39.5986L12.562 39.4691ZM6.96064 4.28898L6.83115 4.77192L6.83123 4.77194L6.96064 4.28898ZM9.57136 4.9885L9.85259 5.40192L10.7551 4.78802L9.70077 4.50554L9.57136 4.9885ZM3.94864 11.0427L3.51559 10.7928V10.7928L3.94864 11.0427ZM1.46886 20.262L1.96885 20.2637L1.96885 20.2631L1.46886 20.262ZM7.04918 33.4841L7.39772 33.1256L7.39677 33.1247L7.04918 33.4841ZM7.44648 33.6447L7.44794 33.1447L7.44502 33.1447L7.44648 33.6447ZM7.84207 32.6691L8.19061 32.3106L8.18961 32.3096L7.84207 32.6691ZM2.60399 20.262L3.10399 20.2637L3.10399 20.2631L2.60399 20.262ZM4.93132 11.6098L5.36437 11.8598L4.93132 11.6098ZM10.0528 6.03448L10.5357 6.1639L10.8899 4.84227L9.76705 5.62415L10.0528 6.03448ZM9.3921 8.49976L9.87504 8.62926L9.87506 8.62919L9.3921 8.49976ZM9.94037 9.21433L9.94043 8.71433H9.94031L9.94037 9.21433ZM10.4886 8.79376L10.9716 8.92326L10.9716 8.92313L10.4886 8.79376ZM11.525 4.92465L11.0421 4.79511L11.042 4.79528L11.525 4.92465ZM11.1237 4.22938L10.9943 4.71234L10.9943 4.71234L11.1237 4.22938ZM7.25464 3.19243L7.12516 3.67538L7.1252 3.67539L7.25464 3.19243ZM6.8239 3.24908L7.07383 3.68213L7.07383 3.68213L6.8239 3.24908ZM21.2175 23.9651L21.5713 24.3185L21.5713 24.3185L21.2175 23.9651ZM18.0804 22.6691H17.5804V22.6697L18.0804 22.6691ZM16.9453 22.6691H16.4453L16.4453 22.6696L16.9453 22.6691ZM17.8167 24.7702L18.1703 24.4167L17.8167 24.7702ZM19.3472 25.5862H19.8472V25.1749L19.4437 25.0956L19.3472 25.5862ZM20.4824 25.5796L20.38 25.0902L19.9824 25.1734V25.5796H20.4824ZM21.9932 24.7547L21.6372 24.4036L21.9932 24.7547ZM21.9932 20.5795L21.6372 20.9306L21.9932 20.5795ZM19.937 19.6948L19.92 20.1946L19.9269 20.1947L19.937 19.6948ZM19.5592 16.0553L19.6568 16.5457L19.6568 16.5457L19.5592 16.0553ZM20.6207 16.1599L20.4294 16.6218L20.6207 16.1599ZM21.0551 15.1112L21.2465 14.6492H21.2465L21.0551 15.1112ZM20.4824 14.939H19.9824V15.3516L20.3874 15.4299L20.4824 14.939ZM19.3472 14.9401L19.444 15.4307L19.8472 15.3512V14.9401H19.3472ZM19.3378 14.942L19.241 14.4515L19.2402 14.4516L19.3378 14.942ZM10.4607 36.0121L10.9008 35.7747C10.8984 35.7704 10.8966 35.7659 10.8952 35.7611L10.4142 35.8977L9.93324 36.0342C9.9545 36.1091 9.98385 36.1813 10.0206 36.2495L10.4607 36.0121ZM10.4142 35.8977L10.8952 35.7611C10.8928 35.7524 10.8921 35.7433 10.8932 35.7343L10.397 35.6727L9.9008 35.611C9.88318 35.7528 9.89421 35.8968 9.93324 36.0342L10.4142 35.8977ZM10.397 35.6727L10.8932 35.7343C10.8943 35.7254 10.8972 35.7167 10.9017 35.7089L10.4688 35.4588L10.0358 35.2086C9.96434 35.3324 9.91842 35.4692 9.9008 35.611L10.397 35.6727ZM10.4688 35.4588L10.9017 35.7089C10.9062 35.701 10.9123 35.6942 10.9195 35.6887L10.6182 35.2897L10.317 34.8907C10.2029 34.9768 10.1073 35.0849 10.0358 35.2086L10.4688 35.4588ZM10.6182 35.2897L10.9195 35.6887C10.9267 35.6833 10.935 35.6793 10.9437 35.6771L10.8218 35.1923L10.6998 34.7074C10.5612 34.7422 10.431 34.8046 10.317 34.8907L10.6182 35.2897ZM10.8218 35.1923L10.9437 35.6771C10.9472 35.6763 10.9507 35.6757 10.9543 35.6754L10.9101 35.1773L10.866 34.6793C10.8101 34.6842 10.7545 34.6936 10.6998 34.7074L10.8218 35.1923ZM19.9176 30.0242V29.5242C18.0858 29.5242 16.295 28.981 14.7719 27.9632L14.4941 28.379L14.2163 28.7947C15.9039 29.9223 17.888 30.5242 19.9176 30.5242V30.0242ZM14.4941 28.379L14.7719 27.9632C13.2487 26.9455 12.0615 25.4989 11.3605 23.8065L10.8986 23.9978L10.4366 24.1892C11.2134 26.0644 12.5287 27.6671 14.2163 28.7947L14.4941 28.379ZM10.8986 23.9978L11.3605 23.8065C10.6595 22.1141 10.4761 20.2518 10.8334 18.4551L10.3431 18.3575L9.85266 18.26C9.45669 20.2506 9.65992 22.314 10.4366 24.1892L10.8986 23.9978ZM10.3431 18.3575L10.8334 18.4551C11.1908 16.6584 12.073 15.008 13.3683 13.7127L13.0147 13.3591L12.6612 13.0056C11.226 14.4408 10.2486 16.2693 9.85266 18.26L10.3431 18.3575ZM13.0147 13.3591L13.3683 13.7127C14.6636 12.4174 16.314 11.5352 18.1107 11.1778L18.0131 10.6874L17.9156 10.1971C15.9249 10.593 14.0964 11.5704 12.6612 13.0056L13.0147 13.3591ZM18.0131 10.6874L18.1107 11.1778C19.9074 10.8205 21.7697 11.0039 23.4621 11.7049L23.6535 11.243L23.8448 10.781C21.9696 10.0043 19.9063 9.80108 17.9156 10.1971L18.0131 10.6874ZM23.6535 11.243L23.4621 11.7049C25.1546 12.4059 26.6011 13.5931 27.6188 15.1162L28.0346 14.8385L28.4503 14.5607C27.3227 12.8731 25.72 11.5577 23.8448 10.781L23.6535 11.243ZM28.0346 14.8385L27.6188 15.1162C28.6366 16.6394 29.1798 18.4301 29.1798 20.262H29.6798H30.1798C30.1798 18.2324 29.5779 16.2483 28.4503 14.5607L28.0346 14.8385ZM29.6798 20.262L29.1798 20.2614C29.1767 22.7171 28.1998 25.0713 26.4633 26.8077L26.8169 27.1613L27.1704 27.5148C29.0941 25.5912 30.1763 22.9831 30.1798 20.2627L29.6798 20.262ZM26.8169 27.1613L26.4633 26.8077C24.7269 28.5442 22.3727 29.5211 19.917 29.5242L19.9176 30.0242L19.9183 30.5242C22.6387 30.5207 25.2468 29.4385 27.1704 27.5148L26.8169 27.1613ZM19.9176 11.635V11.135C18.1125 11.135 16.3479 11.6703 14.8469 12.6732L15.1247 13.0889L15.4025 13.5047C16.739 12.6116 18.3103 12.135 19.9176 12.135V11.635ZM15.1247 13.0889L14.8469 12.6732C13.346 13.6761 12.1762 15.1015 11.4854 16.7693L11.9473 16.9606L12.4092 17.152C13.0244 15.6669 14.066 14.3977 15.4025 13.5047L15.1247 13.0889ZM11.9473 16.9606L11.4854 16.7693C10.7946 18.437 10.6138 20.2722 10.966 22.0426L11.4564 21.9451L11.9468 21.8475C11.6332 20.271 11.7941 18.637 12.4092 17.152L11.9473 16.9606ZM11.4564 21.9451L10.966 22.0426C11.3182 23.8131 12.1874 25.4394 13.4639 26.7158L13.8174 26.3623L14.171 26.0087C13.0344 24.8721 12.2604 23.424 11.9468 21.8475L11.4564 21.9451ZM13.8174 26.3623L13.4639 26.7158C14.7403 27.9923 16.3666 28.8615 18.137 29.2137L18.2346 28.7233L18.3321 28.2329C16.7556 27.9193 15.3075 27.1453 14.171 26.0087L13.8174 26.3623ZM18.2346 28.7233L18.137 29.2137C19.9075 29.5659 21.7427 29.3851 23.4104 28.6943L23.2191 28.2324L23.0277 27.7704C21.5427 28.3855 19.9086 28.5465 18.3321 28.2329L18.2346 28.7233ZM23.2191 28.2324L23.4104 28.6943C25.0781 28.0035 26.5036 26.8337 27.5065 25.3327L27.0908 25.055L26.675 24.7772C25.782 26.1136 24.5127 27.1553 23.0277 27.7704L23.2191 28.2324ZM27.0908 25.055L27.5065 25.3327C28.5094 23.8318 29.0447 22.0672 29.0447 20.262H28.5447H28.0447C28.0447 21.8694 27.568 23.4407 26.675 24.7772L27.0908 25.055ZM28.5447 20.262L29.0447 20.2614C29.0416 17.8419 28.0792 15.5223 26.3683 13.8114L26.0147 14.165L25.6612 14.5185C27.1848 16.0422 28.042 18.1079 28.0447 20.2627L28.5447 20.262ZM26.0147 14.165L26.3683 13.8114C24.6574 12.1005 22.3378 11.138 19.9183 11.135L19.9176 11.635L19.917 12.135C22.0718 12.1377 24.1375 12.9949 25.6612 14.5185L26.0147 14.165ZM19.8711 16.0206L19.8327 16.5191C19.8599 16.5212 19.8873 16.5223 19.9148 16.5223V16.0223V15.5223C19.9131 15.5223 19.9113 15.5222 19.9096 15.5221L19.8711 16.0206ZM19.9148 16.0223V16.5223C19.9432 16.5223 19.9714 16.5212 19.9994 16.5189L19.9598 16.0205L19.9202 15.5221C19.9184 15.5222 19.9166 15.5223 19.9148 15.5223V16.0223ZM37.9141 20.8174L37.8057 20.3293C37.8057 20.3293 37.8057 20.3293 37.8057 20.3293H37.8057C37.8057 20.3293 37.8057 20.3293 37.8057 20.3293C37.8057 20.3293 37.8057 20.3293 37.8057 20.3293C37.8057 20.3293 37.8057 20.3293 37.8057 20.3293C38.4022 20.7089 38.0226 21.3055 38.0226 21.3055C38.0226 21.3055 38.0226 21.3055 38.0226 21.3055C38.0226 21.3055 38.0226 21.3055 38.0226 21.3055C38.0226 21.3055 38.0226 21.3055 38.0226 21.3055C38.0226 21.3055 38.0226 21.3055 38.0226 21.3055C38.0211 21.3058 38.0241 21.3051 38.0226 21.3055C38.0226 21.3055 38.0226 21.3055 38.0226 21.3055C38.0226 21.3055 38.0226 21.3055 38.0226 21.3055C38.0226 21.3055 38.0226 21.3055 38.0226 21.3055C38.0226 21.3055 38.0226 21.3055 38.0226 21.3055C38.0226 21.3055 38.0226 21.3055 38.0226 21.3055C38.0226 21.3055 38.0226 21.3055 38.0226 21.3055C38.0226 21.3055 38.4022 20.7089 37.8057 20.3293C37.8057 20.3293 37.8057 20.3293 37.8057 20.3293C37.8057 20.3293 37.8057 20.3293 37.8057 20.3293C37.8057 20.3293 37.8057 20.3293 37.8057 20.3293C37.8057 20.3293 37.8057 20.3293 37.8057 20.3293C37.8057 20.3293 37.8057 20.3293 37.8057 20.3293L37.9141 20.8174L38.0226 21.3055C38.0226 21.3055 38.0226 21.3055 38.0226 21.3055C38.0226 21.3055 38.0226 21.3055 38.0226 21.3055C38.0226 21.3055 38.0226 21.3055 38.0226 21.3055C38.0226 21.3055 38.0226 21.3055 38.0226 21.3055C38.0226 21.3055 38.0226 21.3055 38.0226 21.3055C38.0226 21.3055 38.0226 21.3055 38.0226 21.3055C37.4261 20.9259 37.8057 20.3293 37.8057 20.3293C37.8057 20.3293 37.8057 20.3293 37.8057 20.3293C37.8057 20.3293 37.8057 20.3293 37.8057 20.3293C37.8057 20.3293 37.8057 20.3293 37.8057 20.3293C37.8057 20.3293 37.8057 20.3293 37.8057 20.3293C37.8041 20.3296 37.8072 20.329 37.8057 20.3293C37.8057 20.3293 37.8057 20.3293 37.8057 20.3293C37.8057 20.3293 37.8057 20.3293 37.8057 20.3293C37.8057 20.3293 37.8057 20.3293 37.8057 20.3293C37.8057 20.3293 37.8057 20.3293 37.8057 20.3293C37.8057 20.3293 37.426 20.9259 38.0226 21.3055C38.0226 21.3055 38.0226 21.3055 38.0226 21.3055C38.0226 21.3055 38.0226 21.3055 38.0226 21.3055C38.0226 21.3055 38.0226 21.3055 38.0226 21.3055C38.0226 21.3055 38.0226 21.3055 38.0226 21.3055L37.9141 20.8174ZM35.389 12.501L34.9421 12.7254C35.9077 14.6489 36.4934 16.7358 36.6721 18.872L37.1704 18.8303L37.6687 18.7886C37.4793 16.5254 36.8588 14.3145 35.8358 12.2767L35.389 12.501ZM37.1704 18.8303L37.524 18.4768L35.721 16.6734L35.3674 17.0269L35.0138 17.3804L36.8168 19.1838L37.1704 18.8303ZM35.3674 17.0269L35.7207 16.6731C35.6215 16.574 35.5037 16.4954 35.3741 16.4419L35.1831 16.9039L34.9921 17.366C35.0003 17.3694 35.0078 17.3744 35.0141 17.3807L35.3674 17.0269ZM35.1831 16.9039L35.3741 16.4419C35.2445 16.3883 35.1056 16.3608 34.9654 16.3609L34.9657 16.8609L34.9661 17.3609C34.975 17.3608 34.9838 17.3626 34.9921 17.366L35.1831 16.9039ZM34.9657 16.8609L34.9654 16.3609C34.8251 16.3609 34.6863 16.3887 34.5568 16.4424L34.7484 16.9042L34.9401 17.366C34.9483 17.3626 34.9572 17.3609 34.9661 17.3609L34.9657 16.8609ZM34.7484 16.9042L34.5568 16.4424C34.4272 16.4962 34.3096 16.5749 34.2105 16.6742L34.5643 17.0275L34.9181 17.3808C34.9244 17.3745 34.9319 17.3695 34.9401 17.366L34.7484 16.9042ZM34.5643 17.0275L34.2105 16.6742C34.1114 16.7734 34.0328 16.8912 33.9792 17.0208L34.4413 17.2118L34.9034 17.4028C34.9068 17.3946 34.9118 17.3871 34.9181 17.3808L34.5643 17.0275ZM34.4413 17.2118L33.9792 17.0208C33.9257 17.1504 33.8981 17.2892 33.8982 17.4295L34.3982 17.4291L34.8982 17.4288C34.8982 17.4199 34.9 17.411 34.9034 17.4028L34.4413 17.2118ZM34.3982 17.4291L33.8982 17.4295C33.8983 17.5697 33.9261 17.7086 33.9798 17.8381L34.4416 17.6464L34.9034 17.4548C34.9 17.4465 34.8983 17.4377 34.8982 17.4288L34.3982 17.4291ZM34.4416 17.6464L33.9798 17.8381C34.0336 17.9676 34.1123 18.0853 34.2116 18.1844L34.5649 17.8306L34.9182 17.4768C34.9119 17.4705 34.9068 17.463 34.9034 17.4548L34.4416 17.6464ZM34.5649 17.8306L34.2113 18.1841L37.0426 21.0161L37.3962 20.6626L37.7498 20.3091L34.9185 17.4771L34.5649 17.8306ZM37.3962 20.6626L37.0426 21.0161C37.2421 21.2156 37.5141 21.3296 37.7983 21.3296V20.8296V20.3296C37.7814 20.3296 37.7631 20.3224 37.7497 20.309L37.3962 20.6626ZM37.7983 20.8296L37.8027 21.3296L37.8124 21.3295L37.808 20.8295L37.8036 20.3295L37.7939 20.3296L37.7983 20.8296ZM37.808 20.8295L37.8168 21.3294C37.8801 21.3283 37.9423 21.3215 38.0029 21.3096L37.9062 20.819L37.8095 20.3285C37.8058 20.3292 37.8023 20.3295 37.7992 20.3296L37.808 20.8295ZM37.9062 20.819L38.0028 21.3096C38.0077 21.3086 38.0128 21.3076 38.0181 21.3065L37.9141 20.8174L37.8102 20.3283L37.8096 20.3284L37.9062 20.819ZM37.9141 20.8174L38.0178 21.3065C38.0225 21.3055 38.0269 21.3046 38.0312 21.3036L37.9213 20.8158L37.8113 20.3281C37.8108 20.3282 37.8106 20.3282 37.8105 20.3283L37.9141 20.8174ZM37.9213 20.8158L38.0307 21.3037C38.0912 21.2901 38.1506 21.2713 38.2081 21.2473L38.0156 20.7858L37.8231 20.3244C37.8194 20.3259 37.8157 20.3271 37.8118 20.328L37.9213 20.8158ZM38.0156 20.7858L38.2072 21.2477C38.2974 21.2103 38.3856 21.1596 38.4672 21.0941L38.1539 20.7044L37.8406 20.3147C37.8379 20.3169 37.8327 20.3204 37.824 20.324L38.0156 20.7858ZM38.1539 20.7044L38.4662 21.0948C38.4968 21.0704 38.5262 21.0441 38.5542 21.0159L38.1996 20.6634L37.845 20.3109C37.8441 20.3118 37.843 20.3128 37.8416 20.3139L38.1539 20.7044ZM38.1996 20.6634L38.5533 21.0168L41.3859 18.1829L41.0323 17.8294L40.6787 17.476L37.846 20.3099L38.1996 20.6634ZM41.0323 17.8294L41.3796 18.1891C41.4816 18.0906 41.5629 17.9728 41.6189 17.8425L41.1595 17.6452L40.7001 17.4479C40.6965 17.4561 40.6914 17.4636 40.6849 17.4698L41.0323 17.8294ZM41.1595 17.6452L41.6189 17.8425C41.6748 17.7123 41.7043 17.5722 41.7055 17.4305L41.2055 17.4261L40.7056 17.4218C40.7055 17.4307 40.7036 17.4396 40.7001 17.4479L41.1595 17.6452ZM41.2055 17.4261L41.7055 17.4305C41.7068 17.2887 41.6797 17.1481 41.6261 17.0169L41.1633 17.2063L40.7005 17.3956C40.7039 17.4039 40.7056 17.4128 40.7056 17.4218L41.2055 17.4261ZM41.1633 17.2063L41.6261 17.0169C41.5724 16.8858 41.4931 16.7666 41.3929 16.6663L41.0393 17.0199L40.6858 17.3734C40.6921 17.3797 40.6971 17.3873 40.7005 17.3956L41.1633 17.2063ZM41.0393 17.0199L41.3929 16.6663C41.2926 16.5661 41.1734 16.4868 41.0422 16.4331L40.8529 16.8959L40.6636 17.3587C40.6719 17.3621 40.6794 17.3671 40.6858 17.3734L41.0393 17.0199ZM40.8529 16.8959L41.0422 16.4331C40.911 16.3794 40.7705 16.3524 40.6287 16.3537L40.6331 16.8536L40.6374 17.3536C40.6464 17.3535 40.6553 17.3553 40.6636 17.3587L40.8529 16.8959ZM40.6331 16.8536L40.6287 16.3537C40.487 16.3549 40.3469 16.3843 40.2166 16.4403L40.414 16.8997L40.6113 17.3591C40.6196 17.3556 40.6284 17.3537 40.6374 17.3536L40.6331 16.8536ZM40.414 16.8997L40.2166 16.4403C40.0864 16.4962 39.9686 16.5776 39.8701 16.6795L40.2297 17.0269L40.5894 17.3743C40.5956 17.3678 40.6031 17.3626 40.6113 17.3591L40.414 16.8997ZM40.2297 17.0269L39.8762 16.6733L37.964 18.5855L38.3176 18.9391L38.6711 19.2926L40.5833 17.3804L40.2297 17.0269ZM38.3176 18.9391L38.8162 18.9029C38.6365 16.423 37.9703 13.998 36.8509 11.7678L36.4041 11.9921L35.9572 12.2164C37.0175 14.3289 37.6486 16.6261 37.8189 18.9752L38.3176 18.9391ZM36.4041 11.9921L36.8509 11.7678C35.5278 9.13178 33.608 6.84074 31.2441 5.07686L30.945 5.47759L30.646 5.87833C32.8853 7.54919 34.7039 9.7194 35.9572 12.2164L36.4041 11.9921ZM30.945 5.47759L31.2441 5.07686C28.8801 3.31297 26.1373 2.12488 23.2337 1.60704L23.1459 2.09927L23.0581 2.5915C25.8086 3.08204 28.4068 4.20747 30.646 5.87833L30.945 5.47759ZM23.1459 2.09927L23.2337 1.60704C20.33 1.08919 17.3456 1.25587 14.5176 2.09382L14.6597 2.57322L14.8017 3.05262C17.4805 2.25885 20.3076 2.10097 23.0581 2.5915L23.1459 2.09927ZM14.6597 2.57322L14.5057 2.09751C14.2407 2.18327 14.0198 2.3692 13.8899 2.61562L14.3323 2.84867L14.7747 3.08172C14.7829 3.06612 14.7969 3.05435 14.8136 3.04893L14.6597 2.57322ZM14.3323 2.84867L13.8899 2.61562C13.7601 2.86204 13.7317 3.14945 13.8109 3.4165L14.2903 3.27445L14.7697 3.13241C14.7647 3.1155 14.7665 3.09731 14.7747 3.08172L14.3323 2.84867ZM14.2903 3.27445L13.8109 3.4165C13.89 3.68354 14.0704 3.9091 14.3135 4.04502L14.5575 3.60861L14.8015 3.17219C14.7861 3.16359 14.7747 3.14931 14.7697 3.1324L14.2903 3.27445ZM14.5575 3.60861L14.3135 4.04502C14.5566 4.18095 14.8432 4.21648 15.1121 4.14404L14.9821 3.66125L14.852 3.17845C14.835 3.18304 14.8169 3.18079 14.8015 3.17219L14.5575 3.60861ZM14.9821 3.66125L15.1241 4.14065C17.6336 3.39729 20.2818 3.24953 22.8584 3.70914L22.9462 3.21691L23.034 2.72468C20.3043 2.23776 17.4987 2.39429 14.8401 3.18184L14.9821 3.66125ZM22.9462 3.21691L22.8584 3.70914C25.435 4.16874 27.8689 5.22303 29.9665 6.78821L30.2656 6.38747L30.5646 5.98673C28.3422 4.32854 25.7637 3.2116 23.034 2.72468L22.9462 3.21691ZM30.2656 6.38747L29.9665 6.78821C32.0642 8.35339 33.7679 10.3863 34.9421 12.7254L35.389 12.501L35.8358 12.2767C34.5918 9.79865 32.7869 7.64493 30.5646 5.98673L30.2656 6.38747ZM11.8638 36.864L11.6457 37.3139C14.2187 38.5614 17.0465 39.213 19.9178 39.212L19.9176 38.712L19.9175 38.212C17.1977 38.2129 14.5192 37.5958 12.082 36.4141L11.8638 36.864ZM19.9176 38.712L19.9172 39.212C24.126 39.2159 28.2161 37.8171 31.5411 35.2368L31.2346 34.8418L30.928 34.4468C27.7786 36.8908 23.9046 38.2157 19.9181 38.212L19.9176 38.712ZM31.2346 34.8418L31.5411 35.2368C34.8662 32.6565 37.2365 29.0417 38.2776 24.9637L37.7932 24.84L37.3087 24.7163C36.3226 28.5789 34.0774 32.0028 30.928 34.4468L31.2346 34.8418ZM37.7932 24.84L38.2808 24.9505C38.3423 24.6793 38.2955 24.3948 38.1504 24.1576L37.7238 24.4185L37.2973 24.6794C37.3065 24.6944 37.3094 24.7124 37.3055 24.7296L37.7932 24.84ZM37.7238 24.4185L38.1504 24.1576C38.0053 23.9204 37.7734 23.7492 37.504 23.6803L37.3802 24.1647L37.2564 24.6492C37.2734 24.6535 37.2881 24.6644 37.2973 24.6794L37.7238 24.4185ZM37.3802 24.1647L37.504 23.6803C37.2346 23.6115 36.9489 23.6504 36.7078 23.789L36.9569 24.2225L37.206 24.656C37.2212 24.6473 37.2393 24.6448 37.2564 24.6492L37.3802 24.1647ZM36.9569 24.2225L36.7078 23.789C36.4667 23.9275 36.2892 24.1546 36.213 24.4221L36.6938 24.5591L37.1747 24.6961C37.1795 24.6792 37.1907 24.6648 37.206 24.656L36.9569 24.2225ZM36.6938 24.5591L36.2095 24.4348C35.5646 26.9484 34.3469 29.2787 32.6518 31.2435L33.0303 31.5701L33.4089 31.8968C35.2048 29.8152 36.4949 27.3463 37.1781 24.6833L36.6938 24.5591ZM33.0303 31.5701L32.6518 31.2435C30.9566 33.2083 28.8299 34.7543 26.438 35.7607L26.6319 36.2215L26.8258 36.6824C29.3599 35.6163 31.613 33.9784 33.4089 31.8968L33.0303 31.5701ZM26.6319 36.2215L26.438 35.7607C24.0461 36.767 21.4538 37.2063 18.8638 37.0443L18.8326 37.5434L18.8014 38.0424C21.5453 38.214 24.2917 37.7486 26.8258 36.6824L26.6319 36.2215ZM18.8326 37.5434L18.8638 37.0443C16.7354 36.9112 14.656 36.3749 12.7348 35.4684L12.5215 35.9206L12.3081 36.3728C14.3434 37.3332 16.5464 37.9014 18.8014 38.0424L18.8326 37.5434ZM12.5215 35.9206L12.6509 36.4036L15.1223 35.7413L14.9929 35.2583L14.8634 34.7753L12.392 35.4376L12.5215 35.9206ZM14.9929 35.2583L15.1244 35.7407C15.3967 35.6665 15.6285 35.4874 15.7692 35.2426L15.3357 34.9935L14.9022 34.7444C14.8933 34.7599 14.8786 34.7712 14.8614 34.7759L14.9929 35.2583ZM15.3357 34.9935L15.7692 35.2426C15.9098 34.9979 15.9478 34.7074 15.8749 34.4347L15.3919 34.564L14.9089 34.6933C14.9135 34.7105 14.9111 34.7289 14.9022 34.7444L15.3357 34.9935ZM15.3919 34.564L15.8749 34.4347C15.8019 34.1621 15.6239 33.9294 15.3798 33.7876L15.1287 34.2199L14.8775 34.6523C14.893 34.6613 14.9042 34.676 14.9089 34.6933L15.3919 34.564ZM15.1287 34.2199L15.3798 33.7876C15.1357 33.6458 14.8454 33.6065 14.5724 33.6782L14.6994 34.1618L14.8264 34.6454C14.8437 34.6408 14.8621 34.6433 14.8775 34.6523L15.1287 34.2199ZM14.6994 34.1618L14.57 33.6788L10.7807 34.6944L10.9101 35.1773L11.0396 35.6603L14.8289 34.6447L14.6994 34.1618ZM10.4607 36.0121L9.97772 36.1415L10.9825 39.8925L11.4654 39.7631L11.9484 39.6337L10.9437 35.8827L10.4607 36.0121ZM11.4654 39.7631L10.9825 39.8926C11.0434 40.1196 11.1774 40.3201 11.3639 40.4631L11.6682 40.0664L11.9725 39.6697C11.9607 39.6606 11.9522 39.6479 11.9484 39.6336L11.4654 39.7631ZM11.6682 40.0664L11.3639 40.4631C11.5503 40.6062 11.7787 40.6837 12.0138 40.6837L12.0137 40.1837L12.0136 39.6837C11.9988 39.6837 11.9843 39.6788 11.9725 39.6697L11.6682 40.0664ZM12.0137 40.1837L12.0143 40.6837C12.1071 40.6835 12.1995 40.6714 12.2892 40.6476L12.1607 40.1644L12.0322 39.6811C12.026 39.6828 12.0195 39.6836 12.0131 39.6837L12.0137 40.1837ZM12.1607 40.1644L12.2901 40.6473C12.4256 40.611 12.5525 40.5484 12.6638 40.463L12.3593 40.0664L12.0549 39.6697C12.0479 39.6751 12.0398 39.6791 12.0313 39.6814L12.1607 40.1644ZM12.3593 40.0664L12.6638 40.463C12.775 40.3777 12.8683 40.2712 12.9384 40.1498L12.5053 39.8998L12.0723 39.6499C12.0679 39.6576 12.062 39.6643 12.0549 39.6697L12.3593 40.0664ZM12.5053 39.8998L12.9384 40.1498C13.0085 40.0283 13.054 39.8943 13.0722 39.7552L12.5765 39.6901L12.0808 39.6249C12.0796 39.6337 12.0767 39.6422 12.0723 39.6499L12.5053 39.8998ZM12.5765 39.6901L13.0722 39.7552C13.0905 39.6162 13.0812 39.475 13.0449 39.3395L12.562 39.4691L12.079 39.5986C12.0813 39.6072 12.0819 39.6161 12.0808 39.6249L12.5765 39.6901ZM12.562 39.4691L13.0449 39.3397L12.3468 36.7346L11.8638 36.864L11.3809 36.9935L12.079 39.5985L12.562 39.4691ZM6.96064 4.28898L6.83123 4.77194L9.44196 5.47146L9.57136 4.9885L9.70077 4.50554L7.09005 3.80601L6.96064 4.28898ZM9.57136 4.9885L9.29014 4.57508C6.92642 6.18299 4.9505 8.30675 3.51559 10.7928L3.94864 11.0427L4.38168 11.2927C5.74113 8.93736 7.61316 6.92527 9.85259 5.40192L9.57136 4.9885ZM3.94864 11.0427L3.51559 10.7928C1.85373 13.672 0.975634 16.9366 0.968857 20.261L1.46886 20.262L1.96885 20.2631C1.97528 17.1134 2.8072 14.0205 4.38168 11.2927L3.94864 11.0427ZM1.46886 20.262L0.968859 20.2603C0.960239 22.7938 1.46359 25.303 2.44871 27.6371L2.90937 27.4427L3.37002 27.2483C2.43728 25.0382 1.96069 22.6625 1.96885 20.2637L1.46886 20.262ZM2.90937 27.4427L2.44871 27.6371C3.43383 29.9712 4.8804 32.0823 6.70159 33.8435L7.04918 33.4841L7.39677 33.1247C5.67241 31.4571 4.30276 29.4583 3.37002 27.2483L2.90937 27.4427ZM7.04918 33.4841L6.70064 33.8426C6.90069 34.0371 7.16893 34.1455 7.44794 34.1447L7.44648 33.6447L7.44502 33.1447C7.42736 33.1448 7.41038 33.1379 7.39772 33.1256L7.04918 33.4841ZM7.44648 33.6447L7.44501 34.1447C7.66259 34.1453 7.86819 34.0785 8.04072 33.9629L7.76239 33.5475L7.48405 33.1321C7.46871 33.1424 7.45652 33.1447 7.44794 33.1447L7.44648 33.6447ZM7.76239 33.5475L8.04072 33.9629C8.21742 33.8445 8.35471 33.676 8.43501 33.479L7.97201 33.2903L7.50901 33.1015C7.50392 33.114 7.49523 33.1246 7.48405 33.1321L7.76239 33.5475ZM7.97201 33.2903L8.43501 33.479C8.5153 33.2821 8.53494 33.0656 8.49139 32.8574L8.00199 32.9598L7.51258 33.0622C7.51533 33.0754 7.51409 33.0891 7.50901 33.1015L7.97201 33.2903ZM8.00199 32.9598L8.49139 32.8574C8.44785 32.6493 8.34311 32.4588 8.1906 32.3106L7.84207 32.6691L7.49354 33.0276C7.50319 33.0369 7.50982 33.049 7.51258 33.0622L8.00199 32.9598ZM7.84207 32.6691L8.18961 32.3096C6.5742 30.7478 5.29102 28.8758 4.4171 26.8058L3.95647 27.0003L3.49584 27.1947C4.42216 29.3888 5.78228 31.3731 7.49454 33.0285L7.84207 32.6691ZM3.95647 27.0003L4.4171 26.8058C3.54318 24.7358 3.09654 22.5106 3.10399 20.2637L2.60399 20.262L2.10399 20.2604C2.0961 22.642 2.56952 25.0006 3.49584 27.1947L3.95647 27.0003ZM2.60399 20.262L3.10399 20.2631C3.11013 17.3126 3.88948 14.4152 5.36437 11.8598L4.93132 11.6098L4.49827 11.3599C2.93602 14.0667 2.1105 17.1357 2.10399 20.261L2.60399 20.262ZM4.93132 11.6098L5.36437 11.8598C6.60721 9.70634 8.30738 7.85912 10.3385 6.4448L10.0528 6.03448L9.76705 5.62415C7.61562 7.12226 5.81474 9.07891 4.49827 11.3599L4.93132 11.6098ZM10.0528 6.03448L9.56981 5.90505L8.90914 8.37033L9.3921 8.49976L9.87506 8.62919L10.5357 6.1639L10.0528 6.03448ZM9.3921 8.49976L8.90916 8.37026C8.86674 8.52845 8.86129 8.69428 8.89322 8.85492L9.38363 8.75743L9.87403 8.65993C9.87201 8.64977 9.87235 8.63927 9.87504 8.62926L9.3921 8.49976ZM9.38363 8.75743L8.89322 8.85492C8.92516 9.01555 8.99362 9.16669 9.09332 9.29663L9.49001 8.99226L9.88669 8.68789C9.88038 8.67967 9.87605 8.6701 9.87403 8.65993L9.38363 8.75743ZM9.49001 8.99226L9.09332 9.29663C9.19302 9.42656 9.32128 9.53182 9.46817 9.60425L9.68929 9.15581L9.91042 8.70736C9.90112 8.70278 9.893 8.69612 9.88669 8.68789L9.49001 8.99226ZM9.68929 9.15581L9.46817 9.60425C9.61506 9.67669 9.77665 9.71435 9.94043 9.71433L9.94037 9.21433L9.94031 8.71433C9.92994 8.71433 9.91971 8.71194 9.91042 8.70736L9.68929 9.15581ZM9.94037 9.21433L9.94031 9.71433C10.1753 9.71436 10.4037 9.63685 10.5902 9.49382L10.2859 9.0971L9.98156 8.70037C9.96976 8.70942 9.9553 8.71433 9.94043 8.71433L9.94037 9.21433ZM10.2859 9.0971L10.5902 9.49382C10.7767 9.35079 10.9107 9.15024 10.9716 8.92326L10.4886 8.79376L10.0057 8.66426C10.0018 8.67863 9.99336 8.69132 9.98156 8.70037L10.2859 9.0971ZM10.4886 8.79376L10.9716 8.92313L12.008 5.05402L11.525 4.92465L11.042 4.79528L10.0057 8.66439L10.4886 8.79376ZM11.525 4.92465L12.0079 5.05419C12.0443 4.91876 12.0536 4.77751 12.0353 4.63848L11.5396 4.70364L11.0438 4.7688C11.045 4.7776 11.0444 4.78654 11.0421 4.79511L11.525 4.92465ZM11.5396 4.70364L12.0353 4.63848C12.017 4.49947 11.9715 4.36541 11.9015 4.24396L11.4684 4.4939L11.0353 4.74383C11.0398 4.75151 11.0427 4.76 11.0438 4.7688L11.5396 4.70364ZM11.4684 4.4939L11.9015 4.24396C11.8314 4.12252 11.738 4.01608 11.6268 3.93071L11.3224 4.32736L11.018 4.724C11.025 4.72941 11.0309 4.73614 11.0353 4.74383L11.4684 4.4939ZM11.3224 4.32736L11.6268 3.93071C11.5156 3.84534 11.3886 3.78272 11.2532 3.74642L11.1237 4.22938L10.9943 4.71234C11.0029 4.71464 11.0109 4.7186 11.018 4.724L11.3224 4.32736ZM11.1237 4.22938L11.2532 3.74643L7.38408 2.70948L7.25464 3.19243L7.1252 3.67539L10.9943 4.71234L11.1237 4.22938ZM7.25464 3.19243L7.38412 2.70949C7.11063 2.63616 6.81921 2.67448 6.57397 2.81602L6.8239 3.24908L7.07383 3.68213C7.08937 3.67316 7.10783 3.67073 7.12516 3.67538L7.25464 3.19243ZM6.8239 3.24908L6.57397 2.81602C6.32873 2.95756 6.14976 3.19072 6.07643 3.46422L6.55937 3.59371L7.04231 3.72319C7.04696 3.70586 7.05829 3.69109 7.07383 3.68213L6.8239 3.24908ZM6.55937 3.59371L6.07643 3.46422C6.0031 3.73772 6.04142 4.02914 6.18296 4.27438L6.61601 4.02445L7.04906 3.77451C7.04009 3.75898 7.03767 3.74052 7.04231 3.72319L6.55937 3.59371ZM6.61601 4.02445L6.18296 4.27438C6.3245 4.51962 6.55766 4.69859 6.83115 4.77192L6.96064 4.28898L7.09012 3.80603C7.0728 3.80139 7.05803 3.79005 7.04906 3.77451L6.61601 4.02445ZM18.2663 20.3287L17.9885 20.7444C18.5595 21.1259 19.2309 21.3296 19.9176 21.3296V20.8296V20.3296C19.4287 20.3296 18.9506 20.1846 18.5441 19.9129L18.2663 20.3287ZM19.9176 20.8296V21.3296C20.182 21.3296 20.4405 21.408 20.6604 21.5548L20.9381 21.1391L21.2158 20.7233C20.8315 20.4666 20.3798 20.3296 19.9176 20.3296V20.8296ZM20.9381 21.1391L20.6604 21.5548C20.8803 21.7017 21.0516 21.9105 21.1529 22.1547L21.6148 21.9632L22.0767 21.7717C21.8997 21.3448 21.6001 20.98 21.2158 20.7233L20.9381 21.1391ZM21.6148 21.9632L21.1529 22.1547C21.2542 22.399 21.2807 22.6677 21.2293 22.9271L21.7197 23.0244L22.2102 23.1217C22.3001 22.6684 22.2537 22.1986 22.0767 21.7717L21.6148 21.9632ZM21.7197 23.0244L21.2293 22.9271C21.1778 23.1864 21.0506 23.4247 20.8638 23.6118L21.2175 23.9651L21.5713 24.3185C21.8979 23.9915 22.1202 23.575 22.2102 23.1217L21.7197 23.0244ZM21.2175 23.9651L20.8638 23.6118C20.6769 23.7989 20.4388 23.9264 20.1795 23.9781L20.2775 24.4685L20.3754 24.9588C20.8286 24.8683 21.2447 24.6454 21.5713 24.3185L21.2175 23.9651ZM20.2775 24.4685L20.1795 23.9781C19.9202 24.0299 19.6514 24.0037 19.4071 23.9027L19.2161 24.3648L19.0252 24.827C19.4523 25.0034 19.9222 25.0493 20.3754 24.9588L20.2775 24.4685ZM19.2161 24.3648L19.4071 23.9027C19.1627 23.8018 18.9537 23.6306 18.8066 23.4109L18.3912 23.6892L17.9757 23.9674C18.2329 24.3514 18.5981 24.6505 19.0252 24.827L19.2161 24.3648ZM18.3912 23.6892L18.8066 23.4109C18.6595 23.1912 18.5807 22.9329 18.5804 22.6685L18.0804 22.6691L17.5804 22.6697C17.581 23.1318 17.7186 23.5834 17.9757 23.9674L18.3912 23.6892ZM18.0804 22.6691H18.5804C18.5804 22.386 18.4679 22.1144 18.2677 21.9142L17.9142 22.2678L17.5606 22.6213C17.5733 22.634 17.5804 22.6512 17.5804 22.6691H18.0804ZM17.9142 22.2678L18.2677 21.9142C18.0675 21.714 17.796 21.6015 17.5129 21.6015V22.1015V22.6015C17.5308 22.6015 17.548 22.6086 17.5606 22.6213L17.9142 22.2678ZM17.5129 22.1015V21.6015C17.2297 21.6015 16.9582 21.714 16.758 21.9142L17.1115 22.2678L17.4651 22.6213C17.4778 22.6086 17.4949 22.6015 17.5129 22.6015V22.1015ZM17.1115 22.2678L16.758 21.9142C16.5578 22.1144 16.4453 22.386 16.4453 22.6691H16.9453H17.4453C17.4453 22.6512 17.4524 22.634 17.4651 22.6213L17.1115 22.2678ZM16.9453 22.6691L16.4453 22.6696C16.4462 23.5901 16.8122 24.4727 17.4631 25.1237L17.8167 24.7702L18.1703 24.4167C17.7066 23.953 17.4459 23.3243 17.4453 22.6686L16.9453 22.6691ZM17.8167 24.7702L17.4631 25.1237C17.9547 25.6154 18.5784 25.9446 19.2508 26.0768L19.3472 25.5862L19.4437 25.0956C18.9647 25.0014 18.5204 24.7669 18.1703 24.4167L17.8167 24.7702ZM19.3472 25.5862H18.8472V26.062H19.3472H19.8472V25.5862H19.3472ZM19.3472 26.062H18.8472C18.8472 26.3451 18.9597 26.6167 19.1599 26.8169L19.5135 26.4633L19.867 26.1098C19.8544 26.0971 19.8472 26.0799 19.8472 26.062H19.3472ZM19.5135 26.4633L19.1599 26.8169C19.3601 27.0171 19.6317 27.1296 19.9148 27.1296V26.6296V26.1296C19.8969 26.1296 19.8797 26.1225 19.867 26.1098L19.5135 26.4633ZM19.9148 26.6296V27.1296C20.1979 27.1296 20.4695 27.0171 20.6697 26.8169L20.3161 26.4633L19.9626 26.1098C19.9499 26.1225 19.9327 26.1296 19.9148 26.1296V26.6296ZM20.3161 26.4633L20.6697 26.8169C20.8699 26.6167 20.9824 26.3451 20.9824 26.062H20.4824H19.9824C19.9824 26.0799 19.9753 26.0971 19.9626 26.1098L20.3161 26.4633ZM20.4824 26.062H20.9824V25.5796H20.4824H19.9824V26.062H20.4824ZM20.4824 25.5796L20.5848 26.069C21.2505 25.9297 21.8655 25.5962 22.3492 25.1058L21.9932 24.7547L21.6372 24.4036C21.2921 24.7536 20.8535 24.9911 20.38 25.0902L20.4824 25.5796ZM21.9932 24.7547L22.3492 25.1058C22.9901 24.4559 23.3495 23.5799 23.3495 22.6671H22.8495H22.3495C22.3495 23.317 22.0936 23.9409 21.6372 24.4036L21.9932 24.7547ZM22.8495 22.6671H23.3495C23.3495 21.7543 22.9901 20.8783 22.3492 20.2284L21.9932 20.5795L21.6372 20.9306C22.0936 21.3933 22.3495 22.0172 22.3495 22.6671H22.8495ZM21.9932 20.5795L22.3492 20.2284C21.7136 19.5839 20.8516 19.2133 19.9472 19.1949L19.937 19.6948L19.9269 20.1947C20.5709 20.2078 21.1846 20.4717 21.6372 20.9306L21.9932 20.5795ZM19.937 19.6948L19.9541 19.1951C19.942 19.1947 19.9298 19.1945 19.9176 19.1945V19.6945V20.1945C19.9184 20.1945 19.9192 20.1945 19.92 20.1945L19.937 19.6948ZM19.9176 19.6945V19.1945C19.6532 19.1945 19.3946 19.116 19.1747 18.9691L18.8969 19.3848L18.6192 19.8006C19.0035 20.0574 19.4554 20.1945 19.9176 20.1945V19.6945ZM18.8969 19.3848L19.1747 18.9691C18.9548 18.8222 18.7834 18.6133 18.6822 18.369L18.2203 18.5603L17.7583 18.7517C17.9352 19.1787 18.2348 19.5438 18.6192 19.8006L18.8969 19.3848ZM18.2203 18.5603L18.6822 18.369C18.581 18.1246 18.5545 17.8558 18.6061 17.5964L18.1157 17.4988L17.6253 17.4013C17.5352 17.8547 17.5814 18.3246 17.7583 18.7517L18.2203 18.5603ZM18.1157 17.4988L18.6061 17.5964C18.6577 17.337 18.7851 17.0987 18.9721 16.9117L18.6185 16.5581L18.265 16.2046C17.9381 16.5315 17.7155 16.9479 17.6253 17.4013L18.1157 17.4988ZM18.6185 16.5581L18.9721 16.9117C19.1591 16.7247 19.3974 16.5973 19.6568 16.5457L19.5592 16.0553L19.4617 15.5649C19.0083 15.6551 18.5918 15.8777 18.265 16.2046L18.6185 16.5581ZM19.5592 16.0553L19.6568 16.5457C19.7319 16.5308 19.8079 16.5224 19.8838 16.5205L19.8711 16.0206L19.8585 15.5208C19.7258 15.5241 19.593 15.5388 19.4617 15.5649L19.5592 16.0553ZM19.9598 16.0205L19.9483 16.5204C20.1127 16.5242 20.2759 16.5582 20.4294 16.6218L20.6207 16.1599L20.8121 15.6979C20.5438 15.5868 20.2586 15.5272 19.9713 15.5206L19.9598 16.0205ZM20.6207 16.1599L20.4294 16.6218C20.6737 16.723 20.8826 16.8944 21.0295 17.1143L21.4452 16.8365L21.861 16.5588C21.6041 16.1744 21.2391 15.8748 20.8121 15.6979L20.6207 16.1599ZM21.4452 16.8365L21.0295 17.1143C21.1764 17.3342 21.2549 17.5928 21.2549 17.8572H21.7549H22.2549C22.2549 17.395 22.1178 16.9431 21.861 16.5588L21.4452 16.8365ZM21.7549 17.8572H21.2549C21.2549 18.1404 21.3673 18.4119 21.5675 18.6121L21.9211 18.2586L22.2746 17.905C22.262 17.8924 22.2549 17.8752 22.2549 17.8572H21.7549ZM21.9211 18.2586L21.5675 18.6121C21.7677 18.8123 22.0393 18.9248 22.3224 18.9248V18.4248V17.9248C22.3045 17.9248 22.2873 17.9177 22.2746 17.905L21.9211 18.2586ZM22.3224 18.4248V18.9248C22.6056 18.9248 22.8771 18.8123 23.0773 18.6121L22.7238 18.2586L22.3702 17.905C22.3575 17.9177 22.3403 17.9248 22.3224 17.9248V18.4248ZM22.7238 18.2586L23.0773 18.6121C23.2775 18.4119 23.39 18.1404 23.39 17.8572H22.89H22.39C22.39 17.8752 22.3829 17.8924 22.3702 17.905L22.7238 18.2586ZM22.89 17.8572H23.39C23.39 17.1705 23.1863 16.4991 22.8048 15.9281L22.3891 16.2059L21.9733 16.4837C22.245 16.8903 22.39 17.3683 22.39 17.8572H22.89ZM22.3891 16.2059L22.8048 15.9281C22.4232 15.3571 21.8809 14.912 21.2465 14.6492L21.0551 15.1112L20.8638 15.5731C21.3155 15.7602 21.7017 16.0771 21.9733 16.4837L22.3891 16.2059ZM21.0551 15.1112L21.2465 14.6492C21.0297 14.5594 20.8055 14.4923 20.5774 14.4481L20.4824 14.939L20.3874 15.4299C20.5498 15.4614 20.7094 15.5092 20.8638 15.5731L21.0551 15.1112ZM20.4824 14.939H20.9824V14.4643H20.4824H19.9824V14.939H20.4824ZM20.4824 14.4643H20.9824C20.9824 14.1812 20.8699 13.9097 20.6697 13.7094L20.3161 14.063L19.9626 14.4166C19.9753 14.4292 19.9824 14.4464 19.9824 14.4643H20.4824ZM20.3161 14.063L20.6697 13.7094C20.4695 13.5092 20.1979 13.3968 19.9148 13.3968V13.8968V14.3968C19.9327 14.3968 19.9499 14.4039 19.9626 14.4166L20.3161 14.063ZM19.9148 13.8968V13.3968C19.6317 13.3968 19.3601 13.5092 19.1599 13.7094L19.5135 14.063L19.867 14.4166C19.8797 14.4039 19.8969 14.3968 19.9148 14.3968V13.8968ZM19.5135 14.063L19.1599 13.7094C18.9597 13.9097 18.8472 14.1812 18.8472 14.4643H19.3472H19.8472C19.8472 14.4464 19.8544 14.4292 19.867 14.4166L19.5135 14.063ZM19.3472 14.4643H18.8472V14.9401H19.3472H19.8472V14.4643H19.3472ZM19.3472 14.9401L19.2505 14.4496L19.241 14.4515L19.3378 14.942L19.4345 15.4326L19.444 15.4307L19.3472 14.9401ZM19.3378 14.942L19.2402 14.4516C18.5666 14.5856 17.9479 14.9163 17.4623 15.4019L17.8159 15.7555L18.1694 16.109C18.5152 15.7633 18.9557 15.5278 19.4353 15.4324L19.3378 14.942ZM17.8159 15.7555L17.4623 15.4019C16.9767 15.8875 16.646 16.5063 16.512 17.1798L17.0024 17.2774L17.4928 17.3749C17.5882 16.8953 17.8237 16.4548 18.1694 16.109L17.8159 15.7555ZM17.0024 17.2774L16.512 17.1798C16.378 17.8534 16.4468 18.5516 16.7096 19.1861L17.1715 18.9947L17.6335 18.8034C17.4464 18.3516 17.3974 17.8545 17.4928 17.3749L17.0024 17.2774ZM17.1715 18.9947L16.7096 19.1861C16.9724 19.8205 17.4175 20.3629 17.9885 20.7444L18.2663 20.3287L18.5441 19.9129C18.1375 19.6413 17.8206 19.2551 17.6335 18.8034L17.1715 18.9947Z" fill="url(#paint8_linear_6687_6373)" mask="url(#path-1-outside-1_6687_6373)"/>
</g>
</g>
<defs>
<linearGradient id="paint0_linear_6687_6373" x1="21.3372" y1="1.8125" x2="21.3372" y2="46.8681" gradientUnits="userSpaceOnUse">
<stop stop-color="#F4853B"/>
<stop offset="1" stop-color="#3448F5"/>
</linearGradient>
<linearGradient id="paint1_linear_6687_6373" x1="21.3372" y1="1.8125" x2="21.3372" y2="46.8681" gradientUnits="userSpaceOnUse">
<stop stop-color="#F4853B"/>
<stop offset="1" stop-color="#3448F5"/>
</linearGradient>
<linearGradient id="paint2_linear_6687_6373" x1="21.3372" y1="1.8125" x2="21.3372" y2="46.8681" gradientUnits="userSpaceOnUse">
<stop stop-color="#F4853B"/>
<stop offset="1" stop-color="#3448F5"/>
</linearGradient>
<linearGradient id="paint3_linear_6687_6373" x1="21.3372" y1="1.8125" x2="21.3372" y2="46.8681" gradientUnits="userSpaceOnUse">
<stop stop-color="#F4853B"/>
<stop offset="1" stop-color="#3448F5"/>
</linearGradient>
<linearGradient id="paint4_linear_6687_6373" x1="21.3372" y1="1.8125" x2="21.3372" y2="46.8681" gradientUnits="userSpaceOnUse">
<stop stop-color="#F4853B"/>
<stop offset="1" stop-color="#3448F5"/>
</linearGradient>
<linearGradient id="paint5_linear_6687_6373" x1="21.3372" y1="1.8125" x2="21.3372" y2="46.8681" gradientUnits="userSpaceOnUse">
<stop stop-color="#F4853B"/>
<stop offset="1" stop-color="#3448F5"/>
</linearGradient>
<linearGradient id="paint6_linear_6687_6373" x1="21.3372" y1="1.8125" x2="21.3372" y2="46.8681" gradientUnits="userSpaceOnUse">
<stop stop-color="#F4853B"/>
<stop offset="1" stop-color="#3448F5"/>
</linearGradient>
<linearGradient id="paint7_linear_6687_6373" x1="21.3372" y1="1.8125" x2="21.3372" y2="46.8681" gradientUnits="userSpaceOnUse">
<stop stop-color="#F4853B"/>
<stop offset="1" stop-color="#3448F5"/>
</linearGradient>
<linearGradient id="paint8_linear_6687_6373" x1="21.3372" y1="1.8125" x2="21.3372" y2="46.8681" gradientUnits="userSpaceOnUse">
<stop stop-color="#F4853B"/>
<stop offset="1" stop-color="#3448F5"/>
</linearGradient>
<clipPath id="clip0_6687_6373">
<rect width="42" height="42" fill="white" transform="translate(0.332031)"/>
</clipPath>
<clipPath id="clip1_6687_6373">
<rect width="42" height="42" fill="white" transform="translate(0.332031)"/>
</clipPath>
</defs>
</svg>
