<svg width="43" height="42" viewBox="0 0 43 42" fill="none" xmlns="http://www.w3.org/2000/svg">
<path d="M21.6671 33.0112C21.094 33.0112 20.6289 32.533 20.6289 31.9439C20.6289 25.6598 25.6024 20.5469 31.7152 20.5469H41.629C42.2021 20.5469 42.6672 21.025 42.6672 21.6141C42.6672 22.2033 42.2021 22.6814 41.629 22.6814H31.7152C26.7472 22.6814 22.7052 26.8366 22.7052 31.9439C22.7052 32.533 22.2401 33.0112 21.6671 33.0112Z" fill="url(#paint0_linear_6687_6394)"/>
<path d="M35.7292 28.9659C35.4649 28.9659 35.2005 28.862 34.9984 28.6556C34.5914 28.2401 34.5886 27.5642 34.9928 27.1458L40.3373 21.6117L34.9928 16.0775C34.5886 15.6591 34.5914 14.9832 34.9984 14.5677C35.4053 14.1522 36.0628 14.155 36.467 14.5734L42.2503 20.5615C42.8096 21.1406 42.8096 22.0827 42.2503 22.6604L36.467 28.6485C36.2622 28.8606 35.9964 28.9659 35.7292 28.9659Z" fill="url(#paint1_linear_6687_6394)"/>
<path d="M21.6681 33.019C21.095 33.019 20.6299 32.5408 20.6299 31.9517C20.6299 26.8445 16.5893 22.6892 11.6213 22.6892H1.70614C1.13307 22.6892 0.667969 22.2111 0.667969 21.622C0.667969 21.0328 1.13307 20.5547 1.70614 20.5547H11.6213C17.7327 20.5547 22.7062 25.6676 22.7062 31.9517C22.7062 32.5408 22.2411 33.019 21.6681 33.019Z" fill="url(#paint2_linear_6687_6394)"/>
<path d="M7.611 29.0035C7.34384 29.0035 7.07669 28.8982 6.87459 28.6876L1.0913 22.6995C0.532068 22.1203 0.532068 21.1783 1.0913 20.6005L6.87459 14.6124C7.27878 14.1941 7.93629 14.1912 8.34325 14.6067C8.75022 15.0223 8.75299 15.6982 8.34879 16.1166L3.0043 21.6507L8.34879 27.1849C8.75299 27.6032 8.75022 28.2792 8.34325 28.6947C8.13977 28.901 7.87539 29.0035 7.611 29.0035Z" fill="url(#paint3_linear_6687_6394)"/>
<path d="M21.6671 41.9955C21.094 41.9955 20.6289 41.5174 20.6289 40.9283V31.9618C20.6289 31.3727 21.094 30.8945 21.6671 30.8945C22.2401 30.8945 22.7052 31.3727 22.7052 31.9618V40.9283C22.7052 41.5174 22.2401 41.9955 21.6671 41.9955Z" fill="url(#paint4_linear_6687_6394)"/>
<path d="M21.6671 33.0341C21.094 33.0341 20.6289 32.5559 20.6289 31.9668V1.09852C20.6289 0.509387 21.094 0.03125 21.6671 0.03125C22.2401 0.03125 22.7052 0.509387 22.7052 1.09852V31.9668C22.7052 32.5559 22.2401 33.0341 21.6671 33.0341Z" fill="url(#paint5_linear_6687_6394)"/>
<path d="M25.9766 6.41286C25.7122 6.41286 25.4478 6.30898 25.2457 6.10264L21.6661 2.44831L18.0865 6.10264C17.6795 6.51817 17.022 6.51532 16.6178 6.09695C16.2136 5.67858 16.2164 5.00265 16.6234 4.58712L20.7304 0.39489C21.2467 -0.13163 22.0855 -0.13163 22.6018 0.39489L26.7088 4.58712C27.1158 5.00265 27.1186 5.67858 26.7144 6.09695C26.5109 6.30756 26.2437 6.41286 25.9766 6.41286Z" fill="url(#paint6_linear_6687_6394)"/>
<defs>
<linearGradient id="paint0_linear_6687_6394" x1="31.648" y1="20.5469" x2="31.648" y2="35.1825" gradientUnits="userSpaceOnUse">
<stop stop-color="#F4853B"/>
<stop offset="1" stop-color="#3448F5"/>
</linearGradient>
<linearGradient id="paint1_linear_6687_6394" x1="38.6806" y1="14.2578" x2="38.6806" y2="31.5281" gradientUnits="userSpaceOnUse">
<stop stop-color="#F4853B"/>
<stop offset="1" stop-color="#3448F5"/>
</linearGradient>
<linearGradient id="paint2_linear_6687_6394" x1="11.6871" y1="20.5547" x2="11.6871" y2="35.1903" gradientUnits="userSpaceOnUse">
<stop stop-color="#F4853B"/>
<stop offset="1" stop-color="#3448F5"/>
</linearGradient>
<linearGradient id="paint3_linear_6687_6394" x1="4.66105" y1="14.2969" x2="4.66105" y2="31.5654" gradientUnits="userSpaceOnUse">
<stop stop-color="#F4853B"/>
<stop offset="1" stop-color="#3448F5"/>
</linearGradient>
<linearGradient id="paint4_linear_6687_6394" x1="21.6671" y1="30.8945" x2="21.6671" y2="43.9294" gradientUnits="userSpaceOnUse">
<stop stop-color="#F4853B"/>
<stop offset="1" stop-color="#3448F5"/>
</linearGradient>
<linearGradient id="paint5_linear_6687_6394" x1="21.6671" y1="0.03125" x2="21.6671" y2="38.7833" gradientUnits="userSpaceOnUse">
<stop stop-color="#F4853B"/>
<stop offset="1" stop-color="#3448F5"/>
</linearGradient>
<linearGradient id="paint6_linear_6687_6394" x1="21.6661" y1="0" x2="21.6661" y2="7.53001" gradientUnits="userSpaceOnUse">
<stop stop-color="#F4853B"/>
<stop offset="1" stop-color="#3448F5"/>
</linearGradient>
</defs>
</svg>
