<svg width="42" height="42" viewBox="0 0 42 42" fill="none" xmlns="http://www.w3.org/2000/svg">
<path d="M40.574 25.4101V16.007C40.574 16.007 40.574 16.0069 40.574 16.0068C40.574 15.9841 40.5726 15.9618 40.5705 15.9396C40.5699 15.9325 40.569 15.9255 40.5681 15.9184C40.5663 15.903 40.564 15.8878 40.5612 15.8727C40.5598 15.8652 40.5585 15.8577 40.5569 15.8503C40.5526 15.8301 40.5476 15.8102 40.5416 15.7906C40.5396 15.7842 40.5372 15.7782 40.5351 15.7719C40.5303 15.7578 40.5253 15.7439 40.5198 15.7302C40.5165 15.7219 40.5129 15.7138 40.5092 15.7057C40.5038 15.6935 40.4981 15.6816 40.492 15.6699C40.4883 15.6627 40.4847 15.6554 40.4808 15.6483C40.4709 15.6305 40.4604 15.613 40.449 15.5961C40.4466 15.5924 40.4438 15.589 40.4412 15.5854C40.4315 15.5713 40.4212 15.5576 40.4104 15.5442C40.4061 15.539 40.4017 15.5338 40.3974 15.5286C40.3872 15.5167 40.3766 15.505 40.3656 15.4937C40.3614 15.4894 40.3574 15.485 40.3531 15.4808C40.3379 15.4658 40.322 15.4512 40.3055 15.4375C40.3048 15.4369 40.3041 15.4364 40.3034 15.4359C40.2878 15.4231 40.2715 15.4111 40.2547 15.3995C40.2487 15.3953 40.2425 15.3915 40.2364 15.3875C40.2247 15.3798 40.2127 15.3726 40.2005 15.3656C40.1931 15.3614 40.1856 15.3572 40.1781 15.3532C40.1658 15.3468 40.1531 15.3409 40.1404 15.335C40.1332 15.3318 40.1263 15.3282 40.119 15.3253C40.1189 15.3253 40.1189 15.3252 40.1189 15.3252L20.5702 7.20492C20.3889 7.12961 20.1851 7.12961 20.0038 7.20492L0.455027 15.3251C0.179566 15.4395 0 15.7084 0 16.0068C0 16.3051 0.179484 16.574 0.454945 16.6885L4.75798 18.4765V30.5318C4.75798 30.7276 4.83574 30.9154 4.97421 31.0538C6.63452 32.714 9.73489 33.8565 14.1894 34.4492C17.3765 34.8733 20.0774 34.8533 20.2869 34.851C20.3118 34.8513 20.3716 34.8518 20.4633 34.8518C21.144 34.8518 23.5755 34.823 26.3844 34.4493C30.8389 33.8565 33.9394 32.7142 35.5996 31.0539C35.7381 30.9154 35.8158 30.7276 35.8158 30.5319V18.4766L39.0975 17.1131V25.4101C38.2665 25.7126 37.6715 26.5103 37.6715 27.4446C37.6715 28.638 38.6423 29.6088 39.8357 29.6088C41.0291 29.6088 42 28.6379 42 27.4446C42 26.5103 41.4049 25.7126 40.574 25.4101ZM34.3395 30.2128C32.8676 31.5125 30.0676 32.4679 26.2078 32.9833C23.063 33.4033 20.3235 33.3749 20.2963 33.3746C20.29 33.3745 20.2839 33.3745 20.2776 33.3746C20.2505 33.3749 17.5272 33.404 14.3841 32.9857C10.515 32.4709 7.70864 31.5146 6.23438 30.2128V19.0898L20.0038 24.8087C20.1851 24.884 20.3889 24.884 20.5701 24.8087L34.3395 19.0898V30.2128ZM34.7946 17.3021L20.287 23.3276L5.77935 17.3021L2.66232 16.0069L20.287 8.68591L37.9116 16.0068L34.7946 17.3021Z" fill="url(#paint0_linear_6687_6448)"/>
<defs>
<linearGradient id="paint0_linear_6687_6448" x1="21" y1="7.14844" x2="21" y2="39.6779" gradientUnits="userSpaceOnUse">
<stop stop-color="#F4853B"/>
<stop offset="1" stop-color="#3448F5"/>
</linearGradient>
</defs>
</svg>
