<svg width="43" height="42" viewBox="0 0 43 42" fill="none" xmlns="http://www.w3.org/2000/svg">
<path d="M33.2638 27.3132C31.9547 26.2 30.0888 26.0925 28.6625 26.9323L26.0053 24.2762C28.262 21.6982 29.6394 18.339 29.6394 14.6478C29.6394 6.57196 23.0648 0 14.9857 0C6.90666 0 0.332031 6.57196 0.332031 14.6478C0.332031 22.7236 6.90666 29.2955 14.9857 29.2955C18.6785 29.2955 22.039 27.9186 24.6181 25.6629L27.2753 28.319C26.4352 29.7447 26.5328 31.6099 27.6563 32.9282L34.2016 40.6036C34.9148 41.4434 35.9601 41.9512 37.0737 42H37.23C38.2851 42 39.3011 41.5801 40.0436 40.8379L41.167 39.715C41.9485 38.9337 42.3686 37.8498 42.3295 36.7463C42.2905 35.6429 41.7727 34.598 40.9325 33.8754L33.254 27.3327L33.2638 27.3132ZM2.28586 14.6478C2.28586 7.64613 7.98126 1.95303 14.9857 1.95303C21.9902 1.95303 27.6856 7.64613 27.6856 14.6478C27.6856 21.6494 21.9902 27.3425 14.9857 27.3425C7.98126 27.3425 2.28586 21.6494 2.28586 14.6478ZM39.7896 38.3185L38.6661 39.4415C38.2656 39.8419 37.7185 40.0567 37.1519 40.0274C36.5853 40.0079 36.0577 39.754 35.6963 39.3146L29.151 31.6489C28.4671 30.8482 28.516 29.6471 29.2584 28.9049C29.6492 28.5143 30.167 28.319 30.6847 28.319C31.1536 28.319 31.6226 28.4752 31.9938 28.7975L39.6723 35.3402C40.1119 35.7112 40.3562 36.2288 40.3855 36.7952C40.4148 37.3615 40.1999 37.8986 39.7993 38.3088L39.7896 38.3185Z" fill="url(#paint0_linear_6687_6469)"/>
<path d="M20.5755 9.10156H17.6026C17.1939 9.10156 16.8594 9.54781 16.8594 10.0932C16.8594 10.6386 17.1939 11.0849 17.6026 11.0849H18.9627L16.079 15.5771L14.4142 13.3558C14.2656 13.1575 14.0649 13.0484 13.8568 13.0682C13.6487 13.0781 13.4555 13.2071 13.3217 13.4252L9.60557 19.3752C9.34544 19.7917 9.3826 20.4264 9.70219 20.7735C9.8434 20.9321 10.0069 21.0016 10.1778 21.0016C10.3934 21.0016 10.6015 20.8826 10.7501 20.6446L13.946 15.5276L15.6034 17.739C15.752 17.9373 15.9452 18.0464 16.1608 18.0266C16.3689 18.0166 16.5621 17.8877 16.6959 17.6795L19.8472 12.7707V14.0599C19.8472 14.6053 20.1816 15.0516 20.5904 15.0516C20.9991 15.0516 21.3336 14.6053 21.3336 14.0599V10.0932C21.3336 9.54781 20.9991 9.10156 20.5904 9.10156H20.5755Z" fill="url(#paint1_linear_6687_6469)"/>
<defs>
<linearGradient id="paint0_linear_6687_6469" x1="21.332" y1="0" x2="21.332" y2="49.3166" gradientUnits="userSpaceOnUse">
<stop stop-color="#F4853B"/>
<stop offset="1" stop-color="#3448F5"/>
</linearGradient>
<linearGradient id="paint1_linear_6687_6469" x1="15.3836" y1="9.10156" x2="15.3836" y2="23.0746" gradientUnits="userSpaceOnUse">
<stop stop-color="#F4853B"/>
<stop offset="1" stop-color="#3448F5"/>
</linearGradient>
</defs>
</svg>
