<svg width="43" height="42" viewBox="0 0 43 42" fill="none" xmlns="http://www.w3.org/2000/svg">
<path d="M23.9773 38.6394H19.3433C17.7193 38.6394 16.4033 37.3234 16.4033 35.6994V26.2494H6.96734C5.34334 26.2494 4.02734 24.9334 4.02734 23.3094V18.6754C4.02734 17.0514 5.34334 15.7354 6.96734 15.7354H16.4173V6.29938C16.4173 4.67538 17.7333 3.35938 19.3573 3.35938H23.9913C25.6153 3.35938 26.9313 4.67538 26.9313 6.29938V15.7494H36.3673C37.9913 15.7494 39.3073 17.0654 39.3073 18.6894V23.3234C39.3073 24.9474 37.9913 26.2634 36.3673 26.2634H26.9173V35.6994C26.9173 37.3234 25.6013 38.6394 23.9773 38.6394ZM6.96734 17.7094C6.42134 17.7094 5.98734 18.1434 5.98734 18.6894V23.3234C5.98734 23.8694 6.42134 24.3034 6.96734 24.3034H18.3773V35.6994C18.3773 36.2454 18.8113 36.6794 19.3573 36.6794H23.9913C24.5373 36.6794 24.9713 36.2454 24.9713 35.6994V24.2894H36.3673C36.9133 24.2894 37.3473 23.8554 37.3473 23.3094V18.6754C37.3473 18.1294 36.9133 17.6954 36.3673 17.6954H24.9573V6.29938C24.9573 5.75338 24.5233 5.31938 23.9773 5.31938H19.3433C18.7973 5.31938 18.3633 5.75338 18.3633 6.29938V17.7094H6.96734Z" fill="url(#paint0_linear_6687_6490)"/>
<defs>
<linearGradient id="paint0_linear_6687_6490" x1="21.6673" y1="3.35937" x2="21.6673" y2="44.7853" gradientUnits="userSpaceOnUse">
<stop stop-color="#F4853B"/>
<stop offset="1" stop-color="#3448F5"/>
</linearGradient>
</defs>
</svg>
