<svg width="60" height="60" viewBox="0 0 60 60" fill="none" xmlns="http://www.w3.org/2000/svg">
<path d="M4.375 1.875H36.875C36.875 1.875 39.375 1.875 39.375 4.375V55.625C39.375 55.625 39.375 58.125 36.875 58.125H4.375C4.375 58.125 1.875 58.125 1.875 55.625V4.375C1.875 4.375 1.875 1.875 4.375 1.875Z" stroke="url(#paint0_linear_6622_2139)" stroke-width="3.75" stroke-linecap="round" stroke-linejoin="round"/>
<path d="M1.875 24.375H39.375M39.375 13.125H43.125C44.1196 13.125 45.0734 13.5201 45.7766 14.2233C46.4799 14.9266 46.875 15.8804 46.875 16.875V54.375C46.875 55.3696 47.2701 56.3234 47.9734 57.0266C48.6766 57.7299 49.6304 58.125 50.625 58.125C51.6196 58.125 52.5734 57.7299 53.2766 57.0266C53.9799 56.3234 54.375 55.3696 54.375 54.375V31.875M54.375 31.875C54.375 29.4275 55.1 27.0375 56.455 25L58.125 22.5M54.375 31.875H58.125M16.875 50.625V35.625C16.875 34.6304 17.2701 33.6766 17.9733 32.9733C18.6766 32.2701 19.6304 31.875 20.625 31.875H24.375M16.875 43.125H22.5M31.875 13.125C31.875 12.1304 31.4799 11.1766 30.7767 10.4733C30.0734 9.77009 29.1196 9.375 28.125 9.375H13.125C12.1304 9.375 11.1766 9.77009 10.4733 10.4733C9.77009 11.1766 9.375 12.1304 9.375 13.125C9.375 14.1196 9.77009 15.0734 10.4733 15.7767C11.1766 16.4799 12.1304 16.875 13.125 16.875H28.125C29.1196 16.875 30.0734 16.4799 30.7767 15.7767C31.4799 15.0734 31.875 14.1196 31.875 13.125Z" stroke="url(#paint1_linear_6622_2139)" stroke-width="3.75" stroke-linecap="round" stroke-linejoin="round"/>
<defs>
<linearGradient id="paint0_linear_6622_2139" x1="1.875" y1="30" x2="39.375" y2="30" gradientUnits="userSpaceOnUse">
<stop stop-color="#5254CB"/>
<stop offset="1" stop-color="#FF942F"/>
</linearGradient>
<linearGradient id="paint1_linear_6622_2139" x1="1.875" y1="33.75" x2="58.125" y2="33.75" gradientUnits="userSpaceOnUse">
<stop stop-color="#5254CB"/>
<stop offset="1" stop-color="#FF942F"/>
</linearGradient>
</defs>
</svg>
