<svg width="42" height="42" viewBox="0 0 42 42" fill="none" xmlns="http://www.w3.org/2000/svg">
<path d="M19.0918 40.9961L19.167 40.9922C19.5416 40.9543 19.833 40.6376 19.833 40.2539V3.07227L19.8291 2.99609C19.7919 2.62082 19.4753 2.32922 19.0918 2.3291H16.2041C15.5484 2.3291 15.0168 2.86207 15.0166 3.5166V6.79688C13.7746 7.13688 12.5832 7.63117 11.4619 8.27148L9.1416 5.94922C8.91826 5.72599 8.61882 5.60254 8.30176 5.60254C7.98531 5.6026 7.68668 5.72649 7.46289 5.94922H7.46191L3.37891 10.0342C2.91536 10.497 2.91576 11.2496 3.37891 11.7129L5.69824 14.0342C5.05847 15.1549 4.56533 16.3453 4.22559 17.5879L0.945312 17.5869C0.290641 17.587 -0.241955 18.1198 -0.242188 18.7744V24.5508C-0.242125 25.2056 0.290537 25.7382 0.945312 25.7383H4.22559C4.56487 26.9801 5.05909 28.171 5.69922 29.292L3.37891 31.6123C2.91533 32.075 2.91521 32.8293 3.37891 33.292L7.46289 37.375C7.68679 37.5988 7.98533 37.7226 8.30176 37.7227C8.6188 37.7227 8.91815 37.5993 9.1416 37.375L11.4619 35.0557C12.5829 35.6958 13.7741 36.189 15.0166 36.5283V39.8086C15.0167 40.4631 15.5481 40.996 16.2031 40.9961H19.0918ZM16.5 35.9531C16.5 35.6081 16.2624 35.3084 15.9258 35.2305C14.4434 34.8865 13.0338 34.3015 11.7363 33.4932C11.4439 33.3112 11.0646 33.3547 10.8203 33.5977V33.5986L8.30176 36.1172L4.63672 32.4521L7.1543 29.9346C7.39945 29.6907 7.44403 29.3091 7.26074 29.0166L7.25977 29.0176C6.45235 27.7202 5.86926 26.3105 5.52441 24.8281C5.44645 24.4915 5.14677 24.2539 4.80176 24.2539H1.24219V19.0713H4.80078C5.14559 19.0713 5.44524 18.8343 5.52344 18.498C5.82517 17.2002 6.30989 15.9579 6.96777 14.7998L7.26074 14.3086V14.3076C7.44225 14.0149 7.39924 13.6361 7.15625 13.3916L7.15527 13.3906L4.6377 10.874L8.30176 7.20996L10.8203 9.72754L10.918 9.80957C11.1241 9.95426 11.3907 9.98504 11.624 9.89062L11.7373 9.83301V9.83203C13.0348 9.02369 14.4442 8.43874 15.9258 8.09473C16.2626 8.01667 16.5 7.716 16.5 7.37207V3.8125H18.3496V39.5117H16.5V35.9531Z" fill="url(#paint0_linear_5307_5958)" stroke="url(#paint1_linear_5307_5958)" stroke-width="0.5"/>
<path d="M19.0908 33.0586C19.5004 33.0586 19.833 32.726 19.833 32.3164V11.0107C19.833 10.8122 19.7535 10.6239 19.6162 10.4854L19.6143 10.4844C19.4751 10.3465 19.2876 10.2686 19.0908 10.2686C12.807 10.2686 7.69531 15.3801 7.69531 21.6631C7.69535 27.9469 12.807 33.0586 19.0908 33.0586ZM18.3486 31.5449C13.229 31.1641 9.17981 26.879 9.17969 21.6641C9.17969 16.4483 13.229 12.1641 18.3486 11.7832V31.5449Z" fill="url(#paint2_linear_5307_5958)" stroke="url(#paint3_linear_5307_5958)" stroke-width="0.5"/>
<path d="M28.0654 37.6875C28.4758 37.6875 28.8076 37.3557 28.8076 36.9453V33.3594C28.8076 32.0548 27.7469 30.9932 26.4424 30.9932H19.0898C18.6803 30.9932 18.3477 31.3258 18.3477 31.7354C18.3477 32.1449 18.6802 32.4775 19.0898 32.4775H26.4424C26.9287 32.4776 27.3242 32.8742 27.3242 33.3594V36.9453C27.3242 37.3554 27.6557 37.6874 28.0654 37.6875Z" fill="url(#paint4_linear_5307_5958)" stroke="url(#paint5_linear_5307_5958)" stroke-width="0.5"/>
<path d="M28.0645 40.8398C29.3434 40.8398 30.3835 39.8004 30.3838 38.5215C30.3838 37.2431 29.3435 36.2031 28.0645 36.2031C26.7865 36.2034 25.7461 37.2432 25.7461 38.5215C25.7463 39.8003 26.7866 40.8396 28.0645 40.8398ZM28.0645 39.3564C27.605 39.3562 27.2307 38.982 27.2305 38.5215C27.2305 38.0617 27.6047 37.6868 28.0645 37.6865C28.5246 37.6865 28.9004 38.0618 28.9004 38.5215C28.9001 38.9819 28.5244 39.3564 28.0645 39.3564Z" fill="url(#paint6_linear_5307_5958)" stroke="url(#paint7_linear_5307_5958)" stroke-width="0.5"/>
<path d="M26.4414 10.8516C27.7466 10.8516 28.8074 9.79079 28.8076 8.48633V4.89941C28.8075 4.49016 28.4761 4.15723 28.0654 4.15723C27.6555 4.15737 27.3243 4.49053 27.3242 4.89941V8.48633C27.324 8.97224 26.9284 9.36816 26.4414 9.36816H19.0898C18.6805 9.36816 18.3477 9.69967 18.3477 10.1104C18.3477 10.5204 18.6808 10.8516 19.0898 10.8516H26.4414Z" fill="url(#paint8_linear_5307_5958)" stroke="url(#paint9_linear_5307_5958)" stroke-width="0.5"/>
<path d="M28.0645 5.64062C29.3434 5.64062 30.3835 4.60118 30.3838 3.32227C30.3838 2.04314 29.3436 1.00293 28.0645 1.00293C26.7864 1.00318 25.7461 2.04323 25.7461 3.32227C25.7463 4.60108 26.7866 5.64037 28.0645 5.64062ZM28.0645 4.15625C27.6049 4.156 27.2307 3.78183 27.2305 3.32227C27.2305 2.86249 27.6047 2.48756 28.0645 2.4873C28.5246 2.4873 28.9004 2.86258 28.9004 3.32227C28.9001 3.78174 28.5245 4.15625 28.0645 4.15625Z" fill="url(#paint10_linear_5307_5958)" stroke="url(#paint11_linear_5307_5958)" stroke-width="0.5"/>
<path d="M33.0049 32.4834C33.2853 32.7348 33.7163 32.7367 34 32.4785V32.4775C34.3016 32.2019 34.3244 31.7338 34.0488 31.4307V31.4297L29.0205 25.917C28.8799 25.7628 28.682 25.6748 28.4727 25.6748H19.0898C18.6802 25.6748 18.3477 26.0074 18.3477 26.417C18.3478 26.8264 18.6804 27.1592 19.0898 27.1592H28.1455L32.9512 32.4297L33.0049 32.4834Z" fill="url(#paint12_linear_5307_5958)" stroke="url(#paint13_linear_5307_5958)" stroke-width="0.5"/>
<path d="M34.5801 35.3984C35.8582 35.3984 36.8992 34.3582 36.8994 33.0801C36.8994 31.801 35.8592 30.7607 34.5801 30.7607C33.3012 30.761 32.2617 31.8011 32.2617 33.0801C32.262 34.3579 33.3013 35.3982 34.5801 35.3984ZM34.5801 33.9141C34.1205 33.9138 33.7463 33.5396 33.7461 33.0801C33.7461 32.6201 34.1206 32.2444 34.5801 32.2441C35.0399 32.2441 35.415 32.6199 35.415 33.0791C35.4149 33.5398 35.0398 33.9141 34.5801 33.9141Z" fill="url(#paint14_linear_5307_5958)" stroke="url(#paint15_linear_5307_5958)" stroke-width="0.5"/>
<path d="M28.4727 16.1719C28.6818 16.1719 28.8791 16.0834 29.0195 15.9307H29.0205L34.0488 10.417L34.0967 10.3584C34.3206 10.0561 34.283 9.62679 34 9.36816C33.8572 9.23787 33.677 9.1748 33.5 9.1748C33.2989 9.17488 33.0985 9.25644 32.9521 9.41504L32.9512 9.41699L28.1445 14.6885H19.0898C18.6805 14.6885 18.3477 15.02 18.3477 15.4307C18.3477 15.8407 18.6808 16.1719 19.0898 16.1719H28.4727Z" fill="url(#paint16_linear_5307_5958)" stroke="url(#paint17_linear_5307_5958)" stroke-width="0.5"/>
<path d="M34.8184 11.3711C36.0973 11.3711 37.1374 10.3316 37.1377 9.05273C37.1377 7.77361 36.0975 6.7334 34.8184 6.7334C33.5403 6.73365 32.5 7.7737 32.5 9.05273C32.5003 10.3307 33.5404 11.3708 34.8184 11.3711ZM34.8184 9.88672C34.3588 9.88646 33.9846 9.5123 33.9844 9.05273C33.9844 8.59271 34.3589 8.21705 34.8184 8.2168C35.279 8.2168 35.6543 8.59267 35.6543 9.05273C35.654 9.51233 35.2791 9.88672 34.8184 9.88672Z" fill="url(#paint18_linear_5307_5958)" stroke="url(#paint19_linear_5307_5958)" stroke-width="0.5"/>
<path d="M30.209 19.8633L30.2852 19.8594C30.6595 19.8212 30.9502 19.5046 30.9502 19.1211C30.9502 18.712 30.6191 18.3789 30.209 18.3789H19.0898C18.6802 18.3789 18.3477 18.7115 18.3477 19.1211C18.3477 19.5307 18.6802 19.8633 19.0898 19.8633H30.209Z" fill="url(#paint20_linear_5307_5958)" stroke="url(#paint21_linear_5307_5958)" stroke-width="0.5"/>
<path d="M31.7871 21.4375C33.0652 21.4375 34.1062 20.3981 34.1064 19.1191C34.1064 17.8408 33.0654 16.7998 31.7871 16.7998C30.5081 16.8001 29.4688 17.8411 29.4688 19.1191C29.469 20.3979 30.5084 21.4372 31.7871 21.4375ZM31.7871 19.9531C31.3273 19.9529 30.9524 19.5785 30.9521 19.1191C30.9521 18.6596 31.3271 18.2844 31.7871 18.2842C32.247 18.2842 32.6221 18.6592 32.6221 19.1191C32.6218 19.5789 32.2469 19.9531 31.7871 19.9531Z" fill="url(#paint22_linear_5307_5958)" stroke="url(#paint23_linear_5307_5958)" stroke-width="0.5"/>
<path d="M36.5527 23.6094C36.9595 23.6094 37.2499 23.2548 37.25 22.8682C37.25 22.4809 36.9598 22.126 36.5527 22.126H19.0449C18.6385 22.1261 18.3477 22.4805 18.3477 22.8682C18.3477 23.2553 18.6388 23.6092 19.0449 23.6094H36.5527Z" fill="url(#paint24_linear_5307_5958)" stroke="url(#paint25_linear_5307_5958)" stroke-width="0.5"/>
<path d="M38.9238 25.1836C40.202 25.1836 41.2432 24.1437 41.2432 22.8652C41.243 21.5862 40.202 20.5469 38.9238 20.5469C37.645 20.5471 36.6057 21.5864 36.6055 22.8652C36.6055 24.1434 37.645 25.1833 38.9238 25.1836ZM38.9238 23.7002C38.4639 23.6999 38.0889 23.3248 38.0889 22.8652C38.0891 22.4056 38.4642 22.0305 38.9238 22.0303C39.3834 22.0303 39.7586 22.4052 39.7588 22.8652C39.7588 23.3252 39.3838 23.7002 38.9238 23.7002Z" fill="url(#paint26_linear_5307_5958)" stroke="url(#paint27_linear_5307_5958)" stroke-width="0.5"/>
<defs>
<linearGradient id="paint0_linear_5307_5958" x1="3.10857" y1="42.445" x2="16.1439" y2="40.3224" gradientUnits="userSpaceOnUse">
<stop stop-color="#9E87FF"/>
<stop offset="0.5" stop-color="#6DBFFE"/>
<stop offset="1" stop-color="#FF8F8F"/>
</linearGradient>
<linearGradient id="paint1_linear_5307_5958" x1="9.79537" y1="40.7461" x2="9.79537" y2="-4.06937" gradientUnits="userSpaceOnUse">
<stop stop-color="#F4853B"/>
<stop offset="1" stop-color="#3448F5"/>
</linearGradient>
<linearGradient id="paint2_linear_5307_5958" x1="9.78877" y1="33.8008" x2="17.5313" y2="32.5174" gradientUnits="userSpaceOnUse">
<stop stop-color="#9E87FF"/>
<stop offset="0.5" stop-color="#6DBFFE"/>
<stop offset="1" stop-color="#FF8F8F"/>
</linearGradient>
<linearGradient id="paint3_linear_5307_5958" x1="13.7642" y1="32.8086" x2="13.7642" y2="6.63518" gradientUnits="userSpaceOnUse">
<stop stop-color="#F4853B"/>
<stop offset="1" stop-color="#3448F5"/>
</linearGradient>
<linearGradient id="paint4_linear_5307_5958" x1="20.1754" y1="37.7132" x2="25.5762" y2="34.9559" gradientUnits="userSpaceOnUse">
<stop stop-color="#9E87FF"/>
<stop offset="0.5" stop-color="#6DBFFE"/>
<stop offset="1" stop-color="#FF8F8F"/>
</linearGradient>
<linearGradient id="paint5_linear_5307_5958" x1="23.5778" y1="37.4375" x2="23.5778" y2="30.1643" gradientUnits="userSpaceOnUse">
<stop stop-color="#F4853B"/>
<stop offset="1" stop-color="#3448F5"/>
</linearGradient>
<linearGradient id="paint6_linear_5307_5958" x1="26.6515" y1="40.774" x2="29.2208" y2="39.9581" gradientUnits="userSpaceOnUse">
<stop stop-color="#9E87FF"/>
<stop offset="0.5" stop-color="#6DBFFE"/>
<stop offset="1" stop-color="#FF8F8F"/>
</linearGradient>
<linearGradient id="paint7_linear_5307_5958" x1="28.0649" y1="40.5898" x2="28.0649" y2="35.7324" gradientUnits="userSpaceOnUse">
<stop stop-color="#F4853B"/>
<stop offset="1" stop-color="#3448F5"/>
</linearGradient>
<linearGradient id="paint8_linear_5307_5958" x1="20.1754" y1="10.8773" x2="25.5762" y2="8.11997" gradientUnits="userSpaceOnUse">
<stop stop-color="#9E87FF"/>
<stop offset="0.5" stop-color="#6DBFFE"/>
<stop offset="1" stop-color="#FF8F8F"/>
</linearGradient>
<linearGradient id="paint9_linear_5307_5958" x1="23.5778" y1="10.6016" x2="23.5778" y2="3.32833" gradientUnits="userSpaceOnUse">
<stop stop-color="#F4853B"/>
<stop offset="1" stop-color="#3448F5"/>
</linearGradient>
<linearGradient id="paint10_linear_5307_5958" x1="26.6515" y1="5.57481" x2="29.2209" y2="4.75903" gradientUnits="userSpaceOnUse">
<stop stop-color="#9E87FF"/>
<stop offset="0.5" stop-color="#6DBFFE"/>
<stop offset="1" stop-color="#FF8F8F"/>
</linearGradient>
<linearGradient id="paint11_linear_5307_5958" x1="28.0649" y1="5.39063" x2="28.0649" y2="0.532173" gradientUnits="userSpaceOnUse">
<stop stop-color="#F4853B"/>
<stop offset="1" stop-color="#3448F5"/>
</linearGradient>
<linearGradient id="paint12_linear_5307_5958" x1="21.0361" y1="32.7111" x2="27.7564" y2="27.6558" gradientUnits="userSpaceOnUse">
<stop stop-color="#9E87FF"/>
<stop offset="0.5" stop-color="#6DBFFE"/>
<stop offset="1" stop-color="#FF8F8F"/>
</linearGradient>
<linearGradient id="paint13_linear_5307_5958" x1="26.2948" y1="32.4219" x2="26.2948" y2="24.7926" gradientUnits="userSpaceOnUse">
<stop stop-color="#F4853B"/>
<stop offset="1" stop-color="#3448F5"/>
</linearGradient>
<linearGradient id="paint14_linear_5307_5958" x1="33.1671" y1="35.3326" x2="35.7365" y2="34.5168" gradientUnits="userSpaceOnUse">
<stop stop-color="#9E87FF"/>
<stop offset="0.5" stop-color="#6DBFFE"/>
<stop offset="1" stop-color="#FF8F8F"/>
</linearGradient>
<linearGradient id="paint15_linear_5307_5958" x1="34.5805" y1="35.1484" x2="34.5805" y2="30.29" gradientUnits="userSpaceOnUse">
<stop stop-color="#F4853B"/>
<stop offset="1" stop-color="#3448F5"/>
</linearGradient>
<linearGradient id="paint16_linear_5307_5958" x1="21.0361" y1="16.2111" x2="27.756" y2="11.1557" gradientUnits="userSpaceOnUse">
<stop stop-color="#9E87FF"/>
<stop offset="0.5" stop-color="#6DBFFE"/>
<stop offset="1" stop-color="#FF8F8F"/>
</linearGradient>
<linearGradient id="paint17_linear_5307_5958" x1="26.2948" y1="15.9219" x2="26.2948" y2="8.29322" gradientUnits="userSpaceOnUse">
<stop stop-color="#F4853B"/>
<stop offset="1" stop-color="#3448F5"/>
</linearGradient>
<linearGradient id="paint18_linear_5307_5958" x1="33.4054" y1="11.3053" x2="35.9748" y2="10.4895" gradientUnits="userSpaceOnUse">
<stop stop-color="#9E87FF"/>
<stop offset="0.5" stop-color="#6DBFFE"/>
<stop offset="1" stop-color="#FF8F8F"/>
</linearGradient>
<linearGradient id="paint19_linear_5307_5958" x1="34.8188" y1="11.1211" x2="34.8188" y2="6.26264" gradientUnits="userSpaceOnUse">
<stop stop-color="#F4853B"/>
<stop offset="1" stop-color="#3448F5"/>
</linearGradient>
<linearGradient id="paint20_linear_5307_5958" x1="20.5148" y1="19.6571" x2="21.0243" y2="17.6683" gradientUnits="userSpaceOnUse">
<stop stop-color="#9E87FF"/>
<stop offset="0.5" stop-color="#6DBFFE"/>
<stop offset="1" stop-color="#FF8F8F"/>
</linearGradient>
<linearGradient id="paint21_linear_5307_5958" x1="24.6491" y1="19.6133" x2="24.6491" y2="18.4574" gradientUnits="userSpaceOnUse">
<stop stop-color="#F4853B"/>
<stop offset="1" stop-color="#3448F5"/>
</linearGradient>
<linearGradient id="paint22_linear_5307_5958" x1="30.3742" y1="21.3717" x2="32.9435" y2="20.5559" gradientUnits="userSpaceOnUse">
<stop stop-color="#9E87FF"/>
<stop offset="0.5" stop-color="#6DBFFE"/>
<stop offset="1" stop-color="#FF8F8F"/>
</linearGradient>
<linearGradient id="paint23_linear_5307_5958" x1="31.7876" y1="21.1875" x2="31.7876" y2="16.329" gradientUnits="userSpaceOnUse">
<stop stop-color="#F4853B"/>
<stop offset="1" stop-color="#3448F5"/>
</linearGradient>
<linearGradient id="paint24_linear_5307_5958" x1="21.5126" y1="23.4032" x2="21.8593" y2="21.3439" gradientUnits="userSpaceOnUse">
<stop stop-color="#9E87FF"/>
<stop offset="0.5" stop-color="#6DBFFE"/>
<stop offset="1" stop-color="#FF8F8F"/>
</linearGradient>
<linearGradient id="paint25_linear_5307_5958" x1="27.7988" y1="23.3594" x2="27.7988" y2="22.2045" gradientUnits="userSpaceOnUse">
<stop stop-color="#F4853B"/>
<stop offset="1" stop-color="#3448F5"/>
</linearGradient>
<linearGradient id="paint26_linear_5307_5958" x1="37.5109" y1="25.1177" x2="40.0802" y2="24.3018" gradientUnits="userSpaceOnUse">
<stop stop-color="#9E87FF"/>
<stop offset="0.5" stop-color="#6DBFFE"/>
<stop offset="1" stop-color="#FF8F8F"/>
</linearGradient>
<linearGradient id="paint27_linear_5307_5958" x1="38.9243" y1="24.9336" x2="38.9243" y2="20.0761" gradientUnits="userSpaceOnUse">
<stop stop-color="#F4853B"/>
<stop offset="1" stop-color="#3448F5"/>
</linearGradient>
</defs>
</svg>
