<svg width="42" height="42" viewBox="0 0 42 42" fill="none" xmlns="http://www.w3.org/2000/svg">
<path d="M7.875 2.625C4.98921 2.625 2.625 4.98921 2.625 7.875V26.25C2.625 29.1358 4.98921 31.5 7.875 31.5H19.6875V36.75H14.4375C14.0894 36.75 13.7556 36.8883 13.5094 37.1344C13.2633 37.3806 13.125 37.7144 13.125 38.0625C13.125 38.4106 13.2633 38.7444 13.5094 38.9906C13.7556 39.2367 14.0894 39.375 14.4375 39.375H27.5625C27.9106 39.375 28.2444 39.2367 28.4906 38.9906C28.7367 38.7444 28.875 38.4106 28.875 38.0625C28.875 37.7144 28.7367 37.3806 28.4906 37.1344C28.2444 36.8883 27.9106 36.75 27.5625 36.75H22.3125V30.1875C22.3125 29.4626 21.7249 28.875 21 28.875C16.681 28.8829 12.2307 28.875 7.875 28.875C6.39804 28.875 5.25 27.727 5.25 26.25V7.875C5.25 6.39804 6.39804 5.25 7.875 5.25H34.125C35.602 5.25 36.75 6.39804 36.75 7.875V26.25C36.75 27.727 35.602 28.875 34.125 28.875H26.2321C25.5072 28.875 24.9196 29.4626 24.9196 30.1875C24.9196 30.9124 25.5072 31.5 26.2321 31.5H34.125C37.0108 31.5 39.375 29.1358 39.375 26.25V7.875C39.375 4.98921 37.0108 2.625 34.125 2.625H7.875Z" fill="url(#paint0_linear_5307_5997)"/>
<path d="M28.875 11.8125C26.4465 11.8125 24.4052 13.498 23.8147 15.75C18.939 15.75 14.0632 15.75 9.1875 15.75C8.46263 15.75 7.875 16.3376 7.875 17.0625C7.875 17.7874 8.46263 18.375 9.1875 18.375H11.8125V21C11.8125 21.7249 12.4001 22.3125 13.125 22.3125C13.8499 22.3125 14.4375 21.7249 14.4375 21V18.375H17.0625V21C17.0625 21.7249 17.6501 22.3125 18.375 22.3125C19.0999 22.3125 19.6875 21.7249 19.6875 21V18.375H23.8147C24.4052 20.627 26.4465 22.3125 28.875 22.3125C31.7589 22.3125 34.125 19.9464 34.125 17.0625C34.125 14.1786 31.7589 11.8125 28.875 11.8125ZM28.875 14.4375C30.3403 14.4375 31.5 15.5972 31.5 17.0625C31.5 18.5278 30.3403 19.6875 28.875 19.6875C27.4097 19.6875 26.25 18.5278 26.25 17.0625C26.25 15.5972 27.4097 14.4375 28.875 14.4375Z" fill="url(#paint1_linear_5307_5997)"/>
<defs>
<linearGradient id="paint0_linear_5307_5997" x1="21" y1="2.625" x2="21" y2="45.777" gradientUnits="userSpaceOnUse">
<stop stop-color="#F4853B"/>
<stop offset="1" stop-color="#3448F5"/>
</linearGradient>
<linearGradient id="paint1_linear_5307_5997" x1="21" y1="11.8125" x2="21" y2="24.1416" gradientUnits="userSpaceOnUse">
<stop stop-color="#F4853B"/>
<stop offset="1" stop-color="#3448F5"/>
</linearGradient>
</defs>
</svg>
