<svg width="42" height="42" viewBox="0 0 42 42" fill="none" xmlns="http://www.w3.org/2000/svg">
<mask id="path-1-outside-1_5307_5939" maskUnits="userSpaceOnUse" x="-0.421875" y="0.0429688" width="43" height="42" fill="black">
<rect fill="white" x="-0.421875" y="0.0429688" width="43" height="42"/>
<path fill-rule="evenodd" clip-rule="evenodd" d="M10.1497 18.5661C8.21068 18.5661 6.47484 19.4363 5.31087 20.8074C5.0755 21.0846 4.65945 21.1186 4.38225 20.8833C4.10505 20.6479 4.07104 20.2319 4.30641 19.9547C5.1721 18.9349 6.29992 18.1446 7.58554 17.6881C6.5922 16.9186 5.95083 15.7144 5.95083 14.3655C5.95083 12.0523 7.83655 10.1648 10.1497 10.1648C12.4649 10.1648 14.3503 12.0524 14.3503 14.3655C14.3503 15.7144 13.709 16.9187 12.7151 17.6882C13.4494 17.949 14.1321 18.3185 14.7438 18.7773C15.6487 17.5007 16.9343 16.5131 18.4351 15.9801C17.4417 15.2106 16.8004 14.0064 16.8004 12.6574C16.8004 10.3443 18.6861 8.45679 20.9992 8.45679C23.3144 8.45679 25.1998 10.3444 25.1998 12.6574C25.1998 14.0064 24.5585 15.2107 23.5646 15.9802C25.0657 16.5133 26.3513 17.5009 27.2558 18.7774C27.8677 18.3185 28.5504 17.9489 29.2846 17.6881C28.2912 16.9186 27.6499 15.7144 27.6499 14.3655C27.6499 12.0523 29.5356 10.1648 31.8487 10.1648C34.1639 10.1648 36.0493 12.0524 36.0493 14.3655C36.0493 15.7144 35.4081 16.9187 34.4141 17.6882C35.7001 18.1449 36.8278 18.9351 37.6934 19.9547C37.9286 20.2319 37.8946 20.648 37.6174 20.8833C37.3402 21.1186 36.9241 21.0846 36.6888 20.8073C35.5249 19.4363 33.7887 18.5661 31.8487 18.5661C30.3683 18.5661 29.0063 19.0733 27.9269 19.9235C27.9387 19.9485 27.9504 19.9735 27.962 19.9987C28.1142 20.329 27.9696 20.7205 27.6394 20.8728C27.3091 21.025 26.9176 20.8804 26.7653 20.5502C26.6941 20.3956 26.6168 20.2444 26.5338 20.0968C26.5297 20.0896 26.5256 20.0825 26.5216 20.0752C25.4311 18.1541 23.3668 16.858 20.9992 16.858C18.6328 16.858 16.569 18.1541 15.4779 20.0751C15.4739 20.0824 15.4698 20.0896 15.4656 20.0968C15.3787 20.2512 15.2981 20.4097 15.224 20.5718C15.073 20.9025 14.6818 21.0485 14.3511 20.8974C14.0203 20.7464 13.8744 20.3552 14.0255 20.0244C14.0409 19.9906 14.0567 19.9569 14.0726 19.9233C12.9931 19.0732 11.6307 18.5661 10.1497 18.5661ZM10.1497 17.2485C11.7387 17.2485 13.0327 15.9529 13.0327 14.3655C13.0327 12.7779 11.7387 11.4824 10.1497 11.4824C8.56224 11.4824 7.26848 12.778 7.26848 14.3655C7.26848 15.9528 8.56224 17.2485 10.1497 17.2485ZM20.9992 15.5404C22.5882 15.5404 23.8822 14.2449 23.8822 12.6574C23.8822 11.0699 22.5882 9.77444 20.9992 9.77444C19.4117 9.77444 18.1181 11.07 18.1181 12.6574C18.1181 14.2448 19.4117 15.5404 20.9992 15.5404ZM31.8487 17.2485C33.4377 17.2485 34.7317 15.9529 34.7317 14.3655C34.7317 12.7779 33.4377 11.4824 31.8487 11.4824C30.2613 11.4824 28.9676 12.778 28.9676 14.3655C28.9676 15.9528 30.2613 17.2485 31.8487 17.2485ZM2.08691 22.6989H1.23695C0.87336 22.6989 0.578125 22.4038 0.578125 22.0401C0.578125 21.6765 0.87336 21.3813 1.23695 21.3813H40.7664C41.1299 21.3813 41.4252 21.6765 41.4252 22.0401C41.4252 22.4038 41.1299 22.6989 40.7664 22.6989H39.9164V24.5124C39.9164 24.7849 39.7486 25.0293 39.4942 25.1273C39.4942 25.1273 36.7895 26.1682 36.7895 26.1681C36.4129 27.6118 35.8365 28.9947 35.0835 30.2831L36.2585 32.9357C36.3688 33.1847 36.3145 33.4759 36.122 33.6684L32.63 37.1604C32.4374 37.353 32.1462 37.4072 31.8973 37.297C31.8973 37.297 29.2461 36.1226 29.2461 36.1225C27.9607 36.8789 26.5741 37.4519 25.1297 37.8281L24.0887 40.5326C23.9909 40.787 23.7465 40.9548 23.4739 40.9548H18.5344C18.2619 40.9548 18.0174 40.787 17.9195 40.5326C17.9195 40.5326 16.8787 37.8282 16.8787 37.8282C15.4308 37.4515 14.0474 36.8751 12.7586 36.1219L10.106 37.297C9.85708 37.4072 9.56588 37.353 9.37334 37.1604L5.88132 33.6684C5.68854 33.4756 5.63443 33.184 5.74519 32.9349C5.74519 32.9349 6.92383 30.284 6.92391 30.284C6.16783 28.9989 5.59465 27.6126 5.21476 26.1685L2.50914 25.1273C2.25475 25.0293 2.08691 24.7849 2.08691 24.5124V22.6989ZM38.5987 22.6989H30.258C29.92 27.5158 25.9045 31.3195 21.0017 31.3195C16.0988 31.3195 12.0879 27.5159 11.7503 22.6989H3.40456V24.06L6.00683 25.0615C6.20901 25.1394 6.35996 25.3116 6.41069 25.5221C6.78235 27.0658 7.39192 28.543 8.22575 29.8914C8.3403 30.0766 8.35587 30.3065 8.26742 30.5056L7.13309 33.0567L9.98555 35.9091L12.5371 34.7789C12.7351 34.6913 12.9635 34.7065 13.1481 34.8195C14.5014 35.6487 15.9736 36.2636 17.5222 36.6305C17.7339 36.6806 17.9071 36.832 17.9852 37.035L18.9867 39.6372H23.0215L24.023 37.035C24.1011 36.8322 24.2742 36.6809 24.4856 36.6306C26.0286 36.2639 27.5051 35.6544 28.8529 34.821C29.0379 34.7066 29.2673 34.6909 29.4662 34.7789L32.0178 35.9091L34.8707 33.0562L33.7405 30.5047C33.6528 30.3067 33.668 30.0783 33.7811 29.8937C34.6102 28.5404 35.2252 27.068 35.5922 25.524C35.6424 25.3126 35.7937 25.1395 35.9965 25.0615L38.5987 24.06V22.6989ZM28.9365 22.6989H13.0717C13.4063 26.7873 16.8269 30.0019 21.0017 30.0019C25.1765 30.0019 28.6015 26.7874 28.9365 22.6989ZM3.40456 19.9577C3.40456 20.3213 3.10941 20.6165 2.74574 20.6165C2.38215 20.6165 2.08691 20.3213 2.08691 19.9577C2.08691 9.5184 10.5623 1.04297 21.0017 1.04297C31.441 1.04297 39.9164 9.5184 39.9164 19.9577C39.9164 20.3213 39.6212 20.6165 39.2576 20.6165C38.8939 20.6165 38.5987 20.3213 38.5987 19.9577C38.5987 10.2456 30.7137 2.36062 21.0017 2.36062C11.2896 2.36062 3.40456 10.2456 3.40456 19.9577Z"/>
</mask>
<path fill-rule="evenodd" clip-rule="evenodd" d="M10.1497 18.5661C8.21068 18.5661 6.47484 19.4363 5.31087 20.8074C5.0755 21.0846 4.65945 21.1186 4.38225 20.8833C4.10505 20.6479 4.07104 20.2319 4.30641 19.9547C5.1721 18.9349 6.29992 18.1446 7.58554 17.6881C6.5922 16.9186 5.95083 15.7144 5.95083 14.3655C5.95083 12.0523 7.83655 10.1648 10.1497 10.1648C12.4649 10.1648 14.3503 12.0524 14.3503 14.3655C14.3503 15.7144 13.709 16.9187 12.7151 17.6882C13.4494 17.949 14.1321 18.3185 14.7438 18.7773C15.6487 17.5007 16.9343 16.5131 18.4351 15.9801C17.4417 15.2106 16.8004 14.0064 16.8004 12.6574C16.8004 10.3443 18.6861 8.45679 20.9992 8.45679C23.3144 8.45679 25.1998 10.3444 25.1998 12.6574C25.1998 14.0064 24.5585 15.2107 23.5646 15.9802C25.0657 16.5133 26.3513 17.5009 27.2558 18.7774C27.8677 18.3185 28.5504 17.9489 29.2846 17.6881C28.2912 16.9186 27.6499 15.7144 27.6499 14.3655C27.6499 12.0523 29.5356 10.1648 31.8487 10.1648C34.1639 10.1648 36.0493 12.0524 36.0493 14.3655C36.0493 15.7144 35.4081 16.9187 34.4141 17.6882C35.7001 18.1449 36.8278 18.9351 37.6934 19.9547C37.9286 20.2319 37.8946 20.648 37.6174 20.8833C37.3402 21.1186 36.9241 21.0846 36.6888 20.8073C35.5249 19.4363 33.7887 18.5661 31.8487 18.5661C30.3683 18.5661 29.0063 19.0733 27.9269 19.9235C27.9387 19.9485 27.9504 19.9735 27.962 19.9987C28.1142 20.329 27.9696 20.7205 27.6394 20.8728C27.3091 21.025 26.9176 20.8804 26.7653 20.5502C26.6941 20.3956 26.6168 20.2444 26.5338 20.0968C26.5297 20.0896 26.5256 20.0825 26.5216 20.0752C25.4311 18.1541 23.3668 16.858 20.9992 16.858C18.6328 16.858 16.569 18.1541 15.4779 20.0751C15.4739 20.0824 15.4698 20.0896 15.4656 20.0968C15.3787 20.2512 15.2981 20.4097 15.224 20.5718C15.073 20.9025 14.6818 21.0485 14.3511 20.8974C14.0203 20.7464 13.8744 20.3552 14.0255 20.0244C14.0409 19.9906 14.0567 19.9569 14.0726 19.9233C12.9931 19.0732 11.6307 18.5661 10.1497 18.5661ZM10.1497 17.2485C11.7387 17.2485 13.0327 15.9529 13.0327 14.3655C13.0327 12.7779 11.7387 11.4824 10.1497 11.4824C8.56224 11.4824 7.26848 12.778 7.26848 14.3655C7.26848 15.9528 8.56224 17.2485 10.1497 17.2485ZM20.9992 15.5404C22.5882 15.5404 23.8822 14.2449 23.8822 12.6574C23.8822 11.0699 22.5882 9.77444 20.9992 9.77444C19.4117 9.77444 18.1181 11.07 18.1181 12.6574C18.1181 14.2448 19.4117 15.5404 20.9992 15.5404ZM31.8487 17.2485C33.4377 17.2485 34.7317 15.9529 34.7317 14.3655C34.7317 12.7779 33.4377 11.4824 31.8487 11.4824C30.2613 11.4824 28.9676 12.778 28.9676 14.3655C28.9676 15.9528 30.2613 17.2485 31.8487 17.2485ZM2.08691 22.6989H1.23695C0.87336 22.6989 0.578125 22.4038 0.578125 22.0401C0.578125 21.6765 0.87336 21.3813 1.23695 21.3813H40.7664C41.1299 21.3813 41.4252 21.6765 41.4252 22.0401C41.4252 22.4038 41.1299 22.6989 40.7664 22.6989H39.9164V24.5124C39.9164 24.7849 39.7486 25.0293 39.4942 25.1273C39.4942 25.1273 36.7895 26.1682 36.7895 26.1681C36.4129 27.6118 35.8365 28.9947 35.0835 30.2831L36.2585 32.9357C36.3688 33.1847 36.3145 33.4759 36.122 33.6684L32.63 37.1604C32.4374 37.353 32.1462 37.4072 31.8973 37.297C31.8973 37.297 29.2461 36.1226 29.2461 36.1225C27.9607 36.8789 26.5741 37.4519 25.1297 37.8281L24.0887 40.5326C23.9909 40.787 23.7465 40.9548 23.4739 40.9548H18.5344C18.2619 40.9548 18.0174 40.787 17.9195 40.5326C17.9195 40.5326 16.8787 37.8282 16.8787 37.8282C15.4308 37.4515 14.0474 36.8751 12.7586 36.1219L10.106 37.297C9.85708 37.4072 9.56588 37.353 9.37334 37.1604L5.88132 33.6684C5.68854 33.4756 5.63443 33.184 5.74519 32.9349C5.74519 32.9349 6.92383 30.284 6.92391 30.284C6.16783 28.9989 5.59465 27.6126 5.21476 26.1685L2.50914 25.1273C2.25475 25.0293 2.08691 24.7849 2.08691 24.5124V22.6989ZM38.5987 22.6989H30.258C29.92 27.5158 25.9045 31.3195 21.0017 31.3195C16.0988 31.3195 12.0879 27.5159 11.7503 22.6989H3.40456V24.06L6.00683 25.0615C6.20901 25.1394 6.35996 25.3116 6.41069 25.5221C6.78235 27.0658 7.39192 28.543 8.22575 29.8914C8.3403 30.0766 8.35587 30.3065 8.26742 30.5056L7.13309 33.0567L9.98555 35.9091L12.5371 34.7789C12.7351 34.6913 12.9635 34.7065 13.1481 34.8195C14.5014 35.6487 15.9736 36.2636 17.5222 36.6305C17.7339 36.6806 17.9071 36.832 17.9852 37.035L18.9867 39.6372H23.0215L24.023 37.035C24.1011 36.8322 24.2742 36.6809 24.4856 36.6306C26.0286 36.2639 27.5051 35.6544 28.8529 34.821C29.0379 34.7066 29.2673 34.6909 29.4662 34.7789L32.0178 35.9091L34.8707 33.0562L33.7405 30.5047C33.6528 30.3067 33.668 30.0783 33.7811 29.8937C34.6102 28.5404 35.2252 27.068 35.5922 25.524C35.6424 25.3126 35.7937 25.1395 35.9965 25.0615L38.5987 24.06V22.6989ZM28.9365 22.6989H13.0717C13.4063 26.7873 16.8269 30.0019 21.0017 30.0019C25.1765 30.0019 28.6015 26.7874 28.9365 22.6989ZM3.40456 19.9577C3.40456 20.3213 3.10941 20.6165 2.74574 20.6165C2.38215 20.6165 2.08691 20.3213 2.08691 19.9577C2.08691 9.5184 10.5623 1.04297 21.0017 1.04297C31.441 1.04297 39.9164 9.5184 39.9164 19.9577C39.9164 20.3213 39.6212 20.6165 39.2576 20.6165C38.8939 20.6165 38.5987 20.3213 38.5987 19.9577C38.5987 10.2456 30.7137 2.36062 21.0017 2.36062C11.2896 2.36062 3.40456 10.2456 3.40456 19.9577Z" fill="url(#paint0_linear_5307_5939)"/>
<path fill-rule="evenodd" clip-rule="evenodd" d="M10.1497 18.5661C8.21068 18.5661 6.47484 19.4363 5.31087 20.8074C5.0755 21.0846 4.65945 21.1186 4.38225 20.8833C4.10505 20.6479 4.07104 20.2319 4.30641 19.9547C5.1721 18.9349 6.29992 18.1446 7.58554 17.6881C6.5922 16.9186 5.95083 15.7144 5.95083 14.3655C5.95083 12.0523 7.83655 10.1648 10.1497 10.1648C12.4649 10.1648 14.3503 12.0524 14.3503 14.3655C14.3503 15.7144 13.709 16.9187 12.7151 17.6882C13.4494 17.949 14.1321 18.3185 14.7438 18.7773C15.6487 17.5007 16.9343 16.5131 18.4351 15.9801C17.4417 15.2106 16.8004 14.0064 16.8004 12.6574C16.8004 10.3443 18.6861 8.45679 20.9992 8.45679C23.3144 8.45679 25.1998 10.3444 25.1998 12.6574C25.1998 14.0064 24.5585 15.2107 23.5646 15.9802C25.0657 16.5133 26.3513 17.5009 27.2558 18.7774C27.8677 18.3185 28.5504 17.9489 29.2846 17.6881C28.2912 16.9186 27.6499 15.7144 27.6499 14.3655C27.6499 12.0523 29.5356 10.1648 31.8487 10.1648C34.1639 10.1648 36.0493 12.0524 36.0493 14.3655C36.0493 15.7144 35.4081 16.9187 34.4141 17.6882C35.7001 18.1449 36.8278 18.9351 37.6934 19.9547C37.9286 20.2319 37.8946 20.648 37.6174 20.8833C37.3402 21.1186 36.9241 21.0846 36.6888 20.8073C35.5249 19.4363 33.7887 18.5661 31.8487 18.5661C30.3683 18.5661 29.0063 19.0733 27.9269 19.9235C27.9387 19.9485 27.9504 19.9735 27.962 19.9987C28.1142 20.329 27.9696 20.7205 27.6394 20.8728C27.3091 21.025 26.9176 20.8804 26.7653 20.5502C26.6941 20.3956 26.6168 20.2444 26.5338 20.0968C26.5297 20.0896 26.5256 20.0825 26.5216 20.0752C25.4311 18.1541 23.3668 16.858 20.9992 16.858C18.6328 16.858 16.569 18.1541 15.4779 20.0751C15.4739 20.0824 15.4698 20.0896 15.4656 20.0968C15.3787 20.2512 15.2981 20.4097 15.224 20.5718C15.073 20.9025 14.6818 21.0485 14.3511 20.8974C14.0203 20.7464 13.8744 20.3552 14.0255 20.0244C14.0409 19.9906 14.0567 19.9569 14.0726 19.9233C12.9931 19.0732 11.6307 18.5661 10.1497 18.5661ZM10.1497 17.2485C11.7387 17.2485 13.0327 15.9529 13.0327 14.3655C13.0327 12.7779 11.7387 11.4824 10.1497 11.4824C8.56224 11.4824 7.26848 12.778 7.26848 14.3655C7.26848 15.9528 8.56224 17.2485 10.1497 17.2485ZM20.9992 15.5404C22.5882 15.5404 23.8822 14.2449 23.8822 12.6574C23.8822 11.0699 22.5882 9.77444 20.9992 9.77444C19.4117 9.77444 18.1181 11.07 18.1181 12.6574C18.1181 14.2448 19.4117 15.5404 20.9992 15.5404ZM31.8487 17.2485C33.4377 17.2485 34.7317 15.9529 34.7317 14.3655C34.7317 12.7779 33.4377 11.4824 31.8487 11.4824C30.2613 11.4824 28.9676 12.778 28.9676 14.3655C28.9676 15.9528 30.2613 17.2485 31.8487 17.2485ZM2.08691 22.6989H1.23695C0.87336 22.6989 0.578125 22.4038 0.578125 22.0401C0.578125 21.6765 0.87336 21.3813 1.23695 21.3813H40.7664C41.1299 21.3813 41.4252 21.6765 41.4252 22.0401C41.4252 22.4038 41.1299 22.6989 40.7664 22.6989H39.9164V24.5124C39.9164 24.7849 39.7486 25.0293 39.4942 25.1273C39.4942 25.1273 36.7895 26.1682 36.7895 26.1681C36.4129 27.6118 35.8365 28.9947 35.0835 30.2831L36.2585 32.9357C36.3688 33.1847 36.3145 33.4759 36.122 33.6684L32.63 37.1604C32.4374 37.353 32.1462 37.4072 31.8973 37.297C31.8973 37.297 29.2461 36.1226 29.2461 36.1225C27.9607 36.8789 26.5741 37.4519 25.1297 37.8281L24.0887 40.5326C23.9909 40.787 23.7465 40.9548 23.4739 40.9548H18.5344C18.2619 40.9548 18.0174 40.787 17.9195 40.5326C17.9195 40.5326 16.8787 37.8282 16.8787 37.8282C15.4308 37.4515 14.0474 36.8751 12.7586 36.1219L10.106 37.297C9.85708 37.4072 9.56588 37.353 9.37334 37.1604L5.88132 33.6684C5.68854 33.4756 5.63443 33.184 5.74519 32.9349C5.74519 32.9349 6.92383 30.284 6.92391 30.284C6.16783 28.9989 5.59465 27.6126 5.21476 26.1685L2.50914 25.1273C2.25475 25.0293 2.08691 24.7849 2.08691 24.5124V22.6989ZM38.5987 22.6989H30.258C29.92 27.5158 25.9045 31.3195 21.0017 31.3195C16.0988 31.3195 12.0879 27.5159 11.7503 22.6989H3.40456V24.06L6.00683 25.0615C6.20901 25.1394 6.35996 25.3116 6.41069 25.5221C6.78235 27.0658 7.39192 28.543 8.22575 29.8914C8.3403 30.0766 8.35587 30.3065 8.26742 30.5056L7.13309 33.0567L9.98555 35.9091L12.5371 34.7789C12.7351 34.6913 12.9635 34.7065 13.1481 34.8195C14.5014 35.6487 15.9736 36.2636 17.5222 36.6305C17.7339 36.6806 17.9071 36.832 17.9852 37.035L18.9867 39.6372H23.0215L24.023 37.035C24.1011 36.8322 24.2742 36.6809 24.4856 36.6306C26.0286 36.2639 27.5051 35.6544 28.8529 34.821C29.0379 34.7066 29.2673 34.6909 29.4662 34.7789L32.0178 35.9091L34.8707 33.0562L33.7405 30.5047C33.6528 30.3067 33.668 30.0783 33.7811 29.8937C34.6102 28.5404 35.2252 27.068 35.5922 25.524C35.6424 25.3126 35.7937 25.1395 35.9965 25.0615L38.5987 24.06V22.6989ZM28.9365 22.6989H13.0717C13.4063 26.7873 16.8269 30.0019 21.0017 30.0019C25.1765 30.0019 28.6015 26.7874 28.9365 22.6989ZM3.40456 19.9577C3.40456 20.3213 3.10941 20.6165 2.74574 20.6165C2.38215 20.6165 2.08691 20.3213 2.08691 19.9577C2.08691 9.5184 10.5623 1.04297 21.0017 1.04297C31.441 1.04297 39.9164 9.5184 39.9164 19.9577C39.9164 20.3213 39.6212 20.6165 39.2576 20.6165C38.8939 20.6165 38.5987 20.3213 38.5987 19.9577C38.5987 10.2456 30.7137 2.36062 21.0017 2.36062C11.2896 2.36062 3.40456 10.2456 3.40456 19.9577Z" stroke="url(#paint1_linear_5307_5939)" mask="url(#path-1-outside-1_5307_5939)"/>
<defs>
<linearGradient id="paint0_linear_5307_5939" x1="21.0017" y1="1.04297" x2="21.0017" y2="47.9076" gradientUnits="userSpaceOnUse">
<stop stop-color="#F4853B"/>
<stop offset="1" stop-color="#3448F5"/>
</linearGradient>
<linearGradient id="paint1_linear_5307_5939" x1="21.0017" y1="1.04297" x2="21.0017" y2="47.9076" gradientUnits="userSpaceOnUse">
<stop stop-color="#F4853B"/>
<stop offset="1" stop-color="#3448F5"/>
</linearGradient>
</defs>
</svg>
