<svg width="60" height="60" viewBox="0 0 60 60" fill="none" xmlns="http://www.w3.org/2000/svg">
<g opacity="0.7">
<mask id="mask0_5238_6281" style="mask-type:luminance" maskUnits="userSpaceOnUse" x="5" y="4" width="50" height="53">
<path d="M54.8079 4H5V56.2091H54.8079V4Z" fill="white"/>
</mask>
<g mask="url(#mask0_5238_6281)">
<path d="M29.6505 56.2098C25.5616 56.2098 21.7648 53.4114 18.9588 48.3471C16.2572 43.4603 14.7656 36.9864 14.7656 30.1053C14.7656 29.5623 15.2037 29.1133 15.7566 29.1133C16.3094 29.1133 16.7475 29.5518 16.7475 30.1053C16.7475 36.6523 18.1452 42.7816 20.6904 47.3864C23.1312 51.7929 26.3126 54.2258 29.6505 54.2258C31.9662 54.2258 34.2505 53.025 36.2637 50.7592C36.6288 50.3519 37.2547 50.3102 37.6615 50.6756C38.0683 51.0411 38.11 51.6676 37.7449 52.0748C35.3458 54.7792 32.5503 56.2098 29.6505 56.2098Z" fill="url(#paint0_linear_5238_6281)"/>
</g>
<mask id="mask1_5238_6281" style="mask-type:luminance" maskUnits="userSpaceOnUse" x="5" y="4" width="50" height="53">
<path d="M54.8079 4H5V56.2091H54.8079V4Z" fill="white"/>
</mask>
<g mask="url(#mask1_5238_6281)">
<path d="M41.1286 45.2452C41.0139 45.2452 40.8887 45.2243 40.774 45.1825C40.2628 44.9841 40.0021 44.4203 40.2002 43.9086C41.7336 39.8467 42.5472 35.0748 42.5472 30.115C42.5472 23.568 41.1495 17.4386 38.6043 12.8338C36.1635 8.41689 32.9821 5.98394 29.6442 5.98394C25.1276 5.98394 20.8718 10.547 18.5248 17.9085C18.3579 18.4306 17.8051 18.723 17.2836 18.5559C16.762 18.3888 16.4699 17.8354 16.6368 17.3133C17.8781 13.4081 19.6827 10.1189 21.8523 7.80083C24.1784 5.31566 26.8696 4 29.6442 4C33.7331 4 37.5299 6.7984 40.3358 11.8627C43.0374 16.7494 44.5291 23.2234 44.5291 30.1045C44.5291 35.3046 43.6737 40.3166 42.0465 44.5978C41.9109 44.9946 41.5354 45.2452 41.1286 45.2452Z" fill="url(#paint1_linear_5238_6281)"/>
</g>
<mask id="mask2_5238_6281" style="mask-type:luminance" maskUnits="userSpaceOnUse" x="5" y="4" width="50" height="53">
<path d="M54.8079 4H5V56.2091H54.8079V4Z" fill="white"/>
</mask>
<g mask="url(#mask2_5238_6281)">
<path d="M7.54142 26.8687C7.12418 26.8687 6.73825 26.6077 6.60263 26.19C5.43437 22.7338 5.59083 19.5699 7.05116 17.043C9.09561 13.4928 13.414 11.6028 19.2032 11.7072C24.7837 11.8012 31.1361 13.7538 37.0817 17.1892C37.7076 17.5546 38.3334 17.9306 38.9384 18.3169C39.3974 18.6093 39.533 19.2253 39.2409 19.6848C38.9488 20.1442 38.3334 20.28 37.8745 19.9876C37.2903 19.6117 36.6958 19.2462 36.0908 18.9016C30.4268 15.6333 24.4186 13.7747 19.1719 13.6807C14.1337 13.5972 10.4412 15.1321 8.77225 18.0245C7.60398 20.0502 7.49967 22.6502 8.48018 25.5426C8.65751 26.0647 8.37587 26.6181 7.85433 26.7956C7.76047 26.8583 7.65616 26.8687 7.54142 26.8687Z" fill="url(#paint2_linear_5238_6281)"/>
</g>
<mask id="mask3_5238_6281" style="mask-type:luminance" maskUnits="userSpaceOnUse" x="5" y="4" width="50" height="53">
<path d="M54.8079 4H5V56.2091H54.8079V4Z" fill="white"/>
</mask>
<g mask="url(#mask3_5238_6281)">
<path d="M40.515 48.5032C40.369 48.5032 40.2229 48.5032 40.0769 48.5032C34.4964 48.4092 28.144 46.4566 22.1983 43.0213C17.88 40.5257 14.0935 37.414 11.2355 34.0309C10.8808 33.6132 10.933 32.9867 11.3502 32.6317C11.7674 32.2766 12.3933 32.3288 12.7479 32.7465C15.46 35.9626 19.0691 38.9176 23.1893 41.2984C28.8533 44.5666 34.8615 46.4253 40.1082 46.5193C45.1463 46.6132 48.8389 45.0679 50.5078 42.1755C52.6461 38.4582 51.1754 32.9762 46.5545 27.4943C46.1998 27.0766 46.252 26.4501 46.6692 26.0951C47.0865 25.7401 47.7123 25.7923 48.067 26.2099C53.2407 32.3497 54.7949 38.6879 52.2185 43.157C50.2366 46.6132 46.0851 48.5032 40.515 48.5032Z" fill="url(#paint3_linear_5238_6281)"/>
</g>
<mask id="mask4_5238_6281" style="mask-type:luminance" maskUnits="userSpaceOnUse" x="5" y="4" width="50" height="53">
<path d="M54.8079 4H5V56.2091H54.8079V4Z" fill="white"/>
</mask>
<g mask="url(#mask4_5238_6281)">
<path d="M35.0829 43.9955C34.7283 43.9955 34.384 43.8075 34.2067 43.463C33.9564 42.9826 34.1337 42.377 34.624 42.1264C35.1246 41.8654 35.6253 41.5834 36.1156 41.3015C41.7795 38.0332 46.3796 33.7416 49.0916 29.2412C51.6889 24.9183 52.2 20.94 50.5311 18.0476C48.3719 14.3094 42.8539 12.858 35.7505 14.1528C35.2081 14.2468 34.697 13.8917 34.6031 13.3592C34.5092 12.8162 34.8639 12.3046 35.3958 12.2106C43.3442 10.7488 49.6444 12.5656 52.2313 17.0556C54.2758 20.6058 53.7542 25.2942 50.771 30.2645C47.8921 35.0573 43.0417 39.589 37.0856 43.0244C36.5745 43.3168 36.053 43.6091 35.5314 43.8806C35.3958 43.9537 35.2394 43.9955 35.0829 43.9955Z" fill="url(#paint4_linear_5238_6281)"/>
</g>
<mask id="mask5_5238_6281" style="mask-type:luminance" maskUnits="userSpaceOnUse" x="5" y="4" width="50" height="53">
<path d="M54.8079 4H5V56.2091H54.8079V4Z" fill="white"/>
</mask>
<g mask="url(#mask5_5238_6281)">
<path d="M18.7769 48.5026C17.0767 48.5026 15.4808 48.325 14.0309 47.97C10.8181 47.1765 8.40861 45.5162 7.05258 43.1668C5.00813 39.6166 5.52967 34.9282 8.51291 29.9579C11.3918 25.1651 16.2422 20.6334 22.1982 17.198C22.845 16.8221 23.5126 16.4567 24.1697 16.1225C24.6599 15.8719 25.2545 16.0599 25.5049 16.5506C25.7552 17.0414 25.5674 17.6366 25.0772 17.8872C24.4409 18.2109 23.8046 18.5555 23.1892 18.9209C17.5252 22.1892 12.9252 26.4808 10.2131 30.9812C7.61586 35.3041 7.10473 39.2824 8.77368 42.1748C10.9746 45.9861 16.8785 47.4375 24.1697 45.9548C24.7017 45.8503 25.2232 46.1949 25.338 46.7275C25.4423 47.26 25.098 47.7821 24.5661 47.8969C22.5529 48.2937 20.6023 48.5026 18.7769 48.5026Z" fill="url(#paint5_linear_5238_6281)"/>
</g>
<mask id="mask6_5238_6281" style="mask-type:luminance" maskUnits="userSpaceOnUse" x="5" y="4" width="50" height="53">
<path d="M54.8079 4H5V56.2091H54.8079V4Z" fill="white"/>
</mask>
<g mask="url(#mask6_5238_6281)">
<path d="M22.902 37.0172C22.7977 37.0172 22.6934 36.9963 22.5891 36.965C22.0675 36.7875 21.7859 36.234 21.9632 35.712L25.6662 24.6123C25.8018 24.2051 26.1773 23.9336 26.605 23.9336C27.0327 23.9336 27.4082 24.2051 27.5438 24.6123L31.2467 35.712C31.4241 36.234 31.1424 36.7875 30.6209 36.965C30.0993 37.1425 29.5465 36.8606 29.3692 36.3385L26.605 28.0581L23.8408 36.3385C23.6948 36.7561 23.3088 37.0172 22.902 37.0172Z" fill="url(#paint6_linear_5238_6281)"/>
</g>
<mask id="mask7_5238_6281" style="mask-type:luminance" maskUnits="userSpaceOnUse" x="5" y="4" width="50" height="53">
<path d="M54.8079 4H5V56.2091H54.8079V4Z" fill="white"/>
</mask>
<g mask="url(#mask7_5238_6281)">
<path d="M28.7427 34.7378H23.6628C23.1204 34.7378 22.6719 34.2993 22.6719 33.7459C22.6719 33.2029 23.11 32.7539 23.6628 32.7539H28.7427C29.2851 32.7539 29.7336 33.1925 29.7336 33.7459C29.7336 34.2993 29.2955 34.7378 28.7427 34.7378Z" fill="url(#paint7_linear_5238_6281)"/>
</g>
<mask id="mask8_5238_6281" style="mask-type:luminance" maskUnits="userSpaceOnUse" x="5" y="4" width="50" height="53">
<path d="M54.8079 4H5V56.2091H54.8079V4Z" fill="white"/>
</mask>
<g mask="url(#mask8_5238_6281)">
<path d="M36.3972 37.0164C35.8548 37.0164 35.4062 36.5778 35.4062 36.0244V24.1834C35.4062 23.6404 35.8444 23.1914 36.3972 23.1914C36.95 23.1914 37.3881 23.63 37.3881 24.1834V36.0348C37.3881 36.5778 36.95 37.0164 36.3972 37.0164Z" fill="url(#paint8_linear_5238_6281)"/>
</g>
</g>
<defs>
<linearGradient id="paint0_linear_5238_6281" x1="26.3801" y1="29.1133" x2="26.3801" y2="60.9301" gradientUnits="userSpaceOnUse">
<stop stop-color="#F4853B"/>
<stop offset="1" stop-color="#3448F5"/>
</linearGradient>
<linearGradient id="paint1_linear_5238_6281" x1="30.5595" y1="4" x2="30.5595" y2="52.4302" gradientUnits="userSpaceOnUse">
<stop stop-color="#F4853B"/>
<stop offset="1" stop-color="#3448F5"/>
</linearGradient>
<linearGradient id="paint2_linear_5238_6281" x1="22.6115" y1="11.7031" x2="22.6115" y2="29.5107" gradientUnits="userSpaceOnUse">
<stop stop-color="#F4853B"/>
<stop offset="1" stop-color="#3448F5"/>
</linearGradient>
<linearGradient id="paint3_linear_5238_6281" x1="32.2199" y1="25.8594" x2="32.2199" y2="52.4479" gradientUnits="userSpaceOnUse">
<stop stop-color="#F4853B"/>
<stop offset="1" stop-color="#3448F5"/>
</linearGradient>
<linearGradient id="paint4_linear_5238_6281" x1="43.7767" y1="11.7148" x2="43.7767" y2="49.6189" gradientUnits="userSpaceOnUse">
<stop stop-color="#F4853B"/>
<stop offset="1" stop-color="#3448F5"/>
</linearGradient>
<linearGradient id="paint5_linear_5238_6281" x1="15.7199" y1="16.0117" x2="15.7199" y2="54.1626" gradientUnits="userSpaceOnUse">
<stop stop-color="#F4853B"/>
<stop offset="1" stop-color="#3448F5"/>
</linearGradient>
<linearGradient id="paint6_linear_5238_6281" x1="26.605" y1="23.9336" x2="26.605" y2="39.2975" gradientUnits="userSpaceOnUse">
<stop stop-color="#F4853B"/>
<stop offset="1" stop-color="#3448F5"/>
</linearGradient>
<linearGradient id="paint7_linear_5238_6281" x1="26.2027" y1="32.7539" x2="26.2027" y2="35.0835" gradientUnits="userSpaceOnUse">
<stop stop-color="#F4853B"/>
<stop offset="1" stop-color="#3448F5"/>
</linearGradient>
<linearGradient id="paint8_linear_5238_6281" x1="36.3972" y1="23.1914" x2="36.3972" y2="39.4247" gradientUnits="userSpaceOnUse">
<stop stop-color="#F4853B"/>
<stop offset="1" stop-color="#3448F5"/>
</linearGradient>
</defs>
</svg>
