<svg width="60" height="60" viewBox="0 0 60 60" fill="none" xmlns="http://www.w3.org/2000/svg">
<g opacity="0.7">
<path fill-rule="evenodd" clip-rule="evenodd" d="M22.1053 8.48506C21.8042 8.18338 21.8042 7.69462 22.1053 7.39294C26.4574 3.0409 33.5396 3.0409 37.8917 7.39294C38.3786 7.88038 38.0268 8.71114 37.3463 8.71114C37.1482 8.71114 36.9508 8.63494 36.8003 8.48506C33.0497 4.73506 26.9473 4.73374 23.1961 8.48506C22.8944 8.78674 22.4071 8.78674 22.1053 8.48506ZM33.6114 11.0973C33.7626 11.2491 33.9606 11.3241 34.1568 11.3241C34.8379 11.3241 35.1918 10.4951 34.7035 10.0073C32.1089 7.41262 27.8878 7.41262 25.2937 10.0073C24.992 10.3083 24.992 10.7964 25.2937 11.0973C25.5954 11.399 26.0842 11.399 26.3851 11.0973C28.3777 9.10534 31.6194 9.10534 33.6114 11.0973ZM30.5468 13.3584C31.0428 13.8522 30.6725 14.6863 29.9942 14.6863C29.3202 14.6863 28.9538 13.8639 29.4553 13.3616C29.7558 13.0592 30.2446 13.058 30.5468 13.3584ZM56.5784 54.3312H37.8905V52.884H56.5784V54.3312ZM3.41868 52.884H22.1066V54.3312H3.41868V52.884ZM12.667 24.4728H15.6598V30.6409C15.6598 31.7904 16.5948 32.726 17.7455 32.726H23.6412C25.523 32.726 26.518 32.8915 27.44 33.8708C28.211 34.6898 28.7342 35.8016 29.357 36.7274C29.6641 37.1838 30.3313 37.1827 30.6374 36.7255L30.6394 36.7274C31.262 35.8007 31.7902 34.6857 32.5571 33.8708C33.4784 32.8915 34.4741 32.726 36.3559 32.726H42.2516C43.4023 32.726 44.3374 31.7903 44.3374 30.6409V24.4728H47.3288C47.9844 24.4728 48.5173 25.0058 48.5173 25.6613V42.7951H11.4797V25.6613C11.4797 25.0058 12.0127 24.4728 12.667 24.4728ZM17.2033 17.7756V30.6408C17.2033 30.9392 17.4457 31.1822 17.7455 31.1822H23.6412C26.1196 31.1822 27.688 31.4755 29.2267 33.6277V21.0355C29.0768 20.7996 28.9283 20.5539 28.7738 20.2952C28.3705 19.6214 27.9528 18.9236 27.44 18.3782C26.518 17.3982 25.523 17.2334 23.6412 17.2334H17.7455C17.4457 17.2334 17.2033 17.4771 17.2033 17.7756ZM32.5571 18.3783C32.0443 18.9237 31.6266 19.6217 31.2233 20.2953C31.0688 20.5541 30.9209 20.7997 30.7704 21.0343V33.6278C32.3123 31.4763 33.8704 31.1823 36.3559 31.1823H42.2516C42.5507 31.1823 42.7938 30.9393 42.7938 30.6409V17.7757C42.7938 17.4773 42.5508 17.2335 42.2516 17.2335H36.3559C34.4741 17.2334 33.4784 17.3983 32.5571 18.3783ZM37.5014 51.3403L34.6025 47.5225C34.4591 47.3342 34.237 47.2208 34.0004 47.2182L26.0202 47.0943C25.7719 47.0879 25.5354 47.2077 25.3874 47.4084L22.4885 51.3402H4.43652L11.0399 44.3387H48.956L55.5607 51.3402H37.5014V51.3403ZM36.3468 54.3312V52.3718L33.601 48.7554L26.3935 48.644L23.6503 52.3653V54.3312H36.3468ZM57.911 51.5833L50.0611 43.2611V25.6613C50.0611 24.1548 48.8354 22.9291 47.329 22.9291H44.3374V17.7756C44.3374 16.6248 43.4023 15.6891 42.2516 15.6891H36.3559C34.5014 15.6891 32.851 15.813 31.433 17.3202C30.8538 17.9359 30.3996 18.6684 29.9982 19.3362C29.5968 18.6683 29.1433 17.9359 28.564 17.3202C27.146 15.813 25.495 15.6891 23.6411 15.6891H17.7454C16.5947 15.6891 15.6596 16.6249 15.6596 17.7756V22.9291H12.6668C11.161 22.9291 9.936 24.1548 9.936 25.6613V43.2611L2.0862 51.5833C1.95648 51.7214 1.875 51.9065 1.875 52.1124V55.1025C1.875 55.5287 2.22108 55.874 2.6472 55.874H57.3499C57.776 55.874 58.1221 55.5287 58.1221 55.1025V52.1124C58.1221 51.9066 58.0406 51.7215 57.911 51.5833Z" fill="url(#paint0_linear_5238_6367)"/>
</g>
<defs>
<linearGradient id="paint0_linear_5238_6367" x1="29.9986" y1="4.12891" x2="29.9986" y2="64.8882" gradientUnits="userSpaceOnUse">
<stop stop-color="#F4853B"/>
<stop offset="1" stop-color="#3448F5"/>
</linearGradient>
</defs>
</svg>
