<svg width="60" height="60" viewBox="0 0 60 60" fill="none" xmlns="http://www.w3.org/2000/svg">
<g opacity="0.7">
<path d="M44.0489 22.5922C43.634 22.404 43.1583 22.6205 42.9866 23.0763L41.1702 27.9009L39.3538 23.0763C39.1821 22.6207 38.7066 22.4036 38.2915 22.5922C37.8765 22.7806 37.679 23.3028 37.8507 23.7585L40.3775 30.4699C40.6615 31.2243 41.6891 31.1976 41.9629 30.4699L44.4897 23.7585C44.6614 23.3028 44.464 22.7806 44.0489 22.5922ZM49.6096 27.6977C51.9249 26.3617 51.0396 22.5245 48.4514 22.5245H46.3952C45.9461 22.5245 45.5819 22.9242 45.5819 23.4174V30.1933C45.5819 30.6866 45.946 31.0862 46.3952 31.0862C46.8443 31.0862 47.2084 30.6864 47.2084 30.1933V28.0113H47.8489L49.4583 30.6856C49.7058 31.097 50.2104 31.2103 50.585 30.9383C50.9598 30.6665 51.0628 30.1126 50.8152 29.701L49.6096 27.6977ZM48.4514 26.2256H47.2084V24.3104H48.4514C48.9324 24.3104 49.3235 24.74 49.3235 25.268C49.3235 25.7959 48.9324 26.2256 48.4514 26.2256ZM8.11741 30.3254C7.6683 30.3254 7.30424 30.7252 7.30424 31.2184V32.62C7.30424 33.1133 7.6683 33.513 8.11741 33.513C8.56652 33.513 8.93069 33.1133 8.93069 32.62V31.2184C8.93069 30.7252 8.56652 30.3254 8.11741 30.3254ZM12.1165 20.7356C9.32801 20.7356 7.30413 22.9579 7.30413 26.0198V28.1817C7.30413 28.6749 7.66819 29.0747 8.1173 29.0747C8.56641 29.0747 8.93058 28.6749 8.93058 28.1817V26.0198C8.93058 24.2785 9.91562 22.5216 12.1165 22.5216C12.5656 22.5216 12.9298 22.1219 12.9298 21.6286C12.9298 21.1354 12.5656 20.7356 12.1165 20.7356ZM56.5136 25.4916H55.6929C55.6415 21.0451 52.3331 17.4447 48.2715 17.4447H35.5451V16.5461C35.5451 15.2994 34.6214 14.2852 33.4862 14.2852H26.5161C25.3808 14.2852 24.4571 15.2994 24.4571 16.5461V17.4447H11.7307C7.6692 17.4447 4.36083 21.0452 4.30937 25.4916H3.48862C2.35335 25.4916 1.42969 26.5058 1.42969 27.7525V35.4059C1.42969 36.6525 2.35335 37.6667 3.48873 37.6667H4.30949C4.36083 42.1132 7.6692 45.7137 11.7308 45.7137H24.0708C25.7676 45.7137 27.1481 44.1979 27.1481 42.3348C27.1481 41.3927 27.846 40.6264 28.7039 40.6264H31.2984C32.1564 40.6264 32.8542 41.3928 32.8542 42.3348C32.8542 44.1979 34.2347 45.7137 35.9316 45.7137H48.2715C52.3331 45.7137 55.6415 42.1132 55.6929 37.6667H56.5136C57.6489 37.6667 58.5725 36.6525 58.5725 35.4059V27.7525C58.5725 26.5058 57.6489 25.4916 56.5136 25.4916ZM4.30703 35.8807H3.48873C3.25022 35.8807 3.05614 35.6677 3.05614 35.4058V27.7524C3.05614 27.4905 3.25022 27.2774 3.48873 27.2774H4.30703V35.8807ZM26.0836 16.5461C26.0836 16.2842 26.2777 16.0711 26.5161 16.0711H33.4862C33.7247 16.0711 33.9186 16.2842 33.9186 16.5461V17.4447H26.0836V16.5461ZM54.0546 37.5623C54.0546 41.0636 51.4603 43.9123 48.2715 43.9123H35.9316C35.1394 43.9123 34.4949 43.2045 34.4949 42.3347C34.4949 40.3993 33.0609 38.8248 31.2983 38.8248H28.7038C26.9413 38.8248 25.5073 40.3993 25.5073 42.3347C25.5073 43.2045 24.8628 43.9123 24.0705 43.9123H11.7307C8.54196 43.9123 5.94766 41.0636 5.94766 37.5623V25.596C5.94766 22.0947 8.54196 19.246 11.7307 19.246H48.2715C51.4603 19.246 54.0546 22.0947 54.0546 25.596V37.5623ZM56.9461 35.4059C56.9461 35.6678 56.752 35.8808 56.5136 35.8808H55.6953V27.2776H56.5136C56.7521 27.2776 56.9461 27.4907 56.9461 27.7526V35.4059Z" fill="url(#paint0_linear_5238_6342)"/>
</g>
<defs>
<linearGradient id="paint0_linear_5238_6342" x1="30.0011" y1="14.2852" x2="30.0011" y2="51.1887" gradientUnits="userSpaceOnUse">
<stop stop-color="#F4853B"/>
<stop offset="1" stop-color="#3448F5"/>
</linearGradient>
</defs>
</svg>
