<svg width="338" height="437" viewBox="0 0 338 437" fill="none" xmlns="http://www.w3.org/2000/svg">
<g clip-path="url(#clip0_6271_10894)" filter="url(#filter0_d_6271_10894)">
<path d="M341.116 270.932C239.59 281.402 294.307 356.56 171.674 289.552C76.4136 237.501 -32.8286 229.564 -103.603 354.006C-107.299 356.602 -198.889 591.143 -150.536 631.86C-61.9884 706.423 674.416 520.201 665.845 492.997C657.275 465.793 501.919 327.143 437.66 288.744C406.821 270.316 363.518 268.622 341.116 270.932Z" fill="url(#paint0_radial_6271_10894)"/>
<path d="M529.116 230.94C427.59 241.41 482.307 316.568 359.674 249.56C264.414 197.508 155.171 189.572 84.3972 314.013C80.7006 316.61 -10.8889 551.151 37.4644 591.868C126.012 666.43 862.416 480.208 853.845 453.004C845.275 425.8 689.919 287.15 625.66 248.751C594.821 230.323 551.518 228.629 529.116 230.94Z" fill="url(#paint1_radial_6271_10894)"/>
</g>
<defs>
<filter id="filter0_d_6271_10894" x="0" y="-3" width="338" height="440" filterUnits="userSpaceOnUse" color-interpolation-filters="sRGB">
<feFlood flood-opacity="0" result="BackgroundImageFix"/>
<feColorMatrix in="SourceAlpha" type="matrix" values="0 0 0 0 0 0 0 0 0 0 0 0 0 0 0 0 0 0 127 0" result="hardAlpha"/>
<feOffset dy="7"/>
<feGaussianBlur stdDeviation="5"/>
<feComposite in2="hardAlpha" operator="out"/>
<feColorMatrix type="matrix" values="0 0 0 0 0 0 0 0 0 0 0 0 0 0 0 0 0 0 0.1 0"/>
<feBlend mode="normal" in2="BackgroundImageFix" result="effect1_dropShadow_6271_10894"/>
<feBlend mode="normal" in="SourceGraphic" in2="effect1_dropShadow_6271_10894" result="shape"/>
</filter>
<radialGradient id="paint0_radial_6271_10894" cx="0" cy="0" r="1" gradientUnits="userSpaceOnUse" gradientTransform="translate(27.5 235.5) rotate(41.0766) scale(320.363 542.506)">
<stop stop-color="#F0B8B8" stop-opacity="0.5"/>
<stop offset="0.258506" stop-color="#D3CAFD" stop-opacity="0.5"/>
<stop offset="0.408597" stop-color="#D0D3FE" stop-opacity="0.4"/>
<stop offset="1" stop-color="#CEDCFF" stop-opacity="0"/>
</radialGradient>
<radialGradient id="paint1_radial_6271_10894" cx="0" cy="0" r="1" gradientUnits="userSpaceOnUse" gradientTransform="translate(232 148.546) rotate(48.5125) scale(400.963 678.995)">
<stop stop-color="#F0B8B8" stop-opacity="0.5"/>
<stop offset="0.5" stop-color="#D3CAFD" stop-opacity="0.5"/>
<stop offset="0.75" stop-color="#D0D3FE" stop-opacity="0.4"/>
<stop offset="1" stop-color="#CEDCFF" stop-opacity="0.4"/>
</radialGradient>
<clipPath id="clip0_6271_10894">
<rect width="318" height="420" fill="white" transform="translate(10)"/>
</clipPath>
</defs>
</svg>
