<svg width="50" height="50" viewBox="0 0 50 50" fill="none" xmlns="http://www.w3.org/2000/svg">
<mask id="path-1-outside-1_500_5454" maskUnits="userSpaceOnUse" x="1.99219" y="0.0742188" width="46" height="49" fill="black">
<rect fill="white" x="1.99219" y="0.0742188" width="46" height="49"/>
<path d="M24.4209 31.0977C24.4775 31.1211 24.6104 31.1943 24.627 31.3779L24.7402 32.5947C24.8027 33.2695 25.3184 33.79 25.9922 33.8604C26.2998 33.8926 26.6094 33.9082 26.9189 33.9082C27.251 33.9082 27.584 33.8896 27.9141 33.8525C28.5879 33.7773 29.0996 33.2529 29.1562 32.5771L29.2598 31.3584C29.2754 31.1748 29.4072 31.1006 29.4639 31.0772C29.5195 31.0537 29.666 31.0117 29.8076 31.1289L30.748 31.9092C31.2695 32.3418 32.002 32.3467 32.5283 31.9189C33.0264 31.5146 33.4824 31.0547 33.8828 30.5537C34.3057 30.0234 34.2959 29.292 33.8584 28.7734L33.0703 27.8398C32.9512 27.6992 32.9922 27.5527 33.0156 27.4961C33.0391 27.4395 33.1123 27.3066 33.2959 27.29L34.5127 27.1768C35.1875 27.1143 35.708 26.5996 35.7783 25.9248C35.8447 25.2871 35.8418 24.6406 35.7715 24.0029C35.6963 23.3281 35.1719 22.8174 34.4961 22.7598L33.2783 22.6562C33.0947 22.6406 33.0205 22.5088 32.9971 22.4521C32.9736 22.3965 32.9316 22.25 33.0488 22.1084L33.8291 21.168C34.2627 20.6465 34.2666 19.9141 33.8389 19.3877C33.4346 18.8896 32.9746 18.4336 32.4736 18.0332C31.9434 17.6104 31.2119 17.6201 30.6934 18.0576L29.7598 18.8457C29.6191 18.9648 29.4727 18.9238 29.416 18.9004C29.3594 18.877 29.2266 18.8037 29.21 18.6201L29.0967 17.4033C29.0342 16.7285 28.5195 16.208 27.8447 16.1377C27.207 16.0713 26.5605 16.0742 25.9219 16.1445C25.248 16.2197 24.7363 16.7441 24.6797 17.4199L24.5762 18.6377C24.5605 18.8213 24.4287 18.8955 24.3721 18.9189C24.3154 18.9424 24.1699 18.9844 24.0283 18.8672L23.0879 18.0869C22.5664 17.6533 21.834 17.6494 21.3076 18.0771C20.8096 18.4814 20.3535 18.9414 19.9531 19.4424C19.5303 19.9727 19.54 20.7041 19.9775 21.2227L20.7656 22.1562C20.8848 22.2969 20.8438 22.4434 20.8203 22.5C20.7969 22.5566 20.7236 22.6895 20.54 22.7061L19.3232 22.8193C18.6484 22.8818 18.1279 23.3965 18.0576 24.0713C17.9912 24.709 17.9941 25.3555 18.0645 25.9932C18.1396 26.668 18.6641 27.1787 19.3398 27.2363L20.5576 27.3398C20.7412 27.3555 20.8154 27.4873 20.8389 27.5439C20.8623 27.5996 20.9043 27.7461 20.7871 27.8877L20.0068 28.8281C19.5732 29.3496 19.5693 30.082 19.9971 30.6084C20.4014 31.1064 20.8613 31.5625 21.3623 31.9629C21.8916 32.3857 22.624 32.376 23.1426 31.9385L24.0762 31.1504C24.2178 31.0342 24.3643 31.0752 24.4209 31.0977ZM22.5137 31.1943C22.3535 31.3291 22.1367 31.332 21.9727 31.2012C21.5254 30.8447 21.1162 30.4385 20.7559 29.9941C20.624 29.8311 20.625 29.6143 20.7588 29.4531L21.5391 28.5127C21.8525 28.1348 21.9297 27.6201 21.7402 27.168C21.5508 26.7158 21.1299 26.4102 20.6406 26.3682L19.4219 26.2647C19.2129 26.2471 19.0576 26.0947 19.0342 25.8867C18.9707 25.3184 18.9688 24.7422 19.0273 24.1738C19.0488 23.9658 19.2031 23.8125 19.4121 23.793L20.6289 23.6797C21.1182 23.6348 21.5371 23.3242 21.7227 22.8711C21.9082 22.418 21.8271 21.9033 21.5107 21.5283L20.7227 20.5947C20.5879 20.4346 20.585 20.2168 20.7148 20.0537C21.0713 19.6074 21.4775 19.1973 21.9219 18.8369C22.084 18.7051 22.3018 18.7061 22.4629 18.8398L23.4033 19.6201C23.7812 19.9336 24.2969 20.0107 24.748 19.8213C25.2002 19.6318 25.5059 19.2109 25.5479 18.7217L25.6514 17.5039C25.6689 17.2949 25.8213 17.1396 26.0293 17.1162C26.5977 17.0527 27.1738 17.0508 27.7422 17.1094C27.9502 17.1309 28.1035 17.2852 28.123 17.4941L28.2363 18.7109C28.2812 19.1992 28.5918 19.6182 29.0449 19.8047C29.498 19.9902 30.0127 19.9092 30.3877 19.5928L31.3213 18.8047C31.4814 18.6699 31.6982 18.667 31.8623 18.7979C32.3096 19.1543 32.7188 19.5605 33.0791 20.0049C33.2109 20.168 33.21 20.3848 33.0762 20.5459L32.2959 21.4863C31.9824 21.8643 31.9053 22.3789 32.0947 22.8311C32.2842 23.2832 32.7051 23.5889 33.1943 23.6309L34.4131 23.7344C34.6221 23.752 34.7773 23.9043 34.8008 24.1123C34.8643 24.6807 34.8662 25.2568 34.8076 25.8252C34.7861 26.0332 34.6318 26.1865 34.4229 26.2061L33.2061 26.3193C32.7178 26.3643 32.2988 26.6748 32.1123 27.1279C31.9268 27.5811 32.0078 28.0957 32.3242 28.4707L33.1123 29.4043C33.2471 29.5645 33.25 29.7822 33.1201 29.9453C32.7637 30.3926 32.3574 30.8018 31.9131 31.1621C31.751 31.2939 31.5332 31.293 31.3721 31.1592L30.4316 30.3789C30.0537 30.0654 29.5391 29.9883 29.0869 30.1777C28.6348 30.3672 28.3291 30.7881 28.2871 31.2773L28.1836 32.4961C28.166 32.7051 28.0137 32.8604 27.8057 32.8838C27.2373 32.9473 26.6602 32.9492 26.0928 32.8906C25.8848 32.8691 25.7314 32.7148 25.7119 32.5059L25.5986 31.2891C25.5527 30.8008 25.2432 30.3818 24.79 30.1953C24.6289 30.1299 24.46 30.0977 24.293 30.0977C23.9893 30.0977 23.6895 30.2041 23.4473 30.4082L22.5137 31.1943ZM30.9141 25C30.9141 22.7959 29.1211 21.0039 26.918 21.0039C24.7148 21.0039 22.9219 22.7969 22.9219 25C22.9219 27.2031 24.7148 28.9961 26.918 28.9961C29.1211 28.9961 30.9141 27.2041 30.9141 25ZM23.8984 25C23.8984 23.335 25.2529 21.9805 26.918 21.9805C28.583 21.9805 29.9375 23.335 29.9375 25C29.9375 26.665 28.583 28.0195 26.918 28.0195C25.2529 28.0195 23.8984 26.665 23.8984 25ZM37.082 9.89355C37.2393 9.67383 37.5439 9.62305 37.7627 9.78027C41.168 12.2109 43.6885 15.7627 44.8613 19.7803C45.9482 23.5049 45.8379 27.5098 44.5635 31.1631L45.7969 30.502C46.0352 30.375 46.3301 30.4639 46.458 30.7022C46.585 30.9395 46.4961 31.2354 46.2578 31.3633L43.8584 32.6494C43.7871 32.6875 43.708 32.707 43.6279 32.707C43.5801 32.707 43.5332 32.7002 43.4863 32.6865C43.3623 32.6494 43.2588 32.5635 43.1973 32.4502L41.9111 30.0508C41.7842 29.8135 41.873 29.5176 42.1113 29.3897C42.3486 29.2627 42.6445 29.3516 42.7725 29.5898L43.5625 31.0654C46.2979 23.5879 43.7383 15.2471 37.1953 10.5771C36.9766 10.418 36.9248 10.1133 37.082 9.89355ZM35.0254 41.3037C35.1387 41.5479 35.0332 41.8389 34.7881 41.9521C31.7109 43.3828 28.3281 43.9414 24.9502 43.585L25.8857 44.7646C26.0537 44.9756 26.0176 45.2832 25.8066 45.4502C25.7168 45.5215 25.6103 45.5557 25.5039 45.5557C25.3603 45.5557 25.2178 45.4922 25.1211 45.3711L23.4297 43.2373C23.2617 43.0264 23.2979 42.7188 23.5088 42.5518L25.6426 40.8604C25.8535 40.6924 26.1611 40.7285 26.3281 40.9395C26.4961 41.1504 26.46 41.458 26.249 41.625L25.0088 42.6084C28.2256 42.9561 31.4473 42.4287 34.377 41.0664C34.6211 40.9541 34.9111 41.0596 35.0254 41.3037ZM11.1055 34.9639C8.58203 30.9668 7.6748 26.2041 8.55176 21.5518C9.36719 17.2236 11.6572 13.3604 15.0371 10.5762L13.6074 10.4766C13.3389 10.458 13.1357 10.2246 13.1543 9.95605C13.1729 9.6875 13.4063 9.48438 13.6748 9.50293L16.3906 9.69141C16.6592 9.70996 16.8623 9.94336 16.8438 10.2119L16.6553 12.9277C16.6367 13.1963 16.4033 13.3984 16.1348 13.3809C15.8662 13.3623 15.6631 13.1289 15.6816 12.8604L15.7959 11.2188C8.87207 16.8164 7.14941 26.8682 11.9326 34.4424C12.0762 34.6699 12.0088 34.9717 11.7803 35.1162C11.6992 35.167 11.6094 35.1914 11.5205 35.1914C11.3564 35.1914 11.1982 35.1104 11.1055 34.9639ZM19.6494 13.0762H34.1865C34.6562 13.0762 35.0381 12.6943 35.0381 12.2246V4.46387C35.0381 4.18848 34.9043 3.92871 34.6807 3.76953C34.457 3.61035 34.168 3.56934 33.9082 3.65918L28.7422 5.44727V4.46387C28.7422 4.18848 28.6084 3.92871 28.3848 3.76953C28.1611 3.61035 27.8721 3.56934 27.6123 3.65918L22.4463 5.44727V1.92578C22.4463 1.45605 22.0645 1.07422 21.5947 1.07422H19.6494C19.1797 1.07422 18.7979 1.45605 18.7979 1.92578V12.2246C18.7979 12.6943 19.1797 13.0762 19.6494 13.0762ZM28.7422 6.48047L34.0615 4.63965V12.0996H28.7422V6.48047ZM22.4463 6.48047L27.7656 4.63965V12.0996H22.4463V6.48047ZM19.7744 12.0996V3.6582H21.4697V12.0986H19.7744V12.0996ZM21.4697 2.05078V2.68164H19.7744V2.05078H21.4697ZM26.1807 7.16797H24.0322C23.7627 7.16797 23.5439 7.38672 23.5439 7.65625V9.80469C23.5439 10.0742 23.7627 10.293 24.0322 10.293H26.1807C26.4502 10.293 26.6689 10.0742 26.6689 9.80469V7.65625C26.6689 7.38672 26.4502 7.16797 26.1807 7.16797ZM25.6924 9.31641H24.5205V8.14453H25.6924V9.31641ZM32.4756 7.16797H30.3271C30.0576 7.16797 29.8389 7.38672 29.8389 7.65625V9.80469C29.8389 10.0742 30.0576 10.293 30.3271 10.293H32.4756C32.7451 10.293 32.9639 10.0742 32.9639 9.80469V7.65625C32.9639 7.38672 32.7461 7.16797 32.4756 7.16797ZM31.9873 9.31641H30.8154V8.14453H31.9873V9.31641ZM19.8691 40.4141C19.5342 39.8125 18.9238 39.4541 18.2354 39.4541H15.5527V38.6631C15.5527 37.8252 14.8711 37.1436 14.0332 37.1436H4.51172C3.67383 37.1436 2.99219 37.8252 2.99219 38.6631V45.8457C2.99219 46.5957 3.53906 47.2188 4.25488 47.3418C4.46582 48.248 5.27832 48.9258 6.24707 48.9258C7.20801 48.9258 8.01367 48.2598 8.2334 47.3662H16.127C16.3467 48.2598 17.1533 48.9258 18.1133 48.9258C19.0762 48.9258 19.8848 48.2568 20.1016 47.3594C20.8115 47.2881 21.3682 46.6865 21.3682 45.957V43.5947C21.3682 43.2637 21.293 42.9746 21.1318 42.6855L19.8691 40.4141ZM19.0156 40.8896L20.25 43.1064H17.7187C17.4805 43.1064 17.2861 42.9121 17.2861 42.6738V40.4307H18.2354C18.5742 40.4307 18.8516 40.5938 19.0156 40.8896ZM6.24707 47.9492C5.65625 47.9492 5.17578 47.4688 5.17578 46.8779C5.17578 46.2871 5.65625 45.8066 6.24707 45.8066C6.83789 45.8066 7.31836 46.2871 7.31836 46.8779C7.31836 47.4688 6.83789 47.9492 6.24707 47.9492ZM6.24707 44.8301C5.30664 44.8301 4.51367 45.4688 4.27441 46.335C4.09375 46.2471 3.96777 46.0615 3.96777 45.8467V38.6641C3.96777 38.3643 4.21191 38.1211 4.51074 38.1211H14.0332C14.333 38.1211 14.5762 38.3652 14.5762 38.6641V46.3896H8.23438C8.01367 45.4961 7.20801 44.8301 6.24707 44.8301ZM18.1143 47.9492C17.5234 47.9492 17.043 47.4688 17.043 46.8779C17.043 46.2871 17.5234 45.8066 18.1143 45.8066C18.7051 45.8066 19.1855 46.2871 19.1855 46.8779C19.1855 47.4688 18.7051 47.9492 18.1143 47.9492ZM20.0947 46.3662C19.8662 45.4844 19.0664 44.8301 18.1143 44.8301C17.1533 44.8301 16.3477 45.4961 16.1279 46.3896H15.5537V40.4316H16.3096V42.6748C16.3096 43.4521 16.9414 44.084 17.7187 44.084H20.3936V45.958C20.3936 46.1484 20.2676 46.3096 20.0947 46.3662ZM41.1904 34.084C39.5371 34.084 38.1914 35.4297 38.1914 37.083C38.1914 38.7363 39.5371 40.082 41.1904 40.082C42.8438 40.082 44.1895 38.7363 44.1895 37.083C44.1895 35.4297 42.8447 34.084 41.1904 34.084ZM41.1904 39.1055C40.0752 39.1055 39.168 38.1982 39.168 37.083C39.168 35.9678 40.0752 35.0605 41.1904 35.0605C42.3057 35.0605 43.2129 35.9678 43.2129 37.083C43.2129 38.1982 42.3057 39.1055 41.1904 39.1055ZM46.9893 45.6943C46.5713 42.8408 44.0811 40.6553 41.1982 40.6123C41.1934 40.6123 41.1885 40.6123 41.1836 40.6123C38.3008 40.6553 35.8105 42.8408 35.3926 45.6943C35.2881 46.4043 35.5801 47.0703 36.1729 47.4756C37.6318 48.4727 39.7969 48.9268 41.1914 48.9268C42.585 48.9268 44.75 48.4727 46.21 47.4756C46.8018 47.0703 47.0938 46.4043 46.9893 45.6943ZM45.6582 46.6689C44.2822 47.6084 42.2324 47.9492 41.1904 47.9492C40.1484 47.9492 38.0986 47.6084 36.7227 46.6689C36.4414 46.4766 36.3086 46.1729 36.3574 45.8359C36.707 43.4531 38.7832 41.6289 41.1895 41.5889C43.5957 41.6289 45.6729 43.4531 46.0215 45.8359C46.0723 46.1729 45.9395 46.4766 45.6582 46.6689Z"/>
</mask>
<path d="M24.4209 31.0977C24.4775 31.1211 24.6104 31.1943 24.627 31.3779L24.7402 32.5947C24.8027 33.2695 25.3184 33.79 25.9922 33.8604C26.2998 33.8926 26.6094 33.9082 26.9189 33.9082C27.251 33.9082 27.584 33.8896 27.9141 33.8525C28.5879 33.7773 29.0996 33.2529 29.1562 32.5771L29.2598 31.3584C29.2754 31.1748 29.4072 31.1006 29.4639 31.0772C29.5195 31.0537 29.666 31.0117 29.8076 31.1289L30.748 31.9092C31.2695 32.3418 32.002 32.3467 32.5283 31.9189C33.0264 31.5146 33.4824 31.0547 33.8828 30.5537C34.3057 30.0234 34.2959 29.292 33.8584 28.7734L33.0703 27.8398C32.9512 27.6992 32.9922 27.5527 33.0156 27.4961C33.0391 27.4395 33.1123 27.3066 33.2959 27.29L34.5127 27.1768C35.1875 27.1143 35.708 26.5996 35.7783 25.9248C35.8447 25.2871 35.8418 24.6406 35.7715 24.0029C35.6963 23.3281 35.1719 22.8174 34.4961 22.7598L33.2783 22.6562C33.0947 22.6406 33.0205 22.5088 32.9971 22.4521C32.9736 22.3965 32.9316 22.25 33.0488 22.1084L33.8291 21.168C34.2627 20.6465 34.2666 19.9141 33.8389 19.3877C33.4346 18.8896 32.9746 18.4336 32.4736 18.0332C31.9434 17.6104 31.2119 17.6201 30.6934 18.0576L29.7598 18.8457C29.6191 18.9648 29.4727 18.9238 29.416 18.9004C29.3594 18.877 29.2266 18.8037 29.21 18.6201L29.0967 17.4033C29.0342 16.7285 28.5195 16.208 27.8447 16.1377C27.207 16.0713 26.5605 16.0742 25.9219 16.1445C25.248 16.2197 24.7363 16.7441 24.6797 17.4199L24.5762 18.6377C24.5605 18.8213 24.4287 18.8955 24.3721 18.9189C24.3154 18.9424 24.1699 18.9844 24.0283 18.8672L23.0879 18.0869C22.5664 17.6533 21.834 17.6494 21.3076 18.0771C20.8096 18.4814 20.3535 18.9414 19.9531 19.4424C19.5303 19.9727 19.54 20.7041 19.9775 21.2227L20.7656 22.1562C20.8848 22.2969 20.8438 22.4434 20.8203 22.5C20.7969 22.5566 20.7236 22.6895 20.54 22.7061L19.3232 22.8193C18.6484 22.8818 18.1279 23.3965 18.0576 24.0713C17.9912 24.709 17.9941 25.3555 18.0645 25.9932C18.1396 26.668 18.6641 27.1787 19.3398 27.2363L20.5576 27.3398C20.7412 27.3555 20.8154 27.4873 20.8389 27.5439C20.8623 27.5996 20.9043 27.7461 20.7871 27.8877L20.0068 28.8281C19.5732 29.3496 19.5693 30.082 19.9971 30.6084C20.4014 31.1064 20.8613 31.5625 21.3623 31.9629C21.8916 32.3857 22.624 32.376 23.1426 31.9385L24.0762 31.1504C24.2178 31.0342 24.3643 31.0752 24.4209 31.0977ZM22.5137 31.1943C22.3535 31.3291 22.1367 31.332 21.9727 31.2012C21.5254 30.8447 21.1162 30.4385 20.7559 29.9941C20.624 29.8311 20.625 29.6143 20.7588 29.4531L21.5391 28.5127C21.8525 28.1348 21.9297 27.6201 21.7402 27.168C21.5508 26.7158 21.1299 26.4102 20.6406 26.3682L19.4219 26.2647C19.2129 26.2471 19.0576 26.0947 19.0342 25.8867C18.9707 25.3184 18.9688 24.7422 19.0273 24.1738C19.0488 23.9658 19.2031 23.8125 19.4121 23.793L20.6289 23.6797C21.1182 23.6348 21.5371 23.3242 21.7227 22.8711C21.9082 22.418 21.8271 21.9033 21.5107 21.5283L20.7227 20.5947C20.5879 20.4346 20.585 20.2168 20.7148 20.0537C21.0713 19.6074 21.4775 19.1973 21.9219 18.8369C22.084 18.7051 22.3018 18.7061 22.4629 18.8398L23.4033 19.6201C23.7812 19.9336 24.2969 20.0107 24.748 19.8213C25.2002 19.6318 25.5059 19.2109 25.5479 18.7217L25.6514 17.5039C25.6689 17.2949 25.8213 17.1396 26.0293 17.1162C26.5977 17.0527 27.1738 17.0508 27.7422 17.1094C27.9502 17.1309 28.1035 17.2852 28.123 17.4941L28.2363 18.7109C28.2812 19.1992 28.5918 19.6182 29.0449 19.8047C29.498 19.9902 30.0127 19.9092 30.3877 19.5928L31.3213 18.8047C31.4814 18.6699 31.6982 18.667 31.8623 18.7979C32.3096 19.1543 32.7188 19.5605 33.0791 20.0049C33.2109 20.168 33.21 20.3848 33.0762 20.5459L32.2959 21.4863C31.9824 21.8643 31.9053 22.3789 32.0947 22.8311C32.2842 23.2832 32.7051 23.5889 33.1943 23.6309L34.4131 23.7344C34.6221 23.752 34.7773 23.9043 34.8008 24.1123C34.8643 24.6807 34.8662 25.2568 34.8076 25.8252C34.7861 26.0332 34.6318 26.1865 34.4229 26.2061L33.2061 26.3193C32.7178 26.3643 32.2988 26.6748 32.1123 27.1279C31.9268 27.5811 32.0078 28.0957 32.3242 28.4707L33.1123 29.4043C33.2471 29.5645 33.25 29.7822 33.1201 29.9453C32.7637 30.3926 32.3574 30.8018 31.9131 31.1621C31.751 31.2939 31.5332 31.293 31.3721 31.1592L30.4316 30.3789C30.0537 30.0654 29.5391 29.9883 29.0869 30.1777C28.6348 30.3672 28.3291 30.7881 28.2871 31.2773L28.1836 32.4961C28.166 32.7051 28.0137 32.8604 27.8057 32.8838C27.2373 32.9473 26.6602 32.9492 26.0928 32.8906C25.8848 32.8691 25.7314 32.7148 25.7119 32.5059L25.5986 31.2891C25.5527 30.8008 25.2432 30.3818 24.79 30.1953C24.6289 30.1299 24.46 30.0977 24.293 30.0977C23.9893 30.0977 23.6895 30.2041 23.4473 30.4082L22.5137 31.1943ZM30.9141 25C30.9141 22.7959 29.1211 21.0039 26.918 21.0039C24.7148 21.0039 22.9219 22.7969 22.9219 25C22.9219 27.2031 24.7148 28.9961 26.918 28.9961C29.1211 28.9961 30.9141 27.2041 30.9141 25ZM23.8984 25C23.8984 23.335 25.2529 21.9805 26.918 21.9805C28.583 21.9805 29.9375 23.335 29.9375 25C29.9375 26.665 28.583 28.0195 26.918 28.0195C25.2529 28.0195 23.8984 26.665 23.8984 25ZM37.082 9.89355C37.2393 9.67383 37.5439 9.62305 37.7627 9.78027C41.168 12.2109 43.6885 15.7627 44.8613 19.7803C45.9482 23.5049 45.8379 27.5098 44.5635 31.1631L45.7969 30.502C46.0352 30.375 46.3301 30.4639 46.458 30.7022C46.585 30.9395 46.4961 31.2354 46.2578 31.3633L43.8584 32.6494C43.7871 32.6875 43.708 32.707 43.6279 32.707C43.5801 32.707 43.5332 32.7002 43.4863 32.6865C43.3623 32.6494 43.2588 32.5635 43.1973 32.4502L41.9111 30.0508C41.7842 29.8135 41.873 29.5176 42.1113 29.3897C42.3486 29.2627 42.6445 29.3516 42.7725 29.5898L43.5625 31.0654C46.2979 23.5879 43.7383 15.2471 37.1953 10.5771C36.9766 10.418 36.9248 10.1133 37.082 9.89355ZM35.0254 41.3037C35.1387 41.5479 35.0332 41.8389 34.7881 41.9521C31.7109 43.3828 28.3281 43.9414 24.9502 43.585L25.8857 44.7646C26.0537 44.9756 26.0176 45.2832 25.8066 45.4502C25.7168 45.5215 25.6103 45.5557 25.5039 45.5557C25.3603 45.5557 25.2178 45.4922 25.1211 45.3711L23.4297 43.2373C23.2617 43.0264 23.2979 42.7188 23.5088 42.5518L25.6426 40.8604C25.8535 40.6924 26.1611 40.7285 26.3281 40.9395C26.4961 41.1504 26.46 41.458 26.249 41.625L25.0088 42.6084C28.2256 42.9561 31.4473 42.4287 34.377 41.0664C34.6211 40.9541 34.9111 41.0596 35.0254 41.3037ZM11.1055 34.9639C8.58203 30.9668 7.6748 26.2041 8.55176 21.5518C9.36719 17.2236 11.6572 13.3604 15.0371 10.5762L13.6074 10.4766C13.3389 10.458 13.1357 10.2246 13.1543 9.95605C13.1729 9.6875 13.4063 9.48438 13.6748 9.50293L16.3906 9.69141C16.6592 9.70996 16.8623 9.94336 16.8438 10.2119L16.6553 12.9277C16.6367 13.1963 16.4033 13.3984 16.1348 13.3809C15.8662 13.3623 15.6631 13.1289 15.6816 12.8604L15.7959 11.2188C8.87207 16.8164 7.14941 26.8682 11.9326 34.4424C12.0762 34.6699 12.0088 34.9717 11.7803 35.1162C11.6992 35.167 11.6094 35.1914 11.5205 35.1914C11.3564 35.1914 11.1982 35.1104 11.1055 34.9639ZM19.6494 13.0762H34.1865C34.6562 13.0762 35.0381 12.6943 35.0381 12.2246V4.46387C35.0381 4.18848 34.9043 3.92871 34.6807 3.76953C34.457 3.61035 34.168 3.56934 33.9082 3.65918L28.7422 5.44727V4.46387C28.7422 4.18848 28.6084 3.92871 28.3848 3.76953C28.1611 3.61035 27.8721 3.56934 27.6123 3.65918L22.4463 5.44727V1.92578C22.4463 1.45605 22.0645 1.07422 21.5947 1.07422H19.6494C19.1797 1.07422 18.7979 1.45605 18.7979 1.92578V12.2246C18.7979 12.6943 19.1797 13.0762 19.6494 13.0762ZM28.7422 6.48047L34.0615 4.63965V12.0996H28.7422V6.48047ZM22.4463 6.48047L27.7656 4.63965V12.0996H22.4463V6.48047ZM19.7744 12.0996V3.6582H21.4697V12.0986H19.7744V12.0996ZM21.4697 2.05078V2.68164H19.7744V2.05078H21.4697ZM26.1807 7.16797H24.0322C23.7627 7.16797 23.5439 7.38672 23.5439 7.65625V9.80469C23.5439 10.0742 23.7627 10.293 24.0322 10.293H26.1807C26.4502 10.293 26.6689 10.0742 26.6689 9.80469V7.65625C26.6689 7.38672 26.4502 7.16797 26.1807 7.16797ZM25.6924 9.31641H24.5205V8.14453H25.6924V9.31641ZM32.4756 7.16797H30.3271C30.0576 7.16797 29.8389 7.38672 29.8389 7.65625V9.80469C29.8389 10.0742 30.0576 10.293 30.3271 10.293H32.4756C32.7451 10.293 32.9639 10.0742 32.9639 9.80469V7.65625C32.9639 7.38672 32.7461 7.16797 32.4756 7.16797ZM31.9873 9.31641H30.8154V8.14453H31.9873V9.31641ZM19.8691 40.4141C19.5342 39.8125 18.9238 39.4541 18.2354 39.4541H15.5527V38.6631C15.5527 37.8252 14.8711 37.1436 14.0332 37.1436H4.51172C3.67383 37.1436 2.99219 37.8252 2.99219 38.6631V45.8457C2.99219 46.5957 3.53906 47.2188 4.25488 47.3418C4.46582 48.248 5.27832 48.9258 6.24707 48.9258C7.20801 48.9258 8.01367 48.2598 8.2334 47.3662H16.127C16.3467 48.2598 17.1533 48.9258 18.1133 48.9258C19.0762 48.9258 19.8848 48.2568 20.1016 47.3594C20.8115 47.2881 21.3682 46.6865 21.3682 45.957V43.5947C21.3682 43.2637 21.293 42.9746 21.1318 42.6855L19.8691 40.4141ZM19.0156 40.8896L20.25 43.1064H17.7187C17.4805 43.1064 17.2861 42.9121 17.2861 42.6738V40.4307H18.2354C18.5742 40.4307 18.8516 40.5938 19.0156 40.8896ZM6.24707 47.9492C5.65625 47.9492 5.17578 47.4688 5.17578 46.8779C5.17578 46.2871 5.65625 45.8066 6.24707 45.8066C6.83789 45.8066 7.31836 46.2871 7.31836 46.8779C7.31836 47.4688 6.83789 47.9492 6.24707 47.9492ZM6.24707 44.8301C5.30664 44.8301 4.51367 45.4688 4.27441 46.335C4.09375 46.2471 3.96777 46.0615 3.96777 45.8467V38.6641C3.96777 38.3643 4.21191 38.1211 4.51074 38.1211H14.0332C14.333 38.1211 14.5762 38.3652 14.5762 38.6641V46.3896H8.23438C8.01367 45.4961 7.20801 44.8301 6.24707 44.8301ZM18.1143 47.9492C17.5234 47.9492 17.043 47.4688 17.043 46.8779C17.043 46.2871 17.5234 45.8066 18.1143 45.8066C18.7051 45.8066 19.1855 46.2871 19.1855 46.8779C19.1855 47.4688 18.7051 47.9492 18.1143 47.9492ZM20.0947 46.3662C19.8662 45.4844 19.0664 44.8301 18.1143 44.8301C17.1533 44.8301 16.3477 45.4961 16.1279 46.3896H15.5537V40.4316H16.3096V42.6748C16.3096 43.4521 16.9414 44.084 17.7187 44.084H20.3936V45.958C20.3936 46.1484 20.2676 46.3096 20.0947 46.3662ZM41.1904 34.084C39.5371 34.084 38.1914 35.4297 38.1914 37.083C38.1914 38.7363 39.5371 40.082 41.1904 40.082C42.8438 40.082 44.1895 38.7363 44.1895 37.083C44.1895 35.4297 42.8447 34.084 41.1904 34.084ZM41.1904 39.1055C40.0752 39.1055 39.168 38.1982 39.168 37.083C39.168 35.9678 40.0752 35.0605 41.1904 35.0605C42.3057 35.0605 43.2129 35.9678 43.2129 37.083C43.2129 38.1982 42.3057 39.1055 41.1904 39.1055ZM46.9893 45.6943C46.5713 42.8408 44.0811 40.6553 41.1982 40.6123C41.1934 40.6123 41.1885 40.6123 41.1836 40.6123C38.3008 40.6553 35.8105 42.8408 35.3926 45.6943C35.2881 46.4043 35.5801 47.0703 36.1729 47.4756C37.6318 48.4727 39.7969 48.9268 41.1914 48.9268C42.585 48.9268 44.75 48.4727 46.21 47.4756C46.8018 47.0703 47.0938 46.4043 46.9893 45.6943ZM45.6582 46.6689C44.2822 47.6084 42.2324 47.9492 41.1904 47.9492C40.1484 47.9492 38.0986 47.6084 36.7227 46.6689C36.4414 46.4766 36.3086 46.1729 36.3574 45.8359C36.707 43.4531 38.7832 41.6289 41.1895 41.5889C43.5957 41.6289 45.6729 43.4531 46.0215 45.8359C46.0723 46.1729 45.9395 46.4766 45.6582 46.6689Z" fill="#7595E5"/>
<path d="M24.4209 31.0977C24.4775 31.1211 24.6104 31.1943 24.627 31.3779L24.7402 32.5947C24.8027 33.2695 25.3184 33.79 25.9922 33.8604C26.2998 33.8926 26.6094 33.9082 26.9189 33.9082C27.251 33.9082 27.584 33.8896 27.9141 33.8525C28.5879 33.7773 29.0996 33.2529 29.1562 32.5771L29.2598 31.3584C29.2754 31.1748 29.4072 31.1006 29.4639 31.0772C29.5195 31.0537 29.666 31.0117 29.8076 31.1289L30.748 31.9092C31.2695 32.3418 32.002 32.3467 32.5283 31.9189C33.0264 31.5146 33.4824 31.0547 33.8828 30.5537C34.3057 30.0234 34.2959 29.292 33.8584 28.7734L33.0703 27.8398C32.9512 27.6992 32.9922 27.5527 33.0156 27.4961C33.0391 27.4395 33.1123 27.3066 33.2959 27.29L34.5127 27.1768C35.1875 27.1143 35.708 26.5996 35.7783 25.9248C35.8447 25.2871 35.8418 24.6406 35.7715 24.0029C35.6963 23.3281 35.1719 22.8174 34.4961 22.7598L33.2783 22.6562C33.0947 22.6406 33.0205 22.5088 32.9971 22.4521C32.9736 22.3965 32.9316 22.25 33.0488 22.1084L33.8291 21.168C34.2627 20.6465 34.2666 19.9141 33.8389 19.3877C33.4346 18.8896 32.9746 18.4336 32.4736 18.0332C31.9434 17.6104 31.2119 17.6201 30.6934 18.0576L29.7598 18.8457C29.6191 18.9648 29.4727 18.9238 29.416 18.9004C29.3594 18.877 29.2266 18.8037 29.21 18.6201L29.0967 17.4033C29.0342 16.7285 28.5195 16.208 27.8447 16.1377C27.207 16.0713 26.5605 16.0742 25.9219 16.1445C25.248 16.2197 24.7363 16.7441 24.6797 17.4199L24.5762 18.6377C24.5605 18.8213 24.4287 18.8955 24.3721 18.9189C24.3154 18.9424 24.1699 18.9844 24.0283 18.8672L23.0879 18.0869C22.5664 17.6533 21.834 17.6494 21.3076 18.0771C20.8096 18.4814 20.3535 18.9414 19.9531 19.4424C19.5303 19.9727 19.54 20.7041 19.9775 21.2227L20.7656 22.1562C20.8848 22.2969 20.8438 22.4434 20.8203 22.5C20.7969 22.5566 20.7236 22.6895 20.54 22.7061L19.3232 22.8193C18.6484 22.8818 18.1279 23.3965 18.0576 24.0713C17.9912 24.709 17.9941 25.3555 18.0645 25.9932C18.1396 26.668 18.6641 27.1787 19.3398 27.2363L20.5576 27.3398C20.7412 27.3555 20.8154 27.4873 20.8389 27.5439C20.8623 27.5996 20.9043 27.7461 20.7871 27.8877L20.0068 28.8281C19.5732 29.3496 19.5693 30.082 19.9971 30.6084C20.4014 31.1064 20.8613 31.5625 21.3623 31.9629C21.8916 32.3857 22.624 32.376 23.1426 31.9385L24.0762 31.1504C24.2178 31.0342 24.3643 31.0752 24.4209 31.0977ZM22.5137 31.1943C22.3535 31.3291 22.1367 31.332 21.9727 31.2012C21.5254 30.8447 21.1162 30.4385 20.7559 29.9941C20.624 29.8311 20.625 29.6143 20.7588 29.4531L21.5391 28.5127C21.8525 28.1348 21.9297 27.6201 21.7402 27.168C21.5508 26.7158 21.1299 26.4102 20.6406 26.3682L19.4219 26.2647C19.2129 26.2471 19.0576 26.0947 19.0342 25.8867C18.9707 25.3184 18.9688 24.7422 19.0273 24.1738C19.0488 23.9658 19.2031 23.8125 19.4121 23.793L20.6289 23.6797C21.1182 23.6348 21.5371 23.3242 21.7227 22.8711C21.9082 22.418 21.8271 21.9033 21.5107 21.5283L20.7227 20.5947C20.5879 20.4346 20.585 20.2168 20.7148 20.0537C21.0713 19.6074 21.4775 19.1973 21.9219 18.8369C22.084 18.7051 22.3018 18.7061 22.4629 18.8398L23.4033 19.6201C23.7812 19.9336 24.2969 20.0107 24.748 19.8213C25.2002 19.6318 25.5059 19.2109 25.5479 18.7217L25.6514 17.5039C25.6689 17.2949 25.8213 17.1396 26.0293 17.1162C26.5977 17.0527 27.1738 17.0508 27.7422 17.1094C27.9502 17.1309 28.1035 17.2852 28.123 17.4941L28.2363 18.7109C28.2812 19.1992 28.5918 19.6182 29.0449 19.8047C29.498 19.9902 30.0127 19.9092 30.3877 19.5928L31.3213 18.8047C31.4814 18.6699 31.6982 18.667 31.8623 18.7979C32.3096 19.1543 32.7188 19.5605 33.0791 20.0049C33.2109 20.168 33.21 20.3848 33.0762 20.5459L32.2959 21.4863C31.9824 21.8643 31.9053 22.3789 32.0947 22.8311C32.2842 23.2832 32.7051 23.5889 33.1943 23.6309L34.4131 23.7344C34.6221 23.752 34.7773 23.9043 34.8008 24.1123C34.8643 24.6807 34.8662 25.2568 34.8076 25.8252C34.7861 26.0332 34.6318 26.1865 34.4229 26.2061L33.2061 26.3193C32.7178 26.3643 32.2988 26.6748 32.1123 27.1279C31.9268 27.5811 32.0078 28.0957 32.3242 28.4707L33.1123 29.4043C33.2471 29.5645 33.25 29.7822 33.1201 29.9453C32.7637 30.3926 32.3574 30.8018 31.9131 31.1621C31.751 31.2939 31.5332 31.293 31.3721 31.1592L30.4316 30.3789C30.0537 30.0654 29.5391 29.9883 29.0869 30.1777C28.6348 30.3672 28.3291 30.7881 28.2871 31.2773L28.1836 32.4961C28.166 32.7051 28.0137 32.8604 27.8057 32.8838C27.2373 32.9473 26.6602 32.9492 26.0928 32.8906C25.8848 32.8691 25.7314 32.7148 25.7119 32.5059L25.5986 31.2891C25.5527 30.8008 25.2432 30.3818 24.79 30.1953C24.6289 30.1299 24.46 30.0977 24.293 30.0977C23.9893 30.0977 23.6895 30.2041 23.4473 30.4082L22.5137 31.1943ZM30.9141 25C30.9141 22.7959 29.1211 21.0039 26.918 21.0039C24.7148 21.0039 22.9219 22.7969 22.9219 25C22.9219 27.2031 24.7148 28.9961 26.918 28.9961C29.1211 28.9961 30.9141 27.2041 30.9141 25ZM23.8984 25C23.8984 23.335 25.2529 21.9805 26.918 21.9805C28.583 21.9805 29.9375 23.335 29.9375 25C29.9375 26.665 28.583 28.0195 26.918 28.0195C25.2529 28.0195 23.8984 26.665 23.8984 25ZM37.082 9.89355C37.2393 9.67383 37.5439 9.62305 37.7627 9.78027C41.168 12.2109 43.6885 15.7627 44.8613 19.7803C45.9482 23.5049 45.8379 27.5098 44.5635 31.1631L45.7969 30.502C46.0352 30.375 46.3301 30.4639 46.458 30.7022C46.585 30.9395 46.4961 31.2354 46.2578 31.3633L43.8584 32.6494C43.7871 32.6875 43.708 32.707 43.6279 32.707C43.5801 32.707 43.5332 32.7002 43.4863 32.6865C43.3623 32.6494 43.2588 32.5635 43.1973 32.4502L41.9111 30.0508C41.7842 29.8135 41.873 29.5176 42.1113 29.3897C42.3486 29.2627 42.6445 29.3516 42.7725 29.5898L43.5625 31.0654C46.2979 23.5879 43.7383 15.2471 37.1953 10.5771C36.9766 10.418 36.9248 10.1133 37.082 9.89355ZM35.0254 41.3037C35.1387 41.5479 35.0332 41.8389 34.7881 41.9521C31.7109 43.3828 28.3281 43.9414 24.9502 43.585L25.8857 44.7646C26.0537 44.9756 26.0176 45.2832 25.8066 45.4502C25.7168 45.5215 25.6103 45.5557 25.5039 45.5557C25.3603 45.5557 25.2178 45.4922 25.1211 45.3711L23.4297 43.2373C23.2617 43.0264 23.2979 42.7188 23.5088 42.5518L25.6426 40.8604C25.8535 40.6924 26.1611 40.7285 26.3281 40.9395C26.4961 41.1504 26.46 41.458 26.249 41.625L25.0088 42.6084C28.2256 42.9561 31.4473 42.4287 34.377 41.0664C34.6211 40.9541 34.9111 41.0596 35.0254 41.3037ZM11.1055 34.9639C8.58203 30.9668 7.6748 26.2041 8.55176 21.5518C9.36719 17.2236 11.6572 13.3604 15.0371 10.5762L13.6074 10.4766C13.3389 10.458 13.1357 10.2246 13.1543 9.95605C13.1729 9.6875 13.4063 9.48438 13.6748 9.50293L16.3906 9.69141C16.6592 9.70996 16.8623 9.94336 16.8438 10.2119L16.6553 12.9277C16.6367 13.1963 16.4033 13.3984 16.1348 13.3809C15.8662 13.3623 15.6631 13.1289 15.6816 12.8604L15.7959 11.2188C8.87207 16.8164 7.14941 26.8682 11.9326 34.4424C12.0762 34.6699 12.0088 34.9717 11.7803 35.1162C11.6992 35.167 11.6094 35.1914 11.5205 35.1914C11.3564 35.1914 11.1982 35.1104 11.1055 34.9639ZM19.6494 13.0762H34.1865C34.6562 13.0762 35.0381 12.6943 35.0381 12.2246V4.46387C35.0381 4.18848 34.9043 3.92871 34.6807 3.76953C34.457 3.61035 34.168 3.56934 33.9082 3.65918L28.7422 5.44727V4.46387C28.7422 4.18848 28.6084 3.92871 28.3848 3.76953C28.1611 3.61035 27.8721 3.56934 27.6123 3.65918L22.4463 5.44727V1.92578C22.4463 1.45605 22.0645 1.07422 21.5947 1.07422H19.6494C19.1797 1.07422 18.7979 1.45605 18.7979 1.92578V12.2246C18.7979 12.6943 19.1797 13.0762 19.6494 13.0762ZM28.7422 6.48047L34.0615 4.63965V12.0996H28.7422V6.48047ZM22.4463 6.48047L27.7656 4.63965V12.0996H22.4463V6.48047ZM19.7744 12.0996V3.6582H21.4697V12.0986H19.7744V12.0996ZM21.4697 2.05078V2.68164H19.7744V2.05078H21.4697ZM26.1807 7.16797H24.0322C23.7627 7.16797 23.5439 7.38672 23.5439 7.65625V9.80469C23.5439 10.0742 23.7627 10.293 24.0322 10.293H26.1807C26.4502 10.293 26.6689 10.0742 26.6689 9.80469V7.65625C26.6689 7.38672 26.4502 7.16797 26.1807 7.16797ZM25.6924 9.31641H24.5205V8.14453H25.6924V9.31641ZM32.4756 7.16797H30.3271C30.0576 7.16797 29.8389 7.38672 29.8389 7.65625V9.80469C29.8389 10.0742 30.0576 10.293 30.3271 10.293H32.4756C32.7451 10.293 32.9639 10.0742 32.9639 9.80469V7.65625C32.9639 7.38672 32.7461 7.16797 32.4756 7.16797ZM31.9873 9.31641H30.8154V8.14453H31.9873V9.31641ZM19.8691 40.4141C19.5342 39.8125 18.9238 39.4541 18.2354 39.4541H15.5527V38.6631C15.5527 37.8252 14.8711 37.1436 14.0332 37.1436H4.51172C3.67383 37.1436 2.99219 37.8252 2.99219 38.6631V45.8457C2.99219 46.5957 3.53906 47.2188 4.25488 47.3418C4.46582 48.248 5.27832 48.9258 6.24707 48.9258C7.20801 48.9258 8.01367 48.2598 8.2334 47.3662H16.127C16.3467 48.2598 17.1533 48.9258 18.1133 48.9258C19.0762 48.9258 19.8848 48.2568 20.1016 47.3594C20.8115 47.2881 21.3682 46.6865 21.3682 45.957V43.5947C21.3682 43.2637 21.293 42.9746 21.1318 42.6855L19.8691 40.4141ZM19.0156 40.8896L20.25 43.1064H17.7187C17.4805 43.1064 17.2861 42.9121 17.2861 42.6738V40.4307H18.2354C18.5742 40.4307 18.8516 40.5938 19.0156 40.8896ZM6.24707 47.9492C5.65625 47.9492 5.17578 47.4688 5.17578 46.8779C5.17578 46.2871 5.65625 45.8066 6.24707 45.8066C6.83789 45.8066 7.31836 46.2871 7.31836 46.8779C7.31836 47.4688 6.83789 47.9492 6.24707 47.9492ZM6.24707 44.8301C5.30664 44.8301 4.51367 45.4688 4.27441 46.335C4.09375 46.2471 3.96777 46.0615 3.96777 45.8467V38.6641C3.96777 38.3643 4.21191 38.1211 4.51074 38.1211H14.0332C14.333 38.1211 14.5762 38.3652 14.5762 38.6641V46.3896H8.23438C8.01367 45.4961 7.20801 44.8301 6.24707 44.8301ZM18.1143 47.9492C17.5234 47.9492 17.043 47.4688 17.043 46.8779C17.043 46.2871 17.5234 45.8066 18.1143 45.8066C18.7051 45.8066 19.1855 46.2871 19.1855 46.8779C19.1855 47.4688 18.7051 47.9492 18.1143 47.9492ZM20.0947 46.3662C19.8662 45.4844 19.0664 44.8301 18.1143 44.8301C17.1533 44.8301 16.3477 45.4961 16.1279 46.3896H15.5537V40.4316H16.3096V42.6748C16.3096 43.4521 16.9414 44.084 17.7187 44.084H20.3936V45.958C20.3936 46.1484 20.2676 46.3096 20.0947 46.3662ZM41.1904 34.084C39.5371 34.084 38.1914 35.4297 38.1914 37.083C38.1914 38.7363 39.5371 40.082 41.1904 40.082C42.8438 40.082 44.1895 38.7363 44.1895 37.083C44.1895 35.4297 42.8447 34.084 41.1904 34.084ZM41.1904 39.1055C40.0752 39.1055 39.168 38.1982 39.168 37.083C39.168 35.9678 40.0752 35.0605 41.1904 35.0605C42.3057 35.0605 43.2129 35.9678 43.2129 37.083C43.2129 38.1982 42.3057 39.1055 41.1904 39.1055ZM46.9893 45.6943C46.5713 42.8408 44.0811 40.6553 41.1982 40.6123C41.1934 40.6123 41.1885 40.6123 41.1836 40.6123C38.3008 40.6553 35.8105 42.8408 35.3926 45.6943C35.2881 46.4043 35.5801 47.0703 36.1729 47.4756C37.6318 48.4727 39.7969 48.9268 41.1914 48.9268C42.585 48.9268 44.75 48.4727 46.21 47.4756C46.8018 47.0703 47.0938 46.4043 46.9893 45.6943ZM45.6582 46.6689C44.2822 47.6084 42.2324 47.9492 41.1904 47.9492C40.1484 47.9492 38.0986 47.6084 36.7227 46.6689C36.4414 46.4766 36.3086 46.1729 36.3574 45.8359C36.707 43.4531 38.7832 41.6289 41.1895 41.5889C43.5957 41.6289 45.6729 43.4531 46.0215 45.8359C46.0723 46.1729 45.9395 46.4766 45.6582 46.6689Z" stroke="#7595E5" stroke-width="0.2" mask="url(#path-1-outside-1_500_5454)"/>
</svg>
