<svg width="42" height="42" viewBox="0 0 42 42" fill="none" xmlns="http://www.w3.org/2000/svg">
<g clip-path="url(#clip0_500_5476)">
<path d="M1.7402 17.3273C0.881714 17.4665 0.21762 18.1548 0.109195 19.0178C-0.0349563 20.3248 -0.0364075 21.6437 0.10498 22.9511C0.203523 23.8274 0.871693 24.5318 1.74158 24.6765L3.96895 25.0412C4.39657 26.8626 5.11844 28.6021 6.10601 30.1911L4.79496 32.0223C4.27253 32.7306 4.28517 33.7 4.82578 34.3946C5.24303 34.905 5.68703 35.3932 6.15576 35.8569C6.58559 36.2874 7.06082 36.72 7.63135 37.1994C8.32039 37.7293 9.27652 37.7404 9.97772 37.2267L11.818 35.9066C13.4054 36.894 15.1431 37.6161 16.9629 38.0443L17.3284 40.2752C17.4673 41.134 18.1557 41.7984 19.0189 41.9069C19.4179 41.9517 19.8232 41.9832 20.2312 42H20.2907C20.6555 41.9997 21.0064 41.8594 21.2707 41.608C21.5455 41.3454 21.7006 40.9815 21.6998 40.6014V34.9916C21.6956 34.242 21.1039 33.6276 20.3551 33.5952C13.6552 33.2453 8.40214 27.7109 8.40214 21.0019C8.40214 14.2929 13.6552 8.75848 20.3551 8.40868C21.1051 8.37578 21.6971 7.75951 21.6998 7.00869V1.40176C21.7009 1.02121 21.5455 0.657026 21.2699 0.394499C20.9949 0.124646 20.6195 -0.017778 20.2346 0.00177853C19.8272 0.0178799 19.4233 0.0472492 19.0089 0.0892647C18.1462 0.200454 17.4612 0.86897 17.3289 1.72863L16.9642 3.95738C15.1444 4.38597 13.4067 5.10825 11.8193 6.09589L9.97903 4.77848C9.27133 4.26096 8.30595 4.27637 7.61518 4.81628C7.10767 5.23174 6.62194 5.67304 6.15991 6.1386C5.68371 6.60408 5.23543 7.09728 4.81735 7.61556C4.28324 8.3055 4.26956 9.26543 4.78376 9.97037L6.10324 11.8128C5.1165 13.4016 4.3956 15.1409 3.96895 16.9619L1.7402 17.3273ZM5.23529 17.7179C5.64225 15.7408 6.42299 13.8596 7.5355 12.1753C7.69492 11.9331 7.6885 11.6177 7.5194 11.3822L5.92274 9.15279C5.77513 8.95799 5.77085 8.69 5.91224 8.49056C6.29591 8.01506 6.70756 7.56277 7.14492 7.13605C7.56978 6.70691 8.01598 6.2994 8.48188 5.91525C8.68243 5.76239 8.96036 5.76239 9.1609 5.91525L11.3869 7.51267C11.6227 7.68135 11.9381 7.68716 12.18 7.52739C13.8628 6.41446 15.743 5.63344 17.7191 5.22649C18.0032 5.16795 18.2217 4.94019 18.2686 4.65389L18.7089 1.95819C18.7405 1.7164 18.9262 1.5236 19.1667 1.48289C19.5369 1.4444 19.9122 1.41711 20.3 1.4017L20.2846 7.00931C12.8321 7.38994 6.98612 13.5455 6.99027 21.0077C6.99434 28.4699 12.8471 34.6191 20.3 34.9915L20.2902 40.6012C19.9142 40.5858 19.5419 40.5565 19.1744 40.5151C18.9328 40.4798 18.7435 40.2894 18.7096 40.0475L18.2686 37.3504C18.2217 37.0641 18.0032 36.8364 17.7191 36.7778C15.743 36.3705 13.8628 35.5894 12.18 34.4762C11.9379 34.3166 11.6226 34.3228 11.3869 34.4916L9.15883 36.0905C8.96879 36.2382 8.70482 36.2453 8.50711 36.1079C7.99263 35.6746 7.54669 35.268 7.14492 34.8668C6.71571 34.4427 6.30848 33.997 5.92481 33.5312C5.77382 33.3296 5.77382 33.0525 5.92481 32.8508L7.52009 30.6235C7.68898 30.3878 7.69513 30.0724 7.5355 29.8303C6.42292 28.1464 5.64218 26.2654 5.23529 24.2885C5.17683 24.0046 4.94941 23.7861 4.66338 23.739L1.96838 23.2973C1.71753 23.2558 1.52494 23.0524 1.4973 22.7996C1.3662 21.5956 1.36759 20.3808 1.50151 19.1771C1.53634 18.9353 1.72651 18.7454 1.96838 18.711L4.66262 18.2699C4.94975 18.2229 5.17773 18.0031 5.23529 17.7179Z" fill="#7595E5"/>
<path d="M39.9 18.903C39.0132 18.9067 38.2244 19.467 37.9288 20.303H21.7002V18.203H32.9001C34.0598 18.203 35 17.2628 35 16.1031V12.4743C35.9643 12.1334 36.5427 11.1474 36.3697 10.1393C36.1967 9.13132 35.3227 8.39446 34.3 8.39446C33.2772 8.39446 32.4032 9.13132 32.2302 10.1393C32.0573 11.1474 32.6357 12.1334 33.5999 12.4743V16.1031C33.5999 16.4896 33.2866 16.8031 32.8999 16.8031H21.7002V14.7031H29.4001C29.7866 14.7031 30.1 14.3897 30.1 14.003C30.1 13.6164 29.7866 13.303 29.4001 13.303H21.7002V11.903H25.9001C27.0599 11.903 28.0001 10.9629 28.0001 9.80302V5.47439C28.9644 5.13349 29.5428 4.14744 29.3699 3.13942C29.1969 2.13139 28.3229 1.39453 27.3001 1.39453C26.2774 1.39453 25.4033 2.13139 25.2304 3.13942C25.0574 4.14744 25.6358 5.13349 26.6001 5.47439V9.80316C26.6001 10.1897 26.2867 10.5032 25.9 10.5032H21.5153C21.2745 10.0556 20.7939 9.79051 20.2868 9.82561C14.388 10.1993 9.79492 15.0925 9.79492 21.0031C9.79492 26.9137 14.388 31.807 20.2868 32.1806H20.3687C20.8469 32.1846 21.2882 31.9238 21.5153 31.503H25.9C26.2866 31.503 26.6001 31.8164 26.6001 32.2031V36.5318C25.6358 36.8727 25.0574 37.8588 25.2304 38.8668C25.4033 39.8748 26.2774 40.6117 27.3001 40.6117C28.3229 40.6117 29.1969 39.8748 29.3699 38.8668C29.5428 37.8588 28.9644 36.8727 28.0001 36.5318V32.2031C28.0001 31.0433 27.06 30.1031 25.9001 30.1031H21.7002V28.7031H29.4001C29.7866 28.7031 30.1 28.3897 30.1 28.0031C30.1 27.6165 29.7866 27.3031 29.4001 27.3031H21.7002V25.2031H32.9001C33.2866 25.2031 33.6001 25.5165 33.6001 25.9031V29.5318C32.6358 29.8727 32.0574 30.8588 32.2304 31.8668C32.4033 32.8748 33.2774 33.6117 34.3001 33.6117C35.3229 33.6117 36.1969 32.8748 36.3699 31.8668C36.5428 30.8588 35.9644 29.8727 35.0001 29.5318V25.9031C35.0001 24.7433 34.06 23.8032 32.9002 23.8032H21.7002V21.703H37.9288C38.2865 22.7072 39.3408 23.2831 40.3791 23.0413C41.4173 22.7996 42.1089 21.8173 41.9863 20.7583C41.8637 19.6995 40.9659 18.9012 39.9 18.903ZM34.3 9.80316C34.6866 9.80316 35 10.1165 35 10.5032C35 10.8898 34.6866 11.2032 34.3 11.2032C33.9135 11.2032 33.6001 10.8898 33.6001 10.5032C33.6001 10.1165 33.9134 9.80316 34.3 9.80316ZM27.3001 2.80322C27.6867 2.80322 28.0001 3.11661 28.0001 3.50325C28.0001 3.88989 27.6867 4.20321 27.3001 4.20321C26.9135 4.20321 26.6001 3.88982 26.6001 3.50325C26.6001 3.11668 26.9135 2.80322 27.3001 2.80322ZM27.3001 39.2029C26.9135 39.2029 26.6001 38.8895 26.6001 38.5028C26.6001 38.1162 26.9135 37.8028 27.3001 37.8028C27.6867 37.8028 28.0001 38.1162 28.0001 38.5028C28.0001 38.8895 27.6867 39.2029 27.3001 39.2029ZM34.3 32.2029C33.9135 32.2029 33.6001 31.8895 33.6001 31.5029C33.6001 31.1163 33.9135 30.8029 34.3 30.8029C34.6866 30.8029 35 31.1163 35 31.5029C35 31.8895 34.6866 32.2029 34.3 32.2029ZM11.2002 21.003C11.2061 15.8646 15.1753 11.6012 20.3002 11.2284V30.7778C15.1753 30.4049 11.2061 26.1414 11.2002 21.003ZM39.9 21.703C39.5134 21.703 39.2 21.3896 39.2 21.003C39.2 20.6163 39.5133 20.303 39.9 20.303C40.2866 20.303 40.6 20.6164 40.6 21.003C40.6 21.3895 40.2866 21.703 39.9 21.703Z" fill="#7595E5"/>
</g>
<defs>
<clipPath id="clip0_500_5476">
<rect width="42" height="42" fill="white"/>
</clipPath>
</defs>
</svg>
