<svg width="60" height="60" viewBox="0 0 60 60" fill="none" xmlns="http://www.w3.org/2000/svg">
<path fill-rule="evenodd" clip-rule="evenodd" d="M40.9985 21.8686V17.4985C40.6332 14.654 39.2991 12.0221 37.2209 10.0458C35.2054 7.87306 32.9776 5.90739 30.5707 4.17815C30.4028 4.06091 30.203 3.99805 29.9982 3.99805C29.7934 3.99805 29.5936 4.06091 29.4257 4.17815C27.0189 5.90741 24.7911 7.87308 22.7755 10.0458C20.6973 12.0221 19.3632 14.654 18.9979 17.4985V21.8686L8.94014 34.369C8.82167 34.516 8.74723 34.6935 8.72544 34.881C8.70364 35.0686 8.73537 35.2584 8.81697 35.4287C8.89857 35.5989 9.02669 35.7426 9.18652 35.8431C9.34635 35.9436 9.53137 35.9968 9.72016 35.9965H18.9979V39.9991C18.9979 40.2643 19.1033 40.5187 19.2908 40.7062C19.4784 40.8938 19.7327 40.9991 19.9979 40.9991H21.498V47.4993C21.498 47.7645 21.6033 48.0189 21.7909 48.2064C21.9784 48.394 22.2328 48.4993 22.498 48.4993H37.4984C37.7636 48.4993 38.018 48.394 38.2055 48.2064C38.3931 48.0189 38.4984 47.7645 38.4984 47.4993V40.9991H39.9985C40.2637 40.9991 40.5181 40.8938 40.7056 40.7062C40.8931 40.5187 40.9985 40.2643 40.9985 39.9991V35.999H50.2762C50.465 35.9993 50.6501 35.9461 50.8099 35.8456C50.9697 35.7451 51.0978 35.6014 51.1794 35.4312C51.261 35.2609 51.2928 35.0711 51.271 34.8835C51.2492 34.696 51.1747 34.5185 51.0563 34.3715L40.9985 21.8686ZM18.9979 33.9989H11.8077L18.9979 25.0587V33.9989ZM36.4984 46.4993H23.498V40.9991H36.4984V46.4993ZM38.9984 38.9991H20.998V17.4985C21.355 15.15 22.5013 12.9932 24.2481 11.3833C26.0013 9.49314 27.9263 7.76986 29.9982 6.2357C32.0702 7.76986 33.9951 9.49314 35.7484 11.3833C37.4951 12.9932 38.6414 15.15 38.9984 17.4985V38.9991ZM40.9985 33.9989V25.0587L48.1887 33.9989H40.9985Z" fill="#B15252"/>
<path fill-rule="evenodd" clip-rule="evenodd" d="M30.0079 16.5098C29.0685 16.5098 28.1501 16.7884 27.3689 17.3103C26.5878 17.8323 25.9789 18.5741 25.6194 19.4421C25.2599 20.3101 25.1658 21.2652 25.3491 22.1866C25.5324 23.108 25.9848 23.9544 26.6491 24.6187C27.3134 25.2831 28.1598 25.7355 29.0812 25.9187C30.0027 26.102 30.9578 26.008 31.8257 25.6484C32.6937 25.2889 33.4356 24.6801 33.9575 23.8989C34.4795 23.1178 34.7581 22.1994 34.7581 21.2599C34.7581 20.0001 34.2576 18.7919 33.3668 17.901C32.476 17.0102 31.2678 16.5098 30.0079 16.5098ZM30.0079 24.01C29.464 24.01 28.9323 23.8487 28.4801 23.5465C28.0278 23.2443 27.6754 22.8148 27.4672 22.3123C27.2591 21.8098 27.2046 21.2568 27.3107 20.7234C27.4168 20.1899 27.6787 19.6999 28.0633 19.3153C28.448 18.9307 28.938 18.6688 29.4714 18.5627C30.0049 18.4565 30.5578 18.511 31.0603 18.7192C31.5629 18.9273 31.9924 19.2798 32.2945 19.732C32.5967 20.1843 32.758 20.716 32.758 21.2599C32.758 21.621 32.6869 21.9786 32.5487 22.3123C32.4105 22.646 32.2079 22.9491 31.9525 23.2045C31.6972 23.4599 31.394 23.6624 31.0603 23.8006C30.7267 23.9388 30.3691 24.01 30.0079 24.01Z" fill="#B15252"/>
<path fill-rule="evenodd" clip-rule="evenodd" d="M25.0157 51.502C24.7504 51.502 24.4961 51.6073 24.3085 51.7949C24.121 51.9824 24.0156 52.2368 24.0156 52.502V55.002C24.0156 55.2673 24.121 55.5216 24.3085 55.7092C24.4961 55.8967 24.7504 56.0021 25.0157 56.0021C25.2809 56.0021 25.5352 55.8967 25.7228 55.7092C25.9103 55.5216 26.0157 55.2673 26.0157 55.002V52.502C26.0157 52.2368 25.9103 51.9824 25.7228 51.7949C25.5352 51.6073 25.2809 51.502 25.0157 51.502Z" fill="#B15252"/>
<path fill-rule="evenodd" clip-rule="evenodd" d="M30 51.502C29.7348 51.502 29.4804 51.6073 29.2929 51.7949C29.1054 51.9824 29 52.2368 29 52.502V55.002C29 55.2673 29.1054 55.5216 29.2929 55.7092C29.4804 55.8967 29.7348 56.0021 30 56.0021C30.2652 56.0021 30.5196 55.8967 30.7072 55.7092C30.8947 55.5216 31.0001 55.2673 31.0001 55.002V52.502C31.0001 52.3707 30.9742 52.2406 30.9239 52.1193C30.8737 51.998 30.8 51.8877 30.7072 51.7949C30.6143 51.702 30.5041 51.6283 30.3827 51.5781C30.2614 51.5278 30.1314 51.502 30 51.502Z" fill="#B15252"/>
<path fill-rule="evenodd" clip-rule="evenodd" d="M35.0078 51.502C34.7426 51.502 34.4883 51.6073 34.3007 51.7949C34.1132 51.9824 34.0078 52.2368 34.0078 52.502V55.002C34.0078 55.2673 34.1132 55.5216 34.3007 55.7092C34.4883 55.8967 34.7426 56.0021 35.0078 56.0021C35.2731 56.0021 35.5274 55.8967 35.715 55.7092C35.9025 55.5216 36.0079 55.2673 36.0079 55.002V52.502C36.0079 52.2368 35.9025 51.9824 35.715 51.7949C35.5274 51.6073 35.2731 51.502 35.0078 51.502Z" fill="#B15252"/>
</svg>
