<svg width="57" height="60" viewBox="0 0 57 60" fill="none" xmlns="http://www.w3.org/2000/svg">
<path d="M19.642 38.3171C18.4402 37.942 17.3491 37.7502 16.3355 37.7359V35.8516C16.3355 35.3418 15.9222 34.9297 15.4136 34.9297C14.9038 34.9297 14.4917 35.343 14.4917 35.8516V37.9336C13.1255 38.2588 11.9833 38.9782 11.352 39.9489C10.3967 41.4175 10.7553 43.3316 12.1679 44.3071C13.0541 44.9182 14.0951 45.0504 15.1027 45.1766C15.8352 45.2683 16.5261 45.3565 17.0537 45.6209C17.8911 46.0402 18.2686 47.0276 17.8946 47.822C17.4956 48.6725 16.3343 49.3407 15.0718 49.4467C13.6901 49.5634 12.6193 49.0429 11.3782 48.4414L10.9756 48.2472C10.5158 48.0269 9.96556 48.2222 9.7464 48.6808C9.52724 49.1406 9.72139 49.6908 10.18 49.9112L10.573 50.1018C11.7141 50.6556 12.8909 51.2178 14.35 51.2941V53.3249C14.35 53.8346 14.7633 54.2468 15.2719 54.2468C15.7805 54.2468 16.1938 53.8335 16.1938 53.3249V51.1178C17.7207 50.7414 18.9928 49.8207 19.5622 48.607C20.3566 46.9144 19.6015 44.836 17.878 43.9724C17.068 43.5663 16.1854 43.4555 15.3314 43.3483C14.5072 43.2447 13.7282 43.1458 13.2137 42.7909C12.5609 42.3406 12.5395 41.5045 12.8956 40.9566C13.3459 40.2634 14.35 39.7512 15.516 39.6202C16.5523 39.5035 17.7219 39.6535 19.0917 40.0811C19.5776 40.2324 20.0946 39.962 20.247 39.4749C20.4007 38.9853 20.1291 38.4684 19.642 38.3171Z" fill="#B15252"/>
<path d="M14.9684 29.6172C6.71536 29.6172 0 36.3325 0 44.5856C0 52.8386 6.71417 59.554 14.9684 59.554C23.2215 59.554 29.9368 52.8386 29.9368 44.5856C29.9368 36.3314 23.2215 29.6172 14.9684 29.6172ZM14.9684 57.6828C7.74684 57.6828 1.8712 51.8072 1.8712 44.5856C1.8712 37.364 7.74684 31.4884 14.9684 31.4884C22.19 31.4884 28.0656 37.364 28.0656 44.5856C28.0656 51.8072 22.19 57.6828 14.9684 57.6828Z" fill="#B15252"/>
<path d="M52.0813 20.1804C50.6318 20.4675 49.4633 21.6336 49.1751 23.0831C48.7046 25.451 50.4829 27.5271 52.7543 27.5807C52.8055 28.206 52.8412 28.8337 52.8412 29.4602C52.8412 40.6302 44.6394 49.9148 33.9446 51.6252C33.4848 51.699 33.1406 52.0849 33.1406 52.5507C33.1406 53.1295 33.6623 53.5667 34.234 53.4749C45.8257 51.6264 54.7124 41.5641 54.7124 29.4602C54.7124 28.6848 54.6648 27.9058 54.5921 27.134C55.7713 26.5039 56.5836 25.2747 56.5836 23.8466C56.5824 21.5359 54.4766 19.7076 52.0813 20.1804ZM54.6445 24.3564C54.479 24.9805 53.9739 25.4856 53.3498 25.6523C51.9289 26.0299 50.6603 24.7614 51.0379 23.3404C51.2035 22.7163 51.7085 22.2113 52.3338 22.0445C53.7536 21.6669 55.0221 22.9342 54.6445 24.3564Z" fill="#B15252"/>
<path d="M8.34411 27.5698C9.99972 27.3911 11.3754 26.0785 11.6267 24.4312C11.8757 22.7971 11.0538 21.3439 9.76865 20.6114C10.3451 19.2691 11.0407 17.9934 11.8566 16.7928C12.1222 16.4021 12.0722 15.8792 11.7232 15.5612C11.3004 15.1753 10.6346 15.2563 10.3118 15.7292C9.37202 17.1001 8.57518 18.5628 7.9308 20.1088H7.92961C6.90408 19.9039 5.83449 20.2803 5.19606 21.1093C2.72098 24.3276 5.19844 27.9092 8.34411 27.5698ZM6.1263 23.3426C6.29186 22.7185 6.79688 22.2134 7.42102 22.0467C8.84198 21.6691 10.1105 22.9376 9.73292 24.3586C9.56736 24.9827 9.06233 25.4877 8.43701 25.6545C7.01604 26.0309 5.74873 24.7636 6.1263 23.3426Z" fill="#B15252"/>
<path d="M57.0029 9.42389L48.626 0H34.1733H19.7207L11.3438 9.42389L34.1733 30.2691L57.0029 9.42389ZM28.9218 10.291H34.1733H39.4249L34.1733 26.0443L28.9218 10.291ZM36.197 25.8859L41.3961 10.291H53.2784L36.197 25.8859ZM20.1411 2.34287H20.1471L20.5592 1.87001H22.2243H32.0913H34.1745H36.2577H46.1247H47.7899L48.202 2.34287H48.2079L53.6095 8.4198H42.8075H39.5773H34.1757H28.7741H25.5439H14.7419L20.1411 2.34287ZM15.0683 10.291H26.9506L32.1485 25.8859L15.0683 10.291Z" fill="#B15252"/>
</svg>
