<svg width="60" height="60" viewBox="0 0 60 60" fill="none" xmlns="http://www.w3.org/2000/svg">
<mask id="path-1-outside-1_5963_1851" maskUnits="userSpaceOnUse" x="2" y="1" width="57" height="57" fill="black">
<rect fill="white" x="2" y="1" width="57" height="57"/>
<path d="M55.9668 35.3772L52.1426 36.0647C51.7129 37.4822 51.1444 38.854 50.4453 40.1599L52.6635 43.3519C52.9946 43.8276 53.1478 44.4045 53.0963 44.9817C53.0448 45.5589 52.7919 46.0996 52.3818 46.5091L47.5092 51.3818C47.0997 51.7919 46.559 52.0448 45.9817 52.0963C45.4045 52.1478 44.8276 51.9946 44.3519 51.6635L41.1603 49.4451C39.8544 50.1442 38.4827 50.7127 37.0651 51.1424L36.3776 54.9666C36.2754 55.5371 35.9757 56.0535 35.531 56.4252C35.0863 56.797 34.525 57.0005 33.9454 57H27.0546C26.475 57.0004 25.9138 56.7969 25.4693 56.4251C25.0247 56.0534 24.725 55.5371 24.6227 54.9667L23.9352 51.1425C22.5177 50.7128 21.146 50.1443 19.8401 49.4452L16.6484 51.6636C16.1727 51.9947 15.5957 52.148 15.0184 52.0964C14.4411 52.0449 13.9004 51.792 13.4908 51.3818L8.61816 46.5091C8.20813 46.0996 7.95522 45.5589 7.90372 44.9817C7.85223 44.4045 8.00543 43.8276 8.33651 43.3519L10.5548 40.1603C9.8558 38.8543 9.28729 37.4826 8.8575 36.0651L5.03328 35.3776C4.46278 35.2754 3.94642 34.9757 3.57468 34.531C3.20293 34.0863 2.99949 33.525 3 32.9454V26.0546C2.99959 25.475 3.20305 24.9139 3.57477 24.4693C3.94649 24.0247 4.46276 23.7251 5.03317 23.6228L8.8574 22.9353C9.28704 21.5177 9.85555 20.146 10.5547 18.8401L8.3364 15.6485C8.00533 15.1729 7.85212 14.596 7.90362 14.0187C7.95511 13.4415 8.20802 12.9009 8.61806 12.4914L13.4908 7.61817C13.9003 7.2081 14.441 6.95517 15.0182 6.90366C15.5955 6.85214 16.1724 7.00533 16.6481 7.3364L19.8398 9.55487C21.1457 8.85582 22.5174 8.28731 23.9349 7.85761L24.6224 4.03339C24.7246 3.46288 25.0243 2.94653 25.469 2.57477C25.9137 2.203 26.475 1.99954 27.0546 2H33.9454C34.525 1.99963 35.0862 2.20312 35.5307 2.57485C35.9753 2.94658 36.275 3.46286 36.3773 4.03328L37.0648 7.8575C38.4823 8.2872 39.854 8.85571 41.1599 9.55477L44.3519 7.3365C44.8276 7.00543 45.4045 6.85222 45.9817 6.90371C46.559 6.95521 47.0997 7.20812 47.5092 7.61817L52.3818 12.4909C52.7919 12.9004 53.0447 13.4411 53.0962 14.0183C53.1477 14.5955 52.9945 15.1724 52.6635 15.6481L50.4452 18.8397C51.1442 20.1456 51.7128 21.5174 52.1425 22.9349L55.9667 23.6224C56.5372 23.7246 57.0536 24.0243 57.4253 24.469C57.7971 24.9137 58.0005 25.475 58 26.0546V32.9454C58.0004 33.525 57.7969 34.0861 57.4252 34.5307C57.0535 34.9753 56.5372 35.2749 55.9668 35.3772ZM34.6856 54.6625L35.4678 50.3137C35.4965 50.1544 35.5696 50.0065 35.6786 49.8869C35.7877 49.7673 35.9283 49.6809 36.0843 49.6377C37.7265 49.1829 39.3065 48.5279 40.7889 47.6875C40.9297 47.6076 41.0903 47.5692 41.2521 47.5766C41.4139 47.584 41.5703 47.637 41.7032 47.7294L45.3328 50.2522C45.4769 50.3547 45.6529 50.4024 45.8291 50.3867C46.0053 50.3709 46.1701 50.2927 46.2937 50.1663L51.1665 45.2937C51.2929 45.17 51.371 45.0053 51.3868 44.8292C51.4025 44.653 51.3549 44.4771 51.2524 44.3329L48.7295 40.7032C48.6371 40.5703 48.5842 40.4139 48.5768 40.2521C48.5694 40.0904 48.6078 39.9298 48.6877 39.789C49.528 38.3066 50.183 36.7267 50.6378 35.0845C50.681 34.9285 50.7674 34.7879 50.887 34.6788C51.0066 34.5697 51.1546 34.4966 51.314 34.4679L55.6625 33.6856C55.8369 33.6562 55.9951 33.5655 56.1085 33.4298C56.222 33.2941 56.2832 33.1223 56.2812 32.9454V30.3594H47.4382C47.2103 30.3594 46.9917 30.2688 46.8305 30.1077C46.6693 29.9465 46.5788 29.7279 46.5788 29.5C46.5788 28.5047 46.1834 27.5502 45.4796 26.8464C44.7759 26.1426 43.8213 25.7472 42.826 25.7472C41.8307 25.7472 40.8762 26.1426 40.1724 26.8464C39.4686 27.5502 39.0732 28.5047 39.0732 29.5C39.0732 29.7279 38.9827 29.9465 38.8215 30.1077C38.6604 30.2688 38.4418 30.3594 38.2139 30.3594H31.3594V36.4218C32.6455 36.6264 33.8165 37.283 34.6619 38.2735C35.5074 39.2641 35.9718 40.5237 35.9718 41.826C35.9718 43.1283 35.5074 44.3878 34.6619 45.3784C33.8165 46.3689 32.6455 47.0255 31.3594 47.2301V55.2812H33.9454C34.1223 55.2832 34.2941 55.222 34.4298 55.1085C34.5655 54.9951 34.6562 54.8369 34.6856 54.6625ZM5.33793 33.6856L9.68658 34.4679C9.8459 34.4966 9.99389 34.5697 10.1135 34.6787C10.2331 34.7878 10.3195 34.9284 10.3627 35.0844C10.8175 36.7265 11.4723 38.3065 12.3124 39.7889C12.3923 39.9297 12.4308 40.0903 12.4234 40.2521C12.416 40.4139 12.363 40.5703 12.2706 40.7032L9.74781 44.3329C9.64534 44.4771 9.59769 44.653 9.61345 44.8292C9.6292 45.0053 9.70732 45.17 9.83375 45.2937L14.7065 50.1665C14.8301 50.293 14.9949 50.3712 15.1711 50.3869C15.3473 50.4027 15.5233 50.355 15.6674 50.2524L19.2968 47.7295C19.4297 47.6371 19.5861 47.5841 19.7478 47.5767C19.9096 47.5693 20.0702 47.6077 20.211 47.6876C21.6935 48.5281 23.2737 49.183 24.9161 49.6377C25.0721 49.6809 25.2128 49.7673 25.3219 49.8869C25.431 50.0065 25.504 50.1545 25.5327 50.3138L26.3148 54.6625C26.3443 54.8368 26.4349 54.9949 26.5705 55.1083C26.7061 55.2218 26.8778 55.2831 27.0546 55.2812H29.6406V46.4381C29.6406 46.2101 29.7312 45.9916 29.8923 45.8304C30.0535 45.6692 30.2721 45.5787 30.5 45.5787C31.4953 45.5787 32.4498 45.1833 33.1536 44.4795C33.8574 43.7757 34.2528 42.8212 34.2528 41.8259C34.2528 40.8306 33.8574 39.8761 33.1536 39.1723C32.4498 38.4685 31.4953 38.0731 30.5 38.0731C30.2721 38.0731 30.0535 37.9826 29.8923 37.8214C29.7312 37.6603 29.6406 37.4417 29.6406 37.2138V30.3594H23.5782C23.3736 31.6455 22.717 32.8165 21.7265 33.6619C20.7359 34.5074 19.4763 34.9718 18.174 34.9718C16.8717 34.9718 15.6122 34.5074 14.6216 33.6619C13.6311 32.8165 12.9745 31.6455 12.7699 30.3594H4.71875V32.9454C4.71677 33.1223 4.77803 33.2941 4.89147 33.4298C5.00491 33.5655 5.16309 33.6562 5.3375 33.6856H5.33793ZM26.3144 4.3375L25.5322 8.68626C25.5035 8.84557 25.4304 8.99355 25.3213 9.11315C25.2122 9.23274 25.0716 9.3191 24.9156 9.36227C23.2732 9.81704 21.693 10.472 20.2105 11.3125C20.0696 11.3924 19.9091 11.4308 19.7473 11.4234C19.5856 11.416 19.4292 11.363 19.2962 11.2706L15.6672 8.74781C15.5231 8.64527 15.3471 8.59757 15.1709 8.61333C14.9947 8.62909 14.8299 8.70726 14.7063 8.83375L9.83354 13.7065C9.70711 13.8302 9.62898 13.9949 9.61323 14.171C9.59747 14.3472 9.64512 14.5232 9.7476 14.6673L12.2705 18.2968C12.3629 18.4297 12.4158 18.5861 12.4232 18.7479C12.4306 18.9096 12.3922 19.0702 12.3123 19.211C11.472 20.6934 10.817 22.2733 10.3622 23.9155C10.319 24.0715 10.2326 24.2121 10.113 24.3212C9.99338 24.4303 9.84538 24.5034 9.68604 24.5321L5.3375 25.3144C5.16307 25.3438 5.00487 25.4345 4.8914 25.5702C4.77794 25.7059 4.71667 25.8777 4.71864 26.0546V28.6406H13.5618C13.7897 28.6406 14.0083 28.7312 14.1695 28.8923C14.3307 29.0535 14.4212 29.2721 14.4212 29.5C14.4186 29.9945 14.5137 30.4847 14.7011 30.9423C14.8885 31.4 15.1645 31.816 15.5133 32.1667C15.862 32.5173 16.2766 32.7955 16.7332 32.9854C17.1899 33.1752 17.6795 33.273 18.174 33.273C18.6686 33.273 19.1582 33.1752 19.6148 32.9854C20.0715 32.7955 20.4861 32.5173 20.8348 32.1667C21.1836 31.816 21.4596 31.4 21.647 30.9423C21.8344 30.4847 21.9295 29.9945 21.9269 29.5C21.9269 29.2721 22.0174 29.0535 22.1786 28.8923C22.3397 28.7312 22.5583 28.6406 22.7862 28.6406H29.6406V22.5782C28.3545 22.3736 27.1835 21.717 26.3381 20.7265C25.4926 19.7359 25.0282 18.4763 25.0282 17.174C25.0282 15.8718 25.4926 14.6122 26.3381 13.6216C27.1835 12.6311 28.3545 11.9745 29.6406 11.7699V3.71875H27.0546C26.8777 3.71678 26.7059 3.77803 26.5702 3.89147C26.4345 4.00491 26.3438 4.16309 26.3144 4.3375ZM55.6625 25.3144L51.3138 24.5321C51.1545 24.5034 51.0065 24.4303 50.8869 24.3213C50.7673 24.2122 50.6809 24.0716 50.6377 23.9156C50.1829 22.2735 49.5279 20.6935 48.6876 19.2111C48.6077 19.0703 48.5692 18.9097 48.5766 18.7479C48.584 18.5861 48.637 18.4297 48.7294 18.2968L51.2522 14.6671C51.3547 14.523 51.4023 14.347 51.3866 14.1708C51.3708 13.9947 51.2927 13.83 51.1662 13.7063L46.2935 8.83354C46.1698 8.70706 46.0051 8.62891 45.8289 8.61315C45.6527 8.59739 45.4767 8.64507 45.3326 8.7476L41.7032 11.2705C41.5703 11.3629 41.4139 11.4159 41.2521 11.4233C41.0904 11.4307 40.9298 11.3923 40.789 11.3124C39.3065 10.4719 37.7263 9.81694 36.0839 9.36216C35.9279 9.31899 35.7872 9.23264 35.6781 9.11304C35.5691 8.99344 35.496 8.84547 35.4673 8.68615L34.6852 4.3375C34.6557 4.16318 34.565 4.00509 34.4294 3.89166C34.2938 3.77824 34.1222 3.71692 33.9454 3.71875H31.3594V12.5619C31.3594 12.7899 31.2688 13.0084 31.1077 13.1696C30.9465 13.3308 30.7279 13.4213 30.5 13.4213C29.5047 13.4213 28.5502 13.8167 27.8464 14.5205C27.1426 15.2243 26.7472 16.1788 26.7472 17.1741C26.7472 18.1694 27.1426 19.1239 27.8464 19.8277C28.5502 20.5315 29.5047 20.9269 30.5 20.9269C30.7279 20.9269 30.9465 21.0174 31.1077 21.1786C31.2688 21.3397 31.3594 21.5583 31.3594 21.7863V28.6406H37.4219C37.6266 27.3546 38.2832 26.1837 39.2737 25.3383C40.2642 24.4929 41.5238 24.0285 42.826 24.0285C44.1282 24.0285 45.3878 24.4929 46.3783 25.3383C47.3688 26.1837 48.0254 27.3546 48.2301 28.6406H56.2812V26.0546C56.2832 25.8777 56.222 25.7059 56.1085 25.5702C55.9951 25.4345 55.8369 25.3438 55.6625 25.3144Z"/>
</mask>
<path d="M55.9668 35.3772L52.1426 36.0647C51.7129 37.4822 51.1444 38.854 50.4453 40.1599L52.6635 43.3519C52.9946 43.8276 53.1478 44.4045 53.0963 44.9817C53.0448 45.5589 52.7919 46.0996 52.3818 46.5091L47.5092 51.3818C47.0997 51.7919 46.559 52.0448 45.9817 52.0963C45.4045 52.1478 44.8276 51.9946 44.3519 51.6635L41.1603 49.4451C39.8544 50.1442 38.4827 50.7127 37.0651 51.1424L36.3776 54.9666C36.2754 55.5371 35.9757 56.0535 35.531 56.4252C35.0863 56.797 34.525 57.0005 33.9454 57H27.0546C26.475 57.0004 25.9138 56.7969 25.4693 56.4251C25.0247 56.0534 24.725 55.5371 24.6227 54.9667L23.9352 51.1425C22.5177 50.7128 21.146 50.1443 19.8401 49.4452L16.6484 51.6636C16.1727 51.9947 15.5957 52.148 15.0184 52.0964C14.4411 52.0449 13.9004 51.792 13.4908 51.3818L8.61816 46.5091C8.20813 46.0996 7.95522 45.5589 7.90372 44.9817C7.85223 44.4045 8.00543 43.8276 8.33651 43.3519L10.5548 40.1603C9.8558 38.8543 9.28729 37.4826 8.8575 36.0651L5.03328 35.3776C4.46278 35.2754 3.94642 34.9757 3.57468 34.531C3.20293 34.0863 2.99949 33.525 3 32.9454V26.0546C2.99959 25.475 3.20305 24.9139 3.57477 24.4693C3.94649 24.0247 4.46276 23.7251 5.03317 23.6228L8.8574 22.9353C9.28704 21.5177 9.85555 20.146 10.5547 18.8401L8.3364 15.6485C8.00533 15.1729 7.85212 14.596 7.90362 14.0187C7.95511 13.4415 8.20802 12.9009 8.61806 12.4914L13.4908 7.61817C13.9003 7.2081 14.441 6.95517 15.0182 6.90366C15.5955 6.85214 16.1724 7.00533 16.6481 7.3364L19.8398 9.55487C21.1457 8.85582 22.5174 8.28731 23.9349 7.85761L24.6224 4.03339C24.7246 3.46288 25.0243 2.94653 25.469 2.57477C25.9137 2.203 26.475 1.99954 27.0546 2H33.9454C34.525 1.99963 35.0862 2.20312 35.5307 2.57485C35.9753 2.94658 36.275 3.46286 36.3773 4.03328L37.0648 7.8575C38.4823 8.2872 39.854 8.85571 41.1599 9.55477L44.3519 7.3365C44.8276 7.00543 45.4045 6.85222 45.9817 6.90371C46.559 6.95521 47.0997 7.20812 47.5092 7.61817L52.3818 12.4909C52.7919 12.9004 53.0447 13.4411 53.0962 14.0183C53.1477 14.5955 52.9945 15.1724 52.6635 15.6481L50.4452 18.8397C51.1442 20.1456 51.7128 21.5174 52.1425 22.9349L55.9667 23.6224C56.5372 23.7246 57.0536 24.0243 57.4253 24.469C57.7971 24.9137 58.0005 25.475 58 26.0546V32.9454C58.0004 33.525 57.7969 34.0861 57.4252 34.5307C57.0535 34.9753 56.5372 35.2749 55.9668 35.3772ZM34.6856 54.6625L35.4678 50.3137C35.4965 50.1544 35.5696 50.0065 35.6786 49.8869C35.7877 49.7673 35.9283 49.6809 36.0843 49.6377C37.7265 49.1829 39.3065 48.5279 40.7889 47.6875C40.9297 47.6076 41.0903 47.5692 41.2521 47.5766C41.4139 47.584 41.5703 47.637 41.7032 47.7294L45.3328 50.2522C45.4769 50.3547 45.6529 50.4024 45.8291 50.3867C46.0053 50.3709 46.1701 50.2927 46.2937 50.1663L51.1665 45.2937C51.2929 45.17 51.371 45.0053 51.3868 44.8292C51.4025 44.653 51.3549 44.4771 51.2524 44.3329L48.7295 40.7032C48.6371 40.5703 48.5842 40.4139 48.5768 40.2521C48.5694 40.0904 48.6078 39.9298 48.6877 39.789C49.528 38.3066 50.183 36.7267 50.6378 35.0845C50.681 34.9285 50.7674 34.7879 50.887 34.6788C51.0066 34.5697 51.1546 34.4966 51.314 34.4679L55.6625 33.6856C55.8369 33.6562 55.9951 33.5655 56.1085 33.4298C56.222 33.2941 56.2832 33.1223 56.2812 32.9454V30.3594H47.4382C47.2103 30.3594 46.9917 30.2688 46.8305 30.1077C46.6693 29.9465 46.5788 29.7279 46.5788 29.5C46.5788 28.5047 46.1834 27.5502 45.4796 26.8464C44.7759 26.1426 43.8213 25.7472 42.826 25.7472C41.8307 25.7472 40.8762 26.1426 40.1724 26.8464C39.4686 27.5502 39.0732 28.5047 39.0732 29.5C39.0732 29.7279 38.9827 29.9465 38.8215 30.1077C38.6604 30.2688 38.4418 30.3594 38.2139 30.3594H31.3594V36.4218C32.6455 36.6264 33.8165 37.283 34.6619 38.2735C35.5074 39.2641 35.9718 40.5237 35.9718 41.826C35.9718 43.1283 35.5074 44.3878 34.6619 45.3784C33.8165 46.3689 32.6455 47.0255 31.3594 47.2301V55.2812H33.9454C34.1223 55.2832 34.2941 55.222 34.4298 55.1085C34.5655 54.9951 34.6562 54.8369 34.6856 54.6625ZM5.33793 33.6856L9.68658 34.4679C9.8459 34.4966 9.99389 34.5697 10.1135 34.6787C10.2331 34.7878 10.3195 34.9284 10.3627 35.0844C10.8175 36.7265 11.4723 38.3065 12.3124 39.7889C12.3923 39.9297 12.4308 40.0903 12.4234 40.2521C12.416 40.4139 12.363 40.5703 12.2706 40.7032L9.74781 44.3329C9.64534 44.4771 9.59769 44.653 9.61345 44.8292C9.6292 45.0053 9.70732 45.17 9.83375 45.2937L14.7065 50.1665C14.8301 50.293 14.9949 50.3712 15.1711 50.3869C15.3473 50.4027 15.5233 50.355 15.6674 50.2524L19.2968 47.7295C19.4297 47.6371 19.5861 47.5841 19.7478 47.5767C19.9096 47.5693 20.0702 47.6077 20.211 47.6876C21.6935 48.5281 23.2737 49.183 24.9161 49.6377C25.0721 49.6809 25.2128 49.7673 25.3219 49.8869C25.431 50.0065 25.504 50.1545 25.5327 50.3138L26.3148 54.6625C26.3443 54.8368 26.4349 54.9949 26.5705 55.1083C26.7061 55.2218 26.8778 55.2831 27.0546 55.2812H29.6406V46.4381C29.6406 46.2101 29.7312 45.9916 29.8923 45.8304C30.0535 45.6692 30.2721 45.5787 30.5 45.5787C31.4953 45.5787 32.4498 45.1833 33.1536 44.4795C33.8574 43.7757 34.2528 42.8212 34.2528 41.8259C34.2528 40.8306 33.8574 39.8761 33.1536 39.1723C32.4498 38.4685 31.4953 38.0731 30.5 38.0731C30.2721 38.0731 30.0535 37.9826 29.8923 37.8214C29.7312 37.6603 29.6406 37.4417 29.6406 37.2138V30.3594H23.5782C23.3736 31.6455 22.717 32.8165 21.7265 33.6619C20.7359 34.5074 19.4763 34.9718 18.174 34.9718C16.8717 34.9718 15.6122 34.5074 14.6216 33.6619C13.6311 32.8165 12.9745 31.6455 12.7699 30.3594H4.71875V32.9454C4.71677 33.1223 4.77803 33.2941 4.89147 33.4298C5.00491 33.5655 5.16309 33.6562 5.3375 33.6856H5.33793ZM26.3144 4.3375L25.5322 8.68626C25.5035 8.84557 25.4304 8.99355 25.3213 9.11315C25.2122 9.23274 25.0716 9.3191 24.9156 9.36227C23.2732 9.81704 21.693 10.472 20.2105 11.3125C20.0696 11.3924 19.9091 11.4308 19.7473 11.4234C19.5856 11.416 19.4292 11.363 19.2962 11.2706L15.6672 8.74781C15.5231 8.64527 15.3471 8.59757 15.1709 8.61333C14.9947 8.62909 14.8299 8.70726 14.7063 8.83375L9.83354 13.7065C9.70711 13.8302 9.62898 13.9949 9.61323 14.171C9.59747 14.3472 9.64512 14.5232 9.7476 14.6673L12.2705 18.2968C12.3629 18.4297 12.4158 18.5861 12.4232 18.7479C12.4306 18.9096 12.3922 19.0702 12.3123 19.211C11.472 20.6934 10.817 22.2733 10.3622 23.9155C10.319 24.0715 10.2326 24.2121 10.113 24.3212C9.99338 24.4303 9.84538 24.5034 9.68604 24.5321L5.3375 25.3144C5.16307 25.3438 5.00487 25.4345 4.8914 25.5702C4.77794 25.7059 4.71667 25.8777 4.71864 26.0546V28.6406H13.5618C13.7897 28.6406 14.0083 28.7312 14.1695 28.8923C14.3307 29.0535 14.4212 29.2721 14.4212 29.5C14.4186 29.9945 14.5137 30.4847 14.7011 30.9423C14.8885 31.4 15.1645 31.816 15.5133 32.1667C15.862 32.5173 16.2766 32.7955 16.7332 32.9854C17.1899 33.1752 17.6795 33.273 18.174 33.273C18.6686 33.273 19.1582 33.1752 19.6148 32.9854C20.0715 32.7955 20.4861 32.5173 20.8348 32.1667C21.1836 31.816 21.4596 31.4 21.647 30.9423C21.8344 30.4847 21.9295 29.9945 21.9269 29.5C21.9269 29.2721 22.0174 29.0535 22.1786 28.8923C22.3397 28.7312 22.5583 28.6406 22.7862 28.6406H29.6406V22.5782C28.3545 22.3736 27.1835 21.717 26.3381 20.7265C25.4926 19.7359 25.0282 18.4763 25.0282 17.174C25.0282 15.8718 25.4926 14.6122 26.3381 13.6216C27.1835 12.6311 28.3545 11.9745 29.6406 11.7699V3.71875H27.0546C26.8777 3.71678 26.7059 3.77803 26.5702 3.89147C26.4345 4.00491 26.3438 4.16309 26.3144 4.3375ZM55.6625 25.3144L51.3138 24.5321C51.1545 24.5034 51.0065 24.4303 50.8869 24.3213C50.7673 24.2122 50.6809 24.0716 50.6377 23.9156C50.1829 22.2735 49.5279 20.6935 48.6876 19.2111C48.6077 19.0703 48.5692 18.9097 48.5766 18.7479C48.584 18.5861 48.637 18.4297 48.7294 18.2968L51.2522 14.6671C51.3547 14.523 51.4023 14.347 51.3866 14.1708C51.3708 13.9947 51.2927 13.83 51.1662 13.7063L46.2935 8.83354C46.1698 8.70706 46.0051 8.62891 45.8289 8.61315C45.6527 8.59739 45.4767 8.64507 45.3326 8.7476L41.7032 11.2705C41.5703 11.3629 41.4139 11.4159 41.2521 11.4233C41.0904 11.4307 40.9298 11.3923 40.789 11.3124C39.3065 10.4719 37.7263 9.81694 36.0839 9.36216C35.9279 9.31899 35.7872 9.23264 35.6781 9.11304C35.5691 8.99344 35.496 8.84547 35.4673 8.68615L34.6852 4.3375C34.6557 4.16318 34.565 4.00509 34.4294 3.89166C34.2938 3.77824 34.1222 3.71692 33.9454 3.71875H31.3594V12.5619C31.3594 12.7899 31.2688 13.0084 31.1077 13.1696C30.9465 13.3308 30.7279 13.4213 30.5 13.4213C29.5047 13.4213 28.5502 13.8167 27.8464 14.5205C27.1426 15.2243 26.7472 16.1788 26.7472 17.1741C26.7472 18.1694 27.1426 19.1239 27.8464 19.8277C28.5502 20.5315 29.5047 20.9269 30.5 20.9269C30.7279 20.9269 30.9465 21.0174 31.1077 21.1786C31.2688 21.3397 31.3594 21.5583 31.3594 21.7863V28.6406H37.4219C37.6266 27.3546 38.2832 26.1837 39.2737 25.3383C40.2642 24.4929 41.5238 24.0285 42.826 24.0285C44.1282 24.0285 45.3878 24.4929 46.3783 25.3383C47.3688 26.1837 48.0254 27.3546 48.2301 28.6406H56.2812V26.0546C56.2832 25.8777 56.222 25.7059 56.1085 25.5702C55.9951 25.4345 55.8369 25.3438 55.6625 25.3144Z" fill="#B15252"/>
<path d="M55.9668 35.3772L52.1426 36.0647C51.7129 37.4822 51.1444 38.854 50.4453 40.1599L52.6635 43.3519C52.9946 43.8276 53.1478 44.4045 53.0963 44.9817C53.0448 45.5589 52.7919 46.0996 52.3818 46.5091L47.5092 51.3818C47.0997 51.7919 46.559 52.0448 45.9817 52.0963C45.4045 52.1478 44.8276 51.9946 44.3519 51.6635L41.1603 49.4451C39.8544 50.1442 38.4827 50.7127 37.0651 51.1424L36.3776 54.9666C36.2754 55.5371 35.9757 56.0535 35.531 56.4252C35.0863 56.797 34.525 57.0005 33.9454 57H27.0546C26.475 57.0004 25.9138 56.7969 25.4693 56.4251C25.0247 56.0534 24.725 55.5371 24.6227 54.9667L23.9352 51.1425C22.5177 50.7128 21.146 50.1443 19.8401 49.4452L16.6484 51.6636C16.1727 51.9947 15.5957 52.148 15.0184 52.0964C14.4411 52.0449 13.9004 51.792 13.4908 51.3818L8.61816 46.5091C8.20813 46.0996 7.95522 45.5589 7.90372 44.9817C7.85223 44.4045 8.00543 43.8276 8.33651 43.3519L10.5548 40.1603C9.8558 38.8543 9.28729 37.4826 8.8575 36.0651L5.03328 35.3776C4.46278 35.2754 3.94642 34.9757 3.57468 34.531C3.20293 34.0863 2.99949 33.525 3 32.9454V26.0546C2.99959 25.475 3.20305 24.9139 3.57477 24.4693C3.94649 24.0247 4.46276 23.7251 5.03317 23.6228L8.8574 22.9353C9.28704 21.5177 9.85555 20.146 10.5547 18.8401L8.3364 15.6485C8.00533 15.1729 7.85212 14.596 7.90362 14.0187C7.95511 13.4415 8.20802 12.9009 8.61806 12.4914L13.4908 7.61817C13.9003 7.2081 14.441 6.95517 15.0182 6.90366C15.5955 6.85214 16.1724 7.00533 16.6481 7.3364L19.8398 9.55487C21.1457 8.85582 22.5174 8.28731 23.9349 7.85761L24.6224 4.03339C24.7246 3.46288 25.0243 2.94653 25.469 2.57477C25.9137 2.203 26.475 1.99954 27.0546 2H33.9454C34.525 1.99963 35.0862 2.20312 35.5307 2.57485C35.9753 2.94658 36.275 3.46286 36.3773 4.03328L37.0648 7.8575C38.4823 8.2872 39.854 8.85571 41.1599 9.55477L44.3519 7.3365C44.8276 7.00543 45.4045 6.85222 45.9817 6.90371C46.559 6.95521 47.0997 7.20812 47.5092 7.61817L52.3818 12.4909C52.7919 12.9004 53.0447 13.4411 53.0962 14.0183C53.1477 14.5955 52.9945 15.1724 52.6635 15.6481L50.4452 18.8397C51.1442 20.1456 51.7128 21.5174 52.1425 22.9349L55.9667 23.6224C56.5372 23.7246 57.0536 24.0243 57.4253 24.469C57.7971 24.9137 58.0005 25.475 58 26.0546V32.9454C58.0004 33.525 57.7969 34.0861 57.4252 34.5307C57.0535 34.9753 56.5372 35.2749 55.9668 35.3772ZM34.6856 54.6625L35.4678 50.3137C35.4965 50.1544 35.5696 50.0065 35.6786 49.8869C35.7877 49.7673 35.9283 49.6809 36.0843 49.6377C37.7265 49.1829 39.3065 48.5279 40.7889 47.6875C40.9297 47.6076 41.0903 47.5692 41.2521 47.5766C41.4139 47.584 41.5703 47.637 41.7032 47.7294L45.3328 50.2522C45.4769 50.3547 45.6529 50.4024 45.8291 50.3867C46.0053 50.3709 46.1701 50.2927 46.2937 50.1663L51.1665 45.2937C51.2929 45.17 51.371 45.0053 51.3868 44.8292C51.4025 44.653 51.3549 44.4771 51.2524 44.3329L48.7295 40.7032C48.6371 40.5703 48.5842 40.4139 48.5768 40.2521C48.5694 40.0904 48.6078 39.9298 48.6877 39.789C49.528 38.3066 50.183 36.7267 50.6378 35.0845C50.681 34.9285 50.7674 34.7879 50.887 34.6788C51.0066 34.5697 51.1546 34.4966 51.314 34.4679L55.6625 33.6856C55.8369 33.6562 55.9951 33.5655 56.1085 33.4298C56.222 33.2941 56.2832 33.1223 56.2812 32.9454V30.3594H47.4382C47.2103 30.3594 46.9917 30.2688 46.8305 30.1077C46.6693 29.9465 46.5788 29.7279 46.5788 29.5C46.5788 28.5047 46.1834 27.5502 45.4796 26.8464C44.7759 26.1426 43.8213 25.7472 42.826 25.7472C41.8307 25.7472 40.8762 26.1426 40.1724 26.8464C39.4686 27.5502 39.0732 28.5047 39.0732 29.5C39.0732 29.7279 38.9827 29.9465 38.8215 30.1077C38.6604 30.2688 38.4418 30.3594 38.2139 30.3594H31.3594V36.4218C32.6455 36.6264 33.8165 37.283 34.6619 38.2735C35.5074 39.2641 35.9718 40.5237 35.9718 41.826C35.9718 43.1283 35.5074 44.3878 34.6619 45.3784C33.8165 46.3689 32.6455 47.0255 31.3594 47.2301V55.2812H33.9454C34.1223 55.2832 34.2941 55.222 34.4298 55.1085C34.5655 54.9951 34.6562 54.8369 34.6856 54.6625ZM5.33793 33.6856L9.68658 34.4679C9.8459 34.4966 9.99389 34.5697 10.1135 34.6787C10.2331 34.7878 10.3195 34.9284 10.3627 35.0844C10.8175 36.7265 11.4723 38.3065 12.3124 39.7889C12.3923 39.9297 12.4308 40.0903 12.4234 40.2521C12.416 40.4139 12.363 40.5703 12.2706 40.7032L9.74781 44.3329C9.64534 44.4771 9.59769 44.653 9.61345 44.8292C9.6292 45.0053 9.70732 45.17 9.83375 45.2937L14.7065 50.1665C14.8301 50.293 14.9949 50.3712 15.1711 50.3869C15.3473 50.4027 15.5233 50.355 15.6674 50.2524L19.2968 47.7295C19.4297 47.6371 19.5861 47.5841 19.7478 47.5767C19.9096 47.5693 20.0702 47.6077 20.211 47.6876C21.6935 48.5281 23.2737 49.183 24.9161 49.6377C25.0721 49.6809 25.2128 49.7673 25.3219 49.8869C25.431 50.0065 25.504 50.1545 25.5327 50.3138L26.3148 54.6625C26.3443 54.8368 26.4349 54.9949 26.5705 55.1083C26.7061 55.2218 26.8778 55.2831 27.0546 55.2812H29.6406V46.4381C29.6406 46.2101 29.7312 45.9916 29.8923 45.8304C30.0535 45.6692 30.2721 45.5787 30.5 45.5787C31.4953 45.5787 32.4498 45.1833 33.1536 44.4795C33.8574 43.7757 34.2528 42.8212 34.2528 41.8259C34.2528 40.8306 33.8574 39.8761 33.1536 39.1723C32.4498 38.4685 31.4953 38.0731 30.5 38.0731C30.2721 38.0731 30.0535 37.9826 29.8923 37.8214C29.7312 37.6603 29.6406 37.4417 29.6406 37.2138V30.3594H23.5782C23.3736 31.6455 22.717 32.8165 21.7265 33.6619C20.7359 34.5074 19.4763 34.9718 18.174 34.9718C16.8717 34.9718 15.6122 34.5074 14.6216 33.6619C13.6311 32.8165 12.9745 31.6455 12.7699 30.3594H4.71875V32.9454C4.71677 33.1223 4.77803 33.2941 4.89147 33.4298C5.00491 33.5655 5.16309 33.6562 5.3375 33.6856H5.33793ZM26.3144 4.3375L25.5322 8.68626C25.5035 8.84557 25.4304 8.99355 25.3213 9.11315C25.2122 9.23274 25.0716 9.3191 24.9156 9.36227C23.2732 9.81704 21.693 10.472 20.2105 11.3125C20.0696 11.3924 19.9091 11.4308 19.7473 11.4234C19.5856 11.416 19.4292 11.363 19.2962 11.2706L15.6672 8.74781C15.5231 8.64527 15.3471 8.59757 15.1709 8.61333C14.9947 8.62909 14.8299 8.70726 14.7063 8.83375L9.83354 13.7065C9.70711 13.8302 9.62898 13.9949 9.61323 14.171C9.59747 14.3472 9.64512 14.5232 9.7476 14.6673L12.2705 18.2968C12.3629 18.4297 12.4158 18.5861 12.4232 18.7479C12.4306 18.9096 12.3922 19.0702 12.3123 19.211C11.472 20.6934 10.817 22.2733 10.3622 23.9155C10.319 24.0715 10.2326 24.2121 10.113 24.3212C9.99338 24.4303 9.84538 24.5034 9.68604 24.5321L5.3375 25.3144C5.16307 25.3438 5.00487 25.4345 4.8914 25.5702C4.77794 25.7059 4.71667 25.8777 4.71864 26.0546V28.6406H13.5618C13.7897 28.6406 14.0083 28.7312 14.1695 28.8923C14.3307 29.0535 14.4212 29.2721 14.4212 29.5C14.4186 29.9945 14.5137 30.4847 14.7011 30.9423C14.8885 31.4 15.1645 31.816 15.5133 32.1667C15.862 32.5173 16.2766 32.7955 16.7332 32.9854C17.1899 33.1752 17.6795 33.273 18.174 33.273C18.6686 33.273 19.1582 33.1752 19.6148 32.9854C20.0715 32.7955 20.4861 32.5173 20.8348 32.1667C21.1836 31.816 21.4596 31.4 21.647 30.9423C21.8344 30.4847 21.9295 29.9945 21.9269 29.5C21.9269 29.2721 22.0174 29.0535 22.1786 28.8923C22.3397 28.7312 22.5583 28.6406 22.7862 28.6406H29.6406V22.5782C28.3545 22.3736 27.1835 21.717 26.3381 20.7265C25.4926 19.7359 25.0282 18.4763 25.0282 17.174C25.0282 15.8718 25.4926 14.6122 26.3381 13.6216C27.1835 12.6311 28.3545 11.9745 29.6406 11.7699V3.71875H27.0546C26.8777 3.71678 26.7059 3.77803 26.5702 3.89147C26.4345 4.00491 26.3438 4.16309 26.3144 4.3375ZM55.6625 25.3144L51.3138 24.5321C51.1545 24.5034 51.0065 24.4303 50.8869 24.3213C50.7673 24.2122 50.6809 24.0716 50.6377 23.9156C50.1829 22.2735 49.5279 20.6935 48.6876 19.2111C48.6077 19.0703 48.5692 18.9097 48.5766 18.7479C48.584 18.5861 48.637 18.4297 48.7294 18.2968L51.2522 14.6671C51.3547 14.523 51.4023 14.347 51.3866 14.1708C51.3708 13.9947 51.2927 13.83 51.1662 13.7063L46.2935 8.83354C46.1698 8.70706 46.0051 8.62891 45.8289 8.61315C45.6527 8.59739 45.4767 8.64507 45.3326 8.7476L41.7032 11.2705C41.5703 11.3629 41.4139 11.4159 41.2521 11.4233C41.0904 11.4307 40.9298 11.3923 40.789 11.3124C39.3065 10.4719 37.7263 9.81694 36.0839 9.36216C35.9279 9.31899 35.7872 9.23264 35.6781 9.11304C35.5691 8.99344 35.496 8.84547 35.4673 8.68615L34.6852 4.3375C34.6557 4.16318 34.565 4.00509 34.4294 3.89166C34.2938 3.77824 34.1222 3.71692 33.9454 3.71875H31.3594V12.5619C31.3594 12.7899 31.2688 13.0084 31.1077 13.1696C30.9465 13.3308 30.7279 13.4213 30.5 13.4213C29.5047 13.4213 28.5502 13.8167 27.8464 14.5205C27.1426 15.2243 26.7472 16.1788 26.7472 17.1741C26.7472 18.1694 27.1426 19.1239 27.8464 19.8277C28.5502 20.5315 29.5047 20.9269 30.5 20.9269C30.7279 20.9269 30.9465 21.0174 31.1077 21.1786C31.2688 21.3397 31.3594 21.5583 31.3594 21.7863V28.6406H37.4219C37.6266 27.3546 38.2832 26.1837 39.2737 25.3383C40.2642 24.4929 41.5238 24.0285 42.826 24.0285C44.1282 24.0285 45.3878 24.4929 46.3783 25.3383C47.3688 26.1837 48.0254 27.3546 48.2301 28.6406H56.2812V26.0546C56.2832 25.8777 56.222 25.7059 56.1085 25.5702C55.9951 25.4345 55.8369 25.3438 55.6625 25.3144Z" stroke="#B15252" mask="url(#path-1-outside-1_5963_1851)"/>
</svg>
