<svg width="42" height="42" viewBox="0 0 42 42" fill="none" xmlns="http://www.w3.org/2000/svg">
<path d="M20.2985 2.50984C20.3503 2.50955 20.402 2.50925 20.4554 2.50895C20.6214 2.50822 20.7875 2.50792 20.9536 2.50787C20.9819 2.50786 21.0101 2.50784 21.0393 2.50782C21.8727 2.50753 22.6925 2.51907 23.5182 2.64437C23.567 2.65113 23.6158 2.6579 23.6661 2.66486C25.4307 2.91058 27.1456 3.42449 28.7682 4.15637C28.804 4.17226 28.8397 4.18815 28.8766 4.20453C29.4489 4.4598 29.9919 4.76375 30.5322 5.08037C30.5668 5.10064 30.6015 5.12091 30.6371 5.14179C31.1094 5.41998 31.5598 5.72308 32.0022 6.04637C32.0453 6.07765 32.0453 6.07765 32.0892 6.10956C32.6138 6.49175 33.1039 6.9068 33.5839 7.34329C33.6486 7.40187 33.7136 7.45997 33.7792 7.51752C34.2218 7.90781 34.6456 8.3252 35.0262 8.77637C35.0674 8.82342 35.1087 8.87039 35.1501 8.9173C35.4449 9.25247 35.7266 9.59358 35.9922 9.95237C36.013 9.98024 36.0338 10.0081 36.0552 10.0368C36.612 10.7857 37.093 11.5732 37.5462 12.3884C37.5631 12.4185 37.5801 12.4487 37.5975 12.4798C38.6157 14.3017 39.2251 16.3548 39.5517 18.4075C39.5601 18.4595 39.5684 18.5114 39.577 18.565C39.7049 19.4045 39.7449 20.2366 39.7435 21.0855C39.7433 21.249 39.7443 21.4125 39.7454 21.576C39.7494 23.1829 39.4974 24.7377 39.0956 26.2897C39.0882 26.3184 39.0808 26.347 39.0732 26.3765C39.0213 26.5742 39.0213 26.5742 38.9742 26.6684C39.2237 26.6822 39.4732 26.6961 39.7302 26.7104C39.683 26.9939 39.683 26.9939 39.619 27.1358C39.6047 27.1679 39.5905 27.1999 39.5758 27.233C39.5601 27.2673 39.5445 27.3016 39.5284 27.3369C39.5038 27.3919 39.5038 27.3919 39.4787 27.4481C39.4245 27.5689 39.37 27.6896 39.3155 27.8102C39.2774 27.895 39.2394 27.9798 39.2014 28.0647C39.1228 28.2403 39.044 28.4158 38.9652 28.5913C38.8032 28.9525 38.6431 29.3145 38.4833 29.6766C38.4337 29.789 38.3841 29.9013 38.3344 30.0136C38.1792 30.365 38.0245 30.7166 37.8711 31.0687C37.8501 31.1167 37.8501 31.1167 37.8288 31.1656C37.7638 31.3146 37.699 31.4636 37.6343 31.6128C37.6119 31.6644 37.5894 31.7161 37.5669 31.7678C37.5379 31.8347 37.5379 31.8347 37.5083 31.9029C37.4622 32.0024 37.4622 32.0024 37.4202 32.0444C37.1038 32.0417 36.7994 31.9592 36.4962 31.8764C36.4662 31.9201 36.4361 31.9639 36.4052 32.0089C36.1042 32.4434 35.7859 32.8576 35.4462 33.2624C35.4147 33.3001 35.4147 33.3001 35.3826 33.3386C34.8244 34.0059 34.2321 34.6757 33.5675 35.2395C33.4879 35.3071 33.4093 35.3755 33.3309 35.4446C32.9959 35.7392 32.6549 36.0208 32.2962 36.2864C32.2683 36.3071 32.2405 36.3279 32.2118 36.3493C31.4629 36.9062 30.6754 37.3871 29.8602 37.8404C29.83 37.8573 29.7999 37.8742 29.7688 37.8917C27.9469 38.9098 25.8937 39.5192 23.8411 39.8459C23.7891 39.8542 23.7372 39.8626 23.6836 39.8712C22.7968 40.0063 21.9182 40.0401 21.0218 40.0375C20.9656 40.0374 20.9094 40.0373 20.8532 40.0373C20.0405 40.0357 19.2409 40.0198 18.4362 39.8984C18.3868 39.8912 18.3373 39.884 18.2864 39.8765C16.4272 39.5989 14.6313 39.0704 12.9342 38.2604C12.8753 38.2323 12.8753 38.2323 12.8152 38.2036C11.9636 37.7947 11.1476 37.3304 10.3722 36.7904C10.3478 36.7735 10.3234 36.7565 10.2982 36.7391C9.56857 36.2319 8.88599 35.6675 8.23021 35.0684C8.18865 35.0307 8.14709 34.9931 8.10552 34.9555C7.76467 34.6462 7.43214 34.3322 7.13247 33.9823C7.04208 33.8784 6.94838 33.778 6.85471 33.6771C6.6328 33.4337 6.43005 33.1777 6.22938 32.9167C6.1732 32.8437 6.11664 32.771 6.05999 32.6983C5.85121 32.4299 5.64981 32.1574 5.45821 31.8764C5.4091 31.8885 5.36 31.9006 5.3094 31.9131C5.24438 31.9289 5.17936 31.9446 5.11433 31.9604C5.08204 31.9684 5.04974 31.9764 5.01647 31.9847C4.98493 31.9922 4.9534 31.9998 4.9209 32.0076C4.89209 32.0147 4.86328 32.0217 4.83359 32.029C4.73245 32.0464 4.63664 32.0469 4.53421 32.0444C4.33444 31.6598 4.15853 31.2668 3.98572 30.8696C3.92013 30.7189 3.85423 30.5683 3.78836 30.4177C3.75373 30.3385 3.71911 30.2593 3.68451 30.1801C3.51147 29.7842 3.33707 29.3889 3.16235 28.9938C3.11179 28.8794 3.06129 28.765 3.0108 28.6506C2.86369 28.3174 2.71603 27.9845 2.56595 27.6526C2.54179 27.599 2.51764 27.5454 2.4935 27.4918C2.45019 27.3959 2.40664 27.3001 2.36278 27.2044C2.33487 27.1425 2.33487 27.1425 2.3064 27.0793C2.29037 27.0442 2.27433 27.0091 2.25781 26.9729C2.22421 26.8784 2.22421 26.8784 2.22421 26.7104C2.47369 26.6965 2.72317 26.6827 2.98021 26.6684C2.96494 26.6153 2.94967 26.5623 2.93394 26.5076C2.69756 25.6724 2.50697 24.8291 2.38171 23.9699C2.37537 23.9268 2.36902 23.8837 2.36249 23.8393C2.24527 22.9847 2.2083 22.1307 2.21108 21.2687C2.21116 21.2192 2.21124 21.1697 2.21131 21.1187C2.21333 20.3428 2.24106 19.5835 2.35021 18.8144C2.35719 18.7625 2.36418 18.7107 2.37137 18.6572C2.84512 15.2002 4.30128 11.9083 6.55021 9.23837C6.56814 9.21688 6.58606 9.19539 6.60453 9.17324C7.13008 8.54386 7.68671 7.9181 8.30961 7.38332C8.40561 7.29994 8.49888 7.21396 8.59246 7.12787C8.82742 6.91616 9.07433 6.72212 9.32477 6.52927C9.40883 6.46435 9.49243 6.39886 9.57601 6.33332C10.5949 5.53864 11.6971 4.90336 12.8502 4.32437C12.884 4.30727 12.9179 4.29016 12.9527 4.27253C15.1698 3.15843 17.8187 2.51932 20.2985 2.50984ZM18.6462 4.66037C18.5641 4.67176 18.482 4.68308 18.4 4.69433C16.8351 4.92047 15.2833 5.40818 13.8582 6.08837C13.8156 6.10857 13.773 6.12876 13.7292 6.14957C12.3373 6.81435 11.0642 7.66959 9.91021 8.69237C9.87144 8.72643 9.83268 8.76048 9.79274 8.79557C9.50553 9.05317 9.23126 9.32379 8.95733 9.59537C8.92041 9.63175 8.88348 9.66813 8.84543 9.70561C8.62548 9.92528 8.42315 10.1526 8.22884 10.3952C8.16318 10.4772 8.09657 10.5574 8.02743 10.6364C5.69228 13.3142 4.24794 17.1167 4.23168 20.6753C4.23138 20.7189 4.23109 20.7624 4.23078 20.8073C4.23005 20.9471 4.22978 21.0869 4.22971 21.2267C4.22968 21.2746 4.22965 21.3225 4.22962 21.3719C4.23031 22.1101 4.25415 22.8296 4.36621 23.5604C4.37735 23.6354 4.37735 23.6354 4.38873 23.7119C4.49512 24.414 4.64284 25.1011 4.82821 25.7864C5.57187 25.5127 6.35448 24.7109 6.85569 24.1082C6.9324 24.0174 7.01259 23.9303 7.09351 23.8433C7.32939 23.5895 7.55316 23.3282 7.76821 23.0564C7.78981 23.0292 7.81141 23.002 7.83367 22.974C8.1919 22.5223 8.53464 22.0622 8.86021 21.5864C8.88065 21.5565 8.9011 21.5267 8.92216 21.4959C9.68705 20.3739 10.3614 19.2065 10.9445 17.9808C11.5617 16.685 12.3239 15.4589 13.2458 14.3577C13.3093 14.2819 13.3722 14.2056 13.4351 14.1292C13.8904 13.5819 14.3891 13.079 14.9502 12.6404C15.0237 12.5783 15.0972 12.5161 15.1707 12.454C15.9293 11.8364 16.8079 11.3452 17.7222 11.0024C17.7528 10.9908 17.7833 10.9792 17.8148 10.9673C18.8258 10.5908 19.874 10.4382 20.9483 10.4406C20.9881 10.4407 21.0279 10.4407 21.0689 10.4407C22.3826 10.4447 23.6259 10.6948 24.8202 11.2544C24.8489 11.2676 24.8776 11.2809 24.9072 11.2945C25.8234 11.7213 26.6426 12.2888 27.3822 12.9764C27.4354 13.022 27.4888 13.0675 27.5423 13.1129C27.9082 13.4329 28.2474 13.7804 28.5489 14.1617C28.631 14.2644 28.7162 14.3635 28.803 14.4622C29.5237 15.2889 30.0999 16.2542 30.6162 17.2184C30.6441 17.2702 30.6441 17.2702 30.6725 17.323C30.8866 17.7227 31.0916 18.125 31.283 18.5361C32.1514 20.3929 33.3775 22.1524 34.7322 23.6864C34.7639 23.7223 34.7957 23.7583 34.8284 23.7953C34.9216 23.8997 35.0157 24.0032 35.1102 24.1064C35.1313 24.1296 35.1524 24.1528 35.1741 24.1767C35.4348 24.4634 35.6936 24.7405 35.9922 24.9884C36.0368 25.0275 36.0812 25.0667 36.1256 25.106C36.4306 25.3746 36.7384 25.613 37.0842 25.8284C37.211 25.5999 37.2515 25.3405 37.31 25.0881C37.3197 25.0462 37.3197 25.0462 37.3297 25.0034C37.4197 24.6146 37.4985 24.2254 37.5593 23.8307C37.5655 23.791 37.5717 23.7513 37.578 23.7103C37.5974 23.5765 37.6142 23.4426 37.6302 23.3084C37.6338 23.2785 37.6374 23.2486 37.6412 23.2178C37.7168 22.5759 37.7294 21.9382 37.7273 21.2924C37.7273 21.2415 37.7272 21.1905 37.7271 21.1381C37.7252 20.3834 37.7058 19.645 37.5882 18.8984C37.5812 18.8515 37.5742 18.8047 37.567 18.7564C37.2194 16.4654 36.391 14.2626 35.1522 12.3044C35.1366 12.2797 35.1211 12.2551 35.105 12.2297C34.4748 11.2415 33.7247 10.3066 32.8842 9.49037C32.7721 9.37899 32.6609 9.26683 32.5505 9.15372C32.308 8.90625 32.0636 8.6707 31.7914 8.45547C31.6984 8.38182 31.607 8.30726 31.5161 8.23103C29.2591 6.34632 26.4384 5.14703 23.5445 4.69187C23.484 4.68235 23.484 4.68235 23.4223 4.67264C23.2865 4.65256 23.1505 4.63498 23.0142 4.61837C22.9842 4.61471 22.9542 4.61105 22.9233 4.60728C22.2807 4.53128 21.6421 4.51928 20.9956 4.52125C20.9192 4.52134 20.9192 4.52134 20.8413 4.52144C20.1004 4.52308 19.379 4.54532 18.6462 4.66037ZM18.9402 17.4704C18.9003 17.5053 18.8603 17.5402 18.8191 17.5762C18.2989 18.0365 17.8434 18.5525 17.4282 19.1084C17.407 19.1367 17.3858 19.1651 17.3639 19.1943C16.4734 20.3918 15.7257 21.6844 15.0278 23.0015C14.5438 23.913 14.004 24.7842 13.3962 25.6184C13.3782 25.6431 13.3602 25.6679 13.3417 25.6933C13.2359 25.838 13.1277 25.9806 13.0182 26.1224C13.0009 26.145 12.9835 26.1675 12.9657 26.1908C12.2098 27.1732 11.3669 28.1746 10.3885 28.941C10.2922 29.0172 10.2025 29.0973 10.1123 29.1805C9.3099 29.898 8.35109 30.5139 7.39021 30.9944C7.45261 31.1833 7.55799 31.3246 7.68158 31.4774C7.70205 31.503 7.72251 31.5286 7.7436 31.555C8.23208 32.1636 8.75174 32.737 9.30121 33.2912C9.33758 33.3282 9.37396 33.3651 9.41144 33.4031C9.6311 33.6231 9.85844 33.8254 10.1011 34.0197C10.183 34.0854 10.2632 34.152 10.3422 34.2212C13.0097 36.5473 16.7893 38.0021 20.3339 38.0169C20.3812 38.0172 20.4285 38.0175 20.4772 38.0178C20.629 38.0185 20.7808 38.0188 20.9326 38.0189C20.9844 38.0189 21.0363 38.0189 21.0897 38.019C21.8519 38.0183 22.5961 38.0011 23.3502 37.8824C23.3971 37.8754 23.4439 37.8684 23.4922 37.8612C26.9555 37.3357 30.3087 35.7006 32.7582 33.1784C32.8696 33.0663 32.9818 32.955 33.0949 32.8447C33.3814 32.5639 33.6432 32.2754 33.8922 31.9604C33.9388 31.9034 33.9855 31.8464 34.0323 31.7896C34.0569 31.7597 34.0814 31.7298 34.1067 31.699C34.1552 31.64 34.2037 31.5811 34.2522 31.5223C34.4696 31.2845 34.4696 31.2845 34.5642 30.9944C34.5434 30.9835 34.5226 30.9725 34.5011 30.9613C33.3789 30.3689 32.3338 29.6392 31.3967 28.7825C31.3369 28.7284 31.2768 28.6746 31.2157 28.6221C30.9761 28.4163 30.7524 28.1968 30.5296 27.973C30.4935 27.9371 30.4574 27.9012 30.4202 27.8641C30.2108 27.6544 30.0105 27.4399 29.8182 27.2144C29.7768 27.1669 29.7354 27.1195 29.694 27.0721C28.5803 25.7885 27.6505 24.3534 26.8572 22.8532C26.6057 22.3777 26.3398 21.9123 26.0649 21.4501C25.9993 21.3395 25.9343 21.2286 25.8696 21.1175C25.452 20.4058 24.9927 19.7167 24.4842 19.0664C24.4579 19.0325 24.4316 18.9986 24.4045 18.9637C23.6303 17.9809 22.609 16.7474 21.2922 16.5464C20.3659 16.479 19.6172 16.8626 18.9402 17.4704Z" fill="#A276E5"/>
</svg>
