<svg width="42" height="42" viewBox="0 0 42 42" fill="none" xmlns="http://www.w3.org/2000/svg">
<path fill-rule="evenodd" clip-rule="evenodd" d="M20.5681 16.2305C13.4651 16.2305 7.71094 21.9701 7.71094 28.9456C7.71094 31.6834 8.61009 34.2438 10.0491 36.2759C9.87052 35.3949 9.68988 34.5099 9.68988 33.6268C9.68988 27.7098 14.6352 22.8551 20.5681 22.8551V16.2305Z" fill="#A276E5"/>
<path fill-rule="evenodd" clip-rule="evenodd" d="M20.7826 0C9.30335 0 0 10.0797 0 22.399C0 30.8015 4.26056 38.1748 10.6951 42C7.3041 38.8269 5.04279 34.2517 5.04279 29.0264C5.04203 26.8078 5.44856 24.6107 6.23917 22.5607C7.02978 20.5107 8.18896 18.648 9.65049 17.0791C11.112 15.5101 12.8472 14.2657 14.757 13.4168C16.6668 12.5679 18.7136 12.1313 20.7807 12.1318L20.7826 0ZM23.3913 2.05427C23.3913 0.93338 24.2609 0 25.3033 0C26.3456 0 27.2152 0.93338 27.2152 2.05427C27.2152 3.17516 26.3456 4.10854 25.3033 4.10854C24.2609 4.10854 23.3913 3.17307 23.3913 2.05427ZM29.7385 4.76065C29.7385 3.63976 30.6081 2.80014 31.6504 2.80014C32.6928 2.80014 33.5623 3.63976 33.5623 4.76065C33.5623 5.97321 32.6928 6.81283 31.6504 6.81283C30.6081 6.81283 29.7385 5.97321 29.7385 4.76065ZM34.3465 9.42756C34.3465 8.30667 35.2161 7.37329 36.2604 7.37329C37.3046 7.37329 38.1723 8.30667 38.1723 9.42756C38.1723 10.5484 37.3027 11.4818 36.2604 11.4818C35.218 11.4818 34.3465 10.5464 34.3465 9.42756ZM37.3046 15.4008C37.3046 14.2799 38.1742 13.4402 39.2166 13.4402C40.2589 13.4402 41.1285 14.2799 41.1285 15.4008C41.1285 16.5217 40.2589 17.455 39.2166 17.455C38.1742 17.455 37.3046 16.5217 37.3046 15.4008ZM38.1742 22.5865C38.1742 21.4677 39.0438 20.5343 40.0881 20.5343C41.1304 20.5343 42 21.4677 42 22.5865C42 23.7053 41.1304 24.6408 40.0881 24.6408C39.5818 24.6364 39.0973 24.4186 38.7393 24.0343C38.3812 23.65 38.1783 23.13 38.1742 22.5865Z" fill="#A276E5"/>
</svg>
