<svg width="42" height="42" viewBox="0 0 42 42" fill="none" xmlns="http://www.w3.org/2000/svg">
<path d="M29.0702 18.0528C29.2296 18.053 29.2296 18.053 29.3922 18.0532C29.6158 18.054 29.8394 18.0561 30.063 18.0593C30.4061 18.0641 30.7489 18.0647 31.0921 18.0646C31.3095 18.0659 31.527 18.0674 31.7445 18.0692C31.8987 18.0697 31.8987 18.0697 32.056 18.0701C32.7789 18.0829 32.7789 18.0829 33.0718 18.3758C33.1737 19.3812 32.8909 20.319 32.6453 21.2879C32.6058 21.453 32.5664 21.618 32.5258 21.7881C32.486 21.947 32.4463 22.106 32.4053 22.2698C32.3517 22.4855 32.3517 22.4855 32.297 22.7056C32.1101 23.2188 31.8649 23.6387 31.3656 23.8883C30.9923 23.8997 30.6222 23.9035 30.2489 23.9012C30.0834 23.9009 30.0834 23.9009 29.9146 23.9006C29.5615 23.8999 29.2085 23.8982 28.8554 23.8965C28.6163 23.8959 28.3772 23.8953 28.1382 23.8947C27.5515 23.8933 26.9648 23.891 26.3781 23.8883C26.1102 23.3506 26.1085 23.0427 26.2484 22.463C26.283 22.3165 26.3176 22.17 26.3532 22.019C26.3912 21.8671 26.4292 21.7152 26.4683 21.5586C26.5038 21.4087 26.5392 21.2588 26.5757 21.1044C26.6793 20.6744 26.7891 20.2469 26.9031 19.8196C26.9335 19.7029 26.9639 19.5863 26.9952 19.4661C27.0252 19.3628 27.0552 19.2595 27.0861 19.1531C27.1111 19.0652 27.1361 18.9774 27.1619 18.8869C27.595 18.0891 28.2392 18.0375 29.0702 18.0528ZM29.1343 18.9008C28.7987 19.6759 28.7987 19.6759 28.5586 20.4605C28.5302 20.573 28.5019 20.6855 28.4727 20.8014C28.4307 20.9732 28.4307 20.9732 28.3878 21.1485C28.3583 21.264 28.3288 21.3796 28.2984 21.4987C28.2566 21.6669 28.2566 21.6669 28.214 21.8386C28.1891 21.9393 28.1641 22.04 28.1383 22.1437C28.065 22.5013 28.065 22.5013 28.0843 23.1008C28.7773 23.1008 29.4703 23.1008 30.1843 23.1008C30.5259 22.3092 30.5259 22.3092 30.7601 21.5079C30.7884 21.3889 30.8168 21.2698 30.846 21.1472C30.888 20.9651 30.888 20.9651 30.9308 20.7793C30.9751 20.595 30.9751 20.595 31.0203 20.4069C31.1432 19.8834 31.2343 19.4424 31.2343 18.9008C30.5413 18.9008 29.8483 18.9008 29.1343 18.9008Z" fill="#A276E5"/>
<path d="M33.8594 18.1133C34.639 18.1133 35.4186 18.1133 36.2219 18.1133C36.6201 19.0546 37.0053 20 37.3785 20.9516C37.4197 21.0558 37.4609 21.16 37.5034 21.2673C37.7969 22.02 37.7969 22.02 37.7969 22.3133C37.8835 22.3133 37.9701 22.3133 38.0594 22.3133C38.0837 22.0882 38.0837 22.0882 38.1086 21.8585C38.1817 21.2736 38.3104 20.7108 38.4531 20.1395C38.6206 19.4651 38.7599 18.803 38.8469 18.1133C39.1934 18.1133 39.5399 18.1133 39.8969 18.1133C39.6938 19.2073 39.4355 20.2871 39.1732 21.3681C39.1004 21.6686 39.0283 21.9693 38.9563 22.27C38.9102 22.4609 38.8639 22.6519 38.8177 22.8429C38.7962 22.9328 38.7747 23.0228 38.7526 23.1155C38.5994 23.742 38.5994 23.742 38.4531 23.8883C38.0992 23.8979 37.7487 23.9004 37.3949 23.8965C37.2456 23.8956 37.2456 23.8956 37.0932 23.8947C36.8465 23.8931 36.5998 23.8908 36.3531 23.8883C36.3061 23.7657 36.2591 23.6431 36.2106 23.5169C36.0366 23.0635 35.8621 22.6103 35.6874 22.1571C35.6118 21.9607 35.5363 21.7643 35.4609 21.5678C35.3528 21.2859 35.2442 21.0041 35.1355 20.7224C35.1017 20.6341 35.0679 20.5457 35.0331 20.4547C34.8929 20.04 34.8929 20.04 34.6469 19.6883C34.3004 21.0743 33.9539 22.4603 33.5969 23.8883C33.2504 23.8883 32.9039 23.8883 32.5469 23.8883C32.5866 23.732 32.6264 23.5757 32.6674 23.4147C32.8147 22.8346 32.9613 22.2544 33.1076 21.6741C33.1711 21.423 33.2347 21.1719 33.2986 20.9209C33.3904 20.5601 33.4814 20.1991 33.5723 19.838C33.601 19.7259 33.6297 19.6137 33.6593 19.4982C33.6855 19.3931 33.7118 19.2881 33.7389 19.1798C33.7622 19.0877 33.7855 18.9956 33.8095 18.9007C33.8757 18.5968 33.8757 18.5968 33.8594 18.1133Z" fill="#A276E5"/>
<path d="M5.64531 18.1133C6.295 18.1133 6.94469 18.1133 7.61406 18.1133C7.90262 19.2277 8.151 20.3459 8.37397 21.475C8.42703 21.7434 8.48078 22.0117 8.53461 22.28C8.79531 23.5907 8.79531 23.5907 8.79531 23.8883C8.10231 23.8883 7.40931 23.8883 6.69531 23.8883C6.652 23.4118 6.60869 22.9354 6.56406 22.4445C5.69781 22.4445 4.83156 22.4445 3.93906 22.4445C3.85244 22.6178 3.76581 22.791 3.67656 22.9695C3.5049 23.2778 3.32789 23.5827 3.15156 23.8883C2.80506 23.8883 2.45856 23.8883 2.10156 23.8883C2.29984 23.4569 2.54858 23.0952 2.83164 22.7147C3.43504 21.894 4.01836 21.0609 4.59531 20.2215C4.64626 20.1486 4.69721 20.0756 4.7497 20.0005C4.89901 19.7867 5.0466 19.5716 5.19414 19.3566C5.28093 19.231 5.36773 19.1055 5.45715 18.9762C5.68788 18.6263 5.68788 18.6263 5.64531 18.1133ZM5.90781 19.557C5.70219 19.833 5.5041 20.1105 5.30898 20.3938C5.25324 20.4729 5.19749 20.5521 5.14005 20.6337C4.82919 21.0415 4.82919 21.0415 4.72656 21.5258C5.28962 21.5258 5.85269 21.5258 6.43281 21.5258C6.30288 20.8761 6.17294 20.2264 6.03906 19.557C5.99575 19.557 5.95244 19.557 5.90781 19.557Z" fill="#A276E5"/>
<path d="M16.6687 18.1133C17.3617 18.1133 18.0547 18.1133 18.7687 18.1133C18.7999 18.2696 18.831 18.4259 18.8631 18.5869C18.9786 19.1671 19.0944 19.7473 19.2101 20.3275C19.2602 20.5785 19.3103 20.8296 19.3602 21.0806C19.4321 21.4416 19.5042 21.8026 19.5762 22.1636C19.5985 22.2757 19.6208 22.3878 19.6438 22.5034C19.6753 22.661 19.6753 22.661 19.7075 22.8217C19.7258 22.9138 19.7442 23.0059 19.7631 23.1008C19.8191 23.3647 19.8846 23.6266 19.95 23.8883C19.257 23.8883 18.564 23.8883 17.85 23.8883C17.8067 23.4118 17.7634 22.9354 17.7188 22.4445C16.1356 22.3121 16.1356 22.3121 14.7518 22.8767C14.533 23.2348 14.533 23.2348 14.357 23.6007C14.175 23.8883 14.175 23.8883 13.8905 23.9749C13.5926 23.9703 13.5926 23.9703 13.125 23.8883C13.1979 23.7926 13.1979 23.7926 13.2722 23.695C13.9528 22.7955 14.5844 21.8666 15.2128 20.9302C15.3478 20.7296 15.4833 20.5294 15.6195 20.3296C15.8173 20.0393 16.0132 19.7478 16.2089 19.456C16.2702 19.3666 16.3316 19.2772 16.3948 19.1851C16.5404 18.9657 16.6716 18.7369 16.8 18.507C16.7567 18.3771 16.7134 18.2472 16.6687 18.1133ZM17.0625 19.557C16.5345 20.1662 16.0725 20.7859 15.75 21.5258C16.3131 21.5258 16.8761 21.5258 17.4562 21.5258C17.3699 20.5347 17.3699 20.5347 17.1937 19.557C17.1504 19.557 17.1071 19.557 17.0625 19.557Z" fill="#A276E5"/>
<path d="M9.1875 18.1133C9.8805 18.1133 10.5735 18.1133 11.2875 18.1133C11.4608 19.4993 11.634 20.8853 11.8125 22.3133C12.1285 21.7999 12.4441 21.2863 12.7586 20.772C12.8657 20.5972 12.973 20.4225 13.0806 20.248C13.2353 19.9969 13.3892 19.7452 13.5428 19.4935C13.591 19.4158 13.6391 19.3381 13.6887 19.2581C13.927 18.8658 14.062 18.5654 14.175 18.1133C14.6081 18.1133 15.0413 18.1133 15.4875 18.1133C15.4319 18.1999 15.3764 18.2865 15.3191 18.3757C14.7484 19.2685 14.1912 20.1686 13.6418 21.0746C13.5649 21.2011 13.488 21.3275 13.4088 21.4578C13.2944 21.646 13.2944 21.646 13.1778 21.838C13.1015 21.96 13.0252 22.082 12.9465 22.2077C12.7241 22.5711 12.7241 22.5711 12.5637 22.9618C12.3868 23.3446 12.2577 23.6049 11.9438 23.8883C11.3173 23.9995 10.7354 23.9658 10.1063 23.8883C10.0715 23.6469 10.0715 23.6469 10.036 23.4005C9.95006 22.8039 9.8636 22.2073 9.777 21.6108C9.73957 21.3525 9.70228 21.0942 9.66511 20.8359C9.61169 20.4647 9.55781 20.0937 9.50383 19.7226C9.47901 19.5491 9.47901 19.5491 9.45369 19.3721C9.43793 19.2644 9.42217 19.1567 9.40594 19.0457C9.39224 18.951 9.37854 18.8563 9.36443 18.7587C9.31987 18.4794 9.31987 18.4794 9.1875 18.1133Z" fill="#A276E5"/>
<path d="M21.7891 18.1133C22.4821 18.1133 23.1751 18.1133 23.8891 18.1133C23.7236 18.7815 23.5578 19.4496 23.3916 20.1176C23.3351 20.345 23.2787 20.5723 23.2224 20.7997C23.1416 21.1263 23.0603 21.4527 22.979 21.7791C22.9539 21.8811 22.9287 21.9831 22.9028 22.0881C22.7228 22.8084 22.7228 22.8084 22.5766 23.1008C23.0032 23.0825 23.4297 23.063 23.8562 23.0434C23.9771 23.0382 24.0979 23.033 24.2223 23.0277C24.3391 23.0222 24.4558 23.0167 24.5761 23.0111C24.6833 23.0062 24.7905 23.0014 24.901 22.9965C25.1889 22.9707 25.4488 22.9166 25.7266 22.8383C25.4805 23.593 25.4805 23.593 25.3328 23.8883C23.7302 23.8883 22.1277 23.8883 20.4766 23.8883C20.6498 23.1953 20.8231 22.5023 21.0016 21.7883C21.1202 21.3045 21.2382 20.8207 21.3543 20.3363C21.3821 20.222 21.41 20.1078 21.4386 19.99C21.4789 19.8221 21.4789 19.8221 21.5199 19.6509C21.5434 19.5536 21.5668 19.4563 21.591 19.356C21.6757 18.9452 21.7297 18.5285 21.7891 18.1133Z" fill="#A276E5"/>
</svg>
