<svg width="42" height="42" viewBox="0 0 42 42" fill="none" xmlns="http://www.w3.org/2000/svg">
<path d="M4.80783 0.166997C4.83863 0.192279 4.86893 0.218153 4.89869 0.244575C4.91451 0.257468 4.93033 0.270361 4.94663 0.283644C5.17121 0.480307 5.30393 0.747007 5.41287 1.01588C5.42134 1.03664 5.42981 1.05741 5.43854 1.0788C5.99193 2.44975 6.27758 3.91249 6.58775 5.34895C6.59843 5.39837 6.60916 5.44779 6.6199 5.4972C7.11671 7.78301 7.49541 10.0927 8.22057 14.4802C8.22375 14.4996 8.22694 14.5191 8.23022 14.5391C8.26992 14.7813 8.30955 15.0236 8.34908 15.2659C8.36017 15.3338 8.37127 15.4018 8.38239 15.4697C8.39756 15.5625 8.41268 15.6553 8.42778 15.7481C8.43451 15.7892 8.43451 15.7892 8.44138 15.8312C8.4454 15.8559 8.44942 15.8807 8.45356 15.9062C8.45707 15.9277 8.46058 15.9492 8.46419 15.9714C8.4716 16.0228 8.4716 16.0228 8.4716 16.0705C11.2119 16.0705 13.9522 16.0705 16.7755 16.0705C16.7837 15.9524 16.7918 15.8342 16.8002 15.7125C16.8074 15.6474 16.8154 15.5823 16.8246 15.5175C16.827 15.5008 16.8293 15.4841 16.8317 15.467C16.8394 15.4126 16.8472 15.3583 16.8551 15.304C16.8608 15.2644 16.8664 15.2248 16.872 15.1852C16.8873 15.0785 16.9027 14.9717 16.9182 14.865C16.9281 14.7972 16.9379 14.7295 16.9477 14.6618C17.0971 13.6313 17.2585 12.6028 17.4301 11.5757C17.4406 11.5128 17.4511 11.4498 17.4615 11.3869C17.7911 9.4078 18.208 7.44339 18.7055 5.10709C18.7202 5.03846 18.7348 4.96982 18.7495 4.90118C18.8552 4.40601 18.9668 3.91244 19.0857 3.42006C19.0941 3.38529 19.0941 3.38529 19.1026 3.34982C19.5674 1.42572 19.5674 1.42572 19.9295 0.74585C19.9506 0.705926 19.9506 0.705926 19.9722 0.665195C20.131 0.383886 20.3465 0.138063 20.6672 0.032727C20.9356 -0.0340838 21.191 0.00932176 21.4324 0.141821C22.1818 0.638538 22.3926 1.81967 22.6095 2.62134C22.6147 2.64066 22.62 2.65998 22.6254 2.67989C22.7424 3.11245 22.8447 3.54788 22.9434 3.98466C22.9576 4.0474 22.9719 4.11013 22.9861 4.17286C23.0478 4.44424 23.109 4.71572 23.1698 4.98731C23.1814 5.03923 23.193 5.09113 23.2046 5.14304C23.4282 6.14286 23.6182 7.14819 23.8027 8.15533C23.8215 8.25789 23.8404 8.36043 23.8593 8.46297C24.2231 10.436 24.5448 12.4163 24.8685 14.3959C24.8808 14.4711 24.8931 14.5463 24.9054 14.6215C24.9405 14.8358 24.9755 15.0501 25.0105 15.2645C25.0211 15.3301 25.0319 15.3956 25.0426 15.4612C25.0572 15.5508 25.0718 15.6405 25.0864 15.7302C25.0929 15.7698 25.0929 15.7698 25.0995 15.8102C25.1034 15.8342 25.1073 15.8582 25.1113 15.883C25.1147 15.9038 25.1181 15.9246 25.1216 15.946C25.1287 15.9989 25.1287 15.9989 25.1287 16.0705C27.869 16.0705 30.6093 16.0705 33.4327 16.0705C33.457 15.8657 33.4814 15.6609 33.5066 15.4499C33.5294 15.2836 33.5527 15.1175 33.5771 14.9514C33.5838 14.9057 33.5905 14.8599 33.5972 14.8141C33.6186 14.667 33.6404 14.5199 33.6621 14.3728C33.6677 14.3347 33.6677 14.3347 33.6735 14.2958C33.8326 13.2183 34.0025 12.1428 34.1864 11.069C34.1962 11.012 34.2059 10.9549 34.2156 10.8979C34.5407 8.98952 34.9504 7.0939 35.8721 2.94191C35.8762 2.92589 35.8803 2.90987 35.8845 2.89336C36.493 0.516967 36.493 0.516967 37.1393 0.111051C37.3651 -0.00862193 37.6112 -0.0271712 37.8594 0.0343121C38.2554 0.166448 38.4694 0.459476 38.6529 0.807204C39.5267 2.54751 39.8022 4.69391 41.4737 13.9996C41.4949 14.1289 41.5162 14.2582 41.5374 14.3875C41.5712 14.5932 41.605 14.799 41.6385 15.0047C41.654 15.0999 41.6696 15.1952 41.6853 15.2904C41.6998 15.3784 41.7141 15.4665 41.7284 15.5546C41.7361 15.6018 41.7439 15.649 41.7517 15.6961C41.7585 15.7384 41.7585 15.7384 41.7655 15.7815C41.7694 15.8058 41.7734 15.8301 41.7775 15.8551C41.7867 15.9344 41.7859 16.0146 41.7859 16.0944C39.0374 16.0944 36.289 16.0944 33.4573 16.0944C33.4492 16.2047 33.441 16.315 33.4327 16.4286C33.4253 16.4928 33.4173 16.5569 33.4082 16.6209C33.4058 16.6375 33.4035 16.6542 33.4011 16.6714C33.3934 16.7259 33.3856 16.7803 33.3777 16.8348C33.372 16.8744 33.3664 16.914 33.3608 16.9536C33.3423 17.083 33.3236 17.2123 33.3048 17.3416C33.2983 17.3871 33.2917 17.4325 33.2851 17.478C33.1358 18.5089 32.9744 19.5378 32.8027 20.5654C32.7922 20.6283 32.7818 20.6912 32.7713 20.7542C32.4879 22.4558 32.1356 24.1446 31.7817 25.8335C31.776 25.8605 31.7704 25.8876 31.7645 25.9155C31.1193 28.9944 31.1193 28.9944 30.7191 30.2972C30.7131 30.3167 30.7072 30.3362 30.701 30.3564C30.6352 30.5708 30.5646 30.7829 30.4852 30.993C30.4784 31.0111 30.4715 31.0293 30.4645 31.048C30.2971 31.4828 30.0612 31.8823 29.6257 32.1083C29.4014 32.1799 29.122 32.1586 28.9082 32.0695C28.2352 31.7275 28.0344 30.8728 27.8234 30.2243C27.4559 29.0792 27.2195 27.8957 26.9641 26.7236C26.953 26.6727 26.9418 26.6217 26.9307 26.5708C26.4053 24.1691 26.0193 21.7375 25.4594 18.3484C25.4453 18.2632 25.4313 18.178 25.4172 18.0928C25.377 17.8488 25.3369 17.6048 25.2969 17.3607C25.2846 17.2858 25.2723 17.2109 25.2599 17.1359C25.2455 17.0484 25.2311 16.9609 25.2168 16.8734C25.2092 16.827 25.2016 16.7807 25.1939 16.7343C25.1592 16.5212 25.1317 16.3088 25.1041 16.0944C22.3638 16.0944 19.6235 16.0944 16.8002 16.0944C16.7636 16.4016 16.7636 16.4016 16.7262 16.715C16.7031 16.8833 16.6795 17.0514 16.6548 17.2194C16.6481 17.2656 16.6413 17.3119 16.6346 17.3582C16.6129 17.5063 16.5911 17.6545 16.5692 17.8026C16.5635 17.8409 16.5635 17.8409 16.5578 17.8799C16.4073 18.8999 16.2449 19.9176 16.0702 20.934C16.0611 20.9871 16.0519 21.0403 16.0428 21.0935C16.0084 21.2941 15.9737 21.4947 15.9385 21.6952C15.9282 21.7538 15.918 21.8123 15.9078 21.8708C15.7085 23.0124 15.465 24.147 15.2284 25.2817C15.2184 25.3298 15.2084 25.3778 15.1984 25.4259C14.1429 30.4921 14.1429 30.4921 13.1468 32.0105C12.93 32.1488 12.691 32.1625 12.4388 32.1352C12.1274 32.0613 11.8972 31.8619 11.7292 31.6038C11.0783 30.5531 10.8493 29.1963 10.5846 28.0167C10.566 27.934 10.5474 27.8513 10.5287 27.7686C10.4467 27.4051 10.3664 27.0413 10.2877 26.6772C10.2712 26.6013 10.2547 26.5254 10.2382 26.4495C9.74925 24.1956 9.38244 21.915 8.62125 17.3027C8.61813 17.2837 8.61501 17.2648 8.61179 17.2452C8.5969 17.1546 8.58203 17.0639 8.56719 16.9733C8.5437 16.8298 8.52014 16.6862 8.49582 16.5428C8.49225 16.5216 8.48868 16.5003 8.48499 16.4784C8.4788 16.4416 8.47251 16.4048 8.46611 16.3681C8.45031 16.2737 8.44696 16.1915 8.44696 16.0944C5.6904 16.0944 2.93384 16.0944 0.09375 16.0944C0.270912 14.75 0.270912 14.75 0.358457 14.1707C0.361782 14.1486 0.365107 14.1265 0.368532 14.1038C0.379076 14.0338 0.389647 13.9638 0.400219 13.8939C0.405647 13.8579 0.405648 13.8579 0.411186 13.8211C0.522663 13.0815 0.639404 12.3429 0.763221 11.6051C0.77405 11.5406 0.78483 11.476 0.795601 11.4114C1.02786 10.0213 1.30257 8.63928 1.59131 7.25932C1.61575 7.14252 1.64012 7.02571 1.66449 6.90889C2.49456 2.92994 2.49456 2.92994 2.97671 1.46196C2.98545 1.43526 2.99418 1.40857 3.00317 1.38107C3.12794 1.00455 3.28161 0.647954 3.54345 0.340056C3.55676 0.324179 3.57007 0.308301 3.58378 0.291943C3.89355 -0.0422881 4.43143 -0.0951914 4.80783 0.166997Z" fill="#A276E5"/>
<path d="M0 34.7332C0.617989 34.7332 1.23598 34.7332 1.8727 34.7332C2.04813 35.1581 2.22324 35.583 2.39555 36.009C2.45404 36.1536 2.51262 36.2982 2.5712 36.4428C2.583 36.4719 2.5948 36.501 2.60695 36.531C2.71894 36.8072 2.83167 37.0831 2.94457 37.359C3.18274 37.941 3.419 38.5237 3.65511 39.1066C3.72751 39.2853 3.79997 39.464 3.87244 39.6427C3.87849 39.6576 3.88454 39.6725 3.89078 39.6879C3.92445 39.7709 3.95812 39.8539 3.9918 39.9369C4.07458 39.7457 4.15568 39.5539 4.23522 39.3614C4.24628 39.3346 4.25733 39.3079 4.26872 39.2804C4.30427 39.1944 4.33977 39.1084 4.37527 39.0224C4.38758 38.9926 4.39989 38.9628 4.41221 38.933C4.55889 38.5777 4.7046 38.2222 4.84625 37.865C4.94484 37.6166 5.04565 37.3691 5.14683 37.1218C5.269 36.823 5.39089 36.5242 5.51211 36.2251C5.5181 36.2103 5.52409 36.1956 5.53026 36.1803C5.5952 36.0201 5.66009 35.8599 5.72496 35.6997C5.82518 35.4522 5.92554 35.2047 6.02687 34.9577C6.03918 34.9275 6.03918 34.9275 6.05174 34.8967C6.10805 34.7599 6.10805 34.7599 6.13554 34.7332C6.19326 34.731 6.25025 34.7302 6.30798 34.7305C6.33503 34.7305 6.33503 34.7305 6.36262 34.7305C6.42248 34.7305 6.48234 34.7307 6.54221 34.7309C6.58361 34.731 6.62501 34.731 6.6664 34.731C6.77558 34.7311 6.88475 34.7313 6.99392 34.7316C7.10524 34.7318 7.21656 34.732 7.32787 34.7321C7.54645 34.7323 7.76502 34.7327 7.9836 34.7332C7.99484 34.7611 8.00608 34.789 8.01766 34.8177C8.22936 35.3428 8.44157 35.8676 8.6558 36.3916C8.80923 36.767 8.96172 37.1428 9.11399 37.5186C9.30777 37.9969 9.50232 38.4749 9.69789 38.9525C9.74163 39.0593 9.78528 39.1662 9.82887 39.273C9.84825 39.3205 9.86765 39.3679 9.88708 39.4154C9.91832 39.4917 9.94945 39.5681 9.98055 39.6444C9.9903 39.6682 10.0001 39.692 10.0101 39.7165C10.019 39.7384 10.0279 39.7603 10.0371 39.7829C10.045 39.8023 10.0529 39.8217 10.0611 39.8417C10.0781 39.8892 10.0781 39.8892 10.0781 39.9369C10.0943 39.9369 10.1106 39.9369 10.1273 39.9369C10.1336 39.9155 10.1336 39.9155 10.1399 39.8936C10.1858 39.7404 10.2412 39.5931 10.3026 39.4452C10.3125 39.4211 10.3224 39.397 10.3326 39.3722C10.354 39.3201 10.3755 39.2681 10.397 39.2161C10.4555 39.0744 10.5137 38.9325 10.5719 38.7907C10.5842 38.761 10.5964 38.7312 10.6086 38.7015C10.7378 38.3872 10.8654 38.0722 10.9928 37.7573C11.1699 37.3202 11.3476 36.8834 11.5263 36.4469C11.7597 35.8763 11.9907 35.3048 12.2218 34.7332C12.8479 34.7332 13.474 34.7332 14.1191 34.7332C13.8358 35.4468 13.8358 35.4468 13.706 35.7562C13.6404 35.9125 13.5751 36.0688 13.5098 36.2252C13.4976 36.2542 13.4855 36.2832 13.473 36.3131C13.3181 36.6837 13.1641 37.0547 13.0101 37.4256C12.9443 37.5838 12.8786 37.742 12.8129 37.9002C12.7963 37.94 12.7798 37.9799 12.7632 38.0198C12.6523 38.2866 12.5414 38.5534 12.4304 38.8201C12.3708 38.9634 12.3112 39.1067 12.2515 39.2499C12.2296 39.3026 12.2077 39.3554 12.1857 39.4081C12.0164 39.8151 11.8476 40.2223 11.6796 40.6299C11.6633 40.6694 11.6471 40.7088 11.6308 40.7483C11.5605 40.9189 11.4902 41.0895 11.4201 41.2601C11.3918 41.3291 11.3634 41.398 11.335 41.4669C11.3218 41.4989 11.3087 41.531 11.2955 41.563C11.2776 41.6067 11.2597 41.6503 11.2417 41.6939C11.2316 41.7183 11.2216 41.7428 11.2112 41.768C11.1869 41.8227 11.1869 41.8227 11.1622 41.8466C11.0963 41.8488 11.0309 41.8496 10.9649 41.8493C10.9443 41.8493 10.9236 41.8493 10.9023 41.8493C10.8336 41.8493 10.765 41.8491 10.6963 41.8489C10.6488 41.8489 10.6013 41.8488 10.5539 41.8488C10.4286 41.8487 10.3034 41.8485 10.1782 41.8482C10.0506 41.848 9.92289 41.8479 9.79522 41.8477C9.54453 41.8475 9.29384 41.8471 9.04315 41.8466C8.96677 41.6865 8.89387 41.5259 8.82696 41.3619C8.81829 41.3408 8.80962 41.3197 8.80069 41.298C8.78168 41.2518 8.76271 41.2056 8.74376 41.1593C8.68964 41.0273 8.63528 40.8954 8.58094 40.7635C8.56898 40.7344 8.55703 40.7054 8.54471 40.6755C8.44549 40.4346 8.34563 40.1939 8.24559 39.9534C8.23773 39.9345 8.22987 39.9155 8.22177 39.8961C8.1568 39.7398 8.0918 39.5836 8.0268 39.4274C7.84517 38.9908 7.66373 38.5542 7.48366 38.117C7.46958 38.0829 7.45551 38.0487 7.44143 38.0145C7.38219 37.8708 7.32299 37.727 7.26395 37.5831C7.23495 37.5125 7.20587 37.4419 7.1768 37.3713C7.16642 37.3459 7.15604 37.3205 7.14534 37.2944C7.13594 37.2716 7.12654 37.2488 7.11685 37.2253C7.10463 37.1955 7.10463 37.1955 7.09216 37.1651C7.07552 37.1209 7.07552 37.1209 7.04725 37.0964C6.84718 37.5659 6.64859 38.0359 6.45433 38.5077C6.25314 38.9963 6.05068 39.4844 5.84787 39.9724C5.82345 40.0311 5.79902 40.0899 5.7746 40.1487C5.6811 40.3738 5.58751 40.5988 5.4938 40.8237C5.46036 40.904 5.42694 40.9843 5.39355 41.0647C5.3503 41.1687 5.30699 41.2726 5.26363 41.3766C5.24713 41.4162 5.23066 41.4558 5.2142 41.4954C5.19152 41.55 5.16876 41.6045 5.14598 41.6591C5.13922 41.6754 5.13247 41.6917 5.1255 41.7085C5.0788 41.82 5.0788 41.82 5.05135 41.8466C4.98536 41.8488 4.92002 41.8496 4.85402 41.8493C4.83335 41.8493 4.81268 41.8493 4.79138 41.8493C4.72272 41.8493 4.65405 41.8491 4.58539 41.8489C4.53791 41.8489 4.49044 41.8488 4.44296 41.8488C4.31775 41.8487 4.19253 41.8485 4.06732 41.8482C3.93965 41.848 3.81199 41.8479 3.68432 41.8477C3.43363 41.8475 3.18294 41.8471 2.93225 41.8466C2.51875 40.8727 2.51875 40.8727 2.34423 40.4475C2.29364 40.3242 2.24284 40.2011 2.19206 40.0779C2.1808 40.0506 2.16953 40.0233 2.15793 39.9951C1.99124 39.591 1.82332 39.1874 1.65555 38.7837C1.63811 38.7418 1.62067 38.6998 1.60323 38.6578C1.53261 38.4879 1.46198 38.318 1.39134 38.148C1.27808 37.8755 1.16485 37.6031 1.05165 37.3305C1.00166 37.2102 0.951662 37.0899 0.901666 36.9695C0.861258 36.8723 0.820857 36.775 0.780468 36.6778C0.626359 36.3066 0.472105 35.9356 0.316383 35.5651C0.293855 35.5114 0.271328 35.4577 0.248802 35.404C0.208528 35.3081 0.168091 35.2122 0.127547 35.1164C0.110212 35.0752 0.0928818 35.0339 0.0755585 34.9926C0.0638406 34.9652 0.0638406 34.9652 0.0518859 34.9371C0.0219418 34.8655 0 34.8113 0 34.7332Z" fill="#A276E5"/>
<path d="M37.4563 34.7035C37.5484 34.7037 37.6404 34.7035 37.7324 34.7034C37.8868 34.7033 38.0413 34.7034 38.1957 34.7038C38.373 34.7042 38.5502 34.704 38.7275 34.7036C38.8811 34.7033 39.0346 34.7033 39.1882 34.7034C39.2793 34.7036 39.3704 34.7036 39.4615 34.7033C40.0958 34.7019 40.8249 34.7016 41.3228 35.1487C41.7138 35.5662 41.7552 36.1041 41.7494 36.6421C41.7484 36.7775 41.7474 36.9129 41.7464 37.0524C41.1853 37.0524 40.6242 37.0524 40.0461 37.0524C40.0218 36.8515 40.0218 36.8515 39.9969 36.6466C39.9191 36.4959 39.8793 36.4355 39.7181 36.3795C39.5489 36.3434 39.3851 36.3327 39.2126 36.3324C39.1814 36.3322 39.1814 36.3322 39.1496 36.3321C39.0815 36.3317 39.0133 36.3316 38.9452 36.3314C38.9218 36.3314 38.8983 36.3313 38.8742 36.3312C38.7502 36.3309 38.6263 36.3306 38.5024 36.3305C38.3749 36.3304 38.2474 36.3298 38.1199 36.3292C38.0214 36.3287 37.9228 36.3286 37.8243 36.3286C37.7773 36.3285 37.7303 36.3283 37.6833 36.328C37.2454 36.3158 37.2454 36.3158 36.8675 36.5034C36.7498 36.688 36.7369 36.9017 36.7814 37.1112C36.8178 37.2198 36.8653 37.2815 36.9661 37.3388C37.155 37.4152 37.3469 37.4362 37.5502 37.4474C37.5683 37.4484 37.5863 37.4494 37.6049 37.4504C37.803 37.4606 38.001 37.4625 38.1994 37.4637C38.2667 37.4641 38.3341 37.4646 38.4014 37.4652C38.5926 37.4669 38.7838 37.4683 38.975 37.4696C40.9945 37.4829 40.9945 37.4829 41.54 37.9565C42.0477 38.4771 42.0107 39.3397 41.9955 40.0018C41.9778 40.5406 41.9432 41.1215 41.5492 41.54C41.0306 41.9763 40.2719 41.9972 39.6188 41.997C39.5879 41.9971 39.557 41.9971 39.5252 41.9972C39.4417 41.9974 39.3581 41.9975 39.2746 41.9975C39.2221 41.9975 39.1696 41.9976 39.1171 41.9976C38.9332 41.9979 38.7493 41.998 38.5654 41.9979C38.3953 41.9979 38.2252 41.9982 38.055 41.9986C37.9078 41.9989 37.7606 41.999 37.6135 41.999C37.526 41.999 37.4386 41.999 37.3512 41.9993C35.9377 42.0031 35.9377 42.0031 35.4537 41.5773C35.2454 41.3589 35.1179 41.0675 35.0687 40.7761C35.0612 40.7338 35.0612 40.7338 35.0536 40.6906C34.9988 40.3109 35.0194 39.9482 35.0194 39.5588C35.5886 39.5588 36.1578 39.5588 36.7443 39.5588C36.7687 39.7714 36.7687 39.7714 36.7936 39.9884C36.8601 40.1749 36.8601 40.1749 36.9907 40.2987C37.1245 40.3562 37.2521 40.3535 37.3957 40.3534C37.4213 40.3536 37.4469 40.3537 37.4732 40.3539C37.5576 40.3543 37.642 40.3544 37.7265 40.3545C37.7853 40.3546 37.8442 40.3548 37.903 40.355C38.0264 40.3553 38.1498 40.3553 38.2731 40.3553C38.4308 40.3553 38.5885 40.356 38.7462 40.3568C38.8678 40.3573 38.9894 40.3574 39.111 40.3574C39.1691 40.3574 39.2272 40.3577 39.2854 40.358C39.3669 40.3585 39.4483 40.3584 39.5298 40.3581C39.5536 40.3583 39.5774 40.3586 39.6018 40.3589C39.7638 40.3574 39.9042 40.3295 40.0461 40.251C40.1885 40.1103 40.1993 39.9684 40.2017 39.7796C40.2024 39.7611 40.2031 39.7426 40.2039 39.7236C40.2054 39.5873 40.1824 39.4777 40.0954 39.3678C39.9907 39.2813 39.8704 39.2547 39.7366 39.232C39.7056 39.2265 39.6745 39.221 39.6426 39.2153C39.3746 39.1771 39.1032 39.1732 38.8329 39.1713C38.776 39.1709 38.7192 39.1704 38.6623 39.1698C38.5009 39.1681 38.3395 39.1667 38.178 39.1654C37.7643 39.1622 37.3514 39.1567 36.9384 39.131C36.9081 39.1291 36.8778 39.1272 36.8466 39.1253C36.3408 39.0909 35.7539 39.0219 35.3829 38.6502C35.0752 38.2901 35.0408 37.8134 35.0391 37.3651C35.0389 37.3358 35.0388 37.3064 35.0386 37.2762C35.0384 37.2142 35.0383 37.1522 35.0382 37.0902C35.0379 36.9968 35.0372 36.9034 35.0364 36.81C35.0337 36.2053 35.0609 35.6285 35.5046 35.1622C36.0183 34.6901 36.7965 34.7017 37.4563 34.7035Z" fill="#A276E5"/>
<path d="M27.8906 34.7852C29.8828 34.7852 31.875 34.7852 33.9276 34.7852C33.9276 35.3366 33.9276 35.888 33.9276 36.4561C32.4965 36.4561 31.0653 36.4561 29.5908 36.4561C29.5908 36.8263 29.5908 37.1965 29.5908 37.578C30.9488 37.578 32.3067 37.578 33.7058 37.578C33.7058 38.0664 33.7058 38.5547 33.7058 39.0579C32.3479 39.0579 30.9899 39.0579 29.5908 39.0579C29.5908 39.4282 29.5908 39.7984 29.5908 40.1798C31.0545 40.1798 32.5182 40.1798 34.0262 40.1798C34.0262 40.7549 34.0262 41.3299 34.0262 41.9224C32.0014 41.9224 29.9767 41.9224 27.8906 41.9224C27.8906 39.5671 27.8906 37.2118 27.8906 34.7852Z" fill="#A276E5"/>
<path d="M15.4268 34.7852C16.1668 34.7852 16.9068 34.7852 17.6691 34.7852C17.7992 35.0924 17.9294 35.3996 18.0634 35.7161C18.1669 35.9592 18.1669 35.9592 18.2706 36.2023C18.432 36.5799 18.5926 36.9579 18.7526 37.3361C18.8878 37.6556 19.0237 37.9749 19.1599 38.2941C19.3122 38.6508 19.4639 39.0078 19.615 39.365C19.7403 39.6612 19.8662 39.9572 19.9924 40.253C20.0221 40.3225 20.0517 40.3919 20.0813 40.4614C20.091 40.4841 20.1007 40.5069 20.1107 40.5303C20.1302 40.576 20.1497 40.6217 20.1691 40.6674C20.2274 40.8041 20.2858 40.9408 20.3442 41.0774C20.3812 41.164 20.4182 41.2506 20.4551 41.3372C20.4724 41.3778 20.4897 41.4184 20.5071 41.459C20.531 41.5147 20.5548 41.5705 20.5785 41.6263C20.589 41.6507 20.589 41.6507 20.5997 41.6756C20.6351 41.7593 20.6568 41.8325 20.6753 41.9224C20.0492 41.9224 19.4231 41.9224 18.778 41.9224C18.7008 41.7578 18.6256 41.5945 18.5565 41.427C18.5436 41.3959 18.5436 41.3959 18.5305 41.3642C18.5127 41.321 18.4948 41.2779 18.477 41.2347C18.4497 41.1683 18.4222 41.102 18.3947 41.0358C18.3772 40.9936 18.3598 40.9514 18.3424 40.9093C18.3342 40.8895 18.326 40.8696 18.3175 40.8492C18.2605 40.7104 18.2605 40.7104 18.2605 40.6572C17.1384 40.6651 16.0162 40.673 14.8601 40.6811C14.7056 41.075 14.5511 41.4688 14.3919 41.8746C14.3838 41.8904 14.3757 41.9061 14.3673 41.9224C13.733 41.9224 13.0988 41.9224 12.4453 41.9224C12.6152 41.4836 12.6152 41.4836 12.697 41.2888C12.7062 41.2668 12.7154 41.2449 12.7248 41.2223C12.7543 41.1518 12.7838 41.0813 12.8134 41.0108C12.8344 40.9607 12.8553 40.9105 12.8763 40.8604C12.9184 40.7598 12.9605 40.6592 13.0026 40.5587C13.0535 40.4372 13.1043 40.3157 13.1551 40.1942C13.2884 39.8752 13.422 39.5564 13.5562 39.2377C13.5672 39.2115 13.5782 39.1853 13.5896 39.1583C13.6008 39.1317 13.612 39.1051 13.6235 39.0777C13.6466 39.0229 13.6697 38.968 13.6927 38.9132C13.7043 38.8858 13.7158 38.8585 13.7277 38.8303C13.8965 38.4291 14.0645 38.0275 14.2318 37.6257C14.4331 37.1421 14.6357 36.659 14.839 36.1761C14.9423 35.9309 15.0454 35.6858 15.148 35.4404C15.1568 35.4193 15.1656 35.3982 15.1747 35.3765C15.2152 35.2795 15.2558 35.1825 15.2962 35.0855C15.3101 35.0521 15.3241 35.0188 15.338 34.9854C15.3559 34.9426 15.3559 34.9426 15.3741 34.8989C15.3904 34.8605 15.4076 34.8223 15.4268 34.7852ZM16.5357 36.5038C16.4323 36.7397 16.3358 36.9781 16.24 37.2169C16.2232 37.2587 16.2064 37.3005 16.1896 37.3424C16.1625 37.4099 16.1353 37.4774 16.1082 37.545C16.0435 37.7062 15.9785 37.8674 15.9135 38.0285C15.8656 38.147 15.8179 38.2655 15.7702 38.384C15.7466 38.4424 15.723 38.5008 15.6994 38.5592C15.6662 38.6414 15.6332 38.7235 15.6001 38.8057C15.585 38.843 15.585 38.843 15.5696 38.881C15.5605 38.9037 15.5514 38.9263 15.542 38.9497C15.534 38.9696 15.526 38.9894 15.5178 39.0098C15.4981 39.057 15.4981 39.057 15.5008 39.1057C16.1919 39.1057 16.8831 39.1057 17.5952 39.1057C17.5777 39.0038 17.5637 38.9355 17.5255 38.8439C17.5161 38.8212 17.5067 38.7986 17.4971 38.7753C17.4869 38.751 17.4766 38.7266 17.4661 38.7016C17.4553 38.6757 17.4446 38.6498 17.4335 38.6232C17.3982 38.5383 17.3627 38.4535 17.3273 38.3687C17.2842 38.2652 17.2412 38.1617 17.1982 38.0582C17.1793 38.0127 17.1604 37.9672 17.1415 37.9217C17.0131 37.6132 16.8867 37.304 16.7605 36.9946C16.7401 36.9447 16.7197 36.8947 16.6993 36.8447C16.653 36.7311 16.6066 36.6174 16.5603 36.5038C16.5522 36.5038 16.5441 36.5038 16.5357 36.5038Z" fill="#A276E5"/>
<path d="M19.1406 34.7879C19.7586 34.7879 20.3766 34.7879 21.0133 34.7879C21.2781 35.4346 21.5426 36.0813 21.8049 36.7289C21.9809 37.1633 22.1575 37.5975 22.3351 38.0313C22.5277 38.5021 22.7189 38.9734 22.9099 39.4448C22.9211 39.4725 22.9323 39.5001 22.9438 39.5286C22.9648 39.5805 22.9859 39.6323 23.0069 39.6842C23.0162 39.7073 23.0256 39.7304 23.0352 39.7542C23.0433 39.7742 23.0514 39.7943 23.0598 39.8149C23.0838 39.8739 23.1081 39.9328 23.1324 39.9916C23.2147 39.8173 23.2888 39.6401 23.3619 39.462C23.3749 39.4304 23.3879 39.3988 23.4009 39.3672C23.6695 38.7143 23.9343 38.06 24.1994 37.4059C24.3598 37.0102 24.5207 36.6148 24.6823 36.2196C24.7789 35.9835 24.8749 35.7472 24.9699 35.5105C24.9837 35.476 24.9837 35.476 24.9978 35.4409C25.0421 35.3305 25.0864 35.2201 25.1305 35.1096C25.1462 35.0704 25.1619 35.0313 25.1776 34.9921C25.1848 34.9741 25.1919 34.9561 25.1993 34.9375C25.2487 34.8145 25.2487 34.8145 25.2762 34.7879C25.3346 34.7857 25.3924 34.7849 25.4509 34.7852C25.4691 34.7852 25.4874 34.7852 25.5062 34.7852C25.5669 34.7852 25.6276 34.7854 25.6882 34.7856C25.7302 34.7856 25.7721 34.7857 25.8141 34.7857C25.9247 34.7858 26.0353 34.786 26.146 34.7863C26.2588 34.7865 26.3716 34.7866 26.4844 34.7868C26.7059 34.787 26.9274 34.7874 27.1489 34.7879C27.1015 34.9512 27.0445 35.1074 26.9772 35.2638C26.9678 35.2862 26.9583 35.3085 26.9485 35.3315C26.9281 35.3797 26.9076 35.4278 26.887 35.476C26.8308 35.6079 26.7749 35.7401 26.719 35.8722C26.7075 35.8994 26.6959 35.9266 26.684 35.9547C26.572 36.2196 26.4621 36.4853 26.3527 36.7513C26.1523 37.2378 25.9507 37.724 25.7487 38.2099C25.7243 38.2685 25.7 38.3271 25.6756 38.3856C25.5844 38.6051 25.4931 38.8246 25.4018 39.0441C25.265 39.3732 25.1281 39.7024 24.9913 40.0316C24.9433 40.1469 24.8954 40.2622 24.8474 40.3775C24.8175 40.4496 24.7875 40.5218 24.7575 40.5939C24.7429 40.6289 24.7284 40.6639 24.7138 40.6989C24.63 40.9004 24.5466 41.1021 24.4636 41.304C24.4475 41.3432 24.4314 41.3823 24.4153 41.4215C24.3846 41.4962 24.3539 41.5709 24.3233 41.6457C24.3095 41.6792 24.2958 41.7127 24.282 41.7463C24.2757 41.7617 24.2694 41.7771 24.2629 41.793C24.2194 41.8985 24.2194 41.8985 24.192 41.9251C24.126 41.9274 24.0606 41.9281 23.9946 41.9278C23.974 41.9278 23.9533 41.9278 23.932 41.9278C23.8633 41.9278 23.7947 41.9276 23.726 41.9275C23.6785 41.9274 23.6311 41.9274 23.5836 41.9274C23.4584 41.9273 23.3332 41.927 23.2079 41.9268C23.0803 41.9265 22.9526 41.9264 22.8249 41.9263C22.5743 41.926 22.3236 41.9256 22.0729 41.9251C22.0672 41.9113 22.0614 41.8974 22.0556 41.8831C21.7416 41.1214 21.4267 40.3601 21.1103 39.5993C21.1024 39.5801 21.0944 39.5609 21.0862 39.5411C21.0126 39.3641 20.9389 39.187 20.8653 39.0099C20.7521 38.7379 20.639 38.4659 20.526 38.1938C20.5181 38.1749 20.5102 38.1559 20.5021 38.1364C20.4624 38.0409 20.4228 37.9454 20.3831 37.8499C20.3124 37.6799 20.2418 37.5099 20.1712 37.34C20.1475 37.2831 20.1239 37.2262 20.1002 37.1693C19.9976 36.9223 19.8949 36.6752 19.7922 36.4282C19.7297 36.2778 19.6672 36.1274 19.6047 35.977C19.5536 35.8541 19.5025 35.7312 19.4514 35.6082C19.42 35.5326 19.3885 35.4569 19.3571 35.3812C19.3425 35.3461 19.3279 35.3111 19.3133 35.276C19.2934 35.228 19.2734 35.18 19.2535 35.132C19.2423 35.1051 19.2312 35.0783 19.2197 35.0506C19.2099 35.027 19.2 35.0033 19.1899 34.9789C19.1805 34.9575 19.171 34.9361 19.1613 34.9141C19.1406 34.8595 19.1406 34.8595 19.1406 34.7879Z" fill="#A276E5"/>
</svg>
