<svg width="42" height="42" viewBox="0 0 42 42" fill="none" xmlns="http://www.w3.org/2000/svg">
<path d="M38.9618 4.2384H35.6223V38.3716H38.9618V4.2384ZM6.94742 17.1862H3.19941C3.10836 17.1862 3.02469 17.2231 2.9648 17.2838C2.9041 17.3445 2.86719 17.4282 2.86719 17.5184V25.0916C2.86719 25.1843 2.9041 25.2663 2.9648 25.3262C3.02551 25.3869 3.10918 25.4238 3.19941 25.4238H6.94742V25.4263C7.01961 25.4263 7.0918 25.4451 7.15906 25.4845L12.368 28.5935C12.4214 28.6263 12.4747 28.6427 12.5288 28.6427C12.5821 28.6427 12.6379 28.6288 12.6937 28.5984C12.747 28.5656 12.7864 28.5262 12.8143 28.4795C12.8422 28.4352 12.8561 28.3794 12.8561 28.3146V14.2954C12.8561 14.2323 12.8422 14.1748 12.8143 14.1305C12.7864 14.0838 12.747 14.0444 12.6937 14.0141C12.6379 13.9813 12.5821 13.9673 12.5288 13.9673C12.4755 13.9673 12.4222 13.9837 12.368 14.0165L7.18695 17.1091C7.11969 17.1583 7.03602 17.1862 6.94742 17.1862ZM17.6714 16.635C17.5229 16.4652 17.5434 16.2068 17.7132 16.0583C17.883 15.9114 18.1414 15.9303 18.2899 16.1001C19.5852 17.5955 20.2316 19.4511 20.2316 21.3066C20.2316 23.1597 19.5852 25.0153 18.2899 26.5107C18.1414 26.6805 17.883 26.6994 17.7132 26.5525C17.5434 26.4041 17.5229 26.1457 17.6714 25.9759C18.8313 24.6363 19.4104 22.9719 19.4104 21.3066C19.4113 19.6389 18.8321 17.9737 17.6714 16.635ZM19.6992 14.8746C19.5433 14.7097 19.5507 14.4513 19.7131 14.2954C19.878 14.1396 20.1364 14.147 20.2923 14.3094C22.1593 16.2699 23.092 18.7883 23.092 21.3058C23.092 23.8217 22.1593 26.3401 20.2923 28.3006C20.1364 28.4631 19.878 28.4704 19.7131 28.3146C19.5507 28.1587 19.5433 27.9003 19.6992 27.7354C21.4128 25.9357 22.2709 23.6216 22.2709 21.3058C22.2709 18.9901 21.4128 16.6743 19.6992 14.8746ZM15.5139 18.867C15.3302 18.7341 15.2859 18.4807 15.4188 18.2953C15.5492 18.1115 15.8052 18.0697 15.9881 18.2001C16.4901 18.5586 16.8904 19.0278 17.162 19.5602C17.4384 20.0926 17.5877 20.6906 17.5877 21.3066C17.5877 21.9202 17.4392 22.5182 17.162 23.0506C16.8896 23.583 16.4901 24.053 15.9881 24.4107C15.8043 24.5411 15.5484 24.4993 15.4188 24.3155C15.2859 24.1293 15.3302 23.8759 15.5139 23.7438C15.9069 23.4624 16.2211 23.0949 16.4368 22.6766C16.6509 22.2607 16.7674 21.7906 16.7674 21.3066C16.7674 20.821 16.6509 20.351 16.4368 19.9351C16.2211 19.5159 15.9069 19.1484 15.5139 18.867ZM24.087 12.7377C23.9221 12.8911 23.6638 12.882 23.5079 12.7171C23.3545 12.5523 23.3635 12.2939 23.5292 12.138L25.3454 10.4547L20.0765 4.06941L20.1438 6.38762C20.1512 6.6132 19.974 6.80188 19.7484 6.80844C19.5204 6.81336 19.3341 6.63617 19.3276 6.41059L19.2226 2.90211C19.2201 2.82746 19.2365 2.7602 19.2693 2.69949C19.2882 2.66422 19.3063 2.63879 19.3341 2.60844C19.4039 2.53133 19.5064 2.48293 19.6204 2.48047C19.6623 2.48047 19.7016 2.48539 19.7394 2.49441L23.3947 3.50586C23.6113 3.56656 23.7392 3.79215 23.6785 4.01035C23.6178 4.22691 23.3947 4.35488 23.1765 4.29418L20.7722 3.62891L26.2084 10.2144C26.3593 10.3793 26.3503 10.6377 26.1854 10.7911L24.087 12.7377ZM19.3276 36.1994C19.335 35.9738 19.5204 35.7975 19.7484 35.8016C19.974 35.8081 20.1504 35.9968 20.1438 36.2224L20.0765 38.5406L25.3454 32.1577L23.576 30.5114C23.4086 30.358 23.3996 30.0996 23.5547 29.9347C23.708 29.7673 23.9664 29.7583 24.1313 29.9142L26.1846 31.8206C26.3495 31.9715 26.3593 32.2299 26.2075 32.3948L20.7713 38.9803L23.1757 38.315C23.3939 38.2543 23.6178 38.3823 23.6777 38.5988C23.7384 38.817 23.6104 39.0426 23.3939 39.1033L19.7386 40.1148C19.7016 40.1238 19.6614 40.1287 19.6196 40.1287C19.5056 40.1263 19.403 40.0779 19.3333 40.0007C19.3054 39.9704 19.2866 39.945 19.2685 39.9097C19.2357 39.849 19.2193 39.7817 19.2218 39.7071L19.3276 36.1994ZM34.8044 38.3716V4.2384H32.8422C32.7586 4.74289 32.5797 5.21539 32.3098 5.63375C31.9776 6.14727 31.5125 6.58203 30.9219 6.90113L30.1803 7.30145C29.7103 7.55492 29.3452 7.89699 29.0967 8.29648C28.8522 8.69434 28.7226 9.15453 28.7226 9.6541C28.7226 10.152 28.853 10.6147 29.0967 11.0101C29.3452 11.412 29.7103 11.7516 30.1803 12.0051L30.9219 12.4071C31.5199 12.7278 31.9891 13.17 32.3123 13.6933C32.638 14.2208 32.8119 14.8278 32.8119 15.4791C32.8119 16.1305 32.6372 16.7375 32.3123 17.265C31.9891 17.7908 31.5191 18.2296 30.9219 18.5529L30.1803 18.9532C29.7103 19.2066 29.3452 19.5463 29.0967 19.9482C28.8522 20.3436 28.7226 20.8063 28.7226 21.3058C28.7226 21.8038 28.853 22.2664 29.0967 22.6618C29.3452 23.0638 29.7103 23.4034 30.1803 23.6568L30.9219 24.0571C31.5199 24.3804 31.9891 24.82 32.3123 25.345C32.638 25.8733 32.8119 26.4795 32.8119 27.1309C32.8119 27.7822 32.6372 28.3892 32.3123 28.9167C31.9891 29.4425 31.5191 29.8814 30.9219 30.2029L30.1803 30.6049C29.7103 30.8584 29.3452 31.198 29.0967 31.5999C28.8522 31.9953 28.7226 32.458 28.7226 32.9559C28.7226 33.4555 28.853 33.9189 29.0967 34.3135C29.3452 34.7155 29.7103 35.0551 30.1803 35.3086L30.9219 35.7089C31.5125 36.0272 31.9776 36.4619 32.3098 36.9763C32.5797 37.3946 32.7586 37.8671 32.8422 38.3716H34.8044Z" fill="#A276E5"/>
</svg>
