<svg width="42" height="42" viewBox="0 0 42 42" fill="none" xmlns="http://www.w3.org/2000/svg">
<path d="M36.3499 16.4419H39.604V14.1629C39.6031 13.4113 39.3042 12.6908 38.7727 12.1594C38.2413 11.628 37.5208 11.329 36.7693 11.3281H30.5066C29.7551 11.329 29.0346 11.628 28.5031 12.1594C27.9717 12.6908 27.6728 13.4113 27.6719 14.1629V16.4419H30.9259C31.152 16.4419 31.3688 16.5317 31.5286 16.6915C31.6884 16.8514 31.7782 17.0682 31.7782 17.2942C31.7782 17.5202 31.6884 17.737 31.5286 17.8969C31.3688 18.0567 31.152 18.1465 30.9259 18.1465H27.6719V19.8511H30.9259C31.152 19.8511 31.3688 19.9409 31.5286 20.1007C31.6884 20.2605 31.7782 20.4773 31.7782 20.7034C31.7782 20.9294 31.6884 21.1462 31.5286 21.306C31.3688 21.4659 31.152 21.5557 30.9259 21.5557H27.6719V23.2603H30.9259C31.152 23.2603 31.3688 23.3501 31.5286 23.5099C31.6884 23.6697 31.7782 23.8865 31.7782 24.1126C31.7782 24.3386 31.6884 24.5554 31.5286 24.7152C31.3688 24.8751 31.152 24.9649 30.9259 24.9649H27.6719V27.2439C27.6728 27.9954 27.9717 28.7159 28.5031 29.2474C29.0346 29.7788 29.7551 30.0777 30.5066 30.0786H32.7856V36.897H30.2288C30.0027 36.897 29.7859 36.9868 29.6261 37.1466C29.4663 37.3065 29.3765 37.5232 29.3765 37.7493C29.3765 37.9753 29.4663 38.1921 29.6261 38.3519C29.7859 38.5118 30.0027 38.6016 30.2288 38.6016H37.0471C37.2732 38.6016 37.49 38.5118 37.6498 38.3519C37.8096 38.1921 37.8994 37.9753 37.8994 37.7493C37.8994 37.5232 37.8096 37.3065 37.6498 37.1466C37.49 36.9868 37.2732 36.897 37.0471 36.897H34.4902V30.0786H36.7693C37.5208 30.0777 38.2413 29.7788 38.7727 29.2474C39.3042 28.7159 39.6031 27.9954 39.604 27.2439V24.9649H36.3499C36.1239 24.9649 35.9071 24.8751 35.7473 24.7152C35.5874 24.5554 35.4977 24.3386 35.4977 24.1126C35.4977 23.8865 35.5874 23.6697 35.7473 23.5099C35.9071 23.3501 36.1239 23.2603 36.3499 23.2603H39.604V21.5557H36.3499C36.1239 21.5557 35.9071 21.4659 35.7473 21.306C35.5874 21.1462 35.4977 20.9294 35.4977 20.7034C35.4977 20.4773 35.5874 20.2605 35.7473 20.1007C35.9071 19.9409 36.1239 19.8511 36.3499 19.8511H39.604V18.1465H36.3499C36.1239 18.1465 35.9071 18.0567 35.7473 17.8969C35.5874 17.737 35.4977 17.5202 35.4977 17.2942C35.4977 17.0682 35.5874 16.8514 35.7473 16.6915C35.9071 16.5317 36.1239 16.4419 36.3499 16.4419Z" fill="#A276E5"/>
<path d="M15.7351 24.9624C16.2058 24.9624 16.5874 24.5808 16.5874 24.1101C16.5874 23.6394 16.2058 23.2578 15.7351 23.2578C15.2644 23.2578 14.8828 23.6394 14.8828 24.1101C14.8828 24.5808 15.2644 24.9624 15.7351 24.9624Z" fill="#A276E5"/>
<path d="M9.77417 14.7358C10.2449 14.7358 10.6265 14.3543 10.6265 13.8835C10.6265 13.4128 10.2449 13.0312 9.77417 13.0312C9.30346 13.0312 8.92188 13.4128 8.92188 13.8835C8.92188 14.3543 9.30346 14.7358 9.77417 14.7358Z" fill="#A276E5"/>
<path d="M21.7039 14.7358C22.1746 14.7358 22.5562 14.3543 22.5562 13.8835C22.5562 13.4128 22.1746 13.0312 21.7039 13.0312C21.2331 13.0312 20.8516 13.4128 20.8516 13.8835C20.8516 14.3543 21.2331 14.7358 21.7039 14.7358Z" fill="#A276E5"/>
<path d="M29.375 31.6209C28.402 31.3717 27.5392 30.8064 26.9222 30.0139C26.3052 29.2213 25.9688 28.2463 25.9658 27.2418V14.1608C25.9688 13.1564 26.3052 12.1813 26.9222 11.3888C27.5392 10.5962 28.402 10.0309 29.375 9.7817V5.15032C29.3423 4.49807 29.053 3.88522 28.5701 3.44548C28.0873 3.00575 27.4501 2.77483 26.7977 2.8031H4.6789C4.02644 2.77483 3.38928 3.00575 2.90643 3.44548C2.42359 3.88522 2.13426 4.49807 2.10156 5.15032V32.8431C2.13426 33.4954 2.42359 34.1082 2.90643 34.5479C3.38928 34.9877 4.02644 35.2186 4.6789 35.1903H26.7977C27.4501 35.2186 28.0873 34.9877 28.5701 34.5479C29.053 34.1082 29.3423 33.4954 29.375 32.8431V31.6209ZM10.6245 16.2796V29.2243C10.6245 29.4503 10.5347 29.6671 10.3749 29.8269C10.215 29.9868 9.99826 30.0766 9.77222 30.0766C9.54618 30.0766 9.32939 29.9868 9.16956 29.8269C9.00972 29.6671 8.91993 29.4503 8.91993 29.2243V16.283C8.42172 16.1094 7.98988 15.7851 7.68429 15.3551C7.37871 14.925 7.21453 14.4105 7.21453 13.8829C7.21453 13.3554 7.37871 12.8409 7.68429 12.4108C7.98988 11.9808 8.42172 11.6564 8.91993 11.4829V8.76917C8.91993 8.54313 9.00972 8.32634 9.16956 8.16651C9.32939 8.00667 9.54618 7.91687 9.77222 7.91687C9.99826 7.91687 10.215 8.00667 10.3749 8.16651C10.5347 8.32634 10.6245 8.54313 10.6245 8.76917V11.4829C11.1227 11.6564 11.5546 11.9808 11.8602 12.4108C12.1657 12.8409 12.3299 13.3554 12.3299 13.8829C12.3299 14.4105 12.1657 14.925 11.8602 15.3551C11.5546 15.7851 11.1227 16.1094 10.6245 16.283V16.2796ZM16.5906 26.5071V29.2243C16.5906 29.4503 16.5008 29.6671 16.341 29.8269C16.1811 29.9868 15.9643 30.0766 15.7383 30.0766C15.5122 30.0766 15.2955 29.9868 15.1356 29.8269C14.9758 29.6671 14.886 29.4503 14.886 29.2243V26.5106C14.3878 26.337 13.9559 26.0127 13.6504 25.5826C13.3448 25.1526 13.1806 24.6381 13.1806 24.1105C13.1806 23.5829 13.3448 23.0684 13.6504 22.6384C13.9559 22.2083 14.3878 21.884 14.886 21.7104V8.76917C14.886 8.54313 14.9758 8.32634 15.1356 8.16651C15.2955 8.00667 15.5122 7.91687 15.7383 7.91687C15.9643 7.91687 16.1811 8.00667 16.341 8.16651C16.5008 8.32634 16.5906 8.54313 16.5906 8.76917V21.7104C17.0888 21.884 17.5206 22.2083 17.8262 22.6384C18.1318 23.0684 18.296 23.5829 18.296 24.1105C18.296 24.6381 18.1318 25.1526 17.8262 25.5826C17.5206 26.0127 17.0888 26.337 16.5906 26.5106V26.5071ZM22.5567 16.2796V29.2243C22.5567 29.4503 22.4669 29.6671 22.307 29.8269C22.1472 29.9868 21.9304 30.0766 21.7044 30.0766C21.4783 30.0766 21.2615 29.9868 21.1017 29.8269C20.9419 29.6671 20.8521 29.4503 20.8521 29.2243V16.283C20.3539 16.1094 19.922 15.7851 19.6164 15.3551C19.3108 14.925 19.1467 14.4105 19.1467 13.8829C19.1467 13.3554 19.3108 12.8409 19.6164 12.4108C19.922 11.9808 20.3539 11.6564 20.8521 11.4829V8.76917C20.8521 8.54313 20.9419 8.32634 21.1017 8.16651C21.2615 8.00667 21.4783 7.91687 21.7044 7.91687C21.9304 7.91687 22.1472 8.00667 22.307 8.16651C22.4669 8.32634 22.5567 8.54313 22.5567 8.76917V11.4829C23.0549 11.6564 23.4867 11.9808 23.7923 12.4108C24.0979 12.8409 24.262 13.3554 24.262 13.8829C24.262 14.4105 24.0979 14.925 23.7923 15.3551C23.4867 15.7851 23.0549 16.1094 22.5567 16.283V16.2796Z" fill="#A276E5"/>
</svg>
