<svg width="38" height="38" viewBox="0 0 38 38" fill="none" xmlns="http://www.w3.org/2000/svg">
<path d="M29.3684 10.8633L19.2622 6.59766H18.7372L8.63095 10.8633C8.53293 10.8924 8.44743 10.9534 8.38799 11.0366C8.32856 11.1198 8.29859 11.2205 8.30282 11.3227C8.2372 11.4539 4.75907 27.0727 18.8028 31.4695H19.1966C33.2403 27.0727 29.7622 11.4539 29.6966 11.3227C29.7008 11.2205 29.6708 11.1198 29.6114 11.0366C29.552 10.9534 29.4665 10.8924 29.3684 10.8633ZM18.9997 30.157C7.25282 26.3508 9.0247 14.1445 9.48407 11.9133L18.9997 7.91016L28.5153 11.9133C28.9747 14.1445 30.7466 26.3508 18.9997 30.157Z" fill="url(#paint0_linear_5319_7841)"/>
<path d="M5.21875 29.0397C3.06111 26.1393 1.90903 22.6139 1.9375 18.9991C1.95478 14.4791 3.75799 10.1493 6.95409 6.95315C10.1502 3.75705 14.4801 1.95385 19 1.93657C22.0559 1.93332 25.0535 2.77354 27.6625 4.36469C27.5821 4.64221 27.538 4.92897 27.5312 5.21782C27.5183 5.83488 27.7178 6.43766 28.0965 6.92507C28.4751 7.41248 29.0098 7.75489 29.6109 7.8949C30.2121 8.03491 30.843 7.96399 31.3981 7.69405C31.9531 7.4241 32.3985 6.97154 32.6595 6.41224C32.9205 5.85294 32.9813 5.22091 32.8316 4.62212C32.682 4.02332 32.3311 3.49418 31.8376 3.1234C31.3442 2.75262 30.7383 2.56276 30.1215 2.58564C29.5048 2.60852 28.9146 2.84275 28.45 3.24907C25.6623 1.57734 22.4809 0.675057 19.2306 0.63426C15.9803 0.593463 12.7773 1.41562 9.94851 3.01684C7.11967 4.61807 4.76623 6.94105 3.1283 9.74878C1.49036 12.5565 0.626547 15.7485 0.625 18.9991C0.624619 22.8935 1.86599 26.6865 4.16875 29.8272C4.22579 29.9129 4.30424 29.9822 4.39633 30.0283C4.48842 30.0743 4.59095 30.0955 4.69375 30.0897L5.0875 29.9584C5.21389 29.8452 5.29633 29.691 5.32034 29.523C5.34434 29.3549 5.30837 29.1838 5.21875 29.0397ZM30.1562 3.90532C30.4158 3.90532 30.6696 3.98229 30.8854 4.12651C31.1013 4.27073 31.2695 4.47572 31.3688 4.71554C31.4682 4.95537 31.4942 5.21927 31.4435 5.47387C31.3929 5.72847 31.2679 5.96234 31.0843 6.14589C30.9008 6.32945 30.6669 6.45445 30.4123 6.5051C30.1577 6.55574 29.8938 6.52975 29.654 6.43041C29.4142 6.33107 29.2092 6.16284 29.0649 5.947C28.9207 5.73116 28.8438 5.4774 28.8438 5.21782C28.8438 4.86972 28.982 4.53588 29.2282 4.28974C29.4743 4.0436 29.8082 3.90532 30.1562 3.90532Z" fill="url(#paint1_linear_5319_7841)"/>
<path d="M33.833 8.17266C33.7813 8.10371 33.7165 8.04563 33.6424 8.00172C33.5682 7.95781 33.4861 7.92894 33.4008 7.91675C33.3155 7.90456 33.2286 7.9093 33.1451 7.93069C33.0616 7.95208 32.9832 7.9897 32.9143 8.04141C32.8453 8.09311 32.7872 8.1579 32.7433 8.23205C32.6994 8.30621 32.6705 8.38829 32.6583 8.4736C32.6462 8.55891 32.6509 8.64579 32.6723 8.72927C32.6937 8.81276 32.7313 8.89121 32.783 8.96016C34.9406 11.8606 36.0927 15.3859 36.0643 19.0008C36.047 23.5207 34.2438 27.8506 31.0477 31.0467C27.8516 34.2428 23.5217 36.046 19.0018 36.0633C15.9458 36.0665 12.9483 35.2263 10.3393 33.6352C10.4196 33.3576 10.4638 33.0709 10.4705 32.782C10.4835 32.165 10.2839 31.5622 9.90528 31.0748C9.52663 30.5874 8.99193 30.245 8.39081 30.105C7.7897 29.9649 7.15872 30.0359 6.60368 30.3058C6.04864 30.5757 5.60328 31.0283 5.34227 31.5876C5.08127 32.1469 5.02048 32.7789 5.17011 33.3777C5.31974 33.9765 5.67069 34.5057 6.16411 34.8764C6.65754 35.2472 7.26343 35.4371 7.88021 35.4142C8.49699 35.3913 9.08716 35.1571 9.55175 34.7508C12.3395 36.4225 15.5208 37.3248 18.7711 37.3656C22.0215 37.4064 25.2244 36.5842 28.0532 34.983C30.8821 33.3818 33.2355 31.0588 34.8735 28.2511C36.5114 25.4433 37.3752 22.2514 37.3768 19.0008C37.3771 15.1064 36.1358 11.3133 33.833 8.17266ZM7.8455 34.0945C7.58591 34.0945 7.33215 34.0176 7.11631 33.8733C6.90048 33.7291 6.73225 33.5241 6.63291 33.2843C6.53357 33.0445 6.50758 32.7806 6.55822 32.526C6.60886 32.2714 6.73387 32.0375 6.91742 31.854C7.10098 31.6704 7.33484 31.5454 7.58944 31.4948C7.84404 31.4441 8.10794 31.4701 8.34777 31.5694C8.5876 31.6688 8.79259 31.837 8.9368 32.0528C9.08102 32.2687 9.158 32.5224 9.158 32.782C9.158 33.1301 9.01972 33.464 8.77358 33.7101C8.52744 33.9563 8.1936 34.0945 7.8455 34.0945Z" fill="url(#paint2_linear_5319_7841)"/>
<path d="M22.2812 17.0312H21.625V15.7188C21.625 15.0226 21.3484 14.3549 20.8562 13.8626C20.3639 13.3703 19.6962 13.0938 19 13.0938C18.3038 13.0938 17.6361 13.3703 17.1438 13.8626C16.6516 14.3549 16.375 15.0226 16.375 15.7188V17.0312H15.7188C15.3707 17.0312 15.0368 17.1695 14.7907 17.4157C14.5445 17.6618 14.4062 17.9957 14.4062 18.3438V22.2812C14.4062 22.6293 14.5445 22.9632 14.7907 23.2093C15.0368 23.4555 15.3707 23.5938 15.7188 23.5938H22.2812C22.6293 23.5938 22.9632 23.4555 23.2093 23.2093C23.4555 22.9632 23.5938 22.6293 23.5938 22.2812V18.3438C23.5938 17.9957 23.4555 17.6618 23.2093 17.4157C22.9632 17.1695 22.6293 17.0312 22.2812 17.0312ZM17.6875 15.7188C17.6875 15.3707 17.8258 15.0368 18.0719 14.7907C18.3181 14.5445 18.6519 14.4062 19 14.4062C19.3481 14.4062 19.6819 14.5445 19.9281 14.7907C20.1742 15.0368 20.3125 15.3707 20.3125 15.7188V17.0312H17.6875V15.7188ZM15.7188 22.2812V18.3438H22.2812V22.2812H15.7188Z" fill="url(#paint3_linear_5319_7841)"/>
<defs>
<linearGradient id="paint0_linear_5319_7841" x1="18.9997" y1="6.59766" x2="18.9997" y2="35.8023" gradientUnits="userSpaceOnUse">
<stop stop-color="#F4853B"/>
<stop offset="1" stop-color="#3448F5"/>
</linearGradient>
<linearGradient id="paint1_linear_5319_7841" x1="16.7685" y1="0.632812" x2="16.7685" y2="35.2223" gradientUnits="userSpaceOnUse">
<stop stop-color="#F4853B"/>
<stop offset="1" stop-color="#3448F5"/>
</linearGradient>
<linearGradient id="paint2_linear_5319_7841" x1="21.2333" y1="7.91016" x2="21.2333" y2="42.4985" gradientUnits="userSpaceOnUse">
<stop stop-color="#F4853B"/>
<stop offset="1" stop-color="#3448F5"/>
</linearGradient>
<linearGradient id="paint3_linear_5319_7841" x1="19" y1="13.0938" x2="19" y2="25.4229" gradientUnits="userSpaceOnUse">
<stop stop-color="#F4853B"/>
<stop offset="1" stop-color="#3448F5"/>
</linearGradient>
</defs>
</svg>
