<svg width="42" height="42" viewBox="0 0 42 42" fill="none" xmlns="http://www.w3.org/2000/svg">
<path d="M11.2729 28.1679C11.6169 27.6416 11.8227 26.9944 11.8227 26.2926C11.8227 24.5412 10.5564 23.1161 8.99947 23.1161C7.44211 23.1161 6.17623 24.5407 6.17623 26.2926C6.17623 26.9944 6.38203 27.6416 6.72601 28.1679C5.19595 28.5543 4.05859 29.9382 4.05859 31.5862V33.1482C4.05859 33.3868 4.17955 33.609 4.37863 33.7392C5.75875 34.6392 7.35643 35.1151 8.99947 35.1151C10.6425 35.1151 12.2406 34.6392 13.6203 33.7392C13.8198 33.609 13.9404 33.3868 13.9404 33.1482V31.5862C13.9404 29.9377 12.803 28.5538 11.2729 28.1679ZM5.47021 31.5858C5.47021 30.4182 6.42025 29.4682 7.58785 29.4682H8.99947H10.4111C11.5787 29.4682 12.5287 30.4182 12.5287 31.5858V32.7538C10.3809 33.9979 7.61809 33.9979 5.47021 32.7538V31.5858ZM8.99947 24.5277C9.77773 24.5277 10.4111 25.3194 10.4111 26.2921C10.4111 27.2649 9.77773 28.0566 8.99947 28.0566C8.22121 28.0566 7.58785 27.2649 7.58785 26.2921C7.58785 25.3194 8.22121 24.5277 8.99947 24.5277ZM35.2709 28.1679C35.6149 27.6416 35.8207 26.9944 35.8207 26.2926C35.8207 24.5412 34.5544 23.1161 32.9974 23.1161C31.4405 23.1161 30.1742 24.5407 30.1742 26.2926C30.1742 26.9944 30.38 27.6416 30.724 28.1679C29.1939 28.5543 28.0566 29.9382 28.0566 31.5862V33.1482C28.0566 33.3868 28.1775 33.609 28.3766 33.7392C29.7567 34.6392 31.3544 35.1151 32.9974 35.1151C34.6409 35.1151 36.2382 34.6392 37.6183 33.7392C37.8178 33.609 37.9383 33.3868 37.9383 33.1482V31.5862C37.9383 29.9377 36.801 28.5538 35.2709 28.1679ZM29.4682 31.5858C29.4682 30.4182 30.4182 29.4682 31.5858 29.4682H32.9974H34.4091C35.5767 29.4682 36.5267 30.4182 36.5267 31.5858V32.7538C34.3788 33.9979 31.6161 33.9979 29.4682 32.7538V31.5858ZM32.9974 24.5277C33.7757 24.5277 34.4091 25.3194 34.4091 26.2921C34.4091 27.2649 33.7757 28.0566 32.9974 28.0566C32.2192 28.0566 31.5858 27.2649 31.5858 26.2921C31.5858 25.3194 32.2192 24.5277 32.9974 24.5277ZM6.17623 20.2924H11.8227C12.2129 20.2924 12.5287 19.9766 12.5287 19.5868V11.8227C12.5287 11.433 12.2129 11.1167 11.8227 11.1167H6.17623C5.78605 11.1167 5.47021 11.433 5.47021 11.8227V19.5868C5.47021 19.9766 5.78605 20.2924 6.17623 20.2924ZM6.88183 12.5283H11.1167V18.8808H6.88183V12.5283ZM30.1742 20.2924H35.8207C36.2109 20.2924 36.5267 19.9766 36.5267 19.5868V4.76461C36.5267 4.37485 36.2109 4.05859 35.8207 4.05859H30.1742C29.784 4.05859 29.4682 4.37443 29.4682 4.76461V19.5868C29.4682 19.9766 29.784 20.2924 30.1742 20.2924ZM30.8798 5.47021H35.1151V18.8808H30.8798V5.47021ZM9.70549 37.2327C9.70549 37.6208 9.38755 37.9383 8.99947 37.9383H6.17623C5.78815 37.9383 5.47021 37.6208 5.47021 37.2327C5.47021 36.8442 5.78815 36.5271 6.17623 36.5271H8.99947C9.38755 36.5267 9.70549 36.8442 9.70549 37.2327ZM12.5287 37.2327C12.5287 37.6208 12.2108 37.9383 11.8227 37.9383C11.4346 37.9383 11.1171 37.6208 11.1171 37.2327C11.1171 36.8442 11.4346 36.5271 11.8227 36.5271C12.2108 36.5271 12.5287 36.8442 12.5287 37.2327ZM36.5267 37.2327C36.5267 37.6225 36.2109 37.9383 35.8207 37.9383H30.1742C29.784 37.9383 29.4682 37.6225 29.4682 37.2327C29.4682 36.843 29.784 36.5271 30.1742 36.5271H35.8207C36.2109 36.5267 36.5267 36.843 36.5267 37.2327ZM27.3266 19.5801C27.3757 19.3983 27.3493 19.2051 27.2548 19.0421L25.8301 16.5973C25.6361 16.2625 25.2085 16.147 24.8696 16.3398L23.828 16.9362C23.6067 16.7842 23.3731 16.6506 23.1291 16.536V15.3516C23.1291 14.9618 22.8137 14.646 22.4235 14.646H19.5738C19.1836 14.646 18.8682 14.9618 18.8682 15.3516V16.536C18.6242 16.6506 18.3907 16.7842 18.1693 16.9362L17.1277 16.3398C16.7892 16.147 16.3612 16.2625 16.1672 16.5973L14.7426 19.0421C14.6481 19.2051 14.622 19.3983 14.6712 19.5801C14.7195 19.762 14.8387 19.9165 15.0017 20.0102L16.037 20.6024C16.0252 20.7368 16.0198 20.8687 16.0198 20.9985C16.0198 21.1282 16.0252 21.2605 16.037 21.3945L15.0017 21.9871C14.8383 22.0804 14.719 22.2354 14.6712 22.4168C14.622 22.5987 14.6481 22.7923 14.7426 22.9548L16.1672 25.3996C16.3617 25.7348 16.7896 25.8507 17.1277 25.6567L18.1693 25.0607C18.3907 25.2127 18.6242 25.3459 18.8682 25.461V26.6454C18.8682 27.0351 19.1836 27.3514 19.5738 27.3514H22.4235C22.8137 27.3514 23.1291 27.0351 23.1291 26.6454V25.461C23.3731 25.3463 23.6067 25.2127 23.828 25.0607L24.8696 25.6567C25.2085 25.8507 25.6361 25.7344 25.8301 25.3996L27.2548 22.9548C27.3493 22.7923 27.3753 22.5987 27.3266 22.4168C27.2787 22.2354 27.159 22.0804 26.9956 21.9871L25.9603 21.3945C25.9721 21.2605 25.9776 21.1282 25.9776 20.9985C25.9776 20.8683 25.9721 20.7364 25.9603 20.6024L26.9956 20.0102C27.1594 19.917 27.2787 19.762 27.3266 19.5801ZM24.8465 19.6137C24.5861 19.7628 24.4483 20.0606 24.5034 20.3563C24.5454 20.5806 24.5664 20.791 24.5664 20.9989C24.5664 21.2068 24.5458 21.4168 24.5034 21.6411C24.4483 21.9363 24.5861 22.2341 24.8465 22.3832L25.6773 22.8586L24.9633 24.0838L24.1237 23.6033C23.8658 23.4559 23.5441 23.4857 23.3164 23.6776C22.9851 23.9586 22.6058 24.1753 22.1896 24.3215C21.9065 24.4206 21.7175 24.6877 21.7175 24.9876V25.9393H20.2798V24.9876C20.2798 24.6882 20.0908 24.421 19.8078 24.3215C19.3915 24.1749 19.0123 23.9586 18.6809 23.6776C18.4549 23.4857 18.1324 23.4559 17.8737 23.6033L17.0341 24.0838L16.3197 22.8586L17.1504 22.3832C17.4108 22.2341 17.549 21.9363 17.4936 21.6411C17.4516 21.4168 17.4306 21.2064 17.4306 20.9989C17.4306 20.791 17.4511 20.5806 17.4936 20.3563C17.549 20.061 17.4108 19.7632 17.1504 19.6137L16.3197 19.1387L17.0341 17.9136L17.8737 18.394C18.132 18.5415 18.4545 18.5121 18.6809 18.3197C19.0123 18.0383 19.3915 17.822 19.8078 17.6754C20.0908 17.5763 20.2798 17.3092 20.2798 17.0097V16.0576H21.7175V17.0097C21.7175 17.3096 21.9069 17.5767 22.1896 17.6758C22.6054 17.8216 22.9842 18.0379 23.3164 18.3197C23.5441 18.5121 23.8658 18.5415 24.1237 18.394L24.9633 17.9136L25.6773 19.1387L24.8465 19.6137ZM20.9985 18.8808C19.8237 18.8808 18.8678 19.8309 18.8678 20.9985C18.8678 22.1661 19.8237 23.1157 20.9985 23.1157C22.1732 23.1157 23.1291 22.1661 23.1291 20.9985C23.1291 19.8309 22.1732 18.8808 20.9985 18.8808ZM20.9985 21.7045C20.602 21.7045 20.2794 21.3878 20.2794 20.9989C20.2794 20.6095 20.602 20.2929 20.9985 20.2929C21.3949 20.2929 21.7175 20.6095 21.7175 20.9989C21.7175 21.3874 21.3949 21.7045 20.9985 21.7045ZM20.2929 12.5283V4.76461C20.2929 4.37485 20.6083 4.05859 20.9985 4.05859C21.3886 4.05859 21.7045 4.37443 21.7045 4.76461V12.5287C21.7045 12.9185 21.3886 13.2348 20.9985 13.2348C20.6083 13.2343 20.2929 12.9185 20.2929 12.5283ZM21.7045 29.4686V37.2327C21.7045 37.6225 21.3886 37.9383 20.9985 37.9383C20.6083 37.9383 20.2929 37.6225 20.2929 37.2327V29.4686C20.2929 29.0788 20.6083 28.763 20.9985 28.763C21.3886 28.7626 21.7045 29.0788 21.7045 29.4686Z" fill="url(#paint0_linear_5319_8086)"/>
<defs>
<linearGradient id="paint0_linear_5319_8086" x1="20.9985" y1="4.05859" x2="20.9985" y2="43.8403" gradientUnits="userSpaceOnUse">
<stop stop-color="#F4853B"/>
<stop offset="1" stop-color="#3448F5"/>
</linearGradient>
</defs>
</svg>
