<svg width="42" height="42" viewBox="0 0 42 42" fill="none" xmlns="http://www.w3.org/2000/svg">
<g clip-path="url(#clip0_5319_8106)">
<path d="M7.30176 5.65527C14.8713 -1.91425 27.1414 -1.91425 34.7109 5.65527L35.0352 5.98828C38.3407 9.47056 40.3758 14.1753 40.3838 19.3594C40.3838 23.3582 39.1716 27.0772 37.0938 30.1611C34.9899 33.284 32.0092 35.7596 28.4951 37.2373C28.1342 38.0077 27.6636 38.717 27.0967 39.332L26.8438 39.5938C23.6137 42.8236 18.382 42.8239 15.1602 39.5938V39.5928C14.4804 38.9128 13.9222 38.1196 13.5088 37.2373C9.99499 35.7595 7.01484 33.2838 4.91113 30.1611C-0.258847 22.4679 0.763199 12.194 7.30176 5.65527ZM26.1201 28.6338C23.2881 25.8019 18.708 25.8018 15.876 28.6338C13.0522 31.4658 13.0523 36.0459 15.876 38.8779L16.1465 39.1348C18.9925 41.7072 23.3764 41.6216 26.1201 38.8779C28.9522 36.0459 28.9522 31.4658 26.1201 28.6338ZM20.998 27.8281C21.1216 27.8281 21.2492 27.8683 21.3467 27.9541C21.446 28.0416 21.5088 28.1712 21.5088 28.334V29.2139C22.1724 29.2986 22.8294 29.5612 23.3291 29.9727C23.8526 30.4037 24.207 31.0008 24.207 31.7217C24.207 31.8845 24.1443 32.0141 24.0449 32.1016C23.9475 32.1872 23.8207 32.2275 23.6973 32.2275C23.5737 32.2275 23.4461 32.1873 23.3486 32.1016C23.2493 32.0141 23.1865 31.8845 23.1865 31.7217C23.1865 31.0699 22.6153 30.545 21.8271 30.3164C21.0445 30.0895 20.0926 30.172 19.4014 30.6943C19.0321 30.9775 18.8096 31.3444 18.8096 31.7217C18.8096 32.0304 18.8892 32.2632 19.0225 32.4443C19.1566 32.6264 19.351 32.7644 19.5938 32.874C20.0855 33.0961 20.7435 33.1902 21.4268 33.3164C22.0999 33.4407 22.7948 33.5966 23.3203 33.9521C23.8549 34.314 24.2069 34.8773 24.207 35.79C24.207 36.5148 23.8526 37.1118 23.3291 37.542C22.8293 37.9525 22.1722 38.2123 21.5088 38.2969V39.1699C21.5088 39.3327 21.446 39.4623 21.3467 39.5498C21.2492 39.6356 21.1216 39.6758 20.998 39.6758C20.8746 39.6757 20.7478 39.6355 20.6504 39.5498C20.551 39.4623 20.4883 39.3328 20.4883 39.1699V38.2969C19.8246 38.2122 19.1678 37.9505 18.668 37.5391C18.1445 37.108 17.7891 36.5109 17.7891 35.79C17.7892 35.6275 17.852 35.4985 17.9512 35.4111C18.0487 35.3253 18.1762 35.2842 18.2998 35.2842C18.4233 35.2843 18.5501 35.3254 18.6475 35.4111C18.7467 35.4985 18.8095 35.6275 18.8096 35.79C18.8096 36.4374 19.3822 36.9626 20.1729 37.1924C20.9579 37.4205 21.9123 37.3407 22.6035 36.8184V36.8174C22.9707 36.5439 23.1865 36.1772 23.1865 35.79C23.1865 35.4816 23.1078 35.2494 22.9746 35.0684C22.8404 34.8859 22.6455 34.7475 22.4023 34.6377C21.9107 34.4157 21.2534 34.3224 20.5703 34.1963C19.8972 34.072 19.2023 33.916 18.6768 33.5605C18.1418 33.1986 17.7891 32.635 17.7891 31.7217C17.7891 30.9968 18.1443 30.3999 18.668 29.9697C19.1679 29.5592 19.8248 29.2983 20.4883 29.2139V28.334C20.4883 28.1711 20.551 28.0416 20.6504 27.9541C20.7478 27.8685 20.8746 27.8282 20.998 27.8281ZM5.35547 28.9746C7.19197 31.9479 9.8471 34.3558 13.0156 35.8965C12.694 34.6851 12.6448 33.3955 12.8887 32.1533C10.9761 30.9357 9.34863 29.3025 8.14355 27.3682L5.35547 28.9746ZM33.8525 27.3691C32.6476 29.2956 31.0274 30.9364 29.1064 32.1543C29.3503 33.3958 29.3091 34.6848 28.9814 35.8965C32.1501 34.3634 34.812 31.9554 36.6406 28.9824L33.8525 27.3691ZM30.9844 9.38184C25.4699 3.8674 16.5266 3.86727 11.0039 9.38184C4.68978 15.6961 5.77224 26.1876 13.168 31.1221C14.2847 27.81 17.3982 25.4942 20.998 25.4941C24.5975 25.4941 27.7179 27.81 28.8271 31.1221C36.2237 26.188 37.307 15.7045 30.9844 9.38184ZM2.64551 19.8701C2.72551 22.8466 3.51045 25.6419 4.84375 28.0967L7.63281 26.4902C6.57687 24.5068 5.94555 22.2596 5.86621 19.8701H2.64551ZM36.1387 19.8701C36.0593 22.2595 35.426 24.5057 34.3623 26.4893L37.1514 28.0967C38.485 25.634 39.2716 22.8467 39.3516 19.8701H36.1387ZM20.4971 9.23242C20.5698 8.63538 21.436 8.64517 21.5078 9.24023L22.4854 16.7383C24.2107 17.713 24.5491 20.0759 23.1357 21.4893C21.9565 22.6683 20.0562 22.6684 18.877 21.4893C17.4554 20.076 17.7937 17.7132 19.5186 16.7383L20.4971 9.23242ZM22.9902 19.3682C22.9902 17.6035 20.8423 16.7127 19.5928 17.9619H19.5918C18.8112 18.7347 18.8113 19.992 19.5928 20.7734C20.8422 22.0227 22.9899 21.1326 22.9902 19.3682ZM4.84375 10.6299C3.51777 13.0851 2.72565 15.8809 2.64551 18.8574H5.85742C5.94451 16.4677 6.5766 14.2201 7.63281 12.2363L4.84375 10.6299ZM34.3623 12.2285C35.4264 14.22 36.0593 16.4672 36.1309 18.8496H39.3516C39.2716 15.8723 38.4842 13.0773 37.1504 10.6221L34.3623 12.2285ZM20.5889 16.3789C20.8592 16.3406 21.1359 16.3407 21.4062 16.3789L20.998 13.2412L20.5889 16.3789ZM29.0068 6.50488C30.9665 7.72991 32.6273 9.39005 33.8525 11.3574L36.6406 9.75195C35.1289 7.30572 33.0669 5.23608 30.6133 3.73242L29.0068 6.50488ZM11.3818 3.7168C8.92879 5.22821 6.8669 7.29752 5.35547 9.74316L8.14355 11.3496C9.36859 9.39026 11.0289 7.72992 12.9883 6.50488L11.3818 3.7168ZM20.4883 1.01367C17.5111 1.09359 14.7159 1.88114 12.2607 3.21484L13.8662 6.00195C15.8502 4.93779 18.0983 4.30681 20.4883 4.22754V1.01367ZM21.5088 4.22754C23.8982 4.30688 26.1454 4.93822 28.1289 6.00195L29.7354 3.21387C27.2805 1.88048 24.4854 1.09367 21.5088 1.01367V4.22754Z" fill="url(#paint0_linear_5319_8106)" stroke="url(#paint1_linear_5319_8106)" stroke-width="0.2"/>
</g>
<defs>
<linearGradient id="paint0_linear_5319_8106" x1="21.0032" y1="0.078125" x2="21.0032" y2="49.2044" gradientUnits="userSpaceOnUse">
<stop stop-color="#F4853B"/>
<stop offset="1" stop-color="#3448F5"/>
</linearGradient>
<linearGradient id="paint1_linear_5319_8106" x1="21.0032" y1="0.078125" x2="21.0032" y2="49.2044" gradientUnits="userSpaceOnUse">
<stop stop-color="#F4853B"/>
<stop offset="1" stop-color="#3448F5"/>
</linearGradient>
<clipPath id="clip0_5319_8106">
<rect width="42" height="42" fill="white"/>
</clipPath>
</defs>
</svg>
