<svg width="42" height="42" viewBox="0 0 42 42" fill="none" xmlns="http://www.w3.org/2000/svg">
<path d="M41.6645 24.203C41.2921 23.5287 40.7023 23.0693 39.9574 22.8757L32.0201 20.8176L32.331 19.8586L32.5131 19.9177C32.6279 19.9554 32.7444 19.9727 32.8593 19.9727C33.3301 19.9727 33.7698 19.6716 33.9248 19.1983L34.7337 16.7029C34.9256 16.1164 34.6049 15.4839 34.0175 15.292L29.5764 13.8531V7.47027C29.5764 5.27266 27.7881 3.48438 25.5905 3.48438H3.98344C1.78746 3.48438 0 5.27266 0 7.47027V18.0974C0 18.8103 0.579961 19.3902 1.29281 19.3902H6.65766V35.4437C6.65766 36.0319 7.13672 36.511 7.72488 36.511H19.5144V37.862C19.5144 38.2246 19.8081 38.5175 20.1698 38.5175H33.1144C33.477 38.5175 33.7698 38.2238 33.7698 37.862V36.2944C33.7698 35.0689 32.7723 34.0714 31.5468 34.0714H31.4959V33.288C31.4959 32.4496 30.8134 31.7671 29.975 31.7671H29.5747V30.8385C29.9447 30.7524 30.263 30.4809 30.3893 30.0953L31.1981 27.5975C31.2908 27.3136 31.267 27.0109 31.1325 26.7452C30.9971 26.4794 30.7666 26.2817 30.482 26.189L30.2966 26.1291L30.6075 25.1702L38.2413 28.1627C38.5711 28.2923 38.9074 28.3571 39.2421 28.3571C39.635 28.3571 40.0263 28.2677 40.402 28.0896C41.0845 27.7681 41.6136 27.1578 41.8556 26.4154C42.0976 25.6714 42.0287 24.8658 41.6645 24.203ZM32.7362 18.6118L32.1333 18.4165C32.1259 18.4141 32.1193 18.4108 32.112 18.4083C32.1046 18.4059 32.0972 18.4042 32.0898 18.4026L27.7348 16.9908C27.7282 16.9884 27.7216 16.9851 27.7151 16.9834C27.7085 16.981 27.7011 16.9802 27.6946 16.9777L27.0933 16.7833L27.784 14.6521L28.715 14.954C28.72 14.9556 28.7257 14.9573 28.7306 14.9589L33.4269 16.4806L32.7362 18.6118ZM1.31168 7.47027C1.31168 5.99617 2.51016 4.79605 3.98344 4.79605C5.45754 4.79605 6.65766 5.99535 6.65766 7.47027V18.0786H1.31168V7.47027ZM32.4589 36.2944V37.2058H20.8253V36.2944C20.8253 35.7916 21.233 35.383 21.7342 35.383H31.5468C32.0504 35.383 32.4589 35.7924 32.4589 36.2944ZM30.185 33.288V34.0714H23.1V33.288C23.1 33.1748 23.1952 33.0788 23.3067 33.0788H29.9759C30.0891 33.0788 30.185 33.1748 30.185 33.288ZM23.3067 31.7671C22.4692 31.7671 21.7883 32.4496 21.7883 33.288V34.0714H21.735C20.9081 34.0714 20.1863 34.5266 19.804 35.1993H7.96934V18.0974V7.47027C7.96934 6.44242 7.57805 5.50398 6.93656 4.79605H25.5905C27.0654 4.79605 28.2647 5.99535 28.2647 7.47027V13.4282L28.0055 13.3445C27.7208 13.2518 27.4173 13.2756 27.1507 13.4126C26.8866 13.5488 26.6897 13.7785 26.597 14.0631L25.7882 16.5602C25.5979 17.1459 25.9186 17.7783 26.5051 17.9695L26.688 18.0285L24.6561 24.2973L24.4683 24.2366C23.8842 24.0496 23.2542 24.372 23.0631 24.9569L22.2543 27.4555C22.0631 28.0404 22.3839 28.6721 22.9704 28.8632L28.2655 30.5818V31.7671H23.3067ZM29.2023 29.508L29.1375 29.4866C29.126 29.4825 29.1145 29.4784 29.1022 29.4752L23.561 27.6762L24.2509 25.545L24.8711 25.746C24.8727 25.7468 24.8735 25.7468 24.8752 25.7477C24.876 25.7477 24.8768 25.7477 24.8776 25.7485L29.893 27.376L29.2023 29.508ZM25.9022 24.7026L27.9341 18.4337L31.0833 19.455L29.0489 25.7239L25.9022 24.7026ZM40.6087 26.0093C40.4783 26.4096 40.1994 26.7353 39.8418 26.9035C39.4702 27.079 39.1035 27.0921 38.7204 26.9412L31.0136 23.92L31.6148 22.0677L39.6277 24.1456C40.0263 24.2489 40.3167 24.4753 40.5152 24.8355C40.7055 25.1808 40.7392 25.6082 40.6087 26.0093ZM39.608 25.6845C39.5161 25.9601 39.2585 26.1365 38.9829 26.1365C38.9148 26.1365 38.8459 26.1258 38.7778 26.1028C38.4341 25.988 38.2471 25.6205 38.3619 25.2768L38.3644 25.2702C38.4792 24.9265 38.85 24.7411 39.1937 24.8552C39.5374 24.97 39.7228 25.3416 39.608 25.6845ZM10.1793 16.972C9.92332 16.716 9.92414 16.3001 10.1801 16.0442C10.436 15.7882 10.8519 15.7891 11.1079 16.045L12.0209 16.9596L13.8846 15.0959C14.1405 14.84 14.5556 14.84 14.8116 15.0959C15.0675 15.3518 15.0675 15.7669 14.8116 16.0229L12.4843 18.3501C12.3613 18.4731 12.1948 18.542 12.0209 18.542C11.847 18.542 11.6804 18.4731 11.5574 18.3493L10.1793 16.972ZM14.8116 21.6469C15.0675 21.9029 15.0675 22.3179 14.8107 22.5739L12.4835 24.8995C12.3555 25.0274 12.1882 25.0914 12.02 25.0914C11.8519 25.0914 11.6845 25.0274 11.5566 24.8995L10.1801 23.523C9.92414 23.267 9.92414 22.852 10.1801 22.596C10.436 22.3401 10.8511 22.3401 11.107 22.596L12.02 23.509L13.8838 21.6469C14.1405 21.391 14.5556 21.391 14.8116 21.6469ZM14.8107 28.1946C15.0667 28.4506 15.0667 28.8657 14.8107 29.1216L12.4835 31.4496C12.3605 31.5727 12.1939 31.6416 12.02 31.6416C11.8461 31.6416 11.6788 31.5727 11.5566 31.4488L10.1801 30.0699C9.92414 29.8139 9.92496 29.398 10.1809 29.1429C10.4368 28.887 10.8527 28.8878 11.1079 29.1437L12.0209 30.0584L13.8846 28.1946C14.1397 27.9387 14.5548 27.9387 14.8107 28.1946ZM10.1793 10.4242C9.92332 10.1683 9.92332 9.7532 10.1793 9.49727C10.4352 9.24133 10.8503 9.24133 11.1062 9.49727L12.0192 10.4103L13.883 8.54652C14.1389 8.29059 14.554 8.29059 14.8099 8.54652C15.0659 8.80246 15.0659 9.21754 14.8099 9.47348L12.4827 11.8007C12.3547 11.9287 12.1866 11.9927 12.0192 11.9927C11.8519 11.9927 11.6837 11.9287 11.5557 11.8007L10.1793 10.4242ZM17.1544 10.1748C17.1544 9.81226 17.448 9.51941 17.8098 9.51941H25.5929C25.9547 9.51941 26.2484 9.81309 26.2484 10.1748C26.2484 10.5366 25.9547 10.8303 25.5929 10.8303H17.8098C17.4472 10.8303 17.1544 10.5366 17.1544 10.1748ZM17.1544 16.7226C17.1544 16.3608 17.448 16.0671 17.8098 16.0671H23.8325C24.1951 16.0671 24.488 16.3608 24.488 16.7226C24.488 17.0843 24.1943 17.378 23.8325 17.378H17.8098C17.4472 17.3788 17.1544 17.0852 17.1544 16.7226ZM21.8859 23.929H17.8098C17.4472 23.929 17.1544 23.6354 17.1544 23.2736C17.1544 22.9118 17.448 22.6182 17.8098 22.6182H21.8859C22.2485 22.6182 22.5414 22.9118 22.5414 23.2736C22.5414 23.6354 22.2485 23.929 21.8859 23.929ZM21.7235 29.8213C21.7235 30.1839 21.4298 30.4768 21.0681 30.4768H17.8106C17.448 30.4768 17.1552 30.1831 17.1552 29.8213C17.1552 29.4596 17.4489 29.1659 17.8106 29.1659H21.0681C21.4298 29.1651 21.7235 29.4587 21.7235 29.8213Z" fill="url(#paint0_linear_5326_10286)"/>
<defs>
<linearGradient id="paint0_linear_5326_10286" x1="20.9989" y1="3.48437" x2="20.9989" y2="44.6204" gradientUnits="userSpaceOnUse">
<stop stop-color="#F4853B"/>
<stop offset="1" stop-color="#3448F5"/>
</linearGradient>
</defs>
</svg>
