<svg width="42" height="42" viewBox="0 0 42 42" fill="none" xmlns="http://www.w3.org/2000/svg">
<mask id="path-1-outside-1_5319_7706" maskUnits="userSpaceOnUse" x="1.51172" y="-0.0976562" width="39" height="42" fill="black">
<rect fill="white" x="1.51172" y="-0.0976562" width="39" height="42"/>
<path d="M20.5118 26.122C20.5594 26.1417 20.671 26.2032 20.6849 26.3575L20.7801 27.3796C20.8326 27.9464 21.2657 28.3836 21.8317 28.4427C22.0901 28.4698 22.3502 28.4829 22.6102 28.4829C22.8891 28.4829 23.1688 28.4673 23.4461 28.4361C24.0121 28.373 24.442 27.9325 24.4895 27.3648L24.5765 26.3411C24.5896 26.1868 24.7004 26.1245 24.7479 26.1048C24.7947 26.0851 24.9177 26.0498 25.0367 26.1483L25.8266 26.8037C26.2647 27.1671 26.8799 27.1712 27.3221 26.8119C27.7404 26.4723 28.1235 26.0859 28.4598 25.6651C28.815 25.2197 28.8068 24.6053 28.4393 24.1697L27.7773 23.3855C27.6773 23.2673 27.7117 23.1443 27.7314 23.0967C27.7511 23.0491 27.8126 22.9376 27.9668 22.9236L28.9889 22.8285C29.5558 22.776 29.993 22.3437 30.0521 21.7768C30.1078 21.2412 30.1054 20.6981 30.0463 20.1625C29.9832 19.5956 29.5427 19.1666 28.975 19.1182L27.9521 19.0312C27.7979 19.0181 27.7355 18.9074 27.7158 18.8598C27.6961 18.813 27.6609 18.69 27.7593 18.5711L28.4147 17.7811C28.7789 17.343 28.7822 16.7278 28.4229 16.2857C28.0833 15.8673 27.697 15.4842 27.2761 15.1479C26.8307 14.7927 26.2163 14.8009 25.7807 15.1684L24.9965 15.8304C24.8784 15.9305 24.7553 15.896 24.7077 15.8763C24.6602 15.8566 24.5486 15.7951 24.5346 15.6409L24.4395 14.6188C24.387 14.052 23.9547 13.6147 23.3879 13.5557C22.8522 13.4999 22.3091 13.5023 21.7727 13.5614C21.2066 13.6246 20.7768 14.0651 20.7292 14.6327L20.6423 15.6557C20.6291 15.8099 20.5184 15.8722 20.4708 15.8919C20.4232 15.9116 20.301 15.9469 20.1821 15.8484L19.3921 15.193C18.9541 14.8288 18.3388 14.8255 17.8967 15.1848C17.4783 15.5244 17.0952 15.9108 16.7589 16.3316C16.4037 16.777 16.4119 17.3914 16.7794 17.827L17.4414 18.6112C17.5415 18.7294 17.507 18.8524 17.4873 18.9C17.4677 18.9476 17.4061 19.0591 17.2519 19.0731L16.2298 19.1682C15.663 19.2207 15.2257 19.653 15.1667 20.2199C15.1109 20.7555 15.1134 21.2986 15.1724 21.8343C15.2356 22.4011 15.6761 22.8301 16.2437 22.8785L17.2667 22.9655C17.4209 22.9786 17.4832 23.0893 17.5029 23.1369C17.5226 23.1837 17.5579 23.3067 17.4595 23.4257L16.804 24.2156C16.4398 24.6537 16.4365 25.2689 16.7958 25.7111C17.1354 26.1294 17.5218 26.5125 17.9426 26.8488C18.3872 27.204 19.0025 27.1958 19.438 26.8283L20.2223 26.1663C20.3412 26.0687 20.4643 26.1032 20.5118 26.122ZM18.9098 26.2032C18.7752 26.3164 18.5931 26.3189 18.4553 26.209C18.0796 25.9096 17.7359 25.5683 17.4332 25.1951C17.3225 25.0581 17.3233 24.876 17.4357 24.7406L18.0911 23.9507C18.3544 23.6332 18.4192 23.2009 18.2601 22.8211C18.1009 22.4413 17.7474 22.1845 17.3364 22.1493L16.3127 22.0623C16.1371 22.0475 16.0067 21.9196 15.987 21.7448C15.9337 21.2674 15.932 20.7834 15.9812 20.306C15.9993 20.1313 16.1289 20.0025 16.3045 19.9861L17.3266 19.8909C17.7375 19.8532 18.0895 19.5923 18.2453 19.2117C18.4012 18.8311 18.3331 18.3988 18.0673 18.0838L17.4053 17.2996C17.2921 17.165 17.2896 16.9821 17.3987 16.8451C17.6982 16.4702 18.0394 16.1257 18.4127 15.823C18.5488 15.7123 18.7318 15.7131 18.8671 15.8255L19.6571 16.4809C19.9745 16.7442 20.4077 16.809 20.7866 16.6499C21.1664 16.4907 21.4232 16.1372 21.4585 15.7262L21.5454 14.7033C21.5602 14.5277 21.6882 14.3973 21.8629 14.3776C22.3403 14.3243 22.8243 14.3227 23.3017 14.3719C23.4764 14.3899 23.6052 14.5195 23.6216 14.6951L23.7168 15.7172C23.7545 16.1273 24.0154 16.4793 24.396 16.6359C24.7766 16.7918 25.2089 16.7237 25.5239 16.4579L26.3082 15.7959C26.4427 15.6827 26.6248 15.6803 26.7626 15.7902C27.1383 16.0896 27.482 16.4309 27.7847 16.8041C27.8955 16.9411 27.8946 17.1232 27.7823 17.2586L27.1268 18.0485C26.8635 18.366 26.7987 18.7983 26.9579 19.1781C27.117 19.5579 27.4705 19.8146 27.8815 19.8499L28.9053 19.9369C29.0808 19.9516 29.2113 20.0796 29.2309 20.2543C29.2843 20.7318 29.2859 21.2157 29.2367 21.6932C29.2186 21.8679 29.089 21.9967 28.9135 22.0131L27.8914 22.1082C27.4812 22.146 27.1293 22.4068 26.9726 22.7875C26.8168 23.1681 26.8848 23.6004 27.1506 23.9154L27.8126 24.6996C27.9258 24.8341 27.9283 25.0171 27.8192 25.1541C27.5198 25.5298 27.1785 25.8735 26.8053 26.1762C26.6691 26.2869 26.4862 26.2861 26.3508 26.1737L25.5609 25.5183C25.2434 25.255 24.8111 25.1902 24.4313 25.3493C24.0515 25.5084 23.7947 25.862 23.7595 26.273L23.6725 27.2967C23.6577 27.4723 23.5298 27.6027 23.355 27.6224C22.8776 27.6757 22.3928 27.6773 21.9162 27.6281C21.7415 27.6101 21.6127 27.4805 21.5963 27.3049L21.5011 26.2828C21.4626 25.8727 21.2025 25.5207 20.8219 25.3641C20.6866 25.3091 20.5446 25.282 20.4044 25.282C20.1493 25.282 19.8974 25.3714 19.694 25.5429L18.9098 26.2032ZM25.9661 21C25.9661 19.1486 24.46 17.6433 22.6094 17.6433C20.7588 17.6433 19.2527 19.1494 19.2527 21C19.2527 22.8506 20.7588 24.3567 22.6094 24.3567C24.46 24.3567 25.9661 22.8514 25.9661 21ZM20.073 21C20.073 19.6014 21.2107 18.4636 22.6094 18.4636C24.008 18.4636 25.1458 19.6014 25.1458 21C25.1458 22.3986 24.008 23.5364 22.6094 23.5364C21.2107 23.5364 20.073 22.3986 20.073 21ZM31.1472 8.31059C31.2793 8.12602 31.5352 8.08336 31.7189 8.21543C34.5794 10.2572 36.6966 13.2407 37.6818 16.6154C38.5948 19.7441 38.5021 23.1082 37.4316 26.177L38.4677 25.6216C38.6678 25.515 38.9155 25.5896 39.023 25.7898C39.1296 25.9891 39.055 26.2377 38.8548 26.3452L36.8393 27.4255C36.7795 27.4575 36.713 27.4739 36.6457 27.4739C36.6055 27.4739 36.5662 27.4682 36.5268 27.4567C36.4226 27.4255 36.3357 27.3533 36.284 27.2582L35.2036 25.2427C35.097 25.0433 35.1716 24.7948 35.3718 24.6873C35.5711 24.5807 35.8197 24.6553 35.9272 24.8555L36.5908 26.095C38.8885 19.8138 36.7384 12.8075 31.2423 8.8848C31.0586 8.75109 31.0151 8.49516 31.1472 8.31059ZM29.4196 34.6951C29.5148 34.9002 29.4262 35.1446 29.2203 35.2398C26.6355 36.4416 23.7939 36.9108 20.9564 36.6114L21.7423 37.6023C21.8834 37.7795 21.853 38.0379 21.6759 38.1782C21.6004 38.238 21.511 38.2668 21.4216 38.2668C21.301 38.2668 21.1812 38.2134 21.1 38.1117L19.6792 36.3193C19.5381 36.1421 19.5685 35.8838 19.7457 35.7435L21.538 34.3227C21.7152 34.1816 21.9736 34.212 22.1139 34.3891C22.255 34.5663 22.2246 34.8247 22.0475 34.965L21.0057 35.7911C23.7078 36.0831 26.414 35.6401 28.8749 34.4958C29.08 34.4014 29.3236 34.49 29.4196 34.6951ZM9.32688 29.3696C7.20719 26.0121 6.44512 22.0114 7.18176 18.1035C7.86672 14.4679 9.79035 11.2227 12.6295 8.88398L11.4285 8.80031C11.2029 8.78473 11.0323 8.58867 11.0479 8.36309C11.0635 8.1375 11.2595 7.96687 11.4851 7.98246L13.7664 8.14078C13.992 8.15637 14.1626 8.35242 14.147 8.57801L13.9887 10.8593C13.9731 11.0849 13.7771 11.2547 13.5515 11.2399C13.3259 11.2243 13.1553 11.0283 13.1709 10.8027L13.2668 9.42375C7.45082 14.1258 6.00379 22.5693 10.0217 28.9316C10.1423 29.1227 10.0857 29.3762 9.89371 29.4976C9.82563 29.5403 9.75016 29.5608 9.67551 29.5608C9.5377 29.5608 9.4048 29.4927 9.32688 29.3696ZM16.5038 10.984H28.715C29.1095 10.984 29.4303 10.6632 29.4303 10.2687V3.74965C29.4303 3.51832 29.3179 3.30012 29.13 3.16641C28.9422 3.0327 28.6994 2.99824 28.4812 3.07371L24.1417 4.5757V3.74965C24.1417 3.51832 24.0293 3.30012 23.8415 3.16641C23.6536 3.0327 23.4108 2.99824 23.1926 3.07371L18.8532 4.5757V1.61766C18.8532 1.22309 18.5324 0.902344 18.1379 0.902344H16.5038C16.1092 0.902344 15.7885 1.22309 15.7885 1.61766V10.2687C15.7885 10.6632 16.1092 10.984 16.5038 10.984ZM24.1417 5.44359L28.61 3.8973V10.1637H24.1417V5.44359ZM18.8532 5.44359L23.3214 3.8973V10.1637H18.8532V5.44359ZM16.6088 10.1637V3.07289H18.0329V10.1629H16.6088V10.1637ZM18.0329 1.72266V2.25258H16.6088V1.72266H18.0329ZM21.99 6.02109H20.1854C19.9589 6.02109 19.7752 6.20484 19.7752 6.43125V8.23594C19.7752 8.46234 19.9589 8.64609 20.1854 8.64609H21.99C22.2164 8.64609 22.4002 8.46234 22.4002 8.23594V6.43125C22.4002 6.20484 22.2164 6.02109 21.99 6.02109ZM21.5799 7.82578H20.5955V6.84141H21.5799V7.82578ZM27.2778 6.02109H25.4731C25.2467 6.02109 25.0629 6.20484 25.0629 6.43125V8.23594C25.0629 8.46234 25.2467 8.64609 25.4731 8.64609H27.2778C27.5042 8.64609 27.6879 8.46234 27.6879 8.23594V6.43125C27.6879 6.20484 27.505 6.02109 27.2778 6.02109ZM26.8676 7.82578H25.8832V6.84141H26.8676V7.82578ZM16.6884 33.9478C16.407 33.4425 15.8943 33.1414 15.316 33.1414H13.0626V32.477C13.0626 31.7732 12.49 31.2006 11.7862 31.2006H3.78812C3.0843 31.2006 2.51172 31.7732 2.51172 32.477V38.5104C2.51172 39.1404 2.97109 39.6637 3.57238 39.7671C3.74957 40.5284 4.43207 41.0977 5.24582 41.0977C6.05301 41.0977 6.72977 40.5382 6.91434 39.7876H13.5449C13.7295 40.5382 14.4071 41.0977 15.2134 41.0977C16.0223 41.0977 16.7015 40.5357 16.8836 39.7819C17.48 39.722 17.9475 39.2167 17.9475 38.6039V36.6196C17.9475 36.3415 17.8844 36.0987 17.749 35.8559L16.6884 33.9478ZM15.9714 34.3473L17.0083 36.2094H14.882C14.6819 36.2094 14.5186 36.0462 14.5186 35.846V33.9618H15.316C15.6006 33.9618 15.8336 34.0988 15.9714 34.3473ZM5.24582 40.2773C4.74953 40.2773 4.34594 39.8737 4.34594 39.3775C4.34594 38.8812 4.74953 38.4776 5.24582 38.4776C5.74211 38.4776 6.1457 38.8812 6.1457 39.3775C6.1457 39.8737 5.74211 40.2773 5.24582 40.2773ZM5.24582 37.6573C4.45586 37.6573 3.78977 38.1937 3.58879 38.9214C3.43703 38.8475 3.33121 38.6917 3.33121 38.5112V32.4778C3.33121 32.226 3.53629 32.0217 3.7873 32.0217H11.7862C12.038 32.0217 12.2423 32.2268 12.2423 32.4778V38.9673H6.91516C6.72977 38.2167 6.05301 37.6573 5.24582 37.6573ZM15.2143 40.2773C14.718 40.2773 14.3144 39.8737 14.3144 39.3775C14.3144 38.8812 14.718 38.4776 15.2143 38.4776C15.7105 38.4776 16.1141 38.8812 16.1141 39.3775C16.1141 39.8737 15.7105 40.2773 15.2143 40.2773ZM16.8779 38.9476C16.6859 38.2069 16.0141 37.6573 15.2143 37.6573C14.4071 37.6573 13.7303 38.2167 13.5457 38.9673H13.0634V33.9626H13.6983V35.8468C13.6983 36.4998 14.2291 37.0305 14.882 37.0305H17.1289V38.6047C17.1289 38.7647 17.023 38.9 16.8779 38.9476ZM34.5982 28.6305C33.2095 28.6305 32.0791 29.7609 32.0791 31.1497C32.0791 32.5385 33.2095 33.6689 34.5982 33.6689C35.987 33.6689 37.1174 32.5385 37.1174 31.1497C37.1174 29.7609 35.9879 28.6305 34.5982 28.6305ZM34.5982 32.8486C33.6614 32.8486 32.8994 32.0865 32.8994 31.1497C32.8994 30.2129 33.6614 29.4509 34.5982 29.4509C35.535 29.4509 36.2971 30.2129 36.2971 31.1497C36.2971 32.0865 35.535 32.8486 34.5982 32.8486ZM39.4693 38.3832C39.1182 35.9863 37.0264 34.1504 34.6048 34.1143C34.6007 34.1143 34.5966 34.1143 34.5925 34.1143C32.1709 34.1504 30.0791 35.9863 29.728 38.3832C29.6403 38.9796 29.8855 39.5391 30.3835 39.8795C31.609 40.717 33.4277 41.0985 34.5991 41.0985C35.7696 41.0985 37.5883 40.717 38.8146 39.8795C39.3118 39.5391 39.557 38.9796 39.4693 38.3832ZM38.3512 39.2019C37.1954 39.9911 35.4735 40.2773 34.5982 40.2773C33.723 40.2773 32.0011 39.9911 30.8453 39.2019C30.6091 39.0403 30.4975 38.7852 30.5385 38.5022C30.8322 36.5006 32.5762 34.9683 34.5974 34.9346C36.6187 34.9683 38.3635 36.5006 38.6563 38.5022C38.699 38.7852 38.5874 39.0403 38.3512 39.2019Z"/>
</mask>
<path d="M20.5118 26.122C20.5594 26.1417 20.671 26.2032 20.6849 26.3575L20.7801 27.3796C20.8326 27.9464 21.2657 28.3836 21.8317 28.4427C22.0901 28.4698 22.3502 28.4829 22.6102 28.4829C22.8891 28.4829 23.1688 28.4673 23.4461 28.4361C24.0121 28.373 24.442 27.9325 24.4895 27.3648L24.5765 26.3411C24.5896 26.1868 24.7004 26.1245 24.7479 26.1048C24.7947 26.0851 24.9177 26.0498 25.0367 26.1483L25.8266 26.8037C26.2647 27.1671 26.8799 27.1712 27.3221 26.8119C27.7404 26.4723 28.1235 26.0859 28.4598 25.6651C28.815 25.2197 28.8068 24.6053 28.4393 24.1697L27.7773 23.3855C27.6773 23.2673 27.7117 23.1443 27.7314 23.0967C27.7511 23.0491 27.8126 22.9376 27.9668 22.9236L28.9889 22.8285C29.5558 22.776 29.993 22.3437 30.0521 21.7768C30.1078 21.2412 30.1054 20.6981 30.0463 20.1625C29.9832 19.5956 29.5427 19.1666 28.975 19.1182L27.9521 19.0312C27.7979 19.0181 27.7355 18.9074 27.7158 18.8598C27.6961 18.813 27.6609 18.69 27.7593 18.5711L28.4147 17.7811C28.7789 17.343 28.7822 16.7278 28.4229 16.2857C28.0833 15.8673 27.697 15.4842 27.2761 15.1479C26.8307 14.7927 26.2163 14.8009 25.7807 15.1684L24.9965 15.8304C24.8784 15.9305 24.7553 15.896 24.7077 15.8763C24.6602 15.8566 24.5486 15.7951 24.5346 15.6409L24.4395 14.6188C24.387 14.052 23.9547 13.6147 23.3879 13.5557C22.8522 13.4999 22.3091 13.5023 21.7727 13.5614C21.2066 13.6246 20.7768 14.0651 20.7292 14.6327L20.6423 15.6557C20.6291 15.8099 20.5184 15.8722 20.4708 15.8919C20.4232 15.9116 20.301 15.9469 20.1821 15.8484L19.3921 15.193C18.9541 14.8288 18.3388 14.8255 17.8967 15.1848C17.4783 15.5244 17.0952 15.9108 16.7589 16.3316C16.4037 16.777 16.4119 17.3914 16.7794 17.827L17.4414 18.6112C17.5415 18.7294 17.507 18.8524 17.4873 18.9C17.4677 18.9476 17.4061 19.0591 17.2519 19.0731L16.2298 19.1682C15.663 19.2207 15.2257 19.653 15.1667 20.2199C15.1109 20.7555 15.1134 21.2986 15.1724 21.8343C15.2356 22.4011 15.6761 22.8301 16.2437 22.8785L17.2667 22.9655C17.4209 22.9786 17.4832 23.0893 17.5029 23.1369C17.5226 23.1837 17.5579 23.3067 17.4595 23.4257L16.804 24.2156C16.4398 24.6537 16.4365 25.2689 16.7958 25.7111C17.1354 26.1294 17.5218 26.5125 17.9426 26.8488C18.3872 27.204 19.0025 27.1958 19.438 26.8283L20.2223 26.1663C20.3412 26.0687 20.4643 26.1032 20.5118 26.122ZM18.9098 26.2032C18.7752 26.3164 18.5931 26.3189 18.4553 26.209C18.0796 25.9096 17.7359 25.5683 17.4332 25.1951C17.3225 25.0581 17.3233 24.876 17.4357 24.7406L18.0911 23.9507C18.3544 23.6332 18.4192 23.2009 18.2601 22.8211C18.1009 22.4413 17.7474 22.1845 17.3364 22.1493L16.3127 22.0623C16.1371 22.0475 16.0067 21.9196 15.987 21.7448C15.9337 21.2674 15.932 20.7834 15.9812 20.306C15.9993 20.1313 16.1289 20.0025 16.3045 19.9861L17.3266 19.8909C17.7375 19.8532 18.0895 19.5923 18.2453 19.2117C18.4012 18.8311 18.3331 18.3988 18.0673 18.0838L17.4053 17.2996C17.2921 17.165 17.2896 16.9821 17.3987 16.8451C17.6982 16.4702 18.0394 16.1257 18.4127 15.823C18.5488 15.7123 18.7318 15.7131 18.8671 15.8255L19.6571 16.4809C19.9745 16.7442 20.4077 16.809 20.7866 16.6499C21.1664 16.4907 21.4232 16.1372 21.4585 15.7262L21.5454 14.7033C21.5602 14.5277 21.6882 14.3973 21.8629 14.3776C22.3403 14.3243 22.8243 14.3227 23.3017 14.3719C23.4764 14.3899 23.6052 14.5195 23.6216 14.6951L23.7168 15.7172C23.7545 16.1273 24.0154 16.4793 24.396 16.6359C24.7766 16.7918 25.2089 16.7237 25.5239 16.4579L26.3082 15.7959C26.4427 15.6827 26.6248 15.6803 26.7626 15.7902C27.1383 16.0896 27.482 16.4309 27.7847 16.8041C27.8955 16.9411 27.8946 17.1232 27.7823 17.2586L27.1268 18.0485C26.8635 18.366 26.7987 18.7983 26.9579 19.1781C27.117 19.5579 27.4705 19.8146 27.8815 19.8499L28.9053 19.9369C29.0808 19.9516 29.2113 20.0796 29.2309 20.2543C29.2843 20.7318 29.2859 21.2157 29.2367 21.6932C29.2186 21.8679 29.089 21.9967 28.9135 22.0131L27.8914 22.1082C27.4812 22.146 27.1293 22.4068 26.9726 22.7875C26.8168 23.1681 26.8848 23.6004 27.1506 23.9154L27.8126 24.6996C27.9258 24.8341 27.9283 25.0171 27.8192 25.1541C27.5198 25.5298 27.1785 25.8735 26.8053 26.1762C26.6691 26.2869 26.4862 26.2861 26.3508 26.1737L25.5609 25.5183C25.2434 25.255 24.8111 25.1902 24.4313 25.3493C24.0515 25.5084 23.7947 25.862 23.7595 26.273L23.6725 27.2967C23.6577 27.4723 23.5298 27.6027 23.355 27.6224C22.8776 27.6757 22.3928 27.6773 21.9162 27.6281C21.7415 27.6101 21.6127 27.4805 21.5963 27.3049L21.5011 26.2828C21.4626 25.8727 21.2025 25.5207 20.8219 25.3641C20.6866 25.3091 20.5446 25.282 20.4044 25.282C20.1493 25.282 19.8974 25.3714 19.694 25.5429L18.9098 26.2032ZM25.9661 21C25.9661 19.1486 24.46 17.6433 22.6094 17.6433C20.7588 17.6433 19.2527 19.1494 19.2527 21C19.2527 22.8506 20.7588 24.3567 22.6094 24.3567C24.46 24.3567 25.9661 22.8514 25.9661 21ZM20.073 21C20.073 19.6014 21.2107 18.4636 22.6094 18.4636C24.008 18.4636 25.1458 19.6014 25.1458 21C25.1458 22.3986 24.008 23.5364 22.6094 23.5364C21.2107 23.5364 20.073 22.3986 20.073 21ZM31.1472 8.31059C31.2793 8.12602 31.5352 8.08336 31.7189 8.21543C34.5794 10.2572 36.6966 13.2407 37.6818 16.6154C38.5948 19.7441 38.5021 23.1082 37.4316 26.177L38.4677 25.6216C38.6678 25.515 38.9155 25.5896 39.023 25.7898C39.1296 25.9891 39.055 26.2377 38.8548 26.3452L36.8393 27.4255C36.7795 27.4575 36.713 27.4739 36.6457 27.4739C36.6055 27.4739 36.5662 27.4682 36.5268 27.4567C36.4226 27.4255 36.3357 27.3533 36.284 27.2582L35.2036 25.2427C35.097 25.0433 35.1716 24.7948 35.3718 24.6873C35.5711 24.5807 35.8197 24.6553 35.9272 24.8555L36.5908 26.095C38.8885 19.8138 36.7384 12.8075 31.2423 8.8848C31.0586 8.75109 31.0151 8.49516 31.1472 8.31059ZM29.4196 34.6951C29.5148 34.9002 29.4262 35.1446 29.2203 35.2398C26.6355 36.4416 23.7939 36.9108 20.9564 36.6114L21.7423 37.6023C21.8834 37.7795 21.853 38.0379 21.6759 38.1782C21.6004 38.238 21.511 38.2668 21.4216 38.2668C21.301 38.2668 21.1812 38.2134 21.1 38.1117L19.6792 36.3193C19.5381 36.1421 19.5685 35.8838 19.7457 35.7435L21.538 34.3227C21.7152 34.1816 21.9736 34.212 22.1139 34.3891C22.255 34.5663 22.2246 34.8247 22.0475 34.965L21.0057 35.7911C23.7078 36.0831 26.414 35.6401 28.8749 34.4958C29.08 34.4014 29.3236 34.49 29.4196 34.6951ZM9.32688 29.3696C7.20719 26.0121 6.44512 22.0114 7.18176 18.1035C7.86672 14.4679 9.79035 11.2227 12.6295 8.88398L11.4285 8.80031C11.2029 8.78473 11.0323 8.58867 11.0479 8.36309C11.0635 8.1375 11.2595 7.96687 11.4851 7.98246L13.7664 8.14078C13.992 8.15637 14.1626 8.35242 14.147 8.57801L13.9887 10.8593C13.9731 11.0849 13.7771 11.2547 13.5515 11.2399C13.3259 11.2243 13.1553 11.0283 13.1709 10.8027L13.2668 9.42375C7.45082 14.1258 6.00379 22.5693 10.0217 28.9316C10.1423 29.1227 10.0857 29.3762 9.89371 29.4976C9.82563 29.5403 9.75016 29.5608 9.67551 29.5608C9.5377 29.5608 9.4048 29.4927 9.32688 29.3696ZM16.5038 10.984H28.715C29.1095 10.984 29.4303 10.6632 29.4303 10.2687V3.74965C29.4303 3.51832 29.3179 3.30012 29.13 3.16641C28.9422 3.0327 28.6994 2.99824 28.4812 3.07371L24.1417 4.5757V3.74965C24.1417 3.51832 24.0293 3.30012 23.8415 3.16641C23.6536 3.0327 23.4108 2.99824 23.1926 3.07371L18.8532 4.5757V1.61766C18.8532 1.22309 18.5324 0.902344 18.1379 0.902344H16.5038C16.1092 0.902344 15.7885 1.22309 15.7885 1.61766V10.2687C15.7885 10.6632 16.1092 10.984 16.5038 10.984ZM24.1417 5.44359L28.61 3.8973V10.1637H24.1417V5.44359ZM18.8532 5.44359L23.3214 3.8973V10.1637H18.8532V5.44359ZM16.6088 10.1637V3.07289H18.0329V10.1629H16.6088V10.1637ZM18.0329 1.72266V2.25258H16.6088V1.72266H18.0329ZM21.99 6.02109H20.1854C19.9589 6.02109 19.7752 6.20484 19.7752 6.43125V8.23594C19.7752 8.46234 19.9589 8.64609 20.1854 8.64609H21.99C22.2164 8.64609 22.4002 8.46234 22.4002 8.23594V6.43125C22.4002 6.20484 22.2164 6.02109 21.99 6.02109ZM21.5799 7.82578H20.5955V6.84141H21.5799V7.82578ZM27.2778 6.02109H25.4731C25.2467 6.02109 25.0629 6.20484 25.0629 6.43125V8.23594C25.0629 8.46234 25.2467 8.64609 25.4731 8.64609H27.2778C27.5042 8.64609 27.6879 8.46234 27.6879 8.23594V6.43125C27.6879 6.20484 27.505 6.02109 27.2778 6.02109ZM26.8676 7.82578H25.8832V6.84141H26.8676V7.82578ZM16.6884 33.9478C16.407 33.4425 15.8943 33.1414 15.316 33.1414H13.0626V32.477C13.0626 31.7732 12.49 31.2006 11.7862 31.2006H3.78812C3.0843 31.2006 2.51172 31.7732 2.51172 32.477V38.5104C2.51172 39.1404 2.97109 39.6637 3.57238 39.7671C3.74957 40.5284 4.43207 41.0977 5.24582 41.0977C6.05301 41.0977 6.72977 40.5382 6.91434 39.7876H13.5449C13.7295 40.5382 14.4071 41.0977 15.2134 41.0977C16.0223 41.0977 16.7015 40.5357 16.8836 39.7819C17.48 39.722 17.9475 39.2167 17.9475 38.6039V36.6196C17.9475 36.3415 17.8844 36.0987 17.749 35.8559L16.6884 33.9478ZM15.9714 34.3473L17.0083 36.2094H14.882C14.6819 36.2094 14.5186 36.0462 14.5186 35.846V33.9618H15.316C15.6006 33.9618 15.8336 34.0988 15.9714 34.3473ZM5.24582 40.2773C4.74953 40.2773 4.34594 39.8737 4.34594 39.3775C4.34594 38.8812 4.74953 38.4776 5.24582 38.4776C5.74211 38.4776 6.1457 38.8812 6.1457 39.3775C6.1457 39.8737 5.74211 40.2773 5.24582 40.2773ZM5.24582 37.6573C4.45586 37.6573 3.78977 38.1937 3.58879 38.9214C3.43703 38.8475 3.33121 38.6917 3.33121 38.5112V32.4778C3.33121 32.226 3.53629 32.0217 3.7873 32.0217H11.7862C12.038 32.0217 12.2423 32.2268 12.2423 32.4778V38.9673H6.91516C6.72977 38.2167 6.05301 37.6573 5.24582 37.6573ZM15.2143 40.2773C14.718 40.2773 14.3144 39.8737 14.3144 39.3775C14.3144 38.8812 14.718 38.4776 15.2143 38.4776C15.7105 38.4776 16.1141 38.8812 16.1141 39.3775C16.1141 39.8737 15.7105 40.2773 15.2143 40.2773ZM16.8779 38.9476C16.6859 38.2069 16.0141 37.6573 15.2143 37.6573C14.4071 37.6573 13.7303 38.2167 13.5457 38.9673H13.0634V33.9626H13.6983V35.8468C13.6983 36.4998 14.2291 37.0305 14.882 37.0305H17.1289V38.6047C17.1289 38.7647 17.023 38.9 16.8779 38.9476ZM34.5982 28.6305C33.2095 28.6305 32.0791 29.7609 32.0791 31.1497C32.0791 32.5385 33.2095 33.6689 34.5982 33.6689C35.987 33.6689 37.1174 32.5385 37.1174 31.1497C37.1174 29.7609 35.9879 28.6305 34.5982 28.6305ZM34.5982 32.8486C33.6614 32.8486 32.8994 32.0865 32.8994 31.1497C32.8994 30.2129 33.6614 29.4509 34.5982 29.4509C35.535 29.4509 36.2971 30.2129 36.2971 31.1497C36.2971 32.0865 35.535 32.8486 34.5982 32.8486ZM39.4693 38.3832C39.1182 35.9863 37.0264 34.1504 34.6048 34.1143C34.6007 34.1143 34.5966 34.1143 34.5925 34.1143C32.1709 34.1504 30.0791 35.9863 29.728 38.3832C29.6403 38.9796 29.8855 39.5391 30.3835 39.8795C31.609 40.717 33.4277 41.0985 34.5991 41.0985C35.7696 41.0985 37.5883 40.717 38.8146 39.8795C39.3118 39.5391 39.557 38.9796 39.4693 38.3832ZM38.3512 39.2019C37.1954 39.9911 35.4735 40.2773 34.5982 40.2773C33.723 40.2773 32.0011 39.9911 30.8453 39.2019C30.6091 39.0403 30.4975 38.7852 30.5385 38.5022C30.8322 36.5006 32.5762 34.9683 34.5974 34.9346C36.6187 34.9683 38.3635 36.5006 38.6563 38.5022C38.699 38.7852 38.5874 39.0403 38.3512 39.2019Z" fill="url(#paint0_linear_5319_7706)"/>
<path d="M20.5118 26.122C20.5594 26.1417 20.671 26.2032 20.6849 26.3575L20.7801 27.3796C20.8326 27.9464 21.2657 28.3836 21.8317 28.4427C22.0901 28.4698 22.3502 28.4829 22.6102 28.4829C22.8891 28.4829 23.1688 28.4673 23.4461 28.4361C24.0121 28.373 24.442 27.9325 24.4895 27.3648L24.5765 26.3411C24.5896 26.1868 24.7004 26.1245 24.7479 26.1048C24.7947 26.0851 24.9177 26.0498 25.0367 26.1483L25.8266 26.8037C26.2647 27.1671 26.8799 27.1712 27.3221 26.8119C27.7404 26.4723 28.1235 26.0859 28.4598 25.6651C28.815 25.2197 28.8068 24.6053 28.4393 24.1697L27.7773 23.3855C27.6773 23.2673 27.7117 23.1443 27.7314 23.0967C27.7511 23.0491 27.8126 22.9376 27.9668 22.9236L28.9889 22.8285C29.5558 22.776 29.993 22.3437 30.0521 21.7768C30.1078 21.2412 30.1054 20.6981 30.0463 20.1625C29.9832 19.5956 29.5427 19.1666 28.975 19.1182L27.9521 19.0312C27.7979 19.0181 27.7355 18.9074 27.7158 18.8598C27.6961 18.813 27.6609 18.69 27.7593 18.5711L28.4147 17.7811C28.7789 17.343 28.7822 16.7278 28.4229 16.2857C28.0833 15.8673 27.697 15.4842 27.2761 15.1479C26.8307 14.7927 26.2163 14.8009 25.7807 15.1684L24.9965 15.8304C24.8784 15.9305 24.7553 15.896 24.7077 15.8763C24.6602 15.8566 24.5486 15.7951 24.5346 15.6409L24.4395 14.6188C24.387 14.052 23.9547 13.6147 23.3879 13.5557C22.8522 13.4999 22.3091 13.5023 21.7727 13.5614C21.2066 13.6246 20.7768 14.0651 20.7292 14.6327L20.6423 15.6557C20.6291 15.8099 20.5184 15.8722 20.4708 15.8919C20.4232 15.9116 20.301 15.9469 20.1821 15.8484L19.3921 15.193C18.9541 14.8288 18.3388 14.8255 17.8967 15.1848C17.4783 15.5244 17.0952 15.9108 16.7589 16.3316C16.4037 16.777 16.4119 17.3914 16.7794 17.827L17.4414 18.6112C17.5415 18.7294 17.507 18.8524 17.4873 18.9C17.4677 18.9476 17.4061 19.0591 17.2519 19.0731L16.2298 19.1682C15.663 19.2207 15.2257 19.653 15.1667 20.2199C15.1109 20.7555 15.1134 21.2986 15.1724 21.8343C15.2356 22.4011 15.6761 22.8301 16.2437 22.8785L17.2667 22.9655C17.4209 22.9786 17.4832 23.0893 17.5029 23.1369C17.5226 23.1837 17.5579 23.3067 17.4595 23.4257L16.804 24.2156C16.4398 24.6537 16.4365 25.2689 16.7958 25.7111C17.1354 26.1294 17.5218 26.5125 17.9426 26.8488C18.3872 27.204 19.0025 27.1958 19.438 26.8283L20.2223 26.1663C20.3412 26.0687 20.4643 26.1032 20.5118 26.122ZM18.9098 26.2032C18.7752 26.3164 18.5931 26.3189 18.4553 26.209C18.0796 25.9096 17.7359 25.5683 17.4332 25.1951C17.3225 25.0581 17.3233 24.876 17.4357 24.7406L18.0911 23.9507C18.3544 23.6332 18.4192 23.2009 18.2601 22.8211C18.1009 22.4413 17.7474 22.1845 17.3364 22.1493L16.3127 22.0623C16.1371 22.0475 16.0067 21.9196 15.987 21.7448C15.9337 21.2674 15.932 20.7834 15.9812 20.306C15.9993 20.1313 16.1289 20.0025 16.3045 19.9861L17.3266 19.8909C17.7375 19.8532 18.0895 19.5923 18.2453 19.2117C18.4012 18.8311 18.3331 18.3988 18.0673 18.0838L17.4053 17.2996C17.2921 17.165 17.2896 16.9821 17.3987 16.8451C17.6982 16.4702 18.0394 16.1257 18.4127 15.823C18.5488 15.7123 18.7318 15.7131 18.8671 15.8255L19.6571 16.4809C19.9745 16.7442 20.4077 16.809 20.7866 16.6499C21.1664 16.4907 21.4232 16.1372 21.4585 15.7262L21.5454 14.7033C21.5602 14.5277 21.6882 14.3973 21.8629 14.3776C22.3403 14.3243 22.8243 14.3227 23.3017 14.3719C23.4764 14.3899 23.6052 14.5195 23.6216 14.6951L23.7168 15.7172C23.7545 16.1273 24.0154 16.4793 24.396 16.6359C24.7766 16.7918 25.2089 16.7237 25.5239 16.4579L26.3082 15.7959C26.4427 15.6827 26.6248 15.6803 26.7626 15.7902C27.1383 16.0896 27.482 16.4309 27.7847 16.8041C27.8955 16.9411 27.8946 17.1232 27.7823 17.2586L27.1268 18.0485C26.8635 18.366 26.7987 18.7983 26.9579 19.1781C27.117 19.5579 27.4705 19.8146 27.8815 19.8499L28.9053 19.9369C29.0808 19.9516 29.2113 20.0796 29.2309 20.2543C29.2843 20.7318 29.2859 21.2157 29.2367 21.6932C29.2186 21.8679 29.089 21.9967 28.9135 22.0131L27.8914 22.1082C27.4812 22.146 27.1293 22.4068 26.9726 22.7875C26.8168 23.1681 26.8848 23.6004 27.1506 23.9154L27.8126 24.6996C27.9258 24.8341 27.9283 25.0171 27.8192 25.1541C27.5198 25.5298 27.1785 25.8735 26.8053 26.1762C26.6691 26.2869 26.4862 26.2861 26.3508 26.1737L25.5609 25.5183C25.2434 25.255 24.8111 25.1902 24.4313 25.3493C24.0515 25.5084 23.7947 25.862 23.7595 26.273L23.6725 27.2967C23.6577 27.4723 23.5298 27.6027 23.355 27.6224C22.8776 27.6757 22.3928 27.6773 21.9162 27.6281C21.7415 27.6101 21.6127 27.4805 21.5963 27.3049L21.5011 26.2828C21.4626 25.8727 21.2025 25.5207 20.8219 25.3641C20.6866 25.3091 20.5446 25.282 20.4044 25.282C20.1493 25.282 19.8974 25.3714 19.694 25.5429L18.9098 26.2032ZM25.9661 21C25.9661 19.1486 24.46 17.6433 22.6094 17.6433C20.7588 17.6433 19.2527 19.1494 19.2527 21C19.2527 22.8506 20.7588 24.3567 22.6094 24.3567C24.46 24.3567 25.9661 22.8514 25.9661 21ZM20.073 21C20.073 19.6014 21.2107 18.4636 22.6094 18.4636C24.008 18.4636 25.1458 19.6014 25.1458 21C25.1458 22.3986 24.008 23.5364 22.6094 23.5364C21.2107 23.5364 20.073 22.3986 20.073 21ZM31.1472 8.31059C31.2793 8.12602 31.5352 8.08336 31.7189 8.21543C34.5794 10.2572 36.6966 13.2407 37.6818 16.6154C38.5948 19.7441 38.5021 23.1082 37.4316 26.177L38.4677 25.6216C38.6678 25.515 38.9155 25.5896 39.023 25.7898C39.1296 25.9891 39.055 26.2377 38.8548 26.3452L36.8393 27.4255C36.7795 27.4575 36.713 27.4739 36.6457 27.4739C36.6055 27.4739 36.5662 27.4682 36.5268 27.4567C36.4226 27.4255 36.3357 27.3533 36.284 27.2582L35.2036 25.2427C35.097 25.0433 35.1716 24.7948 35.3718 24.6873C35.5711 24.5807 35.8197 24.6553 35.9272 24.8555L36.5908 26.095C38.8885 19.8138 36.7384 12.8075 31.2423 8.8848C31.0586 8.75109 31.0151 8.49516 31.1472 8.31059ZM29.4196 34.6951C29.5148 34.9002 29.4262 35.1446 29.2203 35.2398C26.6355 36.4416 23.7939 36.9108 20.9564 36.6114L21.7423 37.6023C21.8834 37.7795 21.853 38.0379 21.6759 38.1782C21.6004 38.238 21.511 38.2668 21.4216 38.2668C21.301 38.2668 21.1812 38.2134 21.1 38.1117L19.6792 36.3193C19.5381 36.1421 19.5685 35.8838 19.7457 35.7435L21.538 34.3227C21.7152 34.1816 21.9736 34.212 22.1139 34.3891C22.255 34.5663 22.2246 34.8247 22.0475 34.965L21.0057 35.7911C23.7078 36.0831 26.414 35.6401 28.8749 34.4958C29.08 34.4014 29.3236 34.49 29.4196 34.6951ZM9.32688 29.3696C7.20719 26.0121 6.44512 22.0114 7.18176 18.1035C7.86672 14.4679 9.79035 11.2227 12.6295 8.88398L11.4285 8.80031C11.2029 8.78473 11.0323 8.58867 11.0479 8.36309C11.0635 8.1375 11.2595 7.96687 11.4851 7.98246L13.7664 8.14078C13.992 8.15637 14.1626 8.35242 14.147 8.57801L13.9887 10.8593C13.9731 11.0849 13.7771 11.2547 13.5515 11.2399C13.3259 11.2243 13.1553 11.0283 13.1709 10.8027L13.2668 9.42375C7.45082 14.1258 6.00379 22.5693 10.0217 28.9316C10.1423 29.1227 10.0857 29.3762 9.89371 29.4976C9.82563 29.5403 9.75016 29.5608 9.67551 29.5608C9.5377 29.5608 9.4048 29.4927 9.32688 29.3696ZM16.5038 10.984H28.715C29.1095 10.984 29.4303 10.6632 29.4303 10.2687V3.74965C29.4303 3.51832 29.3179 3.30012 29.13 3.16641C28.9422 3.0327 28.6994 2.99824 28.4812 3.07371L24.1417 4.5757V3.74965C24.1417 3.51832 24.0293 3.30012 23.8415 3.16641C23.6536 3.0327 23.4108 2.99824 23.1926 3.07371L18.8532 4.5757V1.61766C18.8532 1.22309 18.5324 0.902344 18.1379 0.902344H16.5038C16.1092 0.902344 15.7885 1.22309 15.7885 1.61766V10.2687C15.7885 10.6632 16.1092 10.984 16.5038 10.984ZM24.1417 5.44359L28.61 3.8973V10.1637H24.1417V5.44359ZM18.8532 5.44359L23.3214 3.8973V10.1637H18.8532V5.44359ZM16.6088 10.1637V3.07289H18.0329V10.1629H16.6088V10.1637ZM18.0329 1.72266V2.25258H16.6088V1.72266H18.0329ZM21.99 6.02109H20.1854C19.9589 6.02109 19.7752 6.20484 19.7752 6.43125V8.23594C19.7752 8.46234 19.9589 8.64609 20.1854 8.64609H21.99C22.2164 8.64609 22.4002 8.46234 22.4002 8.23594V6.43125C22.4002 6.20484 22.2164 6.02109 21.99 6.02109ZM21.5799 7.82578H20.5955V6.84141H21.5799V7.82578ZM27.2778 6.02109H25.4731C25.2467 6.02109 25.0629 6.20484 25.0629 6.43125V8.23594C25.0629 8.46234 25.2467 8.64609 25.4731 8.64609H27.2778C27.5042 8.64609 27.6879 8.46234 27.6879 8.23594V6.43125C27.6879 6.20484 27.505 6.02109 27.2778 6.02109ZM26.8676 7.82578H25.8832V6.84141H26.8676V7.82578ZM16.6884 33.9478C16.407 33.4425 15.8943 33.1414 15.316 33.1414H13.0626V32.477C13.0626 31.7732 12.49 31.2006 11.7862 31.2006H3.78812C3.0843 31.2006 2.51172 31.7732 2.51172 32.477V38.5104C2.51172 39.1404 2.97109 39.6637 3.57238 39.7671C3.74957 40.5284 4.43207 41.0977 5.24582 41.0977C6.05301 41.0977 6.72977 40.5382 6.91434 39.7876H13.5449C13.7295 40.5382 14.4071 41.0977 15.2134 41.0977C16.0223 41.0977 16.7015 40.5357 16.8836 39.7819C17.48 39.722 17.9475 39.2167 17.9475 38.6039V36.6196C17.9475 36.3415 17.8844 36.0987 17.749 35.8559L16.6884 33.9478ZM15.9714 34.3473L17.0083 36.2094H14.882C14.6819 36.2094 14.5186 36.0462 14.5186 35.846V33.9618H15.316C15.6006 33.9618 15.8336 34.0988 15.9714 34.3473ZM5.24582 40.2773C4.74953 40.2773 4.34594 39.8737 4.34594 39.3775C4.34594 38.8812 4.74953 38.4776 5.24582 38.4776C5.74211 38.4776 6.1457 38.8812 6.1457 39.3775C6.1457 39.8737 5.74211 40.2773 5.24582 40.2773ZM5.24582 37.6573C4.45586 37.6573 3.78977 38.1937 3.58879 38.9214C3.43703 38.8475 3.33121 38.6917 3.33121 38.5112V32.4778C3.33121 32.226 3.53629 32.0217 3.7873 32.0217H11.7862C12.038 32.0217 12.2423 32.2268 12.2423 32.4778V38.9673H6.91516C6.72977 38.2167 6.05301 37.6573 5.24582 37.6573ZM15.2143 40.2773C14.718 40.2773 14.3144 39.8737 14.3144 39.3775C14.3144 38.8812 14.718 38.4776 15.2143 38.4776C15.7105 38.4776 16.1141 38.8812 16.1141 39.3775C16.1141 39.8737 15.7105 40.2773 15.2143 40.2773ZM16.8779 38.9476C16.6859 38.2069 16.0141 37.6573 15.2143 37.6573C14.4071 37.6573 13.7303 38.2167 13.5457 38.9673H13.0634V33.9626H13.6983V35.8468C13.6983 36.4998 14.2291 37.0305 14.882 37.0305H17.1289V38.6047C17.1289 38.7647 17.023 38.9 16.8779 38.9476ZM34.5982 28.6305C33.2095 28.6305 32.0791 29.7609 32.0791 31.1497C32.0791 32.5385 33.2095 33.6689 34.5982 33.6689C35.987 33.6689 37.1174 32.5385 37.1174 31.1497C37.1174 29.7609 35.9879 28.6305 34.5982 28.6305ZM34.5982 32.8486C33.6614 32.8486 32.8994 32.0865 32.8994 31.1497C32.8994 30.2129 33.6614 29.4509 34.5982 29.4509C35.535 29.4509 36.2971 30.2129 36.2971 31.1497C36.2971 32.0865 35.535 32.8486 34.5982 32.8486ZM39.4693 38.3832C39.1182 35.9863 37.0264 34.1504 34.6048 34.1143C34.6007 34.1143 34.5966 34.1143 34.5925 34.1143C32.1709 34.1504 30.0791 35.9863 29.728 38.3832C29.6403 38.9796 29.8855 39.5391 30.3835 39.8795C31.609 40.717 33.4277 41.0985 34.5991 41.0985C35.7696 41.0985 37.5883 40.717 38.8146 39.8795C39.3118 39.5391 39.557 38.9796 39.4693 38.3832ZM38.3512 39.2019C37.1954 39.9911 35.4735 40.2773 34.5982 40.2773C33.723 40.2773 32.0011 39.9911 30.8453 39.2019C30.6091 39.0403 30.4975 38.7852 30.5385 38.5022C30.8322 36.5006 32.5762 34.9683 34.5974 34.9346C36.6187 34.9683 38.3635 36.5006 38.6563 38.5022C38.699 38.7852 38.5874 39.0403 38.3512 39.2019Z" stroke="url(#paint1_linear_5319_7706)" stroke-width="0.2" mask="url(#path-1-outside-1_5319_7706)"/>
<defs>
<linearGradient id="paint0_linear_5319_7706" x1="20.9993" y1="0.902344" x2="20.9993" y2="48.1008" gradientUnits="userSpaceOnUse">
<stop stop-color="#F4853B"/>
<stop offset="1" stop-color="#3448F5"/>
</linearGradient>
<linearGradient id="paint1_linear_5319_7706" x1="20.9993" y1="0.902344" x2="20.9993" y2="48.1008" gradientUnits="userSpaceOnUse">
<stop stop-color="#F4853B"/>
<stop offset="1" stop-color="#3448F5"/>
</linearGradient>
</defs>
</svg>
