<svg width="42" height="42" viewBox="0 0 42 42" fill="none" xmlns="http://www.w3.org/2000/svg">
<path d="M21.0012 37.7177C11.7841 37.7177 4.28516 30.2187 4.28516 21.0017C4.28516 19.9247 4.38884 18.8465 4.59228 17.7972C4.66119 17.4415 5.00703 17.2079 5.36141 17.2781C5.71709 17.347 5.94941 17.6915 5.8805 18.0472C5.69281 19.0145 5.59766 20.0087 5.59766 21.0017C5.59766 29.4948 12.508 36.4052 21.0012 36.4052C26.8647 36.4052 32.143 33.1475 34.7758 27.9034C34.9386 27.5799 35.3323 27.4493 35.6565 27.6114C35.9807 27.7742 36.1113 28.1686 35.9486 28.4921C33.0912 34.1824 27.3642 37.7177 21.0012 37.7177Z" fill="url(#paint0_linear_5319_8089)"/>
<path d="M36.7646 24.7365C36.7232 24.7365 36.6812 24.7326 36.6392 24.7241C36.2836 24.6552 36.0512 24.3106 36.1202 23.9549C36.3078 22.9889 36.403 21.9947 36.403 21.0012C36.403 12.508 29.4933 5.59766 20.9995 5.59766C15.1562 5.59766 9.8859 8.83888 7.24581 14.0574C7.0824 14.3809 6.688 14.5095 6.36381 14.3461C6.04028 14.1827 5.911 13.7877 6.07506 13.4641C8.93959 7.80266 14.6582 4.28516 20.9995 4.28516C30.2165 4.28516 37.7155 11.7841 37.7155 21.0012C37.7155 22.0787 37.6125 23.1569 37.4084 24.205C37.3473 24.5187 37.0724 24.7365 36.7646 24.7365Z" fill="url(#paint1_linear_5319_8089)"/>
<path d="M6.73471 20.5117C6.53915 20.5117 6.34555 20.4244 6.21562 20.2577L5.11771 18.8428L3.70284 19.9401C3.41671 20.1626 3.00459 20.1107 2.78212 19.8239C2.5603 19.5378 2.61215 19.1257 2.89827 18.9032L4.83159 17.4037C5.11705 17.1812 5.52918 17.2331 5.7523 17.5198L7.25249 19.4532C7.4743 19.7393 7.42246 20.1514 7.13634 20.3739C7.0169 20.4671 6.87515 20.5117 6.73471 20.5117Z" fill="url(#paint2_linear_5319_8089)"/>
<path d="M36.7656 24.7378C36.57 24.7378 36.3758 24.6505 36.2465 24.4838L34.747 22.5505C34.5251 22.2644 34.577 21.8522 34.8631 21.6298C35.1486 21.408 35.5614 21.4598 35.7838 21.7459L36.8811 23.1608L38.296 22.0636C38.5814 21.8417 38.9942 21.8929 39.2167 22.1797C39.4385 22.4658 39.3866 22.878 39.1005 23.1004L37.1672 24.6C37.0478 24.6931 36.906 24.7378 36.7656 24.7378Z" fill="url(#paint3_linear_5319_8089)"/>
<path d="M10.7734 21.6692C10.4112 21.6692 10.1172 21.3889 10.1172 21.0267V20.9991C10.1172 14.999 14.9984 10.1172 20.9985 10.1172C25.7766 10.1172 29.9497 13.1773 31.383 17.7323C31.4919 18.0782 31.2996 18.4463 30.9538 18.5552C30.6092 18.6648 30.2398 18.4719 30.1308 18.1261C28.8708 14.1203 25.2011 11.4297 20.9985 11.4297C15.7222 11.4297 11.4297 15.7222 11.4297 20.9991C11.4297 21.3614 11.1357 21.6692 10.7734 21.6692Z" fill="url(#paint4_linear_5319_8089)"/>
<path d="M21.0633 15.222C18.6346 15.222 16.1959 14.8958 13.7639 14.2435C13.4134 14.1497 13.2061 13.7901 13.2999 13.4396C13.3938 13.0898 13.754 12.8818 14.1038 12.9756C18.7251 14.2153 23.3694 14.2199 27.9087 12.9894C28.2598 12.8976 28.6194 13.1016 28.7139 13.4514C28.8084 13.8012 28.6017 14.1615 28.2519 14.2566C25.8776 14.8998 23.4757 15.2213 21.064 15.2213L21.0633 15.222Z" fill="url(#paint5_linear_5319_8089)"/>
<path d="M16.3998 22.5689C16.0442 22.5689 15.7521 22.2847 15.7442 21.9271C15.737 21.6199 15.7305 21.3128 15.7305 20.9991C15.7305 14.8973 18.0457 10.1172 21.0015 10.1172C23.57 10.1172 25.6431 13.5723 26.1596 18.7154C26.1957 19.0763 25.9325 19.3979 25.5722 19.434C25.208 19.4747 24.8897 19.2069 24.8537 18.8466C24.4291 14.6184 22.7733 11.4297 21.0015 11.4297C19.1292 11.4297 17.043 15.3593 17.043 20.9991C17.043 21.303 17.0495 21.6003 17.0561 21.8975C17.0646 22.2598 16.7772 22.5603 16.4149 22.5682C16.4097 22.5682 16.4051 22.5689 16.3998 22.5689Z" fill="url(#paint6_linear_5319_8089)"/>
<path d="M30.7603 18.5781H11.25C10.8877 18.5781 10.5938 18.2841 10.5938 17.9219C10.5938 17.5596 10.8877 17.2656 11.25 17.2656H30.7603C31.1226 17.2656 31.4166 17.5596 31.4166 17.9219C31.4166 18.2841 31.1226 18.5781 30.7603 18.5781Z" fill="url(#paint7_linear_5319_8089)"/>
<path d="M21.0006 31.8745C20.1087 31.8745 19.2208 31.7649 18.3611 31.547C18.3474 31.545 18.3336 31.5417 18.3198 31.5385C14.4013 30.5495 11.294 27.3647 10.4028 23.4246C10.3588 23.229 10.4061 23.0249 10.5314 22.8687C10.6561 22.7139 10.8445 22.6233 11.0426 22.6233H11.0466C14.2097 22.6417 17.0027 23.4587 18.7411 24.8421C20.5202 22.0025 25.4336 20.0055 31.1908 19.8828C31.538 19.8907 31.8274 20.1361 31.8589 20.4793C31.874 20.65 31.8753 20.8285 31.8753 20.9991C31.8753 23.6917 30.8837 26.2747 29.083 28.2717C28.2594 29.1989 27.2816 29.9713 26.181 30.5659C26.1712 30.5712 26.1613 30.5764 26.1508 30.581C26.1469 30.583 26.1436 30.5849 26.141 30.5863C24.8101 31.3009 23.3683 31.7235 21.8675 31.8377C21.5696 31.8594 21.2854 31.8745 21.0006 31.8745ZM18.6066 30.2575C18.6217 30.2601 18.6361 30.2634 18.6506 30.2667C19.6566 30.5252 20.7112 30.6099 21.754 30.5298C23.0861 30.4301 24.3521 30.058 25.532 29.4247C25.5412 29.4194 25.5504 29.4148 25.5602 29.4103C26.5249 28.8892 27.3813 28.2113 28.1051 27.3969C29.6421 25.6919 30.5083 23.5066 30.5602 21.2189C25.1501 21.4801 20.574 23.5066 19.545 26.148C19.463 26.3587 19.2786 26.5122 19.0561 26.5549C18.833 26.5969 18.6053 26.5221 18.4524 26.3561C17.2121 25.0173 14.7551 24.1294 11.9115 23.964C12.9103 27.0281 15.4579 29.4496 18.6066 30.2575Z" fill="url(#paint8_linear_5319_8089)"/>
<path d="M20.9994 31.8763C20.8511 31.8763 20.7027 31.8265 20.58 31.7247L16.8926 28.6574C16.6143 28.4258 16.5762 28.0123 16.8079 27.7334C17.0396 27.4545 17.453 27.4171 17.7319 27.6488L20.9252 30.3053L26.3563 24.0506C26.5939 23.7769 27.008 23.7467 27.2823 23.9856C27.556 24.2232 27.5848 24.6379 27.3473 24.9116L21.4955 31.6519C21.3662 31.8015 21.1831 31.8777 21 31.8777L20.9994 31.8763Z" fill="url(#paint9_linear_5319_8089)"/>
<path d="M21 33.7342C20.6377 33.7342 20.3438 33.4402 20.3438 33.0779V31.2188C20.3438 30.8565 20.6377 30.5625 21 30.5625C21.3622 30.5625 21.6562 30.8565 21.6562 31.2188V33.0779C21.6562 33.4402 21.3622 33.7342 21 33.7342Z" fill="url(#paint10_linear_5319_8089)"/>
<defs>
<linearGradient id="paint0_linear_5319_8089" x1="20.1519" y1="17.2656" x2="20.1519" y2="41.2805" gradientUnits="userSpaceOnUse">
<stop stop-color="#F4853B"/>
<stop offset="1" stop-color="#3448F5"/>
</linearGradient>
<linearGradient id="paint1_linear_5319_8089" x1="21.8597" y1="4.28516" x2="21.8597" y2="28.2992" gradientUnits="userSpaceOnUse">
<stop stop-color="#F4853B"/>
<stop offset="1" stop-color="#3448F5"/>
</linearGradient>
<linearGradient id="paint2_linear_5319_8089" x1="5.0173" y1="17.2656" x2="5.0173" y2="21.0772" gradientUnits="userSpaceOnUse">
<stop stop-color="#F4853B"/>
<stop offset="1" stop-color="#3448F5"/>
</linearGradient>
<linearGradient id="paint3_linear_5319_8089" x1="36.9818" y1="21.4922" x2="36.9818" y2="25.3032" gradientUnits="userSpaceOnUse">
<stop stop-color="#F4853B"/>
<stop offset="1" stop-color="#3448F5"/>
</linearGradient>
<linearGradient id="paint4_linear_5319_8089" x1="20.7653" y1="10.1172" x2="20.7653" y2="23.6816" gradientUnits="userSpaceOnUse">
<stop stop-color="#F4853B"/>
<stop offset="1" stop-color="#3448F5"/>
</linearGradient>
<linearGradient id="paint5_linear_5319_8089" x1="21.0071" y1="12.9531" x2="21.0071" y2="15.6172" gradientUnits="userSpaceOnUse">
<stop stop-color="#F4853B"/>
<stop offset="1" stop-color="#3448F5"/>
</linearGradient>
<linearGradient id="paint6_linear_5319_8089" x1="20.9467" y1="10.1172" x2="20.9467" y2="24.738" gradientUnits="userSpaceOnUse">
<stop stop-color="#F4853B"/>
<stop offset="1" stop-color="#3448F5"/>
</linearGradient>
<linearGradient id="paint7_linear_5319_8089" x1="21.0052" y1="17.2656" x2="21.0052" y2="18.8068" gradientUnits="userSpaceOnUse">
<stop stop-color="#F4853B"/>
<stop offset="1" stop-color="#3448F5"/>
</linearGradient>
<linearGradient id="paint8_linear_5319_8089" x1="21.131" y1="19.8828" x2="21.131" y2="33.9635" gradientUnits="userSpaceOnUse">
<stop stop-color="#F4853B"/>
<stop offset="1" stop-color="#3448F5"/>
</linearGradient>
<linearGradient id="paint9_linear_5319_8089" x1="22.0822" y1="23.8242" x2="22.0822" y2="33.2806" gradientUnits="userSpaceOnUse">
<stop stop-color="#F4853B"/>
<stop offset="1" stop-color="#3448F5"/>
</linearGradient>
<linearGradient id="paint10_linear_5319_8089" x1="21" y1="30.5625" x2="21" y2="34.2867" gradientUnits="userSpaceOnUse">
<stop stop-color="#F4853B"/>
<stop offset="1" stop-color="#3448F5"/>
</linearGradient>
</defs>
</svg>
