<svg width="1100" height="613" viewBox="0 0 1100 613" fill="none" xmlns="http://www.w3.org/2000/svg">
<rect x="96.5" y="0.5" width="503" height="459" rx="15.5" stroke="black" stroke-opacity="0.2"/>
<path d="M286.076 203.419C411.387 248.406 372.292 201.907 459.987 176.006C464.182 174.767 467.126 178.083 469.131 183.309C480.218 131.66 679.657 309.109 693.39 332.942C707.629 357.651 179.827 639.127 82.9756 581.576C32.272 551.447 52.5443 330.625 56.6438 309.736C56.8204 308.836 56.967 308.307 57.0766 308.181C89.7025 177.956 188.735 168.473 286.076 203.419Z" fill="url(#paint0_radial_512_508)" fill-opacity="0.5"/>
<path d="M530.076 226.419C655.387 271.406 616.292 224.907 703.987 199.006C708.182 197.767 711.126 201.083 713.131 206.309C724.218 154.66 923.657 332.109 937.39 355.942C951.629 380.651 423.827 662.127 326.976 604.576C276.272 574.447 296.544 353.625 300.644 332.736C300.82 331.836 300.967 331.307 301.077 331.181C333.702 200.956 432.735 191.473 530.076 226.419Z" fill="url(#paint1_radial_512_508)" fill-opacity="0.5"/>
<path d="M692.076 60.4189C817.387 105.406 778.292 58.9071 865.987 33.0058C870.182 31.7668 873.126 35.0831 875.131 40.3088C886.218 -11.3399 1085.66 166.109 1099.39 189.942C1113.63 214.651 585.827 496.127 488.976 438.576C438.272 408.447 458.544 187.625 462.644 166.736C462.82 165.836 462.967 165.307 463.077 165.181C495.702 34.9563 594.735 25.4735 692.076 60.4189Z" fill="url(#paint2_radial_512_508)" fill-opacity="0.5"/>
<defs>
<radialGradient id="paint0_radial_512_508" cx="0" cy="0" r="1" gradientUnits="userSpaceOnUse" gradientTransform="translate(148.012 126.657) rotate(38.5146) scale(395.162 612.61)">
<stop stop-color="#CEDCFF"/>
<stop offset="0.5" stop-color="white"/>
<stop offset="1" stop-color="white" stop-opacity="0"/>
</radialGradient>
<radialGradient id="paint1_radial_512_508" cx="0" cy="0" r="1" gradientUnits="userSpaceOnUse" gradientTransform="translate(392.012 149.657) rotate(38.5146) scale(395.162 612.61)">
<stop stop-color="#CEDCFF"/>
<stop offset="0.5" stop-color="white"/>
<stop offset="1" stop-color="white" stop-opacity="0"/>
</radialGradient>
<radialGradient id="paint2_radial_512_508" cx="0" cy="0" r="1" gradientUnits="userSpaceOnUse" gradientTransform="translate(554.012 -16.3432) rotate(38.5146) scale(395.162 612.61)">
<stop stop-color="#CEDCFF"/>
<stop offset="0.5" stop-color="white"/>
<stop offset="1" stop-color="white" stop-opacity="0"/>
</radialGradient>
</defs>
</svg>
