<svg width="38" height="40" viewBox="0 0 38 40" fill="none" xmlns="http://www.w3.org/2000/svg">
<path d="M29.1758 39.5625H9.48828C7.67834 39.5625 6.20703 38.0899 6.20703 36.2812V3.46875C6.20703 1.66013 7.67834 0.1875 9.48828 0.1875H22.8364C23.7145 0.1875 24.5413 0.531375 25.1635 1.1535L31.4897 7.47975C32.1132 8.10319 32.457 8.93006 32.457 9.80812V15.2812C32.457 15.6435 32.163 15.9375 31.8008 15.9375C31.4385 15.9375 31.1445 15.6435 31.1445 15.2812V9.80812C31.1445 9.2805 30.9385 8.78438 30.5631 8.409L24.2368 2.08275C23.8602 1.70606 23.3627 1.5 22.8364 1.5H9.48828C8.40284 1.5 7.51953 2.38331 7.51953 3.46875V36.2812C7.51953 37.3667 8.40284 38.25 9.48828 38.25H29.1758C30.2612 38.25 31.1445 37.3667 31.1445 36.2812C31.1445 35.919 31.4385 35.625 31.8008 35.625C32.163 35.625 32.457 35.919 32.457 36.2812C32.457 38.0899 30.9857 39.5625 29.1758 39.5625Z" fill="url(#paint0_linear_6698_8307)"/>
<path d="M4.23828 36.9375C2.42834 36.9375 0.957031 35.4649 0.957031 33.6562V6.09375C0.957031 4.28513 2.42834 2.8125 4.23828 2.8125C4.60053 2.8125 4.89453 3.1065 4.89453 3.46875C4.89453 3.831 4.60053 4.125 4.23828 4.125C3.15284 4.125 2.26953 5.00831 2.26953 6.09375V33.6562C2.26953 34.7417 3.15284 35.625 4.23828 35.625C4.60053 35.625 4.89453 35.919 4.89453 36.2812C4.89453 36.6435 4.60053 36.9375 4.23828 36.9375Z" fill="url(#paint1_linear_6698_8307)"/>
<path d="M19.9883 6.75H10.8008C10.4385 6.75 10.1445 6.456 10.1445 6.09375C10.1445 5.7315 10.4385 5.4375 10.8008 5.4375H19.9883C20.3505 5.4375 20.6445 5.7315 20.6445 6.09375C20.6445 6.456 20.3505 6.75 19.9883 6.75Z" fill="url(#paint2_linear_6698_8307)"/>
<path d="M21.3008 10.6875H10.8008C10.4385 10.6875 10.1445 10.3935 10.1445 10.0312C10.1445 9.669 10.4385 9.375 10.8008 9.375H21.3008C21.663 9.375 21.957 9.669 21.957 10.0312C21.957 10.3935 21.663 10.6875 21.3008 10.6875Z" fill="url(#paint3_linear_6698_8307)"/>
<path d="M16.0508 14.625H10.8008C10.4385 14.625 10.1445 14.331 10.1445 13.9688C10.1445 13.6065 10.4385 13.3125 10.8008 13.3125H16.0508C16.413 13.3125 16.707 13.6065 16.707 13.9688C16.707 14.331 16.413 14.625 16.0508 14.625Z" fill="url(#paint4_linear_6698_8307)"/>
<path d="M29.1254 34.3628C24.3938 34.3628 20.543 30.5132 20.543 25.7803C20.543 21.0488 24.3938 17.1992 29.1254 17.1992C29.6215 17.1992 30.119 17.2412 30.6007 17.3252C30.9563 17.3869 31.1965 17.7268 31.1335 18.0838C31.0705 18.4408 30.7253 18.6771 30.3749 18.618C29.9667 18.5472 29.5467 18.5104 29.1254 18.5104C25.1157 18.5104 21.8555 21.7707 21.8555 25.779C21.8555 29.7874 25.1157 33.049 29.1254 33.049C33.1338 33.049 36.394 29.7887 36.394 25.779C36.394 24.4797 36.0475 23.2052 35.3913 22.0922C35.2062 21.7798 35.3099 21.3782 35.6236 21.1932C35.9347 21.0094 36.3376 21.1118 36.5227 21.4255C37.297 22.7419 37.7065 24.2473 37.7065 25.7803C37.7065 30.5132 33.857 34.3628 29.1254 34.3628Z" fill="url(#paint5_linear_6698_8307)"/>
<path d="M29.1761 30.3746C29.0042 30.3746 28.8362 30.3063 28.7115 30.183L24.774 26.2428C24.518 25.9869 24.518 25.5708 24.774 25.3149C25.0299 25.059 25.446 25.059 25.7019 25.3149L28.9359 28.5502L33.8171 16.3505C33.9523 16.0132 34.3342 15.8505 34.6689 15.9843C35.0062 16.1195 35.169 16.5015 35.0338 16.8375L29.7838 29.9625C29.7024 30.1672 29.5226 30.3181 29.3074 30.3615C29.264 30.3706 29.2194 30.3746 29.1761 30.3746Z" fill="url(#paint6_linear_6698_8307)"/>
<defs>
<linearGradient id="paint0_linear_6698_8307" x1="19.332" y1="0.1875" x2="19.332" y2="46.4218" gradientUnits="userSpaceOnUse">
<stop stop-color="#F4853B"/>
<stop offset="1" stop-color="#3448F5"/>
</linearGradient>
<linearGradient id="paint1_linear_6698_8307" x1="2.92578" y1="2.8125" x2="2.92578" y2="42.8822" gradientUnits="userSpaceOnUse">
<stop stop-color="#F4853B"/>
<stop offset="1" stop-color="#3448F5"/>
</linearGradient>
<linearGradient id="paint2_linear_6698_8307" x1="15.3945" y1="5.4375" x2="15.3945" y2="6.97864" gradientUnits="userSpaceOnUse">
<stop stop-color="#F4853B"/>
<stop offset="1" stop-color="#3448F5"/>
</linearGradient>
<linearGradient id="paint3_linear_6698_8307" x1="16.0508" y1="9.375" x2="16.0508" y2="10.9161" gradientUnits="userSpaceOnUse">
<stop stop-color="#F4853B"/>
<stop offset="1" stop-color="#3448F5"/>
</linearGradient>
<linearGradient id="paint4_linear_6698_8307" x1="13.4258" y1="13.3125" x2="13.4258" y2="14.8536" gradientUnits="userSpaceOnUse">
<stop stop-color="#F4853B"/>
<stop offset="1" stop-color="#3448F5"/>
</linearGradient>
<linearGradient id="paint5_linear_6698_8307" x1="29.1248" y1="17.1992" x2="29.1248" y2="37.3527" gradientUnits="userSpaceOnUse">
<stop stop-color="#F4853B"/>
<stop offset="1" stop-color="#3448F5"/>
</linearGradient>
<linearGradient id="paint6_linear_6698_8307" x1="29.8317" y1="15.9375" x2="29.8317" y2="32.8896" gradientUnits="userSpaceOnUse">
<stop stop-color="#F4853B"/>
<stop offset="1" stop-color="#3448F5"/>
</linearGradient>
</defs>
</svg>
