<svg width="43" height="43" viewBox="0 0 43 43" fill="none" xmlns="http://www.w3.org/2000/svg">
<path fill-rule="evenodd" clip-rule="evenodd" d="M21.3317 21.7969C21.5194 21.7969 21.7023 21.8563 21.8543 21.9666C22.0062 22.0769 22.1193 22.2325 22.1775 22.411C22.2356 22.5895 22.2358 22.7818 22.178 22.9605C22.1202 23.1391 22.0073 23.2948 21.8556 23.4054V24.0945C21.8565 24.1639 21.8435 24.2327 21.8176 24.297C21.7917 24.3614 21.7532 24.4199 21.7045 24.4693C21.6557 24.5186 21.5977 24.5578 21.5337 24.5846C21.4697 24.6113 21.401 24.6251 21.3316 24.6251C21.2622 24.6251 21.1936 24.6113 21.1296 24.5846C21.0656 24.5578 21.0075 24.5186 20.9588 24.4693C20.91 24.4199 20.8716 24.3614 20.8456 24.297C20.8197 24.2327 20.8068 24.1639 20.8076 24.0945V23.4054C20.6559 23.2948 20.5431 23.1391 20.4853 22.9605C20.4274 22.7818 20.4276 22.5895 20.4858 22.411C20.5439 22.2324 20.6571 22.0769 20.809 21.9666C20.961 21.8563 21.1439 21.7969 21.3317 21.7969ZM18.3666 18.8361H17.981C17.4092 18.8374 16.8613 19.0652 16.457 19.4695C16.0527 19.8738 15.825 20.4217 15.8236 20.9935V25.0146C15.825 25.5864 16.0527 26.1344 16.457 26.5387C16.8613 26.943 17.4092 27.1707 17.981 27.1721H24.683C25.2547 27.1707 25.8027 26.943 26.207 26.5387C26.6113 26.1344 26.839 25.5864 26.8404 25.0146V20.9935C26.839 20.4217 26.6113 19.8738 26.207 19.4695C25.8027 19.0652 25.2547 18.8374 24.683 18.8361H24.2974V17.9906C24.2974 16.5573 23.1772 15.3281 21.7468 15.3281H20.9171C19.4869 15.3281 18.3666 16.5572 18.3666 17.9906V18.8361ZM23.2488 18.8361H19.4145V17.9906C19.4145 17.1271 20.0666 16.376 20.9171 16.376H21.7462C22.5967 16.376 23.2488 17.1272 23.2488 17.9906V18.8361ZM24.6825 19.884H17.9805C17.6866 19.8852 17.405 20.0025 17.1972 20.2104C16.9893 20.4182 16.872 20.6998 16.8708 20.9937V25.0149C16.872 25.3088 16.9893 25.5904 17.1972 25.7982C17.405 26.0061 17.6866 26.1234 17.9805 26.1246H24.6825C24.9764 26.1234 25.2579 26.0061 25.4658 25.7982C25.6736 25.5904 25.7909 25.3088 25.7921 25.0149V20.9937C25.7909 20.6998 25.6736 20.4182 25.4658 20.2104C25.2579 20.0025 24.9764 19.8852 24.6825 19.884ZM21.1891 35.1636C21.2784 35.1891 21.3728 35.1901 21.4627 35.1667C27.9994 33.462 32.4591 27.4646 32.4591 20.8667V13.768H32.4567C32.4567 13.6547 32.4197 13.5444 32.3515 13.454C32.2832 13.3635 32.1874 13.2977 32.0784 13.2665L21.4827 10.213C21.3868 10.1839 21.2846 10.1831 21.1883 10.2108L10.6332 13.2526C10.5128 13.2748 10.4039 13.3386 10.3255 13.4327C10.2471 13.5269 10.2042 13.6455 10.2042 13.768V20.8667C10.2042 27.4634 14.6489 33.4421 21.1891 35.1636ZM14.1286 29.2801C15.9341 31.6395 18.465 33.3402 21.3317 34.1205C24.1983 33.3402 26.7291 31.6395 28.5347 29.2801C30.3916 26.8678 31.4025 23.911 31.4112 20.8667V14.1598L21.3317 11.255L11.2521 14.1598V20.8667C11.2607 23.911 12.2716 26.8678 14.1286 29.2801ZM36.7293 6.22736C37.0737 6.57185 37.3149 7.00571 37.4258 7.47999C37.5367 7.95428 37.5128 8.45011 37.3569 8.91157C37.201 9.37302 36.9193 9.78172 36.5435 10.0916C36.1677 10.4014 35.7127 10.6001 35.23 10.6652C34.7473 10.7303 34.256 10.6592 33.8116 10.4599C33.3671 10.2606 32.9872 9.94114 32.7147 9.53745C32.4421 9.13376 32.2878 8.66194 32.2691 8.17522C32.2505 7.68851 32.3682 7.20625 32.609 6.78287C29.8164 4.66193 26.4826 3.37107 22.9899 3.05837C19.4972 2.74566 15.9871 3.42378 12.8623 5.01493C12.7392 5.07643 12.5968 5.08684 12.4661 5.04389C12.3354 5.00094 12.227 4.90812 12.1644 4.78561C12.1018 4.66311 12.0901 4.52084 12.1318 4.38976C12.1736 4.25867 12.2654 4.14939 12.3874 4.08568C15.6978 2.39774 19.4184 1.68124 23.119 2.019C26.8195 2.35677 30.3489 3.73501 33.2991 5.99439C33.8024 5.61185 34.4272 5.42466 35.0579 5.46749C35.6886 5.51033 36.2824 5.78028 36.7293 6.22736ZM35.9885 6.96826C35.0055 5.9852 33.3155 6.68353 33.3155 8.07568C33.3155 9.46783 35.0054 10.1657 35.9885 9.1831C36.2821 8.88944 36.447 8.49118 36.447 8.07593C36.447 7.66067 36.2821 7.26242 35.9885 6.96875V6.96826ZM5.93439 6.22736C6.27888 5.88302 6.71274 5.6418 7.18703 5.53091C7.66131 5.42002 8.15715 5.44387 8.6186 5.59976C9.08005 5.75566 9.48876 6.03741 9.79862 6.41322C10.1085 6.78903 10.3071 7.24395 10.3722 7.72666C10.4373 8.20936 10.3662 8.70066 10.1669 9.14511C9.96767 9.58956 9.64817 9.96948 9.24448 10.242C8.84079 10.5146 8.36898 10.6689 7.88226 10.6875C7.39554 10.7062 6.91329 10.5885 6.48991 10.3477C4.36906 13.1402 3.07826 16.4739 2.76556 19.9665C2.45285 23.4591 3.13092 26.9691 4.72197 30.0939C4.75388 30.155 4.77338 30.2218 4.77934 30.2905C4.78529 30.3591 4.77758 30.4283 4.75666 30.494C4.73574 30.5596 4.70201 30.6205 4.65743 30.6731C4.61286 30.7256 4.55831 30.7688 4.49693 30.8002C4.43556 30.8316 4.36859 30.8505 4.29988 30.8558C4.23116 30.8611 4.16207 30.8528 4.0966 30.8313C4.03112 30.8098 3.97056 30.7755 3.9184 30.7305C3.86624 30.6854 3.82353 30.6305 3.79272 30.5688C2.10478 27.2584 1.38827 23.5378 1.72603 19.8372C2.0638 16.1367 3.44205 12.6073 5.70142 9.65716C5.319 9.15393 5.13187 8.52917 5.17471 7.89857C5.21754 7.26797 5.48743 6.67425 5.93439 6.22736ZM6.6753 6.96818C5.69223 7.95116 6.39057 9.64117 7.78272 9.64117C9.17487 9.64117 9.87279 7.95132 8.89014 6.96818C8.59647 6.67459 8.19822 6.50965 7.78296 6.50965C7.36771 6.50965 6.96945 6.67459 6.67579 6.96818H6.6753ZM5.93439 37.0224C5.59006 36.6779 5.34885 36.244 5.23796 35.7697C5.12707 35.2955 5.15092 34.7996 5.30682 34.3382C5.46272 33.8767 5.74446 33.468 6.12026 33.1582C6.49606 32.8483 6.95097 32.6497 7.43367 32.5846C7.91637 32.5195 8.40766 32.5906 8.85211 32.7898C9.29656 32.9891 9.67648 33.3086 9.94903 33.7122C10.2216 34.1159 10.3759 34.5877 10.3946 35.0744C10.4133 35.5611 10.2956 36.0434 10.0548 36.4668C12.8474 38.5877 16.1812 39.8785 19.6738 40.1911C23.1665 40.5038 26.6766 39.8256 29.8014 38.2343C29.9244 38.1728 30.0668 38.1624 30.1975 38.2053C30.3282 38.2483 30.4367 38.3411 30.4993 38.4636C30.5619 38.5861 30.5736 38.7284 30.5318 38.8595C30.49 38.9906 30.3982 39.0998 30.2763 39.1636C26.9658 40.8516 23.2451 41.5682 19.5445 41.2304C15.8439 40.8926 12.3144 39.5143 9.36428 37.2549C8.86109 37.6373 8.23635 37.8246 7.60574 37.7818C6.97513 37.7391 6.38136 37.4693 5.93439 37.0224ZM6.67521 36.2815C7.65828 37.2645 9.3482 36.566 9.3482 35.174C9.3482 33.7821 7.65836 33.0839 6.67521 34.0666C6.52978 34.2121 6.41441 34.3847 6.3357 34.5747C6.25699 34.7647 6.21648 34.9684 6.21648 35.174C6.21648 35.3797 6.25699 35.5834 6.3357 35.7734C6.41441 35.9634 6.52978 36.136 6.67521 36.2815ZM36.7297 37.0224C36.3852 37.3667 35.9514 37.6079 35.4771 37.7188C35.0028 37.8297 34.507 37.8058 34.0455 37.6499C33.5841 37.494 33.1754 37.2122 32.8656 36.8364C32.5557 36.4606 32.357 36.0057 32.292 35.523C32.2269 35.0403 32.298 34.549 32.4972 34.1046C32.6965 33.6601 33.016 33.2802 33.4197 33.0077C33.8234 32.7351 34.2952 32.5808 34.7819 32.5621C35.2686 32.5435 35.7508 32.6612 36.1742 32.9019C38.295 30.1093 39.5858 26.7755 39.8983 23.2828C40.2109 19.7901 39.5326 16.28 37.9413 13.1552C37.9092 13.0941 37.8894 13.0272 37.8833 12.9584C37.8772 12.8896 37.8847 12.8203 37.9056 12.7545C37.9265 12.6886 37.9602 12.6276 38.0048 12.5749C38.0495 12.5222 38.1041 12.4788 38.1656 12.4474C38.2271 12.416 38.2943 12.3971 38.3631 12.3918C38.432 12.3865 38.5012 12.395 38.5668 12.4166C38.6324 12.4383 38.693 12.4728 38.7451 12.5181C38.7973 12.5634 38.8399 12.6185 38.8706 12.6804C40.5585 15.9909 41.275 19.7114 40.9373 23.412C40.5995 27.1125 39.2213 30.6419 36.9619 33.592C37.3445 34.0952 37.5318 34.7201 37.489 35.3508C37.4462 35.9815 37.1764 36.5754 36.7293 37.0224H36.7297ZM35.9888 36.2815C36.9719 35.2984 36.2735 33.6085 34.8814 33.6085C33.4893 33.6085 32.7913 35.2983 33.774 36.2815C34.0677 36.5751 34.4659 36.74 34.8812 36.74C35.2965 36.74 35.6948 36.5751 35.9884 36.2815H35.9888Z" fill="url(#paint0_linear_6698_8242)"/>
<defs>
<linearGradient id="paint0_linear_6698_8242" x1="21.3317" y1="1.9375" x2="21.3317" y2="48.1711" gradientUnits="userSpaceOnUse">
<stop stop-color="#F4853B"/>
<stop offset="1" stop-color="#3448F5"/>
</linearGradient>
</defs>
</svg>
