<svg width="41" height="41" viewBox="0 0 41 41" fill="none" xmlns="http://www.w3.org/2000/svg">
<path d="M38.2139 0.492188H3.00254C1.59023 0.492188 0.441406 1.64101 0.441406 3.05362C0.441406 4.46564 1.59023 5.61446 3.00254 5.61446H3.0103V27.3449C3.0103 29.0296 4.38114 30.4005 6.06588 30.4005H19.9971V35.9557C18.9458 36.2289 18.1638 37.1775 18.1638 38.3133C18.1638 39.6615 19.2604 40.7578 20.6082 40.7578C21.9561 40.7578 23.0527 39.6615 23.0527 38.3133C23.0527 37.1775 22.2706 36.2289 21.2194 35.9557V30.4005H35.1506C36.8353 30.4005 38.2062 29.0296 38.2062 27.3449V5.61446H38.2139C39.6262 5.61446 40.7751 4.46564 40.7751 3.05362C40.7751 1.64101 39.6262 0.492188 38.2139 0.492188ZM21.8305 38.3133C21.8305 38.9871 21.2823 39.5356 20.6082 39.5356C19.9342 39.5356 19.386 38.9871 19.386 38.3133C19.386 37.6396 19.9342 37.0911 20.6082 37.0911C21.2823 37.0911 21.8305 37.6396 21.8305 38.3133ZM36.9839 27.3449C36.9839 28.3559 36.1616 29.1782 35.1506 29.1782H6.06588C5.05491 29.1782 4.23253 28.3559 4.23253 27.3449V5.61446H36.9839V27.3449ZM38.2139 4.39223H3.00254C2.26431 4.39223 1.66364 3.79186 1.66364 3.05362C1.66364 2.31539 2.26431 1.71442 3.00254 1.71442H38.2139C38.9522 1.71442 39.5528 2.31539 39.5528 3.05362C39.5528 3.79186 38.9522 4.39223 38.2139 4.39223Z" fill="url(#paint0_linear_6698_8257)"/>
<path d="M9.89371 15.8871C9.934 15.8889 9.97398 15.8894 10.014 15.8894C10.7279 15.8894 11.4023 15.6339 11.9531 15.1796C13.1578 16.7679 12.862 17.9373 12.8395 18.0158L12.8393 18.0175C12.6904 18.6412 12.5802 19.2402 12.5023 19.7931C12.4551 20.1273 12.6879 20.4364 13.0221 20.4836C13.051 20.4877 13.0797 20.4895 13.1083 20.4895C13.4079 20.4895 13.6696 20.2687 13.7126 19.9638C13.9604 18.2036 14.5371 15.9569 15.8335 13.9454C16.3107 14.279 16.87 14.4749 17.4646 14.4977C17.5049 14.4995 17.5452 14.5001 17.5855 14.5001C18.3646 14.5001 19.1037 14.2083 19.6781 13.6712C21.6825 11.796 21.7013 8.26124 21.701 8.11204C21.7007 7.79335 21.4557 7.52838 21.1382 7.50331C20.9902 7.49257 17.4936 7.23893 15.4863 9.11525C14.388 10.1431 14.2052 11.7974 14.9707 13.0353C14.4124 13.859 13.9693 14.719 13.6192 15.5769C13.4156 15.1475 13.1299 14.6879 12.7361 14.2071C13.3145 13.0778 13.1773 11.6592 12.2743 10.6741C10.4237 8.65512 6.9381 8.62827 6.76443 8.62827H6.76234C6.44365 8.62886 6.17868 8.87415 6.15391 9.19224C6.14227 9.34144 5.89222 12.8673 7.74765 14.8916C8.30744 15.5021 9.06954 15.856 9.89371 15.8871ZM16.3212 10.0081C17.4992 8.90637 19.463 8.72674 20.445 8.71122C20.3561 9.69772 20.0305 11.6677 18.8432 12.7784C18.4795 13.1191 18.0137 13.2898 17.5118 13.2767C17.1618 13.2632 16.8329 13.1482 16.5494 12.9548C16.9396 12.4738 17.3772 12.0143 17.8737 11.5902C18.1304 11.3705 18.1608 10.985 17.9415 10.7284C17.7224 10.4718 17.3372 10.4425 17.08 10.6603C16.6104 11.0616 16.1917 11.4914 15.8094 11.9375C15.6104 11.2684 15.7806 10.5138 16.3212 10.0081ZM11.3732 11.5C11.8162 11.9833 11.9589 12.6392 11.8139 13.2353C11.3888 12.8485 10.8885 12.4552 10.2974 12.061C10.0161 11.8742 9.63709 11.9494 9.45 12.2305C9.2629 12.511 9.3387 12.8906 9.61949 13.078C10.2337 13.4875 10.724 13.8879 11.132 14.2748C10.7909 14.5375 10.3805 14.6744 9.94056 14.666C9.44493 14.6469 8.98599 14.4339 8.64851 14.0656C7.55399 12.8715 7.37704 10.8794 7.36152 9.88631C8.34056 9.97881 10.2831 10.3106 11.3732 11.5Z" fill="url(#paint1_linear_6698_8257)"/>
<path d="M29.3405 27.3061C32.4353 27.3061 34.959 24.8422 35.0686 21.7736C35.0916 21.7092 35.1097 21.6421 35.1097 21.5697C35.1097 18.5937 32.8322 16.1405 29.9287 15.8592C29.7353 15.8394 29.5391 15.8292 29.3405 15.8292C26.1763 15.8292 23.6021 18.4037 23.6021 21.5679C23.6021 24.7321 26.1763 27.3061 29.3405 27.3061ZM29.9824 17.1024C30.0214 17.108 30.0604 17.1137 30.0991 17.1203C30.2489 17.1448 30.3949 17.1792 30.5394 17.218C30.685 17.2582 30.8275 17.3052 30.9669 17.3593C31.0313 17.3838 31.0952 17.4092 31.1583 17.4366C32.5669 18.059 33.5964 19.3801 33.8107 20.9586H29.9824V17.1024ZM28.7601 17.093V21.5697C28.7601 21.9075 29.0338 22.1808 29.3713 22.1808H33.8102C33.5094 24.3811 31.6222 26.0839 29.3405 26.0839C26.8504 26.0839 24.8243 24.0578 24.8243 21.5679C24.8243 19.2746 26.5438 17.3793 28.7601 17.093Z" fill="url(#paint2_linear_6698_8257)"/>
<path d="M24.2132 9.31995H34.4679C34.8053 9.31995 35.079 9.04662 35.079 8.70883C35.079 8.37105 34.8053 8.09772 34.4679 8.09772H24.2132C23.8757 8.09772 23.6021 8.37105 23.6021 8.70883C23.6021 9.04662 23.8757 9.31995 24.2132 9.31995Z" fill="url(#paint3_linear_6698_8257)"/>
<path d="M24.2132 13.2779H34.4679C34.8053 13.2779 35.079 13.0046 35.079 12.6668C35.079 12.329 34.8053 12.0557 34.4679 12.0557H24.2132C23.8757 12.0557 23.6021 12.329 23.6021 12.6668C23.6021 13.0046 23.8757 13.2779 24.2132 13.2779Z" fill="url(#paint4_linear_6698_8257)"/>
<path d="M17.0221 22.1259H6.76741C6.42993 22.1259 6.1563 22.3993 6.1563 22.7371C6.1563 23.0748 6.42993 23.3482 6.76741 23.3482H17.0221C17.3596 23.3482 17.6332 23.0748 17.6332 22.7371C17.6332 22.3993 17.3596 22.1259 17.0221 22.1259Z" fill="url(#paint5_linear_6698_8257)"/>
<path d="M17.0221 26.0839H6.76741C6.42993 26.0839 6.1563 26.3572 6.1563 26.695C6.1563 27.0328 6.42993 27.3061 6.76741 27.3061H17.0221C17.3596 27.3061 17.6332 27.0328 17.6332 26.695C17.6332 26.3572 17.3596 26.0839 17.0221 26.0839Z" fill="url(#paint6_linear_6698_8257)"/>
<defs>
<linearGradient id="paint0_linear_6698_8257" x1="20.6082" y1="0.492187" x2="20.6082" y2="47.7722" gradientUnits="userSpaceOnUse">
<stop stop-color="#F4853B"/>
<stop offset="1" stop-color="#3448F5"/>
</linearGradient>
<linearGradient id="paint1_linear_6698_8257" x1="20.6082" y1="0.492187" x2="20.6082" y2="47.7722" gradientUnits="userSpaceOnUse">
<stop stop-color="#F4853B"/>
<stop offset="1" stop-color="#3448F5"/>
</linearGradient>
<linearGradient id="paint2_linear_6698_8257" x1="20.6082" y1="0.492187" x2="20.6082" y2="47.7722" gradientUnits="userSpaceOnUse">
<stop stop-color="#F4853B"/>
<stop offset="1" stop-color="#3448F5"/>
</linearGradient>
<linearGradient id="paint3_linear_6698_8257" x1="20.6082" y1="0.492187" x2="20.6082" y2="47.7722" gradientUnits="userSpaceOnUse">
<stop stop-color="#F4853B"/>
<stop offset="1" stop-color="#3448F5"/>
</linearGradient>
<linearGradient id="paint4_linear_6698_8257" x1="20.6082" y1="0.492187" x2="20.6082" y2="47.7722" gradientUnits="userSpaceOnUse">
<stop stop-color="#F4853B"/>
<stop offset="1" stop-color="#3448F5"/>
</linearGradient>
<linearGradient id="paint5_linear_6698_8257" x1="20.6082" y1="0.492187" x2="20.6082" y2="47.7722" gradientUnits="userSpaceOnUse">
<stop stop-color="#F4853B"/>
<stop offset="1" stop-color="#3448F5"/>
</linearGradient>
<linearGradient id="paint6_linear_6698_8257" x1="20.6082" y1="0.492187" x2="20.6082" y2="47.7722" gradientUnits="userSpaceOnUse">
<stop stop-color="#F4853B"/>
<stop offset="1" stop-color="#3448F5"/>
</linearGradient>
</defs>
</svg>
