<svg width="43" height="43" viewBox="0 0 43 43" fill="none" xmlns="http://www.w3.org/2000/svg">
<path d="M41.8165 19.6563V23.5937C41.8165 24.6233 40.9788 25.461 39.949 25.461C38.609 25.461 37.4408 26.1086 36.744 27.2377C36.6354 27.4136 36.4473 27.5104 36.2547 27.5104C36.1519 27.5104 36.0478 27.4828 35.9537 27.4248C35.6838 27.2582 35.6 26.9044 35.7666 26.6346C36.6775 25.159 38.2019 24.3127 39.949 24.3127C40.3455 24.3127 40.668 23.9901 40.668 23.5938V19.6564C40.668 19.26 40.3455 18.9374 39.949 18.9374C37.9189 18.9374 36.1743 17.7704 35.3963 15.8919C34.6181 14.0133 35.0265 11.9544 36.4619 10.5189C36.7423 10.2386 36.7423 9.78231 36.4619 9.50201L33.6778 6.71779C33.3974 6.43749 32.9412 6.43741 32.6609 6.71779C31.2253 8.15334 29.1667 8.56169 27.2879 7.78362C25.4094 7.00555 24.2424 5.261 24.2424 3.2308C24.2424 2.83435 23.9199 2.5118 23.5234 2.5118H19.5861C19.1896 2.5118 18.8671 2.83435 18.8671 3.2308C18.8671 5.261 17.7001 7.00555 15.8216 7.78362C13.9428 8.56161 11.8842 8.15325 10.4486 6.71779C10.1682 6.43749 9.71197 6.43741 9.43175 6.71779L6.64752 9.50201C6.36714 9.78239 6.36714 10.2386 6.64752 10.5189C8.08307 11.9544 8.4915 14.0132 7.71336 15.8919C6.93521 17.7704 5.19073 18.9374 3.16054 18.9374C2.76408 18.9374 2.44145 19.26 2.44145 19.6564V23.5938C2.44145 23.9902 2.76408 24.3127 3.16054 24.3127C4.90781 24.3127 6.43219 25.159 7.3429 26.6346C7.50943 26.9045 7.42567 27.2583 7.15587 27.4249C6.88591 27.5914 6.53211 27.5076 6.36558 27.2377C5.66881 26.1087 4.5006 25.4611 3.16054 25.4611C2.1308 25.461 1.29302 24.6233 1.29302 23.5937V19.6563C1.29302 18.6266 2.1308 17.7889 3.16054 17.7889C4.71741 17.7889 6.05534 16.8936 6.65228 15.4524C7.24922 14.011 6.93627 12.4318 5.83533 11.3309C5.10731 10.6028 5.10722 9.41801 5.83533 8.6899L8.61956 5.90568C9.34767 5.17765 10.5324 5.17757 11.2606 5.90568C12.3616 7.00654 13.9408 7.31957 15.382 6.72255C16.8233 6.12561 17.7185 4.78759 17.7185 3.23072C17.7186 2.20098 18.5563 1.36328 19.5861 1.36328H23.5234C24.5531 1.36328 25.3908 2.20098 25.3908 3.23072C25.3908 4.78759 26.2861 6.12561 27.7274 6.72255C29.1686 7.31957 30.748 7.00654 31.8488 5.90568C32.5769 5.17765 33.7616 5.17757 34.4898 5.90568L37.2741 8.68998C38.0022 9.41809 38.0021 10.6029 37.2741 11.331C36.1732 12.4318 35.8602 14.0111 36.4572 15.4524C37.0542 16.8936 38.3921 17.789 39.9489 17.789C40.9788 17.7889 41.8165 18.6267 41.8165 19.6563ZM27.0384 28.6166C26.789 28.8125 26.7457 29.1735 26.9415 29.4229C27.0548 29.5671 27.2233 29.6425 27.3935 29.6425C27.5176 29.6425 27.6426 29.6024 27.7478 29.5198C30.1885 27.6026 31.5883 24.7251 31.5883 21.625C31.5883 16.0925 27.0872 11.5914 21.5547 11.5914C16.0222 11.5914 11.5212 16.0924 11.5212 21.625C11.5212 24.7251 12.921 27.6027 15.3618 29.5198C15.6112 29.7157 15.9722 29.6722 16.1681 29.4229C16.364 29.1735 16.3206 28.8126 16.0712 28.6166C13.9094 26.9186 12.6696 24.3703 12.6696 21.625C12.6696 16.7257 16.6554 12.7399 21.5547 12.7399C26.4539 12.7399 30.4399 16.7257 30.4399 21.625C30.4399 24.3703 29.2 26.9186 27.0384 28.6166ZM36.8034 32.7717L34.7418 35.1867L36.8034 37.6016H41.2422C41.446 37.6016 41.6346 37.7096 41.7376 37.8855C41.8407 38.0614 41.8428 38.2786 41.7432 38.4564C40.5579 40.5723 38.3168 41.8867 35.8944 41.8867C33.2971 41.8867 30.9668 40.4084 29.854 38.089H13.2554C12.1426 40.4084 9.81237 41.8867 7.2151 41.8867C4.7928 41.8867 2.55154 40.5723 1.36619 38.4565C1.2666 38.2787 1.26874 38.0614 1.37177 37.8856C1.4748 37.7097 1.66339 37.6017 1.86715 37.6017H6.30603L8.36764 35.1867L6.30603 32.7718H1.86724C1.66347 32.7718 1.47488 32.6638 1.37185 32.4879C1.26874 32.312 1.26668 32.0948 1.36627 31.917C2.55162 29.8011 4.7928 28.4868 7.21518 28.4868C9.81245 28.4868 12.1426 29.965 13.2555 32.2845H29.8542C30.9669 29.965 33.2973 28.4868 35.8945 28.4868C38.3169 28.4868 40.5581 29.8011 41.7434 31.9171C41.843 32.0948 41.8408 32.3121 41.7378 32.488C41.6348 32.6639 41.4462 32.7719 41.2424 32.7719L36.8034 32.7717ZM36.5386 31.6233H40.1511C39.1064 30.3775 37.5516 29.635 35.8944 29.635C33.6339 29.635 31.6177 30.9861 30.7578 33.0769C30.6693 33.2921 30.4596 33.4327 30.2268 33.4327H12.8826C12.6498 33.4327 12.4401 33.2921 12.3516 33.0769C11.4917 30.986 9.47539 29.635 7.2151 29.635C5.55799 29.635 4.00317 30.3775 2.95833 31.6233H6.57091C6.73899 31.6233 6.89854 31.6969 7.00764 31.8247L9.55947 34.8138C9.74273 35.0286 9.74273 35.3447 9.55947 35.5595L7.00764 38.5486C6.89854 38.6764 6.73899 38.75 6.57091 38.75H2.95842C4.00317 39.9958 5.55799 40.7383 7.2151 40.7383C9.47547 40.7383 11.4917 39.3872 12.3516 37.2964C12.4401 37.0812 12.6498 36.9406 12.8826 36.9406H30.2268C30.4596 36.9406 30.6694 37.0812 30.7579 37.2964C31.6178 39.3872 33.634 40.7383 35.8945 40.7383C37.5516 40.7383 39.1064 39.9958 40.1512 38.75H36.5387C36.3707 38.75 36.2111 38.6764 36.102 38.5486L33.5501 35.5595C33.3668 35.3447 33.3668 35.0286 33.5501 34.8138L36.102 31.8247C36.211 31.6969 36.3706 31.6233 36.5386 31.6233Z" fill="url(#paint0_linear_6698_8271)"/>
<defs>
<linearGradient id="paint0_linear_6698_8271" x1="21.5548" y1="1.36328" x2="21.5548" y2="48.9461" gradientUnits="userSpaceOnUse">
<stop stop-color="#F4853B"/>
<stop offset="1" stop-color="#3448F5"/>
</linearGradient>
</defs>
</svg>
