<svg width="43" height="43" viewBox="0 0 43 43" fill="none" xmlns="http://www.w3.org/2000/svg">
<g clip-path="url(#clip0_6698_8411)">
<path d="M12.7662 11.8901C12.7662 11.7378 12.8267 11.5917 12.9344 11.484C13.0421 11.3763 13.1881 11.3158 13.3404 11.3158H28.9644C29.1167 11.3158 29.2627 11.3763 29.3704 11.484C29.4781 11.5917 29.5386 11.7378 29.5386 11.8901C29.5386 12.0423 29.4781 12.1884 29.3704 12.2961C29.2627 12.4038 29.1167 12.4643 28.9644 12.4643H13.3405C13.2651 12.4643 13.1904 12.4494 13.1208 12.4206C13.0511 12.3917 12.9878 12.3494 12.9344 12.2961C12.8811 12.2428 12.8388 12.1795 12.8099 12.1098C12.7811 12.0401 12.7662 11.9655 12.7662 11.8901ZM13.3404 21.6401H28.9644C29.1167 21.6401 29.2627 21.5796 29.3704 21.4719C29.4781 21.3643 29.5386 21.2182 29.5386 21.0659C29.5386 20.9136 29.4781 20.7676 29.3704 20.6599C29.2627 20.5522 29.1167 20.4917 28.9644 20.4917H13.3405C13.1882 20.4917 13.0422 20.5522 12.9345 20.6599C12.8268 20.7676 12.7663 20.9136 12.7663 21.0659C12.7663 21.2182 12.8268 21.3643 12.9345 21.4719C13.0422 21.5796 13.1882 21.6401 13.3405 21.6401H13.3404ZM13.3404 15.7105H28.9644C29.1167 15.7105 29.2627 15.65 29.3704 15.5423C29.4781 15.4346 29.5386 15.2886 29.5386 15.1363C29.5386 14.984 29.4781 14.8379 29.3704 14.7302C29.2627 14.6226 29.1167 14.5621 28.9644 14.5621H13.3405C13.1882 14.5621 13.0422 14.6226 12.9345 14.7302C12.8268 14.8379 12.7663 14.984 12.7663 15.1363C12.7663 15.2886 12.8268 15.4346 12.9345 15.5423C13.0422 15.65 13.1882 15.7105 13.3405 15.7105H13.3404ZM11.3198 20.1822V25.1955C11.3198 25.3478 11.2593 25.4939 11.1516 25.6016C11.0439 25.7092 10.8978 25.7697 10.7455 25.7697H5.73204C5.57975 25.7697 5.4337 25.7092 5.32601 25.6016C5.21832 25.4939 5.15782 25.3478 5.15782 25.1955V20.1822C5.15782 20.0299 5.21832 19.8838 5.32601 19.7761C5.4337 19.6685 5.57975 19.608 5.73204 19.608H10.7455C10.8209 19.6079 10.8956 19.6228 10.9653 19.6516C11.0349 19.6805 11.0983 19.7228 11.1516 19.7761C11.2049 19.8294 11.2473 19.8927 11.2761 19.9624C11.305 20.0321 11.3198 20.1068 11.3198 20.1822H11.3198ZM10.1713 20.7564H6.30643V24.621H10.1712L10.1713 20.7564ZM11.3198 11.0063V16.0197C11.3198 16.172 11.2593 16.318 11.1516 16.4257C11.0439 16.5334 10.8978 16.5939 10.7455 16.5939H5.73204C5.57975 16.5939 5.4337 16.5334 5.32601 16.4257C5.21832 16.318 5.15782 16.172 5.15782 16.0197V11.0063C5.15782 10.854 5.21832 10.7079 5.32601 10.6002C5.4337 10.4925 5.57975 10.432 5.73204 10.432H10.7455C10.8209 10.432 10.8956 10.4468 10.9653 10.4757C11.0349 10.5045 11.0983 10.5468 11.1516 10.6002C11.2049 10.6535 11.2473 10.7168 11.2761 10.7865C11.305 10.8561 11.3198 10.9308 11.3198 11.0063H11.3198ZM10.1713 11.5805H6.30643V15.4451H10.1712L10.1713 11.5805ZM11.3198 29.3598V34.3712C11.3198 34.5235 11.2593 34.6696 11.1516 34.7772C11.0439 34.8849 10.8978 34.9454 10.7455 34.9454H5.73204C5.57975 34.9454 5.4337 34.8849 5.32601 34.7772C5.21832 34.6696 5.15782 34.5235 5.15782 34.3712V29.3602C5.15782 29.2079 5.21832 29.0618 5.32601 28.9541C5.4337 28.8464 5.57975 28.7859 5.73204 28.7859H10.7455C10.8209 28.7859 10.8956 28.8008 10.9653 28.8296C11.0349 28.8585 11.0983 28.9008 11.1516 28.9541C11.2049 29.0074 11.2473 29.0707 11.2761 29.1404C11.305 29.2101 11.3198 29.2847 11.3198 29.3602L11.3198 29.3598ZM10.1713 29.9341H6.30643V33.7963H10.1712L10.1713 29.9341ZM41.1931 26.2568C41.0758 30.0617 40.4377 33.1152 39.2426 35.5919C37.8153 38.5495 35.5986 40.7482 32.465 42.3139C32.3853 42.3537 32.2974 42.3745 32.2083 42.3745C32.1192 42.3745 32.0313 42.3537 31.9515 42.3139C30.7687 41.7317 29.6625 41.0054 28.6581 40.1515H2.48828C2.33599 40.1515 2.18993 40.091 2.08225 39.9834C1.97456 39.8757 1.91406 39.7296 1.91406 39.5773V0.949219C1.91406 0.796926 1.97456 0.650872 2.08225 0.543185C2.18993 0.435498 2.33599 0.375 2.48828 0.375L24.7973 0.375C24.8728 0.374995 24.9475 0.38985 25.0171 0.418718C25.0868 0.447587 25.1501 0.489902 25.2035 0.543246L32.6143 7.95403C32.6677 8.00737 32.71 8.07069 32.7388 8.14037C32.7677 8.21006 32.7825 8.28474 32.7825 8.36017V21.7575C35.1686 23.567 37.8805 24.9006 40.7705 25.6856C40.8948 25.7196 41.0042 25.7945 41.0808 25.8982C41.1574 26.0019 41.1969 26.1284 41.1929 26.2573L41.1931 26.2568ZM25.3717 7.78579H30.8215L25.3717 2.33604V7.78579ZM3.06258 39.0035H27.4707C26.5422 37.9854 25.7686 36.8362 25.1748 35.5928C24.9352 35.094 24.7217 34.5831 24.5349 34.0623H13.3405C13.1882 34.0623 13.0422 34.0018 12.9345 33.8941C12.8268 33.7864 12.7663 33.6404 12.7663 33.4881C12.7663 33.3358 12.8268 33.1897 12.9345 33.082C13.0422 32.9743 13.1882 32.9138 13.3405 32.9138H24.1645C23.9671 32.2241 23.8044 31.5248 23.677 30.8188H13.3405C13.1882 30.8188 13.0422 30.7583 12.9345 30.6506C12.8268 30.5429 12.7663 30.3968 12.7663 30.2445C12.7663 30.0923 12.8268 29.9462 12.9345 29.8385C13.0422 29.7308 13.1882 29.6703 13.3405 29.6703H23.496C23.3462 28.5383 23.2553 27.3993 23.2235 26.2578C23.2195 26.1289 23.259 26.0025 23.3356 25.8988C23.4123 25.7951 23.5216 25.7202 23.6459 25.6862C24.4631 25.4626 25.2678 25.1958 26.0567 24.8868H13.3405C13.1882 24.8868 13.0422 24.8263 12.9345 24.7187C12.8268 24.611 12.7663 24.4649 12.7663 24.3126C12.7663 24.1603 12.8268 24.0143 12.9345 23.9066C13.0422 23.7989 13.1882 23.7384 13.3405 23.7384H28.5444C29.6229 23.1576 30.6556 22.4957 31.6338 21.7584V8.93455H24.7973C24.645 8.93455 24.499 8.87405 24.3913 8.76637C24.2836 8.65868 24.2231 8.51262 24.2231 8.36033V1.52344H3.06258V39.0035ZM40.0283 26.6693C37.2081 25.8483 34.5591 24.5255 32.2082 22.7646C29.8573 24.5256 27.2082 25.8483 24.388 26.6693C24.6335 32.3984 26.1619 36.3907 29.2294 39.1255C29.2486 39.1403 29.2668 39.1564 29.284 39.1735C30.1745 39.9506 31.1565 40.6163 32.2082 41.1559C37.2876 38.5123 39.7133 34.0203 40.0283 26.6693ZM28.6217 32.0282C28.514 31.9205 28.368 31.86 28.2157 31.86C28.0634 31.86 27.9173 31.9205 27.8096 32.0282C27.7019 32.1358 27.6414 32.2819 27.6414 32.4342C27.6414 32.5865 27.7019 32.7326 27.8096 32.8403L30.1302 35.1609C30.1835 35.2143 30.2468 35.2566 30.3165 35.2854C30.3862 35.3143 30.4608 35.3291 30.5362 35.3291C30.6117 35.3291 30.6863 35.3143 30.756 35.2854C30.8257 35.2566 30.889 35.2143 30.9423 35.1609L36.6068 29.4964C36.7145 29.3887 36.775 29.2427 36.775 29.0904C36.775 28.9381 36.7145 28.792 36.6068 28.6843C36.4991 28.5766 36.353 28.5161 36.2007 28.5161C36.0484 28.5161 35.9024 28.5766 35.7947 28.6843L30.5365 33.9425L28.6217 32.0282Z" fill="url(#paint0_linear_6698_8411)"/>
</g>
<defs>
<linearGradient id="paint0_linear_6698_8411" x1="21.5536" y1="0.375" x2="21.5536" y2="49.691" gradientUnits="userSpaceOnUse">
<stop stop-color="#F4853B"/>
<stop offset="1" stop-color="#3448F5"/>
</linearGradient>
<clipPath id="clip0_6698_8411">
<rect width="42" height="42" fill="white" transform="translate(0.554688 0.375)"/>
</clipPath>
</defs>
</svg>
