<svg width="43" height="43" viewBox="0 0 43 43" fill="none" xmlns="http://www.w3.org/2000/svg">
<g clip-path="url(#clip0_6698_8426)">
<mask id="path-1-outside-1_6698_8426" maskUnits="userSpaceOnUse" x="0.152344" y="-0.0546875" width="42" height="42" fill="black">
<rect fill="white" x="0.152344" y="-0.0546875" width="42" height="42"/>
<path fill-rule="evenodd" clip-rule="evenodd" d="M22.8394 34.519C23.7539 34.4173 24.4469 33.7058 24.5247 32.7888L24.6841 30.9102C24.7091 30.6151 24.8861 30.3712 25.1576 30.2574C25.4291 30.1438 25.7273 30.1887 25.955 30.3777L27.4051 31.5812C28.1127 32.1685 29.1056 32.1738 29.8196 31.5942C30.5736 30.982 31.2631 30.2868 31.8688 29.528C32.4425 28.8095 32.4291 27.8168 31.8362 27.114L30.6214 25.6737C30.4305 25.4474 30.3831 25.1497 30.4947 24.8774C30.6063 24.6049 30.8488 24.426 31.1436 24.3986L33.0204 24.2242C33.936 24.1391 34.6419 23.4408 34.7369 22.5262C34.785 22.0634 34.8094 21.5919 34.8094 21.1249C34.8094 20.6216 34.7813 20.1145 34.7259 19.6175C34.624 18.703 33.9125 18.01 32.9957 17.9323L31.117 17.7728C30.822 17.7478 30.578 17.5708 30.4643 17.2993C30.3506 17.0278 30.3955 16.7297 30.5846 16.5018L31.788 15.0518C32.3753 14.3442 32.3807 13.3512 31.801 12.6373C31.189 11.8834 30.4937 11.1939 29.7348 10.588C29.0163 10.0144 28.0237 10.0278 27.3207 10.6206L25.8807 11.8354C25.6544 12.0263 25.3565 12.0737 25.0842 11.9621C24.8119 11.8506 24.6329 11.608 24.6055 11.3132L24.431 9.43631C24.3459 8.52067 23.6477 7.81479 22.7331 7.71988C21.7719 7.61997 20.7824 7.62407 19.8244 7.73088C18.9099 7.83276 18.2168 8.54422 18.1392 9.461L17.9798 11.3397C17.9547 11.6347 17.7777 11.8787 17.5063 11.9925C17.2349 12.1063 16.9367 12.0612 16.7088 11.8721L15.2588 10.6688C14.5512 10.0814 13.5582 10.076 12.8443 10.6558C12.0904 11.2678 11.4009 11.963 10.795 12.7221C10.2213 13.4406 10.2348 14.4332 10.8275 15.1361L12.0423 16.5762C12.2332 16.8025 12.2806 17.1002 12.1691 17.3726C12.0575 17.645 11.8149 17.8239 11.52 17.8513L9.64326 18.0258C8.7277 18.1109 8.02183 18.8091 7.92675 19.7238C7.87868 20.1872 7.85424 20.6587 7.85424 21.125C7.85424 21.6282 7.88229 22.1353 7.93774 22.6325C8.03963 23.547 8.75108 24.2401 9.66786 24.3178L11.5466 24.4772C11.8416 24.5022 12.0857 24.6793 12.1994 24.9506C12.3131 25.2222 12.2682 25.5203 12.0791 25.7481L10.8757 27.1982C10.2884 27.9058 10.2831 28.8987 10.8627 29.6128C11.4748 30.3667 12.1701 31.0562 12.9289 31.662C13.6474 32.2356 14.6401 32.2221 15.3429 31.6294L16.783 30.4146C17.0093 30.2237 17.3071 30.1763 17.5794 30.2878C17.8518 30.3994 18.0308 30.642 18.0582 30.9369L18.2327 32.8137C18.3178 33.7293 19.016 34.4352 19.9307 34.5302C20.3941 34.5783 20.8655 34.6027 21.3319 34.6027C21.8352 34.6025 22.3424 34.5745 22.8394 34.519ZM19.2129 32.7225L19.0385 30.8456C18.9774 30.189 18.5614 29.6262 17.9526 29.3769C17.7365 29.2884 17.5099 29.245 17.285 29.245C16.8765 29.245 16.4735 29.3879 16.1484 29.6622L14.7084 30.877C14.3691 31.163 13.8899 31.1694 13.5432 30.8926C12.8394 30.3308 12.1948 29.6915 11.627 28.9923C11.3472 28.6476 11.3498 28.1684 11.6333 27.8269L12.8366 26.3768C13.2579 25.8692 13.3616 25.177 13.1074 24.5703C12.8532 23.9636 12.2871 23.5522 11.63 23.4964L9.75121 23.337C9.30865 23.2994 8.96527 22.965 8.91613 22.5236C8.86478 22.0624 8.83869 21.5919 8.83869 21.125C8.83869 20.6926 8.86133 20.2552 8.90588 19.8256C8.95181 19.3841 9.29249 19.0471 9.73439 19.006L11.6112 18.8315C12.2679 18.7705 12.8307 18.3544 13.08 17.7457C13.3293 17.1369 13.2201 16.4456 12.7948 15.9415L11.58 14.5013C11.2939 14.1621 11.2874 13.683 11.5643 13.3362C12.1262 12.6322 12.7656 11.9876 13.4648 11.42C13.8092 11.1403 14.2885 11.1428 14.6301 11.4263L16.0802 12.6297C16.5878 13.0508 17.28 13.1546 17.8866 12.9004C18.4933 12.6463 18.9048 12.0802 18.9606 11.423L19.12 9.54426C19.1576 9.10178 19.492 8.7584 19.9334 8.70918C20.8218 8.61017 21.7398 8.60631 22.6314 8.69901C23.0728 8.74486 23.4099 9.08554 23.451 9.52744L23.6255 11.4043C23.6865 12.061 24.1025 12.6238 24.7112 12.8731C25.3199 13.1225 26.0114 13.0131 26.5155 12.5878L27.9556 11.3731C28.2948 11.0869 28.7739 11.0804 29.1208 11.3573C29.8247 11.9192 30.4693 12.5587 31.037 13.2578C31.3168 13.6023 31.3142 14.0816 31.0307 14.4232L29.8273 15.8732C29.4061 16.3807 29.3024 17.0729 29.5565 17.6796C29.8106 18.2863 30.3768 18.6978 31.0339 18.7536L32.9127 18.913C33.3552 18.9506 33.6986 19.2851 33.7478 19.7265C33.7992 20.1874 33.8252 20.6579 33.8252 21.1249C33.8252 21.5581 33.8026 21.9953 33.758 22.4245C33.712 22.866 33.3714 23.203 32.9295 23.244L31.0527 23.4184C30.396 23.4795 29.8331 23.8955 29.5838 24.5043C29.3345 25.1131 29.4438 25.8044 29.8691 26.3084L31.0838 27.7486C31.3701 28.0878 31.3765 28.567 31.0996 28.9137C30.5378 29.6176 29.8983 30.2622 29.1991 30.8299C28.8546 31.1098 28.3753 31.1072 28.0338 30.8237L26.5837 29.6202C26.0762 29.199 25.3839 29.0953 24.7773 29.3495C24.1706 29.6036 23.759 30.1697 23.7032 30.8269L23.5439 32.7056C23.5063 33.1482 23.1718 33.4916 22.7304 33.5407C21.8423 33.6398 20.926 33.6438 20.0324 33.5509C19.591 33.5051 19.254 33.1644 19.2129 32.7225ZM18.7225 38.9136C18.681 39.1529 18.473 39.3217 18.2381 39.3217C18.2102 39.3217 18.1818 39.3193 18.1533 39.3143C9.7047 37.8481 3.42922 30.7642 2.90537 22.2776L1.99253 23.1905C1.80025 23.3828 1.48869 23.3828 1.29649 23.1905C1.10429 22.9983 1.10429 22.6866 1.29649 22.4945L3.01406 20.777C3.20626 20.5847 3.5179 20.5847 3.7101 20.777L5.42767 22.4945C5.61987 22.6867 5.61987 22.9984 5.42767 23.1905C5.23547 23.3828 4.92383 23.3828 4.73163 23.1905L3.89697 22.3558C4.45297 30.3276 10.3707 36.9645 18.3217 38.3444C18.5895 38.391 18.7689 38.6457 18.7225 38.9136ZM3.14261 17.9464C4.60883 9.49766 11.6926 3.22219 20.1792 2.69834L19.2663 1.7855C19.0741 1.5933 19.0741 1.28166 19.2663 1.08946C19.4586 0.897263 19.7703 0.897263 19.9624 1.08946L21.6799 2.80703C21.8721 2.99923 21.8721 3.31087 21.6799 3.50307L19.9624 5.22072C19.7702 5.41292 19.4585 5.41292 19.2663 5.22072C19.0741 5.02852 19.0741 4.71688 19.2663 4.52468L20.101 3.69002C12.1293 4.24602 5.49239 10.1638 4.11246 18.1147C4.07095 18.3541 3.863 18.5228 3.62815 18.5228C3.60018 18.5228 3.57188 18.5204 3.54341 18.5155C3.2755 18.4689 3.09609 18.2141 3.14261 17.9464ZM39.5213 24.3036C38.055 32.7522 30.9713 39.0277 22.4847 39.5515L23.3975 40.4645C23.5897 40.6567 23.5897 40.9683 23.3975 41.1604C23.3014 41.2566 23.1755 41.3046 23.0495 41.3046C22.9235 41.3046 22.7975 41.2566 22.7014 41.1604L20.9838 39.4428C20.7916 39.2506 20.7916 38.939 20.9838 38.7469L22.7014 37.0293C22.8936 36.837 23.2052 36.837 23.3974 37.0293C23.5896 37.2215 23.5896 37.5332 23.3974 37.7253L22.5628 38.5599C30.5345 38.0041 37.1714 32.0863 38.5513 24.1352C38.5978 23.8675 38.8528 23.6879 39.1204 23.7345C39.3884 23.7809 39.5678 24.0357 39.5213 24.3036ZM41.3675 19.7553L39.65 21.4729C39.5538 21.569 39.4279 21.617 39.3019 21.617C39.1759 21.617 39.05 21.569 38.9538 21.4729L37.2363 19.7553C37.0441 19.5631 37.0441 19.2515 37.2363 19.0593C37.4285 18.8671 37.7401 18.8671 37.9323 19.0593L38.767 19.894C38.211 11.9223 32.2932 5.28536 24.3423 3.90543C24.0744 3.85892 23.895 3.60413 23.9415 3.3363C23.9879 3.06847 24.2423 2.8889 24.5106 2.93549C32.9593 4.4018 39.2348 11.4855 39.7586 19.9722L40.6714 19.0593C40.8636 18.8671 41.1752 18.8672 41.3674 19.0593C41.5597 19.2515 41.5596 19.5631 41.3675 19.7553ZM18.7797 22.7035C18.5875 22.8956 18.2759 22.8957 18.0837 22.7034C17.8915 22.5112 17.8915 22.1995 18.0837 22.0073C19.8748 20.2164 22.7892 20.2164 24.5802 22.0073C24.7724 22.1996 24.7724 22.5113 24.5802 22.7034C24.4841 22.7995 24.3581 22.8476 24.2321 22.8476C24.1061 22.8476 23.9802 22.7995 23.884 22.7035C22.477 21.2963 20.1871 21.2963 18.7797 22.7035ZM16.5345 20.4581C16.3423 20.6504 16.0306 20.6503 15.8384 20.4581C15.6462 20.2659 15.6462 19.9543 15.8384 19.7621C18.8676 16.733 23.7964 16.7329 26.8256 19.7621C27.0178 19.9543 27.0178 20.2659 26.8256 20.4581C26.7295 20.5542 26.6035 20.6022 26.4775 20.6022C26.3515 20.6022 26.2256 20.5542 26.1295 20.4581C23.4841 17.8127 19.1798 17.8128 16.5345 20.4581ZM21.3321 25.9119C20.9706 25.9119 20.6758 25.6171 20.6758 25.2556C20.6758 24.8942 20.9706 24.5994 21.3321 24.5994C21.6935 24.5994 21.9883 24.8942 21.9883 25.2556C21.9883 25.6171 21.6935 25.9119 21.3321 25.9119Z"/>
</mask>
<path fill-rule="evenodd" clip-rule="evenodd" d="M22.8394 34.519C23.7539 34.4173 24.4469 33.7058 24.5247 32.7888L24.6841 30.9102C24.7091 30.6151 24.8861 30.3712 25.1576 30.2574C25.4291 30.1438 25.7273 30.1887 25.955 30.3777L27.4051 31.5812C28.1127 32.1685 29.1056 32.1738 29.8196 31.5942C30.5736 30.982 31.2631 30.2868 31.8688 29.528C32.4425 28.8095 32.4291 27.8168 31.8362 27.114L30.6214 25.6737C30.4305 25.4474 30.3831 25.1497 30.4947 24.8774C30.6063 24.6049 30.8488 24.426 31.1436 24.3986L33.0204 24.2242C33.936 24.1391 34.6419 23.4408 34.7369 22.5262C34.785 22.0634 34.8094 21.5919 34.8094 21.1249C34.8094 20.6216 34.7813 20.1145 34.7259 19.6175C34.624 18.703 33.9125 18.01 32.9957 17.9323L31.117 17.7728C30.822 17.7478 30.578 17.5708 30.4643 17.2993C30.3506 17.0278 30.3955 16.7297 30.5846 16.5018L31.788 15.0518C32.3753 14.3442 32.3807 13.3512 31.801 12.6373C31.189 11.8834 30.4937 11.1939 29.7348 10.588C29.0163 10.0144 28.0237 10.0278 27.3207 10.6206L25.8807 11.8354C25.6544 12.0263 25.3565 12.0737 25.0842 11.9621C24.8119 11.8506 24.6329 11.608 24.6055 11.3132L24.431 9.43631C24.3459 8.52067 23.6477 7.81479 22.7331 7.71988C21.7719 7.61997 20.7824 7.62407 19.8244 7.73088C18.9099 7.83276 18.2168 8.54422 18.1392 9.461L17.9798 11.3397C17.9547 11.6347 17.7777 11.8787 17.5063 11.9925C17.2349 12.1063 16.9367 12.0612 16.7088 11.8721L15.2588 10.6688C14.5512 10.0814 13.5582 10.076 12.8443 10.6558C12.0904 11.2678 11.4009 11.963 10.795 12.7221C10.2213 13.4406 10.2348 14.4332 10.8275 15.1361L12.0423 16.5762C12.2332 16.8025 12.2806 17.1002 12.1691 17.3726C12.0575 17.645 11.8149 17.8239 11.52 17.8513L9.64326 18.0258C8.7277 18.1109 8.02183 18.8091 7.92675 19.7238C7.87868 20.1872 7.85424 20.6587 7.85424 21.125C7.85424 21.6282 7.88229 22.1353 7.93774 22.6325C8.03963 23.547 8.75108 24.2401 9.66786 24.3178L11.5466 24.4772C11.8416 24.5022 12.0857 24.6793 12.1994 24.9506C12.3131 25.2222 12.2682 25.5203 12.0791 25.7481L10.8757 27.1982C10.2884 27.9058 10.2831 28.8987 10.8627 29.6128C11.4748 30.3667 12.1701 31.0562 12.9289 31.662C13.6474 32.2356 14.6401 32.2221 15.3429 31.6294L16.783 30.4146C17.0093 30.2237 17.3071 30.1763 17.5794 30.2878C17.8518 30.3994 18.0308 30.642 18.0582 30.9369L18.2327 32.8137C18.3178 33.7293 19.016 34.4352 19.9307 34.5302C20.3941 34.5783 20.8655 34.6027 21.3319 34.6027C21.8352 34.6025 22.3424 34.5745 22.8394 34.519ZM19.2129 32.7225L19.0385 30.8456C18.9774 30.189 18.5614 29.6262 17.9526 29.3769C17.7365 29.2884 17.5099 29.245 17.285 29.245C16.8765 29.245 16.4735 29.3879 16.1484 29.6622L14.7084 30.877C14.3691 31.163 13.8899 31.1694 13.5432 30.8926C12.8394 30.3308 12.1948 29.6915 11.627 28.9923C11.3472 28.6476 11.3498 28.1684 11.6333 27.8269L12.8366 26.3768C13.2579 25.8692 13.3616 25.177 13.1074 24.5703C12.8532 23.9636 12.2871 23.5522 11.63 23.4964L9.75121 23.337C9.30865 23.2994 8.96527 22.965 8.91613 22.5236C8.86478 22.0624 8.83869 21.5919 8.83869 21.125C8.83869 20.6926 8.86133 20.2552 8.90588 19.8256C8.95181 19.3841 9.29249 19.0471 9.73439 19.006L11.6112 18.8315C12.2679 18.7705 12.8307 18.3544 13.08 17.7457C13.3293 17.1369 13.2201 16.4456 12.7948 15.9415L11.58 14.5013C11.2939 14.1621 11.2874 13.683 11.5643 13.3362C12.1262 12.6322 12.7656 11.9876 13.4648 11.42C13.8092 11.1403 14.2885 11.1428 14.6301 11.4263L16.0802 12.6297C16.5878 13.0508 17.28 13.1546 17.8866 12.9004C18.4933 12.6463 18.9048 12.0802 18.9606 11.423L19.12 9.54426C19.1576 9.10178 19.492 8.7584 19.9334 8.70918C20.8218 8.61017 21.7398 8.60631 22.6314 8.69901C23.0728 8.74486 23.4099 9.08554 23.451 9.52744L23.6255 11.4043C23.6865 12.061 24.1025 12.6238 24.7112 12.8731C25.3199 13.1225 26.0114 13.0131 26.5155 12.5878L27.9556 11.3731C28.2948 11.0869 28.7739 11.0804 29.1208 11.3573C29.8247 11.9192 30.4693 12.5587 31.037 13.2578C31.3168 13.6023 31.3142 14.0816 31.0307 14.4232L29.8273 15.8732C29.4061 16.3807 29.3024 17.0729 29.5565 17.6796C29.8106 18.2863 30.3768 18.6978 31.0339 18.7536L32.9127 18.913C33.3552 18.9506 33.6986 19.2851 33.7478 19.7265C33.7992 20.1874 33.8252 20.6579 33.8252 21.1249C33.8252 21.5581 33.8026 21.9953 33.758 22.4245C33.712 22.866 33.3714 23.203 32.9295 23.244L31.0527 23.4184C30.396 23.4795 29.8331 23.8955 29.5838 24.5043C29.3345 25.1131 29.4438 25.8044 29.8691 26.3084L31.0838 27.7486C31.3701 28.0878 31.3765 28.567 31.0996 28.9137C30.5378 29.6176 29.8983 30.2622 29.1991 30.8299C28.8546 31.1098 28.3753 31.1072 28.0338 30.8237L26.5837 29.6202C26.0762 29.199 25.3839 29.0953 24.7773 29.3495C24.1706 29.6036 23.759 30.1697 23.7032 30.8269L23.5439 32.7056C23.5063 33.1482 23.1718 33.4916 22.7304 33.5407C21.8423 33.6398 20.926 33.6438 20.0324 33.5509C19.591 33.5051 19.254 33.1644 19.2129 32.7225ZM18.7225 38.9136C18.681 39.1529 18.473 39.3217 18.2381 39.3217C18.2102 39.3217 18.1818 39.3193 18.1533 39.3143C9.7047 37.8481 3.42922 30.7642 2.90537 22.2776L1.99253 23.1905C1.80025 23.3828 1.48869 23.3828 1.29649 23.1905C1.10429 22.9983 1.10429 22.6866 1.29649 22.4945L3.01406 20.777C3.20626 20.5847 3.5179 20.5847 3.7101 20.777L5.42767 22.4945C5.61987 22.6867 5.61987 22.9984 5.42767 23.1905C5.23547 23.3828 4.92383 23.3828 4.73163 23.1905L3.89697 22.3558C4.45297 30.3276 10.3707 36.9645 18.3217 38.3444C18.5895 38.391 18.7689 38.6457 18.7225 38.9136ZM3.14261 17.9464C4.60883 9.49766 11.6926 3.22219 20.1792 2.69834L19.2663 1.7855C19.0741 1.5933 19.0741 1.28166 19.2663 1.08946C19.4586 0.897263 19.7703 0.897263 19.9624 1.08946L21.6799 2.80703C21.8721 2.99923 21.8721 3.31087 21.6799 3.50307L19.9624 5.22072C19.7702 5.41292 19.4585 5.41292 19.2663 5.22072C19.0741 5.02852 19.0741 4.71688 19.2663 4.52468L20.101 3.69002C12.1293 4.24602 5.49239 10.1638 4.11246 18.1147C4.07095 18.3541 3.863 18.5228 3.62815 18.5228C3.60018 18.5228 3.57188 18.5204 3.54341 18.5155C3.2755 18.4689 3.09609 18.2141 3.14261 17.9464ZM39.5213 24.3036C38.055 32.7522 30.9713 39.0277 22.4847 39.5515L23.3975 40.4645C23.5897 40.6567 23.5897 40.9683 23.3975 41.1604C23.3014 41.2566 23.1755 41.3046 23.0495 41.3046C22.9235 41.3046 22.7975 41.2566 22.7014 41.1604L20.9838 39.4428C20.7916 39.2506 20.7916 38.939 20.9838 38.7469L22.7014 37.0293C22.8936 36.837 23.2052 36.837 23.3974 37.0293C23.5896 37.2215 23.5896 37.5332 23.3974 37.7253L22.5628 38.5599C30.5345 38.0041 37.1714 32.0863 38.5513 24.1352C38.5978 23.8675 38.8528 23.6879 39.1204 23.7345C39.3884 23.7809 39.5678 24.0357 39.5213 24.3036ZM41.3675 19.7553L39.65 21.4729C39.5538 21.569 39.4279 21.617 39.3019 21.617C39.1759 21.617 39.05 21.569 38.9538 21.4729L37.2363 19.7553C37.0441 19.5631 37.0441 19.2515 37.2363 19.0593C37.4285 18.8671 37.7401 18.8671 37.9323 19.0593L38.767 19.894C38.211 11.9223 32.2932 5.28536 24.3423 3.90543C24.0744 3.85892 23.895 3.60413 23.9415 3.3363C23.9879 3.06847 24.2423 2.8889 24.5106 2.93549C32.9593 4.4018 39.2348 11.4855 39.7586 19.9722L40.6714 19.0593C40.8636 18.8671 41.1752 18.8672 41.3674 19.0593C41.5597 19.2515 41.5596 19.5631 41.3675 19.7553ZM18.7797 22.7035C18.5875 22.8956 18.2759 22.8957 18.0837 22.7034C17.8915 22.5112 17.8915 22.1995 18.0837 22.0073C19.8748 20.2164 22.7892 20.2164 24.5802 22.0073C24.7724 22.1996 24.7724 22.5113 24.5802 22.7034C24.4841 22.7995 24.3581 22.8476 24.2321 22.8476C24.1061 22.8476 23.9802 22.7995 23.884 22.7035C22.477 21.2963 20.1871 21.2963 18.7797 22.7035ZM16.5345 20.4581C16.3423 20.6504 16.0306 20.6503 15.8384 20.4581C15.6462 20.2659 15.6462 19.9543 15.8384 19.7621C18.8676 16.733 23.7964 16.7329 26.8256 19.7621C27.0178 19.9543 27.0178 20.2659 26.8256 20.4581C26.7295 20.5542 26.6035 20.6022 26.4775 20.6022C26.3515 20.6022 26.2256 20.5542 26.1295 20.4581C23.4841 17.8127 19.1798 17.8128 16.5345 20.4581ZM21.3321 25.9119C20.9706 25.9119 20.6758 25.6171 20.6758 25.2556C20.6758 24.8942 20.9706 24.5994 21.3321 24.5994C21.6935 24.5994 21.9883 24.8942 21.9883 25.2556C21.9883 25.6171 21.6935 25.9119 21.3321 25.9119Z" fill="url(#paint0_linear_6698_8426)"/>
<path fill-rule="evenodd" clip-rule="evenodd" d="M22.8394 34.519C23.7539 34.4173 24.4469 33.7058 24.5247 32.7888L24.6841 30.9102C24.7091 30.6151 24.8861 30.3712 25.1576 30.2574C25.4291 30.1438 25.7273 30.1887 25.955 30.3777L27.4051 31.5812C28.1127 32.1685 29.1056 32.1738 29.8196 31.5942C30.5736 30.982 31.2631 30.2868 31.8688 29.528C32.4425 28.8095 32.4291 27.8168 31.8362 27.114L30.6214 25.6737C30.4305 25.4474 30.3831 25.1497 30.4947 24.8774C30.6063 24.6049 30.8488 24.426 31.1436 24.3986L33.0204 24.2242C33.936 24.1391 34.6419 23.4408 34.7369 22.5262C34.785 22.0634 34.8094 21.5919 34.8094 21.1249C34.8094 20.6216 34.7813 20.1145 34.7259 19.6175C34.624 18.703 33.9125 18.01 32.9957 17.9323L31.117 17.7728C30.822 17.7478 30.578 17.5708 30.4643 17.2993C30.3506 17.0278 30.3955 16.7297 30.5846 16.5018L31.788 15.0518C32.3753 14.3442 32.3807 13.3512 31.801 12.6373C31.189 11.8834 30.4937 11.1939 29.7348 10.588C29.0163 10.0144 28.0237 10.0278 27.3207 10.6206L25.8807 11.8354C25.6544 12.0263 25.3565 12.0737 25.0842 11.9621C24.8119 11.8506 24.6329 11.608 24.6055 11.3132L24.431 9.43631C24.3459 8.52067 23.6477 7.81479 22.7331 7.71988C21.7719 7.61997 20.7824 7.62407 19.8244 7.73088C18.9099 7.83276 18.2168 8.54422 18.1392 9.461L17.9798 11.3397C17.9547 11.6347 17.7777 11.8787 17.5063 11.9925C17.2349 12.1063 16.9367 12.0612 16.7088 11.8721L15.2588 10.6688C14.5512 10.0814 13.5582 10.076 12.8443 10.6558C12.0904 11.2678 11.4009 11.963 10.795 12.7221C10.2213 13.4406 10.2348 14.4332 10.8275 15.1361L12.0423 16.5762C12.2332 16.8025 12.2806 17.1002 12.1691 17.3726C12.0575 17.645 11.8149 17.8239 11.52 17.8513L9.64326 18.0258C8.7277 18.1109 8.02183 18.8091 7.92675 19.7238C7.87868 20.1872 7.85424 20.6587 7.85424 21.125C7.85424 21.6282 7.88229 22.1353 7.93774 22.6325C8.03963 23.547 8.75108 24.2401 9.66786 24.3178L11.5466 24.4772C11.8416 24.5022 12.0857 24.6793 12.1994 24.9506C12.3131 25.2222 12.2682 25.5203 12.0791 25.7481L10.8757 27.1982C10.2884 27.9058 10.2831 28.8987 10.8627 29.6128C11.4748 30.3667 12.1701 31.0562 12.9289 31.662C13.6474 32.2356 14.6401 32.2221 15.3429 31.6294L16.783 30.4146C17.0093 30.2237 17.3071 30.1763 17.5794 30.2878C17.8518 30.3994 18.0308 30.642 18.0582 30.9369L18.2327 32.8137C18.3178 33.7293 19.016 34.4352 19.9307 34.5302C20.3941 34.5783 20.8655 34.6027 21.3319 34.6027C21.8352 34.6025 22.3424 34.5745 22.8394 34.519ZM19.2129 32.7225L19.0385 30.8456C18.9774 30.189 18.5614 29.6262 17.9526 29.3769C17.7365 29.2884 17.5099 29.245 17.285 29.245C16.8765 29.245 16.4735 29.3879 16.1484 29.6622L14.7084 30.877C14.3691 31.163 13.8899 31.1694 13.5432 30.8926C12.8394 30.3308 12.1948 29.6915 11.627 28.9923C11.3472 28.6476 11.3498 28.1684 11.6333 27.8269L12.8366 26.3768C13.2579 25.8692 13.3616 25.177 13.1074 24.5703C12.8532 23.9636 12.2871 23.5522 11.63 23.4964L9.75121 23.337C9.30865 23.2994 8.96527 22.965 8.91613 22.5236C8.86478 22.0624 8.83869 21.5919 8.83869 21.125C8.83869 20.6926 8.86133 20.2552 8.90588 19.8256C8.95181 19.3841 9.29249 19.0471 9.73439 19.006L11.6112 18.8315C12.2679 18.7705 12.8307 18.3544 13.08 17.7457C13.3293 17.1369 13.2201 16.4456 12.7948 15.9415L11.58 14.5013C11.2939 14.1621 11.2874 13.683 11.5643 13.3362C12.1262 12.6322 12.7656 11.9876 13.4648 11.42C13.8092 11.1403 14.2885 11.1428 14.6301 11.4263L16.0802 12.6297C16.5878 13.0508 17.28 13.1546 17.8866 12.9004C18.4933 12.6463 18.9048 12.0802 18.9606 11.423L19.12 9.54426C19.1576 9.10178 19.492 8.7584 19.9334 8.70918C20.8218 8.61017 21.7398 8.60631 22.6314 8.69901C23.0728 8.74486 23.4099 9.08554 23.451 9.52744L23.6255 11.4043C23.6865 12.061 24.1025 12.6238 24.7112 12.8731C25.3199 13.1225 26.0114 13.0131 26.5155 12.5878L27.9556 11.3731C28.2948 11.0869 28.7739 11.0804 29.1208 11.3573C29.8247 11.9192 30.4693 12.5587 31.037 13.2578C31.3168 13.6023 31.3142 14.0816 31.0307 14.4232L29.8273 15.8732C29.4061 16.3807 29.3024 17.0729 29.5565 17.6796C29.8106 18.2863 30.3768 18.6978 31.0339 18.7536L32.9127 18.913C33.3552 18.9506 33.6986 19.2851 33.7478 19.7265C33.7992 20.1874 33.8252 20.6579 33.8252 21.1249C33.8252 21.5581 33.8026 21.9953 33.758 22.4245C33.712 22.866 33.3714 23.203 32.9295 23.244L31.0527 23.4184C30.396 23.4795 29.8331 23.8955 29.5838 24.5043C29.3345 25.1131 29.4438 25.8044 29.8691 26.3084L31.0838 27.7486C31.3701 28.0878 31.3765 28.567 31.0996 28.9137C30.5378 29.6176 29.8983 30.2622 29.1991 30.8299C28.8546 31.1098 28.3753 31.1072 28.0338 30.8237L26.5837 29.6202C26.0762 29.199 25.3839 29.0953 24.7773 29.3495C24.1706 29.6036 23.759 30.1697 23.7032 30.8269L23.5439 32.7056C23.5063 33.1482 23.1718 33.4916 22.7304 33.5407C21.8423 33.6398 20.926 33.6438 20.0324 33.5509C19.591 33.5051 19.254 33.1644 19.2129 32.7225ZM18.7225 38.9136C18.681 39.1529 18.473 39.3217 18.2381 39.3217C18.2102 39.3217 18.1818 39.3193 18.1533 39.3143C9.7047 37.8481 3.42922 30.7642 2.90537 22.2776L1.99253 23.1905C1.80025 23.3828 1.48869 23.3828 1.29649 23.1905C1.10429 22.9983 1.10429 22.6866 1.29649 22.4945L3.01406 20.777C3.20626 20.5847 3.5179 20.5847 3.7101 20.777L5.42767 22.4945C5.61987 22.6867 5.61987 22.9984 5.42767 23.1905C5.23547 23.3828 4.92383 23.3828 4.73163 23.1905L3.89697 22.3558C4.45297 30.3276 10.3707 36.9645 18.3217 38.3444C18.5895 38.391 18.7689 38.6457 18.7225 38.9136ZM3.14261 17.9464C4.60883 9.49766 11.6926 3.22219 20.1792 2.69834L19.2663 1.7855C19.0741 1.5933 19.0741 1.28166 19.2663 1.08946C19.4586 0.897263 19.7703 0.897263 19.9624 1.08946L21.6799 2.80703C21.8721 2.99923 21.8721 3.31087 21.6799 3.50307L19.9624 5.22072C19.7702 5.41292 19.4585 5.41292 19.2663 5.22072C19.0741 5.02852 19.0741 4.71688 19.2663 4.52468L20.101 3.69002C12.1293 4.24602 5.49239 10.1638 4.11246 18.1147C4.07095 18.3541 3.863 18.5228 3.62815 18.5228C3.60018 18.5228 3.57188 18.5204 3.54341 18.5155C3.2755 18.4689 3.09609 18.2141 3.14261 17.9464ZM39.5213 24.3036C38.055 32.7522 30.9713 39.0277 22.4847 39.5515L23.3975 40.4645C23.5897 40.6567 23.5897 40.9683 23.3975 41.1604C23.3014 41.2566 23.1755 41.3046 23.0495 41.3046C22.9235 41.3046 22.7975 41.2566 22.7014 41.1604L20.9838 39.4428C20.7916 39.2506 20.7916 38.939 20.9838 38.7469L22.7014 37.0293C22.8936 36.837 23.2052 36.837 23.3974 37.0293C23.5896 37.2215 23.5896 37.5332 23.3974 37.7253L22.5628 38.5599C30.5345 38.0041 37.1714 32.0863 38.5513 24.1352C38.5978 23.8675 38.8528 23.6879 39.1204 23.7345C39.3884 23.7809 39.5678 24.0357 39.5213 24.3036ZM41.3675 19.7553L39.65 21.4729C39.5538 21.569 39.4279 21.617 39.3019 21.617C39.1759 21.617 39.05 21.569 38.9538 21.4729L37.2363 19.7553C37.0441 19.5631 37.0441 19.2515 37.2363 19.0593C37.4285 18.8671 37.7401 18.8671 37.9323 19.0593L38.767 19.894C38.211 11.9223 32.2932 5.28536 24.3423 3.90543C24.0744 3.85892 23.895 3.60413 23.9415 3.3363C23.9879 3.06847 24.2423 2.8889 24.5106 2.93549C32.9593 4.4018 39.2348 11.4855 39.7586 19.9722L40.6714 19.0593C40.8636 18.8671 41.1752 18.8672 41.3674 19.0593C41.5597 19.2515 41.5596 19.5631 41.3675 19.7553ZM18.7797 22.7035C18.5875 22.8956 18.2759 22.8957 18.0837 22.7034C17.8915 22.5112 17.8915 22.1995 18.0837 22.0073C19.8748 20.2164 22.7892 20.2164 24.5802 22.0073C24.7724 22.1996 24.7724 22.5113 24.5802 22.7034C24.4841 22.7995 24.3581 22.8476 24.2321 22.8476C24.1061 22.8476 23.9802 22.7995 23.884 22.7035C22.477 21.2963 20.1871 21.2963 18.7797 22.7035ZM16.5345 20.4581C16.3423 20.6504 16.0306 20.6503 15.8384 20.4581C15.6462 20.2659 15.6462 19.9543 15.8384 19.7621C18.8676 16.733 23.7964 16.7329 26.8256 19.7621C27.0178 19.9543 27.0178 20.2659 26.8256 20.4581C26.7295 20.5542 26.6035 20.6022 26.4775 20.6022C26.3515 20.6022 26.2256 20.5542 26.1295 20.4581C23.4841 17.8127 19.1798 17.8128 16.5345 20.4581ZM21.3321 25.9119C20.9706 25.9119 20.6758 25.6171 20.6758 25.2556C20.6758 24.8942 20.9706 24.5994 21.3321 24.5994C21.6935 24.5994 21.9883 24.8942 21.9883 25.2556C21.9883 25.6171 21.6935 25.9119 21.3321 25.9119Z" stroke="url(#paint1_linear_6698_8426)" stroke-width="0.5" mask="url(#path-1-outside-1_6698_8426)"/>
</g>
<defs>
<linearGradient id="paint0_linear_6698_8426" x1="21.332" y1="0.945312" x2="21.332" y2="48.3354" gradientUnits="userSpaceOnUse">
<stop stop-color="#F4853B"/>
<stop offset="1" stop-color="#3448F5"/>
</linearGradient>
<linearGradient id="paint1_linear_6698_8426" x1="21.332" y1="0.945312" x2="21.332" y2="48.3354" gradientUnits="userSpaceOnUse">
<stop stop-color="#F4853B"/>
<stop offset="1" stop-color="#3448F5"/>
</linearGradient>
<clipPath id="clip0_6698_8426">
<rect width="42" height="42" fill="white" transform="translate(0.332031 0.125)"/>
</clipPath>
</defs>
</svg>
