<svg width="43" height="43" viewBox="0 0 43 43" fill="none" xmlns="http://www.w3.org/2000/svg">
<g clip-path="url(#clip0_6698_8441)">
<mask id="path-1-outside-1_6698_8441" maskUnits="userSpaceOnUse" x="-0.554688" y="-0.375" width="44" height="44" fill="black">
<rect fill="white" x="-0.554688" y="-0.375" width="44" height="44"/>
<path d="M24.264 42.625H18.6071C17.756 42.625 17.0527 41.9594 17.0059 41.1093L16.8509 38.3058C16.836 38.0345 16.6477 37.8034 16.3711 37.7167C15.4431 37.4263 14.5266 37.046 13.6471 36.5854C13.3921 36.4512 13.0959 36.482 12.8934 36.6628L10.7944 38.5351C10.1609 39.1004 9.19386 39.073 8.59282 38.4727L4.59027 34.4699C3.98759 33.8673 3.9615 32.8988 4.53104 32.2649L6.40825 30.1726C6.58773 29.9726 6.618 29.6795 6.48519 29.4259C6.02705 28.5529 5.64347 27.6296 5.34487 26.6816C5.25932 26.4098 5.03143 26.2248 4.76434 26.2099L1.96059 26.0547C1.11091 26.0076 0.445312 25.3043 0.445312 24.4537V18.7963C0.445312 17.9455 1.11091 17.2422 1.96059 17.1951L4.75852 17.0404C5.0284 17.0254 5.25817 16.8386 5.34438 16.5638C5.65758 15.5658 6.06913 14.592 6.56739 13.6686C6.61308 13.5817 6.65943 13.4957 6.707 13.4106L4.53063 10.9854C3.9615 10.351 3.98791 9.38249 4.59027 8.78006L8.59282 4.77734C9.19386 4.17679 10.1605 4.14931 10.7946 4.71467L12.8934 6.5872C13.0959 6.76783 13.3921 6.7981 13.6468 6.6648C14.5256 6.20452 15.4424 5.82373 16.3716 5.53318C16.648 5.44671 16.8366 5.2158 16.8514 4.94477L17.0646 1.07675C17.0783 0.823352 17.2876 0.625 17.5411 0.625H25.3299C25.5835 0.625 25.7927 0.823352 25.8067 1.07666L26.0193 4.94468C26.0347 5.21571 26.223 5.44639 26.4993 5.53285C27.4278 5.82348 28.3473 6.20468 29.2329 6.66636C29.4884 6.79916 29.783 6.76799 29.9852 6.58736L32.0756 4.71721C32.7099 4.15046 33.6775 4.17704 34.2793 4.77849L38.282 8.7812C38.8833 9.38249 38.9103 10.3503 38.343 10.9844L36.1711 13.4134C36.7364 14.4309 37.1918 15.4882 37.5269 16.5606C37.6136 16.837 37.8448 17.0253 38.1155 17.0403L40.92 17.195C41.7697 17.2421 42.4353 17.9457 42.4353 18.7965V24.4531C42.4353 25.3042 41.7697 26.0075 40.9205 26.0546C40.9205 26.0546 40.9205 26.0546 40.92 26.0546L38.1155 26.2093C37.8448 26.2242 37.6136 26.4125 37.5269 26.6894C37.2379 27.615 36.8567 28.5351 36.3938 29.4225C36.261 29.6774 36.2921 29.9725 36.473 30.1752L38.3429 32.2651C38.9102 32.8995 38.8831 33.867 38.2819 34.4683L34.2792 38.471C33.6775 39.0732 32.7098 39.1002 32.0755 38.5325L29.9851 36.6621C29.7828 36.4813 29.4873 36.4496 29.2333 36.5834C28.3463 37.0453 27.4267 37.4265 26.4997 37.7165C26.2233 37.8032 26.035 38.0344 26.0196 38.3056L25.8649 41.1091C25.8179 41.9594 25.1146 42.625 24.264 42.625ZM13.3163 35.547C13.5775 35.547 13.8425 35.6104 14.0895 35.74C14.9187 36.1734 15.7821 36.5323 16.6562 36.8059C17.3164 37.0123 17.7669 37.5805 17.8039 38.2531L17.9589 41.0566C17.9778 41.401 18.2626 41.6704 18.607 41.6704H24.2639C24.6084 41.6704 24.8931 41.401 24.9122 41.0566L25.0669 38.2531C25.1042 37.58 25.5544 37.0123 26.2144 36.8059C27.0879 36.5327 27.9553 36.1729 28.7919 35.7372C29.402 35.4179 30.1198 35.5022 30.6212 35.9511L32.7121 37.8215C32.969 38.0513 33.3614 38.0401 33.6042 37.7963L37.6069 33.7936C37.8503 33.5503 37.861 33.1583 37.6316 32.902L35.7617 30.8116C35.3134 30.3101 35.2294 29.5919 35.5473 28.9817C35.984 28.1437 36.3434 27.2768 36.616 26.4047C36.8225 25.7438 37.3906 25.2931 38.0632 25.2568L40.8672 25.1021C41.2112 25.0829 41.4805 24.7977 41.4805 24.4533V18.7966C41.4805 18.4521 41.2112 18.1674 40.8672 18.1483L38.0632 17.9936C37.3906 17.9565 36.8225 17.506 36.616 16.8459C36.2683 15.734 35.7831 14.639 35.1735 13.5907C35.0691 13.411 35.0928 13.1847 35.2317 13.0307L37.6316 10.3483C37.8609 10.0915 37.8503 9.69979 37.6069 9.45624L33.6042 5.45352C33.3609 5.21046 32.969 5.19808 32.7121 5.42883L30.6217 7.29873C30.1198 7.74736 29.402 7.83079 28.7919 7.51292C27.9561 7.07733 27.0888 6.71779 26.2144 6.44422C25.5545 6.23799 25.1037 5.67 25.0665 4.99792L24.8777 1.57968H17.9934L17.8044 4.99792C17.7671 5.67 17.3164 6.23774 16.6565 6.44446C15.7816 6.71779 14.918 7.07651 14.0895 7.51037C13.4782 7.82989 12.7595 7.74695 12.258 7.29947L10.159 5.42695C9.90286 5.19832 9.51108 5.20948 9.26761 5.45262L5.26506 9.45517C5.02126 9.69913 5.0106 10.0914 5.24102 10.3482L7.6493 13.0317C7.79055 13.1887 7.81172 13.4197 7.70147 13.5998C7.59778 13.7692 7.50386 13.9387 7.40968 14.1177C6.93776 14.992 6.55 15.9098 6.25493 16.8499C6.0487 17.5075 5.48195 17.9566 4.81102 17.9936L2.01309 18.1484C1.66914 18.1675 1.39975 18.452 1.39975 18.7965V24.4538C1.39975 24.7983 1.66914 25.083 2.01309 25.1021L4.81684 25.2573C5.48474 25.2937 6.0492 25.7407 6.25518 26.395C6.53671 27.289 6.89838 28.1596 7.33044 28.9827C7.6502 29.5933 7.56702 30.3101 7.11839 30.8102L5.24102 32.9025C5.01052 33.1593 5.02102 33.5513 5.26506 33.7951L9.26761 37.7978C9.51116 38.0411 9.90245 38.0518 10.1588 37.823L12.2581 35.9507C12.5568 35.684 12.9325 35.547 13.3163 35.547ZM21.4474 33.65C19.7003 33.6505 17.9606 33.2613 16.3357 32.4891C13.458 31.1216 11.2849 28.7151 10.2169 25.7131C8.64475 21.2928 9.81697 16.3989 13.1232 13.1747L11.4606 13.1421C11.1971 13.1367 10.9876 12.919 10.9926 12.6555C10.9977 12.3919 11.2378 12.191 11.4793 12.1875L14.3713 12.2443C14.4979 12.2469 14.6183 12.2995 14.706 12.3909C14.7939 12.482 14.8416 12.6044 14.8393 12.7309L14.779 15.7952C14.7738 16.059 14.5366 16.2583 14.2924 16.2632C14.0288 16.2579 13.8193 16.0401 13.8244 15.7766L13.8637 13.7866C10.7659 16.7514 9.65824 21.2938 11.1164 25.3933C12.0987 28.1549 14.098 30.3687 16.7456 31.6272C19.393 32.8851 22.3722 33.0375 25.1338 32.0545C25.3813 31.9669 25.6553 32.0956 25.7434 32.3444C25.8315 32.5928 25.7019 32.8655 25.4535 32.9541C24.1465 33.4189 22.7949 33.65 21.4474 33.65ZM31.411 31.1556C31.4082 31.1556 31.4049 31.1556 31.4016 31.1556L28.5095 31.0987C28.2457 31.0935 28.0364 30.8754 28.0415 30.6121L28.1017 27.5476C28.1068 27.287 28.3193 27.0796 28.5789 27.0796H28.5883C28.8521 27.0848 29.0613 27.3029 29.0563 27.5662L29.0171 29.5559C32.1133 26.5917 33.2207 22.0443 31.7643 17.9497C30.7822 15.1878 28.7832 12.974 26.1354 11.7158C23.4876 10.4578 20.5093 10.3054 17.7469 11.2882C17.4978 11.3754 17.2259 11.2467 17.1373 10.9983C17.0489 10.75 17.1788 10.477 17.4272 10.3886C20.4293 9.3213 23.6674 9.48602 26.545 10.8537C29.4231 12.2214 31.596 14.6279 32.6638 17.6299C34.2341 22.0447 33.0614 26.9444 29.7573 30.1683L31.4203 30.201C31.6841 30.2061 31.8934 30.4242 31.8883 30.6876C31.8831 30.9481 31.6706 31.1556 31.411 31.1556ZM21.4404 28.3562C17.7511 28.3562 14.7495 25.3546 14.7495 21.6655C14.7495 17.9762 17.7511 14.9746 21.4404 14.9746C25.1295 14.9746 28.1311 17.9762 28.1311 21.6655C28.1311 25.3546 25.1295 28.3562 21.4404 28.3562ZM21.4404 15.9292C18.2773 15.9292 15.704 18.5024 15.704 21.6655C15.704 24.8284 18.2773 27.4016 21.4404 27.4016C24.6033 27.4016 27.1765 24.8284 27.1765 21.6655C27.1766 18.5025 24.6033 15.9292 21.4404 15.9292ZM21.4404 26.3758C21.1768 26.3758 20.9631 26.1624 20.9631 25.8986V25.1104H20.3735C19.986 25.1104 19.6112 24.9976 19.2894 24.7837C19.0699 24.6378 19.0102 24.3414 19.1561 24.1219C19.3018 23.9019 19.5975 23.8422 19.8179 23.9886C19.9824 24.0981 20.1745 24.1559 20.3735 24.1559H22.5072C23.0623 24.1559 23.514 23.7042 23.514 23.1491C23.514 22.5945 23.0623 22.1429 22.5072 22.1429H20.3735C19.2922 22.1429 18.4125 21.2632 18.4125 20.1816C18.4125 19.1002 19.2922 18.2205 20.3735 18.2205H20.9631V17.3515C20.9631 17.0879 21.1768 16.8742 21.4404 16.8742C21.704 16.8742 21.9176 17.0879 21.9176 17.3515V18.2205H22.5073C22.78 18.2205 23.0438 18.2755 23.2918 18.3839C23.5332 18.4897 23.6437 18.771 23.5378 19.0124C23.432 19.2538 23.1496 19.3633 22.9096 19.2587C22.7828 19.2033 22.6472 19.1751 22.5074 19.1751H20.3737C19.8186 19.1751 19.3671 19.6267 19.3671 20.1816C19.3671 20.7367 19.8186 21.1883 20.3737 21.1883H22.5074C23.5887 21.1883 24.4687 22.0681 24.4687 23.1491C24.4687 24.2305 23.5887 25.1104 22.5074 25.1104H21.9177V25.8986C21.9177 26.1624 21.704 26.3758 21.4404 26.3758Z"/>
</mask>
<path d="M24.264 42.625H18.6071C17.756 42.625 17.0527 41.9594 17.0059 41.1093L16.8509 38.3058C16.836 38.0345 16.6477 37.8034 16.3711 37.7167C15.4431 37.4263 14.5266 37.046 13.6471 36.5854C13.3921 36.4512 13.0959 36.482 12.8934 36.6628L10.7944 38.5351C10.1609 39.1004 9.19386 39.073 8.59282 38.4727L4.59027 34.4699C3.98759 33.8673 3.9615 32.8988 4.53104 32.2649L6.40825 30.1726C6.58773 29.9726 6.618 29.6795 6.48519 29.4259C6.02705 28.5529 5.64347 27.6296 5.34487 26.6816C5.25932 26.4098 5.03143 26.2248 4.76434 26.2099L1.96059 26.0547C1.11091 26.0076 0.445312 25.3043 0.445312 24.4537V18.7963C0.445312 17.9455 1.11091 17.2422 1.96059 17.1951L4.75852 17.0404C5.0284 17.0254 5.25817 16.8386 5.34438 16.5638C5.65758 15.5658 6.06913 14.592 6.56739 13.6686C6.61308 13.5817 6.65943 13.4957 6.707 13.4106L4.53063 10.9854C3.9615 10.351 3.98791 9.38249 4.59027 8.78006L8.59282 4.77734C9.19386 4.17679 10.1605 4.14931 10.7946 4.71467L12.8934 6.5872C13.0959 6.76783 13.3921 6.7981 13.6468 6.6648C14.5256 6.20452 15.4424 5.82373 16.3716 5.53318C16.648 5.44671 16.8366 5.2158 16.8514 4.94477L17.0646 1.07675C17.0783 0.823352 17.2876 0.625 17.5411 0.625H25.3299C25.5835 0.625 25.7927 0.823352 25.8067 1.07666L26.0193 4.94468C26.0347 5.21571 26.223 5.44639 26.4993 5.53285C27.4278 5.82348 28.3473 6.20468 29.2329 6.66636C29.4884 6.79916 29.783 6.76799 29.9852 6.58736L32.0756 4.71721C32.7099 4.15046 33.6775 4.17704 34.2793 4.77849L38.282 8.7812C38.8833 9.38249 38.9103 10.3503 38.343 10.9844L36.1711 13.4134C36.7364 14.4309 37.1918 15.4882 37.5269 16.5606C37.6136 16.837 37.8448 17.0253 38.1155 17.0403L40.92 17.195C41.7697 17.2421 42.4353 17.9457 42.4353 18.7965V24.4531C42.4353 25.3042 41.7697 26.0075 40.9205 26.0546C40.9205 26.0546 40.9205 26.0546 40.92 26.0546L38.1155 26.2093C37.8448 26.2242 37.6136 26.4125 37.5269 26.6894C37.2379 27.615 36.8567 28.5351 36.3938 29.4225C36.261 29.6774 36.2921 29.9725 36.473 30.1752L38.3429 32.2651C38.9102 32.8995 38.8831 33.867 38.2819 34.4683L34.2792 38.471C33.6775 39.0732 32.7098 39.1002 32.0755 38.5325L29.9851 36.6621C29.7828 36.4813 29.4873 36.4496 29.2333 36.5834C28.3463 37.0453 27.4267 37.4265 26.4997 37.7165C26.2233 37.8032 26.035 38.0344 26.0196 38.3056L25.8649 41.1091C25.8179 41.9594 25.1146 42.625 24.264 42.625ZM13.3163 35.547C13.5775 35.547 13.8425 35.6104 14.0895 35.74C14.9187 36.1734 15.7821 36.5323 16.6562 36.8059C17.3164 37.0123 17.7669 37.5805 17.8039 38.2531L17.9589 41.0566C17.9778 41.401 18.2626 41.6704 18.607 41.6704H24.2639C24.6084 41.6704 24.8931 41.401 24.9122 41.0566L25.0669 38.2531C25.1042 37.58 25.5544 37.0123 26.2144 36.8059C27.0879 36.5327 27.9553 36.1729 28.7919 35.7372C29.402 35.4179 30.1198 35.5022 30.6212 35.9511L32.7121 37.8215C32.969 38.0513 33.3614 38.0401 33.6042 37.7963L37.6069 33.7936C37.8503 33.5503 37.861 33.1583 37.6316 32.902L35.7617 30.8116C35.3134 30.3101 35.2294 29.5919 35.5473 28.9817C35.984 28.1437 36.3434 27.2768 36.616 26.4047C36.8225 25.7438 37.3906 25.2931 38.0632 25.2568L40.8672 25.1021C41.2112 25.0829 41.4805 24.7977 41.4805 24.4533V18.7966C41.4805 18.4521 41.2112 18.1674 40.8672 18.1483L38.0632 17.9936C37.3906 17.9565 36.8225 17.506 36.616 16.8459C36.2683 15.734 35.7831 14.639 35.1735 13.5907C35.0691 13.411 35.0928 13.1847 35.2317 13.0307L37.6316 10.3483C37.8609 10.0915 37.8503 9.69979 37.6069 9.45624L33.6042 5.45352C33.3609 5.21046 32.969 5.19808 32.7121 5.42883L30.6217 7.29873C30.1198 7.74736 29.402 7.83079 28.7919 7.51292C27.9561 7.07733 27.0888 6.71779 26.2144 6.44422C25.5545 6.23799 25.1037 5.67 25.0665 4.99792L24.8777 1.57968H17.9934L17.8044 4.99792C17.7671 5.67 17.3164 6.23774 16.6565 6.44446C15.7816 6.71779 14.918 7.07651 14.0895 7.51037C13.4782 7.82989 12.7595 7.74695 12.258 7.29947L10.159 5.42695C9.90286 5.19832 9.51108 5.20948 9.26761 5.45262L5.26506 9.45517C5.02126 9.69913 5.0106 10.0914 5.24102 10.3482L7.6493 13.0317C7.79055 13.1887 7.81172 13.4197 7.70147 13.5998C7.59778 13.7692 7.50386 13.9387 7.40968 14.1177C6.93776 14.992 6.55 15.9098 6.25493 16.8499C6.0487 17.5075 5.48195 17.9566 4.81102 17.9936L2.01309 18.1484C1.66914 18.1675 1.39975 18.452 1.39975 18.7965V24.4538C1.39975 24.7983 1.66914 25.083 2.01309 25.1021L4.81684 25.2573C5.48474 25.2937 6.0492 25.7407 6.25518 26.395C6.53671 27.289 6.89838 28.1596 7.33044 28.9827C7.6502 29.5933 7.56702 30.3101 7.11839 30.8102L5.24102 32.9025C5.01052 33.1593 5.02102 33.5513 5.26506 33.7951L9.26761 37.7978C9.51116 38.0411 9.90245 38.0518 10.1588 37.823L12.2581 35.9507C12.5568 35.684 12.9325 35.547 13.3163 35.547ZM21.4474 33.65C19.7003 33.6505 17.9606 33.2613 16.3357 32.4891C13.458 31.1216 11.2849 28.7151 10.2169 25.7131C8.64475 21.2928 9.81697 16.3989 13.1232 13.1747L11.4606 13.1421C11.1971 13.1367 10.9876 12.919 10.9926 12.6555C10.9977 12.3919 11.2378 12.191 11.4793 12.1875L14.3713 12.2443C14.4979 12.2469 14.6183 12.2995 14.706 12.3909C14.7939 12.482 14.8416 12.6044 14.8393 12.7309L14.779 15.7952C14.7738 16.059 14.5366 16.2583 14.2924 16.2632C14.0288 16.2579 13.8193 16.0401 13.8244 15.7766L13.8637 13.7866C10.7659 16.7514 9.65824 21.2938 11.1164 25.3933C12.0987 28.1549 14.098 30.3687 16.7456 31.6272C19.393 32.8851 22.3722 33.0375 25.1338 32.0545C25.3813 31.9669 25.6553 32.0956 25.7434 32.3444C25.8315 32.5928 25.7019 32.8655 25.4535 32.9541C24.1465 33.4189 22.7949 33.65 21.4474 33.65ZM31.411 31.1556C31.4082 31.1556 31.4049 31.1556 31.4016 31.1556L28.5095 31.0987C28.2457 31.0935 28.0364 30.8754 28.0415 30.6121L28.1017 27.5476C28.1068 27.287 28.3193 27.0796 28.5789 27.0796H28.5883C28.8521 27.0848 29.0613 27.3029 29.0563 27.5662L29.0171 29.5559C32.1133 26.5917 33.2207 22.0443 31.7643 17.9497C30.7822 15.1878 28.7832 12.974 26.1354 11.7158C23.4876 10.4578 20.5093 10.3054 17.7469 11.2882C17.4978 11.3754 17.2259 11.2467 17.1373 10.9983C17.0489 10.75 17.1788 10.477 17.4272 10.3886C20.4293 9.3213 23.6674 9.48602 26.545 10.8537C29.4231 12.2214 31.596 14.6279 32.6638 17.6299C34.2341 22.0447 33.0614 26.9444 29.7573 30.1683L31.4203 30.201C31.6841 30.2061 31.8934 30.4242 31.8883 30.6876C31.8831 30.9481 31.6706 31.1556 31.411 31.1556ZM21.4404 28.3562C17.7511 28.3562 14.7495 25.3546 14.7495 21.6655C14.7495 17.9762 17.7511 14.9746 21.4404 14.9746C25.1295 14.9746 28.1311 17.9762 28.1311 21.6655C28.1311 25.3546 25.1295 28.3562 21.4404 28.3562ZM21.4404 15.9292C18.2773 15.9292 15.704 18.5024 15.704 21.6655C15.704 24.8284 18.2773 27.4016 21.4404 27.4016C24.6033 27.4016 27.1765 24.8284 27.1765 21.6655C27.1766 18.5025 24.6033 15.9292 21.4404 15.9292ZM21.4404 26.3758C21.1768 26.3758 20.9631 26.1624 20.9631 25.8986V25.1104H20.3735C19.986 25.1104 19.6112 24.9976 19.2894 24.7837C19.0699 24.6378 19.0102 24.3414 19.1561 24.1219C19.3018 23.9019 19.5975 23.8422 19.8179 23.9886C19.9824 24.0981 20.1745 24.1559 20.3735 24.1559H22.5072C23.0623 24.1559 23.514 23.7042 23.514 23.1491C23.514 22.5945 23.0623 22.1429 22.5072 22.1429H20.3735C19.2922 22.1429 18.4125 21.2632 18.4125 20.1816C18.4125 19.1002 19.2922 18.2205 20.3735 18.2205H20.9631V17.3515C20.9631 17.0879 21.1768 16.8742 21.4404 16.8742C21.704 16.8742 21.9176 17.0879 21.9176 17.3515V18.2205H22.5073C22.78 18.2205 23.0438 18.2755 23.2918 18.3839C23.5332 18.4897 23.6437 18.771 23.5378 19.0124C23.432 19.2538 23.1496 19.3633 22.9096 19.2587C22.7828 19.2033 22.6472 19.1751 22.5074 19.1751H20.3737C19.8186 19.1751 19.3671 19.6267 19.3671 20.1816C19.3671 20.7367 19.8186 21.1883 20.3737 21.1883H22.5074C23.5887 21.1883 24.4687 22.0681 24.4687 23.1491C24.4687 24.2305 23.5887 25.1104 22.5074 25.1104H21.9177V25.8986C21.9177 26.1624 21.704 26.3758 21.4404 26.3758Z" fill="url(#paint0_linear_6698_8441)"/>
<path d="M24.264 42.625H18.6071C17.756 42.625 17.0527 41.9594 17.0059 41.1093L16.8509 38.3058C16.836 38.0345 16.6477 37.8034 16.3711 37.7167C15.4431 37.4263 14.5266 37.046 13.6471 36.5854C13.3921 36.4512 13.0959 36.482 12.8934 36.6628L10.7944 38.5351C10.1609 39.1004 9.19386 39.073 8.59282 38.4727L4.59027 34.4699C3.98759 33.8673 3.9615 32.8988 4.53104 32.2649L6.40825 30.1726C6.58773 29.9726 6.618 29.6795 6.48519 29.4259C6.02705 28.5529 5.64347 27.6296 5.34487 26.6816C5.25932 26.4098 5.03143 26.2248 4.76434 26.2099L1.96059 26.0547C1.11091 26.0076 0.445312 25.3043 0.445312 24.4537V18.7963C0.445312 17.9455 1.11091 17.2422 1.96059 17.1951L4.75852 17.0404C5.0284 17.0254 5.25817 16.8386 5.34438 16.5638C5.65758 15.5658 6.06913 14.592 6.56739 13.6686C6.61308 13.5817 6.65943 13.4957 6.707 13.4106L4.53063 10.9854C3.9615 10.351 3.98791 9.38249 4.59027 8.78006L8.59282 4.77734C9.19386 4.17679 10.1605 4.14931 10.7946 4.71467L12.8934 6.5872C13.0959 6.76783 13.3921 6.7981 13.6468 6.6648C14.5256 6.20452 15.4424 5.82373 16.3716 5.53318C16.648 5.44671 16.8366 5.2158 16.8514 4.94477L17.0646 1.07675C17.0783 0.823352 17.2876 0.625 17.5411 0.625H25.3299C25.5835 0.625 25.7927 0.823352 25.8067 1.07666L26.0193 4.94468C26.0347 5.21571 26.223 5.44639 26.4993 5.53285C27.4278 5.82348 28.3473 6.20468 29.2329 6.66636C29.4884 6.79916 29.783 6.76799 29.9852 6.58736L32.0756 4.71721C32.7099 4.15046 33.6775 4.17704 34.2793 4.77849L38.282 8.7812C38.8833 9.38249 38.9103 10.3503 38.343 10.9844L36.1711 13.4134C36.7364 14.4309 37.1918 15.4882 37.5269 16.5606C37.6136 16.837 37.8448 17.0253 38.1155 17.0403L40.92 17.195C41.7697 17.2421 42.4353 17.9457 42.4353 18.7965V24.4531C42.4353 25.3042 41.7697 26.0075 40.9205 26.0546C40.9205 26.0546 40.9205 26.0546 40.92 26.0546L38.1155 26.2093C37.8448 26.2242 37.6136 26.4125 37.5269 26.6894C37.2379 27.615 36.8567 28.5351 36.3938 29.4225C36.261 29.6774 36.2921 29.9725 36.473 30.1752L38.3429 32.2651C38.9102 32.8995 38.8831 33.867 38.2819 34.4683L34.2792 38.471C33.6775 39.0732 32.7098 39.1002 32.0755 38.5325L29.9851 36.6621C29.7828 36.4813 29.4873 36.4496 29.2333 36.5834C28.3463 37.0453 27.4267 37.4265 26.4997 37.7165C26.2233 37.8032 26.035 38.0344 26.0196 38.3056L25.8649 41.1091C25.8179 41.9594 25.1146 42.625 24.264 42.625ZM13.3163 35.547C13.5775 35.547 13.8425 35.6104 14.0895 35.74C14.9187 36.1734 15.7821 36.5323 16.6562 36.8059C17.3164 37.0123 17.7669 37.5805 17.8039 38.2531L17.9589 41.0566C17.9778 41.401 18.2626 41.6704 18.607 41.6704H24.2639C24.6084 41.6704 24.8931 41.401 24.9122 41.0566L25.0669 38.2531C25.1042 37.58 25.5544 37.0123 26.2144 36.8059C27.0879 36.5327 27.9553 36.1729 28.7919 35.7372C29.402 35.4179 30.1198 35.5022 30.6212 35.9511L32.7121 37.8215C32.969 38.0513 33.3614 38.0401 33.6042 37.7963L37.6069 33.7936C37.8503 33.5503 37.861 33.1583 37.6316 32.902L35.7617 30.8116C35.3134 30.3101 35.2294 29.5919 35.5473 28.9817C35.984 28.1437 36.3434 27.2768 36.616 26.4047C36.8225 25.7438 37.3906 25.2931 38.0632 25.2568L40.8672 25.1021C41.2112 25.0829 41.4805 24.7977 41.4805 24.4533V18.7966C41.4805 18.4521 41.2112 18.1674 40.8672 18.1483L38.0632 17.9936C37.3906 17.9565 36.8225 17.506 36.616 16.8459C36.2683 15.734 35.7831 14.639 35.1735 13.5907C35.0691 13.411 35.0928 13.1847 35.2317 13.0307L37.6316 10.3483C37.8609 10.0915 37.8503 9.69979 37.6069 9.45624L33.6042 5.45352C33.3609 5.21046 32.969 5.19808 32.7121 5.42883L30.6217 7.29873C30.1198 7.74736 29.402 7.83079 28.7919 7.51292C27.9561 7.07733 27.0888 6.71779 26.2144 6.44422C25.5545 6.23799 25.1037 5.67 25.0665 4.99792L24.8777 1.57968H17.9934L17.8044 4.99792C17.7671 5.67 17.3164 6.23774 16.6565 6.44446C15.7816 6.71779 14.918 7.07651 14.0895 7.51037C13.4782 7.82989 12.7595 7.74695 12.258 7.29947L10.159 5.42695C9.90286 5.19832 9.51108 5.20948 9.26761 5.45262L5.26506 9.45517C5.02126 9.69913 5.0106 10.0914 5.24102 10.3482L7.6493 13.0317C7.79055 13.1887 7.81172 13.4197 7.70147 13.5998C7.59778 13.7692 7.50386 13.9387 7.40968 14.1177C6.93776 14.992 6.55 15.9098 6.25493 16.8499C6.0487 17.5075 5.48195 17.9566 4.81102 17.9936L2.01309 18.1484C1.66914 18.1675 1.39975 18.452 1.39975 18.7965V24.4538C1.39975 24.7983 1.66914 25.083 2.01309 25.1021L4.81684 25.2573C5.48474 25.2937 6.0492 25.7407 6.25518 26.395C6.53671 27.289 6.89838 28.1596 7.33044 28.9827C7.6502 29.5933 7.56702 30.3101 7.11839 30.8102L5.24102 32.9025C5.01052 33.1593 5.02102 33.5513 5.26506 33.7951L9.26761 37.7978C9.51116 38.0411 9.90245 38.0518 10.1588 37.823L12.2581 35.9507C12.5568 35.684 12.9325 35.547 13.3163 35.547ZM21.4474 33.65C19.7003 33.6505 17.9606 33.2613 16.3357 32.4891C13.458 31.1216 11.2849 28.7151 10.2169 25.7131C8.64475 21.2928 9.81697 16.3989 13.1232 13.1747L11.4606 13.1421C11.1971 13.1367 10.9876 12.919 10.9926 12.6555C10.9977 12.3919 11.2378 12.191 11.4793 12.1875L14.3713 12.2443C14.4979 12.2469 14.6183 12.2995 14.706 12.3909C14.7939 12.482 14.8416 12.6044 14.8393 12.7309L14.779 15.7952C14.7738 16.059 14.5366 16.2583 14.2924 16.2632C14.0288 16.2579 13.8193 16.0401 13.8244 15.7766L13.8637 13.7866C10.7659 16.7514 9.65824 21.2938 11.1164 25.3933C12.0987 28.1549 14.098 30.3687 16.7456 31.6272C19.393 32.8851 22.3722 33.0375 25.1338 32.0545C25.3813 31.9669 25.6553 32.0956 25.7434 32.3444C25.8315 32.5928 25.7019 32.8655 25.4535 32.9541C24.1465 33.4189 22.7949 33.65 21.4474 33.65ZM31.411 31.1556C31.4082 31.1556 31.4049 31.1556 31.4016 31.1556L28.5095 31.0987C28.2457 31.0935 28.0364 30.8754 28.0415 30.6121L28.1017 27.5476C28.1068 27.287 28.3193 27.0796 28.5789 27.0796H28.5883C28.8521 27.0848 29.0613 27.3029 29.0563 27.5662L29.0171 29.5559C32.1133 26.5917 33.2207 22.0443 31.7643 17.9497C30.7822 15.1878 28.7832 12.974 26.1354 11.7158C23.4876 10.4578 20.5093 10.3054 17.7469 11.2882C17.4978 11.3754 17.2259 11.2467 17.1373 10.9983C17.0489 10.75 17.1788 10.477 17.4272 10.3886C20.4293 9.3213 23.6674 9.48602 26.545 10.8537C29.4231 12.2214 31.596 14.6279 32.6638 17.6299C34.2341 22.0447 33.0614 26.9444 29.7573 30.1683L31.4203 30.201C31.6841 30.2061 31.8934 30.4242 31.8883 30.6876C31.8831 30.9481 31.6706 31.1556 31.411 31.1556ZM21.4404 28.3562C17.7511 28.3562 14.7495 25.3546 14.7495 21.6655C14.7495 17.9762 17.7511 14.9746 21.4404 14.9746C25.1295 14.9746 28.1311 17.9762 28.1311 21.6655C28.1311 25.3546 25.1295 28.3562 21.4404 28.3562ZM21.4404 15.9292C18.2773 15.9292 15.704 18.5024 15.704 21.6655C15.704 24.8284 18.2773 27.4016 21.4404 27.4016C24.6033 27.4016 27.1765 24.8284 27.1765 21.6655C27.1766 18.5025 24.6033 15.9292 21.4404 15.9292ZM21.4404 26.3758C21.1768 26.3758 20.9631 26.1624 20.9631 25.8986V25.1104H20.3735C19.986 25.1104 19.6112 24.9976 19.2894 24.7837C19.0699 24.6378 19.0102 24.3414 19.1561 24.1219C19.3018 23.9019 19.5975 23.8422 19.8179 23.9886C19.9824 24.0981 20.1745 24.1559 20.3735 24.1559H22.5072C23.0623 24.1559 23.514 23.7042 23.514 23.1491C23.514 22.5945 23.0623 22.1429 22.5072 22.1429H20.3735C19.2922 22.1429 18.4125 21.2632 18.4125 20.1816C18.4125 19.1002 19.2922 18.2205 20.3735 18.2205H20.9631V17.3515C20.9631 17.0879 21.1768 16.8742 21.4404 16.8742C21.704 16.8742 21.9176 17.0879 21.9176 17.3515V18.2205H22.5073C22.78 18.2205 23.0438 18.2755 23.2918 18.3839C23.5332 18.4897 23.6437 18.771 23.5378 19.0124C23.432 19.2538 23.1496 19.3633 22.9096 19.2587C22.7828 19.2033 22.6472 19.1751 22.5074 19.1751H20.3737C19.8186 19.1751 19.3671 19.6267 19.3671 20.1816C19.3671 20.7367 19.8186 21.1883 20.3737 21.1883H22.5074C23.5887 21.1883 24.4687 22.0681 24.4687 23.1491C24.4687 24.2305 23.5887 25.1104 22.5074 25.1104H21.9177V25.8986C21.9177 26.1624 21.704 26.3758 21.4404 26.3758Z" stroke="url(#paint1_linear_6698_8441)" stroke-width="0.5" mask="url(#path-1-outside-1_6698_8441)"/>
</g>
<defs>
<linearGradient id="paint0_linear_6698_8441" x1="21.4403" y1="0.625" x2="21.4403" y2="49.9416" gradientUnits="userSpaceOnUse">
<stop stop-color="#F4853B"/>
<stop offset="1" stop-color="#3448F5"/>
</linearGradient>
<linearGradient id="paint1_linear_6698_8441" x1="21.4403" y1="0.625" x2="21.4403" y2="49.9416" gradientUnits="userSpaceOnUse">
<stop stop-color="#F4853B"/>
<stop offset="1" stop-color="#3448F5"/>
</linearGradient>
<clipPath id="clip0_6698_8441">
<rect width="42" height="42" fill="white" transform="translate(0.441406 0.625)"/>
</clipPath>
</defs>
</svg>
