<svg width="43" height="43" viewBox="0 0 43 43" fill="none" xmlns="http://www.w3.org/2000/svg">
<mask id="path-1-outside-1_6698_8458" maskUnits="userSpaceOnUse" x="4.08203" y="2.16797" width="35" height="39" fill="black">
<rect fill="white" x="4.08203" y="2.16797" width="35" height="39"/>
<path d="M19.1739 23.2235C19.3738 23.2235 19.5358 23.0617 19.5358 22.8617V21.2506H20.7852V22.8617C20.7852 23.0617 20.9472 23.2235 21.147 23.2235C21.3469 23.2235 21.5089 23.0617 21.5089 22.8617C21.5089 22.7325 21.5089 19.7453 21.5089 19.9021C21.5089 19.1586 20.9041 18.5536 20.1605 18.5536C19.417 18.5536 18.812 19.1586 18.812 19.9021C18.812 19.981 18.812 22.8983 18.812 22.8617C18.8121 23.0616 18.9741 23.2235 19.1739 23.2235ZM19.5358 19.902C19.5358 19.5575 19.816 19.2772 20.1605 19.2772C20.5049 19.2772 20.7851 19.5574 20.7851 19.902V20.5268H19.5358V19.902Z"/>
<path d="M23.9395 19.2772C24.1394 19.2772 24.3014 19.1153 24.3014 18.9153C24.3014 18.7154 24.1394 18.5535 23.9395 18.5535H22.5211C22.3212 18.5535 22.1592 18.7154 22.1592 18.9153C22.1592 19.1153 22.3212 19.2772 22.5211 19.2772H22.8685V22.4997H22.5211C22.3212 22.4997 22.1592 22.6615 22.1592 22.8615C22.1592 23.0615 22.3212 23.2234 22.5211 23.2234H23.9395C24.1394 23.2234 24.3014 23.0615 24.3014 22.8615C24.3014 22.6615 24.1394 22.4997 23.9395 22.4997H23.5921V19.2772H23.9395Z"/>
<path d="M33.4672 21.1732C33.667 21.1732 33.8291 21.0113 33.8291 20.8113V19.4108C33.8291 17.9178 33.563 16.46 33.0384 15.0779C32.9673 14.8906 32.7583 14.7966 32.5715 14.868C32.3847 14.9387 32.2907 15.1479 32.3616 15.3345C32.8551 16.6346 33.1053 18.0061 33.1053 19.4108V20.8113C33.1054 21.0113 33.2674 21.1732 33.4672 21.1732Z"/>
<path d="M34.8774 13.5293C34.6928 13.606 34.6052 13.8177 34.6816 14.0022C35.3933 15.7197 35.7542 17.5393 35.7542 19.4108V22.5301C35.7542 22.7301 35.9162 22.892 36.116 22.892C36.3158 22.892 36.4779 22.7301 36.4779 22.5301V19.4108C36.4779 17.4439 36.0985 15.5306 35.3502 13.7251C35.2736 13.5407 35.0619 13.453 34.8774 13.5293Z"/>
<path d="M10.0072 20.8113V19.4107C10.0072 18.006 10.2574 16.6345 10.7509 15.3344C10.8218 15.1478 10.7277 14.9386 10.541 14.8679C10.3549 14.7966 10.1452 14.8906 10.0741 15.0778C9.54954 16.4599 9.28343 17.9177 9.28343 19.4107V20.8113C9.28343 21.2903 10.0072 21.2898 10.0072 20.8113Z"/>
<path d="M7.76216 13.7212C7.01387 15.527 6.63447 17.4413 6.63447 19.4107V22.5301C6.63447 22.73 6.79648 22.8919 6.99631 22.8919C7.19614 22.8919 7.35815 22.73 7.35815 22.5301V19.4107C7.35815 17.5371 7.71893 15.716 8.43071 13.9982C8.50725 13.8134 8.41955 13.6017 8.2349 13.5254C8.04992 13.4488 7.83861 13.5368 7.76216 13.7212Z"/>
<path d="M36.8001 23.6157H35.5913C35.3915 23.6157 35.2295 23.7776 35.2295 23.9776C35.2295 24.1776 35.3915 24.3394 35.5913 24.3394H36.8001C37.0794 24.3394 37.3066 24.5666 37.3066 24.8462V32.308C37.3066 32.5872 37.0794 32.8144 36.8001 32.8144H35.5625C35.3626 32.8144 35.2006 32.9762 35.2006 33.1762C35.2006 33.3762 35.3626 33.5381 35.5625 33.5381H36.8001C37.4784 33.5381 38.0304 32.9861 38.0304 32.3079V24.8461C38.0304 24.1677 37.4784 23.6157 36.8001 23.6157Z"/>
<path d="M31.2319 35.3218C32.3129 35.8481 33.8783 35.1643 34.362 33.4686C35.2893 30.2277 35.2893 26.8012 34.362 23.5606C33.8749 21.8526 32.3057 21.1835 31.2319 21.7071C30.1743 22.2192 29.6427 23.5522 29.9956 24.8095C30.6891 27.2334 30.6891 29.7955 29.9951 32.2211C29.6427 33.4767 30.1744 34.8097 31.2319 35.3218ZM30.6919 24.612C30.4329 23.689 30.8006 22.7203 31.548 22.3581C32.2351 22.0235 33.3152 22.5297 33.6662 23.7596C34.5563 26.8702 34.5563 30.1588 33.6662 33.2697C33.3078 34.5249 32.2243 34.9995 31.548 34.6708C31.5479 34.6705 31.5475 34.6705 31.5471 34.6701C30.8006 34.3086 30.4329 33.34 30.6914 32.4187C31.4222 29.8644 31.4222 27.1645 30.6919 24.612Z"/>
<path d="M5.08203 24.8463V32.3081C5.08203 32.9862 5.63402 33.5382 6.3125 33.5382H7.55011C7.74993 33.5382 7.91195 33.3764 7.91195 33.1764C7.91195 32.9764 7.74993 32.8146 7.55011 32.8146H6.3125C6.03318 32.8146 5.80571 32.5873 5.80571 32.3082V24.8464C5.80571 24.5668 6.0331 24.3396 6.3125 24.3396H7.52107C7.72089 24.3396 7.88291 24.1777 7.88291 23.9777C7.88291 23.7777 7.72089 23.6159 7.52107 23.6159H6.3125C5.63402 23.6157 5.08203 24.1677 5.08203 24.8463Z"/>
<path d="M26.2537 37.0502H23.2994C22.4643 37.0502 21.7851 37.7294 21.7851 38.5645C21.7851 39.3995 22.4643 40.0788 23.2994 40.0788H26.2537C26.9633 40.0788 27.5559 39.5864 27.7194 38.9267H31.2416C33.2343 38.9267 34.8428 37.3689 34.9036 35.3804C34.9097 35.1807 34.7527 35.014 34.5531 35.0076C34.3405 35.0041 34.1862 35.1585 34.1802 35.3585C34.1314 36.9534 32.8408 38.2029 31.2416 38.2029H27.7195C27.5564 37.5428 26.9635 37.0502 26.2537 37.0502ZM26.2537 39.355H23.2994C22.8635 39.355 22.5088 39.0002 22.5088 38.5645C22.5088 38.1287 22.8635 37.7739 23.2994 37.7739H26.2537C26.6896 37.7739 27.044 38.1285 27.0442 38.5641C27.0442 38.5644 27.044 38.5646 27.044 38.5649C27.044 38.565 27.0441 38.5652 27.0441 38.5654C27.0437 39.0006 26.6893 39.355 26.2537 39.355Z"/>
<path d="M21.5566 3.16797C16.5892 3.16797 11.9581 5.40488 8.85038 9.30563C8.12096 10.2213 7.98298 11.444 8.49043 12.4967C9.447 14.4821 12.1477 14.8137 13.5687 13.0371C15.5255 10.5895 18.4371 9.18586 21.5566 9.18586C24.6763 9.18586 27.5879 10.5895 29.545 13.0375C30.9632 14.8105 33.6647 14.4858 34.623 12.4968C35.1304 11.4441 34.9924 10.2213 34.263 9.30571C31.1554 5.40496 26.5243 3.16797 21.5566 3.16797ZM33.971 12.1825C33.2274 13.7258 31.1762 13.9187 30.1102 12.5854C28.0149 9.965 24.8973 8.4621 21.5566 8.4621C18.2159 8.4621 15.0985 9.96508 13.0034 12.5851C11.9357 13.9207 9.88488 13.7234 9.14241 12.1825C8.75088 11.3701 8.85334 10.4633 9.41648 9.75655C12.386 6.02938 16.8108 3.89173 21.5566 3.89173C26.3025 3.89173 30.7275 6.02938 33.6969 9.75655C34.2601 10.4633 34.3626 11.3701 33.971 12.1825Z"/>
<path d="M26.4834 14.6994L15.8602 16.0932C13.954 16.3437 12.7911 18.3194 13.5013 20.1095L15.3039 24.6501C15.7183 25.6962 16.6748 26.403 17.7812 26.5009L19.2006 29.7153C19.3241 29.9948 19.5907 30.1686 19.8966 30.1686H19.8968C20.2024 30.1686 20.4693 29.9947 20.5928 29.7153L22.0071 26.5132H24.9886C26.2828 26.5132 27.4137 25.6848 27.803 24.4519L29.6816 18.5171C30.3374 16.4483 28.6123 14.4162 26.4834 14.6994ZM28.9918 18.2987L27.1128 24.2338C26.8192 25.1643 25.9654 25.7895 24.9886 25.7895H21.7714C21.6281 25.7895 21.4982 25.874 21.4405 26.0051L19.9309 29.4226C19.9272 29.4308 19.921 29.4449 19.8968 29.4449C19.8726 29.4449 19.8664 29.4311 19.8627 29.4226L18.353 26.0043C18.2955 25.8743 18.1674 25.7901 18.0254 25.7887C17.1158 25.7806 16.3116 25.229 15.9768 24.3833L14.174 19.8423C13.637 18.4886 14.5182 16.9993 15.9545 16.8106L26.5775 15.4168C28.2058 15.2063 29.4813 16.754 28.9918 18.2987Z"/>
<path d="M11.8824 21.7079C10.81 21.1846 9.23831 21.8535 8.75137 23.5603C7.82409 26.8012 7.82409 30.2277 8.75137 33.4683C9.22764 35.1386 10.7768 35.8597 11.8815 35.3218C12.9391 34.8097 13.4707 33.4767 13.1178 32.2193C12.4243 29.7955 12.4243 27.2334 13.1183 24.8077C13.4708 23.5522 12.9391 22.2192 11.8824 21.7079ZM12.4215 32.4169C12.6806 33.3399 12.3128 34.3086 11.5664 34.6701C11.566 34.6704 11.5656 34.6704 11.5655 34.6708C10.8934 34.9983 9.80547 34.5244 9.44724 33.2693C8.5572 30.1588 8.5572 26.8702 9.44724 23.7593C9.73829 22.7401 10.7328 21.9523 11.5664 22.3589C12.3129 22.7204 12.6806 23.689 12.4221 24.6103C11.6913 27.1645 11.6913 29.8644 12.4215 32.4169Z"/>
</mask>
<path d="M19.1739 23.2235C19.3738 23.2235 19.5358 23.0617 19.5358 22.8617V21.2506H20.7852V22.8617C20.7852 23.0617 20.9472 23.2235 21.147 23.2235C21.3469 23.2235 21.5089 23.0617 21.5089 22.8617C21.5089 22.7325 21.5089 19.7453 21.5089 19.9021C21.5089 19.1586 20.9041 18.5536 20.1605 18.5536C19.417 18.5536 18.812 19.1586 18.812 19.9021C18.812 19.981 18.812 22.8983 18.812 22.8617C18.8121 23.0616 18.9741 23.2235 19.1739 23.2235ZM19.5358 19.902C19.5358 19.5575 19.816 19.2772 20.1605 19.2772C20.5049 19.2772 20.7851 19.5574 20.7851 19.902V20.5268H19.5358V19.902Z" fill="url(#paint0_linear_6698_8458)"/>
<path d="M23.9395 19.2772C24.1394 19.2772 24.3014 19.1153 24.3014 18.9153C24.3014 18.7154 24.1394 18.5535 23.9395 18.5535H22.5211C22.3212 18.5535 22.1592 18.7154 22.1592 18.9153C22.1592 19.1153 22.3212 19.2772 22.5211 19.2772H22.8685V22.4997H22.5211C22.3212 22.4997 22.1592 22.6615 22.1592 22.8615C22.1592 23.0615 22.3212 23.2234 22.5211 23.2234H23.9395C24.1394 23.2234 24.3014 23.0615 24.3014 22.8615C24.3014 22.6615 24.1394 22.4997 23.9395 22.4997H23.5921V19.2772H23.9395Z" fill="url(#paint1_linear_6698_8458)"/>
<path d="M33.4672 21.1732C33.667 21.1732 33.8291 21.0113 33.8291 20.8113V19.4108C33.8291 17.9178 33.563 16.46 33.0384 15.0779C32.9673 14.8906 32.7583 14.7966 32.5715 14.868C32.3847 14.9387 32.2907 15.1479 32.3616 15.3345C32.8551 16.6346 33.1053 18.0061 33.1053 19.4108V20.8113C33.1054 21.0113 33.2674 21.1732 33.4672 21.1732Z" fill="url(#paint2_linear_6698_8458)"/>
<path d="M34.8774 13.5293C34.6928 13.606 34.6052 13.8177 34.6816 14.0022C35.3933 15.7197 35.7542 17.5393 35.7542 19.4108V22.5301C35.7542 22.7301 35.9162 22.892 36.116 22.892C36.3158 22.892 36.4779 22.7301 36.4779 22.5301V19.4108C36.4779 17.4439 36.0985 15.5306 35.3502 13.7251C35.2736 13.5407 35.0619 13.453 34.8774 13.5293Z" fill="url(#paint3_linear_6698_8458)"/>
<path d="M10.0072 20.8113V19.4107C10.0072 18.006 10.2574 16.6345 10.7509 15.3344C10.8218 15.1478 10.7277 14.9386 10.541 14.8679C10.3549 14.7966 10.1452 14.8906 10.0741 15.0778C9.54954 16.4599 9.28343 17.9177 9.28343 19.4107V20.8113C9.28343 21.2903 10.0072 21.2898 10.0072 20.8113Z" fill="url(#paint4_linear_6698_8458)"/>
<path d="M7.76216 13.7212C7.01387 15.527 6.63447 17.4413 6.63447 19.4107V22.5301C6.63447 22.73 6.79648 22.8919 6.99631 22.8919C7.19614 22.8919 7.35815 22.73 7.35815 22.5301V19.4107C7.35815 17.5371 7.71893 15.716 8.43071 13.9982C8.50725 13.8134 8.41955 13.6017 8.2349 13.5254C8.04992 13.4488 7.83861 13.5368 7.76216 13.7212Z" fill="url(#paint5_linear_6698_8458)"/>
<path d="M36.8001 23.6157H35.5913C35.3915 23.6157 35.2295 23.7776 35.2295 23.9776C35.2295 24.1776 35.3915 24.3394 35.5913 24.3394H36.8001C37.0794 24.3394 37.3066 24.5666 37.3066 24.8462V32.308C37.3066 32.5872 37.0794 32.8144 36.8001 32.8144H35.5625C35.3626 32.8144 35.2006 32.9762 35.2006 33.1762C35.2006 33.3762 35.3626 33.5381 35.5625 33.5381H36.8001C37.4784 33.5381 38.0304 32.9861 38.0304 32.3079V24.8461C38.0304 24.1677 37.4784 23.6157 36.8001 23.6157Z" fill="url(#paint6_linear_6698_8458)"/>
<path d="M31.2319 35.3218C32.3129 35.8481 33.8783 35.1643 34.362 33.4686C35.2893 30.2277 35.2893 26.8012 34.362 23.5606C33.8749 21.8526 32.3057 21.1835 31.2319 21.7071C30.1743 22.2192 29.6427 23.5522 29.9956 24.8095C30.6891 27.2334 30.6891 29.7955 29.9951 32.2211C29.6427 33.4767 30.1744 34.8097 31.2319 35.3218ZM30.6919 24.612C30.4329 23.689 30.8006 22.7203 31.548 22.3581C32.2351 22.0235 33.3152 22.5297 33.6662 23.7596C34.5563 26.8702 34.5563 30.1588 33.6662 33.2697C33.3078 34.5249 32.2243 34.9995 31.548 34.6708C31.5479 34.6705 31.5475 34.6705 31.5471 34.6701C30.8006 34.3086 30.4329 33.34 30.6914 32.4187C31.4222 29.8644 31.4222 27.1645 30.6919 24.612Z" fill="url(#paint7_linear_6698_8458)"/>
<path d="M5.08203 24.8463V32.3081C5.08203 32.9862 5.63402 33.5382 6.3125 33.5382H7.55011C7.74993 33.5382 7.91195 33.3764 7.91195 33.1764C7.91195 32.9764 7.74993 32.8146 7.55011 32.8146H6.3125C6.03318 32.8146 5.80571 32.5873 5.80571 32.3082V24.8464C5.80571 24.5668 6.0331 24.3396 6.3125 24.3396H7.52107C7.72089 24.3396 7.88291 24.1777 7.88291 23.9777C7.88291 23.7777 7.72089 23.6159 7.52107 23.6159H6.3125C5.63402 23.6157 5.08203 24.1677 5.08203 24.8463Z" fill="url(#paint8_linear_6698_8458)"/>
<path d="M26.2537 37.0502H23.2994C22.4643 37.0502 21.7851 37.7294 21.7851 38.5645C21.7851 39.3995 22.4643 40.0788 23.2994 40.0788H26.2537C26.9633 40.0788 27.5559 39.5864 27.7194 38.9267H31.2416C33.2343 38.9267 34.8428 37.3689 34.9036 35.3804C34.9097 35.1807 34.7527 35.014 34.5531 35.0076C34.3405 35.0041 34.1862 35.1585 34.1802 35.3585C34.1314 36.9534 32.8408 38.2029 31.2416 38.2029H27.7195C27.5564 37.5428 26.9635 37.0502 26.2537 37.0502ZM26.2537 39.355H23.2994C22.8635 39.355 22.5088 39.0002 22.5088 38.5645C22.5088 38.1287 22.8635 37.7739 23.2994 37.7739H26.2537C26.6896 37.7739 27.044 38.1285 27.0442 38.5641C27.0442 38.5644 27.044 38.5646 27.044 38.5649C27.044 38.565 27.0441 38.5652 27.0441 38.5654C27.0437 39.0006 26.6893 39.355 26.2537 39.355Z" fill="url(#paint9_linear_6698_8458)"/>
<path d="M21.5566 3.16797C16.5892 3.16797 11.9581 5.40488 8.85038 9.30563C8.12096 10.2213 7.98298 11.444 8.49043 12.4967C9.447 14.4821 12.1477 14.8137 13.5687 13.0371C15.5255 10.5895 18.4371 9.18586 21.5566 9.18586C24.6763 9.18586 27.5879 10.5895 29.545 13.0375C30.9632 14.8105 33.6647 14.4858 34.623 12.4968C35.1304 11.4441 34.9924 10.2213 34.263 9.30571C31.1554 5.40496 26.5243 3.16797 21.5566 3.16797ZM33.971 12.1825C33.2274 13.7258 31.1762 13.9187 30.1102 12.5854C28.0149 9.965 24.8973 8.4621 21.5566 8.4621C18.2159 8.4621 15.0985 9.96508 13.0034 12.5851C11.9357 13.9207 9.88488 13.7234 9.14241 12.1825C8.75088 11.3701 8.85334 10.4633 9.41648 9.75655C12.386 6.02938 16.8108 3.89173 21.5566 3.89173C26.3025 3.89173 30.7275 6.02938 33.6969 9.75655C34.2601 10.4633 34.3626 11.3701 33.971 12.1825Z" fill="url(#paint10_linear_6698_8458)"/>
<path d="M26.4834 14.6994L15.8602 16.0932C13.954 16.3437 12.7911 18.3194 13.5013 20.1095L15.3039 24.6501C15.7183 25.6962 16.6748 26.403 17.7812 26.5009L19.2006 29.7153C19.3241 29.9948 19.5907 30.1686 19.8966 30.1686H19.8968C20.2024 30.1686 20.4693 29.9947 20.5928 29.7153L22.0071 26.5132H24.9886C26.2828 26.5132 27.4137 25.6848 27.803 24.4519L29.6816 18.5171C30.3374 16.4483 28.6123 14.4162 26.4834 14.6994ZM28.9918 18.2987L27.1128 24.2338C26.8192 25.1643 25.9654 25.7895 24.9886 25.7895H21.7714C21.6281 25.7895 21.4982 25.874 21.4405 26.0051L19.9309 29.4226C19.9272 29.4308 19.921 29.4449 19.8968 29.4449C19.8726 29.4449 19.8664 29.4311 19.8627 29.4226L18.353 26.0043C18.2955 25.8743 18.1674 25.7901 18.0254 25.7887C17.1158 25.7806 16.3116 25.229 15.9768 24.3833L14.174 19.8423C13.637 18.4886 14.5182 16.9993 15.9545 16.8106L26.5775 15.4168C28.2058 15.2063 29.4813 16.754 28.9918 18.2987Z" fill="url(#paint11_linear_6698_8458)"/>
<path d="M11.8824 21.7079C10.81 21.1846 9.23831 21.8535 8.75137 23.5603C7.82409 26.8012 7.82409 30.2277 8.75137 33.4683C9.22764 35.1386 10.7768 35.8597 11.8815 35.3218C12.9391 34.8097 13.4707 33.4767 13.1178 32.2193C12.4243 29.7955 12.4243 27.2334 13.1183 24.8077C13.4708 23.5522 12.9391 22.2192 11.8824 21.7079ZM12.4215 32.4169C12.6806 33.3399 12.3128 34.3086 11.5664 34.6701C11.566 34.6704 11.5656 34.6704 11.5655 34.6708C10.8934 34.9983 9.80547 34.5244 9.44724 33.2693C8.5572 30.1588 8.5572 26.8702 9.44724 23.7593C9.73829 22.7401 10.7328 21.9523 11.5664 22.3589C12.3129 22.7204 12.6806 23.689 12.4221 24.6103C11.6913 27.1645 11.6913 29.8644 12.4215 32.4169Z" fill="url(#paint12_linear_6698_8458)"/>
<path d="M19.1739 23.2235C19.3738 23.2235 19.5358 23.0617 19.5358 22.8617V21.2506H20.7852V22.8617C20.7852 23.0617 20.9472 23.2235 21.147 23.2235C21.3469 23.2235 21.5089 23.0617 21.5089 22.8617C21.5089 22.7325 21.5089 19.7453 21.5089 19.9021C21.5089 19.1586 20.9041 18.5536 20.1605 18.5536C19.417 18.5536 18.812 19.1586 18.812 19.9021C18.812 19.981 18.812 22.8983 18.812 22.8617C18.8121 23.0616 18.9741 23.2235 19.1739 23.2235ZM19.5358 19.902C19.5358 19.5575 19.816 19.2772 20.1605 19.2772C20.5049 19.2772 20.7851 19.5574 20.7851 19.902V20.5268H19.5358V19.902Z" stroke="url(#paint13_linear_6698_8458)" stroke-width="0.5" mask="url(#path-1-outside-1_6698_8458)"/>
<path d="M23.9395 19.2772C24.1394 19.2772 24.3014 19.1153 24.3014 18.9153C24.3014 18.7154 24.1394 18.5535 23.9395 18.5535H22.5211C22.3212 18.5535 22.1592 18.7154 22.1592 18.9153C22.1592 19.1153 22.3212 19.2772 22.5211 19.2772H22.8685V22.4997H22.5211C22.3212 22.4997 22.1592 22.6615 22.1592 22.8615C22.1592 23.0615 22.3212 23.2234 22.5211 23.2234H23.9395C24.1394 23.2234 24.3014 23.0615 24.3014 22.8615C24.3014 22.6615 24.1394 22.4997 23.9395 22.4997H23.5921V19.2772H23.9395Z" stroke="url(#paint14_linear_6698_8458)" stroke-width="0.5" mask="url(#path-1-outside-1_6698_8458)"/>
<path d="M33.4672 21.1732C33.667 21.1732 33.8291 21.0113 33.8291 20.8113V19.4108C33.8291 17.9178 33.563 16.46 33.0384 15.0779C32.9673 14.8906 32.7583 14.7966 32.5715 14.868C32.3847 14.9387 32.2907 15.1479 32.3616 15.3345C32.8551 16.6346 33.1053 18.0061 33.1053 19.4108V20.8113C33.1054 21.0113 33.2674 21.1732 33.4672 21.1732Z" stroke="url(#paint15_linear_6698_8458)" stroke-width="0.5" mask="url(#path-1-outside-1_6698_8458)"/>
<path d="M34.8774 13.5293C34.6928 13.606 34.6052 13.8177 34.6816 14.0022C35.3933 15.7197 35.7542 17.5393 35.7542 19.4108V22.5301C35.7542 22.7301 35.9162 22.892 36.116 22.892C36.3158 22.892 36.4779 22.7301 36.4779 22.5301V19.4108C36.4779 17.4439 36.0985 15.5306 35.3502 13.7251C35.2736 13.5407 35.0619 13.453 34.8774 13.5293Z" stroke="url(#paint16_linear_6698_8458)" stroke-width="0.5" mask="url(#path-1-outside-1_6698_8458)"/>
<path d="M10.0072 20.8113V19.4107C10.0072 18.006 10.2574 16.6345 10.7509 15.3344C10.8218 15.1478 10.7277 14.9386 10.541 14.8679C10.3549 14.7966 10.1452 14.8906 10.0741 15.0778C9.54954 16.4599 9.28343 17.9177 9.28343 19.4107V20.8113C9.28343 21.2903 10.0072 21.2898 10.0072 20.8113Z" stroke="url(#paint17_linear_6698_8458)" stroke-width="0.5" mask="url(#path-1-outside-1_6698_8458)"/>
<path d="M7.76216 13.7212C7.01387 15.527 6.63447 17.4413 6.63447 19.4107V22.5301C6.63447 22.73 6.79648 22.8919 6.99631 22.8919C7.19614 22.8919 7.35815 22.73 7.35815 22.5301V19.4107C7.35815 17.5371 7.71893 15.716 8.43071 13.9982C8.50725 13.8134 8.41955 13.6017 8.2349 13.5254C8.04992 13.4488 7.83861 13.5368 7.76216 13.7212Z" stroke="url(#paint18_linear_6698_8458)" stroke-width="0.5" mask="url(#path-1-outside-1_6698_8458)"/>
<path d="M36.8001 23.6157H35.5913C35.3915 23.6157 35.2295 23.7776 35.2295 23.9776C35.2295 24.1776 35.3915 24.3394 35.5913 24.3394H36.8001C37.0794 24.3394 37.3066 24.5666 37.3066 24.8462V32.308C37.3066 32.5872 37.0794 32.8144 36.8001 32.8144H35.5625C35.3626 32.8144 35.2006 32.9762 35.2006 33.1762C35.2006 33.3762 35.3626 33.5381 35.5625 33.5381H36.8001C37.4784 33.5381 38.0304 32.9861 38.0304 32.3079V24.8461C38.0304 24.1677 37.4784 23.6157 36.8001 23.6157Z" stroke="url(#paint19_linear_6698_8458)" stroke-width="0.5" mask="url(#path-1-outside-1_6698_8458)"/>
<path d="M31.2319 35.3218C32.3129 35.8481 33.8783 35.1643 34.362 33.4686C35.2893 30.2277 35.2893 26.8012 34.362 23.5606C33.8749 21.8526 32.3057 21.1835 31.2319 21.7071C30.1743 22.2192 29.6427 23.5522 29.9956 24.8095C30.6891 27.2334 30.6891 29.7955 29.9951 32.2211C29.6427 33.4767 30.1744 34.8097 31.2319 35.3218ZM30.6919 24.612C30.4329 23.689 30.8006 22.7203 31.548 22.3581C32.2351 22.0235 33.3152 22.5297 33.6662 23.7596C34.5563 26.8702 34.5563 30.1588 33.6662 33.2697C33.3078 34.5249 32.2243 34.9995 31.548 34.6708C31.5479 34.6705 31.5475 34.6705 31.5471 34.6701C30.8006 34.3086 30.4329 33.34 30.6914 32.4187C31.4222 29.8644 31.4222 27.1645 30.6919 24.612Z" stroke="url(#paint20_linear_6698_8458)" stroke-width="0.5" mask="url(#path-1-outside-1_6698_8458)"/>
<path d="M5.08203 24.8463V32.3081C5.08203 32.9862 5.63402 33.5382 6.3125 33.5382H7.55011C7.74993 33.5382 7.91195 33.3764 7.91195 33.1764C7.91195 32.9764 7.74993 32.8146 7.55011 32.8146H6.3125C6.03318 32.8146 5.80571 32.5873 5.80571 32.3082V24.8464C5.80571 24.5668 6.0331 24.3396 6.3125 24.3396H7.52107C7.72089 24.3396 7.88291 24.1777 7.88291 23.9777C7.88291 23.7777 7.72089 23.6159 7.52107 23.6159H6.3125C5.63402 23.6157 5.08203 24.1677 5.08203 24.8463Z" stroke="url(#paint21_linear_6698_8458)" stroke-width="0.5" mask="url(#path-1-outside-1_6698_8458)"/>
<path d="M26.2537 37.0502H23.2994C22.4643 37.0502 21.7851 37.7294 21.7851 38.5645C21.7851 39.3995 22.4643 40.0788 23.2994 40.0788H26.2537C26.9633 40.0788 27.5559 39.5864 27.7194 38.9267H31.2416C33.2343 38.9267 34.8428 37.3689 34.9036 35.3804C34.9097 35.1807 34.7527 35.014 34.5531 35.0076C34.3405 35.0041 34.1862 35.1585 34.1802 35.3585C34.1314 36.9534 32.8408 38.2029 31.2416 38.2029H27.7195C27.5564 37.5428 26.9635 37.0502 26.2537 37.0502ZM26.2537 39.355H23.2994C22.8635 39.355 22.5088 39.0002 22.5088 38.5645C22.5088 38.1287 22.8635 37.7739 23.2994 37.7739H26.2537C26.6896 37.7739 27.044 38.1285 27.0442 38.5641C27.0442 38.5644 27.044 38.5646 27.044 38.5649C27.044 38.565 27.0441 38.5652 27.0441 38.5654C27.0437 39.0006 26.6893 39.355 26.2537 39.355Z" stroke="url(#paint22_linear_6698_8458)" stroke-width="0.5" mask="url(#path-1-outside-1_6698_8458)"/>
<path d="M21.5566 3.16797C16.5892 3.16797 11.9581 5.40488 8.85038 9.30563C8.12096 10.2213 7.98298 11.444 8.49043 12.4967C9.447 14.4821 12.1477 14.8137 13.5687 13.0371C15.5255 10.5895 18.4371 9.18586 21.5566 9.18586C24.6763 9.18586 27.5879 10.5895 29.545 13.0375C30.9632 14.8105 33.6647 14.4858 34.623 12.4968C35.1304 11.4441 34.9924 10.2213 34.263 9.30571C31.1554 5.40496 26.5243 3.16797 21.5566 3.16797ZM33.971 12.1825C33.2274 13.7258 31.1762 13.9187 30.1102 12.5854C28.0149 9.965 24.8973 8.4621 21.5566 8.4621C18.2159 8.4621 15.0985 9.96508 13.0034 12.5851C11.9357 13.9207 9.88488 13.7234 9.14241 12.1825C8.75088 11.3701 8.85334 10.4633 9.41648 9.75655C12.386 6.02938 16.8108 3.89173 21.5566 3.89173C26.3025 3.89173 30.7275 6.02938 33.6969 9.75655C34.2601 10.4633 34.3626 11.3701 33.971 12.1825Z" stroke="url(#paint23_linear_6698_8458)" stroke-width="0.5" mask="url(#path-1-outside-1_6698_8458)"/>
<path d="M26.4834 14.6994L15.8602 16.0932C13.954 16.3437 12.7911 18.3194 13.5013 20.1095L15.3039 24.6501C15.7183 25.6962 16.6748 26.403 17.7812 26.5009L19.2006 29.7153C19.3241 29.9948 19.5907 30.1686 19.8966 30.1686H19.8968C20.2024 30.1686 20.4693 29.9947 20.5928 29.7153L22.0071 26.5132H24.9886C26.2828 26.5132 27.4137 25.6848 27.803 24.4519L29.6816 18.5171C30.3374 16.4483 28.6123 14.4162 26.4834 14.6994ZM28.9918 18.2987L27.1128 24.2338C26.8192 25.1643 25.9654 25.7895 24.9886 25.7895H21.7714C21.6281 25.7895 21.4982 25.874 21.4405 26.0051L19.9309 29.4226C19.9272 29.4308 19.921 29.4449 19.8968 29.4449C19.8726 29.4449 19.8664 29.4311 19.8627 29.4226L18.353 26.0043C18.2955 25.8743 18.1674 25.7901 18.0254 25.7887C17.1158 25.7806 16.3116 25.229 15.9768 24.3833L14.174 19.8423C13.637 18.4886 14.5182 16.9993 15.9545 16.8106L26.5775 15.4168C28.2058 15.2063 29.4813 16.754 28.9918 18.2987Z" stroke="url(#paint24_linear_6698_8458)" stroke-width="0.5" mask="url(#path-1-outside-1_6698_8458)"/>
<path d="M11.8824 21.7079C10.81 21.1846 9.23831 21.8535 8.75137 23.5603C7.82409 26.8012 7.82409 30.2277 8.75137 33.4683C9.22764 35.1386 10.7768 35.8597 11.8815 35.3218C12.9391 34.8097 13.4707 33.4767 13.1178 32.2193C12.4243 29.7955 12.4243 27.2334 13.1183 24.8077C13.4708 23.5522 12.9391 22.2192 11.8824 21.7079ZM12.4215 32.4169C12.6806 33.3399 12.3128 34.3086 11.5664 34.6701C11.566 34.6704 11.5656 34.6704 11.5655 34.6708C10.8934 34.9983 9.80547 34.5244 9.44724 33.2693C8.5572 30.1588 8.5572 26.8702 9.44724 23.7593C9.73829 22.7401 10.7328 21.9523 11.5664 22.3589C12.3129 22.7204 12.6806 23.689 12.4221 24.6103C11.6913 27.1645 11.6913 29.8644 12.4215 32.4169Z" stroke="url(#paint25_linear_6698_8458)" stroke-width="0.5" mask="url(#path-1-outside-1_6698_8458)"/>
<defs>
<linearGradient id="paint0_linear_6698_8458" x1="21.5562" y1="3.16797" x2="21.5562" y2="46.5088" gradientUnits="userSpaceOnUse">
<stop stop-color="#F4853B"/>
<stop offset="1" stop-color="#3448F5"/>
</linearGradient>
<linearGradient id="paint1_linear_6698_8458" x1="21.5562" y1="3.16797" x2="21.5562" y2="46.5088" gradientUnits="userSpaceOnUse">
<stop stop-color="#F4853B"/>
<stop offset="1" stop-color="#3448F5"/>
</linearGradient>
<linearGradient id="paint2_linear_6698_8458" x1="21.5562" y1="3.16797" x2="21.5562" y2="46.5088" gradientUnits="userSpaceOnUse">
<stop stop-color="#F4853B"/>
<stop offset="1" stop-color="#3448F5"/>
</linearGradient>
<linearGradient id="paint3_linear_6698_8458" x1="21.5562" y1="3.16797" x2="21.5562" y2="46.5088" gradientUnits="userSpaceOnUse">
<stop stop-color="#F4853B"/>
<stop offset="1" stop-color="#3448F5"/>
</linearGradient>
<linearGradient id="paint4_linear_6698_8458" x1="21.5562" y1="3.16797" x2="21.5562" y2="46.5088" gradientUnits="userSpaceOnUse">
<stop stop-color="#F4853B"/>
<stop offset="1" stop-color="#3448F5"/>
</linearGradient>
<linearGradient id="paint5_linear_6698_8458" x1="21.5562" y1="3.16797" x2="21.5562" y2="46.5088" gradientUnits="userSpaceOnUse">
<stop stop-color="#F4853B"/>
<stop offset="1" stop-color="#3448F5"/>
</linearGradient>
<linearGradient id="paint6_linear_6698_8458" x1="21.5562" y1="3.16797" x2="21.5562" y2="46.5088" gradientUnits="userSpaceOnUse">
<stop stop-color="#F4853B"/>
<stop offset="1" stop-color="#3448F5"/>
</linearGradient>
<linearGradient id="paint7_linear_6698_8458" x1="21.5562" y1="3.16797" x2="21.5562" y2="46.5088" gradientUnits="userSpaceOnUse">
<stop stop-color="#F4853B"/>
<stop offset="1" stop-color="#3448F5"/>
</linearGradient>
<linearGradient id="paint8_linear_6698_8458" x1="21.5562" y1="3.16797" x2="21.5562" y2="46.5088" gradientUnits="userSpaceOnUse">
<stop stop-color="#F4853B"/>
<stop offset="1" stop-color="#3448F5"/>
</linearGradient>
<linearGradient id="paint9_linear_6698_8458" x1="21.5562" y1="3.16797" x2="21.5562" y2="46.5088" gradientUnits="userSpaceOnUse">
<stop stop-color="#F4853B"/>
<stop offset="1" stop-color="#3448F5"/>
</linearGradient>
<linearGradient id="paint10_linear_6698_8458" x1="21.5562" y1="3.16797" x2="21.5562" y2="46.5088" gradientUnits="userSpaceOnUse">
<stop stop-color="#F4853B"/>
<stop offset="1" stop-color="#3448F5"/>
</linearGradient>
<linearGradient id="paint11_linear_6698_8458" x1="21.5562" y1="3.16797" x2="21.5562" y2="46.5088" gradientUnits="userSpaceOnUse">
<stop stop-color="#F4853B"/>
<stop offset="1" stop-color="#3448F5"/>
</linearGradient>
<linearGradient id="paint12_linear_6698_8458" x1="21.5562" y1="3.16797" x2="21.5562" y2="46.5088" gradientUnits="userSpaceOnUse">
<stop stop-color="#F4853B"/>
<stop offset="1" stop-color="#3448F5"/>
</linearGradient>
<linearGradient id="paint13_linear_6698_8458" x1="21.5562" y1="3.16797" x2="21.5562" y2="46.5088" gradientUnits="userSpaceOnUse">
<stop stop-color="#F4853B"/>
<stop offset="1" stop-color="#3448F5"/>
</linearGradient>
<linearGradient id="paint14_linear_6698_8458" x1="21.5562" y1="3.16797" x2="21.5562" y2="46.5088" gradientUnits="userSpaceOnUse">
<stop stop-color="#F4853B"/>
<stop offset="1" stop-color="#3448F5"/>
</linearGradient>
<linearGradient id="paint15_linear_6698_8458" x1="21.5562" y1="3.16797" x2="21.5562" y2="46.5088" gradientUnits="userSpaceOnUse">
<stop stop-color="#F4853B"/>
<stop offset="1" stop-color="#3448F5"/>
</linearGradient>
<linearGradient id="paint16_linear_6698_8458" x1="21.5562" y1="3.16797" x2="21.5562" y2="46.5088" gradientUnits="userSpaceOnUse">
<stop stop-color="#F4853B"/>
<stop offset="1" stop-color="#3448F5"/>
</linearGradient>
<linearGradient id="paint17_linear_6698_8458" x1="21.5562" y1="3.16797" x2="21.5562" y2="46.5088" gradientUnits="userSpaceOnUse">
<stop stop-color="#F4853B"/>
<stop offset="1" stop-color="#3448F5"/>
</linearGradient>
<linearGradient id="paint18_linear_6698_8458" x1="21.5562" y1="3.16797" x2="21.5562" y2="46.5088" gradientUnits="userSpaceOnUse">
<stop stop-color="#F4853B"/>
<stop offset="1" stop-color="#3448F5"/>
</linearGradient>
<linearGradient id="paint19_linear_6698_8458" x1="21.5562" y1="3.16797" x2="21.5562" y2="46.5088" gradientUnits="userSpaceOnUse">
<stop stop-color="#F4853B"/>
<stop offset="1" stop-color="#3448F5"/>
</linearGradient>
<linearGradient id="paint20_linear_6698_8458" x1="21.5562" y1="3.16797" x2="21.5562" y2="46.5088" gradientUnits="userSpaceOnUse">
<stop stop-color="#F4853B"/>
<stop offset="1" stop-color="#3448F5"/>
</linearGradient>
<linearGradient id="paint21_linear_6698_8458" x1="21.5562" y1="3.16797" x2="21.5562" y2="46.5088" gradientUnits="userSpaceOnUse">
<stop stop-color="#F4853B"/>
<stop offset="1" stop-color="#3448F5"/>
</linearGradient>
<linearGradient id="paint22_linear_6698_8458" x1="21.5562" y1="3.16797" x2="21.5562" y2="46.5088" gradientUnits="userSpaceOnUse">
<stop stop-color="#F4853B"/>
<stop offset="1" stop-color="#3448F5"/>
</linearGradient>
<linearGradient id="paint23_linear_6698_8458" x1="21.5562" y1="3.16797" x2="21.5562" y2="46.5088" gradientUnits="userSpaceOnUse">
<stop stop-color="#F4853B"/>
<stop offset="1" stop-color="#3448F5"/>
</linearGradient>
<linearGradient id="paint24_linear_6698_8458" x1="21.5562" y1="3.16797" x2="21.5562" y2="46.5088" gradientUnits="userSpaceOnUse">
<stop stop-color="#F4853B"/>
<stop offset="1" stop-color="#3448F5"/>
</linearGradient>
<linearGradient id="paint25_linear_6698_8458" x1="21.5562" y1="3.16797" x2="21.5562" y2="46.5088" gradientUnits="userSpaceOnUse">
<stop stop-color="#F4853B"/>
<stop offset="1" stop-color="#3448F5"/>
</linearGradient>
</defs>
</svg>
