<svg width="41" height="41" viewBox="0 0 41 41" fill="none" xmlns="http://www.w3.org/2000/svg">
<path d="M28.3809 3.48242C29.1907 3.38773 30.1008 3.58593 30.9873 4.38086L31.1641 4.54785L36.1621 9.5459C36.6648 10.0738 37.1221 10.8772 37.2256 11.7627C37.3205 12.575 37.1224 13.4845 36.3291 14.3633L36.1621 14.5391L35.6689 15.0166L34.7793 15.876H36.499V20.376C36.4989 21.9581 35.6076 24.1354 33.3242 24.7246L33.0508 24.7959L32.9707 25.0664C32.5903 26.3446 31.6621 27.6151 29.9883 28.0596L29.7168 28.1309L29.6367 28.3994C29.4003 29.1926 28.959 29.9771 28.2705 30.5605C27.5887 31.1382 26.6378 31.542 25.333 31.542H19.1416L18.9951 31.6895L14.4961 36.2051C13.922 36.7792 12.9601 37.292 11.9326 37.292C11.1508 37.2919 10.3107 37.0128 9.50293 36.2051L4.51074 31.2129C4.0047 30.6845 3.54334 29.882 3.43945 28.9951C3.33847 28.1324 3.56976 27.1554 4.50098 26.2148L5.68359 25.0488L5.83301 24.9014V18.2324L13.1455 10.9199L13.1826 10.8447C14.0448 9.07421 15.7179 7.54204 18.666 7.54199H23.1904L23.3369 7.39453L26.1621 4.55371C26.6906 4.04756 27.4938 3.58625 28.3809 3.48242ZM11.6455 15.7051L8.3125 19.0391L8.16602 19.1855V25.8535L6.16211 27.8721C6.08012 27.954 5.85256 28.1721 5.78516 28.5C5.70798 28.8763 5.86034 29.2385 6.16797 29.5674L6.17383 29.5742L6.17969 29.5801L11.1631 34.5469C11.2455 34.6293 11.4636 34.8567 11.791 34.9238C12.1671 35.0008 12.5287 34.8484 12.8574 34.541L12.8643 34.5352L12.8701 34.5293L18.1895 29.209H25.333C26.1328 29.2089 26.7097 28.9303 27.0693 28.4619C27.4105 28.0175 27.499 27.4744 27.499 27.042V25.876H28.666C29.4659 25.876 30.0427 25.5964 30.4023 25.1279C30.7434 24.6835 30.833 24.1414 30.833 23.709V22.542H31.999C32.7988 22.542 33.3756 22.2633 33.7354 21.7949C34.0765 21.3506 34.166 20.8084 34.166 20.376V18.209H21.499V18.709C21.499 19.6208 21.1945 20.7567 20.4824 21.6543C19.7846 22.5339 18.6782 23.209 16.999 23.209C15.3201 23.2089 14.2143 22.5338 13.5166 21.6543C12.8045 20.7567 12.499 19.6208 12.499 18.709V14.8516L11.6455 15.7051ZM28.875 5.82812C28.4987 5.75094 28.1365 5.90331 27.8076 6.21094L24.1426 9.87598H18.666C16.9706 9.87601 15.9743 10.605 15.4297 11.4932C14.9086 12.3432 14.833 13.2836 14.833 13.709V18.709C14.833 19.1414 14.9225 19.6835 15.2637 20.1279C15.6233 20.5963 16.1994 20.8759 16.999 20.876C17.7989 20.876 18.3757 20.5964 18.7354 20.1279C19.0765 19.6835 19.166 19.1414 19.166 18.709V15.876H31.5244L31.6709 15.7285L34.5039 12.8779L34.5029 12.877C34.5858 12.7942 34.8138 12.5778 34.8809 12.251C34.9579 11.8749 34.8055 11.5133 34.498 11.1846L34.4922 11.1777L34.4854 11.1719L29.502 6.20508H29.5029C29.4208 6.12297 29.2029 5.89543 28.875 5.82812Z" fill="url(#paint0_linear_6698_8188)" stroke="white"/>
<defs>
<linearGradient id="paint0_linear_6698_8188" x1="20.3328" y1="2.96094" x2="20.3328" y2="43.8602" gradientUnits="userSpaceOnUse">
<stop stop-color="#F4853B"/>
<stop offset="1" stop-color="#3448F5"/>
</linearGradient>
</defs>
</svg>
