<svg width="37" height="42" viewBox="0 0 37 42" fill="none" xmlns="http://www.w3.org/2000/svg">
<path d="M18.4414 40.6445C8.24484 37.7312 1.21484 28.3294 1.21484 17.7248V6.10938L18.4414 1.10547L35.668 6.10938V17.7248C35.668 28.3294 28.6381 37.7312 18.4414 40.6445Z" stroke="url(#paint0_linear_6698_8208)" stroke-width="1.5" stroke-miterlimit="10" stroke-linecap="round" stroke-linejoin="round"/>
<path d="M18.4414 30.7188C13.0136 30.7188 8.59766 26.3028 8.59766 20.875C8.59766 15.4472 13.0136 11.0312 18.4414 11.0312C23.8692 11.0312 28.2852 15.4472 28.2852 20.875C28.2852 26.3028 23.8692 30.7188 18.4414 30.7188Z" stroke="url(#paint1_linear_6698_8208)" stroke-width="1.5" stroke-miterlimit="10" stroke-linecap="round" stroke-linejoin="round"/>
<path d="M14.75 20.875L17.2109 23.3359L22.1328 18.4141" stroke="url(#paint2_linear_6698_8208)" stroke-width="1.5" stroke-miterlimit="10" stroke-linecap="round" stroke-linejoin="round"/>
<defs>
<linearGradient id="paint0_linear_6698_8208" x1="18.4414" y1="40.6445" x2="18.4414" y2="-5.78238" gradientUnits="userSpaceOnUse">
<stop stop-color="#F4853B"/>
<stop offset="1" stop-color="#3448F5"/>
</linearGradient>
<linearGradient id="paint1_linear_6698_8208" x1="18.4414" y1="30.7188" x2="18.4414" y2="7.60161" gradientUnits="userSpaceOnUse">
<stop stop-color="#F4853B"/>
<stop offset="1" stop-color="#3448F5"/>
</linearGradient>
<linearGradient id="paint2_linear_6698_8208" x1="18.4414" y1="23.3359" x2="18.4414" y2="17.5567" gradientUnits="userSpaceOnUse">
<stop stop-color="#F4853B"/>
<stop offset="1" stop-color="#3448F5"/>
</linearGradient>
</defs>
</svg>
