<svg width="43" height="44" viewBox="0 0 43 44" fill="none" xmlns="http://www.w3.org/2000/svg">
<mask id="path-1-outside-1_6698_8228" maskUnits="userSpaceOnUse" x="-0.445312" y="-0.125" width="44" height="44" fill="black">
<rect fill="white" x="-0.445312" y="-0.125" width="44" height="44"/>
<path d="M15.7422 19.5911C15.4767 19.603 15.2713 19.8283 15.2832 20.0947C15.2951 20.3615 15.5156 20.5626 15.7848 20.5557C16.3471 20.5224 16.9176 20.7423 17.3303 21.1373L18.3372 22.1009C18.5305 22.2851 18.8345 22.2771 19.0172 22.0846C19.2007 21.8917 19.1932 21.5862 19.001 21.4021L17.994 20.4385C17.3935 19.8635 16.5807 19.5546 15.7422 19.5911Z"/>
<path d="M0.561372 16.3909L0.730445 18.3798C0.821243 19.4465 1.23578 20.44 1.92898 21.2532C2.46066 21.7626 3.25923 23.3212 5.41376 23.8297L7.86344 24.4081V28.6168C7.86344 28.8833 8.07885 29.0994 8.34436 29.0994C8.60987 29.0994 8.82528 28.8833 8.82528 28.6168V24.026C8.82528 23.802 8.67186 23.6075 8.45457 23.5563L5.63418 22.8902C3.84412 22.4674 3.21162 21.1626 2.66038 20.626C2.09868 19.9669 1.76242 19.1619 1.68852 18.2975L1.51945 16.3086C1.4766 15.8017 1.87338 15.3688 2.37922 15.3688C2.80315 15.3688 3.16134 15.673 3.23022 16.0924L3.31914 16.6291C3.74589 19.1932 6.00219 20.9811 8.54286 20.8752C8.80774 20.8633 9.01376 20.638 9.00187 20.3719C8.98997 20.1048 8.76516 19.9028 8.50028 19.9106C6.4656 20.0018 4.61608 18.5635 4.26845 16.4704L4.17953 15.9341C4.03238 15.0474 3.2753 14.4036 2.37922 14.4036C1.30872 14.4036 0.470985 15.3248 0.561372 16.3909Z"/>
<path d="M20.5589 24.2947C20.8013 24.4021 21.0862 24.294 21.1939 24.0505L21.6379 23.052C21.7796 22.7333 21.5474 22.3727 21.1989 22.3727H13.9213C13.4222 22.3727 12.9889 22.6944 12.8423 23.1736L11.2699 28.3419C11.1929 28.597 11.3357 28.8666 11.5899 28.9445C11.8354 29.0211 12.1102 28.885 12.1905 28.6241L13.7622 23.4561C13.7841 23.3854 13.848 23.3379 13.9213 23.3379H20.4575L20.316 23.6572C20.2076 23.9007 20.3166 24.186 20.5589 24.2947Z"/>
<path d="M20.4487 29.2748L20.7355 29.1893C22.2596 28.7353 23.198 27.128 22.8032 25.5581L22.4582 24.1624C22.3943 23.9032 22.1307 23.7458 21.8758 23.8102C21.6178 23.8743 21.4607 24.136 21.5252 24.3949L21.8702 25.7918C21.9103 25.953 21.9309 26.1202 21.9309 26.2886C21.9309 27.1941 21.3267 28.0063 20.4619 28.264L20.1751 28.3494C19.7749 28.4688 19.3579 28.2652 19.2026 27.8712C19.0284 27.4277 19.2746 26.9287 19.7367 26.8026C19.9929 26.7329 20.1444 26.468 20.0749 26.2107C20.0054 25.954 19.7436 25.8003 19.485 25.8713C18.476 26.1458 17.9207 27.2423 18.3103 28.2294C18.6451 29.0819 19.5612 29.5393 20.4487 29.2748Z"/>
<path d="M8.83029 14.7794C8.88665 14.9965 9.08139 15.1401 9.29492 15.1401C9.29778 15.1401 9.30068 15.139 9.30354 15.139C9.30577 15.139 9.30772 15.1401 9.30995 15.1401C9.34439 15.1401 9.37946 15.1363 9.41453 15.1288C9.42236 15.127 9.42799 15.1215 9.43562 15.1194C10.313 14.8891 12.3285 14.3176 13.3771 13.6787C13.6986 14.163 14.3402 14.7958 15.0781 15.0349L15.0791 15.0355L15.0803 15.0358C15.0946 15.0404 15.1089 15.0374 15.1232 15.0406C15.3648 15.0946 15.608 14.9639 15.6853 14.7253C16.0403 13.6263 15.8625 12.7122 15.6508 12.1395C15.5406 11.8406 15.3527 11.5792 15.1073 11.3832C14.6778 11.0394 14.2531 10.5766 14.1692 10.5141C12.6676 9.38327 10.7364 10.5662 10.1804 10.9559C10.1115 11.0042 10.0414 11.0375 9.97372 11.0545C8.26855 11.4761 8.71198 14.1281 8.82508 14.6858C8.82688 14.7172 8.82211 14.7478 8.83029 14.7794ZM10.2048 11.9915C10.3883 11.9459 10.5655 11.8636 10.7308 11.7473C11.1503 11.4542 12.5818 10.5609 13.5656 11.2666C14.5335 12.2405 14.6254 12.1409 14.7491 12.4747C14.8704 12.8036 14.975 13.2847 14.8967 13.8667C14.5193 13.602 14.2086 13.2299 14.1041 13.0202C13.9019 12.6163 13.387 12.4956 13.0227 12.7587C12.4197 13.191 10.9942 13.6835 9.7005 14.0474C9.60607 13.241 9.63522 12.1322 10.2048 11.9915Z"/>
<path d="M9.59675 17.4495C9.78085 18.7996 10.8604 20.1799 12.2781 20.1799C13.6971 20.1799 14.7779 18.7996 14.962 17.4492C15.7596 17.1471 16.0169 16.1736 15.55 15.5181C15.396 15.3019 15.0966 15.2504 14.8787 15.4065C14.6627 15.5614 14.6132 15.8631 14.7673 16.0799C14.8835 16.2403 14.8063 16.5052 14.5819 16.5587C14.2713 16.6329 14.0465 16.8899 14.0221 17.1981C13.9488 18.1307 13.1711 19.2147 12.2781 19.2147C11.372 19.2147 10.6112 18.1501 10.5373 17.1984C10.5129 16.8899 10.2881 16.6329 9.97623 16.5587C9.75005 16.5045 9.66915 16.2341 9.8034 16.0632C9.96871 15.8539 9.93302 15.5504 9.72449 15.3852C9.51597 15.2196 9.21352 15.2563 9.04946 15.4643C8.52257 16.1333 8.78682 17.1427 9.59675 17.4495Z"/>
<path d="M42.0218 25.3322V6.41092C42.0218 5.78692 41.5165 5.27948 40.8946 5.27948H16.8982C16.2764 5.27948 15.7704 5.78692 15.7704 6.41092V9.36536C15.7704 9.63181 15.9858 9.84798 16.2513 9.84798C16.5168 9.84798 16.7323 9.63181 16.7323 9.36536V6.41092C16.7323 6.31918 16.8068 6.24471 16.8982 6.24471H40.8946C40.9861 6.24471 41.06 6.31918 41.06 6.41092V25.3322C41.06 25.4239 40.9861 25.4984 40.8946 25.4984H25.4157C25.1502 25.4984 24.9348 25.7145 24.9348 25.981C24.9348 26.2474 25.1502 26.4636 25.4157 26.4636H40.8946C41.5165 26.4636 42.0218 25.9562 42.0218 25.3322Z"/>
<path d="M18.1882 9.91176C18.1882 10.1782 18.4036 10.3944 18.6691 10.3944H39.1388C39.4043 10.3944 39.6197 10.1782 39.6197 9.91176C39.6197 9.64532 39.4043 9.42915 39.1388 9.42915H18.6691C18.4036 9.42915 18.1882 9.64532 18.1882 9.91176Z"/>
<path d="M38.346 8.37343C38.6115 8.37343 38.8269 8.15726 38.8269 7.89082C38.8269 7.62437 38.6115 7.4082 38.346 7.4082H36.299C36.0335 7.4082 35.8181 7.62437 35.8181 7.89082C35.8181 8.15726 36.0335 8.37343 36.299 8.37343H38.346Z"/>
<path d="M20.4596 7.82715C20.4596 7.47065 20.1716 7.18166 19.8164 7.18166C19.4612 7.18166 19.1732 7.47065 19.1732 7.82715C19.1732 8.18361 19.4612 8.4726 19.8164 8.4726C20.1716 8.4726 20.4596 8.18361 20.4596 7.82715Z"/>
<path d="M22.7553 7.82715C22.7553 7.47065 22.4674 7.18166 22.1121 7.18166C21.7569 7.18166 21.469 7.47065 21.469 7.82715C21.469 8.18361 21.7569 8.4726 22.1121 8.4726C22.4674 8.4726 22.7553 8.18361 22.7553 7.82715Z"/>
<path d="M9.79087 9.58028L10.7684 7.8506H13.1091C13.7453 7.8506 14.2625 7.33122 14.2625 6.69308V2.03252C14.2625 1.39438 13.7453 0.875 13.1091 0.875H5.27412C4.63791 0.875 4.12067 1.39438 4.12067 2.03252V6.69308C4.12067 7.33122 4.63791 7.8506 5.27412 7.8506H7.90665L8.96179 9.59316C9.15117 9.90695 9.60975 9.90176 9.79087 9.58028ZM8.58607 7.11411C8.49812 6.96882 8.34006 6.8838 8.17466 6.8838C8.10837 6.8838 5.34037 6.88533 5.27412 6.88537C5.17017 6.88537 5.08251 6.79739 5.08251 6.69308V2.03252C5.08251 1.9282 5.17017 1.84023 5.27412 1.84023H13.1091C13.213 1.84023 13.3007 1.9282 13.3007 2.03252V6.69308C13.3007 6.79739 13.213 6.88537 13.1091 6.88537H10.5454C10.3563 6.8618 10.1691 6.95324 10.0714 7.12699L9.35817 8.38914L8.58607 7.11411Z"/>
<path d="M8.26671 3.68145H10.2148C10.4803 3.68145 10.6957 3.46528 10.6957 3.19884C10.6957 2.93239 10.4803 2.71622 10.2148 2.71622H8.26671C8.00121 2.71622 7.78579 2.93239 7.78579 3.19884C7.78579 3.46528 8.00121 3.68145 8.26671 3.68145Z"/>
<path d="M12.1761 5.11264C12.1761 4.8462 11.9606 4.63003 11.6951 4.63003H6.68807C6.42256 4.63003 6.20715 4.8462 6.20715 5.11264C6.20715 5.37908 6.42256 5.59526 6.68807 5.59526H11.6951C11.9606 5.59526 12.1761 5.37908 12.1761 5.11264Z"/>
<path d="M24.6549 29.8545C22.8139 29.8545 21.316 31.3573 21.316 33.2048C21.316 35.0523 22.8139 36.5555 24.6549 36.5555C26.4959 36.5555 27.9938 35.0523 27.9938 33.2048C27.9938 31.3573 26.4959 29.8545 24.6549 29.8545ZM24.6549 35.5902C23.3443 35.5902 22.2778 34.5201 22.2778 33.2048C22.2778 31.8896 23.3443 30.8197 24.6549 30.8197C25.9655 30.8197 27.0319 31.8896 27.0319 33.2048C27.0319 34.5201 25.9655 35.5902 24.6549 35.5902Z"/>
<path d="M29.1491 42.875C29.4146 42.875 29.63 42.6588 29.63 42.3924V41.2019C29.63 38.9267 27.7859 37.0758 25.5184 37.0758H23.7914C21.5239 37.0758 19.6798 38.9267 19.6798 41.2019V42.3924C19.6798 42.6588 19.8952 42.875 20.1607 42.875C20.4262 42.875 20.6416 42.6588 20.6416 42.3924V41.2019C20.6416 39.459 22.0543 38.041 23.7914 38.041H25.5184C27.2555 38.041 28.6682 39.459 28.6682 41.2019V42.3924C28.6682 42.6588 28.8836 42.875 29.1491 42.875Z"/>
<path d="M11.7302 36.5555C13.5712 36.5555 15.0691 35.0523 15.0691 33.2048C15.0691 31.3573 13.5712 29.8545 11.7302 29.8545C9.88918 29.8545 8.39132 31.3573 8.39132 33.2048C8.39132 35.0523 9.88918 36.5555 11.7302 36.5555ZM11.7302 30.8197C13.0408 30.8197 14.1072 31.8896 14.1072 33.2048C14.1072 34.5201 13.0408 35.5902 11.7302 35.5902C10.4196 35.5902 9.35316 34.5201 9.35316 33.2048C9.35316 31.8896 10.4196 30.8197 11.7302 30.8197Z"/>
<path d="M6.7557 41.2019V42.3924C6.7557 42.6588 6.97111 42.875 7.23662 42.875C7.50213 42.875 7.71754 42.6588 7.71754 42.3924V41.2019C7.71754 39.459 9.13023 38.041 10.8667 38.041H12.5937C14.3308 38.041 15.7435 39.459 15.7435 41.2019V42.3924C15.7435 42.6588 15.9589 42.875 16.2244 42.875C16.4899 42.875 16.7053 42.6588 16.7053 42.3924V41.2019C16.7053 38.9267 14.8612 37.0758 12.5937 37.0758H10.8667C8.59985 37.0758 6.7557 38.9267 6.7557 41.2019Z"/>
<path d="M37.5796 29.8545C35.7385 29.8545 34.2407 31.3573 34.2407 33.2048C34.2407 35.0523 35.7385 36.5555 37.5796 36.5555C39.4206 36.5555 40.9184 35.0523 40.9184 33.2048C40.9184 31.3573 39.4206 29.8545 37.5796 29.8545ZM37.5796 35.5902C36.2689 35.5902 35.2025 34.5201 35.2025 33.2048C35.2025 31.8896 36.2689 30.8197 37.5796 30.8197C38.8902 30.8197 39.9566 31.8896 39.9566 33.2048C39.9566 34.5201 38.8902 35.5902 37.5796 35.5902Z"/>
<path d="M38.4431 37.0758H36.716C34.4486 37.0758 32.6044 38.9267 32.6044 41.2019V42.3924C32.6044 42.6588 32.8198 42.875 33.0854 42.875C33.3509 42.875 33.5663 42.6588 33.5663 42.3924V41.2019C33.5663 39.459 34.979 38.041 36.716 38.041H38.4431C40.1802 38.041 41.5928 39.459 41.5928 41.2019V42.3924C41.5928 42.6588 41.8083 42.875 42.0738 42.875C42.3393 42.875 42.5547 42.6588 42.5547 42.3924V41.2019C42.5547 38.9267 40.7105 37.0758 38.4431 37.0758Z"/>
<path d="M35.5294 15.5058C35.5294 13.7114 32.5418 12.3585 28.5799 12.3585C24.6186 12.3585 21.631 13.7114 21.631 15.5058C21.631 17.3002 24.6186 18.6532 28.5799 18.6532C32.5418 18.6532 35.5294 17.3002 35.5294 15.5058ZM28.5799 17.6879C25.1533 17.6879 22.5928 16.5358 22.5928 15.5058C22.5928 14.4759 25.1533 13.3237 28.5799 13.3237C32.007 13.3237 34.5676 14.4759 34.5676 15.5058C34.5676 16.5358 32.007 17.6879 28.5799 17.6879Z"/>
<path d="M25.8002 20.4284C25.5347 20.4284 25.3193 20.6446 25.3193 20.911C25.3193 21.1775 25.5347 21.3936 25.8002 21.3936H31.8436C32.1091 21.3936 32.3245 21.1775 32.3245 20.911C32.3245 20.6446 32.1091 20.4284 31.8436 20.4284H25.8002Z"/>
</mask>
<path d="M15.7422 19.5911C15.4767 19.603 15.2713 19.8283 15.2832 20.0947C15.2951 20.3615 15.5156 20.5626 15.7848 20.5557C16.3471 20.5224 16.9176 20.7423 17.3303 21.1373L18.3372 22.1009C18.5305 22.2851 18.8345 22.2771 19.0172 22.0846C19.2007 21.8917 19.1932 21.5862 19.001 21.4021L17.994 20.4385C17.3935 19.8635 16.5807 19.5546 15.7422 19.5911Z" fill="url(#paint0_linear_6698_8228)"/>
<path d="M0.561372 16.3909L0.730445 18.3798C0.821243 19.4465 1.23578 20.44 1.92898 21.2532C2.46066 21.7626 3.25923 23.3212 5.41376 23.8297L7.86344 24.4081V28.6168C7.86344 28.8833 8.07885 29.0994 8.34436 29.0994C8.60987 29.0994 8.82528 28.8833 8.82528 28.6168V24.026C8.82528 23.802 8.67186 23.6075 8.45457 23.5563L5.63418 22.8902C3.84412 22.4674 3.21162 21.1626 2.66038 20.626C2.09868 19.9669 1.76242 19.1619 1.68852 18.2975L1.51945 16.3086C1.4766 15.8017 1.87338 15.3688 2.37922 15.3688C2.80315 15.3688 3.16134 15.673 3.23022 16.0924L3.31914 16.6291C3.74589 19.1932 6.00219 20.9811 8.54286 20.8752C8.80774 20.8633 9.01376 20.638 9.00187 20.3719C8.98997 20.1048 8.76516 19.9028 8.50028 19.9106C6.4656 20.0018 4.61608 18.5635 4.26845 16.4704L4.17953 15.9341C4.03238 15.0474 3.2753 14.4036 2.37922 14.4036C1.30872 14.4036 0.470985 15.3248 0.561372 16.3909Z" fill="url(#paint1_linear_6698_8228)"/>
<path d="M20.5589 24.2947C20.8013 24.4021 21.0862 24.294 21.1939 24.0505L21.6379 23.052C21.7796 22.7333 21.5474 22.3727 21.1989 22.3727H13.9213C13.4222 22.3727 12.9889 22.6944 12.8423 23.1736L11.2699 28.3419C11.1929 28.597 11.3357 28.8666 11.5899 28.9445C11.8354 29.0211 12.1102 28.885 12.1905 28.6241L13.7622 23.4561C13.7841 23.3854 13.848 23.3379 13.9213 23.3379H20.4575L20.316 23.6572C20.2076 23.9007 20.3166 24.186 20.5589 24.2947Z" fill="url(#paint2_linear_6698_8228)"/>
<path d="M20.4487 29.2748L20.7355 29.1893C22.2596 28.7353 23.198 27.128 22.8032 25.5581L22.4582 24.1624C22.3943 23.9032 22.1307 23.7458 21.8758 23.8102C21.6178 23.8743 21.4607 24.136 21.5252 24.3949L21.8702 25.7918C21.9103 25.953 21.9309 26.1202 21.9309 26.2886C21.9309 27.1941 21.3267 28.0063 20.4619 28.264L20.1751 28.3494C19.7749 28.4688 19.3579 28.2652 19.2026 27.8712C19.0284 27.4277 19.2746 26.9287 19.7367 26.8026C19.9929 26.7329 20.1444 26.468 20.0749 26.2107C20.0054 25.954 19.7436 25.8003 19.485 25.8713C18.476 26.1458 17.9207 27.2423 18.3103 28.2294C18.6451 29.0819 19.5612 29.5393 20.4487 29.2748Z" fill="url(#paint3_linear_6698_8228)"/>
<path d="M8.83029 14.7794C8.88665 14.9965 9.08139 15.1401 9.29492 15.1401C9.29778 15.1401 9.30068 15.139 9.30354 15.139C9.30577 15.139 9.30772 15.1401 9.30995 15.1401C9.34439 15.1401 9.37946 15.1363 9.41453 15.1288C9.42236 15.127 9.42799 15.1215 9.43562 15.1194C10.313 14.8891 12.3285 14.3176 13.3771 13.6787C13.6986 14.163 14.3402 14.7958 15.0781 15.0349L15.0791 15.0355L15.0803 15.0358C15.0946 15.0404 15.1089 15.0374 15.1232 15.0406C15.3648 15.0946 15.608 14.9639 15.6853 14.7253C16.0403 13.6263 15.8625 12.7122 15.6508 12.1395C15.5406 11.8406 15.3527 11.5792 15.1073 11.3832C14.6778 11.0394 14.2531 10.5766 14.1692 10.5141C12.6676 9.38327 10.7364 10.5662 10.1804 10.9559C10.1115 11.0042 10.0414 11.0375 9.97372 11.0545C8.26855 11.4761 8.71198 14.1281 8.82508 14.6858C8.82688 14.7172 8.82211 14.7478 8.83029 14.7794ZM10.2048 11.9915C10.3883 11.9459 10.5655 11.8636 10.7308 11.7473C11.1503 11.4542 12.5818 10.5609 13.5656 11.2666C14.5335 12.2405 14.6254 12.1409 14.7491 12.4747C14.8704 12.8036 14.975 13.2847 14.8967 13.8667C14.5193 13.602 14.2086 13.2299 14.1041 13.0202C13.9019 12.6163 13.387 12.4956 13.0227 12.7587C12.4197 13.191 10.9942 13.6835 9.7005 14.0474C9.60607 13.241 9.63522 12.1322 10.2048 11.9915Z" fill="url(#paint4_linear_6698_8228)"/>
<path d="M9.59675 17.4495C9.78085 18.7996 10.8604 20.1799 12.2781 20.1799C13.6971 20.1799 14.7779 18.7996 14.962 17.4492C15.7596 17.1471 16.0169 16.1736 15.55 15.5181C15.396 15.3019 15.0966 15.2504 14.8787 15.4065C14.6627 15.5614 14.6132 15.8631 14.7673 16.0799C14.8835 16.2403 14.8063 16.5052 14.5819 16.5587C14.2713 16.6329 14.0465 16.8899 14.0221 17.1981C13.9488 18.1307 13.1711 19.2147 12.2781 19.2147C11.372 19.2147 10.6112 18.1501 10.5373 17.1984C10.5129 16.8899 10.2881 16.6329 9.97623 16.5587C9.75005 16.5045 9.66915 16.2341 9.8034 16.0632C9.96871 15.8539 9.93302 15.5504 9.72449 15.3852C9.51597 15.2196 9.21352 15.2563 9.04946 15.4643C8.52257 16.1333 8.78682 17.1427 9.59675 17.4495Z" fill="url(#paint5_linear_6698_8228)"/>
<path d="M42.0218 25.3322V6.41092C42.0218 5.78692 41.5165 5.27948 40.8946 5.27948H16.8982C16.2764 5.27948 15.7704 5.78692 15.7704 6.41092V9.36536C15.7704 9.63181 15.9858 9.84798 16.2513 9.84798C16.5168 9.84798 16.7323 9.63181 16.7323 9.36536V6.41092C16.7323 6.31918 16.8068 6.24471 16.8982 6.24471H40.8946C40.9861 6.24471 41.06 6.31918 41.06 6.41092V25.3322C41.06 25.4239 40.9861 25.4984 40.8946 25.4984H25.4157C25.1502 25.4984 24.9348 25.7145 24.9348 25.981C24.9348 26.2474 25.1502 26.4636 25.4157 26.4636H40.8946C41.5165 26.4636 42.0218 25.9562 42.0218 25.3322Z" fill="url(#paint6_linear_6698_8228)"/>
<path d="M18.1882 9.91176C18.1882 10.1782 18.4036 10.3944 18.6691 10.3944H39.1388C39.4043 10.3944 39.6197 10.1782 39.6197 9.91176C39.6197 9.64532 39.4043 9.42915 39.1388 9.42915H18.6691C18.4036 9.42915 18.1882 9.64532 18.1882 9.91176Z" fill="url(#paint7_linear_6698_8228)"/>
<path d="M38.346 8.37343C38.6115 8.37343 38.8269 8.15726 38.8269 7.89082C38.8269 7.62437 38.6115 7.4082 38.346 7.4082H36.299C36.0335 7.4082 35.8181 7.62437 35.8181 7.89082C35.8181 8.15726 36.0335 8.37343 36.299 8.37343H38.346Z" fill="url(#paint8_linear_6698_8228)"/>
<path d="M20.4596 7.82715C20.4596 7.47065 20.1716 7.18166 19.8164 7.18166C19.4612 7.18166 19.1732 7.47065 19.1732 7.82715C19.1732 8.18361 19.4612 8.4726 19.8164 8.4726C20.1716 8.4726 20.4596 8.18361 20.4596 7.82715Z" fill="url(#paint9_linear_6698_8228)"/>
<path d="M22.7553 7.82715C22.7553 7.47065 22.4674 7.18166 22.1121 7.18166C21.7569 7.18166 21.469 7.47065 21.469 7.82715C21.469 8.18361 21.7569 8.4726 22.1121 8.4726C22.4674 8.4726 22.7553 8.18361 22.7553 7.82715Z" fill="url(#paint10_linear_6698_8228)"/>
<path d="M9.79087 9.58028L10.7684 7.8506H13.1091C13.7453 7.8506 14.2625 7.33122 14.2625 6.69308V2.03252C14.2625 1.39438 13.7453 0.875 13.1091 0.875H5.27412C4.63791 0.875 4.12067 1.39438 4.12067 2.03252V6.69308C4.12067 7.33122 4.63791 7.8506 5.27412 7.8506H7.90665L8.96179 9.59316C9.15117 9.90695 9.60975 9.90176 9.79087 9.58028ZM8.58607 7.11411C8.49812 6.96882 8.34006 6.8838 8.17466 6.8838C8.10837 6.8838 5.34037 6.88533 5.27412 6.88537C5.17017 6.88537 5.08251 6.79739 5.08251 6.69308V2.03252C5.08251 1.9282 5.17017 1.84023 5.27412 1.84023H13.1091C13.213 1.84023 13.3007 1.9282 13.3007 2.03252V6.69308C13.3007 6.79739 13.213 6.88537 13.1091 6.88537H10.5454C10.3563 6.8618 10.1691 6.95324 10.0714 7.12699L9.35817 8.38914L8.58607 7.11411Z" fill="url(#paint11_linear_6698_8228)"/>
<path d="M8.26671 3.68145H10.2148C10.4803 3.68145 10.6957 3.46528 10.6957 3.19884C10.6957 2.93239 10.4803 2.71622 10.2148 2.71622H8.26671C8.00121 2.71622 7.78579 2.93239 7.78579 3.19884C7.78579 3.46528 8.00121 3.68145 8.26671 3.68145Z" fill="url(#paint12_linear_6698_8228)"/>
<path d="M12.1761 5.11264C12.1761 4.8462 11.9606 4.63003 11.6951 4.63003H6.68807C6.42256 4.63003 6.20715 4.8462 6.20715 5.11264C6.20715 5.37908 6.42256 5.59526 6.68807 5.59526H11.6951C11.9606 5.59526 12.1761 5.37908 12.1761 5.11264Z" fill="url(#paint13_linear_6698_8228)"/>
<path d="M24.6549 29.8545C22.8139 29.8545 21.316 31.3573 21.316 33.2048C21.316 35.0523 22.8139 36.5555 24.6549 36.5555C26.4959 36.5555 27.9938 35.0523 27.9938 33.2048C27.9938 31.3573 26.4959 29.8545 24.6549 29.8545ZM24.6549 35.5902C23.3443 35.5902 22.2778 34.5201 22.2778 33.2048C22.2778 31.8896 23.3443 30.8197 24.6549 30.8197C25.9655 30.8197 27.0319 31.8896 27.0319 33.2048C27.0319 34.5201 25.9655 35.5902 24.6549 35.5902Z" fill="url(#paint14_linear_6698_8228)"/>
<path d="M29.1491 42.875C29.4146 42.875 29.63 42.6588 29.63 42.3924V41.2019C29.63 38.9267 27.7859 37.0758 25.5184 37.0758H23.7914C21.5239 37.0758 19.6798 38.9267 19.6798 41.2019V42.3924C19.6798 42.6588 19.8952 42.875 20.1607 42.875C20.4262 42.875 20.6416 42.6588 20.6416 42.3924V41.2019C20.6416 39.459 22.0543 38.041 23.7914 38.041H25.5184C27.2555 38.041 28.6682 39.459 28.6682 41.2019V42.3924C28.6682 42.6588 28.8836 42.875 29.1491 42.875Z" fill="url(#paint15_linear_6698_8228)"/>
<path d="M11.7302 36.5555C13.5712 36.5555 15.0691 35.0523 15.0691 33.2048C15.0691 31.3573 13.5712 29.8545 11.7302 29.8545C9.88918 29.8545 8.39132 31.3573 8.39132 33.2048C8.39132 35.0523 9.88918 36.5555 11.7302 36.5555ZM11.7302 30.8197C13.0408 30.8197 14.1072 31.8896 14.1072 33.2048C14.1072 34.5201 13.0408 35.5902 11.7302 35.5902C10.4196 35.5902 9.35316 34.5201 9.35316 33.2048C9.35316 31.8896 10.4196 30.8197 11.7302 30.8197Z" fill="url(#paint16_linear_6698_8228)"/>
<path d="M6.7557 41.2019V42.3924C6.7557 42.6588 6.97111 42.875 7.23662 42.875C7.50213 42.875 7.71754 42.6588 7.71754 42.3924V41.2019C7.71754 39.459 9.13023 38.041 10.8667 38.041H12.5937C14.3308 38.041 15.7435 39.459 15.7435 41.2019V42.3924C15.7435 42.6588 15.9589 42.875 16.2244 42.875C16.4899 42.875 16.7053 42.6588 16.7053 42.3924V41.2019C16.7053 38.9267 14.8612 37.0758 12.5937 37.0758H10.8667C8.59985 37.0758 6.7557 38.9267 6.7557 41.2019Z" fill="url(#paint17_linear_6698_8228)"/>
<path d="M37.5796 29.8545C35.7385 29.8545 34.2407 31.3573 34.2407 33.2048C34.2407 35.0523 35.7385 36.5555 37.5796 36.5555C39.4206 36.5555 40.9184 35.0523 40.9184 33.2048C40.9184 31.3573 39.4206 29.8545 37.5796 29.8545ZM37.5796 35.5902C36.2689 35.5902 35.2025 34.5201 35.2025 33.2048C35.2025 31.8896 36.2689 30.8197 37.5796 30.8197C38.8902 30.8197 39.9566 31.8896 39.9566 33.2048C39.9566 34.5201 38.8902 35.5902 37.5796 35.5902Z" fill="url(#paint18_linear_6698_8228)"/>
<path d="M38.4431 37.0758H36.716C34.4486 37.0758 32.6044 38.9267 32.6044 41.2019V42.3924C32.6044 42.6588 32.8198 42.875 33.0854 42.875C33.3509 42.875 33.5663 42.6588 33.5663 42.3924V41.2019C33.5663 39.459 34.979 38.041 36.716 38.041H38.4431C40.1802 38.041 41.5928 39.459 41.5928 41.2019V42.3924C41.5928 42.6588 41.8083 42.875 42.0738 42.875C42.3393 42.875 42.5547 42.6588 42.5547 42.3924V41.2019C42.5547 38.9267 40.7105 37.0758 38.4431 37.0758Z" fill="url(#paint19_linear_6698_8228)"/>
<path d="M35.5294 15.5058C35.5294 13.7114 32.5418 12.3585 28.5799 12.3585C24.6186 12.3585 21.631 13.7114 21.631 15.5058C21.631 17.3002 24.6186 18.6532 28.5799 18.6532C32.5418 18.6532 35.5294 17.3002 35.5294 15.5058ZM28.5799 17.6879C25.1533 17.6879 22.5928 16.5358 22.5928 15.5058C22.5928 14.4759 25.1533 13.3237 28.5799 13.3237C32.007 13.3237 34.5676 14.4759 34.5676 15.5058C34.5676 16.5358 32.007 17.6879 28.5799 17.6879Z" fill="url(#paint20_linear_6698_8228)"/>
<path d="M25.8002 20.4284C25.5347 20.4284 25.3193 20.6446 25.3193 20.911C25.3193 21.1775 25.5347 21.3936 25.8002 21.3936H31.8436C32.1091 21.3936 32.3245 21.1775 32.3245 20.911C32.3245 20.6446 32.1091 20.4284 31.8436 20.4284H25.8002Z" fill="url(#paint21_linear_6698_8228)"/>
<path d="M15.7422 19.5911L15.7336 19.3913L15.7333 19.3913L15.7422 19.5911ZM15.2832 20.0947L15.483 20.0858V20.0858L15.2832 20.0947ZM15.7848 20.5557L15.79 20.7557L15.7966 20.7553L15.7848 20.5557ZM17.3303 21.1373L17.192 21.2817L17.192 21.2817L17.3303 21.1373ZM18.3372 22.1009L18.1989 22.2454L18.1992 22.2457L18.3372 22.1009ZM19.0172 22.0846L18.8723 21.9467L18.8722 21.9469L19.0172 22.0846ZM19.001 21.4021L19.1393 21.2577L19.1392 21.2576L19.001 21.4021ZM17.994 20.4385L17.8557 20.5829L17.8558 20.583L17.994 20.4385ZM0.561372 16.3909L0.362087 16.4078L0.362091 16.4079L0.561372 16.3909ZM0.730445 18.3798L0.531163 18.3968L0.531165 18.3968L0.730445 18.3798ZM1.92898 21.2532L1.77678 21.3829L1.78333 21.3906L1.79062 21.3976L1.92898 21.2532ZM5.41376 23.8297L5.45973 23.635L5.4597 23.635L5.41376 23.8297ZM7.86344 24.4081H8.06344V24.2498L7.9094 24.2134L7.86344 24.4081ZM8.45457 23.5563L8.4086 23.7509L8.40869 23.751L8.45457 23.5563ZM5.63418 22.8902L5.58821 23.0848H5.58821L5.63418 22.8902ZM2.66038 20.626L2.50815 20.7558L2.5142 20.7629L2.52088 20.7694L2.66038 20.626ZM1.68852 18.2975L1.48924 18.3144L1.48925 18.3145L1.68852 18.2975ZM1.51945 16.3086L1.32016 16.3254L1.32017 16.3255L1.51945 16.3086ZM3.23022 16.0924L3.03286 16.1248L3.03291 16.1251L3.23022 16.0924ZM3.31914 16.6291L3.12183 16.6618L3.12185 16.6619L3.31914 16.6291ZM8.54286 20.8752L8.55119 21.075L8.55187 21.075L8.54286 20.8752ZM9.00187 20.3719L8.80206 20.3808L8.80207 20.3808L9.00187 20.3719ZM8.50028 19.9106L8.49435 19.7107L8.49133 19.7108L8.50028 19.9106ZM4.26845 16.4704L4.07114 16.5031L4.07115 16.5032L4.26845 16.4704ZM4.17953 15.9341L4.37684 15.9014L4.37683 15.9013L4.17953 15.9341ZM2.37922 14.4036V14.2036V14.4036ZM20.5589 24.2947L20.4771 24.4771L20.4779 24.4775L20.5589 24.2947ZM21.1939 24.0505L21.0111 23.9693L21.011 23.9696L21.1939 24.0505ZM21.6379 23.052L21.4551 22.9707L21.4551 22.9707L21.6379 23.052ZM12.8423 23.1736L12.6511 23.1151L12.651 23.1154L12.8423 23.1736ZM11.2699 28.3419L11.0786 28.2837L11.0785 28.2841L11.2699 28.3419ZM11.5899 28.9445L11.6495 28.7536L11.6485 28.7533L11.5899 28.9445ZM12.1905 28.6241L12.3816 28.6828L12.3818 28.6823L12.1905 28.6241ZM13.7622 23.4561L13.5712 23.3968L13.5709 23.3979L13.7622 23.4561ZM20.4575 23.3379L20.6403 23.419L20.7649 23.1379H20.4575V23.3379ZM20.316 23.6572L20.4987 23.7384L20.4988 23.7382L20.316 23.6572ZM20.4487 29.2748L20.3916 29.0831L20.3916 29.0831L20.4487 29.2748ZM20.7355 29.1893L20.6784 28.9976L20.6784 28.9976L20.7355 29.1893ZM22.8032 25.5581L22.6091 25.6061L22.6093 25.6068L22.8032 25.5581ZM22.4582 24.1624L22.264 24.2102L22.264 24.2104L22.4582 24.1624ZM21.8758 23.8102L21.924 24.0043L21.9248 24.0041L21.8758 23.8102ZM21.5252 24.3949L21.7193 24.3469L21.7192 24.3466L21.5252 24.3949ZM21.8702 25.7918L21.676 25.8398L21.6761 25.8401L21.8702 25.7918ZM20.4619 28.264L20.4048 28.0723L20.4048 28.0723L20.4619 28.264ZM20.1751 28.3494L20.118 28.1578L20.1179 28.1578L20.1751 28.3494ZM19.2026 27.8712L19.0164 27.9443L19.0165 27.9446L19.2026 27.8712ZM19.7367 26.8026L19.6842 26.6097L19.6841 26.6097L19.7367 26.8026ZM20.0749 26.2107L20.268 26.1585L20.2679 26.1584L20.0749 26.2107ZM19.485 25.8713L19.5375 26.0643L19.538 26.0642L19.485 25.8713ZM18.3103 28.2294L18.4964 28.1563L18.4963 28.156L18.3103 28.2294ZM8.83029 14.7794L8.63669 14.8296L8.6367 14.8296L8.83029 14.7794ZM9.30354 15.139L9.30706 14.9389L9.30078 14.939L9.30354 15.139ZM9.41453 15.1288L9.45658 15.3243L9.45764 15.3241L9.41453 15.1288ZM9.43562 15.1194L9.38484 14.9259L9.38207 14.9267L9.43562 15.1194ZM13.3771 13.6787L13.5437 13.5681L13.4373 13.4078L13.273 13.5079L13.3771 13.6787ZM15.0781 15.0349L15.1782 14.8618L15.1599 14.8511L15.1397 14.8446L15.0781 15.0349ZM15.0791 15.0355L14.9789 15.2086L15.0033 15.2227L15.0306 15.2295L15.0791 15.0355ZM15.0803 15.0358L15.1417 14.845L15.1288 14.8417L15.0803 15.0358ZM15.1232 15.0406L15.1669 14.8454L15.1665 14.8453L15.1232 15.0406ZM15.6853 14.7253L15.8755 14.787L15.8756 14.7868L15.6853 14.7253ZM15.6508 12.1395L15.4632 12.2087L15.4632 12.2088L15.6508 12.1395ZM15.1073 11.3832L14.9823 11.5393L14.9825 11.5394L15.1073 11.3832ZM14.1692 10.5141L14.0489 10.6739L14.0498 10.6745L14.1692 10.5141ZM10.1804 10.9559L10.0656 10.7921L10.0654 10.7922L10.1804 10.9559ZM9.97372 11.0545L10.0217 11.2487L10.0224 11.2485L9.97372 11.0545ZM8.82508 14.6858L9.02475 14.6744L9.02393 14.6601L9.02109 14.6461L8.82508 14.6858ZM10.2048 11.9915L10.2528 12.1856L10.253 12.1856L10.2048 11.9915ZM10.7308 11.7473L10.6162 11.5834L10.6157 11.5837L10.7308 11.7473ZM13.5656 11.2666L13.7074 11.1256L13.6957 11.1138L13.6822 11.1041L13.5656 11.2666ZM14.7491 12.4747L14.9367 12.4055L14.9366 12.4052L14.7491 12.4747ZM14.8967 13.8667L14.7819 14.0304L15.0511 14.2192L15.0949 13.8933L14.8967 13.8667ZM14.1041 13.0202L14.2831 12.931L14.2829 12.9306L14.1041 13.0202ZM13.0227 12.7587L13.1392 12.9213L13.1398 12.9209L13.0227 12.7587ZM9.7005 14.0474L9.50186 14.0707L9.52912 14.3034L9.75466 14.2399L9.7005 14.0474ZM9.59675 17.4495L9.79492 17.4224L9.77884 17.3046L9.66759 17.2624L9.59675 17.4495ZM14.962 17.4492L14.8912 17.2621L14.7799 17.3043L14.7638 17.4221L14.962 17.4492ZM15.55 15.5181L15.7129 15.402L15.7129 15.402L15.55 15.5181ZM14.8787 15.4065L14.7622 15.244L14.7622 15.244L14.8787 15.4065ZM14.7673 16.0799L14.6042 16.1957L14.6053 16.1972L14.7673 16.0799ZM14.5819 16.5587L14.5355 16.3642L14.5355 16.3642L14.5819 16.5587ZM14.0221 17.1981L13.8227 17.1823L13.8227 17.1824L14.0221 17.1981ZM10.5373 17.1984L10.7367 17.1829L10.7367 17.1826L10.5373 17.1984ZM9.97623 16.5587L9.92961 16.7532L9.92996 16.7533L9.97623 16.5587ZM9.8034 16.0632L9.64646 15.9392L9.64611 15.9397L9.8034 16.0632ZM9.72449 15.3852L9.60012 15.5418L9.60027 15.5419L9.72449 15.3852ZM9.04946 15.4643L8.89243 15.3405L8.89234 15.3406L9.04946 15.4643ZM9.79087 9.58028L9.61675 9.48188L9.61663 9.48211L9.79087 9.58028ZM10.7684 7.8506V7.6506H10.6517L10.5942 7.7522L10.7684 7.8506ZM7.90665 7.8506L8.07773 7.74701L8.01935 7.6506H7.90665V7.8506ZM8.96179 9.59316L9.13302 9.48982L9.13287 9.48957L8.96179 9.59316ZM8.58607 7.11411L8.41498 7.21768L8.41499 7.2177L8.58607 7.11411ZM5.27412 6.88537V7.08537H5.27423L5.27412 6.88537ZM10.5454 6.88537L10.5207 7.08383L10.533 7.08537H10.5454V6.88537ZM10.0714 7.12699L10.2455 7.22539L10.2457 7.225L10.0714 7.12699ZM9.35817 8.38914L9.18709 8.49274L9.36414 8.7851L9.53229 8.48753L9.35817 8.38914ZM15.7422 19.5911L15.7333 19.3913C15.3569 19.4082 15.0666 19.7275 15.0834 20.1037L15.2832 20.0947L15.483 20.0858C15.476 19.9291 15.5966 19.7978 15.7512 19.7909L15.7422 19.5911ZM15.2832 20.0947L15.0834 20.1036C15.1003 20.4823 15.4148 20.7652 15.79 20.7556L15.7848 20.5557L15.7797 20.3557C15.6163 20.3599 15.4899 20.2407 15.483 20.0858L15.2832 20.0947ZM15.7848 20.5557L15.7966 20.7553C16.3006 20.7255 16.8174 20.9232 17.192 21.2817L17.3303 21.1373L17.4686 20.9928C17.0178 20.5614 16.3937 20.3193 15.773 20.356L15.7848 20.5557ZM17.3303 21.1373L17.192 21.2817L18.1989 22.2454L18.3372 22.1009L18.4755 21.9564L17.4686 20.9928L17.3303 21.1373ZM18.3372 22.1009L18.1992 22.2457C18.4725 22.5061 18.9033 22.4951 19.1623 22.2223L19.0172 22.0846L18.8722 21.9469C18.7657 22.0591 18.5884 22.0641 18.4752 21.9561L18.3372 22.1009ZM19.0172 22.0846L19.1622 22.2224C19.4218 21.9494 19.4109 21.5178 19.1393 21.2577L19.001 21.4021L18.8626 21.5466C18.9755 21.6547 18.9797 21.8339 18.8723 21.9467L19.0172 22.0846ZM19.001 21.4021L19.1392 21.2576L18.1323 20.294L17.994 20.4385L17.8558 20.583L18.8627 21.5466L19.001 21.4021ZM17.994 20.4385L18.1324 20.294C17.4926 19.6814 16.6267 19.3524 15.7336 19.3913L15.7422 19.5911L15.7509 19.7909C16.5347 19.7568 17.2945 20.0455 17.8557 20.5829L17.994 20.4385ZM0.561372 16.3909L0.362091 16.4079L0.531163 18.3968L0.730445 18.3798L0.929726 18.3629L0.760653 16.374L0.561372 16.3909ZM0.730445 18.3798L0.531165 18.3968C0.625498 19.505 1.05647 20.538 1.77678 21.3829L1.92898 21.2532L2.08118 21.1234C1.4151 20.3421 1.01699 19.388 0.929724 18.3629L0.730445 18.3798ZM1.92898 21.2532L1.79062 21.3976C2.26835 21.8553 3.14255 23.4991 5.36783 24.0243L5.41376 23.8297L5.4597 23.635C3.37591 23.1432 2.65297 21.6699 2.06735 21.1088L1.92898 21.2532ZM5.41376 23.8297L5.3678 24.0243L7.81748 24.6027L7.86344 24.4081L7.9094 24.2134L5.45973 23.635L5.41376 23.8297ZM7.86344 24.4081H7.66344V28.6168H7.86344H8.06344V24.4081H7.86344ZM7.86344 28.6168H7.66344C7.66344 28.9931 7.96773 29.2994 8.34436 29.2994V29.0994V28.8994C8.18997 28.8994 8.06344 28.7735 8.06344 28.6168H7.86344ZM8.34436 29.0994V29.2994C8.72099 29.2994 9.02528 28.9931 9.02528 28.6168H8.82528H8.62528C8.62528 28.7735 8.49875 28.8994 8.34436 28.8994V29.0994ZM8.82528 28.6168H9.02528V24.026H8.82528H8.62528V28.6168H8.82528ZM8.82528 24.026H9.02528C9.02528 23.7098 8.80858 23.4343 8.50045 23.3616L8.45457 23.5563L8.40869 23.751C8.53514 23.7808 8.62528 23.8942 8.62528 24.026H8.82528ZM8.45457 23.5563L8.50054 23.3617L5.68015 22.6955L5.63418 22.8902L5.58821 23.0848L8.4086 23.7509L8.45457 23.5563ZM5.63418 22.8902L5.68016 22.6955C3.96188 22.2897 3.40718 21.0739 2.79988 20.4827L2.66038 20.626L2.52088 20.7694C3.01605 21.2514 3.72636 22.6451 5.58821 23.0848L5.63418 22.8902ZM2.66038 20.626L2.81261 20.4963C2.27796 19.8689 1.95814 19.1033 1.8878 18.2805L1.68852 18.2975L1.48925 18.3145C1.56669 19.2204 1.9194 20.0648 2.50815 20.7558L2.66038 20.626ZM1.68852 18.2975L1.88781 18.2806L1.71873 16.2917L1.51945 16.3086L1.32017 16.3255L1.48924 18.3144L1.68852 18.2975ZM1.51945 16.3086L1.71874 16.2918C1.68569 15.9007 1.99125 15.5688 2.37922 15.5688V15.3688V15.1688C1.75551 15.1688 1.26751 15.7026 1.32016 16.3254L1.51945 16.3086ZM2.37922 15.3688V15.5688C2.70505 15.5688 2.97983 15.8019 3.03286 16.1248L3.23022 16.0924L3.42757 16.06C3.34285 15.5441 2.90126 15.1688 2.37922 15.1688V15.3688ZM3.23022 16.0924L3.03291 16.1251L3.12183 16.6618L3.31914 16.6291L3.51645 16.5964L3.42753 16.0597L3.23022 16.0924ZM3.31914 16.6291L3.12185 16.6619C3.56537 19.3268 5.91083 21.1851 8.55119 21.075L8.54286 20.8752L8.53454 20.6754C6.09354 20.7771 3.92641 19.0596 3.51642 16.5962L3.31914 16.6291ZM8.54286 20.8752L8.55187 21.075C8.92735 21.0581 9.21848 20.7391 9.20167 20.3629L9.00187 20.3719L8.80207 20.3808C8.80904 20.5369 8.68814 20.6685 8.53386 20.6754L8.54286 20.8752ZM9.00187 20.3719L9.20167 20.363C9.18477 19.9836 8.86537 19.6997 8.49435 19.7107L8.50028 19.9106L8.50621 20.1105C8.66496 20.1058 8.79517 20.226 8.80206 20.3808L9.00187 20.3719ZM8.50028 19.9106L8.49133 19.7108C6.5561 19.7975 4.79652 18.4293 4.46575 16.4376L4.26845 16.4704L4.07115 16.5032C4.43563 18.6978 6.3751 20.206 8.50924 20.1104L8.50028 19.9106ZM4.26845 16.4704L4.46576 16.4377L4.37684 15.9014L4.17953 15.9341L3.98222 15.9668L4.07114 16.5031L4.26845 16.4704ZM4.17953 15.9341L4.37683 15.9013C4.21374 14.9186 3.37363 14.2036 2.37922 14.2036V14.4036V14.6036C3.17698 14.6036 3.85101 15.1761 3.98223 15.9668L4.17953 15.9341ZM2.37922 14.4036V14.2036C1.19036 14.2036 0.261911 15.2262 0.362087 16.4078L0.561372 16.3909L0.760657 16.374C0.68006 15.4234 1.42708 14.6036 2.37922 14.6036L2.37922 14.4036ZM20.5589 24.2947L20.4779 24.4775C20.8203 24.6293 21.224 24.477 21.3768 24.1314L21.1939 24.0505L21.011 23.9696C20.9484 24.1111 20.7823 24.1749 20.64 24.1118L20.5589 24.2947ZM21.1939 24.0505L21.3766 24.1318L21.8206 23.1333L21.6379 23.052L21.4551 22.9707L21.0111 23.9693L21.1939 24.0505ZM21.6379 23.052L21.8206 23.1333C22.0206 22.6837 21.6937 22.1727 21.1989 22.1727V22.3727V22.5727C21.4012 22.5727 21.5386 22.783 21.4551 22.9707L21.6379 23.052ZM21.1989 22.3727V22.1727H13.9213V22.3727V22.5727H21.1989V22.3727ZM13.9213 22.3727V22.1727C13.3337 22.1727 12.8232 22.5524 12.6511 23.1151L12.8423 23.1736L13.0336 23.2321C13.1546 22.8365 13.5106 22.5727 13.9213 22.5727V22.3727ZM12.8423 23.1736L12.651 23.1154L11.0786 28.2837L11.2699 28.3419L11.4613 28.4001L13.0337 23.2318L12.8423 23.1736ZM11.2699 28.3419L11.0785 28.2841C10.9699 28.6438 11.171 29.0253 11.5313 29.1358L11.5899 28.9445L11.6485 28.7533C11.5004 28.7079 11.416 28.5502 11.4614 28.3997L11.2699 28.3419ZM11.5899 28.9445L11.5304 29.1355C11.88 29.2445 12.2683 29.0512 12.3816 28.6828L12.1905 28.6241L11.9993 28.5653C11.9521 28.7188 11.7907 28.7977 11.6495 28.7536L11.5899 28.9445ZM12.1905 28.6241L12.3818 28.6823L13.9536 23.5143L13.7622 23.4561L13.5709 23.3979L11.9991 28.5659L12.1905 28.6241ZM13.7622 23.4561L13.9532 23.5153C13.9496 23.5271 13.9369 23.5379 13.9213 23.5379V23.3379V23.1379C13.7591 23.1379 13.6187 23.2436 13.5712 23.3968L13.7622 23.4561ZM13.9213 23.3379V23.5379H20.4575V23.3379V23.1379H13.9213V23.3379ZM20.4575 23.3379L20.2747 23.2569L20.1331 23.5761L20.316 23.6572L20.4988 23.7382L20.6403 23.419L20.4575 23.3379ZM20.316 23.6572L20.1332 23.5759C19.9802 23.9197 20.1339 24.3232 20.4771 24.4771L20.5589 24.2947L20.6408 24.1122C20.4993 24.0487 20.435 23.8816 20.4987 23.7384L20.316 23.6572ZM20.4487 29.2748L20.5058 29.4664L20.7926 29.381L20.7355 29.1893L20.6784 28.9976L20.3916 29.0831L20.4487 29.2748ZM20.7355 29.1893L20.7926 29.381C22.4181 28.8968 23.4184 27.1843 22.9972 25.5093L22.8032 25.5581L22.6093 25.6068C22.9776 27.0716 22.1011 28.5738 20.6784 28.9976L20.7355 29.1893ZM22.8032 25.5581L22.9974 25.5101L22.6523 24.1144L22.4582 24.1624L22.264 24.2104L22.6091 25.6061L22.8032 25.5581ZM22.4582 24.1624L22.6524 24.1145C22.5621 23.7481 22.1897 23.5245 21.8268 23.6163L21.8758 23.8102L21.9248 24.0041C22.0717 23.967 22.2265 24.0582 22.264 24.2102L22.4582 24.1624ZM21.8758 23.8102L21.8276 23.6161C21.4619 23.7069 21.24 24.0775 21.3311 24.4432L21.5252 24.3949L21.7192 24.3466C21.6813 24.1944 21.7737 24.0416 21.924 24.0043L21.8758 23.8102ZM21.5252 24.3949L21.331 24.4429L21.676 25.8398L21.8702 25.7918L22.0644 25.7439L21.7193 24.3469L21.5252 24.3949ZM21.8702 25.7918L21.6761 25.8401C21.7123 25.9855 21.7309 26.1365 21.7309 26.2886H21.9309H22.1309C22.1309 26.1039 22.1083 25.9205 22.0643 25.7436L21.8702 25.7918ZM21.9309 26.2886H21.7309C21.7309 27.106 21.1844 27.84 20.4048 28.0723L20.4619 28.264L20.519 28.4557C21.4689 28.1726 22.1309 27.2822 22.1309 26.2886H21.9309ZM20.4619 28.264L20.4048 28.0723L20.118 28.1578L20.1751 28.3494L20.2322 28.5411L20.519 28.4557L20.4619 28.264ZM20.1751 28.3494L20.1179 28.1578C19.8185 28.2471 19.5063 28.0965 19.3887 27.7979L19.2026 27.8712L19.0165 27.9446C19.2094 28.434 19.7314 28.6905 20.2323 28.5411L20.1751 28.3494ZM19.2026 27.8712L19.3888 27.7981C19.2576 27.4641 19.4433 27.09 19.7894 26.9956L19.7367 26.8026L19.6841 26.6097C19.106 26.7674 18.7992 27.3912 19.0164 27.9443L19.2026 27.8712ZM19.7367 26.8026L19.7893 26.9956C20.1523 26.8967 20.3661 26.5218 20.268 26.1585L20.0749 26.2107L19.8818 26.2628C19.9227 26.4142 19.8334 26.569 19.6842 26.6097L19.7367 26.8026ZM20.0749 26.2107L20.2679 26.1584C20.17 25.7968 19.7995 25.5776 19.4321 25.6785L19.485 25.8713L19.538 26.0642C19.6878 26.0231 19.8407 26.1111 19.8818 26.2629L20.0749 26.2107ZM19.485 25.8713L19.4325 25.6783C18.3083 25.9842 17.691 27.205 18.1242 28.3028L18.3103 28.2294L18.4963 28.156C18.1504 27.2795 18.6436 26.3075 19.5375 26.0643L19.485 25.8713ZM18.3103 28.2294L18.1241 28.3025C18.4965 29.2504 19.5174 29.7611 20.5059 29.4664L20.4487 29.2748L20.3916 29.0831C19.6049 29.3176 18.7938 28.9134 18.4964 28.1563L18.3103 28.2294ZM8.83029 14.7794L8.6367 14.8296C8.71642 15.1367 8.99215 15.3401 9.29492 15.3401V15.1401V14.9401C9.17063 14.9401 9.05688 14.8563 9.02387 14.7291L8.83029 14.7794ZM9.29492 15.1401V15.3401C9.30775 15.3401 9.3182 15.3389 9.32468 15.338C9.33075 15.3372 9.33591 15.3362 9.33614 15.3361C9.33682 15.336 9.33616 15.3361 9.33541 15.3362C9.33452 15.3364 9.33269 15.3367 9.33032 15.3371C9.32575 15.3377 9.3172 15.3388 9.30629 15.339L9.30354 15.139L9.30078 14.939C9.28845 14.9392 9.27846 14.9404 9.27245 14.9413C9.26936 14.9417 9.26682 14.9422 9.26521 14.9425C9.26374 14.9427 9.26236 14.943 9.26232 14.943C9.26112 14.9432 9.26484 14.9425 9.26947 14.9418C9.27452 14.9411 9.28352 14.9401 9.29492 14.9401V15.1401ZM9.30354 15.139L9.30002 15.339C9.28531 15.3387 9.27357 15.3368 9.26645 15.3354C9.2629 15.3347 9.26011 15.334 9.25859 15.3337C9.25727 15.3333 9.25609 15.333 9.25678 15.3332C9.25697 15.3333 9.25881 15.3337 9.26102 15.3343C9.26336 15.3348 9.26696 15.3356 9.27136 15.3365C9.28017 15.3381 9.29357 15.3401 9.30995 15.3401V15.1401V14.9401C9.32522 14.9401 9.33754 14.9419 9.34529 14.9434C9.34915 14.9441 9.35222 14.9448 9.35404 14.9452C9.35572 14.9456 9.35705 14.946 9.35671 14.9459C9.35666 14.9459 9.35669 14.9459 9.35661 14.9459C9.35657 14.9459 9.3565 14.9458 9.35643 14.9458C9.35628 14.9458 9.35605 14.9457 9.35577 14.9456C9.35523 14.9455 9.35437 14.9453 9.35333 14.945C9.35128 14.9445 9.34796 14.9438 9.34388 14.943C9.3357 14.9413 9.32287 14.9393 9.30705 14.939L9.30354 15.139ZM9.30995 15.1401V15.3401C9.35898 15.3401 9.40813 15.3347 9.45658 15.3243L9.41453 15.1288L9.37248 14.9332C9.35079 14.9379 9.32981 14.9401 9.30995 14.9401V15.1401ZM9.41453 15.1288L9.45764 15.3241C9.47672 15.3199 9.49208 15.3138 9.50286 15.3089C9.51287 15.3044 9.52094 15.2998 9.52264 15.2989C9.52432 15.2979 9.52373 15.2982 9.52342 15.2984C9.52278 15.2988 9.52086 15.2998 9.51818 15.3011C9.51281 15.3037 9.50271 15.3083 9.48917 15.3121L9.43562 15.1194L9.38207 14.9267C9.36472 14.9315 9.35105 14.9376 9.34223 14.9419C9.33783 14.944 9.33422 14.946 9.3319 14.9472C9.33072 14.9479 9.32971 14.9485 9.32903 14.9488C9.32869 14.949 9.32837 14.9492 9.32816 14.9493C9.32791 14.9495 9.32778 14.9495 9.32766 14.9496C9.32706 14.9499 9.32798 14.9494 9.32939 14.9487C9.33091 14.9479 9.33365 14.9465 9.33724 14.9448C9.34453 14.9415 9.35625 14.9368 9.37141 14.9335L9.41453 15.1288ZM9.43562 15.1194L9.4864 15.3128C9.9275 15.197 10.6555 14.9953 11.4062 14.7418C12.1531 14.4894 12.9369 14.1811 13.4812 13.8495L13.3771 13.6787L13.273 13.5079C12.7687 13.8152 12.0204 14.1121 11.2781 14.3628C10.5395 14.6123 9.82117 14.8114 9.38485 14.9259L9.43562 15.1194ZM13.3771 13.6787L13.2105 13.7893C13.5477 14.2974 14.222 14.9677 15.0164 15.2251L15.0781 15.0349L15.1397 14.8446C14.4584 14.6238 13.8495 14.0287 13.5437 13.5681L13.3771 13.6787ZM15.0781 15.0349L14.9779 15.208L14.9789 15.2086L15.0791 15.0355L15.1793 14.8623L15.1782 14.8618L15.0781 15.0349ZM15.0791 15.0355L15.0306 15.2295L15.0318 15.2298L15.0803 15.0358L15.1288 14.8417L15.1276 14.8414L15.0791 15.0355ZM15.0803 15.0358L15.0191 15.2262C15.0554 15.2378 15.0875 15.2383 15.0954 15.2386C15.1023 15.2388 15.1002 15.2387 15.0991 15.2387C15.0967 15.2385 15.0895 15.2379 15.08 15.2358L15.1232 15.0406L15.1665 14.8453C15.1498 14.8416 15.1355 14.8402 15.1258 14.8396C15.121 14.8392 15.1168 14.8391 15.114 14.839C15.1125 14.8389 15.1112 14.8389 15.1103 14.8389C15.1092 14.8388 15.1087 14.8388 15.1081 14.8388C15.1055 14.8387 15.109 14.8387 15.1142 14.8394C15.1201 14.84 15.1298 14.8416 15.1416 14.8454L15.0803 15.0358ZM15.1232 15.0406L15.0796 15.2357C15.4172 15.3112 15.765 15.1282 15.8755 14.787L15.6853 14.7253L15.495 14.6637C15.451 14.7996 15.3123 14.8779 15.1669 14.8454L15.1232 15.0406ZM15.6853 14.7253L15.8756 14.7868C16.2477 13.635 16.0615 12.6738 15.8384 12.0701L15.6508 12.1395L15.4632 12.2088C15.6634 12.7506 15.833 13.6175 15.4949 14.6639L15.6853 14.7253ZM15.6508 12.1395L15.8385 12.0702C15.7158 11.7377 15.5065 11.446 15.2321 11.2269L15.1073 11.3832L14.9825 11.5394C15.199 11.7124 15.3654 11.9436 15.4632 12.2087L15.6508 12.1395ZM15.1073 11.3832L15.2322 11.227C15.0254 11.0615 14.8175 10.8654 14.6485 10.7001C14.5635 10.6171 14.4912 10.5446 14.4313 10.4855C14.3782 10.4331 14.3237 10.3798 14.2887 10.3537L14.1692 10.5141L14.0498 10.6745C14.0486 10.6736 14.0504 10.6749 14.0565 10.6803C14.0621 10.6853 14.0695 10.692 14.0788 10.7008C14.0975 10.7184 14.1213 10.7417 14.1503 10.7703C14.2071 10.8263 14.2835 10.9027 14.3689 10.9862C14.5405 11.1539 14.7597 11.3611 14.9823 11.5393L15.1073 11.3832ZM14.1692 10.5141L14.2895 10.3543C13.471 9.73787 12.5408 9.75964 11.7673 9.97194C10.9954 10.1838 10.3518 10.5916 10.0656 10.7921L10.1804 10.9559L10.2951 11.1196C10.565 10.9305 11.1651 10.552 11.8731 10.3577C12.5796 10.1638 13.3659 10.1595 14.0489 10.6739L14.1692 10.5141ZM10.1804 10.9559L10.0654 10.7922C10.0129 10.8291 9.96493 10.8505 9.92505 10.8605L9.97372 11.0545L10.0224 11.2485C10.1178 11.2246 10.2101 11.1794 10.2953 11.1195L10.1804 10.9559ZM9.97372 11.0545L9.92572 10.8604C8.94626 11.1025 8.60963 11.9874 8.5188 12.7968C8.4271 13.6138 8.57135 14.4409 8.62907 14.7256L8.82508 14.6858L9.02109 14.6461C8.96571 14.373 8.8317 13.5952 8.9163 12.8414C9.00177 12.0799 9.29601 11.4281 10.0217 11.2487L9.97372 11.0545ZM8.82508 14.6858L8.62541 14.6973C8.62594 14.7065 8.62519 14.7034 8.62529 14.7332C8.62537 14.7547 8.62637 14.7898 8.63669 14.8296L8.83029 14.7794L9.02388 14.7292C9.02603 14.7374 9.02532 14.7414 9.02529 14.7318C9.02527 14.7254 9.0254 14.7227 9.0255 14.7109C9.02558 14.7017 9.02558 14.6888 9.02475 14.6744L8.82508 14.6858ZM10.2048 11.9915L10.253 12.1856C10.4621 12.1336 10.6618 12.0404 10.8458 11.9109L10.7308 11.7473L10.6157 11.5837C10.4692 11.6868 10.3144 11.7582 10.1566 11.7974L10.2048 11.9915ZM10.7308 11.7473L10.8453 11.9113C11.0486 11.7693 11.4924 11.4856 11.9979 11.3228C12.5076 11.1586 13.0336 11.1311 13.449 11.4291L13.5656 11.2666L13.6822 11.1041C13.1139 10.6964 12.4322 10.7627 11.8753 10.942C11.3143 11.1227 10.8325 11.4323 10.6162 11.5834L10.7308 11.7473ZM13.5656 11.2666L13.4237 11.4076C13.9134 11.9003 14.1836 12.1233 14.3427 12.2616C14.4231 12.3315 14.4626 12.3693 14.4903 12.405C14.5147 12.4363 14.535 12.4724 14.5615 12.5442L14.7491 12.4747L14.9366 12.4052C14.9014 12.3101 14.8638 12.2335 14.8059 12.1592C14.7514 12.0892 14.6842 12.0285 14.6051 11.9597C14.4454 11.8209 14.1856 11.6067 13.7074 11.1256L13.5656 11.2666ZM14.7491 12.4747L14.5614 12.5439C14.6738 12.8486 14.7716 13.2966 14.6985 13.84L14.8967 13.8667L15.0949 13.8933C15.1784 13.2728 15.0669 12.7585 14.9367 12.4055L14.7491 12.4747ZM14.8967 13.8667L15.0115 13.7029C14.6555 13.4532 14.3698 13.1051 14.2831 12.931L14.1041 13.0202L13.9251 13.1093C14.0474 13.3548 14.3831 13.7508 14.7819 14.0304L14.8967 13.8667ZM14.1041 13.0202L14.2829 12.9306C14.0245 12.4144 13.368 12.2627 12.9056 12.5966L13.0227 12.7587L13.1398 12.9209C13.406 12.7286 13.7793 12.8181 13.9253 13.1097L14.1041 13.0202ZM13.0227 12.7587L12.9061 12.5962C12.6277 12.7958 12.1421 13.0195 11.5504 13.2415C10.9637 13.4616 10.2896 13.674 9.64635 13.8549L9.7005 14.0474L9.75466 14.2399C10.4051 14.057 11.0906 13.8412 11.6909 13.616C12.286 13.3927 12.8146 13.154 13.1392 12.9213L13.0227 12.7587ZM9.7005 14.0474L9.89915 14.0241C9.85299 13.63 9.83863 13.1723 9.90086 12.8031C9.93204 12.6181 9.98042 12.468 10.0442 12.3612C10.1062 12.2572 10.1757 12.2047 10.2528 12.1856L10.2048 11.9915L10.1568 11.7973C9.94914 11.8486 9.80138 11.9874 9.70068 12.1562C9.60173 12.322 9.54193 12.5259 9.50643 12.7366C9.4353 13.1585 9.45358 13.6584 9.50186 14.0707L9.7005 14.0474ZM9.59675 17.4495L9.39859 17.4765C9.49609 18.1916 9.82952 18.9119 10.3273 19.456C10.8259 20.0009 11.5006 20.3799 12.2781 20.3799V20.1799V19.9799C11.638 19.9799 11.064 19.6687 10.6224 19.186C10.1799 18.7023 9.88151 18.0575 9.79492 17.4224L9.59675 17.4495ZM12.2781 20.1799V20.3799C13.0562 20.3799 13.7315 20.001 14.2306 19.456C14.7289 18.9119 15.0626 18.1915 15.1602 17.4762L14.962 17.4492L14.7638 17.4221C14.6772 18.0573 14.3786 18.7022 13.9356 19.1859C13.4935 19.6686 12.919 19.9799 12.2781 19.9799V20.1799ZM14.962 17.4492L15.0328 17.6362C15.9578 17.2859 16.2528 16.1602 15.7129 15.402L15.55 15.5181L15.3871 15.6341C15.7809 16.1871 15.5614 17.0083 14.8912 17.2621L14.962 17.4492ZM15.55 15.5181L15.7129 15.402C15.4949 15.0962 15.0705 15.023 14.7622 15.244L14.8787 15.4065L14.9952 15.5691C15.1227 15.4777 15.297 15.5076 15.3871 15.6341L15.55 15.5181ZM14.8787 15.4065L14.7622 15.244C14.4561 15.4635 14.3868 15.8897 14.6042 16.1957L14.7673 16.0799L14.9303 15.964C14.8396 15.8364 14.8693 15.6594 14.9953 15.5691L14.8787 15.4065ZM14.7673 16.0799L14.6053 16.1972C14.6201 16.2176 14.6276 16.2536 14.6138 16.2928C14.6012 16.3285 14.575 16.3547 14.5355 16.3642L14.5819 16.5587L14.6283 16.7532C14.9985 16.6649 15.1248 16.2324 14.9292 15.9625L14.7673 16.0799ZM14.5819 16.5587L14.5355 16.3642C14.1442 16.4576 13.8543 16.784 13.8227 17.1823L14.0221 17.1981L14.2215 17.2139C14.2387 16.9958 14.3984 16.8081 14.6283 16.7532L14.5819 16.5587ZM14.0221 17.1981L13.8227 17.1824C13.7896 17.6042 13.5946 18.0705 13.3023 18.4299C13.0083 18.7914 12.642 19.0147 12.2781 19.0147V19.2147V19.4147C12.8072 19.4147 13.2763 19.0959 13.6126 18.6823C13.9508 18.2665 14.1813 17.7246 14.2215 17.2138L14.0221 17.1981ZM12.2781 19.2147V19.0147C11.9061 19.0147 11.541 18.7946 11.2509 18.4374C10.9621 18.0817 10.7703 17.6157 10.7367 17.1829L10.5373 17.1984L10.3379 17.2139C10.3782 17.7329 10.6038 18.275 10.9404 18.6895C11.2757 19.1025 11.7441 19.4147 12.2781 19.4147V19.2147ZM10.5373 17.1984L10.7367 17.1826C10.7051 16.7839 10.4151 16.4575 10.0225 16.3641L9.97623 16.5587L9.92996 16.7533C10.1611 16.8082 10.3206 16.9959 10.3379 17.2142L10.5373 17.1984ZM9.97623 16.5587L10.0228 16.3642C9.9456 16.3457 9.91191 16.2488 9.96068 16.1867L9.8034 16.0632L9.64611 15.9397C9.42639 16.2194 9.5545 16.6633 9.92961 16.7532L9.97623 16.5587ZM9.8034 16.0632L9.96033 16.1872C10.1941 15.8913 10.1436 15.4622 9.84872 15.2284L9.72449 15.3852L9.60027 15.5419C9.72239 15.6387 9.74333 15.8166 9.64646 15.9392L9.8034 16.0632ZM9.72449 15.3852L9.84887 15.2285C9.55301 14.9936 9.12455 15.0462 8.89243 15.3405L9.04946 15.4643L9.20649 15.5882C9.30249 15.4665 9.47893 15.4456 9.60012 15.5418L9.72449 15.3852ZM9.04946 15.4643L8.89234 15.3406C8.28357 16.1135 8.58704 17.2809 9.52592 17.6365L9.59675 17.4495L9.66759 17.2624C8.9866 17.0045 8.76157 16.1531 9.20657 15.5881L9.04946 15.4643ZM42.0218 25.3322H42.2218V6.41092H42.0218H41.8218V25.3322H42.0218ZM42.0218 6.41092H42.2218C42.2218 5.6772 41.6277 5.07948 40.8946 5.07948V5.27948V5.47948C41.4053 5.47948 41.8218 5.89664 41.8218 6.41092H42.0218ZM40.8946 5.27948V5.07948H16.8982V5.27948V5.47948H40.8946V5.27948ZM16.8982 5.27948V5.07948C16.1653 5.07948 15.5704 5.67705 15.5704 6.41092H15.7704H15.9704C15.9704 5.89678 16.3874 5.47948 16.8982 5.47948V5.27948ZM15.7704 6.41092H15.5704V9.36536H15.7704H15.9704V6.41092H15.7704ZM15.7704 9.36536H15.5704C15.5704 9.7416 15.8747 10.048 16.2513 10.048V9.84798V9.64798C16.0969 9.64798 15.9704 9.52201 15.9704 9.36536H15.7704ZM16.2513 9.84798V10.048C16.628 10.048 16.9323 9.7416 16.9323 9.36536H16.7323H16.5323C16.5323 9.52201 16.4057 9.64798 16.2513 9.64798V9.84798ZM16.7323 9.36536H16.9323V6.41092H16.7323H16.5323V9.36536H16.7323ZM16.7323 6.41092H16.9323C16.9323 6.42946 16.9174 6.44471 16.8982 6.44471V6.24471V6.04471C16.6961 6.04471 16.5323 6.20889 16.5323 6.41092H16.7323ZM16.8982 6.24471V6.44471H40.8946V6.24471V6.04471H16.8982V6.24471ZM40.8946 6.24471V6.44471C40.8745 6.44471 40.86 6.42847 40.86 6.41092H41.06H41.26C41.26 6.20988 41.0977 6.04471 40.8946 6.04471V6.24471ZM41.06 6.41092H40.86V25.3322H41.06H41.26V6.41092H41.06ZM41.06 25.3322H40.86C40.86 25.3146 40.8745 25.2984 40.8946 25.2984V25.4984V25.6984C41.0977 25.6984 41.26 25.5332 41.26 25.3322H41.06ZM40.8946 25.4984V25.2984H25.4157V25.4984V25.6984H40.8946V25.4984ZM25.4157 25.4984V25.2984C25.0391 25.2984 24.7348 25.6048 24.7348 25.981H24.9348H25.1348C25.1348 25.8243 25.2613 25.6984 25.4157 25.6984V25.4984ZM24.9348 25.981H24.7348C24.7348 26.3572 25.0391 26.6636 25.4157 26.6636V26.4636V26.2636C25.2613 26.2636 25.1348 26.1376 25.1348 25.981H24.9348ZM25.4157 26.4636V26.6636H40.8946V26.4636V26.2636H25.4157V26.4636ZM40.8946 26.4636V26.6636C41.6277 26.6636 42.2218 26.0659 42.2218 25.3322H42.0218H41.8218C41.8218 25.8464 41.4053 26.2636 40.8946 26.2636V26.4636ZM18.1882 9.91176H17.9882C17.9882 10.288 18.2924 10.5944 18.6691 10.5944V10.3944V10.1944C18.5147 10.1944 18.3882 10.0684 18.3882 9.91176H18.1882ZM18.6691 10.3944V10.5944H39.1388V10.3944V10.1944H18.6691V10.3944ZM39.1388 10.3944V10.5944C39.5154 10.5944 39.8197 10.288 39.8197 9.91176H39.6197H39.4197C39.4197 10.0684 39.2932 10.1944 39.1388 10.1944V10.3944ZM39.6197 9.91176H39.8197C39.8197 9.53553 39.5154 9.22915 39.1388 9.22915V9.42915V9.62915C39.2932 9.62915 39.4197 9.75511 39.4197 9.91176H39.6197ZM39.1388 9.42915V9.22915H18.6691V9.42915V9.62915H39.1388V9.42915ZM18.6691 9.42915V9.22915C18.2924 9.22915 17.9882 9.53553 17.9882 9.91176H18.1882H18.3882C18.3882 9.75511 18.5147 9.62915 18.6691 9.62915V9.42915ZM38.346 8.37343V8.57343C38.7227 8.57343 39.0269 8.26705 39.0269 7.89082H38.8269H38.6269C38.6269 8.04747 38.5004 8.17343 38.346 8.17343V8.37343ZM38.8269 7.89082H39.0269C39.0269 7.51458 38.7227 7.2082 38.346 7.2082V7.4082V7.6082C38.5004 7.6082 38.6269 7.73416 38.6269 7.89082H38.8269ZM38.346 7.4082V7.2082H36.299V7.4082V7.6082H38.346V7.4082ZM36.299 7.4082V7.2082C35.9224 7.2082 35.6181 7.51458 35.6181 7.89082H35.8181H36.0181C36.0181 7.73416 36.1446 7.6082 36.299 7.6082V7.4082ZM35.8181 7.89082H35.6181C35.6181 8.26705 35.9224 8.57343 36.299 8.57343V8.37343V8.17343C36.1446 8.17343 36.0181 8.04747 36.0181 7.89082H35.8181ZM36.299 8.37343V8.57343H38.346V8.37343V8.17343H36.299V8.37343ZM20.4596 7.82715H20.6596C20.6596 7.36086 20.2828 6.98166 19.8164 6.98166V7.18166V7.38166C20.0605 7.38166 20.2596 7.58043 20.2596 7.82715H20.4596ZM19.8164 7.18166V6.98166C19.3501 6.98166 18.9732 7.36086 18.9732 7.82715H19.1732H19.3732C19.3732 7.58044 19.5723 7.38166 19.8164 7.38166V7.18166ZM19.1732 7.82715H18.9732C18.9732 8.29341 19.3501 8.6726 19.8164 8.6726V8.4726V8.2726C19.5723 8.2726 19.3732 8.07381 19.3732 7.82715H19.1732ZM19.8164 8.4726V8.6726C20.2828 8.6726 20.6596 8.2934 20.6596 7.82715H20.4596H20.2596C20.2596 8.07382 20.0605 8.2726 19.8164 8.2726V8.4726ZM22.7553 7.82715H22.9553C22.9553 7.36088 22.5786 6.98166 22.1121 6.98166V7.18166V7.38166C22.3563 7.38166 22.5553 7.58042 22.5553 7.82715H22.7553ZM22.1121 7.18166V6.98166C21.6458 6.98166 21.269 7.36086 21.269 7.82715H21.469H21.669C21.669 7.58043 21.8681 7.38166 22.1121 7.38166V7.18166ZM21.469 7.82715H21.269C21.269 8.2934 21.6458 8.6726 22.1121 8.6726V8.4726V8.2726C21.868 8.2726 21.669 8.07382 21.669 7.82715H21.469ZM22.1121 8.4726V8.6726C22.5786 8.6726 22.9553 8.29339 22.9553 7.82715H22.7553H22.5553C22.5553 8.07383 22.3563 8.2726 22.1121 8.2726V8.4726ZM9.79087 9.58028L9.96499 9.67868L10.9425 7.949L10.7684 7.8506L10.5942 7.7522L9.61675 9.48188L9.79087 9.58028ZM10.7684 7.8506V8.0506H13.1091V7.8506V7.6506H10.7684V7.8506ZM13.1091 7.8506V8.0506C13.8565 8.0506 14.4625 7.44098 14.4625 6.69308H14.2625H14.0625C14.0625 7.22146 13.6341 7.6506 13.1091 7.6506V7.8506ZM14.2625 6.69308H14.4625V2.03252H14.2625H14.0625V6.69308H14.2625ZM14.2625 2.03252H14.4625C14.4625 1.28462 13.8565 0.675 13.1091 0.675V0.875V1.075C13.6341 1.075 14.0625 1.50413 14.0625 2.03252H14.2625ZM13.1091 0.875V0.675H5.27412V0.875V1.075H13.1091V0.875ZM5.27412 0.875V0.675C4.52675 0.675 3.92067 1.28462 3.92067 2.03252H4.12067H4.32067C4.32067 1.50413 4.74906 1.075 5.27412 1.075V0.875ZM4.12067 2.03252H3.92067V6.69308H4.12067H4.32067V2.03252H4.12067ZM4.12067 6.69308H3.92067C3.92067 7.44098 4.52675 8.0506 5.27412 8.0506V7.8506V7.6506C4.74906 7.6506 4.32067 7.22146 4.32067 6.69308H4.12067ZM5.27412 7.8506V8.0506H7.90665V7.8506V7.6506H5.27412V7.8506ZM7.90665 7.8506L7.73557 7.95419L8.79071 9.69675L8.96179 9.59316L9.13287 9.48957L8.07773 7.74701L7.90665 7.8506ZM8.96179 9.59316L8.79056 9.6965C9.05883 10.141 9.70857 10.1338 9.96512 9.67845L9.79087 9.58028L9.61663 9.48211C9.51093 9.66971 9.24351 9.67289 9.13302 9.48982L8.96179 9.59316ZM8.58607 7.11411L8.75717 7.01054C8.63179 6.80343 8.40771 6.6838 8.17466 6.6838V6.8838V7.0838C8.27241 7.0838 8.36445 7.13421 8.41498 7.21768L8.58607 7.11411ZM8.17466 6.8838V6.6838C8.1083 6.6838 5.34019 6.68533 5.27401 6.68537L5.27412 6.88537L5.27423 7.08537C5.34056 7.08533 8.10844 7.0838 8.17466 7.0838V6.8838ZM5.27412 6.88537V6.68537C5.27657 6.68537 5.27855 6.68592 5.27973 6.68643C5.28027 6.68666 5.2806 6.68687 5.28076 6.68698C5.28092 6.68709 5.28099 6.68715 5.281 6.68717C5.28102 6.68719 5.28107 6.68723 5.28115 6.68735C5.28123 6.68748 5.2814 6.68775 5.28159 6.6882C5.28202 6.6892 5.28251 6.69093 5.28251 6.69308H5.08251H4.88251C4.88251 6.90719 5.05905 7.08537 5.27412 7.08537V6.88537ZM5.08251 6.69308H5.28251V2.03252H5.08251H4.88251V6.69308H5.08251ZM5.08251 2.03252H5.28251C5.28251 2.03467 5.28202 2.0364 5.28159 2.0374C5.2814 2.03785 5.28123 2.03812 5.28115 2.03824C5.28107 2.03836 5.28102 2.03841 5.281 2.03843C5.28099 2.03845 5.28092 2.03851 5.28076 2.03862C5.2806 2.03873 5.28027 2.03893 5.27973 2.03917C5.27855 2.03968 5.27657 2.04023 5.27412 2.04023V1.84023V1.64023C5.05905 1.64023 4.88251 1.81841 4.88251 2.03252H5.08251ZM5.27412 1.84023V2.04023H13.1091V1.84023V1.64023H5.27412V1.84023ZM13.1091 1.84023V2.04023C13.1066 2.04023 13.1047 2.03968 13.1035 2.03917C13.1029 2.03893 13.1026 2.03873 13.1024 2.03862C13.1023 2.03851 13.1022 2.03844 13.1022 2.03843C13.1022 2.03841 13.1021 2.03836 13.1021 2.03824C13.102 2.03812 13.1018 2.03785 13.1016 2.0374C13.1012 2.0364 13.1007 2.03467 13.1007 2.03252H13.3007H13.5007C13.5007 1.81841 13.3242 1.64023 13.1091 1.64023V1.84023ZM13.3007 2.03252H13.1007V6.69308H13.3007H13.5007V2.03252H13.3007ZM13.3007 6.69308H13.1007C13.1007 6.69093 13.1012 6.6892 13.1016 6.6882C13.1018 6.68775 13.102 6.68748 13.1021 6.68735C13.1021 6.68723 13.1022 6.68719 13.1022 6.68717C13.1022 6.68715 13.1023 6.68709 13.1024 6.68698C13.1026 6.68687 13.1029 6.68666 13.1035 6.68643C13.1047 6.68592 13.1066 6.68537 13.1091 6.68537V6.88537V7.08537C13.3242 7.08537 13.5007 6.90719 13.5007 6.69308H13.3007ZM13.1091 6.88537V6.68537H10.5454V6.88537V7.08537H13.1091V6.88537ZM10.5454 6.88537L10.5702 6.6869C10.3007 6.65333 10.0347 6.78421 9.89707 7.02898L10.0714 7.12699L10.2457 7.225C10.3035 7.12226 10.412 7.07028 10.5207 7.08383L10.5454 6.88537ZM10.0714 7.12699L9.89729 7.02859L9.18405 8.29074L9.35817 8.38914L9.53229 8.48753L10.2455 7.22539L10.0714 7.12699ZM9.35817 8.38914L9.52925 8.28554L8.75715 7.01051L8.58607 7.11411L8.41499 7.2177L9.18709 8.49274L9.35817 8.38914ZM8.26671 3.68145V3.88145H10.2148V3.68145V3.48145H8.26671V3.68145ZM10.2148 3.68145V3.88145C10.5914 3.88145 10.8957 3.57507 10.8957 3.19884H10.6957H10.4957C10.4957 3.35549 10.3692 3.48145 10.2148 3.48145V3.68145ZM10.6957 3.19884H10.8957C10.8957 2.8226 10.5914 2.51622 10.2148 2.51622V2.71622V2.91622C10.3692 2.91622 10.4957 3.04219 10.4957 3.19884H10.6957ZM10.2148 2.71622V2.51622H8.26671V2.71622V2.91622H10.2148V2.71622ZM8.26671 2.71622V2.51622C7.89009 2.51622 7.58579 2.8226 7.58579 3.19884H7.78579H7.98579C7.98579 3.04219 8.11233 2.91622 8.26671 2.91622V2.71622ZM7.78579 3.19884H7.58579C7.58579 3.57507 7.89009 3.88145 8.26671 3.88145V3.68145V3.48145C8.11233 3.48145 7.98579 3.35549 7.98579 3.19884H7.78579ZM12.1761 5.11264H12.3761C12.3761 4.73641 12.0718 4.43003 11.6951 4.43003V4.63003V4.83003C11.8495 4.83003 11.9761 4.95599 11.9761 5.11264H12.1761ZM11.6951 4.63003V4.43003H6.68807V4.63003V4.83003H11.6951V4.63003ZM6.68807 4.63003V4.43003C6.31144 4.43003 6.00715 4.73641 6.00715 5.11264H6.20715H6.40715C6.40715 4.95599 6.53368 4.83003 6.68807 4.83003V4.63003ZM6.20715 5.11264H6.00715C6.00715 5.48888 6.31144 5.79526 6.68807 5.79526V5.59526V5.39526C6.53368 5.39526 6.40715 5.26929 6.40715 5.11264H6.20715ZM6.68807 5.59526V5.79526H11.6951V5.59526V5.39526H6.68807V5.59526ZM11.6951 5.59526V5.79526C12.0718 5.79526 12.3761 5.48888 12.3761 5.11264H12.1761H11.9761C11.9761 5.26929 11.8495 5.39526 11.6951 5.39526V5.59526ZM24.6549 29.8545V29.6545C22.7028 29.6545 21.116 31.2475 21.116 33.2048H21.316H21.516C21.516 31.4671 22.925 30.0545 24.6549 30.0545V29.8545ZM21.316 33.2048H21.116C21.116 35.1621 22.7027 36.7555 24.6549 36.7555V36.5555V36.3555C22.925 36.3555 21.516 34.9425 21.516 33.2048H21.316ZM24.6549 36.5555V36.7555C26.607 36.7555 28.1938 35.1621 28.1938 33.2048H27.9938H27.7938C27.7938 34.9425 26.3848 36.3555 24.6549 36.3555V36.5555ZM27.9938 33.2048H28.1938C28.1938 31.2475 26.607 29.6545 24.6549 29.6545V29.8545V30.0545C26.3848 30.0545 27.7938 31.4671 27.7938 33.2048H27.9938ZM24.6549 35.5902V35.3902C23.4554 35.3902 22.4778 34.4103 22.4778 33.2048H22.2778H22.0778C22.0778 34.6298 23.2331 35.7902 24.6549 35.7902V35.5902ZM22.2778 33.2048H22.4778C22.4778 31.9994 23.4553 31.0197 24.6549 31.0197V30.8197V30.6197C23.2332 30.6197 22.0778 31.7797 22.0778 33.2048H22.2778ZM24.6549 30.8197V31.0197C25.8544 31.0197 26.8319 31.9994 26.8319 33.2048H27.0319H27.2319C27.2319 31.7797 26.0766 30.6197 24.6549 30.6197V30.8197ZM27.0319 33.2048H26.8319C26.8319 34.4103 25.8544 35.3902 24.6549 35.3902V35.5902V35.7902C26.0766 35.7902 27.2319 34.6298 27.2319 33.2048H27.0319ZM29.1491 42.875V43.075C29.5257 43.075 29.83 42.7686 29.83 42.3924H29.63H29.43C29.43 42.549 29.3035 42.675 29.1491 42.675V42.875ZM29.63 42.3924H29.83V41.2019H29.63H29.43V42.3924H29.63ZM29.63 41.2019H29.83C29.83 38.817 27.897 36.8758 25.5184 36.8758V37.0758V37.2758C27.6747 37.2758 29.43 39.0365 29.43 41.2019H29.63ZM25.5184 37.0758V36.8758H23.7914V37.0758V37.2758H25.5184V37.0758ZM23.7914 37.0758V36.8758C21.4128 36.8758 19.4798 38.817 19.4798 41.2019H19.6798H19.8798C19.8798 39.0365 21.635 37.2758 23.7914 37.2758V37.0758ZM19.6798 41.2019H19.4798V42.3924H19.6798H19.8798V41.2019H19.6798ZM19.6798 42.3924H19.4798C19.4798 42.7686 19.784 43.075 20.1607 43.075V42.875V42.675C20.0063 42.675 19.8798 42.549 19.8798 42.3924H19.6798ZM20.1607 42.875V43.075C20.5373 43.075 20.8416 42.7686 20.8416 42.3924H20.6416H20.4416C20.4416 42.549 20.3151 42.675 20.1607 42.675V42.875ZM20.6416 42.3924H20.8416V41.2019H20.6416H20.4416V42.3924H20.6416ZM20.6416 41.2019H20.8416C20.8416 39.5688 22.1654 38.241 23.7914 38.241V38.041V37.841C21.9432 37.841 20.4416 39.3492 20.4416 41.2019H20.6416ZM23.7914 38.041V38.241H25.5184V38.041V37.841H23.7914V38.041ZM25.5184 38.041V38.241C27.1443 38.241 28.4682 39.5688 28.4682 41.2019H28.6682H28.8682C28.8682 39.3492 27.3666 37.841 25.5184 37.841V38.041ZM28.6682 41.2019H28.4682V42.3924H28.6682H28.8682V41.2019H28.6682ZM28.6682 42.3924H28.4682C28.4682 42.7686 28.7725 43.075 29.1491 43.075V42.875V42.675C28.9947 42.675 28.8682 42.549 28.8682 42.3924H28.6682ZM11.7302 36.5555V36.7555C13.6823 36.7555 15.2691 35.1621 15.2691 33.2048H15.0691H14.8691C14.8691 34.9425 13.4601 36.3555 11.7302 36.3555V36.5555ZM15.0691 33.2048H15.2691C15.2691 31.2475 13.6823 29.6545 11.7302 29.6545V29.8545V30.0545C13.4601 30.0545 14.8691 31.4671 14.8691 33.2048H15.0691ZM11.7302 29.8545V29.6545C9.77809 29.6545 8.19132 31.2475 8.19132 33.2048H8.39132H8.59132C8.59132 31.4671 10.0003 30.0545 11.7302 30.0545V29.8545ZM8.39132 33.2048H8.19132C8.19132 35.1621 9.77806 36.7555 11.7302 36.7555V36.5555V36.3555C10.0003 36.3555 8.59132 34.9425 8.59132 33.2048H8.39132ZM11.7302 30.8197V31.0197C12.9297 31.0197 13.9072 31.9994 13.9072 33.2048H14.1072H14.3072C14.3072 31.7797 13.1519 30.6197 11.7302 30.6197V30.8197ZM14.1072 33.2048H13.9072C13.9072 34.4103 12.9297 35.3902 11.7302 35.3902V35.5902V35.7902C13.1519 35.7902 14.3072 34.6298 14.3072 33.2048H14.1072ZM11.7302 35.5902V35.3902C10.5307 35.3902 9.55316 34.4103 9.55316 33.2048H9.35316H9.15316C9.15316 34.6298 10.3085 35.7902 11.7302 35.7902V35.5902ZM9.35316 33.2048H9.55316C9.55316 31.9994 10.5307 31.0197 11.7302 31.0197V30.8197V30.6197C10.3085 30.6197 9.15316 31.7797 9.15316 33.2048H9.35316ZM6.7557 41.2019H6.5557V42.3924H6.7557H6.9557V41.2019H6.7557ZM6.7557 42.3924H6.5557C6.5557 42.7686 6.85999 43.075 7.23662 43.075V42.875V42.675C7.08223 42.675 6.9557 42.549 6.9557 42.3924H6.7557ZM7.23662 42.875V43.075C7.61325 43.075 7.91754 42.7686 7.91754 42.3924H7.71754H7.51754C7.51754 42.549 7.391 42.675 7.23662 42.675V42.875ZM7.71754 42.3924H7.91754V41.2019H7.71754H7.51754V42.3924H7.71754ZM7.71754 41.2019H7.91754C7.91754 39.5688 9.24139 38.241 10.8667 38.241V38.041V37.841C9.01908 37.841 7.51754 39.3492 7.51754 41.2019H7.71754ZM10.8667 38.041V38.241H12.5937V38.041V37.841H10.8667V38.041ZM12.5937 38.041V38.241C14.2197 38.241 15.5435 39.5688 15.5435 41.2019H15.7435H15.9435C15.9435 39.3492 14.4419 37.841 12.5937 37.841V38.041ZM15.7435 41.2019H15.5435V42.3924H15.7435H15.9435V41.2019H15.7435ZM15.7435 42.3924H15.5435C15.5435 42.7686 15.8478 43.075 16.2244 43.075V42.875V42.675C16.07 42.675 15.9435 42.549 15.9435 42.3924H15.7435ZM16.2244 42.875V43.075C16.601 43.075 16.9053 42.7686 16.9053 42.3924H16.7053H16.5053C16.5053 42.549 16.3788 42.675 16.2244 42.675V42.875ZM16.7053 42.3924H16.9053V41.2019H16.7053H16.5053V42.3924H16.7053ZM16.7053 41.2019H16.9053C16.9053 38.817 14.9723 36.8758 12.5937 36.8758V37.0758V37.2758C14.75 37.2758 16.5053 39.0365 16.5053 41.2019H16.7053ZM12.5937 37.0758V36.8758H10.8667V37.0758V37.2758H12.5937V37.0758ZM10.8667 37.0758V36.8758C8.4887 36.8758 6.5557 38.817 6.5557 41.2019H6.7557H6.9557C6.9557 39.0365 8.711 37.2758 10.8667 37.2758V37.0758ZM37.5796 29.8545V29.6545C35.6275 29.6545 34.0407 31.2475 34.0407 33.2048H34.2407H34.4407C34.4407 31.4671 35.8496 30.0545 37.5796 30.0545V29.8545ZM34.2407 33.2048H34.0407C34.0407 35.1621 35.6274 36.7555 37.5796 36.7555V36.5555V36.3555C35.8497 36.3555 34.4407 34.9425 34.4407 33.2048H34.2407ZM37.5796 36.5555V36.7555C39.5317 36.7555 41.1184 35.1621 41.1184 33.2048H40.9184H40.7184C40.7184 34.9425 39.3095 36.3555 37.5796 36.3555V36.5555ZM40.9184 33.2048H41.1184C41.1184 31.2475 39.5317 29.6545 37.5796 29.6545V29.8545V30.0545C39.3095 30.0545 40.7184 31.4671 40.7184 33.2048H40.9184ZM37.5796 35.5902V35.3902C36.3801 35.3902 35.4025 34.4103 35.4025 33.2048H35.2025H35.0025C35.0025 34.6298 36.1578 35.7902 37.5796 35.7902V35.5902ZM35.2025 33.2048H35.4025C35.4025 31.9994 36.38 31.0197 37.5796 31.0197V30.8197V30.6197C36.1579 30.6197 35.0025 31.7797 35.0025 33.2048H35.2025ZM37.5796 30.8197V31.0197C38.7791 31.0197 39.7566 31.9994 39.7566 33.2048H39.9566H40.1566C40.1566 31.7797 39.0013 30.6197 37.5796 30.6197V30.8197ZM39.9566 33.2048H39.7566C39.7566 34.4103 38.7791 35.3902 37.5796 35.3902V35.5902V35.7902C39.0013 35.7902 40.1566 34.6298 40.1566 33.2048H39.9566ZM38.4431 37.0758V36.8758H36.716V37.0758V37.2758H38.4431V37.0758ZM36.716 37.0758V36.8758C34.3375 36.8758 32.4044 38.817 32.4044 41.2019H32.6044H32.8044C32.8044 39.0365 34.5597 37.2758 36.716 37.2758V37.0758ZM32.6044 41.2019H32.4044V42.3924H32.6044H32.8044V41.2019H32.6044ZM32.6044 42.3924H32.4044C32.4044 42.7686 32.7087 43.075 33.0854 43.075V42.875V42.675C32.931 42.675 32.8044 42.549 32.8044 42.3924H32.6044ZM33.0854 42.875V43.075C33.462 43.075 33.7663 42.7686 33.7663 42.3924H33.5663H33.3663C33.3663 42.549 33.2397 42.675 33.0854 42.675V42.875ZM33.5663 42.3924H33.7663V41.2019H33.5663H33.3663V42.3924H33.5663ZM33.5663 41.2019H33.7663C33.7663 39.5688 35.0901 38.241 36.716 38.241V38.041V37.841C34.8678 37.841 33.3663 39.3492 33.3663 41.2019H33.5663ZM36.716 38.041V38.241H38.4431V38.041V37.841H36.716V38.041ZM38.4431 38.041V38.241C40.069 38.241 41.3928 39.5688 41.3928 41.2019H41.5928H41.7929C41.7929 39.3492 40.2913 37.841 38.4431 37.841V38.041ZM41.5928 41.2019H41.3928V42.3924H41.5928H41.7929V41.2019H41.5928ZM41.5928 42.3924H41.3928C41.3928 42.7686 41.6971 43.075 42.0738 43.075V42.875V42.675C41.9194 42.675 41.7929 42.549 41.7929 42.3924H41.5928ZM42.0738 42.875V43.075C42.4504 43.075 42.7547 42.7686 42.7547 42.3924H42.5547H42.3547C42.3547 42.549 42.2282 42.675 42.0738 42.675V42.875ZM42.5547 42.3924H42.7547V41.2019H42.5547H42.3547V42.3924H42.5547ZM42.5547 41.2019H42.7547C42.7547 38.817 40.8217 36.8758 38.4431 36.8758V37.0758V37.2758C40.5994 37.2758 42.3547 39.0365 42.3547 41.2019H42.5547ZM35.5294 15.5058H35.7294C35.7294 14.4856 34.8844 13.6484 33.6229 13.077C32.3479 12.4997 30.5806 12.1585 28.5799 12.1585V12.3585V12.5585C30.541 12.5585 32.2485 12.8937 33.4579 13.4414C34.6806 13.9952 35.3294 14.7317 35.3294 15.5058H35.5294ZM28.5799 12.3585V12.1585C26.5794 12.1585 24.8123 12.4997 23.5374 13.077C22.276 13.6484 21.431 14.4856 21.431 15.5058H21.631H21.831C21.831 14.7317 22.4798 13.9952 23.7024 13.4414C24.9117 12.8937 26.619 12.5585 28.5799 12.5585V12.3585ZM21.631 15.5058H21.431C21.431 16.5261 22.276 17.3633 23.5374 17.9346C24.8123 18.512 26.5794 18.8532 28.5799 18.8532V18.6532V18.4532C26.619 18.4532 24.9117 18.1179 23.7024 17.5702C22.4798 17.0164 21.831 16.28 21.831 15.5058H21.631ZM28.5799 18.6532V18.8532C30.5806 18.8532 32.3479 18.512 33.6229 17.9346C34.8844 17.3633 35.7294 16.5261 35.7294 15.5058H35.5294H35.3294C35.3294 16.28 34.6806 17.0164 33.4579 17.5702C32.2485 18.1179 30.541 18.4532 28.5799 18.4532V18.6532ZM28.5799 17.6879V17.4879C26.887 17.4879 25.4155 17.2031 24.3741 16.7968C23.8525 16.5933 23.4476 16.3629 23.177 16.1297C22.9021 15.893 22.7928 15.6783 22.7928 15.5058H22.5928H22.3928C22.3928 15.8483 22.6036 16.1639 22.9159 16.4328C23.2324 16.7054 23.6818 16.9561 24.2287 17.1694C25.3241 17.5967 26.8462 17.8879 28.5799 17.8879V17.6879ZM22.5928 15.5058H22.7928C22.7928 15.3333 22.9021 15.1186 23.177 14.8819C23.4476 14.6488 23.8525 14.4183 24.3741 14.2148C25.4155 13.8086 26.887 13.5237 28.5799 13.5237V13.3237V13.1237C26.8462 13.1237 25.3241 13.4149 24.2287 13.8422C23.6818 14.0555 23.2324 14.3062 22.9159 14.5788C22.6036 14.8478 22.3928 15.1634 22.3928 15.5058H22.5928ZM28.5799 13.3237V13.5237C30.273 13.5237 31.7447 13.8086 32.7862 14.2148C33.3078 14.4183 33.7127 14.6488 33.9834 14.8819C34.2583 15.1186 34.3676 15.3333 34.3676 15.5058H34.5676H34.7676C34.7676 15.1634 34.5568 14.8478 34.2444 14.5788C33.9279 14.3062 33.4785 14.0555 32.9316 13.8422C31.8361 13.4149 30.3139 13.1237 28.5799 13.1237V13.3237ZM34.5676 15.5058H34.3676C34.3676 15.6783 34.2583 15.893 33.9834 16.1297C33.7127 16.3629 33.3078 16.5933 32.7862 16.7968C31.7447 17.2031 30.273 17.4879 28.5799 17.4879V17.6879V17.8879C30.3139 17.8879 31.8361 17.5967 32.9316 17.1694C33.4785 16.9561 33.9279 16.7054 34.2444 16.4328C34.5568 16.1639 34.7676 15.8483 34.7676 15.5058H34.5676ZM25.8002 20.4284V20.2284C25.4236 20.2284 25.1193 20.5348 25.1193 20.911H25.3193H25.5193C25.5193 20.7544 25.6458 20.6284 25.8002 20.6284V20.4284ZM25.3193 20.911H25.1193C25.1193 21.2873 25.4236 21.5936 25.8002 21.5936V21.3936V21.1936C25.6458 21.1936 25.5193 21.0677 25.5193 20.911H25.3193ZM25.8002 21.3936V21.5936H31.8436V21.3936V21.1936H25.8002V21.3936ZM31.8436 21.3936V21.5936C32.2202 21.5936 32.5245 21.2873 32.5245 20.911H32.3245H32.1245C32.1245 21.0677 31.998 21.1936 31.8436 21.1936V21.3936ZM32.3245 20.911H32.5245C32.5245 20.5348 32.2202 20.2284 31.8436 20.2284V20.4284V20.6284C31.998 20.6284 32.1245 20.7544 32.1245 20.911H32.3245ZM31.8436 20.4284V20.2284H25.8002V20.4284V20.6284H31.8436V20.4284Z" fill="url(#paint22_linear_6698_8228)" mask="url(#path-1-outside-1_6698_8228)"/>
<defs>
<linearGradient id="paint0_linear_6698_8228" x1="21.5547" y1="0.875" x2="21.5547" y2="50.1916" gradientUnits="userSpaceOnUse">
<stop stop-color="#F4853B"/>
<stop offset="1" stop-color="#3448F5"/>
</linearGradient>
<linearGradient id="paint1_linear_6698_8228" x1="21.5547" y1="0.875" x2="21.5547" y2="50.1916" gradientUnits="userSpaceOnUse">
<stop stop-color="#F4853B"/>
<stop offset="1" stop-color="#3448F5"/>
</linearGradient>
<linearGradient id="paint2_linear_6698_8228" x1="21.5547" y1="0.875" x2="21.5547" y2="50.1916" gradientUnits="userSpaceOnUse">
<stop stop-color="#F4853B"/>
<stop offset="1" stop-color="#3448F5"/>
</linearGradient>
<linearGradient id="paint3_linear_6698_8228" x1="21.5547" y1="0.875" x2="21.5547" y2="50.1916" gradientUnits="userSpaceOnUse">
<stop stop-color="#F4853B"/>
<stop offset="1" stop-color="#3448F5"/>
</linearGradient>
<linearGradient id="paint4_linear_6698_8228" x1="21.5547" y1="0.875" x2="21.5547" y2="50.1916" gradientUnits="userSpaceOnUse">
<stop stop-color="#F4853B"/>
<stop offset="1" stop-color="#3448F5"/>
</linearGradient>
<linearGradient id="paint5_linear_6698_8228" x1="21.5547" y1="0.875" x2="21.5547" y2="50.1916" gradientUnits="userSpaceOnUse">
<stop stop-color="#F4853B"/>
<stop offset="1" stop-color="#3448F5"/>
</linearGradient>
<linearGradient id="paint6_linear_6698_8228" x1="21.5547" y1="0.875" x2="21.5547" y2="50.1916" gradientUnits="userSpaceOnUse">
<stop stop-color="#F4853B"/>
<stop offset="1" stop-color="#3448F5"/>
</linearGradient>
<linearGradient id="paint7_linear_6698_8228" x1="21.5547" y1="0.875" x2="21.5547" y2="50.1916" gradientUnits="userSpaceOnUse">
<stop stop-color="#F4853B"/>
<stop offset="1" stop-color="#3448F5"/>
</linearGradient>
<linearGradient id="paint8_linear_6698_8228" x1="21.5547" y1="0.875" x2="21.5547" y2="50.1916" gradientUnits="userSpaceOnUse">
<stop stop-color="#F4853B"/>
<stop offset="1" stop-color="#3448F5"/>
</linearGradient>
<linearGradient id="paint9_linear_6698_8228" x1="21.5547" y1="0.875" x2="21.5547" y2="50.1916" gradientUnits="userSpaceOnUse">
<stop stop-color="#F4853B"/>
<stop offset="1" stop-color="#3448F5"/>
</linearGradient>
<linearGradient id="paint10_linear_6698_8228" x1="21.5547" y1="0.875" x2="21.5547" y2="50.1916" gradientUnits="userSpaceOnUse">
<stop stop-color="#F4853B"/>
<stop offset="1" stop-color="#3448F5"/>
</linearGradient>
<linearGradient id="paint11_linear_6698_8228" x1="21.5547" y1="0.875" x2="21.5547" y2="50.1916" gradientUnits="userSpaceOnUse">
<stop stop-color="#F4853B"/>
<stop offset="1" stop-color="#3448F5"/>
</linearGradient>
<linearGradient id="paint12_linear_6698_8228" x1="21.5547" y1="0.875" x2="21.5547" y2="50.1916" gradientUnits="userSpaceOnUse">
<stop stop-color="#F4853B"/>
<stop offset="1" stop-color="#3448F5"/>
</linearGradient>
<linearGradient id="paint13_linear_6698_8228" x1="21.5547" y1="0.875" x2="21.5547" y2="50.1916" gradientUnits="userSpaceOnUse">
<stop stop-color="#F4853B"/>
<stop offset="1" stop-color="#3448F5"/>
</linearGradient>
<linearGradient id="paint14_linear_6698_8228" x1="21.5547" y1="0.875" x2="21.5547" y2="50.1916" gradientUnits="userSpaceOnUse">
<stop stop-color="#F4853B"/>
<stop offset="1" stop-color="#3448F5"/>
</linearGradient>
<linearGradient id="paint15_linear_6698_8228" x1="21.5547" y1="0.875" x2="21.5547" y2="50.1916" gradientUnits="userSpaceOnUse">
<stop stop-color="#F4853B"/>
<stop offset="1" stop-color="#3448F5"/>
</linearGradient>
<linearGradient id="paint16_linear_6698_8228" x1="21.5547" y1="0.875" x2="21.5547" y2="50.1916" gradientUnits="userSpaceOnUse">
<stop stop-color="#F4853B"/>
<stop offset="1" stop-color="#3448F5"/>
</linearGradient>
<linearGradient id="paint17_linear_6698_8228" x1="21.5547" y1="0.875" x2="21.5547" y2="50.1916" gradientUnits="userSpaceOnUse">
<stop stop-color="#F4853B"/>
<stop offset="1" stop-color="#3448F5"/>
</linearGradient>
<linearGradient id="paint18_linear_6698_8228" x1="21.5547" y1="0.875" x2="21.5547" y2="50.1916" gradientUnits="userSpaceOnUse">
<stop stop-color="#F4853B"/>
<stop offset="1" stop-color="#3448F5"/>
</linearGradient>
<linearGradient id="paint19_linear_6698_8228" x1="21.5547" y1="0.875" x2="21.5547" y2="50.1916" gradientUnits="userSpaceOnUse">
<stop stop-color="#F4853B"/>
<stop offset="1" stop-color="#3448F5"/>
</linearGradient>
<linearGradient id="paint20_linear_6698_8228" x1="21.5547" y1="0.875" x2="21.5547" y2="50.1916" gradientUnits="userSpaceOnUse">
<stop stop-color="#F4853B"/>
<stop offset="1" stop-color="#3448F5"/>
</linearGradient>
<linearGradient id="paint21_linear_6698_8228" x1="21.5547" y1="0.875" x2="21.5547" y2="50.1916" gradientUnits="userSpaceOnUse">
<stop stop-color="#F4853B"/>
<stop offset="1" stop-color="#3448F5"/>
</linearGradient>
<linearGradient id="paint22_linear_6698_8228" x1="21.5547" y1="0.875" x2="21.5547" y2="50.1916" gradientUnits="userSpaceOnUse">
<stop stop-color="#F4853B"/>
<stop offset="1" stop-color="#3448F5"/>
</linearGradient>
</defs>
</svg>
