<svg width="48" height="48" viewBox="0 0 48 48" fill="none" xmlns="http://www.w3.org/2000/svg">
<path d="M15.1984 18.7996C15.1984 17.8448 15.5777 16.9292 16.2529 16.254C16.928 15.5789 17.8437 15.1996 18.7984 15.1996C19.7532 15.1996 20.6689 15.5789 21.344 16.254C22.0192 16.9292 22.3984 17.8448 22.3984 18.7996C22.3984 19.7544 22.0192 20.6701 21.344 21.3452C20.6689 22.0203 19.7532 22.3996 18.7984 22.3996C17.8437 22.3996 16.928 22.0203 16.2529 21.3452C15.5777 20.6701 15.1984 19.7544 15.1984 18.7996ZM18.7984 13.5996C17.4193 13.5996 16.0967 14.1475 15.1215 15.1227C14.1463 16.0978 13.5984 17.4205 13.5984 18.7996C13.5984 20.1787 14.1463 21.5014 15.1215 22.4766C16.0967 23.4518 17.4193 23.9996 18.7984 23.9996C20.1776 23.9996 21.5002 23.4518 22.4754 22.4766C23.4506 21.5014 23.9984 20.1787 23.9984 18.7996C23.9984 17.4205 23.4506 16.0978 22.4754 15.1227C21.5002 14.1475 20.1776 13.5996 18.7984 13.5996ZM23.9984 25.5996C24.6352 25.5996 25.2272 25.7852 25.7264 26.1052C25.2928 26.4422 24.9878 26.9177 24.8624 27.4524C24.6046 27.2872 24.3047 27.1994 23.9984 27.1996H13.5984C13.1741 27.1996 12.7671 27.3682 12.4671 27.6682C12.167 27.9683 11.9984 28.3753 11.9984 28.7996V28.9244L12.0096 29.0572C12.0965 29.8242 12.3701 30.5581 12.8064 31.1948C13.5856 32.3212 15.2192 33.5996 18.7984 33.5996C22.3776 33.5996 24.0112 32.3212 24.7904 31.1948L24.7984 31.182V31.1996C24.7984 31.814 25.0288 32.3756 25.4096 32.7996C25.2902 32.9332 25.1861 33.0797 25.0992 33.2364C23.8288 34.3532 21.848 35.1996 18.7984 35.1996C14.7776 35.1996 12.6112 33.7276 11.4896 32.1052C10.8991 31.2448 10.5308 30.2515 10.4176 29.214C10.4085 29.1209 10.4021 29.0275 10.3984 28.934V28.7996C10.3984 27.9509 10.7356 27.137 11.3357 26.5369C11.9358 25.9368 12.7497 25.5996 13.5984 25.5996H23.9984ZM28.7984 19.9996C28.7984 19.3631 29.0513 18.7526 29.5014 18.3026C29.9515 17.8525 30.5619 17.5996 31.1984 17.5996C31.835 17.5996 32.4454 17.8525 32.8955 18.3026C33.3456 18.7526 33.5984 19.3631 33.5984 19.9996C33.5984 20.6361 33.3456 21.2466 32.8955 21.6967C32.4454 22.1468 31.835 22.3996 31.1984 22.3996C30.5619 22.3996 29.9515 22.1468 29.5014 21.6967C29.0513 21.2466 28.7984 20.6361 28.7984 19.9996ZM31.1984 15.9996C30.1376 15.9996 29.1202 16.421 28.37 17.1712C27.6199 17.9213 27.1984 18.9387 27.1984 19.9996C27.1984 21.0605 27.6199 22.0779 28.37 22.828C29.1202 23.5782 30.1376 23.9996 31.1984 23.9996C32.2593 23.9996 33.2767 23.5782 34.0269 22.828C34.777 22.0779 35.1984 21.0605 35.1984 19.9996C35.1984 18.9387 34.777 17.9213 34.0269 17.1712C33.2767 16.421 32.2593 15.9996 31.1984 15.9996ZM27.1984 27.1996C26.9863 27.1996 26.7828 27.2839 26.6327 27.4339C26.4827 27.584 26.3984 27.7874 26.3984 27.9996C26.3984 28.2118 26.4827 28.4153 26.6327 28.5653C26.7828 28.7153 26.9863 28.7996 27.1984 28.7996H36.7984C37.0106 28.7996 37.2141 28.7153 37.3641 28.5653C37.5142 28.4153 37.5984 28.2118 37.5984 27.9996C37.5984 27.7874 37.5142 27.584 37.3641 27.4339C37.2141 27.2839 37.0106 27.1996 36.7984 27.1996H27.1984ZM27.1984 30.3996C26.9863 30.3996 26.7828 30.4839 26.6327 30.6339C26.4827 30.784 26.3984 30.9874 26.3984 31.1996C26.3984 31.4118 26.4827 31.6153 26.6327 31.7653C26.7828 31.9153 26.9863 31.9996 27.1984 31.9996H36.7984C37.0106 31.9996 37.2141 31.9153 37.3641 31.7653C37.5142 31.6153 37.5984 31.4118 37.5984 31.1996C37.5984 30.9874 37.5142 30.784 37.3641 30.6339C37.2141 30.4839 37.0106 30.3996 36.7984 30.3996H27.1984ZM27.1984 33.5996C26.9863 33.5996 26.7828 33.6839 26.6327 33.8339C26.4827 33.984 26.3984 34.1874 26.3984 34.3996C26.3984 34.6118 26.4827 34.8153 26.6327 34.9653C26.7828 35.1153 26.9863 35.1996 27.1984 35.1996H36.7984C37.0106 35.1996 37.2141 35.1153 37.3641 34.9653C37.5142 34.8153 37.5984 34.6118 37.5984 34.3996C37.5984 34.1874 37.5142 33.984 37.3641 33.8339C37.2141 33.6839 37.0106 33.5996 36.7984 33.5996H27.1984Z" fill="black"/>
</svg>
