<svg width="48" height="48" viewBox="0 0 48 48" fill="none" xmlns="http://www.w3.org/2000/svg">
<path d="M13.3905 29.9598C14.8036 28.4214 16.2168 26.8831 17.6299 25.3448C18.1821 24.7437 17.2875 23.8444 16.733 24.4479C15.32 25.9863 13.9068 27.5245 12.4937 29.0629C11.9416 29.664 12.8362 30.5633 13.3905 29.9598Z" fill="black"/>
<path d="M19.2163 24.9199C20.8977 25.5102 22.5792 26.1005 24.2606 26.6907C24.5869 26.8052 24.9538 26.5637 25.0407 26.2478C25.1372 25.8971 24.9236 25.5822 24.5977 25.4677C22.9163 24.8775 21.2349 24.2872 19.5534 23.6969C19.2271 23.5823 18.8602 23.824 18.7733 24.1398C18.6769 24.4906 18.8904 24.8055 19.2163 24.9199Z" fill="black"/>
<path d="M27.2458 26.0427C29.5149 24.0683 31.7841 22.0938 34.0532 20.1194C34.5387 19.6969 35.0243 19.2744 35.5098 18.8519C35.7708 18.6248 35.7415 18.1867 35.5098 17.955C35.2529 17.698 34.8735 17.7283 34.613 17.955C32.3439 19.9295 30.0747 21.9039 27.8056 23.8783C27.32 24.3008 26.8345 24.7233 26.3489 25.1458C26.088 25.3729 26.1173 25.8111 26.3489 26.0427C26.6059 26.2997 26.9853 26.2694 27.2458 26.0427Z" fill="black"/>
<path d="M18.8058 23.8558C18.7777 24.7936 17.3832 24.7936 17.355 23.8558C17.3428 23.4482 17.6911 23.1421 18.0804 23.1305C18.488 23.1183 18.7941 23.4665 18.8058 23.8558C18.8303 24.6718 20.0986 24.6742 20.0741 23.8558C20.0409 22.748 19.1882 21.8954 18.0804 21.8622C16.9731 21.829 16.1185 22.7979 16.0868 23.8558C16.0536 24.9631 17.0225 25.8178 18.0804 25.8495C19.1877 25.8827 20.0424 24.9137 20.0741 23.8558C20.0986 23.0375 18.8302 23.0398 18.8058 23.8558Z" fill="black"/>
<path d="M12.7199 30.5472C12.6918 31.4851 11.2972 31.4851 11.2691 30.5472C11.2569 30.1396 11.6052 29.8336 11.9944 29.8219C12.4022 29.8097 12.7083 30.1579 12.7199 30.5472C12.7443 31.3632 14.0127 31.3655 13.9882 30.5472C13.955 29.4394 13.1023 28.5868 11.9945 28.5536C10.8872 28.5204 10.0325 29.4893 10.0008 30.5472C9.96767 31.6545 10.9365 32.5093 11.9945 32.541C13.1019 32.5741 13.9565 31.6051 13.9882 30.5472C14.0127 29.7288 12.7443 29.7312 12.7199 30.5472Z" fill="black"/>
<path d="M26.4622 26.4692C26.4341 27.4069 25.0394 27.4069 25.0114 26.4692C24.9992 26.0614 25.3474 25.7555 25.7367 25.7438C26.1444 25.7316 26.4504 26.0799 26.4622 26.4692C26.4866 27.2852 27.755 27.2875 27.7305 26.4692C27.6973 25.3613 26.8445 24.5087 25.7367 24.4754C24.6293 24.4423 23.7747 25.4112 23.743 26.4692C23.7099 27.5765 24.6788 28.4311 25.7367 28.4628C26.844 28.496 27.6988 27.5271 27.7305 26.4692C27.755 25.6508 26.4866 25.6532 26.4622 26.4692Z" fill="black"/>
<path d="M36.7277 17.4516C36.6996 18.3894 35.305 18.3894 35.277 17.4516C35.2648 17.0439 35.6131 16.7378 36.0024 16.7262C36.4101 16.714 36.716 17.0624 36.7277 17.4516C36.7521 18.2675 38.0205 18.27 37.996 17.4516C37.9628 16.3438 37.1102 15.4911 36.0024 15.4579C34.895 15.4247 34.0404 16.3937 34.0086 17.4516C33.9754 18.5589 34.9445 19.4136 36.0024 19.4453C37.1097 19.4784 37.9643 18.5094 37.996 17.4516C38.0206 16.6333 36.7521 16.6356 36.7277 17.4516Z" fill="black"/>
</svg>
