<svg width="48" height="48" viewBox="0 0 48 48" fill="none" xmlns="http://www.w3.org/2000/svg">
<path fill-rule="evenodd" clip-rule="evenodd" d="M30.6693 10.667C26.9873 10.667 24.0026 13.6517 24.0026 17.3337V23.3337C24.0026 23.5105 24.0728 23.68 24.1979 23.8051C24.3229 23.9301 24.4925 24.0003 24.6693 24.0003H30.6693C34.3513 24.0003 37.3359 21.0157 37.3359 17.3337C37.3359 13.6517 34.3513 10.667 30.6693 10.667ZM25.3359 17.3337C25.3359 16.2788 25.6487 15.2477 26.2348 14.3706C26.8208 13.4936 27.6538 12.81 28.6283 12.4063C29.6028 12.0026 30.6752 11.897 31.7098 12.1028C32.7443 12.3086 33.6946 12.8165 34.4405 13.5624C35.1864 14.3083 35.6943 15.2586 35.9001 16.2932C36.1059 17.3277 36.0003 18.4001 35.5966 19.3746C35.193 20.3492 34.5094 21.1821 33.6323 21.7682C32.7553 22.3542 31.7241 22.667 30.6693 22.667H25.3359V17.3337ZM12.6693 15.8523C12.6693 15.5683 12.9039 15.3337 13.1879 15.3337H17.3359C17.6193 15.3337 17.8546 15.5683 17.8546 15.8523C17.8546 17.403 18.1026 18.8937 18.5613 20.287C18.5913 20.3793 18.5948 20.4783 18.5715 20.5725C18.5481 20.6668 18.4989 20.7526 18.4293 20.8203L15.4793 23.7703L15.6993 24.2017C17.4699 27.683 20.3219 30.5217 23.7993 32.303L24.2313 32.5243L27.1819 29.5737C27.2489 29.5069 27.333 29.4599 27.425 29.4379C27.517 29.4159 27.6133 29.4197 27.7033 29.449L27.7099 29.451C29.1431 29.9218 30.6421 30.1613 32.1506 30.1603C32.4346 30.1603 32.6693 30.395 32.6693 30.679V34.815C32.6684 34.9523 32.6135 35.0837 32.5164 35.1808C32.4193 35.2779 32.2879 35.3328 32.1506 35.3337C21.3906 35.3337 12.6693 26.613 12.6693 15.8523ZM13.1879 14.0003C12.697 14.0012 12.2265 14.1966 11.8793 14.5437C11.5322 14.8909 11.3368 15.3614 11.3359 15.8523C11.3359 27.349 20.6539 36.667 32.1506 36.667C32.6415 36.6661 33.1121 36.4707 33.4592 36.1236C33.8063 35.7765 34.0017 35.3059 34.0026 34.815V30.679C34.0017 30.1881 33.8063 29.7175 33.4592 29.3704C33.1121 29.0233 32.6415 28.8279 32.1506 28.827C30.7855 28.828 29.429 28.6117 28.1319 28.1863C27.8063 28.0771 27.4567 28.0609 27.1223 28.1394C26.788 28.218 26.4822 28.3882 26.2393 28.631L23.9799 30.8903C21.0817 29.3045 18.6984 26.9216 17.1119 24.0237L19.3719 21.7637C19.6145 21.5232 19.7859 21.2203 19.8672 20.8886C19.9485 20.5568 19.9365 20.209 19.8326 19.8837L19.8313 19.879L19.8299 19.8743C19.4026 18.5765 19.1859 17.2187 19.1879 15.8523C19.1871 15.3614 18.9917 14.8909 18.6445 14.5437C18.2974 14.1966 17.8268 14.0012 17.3359 14.0003H13.1879ZM27.3359 16.667H30.0026V14.0003H31.3359V16.667H34.0026V18.0003H31.3359V20.667H30.0026V18.0003H27.3359V16.667Z" fill="black"/>
</svg>
