<svg width="48" height="48" viewBox="0 0 48 48" fill="none" xmlns="http://www.w3.org/2000/svg">
<path fill-rule="evenodd" clip-rule="evenodd" d="M13 24.334C13 18.254 17.92 13.334 24 13.334C30.08 13.334 35 18.254 35 24.334C35 26.6007 34.32 28.694 33.1467 30.4407C32.84 30.9073 32.96 31.5207 33.4267 31.8273C33.88 32.134 34.5067 32.014 34.8133 31.5607C36.2448 29.4229 37.0061 26.9067 37 24.334C37 17.1607 31.1733 11.334 24 11.334C16.8267 11.334 11 17.1607 11 24.334C11 27.0007 11.8133 29.494 13.1867 31.5607C13.3352 31.7817 13.5654 31.9346 13.8267 31.9859C14.088 32.0371 14.359 31.9825 14.58 31.834C14.801 31.6855 14.954 31.4552 15.0052 31.1939C15.0565 30.9326 15.0019 30.6617 14.8533 30.4407C13.6398 28.6358 12.9943 26.5089 13 24.334ZM24 18.0007C21.24 18.0007 19 20.2407 19 23.0007V25.6673C19 28.0807 20.72 30.1073 23 30.5607V33.254L20.6267 35.6273C20.4876 35.7674 20.3931 35.9455 20.355 36.1391C20.3168 36.3328 20.3367 36.5334 20.4123 36.7157C20.4878 36.8981 20.6155 37.0541 20.7794 37.1641C20.9432 37.2741 21.136 37.3332 21.3333 37.334H26.6667C27.0667 37.334 27.44 37.094 27.5867 36.7207C27.7467 36.3473 27.6533 35.9073 27.3733 35.6273L25 33.254V30.5607C27.28 30.1073 29 28.0807 29 25.6673V23.0007C29 20.2407 26.76 18.0007 24 18.0007ZM27 25.6673C27 27.3207 25.6533 28.6673 24 28.6673C22.3467 28.6673 21 27.3207 21 25.6673V23.0007C21 21.3473 22.3467 20.0007 24 20.0007C25.6533 20.0007 27 21.3473 27 23.0007V25.6673Z" fill="black"/>
</svg>
