<svg width="48" height="48" viewBox="0 0 48 48" fill="none" xmlns="http://www.w3.org/2000/svg">
<path d="M25.6445 12.3427C25.8605 12.5603 26.0315 12.8183 26.1477 13.102C26.2639 13.3857 26.3231 13.6895 26.3218 13.996V21.18L34.2112 24.568C34.2974 24.6024 34.3749 24.6556 34.4381 24.7236C34.5013 24.7916 34.5486 24.8728 34.5765 24.9614L35.2685 27.0214C35.3052 27.1356 35.311 27.2575 35.2851 27.3747C35.2593 27.4918 35.2028 27.6 35.1214 27.6881C35.04 27.7763 34.9367 27.8413 34.822 27.8764C34.7073 27.9115 34.5853 27.9155 34.4685 27.888L26.3352 25.8427L25.9432 32.836L27.5018 34.0027V36.3334C26.3304 36.0234 25.1601 35.7088 23.9912 35.3894C23.9912 35.3894 22.5605 35.7827 20.4938 36.3334V34.0027L22.0538 32.836L21.6592 25.8427L13.5272 27.8894C13.4105 27.9164 13.2887 27.9121 13.1742 27.8768C13.0597 27.8415 12.9566 27.7766 12.8753 27.6886C12.794 27.6005 12.7375 27.4925 12.7115 27.3756C12.6855 27.2586 12.6909 27.1369 12.7272 27.0227L13.4192 24.9614C13.4471 24.8728 13.4944 24.7916 13.5576 24.7236C13.6208 24.6556 13.6983 24.6024 13.7845 24.568L21.6738 21.18V13.996C21.6726 13.6895 21.7318 13.3857 21.848 13.102C21.9642 12.8183 22.1352 12.5603 22.3512 12.3427C22.7902 11.9103 23.3817 11.668 23.9978 11.668C24.614 11.668 25.2055 11.9103 25.6445 12.3427Z" stroke="black" stroke-width="1.5" stroke-linecap="round" stroke-linejoin="round"/>
</svg>
