<svg width="53" height="53" viewBox="0 0 53 53" fill="none" xmlns="http://www.w3.org/2000/svg">
<path d="M14.5 34.5H24.5V36.5H14.5V34.5ZM14.5 28.5H24.5V30.5H14.5V28.5ZM36.5 24.5H16.5C15.9696 24.5 15.4609 24.2893 15.0858 23.9142C14.7107 23.5391 14.5 23.0304 14.5 22.5V16.5C14.5 15.9696 14.7107 15.4609 15.0858 15.0858C15.4609 14.7107 15.9696 14.5 16.5 14.5H36.5C37.0304 14.5 37.5391 14.7107 37.9142 15.0858C38.2893 15.4609 38.5 15.9696 38.5 16.5V22.5C38.5 23.0304 38.2893 23.5391 37.9142 23.9142C37.5391 24.2893 37.0304 24.5 36.5 24.5ZM16.5 16.5V22.5H36.5V16.5H16.5ZM36.5 38.5H30.5C29.9696 38.5 29.4609 38.2893 29.0858 37.9142C28.7107 37.5391 28.5 37.0304 28.5 36.5V30.5C28.5 29.9696 28.7107 29.4609 29.0858 29.0858C29.4609 28.7107 29.9696 28.5 30.5 28.5H36.5C37.0304 28.5 37.5391 28.7107 37.9142 29.0858C38.2893 29.4609 38.5 29.9696 38.5 30.5V36.5C38.5 37.0304 38.2893 37.5391 37.9142 37.9142C37.5391 38.2893 37.0304 38.5 36.5 38.5ZM30.5 30.5V36.5H36.5V30.5H30.5Z" fill="black"/>
</svg>
