<svg width="48" height="48" viewBox="0 0 48 48" fill="none" xmlns="http://www.w3.org/2000/svg">
<path d="M28.0028 22.6669V25.3331M30.6697 22.6669H17.3359M29.3359 17.3331H18.6697V13.3331C18.6697 12.9796 18.8102 12.6405 19.0602 12.3905C19.3102 12.1405 19.6493 12 20.0028 12H28.0028C28.3564 12 28.6955 12.1405 28.9455 12.3905C29.1955 12.6405 29.3359 12.9796 29.3359 13.3331V17.3331Z" stroke="black" stroke-width="2" stroke-linecap="round" stroke-linejoin="round"/>
<path d="M36 34.6677V18.6677C36 18.3141 35.8596 17.975 35.6096 17.7249C35.3596 17.4747 35.0205 17.3342 34.6669 17.334H13.3331C12.5971 17.334 12 17.9311 12 18.6677V34.6677C12 35.4037 12.5971 36.0009 13.3331 36.0009H34.6669C35.4029 36.0009 36 35.4037 36 34.6677Z" stroke="black" stroke-width="2" stroke-linecap="round" stroke-linejoin="round"/>
</svg>
