<svg width="53" height="53" viewBox="0 0 53 53" fill="none" xmlns="http://www.w3.org/2000/svg">
<path d="M20.5 28.5H28.5V30.5H20.5V28.5ZM20.5 23.5H32.5V25.5H20.5V23.5ZM20.5 33.5H25.5V35.5H20.5V33.5Z" fill="black"/>
<path d="M35.5 15.5H32.5V14.5C32.5 13.9696 32.2893 13.4609 31.9142 13.0858C31.5391 12.7107 31.0304 12.5 30.5 12.5H22.5C21.9696 12.5 21.4609 12.7107 21.0858 13.0858C20.7107 13.4609 20.5 13.9696 20.5 14.5V15.5H17.5C16.9696 15.5 16.4609 15.7107 16.0858 16.0858C15.7107 16.4609 15.5 16.9696 15.5 17.5V38.5C15.5 39.0304 15.7107 39.5391 16.0858 39.9142C16.4609 40.2893 16.9696 40.5 17.5 40.5H35.5C36.0304 40.5 36.5391 40.2893 36.9142 39.9142C37.2893 39.5391 37.5 39.0304 37.5 38.5V17.5C37.5 16.9696 37.2893 16.4609 36.9142 16.0858C36.5391 15.7107 36.0304 15.5 35.5 15.5ZM22.5 14.5H30.5V18.5H22.5V14.5ZM35.5 38.5H17.5V17.5H20.5V20.5H32.5V17.5H35.5V38.5Z" fill="black"/>
</svg>
