<svg width="48" height="48" viewBox="0 0 48 48" fill="none" xmlns="http://www.w3.org/2000/svg">
<path fill-rule="evenodd" clip-rule="evenodd" d="M24.5333 30H26.3333C30.936 30 34.6667 26.2693 34.6667 21.6667C34.6667 17.064 30.936 13.3333 26.3333 13.3333H21.6667C17.064 13.3333 13.3333 17.064 13.3333 21.6667C13.3333 27.04 16.3973 30.2533 19.62 32.1907C21.2373 33.1627 22.8667 33.7907 24.098 34.1753C24.2496 34.2229 24.3947 34.2667 24.5333 34.3067V30ZM25.8667 36C25.8667 36 25.3573 35.914 24.5333 35.6913C21.06 34.75 12 31.3667 12 21.6667C12 16.328 16.328 12 21.6667 12H26.3333C31.672 12 36 16.328 36 21.6667C36 27.0053 31.672 31.3333 26.3333 31.3333H25.8667V36Z" fill="black"/>
<path fill-rule="evenodd" clip-rule="evenodd" d="M26.4633 16.3207C27.15 16.7767 27.6673 17.5161 27.6673 18.5074C27.6673 19.5594 27.2433 20.3327 26.556 20.8061C26.2848 20.99 25.9853 21.1283 25.6693 21.2154V22.2367C25.6693 22.502 25.564 22.7563 25.3765 22.9438C25.1889 23.1314 24.9346 23.2367 24.6693 23.2367C24.4041 23.2367 24.1498 23.1314 23.9622 22.9438C23.7747 22.7563 23.6693 22.502 23.6693 22.2367V20.3721C23.6693 20.1184 23.7657 19.8741 23.939 19.6888C24.1123 19.5035 24.3495 19.391 24.6027 19.3741C24.972 19.3494 25.252 19.2761 25.4207 19.1594C25.489 19.1141 25.5442 19.0515 25.5807 18.9781C25.6207 18.8981 25.6673 18.7554 25.6673 18.5067C25.6673 18.2987 25.586 18.1387 25.356 17.9854C25.0947 17.8121 24.6747 17.6841 24.17 17.6681C23.6713 17.6521 23.1867 17.7494 22.83 17.9221C22.4727 18.0954 22.3413 18.2901 22.3047 18.4334C22.272 18.5606 22.2146 18.6801 22.1358 18.7852C22.0569 18.8902 21.9582 18.9787 21.8451 19.0455C21.7321 19.1124 21.607 19.1563 21.477 19.1748C21.3469 19.1933 21.2146 19.1861 21.0873 19.1534C20.9601 19.1208 20.8406 19.0634 20.7356 18.9845C20.6306 18.9057 20.5421 18.8069 20.4752 18.6939C20.4084 18.5808 20.3644 18.4557 20.3459 18.3257C20.3274 18.1957 20.3347 18.0633 20.3673 17.9361C20.5973 17.0421 21.266 16.4581 21.958 16.1227C22.6513 15.7861 23.4667 15.6441 24.2333 15.6687C24.9953 15.6927 25.8087 15.8847 26.4633 16.3207Z" fill="black"/>
<path d="M26.0026 25.9993C26.0026 26.353 25.8621 26.6921 25.6121 26.9422C25.362 27.1922 25.0229 27.3327 24.6693 27.3327C24.3156 27.3327 23.9765 27.1922 23.7265 26.9422C23.4764 26.6921 23.3359 26.353 23.3359 25.9993C23.3359 25.6457 23.4764 25.3066 23.7265 25.0565C23.9765 24.8065 24.3156 24.666 24.6693 24.666C25.0229 24.666 25.362 24.8065 25.6121 25.0565C25.8621 25.3066 26.0026 25.6457 26.0026 25.9993Z" fill="black"/>
</svg>
