<svg width="48" height="48" viewBox="0 0 48 48" fill="none" xmlns="http://www.w3.org/2000/svg">
<path d="M25.7568 13.3896C25.8922 13.3896 26.0225 13.4433 26.1182 13.5391C26.2138 13.6348 26.2676 13.7651 26.2676 13.9004C26.2675 14.0355 26.2136 14.1651 26.1182 14.2607C26.0225 14.3565 25.8922 14.4111 25.7568 14.4111H16.3848C15.6918 14.4122 15.0271 14.6874 14.5371 15.1777C14.0472 15.668 13.7715 16.333 13.7705 17.0264V31.6133L13.7842 31.8721C13.8444 32.4704 14.1085 33.033 14.5371 33.4619C15.0271 33.9522 15.6918 34.2285 16.3848 34.2295H30.9639C31.6566 34.2284 32.3206 33.952 32.8105 33.4619C33.3006 32.9716 33.5771 32.3068 33.5781 31.6133V22.2363C33.5781 22.101 33.6318 21.9707 33.7275 21.875C33.8232 21.7794 33.9526 21.7256 34.0879 21.7256C34.2233 21.7256 34.3535 21.7792 34.4492 21.875C34.5448 21.9707 34.5986 22.1011 34.5986 22.2363V31.6143C34.5974 32.5781 34.2134 33.502 33.5322 34.1836C32.8936 34.8225 32.0423 35.1995 31.1445 35.2451L30.9639 35.25H16.3838C15.4204 35.2487 14.4966 34.8652 13.8154 34.1836C13.1343 33.502 12.7513 32.578 12.75 31.6143V17.0254L12.7549 16.8457C12.8004 15.9474 13.1768 15.0951 13.8154 14.4561C14.4966 13.7745 15.4204 13.3909 16.3838 13.3896H25.7568ZM33.9678 11.75C34.3241 11.75 34.6691 11.8698 34.9473 12.0879L35.0625 12.1875L35.0674 12.1924L35.8018 12.9297L35.8027 12.9307C35.9459 13.0752 36.059 13.247 36.1357 13.4355C36.2122 13.6235 36.2513 13.8245 36.25 14.0273L36.2422 14.1797C36.2271 14.3305 36.1903 14.4787 36.1318 14.6191C36.0539 14.8063 35.9387 14.9753 35.7949 15.1182L27.6123 23.3105L27.6094 23.3135C27.4437 23.4743 27.2457 23.598 27.0283 23.6758L27.0273 23.6768L23.8447 24.7949L23.8438 24.7939C23.7891 24.8136 23.7319 24.8239 23.6738 24.8232V24.8242C23.5398 24.8227 23.411 24.7688 23.3154 24.6748L23.3115 24.6709C23.2453 24.6027 23.1995 24.5176 23.1787 24.4248C23.158 24.3318 23.1633 24.2346 23.1943 24.1445V24.1436L24.3154 20.959C24.3916 20.7382 24.517 20.5377 24.6826 20.373L32.8701 12.1914L32.874 12.1875C33.169 11.9068 33.5607 11.7501 33.9678 11.75ZM33.9541 12.7578C33.8847 12.7578 33.8151 12.7722 33.751 12.7988C33.687 12.8255 33.6289 12.8649 33.5801 12.9141H33.5791L25.3945 21.1035L25.3916 21.1064C25.336 21.1604 25.2938 21.2274 25.2686 21.3008L25.2676 21.3018L24.498 23.4941L26.6797 22.7275C26.7556 22.7008 26.8246 22.6572 26.8818 22.6006L35.0654 14.4131L35.1328 14.332C35.1911 14.2454 35.2228 14.1422 35.2236 14.0361C35.2246 13.8949 35.1699 13.7592 35.0713 13.6582L35 13.585V13.5771L34.3291 12.915L34.3271 12.9141C34.2783 12.8649 34.2202 12.8255 34.1562 12.7988C34.0923 12.7722 34.0234 12.7579 33.9541 12.7578Z" fill="black" stroke="black" stroke-width="0.5"/>
</svg>
