<svg width="48" height="48" viewBox="0 0 48 48" fill="none" xmlns="http://www.w3.org/2000/svg">
<path d="M23.8327 38.0001C21.7327 37.9748 12.8213 32.6848 11.7927 30.8534C10.764 29.0221 10.8907 18.6594 11.962 16.8534C13.0333 15.0474 22.0713 9.97476 24.172 10.0001C26.2727 10.0254 35.1833 15.3154 36.212 17.1468C37.2407 18.9781 37.114 29.3408 36.042 31.1468C34.97 32.9528 25.9327 38.0254 23.8327 38.0001Z" stroke="black" stroke-width="2" stroke-linecap="round" stroke-linejoin="round"/>
<path d="M23.9718 31.3274L17.7458 27.622V20.2107M23.9718 31.3274L30.1978 27.6207V20.2107M23.9718 31.3274L17.3984 35.0994M17.7458 20.2107L23.9718 16.5054L30.1978 20.2107M17.7458 20.2107L17.7624 12.6934M30.1978 20.2107L36.9104 24.168" stroke="black" stroke-width="2" stroke-linecap="round" stroke-linejoin="round"/>
</svg>
