<svg width="48" height="48" viewBox="0 0 48 48" fill="none" xmlns="http://www.w3.org/2000/svg">
<path d="M23.9974 28.6668V35.3334M15.9707 12.3801C13.7147 11.9508 12.5867 11.7361 11.6241 12.5601C10.6641 13.3828 10.6641 14.7201 10.6641 17.3948V27.0068C10.6641 29.4521 10.6641 30.6748 11.2814 31.4388C11.8974 32.2014 13.2547 32.4601 15.9721 32.9774C18.3921 33.4388 20.2814 34.1721 21.6494 34.9108C22.9961 35.6374 23.6681 36.0001 23.9974 36.0001C24.3267 36.0001 25.0001 35.6374 26.3441 34.9108C27.7134 34.1734 29.6027 33.4388 32.0241 32.9774C34.7387 32.4601 36.0974 32.2014 36.7134 31.4388C37.3307 30.6748 37.3307 29.4521 37.3307 27.0068V17.3948C37.3307 14.7201 37.3307 13.3828 36.3707 12.5601C35.4081 11.7361 34.2801 11.9508 32.0241 12.3801" stroke="black" stroke-width="2" stroke-linecap="round" stroke-linejoin="round"/>
<path d="M22.9948 22.6667C22.9948 22.4014 22.8894 22.1471 22.7019 21.9596C22.5144 21.772 22.26 21.6667 21.9948 21.6667C21.7296 21.6667 21.4752 21.772 21.2877 21.9596C21.1001 22.1471 20.9948 22.4014 20.9948 22.6667H22.9948ZM20.9948 25.3333C20.9948 25.5985 21.1001 25.8529 21.2877 26.0404C21.4752 26.228 21.7296 26.3333 21.9948 26.3333C22.26 26.3333 22.5144 26.228 22.7019 26.0404C22.8894 25.8529 22.9948 25.5985 22.9948 25.3333H20.9948ZM26.9948 22.6667C26.9948 22.4014 26.8894 22.1471 26.7019 21.9596C26.5144 21.772 26.26 21.6667 25.9948 21.6667C25.7296 21.6667 25.4752 21.772 25.2877 21.9596C25.1001 22.1471 24.9948 22.4014 24.9948 22.6667H26.9948ZM24.9948 25.3333C24.9948 25.5985 25.1001 25.8529 25.2877 26.0404C25.4752 26.228 25.7296 26.3333 25.9948 26.3333C26.26 26.3333 26.5144 26.228 26.7019 26.0404C26.8894 25.8529 26.9948 25.5985 26.9948 25.3333H24.9948ZM22.9948 12C22.9948 11.7348 22.8894 11.4804 22.7019 11.2929C22.5144 11.1054 22.26 11 21.9948 11C21.7296 11 21.4752 11.1054 21.2877 11.2929C21.1001 11.4804 20.9948 11.7348 20.9948 12H22.9948ZM20.9948 14.6667C20.9948 14.9319 21.1001 15.1862 21.2877 15.3738C21.4752 15.5613 21.7296 15.6667 21.9948 15.6667C22.26 15.6667 22.5144 15.5613 22.7019 15.3738C22.8894 15.1862 22.9948 14.9319 22.9948 14.6667H20.9948ZM26.9948 12C26.9948 11.7348 26.8894 11.4804 26.7019 11.2929C26.5144 11.1054 26.26 11 25.9948 11C25.7296 11 25.4752 11.1054 25.2877 11.2929C25.1001 11.4804 24.9948 11.7348 24.9948 12H26.9948ZM24.9948 14.6667C24.9948 14.9319 25.1001 15.1862 25.2877 15.3738C25.4752 15.5613 25.7296 15.6667 25.9948 15.6667C26.26 15.6667 26.5144 15.5613 26.7019 15.3738C26.8894 15.1862 26.9948 14.9319 26.9948 14.6667H24.9948ZM19.9948 17.6667C20.26 17.6667 20.5144 17.5613 20.7019 17.3738C20.8894 17.1862 20.9948 16.9319 20.9948 16.6667C20.9948 16.4014 20.8894 16.1471 20.7019 15.9596C20.5144 15.772 20.26 15.6667 19.9948 15.6667V17.6667ZM17.3281 15.6667C17.0629 15.6667 16.8086 15.772 16.621 15.9596C16.4335 16.1471 16.3281 16.4014 16.3281 16.6667C16.3281 16.9319 16.4335 17.1862 16.621 17.3738C16.8086 17.5613 17.0629 17.6667 17.3281 17.6667V15.6667ZM19.9948 21.6667C20.26 21.6667 20.5144 21.5613 20.7019 21.3738C20.8894 21.1862 20.9948 20.9319 20.9948 20.6667C20.9948 20.4014 20.8894 20.1471 20.7019 19.9596C20.5144 19.772 20.26 19.6667 19.9948 19.6667V21.6667ZM17.3281 19.6667C17.0629 19.6667 16.8086 19.772 16.621 19.9596C16.4335 20.1471 16.3281 20.4014 16.3281 20.6667C16.3281 20.9319 16.4335 21.1862 16.621 21.3738C16.8086 21.5613 17.0629 21.6667 17.3281 21.6667V19.6667ZM30.6615 17.6667C30.9267 17.6667 31.181 17.5613 31.3686 17.3738C31.5561 17.1862 31.6615 16.9319 31.6615 16.6667C31.6615 16.4014 31.5561 16.1471 31.3686 15.9596C31.181 15.772 30.9267 15.6667 30.6615 15.6667V17.6667ZM27.9948 15.6667C27.7296 15.6667 27.4752 15.772 27.2877 15.9596C27.1001 16.1471 26.9948 16.4014 26.9948 16.6667C26.9948 16.9319 27.1001 17.1862 27.2877 17.3738C27.4752 17.5613 27.7296 17.6667 27.9948 17.6667V15.6667ZM30.6615 21.6667C30.9267 21.6667 31.181 21.5613 31.3686 21.3738C31.5561 21.1862 31.6615 20.9319 31.6615 20.6667C31.6615 20.4014 31.5561 20.1471 31.3686 19.9596C31.181 19.772 30.9267 19.6667 30.6615 19.6667V21.6667ZM27.9948 19.6667C27.7296 19.6667 27.4752 19.772 27.2877 19.9596C27.1001 20.1471 26.9948 20.4014 26.9948 20.6667C26.9948 20.9319 27.1001 21.1862 27.2877 21.3738C27.4752 21.5613 27.7296 21.6667 27.9948 21.6667V19.6667ZM22.6615 15.6667H25.3281V13.6667H22.6615V15.6667ZM26.9948 17.3333V20H28.9948V17.3333H26.9948ZM25.3281 21.6667H22.6615V23.6667H25.3281V21.6667ZM20.9948 20V17.3333H18.9948V20H20.9948ZM22.6615 21.6667C22.0041 21.6667 21.6121 21.664 21.3321 21.6267C21.2499 21.6183 21.1692 21.599 21.0921 21.5693L19.6788 22.9827C20.0908 23.396 20.5908 23.5453 21.0655 23.6093C21.5108 23.6693 22.0615 23.6667 22.6615 23.6667V21.6667ZM18.9948 20C18.9948 20.6 18.9921 21.1507 19.0521 21.596C19.1161 22.0707 19.2655 22.5707 19.6788 22.9827L21.0921 21.5693L21.0908 21.5653L21.0841 21.552C21.0586 21.4801 21.0421 21.4053 21.0348 21.3293C20.9975 21.0493 20.9948 20.6573 20.9948 20H18.9948ZM26.9948 20C26.9948 20.6573 26.9921 21.0493 26.9548 21.3293C26.9464 21.4115 26.9271 21.4922 26.8975 21.5693L28.3108 22.9827C28.7241 22.5707 28.8735 22.0707 28.9375 21.596C28.9975 21.1507 28.9948 20.6 28.9948 20H26.9948ZM25.3281 23.6667C25.9281 23.6667 26.4788 23.6693 26.9241 23.6093C27.3988 23.5453 27.8988 23.396 28.3108 22.9827L26.8975 21.5693L26.8935 21.5707L26.8801 21.5773C26.8082 21.6028 26.7334 21.6194 26.6575 21.6267C26.3775 21.664 25.9855 21.6667 25.3281 21.6667V23.6667ZM25.3281 15.6667C25.9855 15.6667 26.3775 15.6693 26.6575 15.7067C26.7382 15.715 26.8176 15.7338 26.8935 15.7627L26.8975 15.764L28.3108 14.3507C27.8988 13.9373 27.3988 13.788 26.9241 13.724C26.4788 13.664 25.9281 13.6667 25.3281 13.6667V15.6667ZM28.9948 17.3333C28.9948 16.7333 28.9975 16.1827 28.9375 15.7373C28.8735 15.2627 28.7241 14.7627 28.3108 14.3507L26.8975 15.764L26.8988 15.768L26.9055 15.7813C26.9175 15.8107 26.9375 15.8747 26.9548 16.004C26.9921 16.284 26.9948 16.676 26.9948 17.3333H28.9948ZM22.6615 13.6667C22.0615 13.6667 21.5108 13.664 21.0655 13.724C20.5908 13.788 20.0908 13.9373 19.6788 14.3507L21.0921 15.764L21.0961 15.7627L21.1095 15.756C21.1814 15.7305 21.2562 15.7139 21.3321 15.7067C21.6121 15.6693 22.0041 15.6667 22.6615 15.6667V13.6667ZM20.9948 17.3333C20.9948 16.676 20.9975 16.284 21.0348 16.004C21.0432 15.9218 21.0625 15.8411 21.0921 15.764L19.6788 14.3507C19.2655 14.7627 19.1161 15.2627 19.0521 15.7373C18.9921 16.1827 18.9948 16.7333 18.9948 17.3333H20.9948ZM20.9948 22.6667V25.3333H22.9948V22.6667H20.9948ZM24.9948 22.6667V25.3333H26.9948V22.6667H24.9948ZM20.9948 12V14.6667H22.9948V12H20.9948ZM24.9948 12V14.6667H26.9948V12H24.9948ZM19.9948 15.6667H17.3281V17.6667H19.9948V15.6667ZM19.9948 19.6667H17.3281V21.6667H19.9948V19.6667ZM30.6615 15.6667H27.9948V17.6667H30.6615V15.6667ZM30.6615 19.6667H27.9948V21.6667H30.6615V19.6667Z" fill="black"/>
</svg>
