<svg width="48" height="48" viewBox="0 0 48 48" fill="none" xmlns="http://www.w3.org/2000/svg">
<path d="M16.0031 13.6008C16.0031 13.3886 16.0874 13.1851 16.2374 13.0351C16.3875 12.8851 16.591 12.8008 16.8031 12.8008H21.6031C21.8153 12.8008 22.0188 12.8851 22.1688 13.0351C22.3188 13.1851 22.4031 13.3886 22.4031 13.6008V18.4008C22.4031 18.613 22.3188 18.8164 22.1688 18.9665C22.0188 19.1165 21.8153 19.2008 21.6031 19.2008H16.8031C16.591 19.2008 16.3875 19.1165 16.2374 18.9665C16.0874 18.8164 16.0031 18.613 16.0031 18.4008V13.6008ZM26.4031 12.8008C26.191 12.8008 25.9875 12.8851 25.8374 13.0351C25.6874 13.1851 25.6031 13.3886 25.6031 13.6008V18.4008C25.6031 18.613 25.6874 18.8164 25.8374 18.9665C25.9875 19.1165 26.191 19.2008 26.4031 19.2008H31.2031C31.4153 19.2008 31.6188 19.1165 31.7688 18.9665C31.9188 18.8164 32.0031 18.613 32.0031 18.4008V13.6008C32.0031 13.3886 31.9188 13.1851 31.7688 13.0351C31.6188 12.8851 31.4153 12.8008 31.2031 12.8008H26.4031ZM27.2031 17.6008V14.4008H30.4031V17.6008H27.2031ZM17.6031 28.8008C18.0275 28.8008 18.4344 28.6322 18.7345 28.3322C19.0346 28.0321 19.2031 27.6251 19.2031 27.2008C19.2031 26.7764 19.0346 26.3695 18.7345 26.0694C18.4344 25.7694 18.0275 25.6008 17.6031 25.6008C17.1788 25.6008 16.7718 25.7694 16.4718 26.0694C16.1717 26.3695 16.0031 26.7764 16.0031 27.2008C16.0031 27.6251 16.1717 28.0321 16.4718 28.3322C16.7718 28.6322 17.1788 28.8008 17.6031 28.8008ZM25.6031 27.2008C25.6031 27.6251 25.4346 28.0321 25.1345 28.3322C24.8344 28.6322 24.4275 28.8008 24.0031 28.8008C23.5788 28.8008 23.1718 28.6322 22.8718 28.3322C22.5717 28.0321 22.4031 27.6251 22.4031 27.2008C22.4031 26.7764 22.5717 26.3695 22.8718 26.0694C23.1718 25.7694 23.5788 25.6008 24.0031 25.6008C24.4275 25.6008 24.8344 25.7694 25.1345 26.0694C25.4346 26.3695 25.6031 26.7764 25.6031 27.2008ZM30.4031 28.8008C30.8275 28.8008 31.2344 28.6322 31.5345 28.3322C31.8346 28.0321 32.0031 27.6251 32.0031 27.2008C32.0031 26.7764 31.8346 26.3695 31.5345 26.0694C31.2344 25.7694 30.8275 25.6008 30.4031 25.6008C29.9788 25.6008 29.5718 25.7694 29.2718 26.0694C28.9717 26.3695 28.8031 26.7764 28.8031 27.2008C28.8031 27.6251 28.9717 28.0321 29.2718 28.3322C29.5718 28.6322 29.9788 28.8008 30.4031 28.8008ZM11.2031 27.2008C11.2031 25.5034 11.8774 23.8755 13.0776 22.6753C14.2779 21.4751 15.9057 20.8008 17.6031 20.8008H30.4031C32.1005 20.8008 33.7284 21.4751 34.9286 22.6753C36.1288 23.8755 36.8031 25.5034 36.8031 27.2008C36.8031 28.8982 36.1288 30.526 34.9286 31.7263C33.7284 32.9265 32.1005 33.6008 30.4031 33.6008H17.6031C15.9057 33.6008 14.2779 32.9265 13.0776 31.7263C11.8774 30.526 11.2031 28.8982 11.2031 27.2008ZM17.6031 22.4008C16.3301 22.4008 15.1092 22.9065 14.209 23.8067C13.3088 24.7068 12.8031 25.9277 12.8031 27.2008C12.8031 28.4738 13.3088 29.6947 14.209 30.5949C15.1092 31.4951 16.3301 32.0008 17.6031 32.0008H30.4031C31.6762 32.0008 32.8971 31.4951 33.7972 30.5949C34.6974 29.6947 35.2031 28.4738 35.2031 27.2008C35.2031 25.9277 34.6974 24.7068 33.7972 23.8067C32.8971 22.9065 31.6762 22.4008 30.4031 22.4008H17.6031Z" fill="black"/>
</svg>
