<svg width="48" height="48" viewBox="0 0 48 48" fill="none" xmlns="http://www.w3.org/2000/svg">
<path d="M16.2236 24.9381H15.7476L24.4878 33.6783L31.6655 26.5006H33.875L24.4878 35.8878L13.9287 25.3409C13.6439 25.0561 13.3916 24.7509 13.1719 24.4254C12.9521 24.0999 12.7609 23.7499 12.5981 23.3756H15.5645L19.019 19.9332L24.4878 25.3897L28.394 21.4957L30.2861 23.3756H34.6196C34.88 22.9605 35.0794 22.5211 35.2178 22.0572C35.3561 21.5934 35.4253 21.1173 35.4253 20.629C35.4253 19.921 35.2951 19.2618 35.0347 18.6515C34.7743 18.0411 34.4121 17.5121 33.9482 17.0645C33.4844 16.617 32.9473 16.263 32.3369 16.0025C31.7266 15.7421 31.0633 15.6119 30.3472 15.6119C29.6636 15.6119 29.0573 15.7177 28.5283 15.9293C27.9993 16.1409 27.5111 16.4257 27.0635 16.7838C26.6159 17.1419 26.1886 17.5366 25.7817 17.9679C25.3748 18.3992 24.9435 18.8508 24.4878 19.3228C24.0483 18.8834 23.6211 18.4399 23.2061 17.9923C22.791 17.5447 22.3597 17.1419 21.9121 16.7838C21.4645 16.4257 20.9722 16.1327 20.4351 15.9049C19.8979 15.677 19.2957 15.5631 18.6284 15.5631C17.9285 15.5631 17.2734 15.6933 16.6631 15.9537C16.0527 16.2141 15.5156 16.5763 15.0518 17.0401C14.5879 17.504 14.2257 18.0411 13.9653 18.6515C13.7049 19.2618 13.5706 19.921 13.5625 20.629C13.5625 21.0115 13.6073 21.4062 13.6968 21.8131H12.0977C12.057 21.6178 12.0326 21.4225 12.0244 21.2271C12.0163 21.0318 12.0081 20.8365 12 20.6412C12 19.7216 12.1709 18.859 12.5127 18.0533C12.8545 17.2477 13.3265 16.5437 13.9287 15.9415C14.5309 15.3393 15.2349 14.8673 16.0405 14.5255C16.8462 14.1837 17.7088 14.0087 18.6284 14.0006C19.3039 14.0006 19.9061 14.0779 20.4351 14.2325C20.964 14.3871 21.4523 14.5987 21.8999 14.8673C22.3475 15.1358 22.7788 15.4654 23.1938 15.8561C23.6089 16.2467 24.0402 16.6658 24.4878 17.1134C24.9354 16.6576 25.3626 16.2385 25.7695 15.8561C26.1764 15.4736 26.6077 15.148 27.0635 14.8795C27.5192 14.6109 28.0116 14.3953 28.5405 14.2325C29.0695 14.0698 29.6717 13.9924 30.3472 14.0006C31.2586 14.0006 32.1172 14.1715 32.9229 14.5133C33.7285 14.8551 34.4284 15.3271 35.0225 15.9293C35.6165 16.5315 36.0885 17.2314 36.4385 18.0289C36.7884 18.8264 36.9634 19.685 36.9634 20.6046C36.9634 21.394 36.825 22.1589 36.5483 22.8995C36.2716 23.6401 35.877 24.3196 35.3643 24.9381H29.627L28.394 23.693L24.4878 27.6114L19.019 22.1305L16.2236 24.9381Z" fill="black"/>
</svg>
