<svg width="48" height="48" viewBox="0 0 48 48" fill="none" xmlns="http://www.w3.org/2000/svg">
<path d="M11.2761 19.9993C12.9787 14.59 18.0454 10.666 24.0307 10.666C30.9614 10.666 36.6601 15.9287 37.3307 22.666L34.6641 22.1233M36.7187 27.9993C35.8602 30.7084 34.1611 33.0736 31.8677 34.7518C29.5743 36.43 26.8059 37.334 23.9641 37.3327C17.0334 37.3327 11.3347 32.07 10.6641 25.3327L13.3307 25.8753" stroke="black" stroke-width="1.5" stroke-linecap="round" stroke-linejoin="round"/>
<path d="M20.0028 26.0373V28.6933C19.9997 28.9073 20.051 29.1186 20.1517 29.3075C20.2524 29.4964 20.3994 29.6566 20.5788 29.7733C21.7041 30.4773 22.5588 30.684 24.0068 30.728C25.3415 30.764 26.1788 30.5546 27.4241 29.776C27.6066 29.6584 27.7562 29.4964 27.8588 29.3051C27.9614 29.1139 28.0137 28.8997 28.0108 28.6826V26.0373M30.6815 22.6866V26.7066M17.4001 22.4586C17.8828 21.44 20.8735 19.6666 23.6028 18.7906C23.8658 18.7071 24.1492 18.7136 24.4081 18.8093C26.8215 19.692 29.5068 21.0293 30.4815 22.1133C30.9895 22.68 30.4921 23.4026 29.8775 23.8493C28.6281 24.7573 27.2508 25.4626 24.4668 26.5333C24.1719 26.6463 23.846 26.6487 23.5495 26.54C20.6961 25.48 18.0268 24.1133 17.4228 22.9093C17.3854 22.8407 17.364 22.7646 17.36 22.6866C17.3561 22.6085 17.3698 22.5306 17.4001 22.4586Z" stroke="black" stroke-width="1.5" stroke-linecap="round" stroke-linejoin="round"/>
</svg>
