<svg width="48" height="48" viewBox="0 0 48 48" fill="none" xmlns="http://www.w3.org/2000/svg">
<g clip-path="url(#clip0_1872_2695)">
<path d="M12.2837 35.7188C13.1706 35.7404 14.0511 35.5646 14.8618 35.2044C15.6724 34.8441 16.3929 34.3082 16.9712 33.6355C18.5337 35.198 18.7941 35.7188 20.3566 35.7188C21.9191 35.7188 22.44 35.198 24.0025 33.6355C25.565 35.198 26.0858 35.7188 27.6483 35.7188C29.2108 35.7188 29.4712 35.198 31.0337 33.6355C31.612 34.3082 32.3325 34.8441 33.1432 35.2044C33.9538 35.5646 34.8344 35.7404 35.7212 35.7188M35.3358 32.5417L35.6066 30.3438C35.6292 30.237 35.6278 30.1264 35.6026 30.0202C35.5774 29.9139 35.529 29.8146 35.4608 29.7292C35.3883 29.6461 35.2985 29.5798 35.1978 29.5348C35.0971 29.4898 34.9878 29.4673 34.8775 29.4688H13.065C12.9564 29.4699 12.8492 29.4933 12.7501 29.5376C12.651 29.5819 12.562 29.646 12.4887 29.7261C12.4155 29.8063 12.3595 29.9006 12.3242 30.0033C12.2889 30.1059 12.2751 30.2148 12.2837 30.323C12.3585 31.1304 12.5479 31.9231 12.8462 32.6772" stroke="black" stroke-width="1.5" stroke-linecap="round" stroke-linejoin="round"/>
<path d="M27.9062 29.4687H34.1562V16.9687C34.1562 16.5543 33.9916 16.1569 33.6986 15.8639C33.4056 15.5709 33.0082 15.4062 32.5937 15.4062H29.4687C29.0543 15.4062 28.6569 15.5709 28.3639 15.8639C28.0709 16.1569 27.9062 16.5543 27.9062 16.9687V29.4687ZM27.9062 29.4687V20.6146H15.4062C14.9918 20.6146 14.5944 20.7792 14.3014 21.0722C14.0084 21.3653 13.8438 21.7627 13.8438 22.1771V29.4687H27.9062ZM31.0312 19.0521H27.9062M31.8125 15.4062V12.2812M20.0937 20.6146V29.4687M13.8438 25.0417H27.6354" stroke="black" stroke-width="1.5" stroke-linecap="round" stroke-linejoin="round"/>
</g>
<defs>
<clipPath id="clip0_1872_2695">
<rect width="25" height="25" fill="white" transform="translate(11.5 11.5)"/>
</clipPath>
</defs>
</svg>
