<svg width="48" height="48" viewBox="0 0 48 48" fill="none" xmlns="http://www.w3.org/2000/svg">
<path d="M13.0667 12H26.9333C26.9333 12 28 12 28 13.0667V34.9333C28 34.9333 28 36 26.9333 36H13.0667C13.0667 36 12 36 12 34.9333V13.0667C12 13.0667 12 12 13.0667 12Z" stroke="black" stroke-width="1.5" stroke-linecap="round" stroke-linejoin="round"/>
<path d="M12 21.5992H28M28 16.7992H29.6C30.0243 16.7992 30.4313 16.9678 30.7314 17.2678C31.0314 17.5679 31.2 17.9749 31.2 18.3992V34.3992C31.2 34.8236 31.3686 35.2305 31.6686 35.5306C31.9687 35.8306 32.3757 35.9992 32.8 35.9992C33.2243 35.9992 33.6313 35.8306 33.9314 35.5306C34.2314 35.2305 34.4 34.8236 34.4 34.3992V24.7992M34.4 24.7992C34.4 23.755 34.7093 22.7352 35.2875 21.8659L36 20.7992M34.4 24.7992H36M18.4 32.7992V26.3992C18.4 25.9749 18.5686 25.5679 18.8686 25.2678C19.1687 24.9678 19.5757 24.7992 20 24.7992H21.6M18.4 29.5992H20.8M24.8 16.7992C24.8 16.3749 24.6314 15.9679 24.3314 15.6678C24.0313 15.3678 23.6243 15.1992 23.2 15.1992H16.8C16.3757 15.1992 15.9687 15.3678 15.6686 15.6678C15.3686 15.9679 15.2 16.3749 15.2 16.7992C15.2 17.2236 15.3686 17.6305 15.6686 17.9306C15.9687 18.2306 16.3757 18.3992 16.8 18.3992H23.2C23.6243 18.3992 24.0313 18.2306 24.3314 17.9306C24.6314 17.6305 24.8 17.2236 24.8 16.7992Z" stroke="black" stroke-width="1.5" stroke-linecap="round" stroke-linejoin="round"/>
</svg>
