<svg width="48" height="48" viewBox="0 0 48 48" fill="none" xmlns="http://www.w3.org/2000/svg">
<path d="M23.9974 12.9997C23.691 12.9997 23.3876 13.06 23.1045 13.1773C22.8214 13.2946 22.5641 13.4664 22.3475 13.6831C22.1308 13.8998 21.9589 14.157 21.8417 14.4401C21.7244 14.7232 21.6641 15.0266 21.6641 15.333C21.6641 15.6394 21.7244 15.9428 21.8417 16.2259C21.9589 16.509 22.1308 16.7663 22.3475 16.9829C22.5641 17.1996 22.8214 17.3715 23.1045 17.4887C23.3876 17.606 23.691 17.6663 23.9974 17.6663C24.6162 17.6663 25.2097 17.4205 25.6473 16.9829C26.0849 16.5453 26.3307 15.9518 26.3307 15.333C26.3307 14.7142 26.0849 14.1207 25.6473 13.6831C25.2097 13.2455 24.6162 12.9997 23.9974 12.9997ZM19.9974 15.333C19.9974 14.2721 20.4188 13.2547 21.169 12.5046C21.9191 11.7544 22.9365 11.333 23.9974 11.333C25.0583 11.333 26.0757 11.7544 26.8258 12.5046C27.576 13.2547 27.9974 14.2721 27.9974 15.333C27.9974 16.3939 27.576 17.4113 26.8258 18.1614C26.0757 18.9116 25.0583 19.333 23.9974 19.333C22.9365 19.333 21.9191 18.9116 21.169 18.1614C20.4188 17.4113 19.9974 16.3939 19.9974 15.333ZM32.6641 14.333C32.222 14.333 31.7981 14.5086 31.4855 14.8212C31.173 15.1337 30.9974 15.5576 30.9974 15.9997C30.9974 16.4417 31.173 16.8656 31.4855 17.1782C31.7981 17.4907 32.222 17.6663 32.6641 17.6663C33.1061 17.6663 33.53 17.4907 33.8426 17.1782C34.1551 16.8656 34.3307 16.4417 34.3307 15.9997C34.3307 15.5576 34.1551 15.1337 33.8426 14.8212C33.53 14.5086 33.1061 14.333 32.6641 14.333ZM29.3307 15.9997C29.3307 15.1156 29.6819 14.2678 30.307 13.6427C30.9322 13.0175 31.78 12.6663 32.6641 12.6663C33.5481 12.6663 34.396 13.0175 35.0211 13.6427C35.6462 14.2678 35.9974 15.1156 35.9974 15.9997C35.9974 16.8837 35.6462 17.7316 35.0211 18.3567C34.396 18.9818 33.5481 19.333 32.6641 19.333C31.78 19.333 30.9322 18.9818 30.307 18.3567C29.6819 17.7316 29.3307 16.8837 29.3307 15.9997ZM13.6641 15.9997C13.6641 15.5576 13.8397 15.1337 14.1522 14.8212C14.4648 14.5086 14.8887 14.333 15.3307 14.333C15.7728 14.333 16.1967 14.5086 16.5092 14.8212C16.8218 15.1337 16.9974 15.5576 16.9974 15.9997C16.9974 16.4417 16.8218 16.8656 16.5092 17.1782C16.1967 17.4907 15.7728 17.6663 15.3307 17.6663C14.8887 17.6663 14.4648 17.4907 14.1522 17.1782C13.8397 16.8656 13.6641 16.4417 13.6641 15.9997ZM15.3307 12.6663C14.4467 12.6663 13.5988 13.0175 12.9737 13.6427C12.3486 14.2678 11.9974 15.1156 11.9974 15.9997C11.9974 16.8837 12.3486 17.7316 12.9737 18.3567C13.5988 18.9818 14.4467 19.333 15.3307 19.333C16.2148 19.333 17.0626 18.9818 17.6878 18.3567C18.3129 17.7316 18.6641 16.8837 18.6641 15.9997C18.6641 15.1156 18.3129 14.2678 17.6878 13.6427C17.0626 13.0175 16.2148 12.6663 15.3307 12.6663ZM17.9974 23.4997C17.9974 22.7482 18.2959 22.0276 18.8273 21.4962C19.3586 20.9649 20.0793 20.6663 20.8307 20.6663H27.1641C27.9155 20.6663 28.6362 20.9649 29.1675 21.4962C29.6989 22.0276 29.9974 22.7482 29.9974 23.4997V30.6663C29.9974 32.2576 29.3653 33.7838 28.24 34.909C27.1148 36.0342 25.5887 36.6663 23.9974 36.6663C22.4061 36.6663 20.88 36.0342 19.7548 34.909C18.6295 33.7838 17.9974 32.2576 17.9974 30.6663V23.4997ZM23.9974 34.9997C25.1467 34.9997 26.2489 34.5431 27.0615 33.7305C27.8742 32.9178 28.3307 31.8156 28.3307 30.6663V23.4997C28.3307 23.1903 28.2078 22.8935 27.989 22.6747C27.7702 22.4559 27.4735 22.333 27.1641 22.333H20.8307C20.5213 22.333 20.2246 22.4559 20.0058 22.6747C19.787 22.8935 19.6641 23.1903 19.6641 23.4997V30.6663C19.6641 31.8156 20.1206 32.9178 20.9333 33.7305C21.7459 34.5431 22.8481 34.9997 23.9974 34.9997ZM15.3307 32.9997C15.8881 32.9998 16.4346 32.8447 16.9087 32.5517C17.0547 33.1023 17.2634 33.627 17.5261 34.1183C16.815 34.4974 16.0178 34.6859 15.2122 34.6655C14.4066 34.645 13.6201 34.4163 12.9291 34.0016C12.2382 33.5868 11.6664 33.0003 11.2695 32.299C10.8725 31.5977 10.664 30.8055 10.6641 29.9997V23.5003C10.664 23.1282 10.7372 22.7597 10.8795 22.4159C11.0219 22.072 11.2306 21.7596 11.4937 21.4964C11.7568 21.2333 12.0692 21.0245 12.413 20.8821C12.7568 20.7397 13.1253 20.6663 13.4974 20.6663H17.1641C17.3565 20.6668 17.5434 20.6852 17.7247 20.7217C17.3095 21.1851 17.0036 21.7357 16.8294 22.333H13.4974C13.188 22.333 12.8912 22.4559 12.6724 22.6747C12.4536 22.8935 12.3307 23.1903 12.3307 23.4997V29.9997C12.3307 30.7953 12.6468 31.5584 13.2094 32.121C13.772 32.6836 14.5351 32.9997 15.3307 32.9997ZM32.6641 34.6663C31.8985 34.6667 31.1445 34.4788 30.4687 34.119C30.7314 33.627 30.9401 33.1023 31.0861 32.5517C31.5405 32.8327 32.0618 32.9873 32.596 32.9995C33.1303 33.0116 33.658 32.8808 34.1248 32.6206C34.5915 32.3604 34.9803 31.9803 35.2509 31.5195C35.5215 31.0587 35.6642 30.534 35.6641 29.9997V23.4997C35.6641 23.1903 35.5411 22.8935 35.3224 22.6747C35.1036 22.4559 34.8068 22.333 34.4974 22.333H31.1654C30.991 21.7356 30.6848 21.185 30.2694 20.7217C30.4516 20.6852 30.6387 20.6668 30.8307 20.6663H34.4974C35.2488 20.6663 35.9695 20.9649 36.5009 21.4962C37.0322 22.0276 37.3307 22.7482 37.3307 23.4997V29.9997C37.3307 31.2374 36.8391 32.4243 35.9639 33.2995C35.0887 34.1747 33.9017 34.6663 32.6641 34.6663Z" fill="black"/>
</svg>
