<svg width="48" height="48" viewBox="0 0 48 48" fill="none" xmlns="http://www.w3.org/2000/svg">
<path d="M21.3333 17.3333L20.6453 19.192C19.744 21.6293 19.2933 22.848 18.404 23.7373C17.5147 24.6267 16.296 25.0773 13.8587 25.9787L12 26.6667L13.8587 27.3547C16.296 28.256 17.5147 28.708 18.404 29.596C19.2933 30.484 19.744 31.704 20.6453 34.1413L21.3333 36L22.0213 34.1413C22.9227 31.704 23.3747 30.4853 24.2627 29.596C25.1507 28.7067 26.3707 28.256 28.808 27.3547L30.6667 26.6667L28.808 25.9787C26.3707 25.0773 25.152 24.6267 24.2627 23.7373C23.3733 22.848 22.9227 21.6293 22.0213 19.192L21.3333 17.3333ZM32 12L31.7053 12.796C31.3187 13.8413 31.1253 14.364 30.7453 14.744C30.364 15.1253 29.8413 15.3187 28.796 15.704L28 16L28.7973 16.2947C29.8413 16.6813 30.364 16.8747 30.744 17.2547C31.1253 17.636 31.3187 18.1587 31.704 19.204L32 20L32.2947 19.204C32.6813 18.1587 32.8747 17.636 33.2547 17.256C33.636 16.8747 34.1587 16.6813 35.204 16.296L36 16L35.2027 15.7053C34.1587 15.3187 33.636 15.1253 33.256 14.7453C32.8747 14.364 32.6813 13.8413 32.296 12.796L32 12Z" stroke="black" stroke-width="2" stroke-linecap="round" stroke-linejoin="round"/>
</svg>
