<svg width="48" height="48" viewBox="0 0 48 48" fill="none" xmlns="http://www.w3.org/2000/svg">
<path d="M17.0284 36.1873C16.3279 36.4489 15.5671 36.5043 14.8361 36.3467C14.1051 36.1892 13.4346 35.8254 12.904 35.2984C12.5384 34.9373 12.2486 34.5067 12.0517 34.0319C11.8548 33.5572 11.7547 33.0479 11.7573 32.534C11.7611 32.1728 11.815 31.8138 11.9173 31.4673C11.5319 30.7467 11.2335 29.9828 11.0284 29.1918C10.2116 30.3185 9.83602 31.7056 9.97291 33.0906C10.1098 34.4755 10.7496 35.7622 11.7713 36.7073C12.7929 37.6523 14.1256 38.19 15.517 38.2187C16.9084 38.2473 18.262 37.765 19.3218 36.8629C18.5337 36.7274 17.7641 36.5007 17.0284 36.1873ZM24.3618 32.6051C23.0775 33.3209 21.595 33.5988 20.1387 33.3967C18.6823 33.1947 17.3315 32.5236 16.2907 31.4851C15.251 30.4489 14.578 29.1016 14.3743 27.6479C14.1705 26.1943 14.447 24.7139 15.1618 23.4318C14.9674 22.6005 14.8572 21.7518 14.8329 20.8984C13.3203 22.5121 12.495 24.651 12.5315 26.8625C12.568 29.0739 13.4635 31.1844 15.0284 32.7473C16.5977 34.3073 18.71 35.1991 20.9224 35.2355C23.1348 35.272 25.2753 34.4503 26.8951 32.9429C26.0416 32.9145 25.1929 32.8013 24.3618 32.6051Z" fill="black"/>
<path d="M27.2552 31.2982C24.7673 31.2945 22.3577 30.4284 20.4366 28.8475C18.5156 27.2666 17.2021 25.0686 16.7197 22.628C16.2374 20.1873 16.616 17.6549 17.7913 15.4621C18.9665 13.2692 20.8655 11.5516 23.1649 10.6018C25.4644 9.65199 28.022 9.52868 30.4021 10.2529C32.7823 10.9771 34.8377 12.5041 36.2184 14.5737C37.5991 16.6433 38.2197 19.1275 37.9743 21.6033C37.729 24.079 36.633 26.3932 34.873 28.1515C33.8725 29.1511 32.6846 29.9436 31.3775 30.4835C30.0703 31.0235 28.6695 31.3003 27.2552 31.2982ZM27.2552 11.556C26.0743 11.5548 24.9048 11.7864 23.8134 12.2375C22.7221 12.6886 21.7303 13.3504 20.8949 14.185C20.0595 15.0196 19.3967 16.0107 18.9446 17.1016C18.4924 18.1924 18.2596 19.3618 18.2596 20.5427C18.2598 21.7247 18.4957 22.8949 18.9536 23.9846C19.4115 25.0744 20.0822 26.0619 20.9263 26.8893C22.6132 28.5758 24.9009 29.5232 27.2863 29.5232C29.6717 29.5232 31.9594 28.5758 33.6463 26.8893C34.9026 25.6299 35.7569 24.026 36.101 22.2806C36.445 20.5353 36.2633 18.7272 35.5789 17.0852C34.8945 15.4432 33.7382 14.0413 32.2564 13.057C30.7747 12.0727 29.0341 11.5503 27.2552 11.556Z" fill="black"/>
</svg>
