<svg width="53" height="53" viewBox="0 0 53 53" fill="none" xmlns="http://www.w3.org/2000/svg">
<path d="M30.3493 34.4994C29.5697 34.4994 28.9048 34.2239 28.3546 33.6727C27.8044 33.1216 27.5288 32.4572 27.5279 31.6794C27.527 30.9016 27.8026 30.2363 28.3546 29.6834C28.9066 29.1305 29.5715 28.8554 30.3493 28.8581C31.127 28.8607 31.7919 29.1363 32.3439 29.6847C32.8959 30.2332 33.171 30.8981 33.1693 31.6794C33.1675 32.4607 32.8919 33.1256 32.3426 33.6741C31.7933 34.2225 31.1288 34.4976 30.3493 34.4994ZM17.9893 38.4994C17.3759 38.4994 16.8639 38.2941 16.4533 37.8834C16.0426 37.4727 15.8368 36.9603 15.8359 36.3461V19.3194C15.8359 18.7061 16.0417 18.1941 16.4533 17.7834C16.8648 17.3727 17.3773 17.167 17.9906 17.1661H20.3493V14.9101C20.3493 14.703 20.4173 14.5314 20.5533 14.3954C20.6893 14.2594 20.8604 14.1914 21.0666 14.1914C21.2728 14.1914 21.4444 14.2594 21.5813 14.3954C21.7182 14.5314 21.7862 14.703 21.7853 14.9101V17.1661H31.3239V14.8594C31.3239 14.6692 31.3875 14.5101 31.5146 14.3821C31.6417 14.2541 31.8004 14.1905 31.9906 14.1914C32.1808 14.1923 32.339 14.2559 32.4653 14.3821C32.5915 14.5083 32.6555 14.667 32.6573 14.8581V17.1661H35.0159C35.6293 17.1661 36.1417 17.3719 36.5533 17.7834C36.9648 18.195 37.1702 18.7074 37.1693 19.3207V36.3461C37.1693 36.9594 36.9639 37.4719 36.5533 37.8834C36.1426 38.295 35.6297 38.5003 35.0146 38.4994H17.9893ZM17.9893 37.1661H35.0159C35.2204 37.1661 35.4084 37.0807 35.5799 36.9101C35.7515 36.7394 35.8368 36.551 35.8359 36.3447V24.6541H17.1693V36.3461C17.1693 36.5505 17.2546 36.7385 17.4253 36.9101C17.5959 37.0816 17.7839 37.167 17.9893 37.1661ZM17.1693 23.3194H35.8359V19.3194C35.8359 19.115 35.7506 18.927 35.5799 18.7554C35.4093 18.5839 35.2208 18.4985 35.0146 18.4994H17.9906C17.7853 18.4994 17.5968 18.5847 17.4253 18.7554C17.2537 18.9261 17.1684 19.1145 17.1693 19.3207V23.3194Z" fill="black"/>
</svg>
