<svg width="48" height="48" viewBox="0 0 48 48" fill="none" xmlns="http://www.w3.org/2000/svg">
<g clip-path="url(#clip0_2028_7724)">
<path d="M17.8523 24.0071V29.2894M20.4923 26.6494H15.2123M19.5757 18.3477H17.482C15.7946 18.348 14.1666 18.9706 12.9095 20.0961C11.6524 21.2216 10.8544 22.7712 10.6683 24.4482L9.72655 32.9282C9.59285 34.1449 9.89106 35.3698 10.569 36.3888C11.247 37.4078 12.2616 38.1561 13.4355 38.5028C14.6093 38.8495 15.8676 38.7726 16.9905 38.2854C18.1133 37.7983 19.0292 36.932 19.578 35.8379L20.4008 34.1922H27.1917L28.0146 35.8379C28.5633 36.9323 29.4794 37.7989 30.6026 38.2862C31.7257 38.7734 32.9844 38.8502 34.1585 38.5031C35.3325 38.1561 36.3472 37.4073 37.0249 36.3878C37.7027 35.3682 38.0004 34.1428 37.866 32.9259L36.9243 24.4459" stroke="black" stroke-width="2" stroke-linecap="round" stroke-linejoin="round"/>
<path d="M27.7563 27.9684C27.7563 27.818 27.816 27.6739 27.9223 27.5676C28.0286 27.4612 28.1728 27.4015 28.3232 27.4015C28.4735 27.4015 28.6177 27.4612 28.724 27.5676C28.8303 27.6739 28.89 27.818 28.89 27.9684C28.8949 28.0457 28.884 28.1232 28.8577 28.1961C28.8315 28.269 28.7907 28.3358 28.7377 28.3923C28.6846 28.4487 28.6206 28.4938 28.5495 28.5246C28.4784 28.5553 28.4018 28.5712 28.3243 28.5712C28.2468 28.5712 28.1702 28.5553 28.0991 28.5246C28.028 28.4938 27.964 28.4487 27.911 28.3923C27.8579 28.3358 27.8171 28.269 27.7909 28.1961C27.7647 28.1232 27.7537 28.0457 27.7586 27.9684M24.3986 17.1295C23.5963 16.9878 23.5963 15.8381 24.3986 15.6987C25.8186 15.4503 27.1328 14.7852 28.1739 13.7881C29.215 12.7909 29.9361 11.5067 30.2454 10.0987L30.2934 9.87466C30.4672 9.08152 31.5963 9.07466 31.7769 9.86781L31.8363 10.1261C32.1556 11.5287 32.8826 12.8055 33.9258 13.7958C34.969 14.7862 36.2819 15.4459 37.6992 15.6918C38.506 15.8312 38.506 16.9901 37.6992 17.1318C36.2823 17.3782 34.9699 18.038 33.9271 19.0283C32.8844 20.0187 32.1577 21.2953 31.8386 22.6975L31.7792 22.9535C31.5986 23.7444 30.4694 23.7398 30.2957 22.9467L30.25 22.7272C29.9403 21.3186 29.2186 20.0339 28.1766 19.0367C27.1346 18.0395 25.8195 17.3771 24.3986 17.1295Z" stroke="black" stroke-width="1.5" stroke-linecap="round" stroke-linejoin="round"/>
</g>
<defs>
<clipPath id="clip0_2028_7724">
<rect width="32" height="32" fill="white" transform="translate(8 8)"/>
</clipPath>
</defs>
</svg>
