<svg width="42" height="42" viewBox="0 0 42 42" fill="none" xmlns="http://www.w3.org/2000/svg">
<path d="M41.9307 19.6831L40.361 12.6723C40.047 11.2809 38.6866 10.3711 37.2738 10.6922L34.1866 11.4414C33.8203 10.9062 33.4017 10.3711 32.9831 9.83589L34.3436 6.89242C34.9715 5.608 34.3959 4.00247 33.1401 3.36025L26.8088 0.256231C26.1809 -0.0648752 25.5006 -0.0648776 24.8204 0.149193C24.1925 0.363264 23.6693 0.844922 23.3553 1.48713L21.9949 4.37709C21.3146 4.32357 20.6344 4.32357 20.0065 4.37709L18.646 1.48713C18.3321 0.844922 17.8088 0.363264 17.1809 0.149193C16.553 -0.0648776 15.8205 -0.0648752 15.1926 0.256231L8.86126 3.36025C7.60545 4.00247 7.02987 5.55448 7.65777 6.89242L9.01823 9.83589C8.59962 10.3175 8.18103 10.8527 7.81475 11.4414L4.72757 10.6922C3.36712 10.3711 1.95434 11.2809 1.64039 12.6723L0.0706395 19.6831C-0.0863358 20.3789 0.0183116 21.0746 0.384587 21.6633C0.750863 22.252 1.32644 22.6801 2.00667 22.8407L5.1985 23.5899C5.30315 24.2321 5.46012 24.8743 5.6171 25.463L3.05317 27.5502C2.52992 27.9784 2.16364 28.6206 2.11131 29.3163C2.05899 30.012 2.21597 30.7078 2.63457 31.2429L7.02988 36.8623C7.44848 37.3975 8.07638 37.7721 8.7566 37.8256C9.43683 37.8791 10.1171 37.7186 10.6403 37.2905L13.2566 35.1497C13.7798 35.4709 14.3554 35.7384 14.8786 35.9525V39.3776C14.8786 40.8226 16.0298 42 17.4426 42H24.5065C25.9192 42 27.0704 40.8226 27.0704 39.3776V35.9525C27.646 35.7384 28.1692 35.4709 28.6925 35.1497L31.3087 37.2905C31.832 37.7186 32.5122 37.9327 33.1924 37.8256C33.8727 37.7721 34.5005 37.3975 34.9192 36.8623L39.3145 31.2429C40.204 30.1191 39.9947 28.46 38.8959 27.5502L36.3319 25.463C36.4889 24.8208 36.6459 24.2321 36.7505 23.5899L39.9424 22.8407C40.6226 22.6801 41.1982 22.252 41.5644 21.6633C41.983 21.0746 42.0877 20.3789 41.9307 19.6831ZM39.6284 20.3789C39.6284 20.4324 39.5761 20.4859 39.4714 20.4859L34.7098 21.6098L34.6052 22.4661C34.5006 23.4829 34.2389 24.4997 33.925 25.463L33.6633 26.2658L37.5354 29.4233C37.5877 29.4769 37.6401 29.5304 37.6401 29.5839C37.6401 29.6374 37.6401 29.6909 37.5877 29.7445L33.1924 35.3638C33.1401 35.4173 33.0878 35.4708 33.0354 35.4708C32.9831 35.4708 32.9308 35.4708 32.8785 35.4173L29.0064 32.2598L28.3262 32.6879C27.489 33.2231 26.5995 33.6512 25.6576 34.0259L24.8727 34.2935V39.3776C24.8727 39.5382 24.7681 39.6452 24.6111 39.6452H17.5472C17.3902 39.6452 17.2856 39.5382 17.2856 39.3776V34.2935L16.5007 34.0259C15.5589 33.7048 14.6693 33.2231 13.8321 32.6879L13.1519 32.2598L9.27986 35.4173C9.22753 35.4708 9.12288 35.4708 9.12288 35.4708C9.07055 35.4708 9.01822 35.4708 8.9659 35.3638L4.5706 29.7445C4.51827 29.6909 4.51827 29.5839 4.51827 29.5839C4.51827 29.5304 4.51827 29.4769 4.62292 29.4233L8.49498 26.2658L8.23335 25.463C7.9194 24.4997 7.65778 23.4829 7.55313 22.4661L7.23917 21.6098L2.47759 20.4859C2.37294 20.4859 2.37294 20.4324 2.32062 20.3789C2.32062 20.3254 2.26829 20.2718 2.26829 20.2183L3.83804 13.2075C3.89037 13.1005 3.99502 12.9934 4.09967 13.0469L8.80893 14.1708L9.22753 13.4216C9.75078 12.5118 10.431 11.6555 11.1636 10.9062L11.7391 10.3176L9.64613 5.87559C9.59381 5.76855 9.64613 5.608 9.75078 5.55448L16.0821 2.45045C16.1344 2.39694 16.2391 2.45045 16.2914 2.45045C16.3437 2.45045 16.3961 2.50397 16.4484 2.55749L18.5414 6.94594L19.3786 6.8389C20.4251 6.73186 21.4716 6.73186 22.5181 6.8389L23.3553 6.94594L25.4483 2.55749C25.5006 2.50397 25.553 2.45045 25.6053 2.45045H25.8146L32.1459 5.55448C32.2506 5.608 32.3029 5.76855 32.2506 5.87559L30.1576 10.3176L30.7331 10.9062C31.4657 11.6555 32.0936 12.5118 32.6692 13.4216L33.0878 14.1708L37.797 13.0469C37.9017 12.9934 38.0587 13.1005 38.0587 13.2075L39.6284 20.2183C39.6807 20.3253 39.6807 20.3789 39.6284 20.3789Z" fill="#B15252"/>
<path d="M21 13.125C16.6875 13.125 13.125 16.6406 13.125 21C13.125 25.3125 16.6406 28.875 21 28.875C25.3594 28.875 28.875 25.3594 28.875 21C28.8281 16.6875 25.3125 13.125 21 13.125ZM21 26.7656C17.8125 26.7656 15.2344 24.1875 15.2344 21C15.2344 17.8125 17.8125 15.2344 21 15.2344C24.1875 15.2344 26.7656 17.8125 26.7656 21C26.7656 24.1875 24.1875 26.7656 21 26.7656Z" fill="#B15252"/>
</svg>
