<svg width="42" height="42" viewBox="0 0 42 42" fill="none" xmlns="http://www.w3.org/2000/svg">
<path d="M21 37.6256C18.6912 37.6256 16.5282 37.1887 14.511 36.3148C12.4938 35.441 10.7374 34.2557 9.24175 32.7588C7.74608 31.262 6.56075 29.5056 5.68575 27.4896C4.81192 25.4713 4.375 23.3083 4.375 21.0006C4.375 18.6159 4.86383 16.3643 5.8415 14.2456C6.818 12.1258 8.14042 10.2929 9.80875 8.74709C11.4771 7.20125 13.4167 6.02992 15.6275 5.23309C17.8383 4.43625 20.1828 4.16792 22.6608 4.42809C22.9408 4.46542 23.1642 4.58675 23.331 4.79209C23.4978 4.99742 23.5952 5.25 23.6232 5.54984C23.7492 7.70817 24.4983 9.45117 25.8703 10.7788C27.2423 12.1065 29.0605 12.8666 31.325 13.0591C31.6458 13.0883 31.8996 13.2014 32.0862 13.3986C32.2729 13.5958 32.3692 13.8618 32.375 14.1966C32.41 15.5336 32.8382 16.7026 33.6595 17.7036C34.4785 18.7034 35.4894 19.4075 36.6922 19.8158C36.9664 19.9173 37.1904 20.0731 37.3643 20.2831C37.5381 20.4931 37.625 20.7346 37.625 21.0076C37.5492 23.2709 37.0592 25.4147 36.155 27.4388C35.2508 29.463 34.0503 31.2282 32.5535 32.7343C31.0567 34.2405 29.3189 35.4323 27.3403 36.3096C25.3616 37.1869 23.2482 37.6256 21 37.6256ZM21 35.8756C24.7823 35.8756 28.1307 34.5106 31.045 31.7806C33.9582 29.0506 35.5565 25.5873 35.84 21.3908C34.293 20.7725 33.0867 19.8975 32.221 18.7658C31.3553 17.6342 30.8449 16.2715 30.6898 14.6778C28.2864 14.4678 26.2768 13.6063 24.661 12.0931C23.0452 10.5799 22.1602 8.58725 22.0063 6.11509C19.7849 5.96692 17.7083 6.27784 15.7763 7.04784C13.8443 7.81784 12.1637 8.89875 10.7345 10.2906C9.30533 11.6824 8.1795 13.3099 7.357 15.1731C6.5345 17.0363 6.12383 18.9788 6.125 21.0006C6.125 25.1038 7.57808 28.609 10.4843 31.5163C13.3916 34.4225 16.8968 35.8756 21 35.8756ZM18.375 17.1646C19.0143 17.1646 19.5557 16.9371 19.999 16.4821C20.4423 16.0271 20.664 15.4916 20.664 14.8756C20.664 14.2363 20.4423 13.6949 19.999 13.2516C19.5557 12.8083 19.0143 12.5866 18.375 12.5866C17.7578 12.5866 17.2223 12.8083 16.7685 13.2516C16.3135 13.6949 16.086 14.2363 16.086 14.8756C16.086 15.4928 16.3135 16.0283 16.7685 16.4821C17.2235 16.9359 17.759 17.1634 18.375 17.1646ZM14.875 25.9146C15.5143 25.9146 16.0557 25.6871 16.499 25.2321C16.9423 24.7771 17.164 24.2416 17.164 23.6256C17.164 22.9863 16.9423 22.4449 16.499 22.0016C16.0557 21.5583 15.5143 21.3366 14.875 21.3366C14.2578 21.3366 13.7223 21.5583 13.2685 22.0016C12.8135 22.4449 12.586 22.9863 12.586 23.6256C12.586 24.2428 12.8135 24.7783 13.2685 25.2321C13.7235 25.6859 14.259 25.9134 14.875 25.9146ZM26.25 27.6646C26.656 27.6646 26.9932 27.5246 27.2615 27.2446C27.5298 26.9646 27.664 26.6333 27.664 26.2506C27.664 25.8446 27.5298 25.5074 27.2615 25.2391C26.9932 24.9708 26.656 24.8366 26.25 24.8366C25.8662 24.8366 25.5348 24.9708 25.256 25.2391C24.976 25.5074 24.836 25.8446 24.836 26.2506C24.836 26.6344 24.976 26.9658 25.256 27.2446C25.536 27.5234 25.8673 27.6634 26.25 27.6646Z" fill="url(#paint0_linear_6391_10117)"/>
<defs>
<linearGradient id="paint0_linear_6391_10117" x1="21" y1="4.33203" x2="21" y2="43.4255" gradientUnits="userSpaceOnUse">
<stop stop-color="#F4853B"/>
<stop offset="1" stop-color="#3448F5"/>
</linearGradient>
</defs>
</svg>
