<svg width="42" height="42" viewBox="0 0 42 42" fill="none" xmlns="http://www.w3.org/2000/svg">
<path d="M20 29.2383H22V18.1763H20V29.2383ZM21 15.0904C21.3493 15.0904 21.642 14.9749 21.878 14.744C22.1127 14.5131 22.23 14.2274 22.23 13.8869C22.23 13.5451 22.112 13.2588 21.876 13.0278C21.64 12.7969 21.348 12.6821 21 12.6834C20.652 12.6847 20.36 12.8002 20.124 13.0298C19.888 13.2594 19.77 13.5458 19.77 13.8889C19.77 14.232 19.888 14.5177 20.124 14.7459C20.36 14.9742 20.652 15.089 21 15.0904ZM21 38.498C16.9813 37.3305 13.6433 34.949 10.986 31.3536C8.32867 27.7583 7 23.707 7 19.1997V8.61713L21 3.5L35 8.61713V19.1997C35 23.7057 33.6713 27.7563 31.014 31.3517C28.3567 34.947 25.0187 37.3279 21 38.498ZM21 36.4218C24.4667 35.3456 27.3333 33.1931 29.6 29.9643C31.8667 26.7355 33 23.148 33 19.2017V9.95365L21 5.5899L9 9.95365V19.1997C9 23.146 10.1333 26.7335 12.4 29.9623C14.6667 33.1911 17.5333 35.3456 21 36.4218Z" fill="url(#paint0_linear_6391_10088)"/>
<defs>
<linearGradient id="paint0_linear_6391_10088" x1="21" y1="3.5" x2="21" y2="44.5971" gradientUnits="userSpaceOnUse">
<stop stop-color="#F4853B"/>
<stop offset="1" stop-color="#3448F5"/>
</linearGradient>
</defs>
</svg>
