<svg width="42" height="42" viewBox="0 0 42 42" fill="none" xmlns="http://www.w3.org/2000/svg">
<path d="M33.9797 27.498C40.894 18.7305 39.0267 10.0365 34.0602 6.98978C29.3667 4.11103 25.27 5.27128 22.8095 7.11928L21 8.47378M33.9797 27.498C32.3207 29.6033 30.156 31.7103 27.405 33.7455C24.7012 35.7493 23.3485 36.7503 21 36.7503C18.6515 36.7503 17.3005 35.7493 14.595 33.7455C0.388467 23.2315 1.78147 10.768 7.93972 6.98978C12.6332 4.11103 16.73 5.27128 19.1905 7.11928L21 8.47378M33.9797 27.498L24.311 16.529C24.119 16.312 23.8563 16.17 23.5695 16.1284C23.2828 16.0867 22.9905 16.1481 22.7447 16.3015L18.9192 18.692C18.169 19.1666 17.2643 19.3327 16.3945 19.1556C15.5246 18.9784 14.757 18.4717 14.2521 17.7415C13.7473 17.0113 13.5445 16.1141 13.686 15.2378C13.8275 14.3614 14.3025 13.5737 15.0115 13.0395L21 8.47378" stroke="url(#paint0_linear_6391_10102)" stroke-width="2" stroke-linecap="round" stroke-linejoin="round"/>
<defs>
<linearGradient id="paint0_linear_6391_10102" x1="21.0001" y1="5.25" x2="21.0001" y2="42.2378" gradientUnits="userSpaceOnUse">
<stop stop-color="#F4853B"/>
<stop offset="1" stop-color="#3448F5"/>
</linearGradient>
</defs>
</svg>
