<svg width="42" height="42" viewBox="0 0 42 42" fill="none" xmlns="http://www.w3.org/2000/svg">
<g clip-path="url(#clip0_5090_5558)">
<path d="M16.3906 34.5156V36.78C16.3906 39.3237 18.4526 41.3857 20.9964 41.3857C23.5401 41.3857 25.6021 39.3237 25.6021 36.78V34.5156" stroke="#A276E5" stroke-width="2" stroke-miterlimit="10" stroke-linecap="round" stroke-linejoin="round"/>
<path d="M21 4.36018V3.74609" stroke="#A276E5" stroke-width="2" stroke-miterlimit="10" stroke-linecap="round" stroke-linejoin="round"/>
<path d="M27.4141 7.01622L27.8483 6.58203" stroke="#A276E5" stroke-width="2" stroke-miterlimit="10" stroke-linecap="round" stroke-linejoin="round"/>
<path d="M14.5826 7.01631L14.1484 6.58203" stroke="#A276E5" stroke-width="2" stroke-miterlimit="10" stroke-linecap="round" stroke-linejoin="round"/>
<path d="M15.7266 37.3711H26.2657" stroke="#A276E5" stroke-width="2" stroke-miterlimit="10" stroke-linecap="round" stroke-linejoin="round"/>
<path d="M21 34.5165V23.5273" stroke="#A276E5" stroke-width="2" stroke-miterlimit="10" stroke-linecap="round" stroke-linejoin="round"/>
<path d="M23.6871 20.5625C23.6871 22.0488 22.4822 23.2537 20.9959 23.2537C19.5096 23.2537 18.3047 22.0488 18.3047 20.5625" stroke="#A276E5" stroke-width="2" stroke-miterlimit="10" stroke-linecap="round" stroke-linejoin="round"/>
<path d="M13.9922 30.9203V33.0874C13.9922 33.876 14.6315 34.5153 15.42 34.5153H26.5793C27.3679 34.5153 28.0071 33.876 28.0071 33.0874V29.7686C28.0071 27.6005 28.9001 25.5165 30.5066 24.0605C31.3558 23.2907 32.1106 22.4188 32.7528 21.4648" stroke="#A276E5" stroke-width="2" stroke-miterlimit="10" stroke-linecap="round" stroke-linejoin="round"/>
<path d="M33.9168 19.3758C34.5976 17.8631 35.0214 16.2096 35.1306 14.4704C35.1518 14.1335 34.8856 13.8477 34.5479 13.8477H7.45104C7.11339 13.8477 6.8472 14.1335 6.86837 14.4704C7.10683 18.2691 8.8422 21.6615 11.4926 24.0637C12.788 25.2379 13.619 26.8204 13.8925 28.526" stroke="#A276E5" stroke-width="2" stroke-miterlimit="10" stroke-linecap="round" stroke-linejoin="round"/>
<path d="M15.2617 13.8443C15.1224 12.1507 15.7279 10.4073 17.0813 9.14807C17.2333 9.00656 17.392 8.8758 17.5552 8.75391" stroke="#A276E5" stroke-width="2" stroke-miterlimit="10" stroke-linecap="round" stroke-linejoin="round"/>
<path d="M33.7492 13.8457V12.3657C33.7492 12.0185 33.5282 11.7099 33.1995 11.5982L31.5835 11.0487C31.3627 10.9736 31.1849 10.8069 31.0956 10.5915L30.1026 8.19417C30.0134 7.97867 30.0212 7.73512 30.1244 7.52578L30.8785 5.9945C31.0319 5.68311 30.9699 5.30864 30.7245 5.06312L29.3033 3.64193C29.0579 3.39649 28.6833 3.33455 28.3719 3.48787L26.8406 4.24198C26.6314 4.3451 26.3878 4.35297 26.1723 4.26372L23.775 3.27082C23.5595 3.18157 23.3928 3.00372 23.3177 2.78289L22.7682 1.16688C22.6565 0.838262 22.3479 0.617188 22.0007 0.617188H19.9908C19.6436 0.617188 19.335 0.83818 19.2233 1.16688L18.6738 2.78289C18.5986 3.00372 18.432 3.18157 18.2165 3.27082L15.8193 4.2638C15.6038 4.35305 15.3602 4.34518 15.1509 4.24207L13.6196 3.48795C13.3082 3.33455 12.9336 3.39649 12.6882 3.64193L11.267 5.0632C11.0216 5.30864 10.9596 5.68311 11.113 5.99458L11.8671 7.52586C11.9702 7.73512 11.9781 7.97867 11.8888 8.19425L10.8958 10.5915C10.8066 10.807 10.6287 10.9737 10.4079 11.0488L8.79188 11.5983C8.46326 11.71 8.24219 12.0186 8.24219 12.3658V13.8458" stroke="#A276E5" stroke-width="2" stroke-miterlimit="10" stroke-linecap="round" stroke-linejoin="round"/>
<path d="M19.7188 7.76014C21.5224 7.35286 23.4883 7.81576 24.9222 9.15C26.2756 10.4093 26.8811 12.1526 26.7418 13.8462" stroke="#A276E5" stroke-width="2" stroke-miterlimit="10" stroke-linecap="round" stroke-linejoin="round"/>
</g>
<defs>
<clipPath id="clip0_5090_5558">
<rect width="42" height="42" fill="white"/>
</clipPath>
</defs>
</svg>
