<svg width="43" height="44" viewBox="0 0 43 44" fill="none" xmlns="http://www.w3.org/2000/svg">
<path d="M22.0107 0.75C24.9686 0.75 27.8382 1.74157 30.1387 3.56055C32.4392 5.37961 34.032 7.91678 34.6494 10.7471C35.2667 13.5773 34.8706 16.5286 33.5283 19.1074C32.286 21.4942 30.3023 23.4257 27.8721 24.6348C31.5237 25.8088 34.7259 28.0499 37.041 31.0635C39.4875 34.2482 40.8107 38.1231 40.8105 42.1064C40.8105 42.4116 40.6867 42.703 40.4678 42.917C40.249 43.1308 39.9535 43.25 39.6465 43.25C39.3395 43.25 39.044 43.1308 38.8252 42.917C38.6062 42.703 38.4824 42.4116 38.4824 42.1064C38.4824 39.9951 38.0566 37.9041 37.2295 35.9531C36.4023 34.002 35.1892 32.2283 33.6602 30.7344C32.131 29.2405 30.315 28.0549 28.3164 27.2461C26.3176 26.4372 24.1746 26.0205 22.0107 26.0205C19.847 26.0205 17.7048 26.4373 15.7061 27.2461C13.7073 28.055 11.8915 29.2404 10.3623 30.7344C8.8331 32.2284 7.62024 34.0019 6.79297 35.9531C5.96582 37.9042 5.54006 39.995 5.54004 42.1064C5.54004 42.4116 5.41529 42.703 5.19629 42.917C4.9775 43.1307 4.68191 43.25 4.375 43.25C4.06816 43.2499 3.77242 43.1307 3.55371 42.917C3.33487 42.7031 3.21094 42.4115 3.21094 42.1064C3.2108 38.1231 4.53406 34.2482 6.98047 31.0635C9.29527 28.0502 12.4973 25.8089 16.1484 24.6348C13.7187 23.4257 11.7353 21.4938 10.4932 19.1074C9.15097 16.5286 8.75575 13.5773 9.37305 10.7471C9.99047 7.91673 11.5832 5.37962 13.8838 3.56055C16.1842 1.74172 19.053 0.750043 22.0107 0.75ZM11.4248 13.4502L11.4189 13.458C11.4384 16.1745 12.5502 18.7772 14.5195 20.7012C16.5054 22.6413 19.1999 23.7322 22.0107 23.7334C24.107 23.7347 26.1565 23.1292 27.8994 21.9932C29.6422 20.8572 31.0003 19.2422 31.8027 17.3535C32.6051 15.465 32.8158 13.3862 32.4092 11.3809C32.0025 9.37558 30.9962 7.53192 29.5166 6.08398C28.0369 4.636 26.1501 3.64836 24.0947 3.24707C22.0394 2.84581 19.9085 3.04942 17.9717 3.83105C16.0348 4.61275 14.3788 5.93716 13.2139 7.63672C12.049 9.3362 11.4271 11.3348 11.4248 13.3789V13.4502Z" fill="#A276E5" stroke="#A276E5" stroke-width="0.5"/>
<path d="M24.8828 29.4512C25.0498 29.442 25.2179 29.4618 25.377 29.5098C25.536 29.5578 25.6843 29.634 25.8125 29.7344C25.9384 29.833 26.0429 29.9541 26.1182 30.0918L29.4473 35.8369L29.4902 35.9199C29.5824 36.117 29.6117 36.3351 29.5713 36.5498C29.5252 36.7945 29.3926 37.0143 29.2002 37.1807L22.5459 42.9248C22.4253 43.029 22.284 43.1102 22.1309 43.165C21.9777 43.2198 21.8145 43.248 21.6504 43.248C21.4863 43.248 21.3231 43.2198 21.1699 43.165C21.0167 43.1102 20.8746 43.029 20.7539 42.9248L14.1006 37.1807C13.9081 37.0143 13.7746 36.7945 13.7285 36.5498C13.6824 36.3046 13.727 36.0545 13.8525 35.8369H13.8535L17.1816 30.0918C17.2569 29.9541 17.3614 29.8331 17.4873 29.7344C17.6155 29.634 17.7638 29.5578 17.9229 29.5098C18.0819 29.4617 18.25 29.442 18.417 29.4512C18.584 29.4604 18.7487 29.4989 18.9004 29.5645C19.0519 29.63 19.1891 29.722 19.3027 29.8369C19.4165 29.9521 19.5049 30.0887 19.5596 30.2383C19.6142 30.3878 19.6335 30.5464 19.6162 30.7041C19.5992 30.8591 19.5463 31.0076 19.4639 31.1416L16.5742 36.1309L21.6494 40.5088L26.7256 36.1309L23.8359 31.1426V31.1416C23.7536 31.0076 23.7006 30.859 23.6836 30.7041C23.6663 30.5464 23.6866 30.3878 23.7412 30.2383C23.7959 30.0887 23.8833 29.9521 23.9971 29.8369C24.1108 29.7218 24.2486 29.63 24.4004 29.5645C24.552 29.499 24.7159 29.4604 24.8828 29.4512Z" fill="#A276E5" stroke="#A276E5" stroke-width="0.5"/>
</svg>
