<svg width="43" height="42" viewBox="0 0 43 42" fill="none" xmlns="http://www.w3.org/2000/svg">
<g clip-path="url(#clip0_5090_5589)">
<path d="M37.0858 2.13281H5.58581C2.68767 2.13589 0.339014 4.48455 0.335938 7.38307V34.6829C0.339014 37.5811 2.68767 39.9297 5.58581 39.9328H37.0858C39.9843 39.9297 42.333 37.5811 42.3361 34.6829V7.38307C42.333 4.48455 39.9843 2.13589 37.0858 2.13281ZM5.58581 4.23307H37.0858C38.825 4.23499 40.2339 5.64388 40.2358 7.38307V8.43281H2.43581V7.38307C2.43773 5.64388 3.847 4.23499 5.58581 4.23307ZM37.0858 37.8329H5.58581C3.847 37.831 2.43773 36.4217 2.43581 34.6829V10.5331H40.2358V34.6829C40.2339 36.4217 38.825 37.831 37.0858 37.8329Z" fill="#A276E5"/>
<path d="M34.9828 15.7835H21.3327V14.7333C21.3331 14.4549 21.2223 14.1877 21.0255 13.9908C20.8286 13.794 20.5613 13.6832 20.2829 13.6836H16.0828C15.8044 13.6832 15.5372 13.794 15.3403 13.9908C15.143 14.1877 15.0327 14.4549 15.0327 14.7333V15.7835H7.68294C7.10308 15.7835 6.63281 16.2537 6.63281 16.8336C6.63281 17.4135 7.10308 17.8833 7.68294 17.8833H15.0327V18.9335C15.0327 19.2119 15.143 19.4791 15.3403 19.676C15.5372 19.8732 15.8044 19.9836 16.0828 19.9836H20.2829C20.5613 19.9836 20.8286 19.8732 21.0255 19.676C21.2223 19.4791 21.3331 19.2119 21.3327 18.9335V17.8833H34.9828C35.5627 17.8833 36.0329 17.4135 36.0329 16.8336C36.0329 16.2537 35.5627 15.7835 34.9828 15.7835ZM19.2328 17.8833H17.1329V15.7835H19.2328V17.8833Z" fill="#A276E5"/>
<path d="M34.9828 23.1315H29.7329V22.0814C29.7329 21.803 29.6226 21.5357 29.4253 21.3389C29.2284 21.1416 28.9612 21.0312 28.6828 21.0312H24.4827C24.2043 21.0312 23.937 21.1416 23.7402 21.3389C23.5433 21.5357 23.4326 21.803 23.4329 22.0814V23.1315H7.68294C7.10308 23.1315 6.63281 23.6014 6.63281 24.1812C6.63281 24.7611 7.10308 25.2314 7.68294 25.2314H23.4329V26.2815C23.4326 26.5599 23.5433 26.8271 23.7402 27.024C23.937 27.2209 24.2043 27.3316 24.4827 27.3312H28.6828C28.9612 27.3316 29.2284 27.2209 29.4253 27.024C29.6226 26.8271 29.7329 26.5599 29.7329 26.2815V25.2314H34.9828C35.5627 25.2314 36.0329 24.7611 36.0329 24.1812C36.0329 23.6014 35.5627 23.1315 34.9828 23.1315ZM27.6327 25.2314H25.5328V23.1315H27.6327V25.2314Z" fill="#A276E5"/>
<path d="M34.9828 30.4827H21.3327V29.4329C21.3331 29.1542 21.2223 28.8873 21.0255 28.69C20.8286 28.4932 20.5613 28.3828 20.2829 28.3828H16.0828C15.8044 28.3828 15.5372 28.4932 15.3403 28.69C15.143 28.8873 15.0327 29.1542 15.0327 29.4329V30.4827H7.68294C7.10308 30.4827 6.63281 30.953 6.63281 31.5328C6.63281 32.1127 7.10308 32.5829 7.68294 32.5829H15.0327V33.6327C15.0327 33.9115 15.143 34.1783 15.3403 34.3756C15.5372 34.5725 15.8044 34.6828 16.0828 34.6828H20.2829C20.5613 34.6828 20.8286 34.5725 21.0255 34.3756C21.2223 34.1783 21.3331 33.9115 21.3327 33.6327V32.5829H34.9828C35.5627 32.5829 36.0329 32.1127 36.0329 31.5328C36.0329 30.953 35.5627 30.4827 34.9828 30.4827ZM19.2328 32.5829H17.1329V30.4827H19.2328V32.5829Z" fill="#A276E5"/>
</g>
<defs>
<clipPath id="clip0_5090_5589">
<rect width="42" height="42" fill="white" transform="translate(0.335938)"/>
</clipPath>
</defs>
</svg>
