<svg width="42" height="42" viewBox="0 0 42 42" fill="none" xmlns="http://www.w3.org/2000/svg">
<path d="M31.6787 2.75781C32.3372 2.80478 32.9585 3.06982 33.4297 3.50879C33.9013 3.94829 34.1918 4.5336 34.2422 5.16016C34.2926 5.78685 34.0996 6.40756 33.7021 6.90918C33.3052 7.41018 32.7312 7.75874 32.0869 7.89648C31.5001 8.02186 30.8871 7.9633 30.3389 7.73535L27.7158 10.1826L27.7148 10.1836C27.4108 10.4652 27.1707 10.799 27.0068 11.165C26.8431 11.5309 26.7585 11.9223 26.7578 12.3174V16.2988C26.7578 16.4263 26.7307 16.5522 26.6787 16.6689C26.6268 16.7856 26.551 16.8901 26.457 16.9775C26.3631 17.0649 26.2523 17.1333 26.1318 17.1797C26.0115 17.226 25.8832 17.25 25.7539 17.25C25.6245 17.25 25.4954 17.2261 25.375 17.1797C25.2548 17.1333 25.1446 17.0648 25.0508 16.9775C24.9568 16.8901 24.881 16.7856 24.8291 16.6689C24.7772 16.5522 24.75 16.4263 24.75 16.2988V12.3164C24.751 11.6658 24.89 11.0224 25.1582 10.4229C25.4264 9.82339 25.8181 9.27967 26.3105 8.82324L28.916 6.39258C28.6794 5.88188 28.6208 5.3116 28.7568 4.76465C28.9089 4.15347 29.291 3.61732 29.8271 3.25098C30.3631 2.88486 31.02 2.71091 31.6787 2.75781ZM31.4619 4.65234C31.2531 4.65624 31.0577 4.73642 30.916 4.87012C30.7741 5.0041 30.6974 5.18042 30.6973 5.36035C30.6973 5.54043 30.774 5.71747 30.916 5.85156C31.0577 5.98522 31.2531 6.06446 31.4619 6.06836C31.6713 6.06481 31.8678 5.98562 32.0098 5.85156C32.1517 5.71748 32.2275 5.54038 32.2275 5.36035C32.2274 5.18049 32.1516 5.00409 32.0098 4.87012C31.8678 4.73604 31.6714 4.65589 31.4619 4.65234Z" fill="#A276E5" stroke="#A276E5" stroke-width="0.5"/>
<path d="M21.5 0.75C22.152 0.75 22.7851 0.965123 23.2842 1.36035C23.7838 1.75608 24.1171 2.30774 24.2178 2.91699C24.3185 3.52658 24.1791 4.14796 23.8271 4.66699C23.5102 5.13438 23.0405 5.4877 22.4941 5.68457V17.333C22.4886 17.5847 22.3761 17.8197 22.1885 17.9893C22.0014 18.1582 21.7541 18.25 21.5 18.25C21.2459 18.25 20.9986 18.1582 20.8115 17.9893C20.6239 17.8197 20.5114 17.5847 20.5059 17.333V5.68457C19.9595 5.4877 19.4898 5.13438 19.1729 4.66699C18.8209 4.14796 18.6815 3.52658 18.7822 2.91699C18.8829 2.30774 19.2162 1.75608 19.7158 1.36035C20.2149 0.965123 20.848 0.75 21.5 0.75ZM21.5 2.62207C21.2937 2.62532 21.1003 2.70379 20.9609 2.83398C20.8218 2.96414 20.7481 3.13509 20.748 3.30859C20.748 3.48225 20.8216 3.65396 20.9609 3.78418C21.1003 3.91433 21.2937 3.99088 21.5 3.99414C21.7063 3.99087 21.8997 3.91433 22.0391 3.78418C22.1785 3.65396 22.2519 3.48225 22.252 3.30859C22.2519 3.1351 22.1782 2.96414 22.0391 2.83398C21.8997 2.70379 21.7063 2.62533 21.5 2.62207Z" fill="#A276E5" stroke="#A276E5" stroke-width="0.5"/>
<path d="M11.5059 2.76367C12.0527 2.82182 12.5648 3.06568 12.9639 3.45605C13.3627 3.84623 13.6268 4.36115 13.7188 4.9209C13.801 5.42168 13.7395 5.93481 13.5469 6.39941L15.8701 8.8418H15.8691C16.7528 9.76651 17.2484 11.0189 17.25 12.3232V16.3125C17.2464 16.5585 17.1508 16.7955 16.9805 16.9717C16.8095 17.1484 16.5763 17.25 16.3311 17.25C16.0858 17.25 15.8526 17.1484 15.6816 16.9717C15.5112 16.7955 15.4157 16.5586 15.4121 16.3125V12.3242L15.3975 12.0244C15.3309 11.3289 15.0368 10.677 14.5635 10.1816V10.1807L12.2529 7.75098C11.989 7.87345 11.7069 7.94805 11.418 7.96875L11.2656 7.97461C10.7159 7.97761 10.1821 7.7916 9.74512 7.44727C9.30837 7.10308 8.99286 6.62 8.84473 6.07324C8.69675 5.52675 8.72259 4.94457 8.91992 4.41504C9.11741 3.88522 9.47655 3.43495 9.94336 3.13574C10.4103 2.8366 10.9592 2.70559 11.5059 2.76367ZM11.2637 4.65332C11.0947 4.65713 10.9311 4.73002 10.8086 4.86035C10.6847 4.99222 10.6133 5.17242 10.6133 5.3623C10.6133 5.55221 10.6847 5.73235 10.8086 5.86426C10.9311 5.99466 11.0946 6.06649 11.2637 6.07031C11.4332 6.06687 11.5969 5.99494 11.7197 5.86426C11.8437 5.73234 11.916 5.55232 11.916 5.3623C11.916 5.17237 11.8437 4.99223 11.7197 4.86035C11.5969 4.72979 11.4331 4.65676 11.2637 4.65332Z" fill="#A276E5" stroke="#A276E5" stroke-width="0.5"/>
<path d="M3.80078 35.6025C4.00541 36.3376 4.43724 36.9984 5.04395 37.4922C5.73148 38.0517 6.59983 38.3622 7.49902 38.3682H34.502C35.4021 38.3671 36.2727 38.0582 36.9609 37.498C37.5687 37.0033 37.9994 36.34 38.2002 35.6025H24.6641C24.4866 36.0069 24.1991 36.3571 23.8311 36.6133C23.4133 36.904 22.9128 37.0599 22.4004 37.0605H19.5996C19.0872 37.0599 18.5867 36.904 18.1689 36.6133C17.8009 36.3571 17.5134 36.0069 17.3359 35.6025H3.80078ZM38.4873 33.7207H39.2881C39.4134 33.7206 39.5381 33.7443 39.6543 33.791C39.7703 33.8377 39.8763 33.9063 39.9658 33.9932C40.0554 34.0802 40.1269 34.1842 40.1758 34.2988C40.2247 34.4136 40.2501 34.5374 40.25 34.6621C40.2483 36.146 39.6407 37.5673 38.5625 38.6143C37.4846 39.661 36.0243 40.2483 34.5029 40.25H7.49707C5.97686 40.2454 4.51862 39.6571 3.44141 38.6113C2.43122 37.6304 1.83253 36.3212 1.75781 34.9395L1.75 34.6621C1.74993 34.5374 1.7753 34.4136 1.82422 34.2988C1.87313 34.1842 1.94457 34.0802 2.03418 33.9932C2.12372 33.9062 2.22969 33.8377 2.3457 33.791C2.46189 33.7443 2.58659 33.7206 2.71191 33.7207H3.5127V13.8496L3.53418 13.6328C3.60948 13.1318 3.86045 12.6695 4.24609 12.3262C4.68406 11.9364 5.26084 11.7323 5.85156 11.7529V11.752H10.1699C10.4202 11.7556 10.661 11.854 10.8389 12.0293C11.0169 12.2047 11.1181 12.4429 11.1182 12.6924C11.1182 12.9418 11.0167 13.18 10.8389 13.3555C10.661 13.5307 10.4202 13.6302 10.1699 13.6338H5.85156C5.71968 13.6338 5.60505 13.6742 5.5293 13.7285C5.45191 13.784 5.43566 13.8357 5.43555 13.8613V33.7207H18.0996L18.1934 33.7246C18.2864 33.7335 18.3779 33.7561 18.4648 33.791C18.581 33.8377 18.6877 33.9061 18.7773 33.9932C18.867 34.0802 18.9384 34.1841 18.9873 34.2988C19.0361 34.4134 19.0615 34.5367 19.0615 34.6611L19.0713 34.7607C19.0915 34.859 19.1415 34.9512 19.2168 35.0244C19.3173 35.122 19.4553 35.1785 19.6006 35.1787H22.3994L22.5068 35.168C22.6115 35.1474 22.7079 35.0975 22.7832 35.0244C22.8835 34.9269 22.9384 34.7957 22.9385 34.6611C22.9385 34.5367 22.9639 34.4134 23.0127 34.2988C23.0616 34.1841 23.133 34.0802 23.2227 33.9932C23.3123 33.9061 23.419 33.8377 23.5352 33.791C23.6512 33.7444 23.7752 33.7206 23.9004 33.7207H36.5645V13.8613C36.5643 13.8357 36.5481 13.784 36.4707 13.7285C36.3949 13.6742 36.2803 13.6338 36.1484 13.6338H31.833C31.5804 13.6337 31.337 13.5359 31.1562 13.3604C30.9752 13.1845 30.8721 12.9444 30.8721 12.6924C30.8722 12.4405 30.9752 12.2002 31.1562 12.0244C31.337 11.849 31.5805 11.7521 31.833 11.752H36.1484V11.7529C36.7392 11.7323 37.3159 11.9364 37.7539 12.3262C38.1946 12.7185 38.4594 13.2661 38.4873 13.8496V33.7207Z" fill="#A276E5" stroke="#A276E5" stroke-width="0.5"/>
</svg>
