<svg width="43" height="42" viewBox="0 0 43 42" fill="none" xmlns="http://www.w3.org/2000/svg">
<g clip-path="url(#clip0_5090_5612)">
<path d="M34.1836 2.14258C34.6999 2.03872 35.179 2.39352 35.2725 2.90332C35.3658 3.41202 35.0436 3.91526 34.5332 4.01465C33.2535 4.2654 32.0022 4.40096 30.8027 4.53027C29.1054 4.71274 27.371 4.90081 25.5312 5.41113C25.0037 5.55767 24.6181 5.92374 24.335 6.42188C24.0502 6.92314 23.8776 7.54415 23.7773 8.16309C23.5798 9.38248 23.6716 10.5322 23.6758 10.583C23.722 11.098 23.3552 11.5693 22.8369 11.6191L22.8379 11.6201C22.8115 11.6227 22.7815 11.625 22.749 11.625C22.2672 11.625 21.8688 11.2475 21.8242 10.7607C21.812 10.6286 21.684 9.11551 22.0107 7.50293C22.3353 5.90144 23.1314 4.1019 25.0449 3.57031C27.0334 3.01804 28.8615 2.82221 30.6084 2.63379C31.8364 2.50137 32.9851 2.37816 34.1836 2.14355V2.14258Z" fill="#A276E5" stroke="#A276E5" stroke-width="0.5"/>
<path d="M14.1562 26.752C14.7703 26.7627 15.3595 26.954 15.8594 27.3066H15.8604C16.5007 27.7633 16.9265 28.4225 17.0557 29.168C17.2526 30.2459 16.7752 31.3734 15.8682 32.0439L15.6816 32.1719C15.607 32.2188 15.5255 32.2537 15.4424 32.2783L15.4434 32.2793L14.6406 32.5186C14.3605 32.6035 14.079 32.6898 13.7949 32.7725L13.7939 32.7715L10.8096 33.6738C10.5124 33.764 10.214 33.8523 9.91504 33.9404L9.91602 33.9414C9.82586 33.9683 9.73479 33.9805 9.64551 33.9805H9.39551V33.9434C9.08767 33.8588 8.82816 33.6245 8.73145 33.2959C8.58278 32.7908 8.87177 32.261 9.37695 32.1123L10.2568 31.8486L13.252 30.9443H13.2539C13.5348 30.8617 13.8108 30.778 14.0879 30.6943H14.0889L14.75 30.4951C15.0817 30.2426 15.2432 29.8513 15.1797 29.5029L15.1787 29.5C15.1361 29.2543 14.9923 29.0287 14.7568 28.8613C14.5751 28.7335 14.3557 28.6617 14.125 28.6582H14.123C13.4367 28.6444 12.964 28.6708 12.3672 28.7432C11.7397 28.8195 10.9921 28.9504 9.74023 29.1709H9.73926C9.15238 29.2735 8.45994 29.3953 7.62695 29.5381H7.62598L7.06543 29.6328H7.06445C6.76672 29.6821 6.48531 29.7286 6.2207 29.7773H6.21973C5.70031 29.8711 5.20663 29.5304 5.11035 29.0137C5.01418 28.496 5.35591 27.9986 5.87305 27.9023H5.87402C6.15249 27.8513 6.44598 27.8025 6.75195 27.752L7.30566 27.6592L9.41016 27.293C10.6801 27.0699 11.4566 26.9331 12.1377 26.8506C12.6508 26.7888 13.0996 26.7589 13.6143 26.752H14.1562Z" fill="#A276E5" stroke="#A276E5" stroke-width="0.5"/>
<path d="M19.2471 28.9951L19.2461 28.9961C19.7717 29.0373 20.1619 29.4964 20.1211 30.0205C20.0297 31.1701 19.8584 32.7441 19.5459 34.1221C19.3898 34.8105 19.1963 35.4601 18.9551 35.9863C18.7179 36.5037 18.4157 36.9439 18.0195 37.1582C17.5953 37.3877 16.8806 37.5662 15.917 37.7383C14.9428 37.9122 13.6781 38.0852 12.1299 38.29C10.6311 38.4879 9.09127 38.6905 7.92676 38.9111L7.92773 38.9121C7.8661 38.9238 7.80624 38.9287 7.74902 38.9287C7.32833 38.9287 6.94949 38.649 6.83301 38.2363L6.81348 38.1523C6.71549 37.6359 7.05554 37.1366 7.57227 37.0391L8.54785 36.8701C9.57611 36.7048 10.7452 36.5495 11.8799 36.3994C12.933 36.2601 14.1098 36.1043 15.0977 35.9434C15.5917 35.8628 16.0357 35.7817 16.3906 35.7012C16.73 35.6242 16.9636 35.5508 17.0869 35.4912C17.1039 35.4724 17.137 35.4314 17.1787 35.3506C17.2291 35.2528 17.2844 35.1205 17.3418 34.9541C17.4565 34.6215 17.5747 34.1743 17.6875 33.6465C17.9128 32.5919 18.1121 31.2347 18.2207 29.8691C18.2627 29.345 18.7197 28.9522 19.2471 28.9951Z" fill="#A276E5" stroke="#A276E5" stroke-width="0.5"/>
<path d="M4.27246 27.1133C5.61626 26.8714 6.8995 27.7696 7.13965 29.1104L8.65918 37.5977C8.89941 38.9389 8.0032 40.2246 6.66211 40.4648L5.1748 40.7305L5.17578 40.7314C5.1022 40.7448 5.02886 40.7543 4.95605 40.7607L4.73828 40.7705C3.56542 40.7705 2.5213 39.9296 2.30762 38.7344L0.789062 30.2461C0.673501 29.5976 0.816532 28.9405 1.19336 28.3994C1.57015 27.8585 2.13649 27.4954 2.78516 27.3789H2.78613L4.27246 27.1133ZM4.60742 28.9893L3.36621 29.21L3.36719 29.2119L3.12109 29.2559C2.97139 29.283 2.84309 29.3655 2.75684 29.4893C2.69211 29.5823 2.6581 29.6889 2.65625 29.7988L2.66504 29.9102L4.18359 38.3975C4.21058 38.5466 4.29301 38.6753 4.41699 38.7617L4.51367 38.8154C4.61377 38.8591 4.72477 38.8728 4.83789 38.8535L6.3252 38.5879C6.59262 38.5402 6.7833 38.3089 6.79004 38.0469L6.78125 37.9336L5.2627 29.4453C5.21508 29.1788 4.98221 28.9886 4.7207 28.9814L4.60742 28.9893Z" fill="#A276E5" stroke="#A276E5" stroke-width="0.5"/>
<path d="M22.7471 26.3047C23.1779 25.9999 23.7836 26.0907 24.1006 26.5117C24.4212 26.9376 24.3223 27.5346 23.8857 27.8418L23.8867 27.8428L16.5859 32.9932C16.0546 33.3657 15.4503 33.5702 14.8418 33.6143V33.625H14.5918C13.7025 33.625 12.8219 33.2839 12.1602 32.624L12.0303 32.4873C11.6732 32.0901 11.7183 31.4873 12.126 31.1436C12.5297 30.8035 13.1386 30.8446 13.4912 31.2354H13.4922C13.9926 31.7912 14.8332 31.8869 15.4492 31.4551L22.7471 26.3057V26.3047Z" fill="#A276E5" stroke="#A276E5" stroke-width="0.5"/>
<path d="M14.8271 15.3066C15.24 14.9977 15.8168 15.0935 16.1143 15.5137C16.4082 15.929 16.3234 16.513 15.9141 16.8193L15.9131 16.8184L9.17383 21.8779V21.8789C8.88592 22.0941 8.69641 22.411 8.64062 22.7754C8.58486 23.1407 8.67042 23.5041 8.87988 23.8008L11.2129 27.1006H11.2119C11.3389 27.2614 11.4169 27.4646 11.417 27.6865C11.417 28.1956 11.0177 28.625 10.502 28.625H10.4951C10.1982 28.6249 9.92283 28.4786 9.75098 28.2363V28.2354L7.39062 24.8984C6.36941 23.4514 6.67879 21.4186 8.08789 20.3652L14.8271 15.3066Z" fill="#A276E5" stroke="#A276E5" stroke-width="0.5"/>
<path d="M26.043 7.74414C26.7421 7.23565 27.5983 7.03165 28.4482 7.16504C29.3007 7.2993 30.0515 7.75851 30.5586 8.45605H30.5576L30.9463 8.98828C31.1256 9.23391 31.1742 9.55121 31.0771 9.83887C30.9797 10.1274 30.747 10.3487 30.4561 10.4346L30.457 10.4355L28.1494 11.1279C27.9043 11.2019 27.6583 11.276 27.4102 11.3496C27.1321 11.5663 26.981 11.8814 26.9863 12.1777L26.999 12.3076L27 12.3125C27.0375 12.541 27.176 12.7613 27.4131 12.9355C27.5834 13.0553 27.7957 13.1255 28.0176 13.1289C28.7113 13.1377 29.1732 13.1135 29.7324 13.0459C30.316 12.9757 31.0292 12.8506 32.124 12.6592H32.125L32.8867 12.5264C33.194 12.4733 33.5037 12.5768 33.7168 12.7959L33.8018 12.8975L35.6699 15.4639L35.7617 15.5967C36.2023 16.2693 36.3746 17.0714 36.249 17.8721C36.1149 18.7264 35.6557 19.4791 34.958 19.9863L26.0889 26.4453V26.4463C25.9236 26.5661 25.7304 26.625 25.5391 26.625H25.2891V26.5879C25.0933 26.5335 24.9133 26.4166 24.7842 26.2402V26.2393L23.21 24.0811C22.5166 24.3755 21.7557 24.4737 20.9951 24.3545C19.9197 24.1853 18.974 23.6036 18.335 22.7197V22.7188C17.2034 21.1682 17.3375 19.0722 18.542 17.6689L16.9688 15.5098C16.823 15.3098 16.7615 15.0593 16.7998 14.8145C16.8382 14.5694 16.9731 14.3497 17.1729 14.2041L26.042 7.74414H26.043ZM19.0283 15.1631L20.5381 17.2344C20.8416 17.6509 20.7514 18.2345 20.335 18.5391C19.3499 19.2596 19.1326 20.6424 19.8467 21.6201L19.8477 21.6211C20.1955 22.1025 20.7055 22.4153 21.2861 22.5068L21.5039 22.5303C22.0117 22.5596 22.5101 22.4141 22.9277 22.1084C23.089 21.9903 23.2823 21.9288 23.4785 21.9287C23.5263 21.9287 23.5753 21.932 23.623 21.9395C23.8677 21.9777 24.0875 22.1126 24.2334 22.3125H24.2344L25.7432 24.3838L33.8574 18.4736H33.8584C34.1526 18.2597 34.3455 17.9443 34.4023 17.582C34.4521 17.2648 34.3918 16.9486 34.2324 16.6768L34.1582 16.5635L32.6328 14.4678L32.4453 14.501C31.3346 14.6955 30.5912 14.8251 29.9541 14.9014C29.3044 14.9788 28.7663 15.004 27.9932 14.9971H27.9912C27.3911 14.9874 26.8175 14.8007 26.3291 14.458L26.3252 14.4551C25.6917 13.9933 25.2747 13.3487 25.1562 12.627V12.626C24.9857 11.6783 25.3574 10.6868 26.0879 10.0215L19.0283 15.1631ZM28.1572 9.00977C27.7976 8.95368 27.4376 9.03947 27.1426 9.25391L26.5859 9.6582C26.6333 9.63503 26.6827 9.61478 26.7344 9.59961H26.7354C27.0286 9.51456 27.3177 9.42661 27.6084 9.33887H27.6094L28.4385 9.08887C28.4105 9.07801 28.3833 9.06469 28.3545 9.05566L28.1572 9.00977Z" fill="#A276E5" stroke="#A276E5" stroke-width="0.5"/>
<path d="M32.9365 7.58105C33.4422 7.43475 33.9703 7.72288 34.1182 8.22852C34.2568 8.7024 34.0107 9.19666 33.5635 9.37891L33.4717 9.41113C32.8987 9.57874 32.3257 9.75266 31.752 9.92773L31.748 9.92871L31.6357 9.95996L31.6367 9.96094C31.5071 9.99888 31.3828 10.0349 31.2627 10.0752L31.2549 10.0771L28.8594 10.7969C28.6078 10.8728 28.3553 10.9479 28.1006 11.0234C27.7691 11.2805 27.6105 11.6731 27.6729 12.0166L27.6738 12.0205C27.7126 12.2576 27.8564 12.486 28.1016 12.666L28.2412 12.749C28.3881 12.8218 28.5543 12.8626 28.7256 12.8652C29.4352 12.8735 29.9142 12.8491 30.4893 12.7803C31.0872 12.7081 31.8159 12.581 32.9336 12.3857L35.8369 11.8818H35.8389C36.1152 11.8361 36.3757 11.792 36.623 11.7441C37.1412 11.6443 37.6392 11.9828 37.7393 12.499C37.8393 13.0157 37.5016 13.516 36.9854 13.6162H36.9844C36.7184 13.6674 36.4409 13.713 36.1523 13.7607L36.1533 13.7617L33.2607 14.2637L33.2617 14.2646C32.1266 14.4632 31.3672 14.5955 30.7148 14.6738C30.1549 14.7409 29.6782 14.7686 29.0654 14.7715L29.0635 14.7744H28.96C28.8774 14.7744 28.7897 14.7749 28.6982 14.7734H28.6973C28.0829 14.7634 27.4947 14.5719 26.9932 14.2197L26.9902 14.2178C26.3406 13.7442 25.9133 13.0826 25.792 12.3428L25.793 12.3418C25.5884 11.2048 26.1431 10.005 27.1611 9.35352L27.1631 9.35254C27.2384 9.30512 27.3204 9.26703 27.4082 9.24121L27.4092 9.24023C27.7106 9.15282 28.008 9.06283 28.3066 8.97266H28.3076L30.6885 8.25781C30.8132 8.21562 30.964 8.17157 31.1045 8.13086L31.2061 8.10156C31.776 7.9275 32.3556 7.75068 32.9355 7.58105H32.9365Z" fill="#A276E5" stroke="#A276E5" stroke-width="0.5"/>
<path d="M37.6787 0.789062C39.0218 0.547213 40.3057 1.44537 40.5459 2.78613L42.0654 11.2734L42.0967 11.5244C42.1907 12.7716 41.325 13.9154 40.0684 14.1406L38.5811 14.4062L38.582 14.4072C38.5085 14.4205 38.4351 14.4301 38.3623 14.4365L38.1445 14.4463C36.9717 14.4463 35.9275 13.6054 35.7139 12.4102L34.1953 3.92188C34.0798 3.27336 34.2228 2.61624 34.5996 2.0752C34.9764 1.53424 35.5427 1.1712 36.1914 1.05469H36.1924L37.6787 0.789062ZM38.0137 2.66504L38.0146 2.66602L36.5273 2.93164C36.3776 2.95874 36.2493 3.04126 36.1631 3.16504C36.0984 3.25803 36.0644 3.36465 36.0625 3.47461L36.0713 3.58594L37.5898 12.0742C37.6443 12.3797 37.9365 12.5845 38.2441 12.5303L39.7314 12.2646C39.9985 12.217 40.1892 11.9859 40.1963 11.7236L40.1875 11.6094L38.6689 3.12207C38.6203 2.84975 38.3828 2.65745 38.1152 2.65723C38.083 2.65723 38.0483 2.65904 38.0137 2.66504Z" fill="#A276E5" stroke="#A276E5" stroke-width="0.5"/>
</g>
<defs>
<clipPath id="clip0_5090_5612">
<rect width="42" height="42" fill="white" transform="translate(0.664062)"/>
</clipPath>
</defs>
</svg>
