<svg width="43" height="42" viewBox="0 0 43 42" fill="none" xmlns="http://www.w3.org/2000/svg">
<path d="M22.2559 1.50098C22.6393 1.51243 23.0124 1.63121 23.332 1.84375C23.6116 2.02967 23.8414 2.28058 24.002 2.57422L24.0664 2.70312L24.0684 2.70801L26.7021 8.61035L26.7129 8.62402C26.7168 8.62699 26.7214 8.62886 26.7256 8.62988L33.0801 9.51367L33.0879 9.51465C33.4665 9.57347 33.8213 9.7375 34.1123 9.9873C34.4032 10.2371 34.6192 10.5632 34.7363 10.9287C34.8535 11.2942 34.8681 11.6856 34.7773 12.0586C34.6915 12.4114 34.5129 12.7335 34.2637 12.9961C34.2523 13.0117 34.2431 13.0258 34.2354 13.0352C34.2135 13.0614 34.1878 13.0884 34.1641 13.1133C34.1153 13.1645 34.0499 13.2305 33.9727 13.3057C33.8169 13.4573 33.5985 13.6637 33.3428 13.9043C32.829 14.3877 32.1569 15.0147 31.499 15.6436C30.8398 16.2737 30.2039 16.8973 29.7617 17.3711C29.5443 17.604 29.3874 17.7862 29.2979 17.9092L30.1572 24.5439L30.1738 24.7568C30.1798 24.9699 30.1531 25.1831 30.0938 25.3887C30.0146 25.6628 29.8789 25.9177 29.6963 26.1367C29.5137 26.3557 29.2876 26.5348 29.0322 26.6611C28.923 26.7151 28.8088 26.7565 28.6924 26.79V40.3408C28.6853 40.5647 28.6155 40.7822 28.4912 40.9688C28.3667 41.1553 28.1922 41.3035 27.9873 41.3955C27.7824 41.4875 27.5554 41.5201 27.333 41.4883C27.1108 41.4564 26.9023 41.362 26.7314 41.2168L26.7305 41.2158L21.4707 36.7197L16.2119 41.2158L16.2109 41.2168C16.04 41.362 15.8316 41.4565 15.6094 41.4883C15.3869 41.5201 15.16 41.4875 14.9551 41.3955C14.7502 41.3035 14.5756 41.1553 14.4512 40.9688C14.3269 40.7823 14.2571 40.5647 14.25 40.3408V26.9023C14.1155 26.8778 13.9823 26.8432 13.8545 26.792C13.5572 26.6729 13.2919 26.4858 13.0791 26.2461C12.8663 26.0063 12.7119 25.7199 12.6279 25.4102C12.544 25.1006 12.5327 24.7757 12.5947 24.4609L12.5957 24.4561L13.9346 17.9746C13.8574 17.8593 13.7246 17.6904 13.5371 17.4746C13.1355 17.0124 12.5498 16.4034 11.9385 15.7861C11.3285 15.1701 10.7042 14.556 10.2246 14.0791C9.98636 13.8422 9.78208 13.6373 9.63574 13.4854C9.56325 13.4101 9.50021 13.3428 9.45312 13.2891C9.43027 13.263 9.40483 13.2335 9.38281 13.2041C9.37624 13.1953 9.3684 13.1835 9.35938 13.1699C9.12549 12.9059 8.96222 12.5865 8.88574 12.2412C8.80468 11.8751 8.82315 11.4938 8.94043 11.1377C9.05778 10.7815 9.26954 10.4631 9.55273 10.2178C9.83583 9.97263 10.1801 9.8089 10.5488 9.74512L10.5566 9.74414L17.1201 8.71484C17.2089 8.59459 17.3353 8.39978 17.4893 8.13574C17.8161 7.57532 18.2354 6.78153 18.6553 5.96289C19.0743 5.14581 19.4887 4.31412 19.8076 3.67969C19.9664 3.36381 20.1031 3.09531 20.2031 2.90332C20.2527 2.80815 20.2953 2.72676 20.3291 2.66699C20.3454 2.63817 20.3641 2.60734 20.3818 2.58008C20.3875 2.57142 20.396 2.55891 20.4062 2.54492C20.5865 2.22772 20.8466 1.9631 21.1621 1.7793C21.4937 1.58622 21.8725 1.48961 22.2559 1.50098ZM16.2842 26.3154V38.4775L20.4541 34.9053V24.0791L16.2842 26.3154ZM22.4883 34.9053L26.6582 38.4766V26.3662L22.4883 24.1133V34.9053ZM22.1904 3.53125C22.188 3.5328 22.1854 3.53552 22.1836 3.53906L19.0195 9.63477L19.0186 9.6377C18.8688 9.92146 18.6552 10.1675 18.3955 10.3555C18.1359 10.5433 17.8364 10.6681 17.5205 10.7207L17.5156 10.7217L10.8799 11.7627C10.8777 11.7632 10.8753 11.7647 10.873 11.7666C10.8706 11.7687 10.8686 11.7722 10.8672 11.7764C10.8658 11.7806 10.8652 11.7856 10.8662 11.79C10.8672 11.7942 10.8698 11.7973 10.8721 11.7998L15.3975 16.4551L15.4053 16.4629L15.4131 16.4717C16.1164 17.2632 15.9986 18.356 15.8066 19.2363C15.7073 19.6921 15.5691 20.165 15.4609 20.5723C15.3481 20.9971 15.2669 21.3555 15.249 21.6484V21.6494C15.2272 21.9991 15.0852 22.5332 14.9619 23.0186C14.8292 23.5409 14.7024 24.0601 14.6611 24.4727C14.6424 24.6606 14.6456 24.795 14.6602 24.8818C14.6825 24.8765 14.7113 24.8707 14.7461 24.8584C14.9104 24.8004 15.1541 24.672 15.4961 24.4307L15.5205 24.4131L15.5479 24.3984L20.4805 21.751L20.4893 21.7461C20.7869 21.5942 21.1162 21.5147 21.4502 21.5146C21.701 21.5146 21.9495 21.56 22.1836 21.6465L22.4121 21.7461L22.4229 21.752L27.3965 24.4404L27.3984 24.4414L28.1182 24.8359H28.1191C28.1215 24.8371 28.1238 24.837 28.126 24.8369C28.1283 24.8368 28.1313 24.8367 28.1338 24.835C28.1363 24.8331 28.1389 24.8301 28.1406 24.8262C28.1423 24.8222 28.1422 24.8171 28.1416 24.8125V24.8096C27.9017 22.9591 27.5083 19.9322 27.2725 18.0977V18.0938C27.2337 17.7746 27.2691 17.4509 27.375 17.1475C27.4809 16.844 27.6547 16.5688 27.8838 16.3438L27.8867 16.3408L32.8047 11.5801C32.8071 11.577 32.8095 11.5737 32.8105 11.5693C32.8119 11.5638 32.8113 11.5581 32.8096 11.5527C32.8078 11.5474 32.8052 11.543 32.8018 11.54C32.7984 11.5371 32.7945 11.5357 32.791 11.5352L32.7881 11.5342C30.5333 11.1738 29.03 11.0392 27.9385 10.9033C26.8815 10.7718 26.1231 10.6348 25.5381 10.1963C24.9531 9.75769 24.6072 9.06678 24.1826 8.08008C23.7438 7.06011 23.1928 5.64199 22.2178 3.55078L22.2129 3.54004C22.2111 3.53612 22.2086 3.53301 22.2061 3.53125C22.2035 3.52955 22.2006 3.52938 22.1982 3.5293C22.1959 3.52925 22.1929 3.52978 22.1904 3.53125Z" fill="#A276E5" stroke="#A276E5"/>
</svg>
