<svg width="60" height="60" viewBox="0 0 60 60" fill="none" xmlns="http://www.w3.org/2000/svg">
<path d="M54.9938 28.1264C56.0288 28.1264 56.8688 27.2864 56.8688 26.2514C56.8688 22.9214 56.9663 18.4364 56.3963 15.6539C55.9988 13.7264 55.2488 12.0989 53.8088 10.8014C52.4963 9.62391 50.9213 8.98641 49.0838 8.62641C47.3363 8.28891 45.2513 8.18391 42.7688 8.14641C42.6788 8.13141 42.5888 8.12391 42.4913 8.12391C42.4163 8.12391 42.3413 8.13141 42.2663 8.13891C41.0663 8.12391 39.7538 8.12391 38.3213 8.12391H31.8713V7.50141C31.8713 5.08641 29.9138 3.12891 27.4988 3.12891H21.6638C20.2313 3.12891 18.9188 3.12891 17.7188 3.14391C17.6438 3.13641 17.5688 3.12891 17.4938 3.12891C17.4038 3.12891 17.3063 3.13641 17.2163 3.15141C14.7413 3.18891 12.6488 3.29391 10.9013 3.63141C9.06376 3.99141 7.48876 4.62891 6.17626 5.80641C4.73626 7.10391 3.98626 8.72391 3.59626 10.6589C3.22126 12.4889 3.14626 14.7164 3.13126 17.3639C3.12376 18.2339 3.12376 19.0589 3.12376 20.0039V26.2514C3.12376 27.2864 3.96376 28.1264 4.99876 28.1264C6.03376 28.1264 6.87376 27.2864 6.87376 26.2514C6.87376 25.5314 6.87376 19.9514 6.87376 19.3739H28.1213V38.1239H6.87376C6.86626 37.6514 6.86626 37.1039 6.86626 36.2489C6.86626 35.2139 6.02626 34.3739 4.99126 34.3739C3.95626 34.3739 3.11626 35.2139 3.11626 36.2489C3.11626 41.0864 2.81626 46.1714 6.17626 49.1939C7.48876 50.3714 9.06376 51.0089 10.9013 51.3689C13.6613 51.9089 18.3038 51.8939 21.6563 51.8714H28.1213V52.4939C28.1213 54.9089 30.0788 56.8664 32.4938 56.8664C34.3913 56.8664 40.3838 56.8739 42.2738 56.8514C44.6963 56.8214 47.3288 56.7014 49.0838 56.3639C50.9213 56.0039 52.4963 55.3664 53.8088 54.1889C56.1413 52.0889 56.6513 49.1639 56.8013 45.4814C56.8913 43.3214 56.8688 38.2964 56.8688 36.2414C56.8688 35.2064 56.0288 34.3664 54.9938 34.3664C53.9588 34.3664 53.1188 35.2064 53.1188 36.2414C53.1188 37.6664 53.1188 40.9289 53.1038 43.1189H31.8713V24.3764H53.1188V26.2514C53.1188 27.2864 53.9588 28.1264 54.9938 28.1264ZM51.3038 13.5914C51.9938 14.2139 52.4438 15.0239 52.7288 16.4039C52.9538 17.4989 53.0513 18.8564 53.0963 20.6264H44.3738V11.9339C46.0088 11.9939 47.3063 12.0989 48.3713 12.3089C49.7738 12.5864 50.6438 12.9989 51.3038 13.5914ZM40.6238 11.8814V20.6264H31.8713V11.8739H38.3288C39.1388 11.8739 39.9038 11.8739 40.6238 11.8814ZM27.4988 6.87891C27.8438 6.87891 28.1213 7.15641 28.1213 7.50141V15.6239H19.3688V6.87891H21.6638H27.4988ZM11.6213 7.30641C12.6863 7.09641 13.9838 6.99141 15.6188 6.93141V15.6239H6.90376C6.94876 13.8539 7.04626 12.4964 7.27126 11.4014C7.55626 10.0214 8.00626 9.21141 8.69626 8.58891C9.34876 8.00391 10.2188 7.58391 11.6213 7.30641ZM8.68876 46.4114C7.75876 45.5714 7.25626 44.3864 7.03126 41.8739H15.6188V48.0614C13.9838 48.0014 12.6863 47.8964 11.6213 47.6864C10.2188 47.4164 9.34876 46.9964 8.68876 46.4114ZM19.3688 48.1214V41.8739H28.1213V48.1214H21.6638C20.8538 48.1289 20.0963 48.1289 19.3688 48.1214ZM32.4938 53.1239C32.1488 53.1239 31.8713 52.8464 31.8713 52.5014V46.8764H40.6238V53.1239C39.9038 53.1239 39.1388 53.1239 38.3288 53.1239H32.4938ZM48.3713 52.6889C47.3063 52.8989 46.0088 53.0039 44.3738 53.0639V46.8764H52.9613C52.7363 49.3814 52.2338 50.5739 51.3038 51.4139C50.6438 51.9989 49.7738 52.4189 48.3713 52.6889Z" fill="#A276E5"/>
</svg>
