<svg width="60" height="60" viewBox="0 0 60 60" fill="none" xmlns="http://www.w3.org/2000/svg">
<g clip-path="url(#clip0_6017_5434)">
<path d="M0.844385 17.1313C0.844385 17.1313 29.3257 31.3719 29.326 31.3721C29.7606 31.5893 30.2566 31.5889 30.6906 31.3719C30.6906 31.3719 59.049 17.1922 59.1705 17.1315C60.2246 16.6044 60.3038 14.9659 59.1709 14.4016L30.6906 0.160925C30.2614 -0.0536415 29.7548 -0.0536415 29.3257 0.160925C29.3257 0.160925 0.929077 14.3592 0.844569 14.4015C-0.261381 14.9544 -0.259937 16.5791 0.844385 17.1313ZM30.0081 3.23235L55.0783 15.7664L30.0081 28.3005L4.93898 15.7664L30.0081 3.23235Z" fill="#A276E5"/>
<path d="M30.6842 24.5554C30.6842 24.5554 45.4772 17.1594 45.5178 17.1391C46.6238 16.5861 46.6235 14.96 45.5179 14.4093L30.6842 6.99296C30.2551 6.77839 29.7485 6.77839 29.3194 6.99296C29.3194 6.99296 14.5159 14.3937 14.4847 14.4093C13.3783 14.9624 13.3819 16.5876 14.4847 17.139L29.3194 24.5554C29.7582 24.7748 30.2465 24.7614 30.6842 24.5554ZM18.5793 15.7742L30.0018 10.0644L41.4253 15.7742L30.0018 21.4839L18.5793 15.7742Z" fill="#A276E5"/>
<path d="M59.172 28.6449L51.7457 24.9417C50.9908 24.5662 50.0749 24.8722 49.6994 25.6252C49.322 26.3801 49.6299 27.296 50.3829 27.6715L55.0755 30.0118L30.0093 42.5439L4.94309 30.0118L9.63467 27.6714C10.3886 27.296 10.6946 26.3801 10.3191 25.6251C9.94162 24.8722 9.02576 24.5662 8.2718 24.9417C8.2718 24.9417 0.883077 28.6267 0.846641 28.6449C-0.261343 29.1974 -0.261038 30.8224 0.845502 31.3746C0.845502 31.3746 29.3268 45.6153 29.3269 45.6153C29.7638 45.8338 30.2573 45.8325 30.6917 45.6153C30.6917 45.6153 59.0446 31.4383 59.1716 31.3748C60.2788 30.8213 60.2758 29.1968 59.172 28.6449Z" fill="#A276E5"/>
<path d="M59.1722 42.8919L51.746 39.1887C50.991 38.8152 50.0751 39.1212 49.6997 39.8721C49.3222 40.6271 49.6301 41.5429 50.3831 41.9184L55.0757 44.2588L30.0095 56.7908L4.9433 44.2587L9.63488 41.9184C10.3888 41.5429 10.6948 40.627 10.3193 39.8721C9.94183 39.1191 9.02597 38.8112 8.27201 39.1887C8.27201 39.1887 0.874497 42.878 0.846809 42.8918C-0.260788 43.4442 -0.261725 45.0689 0.845731 45.6216C0.845731 45.6216 29.3168 59.8571 29.3271 59.8623C29.7594 60.0784 30.2614 60.0737 30.6919 59.8623C30.6919 59.8623 59.1083 45.6536 59.1721 45.6217C60.2772 45.0691 60.2762 43.4439 59.1722 42.8919Z" fill="#A276E5"/>
</g>
<defs>
<clipPath id="clip0_6017_5434">
<rect width="60" height="60" fill="white"/>
</clipPath>
</defs>
</svg>
