<svg width="60" height="60" viewBox="0 0 60 60" fill="none" xmlns="http://www.w3.org/2000/svg">
<g clip-path="url(#clip0_6017_5450)">
<path d="M30 44.8336C34.2327 44.8336 37.664 42.4329 37.664 39.4715C37.664 36.5101 34.2327 34.1094 30 34.1094C25.7672 34.1094 22.3359 36.5101 22.3359 39.4715C22.3359 42.4329 25.7672 44.8336 30 44.8336Z" stroke="#A276E5" stroke-width="3" stroke-miterlimit="2.6131" stroke-linecap="round" stroke-linejoin="round"/>
<path d="M8.57775 30.6047C12.2796 30.6047 15.2805 27.6038 15.2805 23.902C15.2805 20.2001 12.2796 17.1992 8.57775 17.1992C4.87592 17.1992 1.875 20.2001 1.875 23.902C1.875 27.6038 4.87592 30.6047 8.57775 30.6047Z" stroke="#A276E5" stroke-width="3" stroke-miterlimit="2.6131" stroke-linecap="round" stroke-linejoin="round"/>
<path d="M51.4215 18.7961C55.1233 18.7961 58.1242 15.7952 58.1242 12.0934C58.1242 8.39155 55.1233 5.39062 51.4215 5.39062C47.7197 5.39062 44.7188 8.39155 44.7188 12.0934C44.7188 15.7952 47.7197 18.7961 51.4215 18.7961Z" stroke="#A276E5" stroke-width="3" stroke-miterlimit="2.6131" stroke-linecap="round" stroke-linejoin="round"/>
<path d="M1.17188 45.0781H58.828" stroke="#A276E5" stroke-width="3" stroke-miterlimit="2.6131" stroke-linecap="round" stroke-linejoin="round"/>
<path fill-rule="evenodd" clip-rule="evenodd" d="M13.9648 54.6094C15.417 54.6094 16.6015 53.4249 16.6015 51.9726C16.6015 50.5203 15.4171 49.3359 13.9648 49.3359C12.5125 49.3359 11.3281 50.5205 11.3281 51.9726C11.3281 53.4248 12.5125 54.6094 13.9648 54.6094Z" stroke="#A276E5" stroke-width="3" stroke-miterlimit="2.6131" stroke-linecap="round" stroke-linejoin="round"/>
<path d="M58.828 51.9727H17.1912M10.7459 51.9727H1.17188" stroke="#A276E5" stroke-width="3" stroke-miterlimit="2.6131" stroke-linecap="round" stroke-linejoin="round"/>
<path d="M19.9062 25.1055C21.9485 26.5082 23.6333 28.3982 24.789 30.6042" stroke="#A276E5" stroke-width="3" stroke-miterlimit="2.6131" stroke-linecap="round" stroke-linejoin="round"/>
<path d="M32.3047 29.8407C33.4746 24.3238 36.5122 19.476 40.7177 15.9961" stroke="#A276E5" stroke-width="3" stroke-miterlimit="2.6131" stroke-linecap="round" stroke-linejoin="round"/>
</g>
<defs>
<clipPath id="clip0_6017_5450">
<rect width="60" height="60" fill="white"/>
</clipPath>
</defs>
</svg>
