<svg width="60" height="60" viewBox="0 0 60 60" fill="none" xmlns="http://www.w3.org/2000/svg">
<g clip-path="url(#clip0_6017_5472)">
<path d="M1.1174 60C1.66946 60 2.11716 59.5523 2.11716 58.9998V54.9998H6.1171V58.9998C6.1171 59.5523 6.56479 60 7.11731 60C7.66937 60 8.11707 59.5523 8.11707 58.9998V58H36.1171V58.9998C36.1171 59.5523 36.5648 60 37.1173 60C37.6694 60 38.1171 59.5523 38.1171 58.9998V54.9998H42.117V58.9998C42.117 59.5523 42.5647 60 43.1172 60C43.6693 60 44.117 59.5523 44.117 58.9998V50.0002C44.117 49.4476 43.6693 48.9999 43.1172 48.9999C42.5647 48.9999 42.117 49.4476 42.117 50.0002V52.9999H38.1171V50.0002C38.1171 49.4476 37.6694 48.9999 37.1173 48.9999C36.5648 48.9999 36.1171 49.4476 36.1171 50.0002V56.0001H8.11707V39.9998H23.1171C23.6696 39.9998 24.1173 39.5522 24.1173 39.0001C24.1173 38.4476 23.6696 37.9999 23.1171 37.9999H8.11707V22.0001H36.1171V28.9998C36.1171 29.5523 36.5648 30 37.1173 30C37.6694 30 38.1171 29.5523 38.1171 28.9998V24.9998H42.117V28.9998C42.117 29.5523 42.5647 30 43.1172 30C43.6693 30 44.117 29.5523 44.117 28.9998V1.00021C44.117 0.447693 43.6693 0 43.1172 0C42.5647 0 42.117 0.447693 42.117 1.00021V5.00015H38.1171V1.00021C38.1171 0.447693 37.6694 0 37.1173 0C36.5648 0 36.1171 0.447693 36.1171 1.00021V1.99997H8.11707V1.00021C8.11707 0.447693 7.66937 0 7.11731 0C6.56479 0 6.1171 0.447693 6.1171 1.00021V5.00015H2.11716V1.00021C2.11716 0.447693 1.66946 0 1.1174 0C0.56488 0 0.117188 0.447693 0.117188 1.00021V58.9998C0.117188 59.5523 0.56488 60 1.1174 60ZM6.1171 47H2.11716V43H6.1171V47ZM6.1171 39.0001V41.0001H2.11716V37.0001H6.1171V39.0001ZM6.1171 20.9999V22.9999H2.11716V18.9999H6.1171V20.9999ZM6.1171 24.9998V28.9998H2.11716V24.9998H6.1171ZM6.1171 31.0002V35.0002H2.11716V31.0002H6.1171ZM6.1171 17H2.11716V13H6.1171V17ZM2.11716 52.9999V48.9999H6.1171V52.9999H2.11716ZM42.117 17H38.1171V13H42.117V17ZM38.1171 22.9999V18.9999H42.117V22.9999H38.1171ZM42.117 7.00012V11.0001H38.1171V7.00012H42.117ZM36.1171 3.99994V20.0002H8.11707V3.99994H36.1171ZM6.1171 7.00012V11.0001H2.11716V7.00012H6.1171Z" fill="#A276E5"/>
<path d="M11.1171 11.0005C11.3821 11.0005 11.6366 10.8952 11.8239 10.7076L14.824 7.70737C15.084 7.45651 15.1884 7.08481 15.0969 6.73508C15.0053 6.38535 14.732 6.11206 14.3823 6.02097C14.033 5.92941 13.6609 6.03333 13.41 6.29334L10.4098 9.29352C10.1242 9.57962 10.0386 10.0095 10.1933 10.383C10.348 10.7565 10.7124 11.0005 11.1171 11.0005Z" fill="#A276E5"/>
<path d="M11.1171 16.0007C11.3821 16.0002 11.6366 15.8949 11.8239 15.7072L19.8242 7.70737C20.0837 7.45651 20.1881 7.08481 20.0966 6.73508C20.005 6.38535 19.7322 6.11206 19.3824 6.02097C19.0327 5.92941 18.661 6.03333 18.4102 6.29334L10.4098 14.2937C10.1242 14.5793 10.0386 15.0096 10.1933 15.3831C10.348 15.7567 10.7124 16.0002 11.1171 16.0007Z" fill="#A276E5"/>
<path d="M11.1171 28.9992C11.3821 28.9992 11.6366 28.8939 11.8239 28.7062L14.824 25.7065C15.2031 25.3142 15.1976 24.6903 14.8117 24.3044C14.4262 23.9189 13.8023 23.9135 13.41 24.2925L10.4098 27.2922C10.1242 27.5783 10.0386 28.0086 10.1933 28.3821C10.348 28.7557 10.7124 28.9992 11.1171 28.9992Z" fill="#A276E5"/>
<path d="M10.4097 33.7064C10.8002 34.0969 11.4333 34.0969 11.8237 33.7064L19.8241 25.7065C20.2026 25.3142 20.1976 24.6903 19.8117 24.3044C19.4258 23.9189 18.8023 23.9135 18.41 24.2925L10.4097 32.2924C10.0197 32.6828 10.0197 33.3159 10.4097 33.7064Z" fill="#A276E5"/>
<path d="M11.1171 46.9994C11.3821 46.9994 11.6366 46.8941 11.8239 46.7065L14.824 43.7063C15.2031 43.314 15.1976 42.6905 14.8117 42.3046C14.4262 41.9187 13.8023 41.9137 13.41 42.2923L10.4098 45.2924C10.1242 45.5785 10.0386 46.0084 10.1933 46.3819C10.348 46.7559 10.7124 46.9994 11.1171 46.9994Z" fill="#A276E5"/>
<path d="M10.4097 51.7066C10.8002 52.0966 11.4333 52.0966 11.8237 51.7066L19.8241 43.7063C20.2026 43.314 20.1976 42.6905 19.8117 42.3046C19.4258 41.9187 18.8023 41.9137 18.41 42.2923L10.4097 50.2926C10.0197 50.6831 10.0197 51.3161 10.4097 51.7066Z" fill="#A276E5"/>
<path d="M34.1835 33.6427L30.2367 44.0491L27.0735 33.7077C26.9774 33.3566 26.6977 33.0861 26.3438 33.0005C25.99 32.9153 25.6178 33.0288 25.372 33.2976C25.1262 33.5658 25.0456 33.9467 25.1614 34.2918L28.3415 44.684C28.6171 45.4489 29.3298 45.9698 30.1428 46H30.2174C31.0226 45.9955 31.7473 45.5121 32.0608 44.7709L36.0475 34.3568C36.1812 34.0217 36.124 33.6409 35.8978 33.3598C35.6717 33.0792 35.3119 32.9414 34.9562 33C34.6005 33.0586 34.3039 33.3044 34.1798 33.6427H34.1835Z" fill="#A276E5"/>
<path d="M46.1175 35C46.6696 35 47.1173 34.5523 47.1173 33.9998C47.1173 33.4477 46.6696 33 46.1175 33H40.1172C39.0126 33 38.1172 33.8954 38.1172 35V44.9998C38.1172 45.5519 38.5649 46 39.1174 46C39.6695 46 40.1172 45.5519 40.1172 44.9998V39.9997H45.1173C45.6694 39.9997 46.1175 39.552 46.1175 38.9999C46.1175 38.4474 45.6694 37.9997 45.1173 37.9997H40.1172V35H46.1175Z" fill="#A276E5"/>
<path d="M49.4842 45.7739C49.9117 46.1232 50.5416 46.06 50.8909 45.6329L54.6171 41.08L58.3433 45.6329C58.6953 46.0504 59.3174 46.1081 59.7404 45.762C60.1633 45.4164 60.2306 44.7947 59.891 44.3667L55.9103 39.4998L59.891 34.6329C60.2306 34.2048 60.1633 33.5837 59.7404 33.2376C59.3174 32.892 58.6953 32.9492 58.3433 33.3667L54.6171 37.9201L50.8909 33.3667C50.5389 32.9492 49.9168 32.892 49.4938 33.2376C49.0708 33.5837 49.004 34.2048 49.3432 34.6329L53.3239 39.4998L49.3432 44.3667C48.9935 44.7943 49.0566 45.4242 49.4842 45.7739Z" fill="#A276E5"/>
</g>
<defs>
<clipPath id="clip0_6017_5472">
<rect width="60" height="60" fill="white"/>
</clipPath>
</defs>
</svg>
