<svg width="318" height="420" viewBox="0 0 318 420" fill-opacity = "0.3" fill="none" xmlns="http://www.w3.org/2000/svg">
<g clip-path="url(#clip0_6271_10829)">
<path d="M519.116 230.94C417.59 241.41 472.307 316.568 349.674 249.56C254.414 197.508 145.171 189.572 74.3972 314.013C70.7006 316.61 -20.8889 551.151 27.4644 591.868C116.012 666.43 852.416 480.208 843.845 453.004C835.275 425.8 679.919 287.15 615.66 248.751C584.821 230.323 541.518 228.629 519.116 230.94Z" fill="url(#paint0_radial_6271_10829)"/>
<path d="M331.116 270.94C229.59 281.41 284.307 356.568 161.674 289.56C66.4136 237.508 -42.8286 229.572 -113.603 354.013C-117.299 356.61 -208.889 591.151 -160.536 631.868C-71.9884 706.43 664.416 520.208 655.845 493.004C647.275 465.8 491.919 327.15 427.66 288.751C396.821 270.323 353.518 268.629 331.116 270.94Z" fill="url(#paint1_radial_6271_10829)"/>
</g>
<defs>
<radialGradient id="paint0_radial_6271_10829" cx="0" cy="0" r="1" gradientTransform="matrix(265.621 300.361 -541.995 412.082 222 148.546)" gradientUnits="userSpaceOnUse">
<stop stop-color="#CEDCFF"/>
<stop offset="0.5" stop-color="white"/>
<stop offset="1" stop-color="white" stop-opacity="0"/>
</radialGradient>
<radialGradient id="paint1_radial_6271_10829" cx="0" cy="0" r="1" gradientTransform="matrix(265.621 300.361 -541.995 412.082 34.0004 188.546)" gradientUnits="userSpaceOnUse">
<stop stop-color="#CEDCFF"/>
<stop offset="0.5" stop-color="white"/>
<stop offset="1" stop-color="white" stop-opacity="0"/>
</radialGradient>
<clipPath id="clip0_6271_10829">
<rect width="318" height="420" fill="white"/>
</clipPath>
</defs>
</svg>
