<svg width="62" height="63" viewBox="0 0 62 63" fill="none" xmlns="http://www.w3.org/2000/svg">
<path d="M26.1104 4.51953C31.8334 4.51953 36.5097 9.19595 36.5098 14.9189C36.5098 20.642 31.8334 25.3184 26.1104 25.3184C20.3874 25.3183 15.7109 20.642 15.7109 14.9189C15.711 9.196 20.3874 4.51962 26.1104 4.51953ZM26.1104 6.64355C21.5449 6.64364 17.8351 10.3535 17.835 14.9189C17.835 19.4845 21.5449 23.1942 26.1104 23.1943C30.6759 23.1943 34.3857 19.4845 34.3857 14.9189C34.3857 10.3534 30.6759 6.64355 26.1104 6.64355Z" fill="#B15252" stroke="#B15252"/>
<path d="M26.0977 29.2617C28.4876 29.2617 30.8334 29.6599 33.0459 30.4121L33.0449 30.4131C33.6739 30.6079 33.8465 31.2832 33.7109 31.7578C33.5258 32.4058 32.8388 32.5844 32.3584 32.4473L32.3438 32.4434L32.3291 32.4375C30.3115 31.7229 28.2064 31.3858 26.0547 31.3857C21.714 31.3857 17.5872 32.8179 14.2188 35.5127L14.207 35.5225C13.8772 35.7698 13.5866 36.0189 13.2422 36.3203C9.2473 39.94 6.97523 45.0711 6.97168 50.4561C6.99468 50.7313 6.92293 51.0095 6.72168 51.2227C6.51316 51.4434 6.22656 51.5303 5.95215 51.5303C5.37362 51.53 4.89065 51.0473 4.89062 50.4688C4.89062 44.4932 7.41374 38.7366 11.8887 34.749L11.8916 34.7461C12.2344 34.4462 12.5944 34.1301 12.958 33.8574C16.7193 30.8528 21.2777 29.2617 26.0977 29.2617Z" fill="#B15252" stroke="#B15252"/>
<path d="M41.668 27.0625C42.0075 27.0625 42.3562 27.2319 42.5576 27.5137L42.6348 27.6416L42.6357 27.6436L47.2305 36.9609L57.5186 38.4365L57.5322 38.4385L57.5449 38.4414C57.9121 38.5148 58.2321 38.7488 58.3867 39.1348C58.5667 39.5847 58.3769 40.0059 58.1465 40.2363L58.1406 40.2422L50.6357 47.4932L52.4043 57.7256L52.4238 57.8779C52.4428 58.2337 52.2808 58.573 51.998 58.7852L51.9326 58.834L51.8555 58.8594C51.7425 58.897 51.5339 58.9717 51.3086 58.9717C51.224 58.9717 50.9919 58.9773 50.7695 58.8018L41.625 53.9795L32.4346 58.8271L32.4248 58.833V58.832C32.1114 58.9887 31.6446 59.0036 31.2959 58.7422C30.9762 58.5024 30.8119 58.1004 30.8877 57.6953H30.8867L32.6572 47.4502L25.249 40.251C24.9118 39.9681 24.8391 39.4899 24.9951 39.1357H24.9932C24.9961 39.1284 25.0009 39.1215 25.0039 39.1143C25.0064 39.109 25.0072 39.1029 25.0098 39.0977H25.0117C25.1717 38.7344 25.48 38.5124 25.835 38.4414L25.8486 38.4385L25.8623 38.4365L36.1465 36.9609L40.7002 27.6455L40.7021 27.6416C40.8808 27.2844 41.28 27.0627 41.668 27.0625ZM37.751 38.375L37.749 38.377C37.6111 38.6528 37.3185 38.9184 36.9414 38.9492L36.9424 38.9512L28.2578 40.2305L34.5391 46.3555L34.543 46.3594C34.8072 46.6236 34.8623 46.9554 34.8623 47.2324V47.2744L34.8555 47.3164L33.3818 55.959L41.1338 51.8906L41.1426 51.8857C41.4168 51.7487 41.7102 51.7312 41.9893 51.834L42.1084 51.8857L42.1172 51.8906L49.8672 55.959L48.3945 47.3164L48.3965 47.3154C48.3572 47.1223 48.3856 46.9372 48.4375 46.79C48.4936 46.6312 48.5869 46.4795 48.707 46.3594L48.7119 46.3555L54.9912 40.2305L46.3076 38.9512L46.2832 38.9473L46.2588 38.9414C46.0272 38.8834 45.683 38.741 45.501 38.377L45.5 38.375L41.625 30.5078L37.751 38.375Z" fill="#B15252" stroke="#B15252"/>
</svg>
