<svg width="60" height="61" viewBox="0 0 60 61" fill="none" xmlns="http://www.w3.org/2000/svg">
<g clip-path="url(#clip0_7046_2506)">
<path d="M10.7109 44.3555C12.3568 44.3555 13.8474 45.0231 14.9258 46.1016L15.123 46.3086C16.085 47.367 16.6719 48.7734 16.6719 50.3164C16.6719 51.9622 16.0043 53.4528 14.9258 54.5312C13.8474 55.6097 12.3568 56.2773 10.7109 56.2773C9.0651 56.2773 7.57458 55.6096 6.49609 54.5312C5.41769 53.4528 4.75001 51.9623 4.75 50.3164C4.75 48.6706 5.41768 47.18 6.49609 46.1016C7.57459 45.0231 9.06509 44.3555 10.7109 44.3555ZM10.7109 46.9805C9.78958 46.9805 8.95545 47.3532 8.35156 47.957C7.74775 48.5608 7.375 49.395 7.375 50.3164C7.37501 51.2378 7.74772 52.0719 8.35156 52.6758C8.95541 53.2796 9.78959 53.6523 10.7109 53.6523C11.6321 53.6523 12.4656 53.2793 13.0693 52.6758C13.6732 52.0719 14.0469 51.2378 14.0469 50.3164C14.0469 49.395 13.6732 48.5609 13.0693 47.957C12.4655 47.3535 11.6321 46.9805 10.7109 46.9805Z" fill="#B15252" stroke="#B15252" stroke-width="0.5"/>
<path d="M45.7236 41.1211C47.0256 41.1211 48.2054 41.6489 49.0586 42.502C49.9118 43.3551 50.4394 44.5349 50.4395 45.8369C50.4395 47.1389 49.9118 48.3187 49.0586 49.1719C48.2054 50.025 47.0256 50.5527 45.7236 50.5527C44.4216 50.5527 43.2418 50.025 42.3887 49.1719C41.5356 48.3187 41.0078 47.1389 41.0078 45.8369C41.0078 44.5349 41.5356 43.3551 42.3887 42.502C43.2418 41.6489 44.4216 41.1211 45.7236 41.1211ZM45.7236 43.7461C45.1461 43.7461 44.6236 43.9799 44.2451 44.3584C43.8666 44.7369 43.6328 45.2593 43.6328 45.8369C43.6328 46.4145 43.8666 46.9369 44.2451 47.3154C44.6237 47.694 45.1461 47.9277 45.7236 47.9277C46.3012 47.9277 46.8236 47.694 47.2021 47.3154C47.5807 46.9369 47.8145 46.4145 47.8145 45.8369C47.8145 45.2593 47.5807 44.7369 47.2021 44.3584C46.8236 43.9799 46.3012 43.7461 45.7236 43.7461Z" fill="#B15252" stroke="#B15252" stroke-width="0.5"/>
<path d="M27.3535 23.5234C29.4119 23.5235 31.2762 24.3582 32.625 25.707C33.9738 27.0559 34.8086 28.9201 34.8086 30.9785C34.8086 33.0369 33.9738 34.9012 32.625 36.25C31.2762 37.5988 29.4119 38.4336 27.3535 38.4336C25.2951 38.4336 23.4309 37.5988 22.082 36.25C20.7332 34.9012 19.8985 33.0369 19.8984 30.9785C19.8984 28.9201 20.7332 27.0559 22.082 25.707C23.4309 24.3582 25.2951 23.5234 27.3535 23.5234ZM27.3535 26.1484C26.0196 26.1484 24.8127 26.6893 23.9385 27.5635C23.0643 28.4377 22.5234 29.6446 22.5234 30.9785C22.5235 32.3124 23.0643 33.5194 23.9385 34.3936C24.8127 35.2677 26.0196 35.8086 27.3535 35.8086C28.6874 35.8086 29.8944 35.2677 30.7686 34.3936C31.6427 33.5194 32.1836 32.3124 32.1836 30.9785C32.1836 29.6446 31.6427 28.4377 30.7686 27.5635C29.8944 26.6893 28.6874 26.1485 27.3535 26.1484Z" fill="#B15252" stroke="#B15252" stroke-width="0.5"/>
<path d="M10.7109 5.73047C12.3568 5.73048 13.8474 6.39815 14.9258 7.47656C16.0042 8.55506 16.6719 10.0456 16.6719 11.6914C16.6719 13.2344 16.085 14.6408 15.123 15.6992L14.9258 15.9062C13.8474 16.9847 12.3568 17.6523 10.7109 17.6523C9.06512 17.6523 7.57459 16.9847 6.49609 15.9062C5.41768 14.8278 4.75001 13.3372 4.75 11.6914C4.75 10.0456 5.41769 8.55505 6.49609 7.47656C7.57459 6.39815 9.06508 5.73047 10.7109 5.73047ZM10.7109 8.35547C9.78956 8.35547 8.95541 8.72819 8.35156 9.33203C7.74772 9.93588 7.375 10.77 7.375 11.6914C7.37501 12.6125 7.74802 13.446 8.35156 14.0498C8.95545 14.6537 9.78957 15.0273 10.7109 15.0273C11.6323 15.0273 12.4655 14.6537 13.0693 14.0498C13.6732 13.446 14.0469 12.6128 14.0469 11.6914C14.0469 10.77 13.6732 9.93592 13.0693 9.33203C12.4656 8.72848 11.6321 8.35548 10.7109 8.35547Z" fill="#B15252" stroke="#B15252" stroke-width="0.5"/>
<path d="M22.9189 35.2217C23.3866 34.6721 24.211 34.6058 24.7607 35.0732C25.3106 35.5409 25.3778 36.3662 24.9102 36.916L15.2949 48.2119C14.8273 48.7618 14.002 48.828 13.4521 48.3604C12.9027 47.8927 12.8362 47.0683 13.3037 46.5186L22.9189 35.2217Z" fill="#B15252" stroke="#B15252" stroke-width="0.5"/>
<path d="M13.5342 13.5703C14.1037 13.1255 14.9262 13.2265 15.3711 13.7959L24.4639 25.4482C24.9087 26.0177 24.8078 26.8403 24.2383 27.2852C23.7043 27.7022 22.9482 27.6391 22.4893 27.1602L22.4014 27.0596L13.3086 15.4072C12.8638 14.8377 12.9647 14.0152 13.5342 13.5703Z" fill="#B15252" stroke="#B15252" stroke-width="0.5"/>
<path d="M50.2891 5.73047C51.9349 5.73048 53.4254 6.39816 54.5039 7.47656C55.5823 8.55505 56.25 10.0456 56.25 11.6914C56.25 13.3372 55.5823 14.8278 54.5039 15.9062C53.4254 16.9847 51.9349 17.6523 50.2891 17.6523C48.7461 17.6523 47.3396 17.0655 46.2812 16.1035L46.0742 15.9062C44.9957 14.8278 44.3281 13.3372 44.3281 11.6914C44.3281 10.0456 44.9957 8.55506 46.0742 7.47656C47.1526 6.39814 48.6432 5.73047 50.2891 5.73047ZM50.2891 8.35547C49.3677 8.35547 48.5335 8.72822 47.9297 9.33203C47.3258 9.93592 46.9531 10.7701 46.9531 11.6914C46.9531 12.6125 47.3261 13.446 47.9297 14.0498C48.5335 14.6537 49.3677 15.0273 50.2891 15.0273C51.2104 15.0273 52.0446 14.6537 52.6484 14.0498C53.252 13.446 53.625 12.6125 53.625 11.6914C53.625 10.7701 53.2523 9.93588 52.6484 9.33203C52.0446 8.72819 51.2104 8.35548 50.2891 8.35547Z" fill="#B15252" stroke="#B15252" stroke-width="0.5"/>
<path d="M47.0771 14.6006C47.6577 14.1673 48.4798 14.2867 48.9131 14.8672C49.3462 15.4477 49.2269 16.2699 48.6465 16.7031L48.6455 16.7021L33.0654 28.3545C32.4849 28.7878 31.6628 28.6684 31.2295 28.0879C30.8233 27.5436 30.9026 26.7873 31.3926 26.3379L31.4961 26.252L47.0771 14.6006Z" fill="#B15252" stroke="#B15252" stroke-width="0.5"/>
<path d="M31.0518 34.0928C31.519 33.5405 32.3461 33.4715 32.8984 33.9385L43.7139 43.0645H43.7148C44.2671 43.5319 44.3355 44.3588 43.8682 44.9111C43.4009 45.463 42.5747 45.5321 42.0225 45.0654L31.2061 35.9395C30.6537 35.4721 30.5846 34.6451 31.0518 34.0928Z" fill="#B15252" stroke="#B15252" stroke-width="0.5"/>
</g>
<defs>
<clipPath id="clip0_7046_2506">
<rect width="60" height="60" fill="white" transform="translate(0 0.976562)"/>
</clipPath>
</defs>
</svg>
