<svg width="60" height="61" viewBox="0 0 60 61" fill="none" xmlns="http://www.w3.org/2000/svg">
<path d="M29.9979 6.88672C28.968 6.88672 27.9317 6.95178 26.9161 7.08191C26.0719 7.18982 25.4744 7.96264 25.5823 8.80688C25.6902 9.6519 26.4638 10.2486 27.3073 10.1415C28.1928 10.028 29.0981 9.97087 29.9979 9.97087C41.5815 9.97087 51.0054 19.3947 51.0054 30.9783C51.0054 42.562 41.5807 51.985 29.9979 51.985C18.4143 51.985 8.9904 42.5612 8.9904 30.9776C8.9904 22.7153 13.8622 15.1894 21.4016 11.8038C22.1784 11.4554 22.5259 10.5422 22.1768 9.76537C21.8277 8.98778 20.9144 8.64104 20.1384 8.99016C11.4922 12.8725 5.90625 21.5029 5.90625 30.9776C5.90625 44.2623 16.7139 55.0692 29.9979 55.0692C43.2819 55.0692 54.0895 44.2623 54.0895 30.9776C54.0895 17.6936 43.2819 6.88672 29.9979 6.88672Z" fill="#B15252"/>
<path d="M14.6835 29.1951C12.8451 31.0336 12.8451 34.0257 14.6835 35.8641L21.4191 42.6005C22.3102 43.4908 23.494 43.9811 24.754 43.9811C26.0132 43.9811 27.1979 43.4908 28.0889 42.6005L42.7924 27.8963C44.6308 26.057 44.6308 23.0657 42.7924 21.2265C40.954 19.388 37.9619 19.388 36.1226 21.2265L24.754 32.5959L21.3525 29.1951C19.5141 27.3567 16.5219 27.3567 14.6835 29.1951ZM24.754 36.3196C25.1627 36.3196 25.5546 36.1569 25.8442 35.8673L38.3038 23.4077C38.9402 22.7713 39.9748 22.7721 40.6112 23.4077C41.2475 24.044 41.2475 25.0795 40.6112 25.715L25.9077 40.4193C25.5998 40.7272 25.1896 40.897 24.754 40.897C24.3176 40.897 23.9082 40.7272 23.6003 40.4193L16.8639 33.6837C16.2284 33.0474 16.2284 32.0119 16.8639 31.3763C17.1821 31.0582 17.6002 30.8987 18.0184 30.8987C18.4358 30.8987 18.8539 31.0582 19.1713 31.3755L23.663 35.8673C23.9526 36.1569 24.3446 36.3196 24.754 36.3196Z" fill="#B15252"/>
</svg>
