<svg width="60" height="61" viewBox="0 0 60 61" fill="none" xmlns="http://www.w3.org/2000/svg">
<path fill-rule="evenodd" clip-rule="evenodd" d="M39.2095 24.7201V19.6262C39.2095 19.0213 39.6995 18.5312 40.3044 18.5312C40.9093 18.5312 41.3994 19.0213 41.3994 19.6262V25.815C41.3994 26.4199 40.9093 26.91 40.3044 26.91H34.1184C33.5135 26.91 33.0234 26.4199 33.0234 25.815C33.0234 25.2101 33.5135 24.7201 34.1184 24.7201H39.2095Z" fill="#B15252"/>
<path fill-rule="evenodd" clip-rule="evenodd" d="M23.7435 22.2641H18.6496C18.0448 22.2641 17.5547 21.774 17.5547 21.1692C17.5547 20.5643 18.0448 20.0742 18.6496 20.0742H24.8385C25.4433 20.0742 25.9334 20.5643 25.9334 21.1692V27.3552C25.9334 27.9601 25.4433 28.4501 24.8385 28.4501C24.2336 28.4501 23.7435 27.9601 23.7435 27.3552V22.2641Z" fill="#B15252"/>
<path fill-rule="evenodd" clip-rule="evenodd" d="M11.6849 49.7916C21.9315 60.0382 38.5685 60.0382 48.8151 49.7916C59.0616 39.5451 59.0616 22.9081 48.8151 12.6615C38.5685 2.41492 21.9315 2.41492 11.6849 12.6615C1.43836 22.9109 1.43836 39.5451 11.6849 49.7916ZM13.2307 48.2458C3.83828 38.8534 3.83828 23.6025 13.2307 14.2129C22.6232 4.82044 37.874 4.82044 47.2637 14.2129C56.6561 23.6053 56.6561 38.8562 47.2637 48.2458C37.874 57.6355 22.6232 57.6355 13.2307 48.2458Z" fill="#B15252"/>
<path fill-rule="evenodd" clip-rule="evenodd" d="M43.5301 31.8417C46.4621 36.1459 48.2431 40.3156 48.5176 43.6285C48.6772 45.5635 48.3271 47.1765 47.263 48.2407C45.7816 49.7221 43.2893 49.8509 40.3069 49.0864C35.2914 47.8038 29.013 43.9113 23.2862 38.1845C17.5594 32.4578 13.6669 26.1765 12.3844 21.1639C11.6226 18.1815 11.7487 15.6863 13.2301 14.2077C14.7115 12.7263 17.2038 12.5975 20.1862 13.362C25.2017 14.6446 31.4801 18.5371 37.2069 24.2639L39.5284 26.5854C39.9568 27.0138 40.6485 27.0138 41.0742 26.5854C41.5026 26.1597 41.5026 25.4652 41.0742 25.0396C40.3013 24.2667 39.52 23.4854 38.7527 22.7181C32.6983 16.6637 26.0306 12.5975 20.7267 11.2421C16.8285 10.248 13.6165 10.7269 11.6815 12.6619C9.7464 14.597 9.26754 17.8118 10.2617 21.7071C11.617 27.0082 15.6832 33.6787 21.7376 39.7331C27.792 45.7875 34.4625 49.8537 39.7636 51.2091C43.6617 52.2032 46.8737 51.7243 48.8088 49.7893C50.2818 48.3135 50.9203 46.1236 50.6963 43.4492C50.3966 39.8479 48.526 35.2889 45.3363 30.6123C44.9975 30.1139 44.317 29.985 43.8157 30.3239C43.3201 30.6627 43.1913 31.3432 43.5301 31.8417Z" fill="#B15252"/>
<path fill-rule="evenodd" clip-rule="evenodd" d="M30.8612 17.9403C35.1654 15.0083 39.3351 13.2273 42.648 12.9529C44.583 12.7932 46.1961 13.1433 47.2602 14.2074C48.7416 15.6888 48.8704 18.1812 48.1059 21.1636C46.8233 26.179 42.9308 32.4575 37.2041 38.1842C31.4773 43.911 25.1961 47.8035 20.1834 49.0861C17.201 49.8478 14.7059 49.7218 13.2273 48.2404C11.7459 46.759 11.617 44.2666 12.3816 41.2842C13.6641 36.2688 17.5566 29.9903 23.2834 24.2636L25.6049 21.9421C26.0334 21.5136 26.0334 20.8219 25.6049 20.3963C25.1793 19.9678 24.4848 19.9678 24.0591 20.3963C23.2862 21.1692 22.5049 21.9505 21.7376 22.7178C15.6832 28.7722 11.617 35.4427 10.2617 40.7438C9.26754 44.6419 9.7464 47.8539 11.6815 49.789C13.6165 51.724 16.8313 52.2029 20.7267 51.2088C26.0278 49.8534 32.6983 45.7872 38.7527 39.7328C44.8071 33.6784 48.8732 27.0079 50.2286 21.7068C51.2227 17.8087 50.7439 14.5967 48.8088 12.6616C47.333 11.1886 45.1431 10.5501 42.4688 10.7742C38.8675 11.0738 34.3085 12.9445 29.6319 16.1341C29.1334 16.4729 29.0046 17.1534 29.3434 17.6547C29.6823 18.1504 30.3627 18.2792 30.8612 17.9403Z" fill="#B15252"/>
</svg>
