<svg width="42" height="42" viewBox="0 0 42 42" fill="none" xmlns="http://www.w3.org/2000/svg">
<g clip-path="url(#clip0_5094_6004)">
<rect width="42" height="42" rx="5" fill="#A276E5"/>
<path d="M34.4734 1.90909C35.9627 1.91099 37.3904 2.50344 38.4435 3.55651C39.4966 4.60959 40.089 6.03732 40.0909 7.52659V40.0909H7.52659C6.03732 40.089 4.60959 39.4966 3.55651 38.4435C2.50344 37.3904 1.91099 35.9627 1.90909 34.4734V1.90909H34.4734ZM34.4734 0H0V34.4734C0 36.4696 0.792978 38.384 2.20449 39.7955C3.616 41.207 5.53042 42 7.52659 42H42V7.52659C42 5.53042 41.207 3.616 39.7955 2.20449C39.0966 1.50558 38.2669 0.951174 37.3537 0.572928C36.4405 0.194681 35.4618 0 34.4734 0Z" fill="#A276E5"/>
<path d="M18.0022 24.114H13.0194L11.7738 27.8725C11.7594 27.987 11.6799 28.0443 11.5351 28.0443H9.2824C9.13922 28.0443 9.0891 27.9727 9.13206 27.8295L13.6041 15.072C13.7343 14.6878 13.7996 14.2846 13.7974 13.8789C13.7974 13.793 13.8475 13.75 13.9477 13.75H17.05C17.0858 13.7502 17.1208 13.7604 17.1511 13.7794C17.1815 13.7983 17.2059 13.8253 17.2218 13.8574L22.195 27.851C22.238 27.9799 22.195 28.0443 22.0661 28.0443H19.5271C19.4798 28.0457 19.4335 28.0318 19.3948 28.0047C19.3561 27.9776 19.3272 27.9388 19.3123 27.894L18.0022 24.114ZM13.5779 22.0307H17.4438C17.3865 21.8302 17.0898 20.9178 16.5536 19.2935C16.0175 17.6692 15.6627 16.5556 15.4893 15.9526H15.4679C15.296 16.6828 14.666 18.7089 13.5779 22.0307Z" fill="white"/>
<path d="M30.4189 23.3184H26.1019C26.0911 23.7054 26.1589 24.0907 26.3013 24.4508C26.4436 24.8109 26.6575 25.1385 26.93 25.4136C27.4677 25.9354 28.2512 26.1963 29.2806 26.1963C30.1971 26.217 31.1068 26.0336 31.9437 25.6594C32.0297 25.6307 32.0726 25.6665 32.0726 25.7668V27.3776C32.0789 27.4284 32.0701 27.48 32.0471 27.5259C32.0242 27.5717 31.9882 27.6098 31.9437 27.6353C30.9204 28.0748 29.814 28.2872 28.7007 28.2581C27.8414 28.2769 26.987 28.1235 26.1878 27.8071C25.5345 27.5504 24.9589 27.1286 24.5174 26.5829C24.123 26.0781 23.8224 25.5067 23.6297 24.8957C23.4317 24.2601 23.3335 23.5975 23.3385 22.9318C23.2959 21.4949 23.7816 20.0923 24.7035 18.9895C25.6135 17.9252 26.8552 17.3922 28.4286 17.3906C29.9177 17.3906 31.0314 17.8345 31.7695 18.7222C32.5072 19.5905 32.9042 20.6973 32.8864 21.8364C32.8888 22.2461 32.8601 22.6553 32.8004 23.0606C32.7976 23.1053 32.7786 23.1474 32.747 23.179C32.7154 23.2106 32.6733 23.2296 32.6286 23.2324C31.8944 23.3049 31.1565 23.3335 30.4189 23.3184ZM26.1019 21.6479H29.1517C29.5317 21.6634 29.9123 21.649 30.29 21.6049C30.3077 21.5058 30.3149 21.405 30.3115 21.3043C30.3184 20.7807 30.1569 20.2687 29.8509 19.8438C29.5407 19.4143 29.0372 19.1995 28.3356 19.1995C28.0364 19.1852 27.7379 19.2409 27.4641 19.3623C27.1902 19.4837 26.9485 19.6674 26.7582 19.8987C26.3658 20.3992 26.1367 21.0081 26.1019 21.6431V21.6479Z" fill="white"/>
</g>
<defs>
<clipPath id="clip0_5094_6004">
<rect width="42" height="42" rx="5" fill="white"/>
</clipPath>
</defs>
</svg>
