<svg width="46" height="46" viewBox="0 0 46 46" fill="none" xmlns="http://www.w3.org/2000/svg">
<g clip-path="url(#clip0_5094_5997)">
<rect width="46" height="46" rx="5" fill="#A276E5"/>
<path d="M37.7566 2.09091C39.3877 2.09298 40.9514 2.74186 42.1048 3.89523C43.2581 5.04859 43.907 6.6123 43.9091 8.24341V43.9091H8.24341C6.6123 43.907 5.04859 43.2581 3.89523 42.1048C2.74186 40.9514 2.09298 39.3877 2.09091 37.7566V2.09091H37.7566ZM37.7566 0H0V37.7566C0 39.9429 0.868499 42.0396 2.41444 43.5856C3.96038 45.1315 6.05712 46 8.24341 46H46V8.24341C46 6.05712 45.1315 3.96038 43.5856 2.41444C42.8201 1.64897 41.9113 1.04176 40.9112 0.627492C39.9111 0.213222 38.8391 0 37.7566 0Z" fill="#A276E5"/>
<path d="M12.6029 30.5811V15.239C12.5999 15.2167 12.602 15.194 12.6092 15.1726C12.6165 15.1513 12.6285 15.1319 12.6444 15.1159C12.6604 15.1 12.6798 15.088 12.7011 15.0808C12.7225 15.0735 12.7452 15.0714 12.7675 15.0744C13.9594 15.043 15.4727 15.0273 17.3074 15.0273C19.4715 15.0273 21.0597 15.5135 22.0721 16.4858C22.5632 16.9457 22.952 17.5038 23.2132 18.1239C23.4743 18.7439 23.6021 19.412 23.588 20.0847C23.588 21.855 22.9607 23.1758 21.7062 24.047C20.4516 24.9182 18.8791 25.346 16.9886 25.3303H15.5903V30.5576C15.5937 30.5831 15.5912 30.6091 15.583 30.6335C15.5748 30.6579 15.561 30.6801 15.5428 30.6983C15.5246 30.7165 15.5024 30.7302 15.478 30.7385C15.4536 30.7467 15.4276 30.7492 15.4021 30.7458H12.7885C12.6647 30.7423 12.6029 30.6874 12.6029 30.5811ZM15.5903 17.2855V23.0721C16.0988 23.1145 16.6091 23.1302 17.1192 23.1192C18.1647 23.1192 19.0159 22.8874 19.6728 22.4239C20.3297 21.9605 20.6546 21.2042 20.6477 20.1553C20.6477 19.2301 20.3619 18.5165 19.7904 18.0147C19.2189 17.5129 18.3912 17.2585 17.3074 17.2515C17.0461 17.2515 16.7847 17.2515 16.5233 17.2515C16.262 17.2515 16.0529 17.2515 15.8882 17.2515L15.5903 17.2855Z" fill="white"/>
<path d="M32.5047 21.991C31.6841 21.4613 30.7292 21.1774 29.7525 21.1729C29.3257 21.1393 28.8996 21.2468 28.5398 21.4787C28.4221 21.5609 28.3256 21.6698 28.2583 21.7966C28.1911 21.9234 28.1549 22.0644 28.153 22.2079C28.155 22.3475 28.186 22.485 28.244 22.6119C28.3021 22.7388 28.3859 22.8522 28.4901 22.945C28.9091 23.2659 29.3779 23.5158 29.878 23.6846C31.1795 24.1865 32.0926 24.7162 32.617 25.2737C33.1519 25.8592 33.4338 26.6324 33.4011 27.4248C33.4167 27.9195 33.3149 28.411 33.1042 28.8589C32.8934 29.3068 32.5796 29.6984 32.1884 30.0018C31.3799 30.6517 30.2866 30.9767 28.9083 30.9767C27.53 30.9767 26.3975 30.7258 25.5106 30.224C25.4635 30.207 25.4238 30.1744 25.3981 30.1315C25.3724 30.0886 25.3623 30.0382 25.3694 29.9887V27.8011C25.3665 27.7766 25.3702 27.7517 25.3804 27.7291C25.3905 27.7065 25.4066 27.6871 25.4269 27.6731C25.4417 27.66 25.4608 27.6528 25.4805 27.6528C25.5002 27.6528 25.5193 27.66 25.5341 27.6731C26.4709 28.3974 27.6196 28.7941 28.8038 28.8021C29.2425 28.83 29.6797 28.7282 30.0609 28.5094C30.1938 28.4306 30.3039 28.3185 30.3804 28.1843C30.457 28.05 30.4973 27.8982 30.4974 27.7436C30.5003 27.5877 30.4703 27.4329 30.4095 27.2893C30.3488 27.1456 30.2585 27.0164 30.1445 26.9099C29.7298 26.5818 29.2598 26.3305 28.7567 26.1676C27.5022 25.6815 26.6309 25.1587 26.1431 24.5994C25.6398 24.0155 25.3756 23.2632 25.4034 22.4928C25.3961 22.0288 25.4914 21.5689 25.6825 21.1459C25.8736 20.723 26.1558 20.3476 26.509 20.0465C27.2443 19.4035 28.2941 19.082 29.6584 19.082C30.9286 19.082 31.9088 19.2563 32.5988 19.6048C32.6772 19.6518 32.7164 19.7537 32.7164 19.9106V21.8629C32.7164 22.0424 32.6458 22.0851 32.5047 21.991Z" fill="white"/>
</g>
<defs>
<clipPath id="clip0_5094_5997">
<rect width="46" height="46" rx="5" fill="white"/>
</clipPath>
</defs>
</svg>
