<svg width="42" height="42" viewBox="0 0 42 42" fill="none" xmlns="http://www.w3.org/2000/svg">
<g clip-path="url(#clip0_5094_5995)">
<path d="M21.5139 0.00641931C33.1077 0.289919 42.2777 9.91842 41.9942 21.5139C41.7107 33.1077 32.0821 42.2777 20.4867 41.9942C8.8929 41.7107 -0.2771 32.0822 0.00640029 20.4867L0.00815029 20.4429C0.31615 8.86492 9.93765 -0.277081 21.5139 0.00641931ZM21.5139 2.17292C11.1172 1.88592 2.4564 10.0829 2.1694 20.4797C1.8824 30.8764 10.0794 39.5372 20.4762 39.8242C30.8729 40.1112 39.5336 31.9142 39.8207 21.5174L39.8224 21.4737C40.0849 11.0927 31.8949 2.45817 21.5139 2.17292ZM31.7374 16.7014H35.9374C37.6454 16.7014 37.1309 15.1737 37.1309 15.1737C36.3386 12.9332 35.0794 10.8866 33.4367 9.16942L33.4279 9.18867C31.7703 7.44263 29.772 6.05542 27.5567 5.11292C27.3827 5.02037 27.1866 4.97759 26.9899 4.98929C26.7933 5.001 26.6036 5.06673 26.4419 5.17925C26.2802 5.29178 26.1526 5.44674 26.0733 5.62708C25.9939 5.80742 25.9658 6.00616 25.9921 6.20142C25.9151 7.60492 25.7437 10.3927 25.7437 10.3927C25.7437 10.3927 25.7717 11.7384 24.6464 11.7384C23.2236 11.7577 22.0406 11.6614 22.0406 11.6614C21.2292 11.5722 20.4636 11.2397 19.8444 10.7077L15.5202 6.14367C15.2185 5.80158 14.8043 5.57889 14.3526 5.51596C13.9009 5.45303 13.4415 5.55404 13.0579 5.80067C9.21479 7.78368 6.26718 11.1509 4.81015 15.2227C4.36215 16.4722 5.3929 16.6332 6.0894 16.6332H16.5894C17.1302 16.586 17.6747 16.6599 18.1833 16.8498C18.6919 17.0396 19.1518 17.3404 19.5294 17.7304C20.9032 19.1724 21.8587 20.1262 21.8587 20.1262C21.8587 20.1262 22.6987 21.0712 24.0637 22.5027C24.8179 23.3059 25.1696 24.4084 25.0174 25.5004C25.0174 25.5004 24.5012 35.5524 24.5012 36.0004C24.4539 36.6969 24.5676 37.7382 25.8469 37.3567C29.9858 36.1133 33.4992 33.3466 35.6784 29.6147C35.9462 29.2444 36.0722 28.7903 36.0337 28.335C35.9951 27.8796 35.7946 27.4532 35.4684 27.1332L31.1441 22.5709C30.6332 21.9289 30.3304 21.1462 30.2761 20.3274C30.2761 20.3274 30.2377 19.1339 30.3339 17.7217C30.4109 16.5964 31.7374 16.7014 31.7374 16.7014ZM27.6039 19.1059C26.7726 19.9267 25.0069 19.5067 23.7189 18.1522C22.4309 16.7959 22.1019 15.0004 22.9314 14.2077C23.7626 13.4149 25.5599 13.7894 26.8496 15.1457C28.1394 16.5002 28.4352 18.2852 27.6039 19.1059Z" fill="#A276E5"/>
</g>
<defs>
<clipPath id="clip0_5094_5995">
<rect width="42" height="42" fill="white"/>
</clipPath>
</defs>
</svg>
