<svg width="44" height="44" viewBox="0 0 44 44" fill="none" xmlns="http://www.w3.org/2000/svg">
<path d="M6.52582 36.6817C-4.00716 24.3202 2.85962 10.9424 7.8951 6.52557C10.5244 4.22059 14.7609 0.564212 23.9164 1.04265C30.3252 1.37756 30.3252 4.23435 30.3251 4.69632V4.69793C30.3251 6.04714 27.4701 7.07399 21.1697 8.33169C12.0143 10.1593 9.53878 13.0932 8.81071 13.8113C6.97963 15.6175 3.0878 20.2114 4.23222 27.065C4.84259 31.4818 8.90148 40.224 20.2542 39.8585C28.4941 39.8585 33.0726 33.0264 34.9029 23.8882C35.6353 11.0947 39.4813 11.9837 40.8547 13.8113C44.059 18.0758 44.9819 23.8652 39.9424 33.0264C34.9029 42.1875 17.0588 49.043 6.52582 36.6817Z" fill="#A276E5" stroke="#A276E5"/>
<path d="M22.9956 9.69789C29.4049 9.08863 32.151 6 32.151 4.67188C32.151 4.67188 34.5491 6.15161 35.8132 7.41334C37.0773 8.67506 38.5598 11.0686 38.5598 11.0686C37.1865 11.5255 33.8905 13.7187 33.5243 20.6637C33.1581 27.6088 30.3218 32.2388 28.4906 33.4572C10.5459 35.6504 8.65153 22.0345 10.1774 14.7239C11.3982 13.3532 16.5863 10.3071 22.9956 9.69789Z" fill="#A276E5" stroke="#A276E5"/>
</svg>
