<svg width="42" height="43" viewBox="0 0 42 43" fill="none" xmlns="http://www.w3.org/2000/svg">
<path d="M0.804688 1C14.1316 1 27.4585 1 41.1893 1C41.1893 14.3269 41.1893 27.6538 41.1893 41.3846C27.8624 41.3846 14.5355 41.3846 0.804688 41.3846C0.804688 28.0577 0.804688 14.7308 0.804688 1Z" fill="#FEFEFD"/>
<path d="M0.804688 1C14.1316 1 27.4585 1 41.1893 1C41.1893 14.3269 41.1893 27.6538 41.1893 41.3846C35.6986 41.3846 30.2079 41.3846 24.5508 41.3846C24.8673 41.1315 25.1721 40.9278 25.5201 40.7284C26.1254 40.373 26.6709 39.9675 27.2162 39.5269C27.3295 39.4371 27.3295 39.4371 27.445 39.3455C28.2358 38.7108 28.9897 38.046 29.6393 37.2654C29.7045 37.1921 29.7697 37.1188 29.8368 37.0433C32.3787 34.1667 33.979 30.264 33.9517 26.417C33.9504 26.2001 33.9517 25.9834 33.9532 25.7665C33.9548 24.5493 33.8074 23.3764 33.4607 22.207C33.4401 22.1367 33.4195 22.0664 33.3983 21.994C32.7392 19.8203 31.6071 17.819 30.1239 16.1038C30.0717 16.0426 30.0194 15.9814 29.9655 15.9183C29.7803 15.7068 29.5902 15.5004 29.397 15.2962C29.3495 15.2459 29.302 15.1957 29.2531 15.144C28.4447 14.296 27.6014 13.5569 26.6508 12.8731C26.5819 12.8215 26.513 12.77 26.442 12.7169C24.0605 10.9747 21.2148 9.74791 18.3316 9.15769C18.1775 9.12349 18.1775 9.12349 18.0202 9.0886C17.721 9.02432 17.4215 8.96831 17.1201 8.91538C17.0598 8.90434 16.9995 8.89329 16.9374 8.8819C14.2392 8.40015 11.2005 8.57425 8.55853 9.31923C8.48295 9.34002 8.40736 9.3608 8.32948 9.38221C5.80092 10.0872 3.46793 11.1769 1.2784 12.6183C1.12594 12.7127 0.965048 12.7929 0.804688 12.8731C0.804688 8.95496 0.804688 5.03685 0.804688 1Z" fill="#A276E5"/>
<path d="M13.6478 12.5237C13.705 12.5237 13.7623 12.5238 13.8212 12.5239C14.8814 12.5267 15.918 12.6158 16.9643 12.7912C17.038 12.8029 17.1117 12.8146 17.1876 12.8266C17.687 12.9102 18.154 13.0338 18.6302 13.2052C18.6994 13.2299 18.7685 13.2546 18.8397 13.28C22.4159 14.5862 25.1242 17.2424 26.7507 20.663C27.6211 22.5583 27.9641 24.6006 27.9639 26.6742C27.9641 26.8585 27.9656 27.0427 27.9671 27.227C27.9701 28.0027 27.9115 28.7444 27.7874 29.5105C27.772 29.6089 27.7565 29.7073 27.7406 29.8087C27.42 31.7521 26.5612 33.7408 25.2836 35.2451C25.2238 35.316 25.164 35.3869 25.1025 35.4599C23.8403 36.9077 22.2388 37.8079 20.4374 38.4203C20.3609 38.4466 20.2843 38.4729 20.2054 38.5C19.0701 38.8706 17.9899 38.9995 16.8036 38.9876C16.601 38.9857 16.3986 38.986 16.1961 38.9865C15.0522 38.9847 13.9449 38.8946 12.8401 38.5768C12.7646 38.5555 12.6891 38.5342 12.6113 38.5122C10.053 37.7719 7.91798 36.3663 6.46434 34.1143C6.40697 34.0255 6.34961 33.9367 6.2905 33.8452C5.83183 33.0889 5.52258 32.289 5.2528 31.4489C5.23017 31.3815 5.20753 31.3141 5.1842 31.2447C4.99479 30.6315 4.96981 30.0485 4.97516 29.4095C4.97589 29.3057 4.97662 29.2019 4.97737 29.0949C5.0129 27.1488 5.88024 25.5193 7.25123 24.1614C8.88967 22.6043 11.0726 21.9047 13.249 21.5143C13.329 21.4988 13.4091 21.4833 13.4916 21.4673C14.8341 21.28 15.9993 21.455 17.1259 22.2261C18.0923 22.996 18.7348 24.015 18.9836 25.2297C19.091 26.321 18.7403 27.3215 18.0734 28.1901C17.4186 28.9807 16.56 29.8032 15.5105 29.9951C14.8793 30.046 14.3373 30.0573 13.8143 29.672C13.7656 29.6365 13.7169 29.601 13.6667 29.5644C12.9752 28.9706 12.7256 28.0316 12.6527 27.1552C12.5912 26.8727 12.4766 26.7304 12.2797 26.522C12.0145 26.3894 11.7576 26.3894 11.472 26.4412C11.2237 26.5689 11.0291 26.7357 10.8259 26.9258C10.752 26.9947 10.752 26.9947 10.6766 27.065C9.71153 28.064 9.50958 29.4423 9.50814 30.7725C9.52874 31.7791 9.99268 32.5139 10.6666 33.241C12.2137 34.7161 14.2775 35.0627 16.3314 35.0201C18.0939 34.9637 19.5735 34.3627 20.922 33.2258C20.9891 33.1746 21.0561 33.1234 21.1252 33.0706C22.897 31.5886 23.8335 29.0531 24.2058 26.8472C24.2287 26.7122 24.2546 26.5777 24.2812 26.4434C24.5716 24.3001 23.9259 22.1879 22.6788 20.4492C21.2719 18.6575 19.4885 17.7216 17.3682 16.9912C17.2801 16.9596 17.2801 16.9596 17.1903 16.9274C16.7342 16.7676 16.2782 16.6646 15.8033 16.5773C15.7331 16.5636 15.6629 16.55 15.5906 16.536C12.3111 15.9198 9.11664 16.567 6.36212 18.4337C5.33259 19.1443 4.38547 19.9302 3.47588 20.7874C3.41674 20.8431 3.3576 20.8988 3.29667 20.9562C2.67263 21.5616 2.14935 22.2505 1.63333 22.948C1.57808 23.0223 1.57808 23.0223 1.5217 23.0982C1.28627 23.4202 1.08353 23.7493 0.891265 24.0989C0.864611 24.0989 0.837958 24.0989 0.810496 24.0989C0.776514 23.3554 0.750837 22.6121 0.735169 21.868C0.727641 21.5222 0.717475 21.177 0.700819 20.8316C0.587763 18.4238 0.587763 18.4238 1.11646 17.7081C1.40593 17.3904 1.72174 17.1266 2.07418 16.8815C2.32571 16.7061 2.55866 16.5114 2.79435 16.3155C3.5068 15.7378 4.29797 15.2669 5.09127 14.8105C5.16641 14.7663 5.16641 14.7663 5.24306 14.7213C7.03158 13.6762 9.10428 13.0153 11.149 12.7105C11.279 12.6901 11.279 12.6901 11.4117 12.6692C12.16 12.5592 12.8912 12.5199 13.6478 12.5237Z" fill="#A276E5"/>
<path d="M0.804688 34.7617C1.04759 35.0653 1.2446 35.3468 1.44579 35.6754C2.91472 37.9986 5.02192 39.8262 7.49215 41.0123C7.71554 41.1201 7.89713 41.208 8.07392 41.3848C5.67507 41.3848 3.27623 41.3848 0.804688 41.3848C0.804688 39.1992 0.804688 37.0136 0.804688 34.7617Z" fill="#A276E5"/>
</svg>
