<svg width="39" height="44" viewBox="0 0 39 44" fill="none" xmlns="http://www.w3.org/2000/svg">
<path d="M19.5 1.19141L1 11.6914V32.6914L19.5 43.1914L38 32.6914V11.6914L19.5 1.19141Z" fill="#A276E5"/>
<path d="M34.4194 13.4414L19.5 5.27474L4.58065 13.4414V30.9414L19.5 39.1081M34.4194 13.4414V30.9414L19.5 39.1081M34.4194 13.4414L22.4839 20.4414L19.5 28.6081V39.1081M1 11.6914L19.5 1.19141L38 11.6914V32.6914L19.5 43.1914L1 32.6914V11.6914ZM2.79032 12.8581L19.5 3.52474L36.2097 12.8581V31.5247L19.5 40.8581L2.79032 31.5247V12.8581Z" stroke="white" stroke-width="0.5"/>
<path d="M14.0645 29.4206H10V16.0039H15.4194L18.8065 24.1706L22.871 16.0039H28.2903V29.4206H23.5484V20.6706L19.4839 29.4206H18.129L14.0645 20.6706V29.4206Z" fill="white" stroke="white" stroke-width="0.5"/>
</svg>
