<svg width="42" height="43" viewBox="0 0 42 43" fill="none" xmlns="http://www.w3.org/2000/svg">
<path d="M41.8343 23.3163C41.5884 21.5857 40.989 19.9445 40.0522 18.4388C39.2352 17.1248 38.1869 15.9561 36.9357 14.9628L36.9391 14.9597L23.7981 4.86661C23.7872 4.85709 23.7759 4.84823 23.7685 4.84307C23.3315 4.50838 22.74 4.32422 22.1034 4.32422C21.4661 4.32422 20.8514 4.50879 20.3735 4.84405C19.8598 5.20294 19.5661 5.67913 19.5456 6.18608C19.5268 6.65891 19.7524 7.11394 20.1825 7.46872C21.0282 8.13597 21.8721 8.81789 22.7171 9.50047C23.5371 10.1633 24.3821 10.8459 25.223 11.5104L9.12744 11.4995C7.28674 11.4995 6.03339 12.3639 5.77556 13.811C5.66228 14.4448 5.86219 15.1418 6.3091 15.6755C6.78324 16.2415 7.47164 16.5536 8.24741 16.5536L9.47444 16.5543C11.1695 16.5543 12.8721 16.5502 14.5724 16.5461L16.1938 16.5424L1.58574 27.3498L1.52774 27.3921C0.711775 28.0177 0.177587 28.8945 0.0623333 29.7977C-0.02503 30.482 0.134603 31.1073 0.524169 31.6067C0.988466 32.202 1.71338 32.5295 2.56552 32.5295C3.40265 32.5295 4.25684 32.2123 4.97182 31.6347L12.8604 25.1789C12.8267 25.4941 12.7858 25.9566 12.7905 26.2923C12.7993 26.8238 12.97 27.8902 13.2401 28.7559C13.7982 30.5353 14.7384 32.1632 16.0343 33.5928C17.3827 35.0801 19.025 36.2595 20.9152 37.0973C22.9135 37.9811 25.0616 38.4297 27.3002 38.4297H27.3209C29.5666 38.4243 31.7216 37.9685 33.7263 37.0747C35.6196 36.227 37.2611 35.0429 38.6045 33.5556C39.8988 32.1188 40.8375 30.4882 41.3946 28.7103C41.6699 27.8309 41.8473 26.9204 41.921 26.003C41.9898 25.1147 41.9602 24.2107 41.8343 23.3163ZM27.4639 31.8442C22.5304 31.8442 18.5297 28.2654 18.5297 23.8505C18.5297 19.436 22.5304 15.8572 27.4639 15.8572C32.3973 15.8572 36.3977 19.436 36.3977 23.8505C36.3978 28.2654 32.3973 31.8442 27.4639 31.8442ZM32.6159 23.1481C32.6886 24.4658 32.1623 25.6893 31.2381 26.595C30.298 27.5177 28.9564 28.0972 27.4563 28.0972C25.9567 28.0972 24.615 27.5177 23.6745 26.595C22.7507 25.6893 22.2255 24.4659 22.2977 23.1492C22.3687 21.8692 22.993 20.7394 23.9334 19.9394C24.8582 19.1528 26.1 18.6729 27.4563 18.6729C28.8129 18.6729 30.0543 19.1529 30.9791 19.9394C31.9197 20.7394 32.5443 21.8685 32.6159 23.1481Z" fill="#A276E5"/>
</svg>
