<svg width="42" height="43" viewBox="0 0 42 43" fill="none" xmlns="http://www.w3.org/2000/svg">
<g clip-path="url(#clip0_5094_6047)">
<path d="M35.8477 6.58893C31.8813 2.63733 26.6086 0.460938 21 0.460938C15.3914 0.460938 10.1187 2.63733 6.15234 6.58893C2.18504 10.5418 0 15.7979 0 21.3888C0 26.9798 2.18504 32.2359 6.15234 36.1888C10.1187 40.1404 15.3914 42.3167 21 42.3167C26.6086 42.3167 31.8813 40.1404 35.8477 36.1888C39.815 32.2359 42 26.9798 42 21.3888C42 15.7979 39.815 10.5418 35.8477 6.58893ZM18.0985 27.3374C17.0132 28.224 16.0009 28.9511 15.0889 29.4981C13.7085 30.3267 12.5799 30.7295 11.6391 30.7295C8.44249 30.7295 5.84216 28.1289 5.84216 24.9325C5.84216 21.7362 8.44281 19.1355 11.6391 19.1355C12.5799 19.1355 13.7085 19.5383 15.0889 20.3667C16.0006 20.9136 17.0132 21.6407 18.0985 22.5277C18.8236 23.1201 19.2395 23.9969 19.2395 24.9325C19.2395 25.8682 18.8236 26.7446 18.0985 27.3374ZM21 20.4195C20.0643 20.4195 19.1876 20.0036 18.5951 19.2785C17.7082 18.1935 16.9814 17.1809 16.4341 16.2693C15.6058 14.8888 15.203 13.7603 15.203 12.8191C15.203 9.6228 17.8033 7.02216 21 7.02216C24.1967 7.02216 26.797 9.6228 26.797 12.8191C26.797 13.7603 26.3942 14.8888 25.5659 16.2693C25.0186 17.1809 24.2918 18.1935 23.4049 19.2785C22.8124 20.0036 21.9357 20.4195 21 20.4195ZM30.3609 30.7295C29.4201 30.7295 28.2915 30.3267 26.9107 29.4981C25.9991 28.9511 24.9868 28.224 23.9015 27.3374C23.1764 26.7446 22.7605 25.8682 22.7605 24.9325C22.7605 23.9969 23.1764 23.1201 23.9015 22.5277C24.9868 21.6407 25.9991 20.914 26.9107 20.3667C28.2915 19.5383 29.4201 19.1355 30.3609 19.1355C33.5572 19.1355 36.1578 21.7359 36.1578 24.9325C36.1578 28.1289 33.5572 30.7295 30.3609 30.7295Z" fill="#A276E5"/>
</g>
<defs>
<clipPath id="clip0_5094_6047">
<rect width="42" height="42" fill="white" transform="translate(0 0.378906)"/>
</clipPath>
</defs>
</svg>
