<svg width="42" height="43" viewBox="0 0 42 43" fill="none" xmlns="http://www.w3.org/2000/svg">
<path d="M20.2193 15.4961L31 8.93026L20.9679 3.09092C20.8541 3.0288 20.725 2.99609 20.5936 2.99609C20.4622 2.99609 20.3331 3.0288 20.2193 3.09092L10 8.98688L20.2193 15.4961Z" fill="#A276E5"/>
<path d="M20.2759 35.4408C5.06897 35.6819 -7.20517 25.829 9.31966 19.7323V22.9206C9.31977 23.0733 9.36172 23.2225 9.44027 23.3497C9.51882 23.477 9.63049 23.5765 9.76138 23.6361L19.5517 29.9195C19.5517 29.1418 19.5517 17.7337 19.5517 16.5906C18.5741 15.9218 10.0655 10.4782 9.31966 9.99609V18.0992C3.47586 19.9578 0 23.1695 0 26.7467C0 32.4935 8.9069 36.9961 20.2759 36.9961C20.4679 36.9961 20.6521 36.9142 20.7879 36.7683C20.9237 36.6225 21 36.4247 21 36.2184C21 36.0122 20.9237 35.8144 20.7879 35.6686C20.6521 35.5227 20.4679 35.4408 20.2759 35.4408Z" fill="#A276E5"/>
<path d="M42 26.7111C42 23.1083 38.2044 19.9076 31.8189 18.0675V9.99609L21 16.6141V29.8655L31.4767 23.4485C32.0211 23.1161 31.7644 22.1419 31.8189 21.4306V19.6756C45.2744 23.8196 41.93 32.1848 28.63 34.5815L30.1156 33.0353C30.2589 32.8876 30.3374 32.6894 30.3338 32.4843C30.3301 32.2791 30.2446 32.0838 30.0961 31.9413C29.9476 31.7988 29.7482 31.7208 29.5418 31.7244C29.3354 31.728 29.1389 31.813 28.9956 31.9606L25.8844 35.1536C25.8098 35.2307 25.752 35.3224 25.7148 35.4229C25.6776 35.5233 25.6618 35.6303 25.6684 35.7372C25.6749 35.844 25.7038 35.9483 25.753 36.0435C25.8023 36.1387 25.8708 36.2227 25.9544 36.2901L29.0656 38.8183C29.2034 38.9318 29.3765 38.9946 29.5556 38.9961C29.7169 38.9968 29.8745 38.9475 30.0064 38.8552C30.1384 38.7629 30.2382 38.6321 30.2921 38.4809C30.3459 38.3297 30.3511 38.1656 30.3069 38.0113C30.2628 37.8571 30.1714 37.7203 30.0456 37.6199L28.2956 36.1974C36.68 34.7903 42 31.1488 42 26.7111Z" fill="#A276E5"/>
</svg>
