<svg width="60" height="60" viewBox="0 0 60 60" fill="none" xmlns="http://www.w3.org/2000/svg">
<path d="M10.168 30.0014H9.02539L30.002 50.978L47.2285 33.7514H52.5312L30.002 56.2807L4.66016 30.9682C3.97656 30.2846 3.37109 29.5522 2.84375 28.7709C2.31641 27.9897 1.85742 27.1498 1.4668 26.2514H8.58594L16.877 17.9897L30.002 31.0854L39.377 21.7397L43.918 26.2514H54.3184C54.9434 25.2553 55.4219 24.2006 55.7539 23.0873C56.0859 21.9741 56.252 20.8315 56.252 19.6596C56.252 17.9604 55.9395 16.3783 55.3145 14.9135C54.6895 13.4487 53.8203 12.1791 52.707 11.1049C51.5938 10.0307 50.3047 9.18108 48.8398 8.55608C47.375 7.93108 45.7832 7.61858 44.0645 7.61858C42.4238 7.61858 40.9688 7.87249 39.6992 8.3803C38.4297 8.88811 37.2578 9.57171 36.1836 10.4311C35.1094 11.2905 34.084 12.2377 33.1074 13.2729C32.1309 14.308 31.0957 15.392 30.002 16.5248C28.9473 15.4701 27.9219 14.4057 26.9258 13.3315C25.9297 12.2573 24.8945 11.2905 23.8203 10.4311C22.7461 9.57171 21.5645 8.86858 20.2754 8.32171C18.9863 7.77483 17.541 7.5014 15.9395 7.5014C14.2598 7.5014 12.6875 7.8139 11.2227 8.4389C9.75781 9.0639 8.46875 9.93304 7.35547 11.0463C6.24219 12.1596 5.37305 13.4487 4.74805 14.9135C4.12305 16.3783 3.80078 17.9604 3.78125 19.6596C3.78125 20.5776 3.88867 21.5248 4.10352 22.5014H0.265625C0.167969 22.0326 0.109375 21.5639 0.0898438 21.0951C0.0703125 20.6264 0.0507812 20.1576 0.03125 19.6889C0.03125 17.4819 0.441406 15.4116 1.26172 13.478C2.08203 11.5444 3.21484 9.85491 4.66016 8.4096C6.10547 6.96429 7.79492 5.83147 9.72852 5.01116C11.6621 4.19085 13.7324 3.77093 15.9395 3.7514C17.5605 3.7514 19.0059 3.93694 20.2754 4.30804C21.5449 4.67913 22.7168 5.18694 23.791 5.83147C24.8652 6.476 25.9004 7.26702 26.8965 8.20452C27.8926 9.14202 28.9277 10.1479 30.002 11.2221C31.0762 10.1283 32.1016 9.12249 33.0781 8.20452C34.0547 7.28655 35.0898 6.5053 36.1836 5.86077C37.2773 5.21624 38.459 4.69866 39.7285 4.30804C40.998 3.91741 42.4434 3.73186 44.0645 3.7514C46.252 3.7514 48.3125 4.16155 50.2461 4.98186C52.1797 5.80218 53.8594 6.93499 55.2852 8.3803C56.7109 9.82561 57.8438 11.5053 58.6836 13.4194C59.5234 15.3334 59.9434 17.394 59.9434 19.601C59.9434 21.4955 59.6113 23.3315 58.9473 25.1088C58.2832 26.8862 57.3359 28.517 56.1055 30.0014H42.3359L39.377 27.0131L30.002 36.4174L16.877 23.2631L10.168 30.0014Z" fill="url(#paint0_linear_6622_3646)"/>
<defs>
<linearGradient id="paint0_linear_6622_3646" x1="0.03125" y1="30.0153" x2="59.9434" y2="30.0153" gradientUnits="userSpaceOnUse">
<stop stop-color="#5254CB"/>
<stop offset="1" stop-color="#FF942F"/>
</linearGradient>
</defs>
</svg>
