<svg width="60" height="60" viewBox="0 0 60 60" fill="none" xmlns="http://www.w3.org/2000/svg">
<path d="M34.8135 3.5L35.1504 3.50879C36.8335 3.59395 38.4306 4.2998 39.6279 5.49707C40.905 6.77417 41.623 8.50641 41.625 10.3125V34.1279C41.6229 35.9339 40.9049 37.6654 39.6279 38.9424C38.3509 40.2194 36.6194 40.9373 34.8135 40.9395H25.1797C23.3736 40.9374 21.6414 40.2195 20.3643 38.9424C19.0873 37.6654 18.3693 35.9338 18.3672 34.1279V10.3125L18.376 9.97461C18.4612 8.2915 19.167 6.69437 20.3643 5.49707C21.6414 4.21997 23.3736 3.50203 25.1797 3.5H34.8135ZM20.8408 34.9375C21.0184 35.9031 21.5112 36.7856 22.248 37.4424C23.0556 38.1621 24.099 38.561 25.1807 38.5645H34.8125L35.0146 38.5596C36.0233 38.5102 36.9872 38.117 37.7441 37.4424C38.4811 36.7856 38.9747 35.9031 39.1523 34.9375H20.8408ZM20.7422 32.5625H39.25V30.0332H20.7422V32.5625ZM20.7422 27.6582H39.25V25.1299H20.7422V27.6582ZM20.7422 22.7549H39.25V20.2246H20.7422V22.7549ZM20.7422 17.8496H39.25V15.3213H20.7422V17.8496ZM27.0977 8.80859C27.0918 9.11962 26.9633 9.41591 26.7412 9.63379C26.5192 9.85155 26.2211 9.97354 25.9102 9.97363C25.5991 9.97364 25.3002 9.85166 25.0781 9.63379C24.8561 9.41593 24.7286 9.11957 24.7227 8.80859V5.91504C23.6806 6.0219 22.7069 6.49516 21.9775 7.25488C21.1878 8.07759 20.7451 9.17304 20.7422 10.3135V12.9463H39.25V10.3135L39.2451 10.0996C39.1912 9.03678 38.7558 8.02607 38.0156 7.25488C37.2864 6.4953 36.3124 6.02202 35.2705 5.91504V8.80371C35.2705 9.11849 35.1453 9.42089 34.9229 9.64355C34.7002 9.86619 34.3979 9.99114 34.083 9.99121C33.7681 9.99121 33.4659 9.86625 33.2432 9.64355C33.0205 9.42086 32.8955 9.11861 32.8955 8.80371V5.875H31.1836V8.80859C31.1775 9.11946 31.0501 9.41605 30.8281 9.63379C30.6061 9.85154 30.3071 9.97362 29.9961 9.97363C29.6853 9.97358 29.387 9.85139 29.165 9.63379C28.943 9.41605 28.8147 9.11952 28.8086 8.80859V5.875H27.0977V8.80859Z" fill="#A276E5" stroke="#A276E5" stroke-width="0.5"/>
<path d="M13.3984 29.2441L13.4248 29.7559C14.7931 51.2683 45.6936 51.1127 46.6016 29.2441V21.1797C46.6016 20.8648 46.7266 20.5625 46.9492 20.3398C47.1719 20.1172 47.4742 19.9922 47.7891 19.9922L47.9062 19.998C48.1782 20.025 48.434 20.145 48.6289 20.3398C48.8516 20.5625 48.9765 20.8648 48.9766 21.1797V29.2549C48.9685 34.1184 47.0943 38.7935 43.7402 42.3154C40.4407 45.78 35.9566 47.8663 31.1875 48.167V54.126H35.4209C35.7356 54.1261 36.0372 54.2511 36.2598 54.4736C36.4825 54.6963 36.6084 54.9985 36.6084 55.3135C36.6083 55.6284 36.4824 55.9307 36.2598 56.1533C36.0372 56.3757 35.7355 56.5009 35.4209 56.501H24.5801C24.2653 56.501 23.9629 56.3759 23.7402 56.1533C23.5176 55.9307 23.3926 55.6284 23.3926 55.3135C23.3926 54.9985 23.5175 54.6963 23.7402 54.4736C23.9629 54.251 24.2652 54.126 24.5801 54.126H28.8125V48.167C24.0435 47.8663 19.5592 45.78 16.2598 42.3154C12.9057 38.7935 11.0315 34.1184 11.0234 29.2549V21.1758L11.0312 21.0596C11.062 20.7911 11.1837 20.5399 11.3779 20.3486C11.6001 20.13 11.8993 20.0068 12.2109 20.0068C12.5226 20.0068 12.8218 20.1301 13.0439 20.3486C13.266 20.5672 13.3934 20.8643 13.3984 21.1758V29.2441Z" fill="#A276E5" stroke="#A276E5" stroke-width="0.5"/>
</svg>
