<svg width="60" height="60" viewBox="0 0 60 60" fill="none" xmlns="http://www.w3.org/2000/svg">
<path fill-rule="evenodd" clip-rule="evenodd" d="M3.125 7.5C3.125 6.46448 3.96448 5.625 5 5.625H55C56.0355 5.625 56.875 6.46448 56.875 7.5V43.9582C56.875 44.9937 56.0355 45.8332 55 45.8332H5C3.96448 45.8332 3.125 44.9937 3.125 43.9582V7.5ZM6.875 9.375V42.0832H53.125V9.375H6.875Z" fill="#A276E5"/>
<path fill-rule="evenodd" clip-rule="evenodd" d="M3.125 43.957C3.125 42.9215 3.96448 42.082 5 42.082H55C56.0355 42.082 56.875 42.9215 56.875 43.957V51.2488C56.875 52.2843 56.0355 53.1238 55 53.1238H49.6772C48.6415 53.1238 47.8022 52.2843 47.8022 51.2488C47.8022 50.213 48.6415 49.3738 49.6772 49.3738H53.125V45.832H6.875V49.3738H39.7088C40.7443 49.3738 41.5837 50.213 41.5837 51.2488C41.5837 52.2843 40.7443 53.1238 39.7088 53.1238H5C3.96448 53.1238 3.125 52.2843 3.125 51.2488V43.957Z" fill="#A276E5"/>
<path fill-rule="evenodd" clip-rule="evenodd" d="M16.25 11.7031C17.2855 11.7031 18.125 12.5426 18.125 13.5781V37.8837C18.125 38.9192 17.2855 39.7587 16.25 39.7587C15.2145 39.7587 14.375 38.9192 14.375 37.8837V13.5781C14.375 12.5426 15.2145 11.7031 16.25 11.7031Z" fill="#A276E5"/>
<path fill-rule="evenodd" clip-rule="evenodd" d="M30 11.7031C31.0355 11.7031 31.875 12.5426 31.875 13.5781V37.8837C31.875 38.9192 31.0355 39.7587 30 39.7587C28.9645 39.7587 28.125 38.9192 28.125 37.8837V13.5781C28.125 12.5426 28.9645 11.7031 30 11.7031Z" fill="#A276E5"/>
<path fill-rule="evenodd" clip-rule="evenodd" d="M43.75 11.7031C44.7855 11.7031 45.625 12.5426 45.625 13.5781V37.8837C45.625 38.9192 44.7855 39.7587 43.75 39.7587C42.7145 39.7587 41.875 38.9192 41.875 37.8837V13.5781C41.875 12.5426 42.7145 11.7031 43.75 11.7031Z" fill="#A276E5"/>
<path fill-rule="evenodd" clip-rule="evenodd" d="M9.375 32.5C9.375 31.4645 10.2145 30.625 11.25 30.625H21.25C22.2855 30.625 23.125 31.4645 23.125 32.5C23.125 33.5355 22.2855 34.375 21.25 34.375H11.25C10.2145 34.375 9.375 33.5355 9.375 32.5Z" fill="#A276E5"/>
<path fill-rule="evenodd" clip-rule="evenodd" d="M23.125 20C23.125 18.9645 23.9645 18.125 25 18.125H35C36.0355 18.125 36.875 18.9645 36.875 20C36.875 21.0355 36.0355 21.875 35 21.875H25C23.9645 21.875 23.125 21.0355 23.125 20Z" fill="#A276E5"/>
<path fill-rule="evenodd" clip-rule="evenodd" d="M36.875 27.5C36.875 26.4645 37.7145 25.625 38.75 25.625H48.75C49.7855 25.625 50.625 26.4645 50.625 27.5C50.625 28.5355 49.7855 29.375 48.75 29.375H38.75C37.7145 29.375 36.875 28.5355 36.875 27.5Z" fill="#A276E5"/>
</svg>
