<svg width="60" height="60" viewBox="0 0 60 60" fill="none" xmlns="http://www.w3.org/2000/svg">
<g clip-path="url(#clip0_7046_1551)">
<path d="M30 2.30176C28.8069 2.30186 27.6221 2.69558 26.7334 3.47168C25.8492 4.24392 25.2436 5.40708 25.2227 6.98047V14.9902L25.2334 15.2803C25.3205 16.7073 25.9045 17.7743 26.7334 18.498C27.6221 19.274 28.8069 19.6671 30 19.667C31.193 19.6669 32.378 19.2739 33.2666 18.498C34.1501 17.7265 34.7555 16.5646 34.7773 14.9932V6.98047L34.7666 6.69043C34.6797 5.2628 34.0956 4.19568 33.2666 3.47168C32.3779 2.69552 31.1931 2.30166 30 2.30176ZM37.25 14.9951C37.242 16.0072 37.034 17.0069 36.6387 17.9307C36.2432 18.8546 35.6686 19.6835 34.9512 20.3633C34.2338 21.043 33.3887 21.5595 32.4697 21.8789C31.553 22.1975 30.5829 22.3119 29.6211 22.2168C27.797 22.2099 26.0519 21.447 24.7656 20.0957C23.4757 18.7404 22.752 16.9048 22.75 14.9932V6.97266L22.7676 6.52832C23.3516 -2.65717 37.0903 -2.50507 37.25 6.97266V14.9951Z" fill="#A276E5" stroke="#A276E5" stroke-width="0.5"/>
<path d="M18.8649 38.1641H12.7894C12.6663 38.164 12.5444 38.1882 12.4306 38.2353C12.3168 38.2824 12.2134 38.3514 12.1264 38.4385C12.0393 38.5256 11.9703 38.6289 11.9232 38.7427C11.8761 38.8565 11.8519 38.9784 11.8519 39.1016C11.8541 42.1363 11.8504 48.2178 11.8519 51.2516C11.8567 51.497 11.9576 51.7308 12.1329 51.9027C12.3082 52.0746 12.544 52.1709 12.7895 52.1709C13.035 52.1709 13.2707 52.0746 13.446 51.9027C13.6213 51.7308 13.7222 51.497 13.7269 51.2515V47.052L20.3279 52.0013C20.5271 52.1447 20.7746 52.2041 21.0171 52.167C21.2597 52.1298 21.478 51.999 21.6252 51.8027C21.7724 51.6063 21.8368 51.3601 21.8044 51.1168C21.772 50.8736 21.6455 50.6527 21.4521 50.5017L15.6019 46.1145H18.8649C19.6503 46.1135 20.4033 45.8011 20.9587 45.2457C21.5141 44.6903 21.8265 43.9373 21.8275 43.1519V41.1267C21.8265 40.3413 21.5141 39.5883 20.9587 39.0329C20.4033 38.4775 19.6503 38.1651 18.8649 38.1641ZM19.9525 43.1519C19.9522 43.4402 19.8375 43.7167 19.6336 43.9206C19.4297 44.1245 19.1532 44.2392 18.8649 44.2395H13.7269V40.0391H18.8649C19.1532 40.0394 19.4297 40.1541 19.6336 40.358C19.8375 40.5619 19.9522 40.8384 19.9525 41.1267V43.1519Z" fill="#A276E5"/>
<path d="M25.0156 41.1267V49.2273C25.0167 50.0126 25.3291 50.7655 25.8846 51.3207C26.44 51.876 27.1929 52.1882 27.9783 52.189H34.0537C34.2993 52.1844 34.5332 52.0835 34.7052 51.9082C34.8772 51.7329 34.9736 51.4971 34.9736 51.2515C34.9736 51.0059 34.8772 50.7701 34.7052 50.5948C34.5331 50.4195 34.2992 50.3187 34.0537 50.314H27.9783C27.69 50.3139 27.4136 50.1994 27.2097 49.9956C27.0057 49.7919 26.891 49.5156 26.8906 49.2273V46.1145H34.0537C34.3023 46.1145 34.5408 46.0157 34.7166 45.8399C34.8924 45.6641 34.9912 45.4256 34.9912 45.177C34.9912 44.9284 34.8924 44.6899 34.7166 44.5141C34.5408 44.3383 34.3023 44.2395 34.0537 44.2395H26.8906V41.1267C26.891 40.8384 27.0057 40.5619 27.2096 40.358C27.4135 40.1541 27.6899 40.0394 27.9783 40.0391H34.0537C34.3023 40.0391 34.5408 39.9403 34.7166 39.7645C34.8924 39.5887 34.9912 39.3502 34.9912 39.1016C34.9912 38.8529 34.8924 38.6145 34.7166 38.4387C34.5408 38.2628 34.3023 38.1641 34.0537 38.1641H27.9783C27.1928 38.1651 26.4398 38.4775 25.8845 39.0329C25.3291 39.5883 25.0166 40.3413 25.0156 41.1267Z" fill="#A276E5"/>
<path d="M41.1345 52.189H47.21C47.4586 52.189 47.6971 52.0903 47.8729 51.9144C48.0487 51.7386 48.1475 51.5002 48.1475 51.2515C48.1475 51.0029 48.0487 50.7644 47.8729 50.5886C47.6971 50.4128 47.4586 50.314 47.21 50.314H41.1345C40.8463 50.3139 40.5698 50.1994 40.3659 49.9956C40.162 49.7919 40.0473 49.5156 40.0469 49.2273V41.1267C40.0472 40.8384 40.1619 40.5619 40.3658 40.358C40.5697 40.1541 40.8462 40.0394 41.1345 40.0391H47.21C47.4562 40.0354 47.6911 39.935 47.8639 39.7596C48.0368 39.5842 48.1337 39.3478 48.1337 39.1016C48.1337 38.8553 48.0368 38.6189 47.8639 38.4435C47.6911 38.2681 47.4562 38.1677 47.21 38.1641H41.1345C40.3491 38.1651 39.5961 38.4775 39.0407 39.0329C38.4853 39.5883 38.1729 40.3413 38.1719 41.1267V49.2273C38.1729 50.0126 38.4854 50.7655 39.0408 51.3207C39.5962 51.876 40.3492 52.1882 41.1345 52.189Z" fill="#A276E5"/>
<path d="M7.85156 33.6729C7.45004 33.7144 7.0718 33.8976 6.78223 34.1953C6.45098 34.536 6.26331 34.9997 6.2627 35.4844V53.8604L6.27148 54.041C6.3123 54.4591 6.49236 54.8513 6.78223 55.1494C7.11321 55.4896 7.5605 55.68 8.02539 55.6807H51.9746C52.4395 55.68 52.8868 55.4896 53.2178 55.1494C53.5489 54.8089 53.7365 54.3457 53.7373 53.8613V35.4834C53.7366 34.9989 53.5489 34.5359 53.2178 34.1953C52.9282 33.8976 52.55 33.7144 52.1484 33.6729L51.9746 33.6641H8.02539L7.85156 33.6729ZM42.1758 15.0195L42.1621 15.5996C42.0234 18.4873 40.8849 21.2378 38.9414 23.3477C36.922 25.5398 34.1811 26.8748 31.2559 27.1025V31.0947H51.9756L52.1875 31.1006C53.2457 31.1555 54.2482 31.6117 54.999 32.3838C55.7996 33.2071 56.2489 34.322 56.25 35.4834V53.8613L56.2441 54.0781C56.191 55.1607 55.7496 56.189 54.999 56.9609C54.2482 57.733 53.2456 58.1892 52.1875 58.2441L51.9756 58.25H8.02441C6.88892 58.2488 5.80174 57.7843 5.00098 56.9609C4.20043 56.1377 3.75117 55.0227 3.75 53.8613V35.4834L3.75586 35.2666C3.80896 34.184 4.25033 33.1557 5.00098 32.3838C5.80176 31.5603 6.88886 31.0959 8.02441 31.0947H28.7441V27.1025C25.8189 26.8748 23.078 25.5398 21.0586 23.3477C18.9854 21.097 17.829 18.1171 17.8242 15.0195V11.0146C17.8294 10.6798 17.9622 10.3592 18.1963 10.1221C18.4307 9.88467 18.748 9.75003 19.0801 9.75C19.4122 9.75 19.7294 9.88464 19.9639 10.1221C20.198 10.3592 20.3308 10.6797 20.3359 11.0146V15.0127L20.3662 15.6016C21.261 27.769 39.311 27.5842 39.6641 15.0195V11.0146C39.6704 10.6805 39.8031 10.3601 40.0371 10.124C40.2714 9.88767 40.5887 9.75392 40.9199 9.75391C41.251 9.75394 41.5675 9.88781 41.8018 10.124C42.0358 10.36 42.1693 10.6796 42.1758 11.0137V15.0195Z" fill="#A276E5" stroke="#A276E5" stroke-width="0.5"/>
<path d="M46 -0.25C47.1098 -0.25 48.1803 0.137397 48.9775 0.834961C49.7755 1.53334 50.2371 2.48915 50.25 3.49707V3.50293C50.2372 4.51089 49.7755 5.46663 48.9775 6.16504C48.1803 6.86264 47.1098 7.24999 46 7.25C44.8902 7.25 43.8197 6.8626 43.0225 6.16504C42.2245 5.46666 41.7629 4.51085 41.75 3.50293V3.49707L41.7578 3.30859C41.822 2.3705 42.2743 1.48973 43.0225 0.834961C43.8197 0.137363 44.8902 -0.249985 46 -0.25ZM46 2.14648C45.5737 2.14648 45.1696 2.29587 44.874 2.55371C44.5806 2.80974 44.419 3.1502 44.4121 3.5C44.419 3.84979 44.5806 4.19027 44.874 4.44629C45.1696 4.70414 45.5737 4.85351 46 4.85352C46.4263 4.85352 46.8304 4.70413 47.126 4.44629C47.4194 4.19027 47.58 3.84979 47.5869 3.5C47.58 3.15021 47.4194 2.80974 47.126 2.55371C46.8304 2.29586 46.4263 2.14649 46 2.14648Z" fill="#A276E5" stroke="#A276E5" stroke-width="0.5"/>
</g>
<defs>
<clipPath id="clip0_7046_1551">
<rect width="60" height="60" fill="white"/>
</clipPath>
</defs>
</svg>
