<svg width="60" height="62" viewBox="0 0 60 62" fill="none" xmlns="http://www.w3.org/2000/svg">
<path d="M2 44.1055H28.252" stroke="#A276E5" stroke-width="3" stroke-miterlimit="10" stroke-linecap="round" stroke-linejoin="round"/>
<path d="M42.1817 11.885H35.0764C33.6414 11.885 32.4688 10.7091 32.4688 9.27734V2.35156" stroke="#A276E5" stroke-width="3" stroke-miterlimit="10" stroke-linecap="round" stroke-linejoin="round"/>
<path d="M42.9554 59.6569C51.0871 59.6569 57.6808 53.0631 57.6808 44.928C57.6808 36.793 51.087 30.1992 42.9554 30.1992C34.8204 30.1992 28.2266 36.793 28.2266 44.928C28.2266 53.0631 34.8204 59.6569 42.9554 59.6569Z" stroke="#A276E5" stroke-width="3" stroke-miterlimit="10" stroke-linecap="round" stroke-linejoin="round"/>
<path d="M29.8898 51.7271H4.60766C3.1727 51.7271 2 50.5545 2 49.1195V4.60766C2.00012 3.17258 3.1727 2 4.60766 2H29.4645C32.3013 2 32.4675 2.09961 34.3375 3.81371L40.5362 9.83281C42.4163 11.6498 42.6488 12.384 42.6488 15.3703V30.202" stroke="#A276E5" stroke-width="3" stroke-miterlimit="10" stroke-linecap="round" stroke-linejoin="round"/>
<path d="M36.1562 44.928C36.1562 41.1711 39.2023 38.125 42.9592 38.125C46.7129 38.125 49.7589 41.1711 49.7589 44.928C49.7589 48.6849 46.7129 51.7277 42.9592 51.7277C41.3481 51.7277 39.8666 51.1696 38.7007 50.2328" stroke="#A276E5" stroke-width="3" stroke-miterlimit="10" stroke-linecap="round" stroke-linejoin="round"/>
<path d="M39.4863 42.8898L36.1579 44.926L34.125 41.5977" stroke="#A276E5" stroke-width="3" stroke-miterlimit="10" stroke-linecap="round" stroke-linejoin="round"/>
<path d="M12.1135 33.6997C14.0667 33.6997 15.6611 32.3444 15.6611 30.6835C15.6611 29.0193 14.0667 27.6641 12.1135 27.6641C10.157 27.6641 8.5625 29.0193 8.5625 30.6835C8.5625 32.3444 10.157 33.6997 12.1135 33.6997Z" stroke="#A276E5" stroke-width="3" stroke-miterlimit="10" stroke-linecap="round" stroke-linejoin="round"/>
<path d="M29.2191 29.3236V16.0896C29.2191 14.7543 28.0863 14.1298 27.1097 14.359L17.2175 16.661C16.2443 16.9135 15.6562 17.538 15.6562 18.7637V30.6823" stroke="#A276E5" stroke-width="3" stroke-miterlimit="10" stroke-linecap="round" stroke-linejoin="round"/>
<path d="M25.6726 32.3409C27.6292 32.3409 29.2236 30.9857 29.2236 29.3248C29.2236 27.6639 27.6292 26.3086 25.6726 26.3086C23.7195 26.3086 22.125 27.6639 22.125 29.3248C22.1249 30.9855 23.7193 32.3409 25.6726 32.3409Z" stroke="#A276E5" stroke-width="3" stroke-miterlimit="10" stroke-linecap="round" stroke-linejoin="round"/>
<path d="M15.6562 22.4492L29.2191 19.2969" stroke="#A276E5" stroke-width="3" stroke-miterlimit="10" stroke-linecap="round" stroke-linejoin="round"/>
</svg>
