<svg width="60" height="60" viewBox="0 0 60 60" fill="none" xmlns="http://www.w3.org/2000/svg">
<g clip-path="url(#clip0_5963_986)">
<path d="M25.6764 41.3203L24.903 40.8984L19.9459 48.2461L18.7037 44.1562H19.9225V42.2344H18.1295H15.4459H13.6881V44.1562H14.8717L13.6881 48.082L9.00062 40.8867L8.21546 41.3203C2.66077 44.3672 -0.42126 50.0625 0.352178 55.8281L0.89124 59.7656H33.0123L33.5514 55.8281C34.3131 50.0625 31.2311 44.3672 25.6764 41.3203ZM16.7819 44.4375L18.5631 50.2969L16.8053 52.8984L15.0475 50.1914L16.7819 44.4375ZM31.6295 55.5703L31.3248 57.8438H2.56702L2.26233 55.5703C1.62952 50.8711 4.00843 46.207 8.37952 43.4531L16.7936 56.3789L25.5241 43.4414C29.8834 46.1953 32.2741 50.8594 31.6295 55.5703Z" fill="#556EAA"/>
<path d="M16.7695 40.957C21.3047 40.957 24.9844 37.207 24.9844 32.6016C24.9844 27.9844 21.293 24.2344 16.7695 24.2344C12.2344 24.2344 8.55469 27.9844 8.55469 32.6016C8.55469 37.2188 12.2461 40.957 16.7695 40.957ZM16.7695 26.1562C20.2383 26.1562 23.0742 29.0508 23.0742 32.6016C23.0742 36.1523 20.25 39.0352 16.7695 39.0352C13.3008 39.0352 10.4648 36.1523 10.4648 32.6016C10.4766 29.0508 13.3008 26.1562 16.7695 26.1562Z" fill="#556EAA"/>
<path d="M54.0276 45.3867L53.4651 45.082L52.844 45.5859C51.4143 46.7461 49.6096 47.3789 47.7698 47.3789C45.883 47.3789 44.0432 46.7109 42.5901 45.4922L42.0862 45.0703L41.5119 45.3867C37.5158 47.5547 35.2893 51.6094 35.8518 55.7227L36.2619 58.6992H59.2776L59.6877 55.7227C60.2502 51.6094 58.0237 47.5547 54.0276 45.3867ZM57.7776 55.4648L57.6018 56.7891H37.9377L37.7619 55.4648C37.3283 52.2891 38.8987 49.2422 41.8987 47.3906C43.5979 48.6328 45.6604 49.3125 47.7815 49.3125C49.8908 49.3125 51.9651 48.6328 53.6643 47.3906C56.6408 49.2422 58.2112 52.2891 57.7776 55.4648Z" fill="#556EAA"/>
<path d="M47.6484 32.8125C44.3086 32.8125 41.6016 35.543 41.6016 38.8945C41.6016 42.2812 44.3203 45.0352 47.6484 45.0352C50.9883 45.0352 53.6953 42.2812 53.6953 38.8945C53.6953 35.543 50.9766 32.8125 47.6484 32.8125ZM47.6484 43.1133C45.375 43.1133 43.5234 41.2148 43.5234 38.8828C43.5234 36.5859 45.375 34.7227 47.6484 34.7227C49.9219 34.7227 51.7734 36.5859 51.7734 38.8828C51.7734 41.2266 49.9219 43.1133 47.6484 43.1133Z" fill="#556EAA"/>
<path d="M49.4883 24.4102L53.0391 27.1406V22.6172C54.9023 21.2227 55.9219 19.418 55.9219 17.5195C55.9219 15.1992 54.4453 13.1602 52.0781 11.7656V5.03906C52.0781 2.39062 49.9219 0.234375 47.2734 0.234375H24.2344C21.5859 0.234375 19.4297 2.39062 19.4297 5.03906V14.6367C19.4297 16.957 21.082 18.8906 23.2734 19.3359V24.1523L30.0234 19.4297H33.2344C34.4883 22.7813 38.9297 25.1953 44.3906 25.1953C46.1602 25.1953 47.918 24.9258 49.4883 24.4102ZM32.8828 17.5195H29.4258L25.207 20.4727V17.5195H24.2461C22.6523 17.5195 21.3633 16.2305 21.3633 14.6367V5.03906C21.3633 3.44531 22.6523 2.15625 24.2461 2.15625H47.2969C48.8906 2.15625 50.1797 3.44531 50.1797 5.03906V10.8398C48.4922 10.207 46.5352 9.83203 44.4141 9.83203C37.9453 9.83203 32.8828 13.207 32.8828 17.5195ZM34.8047 17.5195C34.8047 14.4023 39.1992 11.7539 44.4023 11.7539C49.6055 11.7539 54 14.3906 54 17.5195C54 19.8984 51.1172 21.6094 51.1172 21.6094V23.25L49.8281 22.2539C49.8281 22.2539 47.7539 23.2734 44.4023 23.2734C39.1992 23.2734 34.8047 20.6367 34.8047 17.5195Z" fill="#556EAA"/>
<path d="M43.4453 16.5586H45.3672V18.4805H43.4453V16.5586Z" fill="#556EAA"/>
<path d="M47.2891 16.5586H49.2109V18.4805H47.2891V16.5586Z" fill="#556EAA"/>
<path d="M39.6016 16.5586H41.5234V18.4805H39.6016V16.5586Z" fill="#556EAA"/>
<path d="M24.2344 5.03906H47.2852V6.96094H24.2344V5.03906Z" fill="#556EAA"/>
<path d="M24.2344 9.83203H33.832V11.7539H24.2344V9.83203Z" fill="#556EAA"/>
</g>
<defs>
<clipPath id="clip0_5963_986">
<rect width="60" height="60" fill="white"/>
</clipPath>
</defs>
</svg>
