<svg width="60" height="60" viewBox="0 0 60 60" fill="none" xmlns="http://www.w3.org/2000/svg">
<path d="M22.2577 19.5368C26.033 19.5368 29.0935 16.4763 29.0935 12.701C29.0935 8.92573 26.033 5.86523 22.2577 5.86523C18.4824 5.86523 15.4219 8.92573 15.4219 12.701C15.4219 16.4763 18.4824 19.5368 22.2577 19.5368Z" stroke="#556EAA" stroke-width="2" stroke-miterlimit="10"/>
<path d="M18.5893 18.2148L5.40625 54.2363V60.0008" stroke="#556EAA" stroke-width="2" stroke-miterlimit="10"/>
<path d="M22.2578 5.86386V0" stroke="#556EAA" stroke-width="2" stroke-miterlimit="10"/>
<path d="M22.2891 25.3574V35.6606" stroke="#556EAA" stroke-width="2" stroke-miterlimit="10"/>
<path d="M26.1484 18.373L39.1501 54.2356V60" stroke="#556EAA" stroke-width="2" stroke-miterlimit="10"/>
<path d="M7.84375 30.5078H36.7256" stroke="#556EAA" stroke-width="2" stroke-miterlimit="10"/>
<path d="M50.8458 58.2235C48.7779 58.2235 47.1016 56.5472 47.1016 54.4793V8.31653L50.8458 3.12109L54.59 8.31653V54.4793C54.59 56.5473 52.9136 58.2235 50.8458 58.2235Z" stroke="#556EAA" stroke-width="2" stroke-miterlimit="10"/>
<path d="M47.1016 48.166H54.5899" stroke="#556EAA" stroke-width="2" stroke-miterlimit="10"/>
<path d="M47.1016 41.3516H54.5899" stroke="#556EAA" stroke-width="2" stroke-miterlimit="10"/>
<path d="M47.1016 12.1211H54.5899" stroke="#556EAA" stroke-width="2" stroke-miterlimit="10"/>
</svg>
