<svg width="60" height="60" viewBox="0 0 60 60" fill="none" xmlns="http://www.w3.org/2000/svg">
<path d="M47.4623 58.379H44.9714C44.7078 58.3782 44.4524 58.2866 44.2483 58.1198C44.0441 57.953 43.9035 57.721 43.8501 57.4628L43.4504 55.4925C42.8135 55.3033 42.1981 55.0484 41.6139 54.732L39.9387 55.8412C39.7182 55.9867 39.4541 56.0515 39.1912 56.0246C38.9283 55.9977 38.6828 55.8808 38.4963 55.6936L36.7377 53.9358C36.5515 53.7485 36.4356 53.5029 36.4093 53.2402C36.383 52.9775 36.448 52.7137 36.5933 52.4933L37.7033 50.8198C37.3868 50.2357 37.1319 49.6202 36.9428 48.9833L34.9717 48.5779C34.714 48.5244 34.4824 48.3841 34.3155 48.1805C34.1487 47.9769 34.0566 47.7223 34.0547 47.459V44.9714C34.0553 44.7076 34.1468 44.452 34.3138 44.2477C34.4809 44.0435 34.7132 43.9031 34.9717 43.8501L36.9412 43.4504C37.1301 42.8134 37.385 42.1979 37.7017 41.6139L36.5925 39.9396C36.4478 39.7195 36.3829 39.4564 36.4089 39.1943C36.4349 38.9322 36.5501 38.6869 36.7352 38.4996L38.4979 36.7377C38.6847 36.5513 38.93 36.435 39.1925 36.4086C39.455 36.3821 39.7186 36.4471 39.9387 36.5925L41.6139 37.7033C42.1981 37.3869 42.8135 37.132 43.4504 36.9428L43.8493 34.9733C43.9025 34.7147 44.0431 34.4822 44.2474 34.315C44.4517 34.1477 44.7074 34.0558 44.9714 34.0547H47.4623C47.7259 34.0555 47.9813 34.1471 48.1854 34.3139C48.3896 34.4807 48.5302 34.7127 48.5836 34.9709L48.9833 36.9412C49.6202 37.1304 50.2356 37.3853 50.8198 37.7017L52.495 36.5925C52.7155 36.447 52.9796 36.3822 53.2425 36.4091C53.5054 36.436 53.7509 36.5529 53.9374 36.7401L55.696 38.4979C55.8822 38.6852 55.9981 38.9308 56.0244 39.1935C56.0507 39.4562 55.9857 39.72 55.8404 39.9404L54.7304 41.6139C55.0471 42.1979 55.302 42.8134 55.4909 43.4504L57.4604 43.8501C57.7192 43.9027 57.9519 44.043 58.1192 44.2473C58.2866 44.4516 58.3783 44.7074 58.379 44.9714V47.459C58.3781 47.7223 58.2869 47.9773 58.1206 48.1814C57.9542 48.3855 57.7229 48.5263 57.4652 48.5804L55.4925 48.9858C55.3034 49.6227 55.0485 50.2381 54.732 50.8223L55.8412 52.4966C55.9859 52.7166 56.0508 52.9797 56.0248 53.2418C55.9988 53.504 55.8836 53.7492 55.6985 53.9366L53.9358 55.696C53.7491 55.8826 53.5038 55.9989 53.2412 56.0253C52.9787 56.0518 52.7151 55.9867 52.495 55.8412L50.8198 54.7304C50.2356 55.0468 49.6202 55.3017 48.9833 55.4909L48.5844 57.4604C48.5312 57.719 48.3906 57.9515 48.1863 58.1187C47.982 58.286 47.7263 58.3779 47.4623 58.379ZM45.3614 56.7574H47.0723L47.4931 54.6793C47.5239 54.528 47.5972 54.3886 47.7045 54.2776C47.8118 54.1666 47.9486 54.0885 48.0987 54.0525C48.9202 53.8554 49.7056 53.5301 50.4258 53.0885C50.5574 53.0078 50.7094 52.9663 50.8638 52.9691C51.0182 52.9718 51.1687 53.0186 51.2974 53.1039L53.0641 54.2739L54.2747 53.065L53.1031 51.2974C53.0179 51.1686 52.9713 51.0181 52.9687 50.8637C52.9661 50.7093 53.0076 50.5574 53.0885 50.4258C53.5301 49.7057 53.8552 48.9203 54.0517 48.0987C54.0878 47.9487 54.166 47.8121 54.277 47.705C54.388 47.5979 54.5273 47.5246 54.6785 47.4939L56.7574 47.0698V45.3614L54.6793 44.9398C54.5279 44.9092 54.3885 44.836 54.2773 44.7289C54.1661 44.6217 54.0879 44.4851 54.0517 44.335C53.8552 43.5134 53.5301 42.728 53.0885 42.0079C53.0076 41.8763 52.9661 41.7244 52.9687 41.57C52.9713 41.4156 53.0179 41.2651 53.1031 41.1363L54.2747 39.3687L53.0641 38.1598L51.2974 39.3298C51.1687 39.4151 51.0182 39.4619 50.8638 39.4646C50.7094 39.4674 50.5574 39.4259 50.4258 39.3452C49.7056 38.9036 48.9202 38.5783 48.0987 38.3812C47.9486 38.3452 47.8118 38.2671 47.7045 38.1561C47.5972 38.0451 47.5239 37.9057 47.4931 37.7544L47.0723 35.6763H45.3614L44.9406 37.7544C44.9098 37.9057 44.8365 38.0451 44.7292 38.1561C44.6219 38.2671 44.4851 38.3452 44.335 38.3812C43.5135 38.5783 42.7282 38.9036 42.0079 39.3452C41.8763 39.4259 41.7243 39.4674 41.5699 39.4646C41.4155 39.4619 41.265 39.4151 41.1363 39.3298L39.3696 38.1598L38.159 39.3687L39.3306 41.1363C39.4158 41.2651 39.4625 41.4156 39.465 41.57C39.4676 41.7244 39.4261 41.8763 39.3452 42.0079C38.9036 42.728 38.5785 43.5134 38.382 44.335C38.3458 44.4851 38.2676 44.6217 38.1564 44.7289C38.0452 44.836 37.9058 44.9092 37.7544 44.9398L35.6763 45.3614V47.0698L37.7552 47.4939C37.9064 47.5246 38.0457 47.5979 38.1567 47.705C38.2677 47.8121 38.3459 47.9487 38.382 48.0987C38.5785 48.9203 38.9036 49.7057 39.3452 50.4258C39.4261 50.5574 39.4676 50.7093 39.465 50.8637C39.4625 51.0181 39.4158 51.1686 39.3306 51.2974L38.159 53.065L39.3696 54.2739L41.1363 53.1039C41.265 53.0186 41.4155 52.9718 41.5699 52.9691C41.7243 52.9663 41.8763 53.0078 42.0079 53.0885C42.7282 53.5301 43.5135 53.8554 44.335 54.0525C44.4851 54.0885 44.6219 54.1666 44.7292 54.2776C44.8365 54.3886 44.9098 54.528 44.9406 54.6793L45.3614 56.7574Z" fill="#556EAA"/>
<path d="M46.2172 52.3231C45.0092 52.3231 43.8283 51.9649 42.8239 51.2937C41.8195 50.6226 41.0366 49.6687 40.5743 48.5526C40.112 47.4366 39.9911 46.2085 40.2267 45.0237C40.4624 43.8389 41.0441 42.7506 41.8983 41.8964C42.7525 41.0422 43.8408 40.4605 45.0256 40.2248C46.2104 39.9891 47.4385 40.1101 48.5546 40.5724C49.6706 41.0346 50.6246 41.8175 51.2957 42.8219C51.9668 43.8264 52.3251 45.0072 52.3251 46.2153C52.3233 47.8346 51.6793 49.3872 50.5342 50.5323C49.3891 51.6773 47.8366 52.3214 46.2172 52.3231ZM46.2172 41.729C45.3299 41.729 44.4626 41.9922 43.7248 42.4851C42.9871 42.9781 42.412 43.6787 42.0725 44.4985C41.7329 45.3182 41.6441 46.2202 41.8172 47.0905C41.9903 47.9607 42.4176 48.7601 43.045 49.3875C43.6724 50.0149 44.4718 50.4422 45.342 50.6153C46.2122 50.7884 47.1143 50.6995 47.934 50.36C48.7538 50.0204 49.4544 49.4454 49.9474 48.7077C50.4403 47.9699 50.7034 47.1026 50.7034 46.2153C50.7021 45.0258 50.2291 43.8855 49.388 43.0445C48.547 42.2034 47.4066 41.7303 46.2172 41.729Z" fill="#556EAA"/>
<path d="M14.2891 12.5306C8.14959 12.5306 1.625 10.6211 1.625 7.07623C1.625 3.53136 8.14959 1.62109 14.2891 1.62109C20.4285 1.62109 26.9539 3.53299 26.9539 7.07623C26.9539 10.6195 20.4285 12.5306 14.2891 12.5306ZM14.2891 3.24272C7.96878 3.24272 3.24662 5.26974 3.24662 7.07623C3.24662 8.88272 7.96878 10.9089 14.2891 10.9089C20.6093 10.9089 25.3323 8.8819 25.3323 7.07623C25.3323 5.27055 20.6093 3.24272 14.2891 3.24272Z" fill="#556EAA"/>
<path d="M14.2891 19.1038C8.14959 19.1038 1.625 17.1928 1.625 13.6487C1.625 13.4337 1.71042 13.2274 1.86248 13.0754C2.01454 12.9233 2.22077 12.8379 2.43581 12.8379C2.65085 12.8379 2.85708 12.9233 3.00914 13.0754C3.1612 13.2274 3.24662 13.4337 3.24662 13.6487C3.24662 15.4584 7.96878 17.4822 14.2891 17.4822C20.6093 17.4822 25.3323 15.4552 25.3323 13.6487C25.3323 13.4337 25.4177 13.2274 25.5698 13.0754C25.7218 12.9233 25.9281 12.8379 26.1431 12.8379C26.3581 12.8379 26.5644 12.9233 26.7164 13.0754C26.8685 13.2274 26.9539 13.4337 26.9539 13.6487C26.9539 17.1928 20.4285 19.1038 14.2891 19.1038Z" fill="#556EAA"/>
<path d="M26.1389 14.4597C25.9239 14.4597 25.7177 14.3743 25.5656 14.2222C25.4135 14.0701 25.3281 13.8639 25.3281 13.6489V7.07644C25.3281 6.8614 25.4135 6.65516 25.5656 6.50311C25.7177 6.35105 25.9239 6.26562 26.1389 6.26562C26.354 6.26562 26.5602 6.35105 26.7123 6.50311C26.8643 6.65516 26.9497 6.8614 26.9497 7.07644V13.6489C26.9497 13.8639 26.8643 14.0701 26.7123 14.2222C26.5602 14.3743 26.354 14.4597 26.1389 14.4597Z" fill="#556EAA"/>
<path d="M2.43581 14.4597C2.22077 14.4597 2.01454 14.3743 1.86248 14.2222C1.71042 14.0701 1.625 13.8639 1.625 13.6489V7.07644C1.625 6.8614 1.71042 6.65516 1.86248 6.50311C2.01454 6.35105 2.22077 6.26562 2.43581 6.26562C2.65085 6.26562 2.85708 6.35105 3.00914 6.50311C3.1612 6.65516 3.24662 6.8614 3.24662 7.07644V13.6489C3.24662 13.8639 3.1612 14.0701 3.00914 14.2222C2.85708 14.3743 2.65085 14.4597 2.43581 14.4597Z" fill="#556EAA"/>
<path d="M14.2891 25.7886C8.14959 25.7886 1.625 23.8767 1.625 20.3342C1.625 20.1192 1.71042 19.913 1.86248 19.7609C2.01454 19.6089 2.22077 19.5234 2.43581 19.5234C2.65085 19.5234 2.85708 19.6089 3.00914 19.7609C3.1612 19.913 3.24662 20.1192 3.24662 20.3342C3.24662 22.1432 7.96878 24.167 14.2891 24.167C20.6093 24.167 25.3323 22.1399 25.3323 20.3342C25.3323 20.1192 25.4177 19.913 25.5698 19.7609C25.7218 19.6089 25.9281 19.5234 26.1431 19.5234C26.3581 19.5234 26.5644 19.6089 26.7164 19.7609C26.8685 19.913 26.9539 20.1192 26.9539 20.3342C26.9539 23.8767 20.4285 25.7886 14.2891 25.7886Z" fill="#556EAA"/>
<path d="M26.1389 21.146C25.9239 21.146 25.7177 21.0606 25.5656 20.9086C25.4135 20.7565 25.3281 20.5503 25.3281 20.3352V13.762C25.3281 13.5469 25.4135 13.3407 25.5656 13.1887C25.7177 13.0366 25.9239 12.9512 26.1389 12.9512C26.354 12.9512 26.5602 13.0366 26.7123 13.1887C26.8643 13.3407 26.9497 13.5469 26.9497 13.762V20.3352C26.9497 20.5503 26.8643 20.7565 26.7123 20.9086C26.5602 21.0606 26.354 21.146 26.1389 21.146Z" fill="#556EAA"/>
<path d="M2.43581 21.146C2.22077 21.146 2.01454 21.0606 1.86248 20.9086C1.71042 20.7565 1.625 20.5503 1.625 20.3352V13.762C1.625 13.5469 1.71042 13.3407 1.86248 13.1887C2.01454 13.0366 2.22077 12.9512 2.43581 12.9512C2.65085 12.9512 2.85708 13.0366 3.00914 13.1887C3.1612 13.3407 3.24662 13.5469 3.24662 13.762V20.3352C3.24662 20.5503 3.1612 20.7565 3.00914 20.9086C2.85708 21.0606 2.65085 21.146 2.43581 21.146Z" fill="#556EAA"/>
<path d="M14.2891 32.4722C8.14959 32.4722 1.625 30.5603 1.625 27.0178C1.625 26.8028 1.71042 26.5966 1.86248 26.4445C2.01454 26.2925 2.22077 26.207 2.43581 26.207C2.65085 26.207 2.85708 26.2925 3.00914 26.4445C3.1612 26.5966 3.24662 26.8028 3.24662 27.0178C3.24662 28.8268 7.96878 30.8505 14.2891 30.8505C20.6093 30.8505 25.3323 28.8235 25.3323 27.0178C25.3323 26.8028 25.4177 26.5966 25.5698 26.4445C25.7218 26.2925 25.9281 26.207 26.1431 26.207C26.3581 26.207 26.5644 26.2925 26.7164 26.4445C26.8685 26.5966 26.9539 26.8028 26.9539 27.0178C26.9539 30.5603 20.4285 32.4722 14.2891 32.4722Z" fill="#556EAA"/>
<path d="M26.1389 27.8285C25.9239 27.8285 25.7177 27.7431 25.5656 27.591C25.4135 27.439 25.3281 27.2327 25.3281 27.0177V20.4436C25.3281 20.2286 25.4135 20.0223 25.5656 19.8703C25.7177 19.7182 25.9239 19.6328 26.1389 19.6328C26.354 19.6328 26.5602 19.7182 26.7123 19.8703C26.8643 20.0223 26.9497 20.2286 26.9497 20.4436V27.0177C26.9497 27.2327 26.8643 27.439 26.7123 27.591C26.5602 27.7431 26.354 27.8285 26.1389 27.8285Z" fill="#556EAA"/>
<path d="M2.43581 27.8285C2.22077 27.8285 2.01454 27.7431 1.86248 27.591C1.71042 27.439 1.625 27.2327 1.625 27.0177V20.4436C1.625 20.2286 1.71042 20.0223 1.86248 19.8703C2.01454 19.7182 2.22077 19.6328 2.43581 19.6328C2.65085 19.6328 2.85708 19.7182 3.00914 19.8703C3.1612 20.0223 3.24662 20.2286 3.24662 20.4436V27.0177C3.24662 27.2327 3.1612 27.439 3.00914 27.591C2.85708 27.7431 2.65085 27.8285 2.43581 27.8285Z" fill="#556EAA"/>
<path d="M48.9261 22.4127C48.711 22.4127 48.5048 22.3272 48.3527 22.1752C48.2007 22.0231 48.1153 21.8169 48.1153 21.6019V10.5083H37.0217C36.8067 10.5083 36.6005 10.4229 36.4484 10.2709C36.2964 10.1188 36.2109 9.91257 36.2109 9.69753C36.2109 9.48249 36.2964 9.27626 36.4484 9.1242C36.6005 8.97214 36.8067 8.88672 37.0217 8.88672H48.9261C49.1411 8.88672 49.3473 8.97214 49.4994 9.1242C49.6515 9.27626 49.7369 9.48249 49.7369 9.69753V21.6019C49.7369 21.8169 49.6515 22.0231 49.4994 22.1752C49.3473 22.3272 49.1411 22.4127 48.9261 22.4127Z" fill="#556EAA"/>
<path d="M48.9299 22.413C48.7149 22.4129 48.5087 22.3275 48.3566 22.1754L45.6104 19.4292C45.4627 19.2763 45.381 19.0714 45.3828 18.8588C45.3847 18.6463 45.47 18.4429 45.6203 18.2926C45.7706 18.1422 45.974 18.057 46.1866 18.0551C46.3992 18.0533 46.604 18.135 46.7569 18.2827L48.9299 20.4557L51.102 18.2827C51.1768 18.2052 51.2663 18.1435 51.3652 18.101C51.4641 18.0585 51.5705 18.0361 51.6782 18.0352C51.7859 18.0343 51.8926 18.0548 51.9923 18.0955C52.0919 18.1363 52.1824 18.1965 52.2586 18.2726C52.3347 18.3488 52.3949 18.4393 52.4357 18.5389C52.4764 18.6386 52.497 18.7454 52.496 18.853C52.4951 18.9607 52.4727 19.0671 52.4302 19.166C52.3877 19.2649 52.326 19.3544 52.2485 19.4292L49.5031 22.1754C49.3511 22.3275 49.1449 22.4129 48.9299 22.413Z" fill="#556EAA"/>
<path d="M22.9729 51.1119H11.0686C10.8536 51.1119 10.6474 51.0265 10.4953 50.8744C10.3432 50.7223 10.2578 50.5161 10.2578 50.3011V38.3967C10.2578 38.1817 10.3432 37.9755 10.4953 37.8234C10.6474 37.6714 10.8536 37.5859 11.0686 37.5859C11.2837 37.5859 11.4899 37.6714 11.642 37.8234C11.794 37.9755 11.8794 38.1817 11.8794 38.3967V49.4903H22.9729C23.188 49.4903 23.3942 49.5757 23.5463 49.7277C23.6983 49.8798 23.7838 50.086 23.7838 50.3011C23.7838 50.5161 23.6983 50.7223 23.5463 50.8744C23.3942 51.0265 23.188 51.1119 22.9729 51.1119Z" fill="#556EAA"/>
<path d="M13.8159 41.9556C13.6009 41.9555 13.3947 41.8701 13.2427 41.718L11.0697 39.545L8.89753 41.718C8.74461 41.8657 8.53979 41.9474 8.3272 41.9456C8.11461 41.9437 7.91125 41.8584 7.76092 41.7081C7.61059 41.5578 7.52532 41.3544 7.52347 41.1418C7.52162 40.9292 7.60335 40.7244 7.75104 40.5715L10.4964 37.8253C10.6485 37.6733 10.8547 37.5879 11.0697 37.5879C11.2847 37.5879 11.4909 37.6733 11.6429 37.8253L14.3891 40.5715C14.5025 40.6849 14.5797 40.8294 14.611 40.9866C14.6422 41.1439 14.6262 41.3069 14.5648 41.455C14.5035 41.6031 14.3996 41.7298 14.2663 41.8189C14.133 41.908 13.9762 41.9555 13.8159 41.9556Z" fill="#556EAA"/>
</svg>
