<svg width="62" height="60" viewBox="0 0 62 60" fill="none" xmlns="http://www.w3.org/2000/svg">
<path d="M24.6053 30.604C25.1013 30.3612 25.3065 29.7622 25.0637 29.2662C24.8208 28.7701 24.2218 28.5649 23.7258 28.8078L24.6053 30.604ZM17.1404 33.1454L16.7007 32.2473L17.1404 33.1454ZM17.1211 37.3543L16.6733 38.2484L17.1211 37.3543ZM23.7177 41.7765C24.2116 42.0238 24.8124 41.824 25.0597 41.3302C25.307 40.8363 25.1072 40.2355 24.6134 39.9882L23.7177 41.7765ZM38.8682 28.8078C38.3722 28.5649 37.7732 28.7701 37.5304 29.2662C37.2875 29.7622 37.4928 30.3612 37.9888 30.604L38.8682 28.8078ZM45.4537 33.1454L45.8934 32.2473L45.4537 33.1454ZM45.4729 37.3543L45.9207 38.2484L45.4729 37.3543ZM37.9807 39.9882C37.4869 40.2355 37.2871 40.8363 37.5344 41.3302C37.7817 41.824 38.3825 42.0238 38.8763 41.7765L37.9807 39.9882ZM1 7.35294H0V52.6471H1H2V7.35294H1ZM3.37624 55V56H58.6238V55V54H3.37624V55ZM61 52.6471H62V7.35294H61H60V52.6471H61ZM58.6238 5V4H3.37624V5V6H58.6238V5ZM61 7.35294H62C62 5.4919 60.4791 4 58.6238 4V5V6C59.3931 6 60 6.615 60 7.35294H61ZM58.6238 55V56C60.4791 56 62 54.5081 62 52.6471H61H60C60 53.385 59.3931 54 58.6238 54V55ZM1 52.6471H0C0 54.5081 1.5209 56 3.37624 56V55V54C2.60685 54 2 53.385 2 52.6471H1ZM1 7.35294H2C2 6.615 2.60685 6 3.37624 6V5V4C1.5209 4 0 5.4919 0 7.35294H1ZM1 16.7647V17.7647H61V16.7647V15.7647H1V16.7647ZM24.1656 29.7059L23.7258 28.8078L16.7007 32.2473L17.1404 33.1454L17.5801 34.0436L24.6053 30.604L24.1656 29.7059ZM17.1211 37.3543L16.6733 38.2484L23.7177 41.7765L24.1656 40.8824L24.6134 39.9882L17.5689 36.4601L17.1211 37.3543ZM17.1404 33.1454L16.7007 32.2473C14.2025 33.4704 14.186 37.0027 16.6733 38.2484L17.1211 37.3543L17.5689 36.4601C16.5619 35.9558 16.5681 34.5391 17.5801 34.0436L17.1404 33.1454ZM38.4285 29.7059L37.9888 30.604L45.0139 34.0436L45.4537 33.1454L45.8934 32.2473L38.8682 28.8078L38.4285 29.7059ZM45.4729 37.3543L45.0251 36.4601L37.9807 39.9882L38.4285 40.8824L38.8763 41.7765L45.9207 38.2484L45.4729 37.3543ZM45.4537 33.1454L45.0139 34.0436C46.0259 34.5391 46.0321 35.9558 45.0251 36.4601L45.4729 37.3543L45.9207 38.2484C48.4081 37.0027 48.3916 33.4704 45.8934 32.2473L45.4537 33.1454Z" fill="#556EAA"/>
</svg>
