<svg width="62" height="62" viewBox="0 0 62 62" fill="none" xmlns="http://www.w3.org/2000/svg">
<path d="M9.22957 34.0704L28.3602 52.7787M9.22957 34.0704C11.6215 30.278 15.3519 25.2763 20.1657 20.3143M9.22957 34.0704L1.79649 27.9081C0.800155 27.0821 0.72772 25.5716 1.64039 24.6528L6.649 19.6107C6.90767 19.3503 7.22712 19.1594 7.57807 19.0554L15.0909 16.831C15.858 16.6039 16.6871 16.8165 17.2529 17.3853L20.1657 20.3143M28.3602 52.7787L33.9489 60.136C34.7521 61.1934 36.2966 61.2966 37.2316 60.3553L41.6599 55.8974C41.8999 55.6558 42.0807 55.3612 42.1881 55.0371L44.8784 46.912C45.1396 46.1232 44.937 45.2536 44.3546 44.664L41.4783 41.7523M28.3602 52.7787C33.345 49.1406 37.7048 45.4738 41.4783 41.7523M28.3602 52.7787L21.4432 55.0998C20.6576 55.3635 19.7914 55.1576 19.2059 54.5681L18.5216 53.8792M20.1657 20.3143C29.5853 10.6048 43.1532 1.04742 58.9584 1.00001C60.1697 0.996376 61.1035 2.04609 60.9908 3.26023C59.6928 17.2368 53.6203 29.7777 41.4783 41.7523M9.22957 34.6207L6.65477 39.8047C6.23391 40.6521 6.39888 41.6755 7.06432 42.3453L7.58981 42.8743M18.5216 53.8792L13.0557 59.9319M18.5216 53.8792L13.0557 48.3768M13.0557 48.3768L3.2171 58.2812M13.0557 48.3768L7.58981 42.8743M7.58981 42.8743L2.12392 48.3768M33.9144 20.1278C30.8693 26.653 39.5051 32.0098 44.3809 26.0071C49.3396 19.9023 40.1259 11.804 34.1105 19.8031C34.0361 19.9021 33.9668 20.0155 33.9144 20.1278Z" stroke="#556EAA" stroke-width="2" stroke-linecap="round"/>
</svg>
