<svg width="62" height="62" viewBox="0 0 62 62" fill="none" xmlns="http://www.w3.org/2000/svg">
<path d="M1 36.4545V25.5455L4.78274 24.5998C5.44498 21.8778 6.51838 19.3166 7.93623 16.9878L5.92983 13.6437L13.6437 5.92983L16.9878 7.93622C19.3166 6.51838 21.8776 5.44498 24.5998 4.78274L25.5455 1H36.4545L37.4002 4.78274C40.1222 5.44498 42.6834 6.51838 45.0122 7.93622L48.3563 5.92983L56.0702 13.6437L54.0638 16.9878C55.4817 19.3166 56.555 21.8776 57.2173 24.5998L61 25.5455V36.4545L57.2173 37.4002C56.555 40.1222 55.4816 42.6834 54.0638 45.0122L56.0702 48.3563L48.3563 56.0702L45.0122 54.0638C42.6834 55.4816 40.1224 56.555 37.4002 57.2173L36.4545 61H25.5455L24.5998 57.2173C21.8778 56.555 19.3166 55.4816 16.9878 54.0638L13.6437 56.0702L5.92983 48.3563L7.93623 45.0122C6.51838 42.6834 5.44498 40.1224 4.78274 37.4002L1 36.4545Z" stroke="#556EAA" stroke-width="2" stroke-miterlimit="10"/>
<path d="M31.0016 50.5164C20.2242 50.5164 11.4875 41.7797 11.4875 31.0023C11.4875 20.225 20.2242 11.4883 31.0016 11.4883C41.7789 11.4883 50.5156 20.225 50.5156 31.0023C50.5156 41.7797 41.7789 50.5164 31.0016 50.5164Z" stroke="#556EAA" stroke-width="2" stroke-miterlimit="10"/>
<path d="M26.7245 50.5143V37.0085C23.6064 35.4413 21.4654 32.2156 21.4654 28.4879C21.4654 24.5486 23.8552 21.1678 27.2639 19.715V25.3985L30.9983 27.8882L34.7328 25.3985V19.7148C38.1415 21.1677 40.5312 24.5485 40.5312 28.4878C40.5312 32.2155 38.3904 35.4413 35.2722 37.0084V50.5143" stroke="#556EAA" stroke-width="2" stroke-miterlimit="10"/>
</svg>
