<svg width="60" height="60" viewBox="0 0 60 60" fill="none" xmlns="http://www.w3.org/2000/svg">
<path d="M55.2012 29.4164V3.61055C55.2012 1.61953 53.5817 0 51.5907 0H21.3751C19.3841 0 17.7645 1.61953 17.7645 3.61055V11.3215C17.0298 9.48047 15.2286 8.175 13.1274 8.175C10.377 8.175 8.13875 10.4121 8.13875 13.1625C8.13875 15.9152 10.3759 18.1535 13.1274 18.1535C15.2286 18.1535 17.0298 16.8469 17.7645 15.0047V18.5672C17.5419 18.6094 17.3122 18.6305 17.0637 18.6305H11.8512C7.88328 18.6305 4.65476 21.859 4.65476 25.827V30.6574C4.65476 31.9617 5.71765 33.0234 7.02429 33.0234H16.888C17.7012 33.0234 18.4196 32.6121 18.8462 31.9875C19.4977 32.6273 20.3907 33.0234 21.3751 33.0234H51.5907C53.5817 33.0234 55.2012 31.4051 55.2012 29.4164ZM13.1274 16.1766C11.4669 16.1766 10.1169 14.8242 10.1169 13.1625C10.1169 11.502 11.468 10.152 13.1274 10.152C14.7891 10.152 16.1415 11.5031 16.1415 13.1625C16.1415 14.8242 14.7891 16.1766 13.1274 16.1766ZM17.2817 30.6574C17.2817 30.8719 17.1059 31.0465 16.8891 31.0465H7.02429C6.8075 31.0465 6.63172 30.8719 6.63172 30.6574V25.827C6.63172 22.9488 8.97312 20.6074 11.8512 20.6074H17.0637C17.7587 20.6074 18.3938 20.4937 19.022 20.257C19.0864 20.2395 19.1473 20.2148 19.2059 20.1844C19.3231 20.1352 19.4415 20.0836 19.5598 20.0262L29.2055 15.3082C29.5559 15.1371 29.9544 15.1137 30.3282 15.2414C30.6997 15.3691 30.9973 15.6316 31.1684 15.9809C31.1778 15.9996 31.1872 16.0184 31.1977 16.0359C31.3454 16.3723 31.3594 16.7473 31.2387 17.1012C31.111 17.4738 30.8473 17.7727 30.4981 17.9437L20.4657 22.8516C18.4723 23.8266 17.2829 25.7344 17.2829 27.9527V30.6574H17.2817ZM19.7427 29.4164V26.1035C20.0989 25.4813 20.6415 24.968 21.3341 24.6293L31.3653 19.7227C32.1891 19.3207 32.8079 18.6187 33.1079 17.7457C33.4079 16.8738 33.3505 15.9398 32.9485 15.116C32.9356 15.0891 32.9204 15.0621 32.9052 15.0363C32.4985 14.2523 31.8153 13.6641 30.9727 13.3734C30.0997 13.0723 29.1645 13.1297 28.3384 13.5328L19.7427 17.7363V3.61055C19.7427 2.70937 20.4751 1.97695 21.3762 1.97695H51.5919C52.493 1.97695 53.2255 2.70937 53.2255 3.61055V29.4164C53.2255 30.3152 52.493 31.0465 51.5919 31.0465H21.3751C20.4751 31.0465 19.7427 30.3152 19.7427 29.4164ZM19.3255 52.323C18.2919 48.0434 15.4173 45.2777 12.0024 45.2777C8.47625 45.2777 5.63445 47.9777 4.58797 52.323L3.8907 55.2035C3.6282 56.2875 3.75711 57.4031 4.25515 58.3477C4.80945 59.3977 5.71765 60 6.74422 60H17.1692C18.1911 60 19.0981 59.3988 19.6595 58.3465C20.1563 57.4031 20.2841 56.2875 20.0227 55.2035L19.3255 52.323ZM17.9134 57.4207C17.7001 57.8203 17.4505 58.023 17.1692 58.023H6.74422C6.46179 58.023 6.21218 57.8215 6.00242 57.4254C5.73054 56.9086 5.66258 56.284 5.8114 55.6688L6.50867 52.7871V52.7859C7.33015 49.3746 9.43484 47.2547 12.0012 47.2547C14.4704 47.2547 16.5903 49.4262 17.4024 52.7871L18.0997 55.6688C18.2497 56.2852 18.1829 56.9086 17.9134 57.4207ZM11.9567 45.1477C14.7094 45.1477 16.9477 42.9082 16.9477 40.1566C16.9477 37.4039 14.7083 35.1656 11.9567 35.1656C9.20398 35.1656 6.96453 37.4051 6.96453 40.1566C6.9657 42.9094 9.20398 45.1477 11.9567 45.1477ZM11.9567 37.1414C13.6184 37.1414 14.9708 38.4938 14.9708 40.1555C14.9708 41.8172 13.6184 43.1695 11.9567 43.1695C10.295 43.1695 8.94265 41.8172 8.94265 40.1555C8.94265 38.4938 10.295 37.1414 11.9567 37.1414ZM37.37 52.3219C36.3329 48.0422 33.4571 45.2777 30.0434 45.2777C26.5208 45.2777 23.6802 47.9766 22.629 52.3219L21.9317 55.2035C21.6692 56.2875 21.7981 57.4043 22.2973 58.3512C22.8563 59.3988 23.7634 60 24.7852 60H35.2102C36.238 60 37.145 59.3977 37.7005 58.3465C38.1962 57.4043 38.3251 56.2875 38.0637 55.2047L37.37 52.3219ZM35.9532 57.4242C35.7434 57.8215 35.4938 58.023 35.2114 58.023H24.7864C24.5063 58.023 24.2555 57.8203 24.0446 57.4254C23.7727 56.9086 23.7048 56.284 23.8536 55.6688L24.5509 52.7871C25.3759 49.3746 27.4805 47.2547 30.0434 47.2547C32.5114 47.2547 34.6337 49.4262 35.4481 52.7859L36.1419 55.6676C36.2919 56.2852 36.2239 56.9086 35.9532 57.4242ZM25.0067 40.1566C25.0067 42.9094 27.2462 45.1477 29.9989 45.1477C32.7516 45.1477 34.9899 42.9082 34.9899 40.1566C34.9899 37.4039 32.7505 35.1656 29.9989 35.1656C27.2462 35.1645 25.0067 37.4039 25.0067 40.1566ZM33.013 40.1566C33.013 41.8184 31.6606 43.1707 29.9989 43.1707C28.3372 43.1707 26.9848 41.8184 26.9848 40.1566C26.9848 38.4949 28.3372 37.1426 29.9989 37.1426C31.6606 37.1414 33.013 38.4938 33.013 40.1566ZM56.1059 55.2047L55.4122 52.323C54.3786 48.0434 51.5028 45.2777 48.0856 45.2777C44.563 45.2777 41.7223 47.9766 40.6712 52.3219V52.323L39.9774 55.2035C39.7137 56.2934 39.8438 57.4113 40.3407 58.3477C40.8962 59.3977 41.802 59.9988 42.8274 59.9988H53.2559C54.2813 59.9988 55.1872 59.3965 55.7415 58.3488C56.2407 57.4113 56.3696 56.2934 56.1059 55.2047ZM53.9942 57.4242C53.7845 57.8215 53.536 58.023 53.2559 58.023H42.8274C42.5473 58.023 42.2989 57.8215 42.088 57.423C41.8161 56.9109 41.7493 56.2887 41.8993 55.6676L42.593 52.7859C43.418 49.3734 45.5227 47.2547 48.0856 47.2547C50.5571 47.2547 52.6782 49.4262 53.4903 52.7859L54.1852 55.6676C54.3341 56.2875 54.2673 56.9109 53.9942 57.4242ZM48.0399 35.1645C45.2895 35.1645 43.0524 37.4039 43.0524 40.1555C43.0524 42.9082 45.2895 45.1465 48.0399 45.1465C50.7927 45.1465 53.0321 42.907 53.0321 40.1555C53.0321 37.4039 50.7927 35.1645 48.0399 35.1645ZM48.0399 43.1707C46.3794 43.1707 45.0294 41.8184 45.0294 40.1566C45.0294 38.4949 46.3805 37.1426 48.0399 37.1426C49.7016 37.1426 51.054 38.4949 51.054 40.1566C51.054 41.8184 49.7028 43.1707 48.0399 43.1707ZM48.4536 7.05234C48.4536 7.59844 48.0106 8.04141 47.4645 8.04141H25.5012C24.9552 8.04141 24.5122 7.59844 24.5122 7.05234C24.5122 6.50625 24.9552 6.06328 25.5012 6.06328H47.4657C48.0118 6.06445 48.4536 6.50625 48.4536 7.05234ZM33.0973 13.3582C33.0973 12.8121 33.5403 12.3691 34.0864 12.3691H40.7286C41.2747 12.3691 41.7177 12.8121 41.7177 13.3582C41.7177 13.9043 41.2747 14.3473 40.7286 14.3473H34.0864C33.5391 14.3473 33.0973 13.9043 33.0973 13.3582ZM48.4536 19.6641C48.4536 20.2102 48.0106 20.6531 47.4645 20.6531H34.2505C33.7044 20.6531 33.2614 20.2102 33.2614 19.6641C33.2614 19.118 33.7044 18.675 34.2505 18.675H47.4657C48.0118 18.6762 48.4536 19.1191 48.4536 19.6641ZM41.7165 25.9746C41.7165 26.5207 41.2735 26.9637 40.7274 26.9637H25.5012C24.9552 26.9637 24.5122 26.5207 24.5122 25.9746C24.5122 25.4285 24.9552 24.9855 25.5012 24.9855H40.7286C41.2747 24.9855 41.7165 25.4285 41.7165 25.9746Z" fill="#556EAA"/>
</svg>
