<svg width="42" height="43" viewBox="0 0 42 43" fill="none" xmlns="http://www.w3.org/2000/svg">
<mask id="path-1-outside-1_6456_12332" maskUnits="userSpaceOnUse" x="0.335938" y="4.42188" width="41" height="34" fill="black">
<rect fill="white" x="0.335938" y="4.42188" width="41" height="34"/>
<path d="M38.0633 5.42188H17.0633C16.697 5.42448 16.3352 5.5029 16.0006 5.65219C15.6661 5.80149 15.3661 6.01842 15.1195 6.28935C14.8729 6.56027 14.6851 6.87931 14.5679 7.22638C14.4506 7.57345 14.4065 7.94103 14.4383 8.30599C4.6103 6.12723 0.552354 19.7067 9.84455 23.3375V23.9138C8.0057 24.2129 6.3341 25.1588 5.13092 26.5812C3.92773 28.0036 3.27207 29.8089 3.28205 31.6719V33.6406C2.76385 33.6466 2.2689 33.8567 1.90457 34.2253C1.54025 34.5938 1.33593 35.0912 1.33594 35.6094C1.33595 36.1276 1.54028 36.625 1.90462 36.9935C2.26895 37.3621 2.76391 37.5722 3.28212 37.5781H38.7196C39.2417 37.5781 39.7425 37.3707 40.1117 37.0015C40.4809 36.6323 40.6883 36.1315 40.6883 35.6094C40.6883 35.0872 40.4809 34.5865 40.1117 34.2173C39.7425 33.848 39.2417 33.6406 38.7196 33.6406H18.8907C18.68 32.7777 18.5343 31.9003 18.4548 31.0156H26.9071V31.6719C26.9071 31.8459 26.9762 32.0128 27.0993 32.1359C27.2223 32.259 27.3893 32.3281 27.5633 32.3281C27.7373 32.3281 27.9043 32.259 28.0273 32.1359C28.1504 32.0128 28.2196 31.8459 28.2196 31.6719V31.0156H38.0633C38.7593 31.0149 39.4266 30.7381 39.9187 30.246C40.4108 29.7539 40.6876 29.0866 40.6883 28.3906V8.04688C40.6876 7.3509 40.4108 6.68362 39.9187 6.19149C39.4266 5.69936 38.7593 5.42257 38.0633 5.42188ZM5.90705 15.9219C5.9091 14.182 6.60116 12.514 7.83142 11.2837C9.06169 10.0535 10.7297 9.36142 12.4696 9.35938C21.1755 9.72018 21.173 22.1249 12.4695 22.4844C10.7297 22.4823 9.06166 21.7902 7.83141 20.56C6.60115 19.3297 5.9091 17.6617 5.90705 15.9219ZM12.4696 23.7969C12.9096 23.7942 13.3486 23.7545 13.7821 23.6784V24.4531C13.7821 24.8012 13.6438 25.1351 13.3976 25.3812C13.1515 25.6273 12.8176 25.7656 12.4696 25.7656C12.1215 25.7656 11.7876 25.6273 11.5415 25.3812C11.2953 25.1351 11.1571 24.8012 11.1571 24.4531V23.6784C11.5905 23.7545 12.0295 23.7942 12.4696 23.7969ZM39.3758 35.6094C39.3757 35.7834 39.3065 35.9502 39.1835 36.0733C39.0604 36.1963 38.8936 36.2655 38.7196 36.2656H3.28205C3.10984 36.2628 2.94562 36.1925 2.82481 36.0697C2.70401 35.9469 2.63631 35.7816 2.63632 35.6094C2.63632 35.4371 2.70403 35.2718 2.82484 35.149C2.94565 35.0263 3.10988 34.9559 3.28209 34.9531H38.7196C38.8936 34.9532 39.0604 35.0224 39.1835 35.1455C39.3065 35.2685 39.3757 35.4354 39.3758 35.6094ZM9.84455 33.6406V32.3281C9.84455 32.1541 9.77541 31.9872 9.65234 31.8641C9.52927 31.741 9.36235 31.6719 9.1883 31.6719C9.01425 31.6719 8.84733 31.741 8.72426 31.8641C8.60119 31.9872 8.53205 32.1541 8.53205 32.3281V33.6406H4.59455V31.6719C4.58579 30.1354 5.12033 28.6453 6.10374 27.4647C7.08716 26.2842 8.45616 25.4892 9.96892 25.2201C10.138 25.7627 10.479 26.2356 10.9404 26.5673C11.4018 26.8991 11.9587 27.0718 12.5268 27.0593C13.095 27.0468 13.6437 26.8498 14.0901 26.498C14.5365 26.1463 14.8563 25.6589 15.0014 25.1094H27.8914C28.15 25.1132 28.3967 25.2185 28.5782 25.4027C28.7598 25.5869 28.8615 25.8352 28.8615 26.0938C28.8615 26.3524 28.7597 26.6006 28.5782 26.7848C28.3967 26.969 28.15 27.0744 27.8914 27.0781H17.792C17.6276 27.0781 17.4692 27.1398 17.3481 27.251C17.2271 27.3622 17.1522 27.5148 17.1383 27.6786C16.9597 29.6745 17.0938 31.6861 17.5356 33.6406H9.84455ZM39.3758 28.3906C39.3754 28.7386 39.2369 29.0722 38.9909 29.3182C38.7448 29.5642 38.4113 29.7027 38.0633 29.7031H18.3763C18.3675 29.2816 18.3771 28.8497 18.4027 28.3906H27.8914C28.3234 28.3871 28.7456 28.262 29.1097 28.0296C29.4738 27.7972 29.7651 27.4669 29.9501 27.0766C30.1351 26.6862 30.2064 26.2517 30.1557 25.8227C30.1051 25.3937 29.9347 24.9877 29.6639 24.6511L37.1712 18.395C37.305 18.2835 37.389 18.1234 37.4047 17.95C37.4205 17.7766 37.3667 17.604 37.2552 17.4702C37.1437 17.3365 36.9836 17.2525 36.8102 17.2367C36.6367 17.221 36.4642 17.2748 36.3304 17.3863L28.5196 23.8952C28.3159 23.8331 28.1044 23.8 27.8914 23.7969H15.0946V23.3375C16.5656 22.8098 17.8466 21.8565 18.7745 20.5989C19.7025 19.3413 20.2355 17.8362 20.3058 16.2749C20.3762 14.7136 19.9807 13.1666 19.1696 11.8307C18.3585 10.4947 17.1685 9.43012 15.7508 8.77223V8.04688C15.7513 7.69892 15.8897 7.36534 16.1357 7.1193C16.3818 6.87325 16.7153 6.73483 17.0633 6.73438H38.0633C38.4113 6.73483 38.7448 6.87325 38.9909 7.1193C39.2369 7.36534 39.3754 7.69892 39.3758 8.04688V28.3906Z"/>
</mask>
<path d="M38.0633 5.42188H17.0633C16.697 5.42448 16.3352 5.5029 16.0006 5.65219C15.6661 5.80149 15.3661 6.01842 15.1195 6.28935C14.8729 6.56027 14.6851 6.87931 14.5679 7.22638C14.4506 7.57345 14.4065 7.94103 14.4383 8.30599C4.6103 6.12723 0.552354 19.7067 9.84455 23.3375V23.9138C8.0057 24.2129 6.3341 25.1588 5.13092 26.5812C3.92773 28.0036 3.27207 29.8089 3.28205 31.6719V33.6406C2.76385 33.6466 2.2689 33.8567 1.90457 34.2253C1.54025 34.5938 1.33593 35.0912 1.33594 35.6094C1.33595 36.1276 1.54028 36.625 1.90462 36.9935C2.26895 37.3621 2.76391 37.5722 3.28212 37.5781H38.7196C39.2417 37.5781 39.7425 37.3707 40.1117 37.0015C40.4809 36.6323 40.6883 36.1315 40.6883 35.6094C40.6883 35.0872 40.4809 34.5865 40.1117 34.2173C39.7425 33.848 39.2417 33.6406 38.7196 33.6406H18.8907C18.68 32.7777 18.5343 31.9003 18.4548 31.0156H26.9071V31.6719C26.9071 31.8459 26.9762 32.0128 27.0993 32.1359C27.2223 32.259 27.3893 32.3281 27.5633 32.3281C27.7373 32.3281 27.9043 32.259 28.0273 32.1359C28.1504 32.0128 28.2196 31.8459 28.2196 31.6719V31.0156H38.0633C38.7593 31.0149 39.4266 30.7381 39.9187 30.246C40.4108 29.7539 40.6876 29.0866 40.6883 28.3906V8.04688C40.6876 7.3509 40.4108 6.68362 39.9187 6.19149C39.4266 5.69936 38.7593 5.42257 38.0633 5.42188ZM5.90705 15.9219C5.9091 14.182 6.60116 12.514 7.83142 11.2837C9.06169 10.0535 10.7297 9.36142 12.4696 9.35938C21.1755 9.72018 21.173 22.1249 12.4695 22.4844C10.7297 22.4823 9.06166 21.7902 7.83141 20.56C6.60115 19.3297 5.9091 17.6617 5.90705 15.9219ZM12.4696 23.7969C12.9096 23.7942 13.3486 23.7545 13.7821 23.6784V24.4531C13.7821 24.8012 13.6438 25.1351 13.3976 25.3812C13.1515 25.6273 12.8176 25.7656 12.4696 25.7656C12.1215 25.7656 11.7876 25.6273 11.5415 25.3812C11.2953 25.1351 11.1571 24.8012 11.1571 24.4531V23.6784C11.5905 23.7545 12.0295 23.7942 12.4696 23.7969ZM39.3758 35.6094C39.3757 35.7834 39.3065 35.9502 39.1835 36.0733C39.0604 36.1963 38.8936 36.2655 38.7196 36.2656H3.28205C3.10984 36.2628 2.94562 36.1925 2.82481 36.0697C2.70401 35.9469 2.63631 35.7816 2.63632 35.6094C2.63632 35.4371 2.70403 35.2718 2.82484 35.149C2.94565 35.0263 3.10988 34.9559 3.28209 34.9531H38.7196C38.8936 34.9532 39.0604 35.0224 39.1835 35.1455C39.3065 35.2685 39.3757 35.4354 39.3758 35.6094ZM9.84455 33.6406V32.3281C9.84455 32.1541 9.77541 31.9872 9.65234 31.8641C9.52927 31.741 9.36235 31.6719 9.1883 31.6719C9.01425 31.6719 8.84733 31.741 8.72426 31.8641C8.60119 31.9872 8.53205 32.1541 8.53205 32.3281V33.6406H4.59455V31.6719C4.58579 30.1354 5.12033 28.6453 6.10374 27.4647C7.08716 26.2842 8.45616 25.4892 9.96892 25.2201C10.138 25.7627 10.479 26.2356 10.9404 26.5673C11.4018 26.8991 11.9587 27.0718 12.5268 27.0593C13.095 27.0468 13.6437 26.8498 14.0901 26.498C14.5365 26.1463 14.8563 25.6589 15.0014 25.1094H27.8914C28.15 25.1132 28.3967 25.2185 28.5782 25.4027C28.7598 25.5869 28.8615 25.8352 28.8615 26.0938C28.8615 26.3524 28.7597 26.6006 28.5782 26.7848C28.3967 26.969 28.15 27.0744 27.8914 27.0781H17.792C17.6276 27.0781 17.4692 27.1398 17.3481 27.251C17.2271 27.3622 17.1522 27.5148 17.1383 27.6786C16.9597 29.6745 17.0938 31.6861 17.5356 33.6406H9.84455ZM39.3758 28.3906C39.3754 28.7386 39.2369 29.0722 38.9909 29.3182C38.7448 29.5642 38.4113 29.7027 38.0633 29.7031H18.3763C18.3675 29.2816 18.3771 28.8497 18.4027 28.3906H27.8914C28.3234 28.3871 28.7456 28.262 29.1097 28.0296C29.4738 27.7972 29.7651 27.4669 29.9501 27.0766C30.1351 26.6862 30.2064 26.2517 30.1557 25.8227C30.1051 25.3937 29.9347 24.9877 29.6639 24.6511L37.1712 18.395C37.305 18.2835 37.389 18.1234 37.4047 17.95C37.4205 17.7766 37.3667 17.604 37.2552 17.4702C37.1437 17.3365 36.9836 17.2525 36.8102 17.2367C36.6367 17.221 36.4642 17.2748 36.3304 17.3863L28.5196 23.8952C28.3159 23.8331 28.1044 23.8 27.8914 23.7969H15.0946V23.3375C16.5656 22.8098 17.8466 21.8565 18.7745 20.5989C19.7025 19.3413 20.2355 17.8362 20.3058 16.2749C20.3762 14.7136 19.9807 13.1666 19.1696 11.8307C18.3585 10.4947 17.1685 9.43012 15.7508 8.77223V8.04688C15.7513 7.69892 15.8897 7.36534 16.1357 7.1193C16.3818 6.87325 16.7153 6.73483 17.0633 6.73438H38.0633C38.4113 6.73483 38.7448 6.87325 38.9909 7.1193C39.2369 7.36534 39.3754 7.69892 39.3758 8.04688V28.3906Z" fill="#B15252"/>
<path d="M38.0633 5.42188H17.0633C16.697 5.42448 16.3352 5.5029 16.0006 5.65219C15.6661 5.80149 15.3661 6.01842 15.1195 6.28935C14.8729 6.56027 14.6851 6.87931 14.5679 7.22638C14.4506 7.57345 14.4065 7.94103 14.4383 8.30599C4.6103 6.12723 0.552354 19.7067 9.84455 23.3375V23.9138C8.0057 24.2129 6.3341 25.1588 5.13092 26.5812C3.92773 28.0036 3.27207 29.8089 3.28205 31.6719V33.6406C2.76385 33.6466 2.2689 33.8567 1.90457 34.2253C1.54025 34.5938 1.33593 35.0912 1.33594 35.6094C1.33595 36.1276 1.54028 36.625 1.90462 36.9935C2.26895 37.3621 2.76391 37.5722 3.28212 37.5781H38.7196C39.2417 37.5781 39.7425 37.3707 40.1117 37.0015C40.4809 36.6323 40.6883 36.1315 40.6883 35.6094C40.6883 35.0872 40.4809 34.5865 40.1117 34.2173C39.7425 33.848 39.2417 33.6406 38.7196 33.6406H18.8907C18.68 32.7777 18.5343 31.9003 18.4548 31.0156H26.9071V31.6719C26.9071 31.8459 26.9762 32.0128 27.0993 32.1359C27.2223 32.259 27.3893 32.3281 27.5633 32.3281C27.7373 32.3281 27.9043 32.259 28.0273 32.1359C28.1504 32.0128 28.2196 31.8459 28.2196 31.6719V31.0156H38.0633C38.7593 31.0149 39.4266 30.7381 39.9187 30.246C40.4108 29.7539 40.6876 29.0866 40.6883 28.3906V8.04688C40.6876 7.3509 40.4108 6.68362 39.9187 6.19149C39.4266 5.69936 38.7593 5.42257 38.0633 5.42188ZM5.90705 15.9219C5.9091 14.182 6.60116 12.514 7.83142 11.2837C9.06169 10.0535 10.7297 9.36142 12.4696 9.35938C21.1755 9.72018 21.173 22.1249 12.4695 22.4844C10.7297 22.4823 9.06166 21.7902 7.83141 20.56C6.60115 19.3297 5.9091 17.6617 5.90705 15.9219ZM12.4696 23.7969C12.9096 23.7942 13.3486 23.7545 13.7821 23.6784V24.4531C13.7821 24.8012 13.6438 25.1351 13.3976 25.3812C13.1515 25.6273 12.8176 25.7656 12.4696 25.7656C12.1215 25.7656 11.7876 25.6273 11.5415 25.3812C11.2953 25.1351 11.1571 24.8012 11.1571 24.4531V23.6784C11.5905 23.7545 12.0295 23.7942 12.4696 23.7969ZM39.3758 35.6094C39.3757 35.7834 39.3065 35.9502 39.1835 36.0733C39.0604 36.1963 38.8936 36.2655 38.7196 36.2656H3.28205C3.10984 36.2628 2.94562 36.1925 2.82481 36.0697C2.70401 35.9469 2.63631 35.7816 2.63632 35.6094C2.63632 35.4371 2.70403 35.2718 2.82484 35.149C2.94565 35.0263 3.10988 34.9559 3.28209 34.9531H38.7196C38.8936 34.9532 39.0604 35.0224 39.1835 35.1455C39.3065 35.2685 39.3757 35.4354 39.3758 35.6094ZM9.84455 33.6406V32.3281C9.84455 32.1541 9.77541 31.9872 9.65234 31.8641C9.52927 31.741 9.36235 31.6719 9.1883 31.6719C9.01425 31.6719 8.84733 31.741 8.72426 31.8641C8.60119 31.9872 8.53205 32.1541 8.53205 32.3281V33.6406H4.59455V31.6719C4.58579 30.1354 5.12033 28.6453 6.10374 27.4647C7.08716 26.2842 8.45616 25.4892 9.96892 25.2201C10.138 25.7627 10.479 26.2356 10.9404 26.5673C11.4018 26.8991 11.9587 27.0718 12.5268 27.0593C13.095 27.0468 13.6437 26.8498 14.0901 26.498C14.5365 26.1463 14.8563 25.6589 15.0014 25.1094H27.8914C28.15 25.1132 28.3967 25.2185 28.5782 25.4027C28.7598 25.5869 28.8615 25.8352 28.8615 26.0938C28.8615 26.3524 28.7597 26.6006 28.5782 26.7848C28.3967 26.969 28.15 27.0744 27.8914 27.0781H17.792C17.6276 27.0781 17.4692 27.1398 17.3481 27.251C17.2271 27.3622 17.1522 27.5148 17.1383 27.6786C16.9597 29.6745 17.0938 31.6861 17.5356 33.6406H9.84455ZM39.3758 28.3906C39.3754 28.7386 39.2369 29.0722 38.9909 29.3182C38.7448 29.5642 38.4113 29.7027 38.0633 29.7031H18.3763C18.3675 29.2816 18.3771 28.8497 18.4027 28.3906H27.8914C28.3234 28.3871 28.7456 28.262 29.1097 28.0296C29.4738 27.7972 29.7651 27.4669 29.9501 27.0766C30.1351 26.6862 30.2064 26.2517 30.1557 25.8227C30.1051 25.3937 29.9347 24.9877 29.6639 24.6511L37.1712 18.395C37.305 18.2835 37.389 18.1234 37.4047 17.95C37.4205 17.7766 37.3667 17.604 37.2552 17.4702C37.1437 17.3365 36.9836 17.2525 36.8102 17.2367C36.6367 17.221 36.4642 17.2748 36.3304 17.3863L28.5196 23.8952C28.3159 23.8331 28.1044 23.8 27.8914 23.7969H15.0946V23.3375C16.5656 22.8098 17.8466 21.8565 18.7745 20.5989C19.7025 19.3413 20.2355 17.8362 20.3058 16.2749C20.3762 14.7136 19.9807 13.1666 19.1696 11.8307C18.3585 10.4947 17.1685 9.43012 15.7508 8.77223V8.04688C15.7513 7.69892 15.8897 7.36534 16.1357 7.1193C16.3818 6.87325 16.7153 6.73483 17.0633 6.73438H38.0633C38.4113 6.73483 38.7448 6.87325 38.9909 7.1193C39.2369 7.36534 39.3754 7.69892 39.3758 8.04688V28.3906Z" stroke="#B15252" mask="url(#path-1-outside-1_6456_12332)"/>
<path d="M32.8164 10.4219L32.9053 10.4277C33.1103 10.4511 33.3022 10.5441 33.4482 10.6924C33.6152 10.8619 33.709 11.0901 33.709 11.3281C33.709 11.5661 33.6152 11.7943 33.4482 11.9639C33.2812 12.1334 33.0544 12.2308 32.8164 12.2344H22.9688C22.7284 12.2344 22.4981 12.1387 22.3281 11.9688C22.1582 11.7988 22.0625 11.5685 22.0625 11.3281C22.0625 11.0878 22.1582 10.8575 22.3281 10.6875C22.4981 10.5175 22.7284 10.4219 22.9688 10.4219H32.8164Z" fill="#B15252" stroke="#B15252" stroke-width="0.5"/>
<path d="M30.5176 13.7031L30.6064 13.709C30.8117 13.7321 31.0041 13.8244 31.1504 13.9727C31.3176 14.1422 31.4111 14.3712 31.4111 14.6094C31.4111 14.8475 31.3176 15.0765 31.1504 15.2461C30.9832 15.4156 30.7556 15.5123 30.5176 15.5156H25.2607C25.0227 15.5123 24.7951 15.4156 24.6279 15.2461C24.4607 15.0765 24.3672 14.8475 24.3672 14.6094L24.3711 14.5205C24.3913 14.3149 24.4816 14.121 24.6279 13.9727C24.7951 13.8031 25.0227 13.7065 25.2607 13.7031H30.5176Z" fill="#B15252" stroke="#B15252" stroke-width="0.5"/>
</svg>
