<svg width="42" height="43" viewBox="0 0 42 43" fill="none" xmlns="http://www.w3.org/2000/svg">
<g clip-path="url(#clip0_6456_11502)">
<path d="M3.94531 25.7988H38.051" stroke="#B15252" stroke-width="2" stroke-miterlimit="10" stroke-linecap="round" stroke-linejoin="round"/>
<path d="M9.75259 12.6713L5.14062 18.5086H7.38361V25.7988H9.75259H12.1216V18.5086H14.3646L9.75259 12.6713Z" stroke="#B15252" stroke-width="2" stroke-miterlimit="10" stroke-linecap="round" stroke-linejoin="round"/>
<path d="M21.4088 6.38461L16.7969 12.222H19.0399V25.6816H21.4088H23.7778V12.222H26.0209L21.4088 6.38461Z" stroke="#B15252" stroke-width="2" stroke-miterlimit="10" stroke-linecap="round" stroke-linejoin="round"/>
<path d="M35.3324 12.5133L35.3404 7.03768H37.5833L32.9714 1.20025L28.3594 7.03768H30.6024V25.6797H35.3404L35.3324 19.7288" stroke="#B15252" stroke-width="2" stroke-miterlimit="10" stroke-linecap="round" stroke-linejoin="round"/>
<path d="M35.3333 32.5184L33.9249 34.961C33.3926 35.883 32.3083 36.3358 31.2764 36.07L29.8115 35.6894C29.3283 35.5647 28.8124 35.6615 28.4121 35.9601C27.6386 36.5343 26.7978 37.0223 25.9038 37.4103C25.4468 37.6088 25.1065 38.0058 24.9736 38.4856L24.5717 39.9415C24.2863 40.9686 23.352 41.6797 22.2873 41.6797H19.4682C18.4018 41.6797 17.4668 40.9686 17.1838 39.9415L16.7802 38.4856C16.6474 38.0058 16.307 37.6088 15.85 37.4103C14.9551 37.0223 14.1144 36.5343 13.3417 35.9601C12.9406 35.6615 12.4247 35.5647 11.9416 35.6894L10.4758 36.07C9.44476 36.3358 8.36285 35.883 7.82973 34.961L6.41969 32.5184C5.88575 31.5964 6.03505 30.4317 6.78391 29.6721L7.84367 28.5935C8.19305 28.2375 8.36613 27.7437 8.30953 27.2492C8.25539 26.7734 8.2275 26.2902 8.2275 25.7998H15.3768C15.3768 28.8371 17.8391 31.2995 20.8766 31.2995C23.9138 31.2995 26.3771 28.8371 26.3771 25.7998H33.5255C33.5255 26.2894 33.4976 26.7734 33.4435 27.2483C33.3868 27.7429 33.5608 28.2375 33.9094 28.5927L34.9716 29.6721C35.718 30.4317 35.8665 31.5964 35.3333 32.5184Z" stroke="#B15252" stroke-width="2" stroke-miterlimit="10" stroke-linecap="round" stroke-linejoin="round"/>
</g>
<defs>
<clipPath id="clip0_6456_11502">
<rect width="42" height="42" fill="white" transform="translate(0 0.5)"/>
</clipPath>
</defs>
</svg>
