<svg width="44" height="43" viewBox="0 0 44 43" fill="none" xmlns="http://www.w3.org/2000/svg">
<path d="M15.6377 6.12891C19.2253 5.41572 22.9439 5.78131 26.3232 7.18066C29.7027 8.58012 32.5909 10.9507 34.623 13.9912C36.6552 17.0317 37.7404 20.606 37.7402 24.2627L37.7334 24.7217C37.6107 29.4569 35.6753 33.9716 32.3164 37.3291C28.9574 40.6866 24.441 42.6218 19.7041 42.7441L19.2451 42.75C15.5871 42.75 12.0112 41.6653 8.96973 39.6338C5.92838 37.6023 3.55803 34.7151 2.1582 31.3369C0.758373 27.9586 0.391757 24.2407 1.10547 20.6543C1.81917 17.0681 3.58056 13.774 6.16699 11.1885C8.75366 8.60289 12.05 6.84217 15.6377 6.12891ZM19.2451 7.56543C15.9415 7.56543 12.7117 8.54518 9.96484 10.3799C7.21818 12.2146 5.07764 14.8222 3.81348 17.873C2.54932 20.9239 2.21795 24.2808 2.8623 27.5195C3.50679 30.7584 5.09765 33.7342 7.43359 36.0693C9.76957 38.4044 12.7462 39.9944 15.9863 40.6387C19.2263 41.2829 22.5847 40.9521 25.6367 39.6885C28.6887 38.4248 31.2975 36.2847 33.1328 33.5391C34.9682 30.7933 35.9482 27.565 35.9482 24.2627L35.9424 23.8486C35.8315 19.5721 34.0834 15.4944 31.0498 12.4619C27.9185 9.33188 23.6734 7.57069 19.2451 7.56543Z" fill="#B15252" stroke="#B15252" stroke-width="0.5"/>
<path d="M16.8154 12.0361C19.2336 11.5553 21.7407 11.802 24.0186 12.7451C26.2964 13.6883 28.2434 15.2858 29.6133 17.335C30.9831 19.3843 31.7148 21.7941 31.7148 24.2588V24.2598C31.7115 27.5637 30.3966 30.7311 28.0596 33.0674C25.7954 35.3307 22.7507 36.6346 19.5576 36.7168L19.248 36.7217C16.7825 36.7217 14.3723 35.9903 12.3223 34.6211C10.2722 33.2518 8.67407 31.3054 7.73047 29.0283C6.78693 26.7512 6.53956 24.2455 7.02051 21.8281C7.50153 19.4108 8.68922 17.1901 10.4326 15.4473C12.176 13.7045 14.3973 12.517 16.8154 12.0361ZM19.248 13.5889C17.1367 13.5889 15.0729 14.2151 13.3174 15.3877C11.5619 16.5603 10.1937 18.2269 9.38574 20.1768C8.57786 22.1266 8.36642 24.2719 8.77832 26.3418C9.19028 28.4118 10.2072 30.3133 11.7002 31.8057C13.1932 33.2979 15.0953 34.3139 17.166 34.7256C19.2368 35.1372 21.3834 34.926 23.334 34.1182C25.2845 33.3104 26.9512 31.9423 28.124 30.1875C29.2968 28.4328 29.9229 26.37 29.9229 24.2598L29.9092 23.7305C29.7754 21.0942 28.669 18.5931 26.793 16.7178C24.7918 14.7175 22.0781 13.5921 19.248 13.5889Z" fill="#B15252" stroke="#B15252" stroke-width="0.5"/>
<path d="M17.9951 17.9443C19.244 17.696 20.5384 17.8234 21.7148 18.3105C22.8912 18.7977 23.897 19.6223 24.6045 20.6807C25.3119 21.7391 25.6895 22.9839 25.6895 24.2568C25.6875 25.9631 25.0087 27.5991 23.8018 28.8057C22.6702 29.9368 21.161 30.604 19.5703 30.6846L19.251 30.6924C17.9776 30.6924 16.7326 30.3156 15.6738 29.6084C14.6151 28.9012 13.7901 27.8957 13.3027 26.7197C12.8154 25.5437 12.6881 24.2495 12.9365 23.001C13.185 21.7525 13.7978 20.6052 14.6982 19.7051C15.5987 18.805 16.7463 18.1927 17.9951 17.9443ZM19.251 19.6123C18.3319 19.6123 17.4331 19.8851 16.6689 20.3955C15.9049 20.9059 15.3096 21.6318 14.958 22.4805C14.6065 23.3292 14.514 24.2632 14.6934 25.1641C14.8727 26.065 15.3159 26.8925 15.9658 27.542C16.6157 28.1915 17.4434 28.6343 18.3447 28.8135C19.246 28.9926 20.1804 28.9003 21.0293 28.5488C21.8784 28.1971 22.6048 27.6009 23.1152 26.8369C23.6255 26.0731 23.8976 25.1753 23.8975 24.2568C23.8962 23.0254 23.4064 21.8444 22.5352 20.9736C21.664 20.1031 20.4828 19.6134 19.251 19.6123Z" fill="#B15252" stroke="#B15252" stroke-width="0.5"/>
<path d="M42.1611 0.46875C42.3959 0.470947 42.6202 0.565413 42.7861 0.731445C42.952 0.89745 43.0468 1.12177 43.0488 1.35645C43.0508 1.59114 42.96 1.81756 42.7969 1.98633L40.0908 4.69238C40.0077 4.77559 39.9085 4.84181 39.7998 4.88672C39.6911 4.93158 39.5746 4.95435 39.457 4.9541C39.2801 4.95388 39.107 4.90106 38.96 4.80273C38.813 4.70438 38.6986 4.56474 38.6309 4.40137C38.5632 4.23796 38.5457 4.05825 38.5801 3.88477C38.6146 3.71117 38.6991 3.55099 38.8242 3.42578L41.5273 0.722656L41.5312 0.719727C41.7002 0.556848 41.9264 0.466601 42.1611 0.46875Z" fill="#B15252" stroke="#B15252" stroke-width="0.5"/>
<path d="M35.2627 7.39453C35.4948 7.39862 35.7167 7.49314 35.8809 7.65723C36.0448 7.82129 36.1385 8.0425 36.1426 8.27441C36.1467 8.50642 36.0605 8.73063 35.9023 8.90039L35.8965 8.90723L19.8955 24.9004C19.8126 24.9837 19.714 25.0497 19.6055 25.0947C19.4968 25.1398 19.3803 25.1623 19.2627 25.1621V25.1631C19.0856 25.1629 18.9118 25.1101 18.7646 25.0117C18.6177 24.9134 18.5033 24.7736 18.4355 24.6104C18.3678 24.4468 18.3503 24.2664 18.3848 24.0928C18.4193 23.9191 18.5038 23.759 18.6289 23.6338L34.6299 7.64062L34.6367 7.63477C34.8065 7.47675 35.0308 7.39051 35.2627 7.39453Z" fill="#B15252" stroke="#B15252" stroke-width="0.5"/>
<path d="M38.8057 0.274414C38.9664 0.236163 39.1349 0.242554 39.292 0.293945C39.4491 0.345379 39.5892 0.439435 39.6963 0.56543C39.8034 0.691468 39.8731 0.845356 39.8984 1.00879L40.2451 3.26367L42.4873 3.59863L42.4883 3.59961C42.652 3.62473 42.8052 3.69477 42.9316 3.80176C43.0582 3.90883 43.1533 4.04861 43.2051 4.20605C43.2568 4.36343 43.2638 4.53217 43.2256 4.69336C43.1874 4.85449 43.1051 5.00178 42.9883 5.11914L42.9873 5.12012L38.7764 9.32031C38.6083 9.48768 38.3807 9.58198 38.1436 9.58203H38.1426L38.0146 9.57227L35.1387 9.15234V9.15137C34.9474 9.12602 34.7689 9.0411 34.6299 8.90723C34.4897 8.77222 34.397 8.59534 34.3652 8.40332L34.3643 8.40039L33.917 5.49121C33.8954 5.3522 33.9065 5.20986 33.9502 5.07617C33.9941 4.94236 34.0691 4.82006 34.1689 4.7207L38.3799 0.511719L38.4736 0.430664C38.5719 0.356566 38.6851 0.303156 38.8057 0.274414ZM35.7559 5.66699L36.0371 7.47559L37.8311 7.73633L40.4629 5.11035L39.3545 4.94434V4.94531L39.3525 4.94434H39.3486V4.94336C39.1583 4.91777 38.9811 4.83261 38.8428 4.69922C38.7031 4.56456 38.6107 4.38864 38.5791 4.19727L38.5781 4.19531L38.3955 3.03027L35.7559 5.66699Z" fill="#B15252" stroke="#B15252" stroke-width="0.5"/>
</svg>
