<svg width="42" height="43" viewBox="0 0 42 43" fill="none" xmlns="http://www.w3.org/2000/svg">
<mask id="path-1-outside-1_6456_12416" maskUnits="userSpaceOnUse" x="1.60156" y="0.900391" width="40" height="40" fill="black">
<rect fill="white" x="1.60156" y="0.900391" width="40" height="40"/>
<path d="M39.1783 25.2644L36.5014 25.7457C36.2006 26.738 35.8027 27.6982 35.3133 28.6123L36.866 30.8468C37.0978 31.1797 37.205 31.5835 37.169 31.9876C37.1329 32.3916 36.9559 32.7701 36.6688 33.0567L33.258 36.4677C32.9713 36.7547 32.5928 36.9317 32.1888 36.9678C31.7847 37.0038 31.3809 36.8966 31.0479 36.6648L28.8138 35.112C27.8996 35.6013 26.9394 35.9993 25.9471 36.3001L25.4659 38.977C25.3943 39.3764 25.1845 39.7378 24.8733 39.9981C24.562 40.2583 24.1691 40.4007 23.7634 40.4004H18.9397C18.5341 40.4007 18.1413 40.2582 17.83 39.998C17.5188 39.7378 17.3091 39.3764 17.2375 38.9771L16.7562 36.3001C15.7639 35.9993 14.8038 35.6014 13.8896 35.1121L11.6554 36.6649C11.3225 36.8967 10.9185 37.004 10.5144 36.9679C10.1103 36.9318 9.73181 36.7548 9.44514 36.4677L6.03428 33.0567C5.74725 32.7701 5.57021 32.3916 5.53417 31.9876C5.49812 31.5835 5.60537 31.1797 5.83712 30.8468L7.3899 28.6126C6.90062 27.6984 6.50267 26.7382 6.20181 25.746L3.52486 25.2647C3.1255 25.1931 2.76406 24.9834 2.50383 24.6721C2.24361 24.3608 2.1012 23.9679 2.10156 23.5622V18.7386C2.10127 18.3329 2.2437 17.9401 2.5039 17.6289C2.7641 17.3177 3.12549 17.1079 3.52478 17.0364L6.20174 16.5551C6.50249 15.5628 6.90045 14.6026 7.38982 13.6885L5.83704 11.4543C5.60529 11.1214 5.49805 10.7176 5.5341 10.3135C5.57014 9.90947 5.74718 9.53099 6.0342 9.24434L9.44514 5.83311C9.73179 5.54606 10.1103 5.36901 10.5143 5.33295C10.9184 5.29689 11.3223 5.40412 11.6552 5.63587L13.8894 7.1888C14.8035 6.69947 15.7637 6.30151 16.756 6.00072L17.2373 3.32376C17.3088 2.92441 17.5186 2.56296 17.8299 2.30273C18.1411 2.04249 18.534 1.90007 18.9397 1.90039H23.7634C24.169 1.90013 24.5619 2.04258 24.8731 2.30279C25.1843 2.563 25.3941 2.92439 25.4656 3.32369L25.9469 6.00064C26.9392 6.30143 27.8994 6.69939 28.8135 7.18873L31.0479 5.63594C31.3809 5.40419 31.7847 5.29694 32.1888 5.33299C32.5928 5.36904 32.9713 5.54608 33.258 5.83311L36.6688 9.24404C36.9559 9.53069 37.1329 9.90918 37.1689 10.3132C37.205 10.7173 37.0977 11.1211 36.866 11.454L35.3132 13.6882C35.8025 14.6023 36.2005 15.5625 36.5013 16.5548L39.1783 17.0361C39.5776 17.1076 39.9391 17.3174 40.1993 17.6287C40.4595 17.94 40.6019 18.3329 40.6016 18.7386V23.5622C40.6019 23.9679 40.4594 24.3607 40.1992 24.6719C39.939 24.9831 39.5776 25.1928 39.1783 25.2644ZM24.2815 38.7641L24.829 35.72C24.8491 35.6085 24.9003 35.5049 24.9766 35.4212C25.053 35.3375 25.1514 35.277 25.2606 35.2468C26.4101 34.9284 27.5161 34.4699 28.5538 33.8816C28.6524 33.8257 28.7648 33.7988 28.878 33.804C28.9913 33.8092 29.1007 33.8463 29.1938 33.911L31.7345 35.6769C31.8354 35.7487 31.9586 35.7821 32.082 35.7711C32.2053 35.76 32.3206 35.7053 32.4072 35.6168L35.8181 32.206C35.9066 32.1194 35.9613 32.0041 35.9723 31.8808C35.9833 31.7575 35.95 31.6343 35.8782 31.5334L34.1122 28.9927C34.0475 28.8996 34.0105 28.7901 34.0053 28.6769C34.0001 28.5637 34.027 28.4513 34.083 28.3527C34.6712 27.315 35.1296 26.209 35.4481 25.0596C35.4783 24.9504 35.5387 24.8519 35.6225 24.7755C35.7062 24.6992 35.8098 24.648 35.9213 24.6279L38.9653 24.0803C39.0874 24.0597 39.1981 23.9962 39.2775 23.9012C39.3569 23.8062 39.3998 23.686 39.3984 23.5622V21.752H33.2083C33.0487 21.752 32.8957 21.6886 32.7829 21.5758C32.6701 21.4629 32.6067 21.3099 32.6067 21.1504C32.6067 20.4537 32.33 19.7855 31.8373 19.2929C31.3447 18.8002 30.6765 18.5234 29.9798 18.5234C29.2831 18.5234 28.6149 18.8002 28.1222 19.2929C27.6296 19.7855 27.3528 20.4537 27.3528 21.1504C27.3528 21.3099 27.2894 21.4629 27.1766 21.5758C27.0638 21.6886 26.9108 21.752 26.7513 21.752H21.9531V25.9957C22.8534 26.1389 23.6731 26.5985 24.2649 27.2919C24.8567 27.9852 25.1818 28.867 25.1818 29.7786C25.1818 30.6902 24.8567 31.5719 24.2649 32.2653C23.6731 32.9587 22.8534 33.4182 21.9531 33.5615V39.1973H23.7634C23.8872 39.1986 24.0074 39.1558 24.1024 39.0764C24.1974 38.997 24.2609 38.8862 24.2815 38.7641ZM3.73811 24.0803L6.78217 24.6279C6.8937 24.648 6.99728 24.6992 7.08102 24.7755C7.16475 24.8518 7.22521 24.9503 7.25545 25.0595C7.57378 26.209 8.03215 27.3149 8.62024 28.3526C8.67617 28.4512 8.7031 28.5636 8.69793 28.6768C8.69275 28.7901 8.65568 28.8996 8.59099 28.9927L6.82503 31.5334C6.7533 31.6343 6.71994 31.7575 6.73097 31.8808C6.742 32.0041 6.79669 32.1194 6.88519 32.206L10.2961 35.6169C10.3827 35.7055 10.498 35.7602 10.6213 35.7712C10.7446 35.7823 10.8679 35.7489 10.9687 35.6771L13.5093 33.911C13.6024 33.8464 13.7118 33.8093 13.8251 33.8041C13.9383 33.7989 14.0507 33.8258 14.1493 33.8817C15.187 34.47 16.2932 34.9285 17.4428 35.2468C17.5521 35.277 17.6505 35.3375 17.7269 35.4212C17.8032 35.505 17.8544 35.6086 17.8745 35.7201L18.422 38.7641C18.4426 38.8862 18.506 38.9968 18.6009 39.0762C18.6959 39.1556 18.816 39.1985 18.9397 39.1973H20.75V33.007C20.75 32.8475 20.8134 32.6945 20.9262 32.5817C21.039 32.4689 21.192 32.4055 21.3516 32.4055C22.0483 32.4055 22.7164 32.1287 23.2091 31.6361C23.7017 31.1434 23.9785 30.4752 23.9785 29.7785C23.9785 29.0818 23.7017 28.4136 23.2091 27.921C22.7164 27.4283 22.0483 27.1516 21.3516 27.1516C21.192 27.1516 21.039 27.0882 20.9262 26.9754C20.8134 26.8626 20.75 26.7096 20.75 26.55V21.752H16.5063C16.3631 22.6522 15.9035 23.4719 15.2101 24.0637C14.5167 24.6555 13.635 24.9807 12.7234 24.9807C11.8118 24.9807 10.9301 24.6555 10.2367 24.0637C9.5433 23.4719 9.08371 22.6522 8.9405 21.752H3.30469V23.5622C3.30331 23.686 3.34618 23.8062 3.42559 23.9012C3.505 23.9962 3.61573 24.0597 3.73781 24.0803H3.73811ZM18.4217 3.53664L17.8741 6.58077C17.854 6.69229 17.8028 6.79588 17.7265 6.87959C17.6501 6.96331 17.5517 7.02376 17.4425 7.05398C16.2928 7.37232 15.1867 7.83082 14.1489 8.41915C14.0503 8.47505 13.9379 8.50196 13.8247 8.49677C13.7115 8.49158 13.602 8.45451 13.5089 8.38982L10.9686 6.62386C10.8677 6.55208 10.7445 6.51869 10.6212 6.52972C10.4978 6.54075 10.3825 6.59547 10.296 6.68402L6.88504 10.095C6.79654 10.1815 6.74185 10.2968 6.73082 10.4201C6.7198 10.5434 6.75315 10.6666 6.82488 10.7675L8.59092 13.3081C8.65559 13.4012 8.69265 13.5107 8.69783 13.6239C8.703 13.7371 8.67608 13.8495 8.62017 13.9481C8.03194 14.9857 7.57347 16.0917 7.25507 17.2412C7.22485 17.3504 7.16439 17.4489 7.08066 17.5253C6.99693 17.6016 6.89333 17.6528 6.7818 17.6728L3.73781 18.2205C3.61571 18.241 3.50497 18.3045 3.42554 18.3995C3.34612 18.4945 3.30323 18.6148 3.30461 18.7386V20.5488H9.49484C9.65439 20.5488 9.80739 20.6122 9.92021 20.725C10.033 20.8378 10.0964 20.9908 10.0964 21.1504C10.0946 21.4966 10.1611 21.8397 10.2923 22.16C10.4235 22.4804 10.6167 22.7716 10.8608 23.0171C11.105 23.2625 11.3952 23.4573 11.7148 23.5902C12.0345 23.7231 12.3772 23.7915 12.7234 23.7915C13.0696 23.7915 13.4123 23.7231 13.732 23.5902C14.0516 23.4573 14.3418 23.2625 14.5859 23.0171C14.8301 22.7716 15.0233 22.4804 15.1545 22.16C15.2856 21.8397 15.3522 21.4966 15.3504 21.1504C15.3504 20.9908 15.4138 20.8378 15.5266 20.725C15.6394 20.6122 15.7924 20.5488 15.9519 20.5488H20.75V16.3051C19.8497 16.1619 19.03 15.7023 18.4382 15.0089C17.8464 14.3155 17.5213 13.4338 17.5213 12.5222C17.5213 11.6106 17.8464 10.7289 18.4382 10.0355C19.03 9.34213 19.8497 8.88254 20.75 8.73933V3.10352H18.9397C18.8159 3.10213 18.6957 3.14501 18.6007 3.22442C18.5057 3.30383 18.4422 3.41455 18.4217 3.53664ZM38.9653 18.2205L35.9213 17.6728C35.8097 17.6528 35.7061 17.6016 35.6224 17.5253C35.5387 17.4489 35.4782 17.3505 35.448 17.2413C35.1296 16.0918 34.6711 14.9858 34.0829 13.9482C34.027 13.8496 34 13.7372 34.0052 13.6239C34.0104 13.5107 34.0474 13.4012 34.1121 13.3081L35.8781 10.7673C35.9498 10.6665 35.9832 10.5433 35.9722 10.42C35.9611 10.2967 35.9064 10.1814 35.8179 10.0948L32.407 6.68387C32.3204 6.59533 32.2051 6.54062 32.0818 6.5296C31.9585 6.51857 31.8353 6.55194 31.7344 6.62371L29.1938 8.38975C29.1008 8.45443 28.9913 8.4915 28.8781 8.49669C28.7648 8.50188 28.6524 8.47498 28.5538 8.41907C27.5161 7.83074 26.4099 7.37225 25.2603 7.0539C25.1511 7.02368 25.0526 6.96324 24.9763 6.87952C24.8999 6.7958 24.8487 6.69222 24.8287 6.5807L24.2812 3.53664C24.2606 3.41462 24.1971 3.30395 24.1022 3.22456C24.0073 3.14516 23.8871 3.10224 23.7634 3.10352H21.9531V9.29374C21.9531 9.45329 21.8897 9.6063 21.7769 9.71911C21.6641 9.83193 21.5111 9.89531 21.3516 9.89531C20.6549 9.89531 19.9867 10.1721 19.494 10.6647C19.0014 11.1574 18.7246 11.8255 18.7246 12.5223C18.7246 13.219 19.0014 13.8871 19.494 14.3798C19.9867 14.8724 20.6549 15.1492 21.3516 15.1492C21.5111 15.1492 21.6641 15.2126 21.7769 15.3254C21.8897 15.4382 21.9531 15.5912 21.9531 15.7508V20.5488H26.1969C26.3402 19.6486 26.7998 18.829 27.4932 18.2372C28.1865 17.6454 29.0682 17.3204 29.9798 17.3204C30.8913 17.3204 31.773 17.6454 32.4664 18.2372C33.1598 18.829 33.6194 19.6486 33.7626 20.5488H39.3984V18.7386C39.3998 18.6148 39.3569 18.4945 39.2775 18.3996C39.1981 18.3046 39.0874 18.2411 38.9653 18.2205Z"/>
</mask>
<path d="M39.1783 25.2644L36.5014 25.7457C36.2006 26.738 35.8027 27.6982 35.3133 28.6123L36.866 30.8468C37.0978 31.1797 37.205 31.5835 37.169 31.9876C37.1329 32.3916 36.9559 32.7701 36.6688 33.0567L33.258 36.4677C32.9713 36.7547 32.5928 36.9317 32.1888 36.9678C31.7847 37.0038 31.3809 36.8966 31.0479 36.6648L28.8138 35.112C27.8996 35.6013 26.9394 35.9993 25.9471 36.3001L25.4659 38.977C25.3943 39.3764 25.1845 39.7378 24.8733 39.9981C24.562 40.2583 24.1691 40.4007 23.7634 40.4004H18.9397C18.5341 40.4007 18.1413 40.2582 17.83 39.998C17.5188 39.7378 17.3091 39.3764 17.2375 38.9771L16.7562 36.3001C15.7639 35.9993 14.8038 35.6014 13.8896 35.1121L11.6554 36.6649C11.3225 36.8967 10.9185 37.004 10.5144 36.9679C10.1103 36.9318 9.73181 36.7548 9.44514 36.4677L6.03428 33.0567C5.74725 32.7701 5.57021 32.3916 5.53417 31.9876C5.49812 31.5835 5.60537 31.1797 5.83712 30.8468L7.3899 28.6126C6.90062 27.6984 6.50267 26.7382 6.20181 25.746L3.52486 25.2647C3.1255 25.1931 2.76406 24.9834 2.50383 24.6721C2.24361 24.3608 2.1012 23.9679 2.10156 23.5622V18.7386C2.10127 18.3329 2.2437 17.9401 2.5039 17.6289C2.7641 17.3177 3.12549 17.1079 3.52478 17.0364L6.20174 16.5551C6.50249 15.5628 6.90045 14.6026 7.38982 13.6885L5.83704 11.4543C5.60529 11.1214 5.49805 10.7176 5.5341 10.3135C5.57014 9.90947 5.74718 9.53099 6.0342 9.24434L9.44514 5.83311C9.73179 5.54606 10.1103 5.36901 10.5143 5.33295C10.9184 5.29689 11.3223 5.40412 11.6552 5.63587L13.8894 7.1888C14.8035 6.69947 15.7637 6.30151 16.756 6.00072L17.2373 3.32376C17.3088 2.92441 17.5186 2.56296 17.8299 2.30273C18.1411 2.04249 18.534 1.90007 18.9397 1.90039H23.7634C24.169 1.90013 24.5619 2.04258 24.8731 2.30279C25.1843 2.563 25.3941 2.92439 25.4656 3.32369L25.9469 6.00064C26.9392 6.30143 27.8994 6.69939 28.8135 7.18873L31.0479 5.63594C31.3809 5.40419 31.7847 5.29694 32.1888 5.33299C32.5928 5.36904 32.9713 5.54608 33.258 5.83311L36.6688 9.24404C36.9559 9.53069 37.1329 9.90918 37.1689 10.3132C37.205 10.7173 37.0977 11.1211 36.866 11.454L35.3132 13.6882C35.8025 14.6023 36.2005 15.5625 36.5013 16.5548L39.1783 17.0361C39.5776 17.1076 39.9391 17.3174 40.1993 17.6287C40.4595 17.94 40.6019 18.3329 40.6016 18.7386V23.5622C40.6019 23.9679 40.4594 24.3607 40.1992 24.6719C39.939 24.9831 39.5776 25.1928 39.1783 25.2644ZM24.2815 38.7641L24.829 35.72C24.8491 35.6085 24.9003 35.5049 24.9766 35.4212C25.053 35.3375 25.1514 35.277 25.2606 35.2468C26.4101 34.9284 27.5161 34.4699 28.5538 33.8816C28.6524 33.8257 28.7648 33.7988 28.878 33.804C28.9913 33.8092 29.1007 33.8463 29.1938 33.911L31.7345 35.6769C31.8354 35.7487 31.9586 35.7821 32.082 35.7711C32.2053 35.76 32.3206 35.7053 32.4072 35.6168L35.8181 32.206C35.9066 32.1194 35.9613 32.0041 35.9723 31.8808C35.9833 31.7575 35.95 31.6343 35.8782 31.5334L34.1122 28.9927C34.0475 28.8996 34.0105 28.7901 34.0053 28.6769C34.0001 28.5637 34.027 28.4513 34.083 28.3527C34.6712 27.315 35.1296 26.209 35.4481 25.0596C35.4783 24.9504 35.5387 24.8519 35.6225 24.7755C35.7062 24.6992 35.8098 24.648 35.9213 24.6279L38.9653 24.0803C39.0874 24.0597 39.1981 23.9962 39.2775 23.9012C39.3569 23.8062 39.3998 23.686 39.3984 23.5622V21.752H33.2083C33.0487 21.752 32.8957 21.6886 32.7829 21.5758C32.6701 21.4629 32.6067 21.3099 32.6067 21.1504C32.6067 20.4537 32.33 19.7855 31.8373 19.2929C31.3447 18.8002 30.6765 18.5234 29.9798 18.5234C29.2831 18.5234 28.6149 18.8002 28.1222 19.2929C27.6296 19.7855 27.3528 20.4537 27.3528 21.1504C27.3528 21.3099 27.2894 21.4629 27.1766 21.5758C27.0638 21.6886 26.9108 21.752 26.7513 21.752H21.9531V25.9957C22.8534 26.1389 23.6731 26.5985 24.2649 27.2919C24.8567 27.9852 25.1818 28.867 25.1818 29.7786C25.1818 30.6902 24.8567 31.5719 24.2649 32.2653C23.6731 32.9587 22.8534 33.4182 21.9531 33.5615V39.1973H23.7634C23.8872 39.1986 24.0074 39.1558 24.1024 39.0764C24.1974 38.997 24.2609 38.8862 24.2815 38.7641ZM3.73811 24.0803L6.78217 24.6279C6.8937 24.648 6.99728 24.6992 7.08102 24.7755C7.16475 24.8518 7.22521 24.9503 7.25545 25.0595C7.57378 26.209 8.03215 27.3149 8.62024 28.3526C8.67617 28.4512 8.7031 28.5636 8.69793 28.6768C8.69275 28.7901 8.65568 28.8996 8.59099 28.9927L6.82503 31.5334C6.7533 31.6343 6.71994 31.7575 6.73097 31.8808C6.742 32.0041 6.79669 32.1194 6.88519 32.206L10.2961 35.6169C10.3827 35.7055 10.498 35.7602 10.6213 35.7712C10.7446 35.7823 10.8679 35.7489 10.9687 35.6771L13.5093 33.911C13.6024 33.8464 13.7118 33.8093 13.8251 33.8041C13.9383 33.7989 14.0507 33.8258 14.1493 33.8817C15.187 34.47 16.2932 34.9285 17.4428 35.2468C17.5521 35.277 17.6505 35.3375 17.7269 35.4212C17.8032 35.505 17.8544 35.6086 17.8745 35.7201L18.422 38.7641C18.4426 38.8862 18.506 38.9968 18.6009 39.0762C18.6959 39.1556 18.816 39.1985 18.9397 39.1973H20.75V33.007C20.75 32.8475 20.8134 32.6945 20.9262 32.5817C21.039 32.4689 21.192 32.4055 21.3516 32.4055C22.0483 32.4055 22.7164 32.1287 23.2091 31.6361C23.7017 31.1434 23.9785 30.4752 23.9785 29.7785C23.9785 29.0818 23.7017 28.4136 23.2091 27.921C22.7164 27.4283 22.0483 27.1516 21.3516 27.1516C21.192 27.1516 21.039 27.0882 20.9262 26.9754C20.8134 26.8626 20.75 26.7096 20.75 26.55V21.752H16.5063C16.3631 22.6522 15.9035 23.4719 15.2101 24.0637C14.5167 24.6555 13.635 24.9807 12.7234 24.9807C11.8118 24.9807 10.9301 24.6555 10.2367 24.0637C9.5433 23.4719 9.08371 22.6522 8.9405 21.752H3.30469V23.5622C3.30331 23.686 3.34618 23.8062 3.42559 23.9012C3.505 23.9962 3.61573 24.0597 3.73781 24.0803H3.73811ZM18.4217 3.53664L17.8741 6.58077C17.854 6.69229 17.8028 6.79588 17.7265 6.87959C17.6501 6.96331 17.5517 7.02376 17.4425 7.05398C16.2928 7.37232 15.1867 7.83082 14.1489 8.41915C14.0503 8.47505 13.9379 8.50196 13.8247 8.49677C13.7115 8.49158 13.602 8.45451 13.5089 8.38982L10.9686 6.62386C10.8677 6.55208 10.7445 6.51869 10.6212 6.52972C10.4978 6.54075 10.3825 6.59547 10.296 6.68402L6.88504 10.095C6.79654 10.1815 6.74185 10.2968 6.73082 10.4201C6.7198 10.5434 6.75315 10.6666 6.82488 10.7675L8.59092 13.3081C8.65559 13.4012 8.69265 13.5107 8.69783 13.6239C8.703 13.7371 8.67608 13.8495 8.62017 13.9481C8.03194 14.9857 7.57347 16.0917 7.25507 17.2412C7.22485 17.3504 7.16439 17.4489 7.08066 17.5253C6.99693 17.6016 6.89333 17.6528 6.7818 17.6728L3.73781 18.2205C3.61571 18.241 3.50497 18.3045 3.42554 18.3995C3.34612 18.4945 3.30323 18.6148 3.30461 18.7386V20.5488H9.49484C9.65439 20.5488 9.80739 20.6122 9.92021 20.725C10.033 20.8378 10.0964 20.9908 10.0964 21.1504C10.0946 21.4966 10.1611 21.8397 10.2923 22.16C10.4235 22.4804 10.6167 22.7716 10.8608 23.0171C11.105 23.2625 11.3952 23.4573 11.7148 23.5902C12.0345 23.7231 12.3772 23.7915 12.7234 23.7915C13.0696 23.7915 13.4123 23.7231 13.732 23.5902C14.0516 23.4573 14.3418 23.2625 14.5859 23.0171C14.8301 22.7716 15.0233 22.4804 15.1545 22.16C15.2856 21.8397 15.3522 21.4966 15.3504 21.1504C15.3504 20.9908 15.4138 20.8378 15.5266 20.725C15.6394 20.6122 15.7924 20.5488 15.9519 20.5488H20.75V16.3051C19.8497 16.1619 19.03 15.7023 18.4382 15.0089C17.8464 14.3155 17.5213 13.4338 17.5213 12.5222C17.5213 11.6106 17.8464 10.7289 18.4382 10.0355C19.03 9.34213 19.8497 8.88254 20.75 8.73933V3.10352H18.9397C18.8159 3.10213 18.6957 3.14501 18.6007 3.22442C18.5057 3.30383 18.4422 3.41455 18.4217 3.53664ZM38.9653 18.2205L35.9213 17.6728C35.8097 17.6528 35.7061 17.6016 35.6224 17.5253C35.5387 17.4489 35.4782 17.3505 35.448 17.2413C35.1296 16.0918 34.6711 14.9858 34.0829 13.9482C34.027 13.8496 34 13.7372 34.0052 13.6239C34.0104 13.5107 34.0474 13.4012 34.1121 13.3081L35.8781 10.7673C35.9498 10.6665 35.9832 10.5433 35.9722 10.42C35.9611 10.2967 35.9064 10.1814 35.8179 10.0948L32.407 6.68387C32.3204 6.59533 32.2051 6.54062 32.0818 6.5296C31.9585 6.51857 31.8353 6.55194 31.7344 6.62371L29.1938 8.38975C29.1008 8.45443 28.9913 8.4915 28.8781 8.49669C28.7648 8.50188 28.6524 8.47498 28.5538 8.41907C27.5161 7.83074 26.4099 7.37225 25.2603 7.0539C25.1511 7.02368 25.0526 6.96324 24.9763 6.87952C24.8999 6.7958 24.8487 6.69222 24.8287 6.5807L24.2812 3.53664C24.2606 3.41462 24.1971 3.30395 24.1022 3.22456C24.0073 3.14516 23.8871 3.10224 23.7634 3.10352H21.9531V9.29374C21.9531 9.45329 21.8897 9.6063 21.7769 9.71911C21.6641 9.83193 21.5111 9.89531 21.3516 9.89531C20.6549 9.89531 19.9867 10.1721 19.494 10.6647C19.0014 11.1574 18.7246 11.8255 18.7246 12.5223C18.7246 13.219 19.0014 13.8871 19.494 14.3798C19.9867 14.8724 20.6549 15.1492 21.3516 15.1492C21.5111 15.1492 21.6641 15.2126 21.7769 15.3254C21.8897 15.4382 21.9531 15.5912 21.9531 15.7508V20.5488H26.1969C26.3402 19.6486 26.7998 18.829 27.4932 18.2372C28.1865 17.6454 29.0682 17.3204 29.9798 17.3204C30.8913 17.3204 31.773 17.6454 32.4664 18.2372C33.1598 18.829 33.6194 19.6486 33.7626 20.5488H39.3984V18.7386C39.3998 18.6148 39.3569 18.4945 39.2775 18.3996C39.1981 18.3046 39.0874 18.2411 38.9653 18.2205Z" fill="#B15252"/>
<path d="M39.1783 25.2644L36.5014 25.7457C36.2006 26.738 35.8027 27.6982 35.3133 28.6123L36.866 30.8468C37.0978 31.1797 37.205 31.5835 37.169 31.9876C37.1329 32.3916 36.9559 32.7701 36.6688 33.0567L33.258 36.4677C32.9713 36.7547 32.5928 36.9317 32.1888 36.9678C31.7847 37.0038 31.3809 36.8966 31.0479 36.6648L28.8138 35.112C27.8996 35.6013 26.9394 35.9993 25.9471 36.3001L25.4659 38.977C25.3943 39.3764 25.1845 39.7378 24.8733 39.9981C24.562 40.2583 24.1691 40.4007 23.7634 40.4004H18.9397C18.5341 40.4007 18.1413 40.2582 17.83 39.998C17.5188 39.7378 17.3091 39.3764 17.2375 38.9771L16.7562 36.3001C15.7639 35.9993 14.8038 35.6014 13.8896 35.1121L11.6554 36.6649C11.3225 36.8967 10.9185 37.004 10.5144 36.9679C10.1103 36.9318 9.73181 36.7548 9.44514 36.4677L6.03428 33.0567C5.74725 32.7701 5.57021 32.3916 5.53417 31.9876C5.49812 31.5835 5.60537 31.1797 5.83712 30.8468L7.3899 28.6126C6.90062 27.6984 6.50267 26.7382 6.20181 25.746L3.52486 25.2647C3.1255 25.1931 2.76406 24.9834 2.50383 24.6721C2.24361 24.3608 2.1012 23.9679 2.10156 23.5622V18.7386C2.10127 18.3329 2.2437 17.9401 2.5039 17.6289C2.7641 17.3177 3.12549 17.1079 3.52478 17.0364L6.20174 16.5551C6.50249 15.5628 6.90045 14.6026 7.38982 13.6885L5.83704 11.4543C5.60529 11.1214 5.49805 10.7176 5.5341 10.3135C5.57014 9.90947 5.74718 9.53099 6.0342 9.24434L9.44514 5.83311C9.73179 5.54606 10.1103 5.36901 10.5143 5.33295C10.9184 5.29689 11.3223 5.40412 11.6552 5.63587L13.8894 7.1888C14.8035 6.69947 15.7637 6.30151 16.756 6.00072L17.2373 3.32376C17.3088 2.92441 17.5186 2.56296 17.8299 2.30273C18.1411 2.04249 18.534 1.90007 18.9397 1.90039H23.7634C24.169 1.90013 24.5619 2.04258 24.8731 2.30279C25.1843 2.563 25.3941 2.92439 25.4656 3.32369L25.9469 6.00064C26.9392 6.30143 27.8994 6.69939 28.8135 7.18873L31.0479 5.63594C31.3809 5.40419 31.7847 5.29694 32.1888 5.33299C32.5928 5.36904 32.9713 5.54608 33.258 5.83311L36.6688 9.24404C36.9559 9.53069 37.1329 9.90918 37.1689 10.3132C37.205 10.7173 37.0977 11.1211 36.866 11.454L35.3132 13.6882C35.8025 14.6023 36.2005 15.5625 36.5013 16.5548L39.1783 17.0361C39.5776 17.1076 39.9391 17.3174 40.1993 17.6287C40.4595 17.94 40.6019 18.3329 40.6016 18.7386V23.5622C40.6019 23.9679 40.4594 24.3607 40.1992 24.6719C39.939 24.9831 39.5776 25.1928 39.1783 25.2644ZM24.2815 38.7641L24.829 35.72C24.8491 35.6085 24.9003 35.5049 24.9766 35.4212C25.053 35.3375 25.1514 35.277 25.2606 35.2468C26.4101 34.9284 27.5161 34.4699 28.5538 33.8816C28.6524 33.8257 28.7648 33.7988 28.878 33.804C28.9913 33.8092 29.1007 33.8463 29.1938 33.911L31.7345 35.6769C31.8354 35.7487 31.9586 35.7821 32.082 35.7711C32.2053 35.76 32.3206 35.7053 32.4072 35.6168L35.8181 32.206C35.9066 32.1194 35.9613 32.0041 35.9723 31.8808C35.9833 31.7575 35.95 31.6343 35.8782 31.5334L34.1122 28.9927C34.0475 28.8996 34.0105 28.7901 34.0053 28.6769C34.0001 28.5637 34.027 28.4513 34.083 28.3527C34.6712 27.315 35.1296 26.209 35.4481 25.0596C35.4783 24.9504 35.5387 24.8519 35.6225 24.7755C35.7062 24.6992 35.8098 24.648 35.9213 24.6279L38.9653 24.0803C39.0874 24.0597 39.1981 23.9962 39.2775 23.9012C39.3569 23.8062 39.3998 23.686 39.3984 23.5622V21.752H33.2083C33.0487 21.752 32.8957 21.6886 32.7829 21.5758C32.6701 21.4629 32.6067 21.3099 32.6067 21.1504C32.6067 20.4537 32.33 19.7855 31.8373 19.2929C31.3447 18.8002 30.6765 18.5234 29.9798 18.5234C29.2831 18.5234 28.6149 18.8002 28.1222 19.2929C27.6296 19.7855 27.3528 20.4537 27.3528 21.1504C27.3528 21.3099 27.2894 21.4629 27.1766 21.5758C27.0638 21.6886 26.9108 21.752 26.7513 21.752H21.9531V25.9957C22.8534 26.1389 23.6731 26.5985 24.2649 27.2919C24.8567 27.9852 25.1818 28.867 25.1818 29.7786C25.1818 30.6902 24.8567 31.5719 24.2649 32.2653C23.6731 32.9587 22.8534 33.4182 21.9531 33.5615V39.1973H23.7634C23.8872 39.1986 24.0074 39.1558 24.1024 39.0764C24.1974 38.997 24.2609 38.8862 24.2815 38.7641ZM3.73811 24.0803L6.78217 24.6279C6.8937 24.648 6.99728 24.6992 7.08102 24.7755C7.16475 24.8518 7.22521 24.9503 7.25545 25.0595C7.57378 26.209 8.03215 27.3149 8.62024 28.3526C8.67617 28.4512 8.7031 28.5636 8.69793 28.6768C8.69275 28.7901 8.65568 28.8996 8.59099 28.9927L6.82503 31.5334C6.7533 31.6343 6.71994 31.7575 6.73097 31.8808C6.742 32.0041 6.79669 32.1194 6.88519 32.206L10.2961 35.6169C10.3827 35.7055 10.498 35.7602 10.6213 35.7712C10.7446 35.7823 10.8679 35.7489 10.9687 35.6771L13.5093 33.911C13.6024 33.8464 13.7118 33.8093 13.8251 33.8041C13.9383 33.7989 14.0507 33.8258 14.1493 33.8817C15.187 34.47 16.2932 34.9285 17.4428 35.2468C17.5521 35.277 17.6505 35.3375 17.7269 35.4212C17.8032 35.505 17.8544 35.6086 17.8745 35.7201L18.422 38.7641C18.4426 38.8862 18.506 38.9968 18.6009 39.0762C18.6959 39.1556 18.816 39.1985 18.9397 39.1973H20.75V33.007C20.75 32.8475 20.8134 32.6945 20.9262 32.5817C21.039 32.4689 21.192 32.4055 21.3516 32.4055C22.0483 32.4055 22.7164 32.1287 23.2091 31.6361C23.7017 31.1434 23.9785 30.4752 23.9785 29.7785C23.9785 29.0818 23.7017 28.4136 23.2091 27.921C22.7164 27.4283 22.0483 27.1516 21.3516 27.1516C21.192 27.1516 21.039 27.0882 20.9262 26.9754C20.8134 26.8626 20.75 26.7096 20.75 26.55V21.752H16.5063C16.3631 22.6522 15.9035 23.4719 15.2101 24.0637C14.5167 24.6555 13.635 24.9807 12.7234 24.9807C11.8118 24.9807 10.9301 24.6555 10.2367 24.0637C9.5433 23.4719 9.08371 22.6522 8.9405 21.752H3.30469V23.5622C3.30331 23.686 3.34618 23.8062 3.42559 23.9012C3.505 23.9962 3.61573 24.0597 3.73781 24.0803H3.73811ZM18.4217 3.53664L17.8741 6.58077C17.854 6.69229 17.8028 6.79588 17.7265 6.87959C17.6501 6.96331 17.5517 7.02376 17.4425 7.05398C16.2928 7.37232 15.1867 7.83082 14.1489 8.41915C14.0503 8.47505 13.9379 8.50196 13.8247 8.49677C13.7115 8.49158 13.602 8.45451 13.5089 8.38982L10.9686 6.62386C10.8677 6.55208 10.7445 6.51869 10.6212 6.52972C10.4978 6.54075 10.3825 6.59547 10.296 6.68402L6.88504 10.095C6.79654 10.1815 6.74185 10.2968 6.73082 10.4201C6.7198 10.5434 6.75315 10.6666 6.82488 10.7675L8.59092 13.3081C8.65559 13.4012 8.69265 13.5107 8.69783 13.6239C8.703 13.7371 8.67608 13.8495 8.62017 13.9481C8.03194 14.9857 7.57347 16.0917 7.25507 17.2412C7.22485 17.3504 7.16439 17.4489 7.08066 17.5253C6.99693 17.6016 6.89333 17.6528 6.7818 17.6728L3.73781 18.2205C3.61571 18.241 3.50497 18.3045 3.42554 18.3995C3.34612 18.4945 3.30323 18.6148 3.30461 18.7386V20.5488H9.49484C9.65439 20.5488 9.80739 20.6122 9.92021 20.725C10.033 20.8378 10.0964 20.9908 10.0964 21.1504C10.0946 21.4966 10.1611 21.8397 10.2923 22.16C10.4235 22.4804 10.6167 22.7716 10.8608 23.0171C11.105 23.2625 11.3952 23.4573 11.7148 23.5902C12.0345 23.7231 12.3772 23.7915 12.7234 23.7915C13.0696 23.7915 13.4123 23.7231 13.732 23.5902C14.0516 23.4573 14.3418 23.2625 14.5859 23.0171C14.8301 22.7716 15.0233 22.4804 15.1545 22.16C15.2856 21.8397 15.3522 21.4966 15.3504 21.1504C15.3504 20.9908 15.4138 20.8378 15.5266 20.725C15.6394 20.6122 15.7924 20.5488 15.9519 20.5488H20.75V16.3051C19.8497 16.1619 19.03 15.7023 18.4382 15.0089C17.8464 14.3155 17.5213 13.4338 17.5213 12.5222C17.5213 11.6106 17.8464 10.7289 18.4382 10.0355C19.03 9.34213 19.8497 8.88254 20.75 8.73933V3.10352H18.9397C18.8159 3.10213 18.6957 3.14501 18.6007 3.22442C18.5057 3.30383 18.4422 3.41455 18.4217 3.53664ZM38.9653 18.2205L35.9213 17.6728C35.8097 17.6528 35.7061 17.6016 35.6224 17.5253C35.5387 17.4489 35.4782 17.3505 35.448 17.2413C35.1296 16.0918 34.6711 14.9858 34.0829 13.9482C34.027 13.8496 34 13.7372 34.0052 13.6239C34.0104 13.5107 34.0474 13.4012 34.1121 13.3081L35.8781 10.7673C35.9498 10.6665 35.9832 10.5433 35.9722 10.42C35.9611 10.2967 35.9064 10.1814 35.8179 10.0948L32.407 6.68387C32.3204 6.59533 32.2051 6.54062 32.0818 6.5296C31.9585 6.51857 31.8353 6.55194 31.7344 6.62371L29.1938 8.38975C29.1008 8.45443 28.9913 8.4915 28.8781 8.49669C28.7648 8.50188 28.6524 8.47498 28.5538 8.41907C27.5161 7.83074 26.4099 7.37225 25.2603 7.0539C25.1511 7.02368 25.0526 6.96324 24.9763 6.87952C24.8999 6.7958 24.8487 6.69222 24.8287 6.5807L24.2812 3.53664C24.2606 3.41462 24.1971 3.30395 24.1022 3.22456C24.0073 3.14516 23.8871 3.10224 23.7634 3.10352H21.9531V9.29374C21.9531 9.45329 21.8897 9.6063 21.7769 9.71911C21.6641 9.83193 21.5111 9.89531 21.3516 9.89531C20.6549 9.89531 19.9867 10.1721 19.494 10.6647C19.0014 11.1574 18.7246 11.8255 18.7246 12.5223C18.7246 13.219 19.0014 13.8871 19.494 14.3798C19.9867 14.8724 20.6549 15.1492 21.3516 15.1492C21.5111 15.1492 21.6641 15.2126 21.7769 15.3254C21.8897 15.4382 21.9531 15.5912 21.9531 15.7508V20.5488H26.1969C26.3402 19.6486 26.7998 18.829 27.4932 18.2372C28.1865 17.6454 29.0682 17.3204 29.9798 17.3204C30.8913 17.3204 31.773 17.6454 32.4664 18.2372C33.1598 18.829 33.6194 19.6486 33.7626 20.5488H39.3984V18.7386C39.3998 18.6148 39.3569 18.4945 39.2775 18.3996C39.1981 18.3046 39.0874 18.2411 38.9653 18.2205Z" stroke="#B15252" mask="url(#path-1-outside-1_6456_12416)"/>
</svg>
