<svg width="60" height="61" viewBox="0 0 60 61" fill="none" xmlns="http://www.w3.org/2000/svg">
<path d="M44.0489 23.0922C43.634 22.904 43.1583 23.1205 42.9866 23.5763L41.1702 28.4009L39.3538 23.5763C39.1821 23.1207 38.7066 22.9036 38.2915 23.0922C37.8765 23.2806 37.679 23.8028 37.8507 24.2585L40.3775 30.9699C40.6615 31.7243 41.6891 31.6976 41.9629 30.9699L44.4897 24.2585C44.6614 23.8028 44.464 23.2806 44.0489 23.0922ZM49.6096 28.1977C51.9249 26.8617 51.0396 23.0245 48.4514 23.0245H46.3952C45.9461 23.0245 45.5819 23.4242 45.5819 23.9174V30.6933C45.5819 31.1866 45.946 31.5862 46.3952 31.5862C46.8443 31.5862 47.2084 31.1864 47.2084 30.6933V28.5113H47.8489L49.4583 31.1856C49.7058 31.597 50.2104 31.7103 50.585 31.4383C50.9598 31.1665 51.0628 30.6126 50.8152 30.201L49.6096 28.1977ZM48.4514 26.7256H47.2084V24.8104H48.4514C48.9324 24.8104 49.3235 25.24 49.3235 25.768C49.3235 26.2959 48.9324 26.7256 48.4514 26.7256ZM8.11741 30.8254C7.6683 30.8254 7.30424 31.2252 7.30424 31.7184V33.12C7.30424 33.6133 7.6683 34.013 8.11741 34.013C8.56652 34.013 8.93069 33.6133 8.93069 33.12V31.7184C8.93069 31.2252 8.56652 30.8254 8.11741 30.8254ZM12.1165 21.2356C9.32801 21.2356 7.30413 23.4579 7.30413 26.5198V28.6817C7.30413 29.1749 7.66819 29.5747 8.1173 29.5747C8.56641 29.5747 8.93058 29.1749 8.93058 28.6817V26.5198C8.93058 24.7785 9.91562 23.0216 12.1165 23.0216C12.5656 23.0216 12.9298 22.6219 12.9298 22.1286C12.9298 21.6354 12.5656 21.2356 12.1165 21.2356ZM56.5136 25.9916H55.6929C55.6415 21.5451 52.3331 17.9447 48.2715 17.9447H35.5451V17.0461C35.5451 15.7994 34.6214 14.7852 33.4862 14.7852H26.5161C25.3808 14.7852 24.4571 15.7994 24.4571 17.0461V17.9447H11.7307C7.6692 17.9447 4.36083 21.5452 4.30937 25.9916H3.48862C2.35335 25.9916 1.42969 27.0058 1.42969 28.2525V35.9059C1.42969 37.1525 2.35335 38.1667 3.48873 38.1667H4.30949C4.36083 42.6132 7.6692 46.2137 11.7308 46.2137H24.0708C25.7676 46.2137 27.1481 44.6979 27.1481 42.8348C27.1481 41.8927 27.846 41.1264 28.7039 41.1264H31.2984C32.1564 41.1264 32.8542 41.8928 32.8542 42.8348C32.8542 44.6979 34.2347 46.2137 35.9316 46.2137H48.2715C52.3331 46.2137 55.6415 42.6132 55.6929 38.1667H56.5136C57.6489 38.1667 58.5725 37.1525 58.5725 35.9059V28.2525C58.5725 27.0058 57.6489 25.9916 56.5136 25.9916ZM4.30703 36.3807H3.48873C3.25022 36.3807 3.05614 36.1677 3.05614 35.9058V28.2524C3.05614 27.9905 3.25022 27.7774 3.48873 27.7774H4.30703V36.3807ZM26.0836 17.0461C26.0836 16.7842 26.2777 16.5711 26.5161 16.5711H33.4862C33.7247 16.5711 33.9186 16.7842 33.9186 17.0461V17.9447H26.0836V17.0461ZM54.0546 38.0623C54.0546 41.5636 51.4603 44.4123 48.2715 44.4123H35.9316C35.1394 44.4123 34.4949 43.7045 34.4949 42.8347C34.4949 40.8993 33.0609 39.3248 31.2983 39.3248H28.7038C26.9413 39.3248 25.5073 40.8993 25.5073 42.8347C25.5073 43.7045 24.8628 44.4123 24.0705 44.4123H11.7307C8.54196 44.4123 5.94766 41.5636 5.94766 38.0623V26.096C5.94766 22.5947 8.54196 19.746 11.7307 19.746H48.2715C51.4603 19.746 54.0546 22.5947 54.0546 26.096V38.0623ZM56.9461 35.9059C56.9461 36.1678 56.752 36.3808 56.5136 36.3808H55.6953V27.7776H56.5136C56.7521 27.7776 56.9461 27.9907 56.9461 28.2526V35.9059Z" fill="#556EAA"/>
</svg>
