<svg width="60" height="61" viewBox="0 0 60 61" fill="none" xmlns="http://www.w3.org/2000/svg">
<path d="M22.7412 27.5615C23.8144 27.5151 24.8552 27.9091 25.624 28.6426L26.8799 29.8408C27.1596 30.1077 27.1705 30.5511 26.9033 30.8311C26.6705 31.0753 26.3029 31.1141 26.0264 30.9414L25.9141 30.8545L24.6572 29.6562C24.1615 29.1835 23.4761 28.9213 22.8037 28.9609H22.8008C22.4123 28.9709 22.0896 28.6799 22.0723 28.292C22.0552 27.9059 22.3542 27.579 22.7402 27.5615H22.7412Z" fill="#556EAA" stroke="#556EAA" stroke-width="0.2"/>
<path d="M6.07324 21.1113C7.24007 21.1114 8.22635 21.9471 8.41797 23.0977L8.5293 23.7637C8.95448 26.3148 11.2162 28.0689 13.7051 27.958L13.707 27.957C14.0901 27.9458 14.418 28.2377 14.4355 28.626C14.4529 29.0122 14.153 29.3391 13.7676 29.3564C10.6489 29.486 7.86764 27.3713 7.20508 24.2949L7.14746 23.9941L7.03613 23.3271C6.95819 22.8542 6.55334 22.5108 6.07324 22.5107C5.50089 22.5107 5.05237 22.9986 5.10059 23.5703L5.31152 26.043C5.40192 27.0967 5.81279 28.0782 6.5 28.8818C7.21376 29.5794 7.96657 31.1485 10.1572 31.6641L13.6758 32.4922C13.9921 32.5665 14.2158 32.8489 14.2158 33.1738V38.8809C14.2158 39.2673 13.902 39.5809 13.5156 39.5811C13.1291 39.5811 12.8154 39.2673 12.8154 38.8809V33.7275L9.83594 33.0273C7.11276 32.3868 6.07872 30.4064 5.44238 29.7988L5.43555 29.792C4.55718 28.7652 4.03211 27.51 3.91699 26.1631L3.70605 23.6904C3.58834 22.3069 4.67886 21.1113 6.07324 21.1113Z" fill="#556EAA" stroke="#556EAA" stroke-width="0.2"/>
<path d="M29.5537 31.0195C30.0612 31.0195 30.3996 31.5427 30.1934 32.0049L29.6396 33.2461C29.4825 33.5998 29.0669 33.7552 28.7148 33.5996C28.3623 33.4419 28.2037 33.0279 28.3613 32.6748L28.4756 32.4189H20.4746C20.4279 32.4189 20.3859 32.4484 20.3711 32.4941L20.3721 32.4951L18.4111 38.9199V38.9209C18.2943 39.2991 17.894 39.496 17.5361 39.3848C17.1665 39.2715 16.9595 38.8812 17.0713 38.5117V38.5107L19.0332 32.0859C19.2289 31.4483 19.808 31.0195 20.4746 31.0195H29.5537Z" fill="#556EAA" stroke="#556EAA" stroke-width="0.2"/>
<path d="M30.5088 32.7891C30.8322 32.7753 31.1353 32.9915 31.2168 33.3203L31.6475 35.0557C32.153 37.0602 30.9508 39.111 28.999 39.6904L28.6416 39.7959C27.5563 40.1183 26.4376 39.6157 25.9424 38.6387L25.8525 38.4375C25.3445 37.1545 26.0685 35.7299 27.3848 35.373C27.7614 35.2701 28.1422 35.4935 28.2432 35.8652C28.3441 36.2384 28.1236 36.6225 27.751 36.7236C27.2324 36.8647 26.9558 37.4227 27.1514 37.9189C27.3263 38.3608 27.7941 38.5876 28.2432 38.4541L28.6016 38.3477C29.6377 38.0398 30.3621 37.0694 30.3623 35.9883C30.3623 35.7871 30.338 35.587 30.29 35.3945H30.2891L29.8594 33.6582L29.8389 33.5176C29.8248 33.192 30.0407 32.8911 30.3691 32.8096L30.5088 32.7891Z" fill="#556EAA" stroke="#556EAA" stroke-width="0.2"/>
<path d="M21.8887 22.0928C21.9118 22.1002 21.9329 22.1013 21.9424 22.1016C21.9552 22.102 21.9535 22.1021 21.9512 22.1016L22.082 22.1182C22.3854 22.1293 22.6696 21.9471 22.7686 21.6426C23.2201 20.2497 22.9944 19.0899 22.7246 18.3623C22.5809 17.9742 22.3361 17.6341 22.0156 17.3789C21.7516 17.1684 21.4873 16.9202 21.2754 16.7139C21.1693 16.6106 21.0774 16.5186 21.0039 16.4463C20.9339 16.3775 20.8749 16.3205 20.8418 16.2959C19.8714 15.5681 18.7649 15.5887 17.8252 15.8457C16.8863 16.1025 16.1 16.5987 15.749 16.8438C15.6713 16.8982 15.594 16.9335 15.5234 16.9512C14.3971 17.229 13.9932 18.2422 13.8818 19.2305C13.7707 20.2174 13.9437 21.2224 14.0156 21.5771C14.0159 21.5891 14.0156 21.5996 14.0156 21.6211C14.0157 21.6433 14.0163 21.6726 14.0244 21.7041C14.1065 22.0191 14.3904 22.2275 14.7012 22.2275C14.7052 22.2275 14.7088 22.2268 14.7119 22.2266C14.7144 22.2267 14.7169 22.2275 14.7197 22.2275C14.7699 22.2275 14.8208 22.2217 14.8711 22.2109H14.8721C14.8829 22.2085 14.8918 22.2052 14.8984 22.2021C14.9034 22.1999 14.9075 22.1968 14.9102 22.1953C15.4595 22.0515 16.3599 21.8033 17.2871 21.4912C18.1809 21.1904 19.1054 20.827 19.7656 20.4414C20.1888 21.043 20.9731 21.7949 21.8809 22.0898V22.0908L21.8848 22.0918C21.8861 22.0923 21.8873 22.0933 21.8887 22.0938V22.0928ZM21.8887 22.0928C21.8901 22.0932 21.8918 22.0935 21.8926 22.0938C21.894 22.0941 21.895 22.0946 21.8955 22.0947H21.8945C21.8939 22.0946 21.8923 22.0942 21.8906 22.0938L21.8887 22.0928ZM14.6943 22.2246H14.6963C14.6939 22.2241 14.6921 22.2238 14.6914 22.2236C14.6921 22.2238 14.6931 22.2244 14.6943 22.2246ZM21.8643 22.082C21.8671 22.0838 21.8713 22.0848 21.876 22.0869C21.8717 22.0849 21.8679 22.0837 21.8652 22.082C21.8627 22.0805 21.8606 22.079 21.8594 22.0781L21.8574 22.0771C21.8584 22.0778 21.861 22.08 21.8643 22.082ZM19.9658 17.3896C19.3912 16.9823 18.6789 17.0311 18.0273 17.2402C17.3759 17.4493 16.8082 17.8123 16.5498 17.9922L16.5488 17.9912C16.3873 18.1043 16.2172 18.1943 16.04 18.2568L15.8604 18.3105C15.7153 18.3463 15.5996 18.4435 15.5078 18.5967C15.4152 18.7514 15.3501 18.9579 15.3096 19.1973C15.235 19.6382 15.2471 20.1694 15.2949 20.6387C16.065 20.4202 16.8655 20.1686 17.5674 19.9062C18.3069 19.6298 18.9293 19.3464 19.2939 19.0859C19.7658 18.7465 20.4221 18.87 20.7334 19.3467L20.791 19.4473L20.8477 19.5479C20.9882 19.7712 21.2676 20.0926 21.6074 20.3584C21.6621 19.7316 21.5468 19.2125 21.4121 18.8486C21.3757 18.7509 21.3437 18.6906 21.3008 18.6357C21.2562 18.5788 21.1963 18.5228 21.0967 18.4365C20.8986 18.265 20.5675 17.9924 19.9658 17.3896Z" fill="#556EAA" stroke="#556EAA" stroke-width="0.2"/>
<path d="M14.3174 22.4678C14.5562 22.1666 14.9963 22.1133 15.2998 22.3535C15.5652 22.5633 15.6384 22.9269 15.4912 23.2178L15.4141 23.3369C15.2901 23.4947 15.3674 23.7443 15.5752 23.7939C16.0041 23.8959 16.3175 24.25 16.3516 24.6787C16.396 25.2486 16.6473 25.8563 17.0254 26.3203C17.4042 26.7851 17.899 27.0928 18.4238 27.0928C18.9396 27.0926 19.4349 26.7792 19.8174 26.3105C20.1991 25.8428 20.4561 25.235 20.5 24.6777C20.5341 24.2494 20.8469 23.8957 21.2744 23.7939L21.3457 23.7666C21.4969 23.6847 21.54 23.481 21.4482 23.3545L21.4473 23.3535C21.2234 23.0393 21.295 22.6018 21.6094 22.377C21.9263 22.1506 22.3627 22.2256 22.5869 22.5391C23.1954 23.3906 22.8762 24.645 21.8604 25.0674C21.7332 25.9084 21.3369 26.7529 20.749 27.3926C20.1477 28.0469 19.343 28.493 18.4238 28.4932C17.5052 28.4932 16.7004 28.047 16.0996 27.3926C15.5123 26.7529 15.1164 25.9083 14.9893 25.0674C13.9576 24.6379 13.6303 23.3374 14.3164 22.4688L14.3174 22.4678Z" fill="#556EAA" stroke="#556EAA" stroke-width="0.2"/>
<path d="M54.127 9.76953C54.9577 9.76974 55.6326 10.4447 55.6328 11.2754V34.7988C55.6328 35.6297 54.9578 36.3055 54.127 36.3057H34.8145C34.4282 36.3055 34.1152 35.9918 34.1152 35.6055C34.1154 35.2193 34.4283 34.9065 34.8145 34.9062H54.127C54.1854 34.906 54.2324 34.8578 54.2324 34.7988V11.2754C54.2322 11.2166 54.1852 11.1692 54.127 11.1689H24.1885C24.1295 11.1689 24.0813 11.217 24.0811 11.2754V14.9492C24.0808 15.3355 23.7672 15.6484 23.3809 15.6484C22.9947 15.6482 22.6819 15.3354 22.6816 14.9492V11.2754C22.6819 10.4445 23.3576 9.76953 24.1885 9.76953H54.127Z" fill="#556EAA" stroke="#556EAA" stroke-width="0.2"/>
<path d="M51.9355 14.9277C52.3217 14.9279 52.6346 15.2408 52.6348 15.627C52.6348 16.0133 52.3218 16.3269 51.9355 16.3271H26.3965C26.0102 16.3269 25.6973 16.0133 25.6973 15.627C25.6975 15.2408 26.0103 14.9279 26.3965 14.9277H51.9355Z" fill="#556EAA" stroke="#556EAA" stroke-width="0.2"/>
<path d="M50.9434 12.416C51.3295 12.4162 51.6424 12.7291 51.6426 13.1152C51.6426 13.5016 51.3297 13.8152 50.9434 13.8154H48.3887C48.0024 13.8152 47.6895 13.5016 47.6895 13.1152C47.6897 12.7291 48.0025 12.4162 48.3887 12.416H50.9434Z" fill="#556EAA" stroke="#556EAA" stroke-width="0.2"/>
<path d="M27.8262 12.1328C28.3245 12.1329 28.7285 12.5368 28.7285 13.0352C28.7284 13.5334 28.3244 13.9374 27.8262 13.9375C27.3278 13.9375 26.924 13.5334 26.9238 13.0352C26.9238 12.5367 27.3277 12.1328 27.8262 12.1328Z" fill="#556EAA" stroke="#556EAA" stroke-width="0.2"/>
<path d="M30.6934 12.1328C31.1917 12.133 31.5957 12.5368 31.5957 13.0352C31.5956 13.5333 31.1916 13.9373 30.6934 13.9375C30.195 13.9375 29.7911 13.5334 29.791 13.0352C29.791 12.5367 30.195 12.1328 30.6934 12.1328Z" fill="#556EAA" stroke="#556EAA" stroke-width="0.2"/>
<path d="M19.4561 4.29297C20.3051 4.29297 20.9951 4.98346 20.9951 5.83203V11.626C20.995 12.4745 20.305 13.165 19.4561 13.165H16.5947L15.4033 15.2646C15.1395 15.7309 14.472 15.7384 14.1963 15.2832L12.9092 13.165H9.68164C8.83271 13.165 8.14268 12.4745 8.14258 11.626V5.83203C8.14258 4.98346 8.83264 4.29297 9.68164 4.29297H19.4561ZM9.68164 5.69238C9.60718 5.69238 9.54199 5.75757 9.54199 5.83203V11.626C9.5421 11.7004 9.60725 11.7646 9.68164 11.7646C9.77534 11.7646 13.2121 11.7627 13.2998 11.7627C13.5398 11.7627 13.7699 11.8861 13.8984 12.0977L14.7734 13.5361L15.5791 12.1162C15.7189 11.8684 15.9861 11.7358 16.2578 11.7646H19.4561C19.5304 11.7646 19.5956 11.7004 19.5957 11.626V5.83203C19.5957 5.75757 19.5305 5.69238 19.4561 5.69238H9.68164Z" fill="#556EAA" stroke="#556EAA" stroke-width="0.2"/>
<path d="M15.8506 6.58203C16.2369 6.58203 16.5506 6.89495 16.5508 7.28125C16.5508 7.66773 16.2371 7.98145 15.8506 7.98145H13.4199C13.0336 7.98123 12.7207 7.6676 12.7207 7.28125C12.7209 6.89508 13.0338 6.58224 13.4199 6.58203H15.8506Z" fill="#556EAA" stroke="#556EAA" stroke-width="0.2"/>
<path d="M17.6982 8.96094C18.0846 8.96094 18.3982 9.27386 18.3984 9.66016C18.3984 10.0466 18.0847 10.3604 17.6982 10.3604H11.4512C11.0649 10.3601 10.752 10.0465 10.752 9.66016C10.7522 9.27399 11.065 8.96115 11.4512 8.96094H17.6982Z" fill="#556EAA" stroke="#556EAA" stroke-width="0.2"/>
<path d="M33.8613 40.3203C36.2132 40.3205 38.1268 42.2331 38.127 44.585C38.127 46.9369 36.2133 48.8504 33.8613 48.8506C31.5092 48.8506 29.5957 46.9371 29.5957 44.585C29.5958 42.2329 31.5093 40.3203 33.8613 40.3203ZM33.8613 41.7197C32.2814 41.7197 30.9952 43.0051 30.9951 44.585C30.9951 46.1649 32.2814 47.4512 33.8613 47.4512C35.4411 47.451 36.7266 46.1648 36.7266 44.585C36.7265 43.0053 35.441 41.7199 33.8613 41.7197Z" fill="#556EAA" stroke="#556EAA" stroke-width="0.2"/>
<path d="M34.9404 49.2988C37.8246 49.2988 40.1699 51.6446 40.1699 54.5283V56.0078C40.1699 56.3942 39.857 56.7078 39.4707 56.708C39.0842 56.708 38.7705 56.3943 38.7705 56.0078V54.5283C38.7705 52.4167 37.0524 50.6982 34.9404 50.6982H32.7861C30.6742 50.6982 28.9561 52.4167 28.9561 54.5283V56.0078C28.9561 56.3943 28.6423 56.708 28.2559 56.708C27.8696 56.7078 27.5566 56.3942 27.5566 56.0078V54.5283C27.5566 51.6446 29.902 49.2988 32.7861 49.2988H34.9404Z" fill="#556EAA" stroke="#556EAA" stroke-width="0.2"/>
<path d="M17.7363 40.3203C20.0882 40.3205 22.0018 42.2331 22.002 44.585C22.002 46.9369 20.0883 48.8504 17.7363 48.8506C15.3842 48.8506 13.4707 46.9371 13.4707 44.585C13.4708 42.2329 15.3843 40.3203 17.7363 40.3203ZM17.7363 41.7197C16.1564 41.7197 14.8702 43.0051 14.8701 44.585C14.8701 46.1649 16.1564 47.4512 17.7363 47.4512C19.3161 47.451 20.6016 46.1648 20.6016 44.585C20.6015 43.0053 19.316 41.7199 17.7363 41.7197Z" fill="#556EAA" stroke="#556EAA" stroke-width="0.2"/>
<path d="M18.8145 49.2988C21.6986 49.2988 24.0449 51.6446 24.0449 54.5283V56.0078C24.0449 56.3942 23.7311 56.7079 23.3447 56.708C22.9582 56.708 22.6445 56.3943 22.6445 56.0078V54.5283C22.6445 52.4167 20.9264 50.6982 18.8145 50.6982H16.6602C14.549 50.6982 12.8311 52.4167 12.8311 54.5283V56.0078C12.8311 56.3943 12.5173 56.708 12.1309 56.708C11.7446 56.7078 11.4316 56.3942 11.4316 56.0078V54.5283C11.4316 51.6446 13.7768 49.2988 16.6602 49.2988H18.8145Z" fill="#556EAA" stroke="#556EAA" stroke-width="0.2"/>
<path d="M49.9863 40.3203C52.3382 40.3205 54.2518 42.2331 54.252 44.585C54.252 46.9369 52.3383 48.8504 49.9863 48.8506C47.6342 48.8506 45.7207 46.9371 45.7207 44.585C45.7208 42.2329 47.6343 40.3203 49.9863 40.3203ZM49.9863 41.7197C48.4064 41.7197 47.1202 43.0051 47.1201 44.585C47.1201 46.1649 48.4064 47.4512 49.9863 47.4512C51.5661 47.451 52.8516 46.1648 52.8516 44.585C52.8515 43.0053 51.566 41.7199 49.9863 41.7197Z" fill="#556EAA" stroke="#556EAA" stroke-width="0.2"/>
<path d="M51.0654 49.2988C53.9496 49.2988 56.2949 51.6446 56.2949 54.5283V56.0078C56.2949 56.3942 55.982 56.7078 55.5957 56.708C55.2092 56.708 54.8955 56.3943 54.8955 56.0078V54.5283C54.8955 52.4167 53.1774 50.6982 51.0654 50.6982H48.9111C46.7992 50.6982 45.0811 52.4167 45.0811 54.5283V56.0078C45.0811 56.3943 44.7673 56.708 44.3809 56.708C43.9946 56.7078 43.6816 56.3942 43.6816 56.0078V54.5283C43.6816 51.6446 46.027 49.2988 48.9111 49.2988H51.0654Z" fill="#556EAA" stroke="#556EAA" stroke-width="0.2"/>
<path d="M38.7637 18.5703C41.2448 18.5704 43.4272 18.9916 44.9932 19.6982C46.5524 20.4019 47.5332 21.4059 47.5332 22.583C47.5331 23.7601 46.5523 24.7632 44.9932 25.4668C43.4272 26.1735 41.2449 26.5957 38.7637 26.5957C36.2827 26.5957 34.1001 26.1735 32.5342 25.4668C30.9751 24.7632 29.9942 23.7601 29.9941 22.583C29.9941 21.4059 30.975 20.4019 32.5342 19.6982C34.1001 18.9916 36.2829 18.5703 38.7637 18.5703ZM38.7637 19.9697C36.6364 19.9697 34.7815 20.3269 33.4619 20.8398C32.8018 21.0964 32.2796 21.3899 31.9248 21.6943C31.5678 22.0007 31.3936 22.3055 31.3936 22.583C31.3936 22.8604 31.568 23.1645 31.9248 23.4707C32.2796 23.7752 32.8017 24.0695 33.4619 24.3262C34.7815 24.8391 36.6365 25.1953 38.7637 25.1953C40.8911 25.1953 42.7459 24.839 44.0654 24.3262C44.7257 24.0695 45.2477 23.7752 45.6025 23.4707C45.9593 23.1645 46.1337 22.8604 46.1338 22.583C46.1338 22.3055 45.9595 22.0007 45.6025 21.6943C45.2477 21.3899 44.7256 21.0964 44.0654 20.8398C42.7459 20.3269 40.8912 19.9698 38.7637 19.9697Z" fill="#556EAA" stroke="#556EAA" stroke-width="0.2"/>
<path d="M42.835 28.6016C43.2213 28.6016 43.5349 28.9145 43.5352 29.3008C43.5352 29.6873 43.2214 30.001 42.835 30.001H35.2949C34.9086 30.0008 34.5957 29.6871 34.5957 29.3008C34.5959 28.9146 34.9088 28.6018 35.2949 28.6016H42.835Z" fill="#556EAA" stroke="#556EAA" stroke-width="0.2"/>
</svg>
