<svg width="60" height="61" viewBox="0 0 60 61" fill="none" xmlns="http://www.w3.org/2000/svg">
<mask id="path-1-outside-1_5963_1605" maskUnits="userSpaceOnUse" x="7.27344" y="1.25781" width="45" height="58" fill="black">
<rect fill="white" x="7.27344" y="1.25781" width="45" height="58"/>
<path d="M42.7758 28.3227H37.4566C37.207 28.3227 36.9773 28.4539 36.8508 28.6695C36.7242 28.8852 36.7207 29.15 36.8426 29.368C37.0266 29.6996 37.1238 30.0758 37.1238 30.4578C37.1238 31.6977 36.1148 32.7066 34.875 32.7066C33.6352 32.7066 32.6262 31.6977 32.6262 30.4578C32.6262 30.0758 32.7234 29.6996 32.9074 29.368C33.0281 29.15 33.0246 28.8852 32.8992 28.6695C32.7727 28.4551 32.5418 28.3227 32.2934 28.3227H26.5852V22.9883C26.9836 23.1336 27.4066 23.2098 27.8391 23.2098C29.8547 23.2098 31.4941 21.5703 31.4941 19.5547C31.4941 17.5391 29.8547 15.8996 27.8391 15.8996C27.4078 15.8996 26.9836 15.9758 26.5852 16.1211V11.5437C26.5852 11.1559 26.2699 10.8406 25.882 10.8406C16.1719 10.8406 8.27344 18.7402 8.27344 28.4492C8.27344 34.0988 11.0145 39.4449 15.6059 42.7496C17.0742 43.8066 17.85 45.3219 17.85 47.1312V51.5434C17.85 53.1922 19.0254 54.5727 20.5828 54.8891C21.3176 57.1812 23.4305 58.741 25.882 58.741C28.3219 58.741 30.4266 57.1941 31.1707 54.9195C32.816 54.6758 34.0828 53.2543 34.0828 51.5422V47.0059C34.0828 45.2164 34.8457 43.7117 36.2883 42.6535C40.677 39.4332 43.2996 34.475 43.4812 29.048C43.4871 28.8582 43.4168 28.673 43.2844 28.5359C43.1496 28.4 42.9668 28.3227 42.7758 28.3227ZM25.1777 12.2621V17.3445C25.1777 17.6211 25.3395 17.8719 25.5926 17.9855C25.8445 18.0992 26.1398 18.0535 26.3473 17.8707C26.7586 17.5062 27.2883 17.3059 27.8379 17.3059C29.0777 17.3059 30.0867 18.3148 30.0867 19.5547C30.0867 20.7945 29.0777 21.8035 27.8379 21.8035C27.2883 21.8035 26.7586 21.6031 26.3473 21.2387C26.1398 21.0559 25.8445 21.0102 25.5926 21.1238C25.3406 21.2375 25.1777 21.4883 25.1777 21.7648V28.3227H20.4691C20.5172 28.0836 20.543 27.8398 20.543 27.5937C20.543 25.5781 18.9035 23.9387 16.8879 23.9387C14.8723 23.9387 13.2328 25.5781 13.2328 27.5937C13.2328 27.8387 13.2574 28.0836 13.3066 28.3227H9.67969C9.74648 19.6824 16.6102 12.6301 25.1777 12.2621ZM16.425 41.6094C12.5484 38.8191 10.1062 34.4469 9.73008 29.7289H14.3039C14.5535 29.7289 14.7832 29.5977 14.9098 29.382C15.0363 29.1676 15.0398 28.9016 14.918 28.6836C14.734 28.352 14.6367 27.9758 14.6367 27.5937C14.6367 26.3539 15.6457 25.3449 16.8855 25.3449C18.1254 25.3449 19.1344 26.3539 19.1344 27.5937C19.1344 27.9758 19.0371 28.352 18.8531 28.6836C18.7324 28.9016 18.7359 29.1664 18.8613 29.382C18.9879 29.5965 19.2187 29.7289 19.4672 29.7289H25.1754V35.0633C24.777 34.918 24.3539 34.8418 23.9215 34.8418C21.9059 34.8418 20.2664 36.4813 20.2664 38.4969C20.2664 40.5125 21.9059 42.152 23.9215 42.152C24.3527 42.152 24.777 42.0758 25.1754 41.9305V45.8035H19.1285C18.8121 44.116 17.8805 42.6559 16.425 41.6094ZM25.8809 57.3359C24.2637 57.3359 22.8012 56.3762 22.1215 54.9582H29.6449C28.9711 56.3926 27.5285 57.3359 25.8809 57.3359ZM30.6668 53.552H21.2637C20.1562 53.552 19.2551 52.6508 19.2551 51.5434V47.2109H32.6754V51.5434C32.6754 52.6508 31.7742 53.552 30.6668 53.552ZM35.4551 41.5215C33.9937 42.5938 33.0691 44.0855 32.7762 45.8047H26.584V40.7082C26.584 40.4316 26.4223 40.1809 26.1691 40.0672C25.9172 39.9535 25.6219 39.9992 25.4145 40.182C25.0031 40.5465 24.4734 40.7469 23.9238 40.7469C22.684 40.7469 21.675 39.7379 21.675 38.498C21.675 37.2582 22.684 36.2492 23.9238 36.2492C24.4734 36.2492 25.0031 36.4496 25.4145 36.8141C25.6219 36.998 25.9172 37.0426 26.1691 36.9289C26.4211 36.8152 26.584 36.5645 26.584 36.2879V29.7301H31.2926C31.2445 29.9691 31.2188 30.2129 31.2188 30.459C31.2188 32.4746 32.8582 34.1141 34.8738 34.1141C36.8895 34.1141 38.5289 32.4746 38.5289 30.459C38.5289 30.2141 38.5043 29.9691 38.4551 29.7301H42.0316C41.6672 34.4363 39.2965 38.702 35.4551 41.5215ZM46.7789 7.62148C43.4332 4.16328 38.9391 2.25781 34.1238 2.25781C33.7359 2.25781 33.4207 2.57305 33.4207 2.96094V8.76055C33.4207 9.03711 33.5824 9.28789 33.8355 9.40156C34.0887 9.51523 34.3828 9.46953 34.5902 9.28672C35.0016 8.92227 35.5301 8.72188 36.0809 8.72188C37.3207 8.72188 38.3297 9.73086 38.3297 10.9707C38.3297 12.2105 37.3207 13.2195 36.0809 13.2195C35.5312 13.2195 35.0016 13.0191 34.5902 12.6547C34.3828 12.4719 34.0875 12.4262 33.8355 12.5398C33.5836 12.6535 33.4207 12.9043 33.4207 13.1809V20.4418C33.4207 20.8297 33.7359 21.1449 34.1238 21.1449H39.5355C39.4875 21.384 39.4617 21.6277 39.4617 21.8738C39.4617 23.8895 41.1012 25.5289 43.1168 25.5289C45.1324 25.5289 46.7719 23.8895 46.7719 21.8738C46.7719 21.6289 46.7473 21.384 46.698 21.1449H51.0176C51.3973 21.1449 51.7078 20.8438 51.7207 20.4652C51.8836 15.6465 50.1281 11.0855 46.7789 7.62148ZM45.7008 19.7398C45.4512 19.7398 45.2215 19.8711 45.0949 20.0867C44.9684 20.3012 44.9648 20.5672 45.0867 20.7852C45.2707 21.1168 45.368 21.493 45.368 21.875C45.368 23.1148 44.359 24.1238 43.1191 24.1238C41.8793 24.1238 40.8703 23.1148 40.8703 21.875C40.8703 21.493 40.9676 21.1168 41.1516 20.7852C41.2723 20.5672 41.2687 20.3023 41.1434 20.0867C41.018 19.8711 40.7871 19.7398 40.5375 19.7398H34.8293V14.4055C35.2277 14.5508 35.6508 14.627 36.0832 14.627C38.0988 14.627 39.7383 12.9875 39.7383 10.9719C39.7383 8.95625 38.0988 7.3168 36.0832 7.3168C35.652 7.3168 35.2277 7.39297 34.8293 7.53828V3.6793C38.993 3.85508 42.8555 5.58594 45.7699 8.6C48.6949 11.6234 50.2992 15.5574 50.3285 19.7398H45.7008Z"/>
</mask>
<path d="M42.7758 28.3227H37.4566C37.207 28.3227 36.9773 28.4539 36.8508 28.6695C36.7242 28.8852 36.7207 29.15 36.8426 29.368C37.0266 29.6996 37.1238 30.0758 37.1238 30.4578C37.1238 31.6977 36.1148 32.7066 34.875 32.7066C33.6352 32.7066 32.6262 31.6977 32.6262 30.4578C32.6262 30.0758 32.7234 29.6996 32.9074 29.368C33.0281 29.15 33.0246 28.8852 32.8992 28.6695C32.7727 28.4551 32.5418 28.3227 32.2934 28.3227H26.5852V22.9883C26.9836 23.1336 27.4066 23.2098 27.8391 23.2098C29.8547 23.2098 31.4941 21.5703 31.4941 19.5547C31.4941 17.5391 29.8547 15.8996 27.8391 15.8996C27.4078 15.8996 26.9836 15.9758 26.5852 16.1211V11.5437C26.5852 11.1559 26.2699 10.8406 25.882 10.8406C16.1719 10.8406 8.27344 18.7402 8.27344 28.4492C8.27344 34.0988 11.0145 39.4449 15.6059 42.7496C17.0742 43.8066 17.85 45.3219 17.85 47.1312V51.5434C17.85 53.1922 19.0254 54.5727 20.5828 54.8891C21.3176 57.1812 23.4305 58.741 25.882 58.741C28.3219 58.741 30.4266 57.1941 31.1707 54.9195C32.816 54.6758 34.0828 53.2543 34.0828 51.5422V47.0059C34.0828 45.2164 34.8457 43.7117 36.2883 42.6535C40.677 39.4332 43.2996 34.475 43.4812 29.048C43.4871 28.8582 43.4168 28.673 43.2844 28.5359C43.1496 28.4 42.9668 28.3227 42.7758 28.3227ZM25.1777 12.2621V17.3445C25.1777 17.6211 25.3395 17.8719 25.5926 17.9855C25.8445 18.0992 26.1398 18.0535 26.3473 17.8707C26.7586 17.5062 27.2883 17.3059 27.8379 17.3059C29.0777 17.3059 30.0867 18.3148 30.0867 19.5547C30.0867 20.7945 29.0777 21.8035 27.8379 21.8035C27.2883 21.8035 26.7586 21.6031 26.3473 21.2387C26.1398 21.0559 25.8445 21.0102 25.5926 21.1238C25.3406 21.2375 25.1777 21.4883 25.1777 21.7648V28.3227H20.4691C20.5172 28.0836 20.543 27.8398 20.543 27.5937C20.543 25.5781 18.9035 23.9387 16.8879 23.9387C14.8723 23.9387 13.2328 25.5781 13.2328 27.5937C13.2328 27.8387 13.2574 28.0836 13.3066 28.3227H9.67969C9.74648 19.6824 16.6102 12.6301 25.1777 12.2621ZM16.425 41.6094C12.5484 38.8191 10.1062 34.4469 9.73008 29.7289H14.3039C14.5535 29.7289 14.7832 29.5977 14.9098 29.382C15.0363 29.1676 15.0398 28.9016 14.918 28.6836C14.734 28.352 14.6367 27.9758 14.6367 27.5937C14.6367 26.3539 15.6457 25.3449 16.8855 25.3449C18.1254 25.3449 19.1344 26.3539 19.1344 27.5937C19.1344 27.9758 19.0371 28.352 18.8531 28.6836C18.7324 28.9016 18.7359 29.1664 18.8613 29.382C18.9879 29.5965 19.2187 29.7289 19.4672 29.7289H25.1754V35.0633C24.777 34.918 24.3539 34.8418 23.9215 34.8418C21.9059 34.8418 20.2664 36.4813 20.2664 38.4969C20.2664 40.5125 21.9059 42.152 23.9215 42.152C24.3527 42.152 24.777 42.0758 25.1754 41.9305V45.8035H19.1285C18.8121 44.116 17.8805 42.6559 16.425 41.6094ZM25.8809 57.3359C24.2637 57.3359 22.8012 56.3762 22.1215 54.9582H29.6449C28.9711 56.3926 27.5285 57.3359 25.8809 57.3359ZM30.6668 53.552H21.2637C20.1562 53.552 19.2551 52.6508 19.2551 51.5434V47.2109H32.6754V51.5434C32.6754 52.6508 31.7742 53.552 30.6668 53.552ZM35.4551 41.5215C33.9937 42.5938 33.0691 44.0855 32.7762 45.8047H26.584V40.7082C26.584 40.4316 26.4223 40.1809 26.1691 40.0672C25.9172 39.9535 25.6219 39.9992 25.4145 40.182C25.0031 40.5465 24.4734 40.7469 23.9238 40.7469C22.684 40.7469 21.675 39.7379 21.675 38.498C21.675 37.2582 22.684 36.2492 23.9238 36.2492C24.4734 36.2492 25.0031 36.4496 25.4145 36.8141C25.6219 36.998 25.9172 37.0426 26.1691 36.9289C26.4211 36.8152 26.584 36.5645 26.584 36.2879V29.7301H31.2926C31.2445 29.9691 31.2188 30.2129 31.2188 30.459C31.2188 32.4746 32.8582 34.1141 34.8738 34.1141C36.8895 34.1141 38.5289 32.4746 38.5289 30.459C38.5289 30.2141 38.5043 29.9691 38.4551 29.7301H42.0316C41.6672 34.4363 39.2965 38.702 35.4551 41.5215ZM46.7789 7.62148C43.4332 4.16328 38.9391 2.25781 34.1238 2.25781C33.7359 2.25781 33.4207 2.57305 33.4207 2.96094V8.76055C33.4207 9.03711 33.5824 9.28789 33.8355 9.40156C34.0887 9.51523 34.3828 9.46953 34.5902 9.28672C35.0016 8.92227 35.5301 8.72188 36.0809 8.72188C37.3207 8.72188 38.3297 9.73086 38.3297 10.9707C38.3297 12.2105 37.3207 13.2195 36.0809 13.2195C35.5312 13.2195 35.0016 13.0191 34.5902 12.6547C34.3828 12.4719 34.0875 12.4262 33.8355 12.5398C33.5836 12.6535 33.4207 12.9043 33.4207 13.1809V20.4418C33.4207 20.8297 33.7359 21.1449 34.1238 21.1449H39.5355C39.4875 21.384 39.4617 21.6277 39.4617 21.8738C39.4617 23.8895 41.1012 25.5289 43.1168 25.5289C45.1324 25.5289 46.7719 23.8895 46.7719 21.8738C46.7719 21.6289 46.7473 21.384 46.698 21.1449H51.0176C51.3973 21.1449 51.7078 20.8438 51.7207 20.4652C51.8836 15.6465 50.1281 11.0855 46.7789 7.62148ZM45.7008 19.7398C45.4512 19.7398 45.2215 19.8711 45.0949 20.0867C44.9684 20.3012 44.9648 20.5672 45.0867 20.7852C45.2707 21.1168 45.368 21.493 45.368 21.875C45.368 23.1148 44.359 24.1238 43.1191 24.1238C41.8793 24.1238 40.8703 23.1148 40.8703 21.875C40.8703 21.493 40.9676 21.1168 41.1516 20.7852C41.2723 20.5672 41.2687 20.3023 41.1434 20.0867C41.018 19.8711 40.7871 19.7398 40.5375 19.7398H34.8293V14.4055C35.2277 14.5508 35.6508 14.627 36.0832 14.627C38.0988 14.627 39.7383 12.9875 39.7383 10.9719C39.7383 8.95625 38.0988 7.3168 36.0832 7.3168C35.652 7.3168 35.2277 7.39297 34.8293 7.53828V3.6793C38.993 3.85508 42.8555 5.58594 45.7699 8.6C48.6949 11.6234 50.2992 15.5574 50.3285 19.7398H45.7008Z" fill="#556EAA"/>
<path d="M42.7758 28.3227H37.4566C37.207 28.3227 36.9773 28.4539 36.8508 28.6695C36.7242 28.8852 36.7207 29.15 36.8426 29.368C37.0266 29.6996 37.1238 30.0758 37.1238 30.4578C37.1238 31.6977 36.1148 32.7066 34.875 32.7066C33.6352 32.7066 32.6262 31.6977 32.6262 30.4578C32.6262 30.0758 32.7234 29.6996 32.9074 29.368C33.0281 29.15 33.0246 28.8852 32.8992 28.6695C32.7727 28.4551 32.5418 28.3227 32.2934 28.3227H26.5852V22.9883C26.9836 23.1336 27.4066 23.2098 27.8391 23.2098C29.8547 23.2098 31.4941 21.5703 31.4941 19.5547C31.4941 17.5391 29.8547 15.8996 27.8391 15.8996C27.4078 15.8996 26.9836 15.9758 26.5852 16.1211V11.5437C26.5852 11.1559 26.2699 10.8406 25.882 10.8406C16.1719 10.8406 8.27344 18.7402 8.27344 28.4492C8.27344 34.0988 11.0145 39.4449 15.6059 42.7496C17.0742 43.8066 17.85 45.3219 17.85 47.1312V51.5434C17.85 53.1922 19.0254 54.5727 20.5828 54.8891C21.3176 57.1812 23.4305 58.741 25.882 58.741C28.3219 58.741 30.4266 57.1941 31.1707 54.9195C32.816 54.6758 34.0828 53.2543 34.0828 51.5422V47.0059C34.0828 45.2164 34.8457 43.7117 36.2883 42.6535C40.677 39.4332 43.2996 34.475 43.4812 29.048C43.4871 28.8582 43.4168 28.673 43.2844 28.5359C43.1496 28.4 42.9668 28.3227 42.7758 28.3227ZM25.1777 12.2621V17.3445C25.1777 17.6211 25.3395 17.8719 25.5926 17.9855C25.8445 18.0992 26.1398 18.0535 26.3473 17.8707C26.7586 17.5062 27.2883 17.3059 27.8379 17.3059C29.0777 17.3059 30.0867 18.3148 30.0867 19.5547C30.0867 20.7945 29.0777 21.8035 27.8379 21.8035C27.2883 21.8035 26.7586 21.6031 26.3473 21.2387C26.1398 21.0559 25.8445 21.0102 25.5926 21.1238C25.3406 21.2375 25.1777 21.4883 25.1777 21.7648V28.3227H20.4691C20.5172 28.0836 20.543 27.8398 20.543 27.5937C20.543 25.5781 18.9035 23.9387 16.8879 23.9387C14.8723 23.9387 13.2328 25.5781 13.2328 27.5937C13.2328 27.8387 13.2574 28.0836 13.3066 28.3227H9.67969C9.74648 19.6824 16.6102 12.6301 25.1777 12.2621ZM16.425 41.6094C12.5484 38.8191 10.1062 34.4469 9.73008 29.7289H14.3039C14.5535 29.7289 14.7832 29.5977 14.9098 29.382C15.0363 29.1676 15.0398 28.9016 14.918 28.6836C14.734 28.352 14.6367 27.9758 14.6367 27.5937C14.6367 26.3539 15.6457 25.3449 16.8855 25.3449C18.1254 25.3449 19.1344 26.3539 19.1344 27.5937C19.1344 27.9758 19.0371 28.352 18.8531 28.6836C18.7324 28.9016 18.7359 29.1664 18.8613 29.382C18.9879 29.5965 19.2187 29.7289 19.4672 29.7289H25.1754V35.0633C24.777 34.918 24.3539 34.8418 23.9215 34.8418C21.9059 34.8418 20.2664 36.4813 20.2664 38.4969C20.2664 40.5125 21.9059 42.152 23.9215 42.152C24.3527 42.152 24.777 42.0758 25.1754 41.9305V45.8035H19.1285C18.8121 44.116 17.8805 42.6559 16.425 41.6094ZM25.8809 57.3359C24.2637 57.3359 22.8012 56.3762 22.1215 54.9582H29.6449C28.9711 56.3926 27.5285 57.3359 25.8809 57.3359ZM30.6668 53.552H21.2637C20.1562 53.552 19.2551 52.6508 19.2551 51.5434V47.2109H32.6754V51.5434C32.6754 52.6508 31.7742 53.552 30.6668 53.552ZM35.4551 41.5215C33.9937 42.5938 33.0691 44.0855 32.7762 45.8047H26.584V40.7082C26.584 40.4316 26.4223 40.1809 26.1691 40.0672C25.9172 39.9535 25.6219 39.9992 25.4145 40.182C25.0031 40.5465 24.4734 40.7469 23.9238 40.7469C22.684 40.7469 21.675 39.7379 21.675 38.498C21.675 37.2582 22.684 36.2492 23.9238 36.2492C24.4734 36.2492 25.0031 36.4496 25.4145 36.8141C25.6219 36.998 25.9172 37.0426 26.1691 36.9289C26.4211 36.8152 26.584 36.5645 26.584 36.2879V29.7301H31.2926C31.2445 29.9691 31.2188 30.2129 31.2188 30.459C31.2188 32.4746 32.8582 34.1141 34.8738 34.1141C36.8895 34.1141 38.5289 32.4746 38.5289 30.459C38.5289 30.2141 38.5043 29.9691 38.4551 29.7301H42.0316C41.6672 34.4363 39.2965 38.702 35.4551 41.5215ZM46.7789 7.62148C43.4332 4.16328 38.9391 2.25781 34.1238 2.25781C33.7359 2.25781 33.4207 2.57305 33.4207 2.96094V8.76055C33.4207 9.03711 33.5824 9.28789 33.8355 9.40156C34.0887 9.51523 34.3828 9.46953 34.5902 9.28672C35.0016 8.92227 35.5301 8.72188 36.0809 8.72188C37.3207 8.72188 38.3297 9.73086 38.3297 10.9707C38.3297 12.2105 37.3207 13.2195 36.0809 13.2195C35.5312 13.2195 35.0016 13.0191 34.5902 12.6547C34.3828 12.4719 34.0875 12.4262 33.8355 12.5398C33.5836 12.6535 33.4207 12.9043 33.4207 13.1809V20.4418C33.4207 20.8297 33.7359 21.1449 34.1238 21.1449H39.5355C39.4875 21.384 39.4617 21.6277 39.4617 21.8738C39.4617 23.8895 41.1012 25.5289 43.1168 25.5289C45.1324 25.5289 46.7719 23.8895 46.7719 21.8738C46.7719 21.6289 46.7473 21.384 46.698 21.1449H51.0176C51.3973 21.1449 51.7078 20.8438 51.7207 20.4652C51.8836 15.6465 50.1281 11.0855 46.7789 7.62148ZM45.7008 19.7398C45.4512 19.7398 45.2215 19.8711 45.0949 20.0867C44.9684 20.3012 44.9648 20.5672 45.0867 20.7852C45.2707 21.1168 45.368 21.493 45.368 21.875C45.368 23.1148 44.359 24.1238 43.1191 24.1238C41.8793 24.1238 40.8703 23.1148 40.8703 21.875C40.8703 21.493 40.9676 21.1168 41.1516 20.7852C41.2723 20.5672 41.2687 20.3023 41.1434 20.0867C41.018 19.8711 40.7871 19.7398 40.5375 19.7398H34.8293V14.4055C35.2277 14.5508 35.6508 14.627 36.0832 14.627C38.0988 14.627 39.7383 12.9875 39.7383 10.9719C39.7383 8.95625 38.0988 7.3168 36.0832 7.3168C35.652 7.3168 35.2277 7.39297 34.8293 7.53828V3.6793C38.993 3.85508 42.8555 5.58594 45.7699 8.6C48.6949 11.6234 50.2992 15.5574 50.3285 19.7398H45.7008Z" stroke="#556EAA" stroke-width="0.4" mask="url(#path-1-outside-1_5963_1605)"/>
</svg>
