<svg width="60" height="61" viewBox="0 0 60 61" fill="none" xmlns="http://www.w3.org/2000/svg">
<path d="M24.3486 36.5957H36.0596C40.7089 36.5957 43.9599 38.8869 45.667 42.0176C47.3759 45.1518 47.5393 49.1317 46 52.5078L45.9355 52.6504L46.0918 52.6494C47.8693 52.6402 49.4062 51.3205 49.6709 49.5703C49.8688 48.2619 49.8691 46.9346 49.6719 45.626C49.5425 44.7687 49.1061 43.9851 48.4443 43.4199C48.0961 43.1221 48.055 42.5983 48.3525 42.25C48.6502 41.9014 49.1739 41.8604 49.5225 42.1582C50.4881 42.983 51.1246 44.1266 51.3135 45.3789C51.5355 46.8521 51.5354 48.3464 51.3125 49.8193C50.9252 52.3788 48.6725 54.3096 46.0732 54.3096H44.9609L44.9307 54.3516C42.838 57.2383 39.6531 58.5996 36.0596 58.5996H35.209C33.6202 58.5996 32.1792 57.7325 31.4473 56.3369C30.9325 55.3553 29.5039 55.3081 28.9502 56.3574C28.2213 57.7399 26.7844 58.5996 25.1992 58.5996H24.3477C20.7578 58.5995 17.5724 57.2394 15.4785 54.3516L15.4492 54.3096H14.335C11.7357 54.3096 9.48307 52.3788 9.0957 49.8193C8.87284 48.3464 8.87267 46.8521 9.09473 45.3789C9.33494 43.7866 10.2755 42.4088 11.6758 41.5986C12.0724 41.3695 12.58 41.5047 12.8096 41.9014C13.0392 42.2982 12.9036 42.8065 12.5068 43.0361C11.5465 43.5917 10.9009 44.5355 10.7363 45.626C10.5391 46.9345 10.5394 48.262 10.7373 49.5703C11.0021 51.3211 12.54 52.6412 14.3184 52.6494L14.4746 52.6504L14.4092 52.5078C12.8728 49.1401 13.031 45.1599 14.7363 42.0234C16.4397 38.8908 19.6887 36.5957 24.3486 36.5957ZM24.3477 38.2559C21.2396 38.256 18.9034 39.4226 17.3457 41.1777C15.7897 42.9311 15.0154 45.266 15.0176 47.5977C15.0198 49.9294 15.7983 52.2652 17.3555 54.0186C18.9142 55.7736 21.2484 56.9393 24.3477 56.9395H25.1992C26.1648 56.9394 27.0399 56.4212 27.4814 55.584C28.6625 53.3434 31.7867 53.4107 32.917 55.5654C33.3616 56.4134 34.2407 56.9395 35.209 56.9395H36.0596C39.1766 56.9395 41.517 55.7739 43.0752 54.0186C44.6318 52.2651 45.403 49.9294 45.3975 47.5977C45.392 45.2659 44.6089 42.931 43.0498 41.1777C41.489 39.4227 39.155 38.2559 36.0596 38.2559H24.3477Z" fill="#556EAA" stroke="#556EAA" stroke-width="0.2"/>
<path d="M19.6729 51.0762C20.002 50.7573 20.5276 50.7656 20.8467 51.0947C21.4564 51.7239 22.2287 52.1403 23.1387 52.332C23.587 52.4267 23.8735 52.8662 23.7793 53.3145C23.6846 53.7638 23.2435 54.0504 22.7959 53.9561C21.5534 53.6941 20.4972 53.1198 19.6543 52.25C19.3354 51.9209 19.3437 51.3952 19.6729 51.0762Z" fill="#556EAA" stroke="#556EAA" stroke-width="0.2"/>
<path d="M22.791 41.2412C23.239 41.1467 23.6799 41.4335 23.7744 41.8818C23.8688 42.3305 23.5813 42.7708 23.1328 42.8652C22.2221 43.057 21.4497 43.4732 20.8398 44.1025C20.6771 44.2706 20.4601 44.3545 20.2432 44.3545C19.5621 44.3543 19.1851 43.5812 19.5615 43.0498L19.6475 42.9473C20.4906 42.0771 21.5476 41.5031 22.791 41.2412Z" fill="#556EAA" stroke="#556EAA" stroke-width="0.2"/>
<path d="M39.5586 51.0947C39.8776 50.7657 40.4033 50.7573 40.7324 51.0762C41.0616 51.3951 41.07 51.9208 40.751 52.25C39.9079 53.1197 38.8519 53.6941 37.6094 53.9561C37.1616 54.0505 36.7207 53.7637 36.626 53.3145C36.5317 52.8661 36.8183 52.4257 37.2666 52.3311C38.1766 52.1393 38.9488 51.7238 39.5586 51.0947Z" fill="#556EAA" stroke="#556EAA" stroke-width="0.2"/>
<path d="M36.626 41.8818C36.7207 41.4334 37.1615 41.1466 37.6094 41.2412C38.8526 41.5029 39.9089 42.0771 40.752 42.9473C41.263 43.4746 40.8829 44.3545 40.1562 44.3545C39.9394 44.3544 39.7233 44.2704 39.5605 44.1025C38.9506 43.4731 38.1774 43.057 37.2666 42.8652C36.8182 42.7705 36.5315 42.3303 36.626 41.8818Z" fill="#556EAA" stroke="#556EAA" stroke-width="0.2"/>
<path d="M36.6562 8.51562L36.6064 8.4873L30.25 4.81738L30.2002 4.78906L30.1504 4.81738L24.7246 7.9502L24.5742 8.03711L24.7246 8.12305L30.1504 11.2559L30.2002 11.2852L30.25 11.2559L33.4287 9.42188L33.4277 9.4209C33.8247 9.1918 34.3325 9.32869 34.5615 9.72559H34.5625C34.7913 10.1225 34.6546 10.6303 34.2578 10.8594L31.0801 12.6934L31.0303 12.7227V16.4502C31.0302 16.9085 30.6585 17.2803 30.2002 17.2803C29.7419 17.2802 29.3702 16.9085 29.3701 16.4502V12.7227L29.3203 12.6934L22.499 8.75586C21.9463 8.43659 21.9474 7.63727 22.499 7.31836L29.7852 3.11133C30.042 2.9631 30.3584 2.96317 30.6152 3.11133L37.9014 7.31836C38.1581 7.46664 38.3164 7.74066 38.3164 8.03711V16.4502C38.3164 16.7466 38.1581 17.0207 37.9014 17.1689L30.6152 21.375C30.3578 21.5236 30.0417 21.523 29.7852 21.375L22.499 17.1689C22.2424 17.0207 22.084 16.7466 22.084 16.4502V12.6768C22.084 12.2185 22.4558 11.8468 22.9141 11.8467C23.3724 11.8467 23.7441 12.2184 23.7441 12.6768V15.9707L23.7939 16L30.1504 19.6689L30.2002 19.6982L30.25 19.6689L36.6064 16L36.6562 15.9707V8.51562Z" fill="#556EAA" stroke="#556EAA" stroke-width="0.2"/>
<path d="M39.5996 18.373C39.8329 17.9787 40.3418 17.8481 40.7363 18.0811C41.9669 18.808 42.5326 19.5904 42.7725 20.2637C43.0128 20.9383 42.9301 21.5158 42.8418 21.8389C42.5456 22.922 41.5805 23.8542 40.0371 24.5791C38.4954 25.3031 36.3926 25.8129 33.8555 26.0586L33.8125 26.0625L33.7861 26.0967L32.3242 27.9756C32.1606 28.1858 31.9155 28.2959 31.668 28.2959C30.9862 28.2956 30.5875 27.5039 31.0137 26.9561L31.4697 26.3701L31.6006 26.2031L31.3887 26.209C29.2785 26.2683 26.0834 26.156 23.2812 25.5283C21.8802 25.2144 20.5823 24.773 19.5684 24.1631C18.5547 23.5532 17.8336 22.7803 17.5654 21.8066C17.4772 21.4859 17.3934 20.913 17.627 20.2441C17.86 19.5768 18.4128 18.8013 19.6201 18.082C20.0137 17.8475 20.5231 17.9767 20.7578 18.3701C20.9925 18.7639 20.8635 19.2742 20.4697 19.5088C20.1875 19.677 19.8117 19.9334 19.5312 20.2461C19.2525 20.557 19.0501 20.945 19.166 21.3662C19.3712 22.1109 20.07 22.6773 21.0098 23.1094C21.9538 23.5434 23.1652 23.8532 24.4375 24.0723C26.9834 24.5105 29.7967 24.5883 31.2598 24.5518L31.4912 24.5459L31.3281 24.3809L30.8467 23.8945C30.5244 23.5687 30.5268 23.0431 30.8525 22.7207C31.1784 22.3983 31.704 22.4017 32.0264 22.7275L33.6582 24.377L33.6914 24.4102L33.7393 24.4062C36.2037 24.1687 37.9986 23.6892 39.2158 23.1377C39.8244 22.8619 40.2914 22.5665 40.625 22.2725C40.9573 21.9795 41.1632 21.6826 41.2402 21.4014C41.3618 20.9568 41.12 20.5444 40.8193 20.2256C40.5154 19.9033 40.1271 19.6493 39.8926 19.5107C39.4979 19.2775 39.3665 18.7677 39.5996 18.373Z" fill="#556EAA" stroke="#556EAA" stroke-width="0.2"/>
<path d="M51.4668 3.63184C51.5765 3.18683 52.0266 2.91503 52.4717 3.02441C52.9165 3.13429 53.1879 3.5843 53.0781 4.0293L45.166 36.1182C45.0728 36.496 44.734 36.7488 44.3613 36.749C43.8227 36.749 43.4257 36.2442 43.5547 35.7207L51.4668 3.63184Z" fill="#556EAA" stroke="#556EAA" stroke-width="0.2"/>
<path d="M7.93457 3.02441C8.37989 2.91507 8.82971 3.18685 8.93945 3.63184L16.8516 35.7207C16.9804 36.2435 16.584 36.749 16.0449 36.749C15.6721 36.7489 15.3335 36.4961 15.2402 36.1182L7.32715 4.0293C7.22422 3.61192 7.45712 3.19021 7.85352 3.04883L7.93457 3.02441Z" fill="#556EAA" stroke="#556EAA" stroke-width="0.2"/>
<path d="M30.2031 30.7969C30.6615 30.7969 31.033 31.1687 31.0332 31.627V33.4834C31.0331 33.9417 30.6614 34.3135 30.2031 34.3135C29.745 34.3133 29.3732 33.9416 29.373 33.4834V31.627C29.3732 31.1688 29.745 30.797 30.2031 30.7969Z" fill="#556EAA" stroke="#556EAA" stroke-width="0.2"/>
<path d="M22.8184 28.8379C23.2742 28.7844 23.686 29.111 23.7393 29.5664L24.2412 33.8623C24.2942 34.3175 23.9678 34.729 23.5127 34.7822C23.0587 34.8354 22.6451 34.5108 22.5918 34.0547L22.0898 29.7588C22.0368 29.3035 22.3632 28.8911 22.8184 28.8379Z" fill="#556EAA" stroke="#556EAA" stroke-width="0.2"/>
<path d="M37.583 28.8379C38.0383 28.8911 38.3647 29.3035 38.3115 29.7588L37.8096 34.0547C37.7562 34.5106 37.3429 34.8354 36.8887 34.7822C36.4333 34.729 36.1069 34.3167 36.1602 33.8613L36.6621 29.5664C36.7153 29.1112 37.1272 28.7848 37.583 28.8379Z" fill="#556EAA" stroke="#556EAA" stroke-width="0.2"/>
</svg>
