<svg width="42" height="42" viewBox="0 0 42 42" fill="none" xmlns="http://www.w3.org/2000/svg">
<g clip-path="url(#clip0_2581_10526)">
<mask id="path-1-outside-1_2581_10526" maskUnits="userSpaceOnUse" x="-0.671875" y="-0.673828" width="43" height="43" fill="black">
<rect fill="white" x="-0.671875" y="-0.673828" width="43" height="43"/>
<path d="M21.0014 15.8837C18.2357 15.8837 15.9857 18.1337 15.9857 20.8994C15.9857 23.6651 18.2357 25.9151 21.0014 25.9151C23.7671 25.9151 26.0171 23.6651 26.0171 20.8994C26.0171 18.1337 23.7671 15.8837 21.0014 15.8837ZM21.0014 24.9291C18.7794 24.9291 16.9717 23.1214 16.9717 20.8994C16.9717 18.6774 18.7794 16.8697 21.0014 16.8697C23.2234 16.8697 25.0311 18.6774 25.0311 20.8994C25.0311 23.1214 23.2234 24.9291 21.0014 24.9291ZM29.0056 27.1254C29.2279 26.9051 29.3503 26.6107 29.3503 26.2963C29.3503 25.982 29.2279 25.6876 29.0077 25.4694L28.605 25.0653C28.9071 24.5155 29.1477 23.9342 29.3233 23.3294H29.8933C30.5395 23.3294 31.0652 22.8047 31.0652 22.1597V19.6414C31.0652 18.9952 30.5395 18.4695 29.8933 18.4695H29.3233C29.148 17.8667 28.9073 17.2854 28.6046 16.7339L29.0056 16.3315C29.2272 16.1118 29.3496 15.8187 29.3503 15.506C29.351 15.192 29.2291 14.8969 29.0071 14.6749L27.2259 12.8938C26.7716 12.4395 26.0298 12.4387 25.5708 12.8938L25.1667 13.2978C24.6144 12.9937 24.0333 12.7526 23.4312 12.5775V12.0077C23.4312 11.3628 22.9066 10.838 22.2617 10.838H19.7434C19.0971 10.838 18.5714 11.3627 18.5714 12.0077V12.5778C17.9708 12.7529 17.3897 12.9941 16.8363 13.2982L16.4319 12.8938C15.9776 12.4395 15.2357 12.4387 14.7767 12.8938L12.9941 14.6765C12.5406 15.1339 12.5412 15.8758 12.9956 16.33L13.4001 16.7345C13.0959 17.288 12.8547 17.8691 12.6797 18.4696H12.1095C11.4646 18.4696 10.9399 18.9953 10.9399 19.6415V22.1598C10.9399 22.8047 11.4645 23.3294 12.1095 23.3294H12.6796C12.855 23.932 13.0961 24.5132 13.3997 25.0648L12.9956 25.4689C12.5393 25.9252 12.5393 26.6677 12.9956 27.124L14.7768 28.9053C14.9981 29.1267 15.2922 29.2485 15.6052 29.2485H15.6078C15.9206 29.2478 16.2138 29.1254 16.4319 28.9053L16.8363 28.5009C17.3899 28.805 17.971 29.0462 18.5715 29.2213V29.7914C18.5715 30.4376 19.0972 30.9633 19.7435 30.9633H22.2617C22.9066 30.9633 23.4313 30.4376 23.4313 29.7914V29.2213C24.0339 29.0459 24.6151 28.8048 25.1667 28.5012L25.5709 28.9053C25.7922 29.1267 26.0863 29.2485 26.3993 29.2485H26.4019C26.7146 29.2478 27.0079 29.1254 27.226 28.9053L29.0056 27.1254ZM26.3997 28.2624C26.3708 28.2624 26.3153 28.2553 26.2679 28.208L25.5959 27.536C25.4349 27.3751 25.1848 27.3453 24.9904 27.4638C24.3159 27.8757 23.5864 28.1784 22.8222 28.3635C22.6011 28.417 22.4452 28.615 22.4452 28.8426V29.7913C22.4452 29.8921 22.3612 29.9773 22.2617 29.9773H19.7434C19.6408 29.9773 19.5573 29.8939 19.5573 29.7913V28.8426C19.5573 28.615 19.4015 28.417 19.1804 28.3635C18.4199 28.1793 17.6902 27.8764 17.0116 27.4634C16.9322 27.4151 16.8436 27.3915 16.7555 27.3915C16.628 27.3915 16.5017 27.4409 16.4067 27.536L15.7332 28.2096C15.6877 28.2555 15.6337 28.2624 15.6056 28.2625C15.5766 28.2625 15.5211 28.2553 15.4737 28.2081L13.6926 26.4269C13.622 26.3561 13.622 26.2367 13.6926 26.166L14.3646 25.4941C14.5255 25.3331 14.5554 25.0829 14.4368 24.8885C14.0249 24.214 13.7222 23.4845 13.5371 22.7203C13.4836 22.4992 13.2856 22.3433 13.058 22.3433H12.1093C12.0097 22.3433 11.9256 22.2593 11.9256 22.1597V19.6414C11.9256 19.5406 12.0097 19.4554 12.1093 19.4554H13.058C13.2855 19.4554 13.4836 19.2997 13.5371 19.0785C13.7213 18.318 14.0242 17.5883 14.4372 16.9097C14.5553 16.7155 14.5254 16.4656 14.3646 16.3049L13.6926 15.6329C13.6223 15.5625 13.6229 15.4423 13.6926 15.3719L15.4722 13.5923C15.5441 13.5212 15.6643 13.5206 15.7346 13.5909L16.4066 14.2628C16.5674 14.4235 16.8172 14.4536 17.0114 14.3353C17.6899 13.9224 18.4196 13.6195 19.1802 13.4352C19.4014 13.3817 19.5572 13.1837 19.5572 12.9561V12.0074C19.5572 11.9078 19.6423 11.8238 19.7432 11.8238H22.2615C22.3611 11.8238 22.4451 11.9078 22.4451 12.0074V12.9561C22.4451 13.1837 22.6009 13.3818 22.8223 13.4353C23.5851 13.6196 24.3144 13.9223 24.9903 14.3349C25.1845 14.4534 25.4347 14.4236 25.5957 14.2628L26.2662 13.5922C26.3381 13.5211 26.4583 13.5204 26.5287 13.5907L28.3098 15.3718C28.3573 15.4193 28.3643 15.4748 28.3642 15.5036C28.3642 15.5317 28.3572 15.5857 28.3092 15.6333L27.6395 16.3053C27.4792 16.4661 27.4496 16.7156 27.5675 16.9095C27.978 17.5841 28.28 18.3136 28.4652 19.0783C28.5187 19.2994 28.7167 19.4553 28.9443 19.4553H29.893C29.9956 19.4553 30.0791 19.5387 30.0791 19.6412V22.1595C30.0791 22.2591 29.9939 22.3432 29.893 22.3432H28.9443C28.7168 22.3432 28.5187 22.499 28.4652 22.7201C28.279 23.4884 27.9772 24.218 27.5679 24.8884C27.4495 25.0824 27.479 25.3322 27.6395 25.4933L28.3113 26.1673C28.3573 26.213 28.3642 26.2677 28.3642 26.2962C28.3642 26.3246 28.3573 26.3795 28.3098 26.4267L26.5272 28.2094C26.4817 28.2553 26.4279 28.2623 26.3997 28.2624ZM0.50237 7.19356C0.232241 4.82713 0.706955 3.0162 1.91339 1.811C3.11982 0.604732 4.93091 0.129853 7.29652 0.39949C8.94543 0.587587 10.7968 1.12899 12.8203 2.01313L12.162 1.22792C11.9871 1.01924 12.0144 0.708337 12.223 0.533365C12.4318 0.358556 12.7426 0.385872 12.9176 0.594478L15.0331 3.11792C15.0663 3.15574 15.0932 3.19815 15.1133 3.24335C15.1249 3.26943 15.1342 3.2965 15.1411 3.32407C15.1682 3.43268 15.1586 3.55113 15.106 3.65908C15.1004 3.67065 15.0943 3.68197 15.0878 3.69296C15.0329 3.78672 14.9511 3.85596 14.8574 3.89624C14.8251 3.91018 14.7912 3.92068 14.7562 3.92741C14.7246 3.93356 14.693 3.93815 14.6596 3.93635L11.3654 3.98261C11.3631 3.98261 11.3607 3.98261 11.3583 3.98261C11.0893 3.98261 10.8693 3.76638 10.8655 3.49658C10.8617 3.22432 11.0792 3.00054 11.3515 2.99668L12.5644 2.97962C10.5829 2.10484 8.74905 1.55728 7.1848 1.37886C5.13279 1.14474 3.59388 1.52471 2.61041 2.5081C1.62726 3.49026 1.24771 5.02892 1.48199 7.08151C1.71569 9.12794 2.58047 11.6355 3.98279 14.3329C4.10838 14.5745 4.01437 14.8721 3.77279 14.9977C3.70011 15.0354 3.62235 15.0534 3.54573 15.0534C3.36764 15.0534 3.1957 14.9566 3.10793 14.7878C1.62981 11.9446 0.753139 9.38954 0.50237 7.19356ZM41.6023 7.29446C41.4138 8.94321 40.8723 10.7942 39.9877 12.818L40.7728 12.1598C40.9814 11.985 41.2922 12.0123 41.4673 12.2208C41.6422 12.4295 41.6149 12.7404 41.4063 12.9154L38.8826 15.0311C38.8455 15.0636 38.8039 15.0902 38.7596 15.1102C38.7326 15.1222 38.7047 15.1319 38.6763 15.139C38.6373 15.1487 38.5973 15.1537 38.5568 15.1537C38.4837 15.1537 38.4096 15.1374 38.3398 15.1031C38.3295 15.098 38.3195 15.0926 38.3097 15.0869C38.2125 15.0307 38.1415 14.9457 38.1015 14.8485C38.0897 14.8198 38.0805 14.7898 38.0742 14.7591C38.0674 14.7258 38.0641 14.6918 38.0642 14.6575L38.018 11.3635C38.0141 11.0912 38.2317 10.8674 38.5039 10.8636H38.5111C38.78 10.8636 39 11.0798 39.0038 11.3496L39.0209 12.5628C39.8961 10.5807 40.444 8.74683 40.6228 7.18274C40.8574 5.13064 40.4778 3.59174 39.4947 2.60851C38.5116 1.62536 36.9725 1.24589 34.9201 1.48009C32.8742 1.71371 30.3662 2.57849 27.6674 3.98089C27.4258 4.10665 27.1282 4.01247 27.0026 3.77081C26.8771 3.52923 26.9711 3.23162 27.2127 3.10603C30.0574 1.62774 32.6129 0.751075 34.8082 0.500388C37.1743 0.230423 38.9856 0.704892 40.1918 1.91124C41.3982 3.1176 41.8728 4.92876 41.6023 7.29446ZM41.5023 34.8061C41.7728 37.172 41.2982 38.9834 40.0918 40.1897C39.1048 41.1768 37.7126 41.674 35.9432 41.674C35.5501 41.674 35.1383 41.6495 34.7082 41.6003C33.0591 41.4118 31.2071 40.87 29.1822 39.9852L29.8408 40.7709C30.0157 40.9795 29.9884 41.2904 29.7797 41.4654C29.5713 41.6403 29.2604 41.6129 29.0853 41.4044L26.9697 38.8808C26.9358 38.8422 26.9085 38.7989 26.8883 38.7526C26.8779 38.7287 26.8694 38.7041 26.8629 38.679C26.8339 38.5677 26.8438 38.446 26.8989 38.3354C26.9031 38.327 26.9075 38.3187 26.9122 38.3106C26.968 38.2131 27.0532 38.1408 27.1502 38.1005C27.1797 38.0882 27.2106 38.0786 27.2424 38.0722C27.2754 38.0655 27.3118 38.0618 27.3432 38.0623L30.6373 38.0161C30.9072 38.0156 31.1334 38.2298 31.1372 38.502C31.141 38.7743 30.9235 38.9981 30.6512 39.0019L29.4388 39.019C31.4216 39.8942 33.2558 40.4421 34.8201 40.6209C36.8726 40.8555 38.4115 40.4759 39.3947 39.4928C40.3778 38.5097 40.7573 36.9705 40.5228 34.9182C40.2888 32.8721 39.4235 30.3641 38.02 27.6656C37.8943 27.4241 37.9883 27.1265 38.2299 27.0008C38.4716 26.8752 38.7691 26.9692 38.8947 27.2107C40.3741 30.0551 41.2513 32.6105 41.5023 34.8061ZM14.9999 38.2278C15.1256 38.4693 15.0317 38.7669 14.7901 38.8926C11.947 40.3719 9.39201 41.2492 7.19653 41.5003C6.7666 41.5494 6.35456 41.5739 5.96155 41.5739C4.19213 41.5739 2.80031 41.0768 1.81323 40.0897C0.606713 38.8831 0.131752 37.0719 0.401471 34.7062C0.589569 33.0568 1.13114 31.2046 2.01568 29.1799L1.2299 29.8387C1.0213 30.0136 0.710401 29.9864 0.535346 29.7776C0.360455 29.569 0.387772 29.2581 0.596459 29.0831L3.11999 26.9674C3.15846 26.9337 3.20153 26.9065 3.24763 26.8864C3.27158 26.8759 3.29627 26.8674 3.32129 26.8608C3.4322 26.832 3.55328 26.8414 3.66344 26.8958C3.67329 26.9008 3.68288 26.9058 3.69232 26.9113C3.78953 26.9674 3.86073 27.0522 3.90084 27.1492C3.91298 27.1786 3.92242 27.2093 3.92881 27.2409C3.93529 27.2735 3.93858 27.3074 3.93841 27.341L3.98468 30.6351C3.98853 30.9074 3.77099 31.1312 3.49872 31.135C3.49635 31.135 3.49397 31.135 3.49159 31.135C3.22261 31.135 3.0026 30.9188 2.99883 30.649L2.98176 29.4368C2.10698 31.4192 1.55942 33.2533 1.38101 34.8178C1.14689 36.8699 1.52686 38.4091 2.51025 39.3925C3.49347 40.3756 5.03287 40.755 7.08447 40.5206C9.1305 40.2866 11.6378 39.4213 14.3351 38.0178C14.5765 37.8923 14.8742 37.9862 14.9999 38.2278ZM21.0013 33.0582C18.9178 33.0582 17.2227 34.7533 17.2227 36.8368C17.2227 38.9203 18.9178 40.6154 21.0013 40.6154C23.0848 40.6154 24.7799 38.9203 24.7799 36.8368C24.7799 34.7533 23.0848 33.0582 21.0013 33.0582ZM21.0013 39.6295C19.4614 39.6295 18.2086 38.3768 18.2086 36.8368C18.2086 35.2968 19.4613 34.0441 21.0013 34.0441C22.5413 34.0441 23.794 35.2968 23.794 36.8368C23.794 38.3768 22.5413 39.6295 21.0013 39.6295ZM2.58736 17.1207C1.86934 17.1207 1.28519 17.7038 1.28519 18.4206V23.3782C1.28519 24.0949 1.86934 24.6781 2.58736 24.6781H7.54254C8.25924 24.6781 8.8424 24.095 8.8424 23.3782V18.4206C8.8424 17.7039 8.25933 17.1207 7.54254 17.1207H2.58736ZM7.85639 18.4206V23.3782C7.85639 23.5513 7.71562 23.6921 7.54254 23.6921H2.58736C2.41296 23.6921 2.27121 23.5513 2.27121 23.3782V18.4206C2.27121 18.2475 2.41304 18.1068 2.58736 18.1068H7.54254C7.71562 18.1068 7.85639 18.2475 7.85639 18.4206ZM21.0013 8.94042C23.0848 8.94042 24.7799 7.24533 24.7799 5.1619C24.7799 3.07847 23.0848 1.38329 21.0013 1.38329C18.9178 1.38329 17.2227 3.07838 17.2227 5.1619C17.2227 7.24541 18.9178 8.94042 21.0013 8.94042ZM21.0013 2.36922C22.5412 2.36922 23.794 3.62192 23.794 5.1619C23.794 6.70187 22.5413 7.95449 21.0013 7.95449C19.4613 7.95449 18.2086 6.70179 18.2086 5.1619C18.2086 3.62201 19.4613 2.36922 21.0013 2.36922ZM39.4177 24.6781C40.1344 24.6781 40.7175 24.095 40.7175 23.3782V18.4206C40.7175 17.7039 40.1344 17.1207 39.4177 17.1207H34.4625C33.7445 17.1207 33.1603 17.7038 33.1603 18.4206V23.3782C33.1603 24.0949 33.7445 24.6781 34.4625 24.6781H39.4177ZM34.1463 23.3782V18.4206C34.1463 18.2475 34.2881 18.1068 34.4624 18.1068H39.4176C39.5907 18.1068 39.7314 18.2475 39.7314 18.4206V23.3782C39.7314 23.5513 39.5907 23.6921 39.4176 23.6921H34.4624C34.288 23.6921 34.1463 23.5513 34.1463 23.3782Z"/>
</mask>
<path d="M21.0014 15.8837C18.2357 15.8837 15.9857 18.1337 15.9857 20.8994C15.9857 23.6651 18.2357 25.9151 21.0014 25.9151C23.7671 25.9151 26.0171 23.6651 26.0171 20.8994C26.0171 18.1337 23.7671 15.8837 21.0014 15.8837ZM21.0014 24.9291C18.7794 24.9291 16.9717 23.1214 16.9717 20.8994C16.9717 18.6774 18.7794 16.8697 21.0014 16.8697C23.2234 16.8697 25.0311 18.6774 25.0311 20.8994C25.0311 23.1214 23.2234 24.9291 21.0014 24.9291ZM29.0056 27.1254C29.2279 26.9051 29.3503 26.6107 29.3503 26.2963C29.3503 25.982 29.2279 25.6876 29.0077 25.4694L28.605 25.0653C28.9071 24.5155 29.1477 23.9342 29.3233 23.3294H29.8933C30.5395 23.3294 31.0652 22.8047 31.0652 22.1597V19.6414C31.0652 18.9952 30.5395 18.4695 29.8933 18.4695H29.3233C29.148 17.8667 28.9073 17.2854 28.6046 16.7339L29.0056 16.3315C29.2272 16.1118 29.3496 15.8187 29.3503 15.506C29.351 15.192 29.2291 14.8969 29.0071 14.6749L27.2259 12.8938C26.7716 12.4395 26.0298 12.4387 25.5708 12.8938L25.1667 13.2978C24.6144 12.9937 24.0333 12.7526 23.4312 12.5775V12.0077C23.4312 11.3628 22.9066 10.838 22.2617 10.838H19.7434C19.0971 10.838 18.5714 11.3627 18.5714 12.0077V12.5778C17.9708 12.7529 17.3897 12.9941 16.8363 13.2982L16.4319 12.8938C15.9776 12.4395 15.2357 12.4387 14.7767 12.8938L12.9941 14.6765C12.5406 15.1339 12.5412 15.8758 12.9956 16.33L13.4001 16.7345C13.0959 17.288 12.8547 17.8691 12.6797 18.4696H12.1095C11.4646 18.4696 10.9399 18.9953 10.9399 19.6415V22.1598C10.9399 22.8047 11.4645 23.3294 12.1095 23.3294H12.6796C12.855 23.932 13.0961 24.5132 13.3997 25.0648L12.9956 25.4689C12.5393 25.9252 12.5393 26.6677 12.9956 27.124L14.7768 28.9053C14.9981 29.1267 15.2922 29.2485 15.6052 29.2485H15.6078C15.9206 29.2478 16.2138 29.1254 16.4319 28.9053L16.8363 28.5009C17.3899 28.805 17.971 29.0462 18.5715 29.2213V29.7914C18.5715 30.4376 19.0972 30.9633 19.7435 30.9633H22.2617C22.9066 30.9633 23.4313 30.4376 23.4313 29.7914V29.2213C24.0339 29.0459 24.6151 28.8048 25.1667 28.5012L25.5709 28.9053C25.7922 29.1267 26.0863 29.2485 26.3993 29.2485H26.4019C26.7146 29.2478 27.0079 29.1254 27.226 28.9053L29.0056 27.1254ZM26.3997 28.2624C26.3708 28.2624 26.3153 28.2553 26.2679 28.208L25.5959 27.536C25.4349 27.3751 25.1848 27.3453 24.9904 27.4638C24.3159 27.8757 23.5864 28.1784 22.8222 28.3635C22.6011 28.417 22.4452 28.615 22.4452 28.8426V29.7913C22.4452 29.8921 22.3612 29.9773 22.2617 29.9773H19.7434C19.6408 29.9773 19.5573 29.8939 19.5573 29.7913V28.8426C19.5573 28.615 19.4015 28.417 19.1804 28.3635C18.4199 28.1793 17.6902 27.8764 17.0116 27.4634C16.9322 27.4151 16.8436 27.3915 16.7555 27.3915C16.628 27.3915 16.5017 27.4409 16.4067 27.536L15.7332 28.2096C15.6877 28.2555 15.6337 28.2624 15.6056 28.2625C15.5766 28.2625 15.5211 28.2553 15.4737 28.2081L13.6926 26.4269C13.622 26.3561 13.622 26.2367 13.6926 26.166L14.3646 25.4941C14.5255 25.3331 14.5554 25.0829 14.4368 24.8885C14.0249 24.214 13.7222 23.4845 13.5371 22.7203C13.4836 22.4992 13.2856 22.3433 13.058 22.3433H12.1093C12.0097 22.3433 11.9256 22.2593 11.9256 22.1597V19.6414C11.9256 19.5406 12.0097 19.4554 12.1093 19.4554H13.058C13.2855 19.4554 13.4836 19.2997 13.5371 19.0785C13.7213 18.318 14.0242 17.5883 14.4372 16.9097C14.5553 16.7155 14.5254 16.4656 14.3646 16.3049L13.6926 15.6329C13.6223 15.5625 13.6229 15.4423 13.6926 15.3719L15.4722 13.5923C15.5441 13.5212 15.6643 13.5206 15.7346 13.5909L16.4066 14.2628C16.5674 14.4235 16.8172 14.4536 17.0114 14.3353C17.6899 13.9224 18.4196 13.6195 19.1802 13.4352C19.4014 13.3817 19.5572 13.1837 19.5572 12.9561V12.0074C19.5572 11.9078 19.6423 11.8238 19.7432 11.8238H22.2615C22.3611 11.8238 22.4451 11.9078 22.4451 12.0074V12.9561C22.4451 13.1837 22.6009 13.3818 22.8223 13.4353C23.5851 13.6196 24.3144 13.9223 24.9903 14.3349C25.1845 14.4534 25.4347 14.4236 25.5957 14.2628L26.2662 13.5922C26.3381 13.5211 26.4583 13.5204 26.5287 13.5907L28.3098 15.3718C28.3573 15.4193 28.3643 15.4748 28.3642 15.5036C28.3642 15.5317 28.3572 15.5857 28.3092 15.6333L27.6395 16.3053C27.4792 16.4661 27.4496 16.7156 27.5675 16.9095C27.978 17.5841 28.28 18.3136 28.4652 19.0783C28.5187 19.2994 28.7167 19.4553 28.9443 19.4553H29.893C29.9956 19.4553 30.0791 19.5387 30.0791 19.6412V22.1595C30.0791 22.2591 29.9939 22.3432 29.893 22.3432H28.9443C28.7168 22.3432 28.5187 22.499 28.4652 22.7201C28.279 23.4884 27.9772 24.218 27.5679 24.8884C27.4495 25.0824 27.479 25.3322 27.6395 25.4933L28.3113 26.1673C28.3573 26.213 28.3642 26.2677 28.3642 26.2962C28.3642 26.3246 28.3573 26.3795 28.3098 26.4267L26.5272 28.2094C26.4817 28.2553 26.4279 28.2623 26.3997 28.2624ZM0.50237 7.19356C0.232241 4.82713 0.706955 3.0162 1.91339 1.811C3.11982 0.604732 4.93091 0.129853 7.29652 0.39949C8.94543 0.587587 10.7968 1.12899 12.8203 2.01313L12.162 1.22792C11.9871 1.01924 12.0144 0.708337 12.223 0.533365C12.4318 0.358556 12.7426 0.385872 12.9176 0.594478L15.0331 3.11792C15.0663 3.15574 15.0932 3.19815 15.1133 3.24335C15.1249 3.26943 15.1342 3.2965 15.1411 3.32407C15.1682 3.43268 15.1586 3.55113 15.106 3.65908C15.1004 3.67065 15.0943 3.68197 15.0878 3.69296C15.0329 3.78672 14.9511 3.85596 14.8574 3.89624C14.8251 3.91018 14.7912 3.92068 14.7562 3.92741C14.7246 3.93356 14.693 3.93815 14.6596 3.93635L11.3654 3.98261C11.3631 3.98261 11.3607 3.98261 11.3583 3.98261C11.0893 3.98261 10.8693 3.76638 10.8655 3.49658C10.8617 3.22432 11.0792 3.00054 11.3515 2.99668L12.5644 2.97962C10.5829 2.10484 8.74905 1.55728 7.1848 1.37886C5.13279 1.14474 3.59388 1.52471 2.61041 2.5081C1.62726 3.49026 1.24771 5.02892 1.48199 7.08151C1.71569 9.12794 2.58047 11.6355 3.98279 14.3329C4.10838 14.5745 4.01437 14.8721 3.77279 14.9977C3.70011 15.0354 3.62235 15.0534 3.54573 15.0534C3.36764 15.0534 3.1957 14.9566 3.10793 14.7878C1.62981 11.9446 0.753139 9.38954 0.50237 7.19356ZM41.6023 7.29446C41.4138 8.94321 40.8723 10.7942 39.9877 12.818L40.7728 12.1598C40.9814 11.985 41.2922 12.0123 41.4673 12.2208C41.6422 12.4295 41.6149 12.7404 41.4063 12.9154L38.8826 15.0311C38.8455 15.0636 38.8039 15.0902 38.7596 15.1102C38.7326 15.1222 38.7047 15.1319 38.6763 15.139C38.6373 15.1487 38.5973 15.1537 38.5568 15.1537C38.4837 15.1537 38.4096 15.1374 38.3398 15.1031C38.3295 15.098 38.3195 15.0926 38.3097 15.0869C38.2125 15.0307 38.1415 14.9457 38.1015 14.8485C38.0897 14.8198 38.0805 14.7898 38.0742 14.7591C38.0674 14.7258 38.0641 14.6918 38.0642 14.6575L38.018 11.3635C38.0141 11.0912 38.2317 10.8674 38.5039 10.8636H38.5111C38.78 10.8636 39 11.0798 39.0038 11.3496L39.0209 12.5628C39.8961 10.5807 40.444 8.74683 40.6228 7.18274C40.8574 5.13064 40.4778 3.59174 39.4947 2.60851C38.5116 1.62536 36.9725 1.24589 34.9201 1.48009C32.8742 1.71371 30.3662 2.57849 27.6674 3.98089C27.4258 4.10665 27.1282 4.01247 27.0026 3.77081C26.8771 3.52923 26.9711 3.23162 27.2127 3.10603C30.0574 1.62774 32.6129 0.751075 34.8082 0.500388C37.1743 0.230423 38.9856 0.704892 40.1918 1.91124C41.3982 3.1176 41.8728 4.92876 41.6023 7.29446ZM41.5023 34.8061C41.7728 37.172 41.2982 38.9834 40.0918 40.1897C39.1048 41.1768 37.7126 41.674 35.9432 41.674C35.5501 41.674 35.1383 41.6495 34.7082 41.6003C33.0591 41.4118 31.2071 40.87 29.1822 39.9852L29.8408 40.7709C30.0157 40.9795 29.9884 41.2904 29.7797 41.4654C29.5713 41.6403 29.2604 41.6129 29.0853 41.4044L26.9697 38.8808C26.9358 38.8422 26.9085 38.7989 26.8883 38.7526C26.8779 38.7287 26.8694 38.7041 26.8629 38.679C26.8339 38.5677 26.8438 38.446 26.8989 38.3354C26.9031 38.327 26.9075 38.3187 26.9122 38.3106C26.968 38.2131 27.0532 38.1408 27.1502 38.1005C27.1797 38.0882 27.2106 38.0786 27.2424 38.0722C27.2754 38.0655 27.3118 38.0618 27.3432 38.0623L30.6373 38.0161C30.9072 38.0156 31.1334 38.2298 31.1372 38.502C31.141 38.7743 30.9235 38.9981 30.6512 39.0019L29.4388 39.019C31.4216 39.8942 33.2558 40.4421 34.8201 40.6209C36.8726 40.8555 38.4115 40.4759 39.3947 39.4928C40.3778 38.5097 40.7573 36.9705 40.5228 34.9182C40.2888 32.8721 39.4235 30.3641 38.02 27.6656C37.8943 27.4241 37.9883 27.1265 38.2299 27.0008C38.4716 26.8752 38.7691 26.9692 38.8947 27.2107C40.3741 30.0551 41.2513 32.6105 41.5023 34.8061ZM14.9999 38.2278C15.1256 38.4693 15.0317 38.7669 14.7901 38.8926C11.947 40.3719 9.39201 41.2492 7.19653 41.5003C6.7666 41.5494 6.35456 41.5739 5.96155 41.5739C4.19213 41.5739 2.80031 41.0768 1.81323 40.0897C0.606713 38.8831 0.131752 37.0719 0.401471 34.7062C0.589569 33.0568 1.13114 31.2046 2.01568 29.1799L1.2299 29.8387C1.0213 30.0136 0.710401 29.9864 0.535346 29.7776C0.360455 29.569 0.387772 29.2581 0.596459 29.0831L3.11999 26.9674C3.15846 26.9337 3.20153 26.9065 3.24763 26.8864C3.27158 26.8759 3.29627 26.8674 3.32129 26.8608C3.4322 26.832 3.55328 26.8414 3.66344 26.8958C3.67329 26.9008 3.68288 26.9058 3.69232 26.9113C3.78953 26.9674 3.86073 27.0522 3.90084 27.1492C3.91298 27.1786 3.92242 27.2093 3.92881 27.2409C3.93529 27.2735 3.93858 27.3074 3.93841 27.341L3.98468 30.6351C3.98853 30.9074 3.77099 31.1312 3.49872 31.135C3.49635 31.135 3.49397 31.135 3.49159 31.135C3.22261 31.135 3.0026 30.9188 2.99883 30.649L2.98176 29.4368C2.10698 31.4192 1.55942 33.2533 1.38101 34.8178C1.14689 36.8699 1.52686 38.4091 2.51025 39.3925C3.49347 40.3756 5.03287 40.755 7.08447 40.5206C9.1305 40.2866 11.6378 39.4213 14.3351 38.0178C14.5765 37.8923 14.8742 37.9862 14.9999 38.2278ZM21.0013 33.0582C18.9178 33.0582 17.2227 34.7533 17.2227 36.8368C17.2227 38.9203 18.9178 40.6154 21.0013 40.6154C23.0848 40.6154 24.7799 38.9203 24.7799 36.8368C24.7799 34.7533 23.0848 33.0582 21.0013 33.0582ZM21.0013 39.6295C19.4614 39.6295 18.2086 38.3768 18.2086 36.8368C18.2086 35.2968 19.4613 34.0441 21.0013 34.0441C22.5413 34.0441 23.794 35.2968 23.794 36.8368C23.794 38.3768 22.5413 39.6295 21.0013 39.6295ZM2.58736 17.1207C1.86934 17.1207 1.28519 17.7038 1.28519 18.4206V23.3782C1.28519 24.0949 1.86934 24.6781 2.58736 24.6781H7.54254C8.25924 24.6781 8.8424 24.095 8.8424 23.3782V18.4206C8.8424 17.7039 8.25933 17.1207 7.54254 17.1207H2.58736ZM7.85639 18.4206V23.3782C7.85639 23.5513 7.71562 23.6921 7.54254 23.6921H2.58736C2.41296 23.6921 2.27121 23.5513 2.27121 23.3782V18.4206C2.27121 18.2475 2.41304 18.1068 2.58736 18.1068H7.54254C7.71562 18.1068 7.85639 18.2475 7.85639 18.4206ZM21.0013 8.94042C23.0848 8.94042 24.7799 7.24533 24.7799 5.1619C24.7799 3.07847 23.0848 1.38329 21.0013 1.38329C18.9178 1.38329 17.2227 3.07838 17.2227 5.1619C17.2227 7.24541 18.9178 8.94042 21.0013 8.94042ZM21.0013 2.36922C22.5412 2.36922 23.794 3.62192 23.794 5.1619C23.794 6.70187 22.5413 7.95449 21.0013 7.95449C19.4613 7.95449 18.2086 6.70179 18.2086 5.1619C18.2086 3.62201 19.4613 2.36922 21.0013 2.36922ZM39.4177 24.6781C40.1344 24.6781 40.7175 24.095 40.7175 23.3782V18.4206C40.7175 17.7039 40.1344 17.1207 39.4177 17.1207H34.4625C33.7445 17.1207 33.1603 17.7038 33.1603 18.4206V23.3782C33.1603 24.0949 33.7445 24.6781 34.4625 24.6781H39.4177ZM34.1463 23.3782V18.4206C34.1463 18.2475 34.2881 18.1068 34.4624 18.1068H39.4176C39.5907 18.1068 39.7314 18.2475 39.7314 18.4206V23.3782C39.7314 23.5513 39.5907 23.6921 39.4176 23.6921H34.4624C34.288 23.6921 34.1463 23.5513 34.1463 23.3782Z" fill="#556EAA"/>
<path d="M21.0014 15.8837C18.2357 15.8837 15.9857 18.1337 15.9857 20.8994C15.9857 23.6651 18.2357 25.9151 21.0014 25.9151C23.7671 25.9151 26.0171 23.6651 26.0171 20.8994C26.0171 18.1337 23.7671 15.8837 21.0014 15.8837ZM21.0014 24.9291C18.7794 24.9291 16.9717 23.1214 16.9717 20.8994C16.9717 18.6774 18.7794 16.8697 21.0014 16.8697C23.2234 16.8697 25.0311 18.6774 25.0311 20.8994C25.0311 23.1214 23.2234 24.9291 21.0014 24.9291ZM29.0056 27.1254C29.2279 26.9051 29.3503 26.6107 29.3503 26.2963C29.3503 25.982 29.2279 25.6876 29.0077 25.4694L28.605 25.0653C28.9071 24.5155 29.1477 23.9342 29.3233 23.3294H29.8933C30.5395 23.3294 31.0652 22.8047 31.0652 22.1597V19.6414C31.0652 18.9952 30.5395 18.4695 29.8933 18.4695H29.3233C29.148 17.8667 28.9073 17.2854 28.6046 16.7339L29.0056 16.3315C29.2272 16.1118 29.3496 15.8187 29.3503 15.506C29.351 15.192 29.2291 14.8969 29.0071 14.6749L27.2259 12.8938C26.7716 12.4395 26.0298 12.4387 25.5708 12.8938L25.1667 13.2978C24.6144 12.9937 24.0333 12.7526 23.4312 12.5775V12.0077C23.4312 11.3628 22.9066 10.838 22.2617 10.838H19.7434C19.0971 10.838 18.5714 11.3627 18.5714 12.0077V12.5778C17.9708 12.7529 17.3897 12.9941 16.8363 13.2982L16.4319 12.8938C15.9776 12.4395 15.2357 12.4387 14.7767 12.8938L12.9941 14.6765C12.5406 15.1339 12.5412 15.8758 12.9956 16.33L13.4001 16.7345C13.0959 17.288 12.8547 17.8691 12.6797 18.4696H12.1095C11.4646 18.4696 10.9399 18.9953 10.9399 19.6415V22.1598C10.9399 22.8047 11.4645 23.3294 12.1095 23.3294H12.6796C12.855 23.932 13.0961 24.5132 13.3997 25.0648L12.9956 25.4689C12.5393 25.9252 12.5393 26.6677 12.9956 27.124L14.7768 28.9053C14.9981 29.1267 15.2922 29.2485 15.6052 29.2485H15.6078C15.9206 29.2478 16.2138 29.1254 16.4319 28.9053L16.8363 28.5009C17.3899 28.805 17.971 29.0462 18.5715 29.2213V29.7914C18.5715 30.4376 19.0972 30.9633 19.7435 30.9633H22.2617C22.9066 30.9633 23.4313 30.4376 23.4313 29.7914V29.2213C24.0339 29.0459 24.6151 28.8048 25.1667 28.5012L25.5709 28.9053C25.7922 29.1267 26.0863 29.2485 26.3993 29.2485H26.4019C26.7146 29.2478 27.0079 29.1254 27.226 28.9053L29.0056 27.1254ZM26.3997 28.2624C26.3708 28.2624 26.3153 28.2553 26.2679 28.208L25.5959 27.536C25.4349 27.3751 25.1848 27.3453 24.9904 27.4638C24.3159 27.8757 23.5864 28.1784 22.8222 28.3635C22.6011 28.417 22.4452 28.615 22.4452 28.8426V29.7913C22.4452 29.8921 22.3612 29.9773 22.2617 29.9773H19.7434C19.6408 29.9773 19.5573 29.8939 19.5573 29.7913V28.8426C19.5573 28.615 19.4015 28.417 19.1804 28.3635C18.4199 28.1793 17.6902 27.8764 17.0116 27.4634C16.9322 27.4151 16.8436 27.3915 16.7555 27.3915C16.628 27.3915 16.5017 27.4409 16.4067 27.536L15.7332 28.2096C15.6877 28.2555 15.6337 28.2624 15.6056 28.2625C15.5766 28.2625 15.5211 28.2553 15.4737 28.2081L13.6926 26.4269C13.622 26.3561 13.622 26.2367 13.6926 26.166L14.3646 25.4941C14.5255 25.3331 14.5554 25.0829 14.4368 24.8885C14.0249 24.214 13.7222 23.4845 13.5371 22.7203C13.4836 22.4992 13.2856 22.3433 13.058 22.3433H12.1093C12.0097 22.3433 11.9256 22.2593 11.9256 22.1597V19.6414C11.9256 19.5406 12.0097 19.4554 12.1093 19.4554H13.058C13.2855 19.4554 13.4836 19.2997 13.5371 19.0785C13.7213 18.318 14.0242 17.5883 14.4372 16.9097C14.5553 16.7155 14.5254 16.4656 14.3646 16.3049L13.6926 15.6329C13.6223 15.5625 13.6229 15.4423 13.6926 15.3719L15.4722 13.5923C15.5441 13.5212 15.6643 13.5206 15.7346 13.5909L16.4066 14.2628C16.5674 14.4235 16.8172 14.4536 17.0114 14.3353C17.6899 13.9224 18.4196 13.6195 19.1802 13.4352C19.4014 13.3817 19.5572 13.1837 19.5572 12.9561V12.0074C19.5572 11.9078 19.6423 11.8238 19.7432 11.8238H22.2615C22.3611 11.8238 22.4451 11.9078 22.4451 12.0074V12.9561C22.4451 13.1837 22.6009 13.3818 22.8223 13.4353C23.5851 13.6196 24.3144 13.9223 24.9903 14.3349C25.1845 14.4534 25.4347 14.4236 25.5957 14.2628L26.2662 13.5922C26.3381 13.5211 26.4583 13.5204 26.5287 13.5907L28.3098 15.3718C28.3573 15.4193 28.3643 15.4748 28.3642 15.5036C28.3642 15.5317 28.3572 15.5857 28.3092 15.6333L27.6395 16.3053C27.4792 16.4661 27.4496 16.7156 27.5675 16.9095C27.978 17.5841 28.28 18.3136 28.4652 19.0783C28.5187 19.2994 28.7167 19.4553 28.9443 19.4553H29.893C29.9956 19.4553 30.0791 19.5387 30.0791 19.6412V22.1595C30.0791 22.2591 29.9939 22.3432 29.893 22.3432H28.9443C28.7168 22.3432 28.5187 22.499 28.4652 22.7201C28.279 23.4884 27.9772 24.218 27.5679 24.8884C27.4495 25.0824 27.479 25.3322 27.6395 25.4933L28.3113 26.1673C28.3573 26.213 28.3642 26.2677 28.3642 26.2962C28.3642 26.3246 28.3573 26.3795 28.3098 26.4267L26.5272 28.2094C26.4817 28.2553 26.4279 28.2623 26.3997 28.2624ZM0.50237 7.19356C0.232241 4.82713 0.706955 3.0162 1.91339 1.811C3.11982 0.604732 4.93091 0.129853 7.29652 0.39949C8.94543 0.587587 10.7968 1.12899 12.8203 2.01313L12.162 1.22792C11.9871 1.01924 12.0144 0.708337 12.223 0.533365C12.4318 0.358556 12.7426 0.385872 12.9176 0.594478L15.0331 3.11792C15.0663 3.15574 15.0932 3.19815 15.1133 3.24335C15.1249 3.26943 15.1342 3.2965 15.1411 3.32407C15.1682 3.43268 15.1586 3.55113 15.106 3.65908C15.1004 3.67065 15.0943 3.68197 15.0878 3.69296C15.0329 3.78672 14.9511 3.85596 14.8574 3.89624C14.8251 3.91018 14.7912 3.92068 14.7562 3.92741C14.7246 3.93356 14.693 3.93815 14.6596 3.93635L11.3654 3.98261C11.3631 3.98261 11.3607 3.98261 11.3583 3.98261C11.0893 3.98261 10.8693 3.76638 10.8655 3.49658C10.8617 3.22432 11.0792 3.00054 11.3515 2.99668L12.5644 2.97962C10.5829 2.10484 8.74905 1.55728 7.1848 1.37886C5.13279 1.14474 3.59388 1.52471 2.61041 2.5081C1.62726 3.49026 1.24771 5.02892 1.48199 7.08151C1.71569 9.12794 2.58047 11.6355 3.98279 14.3329C4.10838 14.5745 4.01437 14.8721 3.77279 14.9977C3.70011 15.0354 3.62235 15.0534 3.54573 15.0534C3.36764 15.0534 3.1957 14.9566 3.10793 14.7878C1.62981 11.9446 0.753139 9.38954 0.50237 7.19356ZM41.6023 7.29446C41.4138 8.94321 40.8723 10.7942 39.9877 12.818L40.7728 12.1598C40.9814 11.985 41.2922 12.0123 41.4673 12.2208C41.6422 12.4295 41.6149 12.7404 41.4063 12.9154L38.8826 15.0311C38.8455 15.0636 38.8039 15.0902 38.7596 15.1102C38.7326 15.1222 38.7047 15.1319 38.6763 15.139C38.6373 15.1487 38.5973 15.1537 38.5568 15.1537C38.4837 15.1537 38.4096 15.1374 38.3398 15.1031C38.3295 15.098 38.3195 15.0926 38.3097 15.0869C38.2125 15.0307 38.1415 14.9457 38.1015 14.8485C38.0897 14.8198 38.0805 14.7898 38.0742 14.7591C38.0674 14.7258 38.0641 14.6918 38.0642 14.6575L38.018 11.3635C38.0141 11.0912 38.2317 10.8674 38.5039 10.8636H38.5111C38.78 10.8636 39 11.0798 39.0038 11.3496L39.0209 12.5628C39.8961 10.5807 40.444 8.74683 40.6228 7.18274C40.8574 5.13064 40.4778 3.59174 39.4947 2.60851C38.5116 1.62536 36.9725 1.24589 34.9201 1.48009C32.8742 1.71371 30.3662 2.57849 27.6674 3.98089C27.4258 4.10665 27.1282 4.01247 27.0026 3.77081C26.8771 3.52923 26.9711 3.23162 27.2127 3.10603C30.0574 1.62774 32.6129 0.751075 34.8082 0.500388C37.1743 0.230423 38.9856 0.704892 40.1918 1.91124C41.3982 3.1176 41.8728 4.92876 41.6023 7.29446ZM41.5023 34.8061C41.7728 37.172 41.2982 38.9834 40.0918 40.1897C39.1048 41.1768 37.7126 41.674 35.9432 41.674C35.5501 41.674 35.1383 41.6495 34.7082 41.6003C33.0591 41.4118 31.2071 40.87 29.1822 39.9852L29.8408 40.7709C30.0157 40.9795 29.9884 41.2904 29.7797 41.4654C29.5713 41.6403 29.2604 41.6129 29.0853 41.4044L26.9697 38.8808C26.9358 38.8422 26.9085 38.7989 26.8883 38.7526C26.8779 38.7287 26.8694 38.7041 26.8629 38.679C26.8339 38.5677 26.8438 38.446 26.8989 38.3354C26.9031 38.327 26.9075 38.3187 26.9122 38.3106C26.968 38.2131 27.0532 38.1408 27.1502 38.1005C27.1797 38.0882 27.2106 38.0786 27.2424 38.0722C27.2754 38.0655 27.3118 38.0618 27.3432 38.0623L30.6373 38.0161C30.9072 38.0156 31.1334 38.2298 31.1372 38.502C31.141 38.7743 30.9235 38.9981 30.6512 39.0019L29.4388 39.019C31.4216 39.8942 33.2558 40.4421 34.8201 40.6209C36.8726 40.8555 38.4115 40.4759 39.3947 39.4928C40.3778 38.5097 40.7573 36.9705 40.5228 34.9182C40.2888 32.8721 39.4235 30.3641 38.02 27.6656C37.8943 27.4241 37.9883 27.1265 38.2299 27.0008C38.4716 26.8752 38.7691 26.9692 38.8947 27.2107C40.3741 30.0551 41.2513 32.6105 41.5023 34.8061ZM14.9999 38.2278C15.1256 38.4693 15.0317 38.7669 14.7901 38.8926C11.947 40.3719 9.39201 41.2492 7.19653 41.5003C6.7666 41.5494 6.35456 41.5739 5.96155 41.5739C4.19213 41.5739 2.80031 41.0768 1.81323 40.0897C0.606713 38.8831 0.131752 37.0719 0.401471 34.7062C0.589569 33.0568 1.13114 31.2046 2.01568 29.1799L1.2299 29.8387C1.0213 30.0136 0.710401 29.9864 0.535346 29.7776C0.360455 29.569 0.387772 29.2581 0.596459 29.0831L3.11999 26.9674C3.15846 26.9337 3.20153 26.9065 3.24763 26.8864C3.27158 26.8759 3.29627 26.8674 3.32129 26.8608C3.4322 26.832 3.55328 26.8414 3.66344 26.8958C3.67329 26.9008 3.68288 26.9058 3.69232 26.9113C3.78953 26.9674 3.86073 27.0522 3.90084 27.1492C3.91298 27.1786 3.92242 27.2093 3.92881 27.2409C3.93529 27.2735 3.93858 27.3074 3.93841 27.341L3.98468 30.6351C3.98853 30.9074 3.77099 31.1312 3.49872 31.135C3.49635 31.135 3.49397 31.135 3.49159 31.135C3.22261 31.135 3.0026 30.9188 2.99883 30.649L2.98176 29.4368C2.10698 31.4192 1.55942 33.2533 1.38101 34.8178C1.14689 36.8699 1.52686 38.4091 2.51025 39.3925C3.49347 40.3756 5.03287 40.755 7.08447 40.5206C9.1305 40.2866 11.6378 39.4213 14.3351 38.0178C14.5765 37.8923 14.8742 37.9862 14.9999 38.2278ZM21.0013 33.0582C18.9178 33.0582 17.2227 34.7533 17.2227 36.8368C17.2227 38.9203 18.9178 40.6154 21.0013 40.6154C23.0848 40.6154 24.7799 38.9203 24.7799 36.8368C24.7799 34.7533 23.0848 33.0582 21.0013 33.0582ZM21.0013 39.6295C19.4614 39.6295 18.2086 38.3768 18.2086 36.8368C18.2086 35.2968 19.4613 34.0441 21.0013 34.0441C22.5413 34.0441 23.794 35.2968 23.794 36.8368C23.794 38.3768 22.5413 39.6295 21.0013 39.6295ZM2.58736 17.1207C1.86934 17.1207 1.28519 17.7038 1.28519 18.4206V23.3782C1.28519 24.0949 1.86934 24.6781 2.58736 24.6781H7.54254C8.25924 24.6781 8.8424 24.095 8.8424 23.3782V18.4206C8.8424 17.7039 8.25933 17.1207 7.54254 17.1207H2.58736ZM7.85639 18.4206V23.3782C7.85639 23.5513 7.71562 23.6921 7.54254 23.6921H2.58736C2.41296 23.6921 2.27121 23.5513 2.27121 23.3782V18.4206C2.27121 18.2475 2.41304 18.1068 2.58736 18.1068H7.54254C7.71562 18.1068 7.85639 18.2475 7.85639 18.4206ZM21.0013 8.94042C23.0848 8.94042 24.7799 7.24533 24.7799 5.1619C24.7799 3.07847 23.0848 1.38329 21.0013 1.38329C18.9178 1.38329 17.2227 3.07838 17.2227 5.1619C17.2227 7.24541 18.9178 8.94042 21.0013 8.94042ZM21.0013 2.36922C22.5412 2.36922 23.794 3.62192 23.794 5.1619C23.794 6.70187 22.5413 7.95449 21.0013 7.95449C19.4613 7.95449 18.2086 6.70179 18.2086 5.1619C18.2086 3.62201 19.4613 2.36922 21.0013 2.36922ZM39.4177 24.6781C40.1344 24.6781 40.7175 24.095 40.7175 23.3782V18.4206C40.7175 17.7039 40.1344 17.1207 39.4177 17.1207H34.4625C33.7445 17.1207 33.1603 17.7038 33.1603 18.4206V23.3782C33.1603 24.0949 33.7445 24.6781 34.4625 24.6781H39.4177ZM34.1463 23.3782V18.4206C34.1463 18.2475 34.2881 18.1068 34.4624 18.1068H39.4176C39.5907 18.1068 39.7314 18.2475 39.7314 18.4206V23.3782C39.7314 23.5513 39.5907 23.6921 39.4176 23.6921H34.4624C34.288 23.6921 34.1463 23.5513 34.1463 23.3782Z" stroke="#556EAA" mask="url(#path-1-outside-1_2581_10526)"/>
</g>
<defs>
<clipPath id="clip0_2581_10526">
<rect width="42" height="42" fill="white"/>
</clipPath>
</defs>
</svg>
