<svg width="42" height="42" viewBox="0 0 42 42" fill="none" xmlns="http://www.w3.org/2000/svg">
<g clip-path="url(#clip0_2581_10535)">
<mask id="path-1-outside-1_2581_10535" maskUnits="userSpaceOnUse" x="0" y="-1" width="42" height="44" fill="black">
<rect fill="white" y="-1" width="42" height="44"/>
<path fill-rule="evenodd" clip-rule="evenodd" d="M17.1924 2.34402C16.5132 1.65907 15.6194 1.23277 14.6634 1.13777C13.7074 1.04277 12.7483 1.28494 11.9495 1.82302C11.1508 2.36109 10.5618 3.16179 10.2829 4.08866C10.0039 5.01554 10.0524 6.01124 10.42 6.90613C10.7876 7.80101 11.4515 8.5397 12.2987 8.99632C13.1459 9.45295 14.1239 9.59926 15.0661 9.41032C16.0083 9.22139 16.8563 8.7089 17.4658 7.96018C18.0752 7.21146 18.4083 6.27283 18.4083 5.30424C18.4091 4.75437 18.302 4.20978 18.0934 3.70177C17.8847 3.19375 17.5785 2.73233 17.1924 2.34402ZM34.925 15.3893C33.5505 14.0032 31.7418 13.1405 29.8072 12.9482C27.8725 12.7559 25.9316 13.2459 24.3151 14.3348C22.6987 15.4237 21.5067 17.044 20.9422 18.9197C20.3778 20.7954 20.4758 22.8104 21.2197 24.6214C21.9635 26.4323 23.3071 27.9272 25.0215 28.8513C26.7359 29.7754 28.7151 30.0715 30.6218 29.6892C32.5285 29.3069 34.2447 28.2698 35.478 26.7547C36.7114 25.2395 37.3855 23.34 37.3856 21.3799C37.3871 20.2672 37.1705 19.1651 36.7482 18.137C36.3259 17.109 35.7063 16.1752 34.925 15.3893ZM28.9837 11.7901C31.1841 11.7901 33.3165 12.5593 35.0175 13.9668C36.7185 15.3743 37.8828 17.3329 38.3121 19.5089C38.7415 21.685 38.4092 23.9438 37.3719 25.9005C36.3347 27.8572 34.6566 29.3908 32.6237 30.2398C30.5908 31.0889 28.3287 31.201 26.223 30.5569C24.1173 29.9129 22.2983 28.5526 21.0758 26.7079C19.8533 24.8631 19.3029 22.648 19.5186 20.4401C19.7343 18.2321 20.7026 16.1678 22.2585 14.5989C23.1407 13.7071 24.189 12.9999 25.3431 12.5178C26.4972 12.0358 27.7345 11.7885 28.9837 11.7901ZM29.8543 20.1806C29.8931 20.2769 29.9579 20.3603 30.0413 20.4214C30.1248 20.4824 30.2235 20.5186 30.3264 20.5259L32.6168 20.6984L30.862 22.1951C30.7798 22.2652 30.7197 22.358 30.689 22.462C30.6583 22.566 30.6584 22.6768 30.6893 22.7808L31.2304 25.0066L29.2742 23.7847C29.1855 23.7294 29.083 23.7007 28.9788 23.7016C28.8745 23.7026 28.7727 23.7334 28.685 23.7903L26.7374 25.0066L27.2852 22.7519C27.3092 22.6514 27.3051 22.5462 27.2734 22.4479C27.2416 22.3496 27.1835 22.2621 27.1055 22.1951L25.3506 20.6984L27.6411 20.5278C27.7521 20.5199 27.8582 20.4784 27.9455 20.4088C28.0328 20.3392 28.0973 20.2446 28.1306 20.1375L28.9837 18.0323L29.8543 20.1806ZM29.4946 16.3523L30.7459 19.4395L34.047 19.685C34.1583 19.6933 34.2646 19.7353 34.3518 19.8056C34.4391 19.8758 34.5033 19.971 34.5359 20.0787C34.5686 20.1863 34.5683 20.3014 34.535 20.4089C34.5018 20.5163 34.4371 20.6112 34.3494 20.6809L31.8375 22.8233L32.6258 26.0661C32.6512 26.1744 32.6439 26.2879 32.6048 26.392C32.5658 26.4961 32.4968 26.586 32.4066 26.6503C32.3165 26.7145 32.2094 26.7502 32.099 26.7526C31.9887 26.755 31.8801 26.7241 31.7873 26.6639L28.9836 24.9128L26.1686 26.6719C26.0753 26.7293 25.9673 26.7576 25.8582 26.7532C25.749 26.7489 25.6436 26.712 25.5552 26.6473C25.4668 26.5826 25.3994 26.493 25.3614 26.3898C25.3234 26.2865 25.3165 26.1742 25.3417 26.0671L26.1299 22.8241L23.6022 20.6682C23.5186 20.5964 23.4581 20.5012 23.4284 20.3946C23.3986 20.2881 23.401 20.175 23.4351 20.0698C23.4692 19.9645 23.5335 19.8719 23.62 19.8037C23.7064 19.7354 23.811 19.6946 23.9205 19.6864L27.2215 19.44L28.4727 16.3525C28.5143 16.2503 28.5851 16.1629 28.6761 16.1014C28.7671 16.0399 28.8741 16.0071 28.9837 16.0071C29.0932 16.0071 29.2003 16.0399 29.2913 16.1014C29.3823 16.1629 29.453 16.2501 29.4946 16.3523ZM36.6967 13.603C38.4813 15.4023 39.5919 17.7698 39.8394 20.3021C40.0869 22.8345 39.4558 25.375 38.0538 27.4908C36.6518 29.6067 34.5655 31.1669 32.1505 31.9056C29.7355 32.6443 27.1411 32.5159 24.8095 31.5421C22.4779 30.5684 20.5533 28.8096 19.3636 26.5655C18.1739 24.3214 17.7927 21.7307 18.285 19.235C18.7773 16.7393 20.1127 14.4929 22.0635 12.8786C24.0144 11.2643 26.46 10.3819 28.9837 10.3819C30.4164 10.38 31.8353 10.6636 33.159 11.2164C34.4826 11.7692 35.6849 12.5803 36.6967 13.603ZM18.7526 27.7371C17.6448 25.9225 17.0306 23.8458 16.9719 21.7158C16.9132 19.5859 17.4119 17.4779 18.418 15.6041C16.7428 14.9982 14.9573 14.7656 13.1843 14.9223C11.4114 15.0789 9.69324 15.6212 8.14812 16.5117C6.603 17.4022 5.26765 18.6197 4.23403 20.0806C3.20041 21.5414 2.49308 23.2107 2.16075 24.9736C3.85404 25.986 5.67967 26.7541 7.58441 27.2555C9.76178 27.8347 12.0048 28.1248 14.2567 28.1185C15.1555 28.1193 16.0537 28.0747 16.9481 27.9848C17.5598 27.9228 18.1613 27.8402 18.7526 27.7371ZM21.7174 31.0301L19.7044 38.6044L22.5042 36.9887C22.6313 36.9158 22.7818 36.8965 22.9229 36.9349C23.0641 36.9734 23.1844 37.0665 23.2578 37.194L24.8811 40.0045L26.6702 33.2717C24.8706 32.9174 23.1762 32.1502 21.7174 31.0301ZM37.185 30.235L39.6735 39.5996C39.7037 39.7064 39.7018 39.8197 39.6679 39.9254C39.634 40.031 39.5697 40.124 39.4832 40.1927C39.3967 40.2614 39.2919 40.3025 39.1821 40.311C39.0724 40.3194 38.9626 40.2947 38.8668 40.2401L35.389 38.233L33.3849 41.7027C33.3329 41.8018 33.2525 41.8828 33.1541 41.9352C33.0558 41.9876 32.9441 42.009 32.8335 41.9965C32.723 41.9841 32.6187 41.9384 32.5343 41.8654C32.4499 41.7924 32.3892 41.6954 32.3601 41.5872L30.1938 33.4352C29.7957 33.4754 29.3923 33.4956 28.9835 33.496C28.5747 33.4963 28.1712 33.476 27.7731 33.4351L25.6067 41.5872C25.5777 41.6954 25.517 41.7924 25.4325 41.8654C25.3481 41.9384 25.2438 41.9841 25.1333 41.9965C25.0228 42.009 24.9111 41.9876 24.8127 41.9352C24.7144 41.8828 24.634 41.8018 24.5819 41.7027L22.578 38.2329L19.1002 40.2405C19.0043 40.2951 18.8946 40.3198 18.7848 40.3113C18.675 40.3029 18.5702 40.2617 18.4837 40.193C18.3972 40.1244 18.3329 40.0313 18.299 39.9257C18.2652 39.8201 18.2632 39.7067 18.2934 39.6L20.7827 30.2349C20.6826 30.1407 20.5841 30.0448 20.4871 29.9472C20.1124 29.5695 19.7628 29.1673 19.4405 28.7432C18.6646 28.8938 17.87 29.0107 17.0566 29.0939C16.1263 29.1885 15.1919 29.236 14.2569 29.2364C11.9084 29.2422 9.56918 28.9389 7.29853 28.3341C5.05264 27.7282 3.0083 26.8359 1.25834 25.7216C1.16263 25.6609 1.08769 25.572 1.04365 25.467C0.9996 25.362 0.988564 25.2458 1.01203 25.1343C1.32807 23.1532 2.07732 21.2678 3.20546 19.6149C4.33361 17.9619 5.81239 16.5827 7.5346 15.5773C9.25681 14.5719 11.1793 13.9655 13.1627 13.802C15.1462 13.6384 17.1409 13.9219 19.0022 14.6319C19.9359 13.2278 21.1506 12.0363 22.5684 11.1339C23.9861 10.2315 25.5754 9.63823 27.2341 9.3922C28.8929 9.14616 30.5843 9.25283 32.1997 9.70532C33.8151 10.1578 35.3187 10.9461 36.6139 12.0196C37.9091 13.0931 38.9671 14.4279 39.7201 15.9384C40.473 17.4488 40.9041 19.1014 40.9858 20.7898C41.0674 22.4783 40.7977 24.1653 40.194 25.7424C39.5903 27.3195 38.666 28.7518 37.4805 29.9471C37.3838 30.0448 37.2853 30.1407 37.185 30.235ZM31.2968 33.2714L33.0861 40.0042L34.7093 37.1936C34.7826 37.0661 34.9029 36.973 35.044 36.9347C35.1851 36.8964 35.3356 36.9159 35.4624 36.9891L38.263 38.6045L36.2501 31.0302C34.7913 32.1503 33.0965 32.9171 31.2968 33.2714ZM14.2565 4.14173e-06C15.4736 -5.30557e-05 16.6531 0.425415 17.594 1.20391C18.5349 1.98241 19.179 3.06577 19.4164 4.26939C19.6539 5.47302 19.4702 6.72244 18.8964 7.80476C18.3227 8.88708 17.3946 9.73534 16.2701 10.205C15.1456 10.6747 13.8944 10.7367 12.7297 10.3804C11.565 10.0242 10.5588 9.27181 9.88259 8.25142C9.20638 7.23104 8.90199 6.00581 9.02128 4.78451C9.14058 3.5632 9.67617 2.42139 10.5368 1.55362C11.0248 1.06036 11.6046 0.669178 12.2429 0.402558C12.8813 0.135937 13.5656 -0.00086778 14.2565 4.14173e-06Z"/>
</mask>
<path fill-rule="evenodd" clip-rule="evenodd" d="M17.1924 2.34402C16.5132 1.65907 15.6194 1.23277 14.6634 1.13777C13.7074 1.04277 12.7483 1.28494 11.9495 1.82302C11.1508 2.36109 10.5618 3.16179 10.2829 4.08866C10.0039 5.01554 10.0524 6.01124 10.42 6.90613C10.7876 7.80101 11.4515 8.5397 12.2987 8.99632C13.1459 9.45295 14.1239 9.59926 15.0661 9.41032C16.0083 9.22139 16.8563 8.7089 17.4658 7.96018C18.0752 7.21146 18.4083 6.27283 18.4083 5.30424C18.4091 4.75437 18.302 4.20978 18.0934 3.70177C17.8847 3.19375 17.5785 2.73233 17.1924 2.34402ZM34.925 15.3893C33.5505 14.0032 31.7418 13.1405 29.8072 12.9482C27.8725 12.7559 25.9316 13.2459 24.3151 14.3348C22.6987 15.4237 21.5067 17.044 20.9422 18.9197C20.3778 20.7954 20.4758 22.8104 21.2197 24.6214C21.9635 26.4323 23.3071 27.9272 25.0215 28.8513C26.7359 29.7754 28.7151 30.0715 30.6218 29.6892C32.5285 29.3069 34.2447 28.2698 35.478 26.7547C36.7114 25.2395 37.3855 23.34 37.3856 21.3799C37.3871 20.2672 37.1705 19.1651 36.7482 18.137C36.3259 17.109 35.7063 16.1752 34.925 15.3893ZM28.9837 11.7901C31.1841 11.7901 33.3165 12.5593 35.0175 13.9668C36.7185 15.3743 37.8828 17.3329 38.3121 19.5089C38.7415 21.685 38.4092 23.9438 37.3719 25.9005C36.3347 27.8572 34.6566 29.3908 32.6237 30.2398C30.5908 31.0889 28.3287 31.201 26.223 30.5569C24.1173 29.9129 22.2983 28.5526 21.0758 26.7079C19.8533 24.8631 19.3029 22.648 19.5186 20.4401C19.7343 18.2321 20.7026 16.1678 22.2585 14.5989C23.1407 13.7071 24.189 12.9999 25.3431 12.5178C26.4972 12.0358 27.7345 11.7885 28.9837 11.7901ZM29.8543 20.1806C29.8931 20.2769 29.9579 20.3603 30.0413 20.4214C30.1248 20.4824 30.2235 20.5186 30.3264 20.5259L32.6168 20.6984L30.862 22.1951C30.7798 22.2652 30.7197 22.358 30.689 22.462C30.6583 22.566 30.6584 22.6768 30.6893 22.7808L31.2304 25.0066L29.2742 23.7847C29.1855 23.7294 29.083 23.7007 28.9788 23.7016C28.8745 23.7026 28.7727 23.7334 28.685 23.7903L26.7374 25.0066L27.2852 22.7519C27.3092 22.6514 27.3051 22.5462 27.2734 22.4479C27.2416 22.3496 27.1835 22.2621 27.1055 22.1951L25.3506 20.6984L27.6411 20.5278C27.7521 20.5199 27.8582 20.4784 27.9455 20.4088C28.0328 20.3392 28.0973 20.2446 28.1306 20.1375L28.9837 18.0323L29.8543 20.1806ZM29.4946 16.3523L30.7459 19.4395L34.047 19.685C34.1583 19.6933 34.2646 19.7353 34.3518 19.8056C34.4391 19.8758 34.5033 19.971 34.5359 20.0787C34.5686 20.1863 34.5683 20.3014 34.535 20.4089C34.5018 20.5163 34.4371 20.6112 34.3494 20.6809L31.8375 22.8233L32.6258 26.0661C32.6512 26.1744 32.6439 26.2879 32.6048 26.392C32.5658 26.4961 32.4968 26.586 32.4066 26.6503C32.3165 26.7145 32.2094 26.7502 32.099 26.7526C31.9887 26.755 31.8801 26.7241 31.7873 26.6639L28.9836 24.9128L26.1686 26.6719C26.0753 26.7293 25.9673 26.7576 25.8582 26.7532C25.749 26.7489 25.6436 26.712 25.5552 26.6473C25.4668 26.5826 25.3994 26.493 25.3614 26.3898C25.3234 26.2865 25.3165 26.1742 25.3417 26.0671L26.1299 22.8241L23.6022 20.6682C23.5186 20.5964 23.4581 20.5012 23.4284 20.3946C23.3986 20.2881 23.401 20.175 23.4351 20.0698C23.4692 19.9645 23.5335 19.8719 23.62 19.8037C23.7064 19.7354 23.811 19.6946 23.9205 19.6864L27.2215 19.44L28.4727 16.3525C28.5143 16.2503 28.5851 16.1629 28.6761 16.1014C28.7671 16.0399 28.8741 16.0071 28.9837 16.0071C29.0932 16.0071 29.2003 16.0399 29.2913 16.1014C29.3823 16.1629 29.453 16.2501 29.4946 16.3523ZM36.6967 13.603C38.4813 15.4023 39.5919 17.7698 39.8394 20.3021C40.0869 22.8345 39.4558 25.375 38.0538 27.4908C36.6518 29.6067 34.5655 31.1669 32.1505 31.9056C29.7355 32.6443 27.1411 32.5159 24.8095 31.5421C22.4779 30.5684 20.5533 28.8096 19.3636 26.5655C18.1739 24.3214 17.7927 21.7307 18.285 19.235C18.7773 16.7393 20.1127 14.4929 22.0635 12.8786C24.0144 11.2643 26.46 10.3819 28.9837 10.3819C30.4164 10.38 31.8353 10.6636 33.159 11.2164C34.4826 11.7692 35.6849 12.5803 36.6967 13.603ZM18.7526 27.7371C17.6448 25.9225 17.0306 23.8458 16.9719 21.7158C16.9132 19.5859 17.4119 17.4779 18.418 15.6041C16.7428 14.9982 14.9573 14.7656 13.1843 14.9223C11.4114 15.0789 9.69324 15.6212 8.14812 16.5117C6.603 17.4022 5.26765 18.6197 4.23403 20.0806C3.20041 21.5414 2.49308 23.2107 2.16075 24.9736C3.85404 25.986 5.67967 26.7541 7.58441 27.2555C9.76178 27.8347 12.0048 28.1248 14.2567 28.1185C15.1555 28.1193 16.0537 28.0747 16.9481 27.9848C17.5598 27.9228 18.1613 27.8402 18.7526 27.7371ZM21.7174 31.0301L19.7044 38.6044L22.5042 36.9887C22.6313 36.9158 22.7818 36.8965 22.9229 36.9349C23.0641 36.9734 23.1844 37.0665 23.2578 37.194L24.8811 40.0045L26.6702 33.2717C24.8706 32.9174 23.1762 32.1502 21.7174 31.0301ZM37.185 30.235L39.6735 39.5996C39.7037 39.7064 39.7018 39.8197 39.6679 39.9254C39.634 40.031 39.5697 40.124 39.4832 40.1927C39.3967 40.2614 39.2919 40.3025 39.1821 40.311C39.0724 40.3194 38.9626 40.2947 38.8668 40.2401L35.389 38.233L33.3849 41.7027C33.3329 41.8018 33.2525 41.8828 33.1541 41.9352C33.0558 41.9876 32.9441 42.009 32.8335 41.9965C32.723 41.9841 32.6187 41.9384 32.5343 41.8654C32.4499 41.7924 32.3892 41.6954 32.3601 41.5872L30.1938 33.4352C29.7957 33.4754 29.3923 33.4956 28.9835 33.496C28.5747 33.4963 28.1712 33.476 27.7731 33.4351L25.6067 41.5872C25.5777 41.6954 25.517 41.7924 25.4325 41.8654C25.3481 41.9384 25.2438 41.9841 25.1333 41.9965C25.0228 42.009 24.9111 41.9876 24.8127 41.9352C24.7144 41.8828 24.634 41.8018 24.5819 41.7027L22.578 38.2329L19.1002 40.2405C19.0043 40.2951 18.8946 40.3198 18.7848 40.3113C18.675 40.3029 18.5702 40.2617 18.4837 40.193C18.3972 40.1244 18.3329 40.0313 18.299 39.9257C18.2652 39.8201 18.2632 39.7067 18.2934 39.6L20.7827 30.2349C20.6826 30.1407 20.5841 30.0448 20.4871 29.9472C20.1124 29.5695 19.7628 29.1673 19.4405 28.7432C18.6646 28.8938 17.87 29.0107 17.0566 29.0939C16.1263 29.1885 15.1919 29.236 14.2569 29.2364C11.9084 29.2422 9.56918 28.9389 7.29853 28.3341C5.05264 27.7282 3.0083 26.8359 1.25834 25.7216C1.16263 25.6609 1.08769 25.572 1.04365 25.467C0.9996 25.362 0.988564 25.2458 1.01203 25.1343C1.32807 23.1532 2.07732 21.2678 3.20546 19.6149C4.33361 17.9619 5.81239 16.5827 7.5346 15.5773C9.25681 14.5719 11.1793 13.9655 13.1627 13.802C15.1462 13.6384 17.1409 13.9219 19.0022 14.6319C19.9359 13.2278 21.1506 12.0363 22.5684 11.1339C23.9861 10.2315 25.5754 9.63823 27.2341 9.3922C28.8929 9.14616 30.5843 9.25283 32.1997 9.70532C33.8151 10.1578 35.3187 10.9461 36.6139 12.0196C37.9091 13.0931 38.9671 14.4279 39.7201 15.9384C40.473 17.4488 40.9041 19.1014 40.9858 20.7898C41.0674 22.4783 40.7977 24.1653 40.194 25.7424C39.5903 27.3195 38.666 28.7518 37.4805 29.9471C37.3838 30.0448 37.2853 30.1407 37.185 30.235ZM31.2968 33.2714L33.0861 40.0042L34.7093 37.1936C34.7826 37.0661 34.9029 36.973 35.044 36.9347C35.1851 36.8964 35.3356 36.9159 35.4624 36.9891L38.263 38.6045L36.2501 31.0302C34.7913 32.1503 33.0965 32.9171 31.2968 33.2714ZM14.2565 4.14173e-06C15.4736 -5.30557e-05 16.6531 0.425415 17.594 1.20391C18.5349 1.98241 19.179 3.06577 19.4164 4.26939C19.6539 5.47302 19.4702 6.72244 18.8964 7.80476C18.3227 8.88708 17.3946 9.73534 16.2701 10.205C15.1456 10.6747 13.8944 10.7367 12.7297 10.3804C11.565 10.0242 10.5588 9.27181 9.88259 8.25142C9.20638 7.23104 8.90199 6.00581 9.02128 4.78451C9.14058 3.5632 9.67617 2.42139 10.5368 1.55362C11.0248 1.06036 11.6046 0.669178 12.2429 0.402558C12.8813 0.135937 13.5656 -0.00086778 14.2565 4.14173e-06Z" fill="#556EAA"/>
<path fill-rule="evenodd" clip-rule="evenodd" d="M17.1924 2.34402C16.5132 1.65907 15.6194 1.23277 14.6634 1.13777C13.7074 1.04277 12.7483 1.28494 11.9495 1.82302C11.1508 2.36109 10.5618 3.16179 10.2829 4.08866C10.0039 5.01554 10.0524 6.01124 10.42 6.90613C10.7876 7.80101 11.4515 8.5397 12.2987 8.99632C13.1459 9.45295 14.1239 9.59926 15.0661 9.41032C16.0083 9.22139 16.8563 8.7089 17.4658 7.96018C18.0752 7.21146 18.4083 6.27283 18.4083 5.30424C18.4091 4.75437 18.302 4.20978 18.0934 3.70177C17.8847 3.19375 17.5785 2.73233 17.1924 2.34402ZM34.925 15.3893C33.5505 14.0032 31.7418 13.1405 29.8072 12.9482C27.8725 12.7559 25.9316 13.2459 24.3151 14.3348C22.6987 15.4237 21.5067 17.044 20.9422 18.9197C20.3778 20.7954 20.4758 22.8104 21.2197 24.6214C21.9635 26.4323 23.3071 27.9272 25.0215 28.8513C26.7359 29.7754 28.7151 30.0715 30.6218 29.6892C32.5285 29.3069 34.2447 28.2698 35.478 26.7547C36.7114 25.2395 37.3855 23.34 37.3856 21.3799C37.3871 20.2672 37.1705 19.1651 36.7482 18.137C36.3259 17.109 35.7063 16.1752 34.925 15.3893ZM28.9837 11.7901C31.1841 11.7901 33.3165 12.5593 35.0175 13.9668C36.7185 15.3743 37.8828 17.3329 38.3121 19.5089C38.7415 21.685 38.4092 23.9438 37.3719 25.9005C36.3347 27.8572 34.6566 29.3908 32.6237 30.2398C30.5908 31.0889 28.3287 31.201 26.223 30.5569C24.1173 29.9129 22.2983 28.5526 21.0758 26.7079C19.8533 24.8631 19.3029 22.648 19.5186 20.4401C19.7343 18.2321 20.7026 16.1678 22.2585 14.5989C23.1407 13.7071 24.189 12.9999 25.3431 12.5178C26.4972 12.0358 27.7345 11.7885 28.9837 11.7901ZM29.8543 20.1806C29.8931 20.2769 29.9579 20.3603 30.0413 20.4214C30.1248 20.4824 30.2235 20.5186 30.3264 20.5259L32.6168 20.6984L30.862 22.1951C30.7798 22.2652 30.7197 22.358 30.689 22.462C30.6583 22.566 30.6584 22.6768 30.6893 22.7808L31.2304 25.0066L29.2742 23.7847C29.1855 23.7294 29.083 23.7007 28.9788 23.7016C28.8745 23.7026 28.7727 23.7334 28.685 23.7903L26.7374 25.0066L27.2852 22.7519C27.3092 22.6514 27.3051 22.5462 27.2734 22.4479C27.2416 22.3496 27.1835 22.2621 27.1055 22.1951L25.3506 20.6984L27.6411 20.5278C27.7521 20.5199 27.8582 20.4784 27.9455 20.4088C28.0328 20.3392 28.0973 20.2446 28.1306 20.1375L28.9837 18.0323L29.8543 20.1806ZM29.4946 16.3523L30.7459 19.4395L34.047 19.685C34.1583 19.6933 34.2646 19.7353 34.3518 19.8056C34.4391 19.8758 34.5033 19.971 34.5359 20.0787C34.5686 20.1863 34.5683 20.3014 34.535 20.4089C34.5018 20.5163 34.4371 20.6112 34.3494 20.6809L31.8375 22.8233L32.6258 26.0661C32.6512 26.1744 32.6439 26.2879 32.6048 26.392C32.5658 26.4961 32.4968 26.586 32.4066 26.6503C32.3165 26.7145 32.2094 26.7502 32.099 26.7526C31.9887 26.755 31.8801 26.7241 31.7873 26.6639L28.9836 24.9128L26.1686 26.6719C26.0753 26.7293 25.9673 26.7576 25.8582 26.7532C25.749 26.7489 25.6436 26.712 25.5552 26.6473C25.4668 26.5826 25.3994 26.493 25.3614 26.3898C25.3234 26.2865 25.3165 26.1742 25.3417 26.0671L26.1299 22.8241L23.6022 20.6682C23.5186 20.5964 23.4581 20.5012 23.4284 20.3946C23.3986 20.2881 23.401 20.175 23.4351 20.0698C23.4692 19.9645 23.5335 19.8719 23.62 19.8037C23.7064 19.7354 23.811 19.6946 23.9205 19.6864L27.2215 19.44L28.4727 16.3525C28.5143 16.2503 28.5851 16.1629 28.6761 16.1014C28.7671 16.0399 28.8741 16.0071 28.9837 16.0071C29.0932 16.0071 29.2003 16.0399 29.2913 16.1014C29.3823 16.1629 29.453 16.2501 29.4946 16.3523ZM36.6967 13.603C38.4813 15.4023 39.5919 17.7698 39.8394 20.3021C40.0869 22.8345 39.4558 25.375 38.0538 27.4908C36.6518 29.6067 34.5655 31.1669 32.1505 31.9056C29.7355 32.6443 27.1411 32.5159 24.8095 31.5421C22.4779 30.5684 20.5533 28.8096 19.3636 26.5655C18.1739 24.3214 17.7927 21.7307 18.285 19.235C18.7773 16.7393 20.1127 14.4929 22.0635 12.8786C24.0144 11.2643 26.46 10.3819 28.9837 10.3819C30.4164 10.38 31.8353 10.6636 33.159 11.2164C34.4826 11.7692 35.6849 12.5803 36.6967 13.603ZM18.7526 27.7371C17.6448 25.9225 17.0306 23.8458 16.9719 21.7158C16.9132 19.5859 17.4119 17.4779 18.418 15.6041C16.7428 14.9982 14.9573 14.7656 13.1843 14.9223C11.4114 15.0789 9.69324 15.6212 8.14812 16.5117C6.603 17.4022 5.26765 18.6197 4.23403 20.0806C3.20041 21.5414 2.49308 23.2107 2.16075 24.9736C3.85404 25.986 5.67967 26.7541 7.58441 27.2555C9.76178 27.8347 12.0048 28.1248 14.2567 28.1185C15.1555 28.1193 16.0537 28.0747 16.9481 27.9848C17.5598 27.9228 18.1613 27.8402 18.7526 27.7371ZM21.7174 31.0301L19.7044 38.6044L22.5042 36.9887C22.6313 36.9158 22.7818 36.8965 22.9229 36.9349C23.0641 36.9734 23.1844 37.0665 23.2578 37.194L24.8811 40.0045L26.6702 33.2717C24.8706 32.9174 23.1762 32.1502 21.7174 31.0301ZM37.185 30.235L39.6735 39.5996C39.7037 39.7064 39.7018 39.8197 39.6679 39.9254C39.634 40.031 39.5697 40.124 39.4832 40.1927C39.3967 40.2614 39.2919 40.3025 39.1821 40.311C39.0724 40.3194 38.9626 40.2947 38.8668 40.2401L35.389 38.233L33.3849 41.7027C33.3329 41.8018 33.2525 41.8828 33.1541 41.9352C33.0558 41.9876 32.9441 42.009 32.8335 41.9965C32.723 41.9841 32.6187 41.9384 32.5343 41.8654C32.4499 41.7924 32.3892 41.6954 32.3601 41.5872L30.1938 33.4352C29.7957 33.4754 29.3923 33.4956 28.9835 33.496C28.5747 33.4963 28.1712 33.476 27.7731 33.4351L25.6067 41.5872C25.5777 41.6954 25.517 41.7924 25.4325 41.8654C25.3481 41.9384 25.2438 41.9841 25.1333 41.9965C25.0228 42.009 24.9111 41.9876 24.8127 41.9352C24.7144 41.8828 24.634 41.8018 24.5819 41.7027L22.578 38.2329L19.1002 40.2405C19.0043 40.2951 18.8946 40.3198 18.7848 40.3113C18.675 40.3029 18.5702 40.2617 18.4837 40.193C18.3972 40.1244 18.3329 40.0313 18.299 39.9257C18.2652 39.8201 18.2632 39.7067 18.2934 39.6L20.7827 30.2349C20.6826 30.1407 20.5841 30.0448 20.4871 29.9472C20.1124 29.5695 19.7628 29.1673 19.4405 28.7432C18.6646 28.8938 17.87 29.0107 17.0566 29.0939C16.1263 29.1885 15.1919 29.236 14.2569 29.2364C11.9084 29.2422 9.56918 28.9389 7.29853 28.3341C5.05264 27.7282 3.0083 26.8359 1.25834 25.7216C1.16263 25.6609 1.08769 25.572 1.04365 25.467C0.9996 25.362 0.988564 25.2458 1.01203 25.1343C1.32807 23.1532 2.07732 21.2678 3.20546 19.6149C4.33361 17.9619 5.81239 16.5827 7.5346 15.5773C9.25681 14.5719 11.1793 13.9655 13.1627 13.802C15.1462 13.6384 17.1409 13.9219 19.0022 14.6319C19.9359 13.2278 21.1506 12.0363 22.5684 11.1339C23.9861 10.2315 25.5754 9.63823 27.2341 9.3922C28.8929 9.14616 30.5843 9.25283 32.1997 9.70532C33.8151 10.1578 35.3187 10.9461 36.6139 12.0196C37.9091 13.0931 38.9671 14.4279 39.7201 15.9384C40.473 17.4488 40.9041 19.1014 40.9858 20.7898C41.0674 22.4783 40.7977 24.1653 40.194 25.7424C39.5903 27.3195 38.666 28.7518 37.4805 29.9471C37.3838 30.0448 37.2853 30.1407 37.185 30.235ZM31.2968 33.2714L33.0861 40.0042L34.7093 37.1936C34.7826 37.0661 34.9029 36.973 35.044 36.9347C35.1851 36.8964 35.3356 36.9159 35.4624 36.9891L38.263 38.6045L36.2501 31.0302C34.7913 32.1503 33.0965 32.9171 31.2968 33.2714ZM14.2565 4.14173e-06C15.4736 -5.30557e-05 16.6531 0.425415 17.594 1.20391C18.5349 1.98241 19.179 3.06577 19.4164 4.26939C19.6539 5.47302 19.4702 6.72244 18.8964 7.80476C18.3227 8.88708 17.3946 9.73534 16.2701 10.205C15.1456 10.6747 13.8944 10.7367 12.7297 10.3804C11.565 10.0242 10.5588 9.27181 9.88259 8.25142C9.20638 7.23104 8.90199 6.00581 9.02128 4.78451C9.14058 3.5632 9.67617 2.42139 10.5368 1.55362C11.0248 1.06036 11.6046 0.669178 12.2429 0.402558C12.8813 0.135937 13.5656 -0.00086778 14.2565 4.14173e-06Z" stroke="#556EAA" mask="url(#path-1-outside-1_2581_10535)"/>
</g>
<defs>
<clipPath id="clip0_2581_10535">
<rect width="42" height="42" fill="white"/>
</clipPath>
</defs>
</svg>
