<svg width="42" height="42" viewBox="0 0 42 42" fill="none" xmlns="http://www.w3.org/2000/svg">
<path d="M35.2188 2.08398C35.5201 2.08398 35.8093 2.20393 36.0225 2.41699C36.2356 2.63016 36.3555 2.91924 36.3555 3.2207C36.3555 3.52217 36.2356 3.81125 36.0225 4.02441C35.8093 4.23748 35.5201 4.35742 35.2188 4.35742H9.14453C8.50232 4.35742 7.88578 4.61232 7.43164 5.06641C6.97749 5.52056 6.72266 6.13703 6.72266 6.7793C6.72272 7.42141 6.97763 8.03713 7.43164 8.49121C7.88579 8.94536 8.50227 9.20117 9.14453 9.20117H36.4092C36.5588 9.19658 36.7077 9.22124 36.8477 9.27441C36.9908 9.32882 37.1221 9.41142 37.2324 9.51758C37.3426 9.62363 37.4304 9.75088 37.4902 9.8916C37.5501 10.0323 37.5811 10.184 37.5811 10.3369V36.4131C37.5794 36.877 37.4854 37.336 37.3057 37.7637C37.1259 38.1913 36.8636 38.5796 36.5332 38.9053C36.2028 39.231 35.8111 39.4884 35.3809 39.6621C34.9516 39.8354 34.4922 39.9206 34.0293 39.916V39.917H7.96582V39.916C7.5025 39.9222 7.04229 39.8378 6.6123 39.665C6.18137 39.4919 5.78874 39.2352 5.45801 38.9092C5.12725 38.5831 4.86482 38.1941 4.68555 37.7656C4.50627 37.3371 4.41401 36.8767 4.41406 36.4121V6.77832C4.41568 6.15929 4.53959 5.54673 4.77832 4.97559C5.01712 4.40436 5.36616 3.88529 5.80566 3.44922C6.24514 3.01321 6.76682 2.66788 7.33984 2.43359C7.91253 2.19952 8.52586 2.08183 9.14453 2.08496V2.08398H35.2188ZM6.73438 36.4121C6.73438 36.7387 6.8638 37.0522 7.09473 37.2832C7.32571 37.5142 7.63916 37.6445 7.96582 37.6445H34.0283C34.1907 37.6443 34.3523 37.611 34.502 37.5479C34.6514 37.4847 34.787 37.3925 34.9004 37.2764L34.9033 37.2725C35.0172 37.1604 35.1076 37.0264 35.1689 36.8789C35.2302 36.7316 35.2615 36.5736 35.2607 36.4141V11.4736H9.14355C8.29168 11.4728 7.45989 11.2397 6.73438 10.8047V36.4121Z" fill="#B15252" stroke="#B15252" stroke-width="0.5"/>
<path d="M24.6201 16.3047L24.7324 16.3105C24.9927 16.3363 25.2372 16.4512 25.4238 16.6377C25.637 16.8509 25.7568 17.1399 25.7568 17.4414C25.7568 17.7429 25.637 18.032 25.4238 18.2451C25.2107 18.4581 24.9215 18.5781 24.6201 18.5781H17.5039C17.2025 18.5781 16.9134 18.4583 16.7002 18.2451C16.487 18.032 16.3672 17.7429 16.3672 17.4414C16.3672 17.1399 16.487 16.8509 16.7002 16.6377C16.9134 16.4245 17.2024 16.3047 17.5039 16.3047H24.6201Z" fill="#B15252" stroke="#B15252" stroke-width="0.5"/>
</svg>
