<svg width="42" height="42" viewBox="0 0 42 42" fill="none" xmlns="http://www.w3.org/2000/svg">
<path d="M21.4131 5.92383C21.6459 5.92392 21.8721 6.01373 22.041 6.17773C22.2105 6.34245 22.3085 6.56937 22.3086 6.80859C22.3086 7.04796 22.2106 7.27464 22.041 7.43945C21.872 7.60372 21.6461 7.69424 21.4131 7.69434H7.15137L6.95898 7.69922C6.00185 7.74665 5.09611 8.13674 4.41895 8.79492C3.69713 9.49651 3.29347 10.4448 3.29199 11.4307V32.9932C3.29346 33.979 3.69717 34.9273 4.41895 35.6289C5.14125 36.331 6.12393 36.728 7.15137 36.7295H29.3359L29.5273 36.7246C30.4845 36.6772 31.3902 36.2871 32.0674 35.6289C32.789 34.9275 33.1926 33.9797 33.1943 32.9941V19.1318C33.1943 18.8925 33.2924 18.6658 33.4619 18.501L33.5273 18.4424C33.6872 18.315 33.8867 18.2461 34.0908 18.2461L34.1777 18.251C34.3507 18.2677 34.5164 18.3333 34.6533 18.4424L34.7188 18.501L34.7793 18.5654C34.9116 18.7225 34.9863 18.9224 34.9863 19.1318V32.9951C34.9844 34.4591 34.3856 35.8598 33.3252 36.8906C32.2651 37.921 30.8302 38.4982 29.3369 38.5H7.14941C5.65628 38.4981 4.22217 37.9209 3.16211 36.8906C2.10159 35.8598 1.50197 34.4592 1.5 32.9951V11.4297L1.50684 11.1553C1.57816 9.79124 2.16784 8.4996 3.16211 7.5332C4.22216 6.503 5.65632 5.92569 7.14941 5.92383H21.4131ZM33.9082 3.5C34.4734 3.50001 35.0214 3.68496 35.4658 4.02344L35.6504 4.17773L35.6602 4.18652H35.6592L36.7783 5.27734L36.7793 5.27832C37.0091 5.50359 37.1915 5.77169 37.3154 6.06738C37.4389 6.36204 37.502 6.67811 37.5 6.99707L37.4873 7.23633C37.4629 7.47353 37.4031 7.7064 37.3086 7.92676C37.1828 8.22008 36.998 8.48446 36.7676 8.70703L24.3154 20.8174L24.3105 20.8232C24.0456 21.0732 23.7292 21.2636 23.3838 21.3838L23.3809 21.3848L18.5439 23.0361C18.5426 23.0366 18.5414 23.0376 18.54 23.0381L18.5381 23.0391L18.5371 23.0381C18.4418 23.0713 18.3419 23.0881 18.2412 23.0869V23.0879C18.0107 23.0854 17.7876 22.9959 17.6191 22.835L17.6113 22.8271C17.4939 22.7098 17.4106 22.5618 17.373 22.3984C17.3355 22.2349 17.3453 22.0641 17.4014 21.9062L17.4023 21.9033L19.1074 17.1963C19.2307 16.8496 19.4333 16.5359 19.6992 16.2793L32.1572 4.18652L32.166 4.17773C32.638 3.74127 33.2621 3.5 33.9082 3.5ZM33.8857 5.25098C33.794 5.25101 33.7031 5.26878 33.6191 5.30273C33.5353 5.33665 33.4601 5.3861 33.3975 5.44727L33.3965 5.44824L20.9404 17.5557L20.9346 17.5605C20.8642 17.6269 20.8123 17.7075 20.7812 17.7949L20.7803 17.7979L19.7012 20.7861L22.7812 19.7334C22.8819 19.6989 22.9728 19.6436 23.0469 19.5723L35.498 7.46973L35.499 7.46875C35.6275 7.34469 35.6978 7.1795 35.6992 7.00977C35.7005 6.83992 35.6324 6.67372 35.5059 6.54785L35.3594 6.40039V6.39062L34.3779 5.45117L34.375 5.44727C34.3122 5.38594 34.2364 5.3367 34.1523 5.30273C34.0683 5.26881 33.9775 5.25098 33.8857 5.25098Z" fill="#B15252" stroke="#B15252"/>
</svg>
