<svg width="42" height="42" viewBox="0 0 42 42" fill="none" xmlns="http://www.w3.org/2000/svg">
<g clip-path="url(#clip0_5045_6445)">
<path d="M32.1176 17.5425V13.5882C32.1176 10.8637 29.901 8.64706 27.1765 8.64706H24.7059V0H0V24.7059H8.64706V27.1765C8.64706 29.901 10.8637 32.1176 13.5882 32.1176H17.5425C18.6902 37.7493 23.6815 42 29.6471 42C36.4585 42 42 36.4585 42 29.6471C42 23.6815 37.7493 18.6902 32.1176 17.5425ZM29.6471 13.5882V17.2941C26.6852 17.2941 23.9639 18.3422 21.8335 20.0865L12.9489 11.202C13.5316 11.0458 13.034 11.1475 27.1765 11.1176C28.5388 11.1176 29.6471 12.226 29.6471 13.5882ZM2.47059 22.2353V2.47059H22.2353V8.64706H13.5882C12.6732 8.64706 11.816 8.89807 11.0803 9.33339L6.95479 5.20784L5.20784 6.95479L9.33331 11.0803C8.89799 11.816 8.64706 12.6732 8.64706 13.5882V22.2353H2.47059ZM13.5882 29.6471C12.226 29.6471 11.1176 28.5388 11.1176 27.1765C11.1476 12.9647 11.0486 13.5207 11.202 12.9489L20.0865 21.8335C18.3422 23.9639 17.2941 26.6852 17.2941 29.6471H13.5882ZM29.6471 39.5294C21.4198 39.5294 16.8348 30.0297 21.8436 23.5906L28.7736 30.5206L30.5206 28.7736L23.5907 21.8437C30.0665 16.8061 39.5294 21.4664 39.5294 29.6471C39.5294 35.0962 35.0962 39.5294 29.6471 39.5294Z" fill="#B15252"/>
</g>
<defs>
<clipPath id="clip0_5045_6445">
<rect width="42" height="42" fill="white"/>
</clipPath>
</defs>
</svg>
