<svg width="43" height="42" viewBox="0 0 43 42" fill="none" xmlns="http://www.w3.org/2000/svg">
<g clip-path="url(#clip0_5045_6454)">
<mask id="path-1-outside-1_5045_6454" maskUnits="userSpaceOnUse" x="0" y="0" width="42" height="42" fill="black">
<rect fill="white" width="42" height="42"/>
<path d="M37.142 7.80067C37.142 7.266 36.934 6.76333 36.556 6.38667L35.614 5.444C34.9767 4.806 33.9393 4.71333 33.1767 5.15333C29.7093 2.48 25.4127 1 21 1C16.5873 1 12.2907 2.48 8.824 5.15333C8.06067 4.71333 7.02333 4.80533 6.38733 5.444L5.44467 6.386C5.06733 6.76333 4.85867 7.266 4.85867 7.80067C4.85867 8.16933 4.96467 8.52067 5.15067 8.82867C2.47867 12.2947 1 16.59 1 21C1 25.41 2.47867 29.7053 5.15 33.1713C4.964 33.4793 4.858 33.8307 4.858 34.1993C4.858 34.734 5.066 35.2367 5.444 35.6133L6.386 36.556C6.76333 36.9333 7.266 37.142 7.80067 37.142C8.16933 37.142 8.52067 37.036 8.82867 36.85C12.2947 39.5207 16.5893 41 21 41C25.4107 41 29.7053 39.5213 33.1713 36.85C33.4793 37.036 33.8307 37.142 34.1993 37.142C34.734 37.142 35.2367 36.934 35.6133 36.556L36.556 35.614C36.9333 35.2367 37.142 34.734 37.142 34.1993C37.142 33.8307 37.036 33.4793 36.85 33.1713C39.5207 29.7053 41 25.4107 41 21C41 16.5893 39.5213 12.2947 36.85 8.82867C37.036 8.52067 37.142 8.16933 37.142 7.80067ZM34.1993 6.19133C34.378 6.19133 34.5447 6.26067 34.6707 6.38667L35.6133 7.33C35.7393 7.45533 35.8087 7.622 35.8087 7.80067C35.8087 7.97933 35.7393 8.146 35.6133 8.272L29.9573 13.9287C29.6967 14.1893 29.2747 14.1893 29.014 13.9287L28.0713 12.986C27.8113 12.7253 27.8113 12.3033 28.0713 12.0427L33.728 6.38667C33.854 6.26133 34.0213 6.19133 34.1993 6.19133ZM30.0433 26.632C29.3653 26.4353 28.6047 26.5947 28.0713 27.1287L27.1287 28.0713C26.5953 28.6047 26.436 29.3653 26.632 30.0433C24.9493 31.1033 23.0167 31.6673 21 31.6673C18.9833 31.6673 17.0507 31.104 15.368 30.0433C15.5647 29.3653 15.4053 28.6047 14.8713 28.0713L13.9287 27.1287C13.3947 26.5947 12.6347 26.436 11.9567 26.632C10.8967 24.9493 10.3327 23.0167 10.3327 21C10.3327 18.9833 10.896 17.0507 11.956 15.3687C12.1387 15.4213 12.3253 15.4573 12.514 15.4573C13.026 15.4573 13.538 15.262 13.928 14.872L14.8707 13.9293C15.404 13.396 15.564 12.6353 15.3673 11.9573C17.0493 10.8973 18.9827 10.3333 20.9993 10.3333C23.016 10.3333 24.9487 10.8967 26.6313 11.9573C26.4347 12.6353 26.594 13.396 27.128 13.9293L28.0707 14.872C28.4607 15.262 28.9733 15.4573 29.4847 15.4573C29.6733 15.4573 29.86 15.422 30.0427 15.3687C31.1027 17.0507 31.666 18.984 31.666 21C31.666 23.016 31.1027 24.9493 30.042 26.632H30.0433ZM32.1667 6.06267L27.3767 10.852C25.474 9.64333 23.284 9 21 9C18.716 9 16.526 9.64333 14.6233 10.852L9.83333 6.06267C13.034 3.662 16.9633 2.33333 21 2.33333C25.0367 2.33333 28.966 3.662 32.1667 6.06267ZM6.38667 7.32933L7.33 6.38667C7.45533 6.26067 7.622 6.19133 7.80067 6.19133C7.97933 6.19133 8.146 6.26067 8.272 6.38667L13.9287 12.0427C14.1887 12.3033 14.1887 12.7253 13.9287 12.986L12.986 13.9287C12.7267 14.1887 12.3047 14.19 12.0427 13.9287L6.38667 8.272C6.26133 8.146 6.19133 7.97867 6.19133 7.80067C6.19133 7.62267 6.26067 7.45533 6.38667 7.32933ZM6.06267 9.83333L10.852 14.6233C9.64333 16.526 9 18.716 9 21C9 23.284 9.64333 25.474 10.852 27.3767L6.06267 32.1667C3.662 28.966 2.33333 25.0367 2.33333 21C2.33333 16.9633 3.662 13.034 6.06267 9.83333ZM7.32933 35.6133L6.38667 34.67C6.26067 34.5447 6.19133 34.378 6.19133 34.1993C6.19133 34.0207 6.26067 33.854 6.38667 33.728L12.0427 28.0713C12.1727 27.9413 12.3433 27.876 12.5147 27.876C12.686 27.876 12.856 27.9413 12.986 28.0713L13.9287 29.014C14.1887 29.2747 14.1887 29.6967 13.9287 29.9573L8.272 35.6133C8.01933 35.8653 7.582 35.866 7.32933 35.6133ZM9.83333 35.9373L14.6233 31.148C16.526 32.3567 18.716 33 21 33C23.284 33 25.474 32.3567 27.3767 31.148L32.1667 35.9373C28.966 38.338 25.0367 39.6667 21 39.6667C16.9633 39.6667 13.034 38.338 9.83333 35.9373ZM35.6133 34.6707L34.67 35.6133C34.4193 35.866 33.9813 35.8647 33.728 35.6133L28.0713 29.9573C27.8113 29.6967 27.8113 29.2747 28.0713 29.014L29.014 28.0713C29.144 27.9413 29.3147 27.876 29.486 27.876C29.6573 27.876 29.8273 27.9413 29.9573 28.0713L35.6133 33.728C35.7387 33.854 35.8087 34.0213 35.8087 34.1993C35.8087 34.3773 35.7393 34.5447 35.6133 34.6707ZM35.9373 32.1667L31.148 27.3767C32.3567 25.474 33 23.284 33 21C33 18.716 32.3567 16.526 31.148 14.6233L35.9373 9.83333C38.338 13.034 39.6667 16.9633 39.6667 21C39.6667 25.0367 38.338 28.966 35.9373 32.1667Z"/>
</mask>
<path d="M37.142 7.80067C37.142 7.266 36.934 6.76333 36.556 6.38667L35.614 5.444C34.9767 4.806 33.9393 4.71333 33.1767 5.15333C29.7093 2.48 25.4127 1 21 1C16.5873 1 12.2907 2.48 8.824 5.15333C8.06067 4.71333 7.02333 4.80533 6.38733 5.444L5.44467 6.386C5.06733 6.76333 4.85867 7.266 4.85867 7.80067C4.85867 8.16933 4.96467 8.52067 5.15067 8.82867C2.47867 12.2947 1 16.59 1 21C1 25.41 2.47867 29.7053 5.15 33.1713C4.964 33.4793 4.858 33.8307 4.858 34.1993C4.858 34.734 5.066 35.2367 5.444 35.6133L6.386 36.556C6.76333 36.9333 7.266 37.142 7.80067 37.142C8.16933 37.142 8.52067 37.036 8.82867 36.85C12.2947 39.5207 16.5893 41 21 41C25.4107 41 29.7053 39.5213 33.1713 36.85C33.4793 37.036 33.8307 37.142 34.1993 37.142C34.734 37.142 35.2367 36.934 35.6133 36.556L36.556 35.614C36.9333 35.2367 37.142 34.734 37.142 34.1993C37.142 33.8307 37.036 33.4793 36.85 33.1713C39.5207 29.7053 41 25.4107 41 21C41 16.5893 39.5213 12.2947 36.85 8.82867C37.036 8.52067 37.142 8.16933 37.142 7.80067ZM34.1993 6.19133C34.378 6.19133 34.5447 6.26067 34.6707 6.38667L35.6133 7.33C35.7393 7.45533 35.8087 7.622 35.8087 7.80067C35.8087 7.97933 35.7393 8.146 35.6133 8.272L29.9573 13.9287C29.6967 14.1893 29.2747 14.1893 29.014 13.9287L28.0713 12.986C27.8113 12.7253 27.8113 12.3033 28.0713 12.0427L33.728 6.38667C33.854 6.26133 34.0213 6.19133 34.1993 6.19133ZM30.0433 26.632C29.3653 26.4353 28.6047 26.5947 28.0713 27.1287L27.1287 28.0713C26.5953 28.6047 26.436 29.3653 26.632 30.0433C24.9493 31.1033 23.0167 31.6673 21 31.6673C18.9833 31.6673 17.0507 31.104 15.368 30.0433C15.5647 29.3653 15.4053 28.6047 14.8713 28.0713L13.9287 27.1287C13.3947 26.5947 12.6347 26.436 11.9567 26.632C10.8967 24.9493 10.3327 23.0167 10.3327 21C10.3327 18.9833 10.896 17.0507 11.956 15.3687C12.1387 15.4213 12.3253 15.4573 12.514 15.4573C13.026 15.4573 13.538 15.262 13.928 14.872L14.8707 13.9293C15.404 13.396 15.564 12.6353 15.3673 11.9573C17.0493 10.8973 18.9827 10.3333 20.9993 10.3333C23.016 10.3333 24.9487 10.8967 26.6313 11.9573C26.4347 12.6353 26.594 13.396 27.128 13.9293L28.0707 14.872C28.4607 15.262 28.9733 15.4573 29.4847 15.4573C29.6733 15.4573 29.86 15.422 30.0427 15.3687C31.1027 17.0507 31.666 18.984 31.666 21C31.666 23.016 31.1027 24.9493 30.042 26.632H30.0433ZM32.1667 6.06267L27.3767 10.852C25.474 9.64333 23.284 9 21 9C18.716 9 16.526 9.64333 14.6233 10.852L9.83333 6.06267C13.034 3.662 16.9633 2.33333 21 2.33333C25.0367 2.33333 28.966 3.662 32.1667 6.06267ZM6.38667 7.32933L7.33 6.38667C7.45533 6.26067 7.622 6.19133 7.80067 6.19133C7.97933 6.19133 8.146 6.26067 8.272 6.38667L13.9287 12.0427C14.1887 12.3033 14.1887 12.7253 13.9287 12.986L12.986 13.9287C12.7267 14.1887 12.3047 14.19 12.0427 13.9287L6.38667 8.272C6.26133 8.146 6.19133 7.97867 6.19133 7.80067C6.19133 7.62267 6.26067 7.45533 6.38667 7.32933ZM6.06267 9.83333L10.852 14.6233C9.64333 16.526 9 18.716 9 21C9 23.284 9.64333 25.474 10.852 27.3767L6.06267 32.1667C3.662 28.966 2.33333 25.0367 2.33333 21C2.33333 16.9633 3.662 13.034 6.06267 9.83333ZM7.32933 35.6133L6.38667 34.67C6.26067 34.5447 6.19133 34.378 6.19133 34.1993C6.19133 34.0207 6.26067 33.854 6.38667 33.728L12.0427 28.0713C12.1727 27.9413 12.3433 27.876 12.5147 27.876C12.686 27.876 12.856 27.9413 12.986 28.0713L13.9287 29.014C14.1887 29.2747 14.1887 29.6967 13.9287 29.9573L8.272 35.6133C8.01933 35.8653 7.582 35.866 7.32933 35.6133ZM9.83333 35.9373L14.6233 31.148C16.526 32.3567 18.716 33 21 33C23.284 33 25.474 32.3567 27.3767 31.148L32.1667 35.9373C28.966 38.338 25.0367 39.6667 21 39.6667C16.9633 39.6667 13.034 38.338 9.83333 35.9373ZM35.6133 34.6707L34.67 35.6133C34.4193 35.866 33.9813 35.8647 33.728 35.6133L28.0713 29.9573C27.8113 29.6967 27.8113 29.2747 28.0713 29.014L29.014 28.0713C29.144 27.9413 29.3147 27.876 29.486 27.876C29.6573 27.876 29.8273 27.9413 29.9573 28.0713L35.6133 33.728C35.7387 33.854 35.8087 34.0213 35.8087 34.1993C35.8087 34.3773 35.7393 34.5447 35.6133 34.6707ZM35.9373 32.1667L31.148 27.3767C32.3567 25.474 33 23.284 33 21C33 18.716 32.3567 16.526 31.148 14.6233L35.9373 9.83333C38.338 13.034 39.6667 16.9633 39.6667 21C39.6667 25.0367 38.338 28.966 35.9373 32.1667Z" fill="#B15252"/>
<path d="M37.142 7.80067C37.142 7.266 36.934 6.76333 36.556 6.38667L35.614 5.444C34.9767 4.806 33.9393 4.71333 33.1767 5.15333C29.7093 2.48 25.4127 1 21 1C16.5873 1 12.2907 2.48 8.824 5.15333C8.06067 4.71333 7.02333 4.80533 6.38733 5.444L5.44467 6.386C5.06733 6.76333 4.85867 7.266 4.85867 7.80067C4.85867 8.16933 4.96467 8.52067 5.15067 8.82867C2.47867 12.2947 1 16.59 1 21C1 25.41 2.47867 29.7053 5.15 33.1713C4.964 33.4793 4.858 33.8307 4.858 34.1993C4.858 34.734 5.066 35.2367 5.444 35.6133L6.386 36.556C6.76333 36.9333 7.266 37.142 7.80067 37.142C8.16933 37.142 8.52067 37.036 8.82867 36.85C12.2947 39.5207 16.5893 41 21 41C25.4107 41 29.7053 39.5213 33.1713 36.85C33.4793 37.036 33.8307 37.142 34.1993 37.142C34.734 37.142 35.2367 36.934 35.6133 36.556L36.556 35.614C36.9333 35.2367 37.142 34.734 37.142 34.1993C37.142 33.8307 37.036 33.4793 36.85 33.1713C39.5207 29.7053 41 25.4107 41 21C41 16.5893 39.5213 12.2947 36.85 8.82867C37.036 8.52067 37.142 8.16933 37.142 7.80067ZM34.1993 6.19133C34.378 6.19133 34.5447 6.26067 34.6707 6.38667L35.6133 7.33C35.7393 7.45533 35.8087 7.622 35.8087 7.80067C35.8087 7.97933 35.7393 8.146 35.6133 8.272L29.9573 13.9287C29.6967 14.1893 29.2747 14.1893 29.014 13.9287L28.0713 12.986C27.8113 12.7253 27.8113 12.3033 28.0713 12.0427L33.728 6.38667C33.854 6.26133 34.0213 6.19133 34.1993 6.19133ZM30.0433 26.632C29.3653 26.4353 28.6047 26.5947 28.0713 27.1287L27.1287 28.0713C26.5953 28.6047 26.436 29.3653 26.632 30.0433C24.9493 31.1033 23.0167 31.6673 21 31.6673C18.9833 31.6673 17.0507 31.104 15.368 30.0433C15.5647 29.3653 15.4053 28.6047 14.8713 28.0713L13.9287 27.1287C13.3947 26.5947 12.6347 26.436 11.9567 26.632C10.8967 24.9493 10.3327 23.0167 10.3327 21C10.3327 18.9833 10.896 17.0507 11.956 15.3687C12.1387 15.4213 12.3253 15.4573 12.514 15.4573C13.026 15.4573 13.538 15.262 13.928 14.872L14.8707 13.9293C15.404 13.396 15.564 12.6353 15.3673 11.9573C17.0493 10.8973 18.9827 10.3333 20.9993 10.3333C23.016 10.3333 24.9487 10.8967 26.6313 11.9573C26.4347 12.6353 26.594 13.396 27.128 13.9293L28.0707 14.872C28.4607 15.262 28.9733 15.4573 29.4847 15.4573C29.6733 15.4573 29.86 15.422 30.0427 15.3687C31.1027 17.0507 31.666 18.984 31.666 21C31.666 23.016 31.1027 24.9493 30.042 26.632H30.0433ZM32.1667 6.06267L27.3767 10.852C25.474 9.64333 23.284 9 21 9C18.716 9 16.526 9.64333 14.6233 10.852L9.83333 6.06267C13.034 3.662 16.9633 2.33333 21 2.33333C25.0367 2.33333 28.966 3.662 32.1667 6.06267ZM6.38667 7.32933L7.33 6.38667C7.45533 6.26067 7.622 6.19133 7.80067 6.19133C7.97933 6.19133 8.146 6.26067 8.272 6.38667L13.9287 12.0427C14.1887 12.3033 14.1887 12.7253 13.9287 12.986L12.986 13.9287C12.7267 14.1887 12.3047 14.19 12.0427 13.9287L6.38667 8.272C6.26133 8.146 6.19133 7.97867 6.19133 7.80067C6.19133 7.62267 6.26067 7.45533 6.38667 7.32933ZM6.06267 9.83333L10.852 14.6233C9.64333 16.526 9 18.716 9 21C9 23.284 9.64333 25.474 10.852 27.3767L6.06267 32.1667C3.662 28.966 2.33333 25.0367 2.33333 21C2.33333 16.9633 3.662 13.034 6.06267 9.83333ZM7.32933 35.6133L6.38667 34.67C6.26067 34.5447 6.19133 34.378 6.19133 34.1993C6.19133 34.0207 6.26067 33.854 6.38667 33.728L12.0427 28.0713C12.1727 27.9413 12.3433 27.876 12.5147 27.876C12.686 27.876 12.856 27.9413 12.986 28.0713L13.9287 29.014C14.1887 29.2747 14.1887 29.6967 13.9287 29.9573L8.272 35.6133C8.01933 35.8653 7.582 35.866 7.32933 35.6133ZM9.83333 35.9373L14.6233 31.148C16.526 32.3567 18.716 33 21 33C23.284 33 25.474 32.3567 27.3767 31.148L32.1667 35.9373C28.966 38.338 25.0367 39.6667 21 39.6667C16.9633 39.6667 13.034 38.338 9.83333 35.9373ZM35.6133 34.6707L34.67 35.6133C34.4193 35.866 33.9813 35.8647 33.728 35.6133L28.0713 29.9573C27.8113 29.6967 27.8113 29.2747 28.0713 29.014L29.014 28.0713C29.144 27.9413 29.3147 27.876 29.486 27.876C29.6573 27.876 29.8273 27.9413 29.9573 28.0713L35.6133 33.728C35.7387 33.854 35.8087 34.0213 35.8087 34.1993C35.8087 34.3773 35.7393 34.5447 35.6133 34.6707ZM35.9373 32.1667L31.148 27.3767C32.3567 25.474 33 23.284 33 21C33 18.716 32.3567 16.526 31.148 14.6233L35.9373 9.83333C38.338 13.034 39.6667 16.9633 39.6667 21C39.6667 25.0367 38.338 28.966 35.9373 32.1667Z" stroke="#B15252" mask="url(#path-1-outside-1_5045_6454)"/>
<path d="M21 14.75C23.3354 14.75 25.25 16.5836 25.25 18.8574C25.2499 20.8246 23.815 22.4617 21.917 22.8672V23.3574C21.9168 23.8594 21.498 24.25 21 24.25C20.502 24.25 20.0832 23.8594 20.083 23.3574V22.0713C20.0831 21.5693 20.502 21.1787 21 21.1787C22.3411 21.1787 23.4168 20.1289 23.417 18.8574C23.417 17.5858 22.3412 16.5361 21 16.5361C19.6588 16.5361 18.583 17.5858 18.583 18.8574C18.5829 19.3592 18.1648 19.7498 17.667 19.75C17.169 19.75 16.7502 19.3594 16.75 18.8574C16.75 16.5836 18.6646 14.75 21 14.75Z" fill="#B15252" stroke="#B15252" stroke-width="0.5"/>
<path d="M21 25.75C21.3058 25.75 21.5951 25.8098 21.8174 25.9189C22.0247 26.0207 22.25 26.2085 22.25 26.4932V26.502C22.25 26.7857 22.0257 26.9749 21.8184 27.0781C21.596 27.1887 21.3065 27.25 21 27.25C20.6935 27.25 20.404 27.1887 20.1816 27.0781C19.9743 26.9749 19.75 26.7857 19.75 26.502C19.7502 26.2194 19.9725 26.0293 20.1797 25.9248C20.4021 25.8127 20.6926 25.75 21 25.75Z" fill="#B15252" stroke="#B15252" stroke-width="0.5"/>
</g>
<defs>
<clipPath id="clip0_5045_6454">
<rect width="42" height="42" fill="white" transform="translate(0.664062)"/>
</clipPath>
</defs>
</svg>
