<svg width="43" height="42" viewBox="0 0 43 42" fill="none" xmlns="http://www.w3.org/2000/svg">
<g clip-path="url(#clip0_5045_6464)">
<path d="M9.62571 12H2.04616C1.8578 12 1.67715 12.0776 1.54396 12.2157C1.41076 12.3538 1.33594 12.5411 1.33594 12.7365V39.2635C1.33594 39.4589 1.41076 39.6462 1.54396 39.7843C1.67715 39.9224 1.8578 40 2.04616 40H9.62571C9.81407 40 9.99472 39.9224 10.1279 39.7843C10.2611 39.6462 10.3359 39.4589 10.3359 39.2635V12.7365C10.3359 12.5411 10.2611 12.3538 10.1279 12.2157C9.99472 12.0776 9.81407 12 9.62571 12ZM8.91548 38.5271H2.75639V13.4729H8.91548V38.5271Z" fill="#B15252"/>
<path d="M15.3111 21.9449C15.6367 23.237 16.2177 24.4421 17.0161 25.4813C17.8144 26.5205 18.8121 27.3704 19.9437 27.9753C19.9677 27.9879 19.9904 28.0013 20.0157 28.0118C20.9961 28.5272 22.0583 28.8475 23.1491 28.9565C23.1537 28.9567 23.1584 28.9567 23.1631 28.9565H23.1717C23.4417 28.9824 23.7137 29 23.9897 29C25.2686 28.9994 26.5325 28.7103 27.6965 28.1524C28.8606 27.5944 29.8978 26.7803 30.7384 25.765C30.7511 25.7523 30.7611 25.739 30.7731 25.7256C31.7947 24.4956 32.4972 23.0083 32.8123 21.4079C33.1275 19.8075 33.0446 18.1485 32.5718 16.5918C32.0989 15.0351 31.2521 13.6336 30.1136 12.5234C28.9751 11.4131 27.5835 10.6318 26.0738 10.2551C24.5641 9.87853 22.9877 9.91945 21.4975 10.3739C20.0072 10.8284 18.6538 11.681 17.5686 12.849C16.4833 14.017 15.7031 15.4607 15.3035 17.04C14.904 18.6193 14.8988 20.2806 15.2884 21.8627C15.2945 21.8905 15.302 21.918 15.3111 21.9449ZM16.8344 22.3663H19.5797V26.1126C18.3303 25.1795 17.3743 23.8741 16.8344 22.3642V22.3663ZM23.9924 27.5988C23.9384 27.5988 23.8864 27.5918 23.8324 27.5904V17.9541H29.6197V24.9776C28.9057 25.8018 28.0366 26.4603 27.0677 26.9112C26.0989 27.3621 25.0516 27.5956 23.9924 27.5967V27.5988ZM23.9924 11.4694C25.2738 11.4668 26.5353 11.8038 27.6606 12.4494C28.786 13.0951 29.7392 14.0285 30.4324 15.1639C31.1257 16.2993 31.5367 17.6002 31.6276 18.9468C31.7186 20.2934 31.4866 21.6425 30.9531 22.8699V17.2511C30.9531 17.0648 30.8828 16.8862 30.7578 16.7545C30.6328 16.6227 30.4632 16.5487 30.2864 16.5487H23.1657C22.9889 16.5487 22.8193 16.6227 22.6943 16.7545C22.5693 16.8862 22.499 17.0648 22.499 17.2511V27.4408C21.9535 27.3254 21.4217 27.1474 20.913 26.9098V21.6618C20.913 21.4756 20.8428 21.2969 20.7178 21.1652C20.5928 21.0335 20.4232 20.9595 20.2464 20.9595H16.4651C16.2608 19.7979 16.3024 18.6032 16.5868 17.4606C16.8712 16.3179 17.3914 15.2554 18.1103 14.3488C18.8292 13.4422 19.7291 12.714 20.7458 12.2159C21.7626 11.7178 22.8711 11.4622 23.9924 11.4672V11.4694Z" fill="#B15252"/>
<path d="M35.3839 27.8858C35.2591 27.745 35.09 27.6659 34.9137 27.6659C34.7373 27.6659 34.5682 27.745 34.4435 27.8858L33.4964 28.9552L32.5973 27.9398C33.9167 26.291 34.844 24.291 35.2925 22.1271C35.7409 19.9633 35.6958 17.7063 35.1614 15.5675C34.6269 13.4287 33.6207 11.478 32.2367 9.898C30.8528 8.31799 29.1364 7.16035 27.2483 6.53344C25.3603 5.90653 23.3622 5.83085 21.4412 6.31349C19.5201 6.79612 17.7389 7.82129 16.2643 9.29303C14.7898 10.7648 13.67 12.6349 13.0098 14.7285C12.3497 16.8221 12.1708 19.0705 12.4898 21.2635C12.4627 21.3421 12.4478 21.4254 12.4459 21.5098V39.1207C12.4459 39.3199 12.516 39.5109 12.6407 39.6518C12.7654 39.7926 12.9346 39.8717 13.111 39.8717H20.2072C20.3835 39.8717 20.5527 39.7926 20.6774 39.6518C20.8022 39.5109 20.8722 39.3199 20.8722 39.1207V31.8601C21.3915 32.0219 21.9202 32.1423 22.4544 32.2206V39.1207C22.4544 39.3199 22.5245 39.5109 22.6492 39.6518C22.7739 39.7926 22.9431 39.8717 23.1195 39.8717H30.223C30.3994 39.8717 30.5685 39.7926 30.6933 39.6518C30.818 39.5109 30.888 39.3199 30.888 39.1207V29.7122C31.1541 29.4869 31.4101 29.2511 31.6575 29.0018L32.5593 30.0171L31.611 31.088C31.4863 31.2289 31.4163 31.4199 31.4163 31.619C31.4163 31.8181 31.4863 32.0091 31.611 32.15L38.368 39.7801C38.4927 39.9209 38.6618 40 38.8382 40C39.0145 40 39.1837 39.9209 39.3084 39.7801L42.1409 36.5801C42.2027 36.5104 42.2518 36.4275 42.2852 36.3364C42.3187 36.2452 42.3359 36.1475 42.3359 36.0488C42.3359 35.9501 42.3187 35.8524 42.2852 35.7612C42.2518 35.67 42.2027 35.5872 42.1409 35.5174L35.3839 27.8858ZM23.9448 7.62605C25.9777 7.62605 27.965 8.30679 29.6553 9.58218C31.3456 10.8576 32.6631 12.6703 33.441 14.7912C34.2189 16.9121 34.4224 19.2459 34.0258 21.4974C33.6291 23.7489 32.6501 25.817 31.2126 27.4402C29.775 29.0634 27.9435 30.1688 25.9496 30.6165C23.9558 31.0643 21.8891 30.8343 20.0109 29.9557C18.1328 29.0771 16.5275 27.5894 15.3982 25.6805C14.2689 23.7717 13.6662 21.5276 13.6663 19.232C13.6695 16.155 14.7533 13.2051 16.6801 11.0293C18.6069 8.85354 21.2199 7.62963 23.9448 7.62605ZM19.5421 38.3697H13.776V25.5404C15.058 28.1608 17.0915 30.2104 19.5421 31.3524V38.3697ZM29.5579 38.3697H23.7845V32.3317C23.8384 32.3317 23.8903 32.3407 23.9441 32.3407C25.9088 32.3422 27.8411 31.7768 29.5579 30.6983V38.3697ZM38.8349 38.1872L33.0182 31.619L34.9137 29.4786L40.7303 36.0476L38.8349 38.1872Z" fill="#B15252"/>
</g>
<defs>
<clipPath id="clip0_5045_6464">
<rect width="42" height="42" fill="white" transform="translate(0.335938)"/>
</clipPath>
</defs>
</svg>
