<svg width="42" height="42" viewBox="0 0 42 42" fill="none" xmlns="http://www.w3.org/2000/svg">
<mask id="path-1-outside-1_2045_7070" maskUnits="userSpaceOnUse" x="1.51562" y="-0.0976562" width="39" height="42" fill="black">
<rect fill="white" x="1.51562" y="-0.0976562" width="39" height="42"/>
<path d="M20.5157 26.122C20.5633 26.1417 20.6749 26.2032 20.6888 26.3575L20.784 27.3796C20.8365 27.9464 21.2696 28.3836 21.8356 28.4427C22.094 28.4698 22.3541 28.4829 22.6141 28.4829C22.893 28.4829 23.1727 28.4673 23.45 28.4361C24.016 28.373 24.4459 27.9325 24.4934 27.3648L24.5804 26.3411C24.5935 26.1868 24.7043 26.1245 24.7518 26.1048C24.7986 26.0851 24.9216 26.0498 25.0406 26.1483L25.8305 26.8037C26.2686 27.1671 26.8838 27.1712 27.326 26.8119C27.7443 26.4723 28.1274 26.0859 28.4638 25.6651C28.8189 25.2197 28.8107 24.6053 28.4432 24.1697L27.7812 23.3855C27.6812 23.2673 27.7156 23.1443 27.7353 23.0967C27.755 23.0491 27.8165 22.9376 27.9707 22.9236L28.9929 22.8285C29.5597 22.776 29.9969 22.3437 30.056 21.7768C30.1118 21.2412 30.1093 20.6981 30.0502 20.1625C29.9871 19.5956 29.5466 19.1666 28.9789 19.1182L27.956 19.0312C27.8018 19.0181 27.7394 18.9074 27.7197 18.8598C27.7 18.813 27.6648 18.69 27.7632 18.5711L28.4186 17.7811C28.7829 17.343 28.7861 16.7278 28.4268 16.2857C28.0872 15.8673 27.7009 15.4842 27.28 15.1479C26.8346 14.7927 26.2202 14.8009 25.7846 15.1684L25.0004 15.8304C24.8823 15.9305 24.7592 15.896 24.7116 15.8763C24.6641 15.8566 24.5525 15.7951 24.5386 15.6409L24.4434 14.6188C24.3909 14.052 23.9586 13.6147 23.3918 13.5557C22.8561 13.4999 22.313 13.5023 21.7766 13.5614C21.2105 13.6246 20.7807 14.0651 20.7331 14.6327L20.6462 15.6557C20.633 15.8099 20.5223 15.8722 20.4747 15.8919C20.4271 15.9116 20.3049 15.9469 20.186 15.8484L19.396 15.193C18.958 14.8288 18.3427 14.8255 17.9006 15.1848C17.4822 15.5244 17.0991 15.9108 16.7628 16.3316C16.4076 16.777 16.4158 17.3914 16.7833 17.827L17.4453 18.6112C17.5454 18.7294 17.5109 18.8524 17.4913 18.9C17.4716 18.9476 17.41 19.0591 17.2558 19.0731L16.2337 19.1682C15.6669 19.2207 15.2296 19.653 15.1706 20.2199C15.1148 20.7555 15.1173 21.2986 15.1763 21.8343C15.2395 22.4011 15.68 22.8301 16.2477 22.8785L17.2706 22.9655C17.4248 22.9786 17.4871 23.0893 17.5068 23.1369C17.5265 23.1837 17.5618 23.3067 17.4634 23.4257L16.8079 24.2156C16.4437 24.6537 16.4404 25.2689 16.7997 25.7111C17.1393 26.1294 17.5257 26.5125 17.9465 26.8488C18.3911 27.204 19.0064 27.1958 19.442 26.8283L20.2262 26.1663C20.3451 26.0687 20.4682 26.1032 20.5157 26.122ZM18.9137 26.2032C18.7791 26.3164 18.597 26.3189 18.4592 26.209C18.0835 25.9096 17.7398 25.5683 17.4371 25.1951C17.3264 25.0581 17.3272 24.876 17.4396 24.7406L18.095 23.9507C18.3583 23.6332 18.4231 23.2009 18.264 22.8211C18.1048 22.4413 17.7513 22.1845 17.3403 22.1493L16.3166 22.0623C16.141 22.0475 16.0106 21.9196 15.9909 21.7448C15.9376 21.2674 15.9359 20.7834 15.9852 20.306C16.0032 20.1313 16.1328 20.0025 16.3084 19.9861L17.3305 19.8909C17.7414 19.8532 18.0934 19.5923 18.2492 19.2117C18.4051 18.8311 18.337 18.3988 18.0712 18.0838L17.4092 17.2996C17.296 17.165 17.2936 16.9821 17.4027 16.8451C17.7021 16.4702 18.0433 16.1257 18.4166 15.823C18.5527 15.7123 18.7357 15.7131 18.871 15.8255L19.661 16.4809C19.9784 16.7442 20.4116 16.809 20.7905 16.6499C21.1704 16.4907 21.4271 16.1372 21.4624 15.7262L21.5493 14.7033C21.5641 14.5277 21.6921 14.3973 21.8668 14.3776C22.3442 14.3243 22.8282 14.3227 23.3056 14.3719C23.4804 14.3899 23.6091 14.5195 23.6255 14.6951L23.7207 15.7172C23.7584 16.1273 24.0193 16.4793 24.3999 16.6359C24.7805 16.7918 25.2129 16.7237 25.5279 16.4579L26.3121 15.7959C26.4466 15.6827 26.6287 15.6803 26.7665 15.7902C27.1422 16.0896 27.4859 16.4309 27.7886 16.8041C27.8994 16.9411 27.8986 17.1232 27.7862 17.2586L27.1307 18.0485C26.8674 18.366 26.8026 18.7983 26.9618 19.1781C27.1209 19.5579 27.4745 19.8146 27.8854 19.8499L28.9092 19.9369C29.0847 19.9516 29.2152 20.0796 29.2348 20.2543C29.2882 20.7318 29.2898 21.2157 29.2406 21.6932C29.2225 21.8679 29.0929 21.9967 28.9174 22.0131L27.8953 22.1082C27.4851 22.146 27.1332 22.4068 26.9765 22.7875C26.8207 23.1681 26.8887 23.6004 27.1545 23.9154L27.8165 24.6996C27.9297 24.8341 27.9322 25.0171 27.8231 25.1541C27.5237 25.5298 27.1824 25.8735 26.8092 26.1762C26.673 26.2869 26.4901 26.2861 26.3547 26.1737L25.5648 25.5183C25.2473 25.255 24.815 25.1902 24.4352 25.3493C24.0554 25.5084 23.7986 25.862 23.7634 26.273L23.6764 27.2967C23.6616 27.4723 23.5337 27.6027 23.3589 27.6224C22.8815 27.6757 22.3967 27.6773 21.9201 27.6281C21.7454 27.6101 21.6166 27.4805 21.6002 27.3049L21.505 26.2828C21.4665 25.8727 21.2064 25.5207 20.8258 25.3641C20.6905 25.3091 20.5486 25.282 20.4083 25.282C20.1532 25.282 19.9013 25.3714 19.6979 25.5429L18.9137 26.2032ZM25.97 21C25.97 19.1486 24.4639 17.6433 22.6133 17.6433C20.7627 17.6433 19.2566 19.1494 19.2566 21C19.2566 22.8506 20.7627 24.3567 22.6133 24.3567C24.4639 24.3567 25.97 22.8514 25.97 21ZM20.0769 21C20.0769 19.6014 21.2146 18.4636 22.6133 18.4636C24.0119 18.4636 25.1497 19.6014 25.1497 21C25.1497 22.3986 24.0119 23.5364 22.6133 23.5364C21.2146 23.5364 20.0769 22.3986 20.0769 21ZM31.1511 8.31059C31.2832 8.12602 31.5391 8.08336 31.7229 8.21543C34.5833 10.2572 36.7005 13.2407 37.6857 16.6154C38.5987 19.7441 38.506 23.1082 37.4355 26.177L38.4716 25.6216C38.6717 25.515 38.9195 25.5896 39.0269 25.7898C39.1336 25.9891 39.0589 26.2377 38.8587 26.3452L36.8432 27.4255C36.7834 27.4575 36.7169 27.4739 36.6496 27.4739C36.6095 27.4739 36.5701 27.4682 36.5307 27.4567C36.4265 27.4255 36.3396 27.3533 36.2879 27.2582L35.2075 25.2427C35.1009 25.0433 35.1755 24.7948 35.3757 24.6873C35.575 24.5807 35.8236 24.6553 35.9311 24.8555L36.5947 26.095C38.8924 19.8138 36.7423 12.8075 31.2463 8.8848C31.0625 8.75109 31.019 8.49516 31.1511 8.31059ZM29.4235 34.6951C29.5187 34.9002 29.4301 35.1446 29.2242 35.2398C26.6394 36.4416 23.7978 36.9108 20.9604 36.6114L21.7462 37.6023C21.8873 37.7795 21.857 38.0379 21.6798 38.1782C21.6043 38.238 21.5149 38.2668 21.4255 38.2668C21.3049 38.2668 21.1851 38.2134 21.1039 38.1117L19.6831 36.3193C19.542 36.1421 19.5724 35.8838 19.7496 35.7435L21.542 34.3227C21.7191 34.1816 21.9775 34.212 22.1178 34.3891C22.2589 34.5663 22.2286 34.8247 22.0514 34.965L21.0096 35.7911C23.7117 36.0831 26.4179 35.6401 28.8788 34.4958C29.0839 34.4014 29.3275 34.49 29.4235 34.6951ZM9.33078 29.3696C7.21109 26.0121 6.44902 22.0114 7.18566 18.1035C7.87063 14.4679 9.79426 11.2227 12.6334 8.88398L11.4324 8.80031C11.2068 8.78473 11.0362 8.58867 11.0518 8.36309C11.0674 8.1375 11.2634 7.96687 11.489 7.98246L13.7703 8.14078C13.9959 8.15637 14.1665 8.35242 14.1509 8.57801L13.9926 10.8593C13.977 11.0849 13.781 11.2547 13.5554 11.2399C13.3298 11.2243 13.1592 11.0283 13.1748 10.8027L13.2707 9.42375C7.45473 14.1258 6.0077 22.5693 10.0256 28.9316C10.1462 29.1227 10.0896 29.3762 9.89762 29.4976C9.82953 29.5403 9.75406 29.5608 9.67941 29.5608C9.5416 29.5608 9.40871 29.4927 9.33078 29.3696ZM16.5077 10.984H28.7189C29.1134 10.984 29.4342 10.6632 29.4342 10.2687V3.74965C29.4342 3.51832 29.3218 3.30012 29.1339 3.16641C28.9461 3.0327 28.7033 2.99824 28.4851 3.07371L24.1456 4.5757V3.74965C24.1456 3.51832 24.0332 3.30012 23.8454 3.16641C23.6575 3.0327 23.4147 2.99824 23.1965 3.07371L18.8571 4.5757V1.61766C18.8571 1.22309 18.5363 0.902344 18.1418 0.902344H16.5077C16.1131 0.902344 15.7924 1.22309 15.7924 1.61766V10.2687C15.7924 10.6632 16.1131 10.984 16.5077 10.984ZM24.1456 5.44359L28.6139 3.8973V10.1637H24.1456V5.44359ZM18.8571 5.44359L23.3253 3.8973V10.1637H18.8571V5.44359ZM16.6127 10.1637V3.07289H18.0368V10.1629H16.6127V10.1637ZM18.0368 1.72266V2.25258H16.6127V1.72266H18.0368ZM21.9939 6.02109H20.1893C19.9629 6.02109 19.7791 6.20484 19.7791 6.43125V8.23594C19.7791 8.46234 19.9629 8.64609 20.1893 8.64609H21.9939C22.2204 8.64609 22.4041 8.46234 22.4041 8.23594V6.43125C22.4041 6.20484 22.2204 6.02109 21.9939 6.02109ZM21.5838 7.82578H20.5994V6.84141H21.5838V7.82578ZM27.2817 6.02109H25.477C25.2506 6.02109 25.0668 6.20484 25.0668 6.43125V8.23594C25.0668 8.46234 25.2506 8.64609 25.477 8.64609H27.2817C27.5081 8.64609 27.6918 8.46234 27.6918 8.23594V6.43125C27.6918 6.20484 27.5089 6.02109 27.2817 6.02109ZM26.8715 7.82578H25.8871V6.84141H26.8715V7.82578ZM16.6923 33.9478C16.4109 33.4425 15.8982 33.1414 15.3199 33.1414H13.0665V32.477C13.0665 31.7732 12.4939 31.2006 11.7901 31.2006H3.79203C3.0882 31.2006 2.51562 31.7732 2.51562 32.477V38.5104C2.51562 39.1404 2.975 39.6637 3.57629 39.7671C3.75348 40.5284 4.43598 41.0977 5.24973 41.0977C6.05691 41.0977 6.73367 40.5382 6.91824 39.7876H13.5488C13.7334 40.5382 14.411 41.0977 15.2173 41.0977C16.0262 41.0977 16.7054 40.5357 16.8875 39.7819C17.4839 39.722 17.9514 39.2167 17.9514 38.6039V36.6196C17.9514 36.3415 17.8883 36.0987 17.7529 35.8559L16.6923 33.9478ZM15.9753 34.3473L17.0122 36.2094H14.8859C14.6858 36.2094 14.5225 36.0462 14.5225 35.846V33.9618H15.3199C15.6045 33.9618 15.8375 34.0988 15.9753 34.3473ZM5.24973 40.2773C4.75344 40.2773 4.34984 39.8737 4.34984 39.3775C4.34984 38.8812 4.75344 38.4776 5.24973 38.4776C5.74602 38.4776 6.14961 38.8812 6.14961 39.3775C6.14961 39.8737 5.74602 40.2773 5.24973 40.2773ZM5.24973 37.6573C4.45977 37.6573 3.79367 38.1937 3.5927 38.9214C3.44094 38.8475 3.33512 38.6917 3.33512 38.5112V32.4778C3.33512 32.226 3.5402 32.0217 3.79121 32.0217H11.7901C12.0419 32.0217 12.2462 32.2268 12.2462 32.4778V38.9673H6.91906C6.73367 38.2167 6.05691 37.6573 5.24973 37.6573ZM15.2182 40.2773C14.7219 40.2773 14.3183 39.8737 14.3183 39.3775C14.3183 38.8812 14.7219 38.4776 15.2182 38.4776C15.7145 38.4776 16.118 38.8812 16.118 39.3775C16.118 39.8737 15.7145 40.2773 15.2182 40.2773ZM16.8818 38.9476C16.6898 38.2069 16.018 37.6573 15.2182 37.6573C14.411 37.6573 13.7342 38.2167 13.5496 38.9673H13.0673V33.9626H13.7022V35.8468C13.7022 36.4998 14.233 37.0305 14.8859 37.0305H17.1328V38.6047C17.1328 38.7647 17.027 38.9 16.8818 38.9476ZM34.6021 28.6305C33.2134 28.6305 32.083 29.7609 32.083 31.1497C32.083 32.5385 33.2134 33.6689 34.6021 33.6689C35.9909 33.6689 37.1213 32.5385 37.1213 31.1497C37.1213 29.7609 35.9918 28.6305 34.6021 28.6305ZM34.6021 32.8486C33.6654 32.8486 32.9033 32.0865 32.9033 31.1497C32.9033 30.2129 33.6654 29.4509 34.6021 29.4509C35.5389 29.4509 36.301 30.2129 36.301 31.1497C36.301 32.0865 35.5389 32.8486 34.6021 32.8486ZM39.4732 38.3832C39.1221 35.9863 37.0303 34.1504 34.6087 34.1143C34.6046 34.1143 34.6005 34.1143 34.5964 34.1143C32.1748 34.1504 30.083 35.9863 29.732 38.3832C29.6442 38.9796 29.8895 39.5391 30.3874 39.8795C31.6129 40.717 33.4316 41.0985 34.603 41.0985C35.7736 41.0985 37.5922 40.717 38.8186 39.8795C39.3157 39.5391 39.5609 38.9796 39.4732 38.3832ZM38.3551 39.2019C37.1993 39.9911 35.4774 40.2773 34.6021 40.2773C33.7269 40.2773 32.005 39.9911 30.8492 39.2019C30.613 39.0403 30.5014 38.7852 30.5424 38.5022C30.8361 36.5006 32.5801 34.9683 34.6013 34.9346C36.6226 34.9683 38.3674 36.5006 38.6602 38.5022C38.7029 38.7852 38.5913 39.0403 38.3551 39.2019Z"/>
</mask>
<path d="M20.5157 26.122C20.5633 26.1417 20.6749 26.2032 20.6888 26.3575L20.784 27.3796C20.8365 27.9464 21.2696 28.3836 21.8356 28.4427C22.094 28.4698 22.3541 28.4829 22.6141 28.4829C22.893 28.4829 23.1727 28.4673 23.45 28.4361C24.016 28.373 24.4459 27.9325 24.4934 27.3648L24.5804 26.3411C24.5935 26.1868 24.7043 26.1245 24.7518 26.1048C24.7986 26.0851 24.9216 26.0498 25.0406 26.1483L25.8305 26.8037C26.2686 27.1671 26.8838 27.1712 27.326 26.8119C27.7443 26.4723 28.1274 26.0859 28.4638 25.6651C28.8189 25.2197 28.8107 24.6053 28.4432 24.1697L27.7812 23.3855C27.6812 23.2673 27.7156 23.1443 27.7353 23.0967C27.755 23.0491 27.8165 22.9376 27.9707 22.9236L28.9929 22.8285C29.5597 22.776 29.9969 22.3437 30.056 21.7768C30.1118 21.2412 30.1093 20.6981 30.0502 20.1625C29.9871 19.5956 29.5466 19.1666 28.9789 19.1182L27.956 19.0312C27.8018 19.0181 27.7394 18.9074 27.7197 18.8598C27.7 18.813 27.6648 18.69 27.7632 18.5711L28.4186 17.7811C28.7829 17.343 28.7861 16.7278 28.4268 16.2857C28.0872 15.8673 27.7009 15.4842 27.28 15.1479C26.8346 14.7927 26.2202 14.8009 25.7846 15.1684L25.0004 15.8304C24.8823 15.9305 24.7592 15.896 24.7116 15.8763C24.6641 15.8566 24.5525 15.7951 24.5386 15.6409L24.4434 14.6188C24.3909 14.052 23.9586 13.6147 23.3918 13.5557C22.8561 13.4999 22.313 13.5023 21.7766 13.5614C21.2105 13.6246 20.7807 14.0651 20.7331 14.6327L20.6462 15.6557C20.633 15.8099 20.5223 15.8722 20.4747 15.8919C20.4271 15.9116 20.3049 15.9469 20.186 15.8484L19.396 15.193C18.958 14.8288 18.3427 14.8255 17.9006 15.1848C17.4822 15.5244 17.0991 15.9108 16.7628 16.3316C16.4076 16.777 16.4158 17.3914 16.7833 17.827L17.4453 18.6112C17.5454 18.7294 17.5109 18.8524 17.4913 18.9C17.4716 18.9476 17.41 19.0591 17.2558 19.0731L16.2337 19.1682C15.6669 19.2207 15.2296 19.653 15.1706 20.2199C15.1148 20.7555 15.1173 21.2986 15.1763 21.8343C15.2395 22.4011 15.68 22.8301 16.2477 22.8785L17.2706 22.9655C17.4248 22.9786 17.4871 23.0893 17.5068 23.1369C17.5265 23.1837 17.5618 23.3067 17.4634 23.4257L16.8079 24.2156C16.4437 24.6537 16.4404 25.2689 16.7997 25.7111C17.1393 26.1294 17.5257 26.5125 17.9465 26.8488C18.3911 27.204 19.0064 27.1958 19.442 26.8283L20.2262 26.1663C20.3451 26.0687 20.4682 26.1032 20.5157 26.122ZM18.9137 26.2032C18.7791 26.3164 18.597 26.3189 18.4592 26.209C18.0835 25.9096 17.7398 25.5683 17.4371 25.1951C17.3264 25.0581 17.3272 24.876 17.4396 24.7406L18.095 23.9507C18.3583 23.6332 18.4231 23.2009 18.264 22.8211C18.1048 22.4413 17.7513 22.1845 17.3403 22.1493L16.3166 22.0623C16.141 22.0475 16.0106 21.9196 15.9909 21.7448C15.9376 21.2674 15.9359 20.7834 15.9852 20.306C16.0032 20.1313 16.1328 20.0025 16.3084 19.9861L17.3305 19.8909C17.7414 19.8532 18.0934 19.5923 18.2492 19.2117C18.4051 18.8311 18.337 18.3988 18.0712 18.0838L17.4092 17.2996C17.296 17.165 17.2936 16.9821 17.4027 16.8451C17.7021 16.4702 18.0433 16.1257 18.4166 15.823C18.5527 15.7123 18.7357 15.7131 18.871 15.8255L19.661 16.4809C19.9784 16.7442 20.4116 16.809 20.7905 16.6499C21.1704 16.4907 21.4271 16.1372 21.4624 15.7262L21.5493 14.7033C21.5641 14.5277 21.6921 14.3973 21.8668 14.3776C22.3442 14.3243 22.8282 14.3227 23.3056 14.3719C23.4804 14.3899 23.6091 14.5195 23.6255 14.6951L23.7207 15.7172C23.7584 16.1273 24.0193 16.4793 24.3999 16.6359C24.7805 16.7918 25.2129 16.7237 25.5279 16.4579L26.3121 15.7959C26.4466 15.6827 26.6287 15.6803 26.7665 15.7902C27.1422 16.0896 27.4859 16.4309 27.7886 16.8041C27.8994 16.9411 27.8986 17.1232 27.7862 17.2586L27.1307 18.0485C26.8674 18.366 26.8026 18.7983 26.9618 19.1781C27.1209 19.5579 27.4745 19.8146 27.8854 19.8499L28.9092 19.9369C29.0847 19.9516 29.2152 20.0796 29.2348 20.2543C29.2882 20.7318 29.2898 21.2157 29.2406 21.6932C29.2225 21.8679 29.0929 21.9967 28.9174 22.0131L27.8953 22.1082C27.4851 22.146 27.1332 22.4068 26.9765 22.7875C26.8207 23.1681 26.8887 23.6004 27.1545 23.9154L27.8165 24.6996C27.9297 24.8341 27.9322 25.0171 27.8231 25.1541C27.5237 25.5298 27.1824 25.8735 26.8092 26.1762C26.673 26.2869 26.4901 26.2861 26.3547 26.1737L25.5648 25.5183C25.2473 25.255 24.815 25.1902 24.4352 25.3493C24.0554 25.5084 23.7986 25.862 23.7634 26.273L23.6764 27.2967C23.6616 27.4723 23.5337 27.6027 23.3589 27.6224C22.8815 27.6757 22.3967 27.6773 21.9201 27.6281C21.7454 27.6101 21.6166 27.4805 21.6002 27.3049L21.505 26.2828C21.4665 25.8727 21.2064 25.5207 20.8258 25.3641C20.6905 25.3091 20.5486 25.282 20.4083 25.282C20.1532 25.282 19.9013 25.3714 19.6979 25.5429L18.9137 26.2032ZM25.97 21C25.97 19.1486 24.4639 17.6433 22.6133 17.6433C20.7627 17.6433 19.2566 19.1494 19.2566 21C19.2566 22.8506 20.7627 24.3567 22.6133 24.3567C24.4639 24.3567 25.97 22.8514 25.97 21ZM20.0769 21C20.0769 19.6014 21.2146 18.4636 22.6133 18.4636C24.0119 18.4636 25.1497 19.6014 25.1497 21C25.1497 22.3986 24.0119 23.5364 22.6133 23.5364C21.2146 23.5364 20.0769 22.3986 20.0769 21ZM31.1511 8.31059C31.2832 8.12602 31.5391 8.08336 31.7229 8.21543C34.5833 10.2572 36.7005 13.2407 37.6857 16.6154C38.5987 19.7441 38.506 23.1082 37.4355 26.177L38.4716 25.6216C38.6717 25.515 38.9195 25.5896 39.0269 25.7898C39.1336 25.9891 39.0589 26.2377 38.8587 26.3452L36.8432 27.4255C36.7834 27.4575 36.7169 27.4739 36.6496 27.4739C36.6095 27.4739 36.5701 27.4682 36.5307 27.4567C36.4265 27.4255 36.3396 27.3533 36.2879 27.2582L35.2075 25.2427C35.1009 25.0433 35.1755 24.7948 35.3757 24.6873C35.575 24.5807 35.8236 24.6553 35.9311 24.8555L36.5947 26.095C38.8924 19.8138 36.7423 12.8075 31.2463 8.8848C31.0625 8.75109 31.019 8.49516 31.1511 8.31059ZM29.4235 34.6951C29.5187 34.9002 29.4301 35.1446 29.2242 35.2398C26.6394 36.4416 23.7978 36.9108 20.9604 36.6114L21.7462 37.6023C21.8873 37.7795 21.857 38.0379 21.6798 38.1782C21.6043 38.238 21.5149 38.2668 21.4255 38.2668C21.3049 38.2668 21.1851 38.2134 21.1039 38.1117L19.6831 36.3193C19.542 36.1421 19.5724 35.8838 19.7496 35.7435L21.542 34.3227C21.7191 34.1816 21.9775 34.212 22.1178 34.3891C22.2589 34.5663 22.2286 34.8247 22.0514 34.965L21.0096 35.7911C23.7117 36.0831 26.4179 35.6401 28.8788 34.4958C29.0839 34.4014 29.3275 34.49 29.4235 34.6951ZM9.33078 29.3696C7.21109 26.0121 6.44902 22.0114 7.18566 18.1035C7.87063 14.4679 9.79426 11.2227 12.6334 8.88398L11.4324 8.80031C11.2068 8.78473 11.0362 8.58867 11.0518 8.36309C11.0674 8.1375 11.2634 7.96687 11.489 7.98246L13.7703 8.14078C13.9959 8.15637 14.1665 8.35242 14.1509 8.57801L13.9926 10.8593C13.977 11.0849 13.781 11.2547 13.5554 11.2399C13.3298 11.2243 13.1592 11.0283 13.1748 10.8027L13.2707 9.42375C7.45473 14.1258 6.0077 22.5693 10.0256 28.9316C10.1462 29.1227 10.0896 29.3762 9.89762 29.4976C9.82953 29.5403 9.75406 29.5608 9.67941 29.5608C9.5416 29.5608 9.40871 29.4927 9.33078 29.3696ZM16.5077 10.984H28.7189C29.1134 10.984 29.4342 10.6632 29.4342 10.2687V3.74965C29.4342 3.51832 29.3218 3.30012 29.1339 3.16641C28.9461 3.0327 28.7033 2.99824 28.4851 3.07371L24.1456 4.5757V3.74965C24.1456 3.51832 24.0332 3.30012 23.8454 3.16641C23.6575 3.0327 23.4147 2.99824 23.1965 3.07371L18.8571 4.5757V1.61766C18.8571 1.22309 18.5363 0.902344 18.1418 0.902344H16.5077C16.1131 0.902344 15.7924 1.22309 15.7924 1.61766V10.2687C15.7924 10.6632 16.1131 10.984 16.5077 10.984ZM24.1456 5.44359L28.6139 3.8973V10.1637H24.1456V5.44359ZM18.8571 5.44359L23.3253 3.8973V10.1637H18.8571V5.44359ZM16.6127 10.1637V3.07289H18.0368V10.1629H16.6127V10.1637ZM18.0368 1.72266V2.25258H16.6127V1.72266H18.0368ZM21.9939 6.02109H20.1893C19.9629 6.02109 19.7791 6.20484 19.7791 6.43125V8.23594C19.7791 8.46234 19.9629 8.64609 20.1893 8.64609H21.9939C22.2204 8.64609 22.4041 8.46234 22.4041 8.23594V6.43125C22.4041 6.20484 22.2204 6.02109 21.9939 6.02109ZM21.5838 7.82578H20.5994V6.84141H21.5838V7.82578ZM27.2817 6.02109H25.477C25.2506 6.02109 25.0668 6.20484 25.0668 6.43125V8.23594C25.0668 8.46234 25.2506 8.64609 25.477 8.64609H27.2817C27.5081 8.64609 27.6918 8.46234 27.6918 8.23594V6.43125C27.6918 6.20484 27.5089 6.02109 27.2817 6.02109ZM26.8715 7.82578H25.8871V6.84141H26.8715V7.82578ZM16.6923 33.9478C16.4109 33.4425 15.8982 33.1414 15.3199 33.1414H13.0665V32.477C13.0665 31.7732 12.4939 31.2006 11.7901 31.2006H3.79203C3.0882 31.2006 2.51562 31.7732 2.51562 32.477V38.5104C2.51562 39.1404 2.975 39.6637 3.57629 39.7671C3.75348 40.5284 4.43598 41.0977 5.24973 41.0977C6.05691 41.0977 6.73367 40.5382 6.91824 39.7876H13.5488C13.7334 40.5382 14.411 41.0977 15.2173 41.0977C16.0262 41.0977 16.7054 40.5357 16.8875 39.7819C17.4839 39.722 17.9514 39.2167 17.9514 38.6039V36.6196C17.9514 36.3415 17.8883 36.0987 17.7529 35.8559L16.6923 33.9478ZM15.9753 34.3473L17.0122 36.2094H14.8859C14.6858 36.2094 14.5225 36.0462 14.5225 35.846V33.9618H15.3199C15.6045 33.9618 15.8375 34.0988 15.9753 34.3473ZM5.24973 40.2773C4.75344 40.2773 4.34984 39.8737 4.34984 39.3775C4.34984 38.8812 4.75344 38.4776 5.24973 38.4776C5.74602 38.4776 6.14961 38.8812 6.14961 39.3775C6.14961 39.8737 5.74602 40.2773 5.24973 40.2773ZM5.24973 37.6573C4.45977 37.6573 3.79367 38.1937 3.5927 38.9214C3.44094 38.8475 3.33512 38.6917 3.33512 38.5112V32.4778C3.33512 32.226 3.5402 32.0217 3.79121 32.0217H11.7901C12.0419 32.0217 12.2462 32.2268 12.2462 32.4778V38.9673H6.91906C6.73367 38.2167 6.05691 37.6573 5.24973 37.6573ZM15.2182 40.2773C14.7219 40.2773 14.3183 39.8737 14.3183 39.3775C14.3183 38.8812 14.7219 38.4776 15.2182 38.4776C15.7145 38.4776 16.118 38.8812 16.118 39.3775C16.118 39.8737 15.7145 40.2773 15.2182 40.2773ZM16.8818 38.9476C16.6898 38.2069 16.018 37.6573 15.2182 37.6573C14.411 37.6573 13.7342 38.2167 13.5496 38.9673H13.0673V33.9626H13.7022V35.8468C13.7022 36.4998 14.233 37.0305 14.8859 37.0305H17.1328V38.6047C17.1328 38.7647 17.027 38.9 16.8818 38.9476ZM34.6021 28.6305C33.2134 28.6305 32.083 29.7609 32.083 31.1497C32.083 32.5385 33.2134 33.6689 34.6021 33.6689C35.9909 33.6689 37.1213 32.5385 37.1213 31.1497C37.1213 29.7609 35.9918 28.6305 34.6021 28.6305ZM34.6021 32.8486C33.6654 32.8486 32.9033 32.0865 32.9033 31.1497C32.9033 30.2129 33.6654 29.4509 34.6021 29.4509C35.5389 29.4509 36.301 30.2129 36.301 31.1497C36.301 32.0865 35.5389 32.8486 34.6021 32.8486ZM39.4732 38.3832C39.1221 35.9863 37.0303 34.1504 34.6087 34.1143C34.6046 34.1143 34.6005 34.1143 34.5964 34.1143C32.1748 34.1504 30.083 35.9863 29.732 38.3832C29.6442 38.9796 29.8895 39.5391 30.3874 39.8795C31.6129 40.717 33.4316 41.0985 34.603 41.0985C35.7736 41.0985 37.5922 40.717 38.8186 39.8795C39.3157 39.5391 39.5609 38.9796 39.4732 38.3832ZM38.3551 39.2019C37.1993 39.9911 35.4774 40.2773 34.6021 40.2773C33.7269 40.2773 32.005 39.9911 30.8492 39.2019C30.613 39.0403 30.5014 38.7852 30.5424 38.5022C30.8361 36.5006 32.5801 34.9683 34.6013 34.9346C36.6226 34.9683 38.3674 36.5006 38.6602 38.5022C38.7029 38.7852 38.5913 39.0403 38.3551 39.2019Z" fill="#556EAA"/>
<path d="M20.5157 26.122C20.5633 26.1417 20.6749 26.2032 20.6888 26.3575L20.784 27.3796C20.8365 27.9464 21.2696 28.3836 21.8356 28.4427C22.094 28.4698 22.3541 28.4829 22.6141 28.4829C22.893 28.4829 23.1727 28.4673 23.45 28.4361C24.016 28.373 24.4459 27.9325 24.4934 27.3648L24.5804 26.3411C24.5935 26.1868 24.7043 26.1245 24.7518 26.1048C24.7986 26.0851 24.9216 26.0498 25.0406 26.1483L25.8305 26.8037C26.2686 27.1671 26.8838 27.1712 27.326 26.8119C27.7443 26.4723 28.1274 26.0859 28.4638 25.6651C28.8189 25.2197 28.8107 24.6053 28.4432 24.1697L27.7812 23.3855C27.6812 23.2673 27.7156 23.1443 27.7353 23.0967C27.755 23.0491 27.8165 22.9376 27.9707 22.9236L28.9929 22.8285C29.5597 22.776 29.9969 22.3437 30.056 21.7768C30.1118 21.2412 30.1093 20.6981 30.0502 20.1625C29.9871 19.5956 29.5466 19.1666 28.9789 19.1182L27.956 19.0312C27.8018 19.0181 27.7394 18.9074 27.7197 18.8598C27.7 18.813 27.6648 18.69 27.7632 18.5711L28.4186 17.7811C28.7829 17.343 28.7861 16.7278 28.4268 16.2857C28.0872 15.8673 27.7009 15.4842 27.28 15.1479C26.8346 14.7927 26.2202 14.8009 25.7846 15.1684L25.0004 15.8304C24.8823 15.9305 24.7592 15.896 24.7116 15.8763C24.6641 15.8566 24.5525 15.7951 24.5386 15.6409L24.4434 14.6188C24.3909 14.052 23.9586 13.6147 23.3918 13.5557C22.8561 13.4999 22.313 13.5023 21.7766 13.5614C21.2105 13.6246 20.7807 14.0651 20.7331 14.6327L20.6462 15.6557C20.633 15.8099 20.5223 15.8722 20.4747 15.8919C20.4271 15.9116 20.3049 15.9469 20.186 15.8484L19.396 15.193C18.958 14.8288 18.3427 14.8255 17.9006 15.1848C17.4822 15.5244 17.0991 15.9108 16.7628 16.3316C16.4076 16.777 16.4158 17.3914 16.7833 17.827L17.4453 18.6112C17.5454 18.7294 17.5109 18.8524 17.4913 18.9C17.4716 18.9476 17.41 19.0591 17.2558 19.0731L16.2337 19.1682C15.6669 19.2207 15.2296 19.653 15.1706 20.2199C15.1148 20.7555 15.1173 21.2986 15.1763 21.8343C15.2395 22.4011 15.68 22.8301 16.2477 22.8785L17.2706 22.9655C17.4248 22.9786 17.4871 23.0893 17.5068 23.1369C17.5265 23.1837 17.5618 23.3067 17.4634 23.4257L16.8079 24.2156C16.4437 24.6537 16.4404 25.2689 16.7997 25.7111C17.1393 26.1294 17.5257 26.5125 17.9465 26.8488C18.3911 27.204 19.0064 27.1958 19.442 26.8283L20.2262 26.1663C20.3451 26.0687 20.4682 26.1032 20.5157 26.122ZM18.9137 26.2032C18.7791 26.3164 18.597 26.3189 18.4592 26.209C18.0835 25.9096 17.7398 25.5683 17.4371 25.1951C17.3264 25.0581 17.3272 24.876 17.4396 24.7406L18.095 23.9507C18.3583 23.6332 18.4231 23.2009 18.264 22.8211C18.1048 22.4413 17.7513 22.1845 17.3403 22.1493L16.3166 22.0623C16.141 22.0475 16.0106 21.9196 15.9909 21.7448C15.9376 21.2674 15.9359 20.7834 15.9852 20.306C16.0032 20.1313 16.1328 20.0025 16.3084 19.9861L17.3305 19.8909C17.7414 19.8532 18.0934 19.5923 18.2492 19.2117C18.4051 18.8311 18.337 18.3988 18.0712 18.0838L17.4092 17.2996C17.296 17.165 17.2936 16.9821 17.4027 16.8451C17.7021 16.4702 18.0433 16.1257 18.4166 15.823C18.5527 15.7123 18.7357 15.7131 18.871 15.8255L19.661 16.4809C19.9784 16.7442 20.4116 16.809 20.7905 16.6499C21.1704 16.4907 21.4271 16.1372 21.4624 15.7262L21.5493 14.7033C21.5641 14.5277 21.6921 14.3973 21.8668 14.3776C22.3442 14.3243 22.8282 14.3227 23.3056 14.3719C23.4804 14.3899 23.6091 14.5195 23.6255 14.6951L23.7207 15.7172C23.7584 16.1273 24.0193 16.4793 24.3999 16.6359C24.7805 16.7918 25.2129 16.7237 25.5279 16.4579L26.3121 15.7959C26.4466 15.6827 26.6287 15.6803 26.7665 15.7902C27.1422 16.0896 27.4859 16.4309 27.7886 16.8041C27.8994 16.9411 27.8986 17.1232 27.7862 17.2586L27.1307 18.0485C26.8674 18.366 26.8026 18.7983 26.9618 19.1781C27.1209 19.5579 27.4745 19.8146 27.8854 19.8499L28.9092 19.9369C29.0847 19.9516 29.2152 20.0796 29.2348 20.2543C29.2882 20.7318 29.2898 21.2157 29.2406 21.6932C29.2225 21.8679 29.0929 21.9967 28.9174 22.0131L27.8953 22.1082C27.4851 22.146 27.1332 22.4068 26.9765 22.7875C26.8207 23.1681 26.8887 23.6004 27.1545 23.9154L27.8165 24.6996C27.9297 24.8341 27.9322 25.0171 27.8231 25.1541C27.5237 25.5298 27.1824 25.8735 26.8092 26.1762C26.673 26.2869 26.4901 26.2861 26.3547 26.1737L25.5648 25.5183C25.2473 25.255 24.815 25.1902 24.4352 25.3493C24.0554 25.5084 23.7986 25.862 23.7634 26.273L23.6764 27.2967C23.6616 27.4723 23.5337 27.6027 23.3589 27.6224C22.8815 27.6757 22.3967 27.6773 21.9201 27.6281C21.7454 27.6101 21.6166 27.4805 21.6002 27.3049L21.505 26.2828C21.4665 25.8727 21.2064 25.5207 20.8258 25.3641C20.6905 25.3091 20.5486 25.282 20.4083 25.282C20.1532 25.282 19.9013 25.3714 19.6979 25.5429L18.9137 26.2032ZM25.97 21C25.97 19.1486 24.4639 17.6433 22.6133 17.6433C20.7627 17.6433 19.2566 19.1494 19.2566 21C19.2566 22.8506 20.7627 24.3567 22.6133 24.3567C24.4639 24.3567 25.97 22.8514 25.97 21ZM20.0769 21C20.0769 19.6014 21.2146 18.4636 22.6133 18.4636C24.0119 18.4636 25.1497 19.6014 25.1497 21C25.1497 22.3986 24.0119 23.5364 22.6133 23.5364C21.2146 23.5364 20.0769 22.3986 20.0769 21ZM31.1511 8.31059C31.2832 8.12602 31.5391 8.08336 31.7229 8.21543C34.5833 10.2572 36.7005 13.2407 37.6857 16.6154C38.5987 19.7441 38.506 23.1082 37.4355 26.177L38.4716 25.6216C38.6717 25.515 38.9195 25.5896 39.0269 25.7898C39.1336 25.9891 39.0589 26.2377 38.8587 26.3452L36.8432 27.4255C36.7834 27.4575 36.7169 27.4739 36.6496 27.4739C36.6095 27.4739 36.5701 27.4682 36.5307 27.4567C36.4265 27.4255 36.3396 27.3533 36.2879 27.2582L35.2075 25.2427C35.1009 25.0433 35.1755 24.7948 35.3757 24.6873C35.575 24.5807 35.8236 24.6553 35.9311 24.8555L36.5947 26.095C38.8924 19.8138 36.7423 12.8075 31.2463 8.8848C31.0625 8.75109 31.019 8.49516 31.1511 8.31059ZM29.4235 34.6951C29.5187 34.9002 29.4301 35.1446 29.2242 35.2398C26.6394 36.4416 23.7978 36.9108 20.9604 36.6114L21.7462 37.6023C21.8873 37.7795 21.857 38.0379 21.6798 38.1782C21.6043 38.238 21.5149 38.2668 21.4255 38.2668C21.3049 38.2668 21.1851 38.2134 21.1039 38.1117L19.6831 36.3193C19.542 36.1421 19.5724 35.8838 19.7496 35.7435L21.542 34.3227C21.7191 34.1816 21.9775 34.212 22.1178 34.3891C22.2589 34.5663 22.2286 34.8247 22.0514 34.965L21.0096 35.7911C23.7117 36.0831 26.4179 35.6401 28.8788 34.4958C29.0839 34.4014 29.3275 34.49 29.4235 34.6951ZM9.33078 29.3696C7.21109 26.0121 6.44902 22.0114 7.18566 18.1035C7.87063 14.4679 9.79426 11.2227 12.6334 8.88398L11.4324 8.80031C11.2068 8.78473 11.0362 8.58867 11.0518 8.36309C11.0674 8.1375 11.2634 7.96687 11.489 7.98246L13.7703 8.14078C13.9959 8.15637 14.1665 8.35242 14.1509 8.57801L13.9926 10.8593C13.977 11.0849 13.781 11.2547 13.5554 11.2399C13.3298 11.2243 13.1592 11.0283 13.1748 10.8027L13.2707 9.42375C7.45473 14.1258 6.0077 22.5693 10.0256 28.9316C10.1462 29.1227 10.0896 29.3762 9.89762 29.4976C9.82953 29.5403 9.75406 29.5608 9.67941 29.5608C9.5416 29.5608 9.40871 29.4927 9.33078 29.3696ZM16.5077 10.984H28.7189C29.1134 10.984 29.4342 10.6632 29.4342 10.2687V3.74965C29.4342 3.51832 29.3218 3.30012 29.1339 3.16641C28.9461 3.0327 28.7033 2.99824 28.4851 3.07371L24.1456 4.5757V3.74965C24.1456 3.51832 24.0332 3.30012 23.8454 3.16641C23.6575 3.0327 23.4147 2.99824 23.1965 3.07371L18.8571 4.5757V1.61766C18.8571 1.22309 18.5363 0.902344 18.1418 0.902344H16.5077C16.1131 0.902344 15.7924 1.22309 15.7924 1.61766V10.2687C15.7924 10.6632 16.1131 10.984 16.5077 10.984ZM24.1456 5.44359L28.6139 3.8973V10.1637H24.1456V5.44359ZM18.8571 5.44359L23.3253 3.8973V10.1637H18.8571V5.44359ZM16.6127 10.1637V3.07289H18.0368V10.1629H16.6127V10.1637ZM18.0368 1.72266V2.25258H16.6127V1.72266H18.0368ZM21.9939 6.02109H20.1893C19.9629 6.02109 19.7791 6.20484 19.7791 6.43125V8.23594C19.7791 8.46234 19.9629 8.64609 20.1893 8.64609H21.9939C22.2204 8.64609 22.4041 8.46234 22.4041 8.23594V6.43125C22.4041 6.20484 22.2204 6.02109 21.9939 6.02109ZM21.5838 7.82578H20.5994V6.84141H21.5838V7.82578ZM27.2817 6.02109H25.477C25.2506 6.02109 25.0668 6.20484 25.0668 6.43125V8.23594C25.0668 8.46234 25.2506 8.64609 25.477 8.64609H27.2817C27.5081 8.64609 27.6918 8.46234 27.6918 8.23594V6.43125C27.6918 6.20484 27.5089 6.02109 27.2817 6.02109ZM26.8715 7.82578H25.8871V6.84141H26.8715V7.82578ZM16.6923 33.9478C16.4109 33.4425 15.8982 33.1414 15.3199 33.1414H13.0665V32.477C13.0665 31.7732 12.4939 31.2006 11.7901 31.2006H3.79203C3.0882 31.2006 2.51562 31.7732 2.51562 32.477V38.5104C2.51562 39.1404 2.975 39.6637 3.57629 39.7671C3.75348 40.5284 4.43598 41.0977 5.24973 41.0977C6.05691 41.0977 6.73367 40.5382 6.91824 39.7876H13.5488C13.7334 40.5382 14.411 41.0977 15.2173 41.0977C16.0262 41.0977 16.7054 40.5357 16.8875 39.7819C17.4839 39.722 17.9514 39.2167 17.9514 38.6039V36.6196C17.9514 36.3415 17.8883 36.0987 17.7529 35.8559L16.6923 33.9478ZM15.9753 34.3473L17.0122 36.2094H14.8859C14.6858 36.2094 14.5225 36.0462 14.5225 35.846V33.9618H15.3199C15.6045 33.9618 15.8375 34.0988 15.9753 34.3473ZM5.24973 40.2773C4.75344 40.2773 4.34984 39.8737 4.34984 39.3775C4.34984 38.8812 4.75344 38.4776 5.24973 38.4776C5.74602 38.4776 6.14961 38.8812 6.14961 39.3775C6.14961 39.8737 5.74602 40.2773 5.24973 40.2773ZM5.24973 37.6573C4.45977 37.6573 3.79367 38.1937 3.5927 38.9214C3.44094 38.8475 3.33512 38.6917 3.33512 38.5112V32.4778C3.33512 32.226 3.5402 32.0217 3.79121 32.0217H11.7901C12.0419 32.0217 12.2462 32.2268 12.2462 32.4778V38.9673H6.91906C6.73367 38.2167 6.05691 37.6573 5.24973 37.6573ZM15.2182 40.2773C14.7219 40.2773 14.3183 39.8737 14.3183 39.3775C14.3183 38.8812 14.7219 38.4776 15.2182 38.4776C15.7145 38.4776 16.118 38.8812 16.118 39.3775C16.118 39.8737 15.7145 40.2773 15.2182 40.2773ZM16.8818 38.9476C16.6898 38.2069 16.018 37.6573 15.2182 37.6573C14.411 37.6573 13.7342 38.2167 13.5496 38.9673H13.0673V33.9626H13.7022V35.8468C13.7022 36.4998 14.233 37.0305 14.8859 37.0305H17.1328V38.6047C17.1328 38.7647 17.027 38.9 16.8818 38.9476ZM34.6021 28.6305C33.2134 28.6305 32.083 29.7609 32.083 31.1497C32.083 32.5385 33.2134 33.6689 34.6021 33.6689C35.9909 33.6689 37.1213 32.5385 37.1213 31.1497C37.1213 29.7609 35.9918 28.6305 34.6021 28.6305ZM34.6021 32.8486C33.6654 32.8486 32.9033 32.0865 32.9033 31.1497C32.9033 30.2129 33.6654 29.4509 34.6021 29.4509C35.5389 29.4509 36.301 30.2129 36.301 31.1497C36.301 32.0865 35.5389 32.8486 34.6021 32.8486ZM39.4732 38.3832C39.1221 35.9863 37.0303 34.1504 34.6087 34.1143C34.6046 34.1143 34.6005 34.1143 34.5964 34.1143C32.1748 34.1504 30.083 35.9863 29.732 38.3832C29.6442 38.9796 29.8895 39.5391 30.3874 39.8795C31.6129 40.717 33.4316 41.0985 34.603 41.0985C35.7736 41.0985 37.5922 40.717 38.8186 39.8795C39.3157 39.5391 39.5609 38.9796 39.4732 38.3832ZM38.3551 39.2019C37.1993 39.9911 35.4774 40.2773 34.6021 40.2773C33.7269 40.2773 32.005 39.9911 30.8492 39.2019C30.613 39.0403 30.5014 38.7852 30.5424 38.5022C30.8361 36.5006 32.5801 34.9683 34.6013 34.9346C36.6226 34.9683 38.3674 36.5006 38.6602 38.5022C38.7029 38.7852 38.5913 39.0403 38.3551 39.2019Z" stroke="#556EAA" stroke-width="0.2" mask="url(#path-1-outside-1_2045_7070)"/>
</svg>
