<svg width="42" height="42" viewBox="0 0 42 42" fill="none" xmlns="http://www.w3.org/2000/svg">
<path d="M36.6398 26.0311H35.7109V24.5017C35.7109 23.9896 35.2839 23.5736 34.7602 23.5736H33.8574C33.3328 23.5736 32.9067 23.9904 32.9067 24.5017V26.0311H30.845V24.5017C30.845 23.9896 30.418 23.5736 29.8943 23.5736H28.9916C28.467 23.5736 28.0409 23.9904 28.0409 24.5017V26.0311H25.9792V24.5017C25.9792 23.9896 25.5522 23.5736 25.0285 23.5736H24.4107C22.8648 21.3917 21.3425 19.659 19.6573 18.1669L22.0074 13.3634C22.1294 13.1141 22.0266 12.8164 21.7747 12.6897C19.7914 11.6927 18.0757 11.8799 16.6039 12.3128C16.6361 10.8446 16.8845 9.12039 17.626 7.46419C18.1271 7.7432 18.6377 7.88356 19.151 7.88356C19.2817 7.88356 19.4124 7.8742 19.5431 7.85634C20.7456 7.68961 21.6301 6.79814 22.1599 6.0802C22.9163 5.05603 23.0888 3.78092 23.2282 2.7576C23.311 2.14939 23.3885 1.57606 23.5654 1.25026C23.6517 1.09205 23.6465 0.901502 23.5515 0.747536C23.4574 0.594421 23.2866 0.5 23.1036 0.5C19.9805 0.501701 17.3803 1.74449 16.4793 3.66608C15.9887 4.71322 16.109 5.82671 16.7991 6.77007C16.3407 7.71853 16.0061 8.75376 15.7996 9.86385C15.5426 9.30753 15.2323 8.76567 14.8768 8.25444C15.4153 7.14435 15.3047 5.97387 14.5605 5.01605C13.2517 3.33178 10.4371 2.67168 7.38896 3.33433C7.20946 3.37346 7.06481 3.50106 7.00642 3.67119C6.94804 3.84131 6.98551 4.02846 7.10489 4.16456C7.35062 4.44442 7.55453 4.98798 7.77063 5.56386C8.13487 6.53359 8.58799 7.74065 9.55437 8.58023C10.1905 9.1323 11.1638 9.76602 12.2809 9.76602C12.355 9.76602 12.4299 9.76347 12.5049 9.75752C13.107 9.71158 13.6638 9.47936 14.1684 9.0685C14.9082 10.2033 15.411 11.4852 15.5312 12.6744C15.3927 12.7254 15.2559 12.7764 15.1217 12.8266C13.2926 13.5139 12.1982 13.8499 10.9817 12.7671C10.797 12.6029 10.519 12.5893 10.3177 12.7348C10.1173 12.8802 10.0493 13.1439 10.1574 13.3642L12.5066 18.1669C10.3682 20.0596 8.48953 22.3376 6.45658 25.4969C5.23924 27.3887 4.76172 29.6319 5.11202 31.8155C5.46145 33.9982 6.61865 35.993 8.36927 37.4305L8.39716 37.4535C10.5286 39.2041 12.9188 40.0556 15.7046 40.0556H16.4566C18.0617 40.0556 19.5178 39.7758 20.8816 39.205V40.1713C20.8816 40.9037 21.4924 41.5 22.2427 41.5H36.6389C37.3892 41.5 38 40.9037 38 40.1713V27.3598C38.0009 26.6274 37.39 26.0311 36.6398 26.0311ZM33.9515 24.5944H34.6652V27.6125H33.9515V24.5944ZM29.0848 24.5944H29.7985V27.6125H29.0848V24.5944ZM25.9774 27.7043V27.0519H28.0391V27.7043C28.0391 28.2164 28.4661 28.6324 28.9898 28.6324H29.8926C30.4172 28.6324 30.8433 28.2156 30.8433 27.7043V27.0519H32.905V27.7043C32.905 28.2164 33.332 28.6324 33.8557 28.6324H34.7584C35.283 28.6324 35.7091 28.2156 35.7091 27.7043V27.0519H36.638C36.8088 27.0519 36.9535 27.1931 36.9535 27.3598V29.2117H21.9281V27.3598C21.9281 27.1931 22.0727 27.0519 22.2435 27.0519H23.1724V27.7043C23.1724 28.2164 23.5994 28.6324 24.1231 28.6324H25.0259C25.5505 28.6332 25.9774 28.2164 25.9774 27.7043ZM24.9318 27.6125H24.2181V24.5944H24.9318V27.6125ZM17.4291 4.0914C17.9798 2.91752 19.6991 1.73343 22.3664 1.54629C22.2923 1.87208 22.2427 2.2336 22.1904 2.6232C22.0605 3.58102 21.9133 4.66729 21.3103 5.48305C20.7282 6.27074 20.0485 6.75476 19.3941 6.84578C18.9706 6.90447 18.534 6.80409 18.0922 6.54805C18.5427 5.76801 19.1196 5.0169 19.8551 4.33383C20.0642 4.13989 20.072 3.81665 19.8734 3.61249C19.6747 3.40834 19.3436 3.40068 19.1344 3.59463C18.4556 4.22495 17.87 4.93524 17.3803 5.71527C17.1555 5.19468 17.1694 4.64432 17.4291 4.0914ZM12.423 8.7393C11.7651 8.79034 10.993 8.46199 10.2489 7.81721C9.47855 7.1486 9.09253 6.12018 8.75181 5.21255C8.61326 4.84422 8.48517 4.50141 8.33965 4.19943C10.9852 3.81494 12.9275 4.60434 13.7266 5.63276C14.1222 6.14144 14.2538 6.70542 14.1204 7.29066C13.5 6.58718 12.7951 5.98238 12.0404 5.53494C11.7938 5.38863 11.4723 5.46519 11.3224 5.70677C11.1725 5.94835 11.251 6.26138 11.4984 6.4077C12.2496 6.85258 12.9545 7.48971 13.5593 8.23232C13.2037 8.53855 12.8229 8.70868 12.423 8.7393ZM15.4972 13.7785C17.1111 13.172 18.7763 12.5468 20.8345 13.388L18.6848 17.7816H13.4774L11.8104 14.3739C13.0521 14.6972 14.2895 14.2327 15.4972 13.7785ZM16.4575 39.0348H15.7055C13.1767 39.0348 11.0061 38.2625 9.07162 36.6726L9.04373 36.6497C5.81175 33.994 5.09634 29.5323 7.34365 26.0405C9.36702 22.8957 11.2257 20.6542 13.3475 18.8032H18.8164C20.4354 20.2161 21.9002 21.8553 23.3842 23.9215C23.2526 24.0806 23.1733 24.283 23.1733 24.5025V26.032H22.2444C21.4941 26.032 20.8833 26.6283 20.8833 27.3607V38.0855C19.5318 38.7235 18.08 39.0348 16.4575 39.0348ZM36.6398 40.4801H22.2435C22.0727 40.4801 21.9281 40.3389 21.9281 40.1722V30.2324H36.9552V40.1722C36.9552 40.3389 36.8106 40.4801 36.6398 40.4801ZM29.4421 31.2966C27.1486 31.2966 25.2829 33.1178 25.2829 35.3567C25.2829 37.5956 27.1486 39.4168 29.4421 39.4168C31.7356 39.4168 33.6012 37.5956 33.6012 35.3567C33.6012 33.1178 31.7347 31.2966 29.4421 31.2966ZM29.4421 38.3952C27.7254 38.3952 26.3286 37.0316 26.3286 35.3558C26.3286 33.6801 27.7254 32.3165 29.4421 32.3165C31.1587 32.3165 32.5556 33.6801 32.5556 35.3558C32.5556 37.0316 31.1587 38.3952 29.4421 38.3952ZM31.2537 34.0348C31.4576 34.2338 31.4576 34.5571 31.2537 34.757L29.2861 36.6777C29.1842 36.7772 29.05 36.8274 28.9166 36.8274C28.7833 36.8274 28.6491 36.7772 28.5472 36.6777L27.6313 35.7837C27.4274 35.5847 27.4274 35.2614 27.6313 35.0615C27.8352 34.8625 28.1664 34.8625 28.3703 35.0615L28.9166 35.5949L30.5148 34.0348C30.7187 33.8357 31.0498 33.8357 31.2537 34.0348ZM14.2407 26.8945C14.2407 27.5359 14.8873 27.8455 15.9425 28.2989C16.0602 28.3491 16.1787 28.4001 16.2972 28.4529C16.4122 28.5039 16.5281 28.5533 16.6422 28.6026C17.7324 29.0713 18.968 29.6021 18.968 30.941C18.968 32.1812 17.9476 33.2156 16.6048 33.4325V35.0283C16.6048 35.3099 16.3704 35.5387 16.0819 35.5387C15.7935 35.5387 15.5591 35.3099 15.5591 35.0283V33.4325C14.2163 33.2156 13.1959 32.1812 13.1959 30.941C13.1959 30.6594 13.4303 30.4306 13.7187 30.4306C14.0072 30.4306 14.2416 30.6594 14.2416 30.941C14.2416 31.7755 15.0676 32.4543 16.0819 32.4543C17.0962 32.4543 17.9223 31.7755 17.9223 30.941C17.9223 30.2996 17.2757 29.99 16.2205 29.5366C16.1029 29.4864 15.9843 29.4354 15.8658 29.3826C15.7508 29.3316 15.6349 29.2823 15.5208 29.2329C14.4307 28.7642 13.195 28.2334 13.195 26.8937C13.195 25.6534 14.2154 24.619 15.5582 24.4021V22.8063C15.5582 22.5248 15.7926 22.296 16.0811 22.296C16.3695 22.296 16.6039 22.5248 16.6039 22.8063V24.403C17.9467 24.6199 18.9671 25.6543 18.9671 26.8945C18.9671 27.1761 18.7327 27.4049 18.4443 27.4049C18.1558 27.4049 17.9214 27.1761 17.9214 26.8945C17.9214 26.06 17.0954 25.3812 16.0811 25.3812C15.0668 25.3812 14.2407 26.06 14.2407 26.8945Z" fill="#556EAA"/>
</svg>
