<svg width="42" height="42" viewBox="0 0 42 42" fill="none" xmlns="http://www.w3.org/2000/svg">
<g clip-path="url(#clip0_2001_7282)">
<path d="M1.7402 17.3273C0.881714 17.4665 0.21762 18.1548 0.109195 19.0178C-0.0349563 20.3248 -0.0364075 21.6437 0.10498 22.9511C0.203523 23.8274 0.871693 24.5318 1.74158 24.6765L3.96895 25.0412C4.39657 26.8626 5.11844 28.6021 6.10601 30.1911L4.79496 32.0223C4.27253 32.7306 4.28517 33.7 4.82578 34.3946C5.24303 34.905 5.68703 35.3932 6.15576 35.8569C6.58559 36.2874 7.06082 36.72 7.63135 37.1994C8.32039 37.7293 9.27652 37.7404 9.97772 37.2267L11.818 35.9066C13.4054 36.894 15.1431 37.6161 16.9629 38.0443L17.3284 40.2752C17.4673 41.134 18.1557 41.7984 19.0189 41.9069C19.4179 41.9517 19.8232 41.9832 20.2312 42H20.2907C20.6555 41.9997 21.0064 41.8594 21.2707 41.608C21.5455 41.3454 21.7006 40.9815 21.6998 40.6014V34.9916C21.6956 34.242 21.1039 33.6276 20.3551 33.5952C13.6552 33.2453 8.40214 27.7109 8.40214 21.0019C8.40214 14.2929 13.6552 8.75848 20.3551 8.40868C21.1051 8.37578 21.6971 7.75951 21.6998 7.00869V1.40176C21.7009 1.02121 21.5455 0.657026 21.2699 0.394499C20.9949 0.124646 20.6195 -0.017778 20.2346 0.00177853C19.8272 0.0178799 19.4233 0.0472492 19.0089 0.0892647C18.1462 0.200454 17.4612 0.86897 17.3289 1.72863L16.9642 3.95738C15.1444 4.38597 13.4067 5.10825 11.8193 6.09589L9.97903 4.77848C9.27133 4.26096 8.30595 4.27637 7.61518 4.81628C7.10767 5.23174 6.62194 5.67304 6.15991 6.1386C5.68371 6.60408 5.23543 7.09728 4.81735 7.61556C4.28324 8.3055 4.26956 9.26543 4.78376 9.97037L6.10324 11.8128C5.1165 13.4016 4.3956 15.1409 3.96895 16.9619L1.7402 17.3273ZM5.23529 17.7179C5.64225 15.7408 6.42299 13.8596 7.5355 12.1753C7.69492 11.9331 7.6885 11.6177 7.5194 11.3822L5.92274 9.15279C5.77513 8.95799 5.77085 8.69 5.91224 8.49056C6.29591 8.01506 6.70756 7.56277 7.14492 7.13605C7.56978 6.70691 8.01598 6.2994 8.48188 5.91525C8.68243 5.76239 8.96036 5.76239 9.1609 5.91525L11.3869 7.51267C11.6227 7.68135 11.9381 7.68716 12.18 7.52739C13.8628 6.41446 15.743 5.63344 17.7191 5.22649C18.0032 5.16795 18.2217 4.94019 18.2686 4.65389L18.7089 1.95819C18.7405 1.7164 18.9262 1.5236 19.1667 1.48289C19.5369 1.4444 19.9122 1.41711 20.3 1.4017L20.2846 7.00931C12.8321 7.38994 6.98612 13.5455 6.99027 21.0077C6.99434 28.4699 12.8471 34.6191 20.3 34.9915L20.2902 40.6012C19.9142 40.5858 19.5419 40.5565 19.1744 40.5151C18.9328 40.4798 18.7435 40.2894 18.7096 40.0475L18.2686 37.3504C18.2217 37.0641 18.0032 36.8364 17.7191 36.7778C15.743 36.3705 13.8628 35.5894 12.18 34.4762C11.9379 34.3166 11.6226 34.3228 11.3869 34.4916L9.15883 36.0905C8.96879 36.2382 8.70482 36.2453 8.50711 36.1079C7.99263 35.6746 7.54669 35.268 7.14492 34.8668C6.71571 34.4427 6.30848 33.997 5.92481 33.5312C5.77382 33.3296 5.77382 33.0525 5.92481 32.8508L7.52009 30.6235C7.68898 30.3878 7.69513 30.0724 7.5355 29.8303C6.42292 28.1464 5.64218 26.2654 5.23529 24.2885C5.17683 24.0046 4.94941 23.7861 4.66338 23.739L1.96838 23.2973C1.71753 23.2558 1.52494 23.0524 1.4973 22.7996C1.3662 21.5956 1.36759 20.3808 1.50151 19.1771C1.53634 18.9353 1.72651 18.7454 1.96838 18.711L4.66262 18.2699C4.94975 18.2229 5.17773 18.0031 5.23529 17.7179Z" fill="#556EAA"/>
<path d="M39.9019 18.9011C39.0152 18.9047 38.2264 19.465 37.9307 20.3011H21.7021V18.201H32.902C34.0618 18.201 35.0019 17.2609 35.0019 16.1011V12.4724C35.9662 12.1315 36.5446 11.1454 36.3717 10.1374C36.1987 9.12937 35.3247 8.39251 34.3019 8.39251C33.2792 8.39251 32.4051 9.12937 32.2322 10.1374C32.0592 11.1454 32.6376 12.1315 33.6019 12.4724V16.1011C33.6019 16.4877 33.2885 16.8011 32.9019 16.8011H21.7021V14.7011H29.402C29.7886 14.7011 30.102 14.3877 30.102 14.0011C30.102 13.6145 29.7886 13.3011 29.402 13.3011H21.7021V11.9011H25.9021C27.0619 11.9011 28.0021 10.9609 28.0021 9.80106V5.47243C28.9664 5.13154 29.5448 4.14549 29.3718 3.13746C29.1988 2.12944 28.3248 1.39258 27.3021 1.39258C26.2793 1.39258 25.4053 2.12944 25.2323 3.13746C25.0593 4.14549 25.6377 5.13154 26.602 5.47243V9.8012C26.602 10.1878 26.2886 10.5012 25.902 10.5012H21.5173C21.2764 10.0536 20.7958 9.78856 20.2888 9.82366C14.39 10.1973 9.79688 15.0905 9.79688 21.0012C9.79688 26.9118 14.39 31.805 20.2888 32.1787H20.3707C20.8489 32.1827 21.2901 31.9219 21.5173 31.5011H25.902C26.2886 31.5011 26.602 31.8145 26.602 32.2011V36.5299C25.6377 36.8708 25.0593 37.8568 25.2323 38.8649C25.4053 39.8729 26.2793 40.6097 27.3021 40.6097C28.3248 40.6097 29.1988 39.8729 29.3718 38.8649C29.5448 37.8568 28.9664 36.8708 28.0021 36.5299V32.2011C28.0021 31.0413 27.0619 30.1011 25.9021 30.1011H21.7021V28.7011H29.402C29.7886 28.7011 30.102 28.3877 30.102 28.0012C30.102 27.6146 29.7886 27.3011 29.402 27.3011H21.7021V25.2012H32.902C33.2886 25.2012 33.602 25.5146 33.602 25.9011V29.5299C32.6378 29.8708 32.0593 30.8568 32.2323 31.8649C32.4053 32.8729 33.2793 33.6097 34.3021 33.6097C35.3248 33.6097 36.1988 32.8729 36.3718 31.8649C36.5448 30.8568 35.9664 29.8708 35.0021 29.5299V25.9011C35.0021 24.7414 34.0619 23.8012 32.9021 23.8012H21.7021V21.701H37.9307C38.2884 22.7053 39.3427 23.2811 40.381 23.0394C41.4193 22.7977 42.1109 21.8153 41.9883 20.7564C41.8656 19.6976 40.9679 18.8992 39.9019 18.9011ZM34.302 9.8012C34.6886 9.8012 35.0019 10.1146 35.0019 10.5012C35.0019 10.8879 34.6886 11.2013 34.302 11.2013C33.9154 11.2013 33.602 10.8879 33.602 10.5012C33.602 10.1146 33.9154 9.8012 34.302 9.8012ZM27.3021 2.80127C27.6886 2.80127 28.0021 3.11466 28.0021 3.5013C28.0021 3.88794 27.6887 4.20126 27.3021 4.20126C26.9154 4.20126 26.6021 3.88787 26.6021 3.5013C26.6021 3.11473 26.9154 2.80127 27.3021 2.80127ZM27.3021 39.2009C26.9155 39.2009 26.6021 38.8875 26.6021 38.5009C26.6021 38.1142 26.9155 37.8009 27.3021 37.8009C27.6886 37.8009 28.0021 38.1142 28.0021 38.5009C28.0021 38.8875 27.6886 39.2009 27.3021 39.2009ZM34.302 32.201C33.9154 32.201 33.602 31.8876 33.602 31.501C33.602 31.1143 33.9154 30.801 34.302 30.801C34.6886 30.801 35.0019 31.1144 35.0019 31.501C35.0019 31.8875 34.6886 32.201 34.302 32.201ZM11.2022 21.0011C11.2081 15.8627 15.1773 11.5992 20.3021 11.2264V30.7758C15.1773 30.403 11.2081 26.1394 11.2022 21.0011ZM39.9019 21.701C39.5154 21.701 39.2019 21.3877 39.2019 21.001C39.2019 20.6144 39.5153 20.3011 39.9019 20.3011C40.2886 20.3011 40.602 20.6145 40.602 21.001C40.602 21.3876 40.2885 21.701 39.9019 21.701Z" fill="#556EAA"/>
</g>
<defs>
<clipPath id="clip0_2001_7282">
<rect width="42" height="42" fill="white"/>
</clipPath>
</defs>
</svg>
