<svg width="286" height="148" viewBox="0 0 286 148" fill="none" xmlns="http://www.w3.org/2000/svg">
<path d="M5.64 20.2C4.76 20.2 3.96 19.9933 3.24 19.58C2.53333 19.1533 1.96667 18.5867 1.54 17.88C1.12667 17.1733 0.92 16.3867 0.92 15.52C0.92 14.3467 1.32667 13.2 2.14 12.08L6.46 6.24H8.18L3.9 11.9L3.38 12.1C3.56667 11.86 3.78 11.66 4.02 11.5C4.27333 11.3267 4.56 11.1933 4.88 11.1C5.2 11.0067 5.56667 10.96 5.98 10.96C6.79333 10.96 7.53333 11.16 8.2 11.56C8.86667 11.9467 9.4 12.48 9.8 13.16C10.2 13.84 10.4 14.6133 10.4 15.48C10.4 16.3467 10.1867 17.14 9.76 17.86C9.33333 18.5667 8.76 19.1333 8.04 19.56C7.32 19.9867 6.52 20.2 5.64 20.2ZM5.66 18.84C6.26 18.84 6.80667 18.6933 7.3 18.4C7.80667 18.0933 8.20667 17.6867 8.5 17.18C8.79333 16.66 8.94 16.0933 8.94 15.48C8.94 14.8533 8.79333 14.2867 8.5 13.78C8.20667 13.2733 7.80667 12.8733 7.3 12.58C6.80667 12.2733 6.26 12.12 5.66 12.12C5.04667 12.12 4.48667 12.2733 3.98 12.58C3.48667 12.8733 3.09333 13.2733 2.8 13.78C2.52 14.2733 2.38 14.84 2.38 15.48C2.38 16.1067 2.52 16.68 2.8 17.2C3.09333 17.7067 3.48667 18.1067 3.98 18.4C4.48667 18.6933 5.04667 18.84 5.66 18.84ZM17.4286 20.2C16.5353 20.2 15.7419 20.0267 15.0486 19.68C14.3686 19.3333 13.8353 18.86 13.4486 18.26C13.0619 17.6467 12.8686 16.9533 12.8686 16.18C12.8686 15.5667 12.9886 15.0067 13.2286 14.5C13.4819 13.98 13.8353 13.54 14.2886 13.18C14.7419 12.8067 15.2686 12.5533 15.8686 12.42L16.0286 12.84C15.4953 12.6933 15.0419 12.46 14.6686 12.14C14.2953 11.82 14.0086 11.44 13.8086 11C13.6086 10.5467 13.5086 10.0733 13.5086 9.58C13.5086 8.87333 13.6753 8.26 14.0086 7.74C14.3553 7.20667 14.8219 6.78667 15.4086 6.48C16.0086 6.17333 16.6819 6.02 17.4286 6.02C18.1886 6.02 18.8619 6.17333 19.4486 6.48C20.0486 6.78667 20.5153 7.20667 20.8486 7.74C21.1819 8.26 21.3486 8.87333 21.3486 9.58C21.3486 10.0733 21.2486 10.5467 21.0486 11C20.8619 11.44 20.5819 11.82 20.2086 12.14C19.8353 12.46 19.3753 12.6933 18.8286 12.84L18.9886 12.42C19.6019 12.5533 20.1286 12.8067 20.5686 13.18C21.0219 13.54 21.3686 13.98 21.6086 14.5C21.8619 15.0067 21.9886 15.5667 21.9886 16.18C21.9886 16.9533 21.7953 17.6467 21.4086 18.26C21.0353 18.86 20.5019 19.3333 19.8086 19.68C19.1286 20.0267 18.3353 20.2 17.4286 20.2ZM17.4286 18.88C18.0419 18.88 18.5819 18.76 19.0486 18.52C19.5286 18.28 19.9019 17.9467 20.1686 17.52C20.4353 17.08 20.5686 16.5867 20.5686 16.04C20.5686 15.48 20.4353 14.9933 20.1686 14.58C19.9019 14.1533 19.5286 13.82 19.0486 13.58C18.5819 13.3267 18.0419 13.2 17.4286 13.2C16.8286 13.2 16.2886 13.3267 15.8086 13.58C15.3419 13.82 14.9686 14.1533 14.6886 14.58C14.4219 14.9933 14.2886 15.48 14.2886 16.04C14.2886 16.5867 14.4219 17.08 14.6886 17.52C14.9686 17.9467 15.3419 18.28 15.8086 18.52C16.2753 18.76 16.8153 18.88 17.4286 18.88ZM17.4286 12.06C18.1753 12.06 18.7819 11.84 19.2486 11.4C19.7286 10.9467 19.9686 10.3667 19.9686 9.66C19.9686 8.95333 19.7286 8.38 19.2486 7.94C18.7819 7.5 18.1753 7.28 17.4286 7.28C16.6953 7.28 16.0886 7.5 15.6086 7.94C15.1286 8.38 14.8886 8.95333 14.8886 9.66C14.8886 10.3667 15.1286 10.9467 15.6086 11.4C16.0886 11.84 16.6953 12.06 17.4286 12.06ZM25.0238 20L33.8638 6.24H35.3038L26.4838 20H25.0238ZM32.8038 20.2C32.2971 20.2 31.8304 20.08 31.4038 19.84C30.9771 19.5867 30.6371 19.2467 30.3838 18.82C30.1304 18.3933 30.0038 17.92 30.0038 17.4C30.0038 16.88 30.1304 16.4133 30.3838 16C30.6371 15.5867 30.9704 15.26 31.3838 15.02C31.8104 14.7667 32.2838 14.64 32.8038 14.64C33.3238 14.64 33.7904 14.7667 34.2038 15.02C34.6304 15.26 34.9704 15.5867 35.2238 16C35.4771 16.4133 35.6038 16.88 35.6038 17.4C35.6038 17.92 35.4771 18.3933 35.2238 18.82C34.9838 19.2467 34.6504 19.5867 34.2238 19.84C33.7971 20.08 33.3238 20.2 32.8038 20.2ZM32.7838 19.06C33.2638 19.06 33.6571 18.9067 33.9638 18.6C34.2704 18.2933 34.4238 17.8933 34.4238 17.4C34.4238 16.92 34.2638 16.5333 33.9438 16.24C33.6238 15.9333 33.2371 15.78 32.7838 15.78C32.3438 15.78 31.9704 15.9333 31.6638 16.24C31.3571 16.5333 31.2038 16.92 31.2038 17.4C31.2038 17.8933 31.3571 18.2933 31.6638 18.6C31.9704 18.9067 32.3438 19.06 32.7838 19.06ZM27.5238 11.6C27.0171 11.6 26.5504 11.48 26.1238 11.24C25.6971 10.9867 25.3571 10.6533 25.1038 10.24C24.8504 9.81333 24.7238 9.34 24.7238 8.82C24.7238 8.3 24.8504 7.83333 25.1038 7.42C25.3571 6.99333 25.6904 6.66 26.1038 6.42C26.5304 6.16667 27.0038 6.04 27.5238 6.04C28.0438 6.04 28.5104 6.16667 28.9238 6.42C29.3504 6.66 29.6904 6.99333 29.9438 7.42C30.1971 7.83333 30.3238 8.3 30.3238 8.82C30.3238 9.34 30.1971 9.81333 29.9438 10.24C29.7038 10.6533 29.3704 10.9867 28.9438 11.24C28.5171 11.48 28.0438 11.6 27.5238 11.6ZM27.5038 10.46C27.9838 10.46 28.3704 10.3067 28.6638 10C28.9704 9.69333 29.1238 9.29333 29.1238 8.8C29.1238 8.32 28.9638 7.93333 28.6438 7.64C28.3371 7.33333 27.9571 7.18 27.5038 7.18C27.0638 7.18 26.6904 7.33333 26.3838 7.64C26.0771 7.93333 25.9238 8.32 25.9238 8.8C25.9238 9.29333 26.0771 9.69333 26.3838 10C26.6904 10.3067 27.0638 10.46 27.5038 10.46ZM43.7028 20V10.6H45.1028V20H43.7028ZM50.1628 20V14.24C50.1628 13.4667 49.9295 12.8533 49.4628 12.4C48.9961 11.9333 48.4095 11.7 47.7028 11.7C47.2228 11.7 46.7828 11.8067 46.3828 12.02C45.9961 12.22 45.6828 12.5067 45.4428 12.88C45.2161 13.2533 45.1028 13.7 45.1028 14.22L44.4628 13.96C44.4628 13.24 44.6228 12.6133 44.9428 12.08C45.2628 11.5467 45.6895 11.1333 46.2228 10.84C46.7695 10.5467 47.3828 10.4 48.0628 10.4C48.7295 10.4 49.3228 10.5467 49.8428 10.84C50.3761 11.1333 50.7961 11.5467 51.1028 12.08C51.4228 12.6133 51.5828 13.2467 51.5828 13.98V20H50.1628ZM56.6428 20V14.24C56.6428 13.4667 56.4095 12.8533 55.9428 12.4C55.4761 11.9333 54.8828 11.7 54.1628 11.7C53.6961 11.7 53.2628 11.8067 52.8628 12.02C52.4761 12.22 52.1628 12.5067 51.9228 12.88C51.6961 13.2533 51.5828 13.7 51.5828 14.22L50.7428 13.96C50.7828 13.24 50.9695 12.6133 51.3028 12.08C51.6495 11.5467 52.0961 11.1333 52.6428 10.84C53.2028 10.5467 53.8161 10.4 54.4828 10.4C55.1495 10.4 55.7495 10.5467 56.2828 10.84C56.8295 11.1333 57.2561 11.5467 57.5628 12.08C57.8828 12.6133 58.0428 13.2467 58.0428 13.98V20H56.6428ZM65.6155 20.2C64.6688 20.2 63.8221 19.9867 63.0755 19.56C62.3288 19.1333 61.7355 18.5467 61.2955 17.8C60.8688 17.0533 60.6555 16.2133 60.6555 15.28C60.6555 14.36 60.8688 13.5333 61.2955 12.8C61.7221 12.0533 62.3021 11.4667 63.0355 11.04C63.7688 10.6133 64.5888 10.4 65.4955 10.4C66.3488 10.4 67.1021 10.5933 67.7555 10.98C68.4221 11.3667 68.9421 11.9067 69.3155 12.6C69.7021 13.28 69.8955 14.0667 69.8955 14.96C69.8955 15.0667 69.8888 15.1933 69.8755 15.34C69.8621 15.4733 69.8355 15.6333 69.7955 15.82H61.6555V14.62H69.0355L68.5355 15.06C68.5488 14.3667 68.4288 13.7733 68.1755 13.28C67.9355 12.7733 67.5821 12.3867 67.1155 12.12C66.6621 11.84 66.1088 11.7 65.4555 11.7C64.7755 11.7 64.1821 11.8467 63.6755 12.14C63.1688 12.4333 62.7688 12.8467 62.4755 13.38C62.1955 13.9 62.0555 14.52 62.0555 15.24C62.0555 15.96 62.2021 16.5933 62.4955 17.14C62.8021 17.6867 63.2221 18.1133 63.7555 18.42C64.3021 18.7267 64.9288 18.88 65.6355 18.88C66.2088 18.88 66.7355 18.78 67.2155 18.58C67.6955 18.3667 68.1021 18.0533 68.4355 17.64L69.3355 18.56C68.8955 19.08 68.3488 19.4867 67.6955 19.78C67.0555 20.06 66.3621 20.2 65.6155 20.2ZM76.6372 20.2C75.7705 20.2 74.9905 19.9867 74.2972 19.56C73.6039 19.1333 73.0505 18.5533 72.6372 17.82C72.2372 17.0733 72.0372 16.24 72.0372 15.32C72.0372 14.3867 72.2372 13.5533 72.6372 12.82C73.0505 12.0733 73.6039 11.4867 74.2972 11.06C74.9905 10.62 75.7705 10.4 76.6372 10.4C77.3439 10.4 77.9839 10.54 78.5572 10.82C79.1305 11.1 79.6039 11.5 79.9772 12.02C80.3639 12.5267 80.5905 13.1267 80.6572 13.82V16.76C80.5772 17.44 80.3505 18.04 79.9772 18.56C79.6172 19.0667 79.1505 19.4667 78.5772 19.76C78.0039 20.0533 77.3572 20.2 76.6372 20.2ZM76.8772 18.86C77.5305 18.86 78.1039 18.7133 78.5972 18.42C79.0905 18.1133 79.4772 17.6933 79.7572 17.16C80.0372 16.6133 80.1772 15.9933 80.1772 15.3C80.1772 14.5933 80.0305 13.9733 79.7372 13.44C79.4572 12.9067 79.0705 12.4867 78.5772 12.18C78.0839 11.8733 77.5105 11.72 76.8572 11.72C76.2039 11.72 75.6239 11.8733 75.1172 12.18C74.6105 12.4867 74.2105 12.9133 73.9172 13.46C73.6372 13.9933 73.4972 14.6067 73.4972 15.3C73.4972 15.9933 73.6372 16.6133 73.9172 17.16C74.2105 17.6933 74.6105 18.1133 75.1172 18.42C75.6372 18.7133 76.2239 18.86 76.8772 18.86ZM81.4972 20H80.0972V17.48L80.3772 15.16L80.0972 12.9V5.84H81.4972V20ZM84.9364 20V10.6H86.3564V20H84.9364ZM85.6364 8.56C85.3697 8.56 85.1431 8.46667 84.9564 8.28C84.7697 8.08 84.6764 7.84667 84.6764 7.58C84.6764 7.3 84.7697 7.06667 84.9564 6.88C85.1431 6.69333 85.3697 6.6 85.6364 6.6C85.9297 6.6 86.1631 6.69333 86.3364 6.88C86.5231 7.06667 86.6164 7.3 86.6164 7.58C86.6164 7.84667 86.5231 8.08 86.3364 8.28C86.1631 8.46667 85.9297 8.56 85.6364 8.56ZM94.0742 20.2C93.1542 20.2 92.3209 19.9867 91.5742 19.56C90.8409 19.12 90.2542 18.5267 89.8142 17.78C89.3876 17.0333 89.1742 16.2 89.1742 15.28C89.1742 14.36 89.3876 13.5333 89.8142 12.8C90.2542 12.0533 90.8409 11.4667 91.5742 11.04C92.3209 10.6133 93.1542 10.4 94.0742 10.4C94.7809 10.4 95.4409 10.5333 96.0542 10.8C96.6676 11.0667 97.1876 11.44 97.6142 11.92L96.6942 12.86C96.3742 12.5 95.9876 12.2267 95.5342 12.04C95.0809 11.84 94.5942 11.74 94.0742 11.74C93.4076 11.74 92.8142 11.8933 92.2942 12.2C91.7742 12.5067 91.3676 12.9267 91.0742 13.46C90.7809 13.98 90.6342 14.5867 90.6342 15.28C90.6342 15.96 90.7809 16.5733 91.0742 17.12C91.3676 17.6533 91.7742 18.0733 92.2942 18.38C92.8142 18.6867 93.4076 18.84 94.0742 18.84C94.6076 18.84 95.1009 18.7467 95.5542 18.56C96.0076 18.36 96.3942 18.08 96.7142 17.72L97.6542 18.66C97.2142 19.1533 96.6809 19.5333 96.0542 19.8C95.4409 20.0667 94.7809 20.2 94.0742 20.2ZM104.123 20.2C103.229 20.2 102.429 19.9867 101.723 19.56C101.016 19.12 100.456 18.5333 100.043 17.8C99.6427 17.0667 99.4427 16.24 99.4427 15.32C99.4427 14.3867 99.6427 13.5533 100.043 12.82C100.456 12.0733 101.016 11.4867 101.723 11.06C102.429 10.62 103.223 10.4 104.103 10.4C104.823 10.4 105.463 10.5467 106.023 10.84C106.596 11.12 107.056 11.52 107.403 12.04C107.763 12.5467 107.983 13.14 108.063 13.82V16.76C107.983 17.44 107.763 18.04 107.403 18.56C107.056 19.08 106.596 19.4867 106.023 19.78C105.463 20.06 104.829 20.2 104.123 20.2ZM104.343 18.86C105.316 18.86 106.096 18.5333 106.683 17.88C107.283 17.2267 107.583 16.3667 107.583 15.3C107.583 14.5933 107.443 13.9733 107.163 13.44C106.896 12.8933 106.516 12.4733 106.023 12.18C105.543 11.8733 104.976 11.72 104.323 11.72C103.656 11.72 103.063 11.8733 102.543 12.18C102.036 12.4867 101.629 12.9133 101.323 13.46C101.029 13.9933 100.883 14.6067 100.883 15.3C100.883 15.9933 101.029 16.6067 101.323 17.14C101.629 17.6733 102.043 18.0933 102.563 18.4C103.083 18.7067 103.676 18.86 104.343 18.86ZM107.503 20V17.48L107.783 15.16L107.503 12.9V10.6H108.903V20H107.503ZM112.342 20V5.84H113.742V20H112.342ZM124.957 20.2C124.45 20.2 123.964 20.1333 123.497 20C123.03 19.8533 122.604 19.6533 122.217 19.4C121.844 19.1467 121.517 18.8467 121.237 18.5L122.137 17.58C122.51 18.0333 122.93 18.3733 123.397 18.6C123.877 18.8133 124.41 18.92 124.997 18.92C125.624 18.92 126.11 18.8 126.457 18.56C126.817 18.32 126.997 17.9867 126.997 17.56C126.997 17.16 126.87 16.8467 126.617 16.62C126.364 16.3933 126.037 16.2133 125.637 16.08C125.25 15.9467 124.837 15.82 124.397 15.7C123.957 15.5667 123.537 15.4067 123.137 15.22C122.737 15.02 122.41 14.7467 122.157 14.4C121.917 14.0533 121.797 13.6 121.797 13.04C121.797 12.5067 121.924 12.0467 122.177 11.66C122.444 11.26 122.817 10.9533 123.297 10.74C123.79 10.5133 124.37 10.4 125.037 10.4C125.744 10.4 126.384 10.5267 126.957 10.78C127.53 11.0333 127.99 11.4067 128.337 11.9L127.437 12.8C127.157 12.44 126.804 12.1667 126.377 11.98C125.964 11.78 125.497 11.68 124.977 11.68C124.377 11.68 123.917 11.8 123.597 12.04C123.29 12.2667 123.137 12.5667 123.137 12.94C123.137 13.3 123.264 13.5867 123.517 13.8C123.77 14 124.09 14.1667 124.477 14.3C124.877 14.42 125.297 14.5467 125.737 14.68C126.177 14.8 126.597 14.9667 126.997 15.18C127.397 15.38 127.717 15.66 127.957 16.02C128.21 16.3667 128.337 16.84 128.337 17.44C128.337 18.28 128.03 18.9533 127.417 19.46C126.817 19.9533 125.997 20.2 124.957 20.2ZM135.434 20.2C134.514 20.2 133.68 19.9867 132.934 19.56C132.2 19.12 131.614 18.5267 131.174 17.78C130.747 17.0333 130.534 16.2 130.534 15.28C130.534 14.36 130.747 13.5333 131.174 12.8C131.614 12.0533 132.2 11.4667 132.934 11.04C133.68 10.6133 134.514 10.4 135.434 10.4C136.14 10.4 136.8 10.5333 137.414 10.8C138.027 11.0667 138.547 11.44 138.974 11.92L138.054 12.86C137.734 12.5 137.347 12.2267 136.894 12.04C136.44 11.84 135.954 11.74 135.434 11.74C134.767 11.74 134.174 11.8933 133.654 12.2C133.134 12.5067 132.727 12.9267 132.434 13.46C132.14 13.98 131.994 14.5867 131.994 15.28C131.994 15.96 132.14 16.5733 132.434 17.12C132.727 17.6533 133.134 18.0733 133.654 18.38C134.174 18.6867 134.767 18.84 135.434 18.84C135.967 18.84 136.46 18.7467 136.914 18.56C137.367 18.36 137.754 18.08 138.074 17.72L139.014 18.66C138.574 19.1533 138.04 19.5333 137.414 19.8C136.8 20.0667 136.14 20.2 135.434 20.2ZM148.418 20V14.48C148.418 13.6533 148.171 12.9867 147.678 12.48C147.198 11.96 146.558 11.7 145.758 11.7C145.211 11.7 144.731 11.82 144.318 12.06C143.904 12.3 143.578 12.6267 143.338 13.04C143.098 13.4533 142.978 13.9267 142.978 14.46L142.338 14.1C142.338 13.3933 142.504 12.76 142.838 12.2C143.171 11.64 143.618 11.2 144.178 10.88C144.751 10.56 145.404 10.4 146.138 10.4C146.858 10.4 147.498 10.5667 148.058 10.9C148.618 11.22 149.051 11.6667 149.358 12.24C149.678 12.8133 149.838 13.48 149.838 14.24V20H148.418ZM141.578 20V5.84H142.978V20H141.578ZM157.317 20.2C156.41 20.2 155.583 19.98 154.837 19.54C154.103 19.1 153.517 18.5067 153.077 17.76C152.65 17.0133 152.437 16.18 152.437 15.26C152.437 14.3533 152.65 13.5333 153.077 12.8C153.517 12.0667 154.103 11.4867 154.837 11.06C155.583 10.62 156.41 10.4 157.317 10.4C158.237 10.4 159.063 10.6133 159.797 11.04C160.53 11.4667 161.11 12.0533 161.537 12.8C161.977 13.5333 162.197 14.3533 162.197 15.26C162.197 16.1933 161.977 17.0333 161.537 17.78C161.11 18.5133 160.53 19.1 159.797 19.54C159.063 19.98 158.237 20.2 157.317 20.2ZM157.317 18.84C157.983 18.84 158.57 18.6867 159.077 18.38C159.597 18.0733 160.003 17.6467 160.297 17.1C160.603 16.5533 160.757 15.94 160.757 15.26C160.757 14.58 160.603 13.98 160.297 13.46C160.003 12.9267 159.597 12.5067 159.077 12.2C158.57 11.8933 157.983 11.74 157.317 11.74C156.663 11.74 156.077 11.8933 155.557 12.2C155.037 12.5067 154.63 12.9267 154.337 13.46C154.043 13.98 153.897 14.58 153.897 15.26C153.897 15.9533 154.043 16.5733 154.337 17.12C154.63 17.6533 155.037 18.0733 155.557 18.38C156.077 18.6867 156.663 18.84 157.317 18.84ZM169.284 20.2C168.377 20.2 167.551 19.98 166.804 19.54C166.071 19.1 165.484 18.5067 165.044 17.76C164.617 17.0133 164.404 16.18 164.404 15.26C164.404 14.3533 164.617 13.5333 165.044 12.8C165.484 12.0667 166.071 11.4867 166.804 11.06C167.551 10.62 168.377 10.4 169.284 10.4C170.204 10.4 171.031 10.6133 171.764 11.04C172.497 11.4667 173.077 12.0533 173.504 12.8C173.944 13.5333 174.164 14.3533 174.164 15.26C174.164 16.1933 173.944 17.0333 173.504 17.78C173.077 18.5133 172.497 19.1 171.764 19.54C171.031 19.98 170.204 20.2 169.284 20.2ZM169.284 18.84C169.951 18.84 170.537 18.6867 171.044 18.38C171.564 18.0733 171.971 17.6467 172.264 17.1C172.571 16.5533 172.724 15.94 172.724 15.26C172.724 14.58 172.571 13.98 172.264 13.46C171.971 12.9267 171.564 12.5067 171.044 12.2C170.537 11.8933 169.951 11.74 169.284 11.74C168.631 11.74 168.044 11.8933 167.524 12.2C167.004 12.5067 166.597 12.9267 166.304 13.46C166.011 13.98 165.864 14.58 165.864 15.26C165.864 15.9533 166.011 16.5733 166.304 17.12C166.597 17.6533 167.004 18.0733 167.524 18.38C168.044 18.6867 168.631 18.84 169.284 18.84ZM176.991 20V5.84H178.391V20H176.991ZM184.709 20.2C184.203 20.2 183.716 20.1333 183.249 20C182.783 19.8533 182.356 19.6533 181.969 19.4C181.596 19.1467 181.269 18.8467 180.989 18.5L181.889 17.58C182.263 18.0333 182.683 18.3733 183.149 18.6C183.629 18.8133 184.163 18.92 184.749 18.92C185.376 18.92 185.863 18.8 186.209 18.56C186.569 18.32 186.749 17.9867 186.749 17.56C186.749 17.16 186.623 16.8467 186.369 16.62C186.116 16.3933 185.789 16.2133 185.389 16.08C185.003 15.9467 184.589 15.82 184.149 15.7C183.709 15.5667 183.289 15.4067 182.889 15.22C182.489 15.02 182.163 14.7467 181.909 14.4C181.669 14.0533 181.549 13.6 181.549 13.04C181.549 12.5067 181.676 12.0467 181.929 11.66C182.196 11.26 182.569 10.9533 183.049 10.74C183.543 10.5133 184.123 10.4 184.789 10.4C185.496 10.4 186.136 10.5267 186.709 10.78C187.283 11.0333 187.743 11.4067 188.089 11.9L187.189 12.8C186.909 12.44 186.556 12.1667 186.129 11.98C185.716 11.78 185.249 11.68 184.729 11.68C184.129 11.68 183.669 11.8 183.349 12.04C183.043 12.2667 182.889 12.5667 182.889 12.94C182.889 13.3 183.016 13.5867 183.269 13.8C183.523 14 183.843 14.1667 184.229 14.3C184.629 14.42 185.049 14.5467 185.489 14.68C185.929 14.8 186.349 14.9667 186.749 15.18C187.149 15.38 187.469 15.66 187.709 16.02C187.963 16.3667 188.089 16.84 188.089 17.44C188.089 18.28 187.783 18.9533 187.169 19.46C186.569 19.9533 185.749 20.2 184.709 20.2ZM199.523 20.2C198.763 20.2 198.083 20.0267 197.483 19.68C196.883 19.32 196.409 18.8333 196.063 18.22C195.729 17.6067 195.563 16.8867 195.563 16.06V10.6H196.983V16C196.983 16.5733 197.083 17.0733 197.283 17.5C197.496 17.9267 197.796 18.26 198.183 18.5C198.569 18.74 199.016 18.86 199.523 18.86C200.309 18.86 200.929 18.6 201.383 18.08C201.849 17.56 202.083 16.8667 202.083 16V10.6H203.483V16.06C203.483 16.8733 203.316 17.5933 202.983 18.22C202.649 18.8467 202.183 19.3333 201.583 19.68C200.983 20.0267 200.296 20.2 199.523 20.2ZM209.576 20.2C209.069 20.2 208.582 20.1333 208.116 20C207.649 19.8533 207.222 19.6533 206.836 19.4C206.462 19.1467 206.136 18.8467 205.856 18.5L206.756 17.58C207.129 18.0333 207.549 18.3733 208.016 18.6C208.496 18.8133 209.029 18.92 209.616 18.92C210.242 18.92 210.729 18.8 211.076 18.56C211.436 18.32 211.616 17.9867 211.616 17.56C211.616 17.16 211.489 16.8467 211.236 16.62C210.982 16.3933 210.656 16.2133 210.256 16.08C209.869 15.9467 209.456 15.82 209.016 15.7C208.576 15.5667 208.156 15.4067 207.756 15.22C207.356 15.02 207.029 14.7467 206.776 14.4C206.536 14.0533 206.416 13.6 206.416 13.04C206.416 12.5067 206.542 12.0467 206.796 11.66C207.062 11.26 207.436 10.9533 207.916 10.74C208.409 10.5133 208.989 10.4 209.656 10.4C210.362 10.4 211.002 10.5267 211.576 10.78C212.149 11.0333 212.609 11.4067 212.956 11.9L212.056 12.8C211.776 12.44 211.422 12.1667 210.996 11.98C210.582 11.78 210.116 11.68 209.596 11.68C208.996 11.68 208.536 11.8 208.216 12.04C207.909 12.2667 207.756 12.5667 207.756 12.94C207.756 13.3 207.882 13.5867 208.136 13.8C208.389 14 208.709 14.1667 209.096 14.3C209.496 14.42 209.916 14.5467 210.356 14.68C210.796 14.8 211.216 14.9667 211.616 15.18C212.016 15.38 212.336 15.66 212.576 16.02C212.829 16.3667 212.956 16.84 212.956 17.44C212.956 18.28 212.649 18.9533 212.036 19.46C211.436 19.9533 210.616 20.2 209.576 20.2ZM220.112 20.2C219.166 20.2 218.319 19.9867 217.572 19.56C216.826 19.1333 216.232 18.5467 215.792 17.8C215.366 17.0533 215.152 16.2133 215.152 15.28C215.152 14.36 215.366 13.5333 215.792 12.8C216.219 12.0533 216.799 11.4667 217.532 11.04C218.266 10.6133 219.086 10.4 219.992 10.4C220.846 10.4 221.599 10.5933 222.252 10.98C222.919 11.3667 223.439 11.9067 223.812 12.6C224.199 13.28 224.392 14.0667 224.392 14.96C224.392 15.0667 224.386 15.1933 224.372 15.34C224.359 15.4733 224.332 15.6333 224.292 15.82H216.152V14.62H223.532L223.032 15.06C223.046 14.3667 222.926 13.7733 222.672 13.28C222.432 12.7733 222.079 12.3867 221.612 12.12C221.159 11.84 220.606 11.7 219.952 11.7C219.272 11.7 218.679 11.8467 218.172 12.14C217.666 12.4333 217.266 12.8467 216.972 13.38C216.692 13.9 216.552 14.52 216.552 15.24C216.552 15.96 216.699 16.5933 216.992 17.14C217.299 17.6867 217.719 18.1133 218.252 18.42C218.799 18.7267 219.426 18.88 220.132 18.88C220.706 18.88 221.232 18.78 221.712 18.58C222.192 18.3667 222.599 18.0533 222.932 17.64L223.832 18.56C223.392 19.08 222.846 19.4867 222.192 19.78C221.552 20.06 220.859 20.2 220.112 20.2ZM236.831 20L231.351 6.24H232.951L237.691 18.38H237.111L241.891 6.24H243.451L237.931 20H236.831ZM247.485 13.84V12.6H251.485C252.392 12.6 253.085 12.3733 253.565 11.92C254.045 11.4533 254.285 10.8333 254.285 10.06C254.285 9.31333 254.045 8.70667 253.565 8.24C253.085 7.76 252.392 7.52 251.485 7.52H247.485V6.24H251.485C252.378 6.24 253.145 6.40667 253.785 6.74C254.425 7.06 254.912 7.50667 255.245 8.08C255.592 8.65333 255.765 9.30667 255.765 10.04C255.765 10.8 255.592 11.4667 255.245 12.04C254.912 12.6133 254.425 13.06 253.785 13.38C253.145 13.6867 252.378 13.84 251.485 13.84H247.485ZM246.545 20V6.24H248.005V20H246.545ZM254.865 20L249.705 13.64L251.125 13.18L256.745 20H254.865Z" fill="#010101" fill-opacity="0.5"/>
<path d="M2.5 33L283.5 33" stroke="black" stroke-opacity="0.2"/>
<path d="M3.1 77L8.38 64.06L9.8 64.16L4.62 77H3.1ZM0.72 64.54V63.24H9.8V64.16L9.16 64.54H0.72ZM14.7864 77V63.24H16.2264V77H14.7864ZM11.8864 64.54V63.24H16.0264V64.54H11.8864ZM20.0042 77L28.8442 63.24H30.2842L21.4642 77H20.0042ZM27.7842 77.2C27.2776 77.2 26.8109 77.08 26.3842 76.84C25.9576 76.5867 25.6176 76.2467 25.3642 75.82C25.1109 75.3933 24.9842 74.92 24.9842 74.4C24.9842 73.88 25.1109 73.4133 25.3642 73C25.6176 72.5867 25.9509 72.26 26.3642 72.02C26.7909 71.7667 27.2642 71.64 27.7842 71.64C28.3042 71.64 28.7709 71.7667 29.1842 72.02C29.6109 72.26 29.9509 72.5867 30.2042 73C30.4576 73.4133 30.5842 73.88 30.5842 74.4C30.5842 74.92 30.4576 75.3933 30.2042 75.82C29.9642 76.2467 29.6309 76.5867 29.2042 76.84C28.7776 77.08 28.3042 77.2 27.7842 77.2ZM27.7642 76.06C28.2442 76.06 28.6376 75.9067 28.9442 75.6C29.2509 75.2933 29.4042 74.8933 29.4042 74.4C29.4042 73.92 29.2442 73.5333 28.9242 73.24C28.6042 72.9333 28.2176 72.78 27.7642 72.78C27.3242 72.78 26.9509 72.9333 26.6442 73.24C26.3376 73.5333 26.1842 73.92 26.1842 74.4C26.1842 74.8933 26.3376 75.2933 26.6442 75.6C26.9509 75.9067 27.3242 76.06 27.7642 76.06ZM22.5042 68.6C21.9976 68.6 21.5309 68.48 21.1042 68.24C20.6776 67.9867 20.3376 67.6533 20.0842 67.24C19.8309 66.8133 19.7042 66.34 19.7042 65.82C19.7042 65.3 19.8309 64.8333 20.0842 64.42C20.3376 63.9933 20.6709 63.66 21.0842 63.42C21.5109 63.1667 21.9842 63.04 22.5042 63.04C23.0242 63.04 23.4909 63.1667 23.9042 63.42C24.3309 63.66 24.6709 63.9933 24.9242 64.42C25.1776 64.8333 25.3042 65.3 25.3042 65.82C25.3042 66.34 25.1776 66.8133 24.9242 67.24C24.6842 67.6533 24.3509 67.9867 23.9242 68.24C23.4976 68.48 23.0242 68.6 22.5042 68.6ZM22.4842 67.46C22.9642 67.46 23.3509 67.3067 23.6442 67C23.9509 66.6933 24.1042 66.2933 24.1042 65.8C24.1042 65.32 23.9442 64.9333 23.6242 64.64C23.3176 64.3333 22.9376 64.18 22.4842 64.18C22.0442 64.18 21.6709 64.3333 21.3642 64.64C21.0576 64.9333 20.9042 65.32 20.9042 65.8C20.9042 66.2933 21.0576 66.6933 21.3642 67C21.6709 67.3067 22.0442 67.46 22.4842 67.46ZM42.6833 77.2C41.8166 77.2 41.0366 76.9867 40.3433 76.56C39.6499 76.1333 39.0966 75.5533 38.6833 74.82C38.2833 74.0733 38.0833 73.24 38.0833 72.32C38.0833 71.3867 38.2833 70.5533 38.6833 69.82C39.0966 69.0733 39.6499 68.4867 40.3433 68.06C41.0366 67.62 41.8166 67.4 42.6833 67.4C43.3899 67.4 44.0299 67.54 44.6033 67.82C45.1766 68.1 45.6499 68.5 46.0233 69.02C46.4099 69.5267 46.6366 70.1267 46.7033 70.82V73.76C46.6233 74.44 46.3966 75.04 46.0233 75.56C45.6633 76.0667 45.1966 76.4667 44.6233 76.76C44.0499 77.0533 43.4033 77.2 42.6833 77.2ZM42.9233 75.86C43.5766 75.86 44.1499 75.7133 44.6433 75.42C45.1366 75.1133 45.5233 74.6933 45.8033 74.16C46.0833 73.6133 46.2233 72.9933 46.2233 72.3C46.2233 71.5933 46.0766 70.9733 45.7833 70.44C45.5033 69.9067 45.1166 69.4867 44.6233 69.18C44.13 68.8733 43.5566 68.72 42.9033 68.72C42.2499 68.72 41.6699 68.8733 41.1633 69.18C40.6566 69.4867 40.2566 69.9133 39.9633 70.46C39.6833 70.9933 39.5433 71.6067 39.5433 72.3C39.5433 72.9933 39.6833 73.6133 39.9633 74.16C40.2566 74.6933 40.6566 75.1133 41.1633 75.42C41.6833 75.7133 42.2699 75.86 42.9233 75.86ZM47.5433 77H46.1433V74.48L46.4233 72.16L46.1433 69.9V62.84H47.5433V77ZM55.2425 77.2C54.3358 77.2 53.5092 76.98 52.7625 76.54C52.0292 76.1 51.4425 75.5067 51.0025 74.76C50.5758 74.0133 50.3625 73.18 50.3625 72.26C50.3625 71.3533 50.5758 70.5333 51.0025 69.8C51.4425 69.0667 52.0292 68.4867 52.7625 68.06C53.5092 67.62 54.3358 67.4 55.2425 67.4C56.1625 67.4 56.9892 67.6133 57.7225 68.04C58.4558 68.4667 59.0358 69.0533 59.4625 69.8C59.9025 70.5333 60.1225 71.3533 60.1225 72.26C60.1225 73.1933 59.9025 74.0333 59.4625 74.78C59.0358 75.5133 58.4558 76.1 57.7225 76.54C56.9892 76.98 56.1625 77.2 55.2425 77.2ZM55.2425 75.84C55.9092 75.84 56.4958 75.6867 57.0025 75.38C57.5225 75.0733 57.9292 74.6467 58.2225 74.1C58.5292 73.5533 58.6825 72.94 58.6825 72.26C58.6825 71.58 58.5292 70.98 58.2225 70.46C57.9292 69.9267 57.5225 69.5067 57.0025 69.2C56.4958 68.8933 55.9092 68.74 55.2425 68.74C54.5892 68.74 54.0025 68.8933 53.4825 69.2C52.9625 69.5067 52.5558 69.9267 52.2625 70.46C51.9692 70.98 51.8225 71.58 51.8225 72.26C51.8225 72.9533 51.9692 73.5733 52.2625 74.12C52.5558 74.6533 52.9625 75.0733 53.4825 75.38C54.0025 75.6867 54.5892 75.84 55.2425 75.84ZM67.2297 77.2C66.3097 77.2 65.4764 76.9867 64.7297 76.56C63.9964 76.12 63.4097 75.5267 62.9697 74.78C62.543 74.0333 62.3297 73.2 62.3297 72.28C62.3297 71.36 62.543 70.5333 62.9697 69.8C63.4097 69.0533 63.9964 68.4667 64.7297 68.04C65.4764 67.6133 66.3097 67.4 67.2297 67.4C67.9364 67.4 68.5964 67.5333 69.2097 67.8C69.823 68.0667 70.343 68.44 70.7697 68.92L69.8497 69.86C69.5297 69.5 69.143 69.2267 68.6897 69.04C68.2364 68.84 67.7497 68.74 67.2297 68.74C66.563 68.74 65.9697 68.8933 65.4497 69.2C64.9297 69.5067 64.523 69.9267 64.2297 70.46C63.9364 70.98 63.7897 71.5867 63.7897 72.28C63.7897 72.96 63.9364 73.5733 64.2297 74.12C64.523 74.6533 64.9297 75.0733 65.4497 75.38C65.9697 75.6867 66.563 75.84 67.2297 75.84C67.763 75.84 68.2564 75.7467 68.7097 75.56C69.163 75.36 69.5497 75.08 69.8697 74.72L70.8097 75.66C70.3697 76.1533 69.8364 76.5333 69.2097 76.8C68.5964 77.0667 67.9364 77.2 67.2297 77.2ZM74.7558 77V63.64H76.1558V77H74.7558ZM72.3758 68.86V67.6H78.5158V68.86H72.3758ZM84.9722 77.2C84.0655 77.2 83.2389 76.98 82.4922 76.54C81.7589 76.1 81.1722 75.5067 80.7322 74.76C80.3055 74.0133 80.0922 73.18 80.0922 72.26C80.0922 71.3533 80.3055 70.5333 80.7322 69.8C81.1722 69.0667 81.7589 68.4867 82.4922 68.06C83.2389 67.62 84.0655 67.4 84.9722 67.4C85.8922 67.4 86.7189 67.6133 87.4522 68.04C88.1855 68.4667 88.7655 69.0533 89.1922 69.8C89.6322 70.5333 89.8522 71.3533 89.8522 72.26C89.8522 73.1933 89.6322 74.0333 89.1922 74.78C88.7655 75.5133 88.1855 76.1 87.4522 76.54C86.7189 76.98 85.8922 77.2 84.9722 77.2ZM84.9722 75.84C85.6389 75.84 86.2255 75.6867 86.7322 75.38C87.2522 75.0733 87.6589 74.6467 87.9522 74.1C88.2589 73.5533 88.4122 72.94 88.4122 72.26C88.4122 71.58 88.2589 70.98 87.9522 70.46C87.6589 69.9267 87.2522 69.5067 86.7322 69.2C86.2255 68.8933 85.6389 68.74 84.9722 68.74C84.3189 68.74 83.7322 68.8933 83.2122 69.2C82.6922 69.5067 82.2855 69.9267 81.9922 70.46C81.6989 70.98 81.5522 71.58 81.5522 72.26C81.5522 72.9533 81.6989 73.5733 81.9922 74.12C82.2855 74.6533 82.6922 75.0733 83.2122 75.38C83.7322 75.6867 84.3189 75.84 84.9722 75.84ZM92.6794 77V67.6H94.0794V77H92.6794ZM94.0794 71.52L93.4994 71.26C93.4994 70.0733 93.786 69.1333 94.3594 68.44C94.946 67.7467 95.746 67.4 96.7594 67.4C97.226 67.4 97.6527 67.4867 98.0394 67.66C98.426 67.82 98.786 68.08 99.1194 68.44L98.1994 69.42C97.9727 69.1667 97.7194 68.9867 97.4394 68.88C97.1727 68.7733 96.866 68.72 96.5194 68.72C95.7994 68.72 95.2127 68.96 94.7594 69.44C94.306 69.9067 94.0794 70.6 94.0794 71.52ZM103.874 77.2C103.368 77.2 102.881 77.1333 102.414 77C101.948 76.8533 101.521 76.6533 101.134 76.4C100.761 76.1467 100.434 75.8467 100.154 75.5L101.054 74.58C101.428 75.0333 101.848 75.3733 102.314 75.6C102.794 75.8133 103.328 75.92 103.914 75.92C104.541 75.92 105.028 75.8 105.374 75.56C105.734 75.32 105.914 74.9867 105.914 74.56C105.914 74.16 105.788 73.8467 105.534 73.62C105.281 73.3933 104.954 73.2133 104.554 73.08C104.168 72.9467 103.754 72.82 103.314 72.7C102.874 72.5667 102.454 72.4067 102.054 72.22C101.654 72.02 101.328 71.7467 101.074 71.4C100.834 71.0533 100.714 70.6 100.714 70.04C100.714 69.5067 100.841 69.0467 101.094 68.66C101.361 68.26 101.734 67.9533 102.214 67.74C102.708 67.5133 103.288 67.4 103.954 67.4C104.661 67.4 105.301 67.5267 105.874 67.78C106.448 68.0333 106.908 68.4067 107.254 68.9L106.354 69.8C106.074 69.44 105.721 69.1667 105.294 68.98C104.881 68.78 104.414 68.68 103.894 68.68C103.294 68.68 102.834 68.8 102.514 69.04C102.208 69.2667 102.054 69.5667 102.054 69.94C102.054 70.3 102.181 70.5867 102.434 70.8C102.688 71 103.008 71.1667 103.394 71.3C103.794 71.42 104.214 71.5467 104.654 71.68C105.094 71.8 105.514 71.9667 105.914 72.18C106.314 72.38 106.634 72.66 106.874 73.02C107.128 73.3667 107.254 73.84 107.254 74.44C107.254 75.28 106.948 75.9533 106.334 76.46C105.734 76.9533 104.914 77.2 103.874 77.2ZM119.828 77.2C119.108 77.2 118.461 77.0533 117.888 76.76C117.314 76.4667 116.841 76.0667 116.468 75.56C116.108 75.04 115.888 74.44 115.808 73.76V70.82C115.888 70.1267 116.114 69.5267 116.488 69.02C116.861 68.5 117.334 68.1 117.908 67.82C118.494 67.54 119.134 67.4 119.828 67.4C120.694 67.4 121.474 67.62 122.168 68.06C122.861 68.4867 123.408 69.0733 123.808 69.82C124.221 70.5533 124.428 71.3867 124.428 72.32C124.428 73.24 124.228 74.0667 123.828 74.8C123.428 75.5333 122.874 76.12 122.168 76.56C121.474 76.9867 120.694 77.2 119.828 77.2ZM114.968 80.96V67.6H116.368V70L116.088 72.28L116.368 74.58V80.96H114.968ZM119.588 75.86C120.254 75.86 120.841 75.7133 121.348 75.42C121.854 75.1133 122.248 74.6933 122.528 74.16C122.821 73.6133 122.968 72.9933 122.968 72.3C122.968 71.5933 122.821 70.9733 122.528 70.44C122.248 69.9067 121.854 69.4867 121.348 69.18C120.841 68.8733 120.261 68.72 119.608 68.72C118.954 68.72 118.374 68.8733 117.868 69.18C117.374 69.4867 116.988 69.9067 116.708 70.44C116.428 70.9733 116.288 71.5933 116.288 72.3C116.288 72.9933 116.428 73.6133 116.708 74.16C116.988 74.6933 117.374 75.1133 117.868 75.42C118.361 75.7133 118.934 75.86 119.588 75.86ZM127.267 77V67.6H128.667V77H127.267ZM128.667 71.52L128.087 71.26C128.087 70.0733 128.374 69.1333 128.947 68.44C129.534 67.7467 130.334 67.4 131.347 67.4C131.814 67.4 132.24 67.4867 132.627 67.66C133.014 67.82 133.374 68.08 133.707 68.44L132.787 69.42C132.56 69.1667 132.307 68.9867 132.027 68.88C131.76 68.7733 131.454 68.72 131.107 68.72C130.387 68.72 129.8 68.96 129.347 69.44C128.894 69.9067 128.667 70.6 128.667 71.52ZM139.805 77.2C138.858 77.2 138.011 76.9867 137.265 76.56C136.518 76.1333 135.925 75.5467 135.485 74.8C135.058 74.0533 134.845 73.2133 134.845 72.28C134.845 71.36 135.058 70.5333 135.485 69.8C135.911 69.0533 136.491 68.4667 137.225 68.04C137.958 67.6133 138.778 67.4 139.685 67.4C140.538 67.4 141.291 67.5933 141.945 67.98C142.611 68.3667 143.131 68.9067 143.505 69.6C143.891 70.28 144.085 71.0667 144.085 71.96C144.085 72.0667 144.078 72.1933 144.065 72.34C144.051 72.4733 144.025 72.6333 143.985 72.82H135.845V71.62H143.225L142.725 72.06C142.738 71.3667 142.618 70.7733 142.365 70.28C142.125 69.7733 141.771 69.3867 141.305 69.12C140.851 68.84 140.298 68.7 139.645 68.7C138.965 68.7 138.371 68.8467 137.865 69.14C137.358 69.4333 136.958 69.8467 136.665 70.38C136.385 70.9 136.245 71.52 136.245 72.24C136.245 72.96 136.391 73.5933 136.685 74.14C136.991 74.6867 137.411 75.1133 137.945 75.42C138.491 75.7267 139.118 75.88 139.825 75.88C140.398 75.88 140.925 75.78 141.405 75.58C141.885 75.3667 142.291 75.0533 142.625 74.64L143.525 75.56C143.085 76.08 142.538 76.4867 141.885 76.78C141.245 77.06 140.551 77.2 139.805 77.2ZM147.855 77V66C147.855 65.3467 147.995 64.7667 148.275 64.26C148.568 63.7533 148.968 63.36 149.475 63.08C149.995 62.7867 150.581 62.64 151.235 62.64C151.741 62.64 152.188 62.7333 152.575 62.92C152.961 63.0933 153.315 63.34 153.635 63.66L152.715 64.58C152.501 64.3667 152.275 64.2133 152.035 64.12C151.808 64.0133 151.541 63.96 151.235 63.96C150.608 63.96 150.121 64.1467 149.775 64.52C149.441 64.88 149.275 65.3867 149.275 66.04V77H147.855ZM145.495 68.86V67.6H152.415V68.86H145.495ZM158.68 77.2C157.734 77.2 156.887 76.9867 156.14 76.56C155.394 76.1333 154.8 75.5467 154.36 74.8C153.934 74.0533 153.72 73.2133 153.72 72.28C153.72 71.36 153.934 70.5333 154.36 69.8C154.787 69.0533 155.367 68.4667 156.1 68.04C156.834 67.6133 157.654 67.4 158.56 67.4C159.414 67.4 160.167 67.5933 160.82 67.98C161.487 68.3667 162.007 68.9067 162.38 69.6C162.767 70.28 162.96 71.0667 162.96 71.96C162.96 72.0667 162.954 72.1933 162.94 72.34C162.927 72.4733 162.9 72.6333 162.86 72.82H154.72V71.62H162.1L161.6 72.06C161.614 71.3667 161.494 70.7733 161.24 70.28C161 69.7733 160.647 69.3867 160.18 69.12C159.727 68.84 159.174 68.7 158.52 68.7C157.84 68.7 157.247 68.8467 156.74 69.14C156.234 69.4333 155.834 69.8467 155.54 70.38C155.26 70.9 155.12 71.52 155.12 72.24C155.12 72.96 155.267 73.5933 155.56 74.14C155.867 74.6867 156.287 75.1133 156.82 75.42C157.367 75.7267 157.994 75.88 158.7 75.88C159.274 75.88 159.8 75.78 160.28 75.58C160.76 75.3667 161.167 75.0533 161.5 74.64L162.4 75.56C161.96 76.08 161.414 76.4867 160.76 76.78C160.12 77.06 159.427 77.2 158.68 77.2ZM165.702 77V67.6H167.102V77H165.702ZM167.102 71.52L166.522 71.26C166.522 70.0733 166.809 69.1333 167.382 68.44C167.969 67.7467 168.769 67.4 169.782 67.4C170.249 67.4 170.675 67.4867 171.062 67.66C171.449 67.82 171.809 68.08 172.142 68.44L171.222 69.42C170.995 69.1667 170.742 68.9867 170.462 68.88C170.195 68.7733 169.889 68.72 169.542 68.72C168.822 68.72 168.235 68.96 167.782 69.44C167.329 69.9067 167.102 70.6 167.102 71.52ZM184.28 77L178.8 63.24H180.4L185.14 75.38H184.56L189.34 63.24H190.9L185.38 77H184.28ZM194.934 70.84V69.6H198.934C199.841 69.6 200.534 69.3733 201.014 68.92C201.494 68.4533 201.734 67.8333 201.734 67.06C201.734 66.3133 201.494 65.7067 201.014 65.24C200.534 64.76 199.841 64.52 198.934 64.52H194.934V63.24H198.934C199.828 63.24 200.594 63.4067 201.234 63.74C201.874 64.06 202.361 64.5067 202.694 65.08C203.041 65.6533 203.214 66.3067 203.214 67.04C203.214 67.8 203.041 68.4667 202.694 69.04C202.361 69.6133 201.874 70.06 201.234 70.38C200.594 70.6867 199.828 70.84 198.934 70.84H194.934ZM193.994 77V63.24H195.454V77H193.994ZM202.314 77L197.154 70.64L198.574 70.18L204.194 77H202.314ZM213.267 77V63.64H214.667V77H213.267ZM210.887 68.86V67.6H217.027V68.86H210.887ZM219.556 77V67.6H220.956V77H219.556ZM220.956 71.52L220.376 71.26C220.376 70.0733 220.663 69.1333 221.236 68.44C221.823 67.7467 222.623 67.4 223.636 67.4C224.103 67.4 224.529 67.4867 224.916 67.66C225.303 67.82 225.663 68.08 225.996 68.44L225.076 69.42C224.849 69.1667 224.596 68.9867 224.316 68.88C224.049 68.7733 223.743 68.72 223.396 68.72C222.676 68.72 222.089 68.96 221.636 69.44C221.183 69.9067 220.956 70.6 220.956 71.52ZM231.834 77.2C230.94 77.2 230.14 76.9867 229.434 76.56C228.727 76.12 228.167 75.5333 227.754 74.8C227.354 74.0667 227.154 73.24 227.154 72.32C227.154 71.3867 227.354 70.5533 227.754 69.82C228.167 69.0733 228.727 68.4867 229.434 68.06C230.14 67.62 230.934 67.4 231.814 67.4C232.534 67.4 233.174 67.5467 233.734 67.84C234.307 68.12 234.767 68.52 235.114 69.04C235.474 69.5467 235.694 70.14 235.774 70.82V73.76C235.694 74.44 235.474 75.04 235.114 75.56C234.767 76.08 234.307 76.4867 233.734 76.78C233.174 77.06 232.54 77.2 231.834 77.2ZM232.054 75.86C233.027 75.86 233.807 75.5333 234.394 74.88C234.994 74.2267 235.294 73.3667 235.294 72.3C235.294 71.5933 235.154 70.9733 234.874 70.44C234.607 69.8933 234.227 69.4733 233.734 69.18C233.254 68.8733 232.687 68.72 232.034 68.72C231.367 68.72 230.774 68.8733 230.254 69.18C229.747 69.4867 229.34 69.9133 229.034 70.46C228.74 70.9933 228.594 71.6067 228.594 72.3C228.594 72.9933 228.74 73.6067 229.034 74.14C229.34 74.6733 229.754 75.0933 230.274 75.4C230.794 75.7067 231.387 75.86 232.054 75.86ZM235.214 77V74.48L235.494 72.16L235.214 69.9V67.6H236.614V77H235.214ZM240.053 77V67.6H241.473V77H240.053ZM240.753 65.56C240.486 65.56 240.259 65.4667 240.073 65.28C239.886 65.08 239.793 64.8467 239.793 64.58C239.793 64.3 239.886 64.0667 240.073 63.88C240.259 63.6933 240.486 63.6 240.753 63.6C241.046 63.6 241.279 63.6933 241.453 63.88C241.639 64.0667 241.733 64.3 241.733 64.58C241.733 64.8467 241.639 65.08 241.453 65.28C241.279 65.4667 241.046 65.56 240.753 65.56ZM251.751 77V71.48C251.751 70.6533 251.504 69.9867 251.011 69.48C250.531 68.96 249.891 68.7 249.091 68.7C248.544 68.7 248.064 68.82 247.651 69.06C247.237 69.3 246.911 69.6267 246.671 70.04C246.431 70.4533 246.311 70.9267 246.311 71.46L245.671 71.1C245.671 70.3933 245.837 69.76 246.171 69.2C246.504 68.64 246.951 68.2 247.511 67.88C248.084 67.56 248.737 67.4 249.471 67.4C250.191 67.4 250.831 67.5733 251.391 67.92C251.951 68.2667 252.384 68.7333 252.691 69.32C253.011 69.9067 253.171 70.5467 253.171 71.24V77H251.751ZM244.911 77V67.6H246.311V77H244.911ZM256.39 77V67.6H257.81V77H256.39ZM257.09 65.56C256.823 65.56 256.596 65.4667 256.41 65.28C256.223 65.08 256.13 64.8467 256.13 64.58C256.13 64.3 256.223 64.0667 256.41 63.88C256.596 63.6933 256.823 63.6 257.09 63.6C257.383 63.6 257.616 63.6933 257.79 63.88C257.976 64.0667 258.07 64.3 258.07 64.58C258.07 64.8467 257.976 65.08 257.79 65.28C257.616 65.4667 257.383 65.56 257.09 65.56ZM268.087 77V71.48C268.087 70.6533 267.841 69.9867 267.347 69.48C266.867 68.96 266.227 68.7 265.427 68.7C264.881 68.7 264.401 68.82 263.987 69.06C263.574 69.3 263.247 69.6267 263.007 70.04C262.767 70.4533 262.647 70.9267 262.647 71.46L262.007 71.1C262.007 70.3933 262.174 69.76 262.507 69.2C262.841 68.64 263.287 68.2 263.847 67.88C264.421 67.56 265.074 67.4 265.807 67.4C266.527 67.4 267.167 67.5733 267.727 67.92C268.287 68.2667 268.721 68.7333 269.027 69.32C269.347 69.9067 269.507 70.5467 269.507 71.24V77H268.087ZM261.247 77V67.6H262.647V77H261.247ZM276.606 81.16C275.66 81.16 274.813 80.98 274.066 80.62C273.333 80.2733 272.74 79.78 272.286 79.14L273.206 78.22C273.58 78.7267 274.053 79.12 274.626 79.4C275.2 79.68 275.873 79.82 276.646 79.82C277.713 79.82 278.56 79.5333 279.186 78.96C279.826 78.3867 280.146 77.6067 280.146 76.62V74.28L280.426 72.14L280.146 70.02V67.6H281.546V76.62C281.546 77.5267 281.34 78.32 280.926 79C280.513 79.68 279.933 80.2067 279.186 80.58C278.453 80.9667 277.593 81.16 276.606 81.16ZM276.706 76.9C275.84 76.9 275.06 76.6933 274.366 76.28C273.673 75.8667 273.126 75.3 272.726 74.58C272.326 73.86 272.126 73.0467 272.126 72.14C272.126 71.2333 272.32 70.4267 272.706 69.72C273.106 69 273.653 68.4333 274.346 68.02C275.04 67.6067 275.82 67.4 276.686 67.4C277.42 67.4 278.073 67.54 278.646 67.82C279.233 68.1 279.7 68.5 280.046 69.02C280.406 69.5267 280.626 70.1267 280.706 70.82V73.48C280.626 74.16 280.406 74.76 280.046 75.28C279.686 75.7867 279.22 76.1867 278.646 76.48C278.073 76.76 277.426 76.9 276.706 76.9ZM276.966 75.56C277.62 75.56 278.186 75.42 278.666 75.14C279.16 74.86 279.54 74.4667 279.806 73.96C280.086 73.44 280.226 72.8333 280.226 72.14C280.226 71.46 280.086 70.8667 279.806 70.36C279.54 69.8533 279.16 69.4533 278.666 69.16C278.173 68.8667 277.6 68.72 276.946 68.72C276.293 68.72 275.706 68.8667 275.186 69.16C274.68 69.4533 274.28 69.8533 273.986 70.36C273.706 70.8667 273.566 71.46 273.566 72.14C273.566 72.8067 273.713 73.4 274.006 73.92C274.3 74.44 274.7 74.8467 275.206 75.14C275.713 75.42 276.3 75.56 276.966 75.56Z" fill="#010101" fill-opacity="0.5"/>
<path d="M2.5 90L283.5 90" stroke="black" stroke-opacity="0.2"/>
<path d="M5.52 134.2C4.62667 134.2 3.83333 134.027 3.14 133.68C2.46 133.333 1.92667 132.86 1.54 132.26C1.15333 131.647 0.96 130.953 0.96 130.18C0.96 129.567 1.08 129.007 1.32 128.5C1.57333 127.98 1.92667 127.54 2.38 127.18C2.83333 126.807 3.36 126.553 3.96 126.42L4.12 126.84C3.58667 126.693 3.13333 126.46 2.76 126.14C2.38667 125.82 2.1 125.44 1.9 125C1.7 124.547 1.6 124.073 1.6 123.58C1.6 122.873 1.76667 122.26 2.1 121.74C2.44667 121.207 2.91333 120.787 3.5 120.48C4.1 120.173 4.77333 120.02 5.52 120.02C6.28 120.02 6.95333 120.173 7.54 120.48C8.14 120.787 8.60667 121.207 8.94 121.74C9.27333 122.26 9.44 122.873 9.44 123.58C9.44 124.073 9.34 124.547 9.14 125C8.95333 125.44 8.67333 125.82 8.3 126.14C7.92667 126.46 7.46667 126.693 6.92 126.84L7.08 126.42C7.69333 126.553 8.22 126.807 8.66 127.18C9.11333 127.54 9.46 127.98 9.7 128.5C9.95333 129.007 10.08 129.567 10.08 130.18C10.08 130.953 9.88667 131.647 9.5 132.26C9.12667 132.86 8.59333 133.333 7.9 133.68C7.22 134.027 6.42667 134.2 5.52 134.2ZM5.52 132.88C6.13333 132.88 6.67333 132.76 7.14 132.52C7.62 132.28 7.99333 131.947 8.26 131.52C8.52667 131.08 8.66 130.587 8.66 130.04C8.66 129.48 8.52667 128.993 8.26 128.58C7.99333 128.153 7.62 127.82 7.14 127.58C6.67333 127.327 6.13333 127.2 5.52 127.2C4.92 127.2 4.38 127.327 3.9 127.58C3.43333 127.82 3.06 128.153 2.78 128.58C2.51333 128.993 2.38 129.48 2.38 130.04C2.38 130.587 2.51333 131.08 2.78 131.52C3.06 131.947 3.43333 132.28 3.9 132.52C4.36667 132.76 4.90667 132.88 5.52 132.88ZM5.52 126.06C6.26667 126.06 6.87333 125.84 7.34 125.4C7.82 124.947 8.06 124.367 8.06 123.66C8.06 122.953 7.82 122.38 7.34 121.94C6.87333 121.5 6.26667 121.28 5.52 121.28C4.78667 121.28 4.18 121.5 3.7 121.94C3.22 122.38 2.98 122.953 2.98 123.66C2.98 124.367 3.22 124.947 3.7 125.4C4.18 125.84 4.78667 126.06 5.52 126.06ZM12.3952 129.44L17.5352 120.24H19.1752L13.9552 129.44H12.3952ZM12.3952 130.36V129.44L13.0152 129.04H22.8152V130.36H12.3952ZM19.3352 134V124.82H20.7752V134H19.3352ZM25.6488 134L34.4888 120.24H35.9288L27.1088 134H25.6488ZM33.4288 134.2C32.9221 134.2 32.4554 134.08 32.0288 133.84C31.6021 133.587 31.2621 133.247 31.0088 132.82C30.7554 132.393 30.6288 131.92 30.6288 131.4C30.6288 130.88 30.7554 130.413 31.0088 130C31.2621 129.587 31.5954 129.26 32.0088 129.02C32.4354 128.767 32.9088 128.64 33.4288 128.64C33.9488 128.64 34.4154 128.767 34.8288 129.02C35.2554 129.26 35.5954 129.587 35.8488 130C36.1021 130.413 36.2288 130.88 36.2288 131.4C36.2288 131.92 36.1021 132.393 35.8488 132.82C35.6088 133.247 35.2754 133.587 34.8488 133.84C34.4221 134.08 33.9488 134.2 33.4288 134.2ZM33.4088 133.06C33.8888 133.06 34.2821 132.907 34.5888 132.6C34.8954 132.293 35.0488 131.893 35.0488 131.4C35.0488 130.92 34.8888 130.533 34.5688 130.24C34.2488 129.933 33.8621 129.78 33.4088 129.78C32.9688 129.78 32.5954 129.933 32.2888 130.24C31.9821 130.533 31.8288 130.92 31.8288 131.4C31.8288 131.893 31.9821 132.293 32.2888 132.6C32.5954 132.907 32.9688 133.06 33.4088 133.06ZM28.1488 125.6C27.6421 125.6 27.1754 125.48 26.7488 125.24C26.3221 124.987 25.9821 124.653 25.7288 124.24C25.4754 123.813 25.3488 123.34 25.3488 122.82C25.3488 122.3 25.4754 121.833 25.7288 121.42C25.9821 120.993 26.3154 120.66 26.7288 120.42C27.1554 120.167 27.6288 120.04 28.1488 120.04C28.6688 120.04 29.1354 120.167 29.5488 120.42C29.9754 120.66 30.3154 120.993 30.5688 121.42C30.8221 121.833 30.9488 122.3 30.9488 122.82C30.9488 123.34 30.8221 123.813 30.5688 124.24C30.3288 124.653 29.9954 124.987 29.5688 125.24C29.1421 125.48 28.6688 125.6 28.1488 125.6ZM28.1288 124.46C28.6088 124.46 28.9954 124.307 29.2888 124C29.5954 123.693 29.7488 123.293 29.7488 122.8C29.7488 122.32 29.5888 121.933 29.2688 121.64C28.9621 121.333 28.5821 121.18 28.1288 121.18C27.6888 121.18 27.3154 121.333 27.0088 121.64C26.7021 121.933 26.5488 122.32 26.5488 122.8C26.5488 123.293 26.7021 123.693 27.0088 124C27.3154 124.307 27.6888 124.46 28.1288 124.46ZM49.1878 134.2C48.4678 134.2 47.8211 134.053 47.2478 133.76C46.6745 133.467 46.2011 133.067 45.8278 132.56C45.4678 132.04 45.2478 131.44 45.1678 130.76V127.82C45.2478 127.127 45.4745 126.527 45.8478 126.02C46.2211 125.5 46.6945 125.1 47.2678 124.82C47.8545 124.54 48.4945 124.4 49.1878 124.4C50.0545 124.4 50.8345 124.62 51.5278 125.06C52.2211 125.487 52.7678 126.073 53.1678 126.82C53.5811 127.553 53.7878 128.387 53.7878 129.32C53.7878 130.24 53.5878 131.067 53.1878 131.8C52.7878 132.533 52.2345 133.12 51.5278 133.56C50.8345 133.987 50.0545 134.2 49.1878 134.2ZM44.3278 134V119.84H45.7278V126.9L45.4478 129.16L45.7278 131.48V134H44.3278ZM48.9478 132.86C49.6145 132.86 50.2011 132.713 50.7078 132.42C51.2145 132.113 51.6078 131.693 51.8878 131.16C52.1811 130.613 52.3278 129.993 52.3278 129.3C52.3278 128.593 52.1811 127.973 51.8878 127.44C51.6078 126.907 51.2145 126.487 50.7078 126.18C50.2011 125.873 49.6211 125.72 48.9678 125.72C48.3145 125.72 47.7345 125.873 47.2278 126.18C46.7345 126.487 46.3478 126.907 46.0678 127.44C45.7878 127.973 45.6478 128.593 45.6478 129.3C45.6478 129.993 45.7878 130.613 46.0678 131.16C46.3478 131.693 46.7345 132.113 47.2278 132.42C47.7211 132.713 48.2945 132.86 48.9478 132.86ZM60.967 134.2C60.0204 134.2 59.1737 133.987 58.427 133.56C57.6804 133.133 57.087 132.547 56.647 131.8C56.2204 131.053 56.007 130.213 56.007 129.28C56.007 128.36 56.2204 127.533 56.647 126.8C57.0737 126.053 57.6537 125.467 58.387 125.04C59.1204 124.613 59.9404 124.4 60.847 124.4C61.7004 124.4 62.4537 124.593 63.107 124.98C63.7737 125.367 64.2937 125.907 64.667 126.6C65.0537 127.28 65.247 128.067 65.247 128.96C65.247 129.067 65.2404 129.193 65.227 129.34C65.2137 129.473 65.187 129.633 65.147 129.82H57.007V128.62H64.387L63.887 129.06C63.9004 128.367 63.7804 127.773 63.527 127.28C63.287 126.773 62.9337 126.387 62.467 126.12C62.0137 125.84 61.4604 125.7 60.807 125.7C60.127 125.7 59.5337 125.847 59.027 126.14C58.5204 126.433 58.1204 126.847 57.827 127.38C57.547 127.9 57.407 128.52 57.407 129.24C57.407 129.96 57.5537 130.593 57.847 131.14C58.1537 131.687 58.5737 132.113 59.107 132.42C59.6537 132.727 60.2804 132.88 60.987 132.88C61.5604 132.88 62.087 132.78 62.567 132.58C63.047 132.367 63.4537 132.053 63.787 131.64L64.687 132.56C64.247 133.08 63.7004 133.487 63.047 133.78C62.407 134.06 61.7137 134.2 60.967 134.2ZM67.9887 134V119.84H69.3887V134H67.9887ZM72.827 134V124.6H74.247V134H72.827ZM73.527 122.56C73.2604 122.56 73.0337 122.467 72.847 122.28C72.6604 122.08 72.567 121.847 72.567 121.58C72.567 121.3 72.6604 121.067 72.847 120.88C73.0337 120.693 73.2604 120.6 73.527 120.6C73.8204 120.6 74.0537 120.693 74.227 120.88C74.4137 121.067 74.507 121.3 74.507 121.58C74.507 121.847 74.4137 122.08 74.227 122.28C74.0537 122.467 73.8204 122.56 73.527 122.56ZM82.0248 134.2C81.0782 134.2 80.2315 133.987 79.4848 133.56C78.7382 133.133 78.1448 132.547 77.7048 131.8C77.2782 131.053 77.0648 130.213 77.0648 129.28C77.0648 128.36 77.2782 127.533 77.7048 126.8C78.1315 126.053 78.7115 125.467 79.4448 125.04C80.1782 124.613 80.9982 124.4 81.9048 124.4C82.7582 124.4 83.5115 124.593 84.1648 124.98C84.8315 125.367 85.3515 125.907 85.7248 126.6C86.1115 127.28 86.3048 128.067 86.3048 128.96C86.3048 129.067 86.2982 129.193 86.2848 129.34C86.2715 129.473 86.2448 129.633 86.2048 129.82H78.0648V128.62H85.4448L84.9448 129.06C84.9582 128.367 84.8382 127.773 84.5848 127.28C84.3448 126.773 83.9915 126.387 83.5248 126.12C83.0715 125.84 82.5182 125.7 81.8648 125.7C81.1848 125.7 80.5915 125.847 80.0848 126.14C79.5782 126.433 79.1782 126.847 78.8848 127.38C78.6048 127.9 78.4648 128.52 78.4648 129.24C78.4648 129.96 78.6115 130.593 78.9048 131.14C79.2115 131.687 79.6315 132.113 80.1648 132.42C80.7115 132.727 81.3382 132.88 82.0448 132.88C82.6182 132.88 83.1448 132.78 83.6248 132.58C84.1048 132.367 84.5115 132.053 84.8448 131.64L85.7448 132.56C85.3048 133.08 84.7582 133.487 84.1048 133.78C83.4648 134.06 82.7715 134.2 82.0248 134.2ZM92.1703 134L87.8303 124.6H89.3903L93.0503 132.82H92.1703L95.8503 124.6H97.3703L92.9903 134H92.1703ZM103.655 134.2C102.708 134.2 101.861 133.987 101.115 133.56C100.368 133.133 99.7745 132.547 99.3345 131.8C98.9079 131.053 98.6945 130.213 98.6945 129.28C98.6945 128.36 98.9079 127.533 99.3345 126.8C99.7612 126.053 100.341 125.467 101.075 125.04C101.808 124.613 102.628 124.4 103.535 124.4C104.388 124.4 105.141 124.593 105.795 124.98C106.461 125.367 106.981 125.907 107.355 126.6C107.741 127.28 107.935 128.067 107.935 128.96C107.935 129.067 107.928 129.193 107.915 129.34C107.901 129.473 107.875 129.633 107.835 129.82H99.6945V128.62H107.075L106.575 129.06C106.588 128.367 106.468 127.773 106.215 127.28C105.975 126.773 105.621 126.387 105.155 126.12C104.701 125.84 104.148 125.7 103.495 125.7C102.815 125.7 102.221 125.847 101.715 126.14C101.208 126.433 100.808 126.847 100.515 127.38C100.235 127.9 100.095 128.52 100.095 129.24C100.095 129.96 100.241 130.593 100.535 131.14C100.841 131.687 101.261 132.113 101.795 132.42C102.341 132.727 102.968 132.88 103.675 132.88C104.248 132.88 104.775 132.78 105.255 132.58C105.735 132.367 106.141 132.053 106.475 131.64L107.375 132.56C106.935 133.08 106.388 133.487 105.735 133.78C105.095 134.06 104.401 134.2 103.655 134.2ZM120.433 134.2C119.713 134.2 119.066 134.053 118.493 133.76C117.92 133.467 117.446 133.067 117.073 132.56C116.713 132.04 116.493 131.44 116.413 130.76V127.82C116.493 127.127 116.72 126.527 117.093 126.02C117.466 125.5 117.94 125.1 118.513 124.82C119.1 124.54 119.74 124.4 120.433 124.4C121.3 124.4 122.08 124.62 122.773 125.06C123.466 125.487 124.013 126.073 124.413 126.82C124.826 127.553 125.033 128.387 125.033 129.32C125.033 130.24 124.833 131.067 124.433 131.8C124.033 132.533 123.48 133.12 122.773 133.56C122.08 133.987 121.3 134.2 120.433 134.2ZM115.573 137.96V124.6H116.973V127L116.693 129.28L116.973 131.58V137.96H115.573ZM120.193 132.86C120.86 132.86 121.446 132.713 121.953 132.42C122.46 132.113 122.853 131.693 123.133 131.16C123.426 130.613 123.573 129.993 123.573 129.3C123.573 128.593 123.426 127.973 123.133 127.44C122.853 126.907 122.46 126.487 121.953 126.18C121.446 125.873 120.866 125.72 120.213 125.72C119.56 125.72 118.98 125.873 118.473 126.18C117.98 126.487 117.593 126.907 117.313 127.44C117.033 127.973 116.893 128.593 116.893 129.3C116.893 129.993 117.033 130.613 117.313 131.16C117.593 131.693 117.98 132.113 118.473 132.42C118.966 132.713 119.54 132.86 120.193 132.86ZM132.132 134.2C131.226 134.2 130.399 133.98 129.652 133.54C128.919 133.1 128.332 132.507 127.892 131.76C127.466 131.013 127.252 130.18 127.252 129.26C127.252 128.353 127.466 127.533 127.892 126.8C128.332 126.067 128.919 125.487 129.652 125.06C130.399 124.62 131.226 124.4 132.132 124.4C133.052 124.4 133.879 124.613 134.612 125.04C135.346 125.467 135.926 126.053 136.352 126.8C136.792 127.533 137.012 128.353 137.012 129.26C137.012 130.193 136.792 131.033 136.352 131.78C135.926 132.513 135.346 133.1 134.612 133.54C133.879 133.98 133.052 134.2 132.132 134.2ZM132.132 132.84C132.799 132.84 133.386 132.687 133.892 132.38C134.412 132.073 134.819 131.647 135.112 131.1C135.419 130.553 135.572 129.94 135.572 129.26C135.572 128.58 135.419 127.98 135.112 127.46C134.819 126.927 134.412 126.507 133.892 126.2C133.386 125.893 132.799 125.74 132.132 125.74C131.479 125.74 130.892 125.893 130.372 126.2C129.852 126.507 129.446 126.927 129.152 127.46C128.859 127.98 128.712 128.58 128.712 129.26C128.712 129.953 128.859 130.573 129.152 131.12C129.446 131.653 129.852 132.073 130.372 132.38C130.892 132.687 131.479 132.84 132.132 132.84ZM142.72 134.2C142.213 134.2 141.726 134.133 141.26 134C140.793 133.853 140.366 133.653 139.98 133.4C139.606 133.147 139.28 132.847 139 132.5L139.9 131.58C140.273 132.033 140.693 132.373 141.16 132.6C141.64 132.813 142.173 132.92 142.76 132.92C143.386 132.92 143.873 132.8 144.22 132.56C144.58 132.32 144.76 131.987 144.76 131.56C144.76 131.16 144.633 130.847 144.38 130.62C144.126 130.393 143.8 130.213 143.4 130.08C143.013 129.947 142.6 129.82 142.16 129.7C141.72 129.567 141.3 129.407 140.9 129.22C140.5 129.02 140.173 128.747 139.92 128.4C139.68 128.053 139.56 127.6 139.56 127.04C139.56 126.507 139.686 126.047 139.94 125.66C140.206 125.26 140.58 124.953 141.06 124.74C141.553 124.513 142.133 124.4 142.8 124.4C143.506 124.4 144.146 124.527 144.72 124.78C145.293 125.033 145.753 125.407 146.1 125.9L145.2 126.8C144.92 126.44 144.566 126.167 144.14 125.98C143.726 125.78 143.26 125.68 142.74 125.68C142.14 125.68 141.68 125.8 141.36 126.04C141.053 126.267 140.9 126.567 140.9 126.94C140.9 127.3 141.026 127.587 141.28 127.8C141.533 128 141.853 128.167 142.24 128.3C142.64 128.42 143.06 128.547 143.5 128.68C143.94 128.8 144.36 128.967 144.76 129.18C145.16 129.38 145.48 129.66 145.72 130.02C145.973 130.367 146.1 130.84 146.1 131.44C146.1 132.28 145.793 132.953 145.18 133.46C144.58 133.953 143.76 134.2 142.72 134.2ZM148.916 134V124.6H150.336V134H148.916ZM149.616 122.56C149.349 122.56 149.123 122.467 148.936 122.28C148.749 122.08 148.656 121.847 148.656 121.58C148.656 121.3 148.749 121.067 148.936 120.88C149.123 120.693 149.349 120.6 149.616 120.6C149.909 120.6 150.143 120.693 150.316 120.88C150.503 121.067 150.596 121.3 150.596 121.58C150.596 121.847 150.503 122.08 150.316 122.28C150.143 122.467 149.909 122.56 149.616 122.56ZM155.234 134V120.64H156.634V134H155.234ZM152.854 125.86V124.6H158.994V125.86H152.854ZM161.522 134V124.6H162.942V134H161.522ZM162.222 122.56C161.956 122.56 161.729 122.467 161.542 122.28C161.356 122.08 161.262 121.847 161.262 121.58C161.262 121.3 161.356 121.067 161.542 120.88C161.729 120.693 161.956 120.6 162.222 120.6C162.516 120.6 162.749 120.693 162.922 120.88C163.109 121.067 163.202 121.3 163.202 121.58C163.202 121.847 163.109 122.08 162.922 122.28C162.749 122.467 162.516 122.56 162.222 122.56ZM169.66 134L165.32 124.6H166.88L170.54 132.82H169.66L173.34 124.6H174.86L170.48 134H169.66ZM181.144 134.2C180.198 134.2 179.351 133.987 178.604 133.56C177.858 133.133 177.264 132.547 176.824 131.8C176.398 131.053 176.184 130.213 176.184 129.28C176.184 128.36 176.398 127.533 176.824 126.8C177.251 126.053 177.831 125.467 178.564 125.04C179.298 124.613 180.118 124.4 181.024 124.4C181.878 124.4 182.631 124.593 183.284 124.98C183.951 125.367 184.471 125.907 184.844 126.6C185.231 127.28 185.424 128.067 185.424 128.96C185.424 129.067 185.418 129.193 185.404 129.34C185.391 129.473 185.364 129.633 185.324 129.82H177.184V128.62H184.564L184.064 129.06C184.078 128.367 183.958 127.773 183.704 127.28C183.464 126.773 183.111 126.387 182.644 126.12C182.191 125.84 181.638 125.7 180.984 125.7C180.304 125.7 179.711 125.847 179.204 126.14C178.698 126.433 178.298 126.847 178.004 127.38C177.724 127.9 177.584 128.52 177.584 129.24C177.584 129.96 177.731 130.593 178.024 131.14C178.331 131.687 178.751 132.113 179.284 132.42C179.831 132.727 180.458 132.88 181.164 132.88C181.738 132.88 182.264 132.78 182.744 132.58C183.224 132.367 183.631 132.053 183.964 131.64L184.864 132.56C184.424 133.08 183.878 133.487 183.224 133.78C182.584 134.06 181.891 134.2 181.144 134.2ZM193.063 134V124.6H194.483V134H193.063ZM193.763 122.56C193.496 122.56 193.27 122.467 193.083 122.28C192.896 122.08 192.803 121.847 192.803 121.58C192.803 121.3 192.896 121.067 193.083 120.88C193.27 120.693 193.496 120.6 193.763 120.6C194.056 120.6 194.29 120.693 194.463 120.88C194.65 121.067 194.743 121.3 194.743 121.58C194.743 121.847 194.65 122.08 194.463 122.28C194.29 122.467 194.056 122.56 193.763 122.56ZM197.921 134V124.6H199.321V134H197.921ZM204.381 134V128.24C204.381 127.467 204.147 126.853 203.681 126.4C203.214 125.933 202.627 125.7 201.921 125.7C201.441 125.7 201.001 125.807 200.601 126.02C200.214 126.22 199.901 126.507 199.661 126.88C199.434 127.253 199.321 127.7 199.321 128.22L198.681 127.96C198.681 127.24 198.841 126.613 199.161 126.08C199.481 125.547 199.907 125.133 200.441 124.84C200.987 124.547 201.601 124.4 202.281 124.4C202.947 124.4 203.541 124.547 204.061 124.84C204.594 125.133 205.014 125.547 205.321 126.08C205.641 126.613 205.801 127.247 205.801 127.98V134H204.381ZM210.861 134V128.24C210.861 127.467 210.627 126.853 210.161 126.4C209.694 125.933 209.101 125.7 208.381 125.7C207.914 125.7 207.481 125.807 207.081 126.02C206.694 126.22 206.381 126.507 206.141 126.88C205.914 127.253 205.801 127.7 205.801 128.22L204.961 127.96C205.001 127.24 205.187 126.613 205.521 126.08C205.867 125.547 206.314 125.133 206.861 124.84C207.421 124.547 208.034 124.4 208.701 124.4C209.367 124.4 209.967 124.547 210.501 124.84C211.047 125.133 211.474 125.547 211.781 126.08C212.101 126.613 212.261 127.247 212.261 127.98V134H210.861ZM220.353 134.2C219.633 134.2 218.987 134.053 218.413 133.76C217.84 133.467 217.367 133.067 216.993 132.56C216.633 132.04 216.413 131.44 216.333 130.76V127.82C216.413 127.127 216.64 126.527 217.013 126.02C217.387 125.5 217.86 125.1 218.433 124.82C219.02 124.54 219.66 124.4 220.353 124.4C221.22 124.4 222 124.62 222.693 125.06C223.387 125.487 223.933 126.073 224.333 126.82C224.747 127.553 224.953 128.387 224.953 129.32C224.953 130.24 224.753 131.067 224.353 131.8C223.953 132.533 223.4 133.12 222.693 133.56C222 133.987 221.22 134.2 220.353 134.2ZM215.493 137.96V124.6H216.893V127L216.613 129.28L216.893 131.58V137.96H215.493ZM220.113 132.86C220.78 132.86 221.367 132.713 221.873 132.42C222.38 132.113 222.773 131.693 223.053 131.16C223.347 130.613 223.493 129.993 223.493 129.3C223.493 128.593 223.347 127.973 223.053 127.44C222.773 126.907 222.38 126.487 221.873 126.18C221.367 125.873 220.787 125.72 220.133 125.72C219.48 125.72 218.9 125.873 218.393 126.18C217.9 126.487 217.513 126.907 217.233 127.44C216.953 127.973 216.813 128.593 216.813 129.3C216.813 129.993 216.953 130.613 217.233 131.16C217.513 131.693 217.9 132.113 218.393 132.42C218.887 132.713 219.46 132.86 220.113 132.86ZM231.873 134.2C230.979 134.2 230.179 133.987 229.473 133.56C228.766 133.12 228.206 132.533 227.793 131.8C227.393 131.067 227.193 130.24 227.193 129.32C227.193 128.387 227.393 127.553 227.793 126.82C228.206 126.073 228.766 125.487 229.473 125.06C230.179 124.62 230.973 124.4 231.853 124.4C232.573 124.4 233.213 124.547 233.773 124.84C234.346 125.12 234.806 125.52 235.153 126.04C235.513 126.547 235.733 127.14 235.813 127.82V130.76C235.733 131.44 235.513 132.04 235.153 132.56C234.806 133.08 234.346 133.487 233.773 133.78C233.213 134.06 232.579 134.2 231.873 134.2ZM232.093 132.86C233.066 132.86 233.846 132.533 234.433 131.88C235.033 131.227 235.333 130.367 235.333 129.3C235.333 128.593 235.193 127.973 234.913 127.44C234.646 126.893 234.266 126.473 233.773 126.18C233.293 125.873 232.726 125.72 232.073 125.72C231.406 125.72 230.813 125.873 230.293 126.18C229.786 126.487 229.379 126.913 229.073 127.46C228.779 127.993 228.633 128.607 228.633 129.3C228.633 129.993 228.779 130.607 229.073 131.14C229.379 131.673 229.793 132.093 230.313 132.4C230.833 132.707 231.426 132.86 232.093 132.86ZM235.253 134V131.48L235.533 129.16L235.253 126.9V124.6H236.653V134H235.253ZM244.372 134.2C243.452 134.2 242.619 133.987 241.872 133.56C241.139 133.12 240.552 132.527 240.112 131.78C239.685 131.033 239.472 130.2 239.472 129.28C239.472 128.36 239.685 127.533 240.112 126.8C240.552 126.053 241.139 125.467 241.872 125.04C242.619 124.613 243.452 124.4 244.372 124.4C245.079 124.4 245.739 124.533 246.352 124.8C246.965 125.067 247.485 125.44 247.912 125.92L246.992 126.86C246.672 126.5 246.285 126.227 245.832 126.04C245.379 125.84 244.892 125.74 244.372 125.74C243.705 125.74 243.112 125.893 242.592 126.2C242.072 126.507 241.665 126.927 241.372 127.46C241.079 127.98 240.932 128.587 240.932 129.28C240.932 129.96 241.079 130.573 241.372 131.12C241.665 131.653 242.072 132.073 242.592 132.38C243.112 132.687 243.705 132.84 244.372 132.84C244.905 132.84 245.399 132.747 245.852 132.56C246.305 132.36 246.692 132.08 247.012 131.72L247.952 132.66C247.512 133.153 246.979 133.533 246.352 133.8C245.739 134.067 245.079 134.2 244.372 134.2ZM251.898 134V120.64H253.298V134H251.898ZM249.518 125.86V124.6H255.658V125.86H249.518Z" fill="#010101" fill-opacity="0.5"/>
<path d="M2.5 147L283.5 147" stroke="black" stroke-opacity="0.2"/>
</svg>
