<svg width="42" height="42" viewBox="0 0 42 42" fill="none" xmlns="http://www.w3.org/2000/svg">
<path d="M21.5312 1.37891C25.7209 1.46394 29.7793 2.86511 33.1152 5.38574C36.559 7.98781 39.0416 11.639 40.1807 15.7754C41.3197 19.9117 41.0513 24.304 39.417 28.2744C37.7826 32.2447 34.8729 35.5722 31.1377 37.7451V37.7461C30.9217 37.8711 30.6646 37.9059 30.4229 37.8438C30.181 37.7814 29.9723 37.6266 29.8447 37.4121C29.7172 37.1975 29.681 36.9407 29.7441 36.6992C29.8072 36.458 29.9643 36.252 30.1797 36.126L30.6582 35.8359C33.0211 34.3522 35.0021 32.3404 36.4395 29.96C37.9277 27.4953 38.785 24.7111 38.9443 21.8477H36.0986C35.9749 21.8477 35.8518 21.8242 35.7373 21.7773C35.6227 21.7304 35.5177 21.6613 35.4297 21.5742C35.3417 21.4872 35.2724 21.3835 35.2246 21.2695C35.1768 21.1554 35.1513 21.0328 35.1514 20.9092L35.1475 20.5645C35.0582 17.012 33.5919 13.6232 31.0439 11.1035C28.4136 8.50243 24.8459 7.04004 21.125 7.04004C17.4041 7.04004 13.8364 8.50243 11.2061 11.1035C8.57584 13.7046 7.09865 17.2319 7.09863 20.9092L7.09375 21.002C7.08458 21.0938 7.06118 21.1841 7.02539 21.2695C6.97762 21.3835 6.90825 21.4872 6.82031 21.5742C6.73229 21.6613 6.62734 21.7304 6.5127 21.7773C6.39818 21.8242 6.27512 21.8477 6.15137 21.8477H3.30566C3.46501 24.7111 4.32233 27.4953 5.81055 29.96C7.34352 32.4988 9.49485 34.6182 12.0684 36.125C12.1757 36.1871 12.2704 36.2698 12.3457 36.3682C12.421 36.4665 12.4762 36.5786 12.5078 36.6982C12.5393 36.8179 12.5465 36.9429 12.5293 37.0654C12.512 37.1881 12.4705 37.3066 12.4072 37.4131C12.344 37.5195 12.2604 37.6124 12.1611 37.6865C12.0618 37.7607 11.9483 37.815 11.8281 37.8457C11.708 37.8764 11.5828 37.8833 11.46 37.8662C11.3371 37.8491 11.2184 37.8076 11.1113 37.7451C7.37643 35.5722 4.46732 32.2445 2.83301 28.2744C1.19866 24.304 0.930346 19.9117 2.06934 15.7754C3.20841 11.639 5.69105 7.98781 9.13477 5.38574C12.5784 2.78372 16.7919 1.37482 21.125 1.375L21.5312 1.37891ZM33.0264 10.4639C35.3986 13.0987 36.8035 16.448 37.0137 19.9707H38.9521C38.7381 15.9414 37.1291 12.1072 34.3945 9.11133L33.0264 10.4639ZM7.85449 9.11133C5.12023 12.1071 3.51183 15.9416 3.29785 19.9707H5.23633C5.44651 16.4483 6.85071 13.0987 9.22266 10.4639L7.85449 9.11133ZM20.1787 3.28125C16.103 3.4922 12.2251 5.08336 9.19531 7.78613L10.5635 9.13867C13.2286 6.79067 16.6164 5.40076 20.1787 5.19336V3.28125ZM22.0713 5.19336C25.6334 5.40074 29.0205 6.79097 31.6855 9.13867L33.0537 7.78613C30.024 5.08365 26.1467 3.49219 22.0713 3.28125V5.19336Z" fill="url(#paint0_linear_5307_5946)" stroke="url(#paint1_linear_5307_5946)" stroke-width="0.5"/>
<path d="M21.459 21.7617C23.7442 21.8776 25.9125 22.8363 27.5381 24.4619C29.2721 26.196 30.2472 28.5477 30.25 31L30.2441 31.3428C30.1808 33.052 29.6441 34.7127 28.6914 36.1387C27.675 37.6598 26.2302 38.8458 24.54 39.5459C22.8498 40.246 20.9896 40.4292 19.1953 40.0723C17.401 39.7153 15.7526 38.8346 14.459 37.541C13.1654 36.2474 12.2847 34.599 11.9277 32.8047C11.5708 31.0104 11.754 29.1502 12.4541 27.46C13.1542 25.7698 14.3402 24.325 15.8613 23.3086C17.3824 22.2924 19.1707 21.75 21 21.75L21.459 21.7617ZM23.8184 24.1953C22.4727 23.638 20.992 23.4923 19.5635 23.7764C18.1347 24.0606 16.8221 24.7619 15.792 25.792C14.7619 26.8221 14.0606 28.1347 13.7764 29.5635C13.4923 30.992 13.638 32.4727 14.1953 33.8184C14.7528 35.1642 15.697 36.3147 16.9082 37.124C18.1194 37.9333 19.5433 38.3652 21 38.3652L21.3652 38.3555C23.1849 38.2632 24.9116 37.5005 26.2061 36.2061C27.5868 34.8253 28.363 32.9527 28.3652 31C28.3652 29.5433 27.9333 28.1194 27.124 26.9082C26.3147 25.697 25.1642 24.7528 23.8184 24.1953Z" fill="url(#paint2_linear_5307_5946)" stroke="url(#paint3_linear_5307_5946)" stroke-width="0.5"/>
<path d="M20.0801 15.8955C19.87 15.9373 19.6769 16.0409 19.5254 16.1924C19.374 16.3439 19.2713 16.537 19.2295 16.7471C19.1877 16.9572 19.209 17.1751 19.291 17.373C19.373 17.5709 19.5114 17.7404 19.6895 17.8594C19.8674 17.9783 20.077 18.0409 20.291 18.041C20.5783 18.0407 20.8545 17.9268 21.0576 17.7236C21.2605 17.5205 21.3747 17.2451 21.375 16.958C21.3749 16.7439 21.3114 16.5345 21.1924 16.3564C21.0733 16.1783 20.904 16.039 20.7061 15.957C20.5082 15.8751 20.2901 15.8537 20.0801 15.8955ZM23.208 16.958C23.208 17.5349 23.0373 18.0995 22.7168 18.5791C22.3964 19.0586 21.941 19.4326 21.4082 19.6533C20.8753 19.8741 20.2884 19.9319 19.7227 19.8193C19.1569 19.7068 18.6374 19.4284 18.2295 19.0205C17.8216 18.6126 17.5432 18.0931 17.4307 17.5273C17.3182 16.9616 17.3759 16.3747 17.5967 15.8418C17.8174 15.309 18.1914 14.8536 18.6709 14.5332C19.1505 14.2127 19.7151 14.042 20.292 14.042H20.2939C20.575 14.0441 20.8531 14.0894 21.1211 14.1719L24.207 9.76562C24.2761 9.66706 24.3643 9.58322 24.4658 9.51855C24.5673 9.45394 24.6804 9.40957 24.7988 9.38867C24.9173 9.36778 25.0388 9.37048 25.1562 9.39648C25.2737 9.42252 25.3848 9.47203 25.4834 9.54102C25.582 9.61002 25.6667 9.69732 25.7314 9.79883C25.7962 9.90035 25.8404 10.0142 25.8613 10.1328C25.8822 10.2513 25.8795 10.3728 25.8535 10.4902C25.8275 10.6078 25.778 10.7188 25.709 10.8174L22.6211 15.2256C22.9975 15.7232 23.2054 16.3296 23.208 16.957V16.958Z" fill="url(#paint4_linear_5307_5946)" stroke="url(#paint5_linear_5307_5946)" stroke-width="0.5"/>
<path d="M21 24.75C21.2301 24.75 21.4399 24.8591 21.5869 25.0342C21.7328 25.2081 21.8096 25.4367 21.8096 25.667V26.2041H22.6279C23.0735 26.2049 23.4897 26.4167 23.7891 26.7734C24.0873 27.1291 24.2496 27.6036 24.25 28.0908L24.2354 28.2627C24.207 28.432 24.1368 28.5932 24.0273 28.7236C23.8803 28.8986 23.6705 29.0078 23.4404 29.0078C23.2104 29.0077 23.0005 28.8987 22.8535 28.7236C22.7076 28.5497 22.6309 28.3211 22.6309 28.0908C22.6308 28.0651 22.6228 28.0465 22.6162 28.0381H19.3838C19.3772 28.0465 19.3692 28.0651 19.3691 28.0908V30.0303L19.374 30.0645C19.3769 30.0727 19.3807 30.079 19.3838 30.083H22.6279C23.0735 30.0836 23.4897 30.2956 23.7891 30.6523C24.0873 31.0078 24.2495 31.4817 24.25 31.9688V33.9092L24.2422 34.0908C24.2068 34.5129 24.0501 34.9153 23.7891 35.2266C23.4897 35.5833 23.0735 35.7951 22.6279 35.7959H21.8096V36.333C21.8096 36.5633 21.7328 36.7919 21.5869 36.9658C21.4399 37.1409 21.2301 37.25 21 37.25C20.7699 37.25 20.5601 37.1409 20.4131 36.9658C20.2672 36.7919 20.1904 36.5633 20.1904 36.333V35.7959H19.3721C18.9265 35.7951 18.5103 35.5833 18.2109 35.2266C17.9127 34.8709 17.7504 34.3964 17.75 33.9092L17.7646 33.7373C17.793 33.568 17.8632 33.4068 17.9727 33.2764C18.1197 33.1014 18.3295 32.9922 18.5596 32.9922C18.7896 32.9923 18.9995 33.1013 19.1465 33.2764C19.2924 33.4503 19.3691 33.6789 19.3691 33.9092C19.3692 33.9349 19.3772 33.9535 19.3838 33.9619H22.6162C22.6228 33.9535 22.6308 33.9349 22.6309 33.9092V31.9697L22.626 31.9355C22.6231 31.9273 22.6193 31.921 22.6162 31.917H19.3721C18.9265 31.9164 18.5103 31.7044 18.2109 31.3477C17.9127 30.9922 17.7505 30.5183 17.75 30.0312V28.0908L17.7578 27.9092C17.7932 27.4871 17.9499 27.0847 18.2109 26.7734C18.5103 26.4167 18.9265 26.2049 19.3721 26.2041H20.1904V25.667C20.1904 25.4367 20.2672 25.2081 20.4131 25.0342C20.5601 24.8591 20.7699 24.75 21 24.75Z" fill="url(#paint6_linear_5307_5946)" stroke="url(#paint7_linear_5307_5946)" stroke-width="0.5"/>
<defs>
<linearGradient id="paint0_linear_5307_5946" x1="-9" y1="10.5" x2="21.0091" y2="16.9244" gradientUnits="userSpaceOnUse">
<stop stop-color="#9E87FF"/>
<stop offset="0.560184" stop-color="#6DBFFE"/>
<stop offset="1" stop-color="#FF8F8F"/>
</linearGradient>
<linearGradient id="paint1_linear_5307_5946" x1="21.125" y1="1.625" x2="21.125" y2="43.8963" gradientUnits="userSpaceOnUse">
<stop stop-color="#F4853B"/>
<stop offset="1" stop-color="#3448F5"/>
</linearGradient>
<linearGradient id="paint2_linear_5307_5946" x1="12.8908" y1="18.1844" x2="22.7278" y2="20.2968" gradientUnits="userSpaceOnUse">
<stop stop-color="#9E87FF"/>
<stop offset="0.5" stop-color="#6DBFFE"/>
<stop offset="1" stop-color="#FF8F8F"/>
</linearGradient>
<linearGradient id="paint3_linear_5307_5946" x1="21" y1="22" x2="21" y2="43.1357" gradientUnits="userSpaceOnUse">
<stop stop-color="#F4853B"/>
<stop offset="1" stop-color="#3448F5"/>
</linearGradient>
<linearGradient id="paint4_linear_5307_5946" x1="21.625" y1="9.625" x2="21.625" y2="21.367" gradientUnits="userSpaceOnUse">
<stop stop-color="#F4853B"/>
<stop offset="1" stop-color="#3448F5"/>
</linearGradient>
<linearGradient id="paint5_linear_5307_5946" x1="21.625" y1="9.625" x2="21.625" y2="21.367" gradientUnits="userSpaceOnUse">
<stop stop-color="#F4853B"/>
<stop offset="1" stop-color="#3448F5"/>
</linearGradient>
<linearGradient id="paint6_linear_5307_5946" x1="17" y1="26" x2="20.8236" y2="26.2942" gradientUnits="userSpaceOnUse">
<stop stop-color="#9E87FF"/>
<stop offset="0.5" stop-color="#6DBFFE"/>
<stop offset="1" stop-color="#FF8F8F"/>
</linearGradient>
<linearGradient id="paint7_linear_5307_5946" x1="21" y1="25" x2="21" y2="39.0904" gradientUnits="userSpaceOnUse">
<stop stop-color="#F4853B"/>
<stop offset="1" stop-color="#3448F5"/>
</linearGradient>
</defs>
</svg>
