<svg width="60" height="60" viewBox="0 0 60 60" fill="none" xmlns="http://www.w3.org/2000/svg">
<g opacity="0.7">
<path d="M25.1777 6.75879C25.5041 6.69244 25.8347 6.90002 25.9043 7.23535L25.917 7.36035C25.918 7.6467 25.7177 7.90348 25.4268 7.96387C16.633 9.78934 9.78039 16.6421 7.96777 25.4219C7.90771 25.7126 7.65165 25.913 7.36621 25.9131C7.32469 25.9131 7.28243 25.9089 7.24121 25.9004C6.909 25.832 6.69302 25.5066 6.7627 25.1729L6.85645 24.7402C8.9009 15.6875 16.0471 8.65417 25.1768 6.75879H25.1777Z" fill="url(#paint0_linear_5238_6392)" stroke="url(#paint1_linear_5238_6392)" stroke-width="0.5"/>
<path d="M34.8135 6.75098C44.0941 8.66418 51.3259 15.8963 53.2383 25.1758C53.3082 25.5097 53.0922 25.8349 52.7598 25.9033H52.7588C52.7185 25.9114 52.6779 25.916 52.6357 25.916C52.3866 25.916 52.1583 25.7633 52.0654 25.5293L52.0342 25.4248C50.2207 16.6264 43.3639 9.76972 34.5654 7.95605C34.2332 7.88763 34.0172 7.56226 34.0869 7.22852H34.0879C34.1567 6.89175 34.4896 6.68439 34.8135 6.75098Z" fill="url(#paint2_linear_5238_6392)" stroke="url(#paint3_linear_5238_6392)" stroke-width="0.5"/>
<path d="M7.24219 34.082C7.56057 34.0174 7.89883 34.2223 7.96777 34.5605L8.05566 34.9707C9.99272 43.5596 16.7688 50.2326 25.4268 52.0303C25.7178 52.0907 25.9181 52.3473 25.917 52.6338L25.9043 52.7578C25.844 53.0488 25.5878 53.248 25.3027 53.248C25.261 53.248 25.2195 53.2435 25.1787 53.2354H25.1768C15.9016 51.3092 8.67304 44.0774 6.7627 34.8105L6.75 34.6855C6.74914 34.3988 6.95049 34.1419 7.24121 34.082H7.24219Z" fill="url(#paint4_linear_5238_6392)" stroke="url(#paint5_linear_5238_6392)" stroke-width="0.5"/>
<path d="M52.7588 34.082H52.7598C53.0927 34.1505 53.3066 34.4764 53.2383 34.8086C51.3276 44.0952 44.0952 51.3325 34.8135 53.2461C34.7723 53.2546 34.73 53.2588 34.6885 53.2588C34.4043 53.2587 34.1466 53.0601 34.0869 52.7686L34.0742 52.6445C34.0732 52.3576 34.2746 52.1009 34.5654 52.041C43.3645 50.227 50.2214 43.3661 52.0342 34.5615C52.1028 34.2233 52.4363 34.0175 52.7588 34.082Z" fill="url(#paint6_linear_5238_6392)" stroke="url(#paint7_linear_5238_6392)" stroke-width="0.5"/>
<path d="M29.959 16.8701C29.9507 16.8688 29.9438 16.868 29.9404 16.8672L29.9395 16.8662L29.9482 16.8682C29.9572 16.8701 29.9747 16.8727 29.9971 16.873H29.998L30.001 16.874C30.1793 16.874 30.3334 16.7956 30.4424 16.6816L30.4434 16.6826L33.8838 13.2422C34.124 13.0019 34.1241 12.6124 33.8838 12.3721C33.6435 12.1319 33.254 12.1319 33.0137 12.3721L30.6162 14.7695V7.35352C30.6162 7.01365 30.3408 6.73841 30.001 6.73828C29.661 6.73828 29.3858 7.01356 29.3857 7.35352V14.7754L26.9883 12.373C26.7474 12.131 26.3579 12.1327 26.1182 12.3711V12.3721C25.8779 12.6123 25.877 13.0019 26.1172 13.2422L29.5615 16.6934C29.6679 16.8002 29.8095 16.8608 29.959 16.8701ZM29.959 16.8701C29.9606 16.8704 29.9622 16.8709 29.9639 16.8711C29.972 16.8722 29.9806 16.8727 29.9893 16.873C29.9791 16.8729 29.9691 16.8707 29.959 16.8701Z" fill="url(#paint8_linear_5238_6392)" stroke="url(#paint9_linear_5238_6392)" stroke-width="0.5"/>
<path d="M30.0215 43.125L30.0459 43.1299H30.0479L30.0469 43.1309C30.2058 43.143 30.3429 43.2134 30.4424 43.3174L30.4434 43.3164L33.8838 46.7568C34.124 46.9972 34.1241 47.3867 33.8838 47.627C33.7637 47.747 33.6053 47.8066 33.4482 47.8066C33.2913 47.8065 33.1336 47.7469 33.0137 47.627L30.6162 45.2295V52.6455C30.6162 52.9854 30.3408 53.2606 30.001 53.2607C29.661 53.2607 29.3857 52.9855 29.3857 52.6455V45.2227L26.9883 47.626C26.7474 47.868 26.3579 47.8663 26.1182 47.6279V47.627C25.8778 47.3866 25.8778 46.9972 26.1182 46.7568L29.5615 43.3057C29.6672 43.1995 29.8077 43.1389 29.9561 43.1289L29.9756 43.125H30.0215Z" fill="url(#paint10_linear_5238_6392)" stroke="url(#paint11_linear_5238_6392)" stroke-width="0.5"/>
<path d="M46.7607 26.1133C47.0005 25.8748 47.39 25.8722 47.6309 26.1143L47.6299 26.1152C47.8397 26.3255 47.8665 26.6491 47.709 26.8877L47.6299 26.9844L45.2285 29.3809H52.6377C52.9775 29.3809 53.2527 29.6563 53.2529 29.9961C53.2529 30.3361 52.9777 30.6113 52.6377 30.6113H45.2324L47.6299 33.0088C47.8702 33.2491 47.8702 33.6386 47.6299 33.8789C47.5099 33.9989 47.3523 34.0595 47.1953 34.0596C47.0382 34.0596 46.8798 33.999 46.7598 33.8789L43.3203 30.4395L43.3213 30.4385C43.2163 30.3381 43.1448 30.1991 43.1338 30.0381L43.1328 30.0391V30.0371L43.1289 30.0146V29.9736L43.1328 29.9521C43.1426 29.8039 43.2038 29.6634 43.3096 29.5576L46.7598 26.1133H46.7607Z" fill="url(#paint12_linear_5238_6392)" stroke="url(#paint13_linear_5238_6392)" stroke-width="0.5"/>
<path d="M12.3721 26.1152C12.613 25.8731 13.0025 25.8748 13.2422 26.1133H13.2432L16.6943 29.5576L16.7715 29.6514C16.8383 29.7516 16.8749 29.8701 16.875 29.9922V29.9961L16.8604 30.1279C16.8322 30.2544 16.7651 30.3643 16.6768 30.4463L16.6758 30.4453L13.2432 33.8789C13.1231 33.999 12.9647 34.0596 12.8076 34.0596C12.6506 34.0595 12.493 33.9989 12.373 33.8789C12.1328 33.6386 12.1327 33.2491 12.373 33.0088L14.7705 30.6113H7.36523C7.02528 30.6113 6.75 30.3361 6.75 29.9961C6.7502 29.6563 7.02541 29.3809 7.36523 29.3809H14.7744L12.373 26.9844C12.133 26.7444 12.1327 26.3556 12.3721 26.1152Z" fill="url(#paint14_linear_5238_6392)" stroke="url(#paint15_linear_5238_6392)" stroke-width="0.5"/>
<path d="M29.9922 19.1484C33.5046 19.1485 36.3621 22.0058 36.3623 25.5186C36.3623 27.9018 35.0367 29.9798 33.084 31.0645C36.6595 32.064 39.6237 34.7618 40.8965 38.4014L40.958 38.6162C41.0702 39.1242 40.9656 39.6608 40.6621 40.0889V40.0898C40.3171 40.5752 39.7748 40.8545 39.1787 40.8545H30.4355C30.0956 40.8545 29.8203 40.5792 29.8203 40.2393C29.8205 39.8994 30.0957 39.624 30.4355 39.624H39.1787C39.3733 39.624 39.546 39.5351 39.6572 39.3779L39.6582 39.377C39.7757 39.2114 39.8046 39.0059 39.7354 38.8076C38.2826 34.6546 34.3712 31.8652 30.0039 31.8652C25.7674 31.8654 21.9625 34.4835 20.4121 38.4229L20.2695 38.8076C20.2006 39.0064 20.2299 39.2122 20.3477 39.3779L20.3926 39.4336C20.5034 39.5561 20.6571 39.624 20.8271 39.624H25.5547C25.8945 39.6241 26.1697 39.8995 26.1699 40.2393C26.1699 40.5792 25.8946 40.8544 25.5547 40.8545H20.8271C20.2322 40.8545 19.6892 40.5756 19.3447 40.0908C18.9978 39.6023 18.9102 38.9716 19.1084 38.4033C20.3772 34.7647 23.3395 32.0673 26.916 31.0664C24.9679 29.9823 23.6455 27.9032 23.6455 25.5186C23.6457 22.0067 26.4917 19.1484 29.9922 19.1484ZM29.9922 20.3789C27.1721 20.3789 24.8761 22.6836 24.876 25.5186C24.876 28.3394 27.171 30.6348 29.9922 30.6348C32.8272 30.6347 35.1318 28.3383 35.1318 25.5186C35.1317 22.6847 32.8261 20.379 29.9922 20.3789Z" fill="url(#paint16_linear_5238_6392)" stroke="url(#paint17_linear_5238_6392)" stroke-width="0.5"/>
</g>
<defs>
<linearGradient id="paint0_linear_5238_6392" x1="16.3336" y1="6.99609" x2="16.3336" y2="28.9147" gradientUnits="userSpaceOnUse">
<stop stop-color="#F4853B"/>
<stop offset="1" stop-color="#3448F5"/>
</linearGradient>
<linearGradient id="paint1_linear_5238_6392" x1="16.3336" y1="6.99609" x2="16.3336" y2="28.9147" gradientUnits="userSpaceOnUse">
<stop stop-color="#F4853B"/>
<stop offset="1" stop-color="#3448F5"/>
</linearGradient>
<linearGradient id="paint2_linear_5238_6392" x1="43.6628" y1="6.98828" x2="43.6628" y2="28.9199" gradientUnits="userSpaceOnUse">
<stop stop-color="#F4853B"/>
<stop offset="1" stop-color="#3448F5"/>
</linearGradient>
<linearGradient id="paint3_linear_5238_6392" x1="43.6628" y1="6.98828" x2="43.6628" y2="28.9199" gradientUnits="userSpaceOnUse">
<stop stop-color="#F4853B"/>
<stop offset="1" stop-color="#3448F5"/>
</linearGradient>
<linearGradient id="paint4_linear_5238_6392" x1="16.3336" y1="34.3203" x2="16.3336" y2="56.2516" gradientUnits="userSpaceOnUse">
<stop stop-color="#F4853B"/>
<stop offset="1" stop-color="#3448F5"/>
</linearGradient>
<linearGradient id="paint5_linear_5238_6392" x1="16.3336" y1="34.3203" x2="16.3336" y2="56.2516" gradientUnits="userSpaceOnUse">
<stop stop-color="#F4853B"/>
<stop offset="1" stop-color="#3448F5"/>
</linearGradient>
<linearGradient id="paint6_linear_5238_6392" x1="43.6627" y1="34.3203" x2="43.6627" y2="56.2645" gradientUnits="userSpaceOnUse">
<stop stop-color="#F4853B"/>
<stop offset="1" stop-color="#3448F5"/>
</linearGradient>
<linearGradient id="paint7_linear_5238_6392" x1="43.6627" y1="34.3203" x2="43.6627" y2="56.2645" gradientUnits="userSpaceOnUse">
<stop stop-color="#F4853B"/>
<stop offset="1" stop-color="#3448F5"/>
</linearGradient>
<linearGradient id="paint8_linear_5238_6392" x1="30.0007" y1="6.98828" x2="30.0007" y2="18.3027" gradientUnits="userSpaceOnUse">
<stop stop-color="#F4853B"/>
<stop offset="1" stop-color="#3448F5"/>
</linearGradient>
<linearGradient id="paint9_linear_5238_6392" x1="30.0007" y1="6.98828" x2="30.0007" y2="18.3027" gradientUnits="userSpaceOnUse">
<stop stop-color="#F4853B"/>
<stop offset="1" stop-color="#3448F5"/>
</linearGradient>
<linearGradient id="paint10_linear_5238_6392" x1="30.0007" y1="43.375" x2="30.0007" y2="54.6894" gradientUnits="userSpaceOnUse">
<stop stop-color="#F4853B"/>
<stop offset="1" stop-color="#3448F5"/>
</linearGradient>
<linearGradient id="paint11_linear_5238_6392" x1="30.0007" y1="43.375" x2="30.0007" y2="54.6894" gradientUnits="userSpaceOnUse">
<stop stop-color="#F4853B"/>
<stop offset="1" stop-color="#3448F5"/>
</linearGradient>
<linearGradient id="paint12_linear_5238_6392" x1="48.1909" y1="26.1836" x2="48.1909" y2="35.1378" gradientUnits="userSpaceOnUse">
<stop stop-color="#F4853B"/>
<stop offset="1" stop-color="#3448F5"/>
</linearGradient>
<linearGradient id="paint13_linear_5238_6392" x1="48.1909" y1="26.1836" x2="48.1909" y2="35.1378" gradientUnits="userSpaceOnUse">
<stop stop-color="#F4853B"/>
<stop offset="1" stop-color="#3448F5"/>
</linearGradient>
<linearGradient id="paint14_linear_5238_6392" x1="11.8124" y1="26.1836" x2="11.8124" y2="35.1378" gradientUnits="userSpaceOnUse">
<stop stop-color="#F4853B"/>
<stop offset="1" stop-color="#3448F5"/>
</linearGradient>
<linearGradient id="paint15_linear_5238_6392" x1="11.8124" y1="26.1836" x2="11.8124" y2="35.1378" gradientUnits="userSpaceOnUse">
<stop stop-color="#F4853B"/>
<stop offset="1" stop-color="#3448F5"/>
</linearGradient>
<linearGradient id="paint16_linear_5238_6392" x1="30.0028" y1="19.3984" x2="30.0028" y2="44.2991" gradientUnits="userSpaceOnUse">
<stop stop-color="#F4853B"/>
<stop offset="1" stop-color="#3448F5"/>
</linearGradient>
<linearGradient id="paint17_linear_5238_6392" x1="30.0028" y1="19.3984" x2="30.0028" y2="44.2991" gradientUnits="userSpaceOnUse">
<stop stop-color="#F4853B"/>
<stop offset="1" stop-color="#3448F5"/>
</linearGradient>
</defs>
</svg>
